<?xml version="1.0" encoding="utf-8" standalone="no"?>
<!DOCTYPE svg PUBLIC "-//W3C//DTD SVG 1.1//EN"
  "http://www.w3.org/Graphics/SVG/1.1/DTD/svg11.dtd">
<!-- Created with matplotlib (https://matplotlib.org/) -->
<svg height="432pt" version="1.1" viewBox="0 0 720 432" width="720pt" xmlns="http://www.w3.org/2000/svg" xmlns:xlink="http://www.w3.org/1999/xlink">
 <defs>
  <style type="text/css">
*{stroke-linecap:butt;stroke-linejoin:round;}
  </style>
 </defs>
 <g id="figure_1">
  <g id="patch_1">
   <path d="M 0 432 
L 720 432 
L 720 0 
L 0 0 
z
" style="fill:#ffffff;"/>
  </g>
  <g id="axes_1">
   <g id="patch_2">
    <path d="M 90 384.48 
L 648 384.48 
L 648 51.84 
L 90 51.84 
z
" style="fill:#ffffff;"/>
   </g>
   <g id="PathCollection_1">
    <defs>
     <path d="M 0 3 
C 0.795609 3 1.55874 2.683901 2.12132 2.12132 
C 2.683901 1.55874 3 0.795609 3 0 
C 3 -0.795609 2.683901 -1.55874 2.12132 -2.12132 
C 1.55874 -2.683901 0.795609 -3 0 -3 
C -0.795609 -3 -1.55874 -2.683901 -2.12132 -2.12132 
C -2.683901 -1.55874 -3 -0.795609 -3 0 
C -3 0.795609 -2.683901 1.55874 -2.12132 2.12132 
C -1.55874 2.683901 -0.795609 3 0 3 
z
" id="mc43025590e" style="stroke:#00bfc4;"/>
    </defs>
    <g clip-path="url(#p328ca61d27)">
     <use style="fill:#00bfc4;stroke:#00bfc4;" x="549.316826" xlink:href="#mc43025590e" y="173.419722"/>
     <use style="fill:#00bfc4;stroke:#00bfc4;" x="491.970219" xlink:href="#mc43025590e" y="75.250966"/>
     <use style="fill:#00bfc4;stroke:#00bfc4;" x="481.140265" xlink:href="#mc43025590e" y="154.351731"/>
     <use style="fill:#00bfc4;stroke:#00bfc4;" x="497.779252" xlink:href="#mc43025590e" y="185.311714"/>
     <use style="fill:#00bfc4;stroke:#00bfc4;" x="476.12412" xlink:href="#mc43025590e" y="165.513094"/>
     <use style="fill:#00bfc4;stroke:#00bfc4;" x="427.320815" xlink:href="#mc43025590e" y="149.947044"/>
     <use style="fill:#00bfc4;stroke:#00bfc4;" x="459.640222" xlink:href="#mc43025590e" y="126.238584"/>
     <use style="fill:#00bfc4;stroke:#00bfc4;" x="493.473147" xlink:href="#mc43025590e" y="161.730575"/>
     <use style="fill:#00bfc4;stroke:#00bfc4;" x="481.859133" xlink:href="#mc43025590e" y="105.801726"/>
     <use style="fill:#00bfc4;stroke:#00bfc4;" x="493.687813" xlink:href="#mc43025590e" y="163.644996"/>
     <use style="fill:#00bfc4;stroke:#00bfc4;" x="463.841113" xlink:href="#mc43025590e" y="169.772715"/>
     <use style="fill:#00bfc4;stroke:#00bfc4;" x="478.110878" xlink:href="#mc43025590e" y="166.447669"/>
     <use style="fill:#00bfc4;stroke:#00bfc4;" x="493.684732" xlink:href="#mc43025590e" y="163.639602"/>
     <use style="fill:#00bfc4;stroke:#00bfc4;" x="518.626997" xlink:href="#mc43025590e" y="191.670739"/>
     <use style="fill:#00bfc4;stroke:#00bfc4;" x="491.789964" xlink:href="#mc43025590e" y="156.456465"/>
     <use style="fill:#00bfc4;stroke:#00bfc4;" x="448.195283" xlink:href="#mc43025590e" y="156.070651"/>
     <use style="fill:#00bfc4;stroke:#00bfc4;" x="470.878475" xlink:href="#mc43025590e" y="100.660538"/>
     <use style="fill:#00bfc4;stroke:#00bfc4;" x="582.35267" xlink:href="#mc43025590e" y="159.128834"/>
     <use style="fill:#00bfc4;stroke:#00bfc4;" x="404.438913" xlink:href="#mc43025590e" y="143.792481"/>
     <use style="fill:#00bfc4;stroke:#00bfc4;" x="154.50725" xlink:href="#mc43025590e" y="309.516042"/>
     <use style="fill:#00bfc4;stroke:#00bfc4;" x="371.186151" xlink:href="#mc43025590e" y="267.427998"/>
     <use style="fill:#00bfc4;stroke:#00bfc4;" x="362.426569" xlink:href="#mc43025590e" y="175.957056"/>
     <use style="fill:#00bfc4;stroke:#00bfc4;" x="174.299683" xlink:href="#mc43025590e" y="290.656968"/>
     <use style="fill:#00bfc4;stroke:#00bfc4;" x="456.597529" xlink:href="#mc43025590e" y="202.422408"/>
     <use style="fill:#00bfc4;stroke:#00bfc4;" x="203.790642" xlink:href="#mc43025590e" y="234.797013"/>
     <use style="fill:#00bfc4;stroke:#00bfc4;" x="220.766993" xlink:href="#mc43025590e" y="225.985762"/>
     <use style="fill:#00bfc4;stroke:#00bfc4;" x="194.190214" xlink:href="#mc43025590e" y="321.468632"/>
     <use style="fill:#00bfc4;stroke:#00bfc4;" x="298.608321" xlink:href="#mc43025590e" y="332.51045"/>
     <use style="fill:#00bfc4;stroke:#00bfc4;" x="213.634223" xlink:href="#mc43025590e" y="207.877905"/>
     <use style="fill:#00bfc4;stroke:#00bfc4;" x="161.333001" xlink:href="#mc43025590e" y="167.566982"/>
     <use style="fill:#00bfc4;stroke:#00bfc4;" x="335.378534" xlink:href="#mc43025590e" y="369.249436"/>
     <use style="fill:#00bfc4;stroke:#00bfc4;" x="355.795278" xlink:href="#mc43025590e" y="293.264647"/>
     <use style="fill:#00bfc4;stroke:#00bfc4;" x="184.028169" xlink:href="#mc43025590e" y="302.479011"/>
     <use style="fill:#00bfc4;stroke:#00bfc4;" x="547.801242" xlink:href="#mc43025590e" y="227.141223"/>
     <use style="fill:#00bfc4;stroke:#00bfc4;" x="525.179073" xlink:href="#mc43025590e" y="101.072775"/>
     <use style="fill:#00bfc4;stroke:#00bfc4;" x="409.906129" xlink:href="#mc43025590e" y="279.2429"/>
     <use style="fill:#00bfc4;stroke:#00bfc4;" x="312.534505" xlink:href="#mc43025590e" y="181.795055"/>
     <use style="fill:#00bfc4;stroke:#00bfc4;" x="325.944345" xlink:href="#mc43025590e" y="252.752467"/>
     <use style="fill:#00bfc4;stroke:#00bfc4;" x="585.382891" xlink:href="#mc43025590e" y="123.723555"/>
     <use style="fill:#00bfc4;stroke:#00bfc4;" x="397.010151" xlink:href="#mc43025590e" y="184.512559"/>
     <use style="fill:#00bfc4;stroke:#00bfc4;" x="376.385257" xlink:href="#mc43025590e" y="136.205728"/>
     <use style="fill:#00bfc4;stroke:#00bfc4;" x="147.410581" xlink:href="#mc43025590e" y="290.957215"/>
     <use style="fill:#00bfc4;stroke:#00bfc4;" x="428.350484" xlink:href="#mc43025590e" y="69.48534"/>
     <use style="fill:#00bfc4;stroke:#00bfc4;" x="401.592239" xlink:href="#mc43025590e" y="179.226322"/>
     <use style="fill:#00bfc4;stroke:#00bfc4;" x="374.420202" xlink:href="#mc43025590e" y="313.945114"/>
     <use style="fill:#00bfc4;stroke:#00bfc4;" x="264.90992" xlink:href="#mc43025590e" y="262.398505"/>
     <use style="fill:#00bfc4;stroke:#00bfc4;" x="170.223928" xlink:href="#mc43025590e" y="208.397721"/>
     <use style="fill:#00bfc4;stroke:#00bfc4;" x="517.749019" xlink:href="#mc43025590e" y="204.768462"/>
     <use style="fill:#00bfc4;stroke:#00bfc4;" x="355.336869" xlink:href="#mc43025590e" y="324.264757"/>
     <use style="fill:#00bfc4;stroke:#00bfc4;" x="481.923341" xlink:href="#mc43025590e" y="246.005439"/>
     <use style="fill:#00bfc4;stroke:#00bfc4;" x="594.049319" xlink:href="#mc43025590e" y="169.243801"/>
     <use style="fill:#00bfc4;stroke:#00bfc4;" x="474.366194" xlink:href="#mc43025590e" y="278.76516"/>
     <use style="fill:#00bfc4;stroke:#00bfc4;" x="180.928171" xlink:href="#mc43025590e" y="332.280025"/>
     <use style="fill:#00bfc4;stroke:#00bfc4;" x="393.242912" xlink:href="#mc43025590e" y="109.957414"/>
     <use style="fill:#00bfc4;stroke:#00bfc4;" x="509.858217" xlink:href="#mc43025590e" y="131.695512"/>
     <use style="fill:#00bfc4;stroke:#00bfc4;" x="482.022702" xlink:href="#mc43025590e" y="137.134117"/>
     <use style="fill:#00bfc4;stroke:#00bfc4;" x="443.801541" xlink:href="#mc43025590e" y="193.345139"/>
     <use style="fill:#00bfc4;stroke:#00bfc4;" x="538.860242" xlink:href="#mc43025590e" y="140.506596"/>
     <use style="fill:#00bfc4;stroke:#00bfc4;" x="484.141675" xlink:href="#mc43025590e" y="206.089228"/>
     <use style="fill:#00bfc4;stroke:#00bfc4;" x="400.619735" xlink:href="#mc43025590e" y="145.874007"/>
     <use style="fill:#00bfc4;stroke:#00bfc4;" x="307.643722" xlink:href="#mc43025590e" y="195.327824"/>
     <use style="fill:#00bfc4;stroke:#00bfc4;" x="235.797366" xlink:href="#mc43025590e" y="139.584198"/>
     <use style="fill:#00bfc4;stroke:#00bfc4;" x="425.434702" xlink:href="#mc43025590e" y="194.206309"/>
     <use style="fill:#00bfc4;stroke:#00bfc4;" x="224.982434" xlink:href="#mc43025590e" y="263.85509"/>
     <use style="fill:#00bfc4;stroke:#00bfc4;" x="419.450775" xlink:href="#mc43025590e" y="283.273307"/>
     <use style="fill:#00bfc4;stroke:#00bfc4;" x="214.876234" xlink:href="#mc43025590e" y="137.168985"/>
     <use style="fill:#00bfc4;stroke:#00bfc4;" x="463.748222" xlink:href="#mc43025590e" y="192.857869"/>
     <use style="fill:#00bfc4;stroke:#00bfc4;" x="405.524794" xlink:href="#mc43025590e" y="171.681228"/>
     <use style="fill:#00bfc4;stroke:#00bfc4;" x="195.104023" xlink:href="#mc43025590e" y="190.103358"/>
     <use style="fill:#00bfc4;stroke:#00bfc4;" x="290.538113" xlink:href="#mc43025590e" y="344.792807"/>
     <use style="fill:#00bfc4;stroke:#00bfc4;" x="399.991358" xlink:href="#mc43025590e" y="315.367003"/>
     <use style="fill:#00bfc4;stroke:#00bfc4;" x="158.341416" xlink:href="#mc43025590e" y="207.530518"/>
     <use style="fill:#00bfc4;stroke:#00bfc4;" x="545.177696" xlink:href="#mc43025590e" y="127.711802"/>
     <use style="fill:#00bfc4;stroke:#00bfc4;" x="340.908269" xlink:href="#mc43025590e" y="148.900024"/>
     <use style="fill:#00bfc4;stroke:#00bfc4;" x="155.561255" xlink:href="#mc43025590e" y="168.095576"/>
     <use style="fill:#00bfc4;stroke:#00bfc4;" x="338.509557" xlink:href="#mc43025590e" y="230.354458"/>
     <use style="fill:#00bfc4;stroke:#00bfc4;" x="464.838488" xlink:href="#mc43025590e" y="276.381179"/>
     <use style="fill:#00bfc4;stroke:#00bfc4;" x="560.007726" xlink:href="#mc43025590e" y="100.245865"/>
     <use style="fill:#00bfc4;stroke:#00bfc4;" x="173.956193" xlink:href="#mc43025590e" y="285.851181"/>
     <use style="fill:#00bfc4;stroke:#00bfc4;" x="241.782816" xlink:href="#mc43025590e" y="318.869279"/>
     <use style="fill:#00bfc4;stroke:#00bfc4;" x="387.291687" xlink:href="#mc43025590e" y="241.84528"/>
     <use style="fill:#00bfc4;stroke:#00bfc4;" x="322.302594" xlink:href="#mc43025590e" y="103.758859"/>
     <use style="fill:#00bfc4;stroke:#00bfc4;" x="361.756062" xlink:href="#mc43025590e" y="264.758527"/>
     <use style="fill:#00bfc4;stroke:#00bfc4;" x="287.853466" xlink:href="#mc43025590e" y="144.962949"/>
     <use style="fill:#00bfc4;stroke:#00bfc4;" x="532.841087" xlink:href="#mc43025590e" y="253.951924"/>
     <use style="fill:#00bfc4;stroke:#00bfc4;" x="489.452889" xlink:href="#mc43025590e" y="252.194538"/>
     <use style="fill:#00bfc4;stroke:#00bfc4;" x="546.9964" xlink:href="#mc43025590e" y="255.061213"/>
     <use style="fill:#00bfc4;stroke:#00bfc4;" x="250.464981" xlink:href="#mc43025590e" y="231.205046"/>
     <use style="fill:#00bfc4;stroke:#00bfc4;" x="236.048171" xlink:href="#mc43025590e" y="246.676189"/>
     <use style="fill:#00bfc4;stroke:#00bfc4;" x="454.107984" xlink:href="#mc43025590e" y="233.620408"/>
     <use style="fill:#00bfc4;stroke:#00bfc4;" x="501.330841" xlink:href="#mc43025590e" y="293.007694"/>
     <use style="fill:#00bfc4;stroke:#00bfc4;" x="218.391093" xlink:href="#mc43025590e" y="201.771902"/>
     <use style="fill:#00bfc4;stroke:#00bfc4;" x="375.905624" xlink:href="#mc43025590e" y="233.77336"/>
     <use style="fill:#00bfc4;stroke:#00bfc4;" x="261.189684" xlink:href="#mc43025590e" y="347.017301"/>
     <use style="fill:#00bfc4;stroke:#00bfc4;" x="420.754433" xlink:href="#mc43025590e" y="265.848977"/>
     <use style="fill:#00bfc4;stroke:#00bfc4;" x="258.318685" xlink:href="#mc43025590e" y="237.695974"/>
     <use style="fill:#00bfc4;stroke:#00bfc4;" x="220.501592" xlink:href="#mc43025590e" y="290.957317"/>
     <use style="fill:#00bfc4;stroke:#00bfc4;" x="375.750512" xlink:href="#mc43025590e" y="211.34383"/>
     <use style="fill:#00bfc4;stroke:#00bfc4;" x="251.248817" xlink:href="#mc43025590e" y="281.645464"/>
     <use style="fill:#00bfc4;stroke:#00bfc4;" x="329.331269" xlink:href="#mc43025590e" y="300.638252"/>
     <use style="fill:#00bfc4;stroke:#00bfc4;" x="414.821312" xlink:href="#mc43025590e" y="230.720085"/>
     <use style="fill:#00bfc4;stroke:#00bfc4;" x="326.078085" xlink:href="#mc43025590e" y="121.557475"/>
     <use style="fill:#00bfc4;stroke:#00bfc4;" x="199.632505" xlink:href="#mc43025590e" y="344.989332"/>
     <use style="fill:#00bfc4;stroke:#00bfc4;" x="430.531869" xlink:href="#mc43025590e" y="318.810088"/>
     <use style="fill:#00bfc4;stroke:#00bfc4;" x="310.108521" xlink:href="#mc43025590e" y="285.191539"/>
     <use style="fill:#00bfc4;stroke:#00bfc4;" x="185.816822" xlink:href="#mc43025590e" y="239.044987"/>
     <use style="fill:#00bfc4;stroke:#00bfc4;" x="269.422561" xlink:href="#mc43025590e" y="177.342686"/>
     <use style="fill:#00bfc4;stroke:#00bfc4;" x="418.664417" xlink:href="#mc43025590e" y="232.314359"/>
     <use style="fill:#00bfc4;stroke:#00bfc4;" x="271.502573" xlink:href="#mc43025590e" y="337.645604"/>
     <use style="fill:#00bfc4;stroke:#00bfc4;" x="362.148227" xlink:href="#mc43025590e" y="204.45839"/>
     <use style="fill:#00bfc4;stroke:#00bfc4;" x="550.7675" xlink:href="#mc43025590e" y="229.590816"/>
     <use style="fill:#00bfc4;stroke:#00bfc4;" x="326.02747" xlink:href="#mc43025590e" y="252.855844"/>
     <use style="fill:#00bfc4;stroke:#00bfc4;" x="214.496413" xlink:href="#mc43025590e" y="140.974595"/>
     <use style="fill:#00bfc4;stroke:#00bfc4;" x="373.730859" xlink:href="#mc43025590e" y="210.016307"/>
     <use style="fill:#00bfc4;stroke:#00bfc4;" x="252.176831" xlink:href="#mc43025590e" y="224.008817"/>
     <use style="fill:#00bfc4;stroke:#00bfc4;" x="366.88938" xlink:href="#mc43025590e" y="161.288748"/>
     <use style="fill:#00bfc4;stroke:#00bfc4;" x="222.846901" xlink:href="#mc43025590e" y="198.289426"/>
     <use style="fill:#00bfc4;stroke:#00bfc4;" x="511.355532" xlink:href="#mc43025590e" y="228.998163"/>
     <use style="fill:#00bfc4;stroke:#00bfc4;" x="284.697465" xlink:href="#mc43025590e" y="146.911162"/>
     <use style="fill:#00bfc4;stroke:#00bfc4;" x="265.6521" xlink:href="#mc43025590e" y="267.508556"/>
     <use style="fill:#00bfc4;stroke:#00bfc4;" x="194.962247" xlink:href="#mc43025590e" y="265.421988"/>
     <use style="fill:#00bfc4;stroke:#00bfc4;" x="289.980097" xlink:href="#mc43025590e" y="308.923725"/>
     <use style="fill:#00bfc4;stroke:#00bfc4;" x="159.687049" xlink:href="#mc43025590e" y="245.062501"/>
     <use style="fill:#00bfc4;stroke:#00bfc4;" x="211.377224" xlink:href="#mc43025590e" y="207.264395"/>
     <use style="fill:#00bfc4;stroke:#00bfc4;" x="197.29764" xlink:href="#mc43025590e" y="265.2954"/>
     <use style="fill:#00bfc4;stroke:#00bfc4;" x="324.52789" xlink:href="#mc43025590e" y="185.165901"/>
     <use style="fill:#00bfc4;stroke:#00bfc4;" x="320.430765" xlink:href="#mc43025590e" y="299.402744"/>
     <use style="fill:#00bfc4;stroke:#00bfc4;" x="243.772039" xlink:href="#mc43025590e" y="162.698085"/>
     <use style="fill:#00bfc4;stroke:#00bfc4;" x="258.999383" xlink:href="#mc43025590e" y="172.956497"/>
     <use style="fill:#00bfc4;stroke:#00bfc4;" x="253.139533" xlink:href="#mc43025590e" y="238.31877"/>
     <use style="fill:#00bfc4;stroke:#00bfc4;" x="252.742477" xlink:href="#mc43025590e" y="330.488406"/>
     <use style="fill:#00bfc4;stroke:#00bfc4;" x="505.549266" xlink:href="#mc43025590e" y="295.491838"/>
     <use style="fill:#00bfc4;stroke:#00bfc4;" x="278.639192" xlink:href="#mc43025590e" y="209.019873"/>
     <use style="fill:#00bfc4;stroke:#00bfc4;" x="200.93385" xlink:href="#mc43025590e" y="143.372848"/>
     <use style="fill:#00bfc4;stroke:#00bfc4;" x="210.641566" xlink:href="#mc43025590e" y="164.743247"/>
     <use style="fill:#00bfc4;stroke:#00bfc4;" x="463.539729" xlink:href="#mc43025590e" y="269.605585"/>
     <use style="fill:#00bfc4;stroke:#00bfc4;" x="482.015953" xlink:href="#mc43025590e" y="170.351134"/>
     <use style="fill:#00bfc4;stroke:#00bfc4;" x="495.307867" xlink:href="#mc43025590e" y="73.651018"/>
     <use style="fill:#00bfc4;stroke:#00bfc4;" x="470.015136" xlink:href="#mc43025590e" y="160.049106"/>
     <use style="fill:#00bfc4;stroke:#00bfc4;" x="566.691994" xlink:href="#mc43025590e" y="139.05068"/>
     <use style="fill:#00bfc4;stroke:#00bfc4;" x="535.229025" xlink:href="#mc43025590e" y="185.68719"/>
     <use style="fill:#00bfc4;stroke:#00bfc4;" x="520.393664" xlink:href="#mc43025590e" y="169.33509"/>
     <use style="fill:#00bfc4;stroke:#00bfc4;" x="496.969785" xlink:href="#mc43025590e" y="142.632191"/>
     <use style="fill:#00bfc4;stroke:#00bfc4;" x="475.794647" xlink:href="#mc43025590e" y="153.648886"/>
     <use style="fill:#00bfc4;stroke:#00bfc4;" x="573.735132" xlink:href="#mc43025590e" y="147.974732"/>
     <use style="fill:#00bfc4;stroke:#00bfc4;" x="454.819418" xlink:href="#mc43025590e" y="143.863711"/>
     <use style="fill:#00bfc4;stroke:#00bfc4;" x="556.096022" xlink:href="#mc43025590e" y="162.219645"/>
     <use style="fill:#00bfc4;stroke:#00bfc4;" x="535.11208" xlink:href="#mc43025590e" y="164.079177"/>
     <use style="fill:#00bfc4;stroke:#00bfc4;" x="431.627594" xlink:href="#mc43025590e" y="128.736425"/>
     <use style="fill:#00bfc4;stroke:#00bfc4;" x="471.103886" xlink:href="#mc43025590e" y="159.327865"/>
     <use style="fill:#00bfc4;stroke:#00bfc4;" x="514.161921" xlink:href="#mc43025590e" y="151.391249"/>
     <use style="fill:#00bfc4;stroke:#00bfc4;" x="490.122588" xlink:href="#mc43025590e" y="175.52383"/>
     <use style="fill:#00bfc4;stroke:#00bfc4;" x="456.170762" xlink:href="#mc43025590e" y="141.620208"/>
     <use style="fill:#00bfc4;stroke:#00bfc4;" x="450.569222" xlink:href="#mc43025590e" y="156.652107"/>
     <use style="fill:#00bfc4;stroke:#00bfc4;" x="418.358827" xlink:href="#mc43025590e" y="124.516696"/>
     <use style="fill:#00bfc4;stroke:#00bfc4;" x="485.741868" xlink:href="#mc43025590e" y="154.686698"/>
     <use style="fill:#00bfc4;stroke:#00bfc4;" x="423.608483" xlink:href="#mc43025590e" y="128.347846"/>
     <use style="fill:#00bfc4;stroke:#00bfc4;" x="565.820429" xlink:href="#mc43025590e" y="167.843983"/>
     <use style="fill:#00bfc4;stroke:#00bfc4;" x="459.315299" xlink:href="#mc43025590e" y="124.217755"/>
     <use style="fill:#00bfc4;stroke:#00bfc4;" x="423.879195" xlink:href="#mc43025590e" y="243.397589"/>
     <use style="fill:#00bfc4;stroke:#00bfc4;" x="427.116576" xlink:href="#mc43025590e" y="305.340826"/>
     <use style="fill:#00bfc4;stroke:#00bfc4;" x="426.901743" xlink:href="#mc43025590e" y="67.070564"/>
     <use style="fill:#00bfc4;stroke:#00bfc4;" x="518.905572" xlink:href="#mc43025590e" y="119.099066"/>
     <use style="fill:#00bfc4;stroke:#00bfc4;" x="439.432603" xlink:href="#mc43025590e" y="98.187128"/>
     <use style="fill:#00bfc4;stroke:#00bfc4;" x="216.317771" xlink:href="#mc43025590e" y="292.562331"/>
     <use style="fill:#00bfc4;stroke:#00bfc4;" x="182.374389" xlink:href="#mc43025590e" y="170.734525"/>
     <use style="fill:#00bfc4;stroke:#00bfc4;" x="328.935306" xlink:href="#mc43025590e" y="318.704111"/>
     <use style="fill:#00bfc4;stroke:#00bfc4;" x="133.9366" xlink:href="#mc43025590e" y="220.876714"/>
     <use style="fill:#00bfc4;stroke:#00bfc4;" x="115.466816" xlink:href="#mc43025590e" y="268.937133"/>
     <use style="fill:#00bfc4;stroke:#00bfc4;" x="317.084113" xlink:href="#mc43025590e" y="98.743975"/>
     <use style="fill:#00bfc4;stroke:#00bfc4;" x="148.944077" xlink:href="#mc43025590e" y="276.358265"/>
     <use style="fill:#00bfc4;stroke:#00bfc4;" x="295.304376" xlink:href="#mc43025590e" y="235.240471"/>
     <use style="fill:#00bfc4;stroke:#00bfc4;" x="284.680667" xlink:href="#mc43025590e" y="289.647479"/>
     <use style="fill:#00bfc4;stroke:#00bfc4;" x="123.154551" xlink:href="#mc43025590e" y="270.098508"/>
     <use style="fill:#00bfc4;stroke:#00bfc4;" x="357.940408" xlink:href="#mc43025590e" y="338.078729"/>
     <use style="fill:#00bfc4;stroke:#00bfc4;" x="320.183421" xlink:href="#mc43025590e" y="221.315958"/>
     <use style="fill:#00bfc4;stroke:#00bfc4;" x="270.923738" xlink:href="#mc43025590e" y="206.222499"/>
     <use style="fill:#00bfc4;stroke:#00bfc4;" x="214.653081" xlink:href="#mc43025590e" y="125.79677"/>
     <use style="fill:#00bfc4;stroke:#00bfc4;" x="185.255181" xlink:href="#mc43025590e" y="240.210998"/>
     <use style="fill:#00bfc4;stroke:#00bfc4;" x="512.396887" xlink:href="#mc43025590e" y="254.323387"/>
     <use style="fill:#00bfc4;stroke:#00bfc4;" x="359.729737" xlink:href="#mc43025590e" y="240.665973"/>
     <use style="fill:#00bfc4;stroke:#00bfc4;" x="215.340174" xlink:href="#mc43025590e" y="178.623634"/>
     <use style="fill:#00bfc4;stroke:#00bfc4;" x="487.633094" xlink:href="#mc43025590e" y="121.360117"/>
     <use style="fill:#00bfc4;stroke:#00bfc4;" x="318.419184" xlink:href="#mc43025590e" y="299.943651"/>
     <use style="fill:#00bfc4;stroke:#00bfc4;" x="295.550022" xlink:href="#mc43025590e" y="337.601581"/>
     <use style="fill:#00bfc4;stroke:#00bfc4;" x="393.717304" xlink:href="#mc43025590e" y="317.202892"/>
     <use style="fill:#00bfc4;stroke:#00bfc4;" x="273.549419" xlink:href="#mc43025590e" y="179.260427"/>
    </g>
   </g>
   <g id="PathCollection_2">
    <defs>
     <path d="M 0 3 
C 0.795609 3 1.55874 2.683901 2.12132 2.12132 
C 2.683901 1.55874 3 0.795609 3 0 
C 3 -0.795609 2.683901 -1.55874 2.12132 -2.12132 
C 1.55874 -2.683901 0.795609 -3 0 -3 
C -0.795609 -3 -1.55874 -2.683901 -2.12132 -2.12132 
C -2.683901 -1.55874 -3 -0.795609 -3 0 
C -3 0.795609 -2.683901 1.55874 -2.12132 2.12132 
C -1.55874 2.683901 -0.795609 3 0 3 
z
" id="m9f58299174" style="stroke:#f8766d;"/>
    </defs>
    <g clip-path="url(#p328ca61d27)">
     <use style="fill:#f8766d;stroke:#f8766d;" x="573.244121" xlink:href="#m9f58299174" y="202.550832"/>
     <use style="fill:#f8766d;stroke:#f8766d;" x="443.808721" xlink:href="#m9f58299174" y="174.181738"/>
     <use style="fill:#f8766d;stroke:#f8766d;" x="315.404126" xlink:href="#m9f58299174" y="353.570045"/>
     <use style="fill:#f8766d;stroke:#f8766d;" x="429.792781" xlink:href="#m9f58299174" y="218.482058"/>
     <use style="fill:#f8766d;stroke:#f8766d;" x="388.623733" xlink:href="#m9f58299174" y="102.83747"/>
     <use style="fill:#f8766d;stroke:#f8766d;" x="620.59765" xlink:href="#m9f58299174" y="191.218964"/>
     <use style="fill:#f8766d;stroke:#f8766d;" x="518.401861" xlink:href="#m9f58299174" y="149.079651"/>
    </g>
   </g>
   <g id="matplotlib.axis_1">
    <g id="xtick_1">
     <g id="line2d_1">
      <defs>
       <path d="M 0 0 
L 0 3.5 
" id="m2bec93281d" style="stroke:#000000;stroke-width:0.8;"/>
      </defs>
      <g>
       <use style="stroke:#000000;stroke-width:0.8;" x="112.118191" xlink:href="#m2bec93281d" y="384.48"/>
      </g>
     </g>
     <g id="text_1">
      <!-- −10.0 -->
      <defs>
       <path d="M 10.59375 35.5 
L 73.1875 35.5 
L 73.1875 27.203125 
L 10.59375 27.203125 
z
" id="DejaVuSans-8722"/>
       <path d="M 12.40625 8.296875 
L 28.515625 8.296875 
L 28.515625 63.921875 
L 10.984375 60.40625 
L 10.984375 69.390625 
L 28.421875 72.90625 
L 38.28125 72.90625 
L 38.28125 8.296875 
L 54.390625 8.296875 
L 54.390625 0 
L 12.40625 0 
z
" id="DejaVuSans-49"/>
       <path d="M 31.78125 66.40625 
Q 24.171875 66.40625 20.328125 58.90625 
Q 16.5 51.421875 16.5 36.375 
Q 16.5 21.390625 20.328125 13.890625 
Q 24.171875 6.390625 31.78125 6.390625 
Q 39.453125 6.390625 43.28125 13.890625 
Q 47.125 21.390625 47.125 36.375 
Q 47.125 51.421875 43.28125 58.90625 
Q 39.453125 66.40625 31.78125 66.40625 
z
M 31.78125 74.21875 
Q 44.046875 74.21875 50.515625 64.515625 
Q 56.984375 54.828125 56.984375 36.375 
Q 56.984375 17.96875 50.515625 8.265625 
Q 44.046875 -1.421875 31.78125 -1.421875 
Q 19.53125 -1.421875 13.0625 8.265625 
Q 6.59375 17.96875 6.59375 36.375 
Q 6.59375 54.828125 13.0625 64.515625 
Q 19.53125 74.21875 31.78125 74.21875 
z
" id="DejaVuSans-48"/>
       <path d="M 10.6875 12.40625 
L 21 12.40625 
L 21 0 
L 10.6875 0 
z
" id="DejaVuSans-46"/>
      </defs>
      <g transform="translate(96.795535 399.078438)scale(0.1 -0.1)">
       <use xlink:href="#DejaVuSans-8722"/>
       <use x="83.789062" xlink:href="#DejaVuSans-49"/>
       <use x="147.412109" xlink:href="#DejaVuSans-48"/>
       <use x="211.035156" xlink:href="#DejaVuSans-46"/>
       <use x="242.822266" xlink:href="#DejaVuSans-48"/>
      </g>
     </g>
    </g>
    <g id="xtick_2">
     <g id="line2d_2">
      <g>
       <use style="stroke:#000000;stroke-width:0.8;" x="178.754831" xlink:href="#m2bec93281d" y="384.48"/>
      </g>
     </g>
     <g id="text_2">
      <!-- −7.5 -->
      <defs>
       <path d="M 8.203125 72.90625 
L 55.078125 72.90625 
L 55.078125 68.703125 
L 28.609375 0 
L 18.3125 0 
L 43.21875 64.59375 
L 8.203125 64.59375 
z
" id="DejaVuSans-55"/>
       <path d="M 10.796875 72.90625 
L 49.515625 72.90625 
L 49.515625 64.59375 
L 19.828125 64.59375 
L 19.828125 46.734375 
Q 21.96875 47.46875 24.109375 47.828125 
Q 26.265625 48.1875 28.421875 48.1875 
Q 40.625 48.1875 47.75 41.5 
Q 54.890625 34.8125 54.890625 23.390625 
Q 54.890625 11.625 47.5625 5.09375 
Q 40.234375 -1.421875 26.90625 -1.421875 
Q 22.3125 -1.421875 17.546875 -0.640625 
Q 12.796875 0.140625 7.71875 1.703125 
L 7.71875 11.625 
Q 12.109375 9.234375 16.796875 8.0625 
Q 21.484375 6.890625 26.703125 6.890625 
Q 35.15625 6.890625 40.078125 11.328125 
Q 45.015625 15.765625 45.015625 23.390625 
Q 45.015625 31 40.078125 35.4375 
Q 35.15625 39.890625 26.703125 39.890625 
Q 22.75 39.890625 18.8125 39.015625 
Q 14.890625 38.140625 10.796875 36.28125 
z
" id="DejaVuSans-53"/>
      </defs>
      <g transform="translate(166.613424 399.078438)scale(0.1 -0.1)">
       <use xlink:href="#DejaVuSans-8722"/>
       <use x="83.789062" xlink:href="#DejaVuSans-55"/>
       <use x="147.412109" xlink:href="#DejaVuSans-46"/>
       <use x="179.199219" xlink:href="#DejaVuSans-53"/>
      </g>
     </g>
    </g>
    <g id="xtick_3">
     <g id="line2d_3">
      <g>
       <use style="stroke:#000000;stroke-width:0.8;" x="245.39147" xlink:href="#m2bec93281d" y="384.48"/>
      </g>
     </g>
     <g id="text_3">
      <!-- −5.0 -->
      <g transform="translate(233.250064 399.078438)scale(0.1 -0.1)">
       <use xlink:href="#DejaVuSans-8722"/>
       <use x="83.789062" xlink:href="#DejaVuSans-53"/>
       <use x="147.412109" xlink:href="#DejaVuSans-46"/>
       <use x="179.199219" xlink:href="#DejaVuSans-48"/>
      </g>
     </g>
    </g>
    <g id="xtick_4">
     <g id="line2d_4">
      <g>
       <use style="stroke:#000000;stroke-width:0.8;" x="312.028109" xlink:href="#m2bec93281d" y="384.48"/>
      </g>
     </g>
     <g id="text_4">
      <!-- −2.5 -->
      <defs>
       <path d="M 19.1875 8.296875 
L 53.609375 8.296875 
L 53.609375 0 
L 7.328125 0 
L 7.328125 8.296875 
Q 12.9375 14.109375 22.625 23.890625 
Q 32.328125 33.6875 34.8125 36.53125 
Q 39.546875 41.84375 41.421875 45.53125 
Q 43.3125 49.21875 43.3125 52.78125 
Q 43.3125 58.59375 39.234375 62.25 
Q 35.15625 65.921875 28.609375 65.921875 
Q 23.96875 65.921875 18.8125 64.3125 
Q 13.671875 62.703125 7.8125 59.421875 
L 7.8125 69.390625 
Q 13.765625 71.78125 18.9375 73 
Q 24.125 74.21875 28.421875 74.21875 
Q 39.75 74.21875 46.484375 68.546875 
Q 53.21875 62.890625 53.21875 53.421875 
Q 53.21875 48.921875 51.53125 44.890625 
Q 49.859375 40.875 45.40625 35.40625 
Q 44.1875 33.984375 37.640625 27.21875 
Q 31.109375 20.453125 19.1875 8.296875 
z
" id="DejaVuSans-50"/>
      </defs>
      <g transform="translate(299.886703 399.078438)scale(0.1 -0.1)">
       <use xlink:href="#DejaVuSans-8722"/>
       <use x="83.789062" xlink:href="#DejaVuSans-50"/>
       <use x="147.412109" xlink:href="#DejaVuSans-46"/>
       <use x="179.199219" xlink:href="#DejaVuSans-53"/>
      </g>
     </g>
    </g>
    <g id="xtick_5">
     <g id="line2d_5">
      <g>
       <use style="stroke:#000000;stroke-width:0.8;" x="378.664748" xlink:href="#m2bec93281d" y="384.48"/>
      </g>
     </g>
     <g id="text_5">
      <!-- 0.0 -->
      <g transform="translate(370.713186 399.078438)scale(0.1 -0.1)">
       <use xlink:href="#DejaVuSans-48"/>
       <use x="63.623047" xlink:href="#DejaVuSans-46"/>
       <use x="95.410156" xlink:href="#DejaVuSans-48"/>
      </g>
     </g>
    </g>
    <g id="xtick_6">
     <g id="line2d_6">
      <g>
       <use style="stroke:#000000;stroke-width:0.8;" x="445.301387" xlink:href="#m2bec93281d" y="384.48"/>
      </g>
     </g>
     <g id="text_6">
      <!-- 2.5 -->
      <g transform="translate(437.349825 399.078438)scale(0.1 -0.1)">
       <use xlink:href="#DejaVuSans-50"/>
       <use x="63.623047" xlink:href="#DejaVuSans-46"/>
       <use x="95.410156" xlink:href="#DejaVuSans-53"/>
      </g>
     </g>
    </g>
    <g id="xtick_7">
     <g id="line2d_7">
      <g>
       <use style="stroke:#000000;stroke-width:0.8;" x="511.938027" xlink:href="#m2bec93281d" y="384.48"/>
      </g>
     </g>
     <g id="text_7">
      <!-- 5.0 -->
      <g transform="translate(503.986464 399.078438)scale(0.1 -0.1)">
       <use xlink:href="#DejaVuSans-53"/>
       <use x="63.623047" xlink:href="#DejaVuSans-46"/>
       <use x="95.410156" xlink:href="#DejaVuSans-48"/>
      </g>
     </g>
    </g>
    <g id="xtick_8">
     <g id="line2d_8">
      <g>
       <use style="stroke:#000000;stroke-width:0.8;" x="578.574666" xlink:href="#m2bec93281d" y="384.48"/>
      </g>
     </g>
     <g id="text_8">
      <!-- 7.5 -->
      <g transform="translate(570.623103 399.078438)scale(0.1 -0.1)">
       <use xlink:href="#DejaVuSans-55"/>
       <use x="63.623047" xlink:href="#DejaVuSans-46"/>
       <use x="95.410156" xlink:href="#DejaVuSans-53"/>
      </g>
     </g>
    </g>
    <g id="xtick_9">
     <g id="line2d_9">
      <g>
       <use style="stroke:#000000;stroke-width:0.8;" x="645.211305" xlink:href="#m2bec93281d" y="384.48"/>
      </g>
     </g>
     <g id="text_9">
      <!-- 10.0 -->
      <g transform="translate(634.078493 399.078438)scale(0.1 -0.1)">
       <use xlink:href="#DejaVuSans-49"/>
       <use x="63.623047" xlink:href="#DejaVuSans-48"/>
       <use x="127.246094" xlink:href="#DejaVuSans-46"/>
       <use x="159.033203" xlink:href="#DejaVuSans-48"/>
      </g>
     </g>
    </g>
    <g id="text_10">
     <!-- tSNE-1 -->
     <defs>
      <path d="M 18.3125 70.21875 
L 18.3125 54.6875 
L 36.8125 54.6875 
L 36.8125 47.703125 
L 18.3125 47.703125 
L 18.3125 18.015625 
Q 18.3125 11.328125 20.140625 9.421875 
Q 21.96875 7.515625 27.59375 7.515625 
L 36.8125 7.515625 
L 36.8125 0 
L 27.59375 0 
Q 17.1875 0 13.234375 3.875 
Q 9.28125 7.765625 9.28125 18.015625 
L 9.28125 47.703125 
L 2.6875 47.703125 
L 2.6875 54.6875 
L 9.28125 54.6875 
L 9.28125 70.21875 
z
" id="DejaVuSans-116"/>
      <path d="M 53.515625 70.515625 
L 53.515625 60.890625 
Q 47.90625 63.578125 42.921875 64.890625 
Q 37.9375 66.21875 33.296875 66.21875 
Q 25.25 66.21875 20.875 63.09375 
Q 16.5 59.96875 16.5 54.203125 
Q 16.5 49.359375 19.40625 46.890625 
Q 22.3125 44.4375 30.421875 42.921875 
L 36.375 41.703125 
Q 47.40625 39.59375 52.65625 34.296875 
Q 57.90625 29 57.90625 20.125 
Q 57.90625 9.515625 50.796875 4.046875 
Q 43.703125 -1.421875 29.984375 -1.421875 
Q 24.8125 -1.421875 18.96875 -0.25 
Q 13.140625 0.921875 6.890625 3.21875 
L 6.890625 13.375 
Q 12.890625 10.015625 18.65625 8.296875 
Q 24.421875 6.59375 29.984375 6.59375 
Q 38.421875 6.59375 43.015625 9.90625 
Q 47.609375 13.234375 47.609375 19.390625 
Q 47.609375 24.75 44.3125 27.78125 
Q 41.015625 30.8125 33.5 32.328125 
L 27.484375 33.5 
Q 16.453125 35.6875 11.515625 40.375 
Q 6.59375 45.0625 6.59375 53.421875 
Q 6.59375 63.09375 13.40625 68.65625 
Q 20.21875 74.21875 32.171875 74.21875 
Q 37.3125 74.21875 42.625 73.28125 
Q 47.953125 72.359375 53.515625 70.515625 
z
" id="DejaVuSans-83"/>
      <path d="M 9.8125 72.90625 
L 23.09375 72.90625 
L 55.421875 11.921875 
L 55.421875 72.90625 
L 64.984375 72.90625 
L 64.984375 0 
L 51.703125 0 
L 19.390625 60.984375 
L 19.390625 0 
L 9.8125 0 
z
" id="DejaVuSans-78"/>
      <path d="M 9.8125 72.90625 
L 55.90625 72.90625 
L 55.90625 64.59375 
L 19.671875 64.59375 
L 19.671875 43.015625 
L 54.390625 43.015625 
L 54.390625 34.71875 
L 19.671875 34.71875 
L 19.671875 8.296875 
L 56.78125 8.296875 
L 56.78125 0 
L 9.8125 0 
z
" id="DejaVuSans-69"/>
      <path d="M 4.890625 31.390625 
L 31.203125 31.390625 
L 31.203125 23.390625 
L 4.890625 23.390625 
z
" id="DejaVuSans-45"/>
     </defs>
     <g transform="translate(351.980469 412.756563)scale(0.1 -0.1)">
      <use xlink:href="#DejaVuSans-116"/>
      <use x="39.208984" xlink:href="#DejaVuSans-83"/>
      <use x="102.685547" xlink:href="#DejaVuSans-78"/>
      <use x="177.490234" xlink:href="#DejaVuSans-69"/>
      <use x="240.673828" xlink:href="#DejaVuSans-45"/>
      <use x="276.757812" xlink:href="#DejaVuSans-49"/>
     </g>
    </g>
   </g>
   <g id="matplotlib.axis_2">
    <g id="ytick_1">
     <g id="line2d_10">
      <defs>
       <path d="M 0 0 
L -3.5 0 
" id="mf1e77d0a06" style="stroke:#000000;stroke-width:0.8;"/>
      </defs>
      <g>
       <use style="stroke:#000000;stroke-width:0.8;" x="90" xlink:href="#mf1e77d0a06" y="372.726529"/>
      </g>
     </g>
     <g id="text_11">
      <!-- −10.0 -->
      <g transform="translate(52.354687 376.525748)scale(0.1 -0.1)">
       <use xlink:href="#DejaVuSans-8722"/>
       <use x="83.789062" xlink:href="#DejaVuSans-49"/>
       <use x="147.412109" xlink:href="#DejaVuSans-48"/>
       <use x="211.035156" xlink:href="#DejaVuSans-46"/>
       <use x="242.822266" xlink:href="#DejaVuSans-48"/>
      </g>
     </g>
    </g>
    <g id="ytick_2">
     <g id="line2d_11">
      <g>
       <use style="stroke:#000000;stroke-width:0.8;" x="90" xlink:href="#mf1e77d0a06" y="330.159327"/>
      </g>
     </g>
     <g id="text_12">
      <!-- −7.5 -->
      <g transform="translate(58.717187 333.958546)scale(0.1 -0.1)">
       <use xlink:href="#DejaVuSans-8722"/>
       <use x="83.789062" xlink:href="#DejaVuSans-55"/>
       <use x="147.412109" xlink:href="#DejaVuSans-46"/>
       <use x="179.199219" xlink:href="#DejaVuSans-53"/>
      </g>
     </g>
    </g>
    <g id="ytick_3">
     <g id="line2d_12">
      <g>
       <use style="stroke:#000000;stroke-width:0.8;" x="90" xlink:href="#mf1e77d0a06" y="287.592125"/>
      </g>
     </g>
     <g id="text_13">
      <!-- −5.0 -->
      <g transform="translate(58.717187 291.391343)scale(0.1 -0.1)">
       <use xlink:href="#DejaVuSans-8722"/>
       <use x="83.789062" xlink:href="#DejaVuSans-53"/>
       <use x="147.412109" xlink:href="#DejaVuSans-46"/>
       <use x="179.199219" xlink:href="#DejaVuSans-48"/>
      </g>
     </g>
    </g>
    <g id="ytick_4">
     <g id="line2d_13">
      <g>
       <use style="stroke:#000000;stroke-width:0.8;" x="90" xlink:href="#mf1e77d0a06" y="245.024922"/>
      </g>
     </g>
     <g id="text_14">
      <!-- −2.5 -->
      <g transform="translate(58.717187 248.824141)scale(0.1 -0.1)">
       <use xlink:href="#DejaVuSans-8722"/>
       <use x="83.789062" xlink:href="#DejaVuSans-50"/>
       <use x="147.412109" xlink:href="#DejaVuSans-46"/>
       <use x="179.199219" xlink:href="#DejaVuSans-53"/>
      </g>
     </g>
    </g>
    <g id="ytick_5">
     <g id="line2d_14">
      <g>
       <use style="stroke:#000000;stroke-width:0.8;" x="90" xlink:href="#mf1e77d0a06" y="202.45772"/>
      </g>
     </g>
     <g id="text_15">
      <!-- 0.0 -->
      <g transform="translate(67.096875 206.256939)scale(0.1 -0.1)">
       <use xlink:href="#DejaVuSans-48"/>
       <use x="63.623047" xlink:href="#DejaVuSans-46"/>
       <use x="95.410156" xlink:href="#DejaVuSans-48"/>
      </g>
     </g>
    </g>
    <g id="ytick_6">
     <g id="line2d_15">
      <g>
       <use style="stroke:#000000;stroke-width:0.8;" x="90" xlink:href="#mf1e77d0a06" y="159.890518"/>
      </g>
     </g>
     <g id="text_16">
      <!-- 2.5 -->
      <g transform="translate(67.096875 163.689737)scale(0.1 -0.1)">
       <use xlink:href="#DejaVuSans-50"/>
       <use x="63.623047" xlink:href="#DejaVuSans-46"/>
       <use x="95.410156" xlink:href="#DejaVuSans-53"/>
      </g>
     </g>
    </g>
    <g id="ytick_7">
     <g id="line2d_16">
      <g>
       <use style="stroke:#000000;stroke-width:0.8;" x="90" xlink:href="#mf1e77d0a06" y="117.323316"/>
      </g>
     </g>
     <g id="text_17">
      <!-- 5.0 -->
      <g transform="translate(67.096875 121.122534)scale(0.1 -0.1)">
       <use xlink:href="#DejaVuSans-53"/>
       <use x="63.623047" xlink:href="#DejaVuSans-46"/>
       <use x="95.410156" xlink:href="#DejaVuSans-48"/>
      </g>
     </g>
    </g>
    <g id="ytick_8">
     <g id="line2d_17">
      <g>
       <use style="stroke:#000000;stroke-width:0.8;" x="90" xlink:href="#mf1e77d0a06" y="74.756113"/>
      </g>
     </g>
     <g id="text_18">
      <!-- 7.5 -->
      <g transform="translate(67.096875 78.555332)scale(0.1 -0.1)">
       <use xlink:href="#DejaVuSans-55"/>
       <use x="63.623047" xlink:href="#DejaVuSans-46"/>
       <use x="95.410156" xlink:href="#DejaVuSans-53"/>
      </g>
     </g>
    </g>
    <g id="text_19">
     <!-- tSNE-2 -->
     <g transform="translate(46.275 235.179531)rotate(-90)scale(0.1 -0.1)">
      <use xlink:href="#DejaVuSans-116"/>
      <use x="39.208984" xlink:href="#DejaVuSans-83"/>
      <use x="102.685547" xlink:href="#DejaVuSans-78"/>
      <use x="177.490234" xlink:href="#DejaVuSans-69"/>
      <use x="240.673828" xlink:href="#DejaVuSans-45"/>
      <use x="276.757812" xlink:href="#DejaVuSans-50"/>
     </g>
    </g>
   </g>
   <g id="patch_3">
    <path d="M 90 384.48 
L 90 51.84 
" style="fill:none;stroke:#000000;stroke-linecap:square;stroke-linejoin:miter;stroke-width:0.8;"/>
   </g>
   <g id="patch_4">
    <path d="M 648 384.48 
L 648 51.84 
" style="fill:none;stroke:#000000;stroke-linecap:square;stroke-linejoin:miter;stroke-width:0.8;"/>
   </g>
   <g id="patch_5">
    <path d="M 90 384.48 
L 648 384.48 
" style="fill:none;stroke:#000000;stroke-linecap:square;stroke-linejoin:miter;stroke-width:0.8;"/>
   </g>
   <g id="patch_6">
    <path d="M 90 51.84 
L 648 51.84 
" style="fill:none;stroke:#000000;stroke-linecap:square;stroke-linejoin:miter;stroke-width:0.8;"/>
   </g>
   <g id="legend_1">
    <g id="patch_7">
     <path d="M 563.125 89.19625 
L 641 89.19625 
Q 643 89.19625 643 87.19625 
L 643 58.84 
Q 643 56.84 641 56.84 
L 563.125 56.84 
Q 561.125 56.84 561.125 58.84 
L 561.125 87.19625 
Q 561.125 89.19625 563.125 89.19625 
z
" style="fill:#ffffff;opacity:0.8;stroke:#cccccc;stroke-linejoin:miter;"/>
    </g>
    <g id="PathCollection_3">
     <g>
      <use style="fill:#00bfc4;stroke:#00bfc4;" x="575.125" xlink:href="#mc43025590e" y="65.813437"/>
     </g>
    </g>
    <g id="text_20">
     <!-- D006262 -->
     <defs>
      <path d="M 19.671875 64.796875 
L 19.671875 8.109375 
L 31.59375 8.109375 
Q 46.6875 8.109375 53.6875 14.9375 
Q 60.6875 21.78125 60.6875 36.53125 
Q 60.6875 51.171875 53.6875 57.984375 
Q 46.6875 64.796875 31.59375 64.796875 
z
M 9.8125 72.90625 
L 30.078125 72.90625 
Q 51.265625 72.90625 61.171875 64.09375 
Q 71.09375 55.28125 71.09375 36.53125 
Q 71.09375 17.671875 61.125 8.828125 
Q 51.171875 0 30.078125 0 
L 9.8125 0 
z
" id="DejaVuSans-68"/>
      <path d="M 33.015625 40.375 
Q 26.375 40.375 22.484375 35.828125 
Q 18.609375 31.296875 18.609375 23.390625 
Q 18.609375 15.53125 22.484375 10.953125 
Q 26.375 6.390625 33.015625 6.390625 
Q 39.65625 6.390625 43.53125 10.953125 
Q 47.40625 15.53125 47.40625 23.390625 
Q 47.40625 31.296875 43.53125 35.828125 
Q 39.65625 40.375 33.015625 40.375 
z
M 52.59375 71.296875 
L 52.59375 62.3125 
Q 48.875 64.0625 45.09375 64.984375 
Q 41.3125 65.921875 37.59375 65.921875 
Q 27.828125 65.921875 22.671875 59.328125 
Q 17.53125 52.734375 16.796875 39.40625 
Q 19.671875 43.65625 24.015625 45.921875 
Q 28.375 48.1875 33.59375 48.1875 
Q 44.578125 48.1875 50.953125 41.515625 
Q 57.328125 34.859375 57.328125 23.390625 
Q 57.328125 12.15625 50.6875 5.359375 
Q 44.046875 -1.421875 33.015625 -1.421875 
Q 20.359375 -1.421875 13.671875 8.265625 
Q 6.984375 17.96875 6.984375 36.375 
Q 6.984375 53.65625 15.1875 63.9375 
Q 23.390625 74.21875 37.203125 74.21875 
Q 40.921875 74.21875 44.703125 73.484375 
Q 48.484375 72.75 52.59375 71.296875 
z
" id="DejaVuSans-54"/>
     </defs>
     <g transform="translate(593.125 68.438437)scale(0.1 -0.1)">
      <use xlink:href="#DejaVuSans-68"/>
      <use x="77.001953" xlink:href="#DejaVuSans-48"/>
      <use x="140.625" xlink:href="#DejaVuSans-48"/>
      <use x="204.248047" xlink:href="#DejaVuSans-54"/>
      <use x="267.871094" xlink:href="#DejaVuSans-50"/>
      <use x="331.494141" xlink:href="#DejaVuSans-54"/>
      <use x="395.117188" xlink:href="#DejaVuSans-50"/>
     </g>
    </g>
    <g id="PathCollection_4">
     <g>
      <use style="fill:#f8766d;stroke:#f8766d;" x="575.125" xlink:href="#m9f58299174" y="80.491562"/>
     </g>
    </g>
    <g id="text_21">
     <!-- D007674 -->
     <defs>
      <path d="M 37.796875 64.3125 
L 12.890625 25.390625 
L 37.796875 25.390625 
z
M 35.203125 72.90625 
L 47.609375 72.90625 
L 47.609375 25.390625 
L 58.015625 25.390625 
L 58.015625 17.1875 
L 47.609375 17.1875 
L 47.609375 0 
L 37.796875 0 
L 37.796875 17.1875 
L 4.890625 17.1875 
L 4.890625 26.703125 
z
" id="DejaVuSans-52"/>
     </defs>
     <g transform="translate(593.125 83.116562)scale(0.1 -0.1)">
      <use xlink:href="#DejaVuSans-68"/>
      <use x="77.001953" xlink:href="#DejaVuSans-48"/>
      <use x="140.625" xlink:href="#DejaVuSans-48"/>
      <use x="204.248047" xlink:href="#DejaVuSans-55"/>
      <use x="267.871094" xlink:href="#DejaVuSans-54"/>
      <use x="331.494141" xlink:href="#DejaVuSans-55"/>
      <use x="395.117188" xlink:href="#DejaVuSans-52"/>
     </g>
    </g>
   </g>
  </g>
 </g>
 <defs>
  <clipPath id="p328ca61d27">
   <rect height="332.64" width="558" x="90" y="51.84"/>
  </clipPath>
 </defs>
</svg>
