<?xml version="1.0" encoding="utf-8" standalone="no"?>
<!DOCTYPE svg PUBLIC "-//W3C//DTD SVG 1.1//EN"
  "http://www.w3.org/Graphics/SVG/1.1/DTD/svg11.dtd">
<!-- Created with matplotlib (https://matplotlib.org/) -->
<svg height="432pt" version="1.1" viewBox="0 0 720 432" width="720pt" xmlns="http://www.w3.org/2000/svg" xmlns:xlink="http://www.w3.org/1999/xlink">
 <defs>
  <style type="text/css">
*{stroke-linecap:butt;stroke-linejoin:round;}
  </style>
 </defs>
 <g id="figure_1">
  <g id="patch_1">
   <path d="M 0 432 
L 720 432 
L 720 0 
L 0 0 
z
" style="fill:#ffffff;"/>
  </g>
  <g id="axes_1">
   <g id="patch_2">
    <path d="M 90 378 
L 648 378 
L 648 51.84 
L 90 51.84 
z
" style="fill:#ffffff;"/>
   </g>
   <g id="PathCollection_1">
    <defs>
     <path d="M 0 3 
C 0.795609 3 1.55874 2.683901 2.12132 2.12132 
C 2.683901 1.55874 3 0.795609 3 0 
C 3 -0.795609 2.683901 -1.55874 2.12132 -2.12132 
C 1.55874 -2.683901 0.795609 -3 0 -3 
C -0.795609 -3 -1.55874 -2.683901 -2.12132 -2.12132 
C -2.683901 -1.55874 -3 -0.795609 -3 0 
C -3 0.795609 -2.683901 1.55874 -2.12132 2.12132 
C -1.55874 2.683901 -0.795609 3 0 3 
z
" id="mebc39a49a1" style="stroke:#f8766d;"/>
    </defs>
    <g clip-path="url(#p30d7c1d14b)">
     <use style="fill:#f8766d;stroke:#f8766d;" x="576.303288" xlink:href="#mebc39a49a1" y="171.940567"/>
     <use style="fill:#f8766d;stroke:#f8766d;" x="507.3548" xlink:href="#mebc39a49a1" y="105.202182"/>
     <use style="fill:#f8766d;stroke:#f8766d;" x="559.726826" xlink:href="#mebc39a49a1" y="206.391171"/>
     <use style="fill:#f8766d;stroke:#f8766d;" x="476.362614" xlink:href="#mebc39a49a1" y="116.02451"/>
     <use style="fill:#f8766d;stroke:#f8766d;" x="572.335216" xlink:href="#mebc39a49a1" y="146.616215"/>
     <use style="fill:#f8766d;stroke:#f8766d;" x="444.878152" xlink:href="#mebc39a49a1" y="118.412961"/>
     <use style="fill:#f8766d;stroke:#f8766d;" x="475.507882" xlink:href="#mebc39a49a1" y="114.424825"/>
     <use style="fill:#f8766d;stroke:#f8766d;" x="541.242388" xlink:href="#mebc39a49a1" y="172.602646"/>
     <use style="fill:#f8766d;stroke:#f8766d;" x="372.933898" xlink:href="#mebc39a49a1" y="217.208635"/>
     <use style="fill:#f8766d;stroke:#f8766d;" x="439.356474" xlink:href="#mebc39a49a1" y="158.752876"/>
     <use style="fill:#f8766d;stroke:#f8766d;" x="301.882289" xlink:href="#mebc39a49a1" y="215.111166"/>
     <use style="fill:#f8766d;stroke:#f8766d;" x="458.961303" xlink:href="#mebc39a49a1" y="168.292579"/>
     <use style="fill:#f8766d;stroke:#f8766d;" x="588.424975" xlink:href="#mebc39a49a1" y="170.824911"/>
     <use style="fill:#f8766d;stroke:#f8766d;" x="499.11749" xlink:href="#mebc39a49a1" y="215.571209"/>
     <use style="fill:#f8766d;stroke:#f8766d;" x="294.347579" xlink:href="#mebc39a49a1" y="290.996777"/>
     <use style="fill:#f8766d;stroke:#f8766d;" x="473.122964" xlink:href="#mebc39a49a1" y="209.259692"/>
     <use style="fill:#f8766d;stroke:#f8766d;" x="256.85255" xlink:href="#mebc39a49a1" y="290.553676"/>
     <use style="fill:#f8766d;stroke:#f8766d;" x="270.51684" xlink:href="#mebc39a49a1" y="143.020205"/>
     <use style="fill:#f8766d;stroke:#f8766d;" x="622.536947" xlink:href="#mebc39a49a1" y="162.049274"/>
     <use style="fill:#f8766d;stroke:#f8766d;" x="539.476441" xlink:href="#mebc39a49a1" y="206.014822"/>
     <use style="fill:#f8766d;stroke:#f8766d;" x="355.087496" xlink:href="#mebc39a49a1" y="163.999291"/>
     <use style="fill:#f8766d;stroke:#f8766d;" x="515.685522" xlink:href="#mebc39a49a1" y="198.7636"/>
     <use style="fill:#f8766d;stroke:#f8766d;" x="254.808768" xlink:href="#mebc39a49a1" y="161.066512"/>
     <use style="fill:#f8766d;stroke:#f8766d;" x="553.606818" xlink:href="#mebc39a49a1" y="221.077324"/>
     <use style="fill:#f8766d;stroke:#f8766d;" x="210.545186" xlink:href="#mebc39a49a1" y="237.791281"/>
     <use style="fill:#f8766d;stroke:#f8766d;" x="493.74427" xlink:href="#mebc39a49a1" y="344.488116"/>
     <use style="fill:#f8766d;stroke:#f8766d;" x="493.697829" xlink:href="#mebc39a49a1" y="344.482159"/>
     <use style="fill:#f8766d;stroke:#f8766d;" x="576.716876" xlink:href="#mebc39a49a1" y="187.173265"/>
     <use style="fill:#f8766d;stroke:#f8766d;" x="285.212976" xlink:href="#mebc39a49a1" y="228.937421"/>
     <use style="fill:#f8766d;stroke:#f8766d;" x="473.573418" xlink:href="#mebc39a49a1" y="195.106345"/>
     <use style="fill:#f8766d;stroke:#f8766d;" x="377.056318" xlink:href="#mebc39a49a1" y="261.591162"/>
     <use style="fill:#f8766d;stroke:#f8766d;" x="182.473001" xlink:href="#mebc39a49a1" y="336.067824"/>
     <use style="fill:#f8766d;stroke:#f8766d;" x="558.222333" xlink:href="#mebc39a49a1" y="233.252722"/>
     <use style="fill:#f8766d;stroke:#f8766d;" x="441.139187" xlink:href="#mebc39a49a1" y="262.358915"/>
     <use style="fill:#f8766d;stroke:#f8766d;" x="351.744937" xlink:href="#mebc39a49a1" y="271.823776"/>
     <use style="fill:#f8766d;stroke:#f8766d;" x="359.256334" xlink:href="#mebc39a49a1" y="265.415548"/>
     <use style="fill:#f8766d;stroke:#f8766d;" x="178.600986" xlink:href="#mebc39a49a1" y="316.006773"/>
     <use style="fill:#f8766d;stroke:#f8766d;" x="178.338351" xlink:href="#mebc39a49a1" y="316.683273"/>
     <use style="fill:#f8766d;stroke:#f8766d;" x="341.373521" xlink:href="#mebc39a49a1" y="355.709793"/>
     <use style="fill:#f8766d;stroke:#f8766d;" x="462.300025" xlink:href="#mebc39a49a1" y="184.977627"/>
     <use style="fill:#f8766d;stroke:#f8766d;" x="249.251512" xlink:href="#mebc39a49a1" y="344.230877"/>
     <use style="fill:#f8766d;stroke:#f8766d;" x="474.625032" xlink:href="#mebc39a49a1" y="242.062345"/>
     <use style="fill:#f8766d;stroke:#f8766d;" x="392.838465" xlink:href="#mebc39a49a1" y="139.92704"/>
     <use style="fill:#f8766d;stroke:#f8766d;" x="492.3577" xlink:href="#mebc39a49a1" y="92.671115"/>
     <use style="fill:#f8766d;stroke:#f8766d;" x="389.379467" xlink:href="#mebc39a49a1" y="117.192568"/>
     <use style="fill:#f8766d;stroke:#f8766d;" x="507.901231" xlink:href="#mebc39a49a1" y="193.631638"/>
     <use style="fill:#f8766d;stroke:#f8766d;" x="138.688706" xlink:href="#mebc39a49a1" y="305.758463"/>
     <use style="fill:#f8766d;stroke:#f8766d;" x="335.770134" xlink:href="#mebc39a49a1" y="126.432496"/>
     <use style="fill:#f8766d;stroke:#f8766d;" x="496.75823" xlink:href="#mebc39a49a1" y="235.620634"/>
     <use style="fill:#f8766d;stroke:#f8766d;" x="197.907399" xlink:href="#mebc39a49a1" y="254.279126"/>
     <use style="fill:#f8766d;stroke:#f8766d;" x="254.142244" xlink:href="#mebc39a49a1" y="316.778508"/>
     <use style="fill:#f8766d;stroke:#f8766d;" x="349.004653" xlink:href="#mebc39a49a1" y="207.936246"/>
     <use style="fill:#f8766d;stroke:#f8766d;" x="271.789683" xlink:href="#mebc39a49a1" y="288.955787"/>
     <use style="fill:#f8766d;stroke:#f8766d;" x="372.644509" xlink:href="#mebc39a49a1" y="232.102418"/>
     <use style="fill:#f8766d;stroke:#f8766d;" x="374.321369" xlink:href="#mebc39a49a1" y="193.943042"/>
     <use style="fill:#f8766d;stroke:#f8766d;" x="415.500937" xlink:href="#mebc39a49a1" y="274.998481"/>
     <use style="fill:#f8766d;stroke:#f8766d;" x="289.759001" xlink:href="#mebc39a49a1" y="205.425378"/>
     <use style="fill:#f8766d;stroke:#f8766d;" x="351.393136" xlink:href="#mebc39a49a1" y="172.368823"/>
     <use style="fill:#f8766d;stroke:#f8766d;" x="319.064086" xlink:href="#mebc39a49a1" y="284.702682"/>
     <use style="fill:#f8766d;stroke:#f8766d;" x="319.816663" xlink:href="#mebc39a49a1" y="331.220776"/>
     <use style="fill:#f8766d;stroke:#f8766d;" x="249.962766" xlink:href="#mebc39a49a1" y="167.119508"/>
     <use style="fill:#f8766d;stroke:#f8766d;" x="316.250466" xlink:href="#mebc39a49a1" y="257.989938"/>
     <use style="fill:#f8766d;stroke:#f8766d;" x="197.965753" xlink:href="#mebc39a49a1" y="237.055467"/>
     <use style="fill:#f8766d;stroke:#f8766d;" x="144.006896" xlink:href="#mebc39a49a1" y="323.333722"/>
     <use style="fill:#f8766d;stroke:#f8766d;" x="284.911491" xlink:href="#mebc39a49a1" y="252.575544"/>
     <use style="fill:#f8766d;stroke:#f8766d;" x="345.550531" xlink:href="#mebc39a49a1" y="253.107452"/>
     <use style="fill:#f8766d;stroke:#f8766d;" x="239.083696" xlink:href="#mebc39a49a1" y="304.49064"/>
     <use style="fill:#f8766d;stroke:#f8766d;" x="499.455945" xlink:href="#mebc39a49a1" y="163.728472"/>
     <use style="fill:#f8766d;stroke:#f8766d;" x="563.525675" xlink:href="#mebc39a49a1" y="191.82738"/>
     <use style="fill:#f8766d;stroke:#f8766d;" x="512.843854" xlink:href="#mebc39a49a1" y="177.272705"/>
     <use style="fill:#f8766d;stroke:#f8766d;" x="504.732077" xlink:href="#mebc39a49a1" y="179.257279"/>
     <use style="fill:#f8766d;stroke:#f8766d;" x="450.490526" xlink:href="#mebc39a49a1" y="87.825965"/>
     <use style="fill:#f8766d;stroke:#f8766d;" x="513.321306" xlink:href="#mebc39a49a1" y="106.286041"/>
     <use style="fill:#f8766d;stroke:#f8766d;" x="560.391534" xlink:href="#mebc39a49a1" y="205.996474"/>
     <use style="fill:#f8766d;stroke:#f8766d;" x="450.166681" xlink:href="#mebc39a49a1" y="160.346963"/>
     <use style="fill:#f8766d;stroke:#f8766d;" x="582.597686" xlink:href="#mebc39a49a1" y="142.879869"/>
     <use style="fill:#f8766d;stroke:#f8766d;" x="456.562065" xlink:href="#mebc39a49a1" y="124.865938"/>
     <use style="fill:#f8766d;stroke:#f8766d;" x="427.038234" xlink:href="#mebc39a49a1" y="209.164384"/>
     <use style="fill:#f8766d;stroke:#f8766d;" x="302.85482" xlink:href="#mebc39a49a1" y="224.476855"/>
     <use style="fill:#f8766d;stroke:#f8766d;" x="434.988547" xlink:href="#mebc39a49a1" y="235.285667"/>
     <use style="fill:#f8766d;stroke:#f8766d;" x="245.144566" xlink:href="#mebc39a49a1" y="267.890757"/>
     <use style="fill:#f8766d;stroke:#f8766d;" x="437.023398" xlink:href="#mebc39a49a1" y="115.94529"/>
     <use style="fill:#f8766d;stroke:#f8766d;" x="180.004326" xlink:href="#mebc39a49a1" y="289.308297"/>
     <use style="fill:#f8766d;stroke:#f8766d;" x="247.380162" xlink:href="#mebc39a49a1" y="236.681118"/>
     <use style="fill:#f8766d;stroke:#f8766d;" x="334.069388" xlink:href="#mebc39a49a1" y="307.607163"/>
    </g>
   </g>
   <g id="PathCollection_2">
    <defs>
     <path d="M 0 3 
C 0.795609 3 1.55874 2.683901 2.12132 2.12132 
C 2.683901 1.55874 3 0.795609 3 0 
C 3 -0.795609 2.683901 -1.55874 2.12132 -2.12132 
C 1.55874 -2.683901 0.795609 -3 0 -3 
C -0.795609 -3 -1.55874 -2.683901 -2.12132 -2.12132 
C -2.683901 -1.55874 -3 -0.795609 -3 0 
C -3 0.795609 -2.683901 1.55874 -2.12132 2.12132 
C -1.55874 2.683901 -0.795609 3 0 3 
z
" id="m75ae0666fb" style="stroke:#00bfc4;"/>
    </defs>
    <g clip-path="url(#p30d7c1d14b)">
     <use style="fill:#00bfc4;stroke:#00bfc4;" x="520.633382" xlink:href="#m75ae0666fb" y="125.088044"/>
     <use style="fill:#00bfc4;stroke:#00bfc4;" x="432.095156" xlink:href="#m75ae0666fb" y="141.786316"/>
     <use style="fill:#00bfc4;stroke:#00bfc4;" x="489.168786" xlink:href="#m75ae0666fb" y="160.355965"/>
     <use style="fill:#00bfc4;stroke:#00bfc4;" x="475.376186" xlink:href="#m75ae0666fb" y="129.50178"/>
     <use style="fill:#00bfc4;stroke:#00bfc4;" x="483.191875" xlink:href="#m75ae0666fb" y="170.856654"/>
     <use style="fill:#00bfc4;stroke:#00bfc4;" x="575.957434" xlink:href="#m75ae0666fb" y="119.679804"/>
     <use style="fill:#00bfc4;stroke:#00bfc4;" x="504.457212" xlink:href="#m75ae0666fb" y="140.333605"/>
     <use style="fill:#00bfc4;stroke:#00bfc4;" x="494.703082" xlink:href="#m75ae0666fb" y="169.395861"/>
     <use style="fill:#00bfc4;stroke:#00bfc4;" x="530.704215" xlink:href="#m75ae0666fb" y="172.320439"/>
     <use style="fill:#00bfc4;stroke:#00bfc4;" x="494.819357" xlink:href="#m75ae0666fb" y="168.907694"/>
     <use style="fill:#00bfc4;stroke:#00bfc4;" x="575.047074" xlink:href="#m75ae0666fb" y="171.658091"/>
     <use style="fill:#00bfc4;stroke:#00bfc4;" x="486.154218" xlink:href="#m75ae0666fb" y="162.124417"/>
     <use style="fill:#00bfc4;stroke:#00bfc4;" x="494.768119" xlink:href="#m75ae0666fb" y="169.105565"/>
     <use style="fill:#00bfc4;stroke:#00bfc4;" x="569.924295" xlink:href="#m75ae0666fb" y="100.065257"/>
     <use style="fill:#00bfc4;stroke:#00bfc4;" x="479.677908" xlink:href="#m75ae0666fb" y="148.961802"/>
     <use style="fill:#00bfc4;stroke:#00bfc4;" x="468.728157" xlink:href="#m75ae0666fb" y="145.02688"/>
     <use style="fill:#00bfc4;stroke:#00bfc4;" x="542.368209" xlink:href="#m75ae0666fb" y="172.827909"/>
     <use style="fill:#00bfc4;stroke:#00bfc4;" x="546.072959" xlink:href="#m75ae0666fb" y="129.384286"/>
     <use style="fill:#00bfc4;stroke:#00bfc4;" x="453.901198" xlink:href="#m75ae0666fb" y="146.664618"/>
     <use style="fill:#00bfc4;stroke:#00bfc4;" x="326.443394" xlink:href="#m75ae0666fb" y="332.575399"/>
     <use style="fill:#00bfc4;stroke:#00bfc4;" x="415.891419" xlink:href="#m75ae0666fb" y="282.914054"/>
     <use style="fill:#00bfc4;stroke:#00bfc4;" x="402.911478" xlink:href="#m75ae0666fb" y="205.848938"/>
     <use style="fill:#00bfc4;stroke:#00bfc4;" x="472.766318" xlink:href="#m75ae0666fb" y="239.793139"/>
     <use style="fill:#00bfc4;stroke:#00bfc4;" x="577.281753" xlink:href="#m75ae0666fb" y="210.351294"/>
     <use style="fill:#00bfc4;stroke:#00bfc4;" x="234.531587" xlink:href="#m75ae0666fb" y="257.323898"/>
     <use style="fill:#00bfc4;stroke:#00bfc4;" x="227.440405" xlink:href="#m75ae0666fb" y="235.807769"/>
     <use style="fill:#00bfc4;stroke:#00bfc4;" x="277.231581" xlink:href="#m75ae0666fb" y="293.480498"/>
     <use style="fill:#00bfc4;stroke:#00bfc4;" x="200.053622" xlink:href="#m75ae0666fb" y="273.044817"/>
     <use style="fill:#00bfc4;stroke:#00bfc4;" x="176.25251" xlink:href="#m75ae0666fb" y="306.668416"/>
     <use style="fill:#00bfc4;stroke:#00bfc4;" x="118.22628" xlink:href="#m75ae0666fb" y="304.791925"/>
     <use style="fill:#00bfc4;stroke:#00bfc4;" x="146.588504" xlink:href="#m75ae0666fb" y="270.612196"/>
     <use style="fill:#00bfc4;stroke:#00bfc4;" x="224.078017" xlink:href="#m75ae0666fb" y="277.605748"/>
     <use style="fill:#00bfc4;stroke:#00bfc4;" x="347.246305" xlink:href="#m75ae0666fb" y="259.500769"/>
     <use style="fill:#00bfc4;stroke:#00bfc4;" x="407.423261" xlink:href="#m75ae0666fb" y="185.735798"/>
     <use style="fill:#00bfc4;stroke:#00bfc4;" x="491.43295" xlink:href="#m75ae0666fb" y="195.52038"/>
     <use style="fill:#00bfc4;stroke:#00bfc4;" x="425.397274" xlink:href="#m75ae0666fb" y="289.842706"/>
     <use style="fill:#00bfc4;stroke:#00bfc4;" x="248.105577" xlink:href="#m75ae0666fb" y="170.58466"/>
     <use style="fill:#00bfc4;stroke:#00bfc4;" x="303.036599" xlink:href="#m75ae0666fb" y="160.563184"/>
     <use style="fill:#00bfc4;stroke:#00bfc4;" x="596.620173" xlink:href="#m75ae0666fb" y="199.29728"/>
     <use style="fill:#00bfc4;stroke:#00bfc4;" x="423.685612" xlink:href="#m75ae0666fb" y="226.333821"/>
     <use style="fill:#00bfc4;stroke:#00bfc4;" x="366.977226" xlink:href="#m75ae0666fb" y="338.447273"/>
     <use style="fill:#00bfc4;stroke:#00bfc4;" x="257.767249" xlink:href="#m75ae0666fb" y="345.987929"/>
     <use style="fill:#00bfc4;stroke:#00bfc4;" x="423.428184" xlink:href="#m75ae0666fb" y="187.775287"/>
     <use style="fill:#00bfc4;stroke:#00bfc4;" x="427.895778" xlink:href="#m75ae0666fb" y="215.92268"/>
     <use style="fill:#00bfc4;stroke:#00bfc4;" x="417.349304" xlink:href="#m75ae0666fb" y="304.659294"/>
     <use style="fill:#00bfc4;stroke:#00bfc4;" x="308.538698" xlink:href="#m75ae0666fb" y="285.628811"/>
     <use style="fill:#00bfc4;stroke:#00bfc4;" x="203.415093" xlink:href="#m75ae0666fb" y="217.428042"/>
     <use style="fill:#00bfc4;stroke:#00bfc4;" x="423.799585" xlink:href="#m75ae0666fb" y="113.970144"/>
     <use style="fill:#00bfc4;stroke:#00bfc4;" x="421.862101" xlink:href="#m75ae0666fb" y="328.218392"/>
     <use style="fill:#00bfc4;stroke:#00bfc4;" x="436.479047" xlink:href="#m75ae0666fb" y="180.303605"/>
     <use style="fill:#00bfc4;stroke:#00bfc4;" x="540.321905" xlink:href="#m75ae0666fb" y="106.02768"/>
     <use style="fill:#00bfc4;stroke:#00bfc4;" x="368.187162" xlink:href="#m75ae0666fb" y="282.570283"/>
     <use style="fill:#00bfc4;stroke:#00bfc4;" x="353.963039" xlink:href="#m75ae0666fb" y="287.538352"/>
     <use style="fill:#00bfc4;stroke:#00bfc4;" x="417.385283" xlink:href="#m75ae0666fb" y="158.567504"/>
     <use style="fill:#00bfc4;stroke:#00bfc4;" x="494.715144" xlink:href="#m75ae0666fb" y="184.168565"/>
     <use style="fill:#00bfc4;stroke:#00bfc4;" x="395.440304" xlink:href="#m75ae0666fb" y="141.175553"/>
     <use style="fill:#00bfc4;stroke:#00bfc4;" x="474.470578" xlink:href="#m75ae0666fb" y="185.578942"/>
     <use style="fill:#00bfc4;stroke:#00bfc4;" x="544.694254" xlink:href="#m75ae0666fb" y="190.209465"/>
     <use style="fill:#00bfc4;stroke:#00bfc4;" x="367.123603" xlink:href="#m75ae0666fb" y="255.27311"/>
     <use style="fill:#00bfc4;stroke:#00bfc4;" x="443.550946" xlink:href="#m75ae0666fb" y="152.173064"/>
     <use style="fill:#00bfc4;stroke:#00bfc4;" x="151.861691" xlink:href="#m75ae0666fb" y="224.350385"/>
     <use style="fill:#00bfc4;stroke:#00bfc4;" x="303.394422" xlink:href="#m75ae0666fb" y="206.963239"/>
     <use style="fill:#00bfc4;stroke:#00bfc4;" x="363.079505" xlink:href="#m75ae0666fb" y="335.245024"/>
     <use style="fill:#00bfc4;stroke:#00bfc4;" x="258.983123" xlink:href="#m75ae0666fb" y="316.015422"/>
     <use style="fill:#00bfc4;stroke:#00bfc4;" x="445.266461" xlink:href="#m75ae0666fb" y="289.460422"/>
     <use style="fill:#00bfc4;stroke:#00bfc4;" x="153.556375" xlink:href="#m75ae0666fb" y="260.712254"/>
     <use style="fill:#00bfc4;stroke:#00bfc4;" x="455.299054" xlink:href="#m75ae0666fb" y="175.304596"/>
     <use style="fill:#00bfc4;stroke:#00bfc4;" x="442.294657" xlink:href="#m75ae0666fb" y="219.937678"/>
     <use style="fill:#00bfc4;stroke:#00bfc4;" x="186.534149" xlink:href="#m75ae0666fb" y="317.669139"/>
     <use style="fill:#00bfc4;stroke:#00bfc4;" x="214.562617" xlink:href="#m75ae0666fb" y="255.890556"/>
     <use style="fill:#00bfc4;stroke:#00bfc4;" x="443.435226" xlink:href="#m75ae0666fb" y="275.057198"/>
     <use style="fill:#00bfc4;stroke:#00bfc4;" x="179.830924" xlink:href="#m75ae0666fb" y="202.287193"/>
     <use style="fill:#00bfc4;stroke:#00bfc4;" x="596.147755" xlink:href="#m75ae0666fb" y="235.974934"/>
     <use style="fill:#00bfc4;stroke:#00bfc4;" x="263.780893" xlink:href="#m75ae0666fb" y="225.264024"/>
     <use style="fill:#00bfc4;stroke:#00bfc4;" x="124.259314" xlink:href="#m75ae0666fb" y="307.494307"/>
     <use style="fill:#00bfc4;stroke:#00bfc4;" x="293.688276" xlink:href="#m75ae0666fb" y="190.975348"/>
     <use style="fill:#00bfc4;stroke:#00bfc4;" x="338.328674" xlink:href="#m75ae0666fb" y="176.792115"/>
     <use style="fill:#00bfc4;stroke:#00bfc4;" x="517.591903" xlink:href="#m75ae0666fb" y="242.426438"/>
     <use style="fill:#00bfc4;stroke:#00bfc4;" x="329.647267" xlink:href="#m75ae0666fb" y="300.263626"/>
     <use style="fill:#00bfc4;stroke:#00bfc4;" x="351.490423" xlink:href="#m75ae0666fb" y="323.351384"/>
     <use style="fill:#00bfc4;stroke:#00bfc4;" x="328.234254" xlink:href="#m75ae0666fb" y="227.881628"/>
     <use style="fill:#00bfc4;stroke:#00bfc4;" x="354.239407" xlink:href="#m75ae0666fb" y="156.489214"/>
     <use style="fill:#00bfc4;stroke:#00bfc4;" x="401.196262" xlink:href="#m75ae0666fb" y="274.124148"/>
     <use style="fill:#00bfc4;stroke:#00bfc4;" x="198.729938" xlink:href="#m75ae0666fb" y="208.82433"/>
     <use style="fill:#00bfc4;stroke:#00bfc4;" x="373.454103" xlink:href="#m75ae0666fb" y="192.185185"/>
     <use style="fill:#00bfc4;stroke:#00bfc4;" x="379.666228" xlink:href="#m75ae0666fb" y="227.224184"/>
     <use style="fill:#00bfc4;stroke:#00bfc4;" x="495.14098" xlink:href="#m75ae0666fb" y="242.389993"/>
     <use style="fill:#00bfc4;stroke:#00bfc4;" x="183.659028" xlink:href="#m75ae0666fb" y="231.839985"/>
     <use style="fill:#00bfc4;stroke:#00bfc4;" x="286.71045" xlink:href="#m75ae0666fb" y="327.246499"/>
     <use style="fill:#00bfc4;stroke:#00bfc4;" x="397.841931" xlink:href="#m75ae0666fb" y="171.863961"/>
     <use style="fill:#00bfc4;stroke:#00bfc4;" x="445.545249" xlink:href="#m75ae0666fb" y="296.835881"/>
     <use style="fill:#00bfc4;stroke:#00bfc4;" x="169.939771" xlink:href="#m75ae0666fb" y="297.282785"/>
     <use style="fill:#00bfc4;stroke:#00bfc4;" x="301.21032" xlink:href="#m75ae0666fb" y="220.450269"/>
     <use style="fill:#00bfc4;stroke:#00bfc4;" x="199.82631" xlink:href="#m75ae0666fb" y="289.939397"/>
     <use style="fill:#00bfc4;stroke:#00bfc4;" x="504.561257" xlink:href="#m75ae0666fb" y="69.378162"/>
     <use style="fill:#00bfc4;stroke:#00bfc4;" x="185.88168" xlink:href="#m75ae0666fb" y="246.725814"/>
     <use style="fill:#00bfc4;stroke:#00bfc4;" x="326.490456" xlink:href="#m75ae0666fb" y="287.86082"/>
     <use style="fill:#00bfc4;stroke:#00bfc4;" x="421.404412" xlink:href="#m75ae0666fb" y="256.315216"/>
     <use style="fill:#00bfc4;stroke:#00bfc4;" x="297.172754" xlink:href="#m75ae0666fb" y="303.982334"/>
     <use style="fill:#00bfc4;stroke:#00bfc4;" x="413.13733" xlink:href="#m75ae0666fb" y="301.15526"/>
     <use style="fill:#00bfc4;stroke:#00bfc4;" x="461.420825" xlink:href="#m75ae0666fb" y="218.548481"/>
     <use style="fill:#00bfc4;stroke:#00bfc4;" x="341.377477" xlink:href="#m75ae0666fb" y="225.474623"/>
     <use style="fill:#00bfc4;stroke:#00bfc4;" x="324.875463" xlink:href="#m75ae0666fb" y="278.031801"/>
     <use style="fill:#00bfc4;stroke:#00bfc4;" x="482.415671" xlink:href="#m75ae0666fb" y="284.590961"/>
     <use style="fill:#00bfc4;stroke:#00bfc4;" x="281.233" xlink:href="#m75ae0666fb" y="250.909672"/>
     <use style="fill:#00bfc4;stroke:#00bfc4;" x="243.584532" xlink:href="#m75ae0666fb" y="242.31362"/>
     <use style="fill:#00bfc4;stroke:#00bfc4;" x="254.063646" xlink:href="#m75ae0666fb" y="199.774891"/>
     <use style="fill:#00bfc4;stroke:#00bfc4;" x="358.191019" xlink:href="#m75ae0666fb" y="235.429224"/>
     <use style="fill:#00bfc4;stroke:#00bfc4;" x="195.768477" xlink:href="#m75ae0666fb" y="258.960183"/>
     <use style="fill:#00bfc4;stroke:#00bfc4;" x="409.704703" xlink:href="#m75ae0666fb" y="241.399736"/>
     <use style="fill:#00bfc4;stroke:#00bfc4;" x="399.420517" xlink:href="#m75ae0666fb" y="175.423829"/>
     <use style="fill:#00bfc4;stroke:#00bfc4;" x="302.61396" xlink:href="#m75ae0666fb" y="161.628616"/>
     <use style="fill:#00bfc4;stroke:#00bfc4;" x="158.162791" xlink:href="#m75ae0666fb" y="263.723397"/>
     <use style="fill:#00bfc4;stroke:#00bfc4;" x="421.469061" xlink:href="#m75ae0666fb" y="234.477124"/>
     <use style="fill:#00bfc4;stroke:#00bfc4;" x="180.295071" xlink:href="#m75ae0666fb" y="246.716024"/>
     <use style="fill:#00bfc4;stroke:#00bfc4;" x="493.479907" xlink:href="#m75ae0666fb" y="131.646379"/>
     <use style="fill:#00bfc4;stroke:#00bfc4;" x="141.530586" xlink:href="#m75ae0666fb" y="325.32881"/>
     <use style="fill:#00bfc4;stroke:#00bfc4;" x="445.289616" xlink:href="#m75ae0666fb" y="197.702895"/>
     <use style="fill:#00bfc4;stroke:#00bfc4;" x="197.909621" xlink:href="#m75ae0666fb" y="210.536586"/>
     <use style="fill:#00bfc4;stroke:#00bfc4;" x="310.556161" xlink:href="#m75ae0666fb" y="287.179073"/>
     <use style="fill:#00bfc4;stroke:#00bfc4;" x="289.658518" xlink:href="#m75ae0666fb" y="319.859138"/>
     <use style="fill:#00bfc4;stroke:#00bfc4;" x="286.128265" xlink:href="#m75ae0666fb" y="278.228485"/>
     <use style="fill:#00bfc4;stroke:#00bfc4;" x="188.848485" xlink:href="#m75ae0666fb" y="338.56639"/>
     <use style="fill:#00bfc4;stroke:#00bfc4;" x="178.777316" xlink:href="#m75ae0666fb" y="288.405525"/>
     <use style="fill:#00bfc4;stroke:#00bfc4;" x="284.800533" xlink:href="#m75ae0666fb" y="317.681745"/>
     <use style="fill:#00bfc4;stroke:#00bfc4;" x="223.822568" xlink:href="#m75ae0666fb" y="184.196357"/>
     <use style="fill:#00bfc4;stroke:#00bfc4;" x="366.208675" xlink:href="#m75ae0666fb" y="295.513622"/>
     <use style="fill:#00bfc4;stroke:#00bfc4;" x="158.773695" xlink:href="#m75ae0666fb" y="244.116309"/>
     <use style="fill:#00bfc4;stroke:#00bfc4;" x="236.066412" xlink:href="#m75ae0666fb" y="199.206621"/>
     <use style="fill:#00bfc4;stroke:#00bfc4;" x="189.770554" xlink:href="#m75ae0666fb" y="237.025753"/>
     <use style="fill:#00bfc4;stroke:#00bfc4;" x="234.165454" xlink:href="#m75ae0666fb" y="216.695556"/>
     <use style="fill:#00bfc4;stroke:#00bfc4;" x="459.953339" xlink:href="#m75ae0666fb" y="306.79851"/>
     <use style="fill:#00bfc4;stroke:#00bfc4;" x="256.624154" xlink:href="#m75ae0666fb" y="260.204762"/>
     <use style="fill:#00bfc4;stroke:#00bfc4;" x="180.962389" xlink:href="#m75ae0666fb" y="279.322622"/>
     <use style="fill:#00bfc4;stroke:#00bfc4;" x="169.124021" xlink:href="#m75ae0666fb" y="333.612461"/>
     <use style="fill:#00bfc4;stroke:#00bfc4;" x="314.954799" xlink:href="#m75ae0666fb" y="211.706169"/>
     <use style="fill:#00bfc4;stroke:#00bfc4;" x="479.35714" xlink:href="#m75ae0666fb" y="164.840672"/>
     <use style="fill:#00bfc4;stroke:#00bfc4;" x="429.995101" xlink:href="#m75ae0666fb" y="138.811324"/>
     <use style="fill:#00bfc4;stroke:#00bfc4;" x="477.842083" xlink:href="#m75ae0666fb" y="170.053212"/>
     <use style="fill:#00bfc4;stroke:#00bfc4;" x="541.620636" xlink:href="#m75ae0666fb" y="154.356015"/>
     <use style="fill:#00bfc4;stroke:#00bfc4;" x="519.158832" xlink:href="#m75ae0666fb" y="116.423859"/>
     <use style="fill:#00bfc4;stroke:#00bfc4;" x="493.984165" xlink:href="#m75ae0666fb" y="148.556396"/>
     <use style="fill:#00bfc4;stroke:#00bfc4;" x="517.122888" xlink:href="#m75ae0666fb" y="165.869103"/>
     <use style="fill:#00bfc4;stroke:#00bfc4;" x="483.963458" xlink:href="#m75ae0666fb" y="175.160448"/>
     <use style="fill:#00bfc4;stroke:#00bfc4;" x="535.013396" xlink:href="#m75ae0666fb" y="113.326306"/>
     <use style="fill:#00bfc4;stroke:#00bfc4;" x="509.216821" xlink:href="#m75ae0666fb" y="157.277584"/>
     <use style="fill:#00bfc4;stroke:#00bfc4;" x="528.73277" xlink:href="#m75ae0666fb" y="138.354656"/>
     <use style="fill:#00bfc4;stroke:#00bfc4;" x="563.097326" xlink:href="#m75ae0666fb" y="120.664435"/>
     <use style="fill:#00bfc4;stroke:#00bfc4;" x="519.043994" xlink:href="#m75ae0666fb" y="150.504974"/>
     <use style="fill:#00bfc4;stroke:#00bfc4;" x="451.227413" xlink:href="#m75ae0666fb" y="88.551602"/>
     <use style="fill:#00bfc4;stroke:#00bfc4;" x="483.751003" xlink:href="#m75ae0666fb" y="169.544088"/>
     <use style="fill:#00bfc4;stroke:#00bfc4;" x="478.194144" xlink:href="#m75ae0666fb" y="157.44465"/>
     <use style="fill:#00bfc4;stroke:#00bfc4;" x="515.157378" xlink:href="#m75ae0666fb" y="154.787864"/>
     <use style="fill:#00bfc4;stroke:#00bfc4;" x="448.455517" xlink:href="#m75ae0666fb" y="82.972268"/>
     <use style="fill:#00bfc4;stroke:#00bfc4;" x="535.196886" xlink:href="#m75ae0666fb" y="146.037648"/>
     <use style="fill:#00bfc4;stroke:#00bfc4;" x="488.494758" xlink:href="#m75ae0666fb" y="172.959847"/>
     <use style="fill:#00bfc4;stroke:#00bfc4;" x="563.670474" xlink:href="#m75ae0666fb" y="147.588096"/>
     <use style="fill:#00bfc4;stroke:#00bfc4;" x="528.434866" xlink:href="#m75ae0666fb" y="130.040044"/>
     <use style="fill:#00bfc4;stroke:#00bfc4;" x="502.171154" xlink:href="#m75ae0666fb" y="138.807677"/>
     <use style="fill:#00bfc4;stroke:#00bfc4;" x="433.330631" xlink:href="#m75ae0666fb" y="174.716565"/>
     <use style="fill:#00bfc4;stroke:#00bfc4;" x="457.407556" xlink:href="#m75ae0666fb" y="282.317998"/>
     <use style="fill:#00bfc4;stroke:#00bfc4;" x="433.042937" xlink:href="#m75ae0666fb" y="200.366036"/>
     <use style="fill:#00bfc4;stroke:#00bfc4;" x="542.508688" xlink:href="#m75ae0666fb" y="81.167237"/>
     <use style="fill:#00bfc4;stroke:#00bfc4;" x="597.904955" xlink:href="#m75ae0666fb" y="115.395583"/>
     <use style="fill:#00bfc4;stroke:#00bfc4;" x="341.814822" xlink:href="#m75ae0666fb" y="277.121073"/>
     <use style="fill:#00bfc4;stroke:#00bfc4;" x="285.31002" xlink:href="#m75ae0666fb" y="196.974429"/>
     <use style="fill:#00bfc4;stroke:#00bfc4;" x="293.710505" xlink:href="#m75ae0666fb" y="360.461838"/>
     <use style="fill:#00bfc4;stroke:#00bfc4;" x="259.931248" xlink:href="#m75ae0666fb" y="239.190645"/>
     <use style="fill:#00bfc4;stroke:#00bfc4;" x="290.990658" xlink:href="#m75ae0666fb" y="241.31317"/>
     <use style="fill:#00bfc4;stroke:#00bfc4;" x="240.138829" xlink:href="#m75ae0666fb" y="346.165983"/>
     <use style="fill:#00bfc4;stroke:#00bfc4;" x="361.532139" xlink:href="#m75ae0666fb" y="303.246264"/>
     <use style="fill:#00bfc4;stroke:#00bfc4;" x="401.301308" xlink:href="#m75ae0666fb" y="245.229205"/>
     <use style="fill:#00bfc4;stroke:#00bfc4;" x="248.868819" xlink:href="#m75ae0666fb" y="331.182992"/>
     <use style="fill:#00bfc4;stroke:#00bfc4;" x="560.221729" xlink:href="#m75ae0666fb" y="307.326316"/>
     <use style="fill:#00bfc4;stroke:#00bfc4;" x="559.670183" xlink:href="#m75ae0666fb" y="307.036481"/>
     <use style="fill:#00bfc4;stroke:#00bfc4;" x="288.820443" xlink:href="#m75ae0666fb" y="186.623552"/>
     <use style="fill:#00bfc4;stroke:#00bfc4;" x="243.629122" xlink:href="#m75ae0666fb" y="267.029133"/>
     <use style="fill:#00bfc4;stroke:#00bfc4;" x="137.656119" xlink:href="#m75ae0666fb" y="257.577735"/>
     <use style="fill:#00bfc4;stroke:#00bfc4;" x="250.458886" xlink:href="#m75ae0666fb" y="254.948747"/>
     <use style="fill:#00bfc4;stroke:#00bfc4;" x="361.259932" xlink:href="#m75ae0666fb" y="183.905139"/>
     <use style="fill:#00bfc4;stroke:#00bfc4;" x="277.942369" xlink:href="#m75ae0666fb" y="215.736911"/>
     <use style="fill:#00bfc4;stroke:#00bfc4;" x="164.755975" xlink:href="#m75ae0666fb" y="331.612221"/>
     <use style="fill:#00bfc4;stroke:#00bfc4;" x="506.983941" xlink:href="#m75ae0666fb" y="218.45413"/>
     <use style="fill:#00bfc4;stroke:#00bfc4;" x="392.686285" xlink:href="#m75ae0666fb" y="304.790206"/>
     <use style="fill:#00bfc4;stroke:#00bfc4;" x="196.608739" xlink:href="#m75ae0666fb" y="276.516553"/>
     <use style="fill:#00bfc4;stroke:#00bfc4;" x="459.509718" xlink:href="#m75ae0666fb" y="269.001456"/>
     <use style="fill:#00bfc4;stroke:#00bfc4;" x="259.447182" xlink:href="#m75ae0666fb" y="193.23311"/>
    </g>
   </g>
   <g id="matplotlib.axis_1">
    <g id="xtick_1">
     <g id="line2d_1">
      <defs>
       <path d="M 0 0 
L 0 3.5 
" id="m189bf498bd" style="stroke:#000000;stroke-width:0.8;"/>
      </defs>
      <g>
       <use style="stroke:#000000;stroke-width:0.8;" x="92.948326" xlink:href="#m189bf498bd" y="378"/>
      </g>
     </g>
     <g id="text_1">
      <!-- −15 -->
      <defs>
       <path d="M 10.59375 35.5 
L 73.1875 35.5 
L 73.1875 27.203125 
L 10.59375 27.203125 
z
" id="DejaVuSans-8722"/>
       <path d="M 12.40625 8.296875 
L 28.515625 8.296875 
L 28.515625 63.921875 
L 10.984375 60.40625 
L 10.984375 69.390625 
L 28.421875 72.90625 
L 38.28125 72.90625 
L 38.28125 8.296875 
L 54.390625 8.296875 
L 54.390625 0 
L 12.40625 0 
z
" id="DejaVuSans-49"/>
       <path d="M 10.796875 72.90625 
L 49.515625 72.90625 
L 49.515625 64.59375 
L 19.828125 64.59375 
L 19.828125 46.734375 
Q 21.96875 47.46875 24.109375 47.828125 
Q 26.265625 48.1875 28.421875 48.1875 
Q 40.625 48.1875 47.75 41.5 
Q 54.890625 34.8125 54.890625 23.390625 
Q 54.890625 11.625 47.5625 5.09375 
Q 40.234375 -1.421875 26.90625 -1.421875 
Q 22.3125 -1.421875 17.546875 -0.640625 
Q 12.796875 0.140625 7.71875 1.703125 
L 7.71875 11.625 
Q 12.109375 9.234375 16.796875 8.0625 
Q 21.484375 6.890625 26.703125 6.890625 
Q 35.15625 6.890625 40.078125 11.328125 
Q 45.015625 15.765625 45.015625 23.390625 
Q 45.015625 31 40.078125 35.4375 
Q 35.15625 39.890625 26.703125 39.890625 
Q 22.75 39.890625 18.8125 39.015625 
Q 14.890625 38.140625 10.796875 36.28125 
z
" id="DejaVuSans-53"/>
      </defs>
      <g transform="translate(82.395982 392.598437)scale(0.1 -0.1)">
       <use xlink:href="#DejaVuSans-8722"/>
       <use x="83.789062" xlink:href="#DejaVuSans-49"/>
       <use x="147.412109" xlink:href="#DejaVuSans-53"/>
      </g>
     </g>
    </g>
    <g id="xtick_2">
     <g id="line2d_2">
      <g>
       <use style="stroke:#000000;stroke-width:0.8;" x="185.405347" xlink:href="#m189bf498bd" y="378"/>
      </g>
     </g>
     <g id="text_2">
      <!-- −10 -->
      <defs>
       <path d="M 31.78125 66.40625 
Q 24.171875 66.40625 20.328125 58.90625 
Q 16.5 51.421875 16.5 36.375 
Q 16.5 21.390625 20.328125 13.890625 
Q 24.171875 6.390625 31.78125 6.390625 
Q 39.453125 6.390625 43.28125 13.890625 
Q 47.125 21.390625 47.125 36.375 
Q 47.125 51.421875 43.28125 58.90625 
Q 39.453125 66.40625 31.78125 66.40625 
z
M 31.78125 74.21875 
Q 44.046875 74.21875 50.515625 64.515625 
Q 56.984375 54.828125 56.984375 36.375 
Q 56.984375 17.96875 50.515625 8.265625 
Q 44.046875 -1.421875 31.78125 -1.421875 
Q 19.53125 -1.421875 13.0625 8.265625 
Q 6.59375 17.96875 6.59375 36.375 
Q 6.59375 54.828125 13.0625 64.515625 
Q 19.53125 74.21875 31.78125 74.21875 
z
" id="DejaVuSans-48"/>
      </defs>
      <g transform="translate(174.853003 392.598437)scale(0.1 -0.1)">
       <use xlink:href="#DejaVuSans-8722"/>
       <use x="83.789062" xlink:href="#DejaVuSans-49"/>
       <use x="147.412109" xlink:href="#DejaVuSans-48"/>
      </g>
     </g>
    </g>
    <g id="xtick_3">
     <g id="line2d_3">
      <g>
       <use style="stroke:#000000;stroke-width:0.8;" x="277.862368" xlink:href="#m189bf498bd" y="378"/>
      </g>
     </g>
     <g id="text_3">
      <!-- −5 -->
      <g transform="translate(270.491275 392.598437)scale(0.1 -0.1)">
       <use xlink:href="#DejaVuSans-8722"/>
       <use x="83.789062" xlink:href="#DejaVuSans-53"/>
      </g>
     </g>
    </g>
    <g id="xtick_4">
     <g id="line2d_4">
      <g>
       <use style="stroke:#000000;stroke-width:0.8;" x="370.31939" xlink:href="#m189bf498bd" y="378"/>
      </g>
     </g>
     <g id="text_4">
      <!-- 0 -->
      <g transform="translate(367.13814 392.598437)scale(0.1 -0.1)">
       <use xlink:href="#DejaVuSans-48"/>
      </g>
     </g>
    </g>
    <g id="xtick_5">
     <g id="line2d_5">
      <g>
       <use style="stroke:#000000;stroke-width:0.8;" x="462.776411" xlink:href="#m189bf498bd" y="378"/>
      </g>
     </g>
     <g id="text_5">
      <!-- 5 -->
      <g transform="translate(459.595161 392.598437)scale(0.1 -0.1)">
       <use xlink:href="#DejaVuSans-53"/>
      </g>
     </g>
    </g>
    <g id="xtick_6">
     <g id="line2d_6">
      <g>
       <use style="stroke:#000000;stroke-width:0.8;" x="555.233432" xlink:href="#m189bf498bd" y="378"/>
      </g>
     </g>
     <g id="text_6">
      <!-- 10 -->
      <g transform="translate(548.870932 392.598437)scale(0.1 -0.1)">
       <use xlink:href="#DejaVuSans-49"/>
       <use x="63.623047" xlink:href="#DejaVuSans-48"/>
      </g>
     </g>
    </g>
    <g id="xtick_7">
     <g id="line2d_7">
      <g>
       <use style="stroke:#000000;stroke-width:0.8;" x="647.690453" xlink:href="#m189bf498bd" y="378"/>
      </g>
     </g>
     <g id="text_7">
      <!-- 15 -->
      <g transform="translate(641.327953 392.598437)scale(0.1 -0.1)">
       <use xlink:href="#DejaVuSans-49"/>
       <use x="63.623047" xlink:href="#DejaVuSans-53"/>
      </g>
     </g>
    </g>
    <g id="text_8">
     <!-- tSNE-1 -->
     <defs>
      <path d="M 18.3125 70.21875 
L 18.3125 54.6875 
L 36.8125 54.6875 
L 36.8125 47.703125 
L 18.3125 47.703125 
L 18.3125 18.015625 
Q 18.3125 11.328125 20.140625 9.421875 
Q 21.96875 7.515625 27.59375 7.515625 
L 36.8125 7.515625 
L 36.8125 0 
L 27.59375 0 
Q 17.1875 0 13.234375 3.875 
Q 9.28125 7.765625 9.28125 18.015625 
L 9.28125 47.703125 
L 2.6875 47.703125 
L 2.6875 54.6875 
L 9.28125 54.6875 
L 9.28125 70.21875 
z
" id="DejaVuSans-116"/>
      <path d="M 53.515625 70.515625 
L 53.515625 60.890625 
Q 47.90625 63.578125 42.921875 64.890625 
Q 37.9375 66.21875 33.296875 66.21875 
Q 25.25 66.21875 20.875 63.09375 
Q 16.5 59.96875 16.5 54.203125 
Q 16.5 49.359375 19.40625 46.890625 
Q 22.3125 44.4375 30.421875 42.921875 
L 36.375 41.703125 
Q 47.40625 39.59375 52.65625 34.296875 
Q 57.90625 29 57.90625 20.125 
Q 57.90625 9.515625 50.796875 4.046875 
Q 43.703125 -1.421875 29.984375 -1.421875 
Q 24.8125 -1.421875 18.96875 -0.25 
Q 13.140625 0.921875 6.890625 3.21875 
L 6.890625 13.375 
Q 12.890625 10.015625 18.65625 8.296875 
Q 24.421875 6.59375 29.984375 6.59375 
Q 38.421875 6.59375 43.015625 9.90625 
Q 47.609375 13.234375 47.609375 19.390625 
Q 47.609375 24.75 44.3125 27.78125 
Q 41.015625 30.8125 33.5 32.328125 
L 27.484375 33.5 
Q 16.453125 35.6875 11.515625 40.375 
Q 6.59375 45.0625 6.59375 53.421875 
Q 6.59375 63.09375 13.40625 68.65625 
Q 20.21875 74.21875 32.171875 74.21875 
Q 37.3125 74.21875 42.625 73.28125 
Q 47.953125 72.359375 53.515625 70.515625 
z
" id="DejaVuSans-83"/>
      <path d="M 9.8125 72.90625 
L 23.09375 72.90625 
L 55.421875 11.921875 
L 55.421875 72.90625 
L 64.984375 72.90625 
L 64.984375 0 
L 51.703125 0 
L 19.390625 60.984375 
L 19.390625 0 
L 9.8125 0 
z
" id="DejaVuSans-78"/>
      <path d="M 9.8125 72.90625 
L 55.90625 72.90625 
L 55.90625 64.59375 
L 19.671875 64.59375 
L 19.671875 43.015625 
L 54.390625 43.015625 
L 54.390625 34.71875 
L 19.671875 34.71875 
L 19.671875 8.296875 
L 56.78125 8.296875 
L 56.78125 0 
L 9.8125 0 
z
" id="DejaVuSans-69"/>
      <path d="M 4.890625 31.390625 
L 31.203125 31.390625 
L 31.203125 23.390625 
L 4.890625 23.390625 
z
" id="DejaVuSans-45"/>
     </defs>
     <g transform="translate(351.980469 406.276563)scale(0.1 -0.1)">
      <use xlink:href="#DejaVuSans-116"/>
      <use x="39.208984" xlink:href="#DejaVuSans-83"/>
      <use x="102.685547" xlink:href="#DejaVuSans-78"/>
      <use x="177.490234" xlink:href="#DejaVuSans-69"/>
      <use x="240.673828" xlink:href="#DejaVuSans-45"/>
      <use x="276.757812" xlink:href="#DejaVuSans-49"/>
     </g>
    </g>
   </g>
   <g id="matplotlib.axis_2">
    <g id="ytick_1">
     <g id="line2d_8">
      <defs>
       <path d="M 0 0 
L -3.5 0 
" id="me937b811aa" style="stroke:#000000;stroke-width:0.8;"/>
      </defs>
      <g>
       <use style="stroke:#000000;stroke-width:0.8;" x="90" xlink:href="#me937b811aa" y="350.45652"/>
      </g>
     </g>
     <g id="text_9">
      <!-- −10 -->
      <g transform="translate(61.895313 354.255739)scale(0.1 -0.1)">
       <use xlink:href="#DejaVuSans-8722"/>
       <use x="83.789062" xlink:href="#DejaVuSans-49"/>
       <use x="147.412109" xlink:href="#DejaVuSans-48"/>
      </g>
     </g>
    </g>
    <g id="ytick_2">
     <g id="line2d_9">
      <g>
       <use style="stroke:#000000;stroke-width:0.8;" x="90" xlink:href="#me937b811aa" y="287.867261"/>
      </g>
     </g>
     <g id="text_10">
      <!-- −5 -->
      <g transform="translate(68.257812 291.666479)scale(0.1 -0.1)">
       <use xlink:href="#DejaVuSans-8722"/>
       <use x="83.789062" xlink:href="#DejaVuSans-53"/>
      </g>
     </g>
    </g>
    <g id="ytick_3">
     <g id="line2d_10">
      <g>
       <use style="stroke:#000000;stroke-width:0.8;" x="90" xlink:href="#me937b811aa" y="225.278001"/>
      </g>
     </g>
     <g id="text_11">
      <!-- 0 -->
      <g transform="translate(76.6375 229.07722)scale(0.1 -0.1)">
       <use xlink:href="#DejaVuSans-48"/>
      </g>
     </g>
    </g>
    <g id="ytick_4">
     <g id="line2d_11">
      <g>
       <use style="stroke:#000000;stroke-width:0.8;" x="90" xlink:href="#me937b811aa" y="162.688742"/>
      </g>
     </g>
     <g id="text_12">
      <!-- 5 -->
      <g transform="translate(76.6375 166.487961)scale(0.1 -0.1)">
       <use xlink:href="#DejaVuSans-53"/>
      </g>
     </g>
    </g>
    <g id="ytick_5">
     <g id="line2d_12">
      <g>
       <use style="stroke:#000000;stroke-width:0.8;" x="90" xlink:href="#me937b811aa" y="100.099483"/>
      </g>
     </g>
     <g id="text_13">
      <!-- 10 -->
      <g transform="translate(70.275 103.898702)scale(0.1 -0.1)">
       <use xlink:href="#DejaVuSans-49"/>
       <use x="63.623047" xlink:href="#DejaVuSans-48"/>
      </g>
     </g>
    </g>
    <g id="text_14">
     <!-- tSNE-2 -->
     <defs>
      <path d="M 19.1875 8.296875 
L 53.609375 8.296875 
L 53.609375 0 
L 7.328125 0 
L 7.328125 8.296875 
Q 12.9375 14.109375 22.625 23.890625 
Q 32.328125 33.6875 34.8125 36.53125 
Q 39.546875 41.84375 41.421875 45.53125 
Q 43.3125 49.21875 43.3125 52.78125 
Q 43.3125 58.59375 39.234375 62.25 
Q 35.15625 65.921875 28.609375 65.921875 
Q 23.96875 65.921875 18.8125 64.3125 
Q 13.671875 62.703125 7.8125 59.421875 
L 7.8125 69.390625 
Q 13.765625 71.78125 18.9375 73 
Q 24.125 74.21875 28.421875 74.21875 
Q 39.75 74.21875 46.484375 68.546875 
Q 53.21875 62.890625 53.21875 53.421875 
Q 53.21875 48.921875 51.53125 44.890625 
Q 49.859375 40.875 45.40625 35.40625 
Q 44.1875 33.984375 37.640625 27.21875 
Q 31.109375 20.453125 19.1875 8.296875 
z
" id="DejaVuSans-50"/>
     </defs>
     <g transform="translate(55.815625 231.939531)rotate(-90)scale(0.1 -0.1)">
      <use xlink:href="#DejaVuSans-116"/>
      <use x="39.208984" xlink:href="#DejaVuSans-83"/>
      <use x="102.685547" xlink:href="#DejaVuSans-78"/>
      <use x="177.490234" xlink:href="#DejaVuSans-69"/>
      <use x="240.673828" xlink:href="#DejaVuSans-45"/>
      <use x="276.757812" xlink:href="#DejaVuSans-50"/>
     </g>
    </g>
   </g>
   <g id="patch_3">
    <path d="M 90 378 
L 90 51.84 
" style="fill:none;stroke:#000000;stroke-linecap:square;stroke-linejoin:miter;stroke-width:0.8;"/>
   </g>
   <g id="patch_4">
    <path d="M 648 378 
L 648 51.84 
" style="fill:none;stroke:#000000;stroke-linecap:square;stroke-linejoin:miter;stroke-width:0.8;"/>
   </g>
   <g id="patch_5">
    <path d="M 90 378 
L 648 378 
" style="fill:none;stroke:#000000;stroke-linecap:square;stroke-linejoin:miter;stroke-width:0.8;"/>
   </g>
   <g id="patch_6">
    <path d="M 90 51.84 
L 648 51.84 
" style="fill:none;stroke:#000000;stroke-linecap:square;stroke-linejoin:miter;stroke-width:0.8;"/>
   </g>
   <g id="legend_1">
    <g id="patch_7">
     <path d="M 563.125 89.19625 
L 641 89.19625 
Q 643 89.19625 643 87.19625 
L 643 58.84 
Q 643 56.84 641 56.84 
L 563.125 56.84 
Q 561.125 56.84 561.125 58.84 
L 561.125 87.19625 
Q 561.125 89.19625 563.125 89.19625 
z
" style="fill:#ffffff;opacity:0.8;stroke:#cccccc;stroke-linejoin:miter;"/>
    </g>
    <g id="PathCollection_3">
     <g>
      <use style="fill:#f8766d;stroke:#f8766d;" x="575.125" xlink:href="#mebc39a49a1" y="65.813437"/>
     </g>
    </g>
    <g id="text_15">
     <!-- D001327 -->
     <defs>
      <path d="M 19.671875 64.796875 
L 19.671875 8.109375 
L 31.59375 8.109375 
Q 46.6875 8.109375 53.6875 14.9375 
Q 60.6875 21.78125 60.6875 36.53125 
Q 60.6875 51.171875 53.6875 57.984375 
Q 46.6875 64.796875 31.59375 64.796875 
z
M 9.8125 72.90625 
L 30.078125 72.90625 
Q 51.265625 72.90625 61.171875 64.09375 
Q 71.09375 55.28125 71.09375 36.53125 
Q 71.09375 17.671875 61.125 8.828125 
Q 51.171875 0 30.078125 0 
L 9.8125 0 
z
" id="DejaVuSans-68"/>
      <path d="M 40.578125 39.3125 
Q 47.65625 37.796875 51.625 33 
Q 55.609375 28.21875 55.609375 21.1875 
Q 55.609375 10.40625 48.1875 4.484375 
Q 40.765625 -1.421875 27.09375 -1.421875 
Q 22.515625 -1.421875 17.65625 -0.515625 
Q 12.796875 0.390625 7.625 2.203125 
L 7.625 11.71875 
Q 11.71875 9.328125 16.59375 8.109375 
Q 21.484375 6.890625 26.8125 6.890625 
Q 36.078125 6.890625 40.9375 10.546875 
Q 45.796875 14.203125 45.796875 21.1875 
Q 45.796875 27.640625 41.28125 31.265625 
Q 36.765625 34.90625 28.71875 34.90625 
L 20.21875 34.90625 
L 20.21875 43.015625 
L 29.109375 43.015625 
Q 36.375 43.015625 40.234375 45.921875 
Q 44.09375 48.828125 44.09375 54.296875 
Q 44.09375 59.90625 40.109375 62.90625 
Q 36.140625 65.921875 28.71875 65.921875 
Q 24.65625 65.921875 20.015625 65.03125 
Q 15.375 64.15625 9.8125 62.3125 
L 9.8125 71.09375 
Q 15.4375 72.65625 20.34375 73.4375 
Q 25.25 74.21875 29.59375 74.21875 
Q 40.828125 74.21875 47.359375 69.109375 
Q 53.90625 64.015625 53.90625 55.328125 
Q 53.90625 49.265625 50.4375 45.09375 
Q 46.96875 40.921875 40.578125 39.3125 
z
" id="DejaVuSans-51"/>
      <path d="M 8.203125 72.90625 
L 55.078125 72.90625 
L 55.078125 68.703125 
L 28.609375 0 
L 18.3125 0 
L 43.21875 64.59375 
L 8.203125 64.59375 
z
" id="DejaVuSans-55"/>
     </defs>
     <g transform="translate(593.125 68.438437)scale(0.1 -0.1)">
      <use xlink:href="#DejaVuSans-68"/>
      <use x="77.001953" xlink:href="#DejaVuSans-48"/>
      <use x="140.625" xlink:href="#DejaVuSans-48"/>
      <use x="204.248047" xlink:href="#DejaVuSans-49"/>
      <use x="267.871094" xlink:href="#DejaVuSans-51"/>
      <use x="331.494141" xlink:href="#DejaVuSans-50"/>
      <use x="395.117188" xlink:href="#DejaVuSans-55"/>
     </g>
    </g>
    <g id="PathCollection_4">
     <g>
      <use style="fill:#00bfc4;stroke:#00bfc4;" x="575.125" xlink:href="#m75ae0666fb" y="80.491562"/>
     </g>
    </g>
    <g id="text_16">
     <!-- D006262 -->
     <defs>
      <path d="M 33.015625 40.375 
Q 26.375 40.375 22.484375 35.828125 
Q 18.609375 31.296875 18.609375 23.390625 
Q 18.609375 15.53125 22.484375 10.953125 
Q 26.375 6.390625 33.015625 6.390625 
Q 39.65625 6.390625 43.53125 10.953125 
Q 47.40625 15.53125 47.40625 23.390625 
Q 47.40625 31.296875 43.53125 35.828125 
Q 39.65625 40.375 33.015625 40.375 
z
M 52.59375 71.296875 
L 52.59375 62.3125 
Q 48.875 64.0625 45.09375 64.984375 
Q 41.3125 65.921875 37.59375 65.921875 
Q 27.828125 65.921875 22.671875 59.328125 
Q 17.53125 52.734375 16.796875 39.40625 
Q 19.671875 43.65625 24.015625 45.921875 
Q 28.375 48.1875 33.59375 48.1875 
Q 44.578125 48.1875 50.953125 41.515625 
Q 57.328125 34.859375 57.328125 23.390625 
Q 57.328125 12.15625 50.6875 5.359375 
Q 44.046875 -1.421875 33.015625 -1.421875 
Q 20.359375 -1.421875 13.671875 8.265625 
Q 6.984375 17.96875 6.984375 36.375 
Q 6.984375 53.65625 15.1875 63.9375 
Q 23.390625 74.21875 37.203125 74.21875 
Q 40.921875 74.21875 44.703125 73.484375 
Q 48.484375 72.75 52.59375 71.296875 
z
" id="DejaVuSans-54"/>
     </defs>
     <g transform="translate(593.125 83.116562)scale(0.1 -0.1)">
      <use xlink:href="#DejaVuSans-68"/>
      <use x="77.001953" xlink:href="#DejaVuSans-48"/>
      <use x="140.625" xlink:href="#DejaVuSans-48"/>
      <use x="204.248047" xlink:href="#DejaVuSans-54"/>
      <use x="267.871094" xlink:href="#DejaVuSans-50"/>
      <use x="331.494141" xlink:href="#DejaVuSans-54"/>
      <use x="395.117188" xlink:href="#DejaVuSans-50"/>
     </g>
    </g>
   </g>
  </g>
 </g>
 <defs>
  <clipPath id="p30d7c1d14b">
   <rect height="326.16" width="558" x="90" y="51.84"/>
  </clipPath>
 </defs>
</svg>
