<?xml version="1.0" encoding="utf-8" standalone="no"?>
<!DOCTYPE svg PUBLIC "-//W3C//DTD SVG 1.1//EN"
  "http://www.w3.org/Graphics/SVG/1.1/DTD/svg11.dtd">
<!-- Created with matplotlib (https://matplotlib.org/) -->
<svg height="576pt" version="1.1" viewBox="0 0 576 576" width="576pt" xmlns="http://www.w3.org/2000/svg" xmlns:xlink="http://www.w3.org/1999/xlink">
 <defs>
  <style type="text/css">
*{stroke-linecap:butt;stroke-linejoin:round;}
  </style>
 </defs>
 <g id="figure_1">
  <g id="patch_1">
   <path d="M 0 576 
L 576 576 
L 576 0 
L 0 0 
z
" style="fill:#ffffff;"/>
  </g>
  <g id="axes_1">
   <g id="patch_2">
    <path d="M 72 512.64 
L 518.4 512.64 
L 518.4 69.12 
L 72 69.12 
z
" style="fill:#ffffff;"/>
   </g>
   <g id="matplotlib.axis_1">
    <g id="xtick_1">
     <g id="line2d_1">
      <path clip-path="url(#p8d73af118d)" d="M 72 512.64 
L 72 69.12 
" style="fill:none;stroke:#b0b0b0;stroke-linecap:square;stroke-width:0.8;"/>
     </g>
     <g id="line2d_2">
      <defs>
       <path d="M 0 0 
L 0 3.5 
" id="m3bb6920245" style="stroke:#000000;stroke-width:0.8;"/>
      </defs>
      <g>
       <use style="stroke:#000000;stroke-width:0.8;" x="72" xlink:href="#m3bb6920245" y="512.64"/>
      </g>
     </g>
     <g id="text_1">
      <!-- 0.0 -->
      <defs>
       <path d="M 31.78125 66.40625 
Q 24.171875 66.40625 20.328125 58.90625 
Q 16.5 51.421875 16.5 36.375 
Q 16.5 21.390625 20.328125 13.890625 
Q 24.171875 6.390625 31.78125 6.390625 
Q 39.453125 6.390625 43.28125 13.890625 
Q 47.125 21.390625 47.125 36.375 
Q 47.125 51.421875 43.28125 58.90625 
Q 39.453125 66.40625 31.78125 66.40625 
z
M 31.78125 74.21875 
Q 44.046875 74.21875 50.515625 64.515625 
Q 56.984375 54.828125 56.984375 36.375 
Q 56.984375 17.96875 50.515625 8.265625 
Q 44.046875 -1.421875 31.78125 -1.421875 
Q 19.53125 -1.421875 13.0625 8.265625 
Q 6.59375 17.96875 6.59375 36.375 
Q 6.59375 54.828125 13.0625 64.515625 
Q 19.53125 74.21875 31.78125 74.21875 
z
" id="DejaVuSans-48"/>
       <path d="M 10.6875 12.40625 
L 21 12.40625 
L 21 0 
L 10.6875 0 
z
" id="DejaVuSans-46"/>
      </defs>
      <g transform="translate(64.048438 527.238438)scale(0.1 -0.1)">
       <use xlink:href="#DejaVuSans-48"/>
       <use x="63.623047" xlink:href="#DejaVuSans-46"/>
       <use x="95.410156" xlink:href="#DejaVuSans-48"/>
      </g>
     </g>
    </g>
    <g id="xtick_2">
     <g id="line2d_3">
      <path clip-path="url(#p8d73af118d)" d="M 161.28 512.64 
L 161.28 69.12 
" style="fill:none;stroke:#b0b0b0;stroke-linecap:square;stroke-width:0.8;"/>
     </g>
     <g id="line2d_4">
      <g>
       <use style="stroke:#000000;stroke-width:0.8;" x="161.28" xlink:href="#m3bb6920245" y="512.64"/>
      </g>
     </g>
     <g id="text_2">
      <!-- 0.2 -->
      <defs>
       <path d="M 19.1875 8.296875 
L 53.609375 8.296875 
L 53.609375 0 
L 7.328125 0 
L 7.328125 8.296875 
Q 12.9375 14.109375 22.625 23.890625 
Q 32.328125 33.6875 34.8125 36.53125 
Q 39.546875 41.84375 41.421875 45.53125 
Q 43.3125 49.21875 43.3125 52.78125 
Q 43.3125 58.59375 39.234375 62.25 
Q 35.15625 65.921875 28.609375 65.921875 
Q 23.96875 65.921875 18.8125 64.3125 
Q 13.671875 62.703125 7.8125 59.421875 
L 7.8125 69.390625 
Q 13.765625 71.78125 18.9375 73 
Q 24.125 74.21875 28.421875 74.21875 
Q 39.75 74.21875 46.484375 68.546875 
Q 53.21875 62.890625 53.21875 53.421875 
Q 53.21875 48.921875 51.53125 44.890625 
Q 49.859375 40.875 45.40625 35.40625 
Q 44.1875 33.984375 37.640625 27.21875 
Q 31.109375 20.453125 19.1875 8.296875 
z
" id="DejaVuSans-50"/>
      </defs>
      <g transform="translate(153.328438 527.238438)scale(0.1 -0.1)">
       <use xlink:href="#DejaVuSans-48"/>
       <use x="63.623047" xlink:href="#DejaVuSans-46"/>
       <use x="95.410156" xlink:href="#DejaVuSans-50"/>
      </g>
     </g>
    </g>
    <g id="xtick_3">
     <g id="line2d_5">
      <path clip-path="url(#p8d73af118d)" d="M 250.56 512.64 
L 250.56 69.12 
" style="fill:none;stroke:#b0b0b0;stroke-linecap:square;stroke-width:0.8;"/>
     </g>
     <g id="line2d_6">
      <g>
       <use style="stroke:#000000;stroke-width:0.8;" x="250.56" xlink:href="#m3bb6920245" y="512.64"/>
      </g>
     </g>
     <g id="text_3">
      <!-- 0.4 -->
      <defs>
       <path d="M 37.796875 64.3125 
L 12.890625 25.390625 
L 37.796875 25.390625 
z
M 35.203125 72.90625 
L 47.609375 72.90625 
L 47.609375 25.390625 
L 58.015625 25.390625 
L 58.015625 17.1875 
L 47.609375 17.1875 
L 47.609375 0 
L 37.796875 0 
L 37.796875 17.1875 
L 4.890625 17.1875 
L 4.890625 26.703125 
z
" id="DejaVuSans-52"/>
      </defs>
      <g transform="translate(242.608438 527.238438)scale(0.1 -0.1)">
       <use xlink:href="#DejaVuSans-48"/>
       <use x="63.623047" xlink:href="#DejaVuSans-46"/>
       <use x="95.410156" xlink:href="#DejaVuSans-52"/>
      </g>
     </g>
    </g>
    <g id="xtick_4">
     <g id="line2d_7">
      <path clip-path="url(#p8d73af118d)" d="M 339.84 512.64 
L 339.84 69.12 
" style="fill:none;stroke:#b0b0b0;stroke-linecap:square;stroke-width:0.8;"/>
     </g>
     <g id="line2d_8">
      <g>
       <use style="stroke:#000000;stroke-width:0.8;" x="339.84" xlink:href="#m3bb6920245" y="512.64"/>
      </g>
     </g>
     <g id="text_4">
      <!-- 0.6 -->
      <defs>
       <path d="M 33.015625 40.375 
Q 26.375 40.375 22.484375 35.828125 
Q 18.609375 31.296875 18.609375 23.390625 
Q 18.609375 15.53125 22.484375 10.953125 
Q 26.375 6.390625 33.015625 6.390625 
Q 39.65625 6.390625 43.53125 10.953125 
Q 47.40625 15.53125 47.40625 23.390625 
Q 47.40625 31.296875 43.53125 35.828125 
Q 39.65625 40.375 33.015625 40.375 
z
M 52.59375 71.296875 
L 52.59375 62.3125 
Q 48.875 64.0625 45.09375 64.984375 
Q 41.3125 65.921875 37.59375 65.921875 
Q 27.828125 65.921875 22.671875 59.328125 
Q 17.53125 52.734375 16.796875 39.40625 
Q 19.671875 43.65625 24.015625 45.921875 
Q 28.375 48.1875 33.59375 48.1875 
Q 44.578125 48.1875 50.953125 41.515625 
Q 57.328125 34.859375 57.328125 23.390625 
Q 57.328125 12.15625 50.6875 5.359375 
Q 44.046875 -1.421875 33.015625 -1.421875 
Q 20.359375 -1.421875 13.671875 8.265625 
Q 6.984375 17.96875 6.984375 36.375 
Q 6.984375 53.65625 15.1875 63.9375 
Q 23.390625 74.21875 37.203125 74.21875 
Q 40.921875 74.21875 44.703125 73.484375 
Q 48.484375 72.75 52.59375 71.296875 
z
" id="DejaVuSans-54"/>
      </defs>
      <g transform="translate(331.888438 527.238438)scale(0.1 -0.1)">
       <use xlink:href="#DejaVuSans-48"/>
       <use x="63.623047" xlink:href="#DejaVuSans-46"/>
       <use x="95.410156" xlink:href="#DejaVuSans-54"/>
      </g>
     </g>
    </g>
    <g id="xtick_5">
     <g id="line2d_9">
      <path clip-path="url(#p8d73af118d)" d="M 429.12 512.64 
L 429.12 69.12 
" style="fill:none;stroke:#b0b0b0;stroke-linecap:square;stroke-width:0.8;"/>
     </g>
     <g id="line2d_10">
      <g>
       <use style="stroke:#000000;stroke-width:0.8;" x="429.12" xlink:href="#m3bb6920245" y="512.64"/>
      </g>
     </g>
     <g id="text_5">
      <!-- 0.8 -->
      <defs>
       <path d="M 31.78125 34.625 
Q 24.75 34.625 20.71875 30.859375 
Q 16.703125 27.09375 16.703125 20.515625 
Q 16.703125 13.921875 20.71875 10.15625 
Q 24.75 6.390625 31.78125 6.390625 
Q 38.8125 6.390625 42.859375 10.171875 
Q 46.921875 13.96875 46.921875 20.515625 
Q 46.921875 27.09375 42.890625 30.859375 
Q 38.875 34.625 31.78125 34.625 
z
M 21.921875 38.8125 
Q 15.578125 40.375 12.03125 44.71875 
Q 8.5 49.078125 8.5 55.328125 
Q 8.5 64.0625 14.71875 69.140625 
Q 20.953125 74.21875 31.78125 74.21875 
Q 42.671875 74.21875 48.875 69.140625 
Q 55.078125 64.0625 55.078125 55.328125 
Q 55.078125 49.078125 51.53125 44.71875 
Q 48 40.375 41.703125 38.8125 
Q 48.828125 37.15625 52.796875 32.3125 
Q 56.78125 27.484375 56.78125 20.515625 
Q 56.78125 9.90625 50.3125 4.234375 
Q 43.84375 -1.421875 31.78125 -1.421875 
Q 19.734375 -1.421875 13.25 4.234375 
Q 6.78125 9.90625 6.78125 20.515625 
Q 6.78125 27.484375 10.78125 32.3125 
Q 14.796875 37.15625 21.921875 38.8125 
z
M 18.3125 54.390625 
Q 18.3125 48.734375 21.84375 45.5625 
Q 25.390625 42.390625 31.78125 42.390625 
Q 38.140625 42.390625 41.71875 45.5625 
Q 45.3125 48.734375 45.3125 54.390625 
Q 45.3125 60.0625 41.71875 63.234375 
Q 38.140625 66.40625 31.78125 66.40625 
Q 25.390625 66.40625 21.84375 63.234375 
Q 18.3125 60.0625 18.3125 54.390625 
z
" id="DejaVuSans-56"/>
      </defs>
      <g transform="translate(421.168437 527.238438)scale(0.1 -0.1)">
       <use xlink:href="#DejaVuSans-48"/>
       <use x="63.623047" xlink:href="#DejaVuSans-46"/>
       <use x="95.410156" xlink:href="#DejaVuSans-56"/>
      </g>
     </g>
    </g>
    <g id="xtick_6">
     <g id="line2d_11">
      <path clip-path="url(#p8d73af118d)" d="M 518.4 512.64 
L 518.4 69.12 
" style="fill:none;stroke:#b0b0b0;stroke-linecap:square;stroke-width:0.8;"/>
     </g>
     <g id="line2d_12">
      <g>
       <use style="stroke:#000000;stroke-width:0.8;" x="518.4" xlink:href="#m3bb6920245" y="512.64"/>
      </g>
     </g>
     <g id="text_6">
      <!-- 1.0 -->
      <defs>
       <path d="M 12.40625 8.296875 
L 28.515625 8.296875 
L 28.515625 63.921875 
L 10.984375 60.40625 
L 10.984375 69.390625 
L 28.421875 72.90625 
L 38.28125 72.90625 
L 38.28125 8.296875 
L 54.390625 8.296875 
L 54.390625 0 
L 12.40625 0 
z
" id="DejaVuSans-49"/>
      </defs>
      <g transform="translate(510.448437 527.238438)scale(0.1 -0.1)">
       <use xlink:href="#DejaVuSans-49"/>
       <use x="63.623047" xlink:href="#DejaVuSans-46"/>
       <use x="95.410156" xlink:href="#DejaVuSans-48"/>
      </g>
     </g>
    </g>
    <g id="text_7">
     <!-- False Positive Rate -->
     <defs>
      <path d="M 9.8125 72.90625 
L 51.703125 72.90625 
L 51.703125 64.59375 
L 19.671875 64.59375 
L 19.671875 43.109375 
L 48.578125 43.109375 
L 48.578125 34.8125 
L 19.671875 34.8125 
L 19.671875 0 
L 9.8125 0 
z
" id="DejaVuSans-70"/>
      <path d="M 34.28125 27.484375 
Q 23.390625 27.484375 19.1875 25 
Q 14.984375 22.515625 14.984375 16.5 
Q 14.984375 11.71875 18.140625 8.90625 
Q 21.296875 6.109375 26.703125 6.109375 
Q 34.1875 6.109375 38.703125 11.40625 
Q 43.21875 16.703125 43.21875 25.484375 
L 43.21875 27.484375 
z
M 52.203125 31.203125 
L 52.203125 0 
L 43.21875 0 
L 43.21875 8.296875 
Q 40.140625 3.328125 35.546875 0.953125 
Q 30.953125 -1.421875 24.3125 -1.421875 
Q 15.921875 -1.421875 10.953125 3.296875 
Q 6 8.015625 6 15.921875 
Q 6 25.140625 12.171875 29.828125 
Q 18.359375 34.515625 30.609375 34.515625 
L 43.21875 34.515625 
L 43.21875 35.40625 
Q 43.21875 41.609375 39.140625 45 
Q 35.0625 48.390625 27.6875 48.390625 
Q 23 48.390625 18.546875 47.265625 
Q 14.109375 46.140625 10.015625 43.890625 
L 10.015625 52.203125 
Q 14.9375 54.109375 19.578125 55.046875 
Q 24.21875 56 28.609375 56 
Q 40.484375 56 46.34375 49.84375 
Q 52.203125 43.703125 52.203125 31.203125 
z
" id="DejaVuSans-97"/>
      <path d="M 9.421875 75.984375 
L 18.40625 75.984375 
L 18.40625 0 
L 9.421875 0 
z
" id="DejaVuSans-108"/>
      <path d="M 44.28125 53.078125 
L 44.28125 44.578125 
Q 40.484375 46.53125 36.375 47.5 
Q 32.28125 48.484375 27.875 48.484375 
Q 21.1875 48.484375 17.84375 46.4375 
Q 14.5 44.390625 14.5 40.28125 
Q 14.5 37.15625 16.890625 35.375 
Q 19.28125 33.59375 26.515625 31.984375 
L 29.59375 31.296875 
Q 39.15625 29.25 43.1875 25.515625 
Q 47.21875 21.78125 47.21875 15.09375 
Q 47.21875 7.46875 41.1875 3.015625 
Q 35.15625 -1.421875 24.609375 -1.421875 
Q 20.21875 -1.421875 15.453125 -0.5625 
Q 10.6875 0.296875 5.421875 2 
L 5.421875 11.28125 
Q 10.40625 8.6875 15.234375 7.390625 
Q 20.0625 6.109375 24.8125 6.109375 
Q 31.15625 6.109375 34.5625 8.28125 
Q 37.984375 10.453125 37.984375 14.40625 
Q 37.984375 18.0625 35.515625 20.015625 
Q 33.0625 21.96875 24.703125 23.78125 
L 21.578125 24.515625 
Q 13.234375 26.265625 9.515625 29.90625 
Q 5.8125 33.546875 5.8125 39.890625 
Q 5.8125 47.609375 11.28125 51.796875 
Q 16.75 56 26.8125 56 
Q 31.78125 56 36.171875 55.265625 
Q 40.578125 54.546875 44.28125 53.078125 
z
" id="DejaVuSans-115"/>
      <path d="M 56.203125 29.59375 
L 56.203125 25.203125 
L 14.890625 25.203125 
Q 15.484375 15.921875 20.484375 11.0625 
Q 25.484375 6.203125 34.421875 6.203125 
Q 39.59375 6.203125 44.453125 7.46875 
Q 49.3125 8.734375 54.109375 11.28125 
L 54.109375 2.78125 
Q 49.265625 0.734375 44.1875 -0.34375 
Q 39.109375 -1.421875 33.890625 -1.421875 
Q 20.796875 -1.421875 13.15625 6.1875 
Q 5.515625 13.8125 5.515625 26.8125 
Q 5.515625 40.234375 12.765625 48.109375 
Q 20.015625 56 32.328125 56 
Q 43.359375 56 49.78125 48.890625 
Q 56.203125 41.796875 56.203125 29.59375 
z
M 47.21875 32.234375 
Q 47.125 39.59375 43.09375 43.984375 
Q 39.0625 48.390625 32.421875 48.390625 
Q 24.90625 48.390625 20.390625 44.140625 
Q 15.875 39.890625 15.1875 32.171875 
z
" id="DejaVuSans-101"/>
      <path id="DejaVuSans-32"/>
      <path d="M 19.671875 64.796875 
L 19.671875 37.40625 
L 32.078125 37.40625 
Q 38.96875 37.40625 42.71875 40.96875 
Q 46.484375 44.53125 46.484375 51.125 
Q 46.484375 57.671875 42.71875 61.234375 
Q 38.96875 64.796875 32.078125 64.796875 
z
M 9.8125 72.90625 
L 32.078125 72.90625 
Q 44.34375 72.90625 50.609375 67.359375 
Q 56.890625 61.8125 56.890625 51.125 
Q 56.890625 40.328125 50.609375 34.8125 
Q 44.34375 29.296875 32.078125 29.296875 
L 19.671875 29.296875 
L 19.671875 0 
L 9.8125 0 
z
" id="DejaVuSans-80"/>
      <path d="M 30.609375 48.390625 
Q 23.390625 48.390625 19.1875 42.75 
Q 14.984375 37.109375 14.984375 27.296875 
Q 14.984375 17.484375 19.15625 11.84375 
Q 23.34375 6.203125 30.609375 6.203125 
Q 37.796875 6.203125 41.984375 11.859375 
Q 46.1875 17.53125 46.1875 27.296875 
Q 46.1875 37.015625 41.984375 42.703125 
Q 37.796875 48.390625 30.609375 48.390625 
z
M 30.609375 56 
Q 42.328125 56 49.015625 48.375 
Q 55.71875 40.765625 55.71875 27.296875 
Q 55.71875 13.875 49.015625 6.21875 
Q 42.328125 -1.421875 30.609375 -1.421875 
Q 18.84375 -1.421875 12.171875 6.21875 
Q 5.515625 13.875 5.515625 27.296875 
Q 5.515625 40.765625 12.171875 48.375 
Q 18.84375 56 30.609375 56 
z
" id="DejaVuSans-111"/>
      <path d="M 9.421875 54.6875 
L 18.40625 54.6875 
L 18.40625 0 
L 9.421875 0 
z
M 9.421875 75.984375 
L 18.40625 75.984375 
L 18.40625 64.59375 
L 9.421875 64.59375 
z
" id="DejaVuSans-105"/>
      <path d="M 18.3125 70.21875 
L 18.3125 54.6875 
L 36.8125 54.6875 
L 36.8125 47.703125 
L 18.3125 47.703125 
L 18.3125 18.015625 
Q 18.3125 11.328125 20.140625 9.421875 
Q 21.96875 7.515625 27.59375 7.515625 
L 36.8125 7.515625 
L 36.8125 0 
L 27.59375 0 
Q 17.1875 0 13.234375 3.875 
Q 9.28125 7.765625 9.28125 18.015625 
L 9.28125 47.703125 
L 2.6875 47.703125 
L 2.6875 54.6875 
L 9.28125 54.6875 
L 9.28125 70.21875 
z
" id="DejaVuSans-116"/>
      <path d="M 2.984375 54.6875 
L 12.5 54.6875 
L 29.59375 8.796875 
L 46.6875 54.6875 
L 56.203125 54.6875 
L 35.6875 0 
L 23.484375 0 
z
" id="DejaVuSans-118"/>
      <path d="M 44.390625 34.1875 
Q 47.5625 33.109375 50.5625 29.59375 
Q 53.5625 26.078125 56.59375 19.921875 
L 66.609375 0 
L 56 0 
L 46.6875 18.703125 
Q 43.0625 26.03125 39.671875 28.421875 
Q 36.28125 30.8125 30.421875 30.8125 
L 19.671875 30.8125 
L 19.671875 0 
L 9.8125 0 
L 9.8125 72.90625 
L 32.078125 72.90625 
Q 44.578125 72.90625 50.734375 67.671875 
Q 56.890625 62.453125 56.890625 51.90625 
Q 56.890625 45.015625 53.6875 40.46875 
Q 50.484375 35.9375 44.390625 34.1875 
z
M 19.671875 64.796875 
L 19.671875 38.921875 
L 32.078125 38.921875 
Q 39.203125 38.921875 42.84375 42.21875 
Q 46.484375 45.515625 46.484375 51.90625 
Q 46.484375 58.296875 42.84375 61.546875 
Q 39.203125 64.796875 32.078125 64.796875 
z
" id="DejaVuSans-82"/>
     </defs>
     <g transform="translate(247.994531 540.916563)scale(0.1 -0.1)">
      <use xlink:href="#DejaVuSans-70"/>
      <use x="57.378906" xlink:href="#DejaVuSans-97"/>
      <use x="118.658203" xlink:href="#DejaVuSans-108"/>
      <use x="146.441406" xlink:href="#DejaVuSans-115"/>
      <use x="198.541016" xlink:href="#DejaVuSans-101"/>
      <use x="260.064453" xlink:href="#DejaVuSans-32"/>
      <use x="291.851562" xlink:href="#DejaVuSans-80"/>
      <use x="352.107422" xlink:href="#DejaVuSans-111"/>
      <use x="413.289062" xlink:href="#DejaVuSans-115"/>
      <use x="465.388672" xlink:href="#DejaVuSans-105"/>
      <use x="493.171875" xlink:href="#DejaVuSans-116"/>
      <use x="532.380859" xlink:href="#DejaVuSans-105"/>
      <use x="560.164062" xlink:href="#DejaVuSans-118"/>
      <use x="619.34375" xlink:href="#DejaVuSans-101"/>
      <use x="680.867188" xlink:href="#DejaVuSans-32"/>
      <use x="712.654297" xlink:href="#DejaVuSans-82"/>
      <use x="782.105469" xlink:href="#DejaVuSans-97"/>
      <use x="843.384766" xlink:href="#DejaVuSans-116"/>
      <use x="882.59375" xlink:href="#DejaVuSans-101"/>
     </g>
    </g>
   </g>
   <g id="matplotlib.axis_2">
    <g id="ytick_1">
     <g id="line2d_13">
      <path clip-path="url(#p8d73af118d)" d="M 72 512.64 
L 518.4 512.64 
" style="fill:none;stroke:#b0b0b0;stroke-linecap:square;stroke-width:0.8;"/>
     </g>
     <g id="line2d_14">
      <defs>
       <path d="M 0 0 
L -3.5 0 
" id="mcc0c9d3ceb" style="stroke:#000000;stroke-width:0.8;"/>
      </defs>
      <g>
       <use style="stroke:#000000;stroke-width:0.8;" x="72" xlink:href="#mcc0c9d3ceb" y="512.64"/>
      </g>
     </g>
     <g id="text_8">
      <!-- 0.0 -->
      <g transform="translate(49.096875 516.439219)scale(0.1 -0.1)">
       <use xlink:href="#DejaVuSans-48"/>
       <use x="63.623047" xlink:href="#DejaVuSans-46"/>
       <use x="95.410156" xlink:href="#DejaVuSans-48"/>
      </g>
     </g>
    </g>
    <g id="ytick_2">
     <g id="line2d_15">
      <path clip-path="url(#p8d73af118d)" d="M 72 428.16 
L 518.4 428.16 
" style="fill:none;stroke:#b0b0b0;stroke-linecap:square;stroke-width:0.8;"/>
     </g>
     <g id="line2d_16">
      <g>
       <use style="stroke:#000000;stroke-width:0.8;" x="72" xlink:href="#mcc0c9d3ceb" y="428.16"/>
      </g>
     </g>
     <g id="text_9">
      <!-- 0.2 -->
      <g transform="translate(49.096875 431.959219)scale(0.1 -0.1)">
       <use xlink:href="#DejaVuSans-48"/>
       <use x="63.623047" xlink:href="#DejaVuSans-46"/>
       <use x="95.410156" xlink:href="#DejaVuSans-50"/>
      </g>
     </g>
    </g>
    <g id="ytick_3">
     <g id="line2d_17">
      <path clip-path="url(#p8d73af118d)" d="M 72 343.68 
L 518.4 343.68 
" style="fill:none;stroke:#b0b0b0;stroke-linecap:square;stroke-width:0.8;"/>
     </g>
     <g id="line2d_18">
      <g>
       <use style="stroke:#000000;stroke-width:0.8;" x="72" xlink:href="#mcc0c9d3ceb" y="343.68"/>
      </g>
     </g>
     <g id="text_10">
      <!-- 0.4 -->
      <g transform="translate(49.096875 347.479219)scale(0.1 -0.1)">
       <use xlink:href="#DejaVuSans-48"/>
       <use x="63.623047" xlink:href="#DejaVuSans-46"/>
       <use x="95.410156" xlink:href="#DejaVuSans-52"/>
      </g>
     </g>
    </g>
    <g id="ytick_4">
     <g id="line2d_19">
      <path clip-path="url(#p8d73af118d)" d="M 72 259.2 
L 518.4 259.2 
" style="fill:none;stroke:#b0b0b0;stroke-linecap:square;stroke-width:0.8;"/>
     </g>
     <g id="line2d_20">
      <g>
       <use style="stroke:#000000;stroke-width:0.8;" x="72" xlink:href="#mcc0c9d3ceb" y="259.2"/>
      </g>
     </g>
     <g id="text_11">
      <!-- 0.6 -->
      <g transform="translate(49.096875 262.999219)scale(0.1 -0.1)">
       <use xlink:href="#DejaVuSans-48"/>
       <use x="63.623047" xlink:href="#DejaVuSans-46"/>
       <use x="95.410156" xlink:href="#DejaVuSans-54"/>
      </g>
     </g>
    </g>
    <g id="ytick_5">
     <g id="line2d_21">
      <path clip-path="url(#p8d73af118d)" d="M 72 174.72 
L 518.4 174.72 
" style="fill:none;stroke:#b0b0b0;stroke-linecap:square;stroke-width:0.8;"/>
     </g>
     <g id="line2d_22">
      <g>
       <use style="stroke:#000000;stroke-width:0.8;" x="72" xlink:href="#mcc0c9d3ceb" y="174.72"/>
      </g>
     </g>
     <g id="text_12">
      <!-- 0.8 -->
      <g transform="translate(49.096875 178.519219)scale(0.1 -0.1)">
       <use xlink:href="#DejaVuSans-48"/>
       <use x="63.623047" xlink:href="#DejaVuSans-46"/>
       <use x="95.410156" xlink:href="#DejaVuSans-56"/>
      </g>
     </g>
    </g>
    <g id="ytick_6">
     <g id="line2d_23">
      <path clip-path="url(#p8d73af118d)" d="M 72 90.24 
L 518.4 90.24 
" style="fill:none;stroke:#b0b0b0;stroke-linecap:square;stroke-width:0.8;"/>
     </g>
     <g id="line2d_24">
      <g>
       <use style="stroke:#000000;stroke-width:0.8;" x="72" xlink:href="#mcc0c9d3ceb" y="90.24"/>
      </g>
     </g>
     <g id="text_13">
      <!-- 1.0 -->
      <g transform="translate(49.096875 94.039219)scale(0.1 -0.1)">
       <use xlink:href="#DejaVuSans-49"/>
       <use x="63.623047" xlink:href="#DejaVuSans-46"/>
       <use x="95.410156" xlink:href="#DejaVuSans-48"/>
      </g>
     </g>
    </g>
    <g id="text_14">
     <!-- True Positive Rate -->
     <defs>
      <path d="M -0.296875 72.90625 
L 61.375 72.90625 
L 61.375 64.59375 
L 35.5 64.59375 
L 35.5 0 
L 25.59375 0 
L 25.59375 64.59375 
L -0.296875 64.59375 
z
" id="DejaVuSans-84"/>
      <path d="M 41.109375 46.296875 
Q 39.59375 47.171875 37.8125 47.578125 
Q 36.03125 48 33.890625 48 
Q 26.265625 48 22.1875 43.046875 
Q 18.109375 38.09375 18.109375 28.8125 
L 18.109375 0 
L 9.078125 0 
L 9.078125 54.6875 
L 18.109375 54.6875 
L 18.109375 46.1875 
Q 20.953125 51.171875 25.484375 53.578125 
Q 30.03125 56 36.53125 56 
Q 37.453125 56 38.578125 55.875 
Q 39.703125 55.765625 41.0625 55.515625 
z
" id="DejaVuSans-114"/>
      <path d="M 8.5 21.578125 
L 8.5 54.6875 
L 17.484375 54.6875 
L 17.484375 21.921875 
Q 17.484375 14.15625 20.5 10.265625 
Q 23.53125 6.390625 29.59375 6.390625 
Q 36.859375 6.390625 41.078125 11.03125 
Q 45.3125 15.671875 45.3125 23.6875 
L 45.3125 54.6875 
L 54.296875 54.6875 
L 54.296875 0 
L 45.3125 0 
L 45.3125 8.40625 
Q 42.046875 3.421875 37.71875 1 
Q 33.40625 -1.421875 27.6875 -1.421875 
Q 18.265625 -1.421875 13.375 4.4375 
Q 8.5 10.296875 8.5 21.578125 
z
M 31.109375 56 
z
" id="DejaVuSans-117"/>
     </defs>
     <g transform="translate(43.017187 336.426094)rotate(-90)scale(0.1 -0.1)">
      <use xlink:href="#DejaVuSans-84"/>
      <use x="60.865234" xlink:href="#DejaVuSans-114"/>
      <use x="101.978516" xlink:href="#DejaVuSans-117"/>
      <use x="165.357422" xlink:href="#DejaVuSans-101"/>
      <use x="226.880859" xlink:href="#DejaVuSans-32"/>
      <use x="258.667969" xlink:href="#DejaVuSans-80"/>
      <use x="318.923828" xlink:href="#DejaVuSans-111"/>
      <use x="380.105469" xlink:href="#DejaVuSans-115"/>
      <use x="432.205078" xlink:href="#DejaVuSans-105"/>
      <use x="459.988281" xlink:href="#DejaVuSans-116"/>
      <use x="499.197266" xlink:href="#DejaVuSans-105"/>
      <use x="526.980469" xlink:href="#DejaVuSans-118"/>
      <use x="586.160156" xlink:href="#DejaVuSans-101"/>
      <use x="647.683594" xlink:href="#DejaVuSans-32"/>
      <use x="679.470703" xlink:href="#DejaVuSans-82"/>
      <use x="748.921875" xlink:href="#DejaVuSans-97"/>
      <use x="810.201172" xlink:href="#DejaVuSans-116"/>
      <use x="849.410156" xlink:href="#DejaVuSans-101"/>
     </g>
    </g>
   </g>
   <g id="line2d_25">
    <path clip-path="url(#p8d73af118d)" d="M 72 512.64 
L 72 490.978462 
L 72.381538 490.978462 
L 72.381538 481.230769 
L 72.763077 481.230769 
L 72.763077 476.537436 
L 73.144615 476.537436 
L 73.144615 472.205128 
L 73.526154 472.205128 
L 73.526154 468.594872 
L 73.907692 468.594872 
L 73.907692 459.208205 
L 74.289231 459.208205 
L 74.289231 454.514872 
L 74.670769 454.514872 
L 74.670769 451.265641 
L 75.052308 451.265641 
L 75.052308 449.821538 
L 75.433846 449.821538 
L 75.433846 446.211282 
L 75.815385 446.211282 
L 75.815385 442.24 
L 76.196923 442.24 
L 76.196923 429.965128 
L 77.341538 429.965128 
L 77.341538 422.744615 
L 77.723077 422.744615 
L 77.723077 419.495385 
L 78.104615 419.495385 
L 78.104615 415.163077 
L 78.486154 415.163077 
L 78.486154 411.913846 
L 78.867692 411.913846 
L 78.867692 405.054359 
L 79.249231 405.054359 
L 79.249231 401.805128 
L 79.630769 401.805128 
L 79.630769 400 
L 80.012308 400 
L 80.012308 398.555897 
L 80.393846 398.555897 
L 80.393846 398.194872 
L 80.775385 398.194872 
L 80.775385 396.028718 
L 81.156923 396.028718 
L 81.156923 394.584615 
L 81.538462 394.584615 
L 81.538462 393.862564 
L 81.92 393.862564 
L 81.92 372.562051 
L 82.301538 372.562051 
L 82.301538 368.590769 
L 83.064615 368.590769 
L 83.064615 367.868718 
L 83.446154 367.868718 
L 83.446154 358.482051 
L 83.827692 358.482051 
L 83.827692 357.76 
L 84.209231 357.76 
L 84.209231 357.398974 
L 84.590769 357.398974 
L 84.590769 356.676923 
L 84.972308 356.676923 
L 84.972308 356.315897 
L 85.353846 356.315897 
L 85.353846 355.232821 
L 85.735385 355.232821 
L 85.735385 353.788718 
L 86.116923 353.788718 
L 86.116923 341.152821 
L 86.498462 341.152821 
L 86.498462 340.430769 
L 86.88 340.430769 
L 86.88 328.877949 
L 87.261538 328.877949 
L 87.261538 328.516923 
L 87.643077 328.516923 
L 87.643077 325.989744 
L 88.406154 325.989744 
L 88.406154 324.545641 
L 88.787692 324.545641 
L 88.787692 323.82359 
L 89.169231 323.82359 
L 89.169231 322.740513 
L 89.550769 322.740513 
L 89.550769 322.379487 
L 90.695385 322.379487 
L 90.695385 321.657436 
L 91.458462 321.657436 
L 91.458462 318.408205 
L 91.84 318.408205 
L 91.84 317.325128 
L 92.221538 317.325128 
L 92.221538 316.964103 
L 92.603077 316.964103 
L 92.603077 312.270769 
L 92.984615 312.270769 
L 92.984615 311.909744 
L 94.129231 311.909744 
L 94.129231 309.021538 
L 94.510769 309.021538 
L 94.510769 307.938462 
L 94.892308 307.938462 
L 94.892308 306.855385 
L 96.036923 306.855385 
L 96.036923 304.689231 
L 96.8 304.689231 
L 96.8 303.967179 
L 97.181538 303.967179 
L 97.181538 301.44 
L 97.563077 301.44 
L 97.563077 301.078974 
L 98.326154 301.078974 
L 98.326154 300.717949 
L 98.707692 300.717949 
L 98.707692 299.995897 
L 99.852308 299.995897 
L 99.852308 298.551795 
L 100.233846 298.551795 
L 100.233846 297.107692 
L 100.615385 297.107692 
L 100.615385 296.385641 
L 100.996923 296.385641 
L 100.996923 294.941538 
L 101.76 294.941538 
L 101.76 294.580513 
L 102.141538 294.580513 
L 102.141538 294.219487 
L 102.523077 294.219487 
L 102.523077 292.053333 
L 103.667692 292.053333 
L 103.667692 291.331282 
L 104.049231 291.331282 
L 104.049231 289.526154 
L 104.430769 289.526154 
L 104.430769 286.998974 
L 104.812308 286.998974 
L 104.812308 286.637949 
L 105.193846 286.637949 
L 105.193846 285.554872 
L 106.338462 285.554872 
L 106.338462 284.471795 
L 106.72 284.471795 
L 106.72 283.388718 
L 107.101538 283.388718 
L 107.101538 282.666667 
L 107.864615 282.666667 
L 107.864615 281.58359 
L 108.246154 281.58359 
L 108.246154 279.417436 
L 109.009231 279.417436 
L 109.009231 279.05641 
L 110.153846 279.05641 
L 110.153846 276.168205 
L 110.535385 276.168205 
L 110.535385 271.835897 
L 111.298462 271.835897 
L 111.298462 271.474872 
L 112.443077 271.474872 
L 112.443077 270.391795 
L 112.824615 270.391795 
L 112.824615 268.947692 
L 113.206154 268.947692 
L 113.206154 267.50359 
L 113.969231 267.50359 
L 113.969231 266.781538 
L 114.350769 266.781538 
L 114.350769 263.893333 
L 116.64 263.893333 
L 116.64 262.449231 
L 117.403077 262.449231 
L 117.403077 262.088205 
L 117.784615 262.088205 
L 117.784615 261.366154 
L 118.547692 261.366154 
L 118.547692 261.005128 
L 119.692308 261.005128 
L 119.692308 260.644103 
L 120.073846 260.644103 
L 120.073846 260.283077 
L 120.455385 260.283077 
L 120.455385 259.561026 
L 120.836923 259.561026 
L 120.836923 257.033846 
L 121.218462 257.033846 
L 121.218462 256.311795 
L 121.6 256.311795 
L 121.6 255.589744 
L 121.981538 255.589744 
L 121.981538 253.062564 
L 123.889231 253.062564 
L 123.889231 249.813333 
L 124.270769 249.813333 
L 124.270769 248.369231 
L 124.652308 248.369231 
L 124.652308 248.008205 
L 125.033846 248.008205 
L 125.033846 247.286154 
L 125.415385 247.286154 
L 125.415385 246.925128 
L 126.178462 246.925128 
L 126.178462 246.564103 
L 126.56 246.564103 
L 126.56 245.842051 
L 127.323077 245.842051 
L 127.323077 245.481026 
L 127.704615 245.481026 
L 127.704615 244.758974 
L 128.467692 244.758974 
L 128.467692 244.036923 
L 128.849231 244.036923 
L 128.849231 243.675897 
L 129.230769 243.675897 
L 129.230769 243.314872 
L 129.612308 243.314872 
L 129.612308 242.953846 
L 130.375385 242.953846 
L 130.375385 242.231795 
L 131.138462 242.231795 
L 131.138462 241.148718 
L 131.52 241.148718 
L 131.52 240.787692 
L 131.901538 240.787692 
L 131.901538 240.065641 
L 132.283077 240.065641 
L 132.283077 239.704615 
L 132.664615 239.704615 
L 132.664615 238.982564 
L 133.046154 238.982564 
L 133.046154 237.899487 
L 133.427692 237.899487 
L 133.427692 236.81641 
L 134.953846 236.81641 
L 134.953846 235.733333 
L 135.335385 235.733333 
L 135.335385 235.372308 
L 135.716923 235.372308 
L 135.716923 233.567179 
L 136.098462 233.567179 
L 136.098462 233.206154 
L 136.48 233.206154 
L 136.48 231.401026 
L 137.624615 231.401026 
L 137.624615 231.04 
L 138.006154 231.04 
L 138.006154 228.512821 
L 138.387692 228.512821 
L 138.387692 227.429744 
L 138.769231 227.429744 
L 138.769231 225.985641 
L 139.532308 225.985641 
L 139.532308 225.624615 
L 140.676923 225.624615 
L 140.676923 224.180513 
L 141.44 224.180513 
L 141.44 222.014359 
L 141.821538 222.014359 
L 141.821538 221.292308 
L 142.584615 221.292308 
L 142.584615 219.848205 
L 144.492308 219.848205 
L 144.492308 219.126154 
L 144.873846 219.126154 
L 144.873846 218.765128 
L 145.255385 218.765128 
L 145.255385 218.043077 
L 145.636923 218.043077 
L 145.636923 216.96 
L 147.163077 216.96 
L 147.163077 216.598974 
L 147.544615 216.598974 
L 147.544615 216.237949 
L 148.307692 216.237949 
L 148.307692 215.515897 
L 148.689231 215.515897 
L 148.689231 212.627692 
L 149.070769 212.627692 
L 149.070769 212.266667 
L 149.452308 212.266667 
L 149.452308 210.100513 
L 149.833846 210.100513 
L 149.833846 209.378462 
L 150.215385 209.378462 
L 150.215385 208.295385 
L 150.596923 208.295385 
L 150.596923 207.573333 
L 151.36 207.573333 
L 151.36 206.851282 
L 151.741538 206.851282 
L 151.741538 206.490256 
L 152.123077 206.490256 
L 152.123077 206.129231 
L 152.504615 206.129231 
L 152.504615 205.407179 
L 153.267692 205.407179 
L 153.267692 205.046154 
L 153.649231 205.046154 
L 153.649231 203.963077 
L 154.030769 203.963077 
L 154.030769 203.602051 
L 154.412308 203.602051 
L 154.412308 203.241026 
L 154.793846 203.241026 
L 154.793846 202.518974 
L 155.175385 202.518974 
L 155.175385 201.796923 
L 155.938462 201.796923 
L 155.938462 201.435897 
L 156.701538 201.435897 
L 156.701538 200.713846 
L 157.083077 200.713846 
L 157.083077 200.352821 
L 158.227692 200.352821 
L 158.227692 199.991795 
L 158.609231 199.991795 
L 158.609231 199.269744 
L 158.990769 199.269744 
L 158.990769 198.908718 
L 159.753846 198.908718 
L 159.753846 198.547692 
L 160.135385 198.547692 
L 160.135385 197.825641 
L 163.187692 197.825641 
L 163.187692 197.464615 
L 165.095385 197.464615 
L 165.095385 196.381538 
L 165.476923 196.381538 
L 165.476923 195.298462 
L 165.858462 195.298462 
L 165.858462 193.854359 
L 167.384615 193.854359 
L 167.384615 192.049231 
L 168.147692 192.049231 
L 168.147692 191.688205 
L 168.529231 191.688205 
L 168.529231 191.327179 
L 169.292308 191.327179 
L 169.292308 189.522051 
L 171.581538 189.522051 
L 171.581538 189.161026 
L 172.344615 189.161026 
L 172.344615 188.438974 
L 172.726154 188.438974 
L 172.726154 187.716923 
L 173.107692 187.716923 
L 173.107692 186.633846 
L 173.489231 186.633846 
L 173.489231 186.272821 
L 175.778462 186.272821 
L 175.778462 185.911795 
L 176.16 185.911795 
L 176.16 185.550769 
L 177.304615 185.550769 
L 177.304615 184.467692 
L 178.067692 184.467692 
L 178.067692 184.106667 
L 178.449231 184.106667 
L 178.449231 183.384615 
L 179.593846 183.384615 
L 179.593846 182.662564 
L 179.975385 182.662564 
L 179.975385 181.940513 
L 180.738462 181.940513 
L 180.738462 181.579487 
L 182.264615 181.579487 
L 182.264615 179.774359 
L 183.027692 179.774359 
L 183.027692 179.052308 
L 184.172308 179.052308 
L 184.172308 177.969231 
L 184.935385 177.969231 
L 184.935385 176.164103 
L 185.698462 176.164103 
L 185.698462 175.803077 
L 186.08 175.803077 
L 186.08 175.442051 
L 186.843077 175.442051 
L 186.843077 175.081026 
L 188.369231 175.081026 
L 188.369231 174.72 
L 188.750769 174.72 
L 188.750769 173.997949 
L 189.513846 173.997949 
L 189.513846 173.636923 
L 189.895385 173.636923 
L 189.895385 173.275897 
L 190.276923 173.275897 
L 190.276923 172.553846 
L 191.04 172.553846 
L 191.04 171.831795 
L 192.184615 171.831795 
L 192.184615 171.109744 
L 193.329231 171.109744 
L 193.329231 170.748718 
L 194.855385 170.748718 
L 194.855385 170.387692 
L 196 170.387692 
L 196 170.026667 
L 196.381538 170.026667 
L 196.381538 168.582564 
L 196.763077 168.582564 
L 196.763077 168.221538 
L 197.526154 168.221538 
L 197.526154 167.499487 
L 197.907692 167.499487 
L 197.907692 166.41641 
L 198.289231 166.41641 
L 198.289231 166.055385 
L 198.670769 166.055385 
L 198.670769 165.694359 
L 199.052308 165.694359 
L 199.052308 164.611282 
L 199.433846 164.611282 
L 199.433846 163.889231 
L 200.196923 163.889231 
L 200.196923 162.806154 
L 202.104615 162.806154 
L 202.104615 162.084103 
L 203.630769 162.084103 
L 203.630769 161.723077 
L 204.012308 161.723077 
L 204.012308 161.001026 
L 205.156923 161.001026 
L 205.156923 160.64 
L 205.92 160.64 
L 205.92 159.556923 
L 206.683077 159.556923 
L 206.683077 159.195897 
L 207.446154 159.195897 
L 207.446154 158.834872 
L 208.209231 158.834872 
L 208.209231 157.751795 
L 208.590769 157.751795 
L 208.590769 157.390769 
L 208.972308 157.390769 
L 208.972308 156.668718 
L 209.353846 156.668718 
L 209.353846 155.585641 
L 209.735385 155.585641 
L 209.735385 154.86359 
L 210.88 154.86359 
L 210.88 154.502564 
L 212.406154 154.502564 
L 212.406154 153.419487 
L 213.550769 153.419487 
L 213.550769 153.058462 
L 213.932308 153.058462 
L 213.932308 152.33641 
L 214.695385 152.33641 
L 214.695385 151.614359 
L 215.076923 151.614359 
L 215.076923 150.892308 
L 215.458462 150.892308 
L 215.458462 150.531282 
L 216.221538 150.531282 
L 216.221538 150.170256 
L 216.603077 150.170256 
L 216.603077 149.809231 
L 218.510769 149.809231 
L 218.510769 149.448205 
L 219.273846 149.448205 
L 219.273846 149.087179 
L 220.418462 149.087179 
L 220.418462 148.365128 
L 221.181538 148.365128 
L 221.181538 147.643077 
L 222.707692 147.643077 
L 222.707692 146.921026 
L 223.089231 146.921026 
L 223.089231 146.56 
L 223.852308 146.56 
L 223.852308 145.115897 
L 225.76 145.115897 
L 225.76 144.754872 
L 230.72 144.754872 
L 230.72 144.393846 
L 231.101538 144.393846 
L 231.101538 143.671795 
L 231.483077 143.671795 
L 231.483077 141.505641 
L 233.009231 141.505641 
L 233.009231 141.144615 
L 233.390769 141.144615 
L 233.390769 140.78359 
L 235.298462 140.78359 
L 235.298462 140.422564 
L 236.443077 140.422564 
L 236.443077 140.061538 
L 237.206154 140.061538 
L 237.206154 139.700513 
L 237.969231 139.700513 
L 237.969231 139.339487 
L 238.732308 139.339487 
L 238.732308 138.978462 
L 240.258462 138.978462 
L 240.258462 137.895385 
L 241.021538 137.895385 
L 241.021538 137.534359 
L 241.403077 137.534359 
L 241.403077 136.451282 
L 243.310769 136.451282 
L 243.310769 135.729231 
L 244.073846 135.729231 
L 244.073846 135.007179 
L 244.836923 135.007179 
L 244.836923 134.285128 
L 245.6 134.285128 
L 245.6 133.924103 
L 246.363077 133.924103 
L 246.363077 132.841026 
L 246.744615 132.841026 
L 246.744615 132.48 
L 247.889231 132.48 
L 247.889231 131.757949 
L 249.796923 131.757949 
L 249.796923 131.396923 
L 250.178462 131.396923 
L 250.178462 130.674872 
L 250.56 130.674872 
L 250.56 129.591795 
L 251.323077 129.591795 
L 251.323077 129.230769 
L 251.704615 129.230769 
L 251.704615 128.508718 
L 252.086154 128.508718 
L 252.086154 127.786667 
L 252.849231 127.786667 
L 252.849231 127.425641 
L 254.375385 127.425641 
L 254.375385 127.064615 
L 255.52 127.064615 
L 255.52 126.70359 
L 257.046154 126.70359 
L 257.046154 125.620513 
L 257.809231 125.620513 
L 257.809231 125.259487 
L 258.190769 125.259487 
L 258.190769 124.898462 
L 259.716923 124.898462 
L 259.716923 123.815385 
L 262.387692 123.815385 
L 262.387692 123.093333 
L 262.769231 123.093333 
L 262.769231 122.732308 
L 263.532308 122.732308 
L 263.532308 122.371282 
L 263.913846 122.371282 
L 263.913846 120.927179 
L 264.676923 120.927179 
L 264.676923 120.566154 
L 265.058462 120.566154 
L 265.058462 120.205128 
L 266.203077 120.205128 
L 266.203077 119.483077 
L 266.584615 119.483077 
L 266.584615 119.122051 
L 269.255385 119.122051 
L 269.255385 117.677949 
L 270.018462 117.677949 
L 270.018462 117.316923 
L 270.781538 117.316923 
L 270.781538 116.955897 
L 271.163077 116.955897 
L 271.163077 116.594872 
L 271.544615 116.594872 
L 271.544615 116.233846 
L 272.307692 116.233846 
L 272.307692 115.872821 
L 273.070769 115.872821 
L 273.070769 115.511795 
L 274.978462 115.511795 
L 274.978462 114.067692 
L 275.36 114.067692 
L 275.36 113.345641 
L 276.123077 113.345641 
L 276.123077 112.62359 
L 281.846154 112.62359 
L 281.846154 112.262564 
L 282.227692 112.262564 
L 282.227692 111.540513 
L 284.135385 111.540513 
L 284.135385 111.179487 
L 285.28 111.179487 
L 285.28 110.818462 
L 285.661538 110.818462 
L 285.661538 110.457436 
L 286.043077 110.457436 
L 286.043077 110.09641 
L 290.24 110.09641 
L 290.24 109.374359 
L 292.529231 109.374359 
L 292.529231 109.013333 
L 295.581538 109.013333 
L 295.581538 108.652308 
L 297.107692 108.652308 
L 297.107692 108.291282 
L 297.489231 108.291282 
L 297.489231 107.569231 
L 298.633846 107.569231 
L 298.633846 106.847179 
L 299.015385 106.847179 
L 299.015385 106.125128 
L 300.16 106.125128 
L 300.16 105.403077 
L 303.593846 105.403077 
L 303.593846 105.042051 
L 304.356923 105.042051 
L 304.356923 104.681026 
L 305.501538 104.681026 
L 305.501538 104.32 
L 306.264615 104.32 
L 306.264615 103.958974 
L 306.646154 103.958974 
L 306.646154 103.597949 
L 307.027692 103.597949 
L 307.027692 103.236923 
L 311.606154 103.236923 
L 311.606154 102.875897 
L 316.184615 102.875897 
L 316.184615 102.514872 
L 316.947692 102.514872 
L 316.947692 102.153846 
L 317.329231 102.153846 
L 317.329231 101.431795 
L 318.092308 101.431795 
L 318.092308 100.348718 
L 318.855385 100.348718 
L 318.855385 99.987692 
L 319.236923 99.987692 
L 319.236923 99.265641 
L 319.618462 99.265641 
L 319.618462 98.54359 
L 320.763077 98.54359 
L 320.763077 98.182564 
L 323.815385 98.182564 
L 323.815385 97.821538 
L 330.301538 97.821538 
L 330.301538 97.099487 
L 331.827692 97.099487 
L 331.827692 96.738462 
L 332.209231 96.738462 
L 332.209231 96.377436 
L 332.590769 96.377436 
L 332.590769 96.01641 
L 344.8 96.01641 
L 344.8 95.294359 
L 350.141538 95.294359 
L 350.141538 94.933333 
L 365.021538 94.933333 
L 365.021538 94.572308 
L 389.44 94.572308 
L 389.44 94.211282 
L 397.070769 94.211282 
L 397.070769 93.489231 
L 408.516923 93.489231 
L 408.516923 93.128205 
L 413.476923 93.128205 
L 413.476923 92.767179 
L 427.975385 92.767179 
L 427.975385 92.406154 
L 487.113846 92.406154 
L 487.113846 92.045128 
L 511.532308 92.045128 
L 511.532308 91.684103 
L 514.203077 91.684103 
L 514.203077 91.323077 
L 517.636923 91.323077 
L 517.636923 90.962051 
L 518.4 90.962051 
L 518.4 90.24 
L 518.4 90.24 
" style="fill:none;stroke:#ff8c00;stroke-linecap:square;stroke-width:2;"/>
   </g>
   <g id="line2d_26">
    <path clip-path="url(#p8d73af118d)" d="M 72 512.64 
L 518.4 90.24 
" style="fill:none;stroke:#000080;stroke-dasharray:7.4,3.2;stroke-dashoffset:0;stroke-width:2;"/>
   </g>
   <g id="patch_3">
    <path d="M 72 512.64 
L 72 69.12 
" style="fill:none;stroke:#000000;stroke-linecap:square;stroke-linejoin:miter;stroke-width:0.8;"/>
   </g>
   <g id="patch_4">
    <path d="M 518.4 512.64 
L 518.4 69.12 
" style="fill:none;stroke:#000000;stroke-linecap:square;stroke-linejoin:miter;stroke-width:0.8;"/>
   </g>
   <g id="patch_5">
    <path d="M 72 512.64 
L 518.4 512.64 
" style="fill:none;stroke:#000000;stroke-linecap:square;stroke-linejoin:miter;stroke-width:0.8;"/>
   </g>
   <g id="patch_6">
    <path d="M 72 69.12 
L 518.4 69.12 
" style="fill:none;stroke:#000000;stroke-linecap:square;stroke-linejoin:miter;stroke-width:0.8;"/>
   </g>
   <g id="legend_1">
    <g id="patch_7">
     <path d="M 427.081875 509.64 
L 514.2 509.64 
Q 515.4 509.64 515.4 508.44 
L 515.4 500.233125 
Q 515.4 499.033125 514.2 499.033125 
L 427.081875 499.033125 
Q 425.881875 499.033125 425.881875 500.233125 
L 425.881875 508.44 
Q 425.881875 509.64 427.081875 509.64 
z
" style="fill:#ffffff;opacity:0.8;stroke:#cccccc;stroke-linejoin:miter;"/>
    </g>
    <g id="line2d_27">
     <path d="M 428.281875 503.892187 
L 440.281875 503.892187 
" style="fill:none;stroke:#ff8c00;stroke-linecap:square;stroke-width:2;"/>
    </g>
    <g id="line2d_28"/>
    <g id="text_15">
     <!-- D006262 (area =0.86) -->
     <defs>
      <path d="M 19.671875 64.796875 
L 19.671875 8.109375 
L 31.59375 8.109375 
Q 46.6875 8.109375 53.6875 14.9375 
Q 60.6875 21.78125 60.6875 36.53125 
Q 60.6875 51.171875 53.6875 57.984375 
Q 46.6875 64.796875 31.59375 64.796875 
z
M 9.8125 72.90625 
L 30.078125 72.90625 
Q 51.265625 72.90625 61.171875 64.09375 
Q 71.09375 55.28125 71.09375 36.53125 
Q 71.09375 17.671875 61.125 8.828125 
Q 51.171875 0 30.078125 0 
L 9.8125 0 
z
" id="DejaVuSans-68"/>
      <path d="M 31 75.875 
Q 24.46875 64.65625 21.28125 53.65625 
Q 18.109375 42.671875 18.109375 31.390625 
Q 18.109375 20.125 21.3125 9.0625 
Q 24.515625 -2 31 -13.1875 
L 23.1875 -13.1875 
Q 15.875 -1.703125 12.234375 9.375 
Q 8.59375 20.453125 8.59375 31.390625 
Q 8.59375 42.28125 12.203125 53.3125 
Q 15.828125 64.359375 23.1875 75.875 
z
" id="DejaVuSans-40"/>
      <path d="M 10.59375 45.40625 
L 73.1875 45.40625 
L 73.1875 37.203125 
L 10.59375 37.203125 
z
M 10.59375 25.484375 
L 73.1875 25.484375 
L 73.1875 17.1875 
L 10.59375 17.1875 
z
" id="DejaVuSans-61"/>
      <path d="M 8.015625 75.875 
L 15.828125 75.875 
Q 23.140625 64.359375 26.78125 53.3125 
Q 30.421875 42.28125 30.421875 31.390625 
Q 30.421875 20.453125 26.78125 9.375 
Q 23.140625 -1.703125 15.828125 -13.1875 
L 8.015625 -13.1875 
Q 14.5 -2 17.703125 9.0625 
Q 20.90625 20.125 20.90625 31.390625 
Q 20.90625 42.671875 17.703125 53.65625 
Q 14.5 64.65625 8.015625 75.875 
z
" id="DejaVuSans-41"/>
     </defs>
     <g transform="translate(445.081875 505.992188)scale(0.06 -0.06)">
      <use xlink:href="#DejaVuSans-68"/>
      <use x="77.001953" xlink:href="#DejaVuSans-48"/>
      <use x="140.625" xlink:href="#DejaVuSans-48"/>
      <use x="204.248047" xlink:href="#DejaVuSans-54"/>
      <use x="267.871094" xlink:href="#DejaVuSans-50"/>
      <use x="331.494141" xlink:href="#DejaVuSans-54"/>
      <use x="395.117188" xlink:href="#DejaVuSans-50"/>
      <use x="458.740234" xlink:href="#DejaVuSans-32"/>
      <use x="490.527344" xlink:href="#DejaVuSans-40"/>
      <use x="529.541016" xlink:href="#DejaVuSans-97"/>
      <use x="590.820312" xlink:href="#DejaVuSans-114"/>
      <use x="631.902344" xlink:href="#DejaVuSans-101"/>
      <use x="693.425781" xlink:href="#DejaVuSans-97"/>
      <use x="754.705078" xlink:href="#DejaVuSans-32"/>
      <use x="786.492188" xlink:href="#DejaVuSans-61"/>
      <use x="870.28125" xlink:href="#DejaVuSans-48"/>
      <use x="933.904297" xlink:href="#DejaVuSans-46"/>
      <use x="965.691406" xlink:href="#DejaVuSans-56"/>
      <use x="1029.314453" xlink:href="#DejaVuSans-54"/>
      <use x="1092.9375" xlink:href="#DejaVuSans-41"/>
     </g>
    </g>
   </g>
  </g>
 </g>
 <defs>
  <clipPath id="p8d73af118d">
   <rect height="443.52" width="446.4" x="72" y="69.12"/>
  </clipPath>
 </defs>
</svg>
