<?xml version="1.0" encoding="utf-8" standalone="no"?>
<!DOCTYPE svg PUBLIC "-//W3C//DTD SVG 1.1//EN"
  "http://www.w3.org/Graphics/SVG/1.1/DTD/svg11.dtd">
<!-- Created with matplotlib (https://matplotlib.org/) -->
<svg height="432pt" version="1.1" viewBox="0 0 720 432" width="720pt" xmlns="http://www.w3.org/2000/svg" xmlns:xlink="http://www.w3.org/1999/xlink">
 <defs>
  <style type="text/css">
*{stroke-linecap:butt;stroke-linejoin:round;}
  </style>
 </defs>
 <g id="figure_1">
  <g id="patch_1">
   <path d="M 0 432 
L 720 432 
L 720 0 
L 0 0 
z
" style="fill:#ffffff;"/>
  </g>
  <g id="axes_1">
   <g id="patch_2">
    <path d="M 90 384.48 
L 648 384.48 
L 648 51.84 
L 90 51.84 
z
" style="fill:#ffffff;"/>
   </g>
   <g id="PathCollection_1">
    <defs>
     <path d="M 0 3 
C 0.795609 3 1.55874 2.683901 2.12132 2.12132 
C 2.683901 1.55874 3 0.795609 3 0 
C 3 -0.795609 2.683901 -1.55874 2.12132 -2.12132 
C 1.55874 -2.683901 0.795609 -3 0 -3 
C -0.795609 -3 -1.55874 -2.683901 -2.12132 -2.12132 
C -2.683901 -1.55874 -3 -0.795609 -3 0 
C -3 0.795609 -2.683901 1.55874 -2.12132 2.12132 
C -1.55874 2.683901 -0.795609 3 0 3 
z
" id="mc2c2ba89d1" style="stroke:#00bfc4;"/>
    </defs>
    <g clip-path="url(#p0f7bb3e457)">
     <use style="fill:#00bfc4;stroke:#00bfc4;" x="285.577666" xlink:href="#mc2c2ba89d1" y="108.908915"/>
     <use style="fill:#00bfc4;stroke:#00bfc4;" x="345.192255" xlink:href="#mc2c2ba89d1" y="188.043032"/>
     <use style="fill:#00bfc4;stroke:#00bfc4;" x="313.798538" xlink:href="#mc2c2ba89d1" y="157.708377"/>
     <use style="fill:#00bfc4;stroke:#00bfc4;" x="227.729308" xlink:href="#mc2c2ba89d1" y="114.102401"/>
     <use style="fill:#00bfc4;stroke:#00bfc4;" x="325.447091" xlink:href="#mc2c2ba89d1" y="156.200528"/>
     <use style="fill:#00bfc4;stroke:#00bfc4;" x="321.254356" xlink:href="#mc2c2ba89d1" y="68.869025"/>
     <use style="fill:#00bfc4;stroke:#00bfc4;" x="276.320764" xlink:href="#mc2c2ba89d1" y="148.733463"/>
     <use style="fill:#00bfc4;stroke:#00bfc4;" x="319.794215" xlink:href="#mc2c2ba89d1" y="150.79436"/>
     <use style="fill:#00bfc4;stroke:#00bfc4;" x="237.620534" xlink:href="#mc2c2ba89d1" y="150.026401"/>
     <use style="fill:#00bfc4;stroke:#00bfc4;" x="326.909474" xlink:href="#mc2c2ba89d1" y="148.122329"/>
     <use style="fill:#00bfc4;stroke:#00bfc4;" x="346.214829" xlink:href="#mc2c2ba89d1" y="136.729745"/>
     <use style="fill:#00bfc4;stroke:#00bfc4;" x="336.440082" xlink:href="#mc2c2ba89d1" y="150.298734"/>
     <use style="fill:#00bfc4;stroke:#00bfc4;" x="320.709736" xlink:href="#mc2c2ba89d1" y="150.006352"/>
     <use style="fill:#00bfc4;stroke:#00bfc4;" x="340.493137" xlink:href="#mc2c2ba89d1" y="96.348921"/>
     <use style="fill:#00bfc4;stroke:#00bfc4;" x="348.833063" xlink:href="#mc2c2ba89d1" y="149.206452"/>
     <use style="fill:#00bfc4;stroke:#00bfc4;" x="346.774842" xlink:href="#mc2c2ba89d1" y="165.539233"/>
     <use style="fill:#00bfc4;stroke:#00bfc4;" x="221.502902" xlink:href="#mc2c2ba89d1" y="152.327421"/>
     <use style="fill:#00bfc4;stroke:#00bfc4;" x="280.874287" xlink:href="#mc2c2ba89d1" y="84.582434"/>
     <use style="fill:#00bfc4;stroke:#00bfc4;" x="388.835337" xlink:href="#mc2c2ba89d1" y="171.072128"/>
     <use style="fill:#00bfc4;stroke:#00bfc4;" x="434.273938" xlink:href="#mc2c2ba89d1" y="170.431741"/>
     <use style="fill:#00bfc4;stroke:#00bfc4;" x="455.621" xlink:href="#mc2c2ba89d1" y="209.084134"/>
     <use style="fill:#00bfc4;stroke:#00bfc4;" x="375.070857" xlink:href="#mc2c2ba89d1" y="212.563345"/>
     <use style="fill:#00bfc4;stroke:#00bfc4;" x="425.209411" xlink:href="#mc2c2ba89d1" y="177.638603"/>
     <use style="fill:#00bfc4;stroke:#00bfc4;" x="408.3135" xlink:href="#mc2c2ba89d1" y="143.699096"/>
     <use style="fill:#00bfc4;stroke:#00bfc4;" x="497.977301" xlink:href="#mc2c2ba89d1" y="285.404003"/>
     <use style="fill:#00bfc4;stroke:#00bfc4;" x="516.115925" xlink:href="#mc2c2ba89d1" y="304.508602"/>
     <use style="fill:#00bfc4;stroke:#00bfc4;" x="200.249559" xlink:href="#mc2c2ba89d1" y="159.378901"/>
     <use style="fill:#00bfc4;stroke:#00bfc4;" x="324.946985" xlink:href="#mc2c2ba89d1" y="269.014024"/>
     <use style="fill:#00bfc4;stroke:#00bfc4;" x="598.599124" xlink:href="#mc2c2ba89d1" y="261.094081"/>
     <use style="fill:#00bfc4;stroke:#00bfc4;" x="423.704305" xlink:href="#mc2c2ba89d1" y="357.213819"/>
     <use style="fill:#00bfc4;stroke:#00bfc4;" x="287.323338" xlink:href="#mc2c2ba89d1" y="278.491546"/>
     <use style="fill:#00bfc4;stroke:#00bfc4;" x="330.978417" xlink:href="#mc2c2ba89d1" y="281.803373"/>
     <use style="fill:#00bfc4;stroke:#00bfc4;" x="433.339802" xlink:href="#mc2c2ba89d1" y="184.29376"/>
     <use style="fill:#00bfc4;stroke:#00bfc4;" x="369.469663" xlink:href="#mc2c2ba89d1" y="128.004241"/>
     <use style="fill:#00bfc4;stroke:#00bfc4;" x="382.402004" xlink:href="#mc2c2ba89d1" y="136.741753"/>
     <use style="fill:#00bfc4;stroke:#00bfc4;" x="461.853981" xlink:href="#mc2c2ba89d1" y="205.319824"/>
     <use style="fill:#00bfc4;stroke:#00bfc4;" x="421.285534" xlink:href="#mc2c2ba89d1" y="268.266124"/>
     <use style="fill:#00bfc4;stroke:#00bfc4;" x="458.795469" xlink:href="#mc2c2ba89d1" y="256.553527"/>
     <use style="fill:#00bfc4;stroke:#00bfc4;" x="348.205807" xlink:href="#mc2c2ba89d1" y="115.816208"/>
     <use style="fill:#00bfc4;stroke:#00bfc4;" x="364.332882" xlink:href="#mc2c2ba89d1" y="202.390247"/>
     <use style="fill:#00bfc4;stroke:#00bfc4;" x="531.300333" xlink:href="#mc2c2ba89d1" y="285.820437"/>
     <use style="fill:#00bfc4;stroke:#00bfc4;" x="585.71139" xlink:href="#mc2c2ba89d1" y="314.578726"/>
     <use style="fill:#00bfc4;stroke:#00bfc4;" x="199.856374" xlink:href="#mc2c2ba89d1" y="187.08032"/>
     <use style="fill:#00bfc4;stroke:#00bfc4;" x="370.877808" xlink:href="#mc2c2ba89d1" y="200.981739"/>
     <use style="fill:#00bfc4;stroke:#00bfc4;" x="331.295335" xlink:href="#mc2c2ba89d1" y="309.170012"/>
     <use style="fill:#00bfc4;stroke:#00bfc4;" x="531.578639" xlink:href="#mc2c2ba89d1" y="226.96985"/>
     <use style="fill:#00bfc4;stroke:#00bfc4;" x="460.760211" xlink:href="#mc2c2ba89d1" y="300.147741"/>
     <use style="fill:#00bfc4;stroke:#00bfc4;" x="321.501002" xlink:href="#mc2c2ba89d1" y="253.725679"/>
     <use style="fill:#00bfc4;stroke:#00bfc4;" x="496.436915" xlink:href="#mc2c2ba89d1" y="182.778302"/>
     <use style="fill:#00bfc4;stroke:#00bfc4;" x="317.1728" xlink:href="#mc2c2ba89d1" y="247.776296"/>
     <use style="fill:#00bfc4;stroke:#00bfc4;" x="294.783181" xlink:href="#mc2c2ba89d1" y="96.159497"/>
     <use style="fill:#00bfc4;stroke:#00bfc4;" x="308.13315" xlink:href="#mc2c2ba89d1" y="210.828063"/>
     <use style="fill:#00bfc4;stroke:#00bfc4;" x="466.782617" xlink:href="#mc2c2ba89d1" y="365.92319"/>
     <use style="fill:#00bfc4;stroke:#00bfc4;" x="379.262343" xlink:href="#mc2c2ba89d1" y="167.743386"/>
     <use style="fill:#00bfc4;stroke:#00bfc4;" x="358.638054" xlink:href="#mc2c2ba89d1" y="142.429497"/>
     <use style="fill:#00bfc4;stroke:#00bfc4;" x="308.096027" xlink:href="#mc2c2ba89d1" y="185.606744"/>
     <use style="fill:#00bfc4;stroke:#00bfc4;" x="393.426049" xlink:href="#mc2c2ba89d1" y="150.258256"/>
     <use style="fill:#00bfc4;stroke:#00bfc4;" x="336.156214" xlink:href="#mc2c2ba89d1" y="122.74581"/>
     <use style="fill:#00bfc4;stroke:#00bfc4;" x="244.314264" xlink:href="#mc2c2ba89d1" y="197.460755"/>
     <use style="fill:#00bfc4;stroke:#00bfc4;" x="421.926081" xlink:href="#mc2c2ba89d1" y="178.404931"/>
     <use style="fill:#00bfc4;stroke:#00bfc4;" x="488.921289" xlink:href="#mc2c2ba89d1" y="304.384777"/>
     <use style="fill:#00bfc4;stroke:#00bfc4;" x="487.801893" xlink:href="#mc2c2ba89d1" y="256.513654"/>
     <use style="fill:#00bfc4;stroke:#00bfc4;" x="589.182873" xlink:href="#mc2c2ba89d1" y="241.591875"/>
     <use style="fill:#00bfc4;stroke:#00bfc4;" x="424.900958" xlink:href="#mc2c2ba89d1" y="321.934635"/>
     <use style="fill:#00bfc4;stroke:#00bfc4;" x="480.947201" xlink:href="#mc2c2ba89d1" y="190.770015"/>
     <use style="fill:#00bfc4;stroke:#00bfc4;" x="580.01009" xlink:href="#mc2c2ba89d1" y="322.585152"/>
     <use style="fill:#00bfc4;stroke:#00bfc4;" x="384.495247" xlink:href="#mc2c2ba89d1" y="228.586999"/>
     <use style="fill:#00bfc4;stroke:#00bfc4;" x="397.549" xlink:href="#mc2c2ba89d1" y="208.147874"/>
     <use style="fill:#00bfc4;stroke:#00bfc4;" x="368.369822" xlink:href="#mc2c2ba89d1" y="336.217481"/>
     <use style="fill:#00bfc4;stroke:#00bfc4;" x="552.299612" xlink:href="#mc2c2ba89d1" y="164.453074"/>
     <use style="fill:#00bfc4;stroke:#00bfc4;" x="487.907202" xlink:href="#mc2c2ba89d1" y="184.941747"/>
     <use style="fill:#00bfc4;stroke:#00bfc4;" x="519.062249" xlink:href="#mc2c2ba89d1" y="197.010502"/>
     <use style="fill:#00bfc4;stroke:#00bfc4;" x="483.034709" xlink:href="#mc2c2ba89d1" y="240.753096"/>
     <use style="fill:#00bfc4;stroke:#00bfc4;" x="517.921559" xlink:href="#mc2c2ba89d1" y="252.721903"/>
     <use style="fill:#00bfc4;stroke:#00bfc4;" x="420.067704" xlink:href="#mc2c2ba89d1" y="356.454754"/>
     <use style="fill:#00bfc4;stroke:#00bfc4;" x="515.086829" xlink:href="#mc2c2ba89d1" y="253.689549"/>
     <use style="fill:#00bfc4;stroke:#00bfc4;" x="391.329869" xlink:href="#mc2c2ba89d1" y="119.95355"/>
     <use style="fill:#00bfc4;stroke:#00bfc4;" x="259.26741" xlink:href="#mc2c2ba89d1" y="163.920967"/>
     <use style="fill:#00bfc4;stroke:#00bfc4;" x="453.114711" xlink:href="#mc2c2ba89d1" y="322.808683"/>
     <use style="fill:#00bfc4;stroke:#00bfc4;" x="352.980521" xlink:href="#mc2c2ba89d1" y="241.340728"/>
     <use style="fill:#00bfc4;stroke:#00bfc4;" x="355.088174" xlink:href="#mc2c2ba89d1" y="233.85935"/>
     <use style="fill:#00bfc4;stroke:#00bfc4;" x="392.352771" xlink:href="#mc2c2ba89d1" y="344.52109"/>
     <use style="fill:#00bfc4;stroke:#00bfc4;" x="448.967089" xlink:href="#mc2c2ba89d1" y="277.953113"/>
     <use style="fill:#00bfc4;stroke:#00bfc4;" x="418.98207" xlink:href="#mc2c2ba89d1" y="303.958159"/>
     <use style="fill:#00bfc4;stroke:#00bfc4;" x="486.063723" xlink:href="#mc2c2ba89d1" y="140.214602"/>
     <use style="fill:#00bfc4;stroke:#00bfc4;" x="348.807237" xlink:href="#mc2c2ba89d1" y="234.307544"/>
     <use style="fill:#00bfc4;stroke:#00bfc4;" x="429.224297" xlink:href="#mc2c2ba89d1" y="127.913688"/>
     <use style="fill:#00bfc4;stroke:#00bfc4;" x="467.40876" xlink:href="#mc2c2ba89d1" y="293.82619"/>
     <use style="fill:#00bfc4;stroke:#00bfc4;" x="451.932819" xlink:href="#mc2c2ba89d1" y="336.738464"/>
     <use style="fill:#00bfc4;stroke:#00bfc4;" x="407.608358" xlink:href="#mc2c2ba89d1" y="241.739847"/>
     <use style="fill:#00bfc4;stroke:#00bfc4;" x="336.076836" xlink:href="#mc2c2ba89d1" y="267.140482"/>
     <use style="fill:#00bfc4;stroke:#00bfc4;" x="594.016748" xlink:href="#mc2c2ba89d1" y="265.152511"/>
     <use style="fill:#00bfc4;stroke:#00bfc4;" x="395.626444" xlink:href="#mc2c2ba89d1" y="262.240612"/>
     <use style="fill:#00bfc4;stroke:#00bfc4;" x="369.489518" xlink:href="#mc2c2ba89d1" y="275.109345"/>
     <use style="fill:#00bfc4;stroke:#00bfc4;" x="440.768489" xlink:href="#mc2c2ba89d1" y="153.126177"/>
     <use style="fill:#00bfc4;stroke:#00bfc4;" x="448.084112" xlink:href="#mc2c2ba89d1" y="292.466813"/>
     <use style="fill:#00bfc4;stroke:#00bfc4;" x="455.667524" xlink:href="#mc2c2ba89d1" y="311.078647"/>
     <use style="fill:#00bfc4;stroke:#00bfc4;" x="425.092313" xlink:href="#mc2c2ba89d1" y="227.557379"/>
     <use style="fill:#00bfc4;stroke:#00bfc4;" x="536.54929" xlink:href="#mc2c2ba89d1" y="241.014153"/>
     <use style="fill:#00bfc4;stroke:#00bfc4;" x="473.032803" xlink:href="#mc2c2ba89d1" y="207.410829"/>
     <use style="fill:#00bfc4;stroke:#00bfc4;" x="457.488422" xlink:href="#mc2c2ba89d1" y="241.79461"/>
     <use style="fill:#00bfc4;stroke:#00bfc4;" x="302.553775" xlink:href="#mc2c2ba89d1" y="194.359218"/>
     <use style="fill:#00bfc4;stroke:#00bfc4;" x="546.31993" xlink:href="#mc2c2ba89d1" y="219.890739"/>
     <use style="fill:#00bfc4;stroke:#00bfc4;" x="459.735476" xlink:href="#mc2c2ba89d1" y="199.984026"/>
     <use style="fill:#00bfc4;stroke:#00bfc4;" x="528.518798" xlink:href="#mc2c2ba89d1" y="263.294184"/>
     <use style="fill:#00bfc4;stroke:#00bfc4;" x="504.159816" xlink:href="#mc2c2ba89d1" y="309.779178"/>
     <use style="fill:#00bfc4;stroke:#00bfc4;" x="504.796073" xlink:href="#mc2c2ba89d1" y="262.864887"/>
     <use style="fill:#00bfc4;stroke:#00bfc4;" x="467.514819" xlink:href="#mc2c2ba89d1" y="238.810973"/>
     <use style="fill:#00bfc4;stroke:#00bfc4;" x="355.876205" xlink:href="#mc2c2ba89d1" y="273.756384"/>
     <use style="fill:#00bfc4;stroke:#00bfc4;" x="420.932457" xlink:href="#mc2c2ba89d1" y="237.678322"/>
     <use style="fill:#00bfc4;stroke:#00bfc4;" x="469.086684" xlink:href="#mc2c2ba89d1" y="129.559179"/>
     <use style="fill:#00bfc4;stroke:#00bfc4;" x="464.595497" xlink:href="#mc2c2ba89d1" y="256.771033"/>
     <use style="fill:#00bfc4;stroke:#00bfc4;" x="575.433307" xlink:href="#mc2c2ba89d1" y="319.682157"/>
     <use style="fill:#00bfc4;stroke:#00bfc4;" x="424.96386" xlink:href="#mc2c2ba89d1" y="226.92588"/>
     <use style="fill:#00bfc4;stroke:#00bfc4;" x="449.121113" xlink:href="#mc2c2ba89d1" y="293.458902"/>
     <use style="fill:#00bfc4;stroke:#00bfc4;" x="402.419772" xlink:href="#mc2c2ba89d1" y="227.7094"/>
     <use style="fill:#00bfc4;stroke:#00bfc4;" x="550.121644" xlink:href="#mc2c2ba89d1" y="239.101558"/>
     <use style="fill:#00bfc4;stroke:#00bfc4;" x="261.773428" xlink:href="#mc2c2ba89d1" y="100.047851"/>
     <use style="fill:#00bfc4;stroke:#00bfc4;" x="418.348521" xlink:href="#mc2c2ba89d1" y="301.551757"/>
     <use style="fill:#00bfc4;stroke:#00bfc4;" x="527.092646" xlink:href="#mc2c2ba89d1" y="221.347393"/>
     <use style="fill:#00bfc4;stroke:#00bfc4;" x="462.445317" xlink:href="#mc2c2ba89d1" y="330.283983"/>
     <use style="fill:#00bfc4;stroke:#00bfc4;" x="498.138565" xlink:href="#mc2c2ba89d1" y="327.481828"/>
     <use style="fill:#00bfc4;stroke:#00bfc4;" x="583.837383" xlink:href="#mc2c2ba89d1" y="247.7137"/>
     <use style="fill:#00bfc4;stroke:#00bfc4;" x="597.400947" xlink:href="#mc2c2ba89d1" y="259.215507"/>
     <use style="fill:#00bfc4;stroke:#00bfc4;" x="456.177242" xlink:href="#mc2c2ba89d1" y="327.664272"/>
     <use style="fill:#00bfc4;stroke:#00bfc4;" x="431.359438" xlink:href="#mc2c2ba89d1" y="266.710249"/>
     <use style="fill:#00bfc4;stroke:#00bfc4;" x="348.890087" xlink:href="#mc2c2ba89d1" y="297.205335"/>
     <use style="fill:#00bfc4;stroke:#00bfc4;" x="564.826777" xlink:href="#mc2c2ba89d1" y="298.84081"/>
     <use style="fill:#00bfc4;stroke:#00bfc4;" x="570.241136" xlink:href="#mc2c2ba89d1" y="281.682017"/>
     <use style="fill:#00bfc4;stroke:#00bfc4;" x="465.632524" xlink:href="#mc2c2ba89d1" y="297.396414"/>
     <use style="fill:#00bfc4;stroke:#00bfc4;" x="515.978227" xlink:href="#mc2c2ba89d1" y="290.720152"/>
     <use style="fill:#00bfc4;stroke:#00bfc4;" x="336.260095" xlink:href="#mc2c2ba89d1" y="270.322993"/>
     <use style="fill:#00bfc4;stroke:#00bfc4;" x="427.427083" xlink:href="#mc2c2ba89d1" y="214.882312"/>
     <use style="fill:#00bfc4;stroke:#00bfc4;" x="521.558852" xlink:href="#mc2c2ba89d1" y="284.685304"/>
     <use style="fill:#00bfc4;stroke:#00bfc4;" x="599.240883" xlink:href="#mc2c2ba89d1" y="291.181011"/>
     <use style="fill:#00bfc4;stroke:#00bfc4;" x="335.612641" xlink:href="#mc2c2ba89d1" y="231.386958"/>
     <use style="fill:#00bfc4;stroke:#00bfc4;" x="337.053342" xlink:href="#mc2c2ba89d1" y="142.407448"/>
     <use style="fill:#00bfc4;stroke:#00bfc4;" x="342.101683" xlink:href="#mc2c2ba89d1" y="189.513644"/>
     <use style="fill:#00bfc4;stroke:#00bfc4;" x="333.334164" xlink:href="#mc2c2ba89d1" y="157.591659"/>
     <use style="fill:#00bfc4;stroke:#00bfc4;" x="318.976776" xlink:href="#mc2c2ba89d1" y="104.686351"/>
     <use style="fill:#00bfc4;stroke:#00bfc4;" x="298.786891" xlink:href="#mc2c2ba89d1" y="108.40671"/>
     <use style="fill:#00bfc4;stroke:#00bfc4;" x="299.90379" xlink:href="#mc2c2ba89d1" y="121.208545"/>
     <use style="fill:#00bfc4;stroke:#00bfc4;" x="305.378855" xlink:href="#mc2c2ba89d1" y="153.664627"/>
     <use style="fill:#00bfc4;stroke:#00bfc4;" x="328.387479" xlink:href="#mc2c2ba89d1" y="159.000762"/>
     <use style="fill:#00bfc4;stroke:#00bfc4;" x="308.87906" xlink:href="#mc2c2ba89d1" y="98.534597"/>
     <use style="fill:#00bfc4;stroke:#00bfc4;" x="303.675681" xlink:href="#mc2c2ba89d1" y="144.038045"/>
     <use style="fill:#00bfc4;stroke:#00bfc4;" x="282.667491" xlink:href="#mc2c2ba89d1" y="119.690852"/>
     <use style="fill:#00bfc4;stroke:#00bfc4;" x="308.402081" xlink:href="#mc2c2ba89d1" y="80.298782"/>
     <use style="fill:#00bfc4;stroke:#00bfc4;" x="236.570504" xlink:href="#mc2c2ba89d1" y="124.693358"/>
     <use style="fill:#00bfc4;stroke:#00bfc4;" x="364.378048" xlink:href="#mc2c2ba89d1" y="156.195306"/>
     <use style="fill:#00bfc4;stroke:#00bfc4;" x="327.01718" xlink:href="#mc2c2ba89d1" y="134.540403"/>
     <use style="fill:#00bfc4;stroke:#00bfc4;" x="318.004659" xlink:href="#mc2c2ba89d1" y="141.887268"/>
     <use style="fill:#00bfc4;stroke:#00bfc4;" x="298.310094" xlink:href="#mc2c2ba89d1" y="140.236354"/>
     <use style="fill:#00bfc4;stroke:#00bfc4;" x="365.95743" xlink:href="#mc2c2ba89d1" y="157.533159"/>
     <use style="fill:#00bfc4;stroke:#00bfc4;" x="283.353526" xlink:href="#mc2c2ba89d1" y="131.960446"/>
     <use style="fill:#00bfc4;stroke:#00bfc4;" x="329.852245" xlink:href="#mc2c2ba89d1" y="153.085812"/>
     <use style="fill:#00bfc4;stroke:#00bfc4;" x="283.288349" xlink:href="#mc2c2ba89d1" y="133.158025"/>
     <use style="fill:#00bfc4;stroke:#00bfc4;" x="280.510299" xlink:href="#mc2c2ba89d1" y="110.890896"/>
     <use style="fill:#00bfc4;stroke:#00bfc4;" x="279.679734" xlink:href="#mc2c2ba89d1" y="149.082005"/>
     <use style="fill:#00bfc4;stroke:#00bfc4;" x="446.383891" xlink:href="#mc2c2ba89d1" y="225.1607"/>
     <use style="fill:#00bfc4;stroke:#00bfc4;" x="469.935482" xlink:href="#mc2c2ba89d1" y="184.127308"/>
     <use style="fill:#00bfc4;stroke:#00bfc4;" x="388.988654" xlink:href="#mc2c2ba89d1" y="195.318099"/>
     <use style="fill:#00bfc4;stroke:#00bfc4;" x="326.926139" xlink:href="#mc2c2ba89d1" y="171.097223"/>
     <use style="fill:#00bfc4;stroke:#00bfc4;" x="343.886504" xlink:href="#mc2c2ba89d1" y="68.528832"/>
     <use style="fill:#00bfc4;stroke:#00bfc4;" x="391.639898" xlink:href="#mc2c2ba89d1" y="292.189836"/>
     <use style="fill:#00bfc4;stroke:#00bfc4;" x="492.635259" xlink:href="#mc2c2ba89d1" y="269.765746"/>
     <use style="fill:#00bfc4;stroke:#00bfc4;" x="399.19485" xlink:href="#mc2c2ba89d1" y="181.234021"/>
     <use style="fill:#00bfc4;stroke:#00bfc4;" x="533.286643" xlink:href="#mc2c2ba89d1" y="312.643001"/>
     <use style="fill:#00bfc4;stroke:#00bfc4;" x="520.046695" xlink:href="#mc2c2ba89d1" y="344.734306"/>
     <use style="fill:#00bfc4;stroke:#00bfc4;" x="399.177008" xlink:href="#mc2c2ba89d1" y="336.283288"/>
     <use style="fill:#00bfc4;stroke:#00bfc4;" x="557.047822" xlink:href="#mc2c2ba89d1" y="346.28021"/>
     <use style="fill:#00bfc4;stroke:#00bfc4;" x="524.811138" xlink:href="#mc2c2ba89d1" y="323.532013"/>
     <use style="fill:#00bfc4;stroke:#00bfc4;" x="515.985271" xlink:href="#mc2c2ba89d1" y="197.344447"/>
     <use style="fill:#00bfc4;stroke:#00bfc4;" x="540.644158" xlink:href="#mc2c2ba89d1" y="342.02202"/>
     <use style="fill:#00bfc4;stroke:#00bfc4;" x="320.398754" xlink:href="#mc2c2ba89d1" y="283.624003"/>
     <use style="fill:#00bfc4;stroke:#00bfc4;" x="425.576319" xlink:href="#mc2c2ba89d1" y="249.361445"/>
     <use style="fill:#00bfc4;stroke:#00bfc4;" x="547.517413" xlink:href="#mc2c2ba89d1" y="275.276488"/>
     <use style="fill:#00bfc4;stroke:#00bfc4;" x="581.787007" xlink:href="#mc2c2ba89d1" y="325.639291"/>
     <use style="fill:#00bfc4;stroke:#00bfc4;" x="503.659786" xlink:href="#mc2c2ba89d1" y="314.449913"/>
     <use style="fill:#00bfc4;stroke:#00bfc4;" x="487.387859" xlink:href="#mc2c2ba89d1" y="141.603675"/>
     <use style="fill:#00bfc4;stroke:#00bfc4;" x="396.703036" xlink:href="#mc2c2ba89d1" y="245.062377"/>
     <use style="fill:#00bfc4;stroke:#00bfc4;" x="614.972319" xlink:href="#mc2c2ba89d1" y="290.523855"/>
     <use style="fill:#00bfc4;stroke:#00bfc4;" x="278.246985" xlink:href="#mc2c2ba89d1" y="190.681914"/>
     <use style="fill:#00bfc4;stroke:#00bfc4;" x="487.407414" xlink:href="#mc2c2ba89d1" y="207.554126"/>
     <use style="fill:#00bfc4;stroke:#00bfc4;" x="546.588299" xlink:href="#mc2c2ba89d1" y="166.460957"/>
     <use style="fill:#00bfc4;stroke:#00bfc4;" x="491.061501" xlink:href="#mc2c2ba89d1" y="179.690539"/>
     <use style="fill:#00bfc4;stroke:#00bfc4;" x="486.688452" xlink:href="#mc2c2ba89d1" y="255.529603"/>
    </g>
   </g>
   <g id="PathCollection_2">
    <defs>
     <path d="M 0 3 
C 0.795609 3 1.55874 2.683901 2.12132 2.12132 
C 2.683901 1.55874 3 0.795609 3 0 
C 3 -0.795609 2.683901 -1.55874 2.12132 -2.12132 
C 1.55874 -2.683901 0.795609 -3 0 -3 
C -0.795609 -3 -1.55874 -2.683901 -2.12132 -2.12132 
C -2.683901 -1.55874 -3 -0.795609 -3 0 
C -3 0.795609 -2.683901 1.55874 -2.12132 2.12132 
C -1.55874 2.683901 -0.795609 3 0 3 
z
" id="m3653f7f835" style="stroke:#f8766d;"/>
    </defs>
    <g clip-path="url(#p0f7bb3e457)">
     <use style="fill:#f8766d;stroke:#f8766d;" x="327.163583" xlink:href="#m3653f7f835" y="148.701896"/>
     <use style="fill:#f8766d;stroke:#f8766d;" x="249.338412" xlink:href="#m3653f7f835" y="148.988445"/>
     <use style="fill:#f8766d;stroke:#f8766d;" x="290.238213" xlink:href="#m3653f7f835" y="157.474327"/>
     <use style="fill:#f8766d;stroke:#f8766d;" x="265.478126" xlink:href="#m3653f7f835" y="134.288771"/>
     <use style="fill:#f8766d;stroke:#f8766d;" x="331.649125" xlink:href="#m3653f7f835" y="197.846542"/>
     <use style="fill:#f8766d;stroke:#f8766d;" x="319.204377" xlink:href="#m3653f7f835" y="69.085208"/>
     <use style="fill:#f8766d;stroke:#f8766d;" x="212.179891" xlink:href="#m3653f7f835" y="116.294051"/>
     <use style="fill:#f8766d;stroke:#f8766d;" x="211.209602" xlink:href="#m3653f7f835" y="116.456032"/>
     <use style="fill:#f8766d;stroke:#f8766d;" x="224.286361" xlink:href="#m3653f7f835" y="151.622468"/>
     <use style="fill:#f8766d;stroke:#f8766d;" x="117.131772" xlink:href="#m3653f7f835" y="301.811427"/>
     <use style="fill:#f8766d;stroke:#f8766d;" x="516.776818" xlink:href="#m3653f7f835" y="278.64878"/>
     <use style="fill:#f8766d;stroke:#f8766d;" x="612.75696" xlink:href="#m3653f7f835" y="258.441246"/>
     <use style="fill:#f8766d;stroke:#f8766d;" x="513.196226" xlink:href="#m3653f7f835" y="202.78764"/>
     <use style="fill:#f8766d;stroke:#f8766d;" x="452.921434" xlink:href="#m3653f7f835" y="113.205676"/>
     <use style="fill:#f8766d;stroke:#f8766d;" x="354.040956" xlink:href="#m3653f7f835" y="129.987944"/>
     <use style="fill:#f8766d;stroke:#f8766d;" x="397.46833" xlink:href="#m3653f7f835" y="324.769128"/>
     <use style="fill:#f8766d;stroke:#f8766d;" x="301.206344" xlink:href="#m3653f7f835" y="270.122406"/>
     <use style="fill:#f8766d;stroke:#f8766d;" x="277.840234" xlink:href="#m3653f7f835" y="163.898181"/>
     <use style="fill:#f8766d;stroke:#f8766d;" x="286.174598" xlink:href="#m3653f7f835" y="186.873029"/>
     <use style="fill:#f8766d;stroke:#f8766d;" x="592.716747" xlink:href="#m3653f7f835" y="222.719513"/>
     <use style="fill:#f8766d;stroke:#f8766d;" x="277.231901" xlink:href="#m3653f7f835" y="204.447814"/>
     <use style="fill:#f8766d;stroke:#f8766d;" x="292.657534" xlink:href="#m3653f7f835" y="169.859584"/>
     <use style="fill:#f8766d;stroke:#f8766d;" x="390.421325" xlink:href="#m3653f7f835" y="92.607363"/>
     <use style="fill:#f8766d;stroke:#f8766d;" x="372.569918" xlink:href="#m3653f7f835" y="143.005937"/>
     <use style="fill:#f8766d;stroke:#f8766d;" x="274.80445" xlink:href="#m3653f7f835" y="179.757983"/>
     <use style="fill:#f8766d;stroke:#f8766d;" x="549.921219" xlink:href="#m3653f7f835" y="324.555829"/>
     <use style="fill:#f8766d;stroke:#f8766d;" x="447.878743" xlink:href="#m3653f7f835" y="275.801337"/>
     <use style="fill:#f8766d;stroke:#f8766d;" x="243.829078" xlink:href="#m3653f7f835" y="224.91833"/>
     <use style="fill:#f8766d;stroke:#f8766d;" x="233.304206" xlink:href="#m3653f7f835" y="199.641393"/>
     <use style="fill:#f8766d;stroke:#f8766d;" x="197.522511" xlink:href="#m3653f7f835" y="118.132948"/>
     <use style="fill:#f8766d;stroke:#f8766d;" x="576.361694" xlink:href="#m3653f7f835" y="191.995182"/>
     <use style="fill:#f8766d;stroke:#f8766d;" x="576.18065" xlink:href="#m3653f7f835" y="192.185438"/>
     <use style="fill:#f8766d;stroke:#f8766d;" x="310.746907" xlink:href="#m3653f7f835" y="134.138873"/>
     <use style="fill:#f8766d;stroke:#f8766d;" x="396.163472" xlink:href="#m3653f7f835" y="209.720805"/>
     <use style="fill:#f8766d;stroke:#f8766d;" x="475.525032" xlink:href="#m3653f7f835" y="317.730947"/>
     <use style="fill:#f8766d;stroke:#f8766d;" x="408.38035" xlink:href="#m3653f7f835" y="110.105976"/>
     <use style="fill:#f8766d;stroke:#f8766d;" x="461.638303" xlink:href="#m3653f7f835" y="235.649962"/>
     <use style="fill:#f8766d;stroke:#f8766d;" x="493.024496" xlink:href="#m3653f7f835" y="141.573491"/>
     <use style="fill:#f8766d;stroke:#f8766d;" x="306.964246" xlink:href="#m3653f7f835" y="249.129334"/>
     <use style="fill:#f8766d;stroke:#f8766d;" x="380.615034" xlink:href="#m3653f7f835" y="323.007394"/>
     <use style="fill:#f8766d;stroke:#f8766d;" x="512.563617" xlink:href="#m3653f7f835" y="324.700541"/>
     <use style="fill:#f8766d;stroke:#f8766d;" x="402.207978" xlink:href="#m3653f7f835" y="345.855137"/>
     <use style="fill:#f8766d;stroke:#f8766d;" x="452.18462" xlink:href="#m3653f7f835" y="102.690389"/>
     <use style="fill:#f8766d;stroke:#f8766d;" x="507.688866" xlink:href="#m3653f7f835" y="236.076081"/>
     <use style="fill:#f8766d;stroke:#f8766d;" x="496.481504" xlink:href="#m3653f7f835" y="307.686461"/>
     <use style="fill:#f8766d;stroke:#f8766d;" x="504.673554" xlink:href="#m3653f7f835" y="137.549467"/>
     <use style="fill:#f8766d;stroke:#f8766d;" x="257.333737" xlink:href="#m3653f7f835" y="218.054799"/>
     <use style="fill:#f8766d;stroke:#f8766d;" x="405.911025" xlink:href="#m3653f7f835" y="160.972883"/>
     <use style="fill:#f8766d;stroke:#f8766d;" x="551.961184" xlink:href="#m3653f7f835" y="303.942021"/>
     <use style="fill:#f8766d;stroke:#f8766d;" x="395.907595" xlink:href="#m3653f7f835" y="149.793884"/>
     <use style="fill:#f8766d;stroke:#f8766d;" x="477.612205" xlink:href="#m3653f7f835" y="344.559039"/>
     <use style="fill:#f8766d;stroke:#f8766d;" x="479.306217" xlink:href="#m3653f7f835" y="344.64535"/>
     <use style="fill:#f8766d;stroke:#f8766d;" x="373.441462" xlink:href="#m3653f7f835" y="182.067836"/>
     <use style="fill:#f8766d;stroke:#f8766d;" x="465.063757" xlink:href="#m3653f7f835" y="111.800005"/>
     <use style="fill:#f8766d;stroke:#f8766d;" x="526.977149" xlink:href="#m3653f7f835" y="236.530772"/>
     <use style="fill:#f8766d;stroke:#f8766d;" x="368.863353" xlink:href="#m3653f7f835" y="106.87433"/>
     <use style="fill:#f8766d;stroke:#f8766d;" x="413.459609" xlink:href="#m3653f7f835" y="235.367286"/>
     <use style="fill:#f8766d;stroke:#f8766d;" x="317.669343" xlink:href="#m3653f7f835" y="307.264873"/>
     <use style="fill:#f8766d;stroke:#f8766d;" x="589.608625" xlink:href="#m3653f7f835" y="238.178648"/>
     <use style="fill:#f8766d;stroke:#f8766d;" x="308.802926" xlink:href="#m3653f7f835" y="204.586563"/>
     <use style="fill:#f8766d;stroke:#f8766d;" x="297.50374" xlink:href="#m3653f7f835" y="226.111309"/>
     <use style="fill:#f8766d;stroke:#f8766d;" x="486.483076" xlink:href="#m3653f7f835" y="255.543382"/>
     <use style="fill:#f8766d;stroke:#f8766d;" x="501.419558" xlink:href="#m3653f7f835" y="179.310847"/>
     <use style="fill:#f8766d;stroke:#f8766d;" x="405.918014" xlink:href="#m3653f7f835" y="112.443998"/>
     <use style="fill:#f8766d;stroke:#f8766d;" x="424.077257" xlink:href="#m3653f7f835" y="321.483488"/>
     <use style="fill:#f8766d;stroke:#f8766d;" x="577.558797" xlink:href="#m3653f7f835" y="251.891331"/>
     <use style="fill:#f8766d;stroke:#f8766d;" x="415.539072" xlink:href="#m3653f7f835" y="268.410283"/>
     <use style="fill:#f8766d;stroke:#f8766d;" x="309.066543" xlink:href="#m3653f7f835" y="173.256016"/>
     <use style="fill:#f8766d;stroke:#f8766d;" x="337.527063" xlink:href="#m3653f7f835" y="217.806256"/>
     <use style="fill:#f8766d;stroke:#f8766d;" x="573.006187" xlink:href="#m3653f7f835" y="280.605617"/>
     <use style="fill:#f8766d;stroke:#f8766d;" x="567.973629" xlink:href="#m3653f7f835" y="204.630537"/>
     <use style="fill:#f8766d;stroke:#f8766d;" x="550.800498" xlink:href="#m3653f7f835" y="274.098261"/>
     <use style="fill:#f8766d;stroke:#f8766d;" x="620.868228" xlink:href="#m3653f7f835" y="290.891038"/>
     <use style="fill:#f8766d;stroke:#f8766d;" x="466.623838" xlink:href="#m3653f7f835" y="367.234792"/>
     <use style="fill:#f8766d;stroke:#f8766d;" x="384.976722" xlink:href="#m3653f7f835" y="323.259617"/>
     <use style="fill:#f8766d;stroke:#f8766d;" x="450.058065" xlink:href="#m3653f7f835" y="114.358358"/>
     <use style="fill:#f8766d;stroke:#f8766d;" x="324.49701" xlink:href="#m3653f7f835" y="132.384918"/>
     <use style="fill:#f8766d;stroke:#f8766d;" x="357.20011" xlink:href="#m3653f7f835" y="168.022811"/>
     <use style="fill:#f8766d;stroke:#f8766d;" x="327.406936" xlink:href="#m3653f7f835" y="118.421689"/>
     <use style="fill:#f8766d;stroke:#f8766d;" x="305.827563" xlink:href="#m3653f7f835" y="165.022721"/>
     <use style="fill:#f8766d;stroke:#f8766d;" x="294.214381" xlink:href="#m3653f7f835" y="142.574168"/>
     <use style="fill:#f8766d;stroke:#f8766d;" x="320.187401" xlink:href="#m3653f7f835" y="123.774749"/>
     <use style="fill:#f8766d;stroke:#f8766d;" x="281.080855" xlink:href="#m3653f7f835" y="84.458184"/>
     <use style="fill:#f8766d;stroke:#f8766d;" x="323.705027" xlink:href="#m3653f7f835" y="162.072605"/>
     <use style="fill:#f8766d;stroke:#f8766d;" x="339.753268" xlink:href="#m3653f7f835" y="103.043443"/>
     <use style="fill:#f8766d;stroke:#f8766d;" x="322.299016" xlink:href="#m3653f7f835" y="111.889593"/>
     <use style="fill:#f8766d;stroke:#f8766d;" x="320.907634" xlink:href="#m3653f7f835" y="153.609039"/>
     <use style="fill:#f8766d;stroke:#f8766d;" x="261.401095" xlink:href="#m3653f7f835" y="128.044991"/>
     <use style="fill:#f8766d;stroke:#f8766d;" x="265.837084" xlink:href="#m3653f7f835" y="115.849002"/>
     <use style="fill:#f8766d;stroke:#f8766d;" x="345.270851" xlink:href="#m3653f7f835" y="172.232034"/>
     <use style="fill:#f8766d;stroke:#f8766d;" x="215.974997" xlink:href="#m3653f7f835" y="106.60126"/>
     <use style="fill:#f8766d;stroke:#f8766d;" x="338.320341" xlink:href="#m3653f7f835" y="155.640916"/>
     <use style="fill:#f8766d;stroke:#f8766d;" x="375.824663" xlink:href="#m3653f7f835" y="186.257469"/>
     <use style="fill:#f8766d;stroke:#f8766d;" x="240.775334" xlink:href="#m3653f7f835" y="178.220172"/>
     <use style="fill:#f8766d;stroke:#f8766d;" x="345.356431" xlink:href="#m3653f7f835" y="301.918388"/>
     <use style="fill:#f8766d;stroke:#f8766d;" x="522.526398" xlink:href="#m3653f7f835" y="329.713066"/>
     <use style="fill:#f8766d;stroke:#f8766d;" x="393.580871" xlink:href="#m3653f7f835" y="261.904364"/>
     <use style="fill:#f8766d;stroke:#f8766d;" x="294.064638" xlink:href="#m3653f7f835" y="277.116656"/>
     <use style="fill:#f8766d;stroke:#f8766d;" x="326.40641" xlink:href="#m3653f7f835" y="179.978901"/>
     <use style="fill:#f8766d;stroke:#f8766d;" x="243.893601" xlink:href="#m3653f7f835" y="178.431455"/>
     <use style="fill:#f8766d;stroke:#f8766d;" x="422.460651" xlink:href="#m3653f7f835" y="304.481657"/>
     <use style="fill:#f8766d;stroke:#f8766d;" x="513.282219" xlink:href="#m3653f7f835" y="308.887173"/>
    </g>
   </g>
   <g id="matplotlib.axis_1">
    <g id="xtick_1">
     <g id="line2d_1">
      <defs>
       <path d="M 0 0 
L 0 3.5 
" id="mc176401600" style="stroke:#000000;stroke-width:0.8;"/>
      </defs>
      <g>
       <use style="stroke:#000000;stroke-width:0.8;" x="154.145285" xlink:href="#mc176401600" y="384.48"/>
      </g>
     </g>
     <g id="text_1">
      <!-- −15 -->
      <defs>
       <path d="M 10.59375 35.5 
L 73.1875 35.5 
L 73.1875 27.203125 
L 10.59375 27.203125 
z
" id="DejaVuSans-8722"/>
       <path d="M 12.40625 8.296875 
L 28.515625 8.296875 
L 28.515625 63.921875 
L 10.984375 60.40625 
L 10.984375 69.390625 
L 28.421875 72.90625 
L 38.28125 72.90625 
L 38.28125 8.296875 
L 54.390625 8.296875 
L 54.390625 0 
L 12.40625 0 
z
" id="DejaVuSans-49"/>
       <path d="M 10.796875 72.90625 
L 49.515625 72.90625 
L 49.515625 64.59375 
L 19.828125 64.59375 
L 19.828125 46.734375 
Q 21.96875 47.46875 24.109375 47.828125 
Q 26.265625 48.1875 28.421875 48.1875 
Q 40.625 48.1875 47.75 41.5 
Q 54.890625 34.8125 54.890625 23.390625 
Q 54.890625 11.625 47.5625 5.09375 
Q 40.234375 -1.421875 26.90625 -1.421875 
Q 22.3125 -1.421875 17.546875 -0.640625 
Q 12.796875 0.140625 7.71875 1.703125 
L 7.71875 11.625 
Q 12.109375 9.234375 16.796875 8.0625 
Q 21.484375 6.890625 26.703125 6.890625 
Q 35.15625 6.890625 40.078125 11.328125 
Q 45.015625 15.765625 45.015625 23.390625 
Q 45.015625 31 40.078125 35.4375 
Q 35.15625 39.890625 26.703125 39.890625 
Q 22.75 39.890625 18.8125 39.015625 
Q 14.890625 38.140625 10.796875 36.28125 
z
" id="DejaVuSans-53"/>
      </defs>
      <g transform="translate(143.592941 399.078438)scale(0.1 -0.1)">
       <use xlink:href="#DejaVuSans-8722"/>
       <use x="83.789062" xlink:href="#DejaVuSans-49"/>
       <use x="147.412109" xlink:href="#DejaVuSans-53"/>
      </g>
     </g>
    </g>
    <g id="xtick_2">
     <g id="line2d_2">
      <g>
       <use style="stroke:#000000;stroke-width:0.8;" x="236.761082" xlink:href="#mc176401600" y="384.48"/>
      </g>
     </g>
     <g id="text_2">
      <!-- −10 -->
      <defs>
       <path d="M 31.78125 66.40625 
Q 24.171875 66.40625 20.328125 58.90625 
Q 16.5 51.421875 16.5 36.375 
Q 16.5 21.390625 20.328125 13.890625 
Q 24.171875 6.390625 31.78125 6.390625 
Q 39.453125 6.390625 43.28125 13.890625 
Q 47.125 21.390625 47.125 36.375 
Q 47.125 51.421875 43.28125 58.90625 
Q 39.453125 66.40625 31.78125 66.40625 
z
M 31.78125 74.21875 
Q 44.046875 74.21875 50.515625 64.515625 
Q 56.984375 54.828125 56.984375 36.375 
Q 56.984375 17.96875 50.515625 8.265625 
Q 44.046875 -1.421875 31.78125 -1.421875 
Q 19.53125 -1.421875 13.0625 8.265625 
Q 6.59375 17.96875 6.59375 36.375 
Q 6.59375 54.828125 13.0625 64.515625 
Q 19.53125 74.21875 31.78125 74.21875 
z
" id="DejaVuSans-48"/>
      </defs>
      <g transform="translate(226.208738 399.078438)scale(0.1 -0.1)">
       <use xlink:href="#DejaVuSans-8722"/>
       <use x="83.789062" xlink:href="#DejaVuSans-49"/>
       <use x="147.412109" xlink:href="#DejaVuSans-48"/>
      </g>
     </g>
    </g>
    <g id="xtick_3">
     <g id="line2d_3">
      <g>
       <use style="stroke:#000000;stroke-width:0.8;" x="319.376879" xlink:href="#mc176401600" y="384.48"/>
      </g>
     </g>
     <g id="text_3">
      <!-- −5 -->
      <g transform="translate(312.005785 399.078438)scale(0.1 -0.1)">
       <use xlink:href="#DejaVuSans-8722"/>
       <use x="83.789062" xlink:href="#DejaVuSans-53"/>
      </g>
     </g>
    </g>
    <g id="xtick_4">
     <g id="line2d_4">
      <g>
       <use style="stroke:#000000;stroke-width:0.8;" x="401.992676" xlink:href="#mc176401600" y="384.48"/>
      </g>
     </g>
     <g id="text_4">
      <!-- 0 -->
      <g transform="translate(398.811426 399.078438)scale(0.1 -0.1)">
       <use xlink:href="#DejaVuSans-48"/>
      </g>
     </g>
    </g>
    <g id="xtick_5">
     <g id="line2d_5">
      <g>
       <use style="stroke:#000000;stroke-width:0.8;" x="484.608474" xlink:href="#mc176401600" y="384.48"/>
      </g>
     </g>
     <g id="text_5">
      <!-- 5 -->
      <g transform="translate(481.427224 399.078438)scale(0.1 -0.1)">
       <use xlink:href="#DejaVuSans-53"/>
      </g>
     </g>
    </g>
    <g id="xtick_6">
     <g id="line2d_6">
      <g>
       <use style="stroke:#000000;stroke-width:0.8;" x="567.224271" xlink:href="#mc176401600" y="384.48"/>
      </g>
     </g>
     <g id="text_6">
      <!-- 10 -->
      <g transform="translate(560.861771 399.078438)scale(0.1 -0.1)">
       <use xlink:href="#DejaVuSans-49"/>
       <use x="63.623047" xlink:href="#DejaVuSans-48"/>
      </g>
     </g>
    </g>
    <g id="text_7">
     <!-- tSNE-1 -->
     <defs>
      <path d="M 18.3125 70.21875 
L 18.3125 54.6875 
L 36.8125 54.6875 
L 36.8125 47.703125 
L 18.3125 47.703125 
L 18.3125 18.015625 
Q 18.3125 11.328125 20.140625 9.421875 
Q 21.96875 7.515625 27.59375 7.515625 
L 36.8125 7.515625 
L 36.8125 0 
L 27.59375 0 
Q 17.1875 0 13.234375 3.875 
Q 9.28125 7.765625 9.28125 18.015625 
L 9.28125 47.703125 
L 2.6875 47.703125 
L 2.6875 54.6875 
L 9.28125 54.6875 
L 9.28125 70.21875 
z
" id="DejaVuSans-116"/>
      <path d="M 53.515625 70.515625 
L 53.515625 60.890625 
Q 47.90625 63.578125 42.921875 64.890625 
Q 37.9375 66.21875 33.296875 66.21875 
Q 25.25 66.21875 20.875 63.09375 
Q 16.5 59.96875 16.5 54.203125 
Q 16.5 49.359375 19.40625 46.890625 
Q 22.3125 44.4375 30.421875 42.921875 
L 36.375 41.703125 
Q 47.40625 39.59375 52.65625 34.296875 
Q 57.90625 29 57.90625 20.125 
Q 57.90625 9.515625 50.796875 4.046875 
Q 43.703125 -1.421875 29.984375 -1.421875 
Q 24.8125 -1.421875 18.96875 -0.25 
Q 13.140625 0.921875 6.890625 3.21875 
L 6.890625 13.375 
Q 12.890625 10.015625 18.65625 8.296875 
Q 24.421875 6.59375 29.984375 6.59375 
Q 38.421875 6.59375 43.015625 9.90625 
Q 47.609375 13.234375 47.609375 19.390625 
Q 47.609375 24.75 44.3125 27.78125 
Q 41.015625 30.8125 33.5 32.328125 
L 27.484375 33.5 
Q 16.453125 35.6875 11.515625 40.375 
Q 6.59375 45.0625 6.59375 53.421875 
Q 6.59375 63.09375 13.40625 68.65625 
Q 20.21875 74.21875 32.171875 74.21875 
Q 37.3125 74.21875 42.625 73.28125 
Q 47.953125 72.359375 53.515625 70.515625 
z
" id="DejaVuSans-83"/>
      <path d="M 9.8125 72.90625 
L 23.09375 72.90625 
L 55.421875 11.921875 
L 55.421875 72.90625 
L 64.984375 72.90625 
L 64.984375 0 
L 51.703125 0 
L 19.390625 60.984375 
L 19.390625 0 
L 9.8125 0 
z
" id="DejaVuSans-78"/>
      <path d="M 9.8125 72.90625 
L 55.90625 72.90625 
L 55.90625 64.59375 
L 19.671875 64.59375 
L 19.671875 43.015625 
L 54.390625 43.015625 
L 54.390625 34.71875 
L 19.671875 34.71875 
L 19.671875 8.296875 
L 56.78125 8.296875 
L 56.78125 0 
L 9.8125 0 
z
" id="DejaVuSans-69"/>
      <path d="M 4.890625 31.390625 
L 31.203125 31.390625 
L 31.203125 23.390625 
L 4.890625 23.390625 
z
" id="DejaVuSans-45"/>
     </defs>
     <g transform="translate(351.980469 412.756563)scale(0.1 -0.1)">
      <use xlink:href="#DejaVuSans-116"/>
      <use x="39.208984" xlink:href="#DejaVuSans-83"/>
      <use x="102.685547" xlink:href="#DejaVuSans-78"/>
      <use x="177.490234" xlink:href="#DejaVuSans-69"/>
      <use x="240.673828" xlink:href="#DejaVuSans-45"/>
      <use x="276.757812" xlink:href="#DejaVuSans-49"/>
     </g>
    </g>
   </g>
   <g id="matplotlib.axis_2">
    <g id="ytick_1">
     <g id="line2d_7">
      <defs>
       <path d="M 0 0 
L -3.5 0 
" id="me5b4a04387" style="stroke:#000000;stroke-width:0.8;"/>
      </defs>
      <g>
       <use style="stroke:#000000;stroke-width:0.8;" x="90" xlink:href="#me5b4a04387" y="374.266491"/>
      </g>
     </g>
     <g id="text_8">
      <!-- −15 -->
      <g transform="translate(61.895313 378.065709)scale(0.1 -0.1)">
       <use xlink:href="#DejaVuSans-8722"/>
       <use x="83.789062" xlink:href="#DejaVuSans-49"/>
       <use x="147.412109" xlink:href="#DejaVuSans-53"/>
      </g>
     </g>
    </g>
    <g id="ytick_2">
     <g id="line2d_8">
      <g>
       <use style="stroke:#000000;stroke-width:0.8;" x="90" xlink:href="#me5b4a04387" y="322.409315"/>
      </g>
     </g>
     <g id="text_9">
      <!-- −10 -->
      <g transform="translate(61.895313 326.208534)scale(0.1 -0.1)">
       <use xlink:href="#DejaVuSans-8722"/>
       <use x="83.789062" xlink:href="#DejaVuSans-49"/>
       <use x="147.412109" xlink:href="#DejaVuSans-48"/>
      </g>
     </g>
    </g>
    <g id="ytick_3">
     <g id="line2d_9">
      <g>
       <use style="stroke:#000000;stroke-width:0.8;" x="90" xlink:href="#me5b4a04387" y="270.552139"/>
      </g>
     </g>
     <g id="text_10">
      <!-- −5 -->
      <g transform="translate(68.257812 274.351358)scale(0.1 -0.1)">
       <use xlink:href="#DejaVuSans-8722"/>
       <use x="83.789062" xlink:href="#DejaVuSans-53"/>
      </g>
     </g>
    </g>
    <g id="ytick_4">
     <g id="line2d_10">
      <g>
       <use style="stroke:#000000;stroke-width:0.8;" x="90" xlink:href="#me5b4a04387" y="218.694964"/>
      </g>
     </g>
     <g id="text_11">
      <!-- 0 -->
      <g transform="translate(76.6375 222.494183)scale(0.1 -0.1)">
       <use xlink:href="#DejaVuSans-48"/>
      </g>
     </g>
    </g>
    <g id="ytick_5">
     <g id="line2d_11">
      <g>
       <use style="stroke:#000000;stroke-width:0.8;" x="90" xlink:href="#me5b4a04387" y="166.837788"/>
      </g>
     </g>
     <g id="text_12">
      <!-- 5 -->
      <g transform="translate(76.6375 170.637007)scale(0.1 -0.1)">
       <use xlink:href="#DejaVuSans-53"/>
      </g>
     </g>
    </g>
    <g id="ytick_6">
     <g id="line2d_12">
      <g>
       <use style="stroke:#000000;stroke-width:0.8;" x="90" xlink:href="#me5b4a04387" y="114.980613"/>
      </g>
     </g>
     <g id="text_13">
      <!-- 10 -->
      <g transform="translate(70.275 118.779831)scale(0.1 -0.1)">
       <use xlink:href="#DejaVuSans-49"/>
       <use x="63.623047" xlink:href="#DejaVuSans-48"/>
      </g>
     </g>
    </g>
    <g id="ytick_7">
     <g id="line2d_13">
      <g>
       <use style="stroke:#000000;stroke-width:0.8;" x="90" xlink:href="#me5b4a04387" y="63.123437"/>
      </g>
     </g>
     <g id="text_14">
      <!-- 15 -->
      <g transform="translate(70.275 66.922656)scale(0.1 -0.1)">
       <use xlink:href="#DejaVuSans-49"/>
       <use x="63.623047" xlink:href="#DejaVuSans-53"/>
      </g>
     </g>
    </g>
    <g id="text_15">
     <!-- tSNE-2 -->
     <defs>
      <path d="M 19.1875 8.296875 
L 53.609375 8.296875 
L 53.609375 0 
L 7.328125 0 
L 7.328125 8.296875 
Q 12.9375 14.109375 22.625 23.890625 
Q 32.328125 33.6875 34.8125 36.53125 
Q 39.546875 41.84375 41.421875 45.53125 
Q 43.3125 49.21875 43.3125 52.78125 
Q 43.3125 58.59375 39.234375 62.25 
Q 35.15625 65.921875 28.609375 65.921875 
Q 23.96875 65.921875 18.8125 64.3125 
Q 13.671875 62.703125 7.8125 59.421875 
L 7.8125 69.390625 
Q 13.765625 71.78125 18.9375 73 
Q 24.125 74.21875 28.421875 74.21875 
Q 39.75 74.21875 46.484375 68.546875 
Q 53.21875 62.890625 53.21875 53.421875 
Q 53.21875 48.921875 51.53125 44.890625 
Q 49.859375 40.875 45.40625 35.40625 
Q 44.1875 33.984375 37.640625 27.21875 
Q 31.109375 20.453125 19.1875 8.296875 
z
" id="DejaVuSans-50"/>
     </defs>
     <g transform="translate(55.815625 235.179531)rotate(-90)scale(0.1 -0.1)">
      <use xlink:href="#DejaVuSans-116"/>
      <use x="39.208984" xlink:href="#DejaVuSans-83"/>
      <use x="102.685547" xlink:href="#DejaVuSans-78"/>
      <use x="177.490234" xlink:href="#DejaVuSans-69"/>
      <use x="240.673828" xlink:href="#DejaVuSans-45"/>
      <use x="276.757812" xlink:href="#DejaVuSans-50"/>
     </g>
    </g>
   </g>
   <g id="patch_3">
    <path d="M 90 384.48 
L 90 51.84 
" style="fill:none;stroke:#000000;stroke-linecap:square;stroke-linejoin:miter;stroke-width:0.8;"/>
   </g>
   <g id="patch_4">
    <path d="M 648 384.48 
L 648 51.84 
" style="fill:none;stroke:#000000;stroke-linecap:square;stroke-linejoin:miter;stroke-width:0.8;"/>
   </g>
   <g id="patch_5">
    <path d="M 90 384.48 
L 648 384.48 
" style="fill:none;stroke:#000000;stroke-linecap:square;stroke-linejoin:miter;stroke-width:0.8;"/>
   </g>
   <g id="patch_6">
    <path d="M 90 51.84 
L 648 51.84 
" style="fill:none;stroke:#000000;stroke-linecap:square;stroke-linejoin:miter;stroke-width:0.8;"/>
   </g>
   <g id="legend_1">
    <g id="patch_7">
     <path d="M 563.125 89.19625 
L 641 89.19625 
Q 643 89.19625 643 87.19625 
L 643 58.84 
Q 643 56.84 641 56.84 
L 563.125 56.84 
Q 561.125 56.84 561.125 58.84 
L 561.125 87.19625 
Q 561.125 89.19625 563.125 89.19625 
z
" style="fill:#ffffff;opacity:0.8;stroke:#cccccc;stroke-linejoin:miter;"/>
    </g>
    <g id="PathCollection_3">
     <g>
      <use style="fill:#00bfc4;stroke:#00bfc4;" x="575.125" xlink:href="#mc2c2ba89d1" y="65.813437"/>
     </g>
    </g>
    <g id="text_16">
     <!-- D006262 -->
     <defs>
      <path d="M 19.671875 64.796875 
L 19.671875 8.109375 
L 31.59375 8.109375 
Q 46.6875 8.109375 53.6875 14.9375 
Q 60.6875 21.78125 60.6875 36.53125 
Q 60.6875 51.171875 53.6875 57.984375 
Q 46.6875 64.796875 31.59375 64.796875 
z
M 9.8125 72.90625 
L 30.078125 72.90625 
Q 51.265625 72.90625 61.171875 64.09375 
Q 71.09375 55.28125 71.09375 36.53125 
Q 71.09375 17.671875 61.125 8.828125 
Q 51.171875 0 30.078125 0 
L 9.8125 0 
z
" id="DejaVuSans-68"/>
      <path d="M 33.015625 40.375 
Q 26.375 40.375 22.484375 35.828125 
Q 18.609375 31.296875 18.609375 23.390625 
Q 18.609375 15.53125 22.484375 10.953125 
Q 26.375 6.390625 33.015625 6.390625 
Q 39.65625 6.390625 43.53125 10.953125 
Q 47.40625 15.53125 47.40625 23.390625 
Q 47.40625 31.296875 43.53125 35.828125 
Q 39.65625 40.375 33.015625 40.375 
z
M 52.59375 71.296875 
L 52.59375 62.3125 
Q 48.875 64.0625 45.09375 64.984375 
Q 41.3125 65.921875 37.59375 65.921875 
Q 27.828125 65.921875 22.671875 59.328125 
Q 17.53125 52.734375 16.796875 39.40625 
Q 19.671875 43.65625 24.015625 45.921875 
Q 28.375 48.1875 33.59375 48.1875 
Q 44.578125 48.1875 50.953125 41.515625 
Q 57.328125 34.859375 57.328125 23.390625 
Q 57.328125 12.15625 50.6875 5.359375 
Q 44.046875 -1.421875 33.015625 -1.421875 
Q 20.359375 -1.421875 13.671875 8.265625 
Q 6.984375 17.96875 6.984375 36.375 
Q 6.984375 53.65625 15.1875 63.9375 
Q 23.390625 74.21875 37.203125 74.21875 
Q 40.921875 74.21875 44.703125 73.484375 
Q 48.484375 72.75 52.59375 71.296875 
z
" id="DejaVuSans-54"/>
     </defs>
     <g transform="translate(593.125 68.438437)scale(0.1 -0.1)">
      <use xlink:href="#DejaVuSans-68"/>
      <use x="77.001953" xlink:href="#DejaVuSans-48"/>
      <use x="140.625" xlink:href="#DejaVuSans-48"/>
      <use x="204.248047" xlink:href="#DejaVuSans-54"/>
      <use x="267.871094" xlink:href="#DejaVuSans-50"/>
      <use x="331.494141" xlink:href="#DejaVuSans-54"/>
      <use x="395.117188" xlink:href="#DejaVuSans-50"/>
     </g>
    </g>
    <g id="PathCollection_4">
     <g>
      <use style="fill:#f8766d;stroke:#f8766d;" x="575.125" xlink:href="#m3653f7f835" y="80.491562"/>
     </g>
    </g>
    <g id="text_17">
     <!-- D008171 -->
     <defs>
      <path d="M 31.78125 34.625 
Q 24.75 34.625 20.71875 30.859375 
Q 16.703125 27.09375 16.703125 20.515625 
Q 16.703125 13.921875 20.71875 10.15625 
Q 24.75 6.390625 31.78125 6.390625 
Q 38.8125 6.390625 42.859375 10.171875 
Q 46.921875 13.96875 46.921875 20.515625 
Q 46.921875 27.09375 42.890625 30.859375 
Q 38.875 34.625 31.78125 34.625 
z
M 21.921875 38.8125 
Q 15.578125 40.375 12.03125 44.71875 
Q 8.5 49.078125 8.5 55.328125 
Q 8.5 64.0625 14.71875 69.140625 
Q 20.953125 74.21875 31.78125 74.21875 
Q 42.671875 74.21875 48.875 69.140625 
Q 55.078125 64.0625 55.078125 55.328125 
Q 55.078125 49.078125 51.53125 44.71875 
Q 48 40.375 41.703125 38.8125 
Q 48.828125 37.15625 52.796875 32.3125 
Q 56.78125 27.484375 56.78125 20.515625 
Q 56.78125 9.90625 50.3125 4.234375 
Q 43.84375 -1.421875 31.78125 -1.421875 
Q 19.734375 -1.421875 13.25 4.234375 
Q 6.78125 9.90625 6.78125 20.515625 
Q 6.78125 27.484375 10.78125 32.3125 
Q 14.796875 37.15625 21.921875 38.8125 
z
M 18.3125 54.390625 
Q 18.3125 48.734375 21.84375 45.5625 
Q 25.390625 42.390625 31.78125 42.390625 
Q 38.140625 42.390625 41.71875 45.5625 
Q 45.3125 48.734375 45.3125 54.390625 
Q 45.3125 60.0625 41.71875 63.234375 
Q 38.140625 66.40625 31.78125 66.40625 
Q 25.390625 66.40625 21.84375 63.234375 
Q 18.3125 60.0625 18.3125 54.390625 
z
" id="DejaVuSans-56"/>
      <path d="M 8.203125 72.90625 
L 55.078125 72.90625 
L 55.078125 68.703125 
L 28.609375 0 
L 18.3125 0 
L 43.21875 64.59375 
L 8.203125 64.59375 
z
" id="DejaVuSans-55"/>
     </defs>
     <g transform="translate(593.125 83.116562)scale(0.1 -0.1)">
      <use xlink:href="#DejaVuSans-68"/>
      <use x="77.001953" xlink:href="#DejaVuSans-48"/>
      <use x="140.625" xlink:href="#DejaVuSans-48"/>
      <use x="204.248047" xlink:href="#DejaVuSans-56"/>
      <use x="267.871094" xlink:href="#DejaVuSans-49"/>
      <use x="331.494141" xlink:href="#DejaVuSans-55"/>
      <use x="395.117188" xlink:href="#DejaVuSans-49"/>
     </g>
    </g>
   </g>
  </g>
 </g>
 <defs>
  <clipPath id="p0f7bb3e457">
   <rect height="332.64" width="558" x="90" y="51.84"/>
  </clipPath>
 </defs>
</svg>
