<?xml version="1.0" encoding="utf-8" standalone="no"?>
<!DOCTYPE svg PUBLIC "-//W3C//DTD SVG 1.1//EN"
  "http://www.w3.org/Graphics/SVG/1.1/DTD/svg11.dtd">
<!-- Created with matplotlib (https://matplotlib.org/) -->
<svg height="432pt" version="1.1" viewBox="0 0 720 432" width="720pt" xmlns="http://www.w3.org/2000/svg" xmlns:xlink="http://www.w3.org/1999/xlink">
 <defs>
  <style type="text/css">
*{stroke-linecap:butt;stroke-linejoin:round;}
  </style>
 </defs>
 <g id="figure_1">
  <g id="patch_1">
   <path d="M 0 432 
L 720 432 
L 720 0 
L 0 0 
z
" style="fill:#ffffff;"/>
  </g>
  <g id="axes_1">
   <g id="patch_2">
    <path d="M 90 384.48 
L 648 384.48 
L 648 51.84 
L 90 51.84 
z
" style="fill:#ffffff;"/>
   </g>
   <g id="PathCollection_1">
    <defs>
     <path d="M 0 3 
C 0.795609 3 1.55874 2.683901 2.12132 2.12132 
C 2.683901 1.55874 3 0.795609 3 0 
C 3 -0.795609 2.683901 -1.55874 2.12132 -2.12132 
C 1.55874 -2.683901 0.795609 -3 0 -3 
C -0.795609 -3 -1.55874 -2.683901 -2.12132 -2.12132 
C -2.683901 -1.55874 -3 -0.795609 -3 0 
C -3 0.795609 -2.683901 1.55874 -2.12132 2.12132 
C -1.55874 2.683901 -0.795609 3 0 3 
z
" id="mb5ca392365" style="stroke:#00bfc4;"/>
    </defs>
    <g clip-path="url(#p7a893c7654)">
     <use style="fill:#00bfc4;stroke:#00bfc4;" x="271.113813" xlink:href="#mb5ca392365" y="162.858332"/>
     <use style="fill:#00bfc4;stroke:#00bfc4;" x="217.221932" xlink:href="#mb5ca392365" y="93.610061"/>
     <use style="fill:#00bfc4;stroke:#00bfc4;" x="342.530445" xlink:href="#mb5ca392365" y="161.130341"/>
     <use style="fill:#00bfc4;stroke:#00bfc4;" x="331.653473" xlink:href="#mb5ca392365" y="118.637422"/>
     <use style="fill:#00bfc4;stroke:#00bfc4;" x="359.572603" xlink:href="#mb5ca392365" y="155.683612"/>
     <use style="fill:#00bfc4;stroke:#00bfc4;" x="319.123304" xlink:href="#mb5ca392365" y="67.0178"/>
     <use style="fill:#00bfc4;stroke:#00bfc4;" x="435.008605" xlink:href="#mb5ca392365" y="122.230678"/>
     <use style="fill:#00bfc4;stroke:#00bfc4;" x="346.218944" xlink:href="#mb5ca392365" y="146.686907"/>
     <use style="fill:#00bfc4;stroke:#00bfc4;" x="352.151597" xlink:href="#mb5ca392365" y="150.933765"/>
     <use style="fill:#00bfc4;stroke:#00bfc4;" x="355.921059" xlink:href="#mb5ca392365" y="143.938261"/>
     <use style="fill:#00bfc4;stroke:#00bfc4;" x="191.592055" xlink:href="#mb5ca392365" y="140.458539"/>
     <use style="fill:#00bfc4;stroke:#00bfc4;" x="340.253598" xlink:href="#mb5ca392365" y="152.510059"/>
     <use style="fill:#00bfc4;stroke:#00bfc4;" x="347.843644" xlink:href="#mb5ca392365" y="145.102228"/>
     <use style="fill:#00bfc4;stroke:#00bfc4;" x="306.956832" xlink:href="#mb5ca392365" y="92.391557"/>
     <use style="fill:#00bfc4;stroke:#00bfc4;" x="307.452983" xlink:href="#mb5ca392365" y="159.732746"/>
     <use style="fill:#00bfc4;stroke:#00bfc4;" x="235.18671" xlink:href="#mb5ca392365" y="146.153239"/>
     <use style="fill:#00bfc4;stroke:#00bfc4;" x="300.129418" xlink:href="#mb5ca392365" y="196.989543"/>
     <use style="fill:#00bfc4;stroke:#00bfc4;" x="263.728509" xlink:href="#mb5ca392365" y="139.374166"/>
     <use style="fill:#00bfc4;stroke:#00bfc4;" x="297.355683" xlink:href="#mb5ca392365" y="189.487591"/>
     <use style="fill:#00bfc4;stroke:#00bfc4;" x="450.928336" xlink:href="#mb5ca392365" y="243.166652"/>
     <use style="fill:#00bfc4;stroke:#00bfc4;" x="221.393712" xlink:href="#mb5ca392365" y="235.65076"/>
     <use style="fill:#00bfc4;stroke:#00bfc4;" x="528.690702" xlink:href="#mb5ca392365" y="277.879156"/>
     <use style="fill:#00bfc4;stroke:#00bfc4;" x="395.120293" xlink:href="#mb5ca392365" y="229.390828"/>
     <use style="fill:#00bfc4;stroke:#00bfc4;" x="404.441245" xlink:href="#mb5ca392365" y="178.409874"/>
     <use style="fill:#00bfc4;stroke:#00bfc4;" x="355.267526" xlink:href="#mb5ca392365" y="327.058122"/>
     <use style="fill:#00bfc4;stroke:#00bfc4;" x="408.458369" xlink:href="#mb5ca392365" y="332.355564"/>
     <use style="fill:#00bfc4;stroke:#00bfc4;" x="389.30608" xlink:href="#mb5ca392365" y="227.501619"/>
     <use style="fill:#00bfc4;stroke:#00bfc4;" x="454.49916" xlink:href="#mb5ca392365" y="275.553324"/>
     <use style="fill:#00bfc4;stroke:#00bfc4;" x="475.389452" xlink:href="#mb5ca392365" y="328.061013"/>
     <use style="fill:#00bfc4;stroke:#00bfc4;" x="461.521672" xlink:href="#mb5ca392365" y="369.3022"/>
     <use style="fill:#00bfc4;stroke:#00bfc4;" x="294.898596" xlink:href="#mb5ca392365" y="358.105199"/>
     <use style="fill:#00bfc4;stroke:#00bfc4;" x="118.128043" xlink:href="#mb5ca392365" y="200.132328"/>
     <use style="fill:#00bfc4;stroke:#00bfc4;" x="381.625054" xlink:href="#mb5ca392365" y="222.730205"/>
     <use style="fill:#00bfc4;stroke:#00bfc4;" x="349.938943" xlink:href="#mb5ca392365" y="178.221668"/>
     <use style="fill:#00bfc4;stroke:#00bfc4;" x="427.926851" xlink:href="#mb5ca392365" y="145.165737"/>
     <use style="fill:#00bfc4;stroke:#00bfc4;" x="219.779233" xlink:href="#mb5ca392365" y="236.183741"/>
     <use style="fill:#00bfc4;stroke:#00bfc4;" x="342.804566" xlink:href="#mb5ca392365" y="308.507364"/>
     <use style="fill:#00bfc4;stroke:#00bfc4;" x="153.293023" xlink:href="#mb5ca392365" y="169.940858"/>
     <use style="fill:#00bfc4;stroke:#00bfc4;" x="371.107037" xlink:href="#mb5ca392365" y="111.257122"/>
     <use style="fill:#00bfc4;stroke:#00bfc4;" x="278.86912" xlink:href="#mb5ca392365" y="280.406772"/>
     <use style="fill:#00bfc4;stroke:#00bfc4;" x="302.622977" xlink:href="#mb5ca392365" y="238.867282"/>
     <use style="fill:#00bfc4;stroke:#00bfc4;" x="355.637869" xlink:href="#mb5ca392365" y="258.987502"/>
     <use style="fill:#00bfc4;stroke:#00bfc4;" x="460.022346" xlink:href="#mb5ca392365" y="161.95631"/>
     <use style="fill:#00bfc4;stroke:#00bfc4;" x="278.854963" xlink:href="#mb5ca392365" y="270.783287"/>
     <use style="fill:#00bfc4;stroke:#00bfc4;" x="175.498356" xlink:href="#mb5ca392365" y="242.696907"/>
     <use style="fill:#00bfc4;stroke:#00bfc4;" x="488.219009" xlink:href="#mb5ca392365" y="256.169138"/>
     <use style="fill:#00bfc4;stroke:#00bfc4;" x="392.973072" xlink:href="#mb5ca392365" y="353.086345"/>
     <use style="fill:#00bfc4;stroke:#00bfc4;" x="210.073892" xlink:href="#mb5ca392365" y="190.024195"/>
     <use style="fill:#00bfc4;stroke:#00bfc4;" x="434.183174" xlink:href="#mb5ca392365" y="268.371953"/>
     <use style="fill:#00bfc4;stroke:#00bfc4;" x="581.774618" xlink:href="#mb5ca392365" y="284.410047"/>
     <use style="fill:#00bfc4;stroke:#00bfc4;" x="362.362204" xlink:href="#mb5ca392365" y="80.020709"/>
     <use style="fill:#00bfc4;stroke:#00bfc4;" x="239.744599" xlink:href="#mb5ca392365" y="206.533764"/>
     <use style="fill:#00bfc4;stroke:#00bfc4;" x="417.156556" xlink:href="#mb5ca392365" y="224.477902"/>
     <use style="fill:#00bfc4;stroke:#00bfc4;" x="273.113306" xlink:href="#mb5ca392365" y="196.28461"/>
     <use style="fill:#00bfc4;stroke:#00bfc4;" x="363.274153" xlink:href="#mb5ca392365" y="145.374594"/>
     <use style="fill:#00bfc4;stroke:#00bfc4;" x="376.89193" xlink:href="#mb5ca392365" y="166.592543"/>
     <use style="fill:#00bfc4;stroke:#00bfc4;" x="407.947128" xlink:href="#mb5ca392365" y="189.602958"/>
     <use style="fill:#00bfc4;stroke:#00bfc4;" x="358.630237" xlink:href="#mb5ca392365" y="119.202083"/>
     <use style="fill:#00bfc4;stroke:#00bfc4;" x="572.603845" xlink:href="#mb5ca392365" y="203.025227"/>
     <use style="fill:#00bfc4;stroke:#00bfc4;" x="315.726641" xlink:href="#mb5ca392365" y="195.287894"/>
     <use style="fill:#00bfc4;stroke:#00bfc4;" x="338.658502" xlink:href="#mb5ca392365" y="336.895897"/>
     <use style="fill:#00bfc4;stroke:#00bfc4;" x="402.453602" xlink:href="#mb5ca392365" y="293.467366"/>
     <use style="fill:#00bfc4;stroke:#00bfc4;" x="319.121195" xlink:href="#mb5ca392365" y="231.136331"/>
     <use style="fill:#00bfc4;stroke:#00bfc4;" x="394.25969" xlink:href="#mb5ca392365" y="278.769003"/>
     <use style="fill:#00bfc4;stroke:#00bfc4;" x="211.192731" xlink:href="#mb5ca392365" y="225.228535"/>
     <use style="fill:#00bfc4;stroke:#00bfc4;" x="383.995326" xlink:href="#mb5ca392365" y="300.554427"/>
     <use style="fill:#00bfc4;stroke:#00bfc4;" x="397.032876" xlink:href="#mb5ca392365" y="157.357388"/>
     <use style="fill:#00bfc4;stroke:#00bfc4;" x="276.424518" xlink:href="#mb5ca392365" y="266.27007"/>
     <use style="fill:#00bfc4;stroke:#00bfc4;" x="611.999551" xlink:href="#mb5ca392365" y="212.004355"/>
     <use style="fill:#00bfc4;stroke:#00bfc4;" x="461.645232" xlink:href="#mb5ca392365" y="291.746277"/>
     <use style="fill:#00bfc4;stroke:#00bfc4;" x="194.790114" xlink:href="#mb5ca392365" y="224.938619"/>
     <use style="fill:#00bfc4;stroke:#00bfc4;" x="337.608212" xlink:href="#mb5ca392365" y="357.801643"/>
     <use style="fill:#00bfc4;stroke:#00bfc4;" x="475.617351" xlink:href="#mb5ca392365" y="118.183686"/>
     <use style="fill:#00bfc4;stroke:#00bfc4;" x="339.193431" xlink:href="#mb5ca392365" y="283.574091"/>
     <use style="fill:#00bfc4;stroke:#00bfc4;" x="461.724202" xlink:href="#mb5ca392365" y="368.965292"/>
     <use style="fill:#00bfc4;stroke:#00bfc4;" x="369.686026" xlink:href="#mb5ca392365" y="193.174049"/>
     <use style="fill:#00bfc4;stroke:#00bfc4;" x="541.009274" xlink:href="#mb5ca392365" y="229.933597"/>
     <use style="fill:#00bfc4;stroke:#00bfc4;" x="565.409745" xlink:href="#mb5ca392365" y="186.818836"/>
     <use style="fill:#00bfc4;stroke:#00bfc4;" x="406.827586" xlink:href="#mb5ca392365" y="241.476987"/>
     <use style="fill:#00bfc4;stroke:#00bfc4;" x="482.20039" xlink:href="#mb5ca392365" y="229.662138"/>
     <use style="fill:#00bfc4;stroke:#00bfc4;" x="544.374307" xlink:href="#mb5ca392365" y="227.087704"/>
     <use style="fill:#00bfc4;stroke:#00bfc4;" x="560.347948" xlink:href="#mb5ca392365" y="142.785902"/>
     <use style="fill:#00bfc4;stroke:#00bfc4;" x="540.316127" xlink:href="#mb5ca392365" y="288.470952"/>
     <use style="fill:#00bfc4;stroke:#00bfc4;" x="397.171763" xlink:href="#mb5ca392365" y="353.319572"/>
     <use style="fill:#00bfc4;stroke:#00bfc4;" x="590.088423" xlink:href="#mb5ca392365" y="265.262378"/>
     <use style="fill:#00bfc4;stroke:#00bfc4;" x="493.408947" xlink:href="#mb5ca392365" y="217.664031"/>
     <use style="fill:#00bfc4;stroke:#00bfc4;" x="590.040124" xlink:href="#mb5ca392365" y="242.258708"/>
     <use style="fill:#00bfc4;stroke:#00bfc4;" x="323.001597" xlink:href="#mb5ca392365" y="333.70126"/>
     <use style="fill:#00bfc4;stroke:#00bfc4;" x="290.551295" xlink:href="#mb5ca392365" y="318.830095"/>
     <use style="fill:#00bfc4;stroke:#00bfc4;" x="268.899101" xlink:href="#mb5ca392365" y="300.65266"/>
     <use style="fill:#00bfc4;stroke:#00bfc4;" x="230.93191" xlink:href="#mb5ca392365" y="220.190445"/>
     <use style="fill:#00bfc4;stroke:#00bfc4;" x="475.902353" xlink:href="#mb5ca392365" y="347.052645"/>
     <use style="fill:#00bfc4;stroke:#00bfc4;" x="430.331255" xlink:href="#mb5ca392365" y="196.135261"/>
     <use style="fill:#00bfc4;stroke:#00bfc4;" x="446.390972" xlink:href="#mb5ca392365" y="309.03999"/>
     <use style="fill:#00bfc4;stroke:#00bfc4;" x="173.505588" xlink:href="#mb5ca392365" y="142.904523"/>
     <use style="fill:#00bfc4;stroke:#00bfc4;" x="519.806253" xlink:href="#mb5ca392365" y="318.35222"/>
     <use style="fill:#00bfc4;stroke:#00bfc4;" x="405.313343" xlink:href="#mb5ca392365" y="238.933624"/>
     <use style="fill:#00bfc4;stroke:#00bfc4;" x="243.467437" xlink:href="#mb5ca392365" y="251.718772"/>
     <use style="fill:#00bfc4;stroke:#00bfc4;" x="387.959546" xlink:href="#mb5ca392365" y="256.595377"/>
     <use style="fill:#00bfc4;stroke:#00bfc4;" x="189.150155" xlink:href="#mb5ca392365" y="242.638101"/>
     <use style="fill:#00bfc4;stroke:#00bfc4;" x="251.2794" xlink:href="#mb5ca392365" y="319.549281"/>
     <use style="fill:#00bfc4;stroke:#00bfc4;" x="541.510196" xlink:href="#mb5ca392365" y="219.642273"/>
     <use style="fill:#00bfc4;stroke:#00bfc4;" x="313.725996" xlink:href="#mb5ca392365" y="207.771428"/>
     <use style="fill:#00bfc4;stroke:#00bfc4;" x="163.998777" xlink:href="#mb5ca392365" y="225.759091"/>
     <use style="fill:#00bfc4;stroke:#00bfc4;" x="297.580398" xlink:href="#mb5ca392365" y="249.828251"/>
     <use style="fill:#00bfc4;stroke:#00bfc4;" x="378.5029" xlink:href="#mb5ca392365" y="335.921058"/>
     <use style="fill:#00bfc4;stroke:#00bfc4;" x="386.397318" xlink:href="#mb5ca392365" y="321.206495"/>
     <use style="fill:#00bfc4;stroke:#00bfc4;" x="458.702887" xlink:href="#mb5ca392365" y="200.345377"/>
     <use style="fill:#00bfc4;stroke:#00bfc4;" x="480.270253" xlink:href="#mb5ca392365" y="289.361255"/>
     <use style="fill:#00bfc4;stroke:#00bfc4;" x="288.485902" xlink:href="#mb5ca392365" y="299.677807"/>
     <use style="fill:#00bfc4;stroke:#00bfc4;" x="167.527701" xlink:href="#mb5ca392365" y="286.465276"/>
     <use style="fill:#00bfc4;stroke:#00bfc4;" x="164.108688" xlink:href="#mb5ca392365" y="172.792948"/>
     <use style="fill:#00bfc4;stroke:#00bfc4;" x="392.36171" xlink:href="#mb5ca392365" y="301.315643"/>
     <use style="fill:#00bfc4;stroke:#00bfc4;" x="264.503969" xlink:href="#mb5ca392365" y="279.652946"/>
     <use style="fill:#00bfc4;stroke:#00bfc4;" x="507.31083" xlink:href="#mb5ca392365" y="295.696007"/>
     <use style="fill:#00bfc4;stroke:#00bfc4;" x="454.561797" xlink:href="#mb5ca392365" y="128.955276"/>
     <use style="fill:#00bfc4;stroke:#00bfc4;" x="527.879328" xlink:href="#mb5ca392365" y="251.179163"/>
     <use style="fill:#00bfc4;stroke:#00bfc4;" x="269.55089" xlink:href="#mb5ca392365" y="165.152559"/>
     <use style="fill:#00bfc4;stroke:#00bfc4;" x="398.489873" xlink:href="#mb5ca392365" y="359.673945"/>
     <use style="fill:#00bfc4;stroke:#00bfc4;" x="486.203417" xlink:href="#mb5ca392365" y="256.107017"/>
     <use style="fill:#00bfc4;stroke:#00bfc4;" x="387.676514" xlink:href="#mb5ca392365" y="272.128624"/>
     <use style="fill:#00bfc4;stroke:#00bfc4;" x="456.305913" xlink:href="#mb5ca392365" y="270.183635"/>
     <use style="fill:#00bfc4;stroke:#00bfc4;" x="471.181555" xlink:href="#mb5ca392365" y="334.617842"/>
     <use style="fill:#00bfc4;stroke:#00bfc4;" x="463.673217" xlink:href="#mb5ca392365" y="323.691764"/>
     <use style="fill:#00bfc4;stroke:#00bfc4;" x="397.449551" xlink:href="#mb5ca392365" y="273.883333"/>
     <use style="fill:#00bfc4;stroke:#00bfc4;" x="329.187429" xlink:href="#mb5ca392365" y="302.525771"/>
     <use style="fill:#00bfc4;stroke:#00bfc4;" x="359.978007" xlink:href="#mb5ca392365" y="242.956407"/>
     <use style="fill:#00bfc4;stroke:#00bfc4;" x="359.199623" xlink:href="#mb5ca392365" y="357.380121"/>
     <use style="fill:#00bfc4;stroke:#00bfc4;" x="370.621095" xlink:href="#mb5ca392365" y="352.487681"/>
     <use style="fill:#00bfc4;stroke:#00bfc4;" x="477.405818" xlink:href="#mb5ca392365" y="309.140092"/>
     <use style="fill:#00bfc4;stroke:#00bfc4;" x="428.711875" xlink:href="#mb5ca392365" y="320.962657"/>
     <use style="fill:#00bfc4;stroke:#00bfc4;" x="238.357695" xlink:href="#mb5ca392365" y="219.179281"/>
     <use style="fill:#00bfc4;stroke:#00bfc4;" x="229.96944" xlink:href="#mb5ca392365" y="286.620138"/>
     <use style="fill:#00bfc4;stroke:#00bfc4;" x="420.182125" xlink:href="#mb5ca392365" y="309.101675"/>
     <use style="fill:#00bfc4;stroke:#00bfc4;" x="519.634754" xlink:href="#mb5ca392365" y="332.035675"/>
     <use style="fill:#00bfc4;stroke:#00bfc4;" x="483.211706" xlink:href="#mb5ca392365" y="209.94508"/>
     <use style="fill:#00bfc4;stroke:#00bfc4;" x="351.117222" xlink:href="#mb5ca392365" y="171.2741"/>
     <use style="fill:#00bfc4;stroke:#00bfc4;" x="230.054369" xlink:href="#mb5ca392365" y="90.404618"/>
     <use style="fill:#00bfc4;stroke:#00bfc4;" x="369.253852" xlink:href="#mb5ca392365" y="156.368311"/>
     <use style="fill:#00bfc4;stroke:#00bfc4;" x="349.18102" xlink:href="#mb5ca392365" y="100.819726"/>
     <use style="fill:#00bfc4;stroke:#00bfc4;" x="245.566474" xlink:href="#mb5ca392365" y="158.244268"/>
     <use style="fill:#00bfc4;stroke:#00bfc4;" x="300.081216" xlink:href="#mb5ca392365" y="154.866324"/>
     <use style="fill:#00bfc4;stroke:#00bfc4;" x="338.985909" xlink:href="#mb5ca392365" y="135.424259"/>
     <use style="fill:#00bfc4;stroke:#00bfc4;" x="372.554274" xlink:href="#mb5ca392365" y="147.631353"/>
     <use style="fill:#00bfc4;stroke:#00bfc4;" x="353.995308" xlink:href="#mb5ca392365" y="87.975755"/>
     <use style="fill:#00bfc4;stroke:#00bfc4;" x="313.265778" xlink:href="#mb5ca392365" y="138.893683"/>
     <use style="fill:#00bfc4;stroke:#00bfc4;" x="284.124256" xlink:href="#mb5ca392365" y="139.946252"/>
     <use style="fill:#00bfc4;stroke:#00bfc4;" x="326.282227" xlink:href="#mb5ca392365" y="71.908255"/>
     <use style="fill:#00bfc4;stroke:#00bfc4;" x="316.583278" xlink:href="#mb5ca392365" y="128.716084"/>
     <use style="fill:#00bfc4;stroke:#00bfc4;" x="221.683321" xlink:href="#mb5ca392365" y="119.427514"/>
     <use style="fill:#00bfc4;stroke:#00bfc4;" x="375.785577" xlink:href="#mb5ca392365" y="138.042391"/>
     <use style="fill:#00bfc4;stroke:#00bfc4;" x="359.516603" xlink:href="#mb5ca392365" y="162.995855"/>
     <use style="fill:#00bfc4;stroke:#00bfc4;" x="305.642816" xlink:href="#mb5ca392365" y="136.794821"/>
     <use style="fill:#00bfc4;stroke:#00bfc4;" x="205.789366" xlink:href="#mb5ca392365" y="117.214993"/>
     <use style="fill:#00bfc4;stroke:#00bfc4;" x="281.640471" xlink:href="#mb5ca392365" y="129.450197"/>
     <use style="fill:#00bfc4;stroke:#00bfc4;" x="363.749913" xlink:href="#mb5ca392365" y="150.300638"/>
     <use style="fill:#00bfc4;stroke:#00bfc4;" x="266.232278" xlink:href="#mb5ca392365" y="123.094917"/>
     <use style="fill:#00bfc4;stroke:#00bfc4;" x="272.265945" xlink:href="#mb5ca392365" y="150.53519"/>
     <use style="fill:#00bfc4;stroke:#00bfc4;" x="445.041298" xlink:href="#mb5ca392365" y="122.216632"/>
     <use style="fill:#00bfc4;stroke:#00bfc4;" x="591.101282" xlink:href="#mb5ca392365" y="309.86371"/>
     <use style="fill:#00bfc4;stroke:#00bfc4;" x="197.165498" xlink:href="#mb5ca392365" y="217.629534"/>
     <use style="fill:#00bfc4;stroke:#00bfc4;" x="465.586577" xlink:href="#mb5ca392365" y="170.906883"/>
     <use style="fill:#00bfc4;stroke:#00bfc4;" x="400.43471" xlink:href="#mb5ca392365" y="118.241303"/>
     <use style="fill:#00bfc4;stroke:#00bfc4;" x="349.568923" xlink:href="#mb5ca392365" y="207.396904"/>
     <use style="fill:#00bfc4;stroke:#00bfc4;" x="417.365304" xlink:href="#mb5ca392365" y="242.459212"/>
     <use style="fill:#00bfc4;stroke:#00bfc4;" x="371.092465" xlink:href="#mb5ca392365" y="198.187725"/>
     <use style="fill:#00bfc4;stroke:#00bfc4;" x="477.784389" xlink:href="#mb5ca392365" y="259.461468"/>
     <use style="fill:#00bfc4;stroke:#00bfc4;" x="375.869683" xlink:href="#mb5ca392365" y="369.144891"/>
     <use style="fill:#00bfc4;stroke:#00bfc4;" x="452.598395" xlink:href="#mb5ca392365" y="231.636538"/>
     <use style="fill:#00bfc4;stroke:#00bfc4;" x="528.557174" xlink:href="#mb5ca392365" y="304.995152"/>
     <use style="fill:#00bfc4;stroke:#00bfc4;" x="358.401652" xlink:href="#mb5ca392365" y="244.002572"/>
     <use style="fill:#00bfc4;stroke:#00bfc4;" x="287.736853" xlink:href="#mb5ca392365" y="216.902678"/>
     <use style="fill:#00bfc4;stroke:#00bfc4;" x="208.248019" xlink:href="#mb5ca392365" y="260.287354"/>
     <use style="fill:#00bfc4;stroke:#00bfc4;" x="205.876952" xlink:href="#mb5ca392365" y="331.22706"/>
     <use style="fill:#00bfc4;stroke:#00bfc4;" x="204.864979" xlink:href="#mb5ca392365" y="331.585838"/>
     <use style="fill:#00bfc4;stroke:#00bfc4;" x="399.081868" xlink:href="#mb5ca392365" y="198.772846"/>
     <use style="fill:#00bfc4;stroke:#00bfc4;" x="365.748795" xlink:href="#mb5ca392365" y="315.119976"/>
     <use style="fill:#00bfc4;stroke:#00bfc4;" x="369.35109" xlink:href="#mb5ca392365" y="290.526563"/>
     <use style="fill:#00bfc4;stroke:#00bfc4;" x="381.118423" xlink:href="#mb5ca392365" y="336.479195"/>
     <use style="fill:#00bfc4;stroke:#00bfc4;" x="603.390128" xlink:href="#mb5ca392365" y="282.628504"/>
     <use style="fill:#00bfc4;stroke:#00bfc4;" x="349.14976" xlink:href="#mb5ca392365" y="191.688044"/>
     <use style="fill:#00bfc4;stroke:#00bfc4;" x="486.417428" xlink:href="#mb5ca392365" y="346.114367"/>
     <use style="fill:#00bfc4;stroke:#00bfc4;" x="442.941537" xlink:href="#mb5ca392365" y="110.30648"/>
     <use style="fill:#00bfc4;stroke:#00bfc4;" x="180.587649" xlink:href="#mb5ca392365" y="253.280483"/>
     <use style="fill:#00bfc4;stroke:#00bfc4;" x="454.864639" xlink:href="#mb5ca392365" y="287.406856"/>
     <use style="fill:#00bfc4;stroke:#00bfc4;" x="176.254913" xlink:href="#mb5ca392365" y="207.673971"/>
     <use style="fill:#00bfc4;stroke:#00bfc4;" x="115.440656" xlink:href="#mb5ca392365" y="190.216523"/>
    </g>
   </g>
   <g id="PathCollection_2">
    <defs>
     <path d="M 0 3 
C 0.795609 3 1.55874 2.683901 2.12132 2.12132 
C 2.683901 1.55874 3 0.795609 3 0 
C 3 -0.795609 2.683901 -1.55874 2.12132 -2.12132 
C 1.55874 -2.683901 0.795609 -3 0 -3 
C -0.795609 -3 -1.55874 -2.683901 -2.12132 -2.12132 
C -2.683901 -1.55874 -3 -0.795609 -3 0 
C -3 0.795609 -2.683901 1.55874 -2.12132 2.12132 
C -1.55874 2.683901 -0.795609 3 0 3 
z
" id="m1381affa55" style="stroke:#f8766d;"/>
    </defs>
    <g clip-path="url(#p7a893c7654)">
     <use style="fill:#f8766d;stroke:#f8766d;" x="334.371869" xlink:href="#m1381affa55" y="164.696473"/>
     <use style="fill:#f8766d;stroke:#f8766d;" x="358.243418" xlink:href="#m1381affa55" y="132.338078"/>
     <use style="fill:#f8766d;stroke:#f8766d;" x="330.806793" xlink:href="#m1381affa55" y="149.692514"/>
     <use style="fill:#f8766d;stroke:#f8766d;" x="331.523181" xlink:href="#m1381affa55" y="99.066362"/>
     <use style="fill:#f8766d;stroke:#f8766d;" x="190.186064" xlink:href="#m1381affa55" y="140.651524"/>
     <use style="fill:#f8766d;stroke:#f8766d;" x="261.566612" xlink:href="#m1381affa55" y="179.067648"/>
     <use style="fill:#f8766d;stroke:#f8766d;" x="402.549439" xlink:href="#m1381affa55" y="92.346989"/>
     <use style="fill:#f8766d;stroke:#f8766d;" x="218.012244" xlink:href="#m1381affa55" y="93.402166"/>
     <use style="fill:#f8766d;stroke:#f8766d;" x="305.613839" xlink:href="#m1381affa55" y="115.726723"/>
     <use style="fill:#f8766d;stroke:#f8766d;" x="334.356035" xlink:href="#m1381affa55" y="155.753827"/>
     <use style="fill:#f8766d;stroke:#f8766d;" x="357.542552" xlink:href="#m1381affa55" y="128.973746"/>
     <use style="fill:#f8766d;stroke:#f8766d;" x="269.370828" xlink:href="#m1381affa55" y="158.137956"/>
     <use style="fill:#f8766d;stroke:#f8766d;" x="317.926221" xlink:href="#m1381affa55" y="179.991334"/>
     <use style="fill:#f8766d;stroke:#f8766d;" x="414.787091" xlink:href="#m1381affa55" y="310.144301"/>
     <use style="fill:#f8766d;stroke:#f8766d;" x="423.677821" xlink:href="#m1381affa55" y="156.035435"/>
     <use style="fill:#f8766d;stroke:#f8766d;" x="280.95361" xlink:href="#m1381affa55" y="234.59389"/>
     <use style="fill:#f8766d;stroke:#f8766d;" x="423.400216" xlink:href="#m1381affa55" y="219.144463"/>
     <use style="fill:#f8766d;stroke:#f8766d;" x="528.842785" xlink:href="#m1381affa55" y="182.356648"/>
     <use style="fill:#f8766d;stroke:#f8766d;" x="400.119098" xlink:href="#m1381affa55" y="145.424458"/>
     <use style="fill:#f8766d;stroke:#f8766d;" x="276.2297" xlink:href="#m1381affa55" y="86.346873"/>
     <use style="fill:#f8766d;stroke:#f8766d;" x="524.98016" xlink:href="#m1381affa55" y="326.410688"/>
     <use style="fill:#f8766d;stroke:#f8766d;" x="378.258806" xlink:href="#m1381affa55" y="123.084885"/>
     <use style="fill:#f8766d;stroke:#f8766d;" x="320.546943" xlink:href="#m1381affa55" y="230.484296"/>
     <use style="fill:#f8766d;stroke:#f8766d;" x="141.079984" xlink:href="#m1381affa55" y="162.470381"/>
     <use style="fill:#f8766d;stroke:#f8766d;" x="388.467117" xlink:href="#m1381affa55" y="322.441528"/>
     <use style="fill:#f8766d;stroke:#f8766d;" x="460.856157" xlink:href="#m1381affa55" y="146.209236"/>
     <use style="fill:#f8766d;stroke:#f8766d;" x="523.815009" xlink:href="#m1381affa55" y="197.059439"/>
     <use style="fill:#f8766d;stroke:#f8766d;" x="409.22784" xlink:href="#m1381affa55" y="138.141554"/>
     <use style="fill:#f8766d;stroke:#f8766d;" x="171.180861" xlink:href="#m1381affa55" y="174.592062"/>
     <use style="fill:#f8766d;stroke:#f8766d;" x="570.912574" xlink:href="#m1381affa55" y="192.637608"/>
     <use style="fill:#f8766d;stroke:#f8766d;" x="414.255821" xlink:href="#m1381affa55" y="78.91436"/>
     <use style="fill:#f8766d;stroke:#f8766d;" x="281.483595" xlink:href="#m1381affa55" y="187.638417"/>
     <use style="fill:#f8766d;stroke:#f8766d;" x="421.667003" xlink:href="#m1381affa55" y="333.235397"/>
     <use style="fill:#f8766d;stroke:#f8766d;" x="605.244951" xlink:href="#m1381affa55" y="263.965594"/>
     <use style="fill:#f8766d;stroke:#f8766d;" x="612.872326" xlink:href="#m1381affa55" y="225.633803"/>
     <use style="fill:#f8766d;stroke:#f8766d;" x="415.759483" xlink:href="#m1381affa55" y="318.362038"/>
     <use style="fill:#f8766d;stroke:#f8766d;" x="307.954404" xlink:href="#m1381affa55" y="289.821729"/>
     <use style="fill:#f8766d;stroke:#f8766d;" x="468.711913" xlink:href="#m1381affa55" y="194.163274"/>
     <use style="fill:#f8766d;stroke:#f8766d;" x="400.779295" xlink:href="#m1381affa55" y="165.079821"/>
     <use style="fill:#f8766d;stroke:#f8766d;" x="498.838098" xlink:href="#m1381affa55" y="308.203385"/>
     <use style="fill:#f8766d;stroke:#f8766d;" x="573.331393" xlink:href="#m1381affa55" y="335.319866"/>
     <use style="fill:#f8766d;stroke:#f8766d;" x="442.649495" xlink:href="#m1381affa55" y="82.390281"/>
     <use style="fill:#f8766d;stroke:#f8766d;" x="507.522765" xlink:href="#m1381affa55" y="173.171117"/>
     <use style="fill:#f8766d;stroke:#f8766d;" x="462.369288" xlink:href="#m1381affa55" y="208.777055"/>
     <use style="fill:#f8766d;stroke:#f8766d;" x="338.459198" xlink:href="#m1381affa55" y="315.190286"/>
     <use style="fill:#f8766d;stroke:#f8766d;" x="527.740456" xlink:href="#m1381affa55" y="181.83659"/>
     <use style="fill:#f8766d;stroke:#f8766d;" x="184.804944" xlink:href="#m1381affa55" y="252.464486"/>
     <use style="fill:#f8766d;stroke:#f8766d;" x="244.724812" xlink:href="#m1381affa55" y="181.907618"/>
     <use style="fill:#f8766d;stroke:#f8766d;" x="578.022491" xlink:href="#m1381affa55" y="306.149291"/>
     <use style="fill:#f8766d;stroke:#f8766d;" x="457.291574" xlink:href="#m1381affa55" y="232.373172"/>
     <use style="fill:#f8766d;stroke:#f8766d;" x="533.683694" xlink:href="#m1381affa55" y="282.512097"/>
     <use style="fill:#f8766d;stroke:#f8766d;" x="331.07809" xlink:href="#m1381affa55" y="250.363796"/>
     <use style="fill:#f8766d;stroke:#f8766d;" x="542.848557" xlink:href="#m1381affa55" y="172.72784"/>
     <use style="fill:#f8766d;stroke:#f8766d;" x="397.814262" xlink:href="#m1381affa55" y="132.343931"/>
     <use style="fill:#f8766d;stroke:#f8766d;" x="564.434581" xlink:href="#m1381affa55" y="226.976486"/>
     <use style="fill:#f8766d;stroke:#f8766d;" x="491.258745" xlink:href="#m1381affa55" y="306.055976"/>
     <use style="fill:#f8766d;stroke:#f8766d;" x="378.606469" xlink:href="#m1381affa55" y="187.034473"/>
     <use style="fill:#f8766d;stroke:#f8766d;" x="428.881721" xlink:href="#m1381affa55" y="170.692635"/>
     <use style="fill:#f8766d;stroke:#f8766d;" x="618.074414" xlink:href="#m1381affa55" y="286.355366"/>
     <use style="fill:#f8766d;stroke:#f8766d;" x="496.382261" xlink:href="#m1381affa55" y="117.318246"/>
     <use style="fill:#f8766d;stroke:#f8766d;" x="244.411389" xlink:href="#m1381affa55" y="289.452679"/>
     <use style="fill:#f8766d;stroke:#f8766d;" x="437.465158" xlink:href="#m1381affa55" y="358.19097"/>
     <use style="fill:#f8766d;stroke:#f8766d;" x="334.435589" xlink:href="#m1381affa55" y="316.224215"/>
     <use style="fill:#f8766d;stroke:#f8766d;" x="151.033996" xlink:href="#m1381affa55" y="283.904246"/>
     <use style="fill:#f8766d;stroke:#f8766d;" x="188.901664" xlink:href="#m1381affa55" y="230.190687"/>
     <use style="fill:#f8766d;stroke:#f8766d;" x="477.859778" xlink:href="#m1381affa55" y="352.615074"/>
     <use style="fill:#f8766d;stroke:#f8766d;" x="436.266003" xlink:href="#m1381affa55" y="221.666418"/>
     <use style="fill:#f8766d;stroke:#f8766d;" x="454.764904" xlink:href="#m1381affa55" y="274.33009"/>
     <use style="fill:#f8766d;stroke:#f8766d;" x="620.521328" xlink:href="#m1381affa55" y="231.553938"/>
     <use style="fill:#f8766d;stroke:#f8766d;" x="290.975204" xlink:href="#m1381affa55" y="201.744381"/>
     <use style="fill:#f8766d;stroke:#f8766d;" x="298.405054" xlink:href="#m1381affa55" y="289.508113"/>
     <use style="fill:#f8766d;stroke:#f8766d;" x="570.716809" xlink:href="#m1381affa55" y="257.522684"/>
     <use style="fill:#f8766d;stroke:#f8766d;" x="321.15015" xlink:href="#m1381affa55" y="266.323231"/>
     <use style="fill:#f8766d;stroke:#f8766d;" x="397.903356" xlink:href="#m1381affa55" y="236.173749"/>
     <use style="fill:#f8766d;stroke:#f8766d;" x="133.596166" xlink:href="#m1381affa55" y="244.481012"/>
     <use style="fill:#f8766d;stroke:#f8766d;" x="396.46598" xlink:href="#m1381affa55" y="258.438322"/>
     <use style="fill:#f8766d;stroke:#f8766d;" x="529.392314" xlink:href="#m1381affa55" y="245.454147"/>
     <use style="fill:#f8766d;stroke:#f8766d;" x="306.400025" xlink:href="#m1381affa55" y="238.704006"/>
     <use style="fill:#f8766d;stroke:#f8766d;" x="601.77148" xlink:href="#m1381affa55" y="216.275114"/>
     <use style="fill:#f8766d;stroke:#f8766d;" x="518.662316" xlink:href="#m1381affa55" y="346.107811"/>
     <use style="fill:#f8766d;stroke:#f8766d;" x="455.914464" xlink:href="#m1381affa55" y="80.809715"/>
     <use style="fill:#f8766d;stroke:#f8766d;" x="117.517369" xlink:href="#m1381affa55" y="192.65497"/>
     <use style="fill:#f8766d;stroke:#f8766d;" x="521.579419" xlink:href="#m1381affa55" y="347.406581"/>
     <use style="fill:#f8766d;stroke:#f8766d;" x="550.68079" xlink:href="#m1381affa55" y="290.481826"/>
     <use style="fill:#f8766d;stroke:#f8766d;" x="531.887123" xlink:href="#m1381affa55" y="191.783663"/>
     <use style="fill:#f8766d;stroke:#f8766d;" x="372.799813" xlink:href="#m1381affa55" y="152.509421"/>
     <use style="fill:#f8766d;stroke:#f8766d;" x="280.819808" xlink:href="#m1381affa55" y="98.660763"/>
     <use style="fill:#f8766d;stroke:#f8766d;" x="353.766697" xlink:href="#m1381affa55" y="87.990059"/>
     <use style="fill:#f8766d;stroke:#f8766d;" x="319.308415" xlink:href="#m1381affa55" y="139.428935"/>
     <use style="fill:#f8766d;stroke:#f8766d;" x="354.194185" xlink:href="#m1381affa55" y="154.861176"/>
     <use style="fill:#f8766d;stroke:#f8766d;" x="318.125458" xlink:href="#m1381affa55" y="167.771893"/>
     <use style="fill:#f8766d;stroke:#f8766d;" x="275.962048" xlink:href="#m1381affa55" y="98.018813"/>
     <use style="fill:#f8766d;stroke:#f8766d;" x="237.470668" xlink:href="#m1381affa55" y="165.867118"/>
     <use style="fill:#f8766d;stroke:#f8766d;" x="403.077374" xlink:href="#m1381affa55" y="92.656304"/>
     <use style="fill:#f8766d;stroke:#f8766d;" x="316.597347" xlink:href="#m1381affa55" y="150.116649"/>
     <use style="fill:#f8766d;stroke:#f8766d;" x="295.614717" xlink:href="#m1381affa55" y="119.90684"/>
     <use style="fill:#f8766d;stroke:#f8766d;" x="295.312482" xlink:href="#m1381affa55" y="133.336354"/>
     <use style="fill:#f8766d;stroke:#f8766d;" x="221.056109" xlink:href="#m1381affa55" y="119.1949"/>
     <use style="fill:#f8766d;stroke:#f8766d;" x="285.952604" xlink:href="#m1381affa55" y="94.100745"/>
     <use style="fill:#f8766d;stroke:#f8766d;" x="594.08921" xlink:href="#m1381affa55" y="281.869083"/>
     <use style="fill:#f8766d;stroke:#f8766d;" x="465.418469" xlink:href="#m1381affa55" y="207.399778"/>
     <use style="fill:#f8766d;stroke:#f8766d;" x="249.117602" xlink:href="#m1381affa55" y="285.542539"/>
     <use style="fill:#f8766d;stroke:#f8766d;" x="413.119099" xlink:href="#m1381affa55" y="293.795676"/>
     <use style="fill:#f8766d;stroke:#f8766d;" x="511.411708" xlink:href="#m1381affa55" y="148.97963"/>
     <use style="fill:#f8766d;stroke:#f8766d;" x="575.640203" xlink:href="#m1381affa55" y="255.393573"/>
     <use style="fill:#f8766d;stroke:#f8766d;" x="444.763331" xlink:href="#m1381affa55" y="188.771827"/>
     <use style="fill:#f8766d;stroke:#f8766d;" x="388.748155" xlink:href="#m1381affa55" y="332.5905"/>
     <use style="fill:#f8766d;stroke:#f8766d;" x="409.880793" xlink:href="#m1381affa55" y="305.939153"/>
    </g>
   </g>
   <g id="matplotlib.axis_1">
    <g id="xtick_1">
     <g id="line2d_1">
      <defs>
       <path d="M 0 0 
L 0 3.5 
" id="m49bce23851" style="stroke:#000000;stroke-width:0.8;"/>
      </defs>
      <g>
       <use style="stroke:#000000;stroke-width:0.8;" x="179.986207" xlink:href="#m49bce23851" y="384.48"/>
      </g>
     </g>
     <g id="text_1">
      <!-- −10 -->
      <defs>
       <path d="M 10.59375 35.5 
L 73.1875 35.5 
L 73.1875 27.203125 
L 10.59375 27.203125 
z
" id="DejaVuSans-8722"/>
       <path d="M 12.40625 8.296875 
L 28.515625 8.296875 
L 28.515625 63.921875 
L 10.984375 60.40625 
L 10.984375 69.390625 
L 28.421875 72.90625 
L 38.28125 72.90625 
L 38.28125 8.296875 
L 54.390625 8.296875 
L 54.390625 0 
L 12.40625 0 
z
" id="DejaVuSans-49"/>
       <path d="M 31.78125 66.40625 
Q 24.171875 66.40625 20.328125 58.90625 
Q 16.5 51.421875 16.5 36.375 
Q 16.5 21.390625 20.328125 13.890625 
Q 24.171875 6.390625 31.78125 6.390625 
Q 39.453125 6.390625 43.28125 13.890625 
Q 47.125 21.390625 47.125 36.375 
Q 47.125 51.421875 43.28125 58.90625 
Q 39.453125 66.40625 31.78125 66.40625 
z
M 31.78125 74.21875 
Q 44.046875 74.21875 50.515625 64.515625 
Q 56.984375 54.828125 56.984375 36.375 
Q 56.984375 17.96875 50.515625 8.265625 
Q 44.046875 -1.421875 31.78125 -1.421875 
Q 19.53125 -1.421875 13.0625 8.265625 
Q 6.59375 17.96875 6.59375 36.375 
Q 6.59375 54.828125 13.0625 64.515625 
Q 19.53125 74.21875 31.78125 74.21875 
z
" id="DejaVuSans-48"/>
      </defs>
      <g transform="translate(169.433864 399.078438)scale(0.1 -0.1)">
       <use xlink:href="#DejaVuSans-8722"/>
       <use x="83.789062" xlink:href="#DejaVuSans-49"/>
       <use x="147.412109" xlink:href="#DejaVuSans-48"/>
      </g>
     </g>
    </g>
    <g id="xtick_2">
     <g id="line2d_2">
      <g>
       <use style="stroke:#000000;stroke-width:0.8;" x="279.470412" xlink:href="#m49bce23851" y="384.48"/>
      </g>
     </g>
     <g id="text_2">
      <!-- −5 -->
      <defs>
       <path d="M 10.796875 72.90625 
L 49.515625 72.90625 
L 49.515625 64.59375 
L 19.828125 64.59375 
L 19.828125 46.734375 
Q 21.96875 47.46875 24.109375 47.828125 
Q 26.265625 48.1875 28.421875 48.1875 
Q 40.625 48.1875 47.75 41.5 
Q 54.890625 34.8125 54.890625 23.390625 
Q 54.890625 11.625 47.5625 5.09375 
Q 40.234375 -1.421875 26.90625 -1.421875 
Q 22.3125 -1.421875 17.546875 -0.640625 
Q 12.796875 0.140625 7.71875 1.703125 
L 7.71875 11.625 
Q 12.109375 9.234375 16.796875 8.0625 
Q 21.484375 6.890625 26.703125 6.890625 
Q 35.15625 6.890625 40.078125 11.328125 
Q 45.015625 15.765625 45.015625 23.390625 
Q 45.015625 31 40.078125 35.4375 
Q 35.15625 39.890625 26.703125 39.890625 
Q 22.75 39.890625 18.8125 39.015625 
Q 14.890625 38.140625 10.796875 36.28125 
z
" id="DejaVuSans-53"/>
      </defs>
      <g transform="translate(272.099319 399.078438)scale(0.1 -0.1)">
       <use xlink:href="#DejaVuSans-8722"/>
       <use x="83.789062" xlink:href="#DejaVuSans-53"/>
      </g>
     </g>
    </g>
    <g id="xtick_3">
     <g id="line2d_3">
      <g>
       <use style="stroke:#000000;stroke-width:0.8;" x="378.954617" xlink:href="#m49bce23851" y="384.48"/>
      </g>
     </g>
     <g id="text_3">
      <!-- 0 -->
      <g transform="translate(375.773367 399.078438)scale(0.1 -0.1)">
       <use xlink:href="#DejaVuSans-48"/>
      </g>
     </g>
    </g>
    <g id="xtick_4">
     <g id="line2d_4">
      <g>
       <use style="stroke:#000000;stroke-width:0.8;" x="478.438822" xlink:href="#m49bce23851" y="384.48"/>
      </g>
     </g>
     <g id="text_4">
      <!-- 5 -->
      <g transform="translate(475.257572 399.078438)scale(0.1 -0.1)">
       <use xlink:href="#DejaVuSans-53"/>
      </g>
     </g>
    </g>
    <g id="xtick_5">
     <g id="line2d_5">
      <g>
       <use style="stroke:#000000;stroke-width:0.8;" x="577.923027" xlink:href="#m49bce23851" y="384.48"/>
      </g>
     </g>
     <g id="text_5">
      <!-- 10 -->
      <g transform="translate(571.560527 399.078438)scale(0.1 -0.1)">
       <use xlink:href="#DejaVuSans-49"/>
       <use x="63.623047" xlink:href="#DejaVuSans-48"/>
      </g>
     </g>
    </g>
    <g id="text_6">
     <!-- tSNE-1 -->
     <defs>
      <path d="M 18.3125 70.21875 
L 18.3125 54.6875 
L 36.8125 54.6875 
L 36.8125 47.703125 
L 18.3125 47.703125 
L 18.3125 18.015625 
Q 18.3125 11.328125 20.140625 9.421875 
Q 21.96875 7.515625 27.59375 7.515625 
L 36.8125 7.515625 
L 36.8125 0 
L 27.59375 0 
Q 17.1875 0 13.234375 3.875 
Q 9.28125 7.765625 9.28125 18.015625 
L 9.28125 47.703125 
L 2.6875 47.703125 
L 2.6875 54.6875 
L 9.28125 54.6875 
L 9.28125 70.21875 
z
" id="DejaVuSans-116"/>
      <path d="M 53.515625 70.515625 
L 53.515625 60.890625 
Q 47.90625 63.578125 42.921875 64.890625 
Q 37.9375 66.21875 33.296875 66.21875 
Q 25.25 66.21875 20.875 63.09375 
Q 16.5 59.96875 16.5 54.203125 
Q 16.5 49.359375 19.40625 46.890625 
Q 22.3125 44.4375 30.421875 42.921875 
L 36.375 41.703125 
Q 47.40625 39.59375 52.65625 34.296875 
Q 57.90625 29 57.90625 20.125 
Q 57.90625 9.515625 50.796875 4.046875 
Q 43.703125 -1.421875 29.984375 -1.421875 
Q 24.8125 -1.421875 18.96875 -0.25 
Q 13.140625 0.921875 6.890625 3.21875 
L 6.890625 13.375 
Q 12.890625 10.015625 18.65625 8.296875 
Q 24.421875 6.59375 29.984375 6.59375 
Q 38.421875 6.59375 43.015625 9.90625 
Q 47.609375 13.234375 47.609375 19.390625 
Q 47.609375 24.75 44.3125 27.78125 
Q 41.015625 30.8125 33.5 32.328125 
L 27.484375 33.5 
Q 16.453125 35.6875 11.515625 40.375 
Q 6.59375 45.0625 6.59375 53.421875 
Q 6.59375 63.09375 13.40625 68.65625 
Q 20.21875 74.21875 32.171875 74.21875 
Q 37.3125 74.21875 42.625 73.28125 
Q 47.953125 72.359375 53.515625 70.515625 
z
" id="DejaVuSans-83"/>
      <path d="M 9.8125 72.90625 
L 23.09375 72.90625 
L 55.421875 11.921875 
L 55.421875 72.90625 
L 64.984375 72.90625 
L 64.984375 0 
L 51.703125 0 
L 19.390625 60.984375 
L 19.390625 0 
L 9.8125 0 
z
" id="DejaVuSans-78"/>
      <path d="M 9.8125 72.90625 
L 55.90625 72.90625 
L 55.90625 64.59375 
L 19.671875 64.59375 
L 19.671875 43.015625 
L 54.390625 43.015625 
L 54.390625 34.71875 
L 19.671875 34.71875 
L 19.671875 8.296875 
L 56.78125 8.296875 
L 56.78125 0 
L 9.8125 0 
z
" id="DejaVuSans-69"/>
      <path d="M 4.890625 31.390625 
L 31.203125 31.390625 
L 31.203125 23.390625 
L 4.890625 23.390625 
z
" id="DejaVuSans-45"/>
     </defs>
     <g transform="translate(351.980469 412.756563)scale(0.1 -0.1)">
      <use xlink:href="#DejaVuSans-116"/>
      <use x="39.208984" xlink:href="#DejaVuSans-83"/>
      <use x="102.685547" xlink:href="#DejaVuSans-78"/>
      <use x="177.490234" xlink:href="#DejaVuSans-69"/>
      <use x="240.673828" xlink:href="#DejaVuSans-45"/>
      <use x="276.757812" xlink:href="#DejaVuSans-49"/>
     </g>
    </g>
   </g>
   <g id="matplotlib.axis_2">
    <g id="ytick_1">
     <g id="line2d_6">
      <defs>
       <path d="M 0 0 
L -3.5 0 
" id="m374d8cea8f" style="stroke:#000000;stroke-width:0.8;"/>
      </defs>
      <g>
       <use style="stroke:#000000;stroke-width:0.8;" x="90" xlink:href="#m374d8cea8f" y="352.707895"/>
      </g>
     </g>
     <g id="text_7">
      <!-- −15 -->
      <g transform="translate(61.895313 356.507114)scale(0.1 -0.1)">
       <use xlink:href="#DejaVuSans-8722"/>
       <use x="83.789062" xlink:href="#DejaVuSans-49"/>
       <use x="147.412109" xlink:href="#DejaVuSans-53"/>
      </g>
     </g>
    </g>
    <g id="ytick_2">
     <g id="line2d_7">
      <g>
       <use style="stroke:#000000;stroke-width:0.8;" x="90" xlink:href="#m374d8cea8f" y="308.202197"/>
      </g>
     </g>
     <g id="text_8">
      <!-- −10 -->
      <g transform="translate(61.895313 312.001416)scale(0.1 -0.1)">
       <use xlink:href="#DejaVuSans-8722"/>
       <use x="83.789062" xlink:href="#DejaVuSans-49"/>
       <use x="147.412109" xlink:href="#DejaVuSans-48"/>
      </g>
     </g>
    </g>
    <g id="ytick_3">
     <g id="line2d_8">
      <g>
       <use style="stroke:#000000;stroke-width:0.8;" x="90" xlink:href="#m374d8cea8f" y="263.696499"/>
      </g>
     </g>
     <g id="text_9">
      <!-- −5 -->
      <g transform="translate(68.257812 267.495718)scale(0.1 -0.1)">
       <use xlink:href="#DejaVuSans-8722"/>
       <use x="83.789062" xlink:href="#DejaVuSans-53"/>
      </g>
     </g>
    </g>
    <g id="ytick_4">
     <g id="line2d_9">
      <g>
       <use style="stroke:#000000;stroke-width:0.8;" x="90" xlink:href="#m374d8cea8f" y="219.190801"/>
      </g>
     </g>
     <g id="text_10">
      <!-- 0 -->
      <g transform="translate(76.6375 222.99002)scale(0.1 -0.1)">
       <use xlink:href="#DejaVuSans-48"/>
      </g>
     </g>
    </g>
    <g id="ytick_5">
     <g id="line2d_10">
      <g>
       <use style="stroke:#000000;stroke-width:0.8;" x="90" xlink:href="#m374d8cea8f" y="174.685103"/>
      </g>
     </g>
     <g id="text_11">
      <!-- 5 -->
      <g transform="translate(76.6375 178.484322)scale(0.1 -0.1)">
       <use xlink:href="#DejaVuSans-53"/>
      </g>
     </g>
    </g>
    <g id="ytick_6">
     <g id="line2d_11">
      <g>
       <use style="stroke:#000000;stroke-width:0.8;" x="90" xlink:href="#m374d8cea8f" y="130.179405"/>
      </g>
     </g>
     <g id="text_12">
      <!-- 10 -->
      <g transform="translate(70.275 133.978624)scale(0.1 -0.1)">
       <use xlink:href="#DejaVuSans-49"/>
       <use x="63.623047" xlink:href="#DejaVuSans-48"/>
      </g>
     </g>
    </g>
    <g id="ytick_7">
     <g id="line2d_12">
      <g>
       <use style="stroke:#000000;stroke-width:0.8;" x="90" xlink:href="#m374d8cea8f" y="85.673707"/>
      </g>
     </g>
     <g id="text_13">
      <!-- 15 -->
      <g transform="translate(70.275 89.472926)scale(0.1 -0.1)">
       <use xlink:href="#DejaVuSans-49"/>
       <use x="63.623047" xlink:href="#DejaVuSans-53"/>
      </g>
     </g>
    </g>
    <g id="text_14">
     <!-- tSNE-2 -->
     <defs>
      <path d="M 19.1875 8.296875 
L 53.609375 8.296875 
L 53.609375 0 
L 7.328125 0 
L 7.328125 8.296875 
Q 12.9375 14.109375 22.625 23.890625 
Q 32.328125 33.6875 34.8125 36.53125 
Q 39.546875 41.84375 41.421875 45.53125 
Q 43.3125 49.21875 43.3125 52.78125 
Q 43.3125 58.59375 39.234375 62.25 
Q 35.15625 65.921875 28.609375 65.921875 
Q 23.96875 65.921875 18.8125 64.3125 
Q 13.671875 62.703125 7.8125 59.421875 
L 7.8125 69.390625 
Q 13.765625 71.78125 18.9375 73 
Q 24.125 74.21875 28.421875 74.21875 
Q 39.75 74.21875 46.484375 68.546875 
Q 53.21875 62.890625 53.21875 53.421875 
Q 53.21875 48.921875 51.53125 44.890625 
Q 49.859375 40.875 45.40625 35.40625 
Q 44.1875 33.984375 37.640625 27.21875 
Q 31.109375 20.453125 19.1875 8.296875 
z
" id="DejaVuSans-50"/>
     </defs>
     <g transform="translate(55.815625 235.179531)rotate(-90)scale(0.1 -0.1)">
      <use xlink:href="#DejaVuSans-116"/>
      <use x="39.208984" xlink:href="#DejaVuSans-83"/>
      <use x="102.685547" xlink:href="#DejaVuSans-78"/>
      <use x="177.490234" xlink:href="#DejaVuSans-69"/>
      <use x="240.673828" xlink:href="#DejaVuSans-45"/>
      <use x="276.757812" xlink:href="#DejaVuSans-50"/>
     </g>
    </g>
   </g>
   <g id="patch_3">
    <path d="M 90 384.48 
L 90 51.84 
" style="fill:none;stroke:#000000;stroke-linecap:square;stroke-linejoin:miter;stroke-width:0.8;"/>
   </g>
   <g id="patch_4">
    <path d="M 648 384.48 
L 648 51.84 
" style="fill:none;stroke:#000000;stroke-linecap:square;stroke-linejoin:miter;stroke-width:0.8;"/>
   </g>
   <g id="patch_5">
    <path d="M 90 384.48 
L 648 384.48 
" style="fill:none;stroke:#000000;stroke-linecap:square;stroke-linejoin:miter;stroke-width:0.8;"/>
   </g>
   <g id="patch_6">
    <path d="M 90 51.84 
L 648 51.84 
" style="fill:none;stroke:#000000;stroke-linecap:square;stroke-linejoin:miter;stroke-width:0.8;"/>
   </g>
   <g id="legend_1">
    <g id="patch_7">
     <path d="M 563.125 89.19625 
L 641 89.19625 
Q 643 89.19625 643 87.19625 
L 643 58.84 
Q 643 56.84 641 56.84 
L 563.125 56.84 
Q 561.125 56.84 561.125 58.84 
L 561.125 87.19625 
Q 561.125 89.19625 563.125 89.19625 
z
" style="fill:#ffffff;opacity:0.8;stroke:#cccccc;stroke-linejoin:miter;"/>
    </g>
    <g id="PathCollection_3">
     <g>
      <use style="fill:#00bfc4;stroke:#00bfc4;" x="575.125" xlink:href="#mb5ca392365" y="65.813437"/>
     </g>
    </g>
    <g id="text_15">
     <!-- D006262 -->
     <defs>
      <path d="M 19.671875 64.796875 
L 19.671875 8.109375 
L 31.59375 8.109375 
Q 46.6875 8.109375 53.6875 14.9375 
Q 60.6875 21.78125 60.6875 36.53125 
Q 60.6875 51.171875 53.6875 57.984375 
Q 46.6875 64.796875 31.59375 64.796875 
z
M 9.8125 72.90625 
L 30.078125 72.90625 
Q 51.265625 72.90625 61.171875 64.09375 
Q 71.09375 55.28125 71.09375 36.53125 
Q 71.09375 17.671875 61.125 8.828125 
Q 51.171875 0 30.078125 0 
L 9.8125 0 
z
" id="DejaVuSans-68"/>
      <path d="M 33.015625 40.375 
Q 26.375 40.375 22.484375 35.828125 
Q 18.609375 31.296875 18.609375 23.390625 
Q 18.609375 15.53125 22.484375 10.953125 
Q 26.375 6.390625 33.015625 6.390625 
Q 39.65625 6.390625 43.53125 10.953125 
Q 47.40625 15.53125 47.40625 23.390625 
Q 47.40625 31.296875 43.53125 35.828125 
Q 39.65625 40.375 33.015625 40.375 
z
M 52.59375 71.296875 
L 52.59375 62.3125 
Q 48.875 64.0625 45.09375 64.984375 
Q 41.3125 65.921875 37.59375 65.921875 
Q 27.828125 65.921875 22.671875 59.328125 
Q 17.53125 52.734375 16.796875 39.40625 
Q 19.671875 43.65625 24.015625 45.921875 
Q 28.375 48.1875 33.59375 48.1875 
Q 44.578125 48.1875 50.953125 41.515625 
Q 57.328125 34.859375 57.328125 23.390625 
Q 57.328125 12.15625 50.6875 5.359375 
Q 44.046875 -1.421875 33.015625 -1.421875 
Q 20.359375 -1.421875 13.671875 8.265625 
Q 6.984375 17.96875 6.984375 36.375 
Q 6.984375 53.65625 15.1875 63.9375 
Q 23.390625 74.21875 37.203125 74.21875 
Q 40.921875 74.21875 44.703125 73.484375 
Q 48.484375 72.75 52.59375 71.296875 
z
" id="DejaVuSans-54"/>
     </defs>
     <g transform="translate(593.125 68.438437)scale(0.1 -0.1)">
      <use xlink:href="#DejaVuSans-68"/>
      <use x="77.001953" xlink:href="#DejaVuSans-48"/>
      <use x="140.625" xlink:href="#DejaVuSans-48"/>
      <use x="204.248047" xlink:href="#DejaVuSans-54"/>
      <use x="267.871094" xlink:href="#DejaVuSans-50"/>
      <use x="331.494141" xlink:href="#DejaVuSans-54"/>
      <use x="395.117188" xlink:href="#DejaVuSans-50"/>
     </g>
    </g>
    <g id="PathCollection_4">
     <g>
      <use style="fill:#f8766d;stroke:#f8766d;" x="575.125" xlink:href="#m1381affa55" y="80.491562"/>
     </g>
    </g>
    <g id="text_16">
     <!-- D008881 -->
     <defs>
      <path d="M 31.78125 34.625 
Q 24.75 34.625 20.71875 30.859375 
Q 16.703125 27.09375 16.703125 20.515625 
Q 16.703125 13.921875 20.71875 10.15625 
Q 24.75 6.390625 31.78125 6.390625 
Q 38.8125 6.390625 42.859375 10.171875 
Q 46.921875 13.96875 46.921875 20.515625 
Q 46.921875 27.09375 42.890625 30.859375 
Q 38.875 34.625 31.78125 34.625 
z
M 21.921875 38.8125 
Q 15.578125 40.375 12.03125 44.71875 
Q 8.5 49.078125 8.5 55.328125 
Q 8.5 64.0625 14.71875 69.140625 
Q 20.953125 74.21875 31.78125 74.21875 
Q 42.671875 74.21875 48.875 69.140625 
Q 55.078125 64.0625 55.078125 55.328125 
Q 55.078125 49.078125 51.53125 44.71875 
Q 48 40.375 41.703125 38.8125 
Q 48.828125 37.15625 52.796875 32.3125 
Q 56.78125 27.484375 56.78125 20.515625 
Q 56.78125 9.90625 50.3125 4.234375 
Q 43.84375 -1.421875 31.78125 -1.421875 
Q 19.734375 -1.421875 13.25 4.234375 
Q 6.78125 9.90625 6.78125 20.515625 
Q 6.78125 27.484375 10.78125 32.3125 
Q 14.796875 37.15625 21.921875 38.8125 
z
M 18.3125 54.390625 
Q 18.3125 48.734375 21.84375 45.5625 
Q 25.390625 42.390625 31.78125 42.390625 
Q 38.140625 42.390625 41.71875 45.5625 
Q 45.3125 48.734375 45.3125 54.390625 
Q 45.3125 60.0625 41.71875 63.234375 
Q 38.140625 66.40625 31.78125 66.40625 
Q 25.390625 66.40625 21.84375 63.234375 
Q 18.3125 60.0625 18.3125 54.390625 
z
" id="DejaVuSans-56"/>
     </defs>
     <g transform="translate(593.125 83.116562)scale(0.1 -0.1)">
      <use xlink:href="#DejaVuSans-68"/>
      <use x="77.001953" xlink:href="#DejaVuSans-48"/>
      <use x="140.625" xlink:href="#DejaVuSans-48"/>
      <use x="204.248047" xlink:href="#DejaVuSans-56"/>
      <use x="267.871094" xlink:href="#DejaVuSans-56"/>
      <use x="331.494141" xlink:href="#DejaVuSans-56"/>
      <use x="395.117188" xlink:href="#DejaVuSans-49"/>
     </g>
    </g>
   </g>
  </g>
 </g>
 <defs>
  <clipPath id="p7a893c7654">
   <rect height="332.64" width="558" x="90" y="51.84"/>
  </clipPath>
 </defs>
</svg>
