<?xml version="1.0" encoding="utf-8" standalone="no"?>
<!DOCTYPE svg PUBLIC "-//W3C//DTD SVG 1.1//EN"
  "http://www.w3.org/Graphics/SVG/1.1/DTD/svg11.dtd">
<!-- Created with matplotlib (https://matplotlib.org/) -->
<svg height="432pt" version="1.1" viewBox="0 0 720 432" width="720pt" xmlns="http://www.w3.org/2000/svg" xmlns:xlink="http://www.w3.org/1999/xlink">
 <defs>
  <style type="text/css">
*{stroke-linecap:butt;stroke-linejoin:round;}
  </style>
 </defs>
 <g id="figure_1">
  <g id="patch_1">
   <path d="M 0 432 
L 720 432 
L 720 0 
L 0 0 
z
" style="fill:#ffffff;"/>
  </g>
  <g id="axes_1">
   <g id="patch_2">
    <path d="M 90 378 
L 648 378 
L 648 51.84 
L 90 51.84 
z
" style="fill:#ffffff;"/>
   </g>
   <g id="PathCollection_1">
    <defs>
     <path d="M 0 3 
C 0.795609 3 1.55874 2.683901 2.12132 2.12132 
C 2.683901 1.55874 3 0.795609 3 0 
C 3 -0.795609 2.683901 -1.55874 2.12132 -2.12132 
C 1.55874 -2.683901 0.795609 -3 0 -3 
C -0.795609 -3 -1.55874 -2.683901 -2.12132 -2.12132 
C -2.683901 -1.55874 -3 -0.795609 -3 0 
C -3 0.795609 -2.683901 1.55874 -2.12132 2.12132 
C -1.55874 2.683901 -0.795609 3 0 3 
z
" id="mce48b4c7c6" style="stroke:#f8766d;"/>
    </defs>
    <g clip-path="url(#pa0ce117912)">
     <use style="fill:#f8766d;stroke:#f8766d;" x="423.328866" xlink:href="#mce48b4c7c6" y="189.18999"/>
     <use style="fill:#f8766d;stroke:#f8766d;" x="463.334036" xlink:href="#mce48b4c7c6" y="240.367118"/>
     <use style="fill:#f8766d;stroke:#f8766d;" x="450.268893" xlink:href="#mce48b4c7c6" y="201.879229"/>
     <use style="fill:#f8766d;stroke:#f8766d;" x="527.334945" xlink:href="#mce48b4c7c6" y="156.881246"/>
     <use style="fill:#f8766d;stroke:#f8766d;" x="443.738661" xlink:href="#mce48b4c7c6" y="211.950807"/>
     <use style="fill:#f8766d;stroke:#f8766d;" x="174.456758" xlink:href="#mce48b4c7c6" y="329.692703"/>
     <use style="fill:#f8766d;stroke:#f8766d;" x="494.97042" xlink:href="#mce48b4c7c6" y="289.249018"/>
     <use style="fill:#f8766d;stroke:#f8766d;" x="585.226846" xlink:href="#mce48b4c7c6" y="161.264616"/>
     <use style="fill:#f8766d;stroke:#f8766d;" x="501.835422" xlink:href="#mce48b4c7c6" y="260.599548"/>
     <use style="fill:#f8766d;stroke:#f8766d;" x="331.942676" xlink:href="#mce48b4c7c6" y="217.013496"/>
     <use style="fill:#f8766d;stroke:#f8766d;" x="144.022047" xlink:href="#mce48b4c7c6" y="224.521735"/>
     <use style="fill:#f8766d;stroke:#f8766d;" x="425.248297" xlink:href="#mce48b4c7c6" y="151.569108"/>
     <use style="fill:#f8766d;stroke:#f8766d;" x="272.029698" xlink:href="#mce48b4c7c6" y="275.712423"/>
     <use style="fill:#f8766d;stroke:#f8766d;" x="419.92474" xlink:href="#mce48b4c7c6" y="242.024341"/>
     <use style="fill:#f8766d;stroke:#f8766d;" x="407.133513" xlink:href="#mce48b4c7c6" y="159.005766"/>
     <use style="fill:#f8766d;stroke:#f8766d;" x="183.687959" xlink:href="#mce48b4c7c6" y="275.480993"/>
     <use style="fill:#f8766d;stroke:#f8766d;" x="138.045029" xlink:href="#mce48b4c7c6" y="230.602476"/>
     <use style="fill:#f8766d;stroke:#f8766d;" x="407.65876" xlink:href="#mce48b4c7c6" y="277.561279"/>
     <use style="fill:#f8766d;stroke:#f8766d;" x="290.967647" xlink:href="#mce48b4c7c6" y="302.470892"/>
     <use style="fill:#f8766d;stroke:#f8766d;" x="364.058683" xlink:href="#mce48b4c7c6" y="199.584593"/>
     <use style="fill:#f8766d;stroke:#f8766d;" x="622.096552" xlink:href="#mce48b4c7c6" y="255.281891"/>
     <use style="fill:#f8766d;stroke:#f8766d;" x="619.842764" xlink:href="#mce48b4c7c6" y="253.949104"/>
     <use style="fill:#f8766d;stroke:#f8766d;" x="622.522915" xlink:href="#mce48b4c7c6" y="255.393858"/>
     <use style="fill:#f8766d;stroke:#f8766d;" x="531.526678" xlink:href="#mce48b4c7c6" y="185.557795"/>
     <use style="fill:#f8766d;stroke:#f8766d;" x="464.397338" xlink:href="#mce48b4c7c6" y="260.458179"/>
     <use style="fill:#f8766d;stroke:#f8766d;" x="300.941105" xlink:href="#mce48b4c7c6" y="169.812648"/>
     <use style="fill:#f8766d;stroke:#f8766d;" x="554.346754" xlink:href="#mce48b4c7c6" y="223.464997"/>
     <use style="fill:#f8766d;stroke:#f8766d;" x="494.817862" xlink:href="#mce48b4c7c6" y="168.512408"/>
     <use style="fill:#f8766d;stroke:#f8766d;" x="230.393236" xlink:href="#mce48b4c7c6" y="268.158017"/>
     <use style="fill:#f8766d;stroke:#f8766d;" x="372.379532" xlink:href="#mce48b4c7c6" y="119.618316"/>
     <use style="fill:#f8766d;stroke:#f8766d;" x="478.694612" xlink:href="#mce48b4c7c6" y="271.999945"/>
     <use style="fill:#f8766d;stroke:#f8766d;" x="118.503245" xlink:href="#mce48b4c7c6" y="236.075337"/>
     <use style="fill:#f8766d;stroke:#f8766d;" x="457.298659" xlink:href="#mce48b4c7c6" y="132.012667"/>
     <use style="fill:#f8766d;stroke:#f8766d;" x="360.46463" xlink:href="#mce48b4c7c6" y="220.735959"/>
     <use style="fill:#f8766d;stroke:#f8766d;" x="436.392097" xlink:href="#mce48b4c7c6" y="343.376374"/>
     <use style="fill:#f8766d;stroke:#f8766d;" x="310.806227" xlink:href="#mce48b4c7c6" y="269.608496"/>
     <use style="fill:#f8766d;stroke:#f8766d;" x="338.780251" xlink:href="#mce48b4c7c6" y="243.321748"/>
     <use style="fill:#f8766d;stroke:#f8766d;" x="419.786524" xlink:href="#mce48b4c7c6" y="224.817955"/>
     <use style="fill:#f8766d;stroke:#f8766d;" x="337.057446" xlink:href="#mce48b4c7c6" y="355.303752"/>
     <use style="fill:#f8766d;stroke:#f8766d;" x="216.747491" xlink:href="#mce48b4c7c6" y="237.56595"/>
     <use style="fill:#f8766d;stroke:#f8766d;" x="217.672503" xlink:href="#mce48b4c7c6" y="307.995794"/>
     <use style="fill:#f8766d;stroke:#f8766d;" x="536.835907" xlink:href="#mce48b4c7c6" y="103.273628"/>
     <use style="fill:#f8766d;stroke:#f8766d;" x="499.648415" xlink:href="#mce48b4c7c6" y="319.088356"/>
     <use style="fill:#f8766d;stroke:#f8766d;" x="360.864668" xlink:href="#mce48b4c7c6" y="249.263178"/>
     <use style="fill:#f8766d;stroke:#f8766d;" x="320.948073" xlink:href="#mce48b4c7c6" y="273.316882"/>
     <use style="fill:#f8766d;stroke:#f8766d;" x="193.151641" xlink:href="#mce48b4c7c6" y="141.083055"/>
     <use style="fill:#f8766d;stroke:#f8766d;" x="393.647566" xlink:href="#mce48b4c7c6" y="238.311747"/>
     <use style="fill:#f8766d;stroke:#f8766d;" x="432.924922" xlink:href="#mce48b4c7c6" y="305.26697"/>
     <use style="fill:#f8766d;stroke:#f8766d;" x="600.873965" xlink:href="#mce48b4c7c6" y="242.903039"/>
     <use style="fill:#f8766d;stroke:#f8766d;" x="177.259262" xlink:href="#mce48b4c7c6" y="183.939564"/>
     <use style="fill:#f8766d;stroke:#f8766d;" x="115.477085" xlink:href="#mce48b4c7c6" y="238.52353"/>
     <use style="fill:#f8766d;stroke:#f8766d;" x="273.178527" xlink:href="#mce48b4c7c6" y="238.375484"/>
     <use style="fill:#f8766d;stroke:#f8766d;" x="438.6744" xlink:href="#mce48b4c7c6" y="201.110376"/>
     <use style="fill:#f8766d;stroke:#f8766d;" x="478.916326" xlink:href="#mce48b4c7c6" y="153.263655"/>
     <use style="fill:#f8766d;stroke:#f8766d;" x="490.030977" xlink:href="#mce48b4c7c6" y="238.265506"/>
     <use style="fill:#f8766d;stroke:#f8766d;" x="508.07735" xlink:href="#mce48b4c7c6" y="218.316131"/>
     <use style="fill:#f8766d;stroke:#f8766d;" x="434.258961" xlink:href="#mce48b4c7c6" y="207.977724"/>
     <use style="fill:#f8766d;stroke:#f8766d;" x="550.621693" xlink:href="#mce48b4c7c6" y="146.97594"/>
     <use style="fill:#f8766d;stroke:#f8766d;" x="468.694077" xlink:href="#mce48b4c7c6" y="197.700513"/>
     <use style="fill:#f8766d;stroke:#f8766d;" x="188.688378" xlink:href="#mce48b4c7c6" y="247.500922"/>
     <use style="fill:#f8766d;stroke:#f8766d;" x="498.172996" xlink:href="#mce48b4c7c6" y="318.003121"/>
     <use style="fill:#f8766d;stroke:#f8766d;" x="270.289249" xlink:href="#mce48b4c7c6" y="180.78966"/>
     <use style="fill:#f8766d;stroke:#f8766d;" x="267.372008" xlink:href="#mce48b4c7c6" y="213.89512"/>
     <use style="fill:#f8766d;stroke:#f8766d;" x="462.854253" xlink:href="#mce48b4c7c6" y="335.692718"/>
     <use style="fill:#f8766d;stroke:#f8766d;" x="537.838134" xlink:href="#mce48b4c7c6" y="221.12484"/>
    </g>
   </g>
   <g id="PathCollection_2">
    <defs>
     <path d="M 0 3 
C 0.795609 3 1.55874 2.683901 2.12132 2.12132 
C 2.683901 1.55874 3 0.795609 3 0 
C 3 -0.795609 2.683901 -1.55874 2.12132 -2.12132 
C 1.55874 -2.683901 0.795609 -3 0 -3 
C -0.795609 -3 -1.55874 -2.683901 -2.12132 -2.12132 
C -2.683901 -1.55874 -3 -0.795609 -3 0 
C -3 0.795609 -2.683901 1.55874 -2.12132 2.12132 
C -1.55874 2.683901 -0.795609 3 0 3 
z
" id="m2ad6319e0e" style="stroke:#00bfc4;"/>
    </defs>
    <g clip-path="url(#pa0ce117912)">
     <use style="fill:#00bfc4;stroke:#00bfc4;" x="506.679428" xlink:href="#m2ad6319e0e" y="196.684644"/>
     <use style="fill:#00bfc4;stroke:#00bfc4;" x="477.121009" xlink:href="#m2ad6319e0e" y="177.83145"/>
     <use style="fill:#00bfc4;stroke:#00bfc4;" x="427.67516" xlink:href="#m2ad6319e0e" y="193.988721"/>
     <use style="fill:#00bfc4;stroke:#00bfc4;" x="525.083854" xlink:href="#m2ad6319e0e" y="157.940866"/>
     <use style="fill:#00bfc4;stroke:#00bfc4;" x="450.268903" xlink:href="#m2ad6319e0e" y="201.879225"/>
     <use style="fill:#00bfc4;stroke:#00bfc4;" x="567.969739" xlink:href="#m2ad6319e0e" y="192.065643"/>
     <use style="fill:#00bfc4;stroke:#00bfc4;" x="415.53511" xlink:href="#m2ad6319e0e" y="174.897671"/>
     <use style="fill:#00bfc4;stroke:#00bfc4;" x="443.738682" xlink:href="#m2ad6319e0e" y="211.950803"/>
     <use style="fill:#00bfc4;stroke:#00bfc4;" x="500.838739" xlink:href="#m2ad6319e0e" y="132.055809"/>
     <use style="fill:#00bfc4;stroke:#00bfc4;" x="434.10434" xlink:href="#m2ad6319e0e" y="205.853181"/>
     <use style="fill:#00bfc4;stroke:#00bfc4;" x="463.7719" xlink:href="#m2ad6319e0e" y="240.620899"/>
     <use style="fill:#00bfc4;stroke:#00bfc4;" x="458.199844" xlink:href="#m2ad6319e0e" y="210.647674"/>
     <use style="fill:#00bfc4;stroke:#00bfc4;" x="434.10435" xlink:href="#m2ad6319e0e" y="205.852986"/>
     <use style="fill:#00bfc4;stroke:#00bfc4;" x="495.909489" xlink:href="#m2ad6319e0e" y="239.359796"/>
     <use style="fill:#00bfc4;stroke:#00bfc4;" x="481.735916" xlink:href="#m2ad6319e0e" y="219.759875"/>
     <use style="fill:#00bfc4;stroke:#00bfc4;" x="419.846991" xlink:href="#m2ad6319e0e" y="184.342118"/>
     <use style="fill:#00bfc4;stroke:#00bfc4;" x="501.586229" xlink:href="#m2ad6319e0e" y="131.169681"/>
     <use style="fill:#00bfc4;stroke:#00bfc4;" x="511.038249" xlink:href="#m2ad6319e0e" y="182.582459"/>
     <use style="fill:#00bfc4;stroke:#00bfc4;" x="483.92563" xlink:href="#m2ad6319e0e" y="220.621272"/>
     <use style="fill:#00bfc4;stroke:#00bfc4;" x="386.402667" xlink:href="#m2ad6319e0e" y="231.800297"/>
     <use style="fill:#00bfc4;stroke:#00bfc4;" x="318.538589" xlink:href="#m2ad6319e0e" y="126.884262"/>
     <use style="fill:#00bfc4;stroke:#00bfc4;" x="397.076359" xlink:href="#m2ad6319e0e" y="224.535799"/>
     <use style="fill:#00bfc4;stroke:#00bfc4;" x="387.69524" xlink:href="#m2ad6319e0e" y="253.558877"/>
     <use style="fill:#00bfc4;stroke:#00bfc4;" x="437.498907" xlink:href="#m2ad6319e0e" y="271.853274"/>
     <use style="fill:#00bfc4;stroke:#00bfc4;" x="329.231391" xlink:href="#m2ad6319e0e" y="291.781997"/>
     <use style="fill:#00bfc4;stroke:#00bfc4;" x="256.668493" xlink:href="#m2ad6319e0e" y="342.407043"/>
     <use style="fill:#00bfc4;stroke:#00bfc4;" x="307.759199" xlink:href="#m2ad6319e0e" y="195.819508"/>
     <use style="fill:#00bfc4;stroke:#00bfc4;" x="533.982187" xlink:href="#m2ad6319e0e" y="245.192021"/>
     <use style="fill:#00bfc4;stroke:#00bfc4;" x="168.742698" xlink:href="#m2ad6319e0e" y="295.036874"/>
     <use style="fill:#00bfc4;stroke:#00bfc4;" x="159.068209" xlink:href="#m2ad6319e0e" y="143.640687"/>
     <use style="fill:#00bfc4;stroke:#00bfc4;" x="350.448869" xlink:href="#m2ad6319e0e" y="97.689332"/>
     <use style="fill:#00bfc4;stroke:#00bfc4;" x="311.618269" xlink:href="#m2ad6319e0e" y="117.546871"/>
     <use style="fill:#00bfc4;stroke:#00bfc4;" x="468.969129" xlink:href="#m2ad6319e0e" y="286.819526"/>
     <use style="fill:#00bfc4;stroke:#00bfc4;" x="395.276303" xlink:href="#m2ad6319e0e" y="201.54349"/>
     <use style="fill:#00bfc4;stroke:#00bfc4;" x="336.022729" xlink:href="#m2ad6319e0e" y="186.019123"/>
     <use style="fill:#00bfc4;stroke:#00bfc4;" x="312.920779" xlink:href="#m2ad6319e0e" y="105.853536"/>
     <use style="fill:#00bfc4;stroke:#00bfc4;" x="186.200409" xlink:href="#m2ad6319e0e" y="148.88541"/>
     <use style="fill:#00bfc4;stroke:#00bfc4;" x="268.713835" xlink:href="#m2ad6319e0e" y="148.703704"/>
     <use style="fill:#00bfc4;stroke:#00bfc4;" x="442.38788" xlink:href="#m2ad6319e0e" y="154.442954"/>
     <use style="fill:#00bfc4;stroke:#00bfc4;" x="312.384091" xlink:href="#m2ad6319e0e" y="249.150067"/>
     <use style="fill:#00bfc4;stroke:#00bfc4;" x="183.234237" xlink:href="#m2ad6319e0e" y="151.431739"/>
     <use style="fill:#00bfc4;stroke:#00bfc4;" x="270.190244" xlink:href="#m2ad6319e0e" y="237.007219"/>
     <use style="fill:#00bfc4;stroke:#00bfc4;" x="370.87905" xlink:href="#m2ad6319e0e" y="175.785532"/>
     <use style="fill:#00bfc4;stroke:#00bfc4;" x="295.347039" xlink:href="#m2ad6319e0e" y="294.836373"/>
     <use style="fill:#00bfc4;stroke:#00bfc4;" x="301.413636" xlink:href="#m2ad6319e0e" y="88.72575"/>
     <use style="fill:#00bfc4;stroke:#00bfc4;" x="248.48702" xlink:href="#m2ad6319e0e" y="82.206138"/>
     <use style="fill:#00bfc4;stroke:#00bfc4;" x="265.714419" xlink:href="#m2ad6319e0e" y="188.414487"/>
     <use style="fill:#00bfc4;stroke:#00bfc4;" x="528.575539" xlink:href="#m2ad6319e0e" y="238.811347"/>
     <use style="fill:#00bfc4;stroke:#00bfc4;" x="346.594802" xlink:href="#m2ad6319e0e" y="127.454508"/>
     <use style="fill:#00bfc4;stroke:#00bfc4;" x="172.395072" xlink:href="#m2ad6319e0e" y="244.737005"/>
     <use style="fill:#00bfc4;stroke:#00bfc4;" x="526.421143" xlink:href="#m2ad6319e0e" y="202.726122"/>
     <use style="fill:#00bfc4;stroke:#00bfc4;" x="544.844767" xlink:href="#m2ad6319e0e" y="270.13125"/>
     <use style="fill:#00bfc4;stroke:#00bfc4;" x="317.207818" xlink:href="#m2ad6319e0e" y="360.621694"/>
     <use style="fill:#00bfc4;stroke:#00bfc4;" x="455.500565" xlink:href="#m2ad6319e0e" y="135.637706"/>
     <use style="fill:#00bfc4;stroke:#00bfc4;" x="397.061644" xlink:href="#m2ad6319e0e" y="194.597981"/>
     <use style="fill:#00bfc4;stroke:#00bfc4;" x="459.684207" xlink:href="#m2ad6319e0e" y="221.800046"/>
     <use style="fill:#00bfc4;stroke:#00bfc4;" x="434.414508" xlink:href="#m2ad6319e0e" y="292.538871"/>
     <use style="fill:#00bfc4;stroke:#00bfc4;" x="438.82709" xlink:href="#m2ad6319e0e" y="161.105407"/>
     <use style="fill:#00bfc4;stroke:#00bfc4;" x="475.963799" xlink:href="#m2ad6319e0e" y="291.571958"/>
     <use style="fill:#00bfc4;stroke:#00bfc4;" x="429.624243" xlink:href="#m2ad6319e0e" y="264.603609"/>
     <use style="fill:#00bfc4;stroke:#00bfc4;" x="298.854868" xlink:href="#m2ad6319e0e" y="217.03527"/>
     <use style="fill:#00bfc4;stroke:#00bfc4;" x="239.361389" xlink:href="#m2ad6319e0e" y="306.56092"/>
     <use style="fill:#00bfc4;stroke:#00bfc4;" x="137.293867" xlink:href="#m2ad6319e0e" y="283.484926"/>
     <use style="fill:#00bfc4;stroke:#00bfc4;" x="303.894838" xlink:href="#m2ad6319e0e" y="242.604346"/>
     <use style="fill:#00bfc4;stroke:#00bfc4;" x="330.862713" xlink:href="#m2ad6319e0e" y="106.927623"/>
     <use style="fill:#00bfc4;stroke:#00bfc4;" x="229.24164" xlink:href="#m2ad6319e0e" y="309.672334"/>
     <use style="fill:#00bfc4;stroke:#00bfc4;" x="434.9187" xlink:href="#m2ad6319e0e" y="259.628813"/>
     <use style="fill:#00bfc4;stroke:#00bfc4;" x="296.44658" xlink:href="#m2ad6319e0e" y="281.72432"/>
     <use style="fill:#00bfc4;stroke:#00bfc4;" x="459.618604" xlink:href="#m2ad6319e0e" y="302.042564"/>
     <use style="fill:#00bfc4;stroke:#00bfc4;" x="467.671605" xlink:href="#m2ad6319e0e" y="90.52697"/>
     <use style="fill:#00bfc4;stroke:#00bfc4;" x="346.238758" xlink:href="#m2ad6319e0e" y="126.353007"/>
     <use style="fill:#00bfc4;stroke:#00bfc4;" x="360.678219" xlink:href="#m2ad6319e0e" y="73.140624"/>
     <use style="fill:#00bfc4;stroke:#00bfc4;" x="381.266503" xlink:href="#m2ad6319e0e" y="119.185372"/>
     <use style="fill:#00bfc4;stroke:#00bfc4;" x="273.229747" xlink:href="#m2ad6319e0e" y="338.061006"/>
     <use style="fill:#00bfc4;stroke:#00bfc4;" x="196.817055" xlink:href="#m2ad6319e0e" y="354.04605"/>
     <use style="fill:#00bfc4;stroke:#00bfc4;" x="265.316843" xlink:href="#m2ad6319e0e" y="349.576329"/>
     <use style="fill:#00bfc4;stroke:#00bfc4;" x="371.841225" xlink:href="#m2ad6319e0e" y="220.811843"/>
     <use style="fill:#00bfc4;stroke:#00bfc4;" x="385.274812" xlink:href="#m2ad6319e0e" y="249.915555"/>
     <use style="fill:#00bfc4;stroke:#00bfc4;" x="288.070792" xlink:href="#m2ad6319e0e" y="254.348069"/>
     <use style="fill:#00bfc4;stroke:#00bfc4;" x="233.875634" xlink:href="#m2ad6319e0e" y="253.373574"/>
     <use style="fill:#00bfc4;stroke:#00bfc4;" x="225.552128" xlink:href="#m2ad6319e0e" y="230.098828"/>
     <use style="fill:#00bfc4;stroke:#00bfc4;" x="537.641343" xlink:href="#m2ad6319e0e" y="102.772361"/>
     <use style="fill:#00bfc4;stroke:#00bfc4;" x="276.350696" xlink:href="#m2ad6319e0e" y="190.38835"/>
     <use style="fill:#00bfc4;stroke:#00bfc4;" x="461.207984" xlink:href="#m2ad6319e0e" y="336.635239"/>
     <use style="fill:#00bfc4;stroke:#00bfc4;" x="168.412728" xlink:href="#m2ad6319e0e" y="282.98937"/>
     <use style="fill:#00bfc4;stroke:#00bfc4;" x="221.130038" xlink:href="#m2ad6319e0e" y="250.161895"/>
     <use style="fill:#00bfc4;stroke:#00bfc4;" x="368.627324" xlink:href="#m2ad6319e0e" y="251.042646"/>
     <use style="fill:#00bfc4;stroke:#00bfc4;" x="291.963746" xlink:href="#m2ad6319e0e" y="185.126259"/>
     <use style="fill:#00bfc4;stroke:#00bfc4;" x="324.305204" xlink:href="#m2ad6319e0e" y="265.354072"/>
     <use style="fill:#00bfc4;stroke:#00bfc4;" x="348.353408" xlink:href="#m2ad6319e0e" y="279.125111"/>
     <use style="fill:#00bfc4;stroke:#00bfc4;" x="549.161971" xlink:href="#m2ad6319e0e" y="281.75968"/>
     <use style="fill:#00bfc4;stroke:#00bfc4;" x="166.370079" xlink:href="#m2ad6319e0e" y="330.476169"/>
     <use style="fill:#00bfc4;stroke:#00bfc4;" x="334.796002" xlink:href="#m2ad6319e0e" y="354.025197"/>
     <use style="fill:#00bfc4;stroke:#00bfc4;" x="201.305765" xlink:href="#m2ad6319e0e" y="127.823044"/>
     <use style="fill:#00bfc4;stroke:#00bfc4;" x="327.244714" xlink:href="#m2ad6319e0e" y="219.308155"/>
     <use style="fill:#00bfc4;stroke:#00bfc4;" x="301.388096" xlink:href="#m2ad6319e0e" y="168.614192"/>
     <use style="fill:#00bfc4;stroke:#00bfc4;" x="273.722524" xlink:href="#m2ad6319e0e" y="200.07682"/>
     <use style="fill:#00bfc4;stroke:#00bfc4;" x="357.947737" xlink:href="#m2ad6319e0e" y="289.761968"/>
     <use style="fill:#00bfc4;stroke:#00bfc4;" x="202.640558" xlink:href="#m2ad6319e0e" y="210.338797"/>
     <use style="fill:#00bfc4;stroke:#00bfc4;" x="307.855982" xlink:href="#m2ad6319e0e" y="90.061582"/>
     <use style="fill:#00bfc4;stroke:#00bfc4;" x="333.955176" xlink:href="#m2ad6319e0e" y="318.913095"/>
     <use style="fill:#00bfc4;stroke:#00bfc4;" x="439.034435" xlink:href="#m2ad6319e0e" y="238.995266"/>
     <use style="fill:#00bfc4;stroke:#00bfc4;" x="412.139355" xlink:href="#m2ad6319e0e" y="125.626515"/>
     <use style="fill:#00bfc4;stroke:#00bfc4;" x="305.293363" xlink:href="#m2ad6319e0e" y="97.474866"/>
     <use style="fill:#00bfc4;stroke:#00bfc4;" x="270.941029" xlink:href="#m2ad6319e0e" y="357.332644"/>
     <use style="fill:#00bfc4;stroke:#00bfc4;" x="327.695965" xlink:href="#m2ad6319e0e" y="326.30504"/>
     <use style="fill:#00bfc4;stroke:#00bfc4;" x="187.184243" xlink:href="#m2ad6319e0e" y="183.53106"/>
     <use style="fill:#00bfc4;stroke:#00bfc4;" x="276.01498" xlink:href="#m2ad6319e0e" y="250.090348"/>
     <use style="fill:#00bfc4;stroke:#00bfc4;" x="537.923841" xlink:href="#m2ad6319e0e" y="299.395977"/>
     <use style="fill:#00bfc4;stroke:#00bfc4;" x="343.449691" xlink:href="#m2ad6319e0e" y="282.711469"/>
     <use style="fill:#00bfc4;stroke:#00bfc4;" x="163.476192" xlink:href="#m2ad6319e0e" y="281.846499"/>
     <use style="fill:#00bfc4;stroke:#00bfc4;" x="269.801004" xlink:href="#m2ad6319e0e" y="145.118748"/>
     <use style="fill:#00bfc4;stroke:#00bfc4;" x="234.847796" xlink:href="#m2ad6319e0e" y="307.078055"/>
     <use style="fill:#00bfc4;stroke:#00bfc4;" x="350.409991" xlink:href="#m2ad6319e0e" y="294.26202"/>
     <use style="fill:#00bfc4;stroke:#00bfc4;" x="309.61086" xlink:href="#m2ad6319e0e" y="181.138255"/>
     <use style="fill:#00bfc4;stroke:#00bfc4;" x="393.337866" xlink:href="#m2ad6319e0e" y="168.755956"/>
     <use style="fill:#00bfc4;stroke:#00bfc4;" x="219.119778" xlink:href="#m2ad6319e0e" y="229.085534"/>
     <use style="fill:#00bfc4;stroke:#00bfc4;" x="434.10443" xlink:href="#m2ad6319e0e" y="103.264735"/>
     <use style="fill:#00bfc4;stroke:#00bfc4;" x="385.077161" xlink:href="#m2ad6319e0e" y="292.058154"/>
     <use style="fill:#00bfc4;stroke:#00bfc4;" x="249.512279" xlink:href="#m2ad6319e0e" y="81.851132"/>
     <use style="fill:#00bfc4;stroke:#00bfc4;" x="269.048585" xlink:href="#m2ad6319e0e" y="265.166784"/>
     <use style="fill:#00bfc4;stroke:#00bfc4;" x="319.59676" xlink:href="#m2ad6319e0e" y="144.796001"/>
     <use style="fill:#00bfc4;stroke:#00bfc4;" x="194.443289" xlink:href="#m2ad6319e0e" y="231.872662"/>
     <use style="fill:#00bfc4;stroke:#00bfc4;" x="172.649477" xlink:href="#m2ad6319e0e" y="317.328797"/>
     <use style="fill:#00bfc4;stroke:#00bfc4;" x="278.789472" xlink:href="#m2ad6319e0e" y="263.218872"/>
     <use style="fill:#00bfc4;stroke:#00bfc4;" x="303.14685" xlink:href="#m2ad6319e0e" y="221.966519"/>
     <use style="fill:#00bfc4;stroke:#00bfc4;" x="559.505396" xlink:href="#m2ad6319e0e" y="281.749397"/>
     <use style="fill:#00bfc4;stroke:#00bfc4;" x="242.758421" xlink:href="#m2ad6319e0e" y="162.742838"/>
     <use style="fill:#00bfc4;stroke:#00bfc4;" x="180.95934" xlink:href="#m2ad6319e0e" y="183.236251"/>
     <use style="fill:#00bfc4;stroke:#00bfc4;" x="292.000673" xlink:href="#m2ad6319e0e" y="184.453488"/>
     <use style="fill:#00bfc4;stroke:#00bfc4;" x="248.524652" xlink:href="#m2ad6319e0e" y="190.338649"/>
     <use style="fill:#00bfc4;stroke:#00bfc4;" x="542.624747" xlink:href="#m2ad6319e0e" y="289.76585"/>
     <use style="fill:#00bfc4;stroke:#00bfc4;" x="311.60749" xlink:href="#m2ad6319e0e" y="299.905768"/>
     <use style="fill:#00bfc4;stroke:#00bfc4;" x="228.091935" xlink:href="#m2ad6319e0e" y="191.061192"/>
     <use style="fill:#00bfc4;stroke:#00bfc4;" x="214.510838" xlink:href="#m2ad6319e0e" y="173.196226"/>
     <use style="fill:#00bfc4;stroke:#00bfc4;" x="238.54409" xlink:href="#m2ad6319e0e" y="243.951343"/>
     <use style="fill:#00bfc4;stroke:#00bfc4;" x="414.086073" xlink:href="#m2ad6319e0e" y="208.469935"/>
     <use style="fill:#00bfc4;stroke:#00bfc4;" x="475.508789" xlink:href="#m2ad6319e0e" y="177.065178"/>
     <use style="fill:#00bfc4;stroke:#00bfc4;" x="443.738661" xlink:href="#m2ad6319e0e" y="211.950803"/>
     <use style="fill:#00bfc4;stroke:#00bfc4;" x="440.87329" xlink:href="#m2ad6319e0e" y="221.259204"/>
     <use style="fill:#00bfc4;stroke:#00bfc4;" x="513.820267" xlink:href="#m2ad6319e0e" y="215.805948"/>
     <use style="fill:#00bfc4;stroke:#00bfc4;" x="488.056719" xlink:href="#m2ad6319e0e" y="203.433573"/>
     <use style="fill:#00bfc4;stroke:#00bfc4;" x="447.223494" xlink:href="#m2ad6319e0e" y="178.09832"/>
     <use style="fill:#00bfc4;stroke:#00bfc4;" x="432.426546" xlink:href="#m2ad6319e0e" y="213.336681"/>
     <use style="fill:#00bfc4;stroke:#00bfc4;" x="499.104408" xlink:href="#m2ad6319e0e" y="194.206937"/>
     <use style="fill:#00bfc4;stroke:#00bfc4;" x="443.019194" xlink:href="#m2ad6319e0e" y="199.305121"/>
     <use style="fill:#00bfc4;stroke:#00bfc4;" x="490.118365" xlink:href="#m2ad6319e0e" y="198.439772"/>
     <use style="fill:#00bfc4;stroke:#00bfc4;" x="564.229223" xlink:href="#m2ad6319e0e" y="192.406838"/>
     <use style="fill:#00bfc4;stroke:#00bfc4;" x="544.855875" xlink:href="#m2ad6319e0e" y="149.24874"/>
     <use style="fill:#00bfc4;stroke:#00bfc4;" x="478.342405" xlink:href="#m2ad6319e0e" y="153.934763"/>
     <use style="fill:#00bfc4;stroke:#00bfc4;" x="451.387667" xlink:href="#m2ad6319e0e" y="186.338238"/>
     <use style="fill:#00bfc4;stroke:#00bfc4;" x="464.789692" xlink:href="#m2ad6319e0e" y="191.534517"/>
     <use style="fill:#00bfc4;stroke:#00bfc4;" x="450.268923" xlink:href="#m2ad6319e0e" y="201.879271"/>
     <use style="fill:#00bfc4;stroke:#00bfc4;" x="463.045923" xlink:href="#m2ad6319e0e" y="212.665471"/>
     <use style="fill:#00bfc4;stroke:#00bfc4;" x="456.185962" xlink:href="#m2ad6319e0e" y="210.264164"/>
     <use style="fill:#00bfc4;stroke:#00bfc4;" x="443.019154" xlink:href="#m2ad6319e0e" y="199.305125"/>
     <use style="fill:#00bfc4;stroke:#00bfc4;" x="451.538304" xlink:href="#m2ad6319e0e" y="172.293239"/>
     <use style="fill:#00bfc4;stroke:#00bfc4;" x="506.825618" xlink:href="#m2ad6319e0e" y="195.557151"/>
     <use style="fill:#00bfc4;stroke:#00bfc4;" x="409.922549" xlink:href="#m2ad6319e0e" y="168.347816"/>
     <use style="fill:#00bfc4;stroke:#00bfc4;" x="391.682399" xlink:href="#m2ad6319e0e" y="260.091159"/>
     <use style="fill:#00bfc4;stroke:#00bfc4;" x="332.147789" xlink:href="#m2ad6319e0e" y="109.883278"/>
     <use style="fill:#00bfc4;stroke:#00bfc4;" x="284.120897" xlink:href="#m2ad6319e0e" y="305.880403"/>
     <use style="fill:#00bfc4;stroke:#00bfc4;" x="386.439232" xlink:href="#m2ad6319e0e" y="190.26825"/>
     <use style="fill:#00bfc4;stroke:#00bfc4;" x="584.646635" xlink:href="#m2ad6319e0e" y="194.076591"/>
     <use style="fill:#00bfc4;stroke:#00bfc4;" x="354.187217" xlink:href="#m2ad6319e0e" y="345.32297"/>
     <use style="fill:#00bfc4;stroke:#00bfc4;" x="194.378852" xlink:href="#m2ad6319e0e" y="342.293638"/>
     <use style="fill:#00bfc4;stroke:#00bfc4;" x="428.779605" xlink:href="#m2ad6319e0e" y="101.53004"/>
     <use style="fill:#00bfc4;stroke:#00bfc4;" x="365.340905" xlink:href="#m2ad6319e0e" y="315.655715"/>
     <use style="fill:#00bfc4;stroke:#00bfc4;" x="395.147199" xlink:href="#m2ad6319e0e" y="328.387485"/>
     <use style="fill:#00bfc4;stroke:#00bfc4;" x="218.508014" xlink:href="#m2ad6319e0e" y="264.069644"/>
     <use style="fill:#00bfc4;stroke:#00bfc4;" x="258.162893" xlink:href="#m2ad6319e0e" y="121.404398"/>
     <use style="fill:#00bfc4;stroke:#00bfc4;" x="287.056139" xlink:href="#m2ad6319e0e" y="329.128517"/>
     <use style="fill:#00bfc4;stroke:#00bfc4;" x="382.211946" xlink:href="#m2ad6319e0e" y="69.515002"/>
     <use style="fill:#00bfc4;stroke:#00bfc4;" x="338.599665" xlink:href="#m2ad6319e0e" y="302.411351"/>
     <use style="fill:#00bfc4;stroke:#00bfc4;" x="351.973433" xlink:href="#m2ad6319e0e" y="151.18199"/>
     <use style="fill:#00bfc4;stroke:#00bfc4;" x="431.516707" xlink:href="#m2ad6319e0e" y="341.741796"/>
     <use style="fill:#00bfc4;stroke:#00bfc4;" x="190.362791" xlink:href="#m2ad6319e0e" y="167.367211"/>
     <use style="fill:#00bfc4;stroke:#00bfc4;" x="228.150164" xlink:href="#m2ad6319e0e" y="310.131432"/>
     <use style="fill:#00bfc4;stroke:#00bfc4;" x="322.183022" xlink:href="#m2ad6319e0e" y="327.044449"/>
     <use style="fill:#00bfc4;stroke:#00bfc4;" x="183.676277" xlink:href="#m2ad6319e0e" y="252.305359"/>
     <use style="fill:#00bfc4;stroke:#00bfc4;" x="270.319273" xlink:href="#m2ad6319e0e" y="351.865064"/>
     <use style="fill:#00bfc4;stroke:#00bfc4;" x="412.393398" xlink:href="#m2ad6319e0e" y="317.779968"/>
     <use style="fill:#00bfc4;stroke:#00bfc4;" x="383.782701" xlink:href="#m2ad6319e0e" y="69.218306"/>
     <use style="fill:#00bfc4;stroke:#00bfc4;" x="313.021466" xlink:href="#m2ad6319e0e" y="80.122129"/>
     <use style="fill:#00bfc4;stroke:#00bfc4;" x="460.387485" xlink:href="#m2ad6319e0e" y="92.652492"/>
     <use style="fill:#00bfc4;stroke:#00bfc4;" x="371.921884" xlink:href="#m2ad6319e0e" y="139.778796"/>
     <use style="fill:#00bfc4;stroke:#00bfc4;" x="193.299783" xlink:href="#m2ad6319e0e" y="180.726628"/>
    </g>
   </g>
   <g id="matplotlib.axis_1">
    <g id="xtick_1">
     <g id="line2d_1">
      <defs>
       <path d="M 0 0 
L 0 3.5 
" id="m678d3203c6" style="stroke:#000000;stroke-width:0.8;"/>
      </defs>
      <g>
       <use style="stroke:#000000;stroke-width:0.8;" x="129.802149" xlink:href="#m678d3203c6" y="378"/>
      </g>
     </g>
     <g id="text_1">
      <!-- −10 -->
      <defs>
       <path d="M 10.59375 35.5 
L 73.1875 35.5 
L 73.1875 27.203125 
L 10.59375 27.203125 
z
" id="DejaVuSans-8722"/>
       <path d="M 12.40625 8.296875 
L 28.515625 8.296875 
L 28.515625 63.921875 
L 10.984375 60.40625 
L 10.984375 69.390625 
L 28.421875 72.90625 
L 38.28125 72.90625 
L 38.28125 8.296875 
L 54.390625 8.296875 
L 54.390625 0 
L 12.40625 0 
z
" id="DejaVuSans-49"/>
       <path d="M 31.78125 66.40625 
Q 24.171875 66.40625 20.328125 58.90625 
Q 16.5 51.421875 16.5 36.375 
Q 16.5 21.390625 20.328125 13.890625 
Q 24.171875 6.390625 31.78125 6.390625 
Q 39.453125 6.390625 43.28125 13.890625 
Q 47.125 21.390625 47.125 36.375 
Q 47.125 51.421875 43.28125 58.90625 
Q 39.453125 66.40625 31.78125 66.40625 
z
M 31.78125 74.21875 
Q 44.046875 74.21875 50.515625 64.515625 
Q 56.984375 54.828125 56.984375 36.375 
Q 56.984375 17.96875 50.515625 8.265625 
Q 44.046875 -1.421875 31.78125 -1.421875 
Q 19.53125 -1.421875 13.0625 8.265625 
Q 6.59375 17.96875 6.59375 36.375 
Q 6.59375 54.828125 13.0625 64.515625 
Q 19.53125 74.21875 31.78125 74.21875 
z
" id="DejaVuSans-48"/>
      </defs>
      <g transform="translate(119.249806 392.598437)scale(0.1 -0.1)">
       <use xlink:href="#DejaVuSans-8722"/>
       <use x="83.789062" xlink:href="#DejaVuSans-49"/>
       <use x="147.412109" xlink:href="#DejaVuSans-48"/>
      </g>
     </g>
    </g>
    <g id="xtick_2">
     <g id="line2d_2">
      <g>
       <use style="stroke:#000000;stroke-width:0.8;" x="235.308953" xlink:href="#m678d3203c6" y="378"/>
      </g>
     </g>
     <g id="text_2">
      <!-- −5 -->
      <defs>
       <path d="M 10.796875 72.90625 
L 49.515625 72.90625 
L 49.515625 64.59375 
L 19.828125 64.59375 
L 19.828125 46.734375 
Q 21.96875 47.46875 24.109375 47.828125 
Q 26.265625 48.1875 28.421875 48.1875 
Q 40.625 48.1875 47.75 41.5 
Q 54.890625 34.8125 54.890625 23.390625 
Q 54.890625 11.625 47.5625 5.09375 
Q 40.234375 -1.421875 26.90625 -1.421875 
Q 22.3125 -1.421875 17.546875 -0.640625 
Q 12.796875 0.140625 7.71875 1.703125 
L 7.71875 11.625 
Q 12.109375 9.234375 16.796875 8.0625 
Q 21.484375 6.890625 26.703125 6.890625 
Q 35.15625 6.890625 40.078125 11.328125 
Q 45.015625 15.765625 45.015625 23.390625 
Q 45.015625 31 40.078125 35.4375 
Q 35.15625 39.890625 26.703125 39.890625 
Q 22.75 39.890625 18.8125 39.015625 
Q 14.890625 38.140625 10.796875 36.28125 
z
" id="DejaVuSans-53"/>
      </defs>
      <g transform="translate(227.937859 392.598437)scale(0.1 -0.1)">
       <use xlink:href="#DejaVuSans-8722"/>
       <use x="83.789062" xlink:href="#DejaVuSans-53"/>
      </g>
     </g>
    </g>
    <g id="xtick_3">
     <g id="line2d_3">
      <g>
       <use style="stroke:#000000;stroke-width:0.8;" x="340.815757" xlink:href="#m678d3203c6" y="378"/>
      </g>
     </g>
     <g id="text_3">
      <!-- 0 -->
      <g transform="translate(337.634507 392.598437)scale(0.1 -0.1)">
       <use xlink:href="#DejaVuSans-48"/>
      </g>
     </g>
    </g>
    <g id="xtick_4">
     <g id="line2d_4">
      <g>
       <use style="stroke:#000000;stroke-width:0.8;" x="446.322561" xlink:href="#m678d3203c6" y="378"/>
      </g>
     </g>
     <g id="text_4">
      <!-- 5 -->
      <g transform="translate(443.141311 392.598437)scale(0.1 -0.1)">
       <use xlink:href="#DejaVuSans-53"/>
      </g>
     </g>
    </g>
    <g id="xtick_5">
     <g id="line2d_5">
      <g>
       <use style="stroke:#000000;stroke-width:0.8;" x="551.829364" xlink:href="#m678d3203c6" y="378"/>
      </g>
     </g>
     <g id="text_5">
      <!-- 10 -->
      <g transform="translate(545.466864 392.598437)scale(0.1 -0.1)">
       <use xlink:href="#DejaVuSans-49"/>
       <use x="63.623047" xlink:href="#DejaVuSans-48"/>
      </g>
     </g>
    </g>
    <g id="text_6">
     <!-- tSNE-1 -->
     <defs>
      <path d="M 18.3125 70.21875 
L 18.3125 54.6875 
L 36.8125 54.6875 
L 36.8125 47.703125 
L 18.3125 47.703125 
L 18.3125 18.015625 
Q 18.3125 11.328125 20.140625 9.421875 
Q 21.96875 7.515625 27.59375 7.515625 
L 36.8125 7.515625 
L 36.8125 0 
L 27.59375 0 
Q 17.1875 0 13.234375 3.875 
Q 9.28125 7.765625 9.28125 18.015625 
L 9.28125 47.703125 
L 2.6875 47.703125 
L 2.6875 54.6875 
L 9.28125 54.6875 
L 9.28125 70.21875 
z
" id="DejaVuSans-116"/>
      <path d="M 53.515625 70.515625 
L 53.515625 60.890625 
Q 47.90625 63.578125 42.921875 64.890625 
Q 37.9375 66.21875 33.296875 66.21875 
Q 25.25 66.21875 20.875 63.09375 
Q 16.5 59.96875 16.5 54.203125 
Q 16.5 49.359375 19.40625 46.890625 
Q 22.3125 44.4375 30.421875 42.921875 
L 36.375 41.703125 
Q 47.40625 39.59375 52.65625 34.296875 
Q 57.90625 29 57.90625 20.125 
Q 57.90625 9.515625 50.796875 4.046875 
Q 43.703125 -1.421875 29.984375 -1.421875 
Q 24.8125 -1.421875 18.96875 -0.25 
Q 13.140625 0.921875 6.890625 3.21875 
L 6.890625 13.375 
Q 12.890625 10.015625 18.65625 8.296875 
Q 24.421875 6.59375 29.984375 6.59375 
Q 38.421875 6.59375 43.015625 9.90625 
Q 47.609375 13.234375 47.609375 19.390625 
Q 47.609375 24.75 44.3125 27.78125 
Q 41.015625 30.8125 33.5 32.328125 
L 27.484375 33.5 
Q 16.453125 35.6875 11.515625 40.375 
Q 6.59375 45.0625 6.59375 53.421875 
Q 6.59375 63.09375 13.40625 68.65625 
Q 20.21875 74.21875 32.171875 74.21875 
Q 37.3125 74.21875 42.625 73.28125 
Q 47.953125 72.359375 53.515625 70.515625 
z
" id="DejaVuSans-83"/>
      <path d="M 9.8125 72.90625 
L 23.09375 72.90625 
L 55.421875 11.921875 
L 55.421875 72.90625 
L 64.984375 72.90625 
L 64.984375 0 
L 51.703125 0 
L 19.390625 60.984375 
L 19.390625 0 
L 9.8125 0 
z
" id="DejaVuSans-78"/>
      <path d="M 9.8125 72.90625 
L 55.90625 72.90625 
L 55.90625 64.59375 
L 19.671875 64.59375 
L 19.671875 43.015625 
L 54.390625 43.015625 
L 54.390625 34.71875 
L 19.671875 34.71875 
L 19.671875 8.296875 
L 56.78125 8.296875 
L 56.78125 0 
L 9.8125 0 
z
" id="DejaVuSans-69"/>
      <path d="M 4.890625 31.390625 
L 31.203125 31.390625 
L 31.203125 23.390625 
L 4.890625 23.390625 
z
" id="DejaVuSans-45"/>
     </defs>
     <g transform="translate(351.980469 406.276563)scale(0.1 -0.1)">
      <use xlink:href="#DejaVuSans-116"/>
      <use x="39.208984" xlink:href="#DejaVuSans-83"/>
      <use x="102.685547" xlink:href="#DejaVuSans-78"/>
      <use x="177.490234" xlink:href="#DejaVuSans-69"/>
      <use x="240.673828" xlink:href="#DejaVuSans-45"/>
      <use x="276.757812" xlink:href="#DejaVuSans-49"/>
     </g>
    </g>
   </g>
   <g id="matplotlib.axis_2">
    <g id="ytick_1">
     <g id="line2d_6">
      <defs>
       <path d="M 0 0 
L -3.5 0 
" id="mb223fc0d0a" style="stroke:#000000;stroke-width:0.8;"/>
      </defs>
      <g>
       <use style="stroke:#000000;stroke-width:0.8;" x="90" xlink:href="#mb223fc0d0a" y="347.831768"/>
      </g>
     </g>
     <g id="text_7">
      <!-- −7.5 -->
      <defs>
       <path d="M 8.203125 72.90625 
L 55.078125 72.90625 
L 55.078125 68.703125 
L 28.609375 0 
L 18.3125 0 
L 43.21875 64.59375 
L 8.203125 64.59375 
z
" id="DejaVuSans-55"/>
       <path d="M 10.6875 12.40625 
L 21 12.40625 
L 21 0 
L 10.6875 0 
z
" id="DejaVuSans-46"/>
      </defs>
      <g transform="translate(58.717187 351.630986)scale(0.1 -0.1)">
       <use xlink:href="#DejaVuSans-8722"/>
       <use x="83.789062" xlink:href="#DejaVuSans-55"/>
       <use x="147.412109" xlink:href="#DejaVuSans-46"/>
       <use x="179.199219" xlink:href="#DejaVuSans-53"/>
      </g>
     </g>
    </g>
    <g id="ytick_2">
     <g id="line2d_7">
      <g>
       <use style="stroke:#000000;stroke-width:0.8;" x="90" xlink:href="#mb223fc0d0a" y="309.173257"/>
      </g>
     </g>
     <g id="text_8">
      <!-- −5.0 -->
      <g transform="translate(58.717187 312.972476)scale(0.1 -0.1)">
       <use xlink:href="#DejaVuSans-8722"/>
       <use x="83.789062" xlink:href="#DejaVuSans-53"/>
       <use x="147.412109" xlink:href="#DejaVuSans-46"/>
       <use x="179.199219" xlink:href="#DejaVuSans-48"/>
      </g>
     </g>
    </g>
    <g id="ytick_3">
     <g id="line2d_8">
      <g>
       <use style="stroke:#000000;stroke-width:0.8;" x="90" xlink:href="#mb223fc0d0a" y="270.514747"/>
      </g>
     </g>
     <g id="text_9">
      <!-- −2.5 -->
      <defs>
       <path d="M 19.1875 8.296875 
L 53.609375 8.296875 
L 53.609375 0 
L 7.328125 0 
L 7.328125 8.296875 
Q 12.9375 14.109375 22.625 23.890625 
Q 32.328125 33.6875 34.8125 36.53125 
Q 39.546875 41.84375 41.421875 45.53125 
Q 43.3125 49.21875 43.3125 52.78125 
Q 43.3125 58.59375 39.234375 62.25 
Q 35.15625 65.921875 28.609375 65.921875 
Q 23.96875 65.921875 18.8125 64.3125 
Q 13.671875 62.703125 7.8125 59.421875 
L 7.8125 69.390625 
Q 13.765625 71.78125 18.9375 73 
Q 24.125 74.21875 28.421875 74.21875 
Q 39.75 74.21875 46.484375 68.546875 
Q 53.21875 62.890625 53.21875 53.421875 
Q 53.21875 48.921875 51.53125 44.890625 
Q 49.859375 40.875 45.40625 35.40625 
Q 44.1875 33.984375 37.640625 27.21875 
Q 31.109375 20.453125 19.1875 8.296875 
z
" id="DejaVuSans-50"/>
      </defs>
      <g transform="translate(58.717187 274.313966)scale(0.1 -0.1)">
       <use xlink:href="#DejaVuSans-8722"/>
       <use x="83.789062" xlink:href="#DejaVuSans-50"/>
       <use x="147.412109" xlink:href="#DejaVuSans-46"/>
       <use x="179.199219" xlink:href="#DejaVuSans-53"/>
      </g>
     </g>
    </g>
    <g id="ytick_4">
     <g id="line2d_9">
      <g>
       <use style="stroke:#000000;stroke-width:0.8;" x="90" xlink:href="#mb223fc0d0a" y="231.856236"/>
      </g>
     </g>
     <g id="text_10">
      <!-- 0.0 -->
      <g transform="translate(67.096875 235.655455)scale(0.1 -0.1)">
       <use xlink:href="#DejaVuSans-48"/>
       <use x="63.623047" xlink:href="#DejaVuSans-46"/>
       <use x="95.410156" xlink:href="#DejaVuSans-48"/>
      </g>
     </g>
    </g>
    <g id="ytick_5">
     <g id="line2d_10">
      <g>
       <use style="stroke:#000000;stroke-width:0.8;" x="90" xlink:href="#mb223fc0d0a" y="193.197726"/>
      </g>
     </g>
     <g id="text_11">
      <!-- 2.5 -->
      <g transform="translate(67.096875 196.996945)scale(0.1 -0.1)">
       <use xlink:href="#DejaVuSans-50"/>
       <use x="63.623047" xlink:href="#DejaVuSans-46"/>
       <use x="95.410156" xlink:href="#DejaVuSans-53"/>
      </g>
     </g>
    </g>
    <g id="ytick_6">
     <g id="line2d_11">
      <g>
       <use style="stroke:#000000;stroke-width:0.8;" x="90" xlink:href="#mb223fc0d0a" y="154.539216"/>
      </g>
     </g>
     <g id="text_12">
      <!-- 5.0 -->
      <g transform="translate(67.096875 158.338434)scale(0.1 -0.1)">
       <use xlink:href="#DejaVuSans-53"/>
       <use x="63.623047" xlink:href="#DejaVuSans-46"/>
       <use x="95.410156" xlink:href="#DejaVuSans-48"/>
      </g>
     </g>
    </g>
    <g id="ytick_7">
     <g id="line2d_12">
      <g>
       <use style="stroke:#000000;stroke-width:0.8;" x="90" xlink:href="#mb223fc0d0a" y="115.880705"/>
      </g>
     </g>
     <g id="text_13">
      <!-- 7.5 -->
      <g transform="translate(67.096875 119.679924)scale(0.1 -0.1)">
       <use xlink:href="#DejaVuSans-55"/>
       <use x="63.623047" xlink:href="#DejaVuSans-46"/>
       <use x="95.410156" xlink:href="#DejaVuSans-53"/>
      </g>
     </g>
    </g>
    <g id="ytick_8">
     <g id="line2d_13">
      <g>
       <use style="stroke:#000000;stroke-width:0.8;" x="90" xlink:href="#mb223fc0d0a" y="77.222195"/>
      </g>
     </g>
     <g id="text_14">
      <!-- 10.0 -->
      <g transform="translate(60.734375 81.021413)scale(0.1 -0.1)">
       <use xlink:href="#DejaVuSans-49"/>
       <use x="63.623047" xlink:href="#DejaVuSans-48"/>
       <use x="127.246094" xlink:href="#DejaVuSans-46"/>
       <use x="159.033203" xlink:href="#DejaVuSans-48"/>
      </g>
     </g>
    </g>
    <g id="text_15">
     <!-- tSNE-2 -->
     <g transform="translate(52.6375 231.939531)rotate(-90)scale(0.1 -0.1)">
      <use xlink:href="#DejaVuSans-116"/>
      <use x="39.208984" xlink:href="#DejaVuSans-83"/>
      <use x="102.685547" xlink:href="#DejaVuSans-78"/>
      <use x="177.490234" xlink:href="#DejaVuSans-69"/>
      <use x="240.673828" xlink:href="#DejaVuSans-45"/>
      <use x="276.757812" xlink:href="#DejaVuSans-50"/>
     </g>
    </g>
   </g>
   <g id="patch_3">
    <path d="M 90 378 
L 90 51.84 
" style="fill:none;stroke:#000000;stroke-linecap:square;stroke-linejoin:miter;stroke-width:0.8;"/>
   </g>
   <g id="patch_4">
    <path d="M 648 378 
L 648 51.84 
" style="fill:none;stroke:#000000;stroke-linecap:square;stroke-linejoin:miter;stroke-width:0.8;"/>
   </g>
   <g id="patch_5">
    <path d="M 90 378 
L 648 378 
" style="fill:none;stroke:#000000;stroke-linecap:square;stroke-linejoin:miter;stroke-width:0.8;"/>
   </g>
   <g id="patch_6">
    <path d="M 90 51.84 
L 648 51.84 
" style="fill:none;stroke:#000000;stroke-linecap:square;stroke-linejoin:miter;stroke-width:0.8;"/>
   </g>
   <g id="legend_1">
    <g id="patch_7">
     <path d="M 563.125 89.19625 
L 641 89.19625 
Q 643 89.19625 643 87.19625 
L 643 58.84 
Q 643 56.84 641 56.84 
L 563.125 56.84 
Q 561.125 56.84 561.125 58.84 
L 561.125 87.19625 
Q 561.125 89.19625 563.125 89.19625 
z
" style="fill:#ffffff;opacity:0.8;stroke:#cccccc;stroke-linejoin:miter;"/>
    </g>
    <g id="PathCollection_3">
     <g>
      <use style="fill:#f8766d;stroke:#f8766d;" x="575.125" xlink:href="#mce48b4c7c6" y="65.813437"/>
     </g>
    </g>
    <g id="text_16">
     <!-- D003248 -->
     <defs>
      <path d="M 19.671875 64.796875 
L 19.671875 8.109375 
L 31.59375 8.109375 
Q 46.6875 8.109375 53.6875 14.9375 
Q 60.6875 21.78125 60.6875 36.53125 
Q 60.6875 51.171875 53.6875 57.984375 
Q 46.6875 64.796875 31.59375 64.796875 
z
M 9.8125 72.90625 
L 30.078125 72.90625 
Q 51.265625 72.90625 61.171875 64.09375 
Q 71.09375 55.28125 71.09375 36.53125 
Q 71.09375 17.671875 61.125 8.828125 
Q 51.171875 0 30.078125 0 
L 9.8125 0 
z
" id="DejaVuSans-68"/>
      <path d="M 40.578125 39.3125 
Q 47.65625 37.796875 51.625 33 
Q 55.609375 28.21875 55.609375 21.1875 
Q 55.609375 10.40625 48.1875 4.484375 
Q 40.765625 -1.421875 27.09375 -1.421875 
Q 22.515625 -1.421875 17.65625 -0.515625 
Q 12.796875 0.390625 7.625 2.203125 
L 7.625 11.71875 
Q 11.71875 9.328125 16.59375 8.109375 
Q 21.484375 6.890625 26.8125 6.890625 
Q 36.078125 6.890625 40.9375 10.546875 
Q 45.796875 14.203125 45.796875 21.1875 
Q 45.796875 27.640625 41.28125 31.265625 
Q 36.765625 34.90625 28.71875 34.90625 
L 20.21875 34.90625 
L 20.21875 43.015625 
L 29.109375 43.015625 
Q 36.375 43.015625 40.234375 45.921875 
Q 44.09375 48.828125 44.09375 54.296875 
Q 44.09375 59.90625 40.109375 62.90625 
Q 36.140625 65.921875 28.71875 65.921875 
Q 24.65625 65.921875 20.015625 65.03125 
Q 15.375 64.15625 9.8125 62.3125 
L 9.8125 71.09375 
Q 15.4375 72.65625 20.34375 73.4375 
Q 25.25 74.21875 29.59375 74.21875 
Q 40.828125 74.21875 47.359375 69.109375 
Q 53.90625 64.015625 53.90625 55.328125 
Q 53.90625 49.265625 50.4375 45.09375 
Q 46.96875 40.921875 40.578125 39.3125 
z
" id="DejaVuSans-51"/>
      <path d="M 37.796875 64.3125 
L 12.890625 25.390625 
L 37.796875 25.390625 
z
M 35.203125 72.90625 
L 47.609375 72.90625 
L 47.609375 25.390625 
L 58.015625 25.390625 
L 58.015625 17.1875 
L 47.609375 17.1875 
L 47.609375 0 
L 37.796875 0 
L 37.796875 17.1875 
L 4.890625 17.1875 
L 4.890625 26.703125 
z
" id="DejaVuSans-52"/>
      <path d="M 31.78125 34.625 
Q 24.75 34.625 20.71875 30.859375 
Q 16.703125 27.09375 16.703125 20.515625 
Q 16.703125 13.921875 20.71875 10.15625 
Q 24.75 6.390625 31.78125 6.390625 
Q 38.8125 6.390625 42.859375 10.171875 
Q 46.921875 13.96875 46.921875 20.515625 
Q 46.921875 27.09375 42.890625 30.859375 
Q 38.875 34.625 31.78125 34.625 
z
M 21.921875 38.8125 
Q 15.578125 40.375 12.03125 44.71875 
Q 8.5 49.078125 8.5 55.328125 
Q 8.5 64.0625 14.71875 69.140625 
Q 20.953125 74.21875 31.78125 74.21875 
Q 42.671875 74.21875 48.875 69.140625 
Q 55.078125 64.0625 55.078125 55.328125 
Q 55.078125 49.078125 51.53125 44.71875 
Q 48 40.375 41.703125 38.8125 
Q 48.828125 37.15625 52.796875 32.3125 
Q 56.78125 27.484375 56.78125 20.515625 
Q 56.78125 9.90625 50.3125 4.234375 
Q 43.84375 -1.421875 31.78125 -1.421875 
Q 19.734375 -1.421875 13.25 4.234375 
Q 6.78125 9.90625 6.78125 20.515625 
Q 6.78125 27.484375 10.78125 32.3125 
Q 14.796875 37.15625 21.921875 38.8125 
z
M 18.3125 54.390625 
Q 18.3125 48.734375 21.84375 45.5625 
Q 25.390625 42.390625 31.78125 42.390625 
Q 38.140625 42.390625 41.71875 45.5625 
Q 45.3125 48.734375 45.3125 54.390625 
Q 45.3125 60.0625 41.71875 63.234375 
Q 38.140625 66.40625 31.78125 66.40625 
Q 25.390625 66.40625 21.84375 63.234375 
Q 18.3125 60.0625 18.3125 54.390625 
z
" id="DejaVuSans-56"/>
     </defs>
     <g transform="translate(593.125 68.438437)scale(0.1 -0.1)">
      <use xlink:href="#DejaVuSans-68"/>
      <use x="77.001953" xlink:href="#DejaVuSans-48"/>
      <use x="140.625" xlink:href="#DejaVuSans-48"/>
      <use x="204.248047" xlink:href="#DejaVuSans-51"/>
      <use x="267.871094" xlink:href="#DejaVuSans-50"/>
      <use x="331.494141" xlink:href="#DejaVuSans-52"/>
      <use x="395.117188" xlink:href="#DejaVuSans-56"/>
     </g>
    </g>
    <g id="PathCollection_4">
     <g>
      <use style="fill:#00bfc4;stroke:#00bfc4;" x="575.125" xlink:href="#m2ad6319e0e" y="80.491562"/>
     </g>
    </g>
    <g id="text_17">
     <!-- D006262 -->
     <defs>
      <path d="M 33.015625 40.375 
Q 26.375 40.375 22.484375 35.828125 
Q 18.609375 31.296875 18.609375 23.390625 
Q 18.609375 15.53125 22.484375 10.953125 
Q 26.375 6.390625 33.015625 6.390625 
Q 39.65625 6.390625 43.53125 10.953125 
Q 47.40625 15.53125 47.40625 23.390625 
Q 47.40625 31.296875 43.53125 35.828125 
Q 39.65625 40.375 33.015625 40.375 
z
M 52.59375 71.296875 
L 52.59375 62.3125 
Q 48.875 64.0625 45.09375 64.984375 
Q 41.3125 65.921875 37.59375 65.921875 
Q 27.828125 65.921875 22.671875 59.328125 
Q 17.53125 52.734375 16.796875 39.40625 
Q 19.671875 43.65625 24.015625 45.921875 
Q 28.375 48.1875 33.59375 48.1875 
Q 44.578125 48.1875 50.953125 41.515625 
Q 57.328125 34.859375 57.328125 23.390625 
Q 57.328125 12.15625 50.6875 5.359375 
Q 44.046875 -1.421875 33.015625 -1.421875 
Q 20.359375 -1.421875 13.671875 8.265625 
Q 6.984375 17.96875 6.984375 36.375 
Q 6.984375 53.65625 15.1875 63.9375 
Q 23.390625 74.21875 37.203125 74.21875 
Q 40.921875 74.21875 44.703125 73.484375 
Q 48.484375 72.75 52.59375 71.296875 
z
" id="DejaVuSans-54"/>
     </defs>
     <g transform="translate(593.125 83.116562)scale(0.1 -0.1)">
      <use xlink:href="#DejaVuSans-68"/>
      <use x="77.001953" xlink:href="#DejaVuSans-48"/>
      <use x="140.625" xlink:href="#DejaVuSans-48"/>
      <use x="204.248047" xlink:href="#DejaVuSans-54"/>
      <use x="267.871094" xlink:href="#DejaVuSans-50"/>
      <use x="331.494141" xlink:href="#DejaVuSans-54"/>
      <use x="395.117188" xlink:href="#DejaVuSans-50"/>
     </g>
    </g>
   </g>
  </g>
 </g>
 <defs>
  <clipPath id="pa0ce117912">
   <rect height="326.16" width="558" x="90" y="51.84"/>
  </clipPath>
 </defs>
</svg>
