<?xml version="1.0" encoding="utf-8" standalone="no"?>
<!DOCTYPE svg PUBLIC "-//W3C//DTD SVG 1.1//EN"
  "http://www.w3.org/Graphics/SVG/1.1/DTD/svg11.dtd">
<!-- Created with matplotlib (https://matplotlib.org/) -->
<svg height="576pt" version="1.1" viewBox="0 0 576 576" width="576pt" xmlns="http://www.w3.org/2000/svg" xmlns:xlink="http://www.w3.org/1999/xlink">
 <defs>
  <style type="text/css">
*{stroke-linecap:butt;stroke-linejoin:round;}
  </style>
 </defs>
 <g id="figure_1">
  <g id="patch_1">
   <path d="M 0 576 
L 576 576 
L 576 0 
L 0 0 
z
" style="fill:#ffffff;"/>
  </g>
  <g id="axes_1">
   <g id="patch_2">
    <path d="M 72 512.64 
L 518.4 512.64 
L 518.4 69.12 
L 72 69.12 
z
" style="fill:#ffffff;"/>
   </g>
   <g id="matplotlib.axis_1">
    <g id="xtick_1">
     <g id="line2d_1">
      <path clip-path="url(#pbed92786ff)" d="M 72 512.64 
L 72 69.12 
" style="fill:none;stroke:#b0b0b0;stroke-linecap:square;stroke-width:0.8;"/>
     </g>
     <g id="line2d_2">
      <defs>
       <path d="M 0 0 
L 0 3.5 
" id="mc334e8f4d8" style="stroke:#000000;stroke-width:0.8;"/>
      </defs>
      <g>
       <use style="stroke:#000000;stroke-width:0.8;" x="72" xlink:href="#mc334e8f4d8" y="512.64"/>
      </g>
     </g>
     <g id="text_1">
      <!-- 0.0 -->
      <defs>
       <path d="M 31.78125 66.40625 
Q 24.171875 66.40625 20.328125 58.90625 
Q 16.5 51.421875 16.5 36.375 
Q 16.5 21.390625 20.328125 13.890625 
Q 24.171875 6.390625 31.78125 6.390625 
Q 39.453125 6.390625 43.28125 13.890625 
Q 47.125 21.390625 47.125 36.375 
Q 47.125 51.421875 43.28125 58.90625 
Q 39.453125 66.40625 31.78125 66.40625 
z
M 31.78125 74.21875 
Q 44.046875 74.21875 50.515625 64.515625 
Q 56.984375 54.828125 56.984375 36.375 
Q 56.984375 17.96875 50.515625 8.265625 
Q 44.046875 -1.421875 31.78125 -1.421875 
Q 19.53125 -1.421875 13.0625 8.265625 
Q 6.59375 17.96875 6.59375 36.375 
Q 6.59375 54.828125 13.0625 64.515625 
Q 19.53125 74.21875 31.78125 74.21875 
z
" id="DejaVuSans-48"/>
       <path d="M 10.6875 12.40625 
L 21 12.40625 
L 21 0 
L 10.6875 0 
z
" id="DejaVuSans-46"/>
      </defs>
      <g transform="translate(64.048438 527.238438)scale(0.1 -0.1)">
       <use xlink:href="#DejaVuSans-48"/>
       <use x="63.623047" xlink:href="#DejaVuSans-46"/>
       <use x="95.410156" xlink:href="#DejaVuSans-48"/>
      </g>
     </g>
    </g>
    <g id="xtick_2">
     <g id="line2d_3">
      <path clip-path="url(#pbed92786ff)" d="M 161.28 512.64 
L 161.28 69.12 
" style="fill:none;stroke:#b0b0b0;stroke-linecap:square;stroke-width:0.8;"/>
     </g>
     <g id="line2d_4">
      <g>
       <use style="stroke:#000000;stroke-width:0.8;" x="161.28" xlink:href="#mc334e8f4d8" y="512.64"/>
      </g>
     </g>
     <g id="text_2">
      <!-- 0.2 -->
      <defs>
       <path d="M 19.1875 8.296875 
L 53.609375 8.296875 
L 53.609375 0 
L 7.328125 0 
L 7.328125 8.296875 
Q 12.9375 14.109375 22.625 23.890625 
Q 32.328125 33.6875 34.8125 36.53125 
Q 39.546875 41.84375 41.421875 45.53125 
Q 43.3125 49.21875 43.3125 52.78125 
Q 43.3125 58.59375 39.234375 62.25 
Q 35.15625 65.921875 28.609375 65.921875 
Q 23.96875 65.921875 18.8125 64.3125 
Q 13.671875 62.703125 7.8125 59.421875 
L 7.8125 69.390625 
Q 13.765625 71.78125 18.9375 73 
Q 24.125 74.21875 28.421875 74.21875 
Q 39.75 74.21875 46.484375 68.546875 
Q 53.21875 62.890625 53.21875 53.421875 
Q 53.21875 48.921875 51.53125 44.890625 
Q 49.859375 40.875 45.40625 35.40625 
Q 44.1875 33.984375 37.640625 27.21875 
Q 31.109375 20.453125 19.1875 8.296875 
z
" id="DejaVuSans-50"/>
      </defs>
      <g transform="translate(153.328438 527.238438)scale(0.1 -0.1)">
       <use xlink:href="#DejaVuSans-48"/>
       <use x="63.623047" xlink:href="#DejaVuSans-46"/>
       <use x="95.410156" xlink:href="#DejaVuSans-50"/>
      </g>
     </g>
    </g>
    <g id="xtick_3">
     <g id="line2d_5">
      <path clip-path="url(#pbed92786ff)" d="M 250.56 512.64 
L 250.56 69.12 
" style="fill:none;stroke:#b0b0b0;stroke-linecap:square;stroke-width:0.8;"/>
     </g>
     <g id="line2d_6">
      <g>
       <use style="stroke:#000000;stroke-width:0.8;" x="250.56" xlink:href="#mc334e8f4d8" y="512.64"/>
      </g>
     </g>
     <g id="text_3">
      <!-- 0.4 -->
      <defs>
       <path d="M 37.796875 64.3125 
L 12.890625 25.390625 
L 37.796875 25.390625 
z
M 35.203125 72.90625 
L 47.609375 72.90625 
L 47.609375 25.390625 
L 58.015625 25.390625 
L 58.015625 17.1875 
L 47.609375 17.1875 
L 47.609375 0 
L 37.796875 0 
L 37.796875 17.1875 
L 4.890625 17.1875 
L 4.890625 26.703125 
z
" id="DejaVuSans-52"/>
      </defs>
      <g transform="translate(242.608438 527.238438)scale(0.1 -0.1)">
       <use xlink:href="#DejaVuSans-48"/>
       <use x="63.623047" xlink:href="#DejaVuSans-46"/>
       <use x="95.410156" xlink:href="#DejaVuSans-52"/>
      </g>
     </g>
    </g>
    <g id="xtick_4">
     <g id="line2d_7">
      <path clip-path="url(#pbed92786ff)" d="M 339.84 512.64 
L 339.84 69.12 
" style="fill:none;stroke:#b0b0b0;stroke-linecap:square;stroke-width:0.8;"/>
     </g>
     <g id="line2d_8">
      <g>
       <use style="stroke:#000000;stroke-width:0.8;" x="339.84" xlink:href="#mc334e8f4d8" y="512.64"/>
      </g>
     </g>
     <g id="text_4">
      <!-- 0.6 -->
      <defs>
       <path d="M 33.015625 40.375 
Q 26.375 40.375 22.484375 35.828125 
Q 18.609375 31.296875 18.609375 23.390625 
Q 18.609375 15.53125 22.484375 10.953125 
Q 26.375 6.390625 33.015625 6.390625 
Q 39.65625 6.390625 43.53125 10.953125 
Q 47.40625 15.53125 47.40625 23.390625 
Q 47.40625 31.296875 43.53125 35.828125 
Q 39.65625 40.375 33.015625 40.375 
z
M 52.59375 71.296875 
L 52.59375 62.3125 
Q 48.875 64.0625 45.09375 64.984375 
Q 41.3125 65.921875 37.59375 65.921875 
Q 27.828125 65.921875 22.671875 59.328125 
Q 17.53125 52.734375 16.796875 39.40625 
Q 19.671875 43.65625 24.015625 45.921875 
Q 28.375 48.1875 33.59375 48.1875 
Q 44.578125 48.1875 50.953125 41.515625 
Q 57.328125 34.859375 57.328125 23.390625 
Q 57.328125 12.15625 50.6875 5.359375 
Q 44.046875 -1.421875 33.015625 -1.421875 
Q 20.359375 -1.421875 13.671875 8.265625 
Q 6.984375 17.96875 6.984375 36.375 
Q 6.984375 53.65625 15.1875 63.9375 
Q 23.390625 74.21875 37.203125 74.21875 
Q 40.921875 74.21875 44.703125 73.484375 
Q 48.484375 72.75 52.59375 71.296875 
z
" id="DejaVuSans-54"/>
      </defs>
      <g transform="translate(331.888438 527.238438)scale(0.1 -0.1)">
       <use xlink:href="#DejaVuSans-48"/>
       <use x="63.623047" xlink:href="#DejaVuSans-46"/>
       <use x="95.410156" xlink:href="#DejaVuSans-54"/>
      </g>
     </g>
    </g>
    <g id="xtick_5">
     <g id="line2d_9">
      <path clip-path="url(#pbed92786ff)" d="M 429.12 512.64 
L 429.12 69.12 
" style="fill:none;stroke:#b0b0b0;stroke-linecap:square;stroke-width:0.8;"/>
     </g>
     <g id="line2d_10">
      <g>
       <use style="stroke:#000000;stroke-width:0.8;" x="429.12" xlink:href="#mc334e8f4d8" y="512.64"/>
      </g>
     </g>
     <g id="text_5">
      <!-- 0.8 -->
      <defs>
       <path d="M 31.78125 34.625 
Q 24.75 34.625 20.71875 30.859375 
Q 16.703125 27.09375 16.703125 20.515625 
Q 16.703125 13.921875 20.71875 10.15625 
Q 24.75 6.390625 31.78125 6.390625 
Q 38.8125 6.390625 42.859375 10.171875 
Q 46.921875 13.96875 46.921875 20.515625 
Q 46.921875 27.09375 42.890625 30.859375 
Q 38.875 34.625 31.78125 34.625 
z
M 21.921875 38.8125 
Q 15.578125 40.375 12.03125 44.71875 
Q 8.5 49.078125 8.5 55.328125 
Q 8.5 64.0625 14.71875 69.140625 
Q 20.953125 74.21875 31.78125 74.21875 
Q 42.671875 74.21875 48.875 69.140625 
Q 55.078125 64.0625 55.078125 55.328125 
Q 55.078125 49.078125 51.53125 44.71875 
Q 48 40.375 41.703125 38.8125 
Q 48.828125 37.15625 52.796875 32.3125 
Q 56.78125 27.484375 56.78125 20.515625 
Q 56.78125 9.90625 50.3125 4.234375 
Q 43.84375 -1.421875 31.78125 -1.421875 
Q 19.734375 -1.421875 13.25 4.234375 
Q 6.78125 9.90625 6.78125 20.515625 
Q 6.78125 27.484375 10.78125 32.3125 
Q 14.796875 37.15625 21.921875 38.8125 
z
M 18.3125 54.390625 
Q 18.3125 48.734375 21.84375 45.5625 
Q 25.390625 42.390625 31.78125 42.390625 
Q 38.140625 42.390625 41.71875 45.5625 
Q 45.3125 48.734375 45.3125 54.390625 
Q 45.3125 60.0625 41.71875 63.234375 
Q 38.140625 66.40625 31.78125 66.40625 
Q 25.390625 66.40625 21.84375 63.234375 
Q 18.3125 60.0625 18.3125 54.390625 
z
" id="DejaVuSans-56"/>
      </defs>
      <g transform="translate(421.168437 527.238438)scale(0.1 -0.1)">
       <use xlink:href="#DejaVuSans-48"/>
       <use x="63.623047" xlink:href="#DejaVuSans-46"/>
       <use x="95.410156" xlink:href="#DejaVuSans-56"/>
      </g>
     </g>
    </g>
    <g id="xtick_6">
     <g id="line2d_11">
      <path clip-path="url(#pbed92786ff)" d="M 518.4 512.64 
L 518.4 69.12 
" style="fill:none;stroke:#b0b0b0;stroke-linecap:square;stroke-width:0.8;"/>
     </g>
     <g id="line2d_12">
      <g>
       <use style="stroke:#000000;stroke-width:0.8;" x="518.4" xlink:href="#mc334e8f4d8" y="512.64"/>
      </g>
     </g>
     <g id="text_6">
      <!-- 1.0 -->
      <defs>
       <path d="M 12.40625 8.296875 
L 28.515625 8.296875 
L 28.515625 63.921875 
L 10.984375 60.40625 
L 10.984375 69.390625 
L 28.421875 72.90625 
L 38.28125 72.90625 
L 38.28125 8.296875 
L 54.390625 8.296875 
L 54.390625 0 
L 12.40625 0 
z
" id="DejaVuSans-49"/>
      </defs>
      <g transform="translate(510.448437 527.238438)scale(0.1 -0.1)">
       <use xlink:href="#DejaVuSans-49"/>
       <use x="63.623047" xlink:href="#DejaVuSans-46"/>
       <use x="95.410156" xlink:href="#DejaVuSans-48"/>
      </g>
     </g>
    </g>
    <g id="text_7">
     <!-- False Positive Rate -->
     <defs>
      <path d="M 9.8125 72.90625 
L 51.703125 72.90625 
L 51.703125 64.59375 
L 19.671875 64.59375 
L 19.671875 43.109375 
L 48.578125 43.109375 
L 48.578125 34.8125 
L 19.671875 34.8125 
L 19.671875 0 
L 9.8125 0 
z
" id="DejaVuSans-70"/>
      <path d="M 34.28125 27.484375 
Q 23.390625 27.484375 19.1875 25 
Q 14.984375 22.515625 14.984375 16.5 
Q 14.984375 11.71875 18.140625 8.90625 
Q 21.296875 6.109375 26.703125 6.109375 
Q 34.1875 6.109375 38.703125 11.40625 
Q 43.21875 16.703125 43.21875 25.484375 
L 43.21875 27.484375 
z
M 52.203125 31.203125 
L 52.203125 0 
L 43.21875 0 
L 43.21875 8.296875 
Q 40.140625 3.328125 35.546875 0.953125 
Q 30.953125 -1.421875 24.3125 -1.421875 
Q 15.921875 -1.421875 10.953125 3.296875 
Q 6 8.015625 6 15.921875 
Q 6 25.140625 12.171875 29.828125 
Q 18.359375 34.515625 30.609375 34.515625 
L 43.21875 34.515625 
L 43.21875 35.40625 
Q 43.21875 41.609375 39.140625 45 
Q 35.0625 48.390625 27.6875 48.390625 
Q 23 48.390625 18.546875 47.265625 
Q 14.109375 46.140625 10.015625 43.890625 
L 10.015625 52.203125 
Q 14.9375 54.109375 19.578125 55.046875 
Q 24.21875 56 28.609375 56 
Q 40.484375 56 46.34375 49.84375 
Q 52.203125 43.703125 52.203125 31.203125 
z
" id="DejaVuSans-97"/>
      <path d="M 9.421875 75.984375 
L 18.40625 75.984375 
L 18.40625 0 
L 9.421875 0 
z
" id="DejaVuSans-108"/>
      <path d="M 44.28125 53.078125 
L 44.28125 44.578125 
Q 40.484375 46.53125 36.375 47.5 
Q 32.28125 48.484375 27.875 48.484375 
Q 21.1875 48.484375 17.84375 46.4375 
Q 14.5 44.390625 14.5 40.28125 
Q 14.5 37.15625 16.890625 35.375 
Q 19.28125 33.59375 26.515625 31.984375 
L 29.59375 31.296875 
Q 39.15625 29.25 43.1875 25.515625 
Q 47.21875 21.78125 47.21875 15.09375 
Q 47.21875 7.46875 41.1875 3.015625 
Q 35.15625 -1.421875 24.609375 -1.421875 
Q 20.21875 -1.421875 15.453125 -0.5625 
Q 10.6875 0.296875 5.421875 2 
L 5.421875 11.28125 
Q 10.40625 8.6875 15.234375 7.390625 
Q 20.0625 6.109375 24.8125 6.109375 
Q 31.15625 6.109375 34.5625 8.28125 
Q 37.984375 10.453125 37.984375 14.40625 
Q 37.984375 18.0625 35.515625 20.015625 
Q 33.0625 21.96875 24.703125 23.78125 
L 21.578125 24.515625 
Q 13.234375 26.265625 9.515625 29.90625 
Q 5.8125 33.546875 5.8125 39.890625 
Q 5.8125 47.609375 11.28125 51.796875 
Q 16.75 56 26.8125 56 
Q 31.78125 56 36.171875 55.265625 
Q 40.578125 54.546875 44.28125 53.078125 
z
" id="DejaVuSans-115"/>
      <path d="M 56.203125 29.59375 
L 56.203125 25.203125 
L 14.890625 25.203125 
Q 15.484375 15.921875 20.484375 11.0625 
Q 25.484375 6.203125 34.421875 6.203125 
Q 39.59375 6.203125 44.453125 7.46875 
Q 49.3125 8.734375 54.109375 11.28125 
L 54.109375 2.78125 
Q 49.265625 0.734375 44.1875 -0.34375 
Q 39.109375 -1.421875 33.890625 -1.421875 
Q 20.796875 -1.421875 13.15625 6.1875 
Q 5.515625 13.8125 5.515625 26.8125 
Q 5.515625 40.234375 12.765625 48.109375 
Q 20.015625 56 32.328125 56 
Q 43.359375 56 49.78125 48.890625 
Q 56.203125 41.796875 56.203125 29.59375 
z
M 47.21875 32.234375 
Q 47.125 39.59375 43.09375 43.984375 
Q 39.0625 48.390625 32.421875 48.390625 
Q 24.90625 48.390625 20.390625 44.140625 
Q 15.875 39.890625 15.1875 32.171875 
z
" id="DejaVuSans-101"/>
      <path id="DejaVuSans-32"/>
      <path d="M 19.671875 64.796875 
L 19.671875 37.40625 
L 32.078125 37.40625 
Q 38.96875 37.40625 42.71875 40.96875 
Q 46.484375 44.53125 46.484375 51.125 
Q 46.484375 57.671875 42.71875 61.234375 
Q 38.96875 64.796875 32.078125 64.796875 
z
M 9.8125 72.90625 
L 32.078125 72.90625 
Q 44.34375 72.90625 50.609375 67.359375 
Q 56.890625 61.8125 56.890625 51.125 
Q 56.890625 40.328125 50.609375 34.8125 
Q 44.34375 29.296875 32.078125 29.296875 
L 19.671875 29.296875 
L 19.671875 0 
L 9.8125 0 
z
" id="DejaVuSans-80"/>
      <path d="M 30.609375 48.390625 
Q 23.390625 48.390625 19.1875 42.75 
Q 14.984375 37.109375 14.984375 27.296875 
Q 14.984375 17.484375 19.15625 11.84375 
Q 23.34375 6.203125 30.609375 6.203125 
Q 37.796875 6.203125 41.984375 11.859375 
Q 46.1875 17.53125 46.1875 27.296875 
Q 46.1875 37.015625 41.984375 42.703125 
Q 37.796875 48.390625 30.609375 48.390625 
z
M 30.609375 56 
Q 42.328125 56 49.015625 48.375 
Q 55.71875 40.765625 55.71875 27.296875 
Q 55.71875 13.875 49.015625 6.21875 
Q 42.328125 -1.421875 30.609375 -1.421875 
Q 18.84375 -1.421875 12.171875 6.21875 
Q 5.515625 13.875 5.515625 27.296875 
Q 5.515625 40.765625 12.171875 48.375 
Q 18.84375 56 30.609375 56 
z
" id="DejaVuSans-111"/>
      <path d="M 9.421875 54.6875 
L 18.40625 54.6875 
L 18.40625 0 
L 9.421875 0 
z
M 9.421875 75.984375 
L 18.40625 75.984375 
L 18.40625 64.59375 
L 9.421875 64.59375 
z
" id="DejaVuSans-105"/>
      <path d="M 18.3125 70.21875 
L 18.3125 54.6875 
L 36.8125 54.6875 
L 36.8125 47.703125 
L 18.3125 47.703125 
L 18.3125 18.015625 
Q 18.3125 11.328125 20.140625 9.421875 
Q 21.96875 7.515625 27.59375 7.515625 
L 36.8125 7.515625 
L 36.8125 0 
L 27.59375 0 
Q 17.1875 0 13.234375 3.875 
Q 9.28125 7.765625 9.28125 18.015625 
L 9.28125 47.703125 
L 2.6875 47.703125 
L 2.6875 54.6875 
L 9.28125 54.6875 
L 9.28125 70.21875 
z
" id="DejaVuSans-116"/>
      <path d="M 2.984375 54.6875 
L 12.5 54.6875 
L 29.59375 8.796875 
L 46.6875 54.6875 
L 56.203125 54.6875 
L 35.6875 0 
L 23.484375 0 
z
" id="DejaVuSans-118"/>
      <path d="M 44.390625 34.1875 
Q 47.5625 33.109375 50.5625 29.59375 
Q 53.5625 26.078125 56.59375 19.921875 
L 66.609375 0 
L 56 0 
L 46.6875 18.703125 
Q 43.0625 26.03125 39.671875 28.421875 
Q 36.28125 30.8125 30.421875 30.8125 
L 19.671875 30.8125 
L 19.671875 0 
L 9.8125 0 
L 9.8125 72.90625 
L 32.078125 72.90625 
Q 44.578125 72.90625 50.734375 67.671875 
Q 56.890625 62.453125 56.890625 51.90625 
Q 56.890625 45.015625 53.6875 40.46875 
Q 50.484375 35.9375 44.390625 34.1875 
z
M 19.671875 64.796875 
L 19.671875 38.921875 
L 32.078125 38.921875 
Q 39.203125 38.921875 42.84375 42.21875 
Q 46.484375 45.515625 46.484375 51.90625 
Q 46.484375 58.296875 42.84375 61.546875 
Q 39.203125 64.796875 32.078125 64.796875 
z
" id="DejaVuSans-82"/>
     </defs>
     <g transform="translate(247.994531 540.916563)scale(0.1 -0.1)">
      <use xlink:href="#DejaVuSans-70"/>
      <use x="57.378906" xlink:href="#DejaVuSans-97"/>
      <use x="118.658203" xlink:href="#DejaVuSans-108"/>
      <use x="146.441406" xlink:href="#DejaVuSans-115"/>
      <use x="198.541016" xlink:href="#DejaVuSans-101"/>
      <use x="260.064453" xlink:href="#DejaVuSans-32"/>
      <use x="291.851562" xlink:href="#DejaVuSans-80"/>
      <use x="352.107422" xlink:href="#DejaVuSans-111"/>
      <use x="413.289062" xlink:href="#DejaVuSans-115"/>
      <use x="465.388672" xlink:href="#DejaVuSans-105"/>
      <use x="493.171875" xlink:href="#DejaVuSans-116"/>
      <use x="532.380859" xlink:href="#DejaVuSans-105"/>
      <use x="560.164062" xlink:href="#DejaVuSans-118"/>
      <use x="619.34375" xlink:href="#DejaVuSans-101"/>
      <use x="680.867188" xlink:href="#DejaVuSans-32"/>
      <use x="712.654297" xlink:href="#DejaVuSans-82"/>
      <use x="782.105469" xlink:href="#DejaVuSans-97"/>
      <use x="843.384766" xlink:href="#DejaVuSans-116"/>
      <use x="882.59375" xlink:href="#DejaVuSans-101"/>
     </g>
    </g>
   </g>
   <g id="matplotlib.axis_2">
    <g id="ytick_1">
     <g id="line2d_13">
      <path clip-path="url(#pbed92786ff)" d="M 72 512.64 
L 518.4 512.64 
" style="fill:none;stroke:#b0b0b0;stroke-linecap:square;stroke-width:0.8;"/>
     </g>
     <g id="line2d_14">
      <defs>
       <path d="M 0 0 
L -3.5 0 
" id="mb441bc49be" style="stroke:#000000;stroke-width:0.8;"/>
      </defs>
      <g>
       <use style="stroke:#000000;stroke-width:0.8;" x="72" xlink:href="#mb441bc49be" y="512.64"/>
      </g>
     </g>
     <g id="text_8">
      <!-- 0.0 -->
      <g transform="translate(49.096875 516.439219)scale(0.1 -0.1)">
       <use xlink:href="#DejaVuSans-48"/>
       <use x="63.623047" xlink:href="#DejaVuSans-46"/>
       <use x="95.410156" xlink:href="#DejaVuSans-48"/>
      </g>
     </g>
    </g>
    <g id="ytick_2">
     <g id="line2d_15">
      <path clip-path="url(#pbed92786ff)" d="M 72 428.16 
L 518.4 428.16 
" style="fill:none;stroke:#b0b0b0;stroke-linecap:square;stroke-width:0.8;"/>
     </g>
     <g id="line2d_16">
      <g>
       <use style="stroke:#000000;stroke-width:0.8;" x="72" xlink:href="#mb441bc49be" y="428.16"/>
      </g>
     </g>
     <g id="text_9">
      <!-- 0.2 -->
      <g transform="translate(49.096875 431.959219)scale(0.1 -0.1)">
       <use xlink:href="#DejaVuSans-48"/>
       <use x="63.623047" xlink:href="#DejaVuSans-46"/>
       <use x="95.410156" xlink:href="#DejaVuSans-50"/>
      </g>
     </g>
    </g>
    <g id="ytick_3">
     <g id="line2d_17">
      <path clip-path="url(#pbed92786ff)" d="M 72 343.68 
L 518.4 343.68 
" style="fill:none;stroke:#b0b0b0;stroke-linecap:square;stroke-width:0.8;"/>
     </g>
     <g id="line2d_18">
      <g>
       <use style="stroke:#000000;stroke-width:0.8;" x="72" xlink:href="#mb441bc49be" y="343.68"/>
      </g>
     </g>
     <g id="text_10">
      <!-- 0.4 -->
      <g transform="translate(49.096875 347.479219)scale(0.1 -0.1)">
       <use xlink:href="#DejaVuSans-48"/>
       <use x="63.623047" xlink:href="#DejaVuSans-46"/>
       <use x="95.410156" xlink:href="#DejaVuSans-52"/>
      </g>
     </g>
    </g>
    <g id="ytick_4">
     <g id="line2d_19">
      <path clip-path="url(#pbed92786ff)" d="M 72 259.2 
L 518.4 259.2 
" style="fill:none;stroke:#b0b0b0;stroke-linecap:square;stroke-width:0.8;"/>
     </g>
     <g id="line2d_20">
      <g>
       <use style="stroke:#000000;stroke-width:0.8;" x="72" xlink:href="#mb441bc49be" y="259.2"/>
      </g>
     </g>
     <g id="text_11">
      <!-- 0.6 -->
      <g transform="translate(49.096875 262.999219)scale(0.1 -0.1)">
       <use xlink:href="#DejaVuSans-48"/>
       <use x="63.623047" xlink:href="#DejaVuSans-46"/>
       <use x="95.410156" xlink:href="#DejaVuSans-54"/>
      </g>
     </g>
    </g>
    <g id="ytick_5">
     <g id="line2d_21">
      <path clip-path="url(#pbed92786ff)" d="M 72 174.72 
L 518.4 174.72 
" style="fill:none;stroke:#b0b0b0;stroke-linecap:square;stroke-width:0.8;"/>
     </g>
     <g id="line2d_22">
      <g>
       <use style="stroke:#000000;stroke-width:0.8;" x="72" xlink:href="#mb441bc49be" y="174.72"/>
      </g>
     </g>
     <g id="text_12">
      <!-- 0.8 -->
      <g transform="translate(49.096875 178.519219)scale(0.1 -0.1)">
       <use xlink:href="#DejaVuSans-48"/>
       <use x="63.623047" xlink:href="#DejaVuSans-46"/>
       <use x="95.410156" xlink:href="#DejaVuSans-56"/>
      </g>
     </g>
    </g>
    <g id="ytick_6">
     <g id="line2d_23">
      <path clip-path="url(#pbed92786ff)" d="M 72 90.24 
L 518.4 90.24 
" style="fill:none;stroke:#b0b0b0;stroke-linecap:square;stroke-width:0.8;"/>
     </g>
     <g id="line2d_24">
      <g>
       <use style="stroke:#000000;stroke-width:0.8;" x="72" xlink:href="#mb441bc49be" y="90.24"/>
      </g>
     </g>
     <g id="text_13">
      <!-- 1.0 -->
      <g transform="translate(49.096875 94.039219)scale(0.1 -0.1)">
       <use xlink:href="#DejaVuSans-49"/>
       <use x="63.623047" xlink:href="#DejaVuSans-46"/>
       <use x="95.410156" xlink:href="#DejaVuSans-48"/>
      </g>
     </g>
    </g>
    <g id="text_14">
     <!-- True Positive Rate -->
     <defs>
      <path d="M -0.296875 72.90625 
L 61.375 72.90625 
L 61.375 64.59375 
L 35.5 64.59375 
L 35.5 0 
L 25.59375 0 
L 25.59375 64.59375 
L -0.296875 64.59375 
z
" id="DejaVuSans-84"/>
      <path d="M 41.109375 46.296875 
Q 39.59375 47.171875 37.8125 47.578125 
Q 36.03125 48 33.890625 48 
Q 26.265625 48 22.1875 43.046875 
Q 18.109375 38.09375 18.109375 28.8125 
L 18.109375 0 
L 9.078125 0 
L 9.078125 54.6875 
L 18.109375 54.6875 
L 18.109375 46.1875 
Q 20.953125 51.171875 25.484375 53.578125 
Q 30.03125 56 36.53125 56 
Q 37.453125 56 38.578125 55.875 
Q 39.703125 55.765625 41.0625 55.515625 
z
" id="DejaVuSans-114"/>
      <path d="M 8.5 21.578125 
L 8.5 54.6875 
L 17.484375 54.6875 
L 17.484375 21.921875 
Q 17.484375 14.15625 20.5 10.265625 
Q 23.53125 6.390625 29.59375 6.390625 
Q 36.859375 6.390625 41.078125 11.03125 
Q 45.3125 15.671875 45.3125 23.6875 
L 45.3125 54.6875 
L 54.296875 54.6875 
L 54.296875 0 
L 45.3125 0 
L 45.3125 8.40625 
Q 42.046875 3.421875 37.71875 1 
Q 33.40625 -1.421875 27.6875 -1.421875 
Q 18.265625 -1.421875 13.375 4.4375 
Q 8.5 10.296875 8.5 21.578125 
z
M 31.109375 56 
z
" id="DejaVuSans-117"/>
     </defs>
     <g transform="translate(43.017187 336.426094)rotate(-90)scale(0.1 -0.1)">
      <use xlink:href="#DejaVuSans-84"/>
      <use x="60.865234" xlink:href="#DejaVuSans-114"/>
      <use x="101.978516" xlink:href="#DejaVuSans-117"/>
      <use x="165.357422" xlink:href="#DejaVuSans-101"/>
      <use x="226.880859" xlink:href="#DejaVuSans-32"/>
      <use x="258.667969" xlink:href="#DejaVuSans-80"/>
      <use x="318.923828" xlink:href="#DejaVuSans-111"/>
      <use x="380.105469" xlink:href="#DejaVuSans-115"/>
      <use x="432.205078" xlink:href="#DejaVuSans-105"/>
      <use x="459.988281" xlink:href="#DejaVuSans-116"/>
      <use x="499.197266" xlink:href="#DejaVuSans-105"/>
      <use x="526.980469" xlink:href="#DejaVuSans-118"/>
      <use x="586.160156" xlink:href="#DejaVuSans-101"/>
      <use x="647.683594" xlink:href="#DejaVuSans-32"/>
      <use x="679.470703" xlink:href="#DejaVuSans-82"/>
      <use x="748.921875" xlink:href="#DejaVuSans-97"/>
      <use x="810.201172" xlink:href="#DejaVuSans-116"/>
      <use x="849.410156" xlink:href="#DejaVuSans-101"/>
     </g>
    </g>
   </g>
   <g id="line2d_25">
    <path clip-path="url(#pbed92786ff)" d="M 72 512.64 
L 72 473.387368 
L 72.523329 473.387368 
L 72.523329 427.187368 
L 73.046659 427.187368 
L 73.046659 425.103158 
L 73.569988 425.103158 
L 73.569988 423.018947 
L 74.093318 423.018947 
L 74.093318 414.334737 
L 74.616647 414.334737 
L 74.616647 410.166316 
L 75.139977 410.166316 
L 75.139977 405.997895 
L 76.186635 405.997895 
L 76.186635 403.218947 
L 76.709965 403.218947 
L 76.709965 401.829474 
L 77.233294 401.829474 
L 77.233294 396.618947 
L 77.756624 396.618947 
L 77.756624 395.576842 
L 78.279953 395.576842 
L 78.279953 392.797895 
L 78.803283 392.797895 
L 78.803283 391.755789 
L 79.326612 391.755789 
L 79.326612 390.018947 
L 80.373271 390.018947 
L 80.373271 386.197895 
L 80.8966 386.197895 
L 80.8966 380.987368 
L 81.41993 380.987368 
L 81.41993 371.608421 
L 81.943259 371.608421 
L 81.943259 364.313684 
L 82.466589 364.313684 
L 82.466589 357.018947 
L 83.513247 357.018947 
L 83.513247 353.197895 
L 84.036577 353.197895 
L 84.036577 350.071579 
L 85.083236 350.071579 
L 85.083236 342.429474 
L 85.606565 342.429474 
L 85.606565 342.082105 
L 86.129894 342.082105 
L 86.129894 341.734737 
L 86.653224 341.734737 
L 86.653224 338.955789 
L 87.176553 338.955789 
L 87.176553 337.913684 
L 87.699883 337.913684 
L 87.699883 337.218947 
L 88.223212 337.218947 
L 88.223212 336.871579 
L 88.746542 336.871579 
L 88.746542 331.313684 
L 89.269871 331.313684 
L 89.269871 330.966316 
L 89.7932 330.966316 
L 89.7932 325.408421 
L 90.31653 325.408421 
L 90.31653 316.724211 
L 90.839859 316.724211 
L 90.839859 315.334737 
L 91.363189 315.334737 
L 91.363189 310.471579 
L 92.409848 310.471579 
L 92.409848 308.04 
L 93.456506 308.04 
L 93.456506 306.650526 
L 93.979836 306.650526 
L 93.979836 305.955789 
L 94.503165 305.955789 
L 94.503165 303.871579 
L 95.026495 303.871579 
L 95.026495 302.829474 
L 95.549824 302.829474 
L 95.549824 298.661053 
L 96.596483 298.661053 
L 96.596483 297.966316 
L 97.119812 297.966316 
L 97.119812 297.618947 
L 98.166471 297.618947 
L 98.166471 296.924211 
L 98.689801 296.924211 
L 98.689801 296.576842 
L 100.783118 296.576842 
L 100.783118 295.882105 
L 101.306448 295.882105 
L 101.306448 293.103158 
L 101.829777 293.103158 
L 101.829777 291.366316 
L 102.353107 291.366316 
L 102.353107 291.018947 
L 102.876436 291.018947 
L 102.876436 290.671579 
L 103.399766 290.671579 
L 103.399766 290.324211 
L 103.923095 290.324211 
L 103.923095 288.24 
L 104.446424 288.24 
L 104.446424 287.197895 
L 104.969754 287.197895 
L 104.969754 286.850526 
L 106.016413 286.850526 
L 106.016413 285.113684 
L 106.539742 285.113684 
L 106.539742 283.376842 
L 107.586401 283.376842 
L 107.586401 282.682105 
L 108.10973 282.682105 
L 108.10973 281.987368 
L 108.63306 281.987368 
L 108.63306 280.597895 
L 109.156389 280.597895 
L 109.156389 280.250526 
L 109.679719 280.250526 
L 109.679719 279.555789 
L 110.203048 279.555789 
L 110.203048 277.471579 
L 111.773036 277.471579 
L 111.773036 273.303158 
L 112.296366 273.303158 
L 112.296366 272.955789 
L 112.819695 272.955789 
L 112.819695 272.261053 
L 113.343025 272.261053 
L 113.343025 270.524211 
L 114.389683 270.524211 
L 114.389683 270.176842 
L 114.913013 270.176842 
L 114.913013 267.050526 
L 115.436342 267.050526 
L 115.436342 266.703158 
L 116.483001 266.703158 
L 116.483001 265.313684 
L 117.52966 265.313684 
L 117.52966 264.966316 
L 118.052989 264.966316 
L 118.052989 262.882105 
L 118.576319 262.882105 
L 118.576319 262.187368 
L 119.622978 262.187368 
L 119.622978 261.145263 
L 120.146307 261.145263 
L 120.146307 258.713684 
L 120.669637 258.713684 
L 120.669637 257.324211 
L 121.192966 257.324211 
L 121.192966 256.282105 
L 122.239625 256.282105 
L 122.239625 253.155789 
L 122.762954 253.155789 
L 122.762954 252.461053 
L 123.286284 252.461053 
L 123.286284 252.113684 
L 123.809613 252.113684 
L 123.809613 251.766316 
L 124.332943 251.766316 
L 124.332943 250.724211 
L 124.856272 250.724211 
L 124.856272 249.682105 
L 125.379601 249.682105 
L 125.379601 249.334737 
L 125.902931 249.334737 
L 125.902931 248.64 
L 126.42626 248.64 
L 126.42626 247.945263 
L 127.472919 247.945263 
L 127.472919 245.861053 
L 127.996249 245.861053 
L 127.996249 245.513684 
L 128.519578 245.513684 
L 128.519578 244.818947 
L 129.042907 244.818947 
L 129.042907 244.124211 
L 130.089566 244.124211 
L 130.089566 243.776842 
L 130.612896 243.776842 
L 130.612896 242.734737 
L 131.136225 242.734737 
L 131.136225 241.692632 
L 131.659555 241.692632 
L 131.659555 240.650526 
L 132.182884 240.650526 
L 132.182884 239.261053 
L 132.706213 239.261053 
L 132.706213 238.218947 
L 133.229543 238.218947 
L 133.229543 236.829474 
L 133.752872 236.829474 
L 133.752872 234.745263 
L 134.799531 234.745263 
L 134.799531 234.397895 
L 135.32286 234.397895 
L 135.32286 231.966316 
L 135.84619 231.966316 
L 135.84619 231.618947 
L 136.369519 231.618947 
L 136.369519 228.84 
L 136.892849 228.84 
L 136.892849 226.061053 
L 137.416178 226.061053 
L 137.416178 224.671579 
L 137.939508 224.671579 
L 137.939508 223.629474 
L 138.462837 223.629474 
L 138.462837 223.282105 
L 140.032825 223.282105 
L 140.032825 222.934737 
L 140.556155 222.934737 
L 140.556155 222.24 
L 141.079484 222.24 
L 141.079484 221.197895 
L 141.602814 221.197895 
L 141.602814 219.461053 
L 142.126143 219.461053 
L 142.126143 217.029474 
L 143.696131 217.029474 
L 143.696131 216.682105 
L 144.74279 216.682105 
L 144.74279 215.987368 
L 145.789449 215.987368 
L 145.789449 215.64 
L 146.836108 215.64 
L 146.836108 215.292632 
L 148.406096 215.292632 
L 148.406096 214.945263 
L 150.499414 214.945263 
L 150.499414 214.597895 
L 151.546073 214.597895 
L 151.546073 212.166316 
L 152.592732 212.166316 
L 152.592732 211.124211 
L 153.116061 211.124211 
L 153.116061 210.429474 
L 153.63939 210.429474 
L 153.63939 210.082105 
L 154.16272 210.082105 
L 154.16272 209.734737 
L 154.686049 209.734737 
L 154.686049 209.387368 
L 155.209379 209.387368 
L 155.209379 209.04 
L 156.779367 209.04 
L 156.779367 208.692632 
L 157.826026 208.692632 
L 157.826026 207.650526 
L 158.349355 207.650526 
L 158.349355 207.303158 
L 158.872685 207.303158 
L 158.872685 206.955789 
L 159.919343 206.955789 
L 159.919343 205.218947 
L 160.442673 205.218947 
L 160.442673 204.871579 
L 160.966002 204.871579 
L 160.966002 203.482105 
L 162.012661 203.482105 
L 162.012661 203.134737 
L 163.05932 203.134737 
L 163.05932 202.44 
L 163.582649 202.44 
L 163.582649 201.050526 
L 164.105979 201.050526 
L 164.105979 200.355789 
L 164.629308 200.355789 
L 164.629308 200.008421 
L 165.675967 200.008421 
L 165.675967 199.313684 
L 168.292614 199.313684 
L 168.292614 198.966316 
L 168.815944 198.966316 
L 168.815944 197.576842 
L 169.862603 197.576842 
L 169.862603 195.84 
L 171.432591 195.84 
L 171.432591 195.145263 
L 173.002579 195.145263 
L 173.002579 194.103158 
L 175.095897 194.103158 
L 175.095897 193.061053 
L 175.619226 193.061053 
L 175.619226 192.713684 
L 177.712544 192.713684 
L 177.712544 191.671579 
L 178.235873 191.671579 
L 178.235873 191.324211 
L 178.759203 191.324211 
L 178.759203 190.976842 
L 179.282532 190.976842 
L 179.282532 190.629474 
L 180.852521 190.629474 
L 180.852521 190.282105 
L 181.37585 190.282105 
L 181.37585 189.934737 
L 183.992497 189.934737 
L 183.992497 188.545263 
L 184.515826 188.545263 
L 184.515826 188.197895 
L 185.039156 188.197895 
L 185.039156 187.850526 
L 186.085815 187.850526 
L 186.085815 186.808421 
L 186.609144 186.808421 
L 186.609144 186.461053 
L 188.179132 186.461053 
L 188.179132 186.113684 
L 188.702462 186.113684 
L 188.702462 185.766316 
L 189.749121 185.766316 
L 189.749121 185.418947 
L 191.319109 185.418947 
L 191.319109 185.071579 
L 192.889097 185.071579 
L 192.889097 184.724211 
L 194.459086 184.724211 
L 194.459086 184.376842 
L 195.505744 184.376842 
L 195.505744 183.682105 
L 196.552403 183.682105 
L 196.552403 183.334737 
L 197.075733 183.334737 
L 197.075733 181.250526 
L 197.599062 181.250526 
L 197.599062 180.903158 
L 198.645721 180.903158 
L 198.645721 180.555789 
L 199.16905 180.555789 
L 199.16905 180.208421 
L 200.739039 180.208421 
L 200.739039 176.387368 
L 201.262368 176.387368 
L 201.262368 175.345263 
L 202.832356 175.345263 
L 202.832356 173.955789 
L 203.355686 173.955789 
L 203.355686 173.261053 
L 204.402345 173.261053 
L 204.402345 172.566316 
L 205.449004 172.566316 
L 205.449004 172.218947 
L 206.495662 172.218947 
L 206.495662 171.871579 
L 207.018992 171.871579 
L 207.018992 170.482105 
L 207.542321 170.482105 
L 207.542321 170.134737 
L 208.58898 170.134737 
L 208.58898 169.44 
L 209.112309 169.44 
L 209.112309 168.397895 
L 209.635639 168.397895 
L 209.635639 168.050526 
L 210.158968 168.050526 
L 210.158968 165.966316 
L 210.682298 165.966316 
L 210.682298 165.271579 
L 211.205627 165.271579 
L 211.205627 164.924211 
L 211.728957 164.924211 
L 211.728957 164.576842 
L 212.775615 164.576842 
L 212.775615 164.229474 
L 213.298945 164.229474 
L 213.298945 163.534737 
L 215.392263 163.534737 
L 215.392263 162.492632 
L 216.438921 162.492632 
L 216.438921 161.103158 
L 219.055569 161.103158 
L 219.055569 160.755789 
L 220.102227 160.755789 
L 220.102227 160.408421 
L 220.625557 160.408421 
L 220.625557 159.713684 
L 221.148886 159.713684 
L 221.148886 159.018947 
L 223.242204 159.018947 
L 223.242204 158.671579 
L 226.90551 158.671579 
L 226.90551 158.324211 
L 227.952169 158.324211 
L 227.952169 157.976842 
L 228.475498 157.976842 
L 228.475498 157.282105 
L 228.998828 157.282105 
L 228.998828 156.934737 
L 233.185463 156.934737 
L 233.185463 156.587368 
L 234.755451 156.587368 
L 234.755451 156.24 
L 235.278781 156.24 
L 235.278781 155.892632 
L 236.32544 155.892632 
L 236.32544 155.545263 
L 236.848769 155.545263 
L 236.848769 154.503158 
L 237.895428 154.503158 
L 237.895428 153.808421 
L 238.418757 153.808421 
L 238.418757 153.461053 
L 239.465416 153.461053 
L 239.465416 153.113684 
L 241.558734 153.113684 
L 241.558734 152.766316 
L 242.082063 152.766316 
L 242.082063 152.418947 
L 242.605393 152.418947 
L 242.605393 152.071579 
L 243.128722 152.071579 
L 243.128722 151.724211 
L 243.652052 151.724211 
L 243.652052 151.376842 
L 244.175381 151.376842 
L 244.175381 150.682105 
L 245.22204 150.682105 
L 245.22204 150.334737 
L 247.838687 150.334737 
L 247.838687 149.987368 
L 248.362016 149.987368 
L 248.362016 149.64 
L 249.932005 149.64 
L 249.932005 148.597895 
L 250.455334 148.597895 
L 250.455334 147.903158 
L 250.978664 147.903158 
L 250.978664 147.208421 
L 251.501993 147.208421 
L 251.501993 146.861053 
L 252.025322 146.861053 
L 252.025322 146.513684 
L 253.071981 146.513684 
L 253.071981 146.166316 
L 254.11864 146.166316 
L 254.11864 145.818947 
L 255.165299 145.818947 
L 255.165299 145.124211 
L 255.688628 145.124211 
L 255.688628 143.387368 
L 259.875264 143.387368 
L 259.875264 141.303158 
L 261.445252 141.303158 
L 261.445252 140.608421 
L 263.01524 140.608421 
L 263.01524 139.913684 
L 263.53857 139.913684 
L 263.53857 139.566316 
L 264.061899 139.566316 
L 264.061899 138.871579 
L 265.108558 138.871579 
L 265.108558 138.524211 
L 267.201876 138.524211 
L 267.201876 138.176842 
L 270.865182 138.176842 
L 270.865182 137.482105 
L 272.43517 137.482105 
L 272.43517 137.134737 
L 273.481829 137.134737 
L 273.481829 136.092632 
L 275.051817 136.092632 
L 275.051817 135.745263 
L 277.668464 135.745263 
L 277.668464 135.397895 
L 278.191794 135.397895 
L 278.191794 135.050526 
L 279.238453 135.050526 
L 279.238453 133.661053 
L 280.808441 133.661053 
L 280.808441 133.313684 
L 281.33177 133.313684 
L 281.33177 132.966316 
L 282.901758 132.966316 
L 282.901758 132.618947 
L 283.425088 132.618947 
L 283.425088 132.271579 
L 284.471747 132.271579 
L 284.471747 131.924211 
L 285.518406 131.924211 
L 285.518406 130.534737 
L 286.565064 130.534737 
L 286.565064 129.84 
L 288.658382 129.84 
L 288.658382 129.492632 
L 289.181712 129.492632 
L 289.181712 129.145263 
L 290.22837 129.145263 
L 290.22837 128.450526 
L 293.368347 128.450526 
L 293.368347 128.103158 
L 294.938335 128.103158 
L 294.938335 127.755789 
L 295.984994 127.755789 
L 295.984994 127.408421 
L 296.508324 127.408421 
L 296.508324 126.713684 
L 297.554982 126.713684 
L 297.554982 126.366316 
L 299.124971 126.366316 
L 299.124971 126.018947 
L 300.17163 126.018947 
L 300.17163 125.671579 
L 300.694959 125.671579 
L 300.694959 124.976842 
L 305.404924 124.976842 
L 305.404924 124.629474 
L 305.928253 124.629474 
L 305.928253 124.282105 
L 308.5449 124.282105 
L 308.5449 123.24 
L 310.114889 123.24 
L 310.114889 122.892632 
L 311.161547 122.892632 
L 311.161547 122.545263 
L 312.208206 122.545263 
L 312.208206 121.503158 
L 313.778195 121.503158 
L 313.778195 121.155789 
L 314.824853 121.155789 
L 314.824853 119.766316 
L 315.871512 119.766316 
L 315.871512 119.071579 
L 316.394842 119.071579 
L 316.394842 118.724211 
L 316.918171 118.724211 
L 316.918171 118.376842 
L 317.441501 118.376842 
L 317.441501 118.029474 
L 318.488159 118.029474 
L 318.488159 117.334737 
L 319.011489 117.334737 
L 319.011489 116.292632 
L 319.534818 116.292632 
L 319.534818 115.945263 
L 320.581477 115.945263 
L 320.581477 115.597895 
L 321.104807 115.597895 
L 321.104807 115.250526 
L 321.628136 115.250526 
L 321.628136 114.903158 
L 324.244783 114.903158 
L 324.244783 114.555789 
L 329.478077 114.555789 
L 329.478077 114.208421 
L 330.001407 114.208421 
L 330.001407 113.861053 
L 331.048066 113.861053 
L 331.048066 113.166316 
L 332.094725 113.166316 
L 332.094725 112.471579 
L 332.618054 112.471579 
L 332.618054 111.776842 
L 333.664713 111.776842 
L 333.664713 111.082105 
L 336.804689 111.082105 
L 336.804689 110.734737 
L 337.328019 110.734737 
L 337.328019 109.692632 
L 338.374678 109.692632 
L 338.374678 108.997895 
L 338.898007 108.997895 
L 338.898007 108.650526 
L 340.467995 108.650526 
L 340.467995 107.955789 
L 343.607972 107.955789 
L 343.607972 107.608421 
L 344.654631 107.608421 
L 344.654631 107.261053 
L 345.70129 107.261053 
L 345.70129 106.913684 
L 346.747948 106.913684 
L 346.747948 106.566316 
L 347.271278 106.566316 
L 347.271278 105.871579 
L 347.794607 105.871579 
L 347.794607 105.524211 
L 354.59789 105.524211 
L 354.59789 105.176842 
L 357.737866 105.176842 
L 357.737866 104.829474 
L 358.261196 104.829474 
L 358.261196 104.482105 
L 360.877843 104.482105 
L 360.877843 104.134737 
L 368.727784 104.134737 
L 368.727784 103.787368 
L 375.531067 103.787368 
L 375.531067 103.44 
L 376.054396 103.44 
L 376.054396 103.092632 
L 377.101055 103.092632 
L 377.101055 102.745263 
L 379.717702 102.745263 
L 379.717702 102.397895 
L 381.287691 102.397895 
L 381.287691 102.050526 
L 382.857679 102.050526 
L 382.857679 101.008421 
L 383.381008 101.008421 
L 383.381008 100.661053 
L 387.044314 100.661053 
L 387.044314 100.313684 
L 391.754279 100.313684 
L 391.754279 99.618947 
L 392.800938 99.618947 
L 392.800938 99.271579 
L 393.324267 99.271579 
L 393.324267 98.924211 
L 393.847597 98.924211 
L 393.847597 98.576842 
L 398.557562 98.576842 
L 398.557562 98.229474 
L 400.650879 98.229474 
L 400.650879 97.882105 
L 402.220868 97.882105 
L 402.220868 97.534737 
L 403.267526 97.534737 
L 403.267526 96.492632 
L 405.360844 96.492632 
L 405.360844 96.145263 
L 406.930832 96.145263 
L 406.930832 95.797895 
L 410.594138 95.797895 
L 410.594138 95.450526 
L 420.537397 95.450526 
L 420.537397 95.103158 
L 421.060727 95.103158 
L 421.060727 94.755789 
L 429.433998 94.755789 
L 429.433998 94.408421 
L 438.330598 94.408421 
L 438.330598 94.061053 
L 440.947245 94.061053 
L 440.947245 93.713684 
L 441.470574 93.713684 
L 441.470574 93.366316 
L 445.13388 93.366316 
L 445.13388 93.018947 
L 445.65721 93.018947 
L 445.65721 92.671579 
L 450.890504 92.671579 
L 450.890504 92.324211 
L 458.740445 92.324211 
L 458.740445 91.976842 
L 467.113716 91.976842 
L 467.113716 91.629474 
L 474.963658 91.629474 
L 474.963658 91.282105 
L 491.710199 91.282105 
L 491.710199 90.934737 
L 497.466823 90.934737 
L 497.466823 90.587368 
L 503.746776 90.587368 
L 503.746776 90.24 
L 518.4 90.24 
L 518.4 90.24 
" style="fill:none;stroke:#ff8c00;stroke-linecap:square;stroke-width:2;"/>
   </g>
   <g id="line2d_26">
    <path clip-path="url(#pbed92786ff)" d="M 72 512.64 
L 518.4 90.24 
" style="fill:none;stroke:#000080;stroke-dasharray:7.4,3.2;stroke-dashoffset:0;stroke-width:2;"/>
   </g>
   <g id="patch_3">
    <path d="M 72 512.64 
L 72 69.12 
" style="fill:none;stroke:#000000;stroke-linecap:square;stroke-linejoin:miter;stroke-width:0.8;"/>
   </g>
   <g id="patch_4">
    <path d="M 518.4 512.64 
L 518.4 69.12 
" style="fill:none;stroke:#000000;stroke-linecap:square;stroke-linejoin:miter;stroke-width:0.8;"/>
   </g>
   <g id="patch_5">
    <path d="M 72 512.64 
L 518.4 512.64 
" style="fill:none;stroke:#000000;stroke-linecap:square;stroke-linejoin:miter;stroke-width:0.8;"/>
   </g>
   <g id="patch_6">
    <path d="M 72 69.12 
L 518.4 69.12 
" style="fill:none;stroke:#000000;stroke-linecap:square;stroke-linejoin:miter;stroke-width:0.8;"/>
   </g>
   <g id="legend_1">
    <g id="patch_7">
     <path d="M 427.081875 509.64 
L 514.2 509.64 
Q 515.4 509.64 515.4 508.44 
L 515.4 500.233125 
Q 515.4 499.033125 514.2 499.033125 
L 427.081875 499.033125 
Q 425.881875 499.033125 425.881875 500.233125 
L 425.881875 508.44 
Q 425.881875 509.64 427.081875 509.64 
z
" style="fill:#ffffff;opacity:0.8;stroke:#cccccc;stroke-linejoin:miter;"/>
    </g>
    <g id="line2d_27">
     <path d="M 428.281875 503.892187 
L 440.281875 503.892187 
" style="fill:none;stroke:#ff8c00;stroke-linecap:square;stroke-width:2;"/>
    </g>
    <g id="line2d_28"/>
    <g id="text_15">
     <!-- D006262 (area =0.85) -->
     <defs>
      <path d="M 19.671875 64.796875 
L 19.671875 8.109375 
L 31.59375 8.109375 
Q 46.6875 8.109375 53.6875 14.9375 
Q 60.6875 21.78125 60.6875 36.53125 
Q 60.6875 51.171875 53.6875 57.984375 
Q 46.6875 64.796875 31.59375 64.796875 
z
M 9.8125 72.90625 
L 30.078125 72.90625 
Q 51.265625 72.90625 61.171875 64.09375 
Q 71.09375 55.28125 71.09375 36.53125 
Q 71.09375 17.671875 61.125 8.828125 
Q 51.171875 0 30.078125 0 
L 9.8125 0 
z
" id="DejaVuSans-68"/>
      <path d="M 31 75.875 
Q 24.46875 64.65625 21.28125 53.65625 
Q 18.109375 42.671875 18.109375 31.390625 
Q 18.109375 20.125 21.3125 9.0625 
Q 24.515625 -2 31 -13.1875 
L 23.1875 -13.1875 
Q 15.875 -1.703125 12.234375 9.375 
Q 8.59375 20.453125 8.59375 31.390625 
Q 8.59375 42.28125 12.203125 53.3125 
Q 15.828125 64.359375 23.1875 75.875 
z
" id="DejaVuSans-40"/>
      <path d="M 10.59375 45.40625 
L 73.1875 45.40625 
L 73.1875 37.203125 
L 10.59375 37.203125 
z
M 10.59375 25.484375 
L 73.1875 25.484375 
L 73.1875 17.1875 
L 10.59375 17.1875 
z
" id="DejaVuSans-61"/>
      <path d="M 10.796875 72.90625 
L 49.515625 72.90625 
L 49.515625 64.59375 
L 19.828125 64.59375 
L 19.828125 46.734375 
Q 21.96875 47.46875 24.109375 47.828125 
Q 26.265625 48.1875 28.421875 48.1875 
Q 40.625 48.1875 47.75 41.5 
Q 54.890625 34.8125 54.890625 23.390625 
Q 54.890625 11.625 47.5625 5.09375 
Q 40.234375 -1.421875 26.90625 -1.421875 
Q 22.3125 -1.421875 17.546875 -0.640625 
Q 12.796875 0.140625 7.71875 1.703125 
L 7.71875 11.625 
Q 12.109375 9.234375 16.796875 8.0625 
Q 21.484375 6.890625 26.703125 6.890625 
Q 35.15625 6.890625 40.078125 11.328125 
Q 45.015625 15.765625 45.015625 23.390625 
Q 45.015625 31 40.078125 35.4375 
Q 35.15625 39.890625 26.703125 39.890625 
Q 22.75 39.890625 18.8125 39.015625 
Q 14.890625 38.140625 10.796875 36.28125 
z
" id="DejaVuSans-53"/>
      <path d="M 8.015625 75.875 
L 15.828125 75.875 
Q 23.140625 64.359375 26.78125 53.3125 
Q 30.421875 42.28125 30.421875 31.390625 
Q 30.421875 20.453125 26.78125 9.375 
Q 23.140625 -1.703125 15.828125 -13.1875 
L 8.015625 -13.1875 
Q 14.5 -2 17.703125 9.0625 
Q 20.90625 20.125 20.90625 31.390625 
Q 20.90625 42.671875 17.703125 53.65625 
Q 14.5 64.65625 8.015625 75.875 
z
" id="DejaVuSans-41"/>
     </defs>
     <g transform="translate(445.081875 505.992188)scale(0.06 -0.06)">
      <use xlink:href="#DejaVuSans-68"/>
      <use x="77.001953" xlink:href="#DejaVuSans-48"/>
      <use x="140.625" xlink:href="#DejaVuSans-48"/>
      <use x="204.248047" xlink:href="#DejaVuSans-54"/>
      <use x="267.871094" xlink:href="#DejaVuSans-50"/>
      <use x="331.494141" xlink:href="#DejaVuSans-54"/>
      <use x="395.117188" xlink:href="#DejaVuSans-50"/>
      <use x="458.740234" xlink:href="#DejaVuSans-32"/>
      <use x="490.527344" xlink:href="#DejaVuSans-40"/>
      <use x="529.541016" xlink:href="#DejaVuSans-97"/>
      <use x="590.820312" xlink:href="#DejaVuSans-114"/>
      <use x="631.902344" xlink:href="#DejaVuSans-101"/>
      <use x="693.425781" xlink:href="#DejaVuSans-97"/>
      <use x="754.705078" xlink:href="#DejaVuSans-32"/>
      <use x="786.492188" xlink:href="#DejaVuSans-61"/>
      <use x="870.28125" xlink:href="#DejaVuSans-48"/>
      <use x="933.904297" xlink:href="#DejaVuSans-46"/>
      <use x="965.691406" xlink:href="#DejaVuSans-56"/>
      <use x="1029.314453" xlink:href="#DejaVuSans-53"/>
      <use x="1092.9375" xlink:href="#DejaVuSans-41"/>
     </g>
    </g>
   </g>
  </g>
 </g>
 <defs>
  <clipPath id="pbed92786ff">
   <rect height="443.52" width="446.4" x="72" y="69.12"/>
  </clipPath>
 </defs>
</svg>
