<?xml version="1.0" encoding="utf-8" standalone="no"?>
<!DOCTYPE svg PUBLIC "-//W3C//DTD SVG 1.1//EN"
  "http://www.w3.org/Graphics/SVG/1.1/DTD/svg11.dtd">
<!-- Created with matplotlib (https://matplotlib.org/) -->
<svg height="576pt" version="1.1" viewBox="0 0 576 576" width="576pt" xmlns="http://www.w3.org/2000/svg" xmlns:xlink="http://www.w3.org/1999/xlink">
 <defs>
  <style type="text/css">
*{stroke-linecap:butt;stroke-linejoin:round;}
  </style>
 </defs>
 <g id="figure_1">
  <g id="patch_1">
   <path d="M 0 576 
L 576 576 
L 576 0 
L 0 0 
z
" style="fill:#ffffff;"/>
  </g>
  <g id="axes_1">
   <g id="patch_2">
    <path d="M 72 512.64 
L 518.4 512.64 
L 518.4 69.12 
L 72 69.12 
z
" style="fill:#ffffff;"/>
   </g>
   <g id="matplotlib.axis_1">
    <g id="xtick_1">
     <g id="line2d_1">
      <path clip-path="url(#p969a6ae238)" d="M 72 512.64 
L 72 69.12 
" style="fill:none;stroke:#b0b0b0;stroke-linecap:square;stroke-width:0.8;"/>
     </g>
     <g id="line2d_2">
      <defs>
       <path d="M 0 0 
L 0 3.5 
" id="m85368cd416" style="stroke:#000000;stroke-width:0.8;"/>
      </defs>
      <g>
       <use style="stroke:#000000;stroke-width:0.8;" x="72" xlink:href="#m85368cd416" y="512.64"/>
      </g>
     </g>
     <g id="text_1">
      <!-- 0.0 -->
      <defs>
       <path d="M 31.78125 66.40625 
Q 24.171875 66.40625 20.328125 58.90625 
Q 16.5 51.421875 16.5 36.375 
Q 16.5 21.390625 20.328125 13.890625 
Q 24.171875 6.390625 31.78125 6.390625 
Q 39.453125 6.390625 43.28125 13.890625 
Q 47.125 21.390625 47.125 36.375 
Q 47.125 51.421875 43.28125 58.90625 
Q 39.453125 66.40625 31.78125 66.40625 
z
M 31.78125 74.21875 
Q 44.046875 74.21875 50.515625 64.515625 
Q 56.984375 54.828125 56.984375 36.375 
Q 56.984375 17.96875 50.515625 8.265625 
Q 44.046875 -1.421875 31.78125 -1.421875 
Q 19.53125 -1.421875 13.0625 8.265625 
Q 6.59375 17.96875 6.59375 36.375 
Q 6.59375 54.828125 13.0625 64.515625 
Q 19.53125 74.21875 31.78125 74.21875 
z
" id="DejaVuSans-48"/>
       <path d="M 10.6875 12.40625 
L 21 12.40625 
L 21 0 
L 10.6875 0 
z
" id="DejaVuSans-46"/>
      </defs>
      <g transform="translate(64.048438 527.238438)scale(0.1 -0.1)">
       <use xlink:href="#DejaVuSans-48"/>
       <use x="63.623047" xlink:href="#DejaVuSans-46"/>
       <use x="95.410156" xlink:href="#DejaVuSans-48"/>
      </g>
     </g>
    </g>
    <g id="xtick_2">
     <g id="line2d_3">
      <path clip-path="url(#p969a6ae238)" d="M 161.28 512.64 
L 161.28 69.12 
" style="fill:none;stroke:#b0b0b0;stroke-linecap:square;stroke-width:0.8;"/>
     </g>
     <g id="line2d_4">
      <g>
       <use style="stroke:#000000;stroke-width:0.8;" x="161.28" xlink:href="#m85368cd416" y="512.64"/>
      </g>
     </g>
     <g id="text_2">
      <!-- 0.2 -->
      <defs>
       <path d="M 19.1875 8.296875 
L 53.609375 8.296875 
L 53.609375 0 
L 7.328125 0 
L 7.328125 8.296875 
Q 12.9375 14.109375 22.625 23.890625 
Q 32.328125 33.6875 34.8125 36.53125 
Q 39.546875 41.84375 41.421875 45.53125 
Q 43.3125 49.21875 43.3125 52.78125 
Q 43.3125 58.59375 39.234375 62.25 
Q 35.15625 65.921875 28.609375 65.921875 
Q 23.96875 65.921875 18.8125 64.3125 
Q 13.671875 62.703125 7.8125 59.421875 
L 7.8125 69.390625 
Q 13.765625 71.78125 18.9375 73 
Q 24.125 74.21875 28.421875 74.21875 
Q 39.75 74.21875 46.484375 68.546875 
Q 53.21875 62.890625 53.21875 53.421875 
Q 53.21875 48.921875 51.53125 44.890625 
Q 49.859375 40.875 45.40625 35.40625 
Q 44.1875 33.984375 37.640625 27.21875 
Q 31.109375 20.453125 19.1875 8.296875 
z
" id="DejaVuSans-50"/>
      </defs>
      <g transform="translate(153.328438 527.238438)scale(0.1 -0.1)">
       <use xlink:href="#DejaVuSans-48"/>
       <use x="63.623047" xlink:href="#DejaVuSans-46"/>
       <use x="95.410156" xlink:href="#DejaVuSans-50"/>
      </g>
     </g>
    </g>
    <g id="xtick_3">
     <g id="line2d_5">
      <path clip-path="url(#p969a6ae238)" d="M 250.56 512.64 
L 250.56 69.12 
" style="fill:none;stroke:#b0b0b0;stroke-linecap:square;stroke-width:0.8;"/>
     </g>
     <g id="line2d_6">
      <g>
       <use style="stroke:#000000;stroke-width:0.8;" x="250.56" xlink:href="#m85368cd416" y="512.64"/>
      </g>
     </g>
     <g id="text_3">
      <!-- 0.4 -->
      <defs>
       <path d="M 37.796875 64.3125 
L 12.890625 25.390625 
L 37.796875 25.390625 
z
M 35.203125 72.90625 
L 47.609375 72.90625 
L 47.609375 25.390625 
L 58.015625 25.390625 
L 58.015625 17.1875 
L 47.609375 17.1875 
L 47.609375 0 
L 37.796875 0 
L 37.796875 17.1875 
L 4.890625 17.1875 
L 4.890625 26.703125 
z
" id="DejaVuSans-52"/>
      </defs>
      <g transform="translate(242.608438 527.238438)scale(0.1 -0.1)">
       <use xlink:href="#DejaVuSans-48"/>
       <use x="63.623047" xlink:href="#DejaVuSans-46"/>
       <use x="95.410156" xlink:href="#DejaVuSans-52"/>
      </g>
     </g>
    </g>
    <g id="xtick_4">
     <g id="line2d_7">
      <path clip-path="url(#p969a6ae238)" d="M 339.84 512.64 
L 339.84 69.12 
" style="fill:none;stroke:#b0b0b0;stroke-linecap:square;stroke-width:0.8;"/>
     </g>
     <g id="line2d_8">
      <g>
       <use style="stroke:#000000;stroke-width:0.8;" x="339.84" xlink:href="#m85368cd416" y="512.64"/>
      </g>
     </g>
     <g id="text_4">
      <!-- 0.6 -->
      <defs>
       <path d="M 33.015625 40.375 
Q 26.375 40.375 22.484375 35.828125 
Q 18.609375 31.296875 18.609375 23.390625 
Q 18.609375 15.53125 22.484375 10.953125 
Q 26.375 6.390625 33.015625 6.390625 
Q 39.65625 6.390625 43.53125 10.953125 
Q 47.40625 15.53125 47.40625 23.390625 
Q 47.40625 31.296875 43.53125 35.828125 
Q 39.65625 40.375 33.015625 40.375 
z
M 52.59375 71.296875 
L 52.59375 62.3125 
Q 48.875 64.0625 45.09375 64.984375 
Q 41.3125 65.921875 37.59375 65.921875 
Q 27.828125 65.921875 22.671875 59.328125 
Q 17.53125 52.734375 16.796875 39.40625 
Q 19.671875 43.65625 24.015625 45.921875 
Q 28.375 48.1875 33.59375 48.1875 
Q 44.578125 48.1875 50.953125 41.515625 
Q 57.328125 34.859375 57.328125 23.390625 
Q 57.328125 12.15625 50.6875 5.359375 
Q 44.046875 -1.421875 33.015625 -1.421875 
Q 20.359375 -1.421875 13.671875 8.265625 
Q 6.984375 17.96875 6.984375 36.375 
Q 6.984375 53.65625 15.1875 63.9375 
Q 23.390625 74.21875 37.203125 74.21875 
Q 40.921875 74.21875 44.703125 73.484375 
Q 48.484375 72.75 52.59375 71.296875 
z
" id="DejaVuSans-54"/>
      </defs>
      <g transform="translate(331.888438 527.238438)scale(0.1 -0.1)">
       <use xlink:href="#DejaVuSans-48"/>
       <use x="63.623047" xlink:href="#DejaVuSans-46"/>
       <use x="95.410156" xlink:href="#DejaVuSans-54"/>
      </g>
     </g>
    </g>
    <g id="xtick_5">
     <g id="line2d_9">
      <path clip-path="url(#p969a6ae238)" d="M 429.12 512.64 
L 429.12 69.12 
" style="fill:none;stroke:#b0b0b0;stroke-linecap:square;stroke-width:0.8;"/>
     </g>
     <g id="line2d_10">
      <g>
       <use style="stroke:#000000;stroke-width:0.8;" x="429.12" xlink:href="#m85368cd416" y="512.64"/>
      </g>
     </g>
     <g id="text_5">
      <!-- 0.8 -->
      <defs>
       <path d="M 31.78125 34.625 
Q 24.75 34.625 20.71875 30.859375 
Q 16.703125 27.09375 16.703125 20.515625 
Q 16.703125 13.921875 20.71875 10.15625 
Q 24.75 6.390625 31.78125 6.390625 
Q 38.8125 6.390625 42.859375 10.171875 
Q 46.921875 13.96875 46.921875 20.515625 
Q 46.921875 27.09375 42.890625 30.859375 
Q 38.875 34.625 31.78125 34.625 
z
M 21.921875 38.8125 
Q 15.578125 40.375 12.03125 44.71875 
Q 8.5 49.078125 8.5 55.328125 
Q 8.5 64.0625 14.71875 69.140625 
Q 20.953125 74.21875 31.78125 74.21875 
Q 42.671875 74.21875 48.875 69.140625 
Q 55.078125 64.0625 55.078125 55.328125 
Q 55.078125 49.078125 51.53125 44.71875 
Q 48 40.375 41.703125 38.8125 
Q 48.828125 37.15625 52.796875 32.3125 
Q 56.78125 27.484375 56.78125 20.515625 
Q 56.78125 9.90625 50.3125 4.234375 
Q 43.84375 -1.421875 31.78125 -1.421875 
Q 19.734375 -1.421875 13.25 4.234375 
Q 6.78125 9.90625 6.78125 20.515625 
Q 6.78125 27.484375 10.78125 32.3125 
Q 14.796875 37.15625 21.921875 38.8125 
z
M 18.3125 54.390625 
Q 18.3125 48.734375 21.84375 45.5625 
Q 25.390625 42.390625 31.78125 42.390625 
Q 38.140625 42.390625 41.71875 45.5625 
Q 45.3125 48.734375 45.3125 54.390625 
Q 45.3125 60.0625 41.71875 63.234375 
Q 38.140625 66.40625 31.78125 66.40625 
Q 25.390625 66.40625 21.84375 63.234375 
Q 18.3125 60.0625 18.3125 54.390625 
z
" id="DejaVuSans-56"/>
      </defs>
      <g transform="translate(421.168437 527.238438)scale(0.1 -0.1)">
       <use xlink:href="#DejaVuSans-48"/>
       <use x="63.623047" xlink:href="#DejaVuSans-46"/>
       <use x="95.410156" xlink:href="#DejaVuSans-56"/>
      </g>
     </g>
    </g>
    <g id="xtick_6">
     <g id="line2d_11">
      <path clip-path="url(#p969a6ae238)" d="M 518.4 512.64 
L 518.4 69.12 
" style="fill:none;stroke:#b0b0b0;stroke-linecap:square;stroke-width:0.8;"/>
     </g>
     <g id="line2d_12">
      <g>
       <use style="stroke:#000000;stroke-width:0.8;" x="518.4" xlink:href="#m85368cd416" y="512.64"/>
      </g>
     </g>
     <g id="text_6">
      <!-- 1.0 -->
      <defs>
       <path d="M 12.40625 8.296875 
L 28.515625 8.296875 
L 28.515625 63.921875 
L 10.984375 60.40625 
L 10.984375 69.390625 
L 28.421875 72.90625 
L 38.28125 72.90625 
L 38.28125 8.296875 
L 54.390625 8.296875 
L 54.390625 0 
L 12.40625 0 
z
" id="DejaVuSans-49"/>
      </defs>
      <g transform="translate(510.448437 527.238438)scale(0.1 -0.1)">
       <use xlink:href="#DejaVuSans-49"/>
       <use x="63.623047" xlink:href="#DejaVuSans-46"/>
       <use x="95.410156" xlink:href="#DejaVuSans-48"/>
      </g>
     </g>
    </g>
    <g id="text_7">
     <!-- False Positive Rate -->
     <defs>
      <path d="M 9.8125 72.90625 
L 51.703125 72.90625 
L 51.703125 64.59375 
L 19.671875 64.59375 
L 19.671875 43.109375 
L 48.578125 43.109375 
L 48.578125 34.8125 
L 19.671875 34.8125 
L 19.671875 0 
L 9.8125 0 
z
" id="DejaVuSans-70"/>
      <path d="M 34.28125 27.484375 
Q 23.390625 27.484375 19.1875 25 
Q 14.984375 22.515625 14.984375 16.5 
Q 14.984375 11.71875 18.140625 8.90625 
Q 21.296875 6.109375 26.703125 6.109375 
Q 34.1875 6.109375 38.703125 11.40625 
Q 43.21875 16.703125 43.21875 25.484375 
L 43.21875 27.484375 
z
M 52.203125 31.203125 
L 52.203125 0 
L 43.21875 0 
L 43.21875 8.296875 
Q 40.140625 3.328125 35.546875 0.953125 
Q 30.953125 -1.421875 24.3125 -1.421875 
Q 15.921875 -1.421875 10.953125 3.296875 
Q 6 8.015625 6 15.921875 
Q 6 25.140625 12.171875 29.828125 
Q 18.359375 34.515625 30.609375 34.515625 
L 43.21875 34.515625 
L 43.21875 35.40625 
Q 43.21875 41.609375 39.140625 45 
Q 35.0625 48.390625 27.6875 48.390625 
Q 23 48.390625 18.546875 47.265625 
Q 14.109375 46.140625 10.015625 43.890625 
L 10.015625 52.203125 
Q 14.9375 54.109375 19.578125 55.046875 
Q 24.21875 56 28.609375 56 
Q 40.484375 56 46.34375 49.84375 
Q 52.203125 43.703125 52.203125 31.203125 
z
" id="DejaVuSans-97"/>
      <path d="M 9.421875 75.984375 
L 18.40625 75.984375 
L 18.40625 0 
L 9.421875 0 
z
" id="DejaVuSans-108"/>
      <path d="M 44.28125 53.078125 
L 44.28125 44.578125 
Q 40.484375 46.53125 36.375 47.5 
Q 32.28125 48.484375 27.875 48.484375 
Q 21.1875 48.484375 17.84375 46.4375 
Q 14.5 44.390625 14.5 40.28125 
Q 14.5 37.15625 16.890625 35.375 
Q 19.28125 33.59375 26.515625 31.984375 
L 29.59375 31.296875 
Q 39.15625 29.25 43.1875 25.515625 
Q 47.21875 21.78125 47.21875 15.09375 
Q 47.21875 7.46875 41.1875 3.015625 
Q 35.15625 -1.421875 24.609375 -1.421875 
Q 20.21875 -1.421875 15.453125 -0.5625 
Q 10.6875 0.296875 5.421875 2 
L 5.421875 11.28125 
Q 10.40625 8.6875 15.234375 7.390625 
Q 20.0625 6.109375 24.8125 6.109375 
Q 31.15625 6.109375 34.5625 8.28125 
Q 37.984375 10.453125 37.984375 14.40625 
Q 37.984375 18.0625 35.515625 20.015625 
Q 33.0625 21.96875 24.703125 23.78125 
L 21.578125 24.515625 
Q 13.234375 26.265625 9.515625 29.90625 
Q 5.8125 33.546875 5.8125 39.890625 
Q 5.8125 47.609375 11.28125 51.796875 
Q 16.75 56 26.8125 56 
Q 31.78125 56 36.171875 55.265625 
Q 40.578125 54.546875 44.28125 53.078125 
z
" id="DejaVuSans-115"/>
      <path d="M 56.203125 29.59375 
L 56.203125 25.203125 
L 14.890625 25.203125 
Q 15.484375 15.921875 20.484375 11.0625 
Q 25.484375 6.203125 34.421875 6.203125 
Q 39.59375 6.203125 44.453125 7.46875 
Q 49.3125 8.734375 54.109375 11.28125 
L 54.109375 2.78125 
Q 49.265625 0.734375 44.1875 -0.34375 
Q 39.109375 -1.421875 33.890625 -1.421875 
Q 20.796875 -1.421875 13.15625 6.1875 
Q 5.515625 13.8125 5.515625 26.8125 
Q 5.515625 40.234375 12.765625 48.109375 
Q 20.015625 56 32.328125 56 
Q 43.359375 56 49.78125 48.890625 
Q 56.203125 41.796875 56.203125 29.59375 
z
M 47.21875 32.234375 
Q 47.125 39.59375 43.09375 43.984375 
Q 39.0625 48.390625 32.421875 48.390625 
Q 24.90625 48.390625 20.390625 44.140625 
Q 15.875 39.890625 15.1875 32.171875 
z
" id="DejaVuSans-101"/>
      <path id="DejaVuSans-32"/>
      <path d="M 19.671875 64.796875 
L 19.671875 37.40625 
L 32.078125 37.40625 
Q 38.96875 37.40625 42.71875 40.96875 
Q 46.484375 44.53125 46.484375 51.125 
Q 46.484375 57.671875 42.71875 61.234375 
Q 38.96875 64.796875 32.078125 64.796875 
z
M 9.8125 72.90625 
L 32.078125 72.90625 
Q 44.34375 72.90625 50.609375 67.359375 
Q 56.890625 61.8125 56.890625 51.125 
Q 56.890625 40.328125 50.609375 34.8125 
Q 44.34375 29.296875 32.078125 29.296875 
L 19.671875 29.296875 
L 19.671875 0 
L 9.8125 0 
z
" id="DejaVuSans-80"/>
      <path d="M 30.609375 48.390625 
Q 23.390625 48.390625 19.1875 42.75 
Q 14.984375 37.109375 14.984375 27.296875 
Q 14.984375 17.484375 19.15625 11.84375 
Q 23.34375 6.203125 30.609375 6.203125 
Q 37.796875 6.203125 41.984375 11.859375 
Q 46.1875 17.53125 46.1875 27.296875 
Q 46.1875 37.015625 41.984375 42.703125 
Q 37.796875 48.390625 30.609375 48.390625 
z
M 30.609375 56 
Q 42.328125 56 49.015625 48.375 
Q 55.71875 40.765625 55.71875 27.296875 
Q 55.71875 13.875 49.015625 6.21875 
Q 42.328125 -1.421875 30.609375 -1.421875 
Q 18.84375 -1.421875 12.171875 6.21875 
Q 5.515625 13.875 5.515625 27.296875 
Q 5.515625 40.765625 12.171875 48.375 
Q 18.84375 56 30.609375 56 
z
" id="DejaVuSans-111"/>
      <path d="M 9.421875 54.6875 
L 18.40625 54.6875 
L 18.40625 0 
L 9.421875 0 
z
M 9.421875 75.984375 
L 18.40625 75.984375 
L 18.40625 64.59375 
L 9.421875 64.59375 
z
" id="DejaVuSans-105"/>
      <path d="M 18.3125 70.21875 
L 18.3125 54.6875 
L 36.8125 54.6875 
L 36.8125 47.703125 
L 18.3125 47.703125 
L 18.3125 18.015625 
Q 18.3125 11.328125 20.140625 9.421875 
Q 21.96875 7.515625 27.59375 7.515625 
L 36.8125 7.515625 
L 36.8125 0 
L 27.59375 0 
Q 17.1875 0 13.234375 3.875 
Q 9.28125 7.765625 9.28125 18.015625 
L 9.28125 47.703125 
L 2.6875 47.703125 
L 2.6875 54.6875 
L 9.28125 54.6875 
L 9.28125 70.21875 
z
" id="DejaVuSans-116"/>
      <path d="M 2.984375 54.6875 
L 12.5 54.6875 
L 29.59375 8.796875 
L 46.6875 54.6875 
L 56.203125 54.6875 
L 35.6875 0 
L 23.484375 0 
z
" id="DejaVuSans-118"/>
      <path d="M 44.390625 34.1875 
Q 47.5625 33.109375 50.5625 29.59375 
Q 53.5625 26.078125 56.59375 19.921875 
L 66.609375 0 
L 56 0 
L 46.6875 18.703125 
Q 43.0625 26.03125 39.671875 28.421875 
Q 36.28125 30.8125 30.421875 30.8125 
L 19.671875 30.8125 
L 19.671875 0 
L 9.8125 0 
L 9.8125 72.90625 
L 32.078125 72.90625 
Q 44.578125 72.90625 50.734375 67.671875 
Q 56.890625 62.453125 56.890625 51.90625 
Q 56.890625 45.015625 53.6875 40.46875 
Q 50.484375 35.9375 44.390625 34.1875 
z
M 19.671875 64.796875 
L 19.671875 38.921875 
L 32.078125 38.921875 
Q 39.203125 38.921875 42.84375 42.21875 
Q 46.484375 45.515625 46.484375 51.90625 
Q 46.484375 58.296875 42.84375 61.546875 
Q 39.203125 64.796875 32.078125 64.796875 
z
" id="DejaVuSans-82"/>
     </defs>
     <g transform="translate(247.994531 540.916563)scale(0.1 -0.1)">
      <use xlink:href="#DejaVuSans-70"/>
      <use x="57.378906" xlink:href="#DejaVuSans-97"/>
      <use x="118.658203" xlink:href="#DejaVuSans-108"/>
      <use x="146.441406" xlink:href="#DejaVuSans-115"/>
      <use x="198.541016" xlink:href="#DejaVuSans-101"/>
      <use x="260.064453" xlink:href="#DejaVuSans-32"/>
      <use x="291.851562" xlink:href="#DejaVuSans-80"/>
      <use x="352.107422" xlink:href="#DejaVuSans-111"/>
      <use x="413.289062" xlink:href="#DejaVuSans-115"/>
      <use x="465.388672" xlink:href="#DejaVuSans-105"/>
      <use x="493.171875" xlink:href="#DejaVuSans-116"/>
      <use x="532.380859" xlink:href="#DejaVuSans-105"/>
      <use x="560.164062" xlink:href="#DejaVuSans-118"/>
      <use x="619.34375" xlink:href="#DejaVuSans-101"/>
      <use x="680.867188" xlink:href="#DejaVuSans-32"/>
      <use x="712.654297" xlink:href="#DejaVuSans-82"/>
      <use x="782.105469" xlink:href="#DejaVuSans-97"/>
      <use x="843.384766" xlink:href="#DejaVuSans-116"/>
      <use x="882.59375" xlink:href="#DejaVuSans-101"/>
     </g>
    </g>
   </g>
   <g id="matplotlib.axis_2">
    <g id="ytick_1">
     <g id="line2d_13">
      <path clip-path="url(#p969a6ae238)" d="M 72 512.64 
L 518.4 512.64 
" style="fill:none;stroke:#b0b0b0;stroke-linecap:square;stroke-width:0.8;"/>
     </g>
     <g id="line2d_14">
      <defs>
       <path d="M 0 0 
L -3.5 0 
" id="m5abf18c0b1" style="stroke:#000000;stroke-width:0.8;"/>
      </defs>
      <g>
       <use style="stroke:#000000;stroke-width:0.8;" x="72" xlink:href="#m5abf18c0b1" y="512.64"/>
      </g>
     </g>
     <g id="text_8">
      <!-- 0.0 -->
      <g transform="translate(49.096875 516.439219)scale(0.1 -0.1)">
       <use xlink:href="#DejaVuSans-48"/>
       <use x="63.623047" xlink:href="#DejaVuSans-46"/>
       <use x="95.410156" xlink:href="#DejaVuSans-48"/>
      </g>
     </g>
    </g>
    <g id="ytick_2">
     <g id="line2d_15">
      <path clip-path="url(#p969a6ae238)" d="M 72 428.16 
L 518.4 428.16 
" style="fill:none;stroke:#b0b0b0;stroke-linecap:square;stroke-width:0.8;"/>
     </g>
     <g id="line2d_16">
      <g>
       <use style="stroke:#000000;stroke-width:0.8;" x="72" xlink:href="#m5abf18c0b1" y="428.16"/>
      </g>
     </g>
     <g id="text_9">
      <!-- 0.2 -->
      <g transform="translate(49.096875 431.959219)scale(0.1 -0.1)">
       <use xlink:href="#DejaVuSans-48"/>
       <use x="63.623047" xlink:href="#DejaVuSans-46"/>
       <use x="95.410156" xlink:href="#DejaVuSans-50"/>
      </g>
     </g>
    </g>
    <g id="ytick_3">
     <g id="line2d_17">
      <path clip-path="url(#p969a6ae238)" d="M 72 343.68 
L 518.4 343.68 
" style="fill:none;stroke:#b0b0b0;stroke-linecap:square;stroke-width:0.8;"/>
     </g>
     <g id="line2d_18">
      <g>
       <use style="stroke:#000000;stroke-width:0.8;" x="72" xlink:href="#m5abf18c0b1" y="343.68"/>
      </g>
     </g>
     <g id="text_10">
      <!-- 0.4 -->
      <g transform="translate(49.096875 347.479219)scale(0.1 -0.1)">
       <use xlink:href="#DejaVuSans-48"/>
       <use x="63.623047" xlink:href="#DejaVuSans-46"/>
       <use x="95.410156" xlink:href="#DejaVuSans-52"/>
      </g>
     </g>
    </g>
    <g id="ytick_4">
     <g id="line2d_19">
      <path clip-path="url(#p969a6ae238)" d="M 72 259.2 
L 518.4 259.2 
" style="fill:none;stroke:#b0b0b0;stroke-linecap:square;stroke-width:0.8;"/>
     </g>
     <g id="line2d_20">
      <g>
       <use style="stroke:#000000;stroke-width:0.8;" x="72" xlink:href="#m5abf18c0b1" y="259.2"/>
      </g>
     </g>
     <g id="text_11">
      <!-- 0.6 -->
      <g transform="translate(49.096875 262.999219)scale(0.1 -0.1)">
       <use xlink:href="#DejaVuSans-48"/>
       <use x="63.623047" xlink:href="#DejaVuSans-46"/>
       <use x="95.410156" xlink:href="#DejaVuSans-54"/>
      </g>
     </g>
    </g>
    <g id="ytick_5">
     <g id="line2d_21">
      <path clip-path="url(#p969a6ae238)" d="M 72 174.72 
L 518.4 174.72 
" style="fill:none;stroke:#b0b0b0;stroke-linecap:square;stroke-width:0.8;"/>
     </g>
     <g id="line2d_22">
      <g>
       <use style="stroke:#000000;stroke-width:0.8;" x="72" xlink:href="#m5abf18c0b1" y="174.72"/>
      </g>
     </g>
     <g id="text_12">
      <!-- 0.8 -->
      <g transform="translate(49.096875 178.519219)scale(0.1 -0.1)">
       <use xlink:href="#DejaVuSans-48"/>
       <use x="63.623047" xlink:href="#DejaVuSans-46"/>
       <use x="95.410156" xlink:href="#DejaVuSans-56"/>
      </g>
     </g>
    </g>
    <g id="ytick_6">
     <g id="line2d_23">
      <path clip-path="url(#p969a6ae238)" d="M 72 90.24 
L 518.4 90.24 
" style="fill:none;stroke:#b0b0b0;stroke-linecap:square;stroke-width:0.8;"/>
     </g>
     <g id="line2d_24">
      <g>
       <use style="stroke:#000000;stroke-width:0.8;" x="72" xlink:href="#m5abf18c0b1" y="90.24"/>
      </g>
     </g>
     <g id="text_13">
      <!-- 1.0 -->
      <g transform="translate(49.096875 94.039219)scale(0.1 -0.1)">
       <use xlink:href="#DejaVuSans-49"/>
       <use x="63.623047" xlink:href="#DejaVuSans-46"/>
       <use x="95.410156" xlink:href="#DejaVuSans-48"/>
      </g>
     </g>
    </g>
    <g id="text_14">
     <!-- True Positive Rate -->
     <defs>
      <path d="M -0.296875 72.90625 
L 61.375 72.90625 
L 61.375 64.59375 
L 35.5 64.59375 
L 35.5 0 
L 25.59375 0 
L 25.59375 64.59375 
L -0.296875 64.59375 
z
" id="DejaVuSans-84"/>
      <path d="M 41.109375 46.296875 
Q 39.59375 47.171875 37.8125 47.578125 
Q 36.03125 48 33.890625 48 
Q 26.265625 48 22.1875 43.046875 
Q 18.109375 38.09375 18.109375 28.8125 
L 18.109375 0 
L 9.078125 0 
L 9.078125 54.6875 
L 18.109375 54.6875 
L 18.109375 46.1875 
Q 20.953125 51.171875 25.484375 53.578125 
Q 30.03125 56 36.53125 56 
Q 37.453125 56 38.578125 55.875 
Q 39.703125 55.765625 41.0625 55.515625 
z
" id="DejaVuSans-114"/>
      <path d="M 8.5 21.578125 
L 8.5 54.6875 
L 17.484375 54.6875 
L 17.484375 21.921875 
Q 17.484375 14.15625 20.5 10.265625 
Q 23.53125 6.390625 29.59375 6.390625 
Q 36.859375 6.390625 41.078125 11.03125 
Q 45.3125 15.671875 45.3125 23.6875 
L 45.3125 54.6875 
L 54.296875 54.6875 
L 54.296875 0 
L 45.3125 0 
L 45.3125 8.40625 
Q 42.046875 3.421875 37.71875 1 
Q 33.40625 -1.421875 27.6875 -1.421875 
Q 18.265625 -1.421875 13.375 4.4375 
Q 8.5 10.296875 8.5 21.578125 
z
M 31.109375 56 
z
" id="DejaVuSans-117"/>
     </defs>
     <g transform="translate(43.017187 336.426094)rotate(-90)scale(0.1 -0.1)">
      <use xlink:href="#DejaVuSans-84"/>
      <use x="60.865234" xlink:href="#DejaVuSans-114"/>
      <use x="101.978516" xlink:href="#DejaVuSans-117"/>
      <use x="165.357422" xlink:href="#DejaVuSans-101"/>
      <use x="226.880859" xlink:href="#DejaVuSans-32"/>
      <use x="258.667969" xlink:href="#DejaVuSans-80"/>
      <use x="318.923828" xlink:href="#DejaVuSans-111"/>
      <use x="380.105469" xlink:href="#DejaVuSans-115"/>
      <use x="432.205078" xlink:href="#DejaVuSans-105"/>
      <use x="459.988281" xlink:href="#DejaVuSans-116"/>
      <use x="499.197266" xlink:href="#DejaVuSans-105"/>
      <use x="526.980469" xlink:href="#DejaVuSans-118"/>
      <use x="586.160156" xlink:href="#DejaVuSans-101"/>
      <use x="647.683594" xlink:href="#DejaVuSans-32"/>
      <use x="679.470703" xlink:href="#DejaVuSans-82"/>
      <use x="748.921875" xlink:href="#DejaVuSans-97"/>
      <use x="810.201172" xlink:href="#DejaVuSans-116"/>
      <use x="849.410156" xlink:href="#DejaVuSans-101"/>
     </g>
    </g>
   </g>
   <g id="line2d_25">
    <path clip-path="url(#p969a6ae238)" d="M 72 512.64 
L 72 489.173333 
L 72.381538 489.173333 
L 72.381538 487.007179 
L 72.763077 487.007179 
L 72.763077 459.208205 
L 73.144615 459.208205 
L 73.144615 449.821538 
L 73.526154 449.821538 
L 73.526154 446.211282 
L 73.907692 446.211282 
L 73.907692 440.073846 
L 74.289231 440.073846 
L 74.289231 432.492308 
L 74.670769 432.492308 
L 74.670769 426.354872 
L 75.052308 426.354872 
L 75.052308 425.993846 
L 75.433846 425.993846 
L 75.433846 425.271795 
L 75.815385 425.271795 
L 75.815385 424.910769 
L 76.196923 424.910769 
L 76.196923 422.022564 
L 76.578462 422.022564 
L 76.578462 419.85641 
L 76.96 419.85641 
L 76.96 418.051282 
L 77.341538 418.051282 
L 77.341538 408.664615 
L 77.723077 408.664615 
L 77.723077 401.083077 
L 78.104615 401.083077 
L 78.104615 395.667692 
L 78.486154 395.667692 
L 78.486154 390.613333 
L 78.867692 390.613333 
L 78.867692 386.281026 
L 79.249231 386.281026 
L 79.249231 384.836923 
L 79.630769 384.836923 
L 79.630769 378.338462 
L 80.012308 378.338462 
L 80.012308 371.84 
L 80.393846 371.84 
L 80.393846 367.507692 
L 80.775385 367.507692 
L 80.775385 361.009231 
L 81.156923 361.009231 
L 81.156923 357.76 
L 81.538462 357.76 
L 81.538462 357.398974 
L 81.92 357.398974 
L 81.92 356.315897 
L 82.683077 356.315897 
L 82.683077 350.539487 
L 83.064615 350.539487 
L 83.064615 340.430769 
L 83.446154 340.430769 
L 83.446154 338.264615 
L 84.209231 338.264615 
L 84.209231 336.459487 
L 84.590769 336.459487 
L 84.590769 335.37641 
L 84.972308 335.37641 
L 84.972308 334.654359 
L 85.353846 334.654359 
L 85.353846 332.488205 
L 85.735385 332.488205 
L 85.735385 331.766154 
L 86.116923 331.766154 
L 86.116923 319.491282 
L 86.498462 319.491282 
L 86.498462 316.603077 
L 86.88 316.603077 
L 86.88 315.158974 
L 87.261538 315.158974 
L 87.261538 313.714872 
L 87.643077 313.714872 
L 87.643077 310.465641 
L 88.024615 310.465641 
L 88.024615 306.494359 
L 88.406154 306.494359 
L 88.406154 305.772308 
L 88.787692 305.772308 
L 88.787692 303.606154 
L 89.932308 303.606154 
L 89.932308 301.801026 
L 91.076923 301.801026 
L 91.076923 301.078974 
L 91.458462 301.078974 
L 91.458462 300.717949 
L 92.221538 300.717949 
L 92.221538 299.995897 
L 92.603077 299.995897 
L 92.603077 297.468718 
L 92.984615 297.468718 
L 92.984615 296.385641 
L 93.747692 296.385641 
L 93.747692 295.66359 
L 94.129231 295.66359 
L 94.129231 294.580513 
L 94.510769 294.580513 
L 94.510769 293.497436 
L 94.892308 293.497436 
L 94.892308 293.13641 
L 95.273846 293.13641 
L 95.273846 288.443077 
L 95.655385 288.443077 
L 95.655385 287.721026 
L 96.036923 287.721026 
L 96.036923 284.110769 
L 96.418462 284.110769 
L 96.418462 283.749744 
L 96.8 283.749744 
L 96.8 282.666667 
L 97.563077 282.666667 
L 97.563077 279.778462 
L 98.707692 279.778462 
L 98.707692 277.973333 
L 99.089231 277.973333 
L 99.089231 276.168205 
L 99.470769 276.168205 
L 99.470769 274.724103 
L 99.852308 274.724103 
L 99.852308 274.002051 
L 100.233846 274.002051 
L 100.233846 272.918974 
L 100.615385 272.918974 
L 100.615385 271.835897 
L 100.996923 271.835897 
L 100.996923 270.030769 
L 101.378462 270.030769 
L 101.378462 268.586667 
L 101.76 268.586667 
L 101.76 268.225641 
L 102.141538 268.225641 
L 102.141538 267.864615 
L 102.523077 267.864615 
L 102.523077 264.254359 
L 102.904615 264.254359 
L 102.904615 263.893333 
L 103.667692 263.893333 
L 103.667692 262.449231 
L 104.049231 262.449231 
L 104.049231 261.727179 
L 104.430769 261.727179 
L 104.430769 257.394872 
L 104.812308 257.394872 
L 104.812308 255.950769 
L 105.193846 255.950769 
L 105.193846 254.506667 
L 105.575385 254.506667 
L 105.575385 251.257436 
L 105.956923 251.257436 
L 105.956923 250.535385 
L 106.338462 250.535385 
L 106.338462 249.091282 
L 106.72 249.091282 
L 106.72 246.564103 
L 107.101538 246.564103 
L 107.101538 245.481026 
L 108.246154 245.481026 
L 108.246154 245.12 
L 108.627692 245.12 
L 108.627692 244.758974 
L 109.390769 244.758974 
L 109.390769 244.397949 
L 110.153846 244.397949 
L 110.153846 241.870769 
L 110.916923 241.870769 
L 110.916923 241.509744 
L 111.298462 241.509744 
L 111.298462 240.787692 
L 111.68 240.787692 
L 111.68 240.426667 
L 112.061538 240.426667 
L 112.061538 239.34359 
L 112.824615 239.34359 
L 112.824615 238.982564 
L 113.206154 238.982564 
L 113.206154 236.81641 
L 113.587692 236.81641 
L 113.587692 236.455385 
L 113.969231 236.455385 
L 113.969231 234.650256 
L 114.350769 234.650256 
L 114.350769 233.206154 
L 114.732308 233.206154 
L 114.732308 232.845128 
L 115.113846 232.845128 
L 115.113846 232.484103 
L 115.495385 232.484103 
L 115.495385 232.123077 
L 117.021538 232.123077 
L 117.021538 231.401026 
L 117.403077 231.401026 
L 117.403077 231.04 
L 118.166154 231.04 
L 118.166154 230.317949 
L 119.692308 230.317949 
L 119.692308 229.595897 
L 120.073846 229.595897 
L 120.073846 228.873846 
L 120.455385 228.873846 
L 120.455385 227.790769 
L 120.836923 227.790769 
L 120.836923 227.429744 
L 121.218462 227.429744 
L 121.218462 225.985641 
L 121.6 225.985641 
L 121.6 224.902564 
L 122.744615 224.902564 
L 122.744615 224.541538 
L 123.126154 224.541538 
L 123.126154 222.73641 
L 123.507692 222.73641 
L 123.507692 220.931282 
L 124.270769 220.931282 
L 124.270769 220.209231 
L 124.652308 220.209231 
L 124.652308 219.848205 
L 125.033846 219.848205 
L 125.033846 219.487179 
L 125.415385 219.487179 
L 125.415385 217.321026 
L 126.178462 217.321026 
L 126.178462 216.96 
L 126.56 216.96 
L 126.56 215.876923 
L 126.941538 215.876923 
L 126.941538 215.154872 
L 127.323077 215.154872 
L 127.323077 214.793846 
L 127.704615 214.793846 
L 127.704615 214.432821 
L 128.467692 214.432821 
L 128.467692 214.071795 
L 129.612308 214.071795 
L 129.612308 213.710769 
L 129.993846 213.710769 
L 129.993846 213.349744 
L 130.375385 213.349744 
L 130.375385 212.627692 
L 131.901538 212.627692 
L 131.901538 211.18359 
L 132.664615 211.18359 
L 132.664615 210.822564 
L 133.046154 210.822564 
L 133.046154 210.461538 
L 133.427692 210.461538 
L 133.427692 209.739487 
L 133.809231 209.739487 
L 133.809231 209.378462 
L 134.572308 209.378462 
L 134.572308 208.295385 
L 136.48 208.295385 
L 136.48 207.573333 
L 136.861538 207.573333 
L 136.861538 205.768205 
L 138.006154 205.768205 
L 138.006154 203.602051 
L 138.769231 203.602051 
L 138.769231 202.157949 
L 140.295385 202.157949 
L 140.295385 201.074872 
L 141.44 201.074872 
L 141.44 199.991795 
L 141.821538 199.991795 
L 141.821538 198.186667 
L 142.584615 198.186667 
L 142.584615 197.464615 
L 142.966154 197.464615 
L 142.966154 197.10359 
L 143.347692 197.10359 
L 143.347692 195.298462 
L 143.729231 195.298462 
L 143.729231 192.049231 
L 144.873846 192.049231 
L 144.873846 191.688205 
L 145.636923 191.688205 
L 145.636923 191.327179 
L 147.926154 191.327179 
L 147.926154 190.605128 
L 149.070769 190.605128 
L 149.070769 188.8 
L 149.452308 188.8 
L 149.452308 188.438974 
L 150.978462 188.438974 
L 150.978462 188.077949 
L 151.36 188.077949 
L 151.36 186.633846 
L 151.741538 186.633846 
L 151.741538 186.272821 
L 152.123077 186.272821 
L 152.123077 184.828718 
L 153.267692 184.828718 
L 153.267692 183.745641 
L 153.649231 183.745641 
L 153.649231 183.384615 
L 155.175385 183.384615 
L 155.175385 182.301538 
L 155.556923 182.301538 
L 155.556923 181.218462 
L 155.938462 181.218462 
L 155.938462 180.135385 
L 156.32 180.135385 
L 156.32 177.969231 
L 157.083077 177.969231 
L 157.083077 176.164103 
L 157.464615 176.164103 
L 157.464615 175.803077 
L 157.846154 175.803077 
L 157.846154 175.442051 
L 158.227692 175.442051 
L 158.227692 174.358974 
L 159.753846 174.358974 
L 159.753846 173.997949 
L 160.135385 173.997949 
L 160.135385 173.636923 
L 162.424615 173.636923 
L 162.424615 172.553846 
L 162.806154 172.553846 
L 162.806154 172.192821 
L 164.713846 172.192821 
L 164.713846 171.470769 
L 165.476923 171.470769 
L 165.476923 170.748718 
L 166.621538 170.748718 
L 166.621538 170.026667 
L 167.766154 170.026667 
L 167.766154 169.304615 
L 169.292308 169.304615 
L 169.292308 168.221538 
L 169.673846 168.221538 
L 169.673846 167.138462 
L 171.581538 167.138462 
L 171.581538 166.777436 
L 171.963077 166.777436 
L 171.963077 166.41641 
L 172.726154 166.41641 
L 172.726154 165.333333 
L 173.107692 165.333333 
L 173.107692 164.972308 
L 173.489231 164.972308 
L 173.489231 164.250256 
L 173.870769 164.250256 
L 173.870769 163.889231 
L 174.633846 163.889231 
L 174.633846 163.528205 
L 175.396923 163.528205 
L 175.396923 163.167179 
L 176.541538 163.167179 
L 176.541538 162.806154 
L 176.923077 162.806154 
L 176.923077 162.084103 
L 177.686154 162.084103 
L 177.686154 161.001026 
L 178.067692 161.001026 
L 178.067692 159.917949 
L 178.830769 159.917949 
L 178.830769 159.195897 
L 179.212308 159.195897 
L 179.212308 158.834872 
L 179.593846 158.834872 
L 179.593846 158.473846 
L 179.975385 158.473846 
L 179.975385 158.112821 
L 182.264615 158.112821 
L 182.264615 157.751795 
L 183.790769 157.751795 
L 183.790769 157.390769 
L 184.172308 157.390769 
L 184.172308 157.029744 
L 184.553846 157.029744 
L 184.553846 156.668718 
L 185.316923 156.668718 
L 185.316923 155.946667 
L 185.698462 155.946667 
L 185.698462 155.224615 
L 186.08 155.224615 
L 186.08 154.86359 
L 186.461538 154.86359 
L 186.461538 154.502564 
L 188.369231 154.502564 
L 188.369231 153.780513 
L 188.750769 153.780513 
L 188.750769 153.419487 
L 191.04 153.419487 
L 191.04 153.058462 
L 191.803077 153.058462 
L 191.803077 152.697436 
L 193.329231 152.697436 
L 193.329231 152.33641 
L 195.236923 152.33641 
L 195.236923 151.975385 
L 196 151.975385 
L 196 151.614359 
L 196.763077 151.614359 
L 196.763077 150.892308 
L 197.907692 150.892308 
L 197.907692 150.531282 
L 199.052308 150.531282 
L 199.052308 150.170256 
L 199.815385 150.170256 
L 199.815385 149.809231 
L 200.578462 149.809231 
L 200.578462 149.448205 
L 201.341538 149.448205 
L 201.341538 149.087179 
L 202.104615 149.087179 
L 202.104615 148.726154 
L 202.486154 148.726154 
L 202.486154 148.004103 
L 203.630769 148.004103 
L 203.630769 147.643077 
L 204.775385 147.643077 
L 204.775385 146.921026 
L 205.156923 146.921026 
L 205.156923 145.476923 
L 205.92 145.476923 
L 205.92 144.754872 
L 208.590769 144.754872 
L 208.590769 144.032821 
L 209.353846 144.032821 
L 209.353846 143.671795 
L 211.261538 143.671795 
L 211.261538 142.949744 
L 211.643077 142.949744 
L 211.643077 142.588718 
L 212.024615 142.588718 
L 212.024615 141.866667 
L 213.550769 141.866667 
L 213.550769 141.144615 
L 214.695385 141.144615 
L 214.695385 140.78359 
L 215.458462 140.78359 
L 215.458462 140.422564 
L 219.655385 140.422564 
L 219.655385 139.700513 
L 220.036923 139.700513 
L 220.036923 139.339487 
L 220.8 139.339487 
L 220.8 138.978462 
L 222.326154 138.978462 
L 222.326154 138.617436 
L 222.707692 138.617436 
L 222.707692 137.895385 
L 223.852308 137.895385 
L 223.852308 137.534359 
L 224.615385 137.534359 
L 224.615385 137.173333 
L 224.996923 137.173333 
L 224.996923 136.812308 
L 225.76 136.812308 
L 225.76 136.451282 
L 226.141538 136.451282 
L 226.141538 136.090256 
L 227.286154 136.090256 
L 227.286154 135.729231 
L 227.667692 135.729231 
L 227.667692 135.368205 
L 228.049231 135.368205 
L 228.049231 134.646154 
L 228.430769 134.646154 
L 228.430769 134.285128 
L 229.193846 134.285128 
L 229.193846 133.924103 
L 231.483077 133.924103 
L 231.483077 132.48 
L 232.246154 132.48 
L 232.246154 132.118974 
L 232.627692 132.118974 
L 232.627692 131.396923 
L 233.009231 131.396923 
L 233.009231 131.035897 
L 233.772308 131.035897 
L 233.772308 130.674872 
L 236.061538 130.674872 
L 236.061538 130.313846 
L 237.206154 130.313846 
L 237.206154 129.591795 
L 237.969231 129.591795 
L 237.969231 128.869744 
L 238.350769 128.869744 
L 238.350769 128.508718 
L 238.732308 128.508718 
L 238.732308 127.786667 
L 239.113846 127.786667 
L 239.113846 127.425641 
L 239.876923 127.425641 
L 239.876923 127.064615 
L 240.258462 127.064615 
L 240.258462 126.342564 
L 242.929231 126.342564 
L 242.929231 125.981538 
L 243.310769 125.981538 
L 243.310769 125.620513 
L 244.455385 125.620513 
L 244.455385 125.259487 
L 244.836923 125.259487 
L 244.836923 124.898462 
L 245.218462 124.898462 
L 245.218462 123.815385 
L 247.507692 123.815385 
L 247.507692 123.454359 
L 247.889231 123.454359 
L 247.889231 123.093333 
L 249.033846 123.093333 
L 249.033846 122.732308 
L 250.56 122.732308 
L 250.56 122.371282 
L 251.323077 122.371282 
L 251.323077 122.010256 
L 252.086154 122.010256 
L 252.086154 121.649231 
L 254.375385 121.649231 
L 254.375385 120.566154 
L 254.756923 120.566154 
L 254.756923 119.844103 
L 255.52 119.844103 
L 255.52 119.483077 
L 257.427692 119.483077 
L 257.427692 119.122051 
L 259.716923 119.122051 
L 259.716923 118.761026 
L 261.624615 118.761026 
L 261.624615 118.4 
L 262.387692 118.4 
L 262.387692 118.038974 
L 264.295385 118.038974 
L 264.295385 117.677949 
L 265.821538 117.677949 
L 265.821538 117.316923 
L 267.347692 117.316923 
L 267.347692 116.594872 
L 267.729231 116.594872 
L 267.729231 115.511795 
L 268.110769 115.511795 
L 268.110769 115.150769 
L 270.018462 115.150769 
L 270.018462 114.067692 
L 271.163077 114.067692 
L 271.163077 112.62359 
L 275.36 112.62359 
L 275.36 112.262564 
L 277.267692 112.262564 
L 277.267692 111.901538 
L 278.793846 111.901538 
L 278.793846 111.540513 
L 279.175385 111.540513 
L 279.175385 111.179487 
L 280.32 111.179487 
L 280.32 110.818462 
L 281.846154 110.818462 
L 281.846154 110.457436 
L 282.609231 110.457436 
L 282.609231 110.09641 
L 283.372308 110.09641 
L 283.372308 109.735385 
L 284.516923 109.735385 
L 284.516923 109.374359 
L 284.898462 109.374359 
L 284.898462 109.013333 
L 287.187692 109.013333 
L 287.187692 108.291282 
L 289.095385 108.291282 
L 289.095385 107.930256 
L 290.621538 107.930256 
L 290.621538 107.569231 
L 291.384615 107.569231 
L 291.384615 107.208205 
L 292.147692 107.208205 
L 292.147692 106.847179 
L 293.292308 106.847179 
L 293.292308 106.486154 
L 293.673846 106.486154 
L 293.673846 106.125128 
L 294.055385 106.125128 
L 294.055385 105.764103 
L 294.818462 105.764103 
L 294.818462 105.403077 
L 295.963077 105.403077 
L 295.963077 105.042051 
L 296.726154 105.042051 
L 296.726154 104.681026 
L 301.686154 104.681026 
L 301.686154 104.32 
L 308.172308 104.32 
L 308.172308 103.958974 
L 311.606154 103.958974 
L 311.606154 103.597949 
L 312.369231 103.597949 
L 312.369231 103.236923 
L 315.04 103.236923 
L 315.04 102.875897 
L 316.566154 102.875897 
L 316.566154 102.514872 
L 318.092308 102.514872 
L 318.092308 102.153846 
L 318.473846 102.153846 
L 318.473846 101.792821 
L 323.052308 101.792821 
L 323.052308 101.070769 
L 323.815385 101.070769 
L 323.815385 100.709744 
L 324.96 100.709744 
L 324.96 100.348718 
L 325.341538 100.348718 
L 325.341538 99.987692 
L 328.393846 99.987692 
L 328.393846 99.626667 
L 329.156923 99.626667 
L 329.156923 99.265641 
L 334.498462 99.265641 
L 334.498462 98.904615 
L 339.076923 98.904615 
L 339.076923 98.54359 
L 340.984615 98.54359 
L 340.984615 98.182564 
L 342.129231 98.182564 
L 342.129231 97.821538 
L 343.273846 97.821538 
L 343.273846 97.099487 
L 344.418462 97.099487 
L 344.418462 96.738462 
L 352.430769 96.738462 
L 352.430769 96.377436 
L 356.246154 96.377436 
L 356.246154 95.655385 
L 357.772308 95.655385 
L 357.772308 95.294359 
L 361.587692 95.294359 
L 361.587692 94.933333 
L 361.969231 94.933333 
L 361.969231 94.572308 
L 362.732308 94.572308 
L 362.732308 94.211282 
L 366.547692 94.211282 
L 366.547692 93.850256 
L 368.455385 93.850256 
L 368.455385 93.489231 
L 369.218462 93.489231 
L 369.218462 92.767179 
L 374.56 92.767179 
L 374.56 92.406154 
L 377.993846 92.406154 
L 377.993846 92.045128 
L 381.046154 92.045128 
L 381.046154 91.684103 
L 392.492308 91.684103 
L 392.492308 91.323077 
L 395.163077 91.323077 
L 395.163077 90.962051 
L 399.36 90.962051 
L 399.36 90.601026 
L 401.649231 90.601026 
L 401.649231 90.24 
L 518.4 90.24 
L 518.4 90.24 
" style="fill:none;stroke:#ff8c00;stroke-linecap:square;stroke-width:2;"/>
   </g>
   <g id="line2d_26">
    <path clip-path="url(#p969a6ae238)" d="M 72 512.64 
L 518.4 90.24 
" style="fill:none;stroke:#000080;stroke-dasharray:7.4,3.2;stroke-dashoffset:0;stroke-width:2;"/>
   </g>
   <g id="patch_3">
    <path d="M 72 512.64 
L 72 69.12 
" style="fill:none;stroke:#000000;stroke-linecap:square;stroke-linejoin:miter;stroke-width:0.8;"/>
   </g>
   <g id="patch_4">
    <path d="M 518.4 512.64 
L 518.4 69.12 
" style="fill:none;stroke:#000000;stroke-linecap:square;stroke-linejoin:miter;stroke-width:0.8;"/>
   </g>
   <g id="patch_5">
    <path d="M 72 512.64 
L 518.4 512.64 
" style="fill:none;stroke:#000000;stroke-linecap:square;stroke-linejoin:miter;stroke-width:0.8;"/>
   </g>
   <g id="patch_6">
    <path d="M 72 69.12 
L 518.4 69.12 
" style="fill:none;stroke:#000000;stroke-linecap:square;stroke-linejoin:miter;stroke-width:0.8;"/>
   </g>
   <g id="legend_1">
    <g id="patch_7">
     <path d="M 427.081875 509.64 
L 514.2 509.64 
Q 515.4 509.64 515.4 508.44 
L 515.4 500.233125 
Q 515.4 499.033125 514.2 499.033125 
L 427.081875 499.033125 
Q 425.881875 499.033125 425.881875 500.233125 
L 425.881875 508.44 
Q 425.881875 509.64 427.081875 509.64 
z
" style="fill:#ffffff;opacity:0.8;stroke:#cccccc;stroke-linejoin:miter;"/>
    </g>
    <g id="line2d_27">
     <path d="M 428.281875 503.892187 
L 440.281875 503.892187 
" style="fill:none;stroke:#ff8c00;stroke-linecap:square;stroke-width:2;"/>
    </g>
    <g id="line2d_28"/>
    <g id="text_15">
     <!-- D006262 (area =0.89) -->
     <defs>
      <path d="M 19.671875 64.796875 
L 19.671875 8.109375 
L 31.59375 8.109375 
Q 46.6875 8.109375 53.6875 14.9375 
Q 60.6875 21.78125 60.6875 36.53125 
Q 60.6875 51.171875 53.6875 57.984375 
Q 46.6875 64.796875 31.59375 64.796875 
z
M 9.8125 72.90625 
L 30.078125 72.90625 
Q 51.265625 72.90625 61.171875 64.09375 
Q 71.09375 55.28125 71.09375 36.53125 
Q 71.09375 17.671875 61.125 8.828125 
Q 51.171875 0 30.078125 0 
L 9.8125 0 
z
" id="DejaVuSans-68"/>
      <path d="M 31 75.875 
Q 24.46875 64.65625 21.28125 53.65625 
Q 18.109375 42.671875 18.109375 31.390625 
Q 18.109375 20.125 21.3125 9.0625 
Q 24.515625 -2 31 -13.1875 
L 23.1875 -13.1875 
Q 15.875 -1.703125 12.234375 9.375 
Q 8.59375 20.453125 8.59375 31.390625 
Q 8.59375 42.28125 12.203125 53.3125 
Q 15.828125 64.359375 23.1875 75.875 
z
" id="DejaVuSans-40"/>
      <path d="M 10.59375 45.40625 
L 73.1875 45.40625 
L 73.1875 37.203125 
L 10.59375 37.203125 
z
M 10.59375 25.484375 
L 73.1875 25.484375 
L 73.1875 17.1875 
L 10.59375 17.1875 
z
" id="DejaVuSans-61"/>
      <path d="M 10.984375 1.515625 
L 10.984375 10.5 
Q 14.703125 8.734375 18.5 7.8125 
Q 22.3125 6.890625 25.984375 6.890625 
Q 35.75 6.890625 40.890625 13.453125 
Q 46.046875 20.015625 46.78125 33.40625 
Q 43.953125 29.203125 39.59375 26.953125 
Q 35.25 24.703125 29.984375 24.703125 
Q 19.046875 24.703125 12.671875 31.3125 
Q 6.296875 37.9375 6.296875 49.421875 
Q 6.296875 60.640625 12.9375 67.421875 
Q 19.578125 74.21875 30.609375 74.21875 
Q 43.265625 74.21875 49.921875 64.515625 
Q 56.59375 54.828125 56.59375 36.375 
Q 56.59375 19.140625 48.40625 8.859375 
Q 40.234375 -1.421875 26.421875 -1.421875 
Q 22.703125 -1.421875 18.890625 -0.6875 
Q 15.09375 0.046875 10.984375 1.515625 
z
M 30.609375 32.421875 
Q 37.25 32.421875 41.125 36.953125 
Q 45.015625 41.5 45.015625 49.421875 
Q 45.015625 57.28125 41.125 61.84375 
Q 37.25 66.40625 30.609375 66.40625 
Q 23.96875 66.40625 20.09375 61.84375 
Q 16.21875 57.28125 16.21875 49.421875 
Q 16.21875 41.5 20.09375 36.953125 
Q 23.96875 32.421875 30.609375 32.421875 
z
" id="DejaVuSans-57"/>
      <path d="M 8.015625 75.875 
L 15.828125 75.875 
Q 23.140625 64.359375 26.78125 53.3125 
Q 30.421875 42.28125 30.421875 31.390625 
Q 30.421875 20.453125 26.78125 9.375 
Q 23.140625 -1.703125 15.828125 -13.1875 
L 8.015625 -13.1875 
Q 14.5 -2 17.703125 9.0625 
Q 20.90625 20.125 20.90625 31.390625 
Q 20.90625 42.671875 17.703125 53.65625 
Q 14.5 64.65625 8.015625 75.875 
z
" id="DejaVuSans-41"/>
     </defs>
     <g transform="translate(445.081875 505.992188)scale(0.06 -0.06)">
      <use xlink:href="#DejaVuSans-68"/>
      <use x="77.001953" xlink:href="#DejaVuSans-48"/>
      <use x="140.625" xlink:href="#DejaVuSans-48"/>
      <use x="204.248047" xlink:href="#DejaVuSans-54"/>
      <use x="267.871094" xlink:href="#DejaVuSans-50"/>
      <use x="331.494141" xlink:href="#DejaVuSans-54"/>
      <use x="395.117188" xlink:href="#DejaVuSans-50"/>
      <use x="458.740234" xlink:href="#DejaVuSans-32"/>
      <use x="490.527344" xlink:href="#DejaVuSans-40"/>
      <use x="529.541016" xlink:href="#DejaVuSans-97"/>
      <use x="590.820312" xlink:href="#DejaVuSans-114"/>
      <use x="631.902344" xlink:href="#DejaVuSans-101"/>
      <use x="693.425781" xlink:href="#DejaVuSans-97"/>
      <use x="754.705078" xlink:href="#DejaVuSans-32"/>
      <use x="786.492188" xlink:href="#DejaVuSans-61"/>
      <use x="870.28125" xlink:href="#DejaVuSans-48"/>
      <use x="933.904297" xlink:href="#DejaVuSans-46"/>
      <use x="965.691406" xlink:href="#DejaVuSans-56"/>
      <use x="1029.314453" xlink:href="#DejaVuSans-57"/>
      <use x="1092.9375" xlink:href="#DejaVuSans-41"/>
     </g>
    </g>
   </g>
  </g>
 </g>
 <defs>
  <clipPath id="p969a6ae238">
   <rect height="443.52" width="446.4" x="72" y="69.12"/>
  </clipPath>
 </defs>
</svg>
