<?xml version="1.0" encoding="utf-8" standalone="no"?>
<!DOCTYPE svg PUBLIC "-//W3C//DTD SVG 1.1//EN"
  "http://www.w3.org/Graphics/SVG/1.1/DTD/svg11.dtd">
<!-- Created with matplotlib (https://matplotlib.org/) -->
<svg height="576pt" version="1.1" viewBox="0 0 576 576" width="576pt" xmlns="http://www.w3.org/2000/svg" xmlns:xlink="http://www.w3.org/1999/xlink">
 <defs>
  <style type="text/css">
*{stroke-linecap:butt;stroke-linejoin:round;}
  </style>
 </defs>
 <g id="figure_1">
  <g id="patch_1">
   <path d="M 0 576 
L 576 576 
L 576 0 
L 0 0 
z
" style="fill:#ffffff;"/>
  </g>
  <g id="axes_1">
   <g id="patch_2">
    <path d="M 72 512.64 
L 518.4 512.64 
L 518.4 69.12 
L 72 69.12 
z
" style="fill:#ffffff;"/>
   </g>
   <g id="matplotlib.axis_1">
    <g id="xtick_1">
     <g id="line2d_1">
      <path clip-path="url(#p35e5fe6108)" d="M 72 512.64 
L 72 69.12 
" style="fill:none;stroke:#b0b0b0;stroke-linecap:square;stroke-width:0.8;"/>
     </g>
     <g id="line2d_2">
      <defs>
       <path d="M 0 0 
L 0 3.5 
" id="m42f25bcfcc" style="stroke:#000000;stroke-width:0.8;"/>
      </defs>
      <g>
       <use style="stroke:#000000;stroke-width:0.8;" x="72" xlink:href="#m42f25bcfcc" y="512.64"/>
      </g>
     </g>
     <g id="text_1">
      <!-- 0.0 -->
      <defs>
       <path d="M 31.78125 66.40625 
Q 24.171875 66.40625 20.328125 58.90625 
Q 16.5 51.421875 16.5 36.375 
Q 16.5 21.390625 20.328125 13.890625 
Q 24.171875 6.390625 31.78125 6.390625 
Q 39.453125 6.390625 43.28125 13.890625 
Q 47.125 21.390625 47.125 36.375 
Q 47.125 51.421875 43.28125 58.90625 
Q 39.453125 66.40625 31.78125 66.40625 
z
M 31.78125 74.21875 
Q 44.046875 74.21875 50.515625 64.515625 
Q 56.984375 54.828125 56.984375 36.375 
Q 56.984375 17.96875 50.515625 8.265625 
Q 44.046875 -1.421875 31.78125 -1.421875 
Q 19.53125 -1.421875 13.0625 8.265625 
Q 6.59375 17.96875 6.59375 36.375 
Q 6.59375 54.828125 13.0625 64.515625 
Q 19.53125 74.21875 31.78125 74.21875 
z
" id="DejaVuSans-48"/>
       <path d="M 10.6875 12.40625 
L 21 12.40625 
L 21 0 
L 10.6875 0 
z
" id="DejaVuSans-46"/>
      </defs>
      <g transform="translate(64.048438 527.238438)scale(0.1 -0.1)">
       <use xlink:href="#DejaVuSans-48"/>
       <use x="63.623047" xlink:href="#DejaVuSans-46"/>
       <use x="95.410156" xlink:href="#DejaVuSans-48"/>
      </g>
     </g>
    </g>
    <g id="xtick_2">
     <g id="line2d_3">
      <path clip-path="url(#p35e5fe6108)" d="M 161.28 512.64 
L 161.28 69.12 
" style="fill:none;stroke:#b0b0b0;stroke-linecap:square;stroke-width:0.8;"/>
     </g>
     <g id="line2d_4">
      <g>
       <use style="stroke:#000000;stroke-width:0.8;" x="161.28" xlink:href="#m42f25bcfcc" y="512.64"/>
      </g>
     </g>
     <g id="text_2">
      <!-- 0.2 -->
      <defs>
       <path d="M 19.1875 8.296875 
L 53.609375 8.296875 
L 53.609375 0 
L 7.328125 0 
L 7.328125 8.296875 
Q 12.9375 14.109375 22.625 23.890625 
Q 32.328125 33.6875 34.8125 36.53125 
Q 39.546875 41.84375 41.421875 45.53125 
Q 43.3125 49.21875 43.3125 52.78125 
Q 43.3125 58.59375 39.234375 62.25 
Q 35.15625 65.921875 28.609375 65.921875 
Q 23.96875 65.921875 18.8125 64.3125 
Q 13.671875 62.703125 7.8125 59.421875 
L 7.8125 69.390625 
Q 13.765625 71.78125 18.9375 73 
Q 24.125 74.21875 28.421875 74.21875 
Q 39.75 74.21875 46.484375 68.546875 
Q 53.21875 62.890625 53.21875 53.421875 
Q 53.21875 48.921875 51.53125 44.890625 
Q 49.859375 40.875 45.40625 35.40625 
Q 44.1875 33.984375 37.640625 27.21875 
Q 31.109375 20.453125 19.1875 8.296875 
z
" id="DejaVuSans-50"/>
      </defs>
      <g transform="translate(153.328438 527.238438)scale(0.1 -0.1)">
       <use xlink:href="#DejaVuSans-48"/>
       <use x="63.623047" xlink:href="#DejaVuSans-46"/>
       <use x="95.410156" xlink:href="#DejaVuSans-50"/>
      </g>
     </g>
    </g>
    <g id="xtick_3">
     <g id="line2d_5">
      <path clip-path="url(#p35e5fe6108)" d="M 250.56 512.64 
L 250.56 69.12 
" style="fill:none;stroke:#b0b0b0;stroke-linecap:square;stroke-width:0.8;"/>
     </g>
     <g id="line2d_6">
      <g>
       <use style="stroke:#000000;stroke-width:0.8;" x="250.56" xlink:href="#m42f25bcfcc" y="512.64"/>
      </g>
     </g>
     <g id="text_3">
      <!-- 0.4 -->
      <defs>
       <path d="M 37.796875 64.3125 
L 12.890625 25.390625 
L 37.796875 25.390625 
z
M 35.203125 72.90625 
L 47.609375 72.90625 
L 47.609375 25.390625 
L 58.015625 25.390625 
L 58.015625 17.1875 
L 47.609375 17.1875 
L 47.609375 0 
L 37.796875 0 
L 37.796875 17.1875 
L 4.890625 17.1875 
L 4.890625 26.703125 
z
" id="DejaVuSans-52"/>
      </defs>
      <g transform="translate(242.608438 527.238438)scale(0.1 -0.1)">
       <use xlink:href="#DejaVuSans-48"/>
       <use x="63.623047" xlink:href="#DejaVuSans-46"/>
       <use x="95.410156" xlink:href="#DejaVuSans-52"/>
      </g>
     </g>
    </g>
    <g id="xtick_4">
     <g id="line2d_7">
      <path clip-path="url(#p35e5fe6108)" d="M 339.84 512.64 
L 339.84 69.12 
" style="fill:none;stroke:#b0b0b0;stroke-linecap:square;stroke-width:0.8;"/>
     </g>
     <g id="line2d_8">
      <g>
       <use style="stroke:#000000;stroke-width:0.8;" x="339.84" xlink:href="#m42f25bcfcc" y="512.64"/>
      </g>
     </g>
     <g id="text_4">
      <!-- 0.6 -->
      <defs>
       <path d="M 33.015625 40.375 
Q 26.375 40.375 22.484375 35.828125 
Q 18.609375 31.296875 18.609375 23.390625 
Q 18.609375 15.53125 22.484375 10.953125 
Q 26.375 6.390625 33.015625 6.390625 
Q 39.65625 6.390625 43.53125 10.953125 
Q 47.40625 15.53125 47.40625 23.390625 
Q 47.40625 31.296875 43.53125 35.828125 
Q 39.65625 40.375 33.015625 40.375 
z
M 52.59375 71.296875 
L 52.59375 62.3125 
Q 48.875 64.0625 45.09375 64.984375 
Q 41.3125 65.921875 37.59375 65.921875 
Q 27.828125 65.921875 22.671875 59.328125 
Q 17.53125 52.734375 16.796875 39.40625 
Q 19.671875 43.65625 24.015625 45.921875 
Q 28.375 48.1875 33.59375 48.1875 
Q 44.578125 48.1875 50.953125 41.515625 
Q 57.328125 34.859375 57.328125 23.390625 
Q 57.328125 12.15625 50.6875 5.359375 
Q 44.046875 -1.421875 33.015625 -1.421875 
Q 20.359375 -1.421875 13.671875 8.265625 
Q 6.984375 17.96875 6.984375 36.375 
Q 6.984375 53.65625 15.1875 63.9375 
Q 23.390625 74.21875 37.203125 74.21875 
Q 40.921875 74.21875 44.703125 73.484375 
Q 48.484375 72.75 52.59375 71.296875 
z
" id="DejaVuSans-54"/>
      </defs>
      <g transform="translate(331.888438 527.238438)scale(0.1 -0.1)">
       <use xlink:href="#DejaVuSans-48"/>
       <use x="63.623047" xlink:href="#DejaVuSans-46"/>
       <use x="95.410156" xlink:href="#DejaVuSans-54"/>
      </g>
     </g>
    </g>
    <g id="xtick_5">
     <g id="line2d_9">
      <path clip-path="url(#p35e5fe6108)" d="M 429.12 512.64 
L 429.12 69.12 
" style="fill:none;stroke:#b0b0b0;stroke-linecap:square;stroke-width:0.8;"/>
     </g>
     <g id="line2d_10">
      <g>
       <use style="stroke:#000000;stroke-width:0.8;" x="429.12" xlink:href="#m42f25bcfcc" y="512.64"/>
      </g>
     </g>
     <g id="text_5">
      <!-- 0.8 -->
      <defs>
       <path d="M 31.78125 34.625 
Q 24.75 34.625 20.71875 30.859375 
Q 16.703125 27.09375 16.703125 20.515625 
Q 16.703125 13.921875 20.71875 10.15625 
Q 24.75 6.390625 31.78125 6.390625 
Q 38.8125 6.390625 42.859375 10.171875 
Q 46.921875 13.96875 46.921875 20.515625 
Q 46.921875 27.09375 42.890625 30.859375 
Q 38.875 34.625 31.78125 34.625 
z
M 21.921875 38.8125 
Q 15.578125 40.375 12.03125 44.71875 
Q 8.5 49.078125 8.5 55.328125 
Q 8.5 64.0625 14.71875 69.140625 
Q 20.953125 74.21875 31.78125 74.21875 
Q 42.671875 74.21875 48.875 69.140625 
Q 55.078125 64.0625 55.078125 55.328125 
Q 55.078125 49.078125 51.53125 44.71875 
Q 48 40.375 41.703125 38.8125 
Q 48.828125 37.15625 52.796875 32.3125 
Q 56.78125 27.484375 56.78125 20.515625 
Q 56.78125 9.90625 50.3125 4.234375 
Q 43.84375 -1.421875 31.78125 -1.421875 
Q 19.734375 -1.421875 13.25 4.234375 
Q 6.78125 9.90625 6.78125 20.515625 
Q 6.78125 27.484375 10.78125 32.3125 
Q 14.796875 37.15625 21.921875 38.8125 
z
M 18.3125 54.390625 
Q 18.3125 48.734375 21.84375 45.5625 
Q 25.390625 42.390625 31.78125 42.390625 
Q 38.140625 42.390625 41.71875 45.5625 
Q 45.3125 48.734375 45.3125 54.390625 
Q 45.3125 60.0625 41.71875 63.234375 
Q 38.140625 66.40625 31.78125 66.40625 
Q 25.390625 66.40625 21.84375 63.234375 
Q 18.3125 60.0625 18.3125 54.390625 
z
" id="DejaVuSans-56"/>
      </defs>
      <g transform="translate(421.168437 527.238438)scale(0.1 -0.1)">
       <use xlink:href="#DejaVuSans-48"/>
       <use x="63.623047" xlink:href="#DejaVuSans-46"/>
       <use x="95.410156" xlink:href="#DejaVuSans-56"/>
      </g>
     </g>
    </g>
    <g id="xtick_6">
     <g id="line2d_11">
      <path clip-path="url(#p35e5fe6108)" d="M 518.4 512.64 
L 518.4 69.12 
" style="fill:none;stroke:#b0b0b0;stroke-linecap:square;stroke-width:0.8;"/>
     </g>
     <g id="line2d_12">
      <g>
       <use style="stroke:#000000;stroke-width:0.8;" x="518.4" xlink:href="#m42f25bcfcc" y="512.64"/>
      </g>
     </g>
     <g id="text_6">
      <!-- 1.0 -->
      <defs>
       <path d="M 12.40625 8.296875 
L 28.515625 8.296875 
L 28.515625 63.921875 
L 10.984375 60.40625 
L 10.984375 69.390625 
L 28.421875 72.90625 
L 38.28125 72.90625 
L 38.28125 8.296875 
L 54.390625 8.296875 
L 54.390625 0 
L 12.40625 0 
z
" id="DejaVuSans-49"/>
      </defs>
      <g transform="translate(510.448437 527.238438)scale(0.1 -0.1)">
       <use xlink:href="#DejaVuSans-49"/>
       <use x="63.623047" xlink:href="#DejaVuSans-46"/>
       <use x="95.410156" xlink:href="#DejaVuSans-48"/>
      </g>
     </g>
    </g>
    <g id="text_7">
     <!-- False Positive Rate -->
     <defs>
      <path d="M 9.8125 72.90625 
L 51.703125 72.90625 
L 51.703125 64.59375 
L 19.671875 64.59375 
L 19.671875 43.109375 
L 48.578125 43.109375 
L 48.578125 34.8125 
L 19.671875 34.8125 
L 19.671875 0 
L 9.8125 0 
z
" id="DejaVuSans-70"/>
      <path d="M 34.28125 27.484375 
Q 23.390625 27.484375 19.1875 25 
Q 14.984375 22.515625 14.984375 16.5 
Q 14.984375 11.71875 18.140625 8.90625 
Q 21.296875 6.109375 26.703125 6.109375 
Q 34.1875 6.109375 38.703125 11.40625 
Q 43.21875 16.703125 43.21875 25.484375 
L 43.21875 27.484375 
z
M 52.203125 31.203125 
L 52.203125 0 
L 43.21875 0 
L 43.21875 8.296875 
Q 40.140625 3.328125 35.546875 0.953125 
Q 30.953125 -1.421875 24.3125 -1.421875 
Q 15.921875 -1.421875 10.953125 3.296875 
Q 6 8.015625 6 15.921875 
Q 6 25.140625 12.171875 29.828125 
Q 18.359375 34.515625 30.609375 34.515625 
L 43.21875 34.515625 
L 43.21875 35.40625 
Q 43.21875 41.609375 39.140625 45 
Q 35.0625 48.390625 27.6875 48.390625 
Q 23 48.390625 18.546875 47.265625 
Q 14.109375 46.140625 10.015625 43.890625 
L 10.015625 52.203125 
Q 14.9375 54.109375 19.578125 55.046875 
Q 24.21875 56 28.609375 56 
Q 40.484375 56 46.34375 49.84375 
Q 52.203125 43.703125 52.203125 31.203125 
z
" id="DejaVuSans-97"/>
      <path d="M 9.421875 75.984375 
L 18.40625 75.984375 
L 18.40625 0 
L 9.421875 0 
z
" id="DejaVuSans-108"/>
      <path d="M 44.28125 53.078125 
L 44.28125 44.578125 
Q 40.484375 46.53125 36.375 47.5 
Q 32.28125 48.484375 27.875 48.484375 
Q 21.1875 48.484375 17.84375 46.4375 
Q 14.5 44.390625 14.5 40.28125 
Q 14.5 37.15625 16.890625 35.375 
Q 19.28125 33.59375 26.515625 31.984375 
L 29.59375 31.296875 
Q 39.15625 29.25 43.1875 25.515625 
Q 47.21875 21.78125 47.21875 15.09375 
Q 47.21875 7.46875 41.1875 3.015625 
Q 35.15625 -1.421875 24.609375 -1.421875 
Q 20.21875 -1.421875 15.453125 -0.5625 
Q 10.6875 0.296875 5.421875 2 
L 5.421875 11.28125 
Q 10.40625 8.6875 15.234375 7.390625 
Q 20.0625 6.109375 24.8125 6.109375 
Q 31.15625 6.109375 34.5625 8.28125 
Q 37.984375 10.453125 37.984375 14.40625 
Q 37.984375 18.0625 35.515625 20.015625 
Q 33.0625 21.96875 24.703125 23.78125 
L 21.578125 24.515625 
Q 13.234375 26.265625 9.515625 29.90625 
Q 5.8125 33.546875 5.8125 39.890625 
Q 5.8125 47.609375 11.28125 51.796875 
Q 16.75 56 26.8125 56 
Q 31.78125 56 36.171875 55.265625 
Q 40.578125 54.546875 44.28125 53.078125 
z
" id="DejaVuSans-115"/>
      <path d="M 56.203125 29.59375 
L 56.203125 25.203125 
L 14.890625 25.203125 
Q 15.484375 15.921875 20.484375 11.0625 
Q 25.484375 6.203125 34.421875 6.203125 
Q 39.59375 6.203125 44.453125 7.46875 
Q 49.3125 8.734375 54.109375 11.28125 
L 54.109375 2.78125 
Q 49.265625 0.734375 44.1875 -0.34375 
Q 39.109375 -1.421875 33.890625 -1.421875 
Q 20.796875 -1.421875 13.15625 6.1875 
Q 5.515625 13.8125 5.515625 26.8125 
Q 5.515625 40.234375 12.765625 48.109375 
Q 20.015625 56 32.328125 56 
Q 43.359375 56 49.78125 48.890625 
Q 56.203125 41.796875 56.203125 29.59375 
z
M 47.21875 32.234375 
Q 47.125 39.59375 43.09375 43.984375 
Q 39.0625 48.390625 32.421875 48.390625 
Q 24.90625 48.390625 20.390625 44.140625 
Q 15.875 39.890625 15.1875 32.171875 
z
" id="DejaVuSans-101"/>
      <path id="DejaVuSans-32"/>
      <path d="M 19.671875 64.796875 
L 19.671875 37.40625 
L 32.078125 37.40625 
Q 38.96875 37.40625 42.71875 40.96875 
Q 46.484375 44.53125 46.484375 51.125 
Q 46.484375 57.671875 42.71875 61.234375 
Q 38.96875 64.796875 32.078125 64.796875 
z
M 9.8125 72.90625 
L 32.078125 72.90625 
Q 44.34375 72.90625 50.609375 67.359375 
Q 56.890625 61.8125 56.890625 51.125 
Q 56.890625 40.328125 50.609375 34.8125 
Q 44.34375 29.296875 32.078125 29.296875 
L 19.671875 29.296875 
L 19.671875 0 
L 9.8125 0 
z
" id="DejaVuSans-80"/>
      <path d="M 30.609375 48.390625 
Q 23.390625 48.390625 19.1875 42.75 
Q 14.984375 37.109375 14.984375 27.296875 
Q 14.984375 17.484375 19.15625 11.84375 
Q 23.34375 6.203125 30.609375 6.203125 
Q 37.796875 6.203125 41.984375 11.859375 
Q 46.1875 17.53125 46.1875 27.296875 
Q 46.1875 37.015625 41.984375 42.703125 
Q 37.796875 48.390625 30.609375 48.390625 
z
M 30.609375 56 
Q 42.328125 56 49.015625 48.375 
Q 55.71875 40.765625 55.71875 27.296875 
Q 55.71875 13.875 49.015625 6.21875 
Q 42.328125 -1.421875 30.609375 -1.421875 
Q 18.84375 -1.421875 12.171875 6.21875 
Q 5.515625 13.875 5.515625 27.296875 
Q 5.515625 40.765625 12.171875 48.375 
Q 18.84375 56 30.609375 56 
z
" id="DejaVuSans-111"/>
      <path d="M 9.421875 54.6875 
L 18.40625 54.6875 
L 18.40625 0 
L 9.421875 0 
z
M 9.421875 75.984375 
L 18.40625 75.984375 
L 18.40625 64.59375 
L 9.421875 64.59375 
z
" id="DejaVuSans-105"/>
      <path d="M 18.3125 70.21875 
L 18.3125 54.6875 
L 36.8125 54.6875 
L 36.8125 47.703125 
L 18.3125 47.703125 
L 18.3125 18.015625 
Q 18.3125 11.328125 20.140625 9.421875 
Q 21.96875 7.515625 27.59375 7.515625 
L 36.8125 7.515625 
L 36.8125 0 
L 27.59375 0 
Q 17.1875 0 13.234375 3.875 
Q 9.28125 7.765625 9.28125 18.015625 
L 9.28125 47.703125 
L 2.6875 47.703125 
L 2.6875 54.6875 
L 9.28125 54.6875 
L 9.28125 70.21875 
z
" id="DejaVuSans-116"/>
      <path d="M 2.984375 54.6875 
L 12.5 54.6875 
L 29.59375 8.796875 
L 46.6875 54.6875 
L 56.203125 54.6875 
L 35.6875 0 
L 23.484375 0 
z
" id="DejaVuSans-118"/>
      <path d="M 44.390625 34.1875 
Q 47.5625 33.109375 50.5625 29.59375 
Q 53.5625 26.078125 56.59375 19.921875 
L 66.609375 0 
L 56 0 
L 46.6875 18.703125 
Q 43.0625 26.03125 39.671875 28.421875 
Q 36.28125 30.8125 30.421875 30.8125 
L 19.671875 30.8125 
L 19.671875 0 
L 9.8125 0 
L 9.8125 72.90625 
L 32.078125 72.90625 
Q 44.578125 72.90625 50.734375 67.671875 
Q 56.890625 62.453125 56.890625 51.90625 
Q 56.890625 45.015625 53.6875 40.46875 
Q 50.484375 35.9375 44.390625 34.1875 
z
M 19.671875 64.796875 
L 19.671875 38.921875 
L 32.078125 38.921875 
Q 39.203125 38.921875 42.84375 42.21875 
Q 46.484375 45.515625 46.484375 51.90625 
Q 46.484375 58.296875 42.84375 61.546875 
Q 39.203125 64.796875 32.078125 64.796875 
z
" id="DejaVuSans-82"/>
     </defs>
     <g transform="translate(247.994531 540.916563)scale(0.1 -0.1)">
      <use xlink:href="#DejaVuSans-70"/>
      <use x="57.378906" xlink:href="#DejaVuSans-97"/>
      <use x="118.658203" xlink:href="#DejaVuSans-108"/>
      <use x="146.441406" xlink:href="#DejaVuSans-115"/>
      <use x="198.541016" xlink:href="#DejaVuSans-101"/>
      <use x="260.064453" xlink:href="#DejaVuSans-32"/>
      <use x="291.851562" xlink:href="#DejaVuSans-80"/>
      <use x="352.107422" xlink:href="#DejaVuSans-111"/>
      <use x="413.289062" xlink:href="#DejaVuSans-115"/>
      <use x="465.388672" xlink:href="#DejaVuSans-105"/>
      <use x="493.171875" xlink:href="#DejaVuSans-116"/>
      <use x="532.380859" xlink:href="#DejaVuSans-105"/>
      <use x="560.164062" xlink:href="#DejaVuSans-118"/>
      <use x="619.34375" xlink:href="#DejaVuSans-101"/>
      <use x="680.867188" xlink:href="#DejaVuSans-32"/>
      <use x="712.654297" xlink:href="#DejaVuSans-82"/>
      <use x="782.105469" xlink:href="#DejaVuSans-97"/>
      <use x="843.384766" xlink:href="#DejaVuSans-116"/>
      <use x="882.59375" xlink:href="#DejaVuSans-101"/>
     </g>
    </g>
   </g>
   <g id="matplotlib.axis_2">
    <g id="ytick_1">
     <g id="line2d_13">
      <path clip-path="url(#p35e5fe6108)" d="M 72 512.64 
L 518.4 512.64 
" style="fill:none;stroke:#b0b0b0;stroke-linecap:square;stroke-width:0.8;"/>
     </g>
     <g id="line2d_14">
      <defs>
       <path d="M 0 0 
L -3.5 0 
" id="m6777284a8d" style="stroke:#000000;stroke-width:0.8;"/>
      </defs>
      <g>
       <use style="stroke:#000000;stroke-width:0.8;" x="72" xlink:href="#m6777284a8d" y="512.64"/>
      </g>
     </g>
     <g id="text_8">
      <!-- 0.0 -->
      <g transform="translate(49.096875 516.439219)scale(0.1 -0.1)">
       <use xlink:href="#DejaVuSans-48"/>
       <use x="63.623047" xlink:href="#DejaVuSans-46"/>
       <use x="95.410156" xlink:href="#DejaVuSans-48"/>
      </g>
     </g>
    </g>
    <g id="ytick_2">
     <g id="line2d_15">
      <path clip-path="url(#p35e5fe6108)" d="M 72 428.16 
L 518.4 428.16 
" style="fill:none;stroke:#b0b0b0;stroke-linecap:square;stroke-width:0.8;"/>
     </g>
     <g id="line2d_16">
      <g>
       <use style="stroke:#000000;stroke-width:0.8;" x="72" xlink:href="#m6777284a8d" y="428.16"/>
      </g>
     </g>
     <g id="text_9">
      <!-- 0.2 -->
      <g transform="translate(49.096875 431.959219)scale(0.1 -0.1)">
       <use xlink:href="#DejaVuSans-48"/>
       <use x="63.623047" xlink:href="#DejaVuSans-46"/>
       <use x="95.410156" xlink:href="#DejaVuSans-50"/>
      </g>
     </g>
    </g>
    <g id="ytick_3">
     <g id="line2d_17">
      <path clip-path="url(#p35e5fe6108)" d="M 72 343.68 
L 518.4 343.68 
" style="fill:none;stroke:#b0b0b0;stroke-linecap:square;stroke-width:0.8;"/>
     </g>
     <g id="line2d_18">
      <g>
       <use style="stroke:#000000;stroke-width:0.8;" x="72" xlink:href="#m6777284a8d" y="343.68"/>
      </g>
     </g>
     <g id="text_10">
      <!-- 0.4 -->
      <g transform="translate(49.096875 347.479219)scale(0.1 -0.1)">
       <use xlink:href="#DejaVuSans-48"/>
       <use x="63.623047" xlink:href="#DejaVuSans-46"/>
       <use x="95.410156" xlink:href="#DejaVuSans-52"/>
      </g>
     </g>
    </g>
    <g id="ytick_4">
     <g id="line2d_19">
      <path clip-path="url(#p35e5fe6108)" d="M 72 259.2 
L 518.4 259.2 
" style="fill:none;stroke:#b0b0b0;stroke-linecap:square;stroke-width:0.8;"/>
     </g>
     <g id="line2d_20">
      <g>
       <use style="stroke:#000000;stroke-width:0.8;" x="72" xlink:href="#m6777284a8d" y="259.2"/>
      </g>
     </g>
     <g id="text_11">
      <!-- 0.6 -->
      <g transform="translate(49.096875 262.999219)scale(0.1 -0.1)">
       <use xlink:href="#DejaVuSans-48"/>
       <use x="63.623047" xlink:href="#DejaVuSans-46"/>
       <use x="95.410156" xlink:href="#DejaVuSans-54"/>
      </g>
     </g>
    </g>
    <g id="ytick_5">
     <g id="line2d_21">
      <path clip-path="url(#p35e5fe6108)" d="M 72 174.72 
L 518.4 174.72 
" style="fill:none;stroke:#b0b0b0;stroke-linecap:square;stroke-width:0.8;"/>
     </g>
     <g id="line2d_22">
      <g>
       <use style="stroke:#000000;stroke-width:0.8;" x="72" xlink:href="#m6777284a8d" y="174.72"/>
      </g>
     </g>
     <g id="text_12">
      <!-- 0.8 -->
      <g transform="translate(49.096875 178.519219)scale(0.1 -0.1)">
       <use xlink:href="#DejaVuSans-48"/>
       <use x="63.623047" xlink:href="#DejaVuSans-46"/>
       <use x="95.410156" xlink:href="#DejaVuSans-56"/>
      </g>
     </g>
    </g>
    <g id="ytick_6">
     <g id="line2d_23">
      <path clip-path="url(#p35e5fe6108)" d="M 72 90.24 
L 518.4 90.24 
" style="fill:none;stroke:#b0b0b0;stroke-linecap:square;stroke-width:0.8;"/>
     </g>
     <g id="line2d_24">
      <g>
       <use style="stroke:#000000;stroke-width:0.8;" x="72" xlink:href="#m6777284a8d" y="90.24"/>
      </g>
     </g>
     <g id="text_13">
      <!-- 1.0 -->
      <g transform="translate(49.096875 94.039219)scale(0.1 -0.1)">
       <use xlink:href="#DejaVuSans-49"/>
       <use x="63.623047" xlink:href="#DejaVuSans-46"/>
       <use x="95.410156" xlink:href="#DejaVuSans-48"/>
      </g>
     </g>
    </g>
    <g id="text_14">
     <!-- True Positive Rate -->
     <defs>
      <path d="M -0.296875 72.90625 
L 61.375 72.90625 
L 61.375 64.59375 
L 35.5 64.59375 
L 35.5 0 
L 25.59375 0 
L 25.59375 64.59375 
L -0.296875 64.59375 
z
" id="DejaVuSans-84"/>
      <path d="M 41.109375 46.296875 
Q 39.59375 47.171875 37.8125 47.578125 
Q 36.03125 48 33.890625 48 
Q 26.265625 48 22.1875 43.046875 
Q 18.109375 38.09375 18.109375 28.8125 
L 18.109375 0 
L 9.078125 0 
L 9.078125 54.6875 
L 18.109375 54.6875 
L 18.109375 46.1875 
Q 20.953125 51.171875 25.484375 53.578125 
Q 30.03125 56 36.53125 56 
Q 37.453125 56 38.578125 55.875 
Q 39.703125 55.765625 41.0625 55.515625 
z
" id="DejaVuSans-114"/>
      <path d="M 8.5 21.578125 
L 8.5 54.6875 
L 17.484375 54.6875 
L 17.484375 21.921875 
Q 17.484375 14.15625 20.5 10.265625 
Q 23.53125 6.390625 29.59375 6.390625 
Q 36.859375 6.390625 41.078125 11.03125 
Q 45.3125 15.671875 45.3125 23.6875 
L 45.3125 54.6875 
L 54.296875 54.6875 
L 54.296875 0 
L 45.3125 0 
L 45.3125 8.40625 
Q 42.046875 3.421875 37.71875 1 
Q 33.40625 -1.421875 27.6875 -1.421875 
Q 18.265625 -1.421875 13.375 4.4375 
Q 8.5 10.296875 8.5 21.578125 
z
M 31.109375 56 
z
" id="DejaVuSans-117"/>
     </defs>
     <g transform="translate(43.017187 336.426094)rotate(-90)scale(0.1 -0.1)">
      <use xlink:href="#DejaVuSans-84"/>
      <use x="60.865234" xlink:href="#DejaVuSans-114"/>
      <use x="101.978516" xlink:href="#DejaVuSans-117"/>
      <use x="165.357422" xlink:href="#DejaVuSans-101"/>
      <use x="226.880859" xlink:href="#DejaVuSans-32"/>
      <use x="258.667969" xlink:href="#DejaVuSans-80"/>
      <use x="318.923828" xlink:href="#DejaVuSans-111"/>
      <use x="380.105469" xlink:href="#DejaVuSans-115"/>
      <use x="432.205078" xlink:href="#DejaVuSans-105"/>
      <use x="459.988281" xlink:href="#DejaVuSans-116"/>
      <use x="499.197266" xlink:href="#DejaVuSans-105"/>
      <use x="526.980469" xlink:href="#DejaVuSans-118"/>
      <use x="586.160156" xlink:href="#DejaVuSans-101"/>
      <use x="647.683594" xlink:href="#DejaVuSans-32"/>
      <use x="679.470703" xlink:href="#DejaVuSans-82"/>
      <use x="748.921875" xlink:href="#DejaVuSans-97"/>
      <use x="810.201172" xlink:href="#DejaVuSans-116"/>
      <use x="849.410156" xlink:href="#DejaVuSans-101"/>
     </g>
    </g>
   </g>
   <g id="line2d_25">
    <path clip-path="url(#p35e5fe6108)" d="M 72 512.64 
L 72 479.064615 
L 72.381538 479.064615 
L 72.381538 460.291282 
L 72.763077 460.291282 
L 72.763077 453.792821 
L 73.144615 453.792821 
L 73.144615 452.709744 
L 73.526154 452.709744 
L 73.526154 452.348718 
L 74.289231 452.348718 
L 74.289231 446.211282 
L 74.670769 446.211282 
L 74.670769 444.767179 
L 75.433846 444.767179 
L 75.433846 430.326154 
L 75.815385 430.326154 
L 75.815385 427.798974 
L 76.196923 427.798974 
L 76.196923 425.993846 
L 76.578462 425.993846 
L 76.578462 423.105641 
L 76.96 423.105641 
L 76.96 419.134359 
L 77.341538 419.134359 
L 77.341538 416.968205 
L 77.723077 416.968205 
L 77.723077 415.885128 
L 78.104615 415.885128 
L 78.104615 407.942564 
L 78.486154 407.942564 
L 78.486154 400.722051 
L 78.867692 400.722051 
L 78.867692 398.916923 
L 79.630769 398.916923 
L 79.630769 396.389744 
L 80.012308 396.389744 
L 80.012308 387.364103 
L 80.393846 387.364103 
L 80.393846 387.003077 
L 81.156923 387.003077 
L 81.156923 385.558974 
L 81.538462 385.558974 
L 81.538462 384.114872 
L 81.92 384.114872 
L 81.92 382.309744 
L 82.301538 382.309744 
L 82.301538 373.284103 
L 82.683077 373.284103 
L 82.683077 372.923077 
L 83.064615 372.923077 
L 83.064615 367.507692 
L 83.446154 367.507692 
L 83.446154 367.146667 
L 84.209231 367.146667 
L 84.209231 365.702564 
L 84.590769 365.702564 
L 84.590769 362.814359 
L 84.972308 362.814359 
L 84.972308 361.731282 
L 85.353846 361.731282 
L 85.353846 358.843077 
L 85.735385 358.843077 
L 85.735385 356.315897 
L 86.116923 356.315897 
L 86.116923 355.232821 
L 86.498462 355.232821 
L 86.498462 354.871795 
L 87.643077 354.871795 
L 87.643077 354.149744 
L 89.550769 354.149744 
L 89.550769 353.788718 
L 90.313846 353.788718 
L 90.313846 350.178462 
L 90.695385 350.178462 
L 90.695385 349.095385 
L 91.076923 349.095385 
L 91.076923 346.207179 
L 91.458462 346.207179 
L 91.458462 345.846154 
L 91.84 345.846154 
L 91.84 344.763077 
L 92.221538 344.763077 
L 92.221538 344.041026 
L 92.984615 344.041026 
L 92.984615 342.235897 
L 93.366154 342.235897 
L 93.366154 341.513846 
L 93.747692 341.513846 
L 93.747692 341.152821 
L 94.129231 341.152821 
L 94.129231 338.625641 
L 94.510769 338.625641 
L 94.510769 333.932308 
L 94.892308 333.932308 
L 94.892308 333.210256 
L 95.655385 333.210256 
L 95.655385 332.849231 
L 96.036923 332.849231 
L 96.036923 331.405128 
L 96.418462 331.405128 
L 96.418462 330.322051 
L 96.8 330.322051 
L 96.8 329.6 
L 97.181538 329.6 
L 97.181538 327.794872 
L 97.563077 327.794872 
L 97.563077 325.989744 
L 97.944615 325.989744 
L 97.944615 322.740513 
L 98.326154 322.740513 
L 98.326154 320.213333 
L 98.707692 320.213333 
L 98.707692 317.686154 
L 99.089231 317.686154 
L 99.089231 317.325128 
L 100.233846 317.325128 
L 100.233846 316.603077 
L 100.615385 316.603077 
L 100.615385 316.242051 
L 100.996923 316.242051 
L 100.996923 315.52 
L 101.378462 315.52 
L 101.378462 311.909744 
L 102.523077 311.909744 
L 102.523077 311.548718 
L 102.904615 311.548718 
L 102.904615 311.187692 
L 103.286154 311.187692 
L 103.286154 310.826667 
L 103.667692 310.826667 
L 103.667692 309.74359 
L 104.049231 309.74359 
L 104.049231 308.660513 
L 104.430769 308.660513 
L 104.430769 306.855385 
L 104.812308 306.855385 
L 104.812308 306.494359 
L 105.193846 306.494359 
L 105.193846 304.689231 
L 105.575385 304.689231 
L 105.575385 304.328205 
L 105.956923 304.328205 
L 105.956923 303.606154 
L 106.338462 303.606154 
L 106.338462 303.245128 
L 106.72 303.245128 
L 106.72 302.884103 
L 109.009231 302.884103 
L 109.009231 302.523077 
L 109.772308 302.523077 
L 109.772308 302.162051 
L 110.535385 302.162051 
L 110.535385 300.356923 
L 110.916923 300.356923 
L 110.916923 299.995897 
L 111.298462 299.995897 
L 111.298462 299.273846 
L 112.061538 299.273846 
L 112.061538 298.551795 
L 112.443077 298.551795 
L 112.443077 297.829744 
L 113.206154 297.829744 
L 113.206154 296.385641 
L 113.587692 296.385641 
L 113.587692 293.497436 
L 113.969231 293.497436 
L 113.969231 293.13641 
L 114.350769 293.13641 
L 114.350769 292.414359 
L 115.113846 292.414359 
L 115.113846 290.609231 
L 116.258462 290.609231 
L 116.258462 289.526154 
L 117.021538 289.526154 
L 117.021538 288.082051 
L 118.166154 288.082051 
L 118.166154 287.721026 
L 118.547692 287.721026 
L 118.547692 286.637949 
L 118.929231 286.637949 
L 118.929231 285.915897 
L 120.455385 285.915897 
L 120.455385 284.110769 
L 120.836923 284.110769 
L 120.836923 283.027692 
L 121.6 283.027692 
L 121.6 279.417436 
L 121.981538 279.417436 
L 121.981538 277.612308 
L 123.507692 277.612308 
L 123.507692 277.251282 
L 123.889231 277.251282 
L 123.889231 276.168205 
L 125.415385 276.168205 
L 125.415385 275.446154 
L 125.796923 275.446154 
L 125.796923 273.641026 
L 126.178462 273.641026 
L 126.178462 272.918974 
L 126.56 272.918974 
L 126.56 272.557949 
L 127.323077 272.557949 
L 127.323077 271.835897 
L 127.704615 271.835897 
L 127.704615 270.030769 
L 128.086154 270.030769 
L 128.086154 269.669744 
L 128.467692 269.669744 
L 128.467692 268.947692 
L 128.849231 268.947692 
L 128.849231 267.50359 
L 129.993846 267.50359 
L 129.993846 267.142564 
L 131.138462 267.142564 
L 131.138462 266.781538 
L 132.664615 266.781538 
L 132.664615 266.059487 
L 133.046154 266.059487 
L 133.046154 264.97641 
L 133.427692 264.97641 
L 133.427692 264.615385 
L 133.809231 264.615385 
L 133.809231 263.893333 
L 134.190769 263.893333 
L 134.190769 263.532308 
L 134.572308 263.532308 
L 134.572308 262.088205 
L 134.953846 262.088205 
L 134.953846 261.366154 
L 135.716923 261.366154 
L 135.716923 259.561026 
L 136.098462 259.561026 
L 136.098462 258.838974 
L 136.48 258.838974 
L 136.48 258.477949 
L 136.861538 258.477949 
L 136.861538 257.755897 
L 138.006154 257.755897 
L 138.006154 257.394872 
L 138.769231 257.394872 
L 138.769231 257.033846 
L 139.150769 257.033846 
L 139.150769 256.672821 
L 139.532308 256.672821 
L 139.532308 255.950769 
L 140.295385 255.950769 
L 140.295385 255.589744 
L 140.676923 255.589744 
L 140.676923 255.228718 
L 141.058462 255.228718 
L 141.058462 254.506667 
L 141.44 254.506667 
L 141.44 254.145641 
L 142.203077 254.145641 
L 142.203077 252.701538 
L 142.584615 252.701538 
L 142.584615 250.89641 
L 143.347692 250.89641 
L 143.347692 250.535385 
L 143.729231 250.535385 
L 143.729231 249.813333 
L 144.110769 249.813333 
L 144.110769 249.091282 
L 144.492308 249.091282 
L 144.492308 248.730256 
L 145.255385 248.730256 
L 145.255385 246.203077 
L 145.636923 246.203077 
L 145.636923 245.12 
L 146.018462 245.12 
L 146.018462 244.758974 
L 146.781538 244.758974 
L 146.781538 244.036923 
L 147.544615 244.036923 
L 147.544615 243.675897 
L 147.926154 243.675897 
L 147.926154 242.231795 
L 148.307692 242.231795 
L 148.307692 241.509744 
L 148.689231 241.509744 
L 148.689231 241.148718 
L 149.452308 241.148718 
L 149.452308 240.787692 
L 149.833846 240.787692 
L 149.833846 238.621538 
L 150.596923 238.621538 
L 150.596923 237.177436 
L 150.978462 237.177436 
L 150.978462 236.81641 
L 151.741538 236.81641 
L 151.741538 236.455385 
L 152.504615 236.455385 
L 152.504615 233.928205 
L 152.886154 233.928205 
L 152.886154 233.567179 
L 154.030769 233.567179 
L 154.030769 233.206154 
L 154.793846 233.206154 
L 154.793846 232.484103 
L 156.32 232.484103 
L 156.32 231.762051 
L 156.701538 231.762051 
L 156.701538 230.317949 
L 157.083077 230.317949 
L 157.083077 228.873846 
L 157.464615 228.873846 
L 157.464615 227.790769 
L 158.227692 227.790769 
L 158.227692 227.068718 
L 158.990769 227.068718 
L 158.990769 226.707692 
L 159.753846 226.707692 
L 159.753846 226.346667 
L 160.516923 226.346667 
L 160.516923 225.624615 
L 160.898462 225.624615 
L 160.898462 225.26359 
L 161.661538 225.26359 
L 161.661538 224.541538 
L 163.187692 224.541538 
L 163.187692 223.819487 
L 164.332308 223.819487 
L 164.332308 223.458462 
L 164.713846 223.458462 
L 164.713846 223.097436 
L 165.476923 223.097436 
L 165.476923 222.73641 
L 166.621538 222.73641 
L 166.621538 220.570256 
L 168.147692 220.570256 
L 168.147692 220.209231 
L 170.055385 220.209231 
L 170.055385 219.848205 
L 170.818462 219.848205 
L 170.818462 219.487179 
L 171.581538 219.487179 
L 171.581538 218.404103 
L 173.107692 218.404103 
L 173.107692 218.043077 
L 173.489231 218.043077 
L 173.489231 217.321026 
L 173.870769 217.321026 
L 173.870769 215.876923 
L 175.015385 215.876923 
L 175.015385 215.515897 
L 175.396923 215.515897 
L 175.396923 214.432821 
L 176.16 214.432821 
L 176.16 214.071795 
L 176.541538 214.071795 
L 176.541538 213.349744 
L 177.304615 213.349744 
L 177.304615 212.266667 
L 178.067692 212.266667 
L 178.067692 210.822564 
L 178.449231 210.822564 
L 178.449231 207.934359 
L 178.830769 207.934359 
L 178.830769 207.212308 
L 179.212308 207.212308 
L 179.212308 206.851282 
L 179.593846 206.851282 
L 179.593846 206.490256 
L 182.646154 206.490256 
L 182.646154 205.768205 
L 183.409231 205.768205 
L 183.409231 204.685128 
L 183.790769 204.685128 
L 183.790769 203.963077 
L 184.172308 203.963077 
L 184.172308 203.602051 
L 184.935385 203.602051 
L 184.935385 202.88 
L 185.698462 202.88 
L 185.698462 202.518974 
L 186.461538 202.518974 
L 186.461538 202.157949 
L 187.224615 202.157949 
L 187.224615 201.074872 
L 187.987692 201.074872 
L 187.987692 200.713846 
L 188.369231 200.713846 
L 188.369231 200.352821 
L 188.750769 200.352821 
L 188.750769 199.630769 
L 189.513846 199.630769 
L 189.513846 198.908718 
L 189.895385 198.908718 
L 189.895385 198.186667 
L 190.658462 198.186667 
L 190.658462 197.464615 
L 191.421538 197.464615 
L 191.421538 197.10359 
L 192.566154 197.10359 
L 192.566154 196.742564 
L 192.947692 196.742564 
L 192.947692 196.381538 
L 194.092308 196.381538 
L 194.092308 195.298462 
L 194.473846 195.298462 
L 194.473846 194.57641 
L 195.236923 194.57641 
L 195.236923 193.493333 
L 196 193.493333 
L 196 193.132308 
L 196.763077 193.132308 
L 196.763077 192.771282 
L 197.144615 192.771282 
L 197.144615 192.049231 
L 197.526154 192.049231 
L 197.526154 190.244103 
L 199.052308 190.244103 
L 199.052308 189.522051 
L 200.578462 189.522051 
L 200.578462 189.161026 
L 202.867692 189.161026 
L 202.867692 188.438974 
L 204.775385 188.438974 
L 204.775385 187.716923 
L 205.156923 187.716923 
L 205.156923 186.994872 
L 205.92 186.994872 
L 205.92 186.633846 
L 206.683077 186.633846 
L 206.683077 186.272821 
L 207.446154 186.272821 
L 207.446154 185.911795 
L 208.590769 185.911795 
L 208.590769 183.745641 
L 209.353846 183.745641 
L 209.353846 183.384615 
L 210.88 183.384615 
L 210.88 183.02359 
L 211.261538 183.02359 
L 211.261538 182.301538 
L 211.643077 182.301538 
L 211.643077 181.940513 
L 212.024615 181.940513 
L 212.024615 180.857436 
L 212.406154 180.857436 
L 212.406154 180.135385 
L 214.313846 180.135385 
L 214.313846 179.052308 
L 214.695385 179.052308 
L 214.695385 178.330256 
L 215.076923 178.330256 
L 215.076923 177.969231 
L 216.221538 177.969231 
L 216.221538 177.247179 
L 216.603077 177.247179 
L 216.603077 176.525128 
L 216.984615 176.525128 
L 216.984615 174.72 
L 218.129231 174.72 
L 218.129231 173.636923 
L 218.510769 173.636923 
L 218.510769 172.914872 
L 220.036923 172.914872 
L 220.036923 171.831795 
L 220.418462 171.831795 
L 220.418462 171.470769 
L 220.8 171.470769 
L 220.8 170.387692 
L 223.089231 170.387692 
L 223.089231 170.026667 
L 223.470769 170.026667 
L 223.470769 169.665641 
L 224.233846 169.665641 
L 224.233846 168.94359 
L 227.286154 168.94359 
L 227.286154 168.221538 
L 227.667692 168.221538 
L 227.667692 167.860513 
L 228.049231 167.860513 
L 228.049231 167.499487 
L 229.575385 167.499487 
L 229.575385 166.777436 
L 229.956923 166.777436 
L 229.956923 166.41641 
L 230.338462 166.41641 
L 230.338462 166.055385 
L 230.72 166.055385 
L 230.72 164.611282 
L 231.101538 164.611282 
L 231.101538 163.889231 
L 231.483077 163.889231 
L 231.483077 163.528205 
L 232.246154 163.528205 
L 232.246154 163.167179 
L 234.153846 163.167179 
L 234.153846 162.806154 
L 234.916923 162.806154 
L 234.916923 161.723077 
L 235.298462 161.723077 
L 235.298462 161.362051 
L 235.68 161.362051 
L 235.68 159.917949 
L 236.443077 159.917949 
L 236.443077 159.556923 
L 236.824615 159.556923 
L 236.824615 159.195897 
L 239.113846 159.195897 
L 239.113846 158.112821 
L 240.258462 158.112821 
L 240.258462 157.751795 
L 240.64 157.751795 
L 240.64 157.029744 
L 241.403077 157.029744 
L 241.403077 155.224615 
L 241.784615 155.224615 
L 241.784615 154.502564 
L 242.547692 154.502564 
L 242.547692 154.141538 
L 245.218462 154.141538 
L 245.218462 153.780513 
L 245.981538 153.780513 
L 245.981538 151.975385 
L 246.744615 151.975385 
L 246.744615 151.614359 
L 247.889231 151.614359 
L 247.889231 151.253333 
L 249.033846 151.253333 
L 249.033846 150.531282 
L 249.415385 150.531282 
L 249.415385 150.170256 
L 249.796923 150.170256 
L 249.796923 149.087179 
L 250.178462 149.087179 
L 250.178462 148.726154 
L 250.56 148.726154 
L 250.56 148.365128 
L 251.323077 148.365128 
L 251.323077 147.643077 
L 251.704615 147.643077 
L 251.704615 147.282051 
L 252.849231 147.282051 
L 252.849231 146.56 
L 253.612308 146.56 
L 253.612308 146.198974 
L 254.375385 146.198974 
L 254.375385 145.837949 
L 255.138462 145.837949 
L 255.138462 144.393846 
L 255.901538 144.393846 
L 255.901538 142.949744 
L 256.664615 142.949744 
L 256.664615 142.588718 
L 257.046154 142.588718 
L 257.046154 142.227692 
L 257.427692 142.227692 
L 257.427692 141.866667 
L 260.098462 141.866667 
L 260.098462 141.144615 
L 260.48 141.144615 
L 260.48 140.422564 
L 261.243077 140.422564 
L 261.243077 139.700513 
L 261.624615 139.700513 
L 261.624615 139.339487 
L 265.821538 139.339487 
L 265.821538 138.617436 
L 268.110769 138.617436 
L 268.110769 138.25641 
L 268.492308 138.25641 
L 268.492308 137.534359 
L 269.636923 137.534359 
L 269.636923 137.173333 
L 270.4 137.173333 
L 270.4 136.812308 
L 273.833846 136.812308 
L 273.833846 136.451282 
L 275.36 136.451282 
L 275.36 136.090256 
L 277.649231 136.090256 
L 277.649231 135.729231 
L 278.030769 135.729231 
L 278.030769 135.368205 
L 280.701538 135.368205 
L 280.701538 135.007179 
L 281.083077 135.007179 
L 281.083077 134.646154 
L 281.464615 134.646154 
L 281.464615 134.285128 
L 283.372308 134.285128 
L 283.372308 133.563077 
L 284.898462 133.563077 
L 284.898462 132.841026 
L 285.661538 132.841026 
L 285.661538 132.48 
L 286.424615 132.48 
L 286.424615 132.118974 
L 287.950769 132.118974 
L 287.950769 131.757949 
L 288.332308 131.757949 
L 288.332308 131.035897 
L 290.24 131.035897 
L 290.24 130.674872 
L 291.003077 130.674872 
L 291.003077 130.313846 
L 291.384615 130.313846 
L 291.384615 129.952821 
L 292.910769 129.952821 
L 292.910769 129.591795 
L 293.292308 129.591795 
L 293.292308 128.508718 
L 294.055385 128.508718 
L 294.055385 128.147692 
L 294.436923 128.147692 
L 294.436923 127.425641 
L 294.818462 127.425641 
L 294.818462 127.064615 
L 295.2 127.064615 
L 295.2 126.70359 
L 297.107692 126.70359 
L 297.107692 126.342564 
L 297.489231 126.342564 
L 297.489231 125.981538 
L 298.633846 125.981538 
L 298.633846 125.620513 
L 301.304615 125.620513 
L 301.304615 125.259487 
L 306.646154 125.259487 
L 306.646154 124.898462 
L 307.027692 124.898462 
L 307.027692 124.537436 
L 308.172308 124.537436 
L 308.172308 123.815385 
L 308.935385 123.815385 
L 308.935385 123.454359 
L 309.316923 123.454359 
L 309.316923 123.093333 
L 309.698462 123.093333 
L 309.698462 122.732308 
L 311.224615 122.732308 
L 311.224615 122.371282 
L 313.132308 122.371282 
L 313.132308 122.010256 
L 313.895385 122.010256 
L 313.895385 121.649231 
L 314.658462 121.649231 
L 314.658462 120.566154 
L 315.04 120.566154 
L 315.04 120.205128 
L 316.566154 120.205128 
L 316.566154 119.844103 
L 317.329231 119.844103 
L 317.329231 119.483077 
L 318.092308 119.483077 
L 318.092308 119.122051 
L 318.473846 119.122051 
L 318.473846 118.761026 
L 318.855385 118.761026 
L 318.855385 117.677949 
L 320.763077 117.677949 
L 320.763077 117.316923 
L 321.526154 117.316923 
L 321.526154 116.594872 
L 321.907692 116.594872 
L 321.907692 116.233846 
L 322.670769 116.233846 
L 322.670769 115.872821 
L 324.578462 115.872821 
L 324.578462 115.511795 
L 326.867692 115.511795 
L 326.867692 114.789744 
L 328.775385 114.789744 
L 328.775385 114.428718 
L 331.064615 114.428718 
L 331.064615 114.067692 
L 333.735385 114.067692 
L 333.735385 113.345641 
L 334.498462 113.345641 
L 334.498462 112.62359 
L 336.787692 112.62359 
L 336.787692 112.262564 
L 337.169231 112.262564 
L 337.169231 111.901538 
L 339.076923 111.901538 
L 339.076923 111.540513 
L 340.221538 111.540513 
L 340.221538 111.179487 
L 340.984615 111.179487 
L 340.984615 110.818462 
L 341.366154 110.818462 
L 341.366154 110.457436 
L 345.563077 110.457436 
L 345.563077 109.735385 
L 346.707692 109.735385 
L 346.707692 109.374359 
L 347.470769 109.374359 
L 347.470769 109.013333 
L 351.667692 109.013333 
L 351.667692 108.652308 
L 352.430769 108.652308 
L 352.430769 108.291282 
L 352.812308 108.291282 
L 352.812308 107.930256 
L 353.956923 107.930256 
L 353.956923 107.569231 
L 355.101538 107.569231 
L 355.101538 107.208205 
L 356.246154 107.208205 
L 356.246154 106.847179 
L 358.153846 106.847179 
L 358.153846 106.486154 
L 359.298462 106.486154 
L 359.298462 106.125128 
L 361.969231 106.125128 
L 361.969231 105.764103 
L 362.350769 105.764103 
L 362.350769 105.042051 
L 363.113846 105.042051 
L 363.113846 104.681026 
L 363.876923 104.681026 
L 363.876923 104.32 
L 364.64 104.32 
L 364.64 103.597949 
L 368.073846 103.597949 
L 368.073846 102.875897 
L 373.415385 102.875897 
L 373.415385 101.792821 
L 374.56 101.792821 
L 374.56 101.431795 
L 375.323077 101.431795 
L 375.323077 101.070769 
L 376.086154 101.070769 
L 376.086154 100.709744 
L 376.467692 100.709744 
L 376.467692 100.348718 
L 380.664615 100.348718 
L 380.664615 99.987692 
L 382.190769 99.987692 
L 382.190769 99.265641 
L 383.335385 99.265641 
L 383.335385 98.904615 
L 385.624615 98.904615 
L 385.624615 98.182564 
L 386.387692 98.182564 
L 386.387692 97.821538 
L 387.532308 97.821538 
L 387.532308 97.099487 
L 393.255385 97.099487 
L 393.255385 96.738462 
L 396.307692 96.738462 
L 396.307692 95.655385 
L 399.36 95.655385 
L 399.36 94.933333 
L 400.886154 94.933333 
L 400.886154 94.572308 
L 402.793846 94.572308 
L 402.793846 94.211282 
L 403.938462 94.211282 
L 403.938462 93.489231 
L 406.990769 93.489231 
L 406.990769 93.128205 
L 426.067692 93.128205 
L 426.067692 92.767179 
L 429.501538 92.767179 
L 429.501538 92.406154 
L 435.224615 92.406154 
L 435.224615 92.045128 
L 441.329231 92.045128 
L 441.329231 91.684103 
L 458.498462 91.684103 
L 458.498462 91.323077 
L 474.141538 91.323077 
L 474.141538 90.962051 
L 481.009231 90.962051 
L 481.009231 90.601026 
L 482.153846 90.601026 
L 482.153846 90.24 
L 518.4 90.24 
L 518.4 90.24 
" style="fill:none;stroke:#ff8c00;stroke-linecap:square;stroke-width:2;"/>
   </g>
   <g id="line2d_26">
    <path clip-path="url(#p35e5fe6108)" d="M 72 512.64 
L 518.4 90.24 
" style="fill:none;stroke:#000080;stroke-dasharray:7.4,3.2;stroke-dashoffset:0;stroke-width:2;"/>
   </g>
   <g id="patch_3">
    <path d="M 72 512.64 
L 72 69.12 
" style="fill:none;stroke:#000000;stroke-linecap:square;stroke-linejoin:miter;stroke-width:0.8;"/>
   </g>
   <g id="patch_4">
    <path d="M 518.4 512.64 
L 518.4 69.12 
" style="fill:none;stroke:#000000;stroke-linecap:square;stroke-linejoin:miter;stroke-width:0.8;"/>
   </g>
   <g id="patch_5">
    <path d="M 72 512.64 
L 518.4 512.64 
" style="fill:none;stroke:#000000;stroke-linecap:square;stroke-linejoin:miter;stroke-width:0.8;"/>
   </g>
   <g id="patch_6">
    <path d="M 72 69.12 
L 518.4 69.12 
" style="fill:none;stroke:#000000;stroke-linecap:square;stroke-linejoin:miter;stroke-width:0.8;"/>
   </g>
   <g id="legend_1">
    <g id="patch_7">
     <path d="M 427.081875 509.64 
L 514.2 509.64 
Q 515.4 509.64 515.4 508.44 
L 515.4 500.233125 
Q 515.4 499.033125 514.2 499.033125 
L 427.081875 499.033125 
Q 425.881875 499.033125 425.881875 500.233125 
L 425.881875 508.44 
Q 425.881875 509.64 427.081875 509.64 
z
" style="fill:#ffffff;opacity:0.8;stroke:#cccccc;stroke-linejoin:miter;"/>
    </g>
    <g id="line2d_27">
     <path d="M 428.281875 503.892187 
L 440.281875 503.892187 
" style="fill:none;stroke:#ff8c00;stroke-linecap:square;stroke-width:2;"/>
    </g>
    <g id="line2d_28"/>
    <g id="text_15">
     <!-- D008881 (area =0.83) -->
     <defs>
      <path d="M 19.671875 64.796875 
L 19.671875 8.109375 
L 31.59375 8.109375 
Q 46.6875 8.109375 53.6875 14.9375 
Q 60.6875 21.78125 60.6875 36.53125 
Q 60.6875 51.171875 53.6875 57.984375 
Q 46.6875 64.796875 31.59375 64.796875 
z
M 9.8125 72.90625 
L 30.078125 72.90625 
Q 51.265625 72.90625 61.171875 64.09375 
Q 71.09375 55.28125 71.09375 36.53125 
Q 71.09375 17.671875 61.125 8.828125 
Q 51.171875 0 30.078125 0 
L 9.8125 0 
z
" id="DejaVuSans-68"/>
      <path d="M 31 75.875 
Q 24.46875 64.65625 21.28125 53.65625 
Q 18.109375 42.671875 18.109375 31.390625 
Q 18.109375 20.125 21.3125 9.0625 
Q 24.515625 -2 31 -13.1875 
L 23.1875 -13.1875 
Q 15.875 -1.703125 12.234375 9.375 
Q 8.59375 20.453125 8.59375 31.390625 
Q 8.59375 42.28125 12.203125 53.3125 
Q 15.828125 64.359375 23.1875 75.875 
z
" id="DejaVuSans-40"/>
      <path d="M 10.59375 45.40625 
L 73.1875 45.40625 
L 73.1875 37.203125 
L 10.59375 37.203125 
z
M 10.59375 25.484375 
L 73.1875 25.484375 
L 73.1875 17.1875 
L 10.59375 17.1875 
z
" id="DejaVuSans-61"/>
      <path d="M 40.578125 39.3125 
Q 47.65625 37.796875 51.625 33 
Q 55.609375 28.21875 55.609375 21.1875 
Q 55.609375 10.40625 48.1875 4.484375 
Q 40.765625 -1.421875 27.09375 -1.421875 
Q 22.515625 -1.421875 17.65625 -0.515625 
Q 12.796875 0.390625 7.625 2.203125 
L 7.625 11.71875 
Q 11.71875 9.328125 16.59375 8.109375 
Q 21.484375 6.890625 26.8125 6.890625 
Q 36.078125 6.890625 40.9375 10.546875 
Q 45.796875 14.203125 45.796875 21.1875 
Q 45.796875 27.640625 41.28125 31.265625 
Q 36.765625 34.90625 28.71875 34.90625 
L 20.21875 34.90625 
L 20.21875 43.015625 
L 29.109375 43.015625 
Q 36.375 43.015625 40.234375 45.921875 
Q 44.09375 48.828125 44.09375 54.296875 
Q 44.09375 59.90625 40.109375 62.90625 
Q 36.140625 65.921875 28.71875 65.921875 
Q 24.65625 65.921875 20.015625 65.03125 
Q 15.375 64.15625 9.8125 62.3125 
L 9.8125 71.09375 
Q 15.4375 72.65625 20.34375 73.4375 
Q 25.25 74.21875 29.59375 74.21875 
Q 40.828125 74.21875 47.359375 69.109375 
Q 53.90625 64.015625 53.90625 55.328125 
Q 53.90625 49.265625 50.4375 45.09375 
Q 46.96875 40.921875 40.578125 39.3125 
z
" id="DejaVuSans-51"/>
      <path d="M 8.015625 75.875 
L 15.828125 75.875 
Q 23.140625 64.359375 26.78125 53.3125 
Q 30.421875 42.28125 30.421875 31.390625 
Q 30.421875 20.453125 26.78125 9.375 
Q 23.140625 -1.703125 15.828125 -13.1875 
L 8.015625 -13.1875 
Q 14.5 -2 17.703125 9.0625 
Q 20.90625 20.125 20.90625 31.390625 
Q 20.90625 42.671875 17.703125 53.65625 
Q 14.5 64.65625 8.015625 75.875 
z
" id="DejaVuSans-41"/>
     </defs>
     <g transform="translate(445.081875 505.992188)scale(0.06 -0.06)">
      <use xlink:href="#DejaVuSans-68"/>
      <use x="77.001953" xlink:href="#DejaVuSans-48"/>
      <use x="140.625" xlink:href="#DejaVuSans-48"/>
      <use x="204.248047" xlink:href="#DejaVuSans-56"/>
      <use x="267.871094" xlink:href="#DejaVuSans-56"/>
      <use x="331.494141" xlink:href="#DejaVuSans-56"/>
      <use x="395.117188" xlink:href="#DejaVuSans-49"/>
      <use x="458.740234" xlink:href="#DejaVuSans-32"/>
      <use x="490.527344" xlink:href="#DejaVuSans-40"/>
      <use x="529.541016" xlink:href="#DejaVuSans-97"/>
      <use x="590.820312" xlink:href="#DejaVuSans-114"/>
      <use x="631.902344" xlink:href="#DejaVuSans-101"/>
      <use x="693.425781" xlink:href="#DejaVuSans-97"/>
      <use x="754.705078" xlink:href="#DejaVuSans-32"/>
      <use x="786.492188" xlink:href="#DejaVuSans-61"/>
      <use x="870.28125" xlink:href="#DejaVuSans-48"/>
      <use x="933.904297" xlink:href="#DejaVuSans-46"/>
      <use x="965.691406" xlink:href="#DejaVuSans-56"/>
      <use x="1029.314453" xlink:href="#DejaVuSans-51"/>
      <use x="1092.9375" xlink:href="#DejaVuSans-41"/>
     </g>
    </g>
   </g>
  </g>
 </g>
 <defs>
  <clipPath id="p35e5fe6108">
   <rect height="443.52" width="446.4" x="72" y="69.12"/>
  </clipPath>
 </defs>
</svg>
