<?xml version="1.0" encoding="utf-8" standalone="no"?>
<!DOCTYPE svg PUBLIC "-//W3C//DTD SVG 1.1//EN"
  "http://www.w3.org/Graphics/SVG/1.1/DTD/svg11.dtd">
<!-- Created with matplotlib (https://matplotlib.org/) -->
<svg height="432pt" version="1.1" viewBox="0 0 720 432" width="720pt" xmlns="http://www.w3.org/2000/svg" xmlns:xlink="http://www.w3.org/1999/xlink">
 <defs>
  <style type="text/css">
*{stroke-linecap:butt;stroke-linejoin:round;}
  </style>
 </defs>
 <g id="figure_1">
  <g id="patch_1">
   <path d="M 0 432 
L 720 432 
L 720 0 
L 0 0 
z
" style="fill:#ffffff;"/>
  </g>
  <g id="axes_1">
   <g id="patch_2">
    <path d="M 90 384.48 
L 648 384.48 
L 648 51.84 
L 90 51.84 
z
" style="fill:#ffffff;"/>
   </g>
   <g id="PathCollection_1">
    <defs>
     <path d="M 0 3 
C 0.795609 3 1.55874 2.683901 2.12132 2.12132 
C 2.683901 1.55874 3 0.795609 3 0 
C 3 -0.795609 2.683901 -1.55874 2.12132 -2.12132 
C 1.55874 -2.683901 0.795609 -3 0 -3 
C -0.795609 -3 -1.55874 -2.683901 -2.12132 -2.12132 
C -2.683901 -1.55874 -3 -0.795609 -3 0 
C -3 0.795609 -2.683901 1.55874 -2.12132 2.12132 
C -1.55874 2.683901 -0.795609 3 0 3 
z
" id="me7dc61586c" style="stroke:#00bfc4;"/>
    </defs>
    <g clip-path="url(#pc7f57f9c64)">
     <use style="fill:#00bfc4;stroke:#00bfc4;" x="487.050489" xlink:href="#me7dc61586c" y="272.71706"/>
     <use style="fill:#00bfc4;stroke:#00bfc4;" x="578.198705" xlink:href="#me7dc61586c" y="325.94113"/>
     <use style="fill:#00bfc4;stroke:#00bfc4;" x="549.819433" xlink:href="#me7dc61586c" y="245.654907"/>
     <use style="fill:#00bfc4;stroke:#00bfc4;" x="503.491791" xlink:href="#me7dc61586c" y="279.492966"/>
     <use style="fill:#00bfc4;stroke:#00bfc4;" x="463.942987" xlink:href="#me7dc61586c" y="255.499324"/>
     <use style="fill:#00bfc4;stroke:#00bfc4;" x="360.225612" xlink:href="#me7dc61586c" y="289.920367"/>
     <use style="fill:#00bfc4;stroke:#00bfc4;" x="614.166546" xlink:href="#me7dc61586c" y="306.54262"/>
     <use style="fill:#00bfc4;stroke:#00bfc4;" x="536.260874" xlink:href="#me7dc61586c" y="303.933755"/>
     <use style="fill:#00bfc4;stroke:#00bfc4;" x="492.409067" xlink:href="#me7dc61586c" y="324.605905"/>
     <use style="fill:#00bfc4;stroke:#00bfc4;" x="537.481939" xlink:href="#me7dc61586c" y="273.113994"/>
     <use style="fill:#00bfc4;stroke:#00bfc4;" x="462.719405" xlink:href="#me7dc61586c" y="314.991543"/>
     <use style="fill:#00bfc4;stroke:#00bfc4;" x="561.971186" xlink:href="#me7dc61586c" y="274.144437"/>
     <use style="fill:#00bfc4;stroke:#00bfc4;" x="416.48398" xlink:href="#me7dc61586c" y="284.001529"/>
     <use style="fill:#00bfc4;stroke:#00bfc4;" x="470.418988" xlink:href="#me7dc61586c" y="281.428151"/>
     <use style="fill:#00bfc4;stroke:#00bfc4;" x="438.5423" xlink:href="#me7dc61586c" y="265.21849"/>
     <use style="fill:#00bfc4;stroke:#00bfc4;" x="622.036398" xlink:href="#me7dc61586c" y="292.312695"/>
     <use style="fill:#00bfc4;stroke:#00bfc4;" x="471.544413" xlink:href="#me7dc61586c" y="303.024899"/>
     <use style="fill:#00bfc4;stroke:#00bfc4;" x="505.356865" xlink:href="#me7dc61586c" y="248.148653"/>
     <use style="fill:#00bfc4;stroke:#00bfc4;" x="611.164539" xlink:href="#me7dc61586c" y="291.183304"/>
     <use style="fill:#00bfc4;stroke:#00bfc4;" x="522.187902" xlink:href="#me7dc61586c" y="322.801856"/>
     <use style="fill:#00bfc4;stroke:#00bfc4;" x="550.292037" xlink:href="#me7dc61586c" y="336.628455"/>
     <use style="fill:#00bfc4;stroke:#00bfc4;" x="577.199628" xlink:href="#me7dc61586c" y="342.661028"/>
     <use style="fill:#00bfc4;stroke:#00bfc4;" x="428.265772" xlink:href="#me7dc61586c" y="289.457104"/>
     <use style="fill:#00bfc4;stroke:#00bfc4;" x="430.853766" xlink:href="#me7dc61586c" y="250.766705"/>
     <use style="fill:#00bfc4;stroke:#00bfc4;" x="496.9729" xlink:href="#me7dc61586c" y="305.717479"/>
     <use style="fill:#00bfc4;stroke:#00bfc4;" x="569.307173" xlink:href="#me7dc61586c" y="329.239623"/>
     <use style="fill:#00bfc4;stroke:#00bfc4;" x="488.739605" xlink:href="#me7dc61586c" y="297.268486"/>
     <use style="fill:#00bfc4;stroke:#00bfc4;" x="548.531845" xlink:href="#me7dc61586c" y="298.938949"/>
     <use style="fill:#00bfc4;stroke:#00bfc4;" x="520.622462" xlink:href="#me7dc61586c" y="279.042705"/>
     <use style="fill:#00bfc4;stroke:#00bfc4;" x="383.391549" xlink:href="#me7dc61586c" y="257.464243"/>
     <use style="fill:#00bfc4;stroke:#00bfc4;" x="437.112509" xlink:href="#me7dc61586c" y="298.233004"/>
     <use style="fill:#00bfc4;stroke:#00bfc4;" x="452.476673" xlink:href="#me7dc61586c" y="298.712467"/>
     <use style="fill:#00bfc4;stroke:#00bfc4;" x="396.546534" xlink:href="#me7dc61586c" y="309.269986"/>
     <use style="fill:#00bfc4;stroke:#00bfc4;" x="466.592755" xlink:href="#me7dc61586c" y="255.340045"/>
     <use style="fill:#00bfc4;stroke:#00bfc4;" x="575.147233" xlink:href="#me7dc61586c" y="310.555961"/>
     <use style="fill:#00bfc4;stroke:#00bfc4;" x="440.650888" xlink:href="#me7dc61586c" y="334.083521"/>
     <use style="fill:#00bfc4;stroke:#00bfc4;" x="496.560144" xlink:href="#me7dc61586c" y="312.810461"/>
     <use style="fill:#00bfc4;stroke:#00bfc4;" x="507.157539" xlink:href="#me7dc61586c" y="286.700165"/>
     <use style="fill:#00bfc4;stroke:#00bfc4;" x="314.656455" xlink:href="#me7dc61586c" y="83.217633"/>
     <use style="fill:#00bfc4;stroke:#00bfc4;" x="343.098736" xlink:href="#me7dc61586c" y="160.915874"/>
     <use style="fill:#00bfc4;stroke:#00bfc4;" x="120.998833" xlink:href="#me7dc61586c" y="196.897621"/>
     <use style="fill:#00bfc4;stroke:#00bfc4;" x="156.542318" xlink:href="#me7dc61586c" y="207.369991"/>
     <use style="fill:#00bfc4;stroke:#00bfc4;" x="242.100158" xlink:href="#me7dc61586c" y="176.772097"/>
     <use style="fill:#00bfc4;stroke:#00bfc4;" x="205.877824" xlink:href="#me7dc61586c" y="203.247334"/>
     <use style="fill:#00bfc4;stroke:#00bfc4;" x="275.714718" xlink:href="#me7dc61586c" y="130.835699"/>
     <use style="fill:#00bfc4;stroke:#00bfc4;" x="216.045563" xlink:href="#me7dc61586c" y="194.538705"/>
     <use style="fill:#00bfc4;stroke:#00bfc4;" x="280.82522" xlink:href="#me7dc61586c" y="67.046039"/>
     <use style="fill:#00bfc4;stroke:#00bfc4;" x="351.213338" xlink:href="#me7dc61586c" y="98.569386"/>
     <use style="fill:#00bfc4;stroke:#00bfc4;" x="332.202979" xlink:href="#me7dc61586c" y="141.331756"/>
     <use style="fill:#00bfc4;stroke:#00bfc4;" x="303.793484" xlink:href="#me7dc61586c" y="137.513509"/>
     <use style="fill:#00bfc4;stroke:#00bfc4;" x="292.758663" xlink:href="#me7dc61586c" y="100.29008"/>
     <use style="fill:#00bfc4;stroke:#00bfc4;" x="302.606258" xlink:href="#me7dc61586c" y="210.337294"/>
     <use style="fill:#00bfc4;stroke:#00bfc4;" x="219.643909" xlink:href="#me7dc61586c" y="217.437061"/>
     <use style="fill:#00bfc4;stroke:#00bfc4;" x="334.666568" xlink:href="#me7dc61586c" y="116.620879"/>
     <use style="fill:#00bfc4;stroke:#00bfc4;" x="271.487318" xlink:href="#me7dc61586c" y="195.701899"/>
     <use style="fill:#00bfc4;stroke:#00bfc4;" x="295.72899" xlink:href="#me7dc61586c" y="140.0027"/>
     <use style="fill:#00bfc4;stroke:#00bfc4;" x="358.488795" xlink:href="#me7dc61586c" y="221.98838"/>
     <use style="fill:#00bfc4;stroke:#00bfc4;" x="157.001349" xlink:href="#me7dc61586c" y="214.521914"/>
     <use style="fill:#00bfc4;stroke:#00bfc4;" x="160.458739" xlink:href="#me7dc61586c" y="193.71276"/>
     <use style="fill:#00bfc4;stroke:#00bfc4;" x="334.008057" xlink:href="#me7dc61586c" y="170.25849"/>
     <use style="fill:#00bfc4;stroke:#00bfc4;" x="332.509491" xlink:href="#me7dc61586c" y="239.48688"/>
     <use style="fill:#00bfc4;stroke:#00bfc4;" x="314.494305" xlink:href="#me7dc61586c" y="110.066976"/>
     <use style="fill:#00bfc4;stroke:#00bfc4;" x="311.861954" xlink:href="#me7dc61586c" y="79.099107"/>
     <use style="fill:#00bfc4;stroke:#00bfc4;" x="390.921382" xlink:href="#me7dc61586c" y="224.318927"/>
     <use style="fill:#00bfc4;stroke:#00bfc4;" x="125.960924" xlink:href="#me7dc61586c" y="227.324823"/>
     <use style="fill:#00bfc4;stroke:#00bfc4;" x="301.829546" xlink:href="#me7dc61586c" y="79.535031"/>
     <use style="fill:#00bfc4;stroke:#00bfc4;" x="187.568704" xlink:href="#me7dc61586c" y="132.285941"/>
     <use style="fill:#00bfc4;stroke:#00bfc4;" x="376.985068" xlink:href="#me7dc61586c" y="149.99259"/>
     <use style="fill:#00bfc4;stroke:#00bfc4;" x="388.787554" xlink:href="#me7dc61586c" y="255.168877"/>
     <use style="fill:#00bfc4;stroke:#00bfc4;" x="311.601378" xlink:href="#me7dc61586c" y="155.627257"/>
     <use style="fill:#00bfc4;stroke:#00bfc4;" x="115.492006" xlink:href="#me7dc61586c" y="217.524173"/>
     <use style="fill:#00bfc4;stroke:#00bfc4;" x="165.393969" xlink:href="#me7dc61586c" y="229.456331"/>
     <use style="fill:#00bfc4;stroke:#00bfc4;" x="243.429657" xlink:href="#me7dc61586c" y="194.611542"/>
     <use style="fill:#00bfc4;stroke:#00bfc4;" x="327.1036" xlink:href="#me7dc61586c" y="129.189391"/>
     <use style="fill:#00bfc4;stroke:#00bfc4;" x="285.145756" xlink:href="#me7dc61586c" y="69.942348"/>
     <use style="fill:#00bfc4;stroke:#00bfc4;" x="273.763982" xlink:href="#me7dc61586c" y="131.894623"/>
     <use style="fill:#00bfc4;stroke:#00bfc4;" x="338.913779" xlink:href="#me7dc61586c" y="155.051122"/>
     <use style="fill:#00bfc4;stroke:#00bfc4;" x="233.38819" xlink:href="#me7dc61586c" y="167.757409"/>
     <use style="fill:#00bfc4;stroke:#00bfc4;" x="147.363986" xlink:href="#me7dc61586c" y="203.410997"/>
     <use style="fill:#00bfc4;stroke:#00bfc4;" x="346.331088" xlink:href="#me7dc61586c" y="149.764492"/>
     <use style="fill:#00bfc4;stroke:#00bfc4;" x="165.92468" xlink:href="#me7dc61586c" y="216.761987"/>
     <use style="fill:#00bfc4;stroke:#00bfc4;" x="302.366671" xlink:href="#me7dc61586c" y="162.789519"/>
     <use style="fill:#00bfc4;stroke:#00bfc4;" x="220.844595" xlink:href="#me7dc61586c" y="180.188887"/>
     <use style="fill:#00bfc4;stroke:#00bfc4;" x="357.219836" xlink:href="#me7dc61586c" y="220.642199"/>
     <use style="fill:#00bfc4;stroke:#00bfc4;" x="186.46779" xlink:href="#me7dc61586c" y="170.773949"/>
     <use style="fill:#00bfc4;stroke:#00bfc4;" x="367.653318" xlink:href="#me7dc61586c" y="98.796782"/>
     <use style="fill:#00bfc4;stroke:#00bfc4;" x="241.412832" xlink:href="#me7dc61586c" y="224.044827"/>
     <use style="fill:#00bfc4;stroke:#00bfc4;" x="308.557424" xlink:href="#me7dc61586c" y="135.8164"/>
     <use style="fill:#00bfc4;stroke:#00bfc4;" x="383.683366" xlink:href="#me7dc61586c" y="233.243615"/>
     <use style="fill:#00bfc4;stroke:#00bfc4;" x="328.81333" xlink:href="#me7dc61586c" y="109.957757"/>
     <use style="fill:#00bfc4;stroke:#00bfc4;" x="198.237488" xlink:href="#me7dc61586c" y="183.506855"/>
     <use style="fill:#00bfc4;stroke:#00bfc4;" x="366.582011" xlink:href="#me7dc61586c" y="127.513317"/>
     <use style="fill:#00bfc4;stroke:#00bfc4;" x="322.193033" xlink:href="#me7dc61586c" y="200.237573"/>
     <use style="fill:#00bfc4;stroke:#00bfc4;" x="235.99683" xlink:href="#me7dc61586c" y="135.547055"/>
     <use style="fill:#00bfc4;stroke:#00bfc4;" x="226.088552" xlink:href="#me7dc61586c" y="139.924115"/>
     <use style="fill:#00bfc4;stroke:#00bfc4;" x="271.627989" xlink:href="#me7dc61586c" y="227.955879"/>
     <use style="fill:#00bfc4;stroke:#00bfc4;" x="253.56104" xlink:href="#me7dc61586c" y="166.313459"/>
     <use style="fill:#00bfc4;stroke:#00bfc4;" x="339.071363" xlink:href="#me7dc61586c" y="80.59585"/>
     <use style="fill:#00bfc4;stroke:#00bfc4;" x="239.563642" xlink:href="#me7dc61586c" y="193.474648"/>
     <use style="fill:#00bfc4;stroke:#00bfc4;" x="180.968166" xlink:href="#me7dc61586c" y="170.607689"/>
     <use style="fill:#00bfc4;stroke:#00bfc4;" x="203.31178" xlink:href="#me7dc61586c" y="212.895689"/>
     <use style="fill:#00bfc4;stroke:#00bfc4;" x="213.353798" xlink:href="#me7dc61586c" y="251.253764"/>
     <use style="fill:#00bfc4;stroke:#00bfc4;" x="350.006854" xlink:href="#me7dc61586c" y="187.204774"/>
    </g>
   </g>
   <g id="PathCollection_2">
    <defs>
     <path d="M 0 3 
C 0.795609 3 1.55874 2.683901 2.12132 2.12132 
C 2.683901 1.55874 3 0.795609 3 0 
C 3 -0.795609 2.683901 -1.55874 2.12132 -2.12132 
C 1.55874 -2.683901 0.795609 -3 0 -3 
C -0.795609 -3 -1.55874 -2.683901 -2.12132 -2.12132 
C -2.683901 -1.55874 -3 -0.795609 -3 0 
C -3 0.795609 -2.683901 1.55874 -2.12132 2.12132 
C -1.55874 2.683901 -0.795609 3 0 3 
z
" id="mecf1a7e232" style="stroke:#f8766d;"/>
    </defs>
    <g clip-path="url(#pc7f57f9c64)">
     <use style="fill:#f8766d;stroke:#f8766d;" x="504.73839" xlink:href="#mecf1a7e232" y="353.509072"/>
     <use style="fill:#f8766d;stroke:#f8766d;" x="617.188782" xlink:href="#mecf1a7e232" y="330.68218"/>
     <use style="fill:#f8766d;stroke:#f8766d;" x="413.171253" xlink:href="#mecf1a7e232" y="317.261702"/>
     <use style="fill:#f8766d;stroke:#f8766d;" x="544.614442" xlink:href="#mecf1a7e232" y="315.884438"/>
     <use style="fill:#f8766d;stroke:#f8766d;" x="538.638991" xlink:href="#mecf1a7e232" y="367.390092"/>
     <use style="fill:#f8766d;stroke:#f8766d;" x="396.602877" xlink:href="#mecf1a7e232" y="280.382039"/>
     <use style="fill:#f8766d;stroke:#f8766d;" x="454.815304" xlink:href="#mecf1a7e232" y="341.221077"/>
     <use style="fill:#f8766d;stroke:#f8766d;" x="507.035535" xlink:href="#mecf1a7e232" y="340.09651"/>
     <use style="fill:#f8766d;stroke:#f8766d;" x="536.078614" xlink:href="#mecf1a7e232" y="264.865597"/>
     <use style="fill:#f8766d;stroke:#f8766d;" x="451.294026" xlink:href="#mecf1a7e232" y="236.026558"/>
     <use style="fill:#f8766d;stroke:#f8766d;" x="560.615138" xlink:href="#mecf1a7e232" y="294.465676"/>
     <use style="fill:#f8766d;stroke:#f8766d;" x="580.690047" xlink:href="#mecf1a7e232" y="272.262149"/>
     <use style="fill:#f8766d;stroke:#f8766d;" x="604.299555" xlink:href="#mecf1a7e232" y="262.531373"/>
     <use style="fill:#f8766d;stroke:#f8766d;" x="620.478372" xlink:href="#mecf1a7e232" y="321.219585"/>
     <use style="fill:#f8766d;stroke:#f8766d;" x="455.239183" xlink:href="#mecf1a7e232" y="346.634776"/>
     <use style="fill:#f8766d;stroke:#f8766d;" x="531.460747" xlink:href="#mecf1a7e232" y="358.092553"/>
     <use style="fill:#f8766d;stroke:#f8766d;" x="398.162544" xlink:href="#mecf1a7e232" y="341.430223"/>
     <use style="fill:#f8766d;stroke:#f8766d;" x="188.416055" xlink:href="#mecf1a7e232" y="195.816908"/>
    </g>
   </g>
   <g id="matplotlib.axis_1">
    <g id="xtick_1">
     <g id="line2d_1">
      <defs>
       <path d="M 0 0 
L 0 3.5 
" id="m15be13f024" style="stroke:#000000;stroke-width:0.8;"/>
      </defs>
      <g>
       <use style="stroke:#000000;stroke-width:0.8;" x="155.528019" xlink:href="#m15be13f024" y="384.48"/>
      </g>
     </g>
     <g id="text_1">
      <!-- −6 -->
      <defs>
       <path d="M 10.59375 35.5 
L 73.1875 35.5 
L 73.1875 27.203125 
L 10.59375 27.203125 
z
" id="DejaVuSans-8722"/>
       <path d="M 33.015625 40.375 
Q 26.375 40.375 22.484375 35.828125 
Q 18.609375 31.296875 18.609375 23.390625 
Q 18.609375 15.53125 22.484375 10.953125 
Q 26.375 6.390625 33.015625 6.390625 
Q 39.65625 6.390625 43.53125 10.953125 
Q 47.40625 15.53125 47.40625 23.390625 
Q 47.40625 31.296875 43.53125 35.828125 
Q 39.65625 40.375 33.015625 40.375 
z
M 52.59375 71.296875 
L 52.59375 62.3125 
Q 48.875 64.0625 45.09375 64.984375 
Q 41.3125 65.921875 37.59375 65.921875 
Q 27.828125 65.921875 22.671875 59.328125 
Q 17.53125 52.734375 16.796875 39.40625 
Q 19.671875 43.65625 24.015625 45.921875 
Q 28.375 48.1875 33.59375 48.1875 
Q 44.578125 48.1875 50.953125 41.515625 
Q 57.328125 34.859375 57.328125 23.390625 
Q 57.328125 12.15625 50.6875 5.359375 
Q 44.046875 -1.421875 33.015625 -1.421875 
Q 20.359375 -1.421875 13.671875 8.265625 
Q 6.984375 17.96875 6.984375 36.375 
Q 6.984375 53.65625 15.1875 63.9375 
Q 23.390625 74.21875 37.203125 74.21875 
Q 40.921875 74.21875 44.703125 73.484375 
Q 48.484375 72.75 52.59375 71.296875 
z
" id="DejaVuSans-54"/>
      </defs>
      <g transform="translate(148.156925 399.078438)scale(0.1 -0.1)">
       <use xlink:href="#DejaVuSans-8722"/>
       <use x="83.789062" xlink:href="#DejaVuSans-54"/>
      </g>
     </g>
    </g>
    <g id="xtick_2">
     <g id="line2d_2">
      <g>
       <use style="stroke:#000000;stroke-width:0.8;" x="221.852394" xlink:href="#m15be13f024" y="384.48"/>
      </g>
     </g>
     <g id="text_2">
      <!-- −4 -->
      <defs>
       <path d="M 37.796875 64.3125 
L 12.890625 25.390625 
L 37.796875 25.390625 
z
M 35.203125 72.90625 
L 47.609375 72.90625 
L 47.609375 25.390625 
L 58.015625 25.390625 
L 58.015625 17.1875 
L 47.609375 17.1875 
L 47.609375 0 
L 37.796875 0 
L 37.796875 17.1875 
L 4.890625 17.1875 
L 4.890625 26.703125 
z
" id="DejaVuSans-52"/>
      </defs>
      <g transform="translate(214.4813 399.078438)scale(0.1 -0.1)">
       <use xlink:href="#DejaVuSans-8722"/>
       <use x="83.789062" xlink:href="#DejaVuSans-52"/>
      </g>
     </g>
    </g>
    <g id="xtick_3">
     <g id="line2d_3">
      <g>
       <use style="stroke:#000000;stroke-width:0.8;" x="288.17677" xlink:href="#m15be13f024" y="384.48"/>
      </g>
     </g>
     <g id="text_3">
      <!-- −2 -->
      <defs>
       <path d="M 19.1875 8.296875 
L 53.609375 8.296875 
L 53.609375 0 
L 7.328125 0 
L 7.328125 8.296875 
Q 12.9375 14.109375 22.625 23.890625 
Q 32.328125 33.6875 34.8125 36.53125 
Q 39.546875 41.84375 41.421875 45.53125 
Q 43.3125 49.21875 43.3125 52.78125 
Q 43.3125 58.59375 39.234375 62.25 
Q 35.15625 65.921875 28.609375 65.921875 
Q 23.96875 65.921875 18.8125 64.3125 
Q 13.671875 62.703125 7.8125 59.421875 
L 7.8125 69.390625 
Q 13.765625 71.78125 18.9375 73 
Q 24.125 74.21875 28.421875 74.21875 
Q 39.75 74.21875 46.484375 68.546875 
Q 53.21875 62.890625 53.21875 53.421875 
Q 53.21875 48.921875 51.53125 44.890625 
Q 49.859375 40.875 45.40625 35.40625 
Q 44.1875 33.984375 37.640625 27.21875 
Q 31.109375 20.453125 19.1875 8.296875 
z
" id="DejaVuSans-50"/>
      </defs>
      <g transform="translate(280.805676 399.078438)scale(0.1 -0.1)">
       <use xlink:href="#DejaVuSans-8722"/>
       <use x="83.789062" xlink:href="#DejaVuSans-50"/>
      </g>
     </g>
    </g>
    <g id="xtick_4">
     <g id="line2d_4">
      <g>
       <use style="stroke:#000000;stroke-width:0.8;" x="354.501145" xlink:href="#m15be13f024" y="384.48"/>
      </g>
     </g>
     <g id="text_4">
      <!-- 0 -->
      <defs>
       <path d="M 31.78125 66.40625 
Q 24.171875 66.40625 20.328125 58.90625 
Q 16.5 51.421875 16.5 36.375 
Q 16.5 21.390625 20.328125 13.890625 
Q 24.171875 6.390625 31.78125 6.390625 
Q 39.453125 6.390625 43.28125 13.890625 
Q 47.125 21.390625 47.125 36.375 
Q 47.125 51.421875 43.28125 58.90625 
Q 39.453125 66.40625 31.78125 66.40625 
z
M 31.78125 74.21875 
Q 44.046875 74.21875 50.515625 64.515625 
Q 56.984375 54.828125 56.984375 36.375 
Q 56.984375 17.96875 50.515625 8.265625 
Q 44.046875 -1.421875 31.78125 -1.421875 
Q 19.53125 -1.421875 13.0625 8.265625 
Q 6.59375 17.96875 6.59375 36.375 
Q 6.59375 54.828125 13.0625 64.515625 
Q 19.53125 74.21875 31.78125 74.21875 
z
" id="DejaVuSans-48"/>
      </defs>
      <g transform="translate(351.319895 399.078438)scale(0.1 -0.1)">
       <use xlink:href="#DejaVuSans-48"/>
      </g>
     </g>
    </g>
    <g id="xtick_5">
     <g id="line2d_5">
      <g>
       <use style="stroke:#000000;stroke-width:0.8;" x="420.82552" xlink:href="#m15be13f024" y="384.48"/>
      </g>
     </g>
     <g id="text_5">
      <!-- 2 -->
      <g transform="translate(417.64427 399.078438)scale(0.1 -0.1)">
       <use xlink:href="#DejaVuSans-50"/>
      </g>
     </g>
    </g>
    <g id="xtick_6">
     <g id="line2d_6">
      <g>
       <use style="stroke:#000000;stroke-width:0.8;" x="487.149896" xlink:href="#m15be13f024" y="384.48"/>
      </g>
     </g>
     <g id="text_6">
      <!-- 4 -->
      <g transform="translate(483.968646 399.078438)scale(0.1 -0.1)">
       <use xlink:href="#DejaVuSans-52"/>
      </g>
     </g>
    </g>
    <g id="xtick_7">
     <g id="line2d_7">
      <g>
       <use style="stroke:#000000;stroke-width:0.8;" x="553.474271" xlink:href="#m15be13f024" y="384.48"/>
      </g>
     </g>
     <g id="text_7">
      <!-- 6 -->
      <g transform="translate(550.293021 399.078438)scale(0.1 -0.1)">
       <use xlink:href="#DejaVuSans-54"/>
      </g>
     </g>
    </g>
    <g id="xtick_8">
     <g id="line2d_8">
      <g>
       <use style="stroke:#000000;stroke-width:0.8;" x="619.798646" xlink:href="#m15be13f024" y="384.48"/>
      </g>
     </g>
     <g id="text_8">
      <!-- 8 -->
      <defs>
       <path d="M 31.78125 34.625 
Q 24.75 34.625 20.71875 30.859375 
Q 16.703125 27.09375 16.703125 20.515625 
Q 16.703125 13.921875 20.71875 10.15625 
Q 24.75 6.390625 31.78125 6.390625 
Q 38.8125 6.390625 42.859375 10.171875 
Q 46.921875 13.96875 46.921875 20.515625 
Q 46.921875 27.09375 42.890625 30.859375 
Q 38.875 34.625 31.78125 34.625 
z
M 21.921875 38.8125 
Q 15.578125 40.375 12.03125 44.71875 
Q 8.5 49.078125 8.5 55.328125 
Q 8.5 64.0625 14.71875 69.140625 
Q 20.953125 74.21875 31.78125 74.21875 
Q 42.671875 74.21875 48.875 69.140625 
Q 55.078125 64.0625 55.078125 55.328125 
Q 55.078125 49.078125 51.53125 44.71875 
Q 48 40.375 41.703125 38.8125 
Q 48.828125 37.15625 52.796875 32.3125 
Q 56.78125 27.484375 56.78125 20.515625 
Q 56.78125 9.90625 50.3125 4.234375 
Q 43.84375 -1.421875 31.78125 -1.421875 
Q 19.734375 -1.421875 13.25 4.234375 
Q 6.78125 9.90625 6.78125 20.515625 
Q 6.78125 27.484375 10.78125 32.3125 
Q 14.796875 37.15625 21.921875 38.8125 
z
M 18.3125 54.390625 
Q 18.3125 48.734375 21.84375 45.5625 
Q 25.390625 42.390625 31.78125 42.390625 
Q 38.140625 42.390625 41.71875 45.5625 
Q 45.3125 48.734375 45.3125 54.390625 
Q 45.3125 60.0625 41.71875 63.234375 
Q 38.140625 66.40625 31.78125 66.40625 
Q 25.390625 66.40625 21.84375 63.234375 
Q 18.3125 60.0625 18.3125 54.390625 
z
" id="DejaVuSans-56"/>
      </defs>
      <g transform="translate(616.617396 399.078438)scale(0.1 -0.1)">
       <use xlink:href="#DejaVuSans-56"/>
      </g>
     </g>
    </g>
    <g id="text_9">
     <!-- tSNE-1 -->
     <defs>
      <path d="M 18.3125 70.21875 
L 18.3125 54.6875 
L 36.8125 54.6875 
L 36.8125 47.703125 
L 18.3125 47.703125 
L 18.3125 18.015625 
Q 18.3125 11.328125 20.140625 9.421875 
Q 21.96875 7.515625 27.59375 7.515625 
L 36.8125 7.515625 
L 36.8125 0 
L 27.59375 0 
Q 17.1875 0 13.234375 3.875 
Q 9.28125 7.765625 9.28125 18.015625 
L 9.28125 47.703125 
L 2.6875 47.703125 
L 2.6875 54.6875 
L 9.28125 54.6875 
L 9.28125 70.21875 
z
" id="DejaVuSans-116"/>
      <path d="M 53.515625 70.515625 
L 53.515625 60.890625 
Q 47.90625 63.578125 42.921875 64.890625 
Q 37.9375 66.21875 33.296875 66.21875 
Q 25.25 66.21875 20.875 63.09375 
Q 16.5 59.96875 16.5 54.203125 
Q 16.5 49.359375 19.40625 46.890625 
Q 22.3125 44.4375 30.421875 42.921875 
L 36.375 41.703125 
Q 47.40625 39.59375 52.65625 34.296875 
Q 57.90625 29 57.90625 20.125 
Q 57.90625 9.515625 50.796875 4.046875 
Q 43.703125 -1.421875 29.984375 -1.421875 
Q 24.8125 -1.421875 18.96875 -0.25 
Q 13.140625 0.921875 6.890625 3.21875 
L 6.890625 13.375 
Q 12.890625 10.015625 18.65625 8.296875 
Q 24.421875 6.59375 29.984375 6.59375 
Q 38.421875 6.59375 43.015625 9.90625 
Q 47.609375 13.234375 47.609375 19.390625 
Q 47.609375 24.75 44.3125 27.78125 
Q 41.015625 30.8125 33.5 32.328125 
L 27.484375 33.5 
Q 16.453125 35.6875 11.515625 40.375 
Q 6.59375 45.0625 6.59375 53.421875 
Q 6.59375 63.09375 13.40625 68.65625 
Q 20.21875 74.21875 32.171875 74.21875 
Q 37.3125 74.21875 42.625 73.28125 
Q 47.953125 72.359375 53.515625 70.515625 
z
" id="DejaVuSans-83"/>
      <path d="M 9.8125 72.90625 
L 23.09375 72.90625 
L 55.421875 11.921875 
L 55.421875 72.90625 
L 64.984375 72.90625 
L 64.984375 0 
L 51.703125 0 
L 19.390625 60.984375 
L 19.390625 0 
L 9.8125 0 
z
" id="DejaVuSans-78"/>
      <path d="M 9.8125 72.90625 
L 55.90625 72.90625 
L 55.90625 64.59375 
L 19.671875 64.59375 
L 19.671875 43.015625 
L 54.390625 43.015625 
L 54.390625 34.71875 
L 19.671875 34.71875 
L 19.671875 8.296875 
L 56.78125 8.296875 
L 56.78125 0 
L 9.8125 0 
z
" id="DejaVuSans-69"/>
      <path d="M 4.890625 31.390625 
L 31.203125 31.390625 
L 31.203125 23.390625 
L 4.890625 23.390625 
z
" id="DejaVuSans-45"/>
      <path d="M 12.40625 8.296875 
L 28.515625 8.296875 
L 28.515625 63.921875 
L 10.984375 60.40625 
L 10.984375 69.390625 
L 28.421875 72.90625 
L 38.28125 72.90625 
L 38.28125 8.296875 
L 54.390625 8.296875 
L 54.390625 0 
L 12.40625 0 
z
" id="DejaVuSans-49"/>
     </defs>
     <g transform="translate(351.980469 412.756563)scale(0.1 -0.1)">
      <use xlink:href="#DejaVuSans-116"/>
      <use x="39.208984" xlink:href="#DejaVuSans-83"/>
      <use x="102.685547" xlink:href="#DejaVuSans-78"/>
      <use x="177.490234" xlink:href="#DejaVuSans-69"/>
      <use x="240.673828" xlink:href="#DejaVuSans-45"/>
      <use x="276.757812" xlink:href="#DejaVuSans-49"/>
     </g>
    </g>
   </g>
   <g id="matplotlib.axis_2">
    <g id="ytick_1">
     <g id="line2d_9">
      <defs>
       <path d="M 0 0 
L -3.5 0 
" id="m83e92a8550" style="stroke:#000000;stroke-width:0.8;"/>
      </defs>
      <g>
       <use style="stroke:#000000;stroke-width:0.8;" x="90" xlink:href="#m83e92a8550" y="377.700088"/>
      </g>
     </g>
     <g id="text_10">
      <!-- −10 -->
      <g transform="translate(61.895313 381.499307)scale(0.1 -0.1)">
       <use xlink:href="#DejaVuSans-8722"/>
       <use x="83.789062" xlink:href="#DejaVuSans-49"/>
       <use x="147.412109" xlink:href="#DejaVuSans-48"/>
      </g>
     </g>
    </g>
    <g id="ytick_2">
     <g id="line2d_10">
      <g>
       <use style="stroke:#000000;stroke-width:0.8;" x="90" xlink:href="#m83e92a8550" y="311.450267"/>
      </g>
     </g>
     <g id="text_11">
      <!-- −5 -->
      <defs>
       <path d="M 10.796875 72.90625 
L 49.515625 72.90625 
L 49.515625 64.59375 
L 19.828125 64.59375 
L 19.828125 46.734375 
Q 21.96875 47.46875 24.109375 47.828125 
Q 26.265625 48.1875 28.421875 48.1875 
Q 40.625 48.1875 47.75 41.5 
Q 54.890625 34.8125 54.890625 23.390625 
Q 54.890625 11.625 47.5625 5.09375 
Q 40.234375 -1.421875 26.90625 -1.421875 
Q 22.3125 -1.421875 17.546875 -0.640625 
Q 12.796875 0.140625 7.71875 1.703125 
L 7.71875 11.625 
Q 12.109375 9.234375 16.796875 8.0625 
Q 21.484375 6.890625 26.703125 6.890625 
Q 35.15625 6.890625 40.078125 11.328125 
Q 45.015625 15.765625 45.015625 23.390625 
Q 45.015625 31 40.078125 35.4375 
Q 35.15625 39.890625 26.703125 39.890625 
Q 22.75 39.890625 18.8125 39.015625 
Q 14.890625 38.140625 10.796875 36.28125 
z
" id="DejaVuSans-53"/>
      </defs>
      <g transform="translate(68.257812 315.249486)scale(0.1 -0.1)">
       <use xlink:href="#DejaVuSans-8722"/>
       <use x="83.789062" xlink:href="#DejaVuSans-53"/>
      </g>
     </g>
    </g>
    <g id="ytick_3">
     <g id="line2d_11">
      <g>
       <use style="stroke:#000000;stroke-width:0.8;" x="90" xlink:href="#m83e92a8550" y="245.200446"/>
      </g>
     </g>
     <g id="text_12">
      <!-- 0 -->
      <g transform="translate(76.6375 248.999665)scale(0.1 -0.1)">
       <use xlink:href="#DejaVuSans-48"/>
      </g>
     </g>
    </g>
    <g id="ytick_4">
     <g id="line2d_12">
      <g>
       <use style="stroke:#000000;stroke-width:0.8;" x="90" xlink:href="#m83e92a8550" y="178.950625"/>
      </g>
     </g>
     <g id="text_13">
      <!-- 5 -->
      <g transform="translate(76.6375 182.749844)scale(0.1 -0.1)">
       <use xlink:href="#DejaVuSans-53"/>
      </g>
     </g>
    </g>
    <g id="ytick_5">
     <g id="line2d_13">
      <g>
       <use style="stroke:#000000;stroke-width:0.8;" x="90" xlink:href="#m83e92a8550" y="112.700804"/>
      </g>
     </g>
     <g id="text_14">
      <!-- 10 -->
      <g transform="translate(70.275 116.500023)scale(0.1 -0.1)">
       <use xlink:href="#DejaVuSans-49"/>
       <use x="63.623047" xlink:href="#DejaVuSans-48"/>
      </g>
     </g>
    </g>
    <g id="text_15">
     <!-- tSNE-2 -->
     <g transform="translate(55.815625 235.179531)rotate(-90)scale(0.1 -0.1)">
      <use xlink:href="#DejaVuSans-116"/>
      <use x="39.208984" xlink:href="#DejaVuSans-83"/>
      <use x="102.685547" xlink:href="#DejaVuSans-78"/>
      <use x="177.490234" xlink:href="#DejaVuSans-69"/>
      <use x="240.673828" xlink:href="#DejaVuSans-45"/>
      <use x="276.757812" xlink:href="#DejaVuSans-50"/>
     </g>
    </g>
   </g>
   <g id="patch_3">
    <path d="M 90 384.48 
L 90 51.84 
" style="fill:none;stroke:#000000;stroke-linecap:square;stroke-linejoin:miter;stroke-width:0.8;"/>
   </g>
   <g id="patch_4">
    <path d="M 648 384.48 
L 648 51.84 
" style="fill:none;stroke:#000000;stroke-linecap:square;stroke-linejoin:miter;stroke-width:0.8;"/>
   </g>
   <g id="patch_5">
    <path d="M 90 384.48 
L 648 384.48 
" style="fill:none;stroke:#000000;stroke-linecap:square;stroke-linejoin:miter;stroke-width:0.8;"/>
   </g>
   <g id="patch_6">
    <path d="M 90 51.84 
L 648 51.84 
" style="fill:none;stroke:#000000;stroke-linecap:square;stroke-linejoin:miter;stroke-width:0.8;"/>
   </g>
   <g id="legend_1">
    <g id="patch_7">
     <path d="M 563.125 89.19625 
L 641 89.19625 
Q 643 89.19625 643 87.19625 
L 643 58.84 
Q 643 56.84 641 56.84 
L 563.125 56.84 
Q 561.125 56.84 561.125 58.84 
L 561.125 87.19625 
Q 561.125 89.19625 563.125 89.19625 
z
" style="fill:#ffffff;opacity:0.8;stroke:#cccccc;stroke-linejoin:miter;"/>
    </g>
    <g id="PathCollection_3">
     <g>
      <use style="fill:#00bfc4;stroke:#00bfc4;" x="575.125" xlink:href="#me7dc61586c" y="65.813437"/>
     </g>
    </g>
    <g id="text_16">
     <!-- D006262 -->
     <defs>
      <path d="M 19.671875 64.796875 
L 19.671875 8.109375 
L 31.59375 8.109375 
Q 46.6875 8.109375 53.6875 14.9375 
Q 60.6875 21.78125 60.6875 36.53125 
Q 60.6875 51.171875 53.6875 57.984375 
Q 46.6875 64.796875 31.59375 64.796875 
z
M 9.8125 72.90625 
L 30.078125 72.90625 
Q 51.265625 72.90625 61.171875 64.09375 
Q 71.09375 55.28125 71.09375 36.53125 
Q 71.09375 17.671875 61.125 8.828125 
Q 51.171875 0 30.078125 0 
L 9.8125 0 
z
" id="DejaVuSans-68"/>
     </defs>
     <g transform="translate(593.125 68.438437)scale(0.1 -0.1)">
      <use xlink:href="#DejaVuSans-68"/>
      <use x="77.001953" xlink:href="#DejaVuSans-48"/>
      <use x="140.625" xlink:href="#DejaVuSans-48"/>
      <use x="204.248047" xlink:href="#DejaVuSans-54"/>
      <use x="267.871094" xlink:href="#DejaVuSans-50"/>
      <use x="331.494141" xlink:href="#DejaVuSans-54"/>
      <use x="395.117188" xlink:href="#DejaVuSans-50"/>
     </g>
    </g>
    <g id="PathCollection_4">
     <g>
      <use style="fill:#f8766d;stroke:#f8766d;" x="575.125" xlink:href="#mecf1a7e232" y="80.491562"/>
     </g>
    </g>
    <g id="text_17">
     <!-- D010300 -->
     <defs>
      <path d="M 40.578125 39.3125 
Q 47.65625 37.796875 51.625 33 
Q 55.609375 28.21875 55.609375 21.1875 
Q 55.609375 10.40625 48.1875 4.484375 
Q 40.765625 -1.421875 27.09375 -1.421875 
Q 22.515625 -1.421875 17.65625 -0.515625 
Q 12.796875 0.390625 7.625 2.203125 
L 7.625 11.71875 
Q 11.71875 9.328125 16.59375 8.109375 
Q 21.484375 6.890625 26.8125 6.890625 
Q 36.078125 6.890625 40.9375 10.546875 
Q 45.796875 14.203125 45.796875 21.1875 
Q 45.796875 27.640625 41.28125 31.265625 
Q 36.765625 34.90625 28.71875 34.90625 
L 20.21875 34.90625 
L 20.21875 43.015625 
L 29.109375 43.015625 
Q 36.375 43.015625 40.234375 45.921875 
Q 44.09375 48.828125 44.09375 54.296875 
Q 44.09375 59.90625 40.109375 62.90625 
Q 36.140625 65.921875 28.71875 65.921875 
Q 24.65625 65.921875 20.015625 65.03125 
Q 15.375 64.15625 9.8125 62.3125 
L 9.8125 71.09375 
Q 15.4375 72.65625 20.34375 73.4375 
Q 25.25 74.21875 29.59375 74.21875 
Q 40.828125 74.21875 47.359375 69.109375 
Q 53.90625 64.015625 53.90625 55.328125 
Q 53.90625 49.265625 50.4375 45.09375 
Q 46.96875 40.921875 40.578125 39.3125 
z
" id="DejaVuSans-51"/>
     </defs>
     <g transform="translate(593.125 83.116562)scale(0.1 -0.1)">
      <use xlink:href="#DejaVuSans-68"/>
      <use x="77.001953" xlink:href="#DejaVuSans-48"/>
      <use x="140.625" xlink:href="#DejaVuSans-49"/>
      <use x="204.248047" xlink:href="#DejaVuSans-48"/>
      <use x="267.871094" xlink:href="#DejaVuSans-51"/>
      <use x="331.494141" xlink:href="#DejaVuSans-48"/>
      <use x="395.117188" xlink:href="#DejaVuSans-48"/>
     </g>
    </g>
   </g>
  </g>
 </g>
 <defs>
  <clipPath id="pc7f57f9c64">
   <rect height="332.64" width="558" x="90" y="51.84"/>
  </clipPath>
 </defs>
</svg>
