<?xml version="1.0" encoding="utf-8" standalone="no"?>
<!DOCTYPE svg PUBLIC "-//W3C//DTD SVG 1.1//EN"
  "http://www.w3.org/Graphics/SVG/1.1/DTD/svg11.dtd">
<!-- Created with matplotlib (https://matplotlib.org/) -->
<svg height="432pt" version="1.1" viewBox="0 0 720 432" width="720pt" xmlns="http://www.w3.org/2000/svg" xmlns:xlink="http://www.w3.org/1999/xlink">
 <defs>
  <style type="text/css">
*{stroke-linecap:butt;stroke-linejoin:round;}
  </style>
 </defs>
 <g id="figure_1">
  <g id="patch_1">
   <path d="M 0 432 
L 720 432 
L 720 0 
L 0 0 
z
" style="fill:#ffffff;"/>
  </g>
  <g id="axes_1">
   <g id="patch_2">
    <path d="M 90 384.48 
L 648 384.48 
L 648 51.84 
L 90 51.84 
z
" style="fill:#ffffff;"/>
   </g>
   <g id="PathCollection_1">
    <defs>
     <path d="M 0 3 
C 0.795609 3 1.55874 2.683901 2.12132 2.12132 
C 2.683901 1.55874 3 0.795609 3 0 
C 3 -0.795609 2.683901 -1.55874 2.12132 -2.12132 
C 1.55874 -2.683901 0.795609 -3 0 -3 
C -0.795609 -3 -1.55874 -2.683901 -2.12132 -2.12132 
C -2.683901 -1.55874 -3 -0.795609 -3 0 
C -3 0.795609 -2.683901 1.55874 -2.12132 2.12132 
C -1.55874 2.683901 -0.795609 3 0 3 
z
" id="m3aeb07c388" style="stroke:#00bfc4;"/>
    </defs>
    <g clip-path="url(#pe2d8528c1d)">
     <use style="fill:#00bfc4;stroke:#00bfc4;" x="491.845144" xlink:href="#m3aeb07c388" y="140.397988"/>
     <use style="fill:#00bfc4;stroke:#00bfc4;" x="319.578357" xlink:href="#m3aeb07c388" y="225.9909"/>
     <use style="fill:#00bfc4;stroke:#00bfc4;" x="453.918251" xlink:href="#m3aeb07c388" y="164.84063"/>
     <use style="fill:#00bfc4;stroke:#00bfc4;" x="471.34464" xlink:href="#m3aeb07c388" y="170.742368"/>
     <use style="fill:#00bfc4;stroke:#00bfc4;" x="461.692793" xlink:href="#m3aeb07c388" y="177.023206"/>
     <use style="fill:#00bfc4;stroke:#00bfc4;" x="527.413632" xlink:href="#m3aeb07c388" y="124.14219"/>
     <use style="fill:#00bfc4;stroke:#00bfc4;" x="523.59798" xlink:href="#m3aeb07c388" y="184.38781"/>
     <use style="fill:#00bfc4;stroke:#00bfc4;" x="472.968541" xlink:href="#m3aeb07c388" y="173.736477"/>
     <use style="fill:#00bfc4;stroke:#00bfc4;" x="479.730872" xlink:href="#m3aeb07c388" y="196.928853"/>
     <use style="fill:#00bfc4;stroke:#00bfc4;" x="473.12328" xlink:href="#m3aeb07c388" y="173.672398"/>
     <use style="fill:#00bfc4;stroke:#00bfc4;" x="496.109606" xlink:href="#m3aeb07c388" y="174.511437"/>
     <use style="fill:#00bfc4;stroke:#00bfc4;" x="457.151959" xlink:href="#m3aeb07c388" y="165.196545"/>
     <use style="fill:#00bfc4;stroke:#00bfc4;" x="473.094121" xlink:href="#m3aeb07c388" y="173.668959"/>
     <use style="fill:#00bfc4;stroke:#00bfc4;" x="419.103667" xlink:href="#m3aeb07c388" y="122.645669"/>
     <use style="fill:#00bfc4;stroke:#00bfc4;" x="441.566407" xlink:href="#m3aeb07c388" y="153.831002"/>
     <use style="fill:#00bfc4;stroke:#00bfc4;" x="425.587186" xlink:href="#m3aeb07c388" y="147.327927"/>
     <use style="fill:#00bfc4;stroke:#00bfc4;" x="476.006416" xlink:href="#m3aeb07c388" y="210.921356"/>
     <use style="fill:#00bfc4;stroke:#00bfc4;" x="481.813021" xlink:href="#m3aeb07c388" y="113.245947"/>
     <use style="fill:#00bfc4;stroke:#00bfc4;" x="402.126635" xlink:href="#m3aeb07c388" y="145.149314"/>
     <use style="fill:#00bfc4;stroke:#00bfc4;" x="232.703995" xlink:href="#m3aeb07c388" y="160.752609"/>
     <use style="fill:#00bfc4;stroke:#00bfc4;" x="449.563773" xlink:href="#m3aeb07c388" y="269.410572"/>
     <use style="fill:#00bfc4;stroke:#00bfc4;" x="540.752732" xlink:href="#m3aeb07c388" y="160.083229"/>
     <use style="fill:#00bfc4;stroke:#00bfc4;" x="185.904318" xlink:href="#m3aeb07c388" y="228.261912"/>
     <use style="fill:#00bfc4;stroke:#00bfc4;" x="395.981257" xlink:href="#m3aeb07c388" y="200.335421"/>
     <use style="fill:#00bfc4;stroke:#00bfc4;" x="260.39843" xlink:href="#m3aeb07c388" y="279.798807"/>
     <use style="fill:#00bfc4;stroke:#00bfc4;" x="287.022138" xlink:href="#m3aeb07c388" y="244.912248"/>
     <use style="fill:#00bfc4;stroke:#00bfc4;" x="235.002881" xlink:href="#m3aeb07c388" y="230.843482"/>
     <use style="fill:#00bfc4;stroke:#00bfc4;" x="291.433968" xlink:href="#m3aeb07c388" y="197.086272"/>
     <use style="fill:#00bfc4;stroke:#00bfc4;" x="218.300616" xlink:href="#m3aeb07c388" y="149.597101"/>
     <use style="fill:#00bfc4;stroke:#00bfc4;" x="390.21832" xlink:href="#m3aeb07c388" y="313.093508"/>
     <use style="fill:#00bfc4;stroke:#00bfc4;" x="391.370669" xlink:href="#m3aeb07c388" y="92.255984"/>
     <use style="fill:#00bfc4;stroke:#00bfc4;" x="313.005737" xlink:href="#m3aeb07c388" y="307.188585"/>
     <use style="fill:#00bfc4;stroke:#00bfc4;" x="182.586292" xlink:href="#m3aeb07c388" y="238.514357"/>
     <use style="fill:#00bfc4;stroke:#00bfc4;" x="458.089121" xlink:href="#m3aeb07c388" y="205.822756"/>
     <use style="fill:#00bfc4;stroke:#00bfc4;" x="429.447154" xlink:href="#m3aeb07c388" y="205.784245"/>
     <use style="fill:#00bfc4;stroke:#00bfc4;" x="490.923733" xlink:href="#m3aeb07c388" y="278.674489"/>
     <use style="fill:#00bfc4;stroke:#00bfc4;" x="356.642828" xlink:href="#m3aeb07c388" y="280.644444"/>
     <use style="fill:#00bfc4;stroke:#00bfc4;" x="436.248771" xlink:href="#m3aeb07c388" y="287.972133"/>
     <use style="fill:#00bfc4;stroke:#00bfc4;" x="398.086578" xlink:href="#m3aeb07c388" y="165.568765"/>
     <use style="fill:#00bfc4;stroke:#00bfc4;" x="423.593478" xlink:href="#m3aeb07c388" y="166.677755"/>
     <use style="fill:#00bfc4;stroke:#00bfc4;" x="343.255146" xlink:href="#m3aeb07c388" y="288.513105"/>
     <use style="fill:#00bfc4;stroke:#00bfc4;" x="306.866538" xlink:href="#m3aeb07c388" y="369.239909"/>
     <use style="fill:#00bfc4;stroke:#00bfc4;" x="423.089406" xlink:href="#m3aeb07c388" y="188.887038"/>
     <use style="fill:#00bfc4;stroke:#00bfc4;" x="515.511724" xlink:href="#m3aeb07c388" y="162.030931"/>
     <use style="fill:#00bfc4;stroke:#00bfc4;" x="517.371743" xlink:href="#m3aeb07c388" y="315.181986"/>
     <use style="fill:#00bfc4;stroke:#00bfc4;" x="224.038913" xlink:href="#m3aeb07c388" y="257.887979"/>
     <use style="fill:#00bfc4;stroke:#00bfc4;" x="318.967902" xlink:href="#m3aeb07c388" y="262.091063"/>
     <use style="fill:#00bfc4;stroke:#00bfc4;" x="300.906875" xlink:href="#m3aeb07c388" y="195.743897"/>
     <use style="fill:#00bfc4;stroke:#00bfc4;" x="470.998309" xlink:href="#m3aeb07c388" y="252.946593"/>
     <use style="fill:#00bfc4;stroke:#00bfc4;" x="225.079033" xlink:href="#m3aeb07c388" y="188.588719"/>
     <use style="fill:#00bfc4;stroke:#00bfc4;" x="514.333267" xlink:href="#m3aeb07c388" y="97.531648"/>
     <use style="fill:#00bfc4;stroke:#00bfc4;" x="351.202191" xlink:href="#m3aeb07c388" y="203.849514"/>
     <use style="fill:#00bfc4;stroke:#00bfc4;" x="174.562651" xlink:href="#m3aeb07c388" y="285.103904"/>
     <use style="fill:#00bfc4;stroke:#00bfc4;" x="473.185243" xlink:href="#m3aeb07c388" y="67.080091"/>
     <use style="fill:#00bfc4;stroke:#00bfc4;" x="442.715305" xlink:href="#m3aeb07c388" y="188.608549"/>
     <use style="fill:#00bfc4;stroke:#00bfc4;" x="453.962172" xlink:href="#m3aeb07c388" y="192.753558"/>
     <use style="fill:#00bfc4;stroke:#00bfc4;" x="416.771433" xlink:href="#m3aeb07c388" y="210.13794"/>
     <use style="fill:#00bfc4;stroke:#00bfc4;" x="487.744258" xlink:href="#m3aeb07c388" y="162.721391"/>
     <use style="fill:#00bfc4;stroke:#00bfc4;" x="195.585917" xlink:href="#m3aeb07c388" y="340.191978"/>
     <use style="fill:#00bfc4;stroke:#00bfc4;" x="210.192224" xlink:href="#m3aeb07c388" y="216.755127"/>
     <use style="fill:#00bfc4;stroke:#00bfc4;" x="282.208487" xlink:href="#m3aeb07c388" y="300.641402"/>
     <use style="fill:#00bfc4;stroke:#00bfc4;" x="331.877308" xlink:href="#m3aeb07c388" y="342.488577"/>
     <use style="fill:#00bfc4;stroke:#00bfc4;" x="277.287124" xlink:href="#m3aeb07c388" y="104.516126"/>
     <use style="fill:#00bfc4;stroke:#00bfc4;" x="190.937931" xlink:href="#m3aeb07c388" y="300.291827"/>
     <use style="fill:#00bfc4;stroke:#00bfc4;" x="498.263203" xlink:href="#m3aeb07c388" y="271.371078"/>
     <use style="fill:#00bfc4;stroke:#00bfc4;" x="337.370044" xlink:href="#m3aeb07c388" y="363.838057"/>
     <use style="fill:#00bfc4;stroke:#00bfc4;" x="395.764559" xlink:href="#m3aeb07c388" y="199.304085"/>
     <use style="fill:#00bfc4;stroke:#00bfc4;" x="515.788361" xlink:href="#m3aeb07c388" y="162.919971"/>
     <use style="fill:#00bfc4;stroke:#00bfc4;" x="210.605402" xlink:href="#m3aeb07c388" y="129.655169"/>
     <use style="fill:#00bfc4;stroke:#00bfc4;" x="266.050841" xlink:href="#m3aeb07c388" y="209.483697"/>
     <use style="fill:#00bfc4;stroke:#00bfc4;" x="471.193733" xlink:href="#m3aeb07c388" y="249.505274"/>
     <use style="fill:#00bfc4;stroke:#00bfc4;" x="450.76416" xlink:href="#m3aeb07c388" y="341.521187"/>
     <use style="fill:#00bfc4;stroke:#00bfc4;" x="504.522919" xlink:href="#m3aeb07c388" y="206.75081"/>
     <use style="fill:#00bfc4;stroke:#00bfc4;" x="447.150249" xlink:href="#m3aeb07c388" y="218.36146"/>
     <use style="fill:#00bfc4;stroke:#00bfc4;" x="378.785284" xlink:href="#m3aeb07c388" y="300.991733"/>
     <use style="fill:#00bfc4;stroke:#00bfc4;" x="402.433295" xlink:href="#m3aeb07c388" y="262.717343"/>
     <use style="fill:#00bfc4;stroke:#00bfc4;" x="510.639694" xlink:href="#m3aeb07c388" y="240.073138"/>
     <use style="fill:#00bfc4;stroke:#00bfc4;" x="361.416724" xlink:href="#m3aeb07c388" y="143.827129"/>
     <use style="fill:#00bfc4;stroke:#00bfc4;" x="226.617556" xlink:href="#m3aeb07c388" y="303.916406"/>
     <use style="fill:#00bfc4;stroke:#00bfc4;" x="266.228225" xlink:href="#m3aeb07c388" y="239.367683"/>
     <use style="fill:#00bfc4;stroke:#00bfc4;" x="196.208125" xlink:href="#m3aeb07c388" y="338.177293"/>
     <use style="fill:#00bfc4;stroke:#00bfc4;" x="343.507081" xlink:href="#m3aeb07c388" y="103.295953"/>
     <use style="fill:#00bfc4;stroke:#00bfc4;" x="330.749435" xlink:href="#m3aeb07c388" y="257.493606"/>
     <use style="fill:#00bfc4;stroke:#00bfc4;" x="115.459648" xlink:href="#m3aeb07c388" y="223.393784"/>
     <use style="fill:#00bfc4;stroke:#00bfc4;" x="589.049717" xlink:href="#m3aeb07c388" y="220.212451"/>
     <use style="fill:#00bfc4;stroke:#00bfc4;" x="347.722929" xlink:href="#m3aeb07c388" y="208.90178"/>
     <use style="fill:#00bfc4;stroke:#00bfc4;" x="593.959559" xlink:href="#m3aeb07c388" y="201.807545"/>
     <use style="fill:#00bfc4;stroke:#00bfc4;" x="298.690547" xlink:href="#m3aeb07c388" y="267.028946"/>
     <use style="fill:#00bfc4;stroke:#00bfc4;" x="282.602924" xlink:href="#m3aeb07c388" y="320.791738"/>
     <use style="fill:#00bfc4;stroke:#00bfc4;" x="375.891023" xlink:href="#m3aeb07c388" y="174.700227"/>
     <use style="fill:#00bfc4;stroke:#00bfc4;" x="328.138886" xlink:href="#m3aeb07c388" y="187.217828"/>
     <use style="fill:#00bfc4;stroke:#00bfc4;" x="248.591014" xlink:href="#m3aeb07c388" y="139.709541"/>
     <use style="fill:#00bfc4;stroke:#00bfc4;" x="382.529447" xlink:href="#m3aeb07c388" y="254.378099"/>
     <use style="fill:#00bfc4;stroke:#00bfc4;" x="292.500503" xlink:href="#m3aeb07c388" y="160.002167"/>
     <use style="fill:#00bfc4;stroke:#00bfc4;" x="514.026487" xlink:href="#m3aeb07c388" y="262.222062"/>
     <use style="fill:#00bfc4;stroke:#00bfc4;" x="297.42647" xlink:href="#m3aeb07c388" y="240.225306"/>
     <use style="fill:#00bfc4;stroke:#00bfc4;" x="195.331729" xlink:href="#m3aeb07c388" y="284.228868"/>
     <use style="fill:#00bfc4;stroke:#00bfc4;" x="386.156768" xlink:href="#m3aeb07c388" y="183.179696"/>
     <use style="fill:#00bfc4;stroke:#00bfc4;" x="180.08466" xlink:href="#m3aeb07c388" y="236.445873"/>
     <use style="fill:#00bfc4;stroke:#00bfc4;" x="491.108218" xlink:href="#m3aeb07c388" y="305.549241"/>
     <use style="fill:#00bfc4;stroke:#00bfc4;" x="430.076271" xlink:href="#m3aeb07c388" y="75.012253"/>
     <use style="fill:#00bfc4;stroke:#00bfc4;" x="183.903772" xlink:href="#m3aeb07c388" y="348.530312"/>
     <use style="fill:#00bfc4;stroke:#00bfc4;" x="247.992133" xlink:href="#m3aeb07c388" y="239.904935"/>
     <use style="fill:#00bfc4;stroke:#00bfc4;" x="494.005323" xlink:href="#m3aeb07c388" y="291.914876"/>
     <use style="fill:#00bfc4;stroke:#00bfc4;" x="188.157708" xlink:href="#m3aeb07c388" y="161.195301"/>
     <use style="fill:#00bfc4;stroke:#00bfc4;" x="281.33912" xlink:href="#m3aeb07c388" y="257.324735"/>
     <use style="fill:#00bfc4;stroke:#00bfc4;" x="391.027314" xlink:href="#m3aeb07c388" y="230.954957"/>
     <use style="fill:#00bfc4;stroke:#00bfc4;" x="324.174179" xlink:href="#m3aeb07c388" y="335.598647"/>
     <use style="fill:#00bfc4;stroke:#00bfc4;" x="286.306312" xlink:href="#m3aeb07c388" y="169.418093"/>
     <use style="fill:#00bfc4;stroke:#00bfc4;" x="370.980084" xlink:href="#m3aeb07c388" y="187.0706"/>
     <use style="fill:#00bfc4;stroke:#00bfc4;" x="590.597432" xlink:href="#m3aeb07c388" y="217.743876"/>
     <use style="fill:#00bfc4;stroke:#00bfc4;" x="425.766654" xlink:href="#m3aeb07c388" y="282.762947"/>
     <use style="fill:#00bfc4;stroke:#00bfc4;" x="335.137303" xlink:href="#m3aeb07c388" y="357.650336"/>
     <use style="fill:#00bfc4;stroke:#00bfc4;" x="389.196002" xlink:href="#m3aeb07c388" y="182.771046"/>
     <use style="fill:#00bfc4;stroke:#00bfc4;" x="286.811346" xlink:href="#m3aeb07c388" y="243.0152"/>
     <use style="fill:#00bfc4;stroke:#00bfc4;" x="533.648098" xlink:href="#m3aeb07c388" y="200.459474"/>
     <use style="fill:#00bfc4;stroke:#00bfc4;" x="193.578185" xlink:href="#m3aeb07c388" y="248.748795"/>
     <use style="fill:#00bfc4;stroke:#00bfc4;" x="492.266599" xlink:href="#m3aeb07c388" y="225.602801"/>
     <use style="fill:#00bfc4;stroke:#00bfc4;" x="116.322426" xlink:href="#m3aeb07c388" y="223.311514"/>
     <use style="fill:#00bfc4;stroke:#00bfc4;" x="225.325816" xlink:href="#m3aeb07c388" y="257.860127"/>
     <use style="fill:#00bfc4;stroke:#00bfc4;" x="277.837637" xlink:href="#m3aeb07c388" y="315.542467"/>
     <use style="fill:#00bfc4;stroke:#00bfc4;" x="293.447169" xlink:href="#m3aeb07c388" y="219.592039"/>
     <use style="fill:#00bfc4;stroke:#00bfc4;" x="169.764746" xlink:href="#m3aeb07c388" y="212.41718"/>
     <use style="fill:#00bfc4;stroke:#00bfc4;" x="212.92448" xlink:href="#m3aeb07c388" y="151.650923"/>
     <use style="fill:#00bfc4;stroke:#00bfc4;" x="255.473279" xlink:href="#m3aeb07c388" y="319.503333"/>
     <use style="fill:#00bfc4;stroke:#00bfc4;" x="430.554971" xlink:href="#m3aeb07c388" y="77.29934"/>
     <use style="fill:#00bfc4;stroke:#00bfc4;" x="159.199652" xlink:href="#m3aeb07c388" y="289.558252"/>
     <use style="fill:#00bfc4;stroke:#00bfc4;" x="414.934337" xlink:href="#m3aeb07c388" y="339.536646"/>
     <use style="fill:#00bfc4;stroke:#00bfc4;" x="336.102557" xlink:href="#m3aeb07c388" y="141.66768"/>
     <use style="fill:#00bfc4;stroke:#00bfc4;" x="309.252368" xlink:href="#m3aeb07c388" y="256.480044"/>
     <use style="fill:#00bfc4;stroke:#00bfc4;" x="359.684605" xlink:href="#m3aeb07c388" y="305.777266"/>
     <use style="fill:#00bfc4;stroke:#00bfc4;" x="327.479529" xlink:href="#m3aeb07c388" y="180.739796"/>
     <use style="fill:#00bfc4;stroke:#00bfc4;" x="300.622388" xlink:href="#m3aeb07c388" y="303.171526"/>
     <use style="fill:#00bfc4;stroke:#00bfc4;" x="353.03679" xlink:href="#m3aeb07c388" y="324.885828"/>
     <use style="fill:#00bfc4;stroke:#00bfc4;" x="356.52788" xlink:href="#m3aeb07c388" y="353.840687"/>
     <use style="fill:#00bfc4;stroke:#00bfc4;" x="350.128441" xlink:href="#m3aeb07c388" y="206.995803"/>
     <use style="fill:#00bfc4;stroke:#00bfc4;" x="472.513081" xlink:href="#m3aeb07c388" y="186.523884"/>
     <use style="fill:#00bfc4;stroke:#00bfc4;" x="419.499686" xlink:href="#m3aeb07c388" y="123.370851"/>
     <use style="fill:#00bfc4;stroke:#00bfc4;" x="455.070629" xlink:href="#m3aeb07c388" y="174.313362"/>
     <use style="fill:#00bfc4;stroke:#00bfc4;" x="493.341864" xlink:href="#m3aeb07c388" y="100.300445"/>
     <use style="fill:#00bfc4;stroke:#00bfc4;" x="498.527151" xlink:href="#m3aeb07c388" y="136.394775"/>
     <use style="fill:#00bfc4;stroke:#00bfc4;" x="480.575166" xlink:href="#m3aeb07c388" y="150.616609"/>
     <use style="fill:#00bfc4;stroke:#00bfc4;" x="463.257357" xlink:href="#m3aeb07c388" y="169.310994"/>
     <use style="fill:#00bfc4;stroke:#00bfc4;" x="457.025488" xlink:href="#m3aeb07c388" y="177.077795"/>
     <use style="fill:#00bfc4;stroke:#00bfc4;" x="505.685749" xlink:href="#m3aeb07c388" y="101.727878"/>
     <use style="fill:#00bfc4;stroke:#00bfc4;" x="461.06322" xlink:href="#m3aeb07c388" y="148.298477"/>
     <use style="fill:#00bfc4;stroke:#00bfc4;" x="472.89963" xlink:href="#m3aeb07c388" y="127.638869"/>
     <use style="fill:#00bfc4;stroke:#00bfc4;" x="514.700389" xlink:href="#m3aeb07c388" y="121.592276"/>
     <use style="fill:#00bfc4;stroke:#00bfc4;" x="458.317575" xlink:href="#m3aeb07c388" y="125.403245"/>
     <use style="fill:#00bfc4;stroke:#00bfc4;" x="455.590485" xlink:href="#m3aeb07c388" y="174.483988"/>
     <use style="fill:#00bfc4;stroke:#00bfc4;" x="475.543989" xlink:href="#m3aeb07c388" y="156.216176"/>
     <use style="fill:#00bfc4;stroke:#00bfc4;" x="466.123575" xlink:href="#m3aeb07c388" y="168.928507"/>
     <use style="fill:#00bfc4;stroke:#00bfc4;" x="461.616171" xlink:href="#m3aeb07c388" y="142.624941"/>
     <use style="fill:#00bfc4;stroke:#00bfc4;" x="439.343967" xlink:href="#m3aeb07c388" y="166.940683"/>
     <use style="fill:#00bfc4;stroke:#00bfc4;" x="452.541488" xlink:href="#m3aeb07c388" y="118.171802"/>
     <use style="fill:#00bfc4;stroke:#00bfc4;" x="466.216954" xlink:href="#m3aeb07c388" y="177.343848"/>
     <use style="fill:#00bfc4;stroke:#00bfc4;" x="454.972245" xlink:href="#m3aeb07c388" y="126.841187"/>
     <use style="fill:#00bfc4;stroke:#00bfc4;" x="484.841196" xlink:href="#m3aeb07c388" y="125.235327"/>
     <use style="fill:#00bfc4;stroke:#00bfc4;" x="524.175955" xlink:href="#m3aeb07c388" y="187.944569"/>
     <use style="fill:#00bfc4;stroke:#00bfc4;" x="525.937622" xlink:href="#m3aeb07c388" y="264.439865"/>
     <use style="fill:#00bfc4;stroke:#00bfc4;" x="407.522111" xlink:href="#m3aeb07c388" y="104.569777"/>
     <use style="fill:#00bfc4;stroke:#00bfc4;" x="198.761023" xlink:href="#m3aeb07c388" y="195.677474"/>
     <use style="fill:#00bfc4;stroke:#00bfc4;" x="554.846319" xlink:href="#m3aeb07c388" y="176.520829"/>
     <use style="fill:#00bfc4;stroke:#00bfc4;" x="554.68653" xlink:href="#m3aeb07c388" y="117.820228"/>
     <use style="fill:#00bfc4;stroke:#00bfc4;" x="182.605948" xlink:href="#m3aeb07c388" y="302.127424"/>
     <use style="fill:#00bfc4;stroke:#00bfc4;" x="403.464638" xlink:href="#m3aeb07c388" y="284.118463"/>
     <use style="fill:#00bfc4;stroke:#00bfc4;" x="247.485564" xlink:href="#m3aeb07c388" y="220.563773"/>
     <use style="fill:#00bfc4;stroke:#00bfc4;" x="148.642471" xlink:href="#m3aeb07c388" y="258.093881"/>
     <use style="fill:#00bfc4;stroke:#00bfc4;" x="253.454413" xlink:href="#m3aeb07c388" y="337.147044"/>
     <use style="fill:#00bfc4;stroke:#00bfc4;" x="325.096561" xlink:href="#m3aeb07c388" y="240.746734"/>
     <use style="fill:#00bfc4;stroke:#00bfc4;" x="294.76963" xlink:href="#m3aeb07c388" y="343.794728"/>
     <use style="fill:#00bfc4;stroke:#00bfc4;" x="303.09406" xlink:href="#m3aeb07c388" y="291.461187"/>
     <use style="fill:#00bfc4;stroke:#00bfc4;" x="452.163007" xlink:href="#m3aeb07c388" y="341.944254"/>
     <use style="fill:#00bfc4;stroke:#00bfc4;" x="244.176875" xlink:href="#m3aeb07c388" y="351.137751"/>
     <use style="fill:#00bfc4;stroke:#00bfc4;" x="226.232443" xlink:href="#m3aeb07c388" y="205.975409"/>
     <use style="fill:#00bfc4;stroke:#00bfc4;" x="406.609372" xlink:href="#m3aeb07c388" y="266.582213"/>
     <use style="fill:#00bfc4;stroke:#00bfc4;" x="253.859746" xlink:href="#m3aeb07c388" y="280.708926"/>
     <use style="fill:#00bfc4;stroke:#00bfc4;" x="336.844156" xlink:href="#m3aeb07c388" y="364.57797"/>
     <use style="fill:#00bfc4;stroke:#00bfc4;" x="244.447453" xlink:href="#m3aeb07c388" y="290.931147"/>
     <use style="fill:#00bfc4;stroke:#00bfc4;" x="580.360038" xlink:href="#m3aeb07c388" y="232.533084"/>
     <use style="fill:#00bfc4;stroke:#00bfc4;" x="433.139701" xlink:href="#m3aeb07c388" y="248.005035"/>
     <use style="fill:#00bfc4;stroke:#00bfc4;" x="261.57236" xlink:href="#m3aeb07c388" y="133.49848"/>
     <use style="fill:#00bfc4;stroke:#00bfc4;" x="536.385014" xlink:href="#m3aeb07c388" y="215.43457"/>
     <use style="fill:#00bfc4;stroke:#00bfc4;" x="485.596689" xlink:href="#m3aeb07c388" y="310.944416"/>
     <use style="fill:#00bfc4;stroke:#00bfc4;" x="277.940811" xlink:href="#m3aeb07c388" y="208.070138"/>
     <use style="fill:#00bfc4;stroke:#00bfc4;" x="543.282081" xlink:href="#m3aeb07c388" y="320.055186"/>
     <use style="fill:#00bfc4;stroke:#00bfc4;" x="403.340281" xlink:href="#m3aeb07c388" y="231.245979"/>
    </g>
   </g>
   <g id="PathCollection_2">
    <defs>
     <path d="M 0 3 
C 0.795609 3 1.55874 2.683901 2.12132 2.12132 
C 2.683901 1.55874 3 0.795609 3 0 
C 3 -0.795609 2.683901 -1.55874 2.12132 -2.12132 
C 1.55874 -2.683901 0.795609 -3 0 -3 
C -0.795609 -3 -1.55874 -2.683901 -2.12132 -2.12132 
C -2.683901 -1.55874 -3 -0.795609 -3 0 
C -3 0.795609 -2.683901 1.55874 -2.12132 2.12132 
C -1.55874 2.683901 -0.795609 3 0 3 
z
" id="md5590014a5" style="stroke:#f8766d;"/>
    </defs>
    <g clip-path="url(#pe2d8528c1d)">
     <use style="fill:#f8766d;stroke:#f8766d;" x="350.591062" xlink:href="#md5590014a5" y="330.045183"/>
     <use style="fill:#f8766d;stroke:#f8766d;" x="239.420936" xlink:href="#md5590014a5" y="201.988212"/>
     <use style="fill:#f8766d;stroke:#f8766d;" x="379.285683" xlink:href="#md5590014a5" y="124.369371"/>
     <use style="fill:#f8766d;stroke:#f8766d;" x="595.33431" xlink:href="#md5590014a5" y="211.670193"/>
     <use style="fill:#f8766d;stroke:#f8766d;" x="497.962872" xlink:href="#md5590014a5" y="187.551892"/>
     <use style="fill:#f8766d;stroke:#f8766d;" x="524.35419" xlink:href="#md5590014a5" y="141.965893"/>
     <use style="fill:#f8766d;stroke:#f8766d;" x="542.31304" xlink:href="#md5590014a5" y="320.065038"/>
     <use style="fill:#f8766d;stroke:#f8766d;" x="161.918894" xlink:href="#md5590014a5" y="275.040063"/>
     <use style="fill:#f8766d;stroke:#f8766d;" x="246.196478" xlink:href="#md5590014a5" y="298.209352"/>
     <use style="fill:#f8766d;stroke:#f8766d;" x="388.420513" xlink:href="#md5590014a5" y="224.128088"/>
     <use style="fill:#f8766d;stroke:#f8766d;" x="581.161219" xlink:href="#md5590014a5" y="152.875252"/>
     <use style="fill:#f8766d;stroke:#f8766d;" x="288.914858" xlink:href="#md5590014a5" y="203.285164"/>
     <use style="fill:#f8766d;stroke:#f8766d;" x="620.598062" xlink:href="#md5590014a5" y="174.533978"/>
     <use style="fill:#f8766d;stroke:#f8766d;" x="230.689601" xlink:href="#md5590014a5" y="268.095414"/>
     <use style="fill:#f8766d;stroke:#f8766d;" x="415.692995" xlink:href="#md5590014a5" y="283.197007"/>
     <use style="fill:#f8766d;stroke:#f8766d;" x="333.96603" xlink:href="#md5590014a5" y="140.24158"/>
     <use style="fill:#f8766d;stroke:#f8766d;" x="436.249637" xlink:href="#md5590014a5" y="236.48437"/>
     <use style="fill:#f8766d;stroke:#f8766d;" x="580.228408" xlink:href="#md5590014a5" y="153.662928"/>
     <use style="fill:#f8766d;stroke:#f8766d;" x="272.978634" xlink:href="#md5590014a5" y="193.25144"/>
     <use style="fill:#f8766d;stroke:#f8766d;" x="269.446199" xlink:href="#md5590014a5" y="172.197844"/>
     <use style="fill:#f8766d;stroke:#f8766d;" x="212.463812" xlink:href="#md5590014a5" y="133.044088"/>
     <use style="fill:#f8766d;stroke:#f8766d;" x="211.470297" xlink:href="#md5590014a5" y="131.422898"/>
     <use style="fill:#f8766d;stroke:#f8766d;" x="228.528404" xlink:href="#md5590014a5" y="277.125765"/>
     <use style="fill:#f8766d;stroke:#f8766d;" x="350.644597" xlink:href="#md5590014a5" y="269.629721"/>
     <use style="fill:#f8766d;stroke:#f8766d;" x="350.280817" xlink:href="#md5590014a5" y="280.104096"/>
     <use style="fill:#f8766d;stroke:#f8766d;" x="379.329183" xlink:href="#md5590014a5" y="235.982203"/>
     <use style="fill:#f8766d;stroke:#f8766d;" x="197.035245" xlink:href="#md5590014a5" y="210.625943"/>
    </g>
   </g>
   <g id="matplotlib.axis_1">
    <g id="xtick_1">
     <g id="line2d_1">
      <defs>
       <path d="M 0 0 
L 0 3.5 
" id="m09ea2eda83" style="stroke:#000000;stroke-width:0.8;"/>
      </defs>
      <g>
       <use style="stroke:#000000;stroke-width:0.8;" x="140.163967" xlink:href="#m09ea2eda83" y="384.48"/>
      </g>
     </g>
     <g id="text_1">
      <!-- −10.0 -->
      <defs>
       <path d="M 10.59375 35.5 
L 73.1875 35.5 
L 73.1875 27.203125 
L 10.59375 27.203125 
z
" id="DejaVuSans-8722"/>
       <path d="M 12.40625 8.296875 
L 28.515625 8.296875 
L 28.515625 63.921875 
L 10.984375 60.40625 
L 10.984375 69.390625 
L 28.421875 72.90625 
L 38.28125 72.90625 
L 38.28125 8.296875 
L 54.390625 8.296875 
L 54.390625 0 
L 12.40625 0 
z
" id="DejaVuSans-49"/>
       <path d="M 31.78125 66.40625 
Q 24.171875 66.40625 20.328125 58.90625 
Q 16.5 51.421875 16.5 36.375 
Q 16.5 21.390625 20.328125 13.890625 
Q 24.171875 6.390625 31.78125 6.390625 
Q 39.453125 6.390625 43.28125 13.890625 
Q 47.125 21.390625 47.125 36.375 
Q 47.125 51.421875 43.28125 58.90625 
Q 39.453125 66.40625 31.78125 66.40625 
z
M 31.78125 74.21875 
Q 44.046875 74.21875 50.515625 64.515625 
Q 56.984375 54.828125 56.984375 36.375 
Q 56.984375 17.96875 50.515625 8.265625 
Q 44.046875 -1.421875 31.78125 -1.421875 
Q 19.53125 -1.421875 13.0625 8.265625 
Q 6.59375 17.96875 6.59375 36.375 
Q 6.59375 54.828125 13.0625 64.515625 
Q 19.53125 74.21875 31.78125 74.21875 
z
" id="DejaVuSans-48"/>
       <path d="M 10.6875 12.40625 
L 21 12.40625 
L 21 0 
L 10.6875 0 
z
" id="DejaVuSans-46"/>
      </defs>
      <g transform="translate(124.84131 399.078438)scale(0.1 -0.1)">
       <use xlink:href="#DejaVuSans-8722"/>
       <use x="83.789062" xlink:href="#DejaVuSans-49"/>
       <use x="147.412109" xlink:href="#DejaVuSans-48"/>
       <use x="211.035156" xlink:href="#DejaVuSans-46"/>
       <use x="242.822266" xlink:href="#DejaVuSans-48"/>
      </g>
     </g>
    </g>
    <g id="xtick_2">
     <g id="line2d_2">
      <g>
       <use style="stroke:#000000;stroke-width:0.8;" x="202.171801" xlink:href="#m09ea2eda83" y="384.48"/>
      </g>
     </g>
     <g id="text_2">
      <!-- −7.5 -->
      <defs>
       <path d="M 8.203125 72.90625 
L 55.078125 72.90625 
L 55.078125 68.703125 
L 28.609375 0 
L 18.3125 0 
L 43.21875 64.59375 
L 8.203125 64.59375 
z
" id="DejaVuSans-55"/>
       <path d="M 10.796875 72.90625 
L 49.515625 72.90625 
L 49.515625 64.59375 
L 19.828125 64.59375 
L 19.828125 46.734375 
Q 21.96875 47.46875 24.109375 47.828125 
Q 26.265625 48.1875 28.421875 48.1875 
Q 40.625 48.1875 47.75 41.5 
Q 54.890625 34.8125 54.890625 23.390625 
Q 54.890625 11.625 47.5625 5.09375 
Q 40.234375 -1.421875 26.90625 -1.421875 
Q 22.3125 -1.421875 17.546875 -0.640625 
Q 12.796875 0.140625 7.71875 1.703125 
L 7.71875 11.625 
Q 12.109375 9.234375 16.796875 8.0625 
Q 21.484375 6.890625 26.703125 6.890625 
Q 35.15625 6.890625 40.078125 11.328125 
Q 45.015625 15.765625 45.015625 23.390625 
Q 45.015625 31 40.078125 35.4375 
Q 35.15625 39.890625 26.703125 39.890625 
Q 22.75 39.890625 18.8125 39.015625 
Q 14.890625 38.140625 10.796875 36.28125 
z
" id="DejaVuSans-53"/>
      </defs>
      <g transform="translate(190.030395 399.078438)scale(0.1 -0.1)">
       <use xlink:href="#DejaVuSans-8722"/>
       <use x="83.789062" xlink:href="#DejaVuSans-55"/>
       <use x="147.412109" xlink:href="#DejaVuSans-46"/>
       <use x="179.199219" xlink:href="#DejaVuSans-53"/>
      </g>
     </g>
    </g>
    <g id="xtick_3">
     <g id="line2d_3">
      <g>
       <use style="stroke:#000000;stroke-width:0.8;" x="264.179635" xlink:href="#m09ea2eda83" y="384.48"/>
      </g>
     </g>
     <g id="text_3">
      <!-- −5.0 -->
      <g transform="translate(252.038229 399.078438)scale(0.1 -0.1)">
       <use xlink:href="#DejaVuSans-8722"/>
       <use x="83.789062" xlink:href="#DejaVuSans-53"/>
       <use x="147.412109" xlink:href="#DejaVuSans-46"/>
       <use x="179.199219" xlink:href="#DejaVuSans-48"/>
      </g>
     </g>
    </g>
    <g id="xtick_4">
     <g id="line2d_4">
      <g>
       <use style="stroke:#000000;stroke-width:0.8;" x="326.187469" xlink:href="#m09ea2eda83" y="384.48"/>
      </g>
     </g>
     <g id="text_4">
      <!-- −2.5 -->
      <defs>
       <path d="M 19.1875 8.296875 
L 53.609375 8.296875 
L 53.609375 0 
L 7.328125 0 
L 7.328125 8.296875 
Q 12.9375 14.109375 22.625 23.890625 
Q 32.328125 33.6875 34.8125 36.53125 
Q 39.546875 41.84375 41.421875 45.53125 
Q 43.3125 49.21875 43.3125 52.78125 
Q 43.3125 58.59375 39.234375 62.25 
Q 35.15625 65.921875 28.609375 65.921875 
Q 23.96875 65.921875 18.8125 64.3125 
Q 13.671875 62.703125 7.8125 59.421875 
L 7.8125 69.390625 
Q 13.765625 71.78125 18.9375 73 
Q 24.125 74.21875 28.421875 74.21875 
Q 39.75 74.21875 46.484375 68.546875 
Q 53.21875 62.890625 53.21875 53.421875 
Q 53.21875 48.921875 51.53125 44.890625 
Q 49.859375 40.875 45.40625 35.40625 
Q 44.1875 33.984375 37.640625 27.21875 
Q 31.109375 20.453125 19.1875 8.296875 
z
" id="DejaVuSans-50"/>
      </defs>
      <g transform="translate(314.046063 399.078438)scale(0.1 -0.1)">
       <use xlink:href="#DejaVuSans-8722"/>
       <use x="83.789062" xlink:href="#DejaVuSans-50"/>
       <use x="147.412109" xlink:href="#DejaVuSans-46"/>
       <use x="179.199219" xlink:href="#DejaVuSans-53"/>
      </g>
     </g>
    </g>
    <g id="xtick_5">
     <g id="line2d_5">
      <g>
       <use style="stroke:#000000;stroke-width:0.8;" x="388.195304" xlink:href="#m09ea2eda83" y="384.48"/>
      </g>
     </g>
     <g id="text_5">
      <!-- 0.0 -->
      <g transform="translate(380.243741 399.078438)scale(0.1 -0.1)">
       <use xlink:href="#DejaVuSans-48"/>
       <use x="63.623047" xlink:href="#DejaVuSans-46"/>
       <use x="95.410156" xlink:href="#DejaVuSans-48"/>
      </g>
     </g>
    </g>
    <g id="xtick_6">
     <g id="line2d_6">
      <g>
       <use style="stroke:#000000;stroke-width:0.8;" x="450.203138" xlink:href="#m09ea2eda83" y="384.48"/>
      </g>
     </g>
     <g id="text_6">
      <!-- 2.5 -->
      <g transform="translate(442.251576 399.078438)scale(0.1 -0.1)">
       <use xlink:href="#DejaVuSans-50"/>
       <use x="63.623047" xlink:href="#DejaVuSans-46"/>
       <use x="95.410156" xlink:href="#DejaVuSans-53"/>
      </g>
     </g>
    </g>
    <g id="xtick_7">
     <g id="line2d_7">
      <g>
       <use style="stroke:#000000;stroke-width:0.8;" x="512.210972" xlink:href="#m09ea2eda83" y="384.48"/>
      </g>
     </g>
     <g id="text_7">
      <!-- 5.0 -->
      <g transform="translate(504.25941 399.078438)scale(0.1 -0.1)">
       <use xlink:href="#DejaVuSans-53"/>
       <use x="63.623047" xlink:href="#DejaVuSans-46"/>
       <use x="95.410156" xlink:href="#DejaVuSans-48"/>
      </g>
     </g>
    </g>
    <g id="xtick_8">
     <g id="line2d_8">
      <g>
       <use style="stroke:#000000;stroke-width:0.8;" x="574.218807" xlink:href="#m09ea2eda83" y="384.48"/>
      </g>
     </g>
     <g id="text_8">
      <!-- 7.5 -->
      <g transform="translate(566.267244 399.078438)scale(0.1 -0.1)">
       <use xlink:href="#DejaVuSans-55"/>
       <use x="63.623047" xlink:href="#DejaVuSans-46"/>
       <use x="95.410156" xlink:href="#DejaVuSans-53"/>
      </g>
     </g>
    </g>
    <g id="xtick_9">
     <g id="line2d_9">
      <g>
       <use style="stroke:#000000;stroke-width:0.8;" x="636.226641" xlink:href="#m09ea2eda83" y="384.48"/>
      </g>
     </g>
     <g id="text_9">
      <!-- 10.0 -->
      <g transform="translate(625.093829 399.078438)scale(0.1 -0.1)">
       <use xlink:href="#DejaVuSans-49"/>
       <use x="63.623047" xlink:href="#DejaVuSans-48"/>
       <use x="127.246094" xlink:href="#DejaVuSans-46"/>
       <use x="159.033203" xlink:href="#DejaVuSans-48"/>
      </g>
     </g>
    </g>
    <g id="text_10">
     <!-- tSNE-1 -->
     <defs>
      <path d="M 18.3125 70.21875 
L 18.3125 54.6875 
L 36.8125 54.6875 
L 36.8125 47.703125 
L 18.3125 47.703125 
L 18.3125 18.015625 
Q 18.3125 11.328125 20.140625 9.421875 
Q 21.96875 7.515625 27.59375 7.515625 
L 36.8125 7.515625 
L 36.8125 0 
L 27.59375 0 
Q 17.1875 0 13.234375 3.875 
Q 9.28125 7.765625 9.28125 18.015625 
L 9.28125 47.703125 
L 2.6875 47.703125 
L 2.6875 54.6875 
L 9.28125 54.6875 
L 9.28125 70.21875 
z
" id="DejaVuSans-116"/>
      <path d="M 53.515625 70.515625 
L 53.515625 60.890625 
Q 47.90625 63.578125 42.921875 64.890625 
Q 37.9375 66.21875 33.296875 66.21875 
Q 25.25 66.21875 20.875 63.09375 
Q 16.5 59.96875 16.5 54.203125 
Q 16.5 49.359375 19.40625 46.890625 
Q 22.3125 44.4375 30.421875 42.921875 
L 36.375 41.703125 
Q 47.40625 39.59375 52.65625 34.296875 
Q 57.90625 29 57.90625 20.125 
Q 57.90625 9.515625 50.796875 4.046875 
Q 43.703125 -1.421875 29.984375 -1.421875 
Q 24.8125 -1.421875 18.96875 -0.25 
Q 13.140625 0.921875 6.890625 3.21875 
L 6.890625 13.375 
Q 12.890625 10.015625 18.65625 8.296875 
Q 24.421875 6.59375 29.984375 6.59375 
Q 38.421875 6.59375 43.015625 9.90625 
Q 47.609375 13.234375 47.609375 19.390625 
Q 47.609375 24.75 44.3125 27.78125 
Q 41.015625 30.8125 33.5 32.328125 
L 27.484375 33.5 
Q 16.453125 35.6875 11.515625 40.375 
Q 6.59375 45.0625 6.59375 53.421875 
Q 6.59375 63.09375 13.40625 68.65625 
Q 20.21875 74.21875 32.171875 74.21875 
Q 37.3125 74.21875 42.625 73.28125 
Q 47.953125 72.359375 53.515625 70.515625 
z
" id="DejaVuSans-83"/>
      <path d="M 9.8125 72.90625 
L 23.09375 72.90625 
L 55.421875 11.921875 
L 55.421875 72.90625 
L 64.984375 72.90625 
L 64.984375 0 
L 51.703125 0 
L 19.390625 60.984375 
L 19.390625 0 
L 9.8125 0 
z
" id="DejaVuSans-78"/>
      <path d="M 9.8125 72.90625 
L 55.90625 72.90625 
L 55.90625 64.59375 
L 19.671875 64.59375 
L 19.671875 43.015625 
L 54.390625 43.015625 
L 54.390625 34.71875 
L 19.671875 34.71875 
L 19.671875 8.296875 
L 56.78125 8.296875 
L 56.78125 0 
L 9.8125 0 
z
" id="DejaVuSans-69"/>
      <path d="M 4.890625 31.390625 
L 31.203125 31.390625 
L 31.203125 23.390625 
L 4.890625 23.390625 
z
" id="DejaVuSans-45"/>
     </defs>
     <g transform="translate(351.980469 412.756563)scale(0.1 -0.1)">
      <use xlink:href="#DejaVuSans-116"/>
      <use x="39.208984" xlink:href="#DejaVuSans-83"/>
      <use x="102.685547" xlink:href="#DejaVuSans-78"/>
      <use x="177.490234" xlink:href="#DejaVuSans-69"/>
      <use x="240.673828" xlink:href="#DejaVuSans-45"/>
      <use x="276.757812" xlink:href="#DejaVuSans-49"/>
     </g>
    </g>
   </g>
   <g id="matplotlib.axis_2">
    <g id="ytick_1">
     <g id="line2d_10">
      <defs>
       <path d="M 0 0 
L -3.5 0 
" id="m9cd72f1a6c" style="stroke:#000000;stroke-width:0.8;"/>
      </defs>
      <g>
       <use style="stroke:#000000;stroke-width:0.8;" x="90" xlink:href="#m9cd72f1a6c" y="375.863498"/>
      </g>
     </g>
     <g id="text_11">
      <!-- −8 -->
      <defs>
       <path d="M 31.78125 34.625 
Q 24.75 34.625 20.71875 30.859375 
Q 16.703125 27.09375 16.703125 20.515625 
Q 16.703125 13.921875 20.71875 10.15625 
Q 24.75 6.390625 31.78125 6.390625 
Q 38.8125 6.390625 42.859375 10.171875 
Q 46.921875 13.96875 46.921875 20.515625 
Q 46.921875 27.09375 42.890625 30.859375 
Q 38.875 34.625 31.78125 34.625 
z
M 21.921875 38.8125 
Q 15.578125 40.375 12.03125 44.71875 
Q 8.5 49.078125 8.5 55.328125 
Q 8.5 64.0625 14.71875 69.140625 
Q 20.953125 74.21875 31.78125 74.21875 
Q 42.671875 74.21875 48.875 69.140625 
Q 55.078125 64.0625 55.078125 55.328125 
Q 55.078125 49.078125 51.53125 44.71875 
Q 48 40.375 41.703125 38.8125 
Q 48.828125 37.15625 52.796875 32.3125 
Q 56.78125 27.484375 56.78125 20.515625 
Q 56.78125 9.90625 50.3125 4.234375 
Q 43.84375 -1.421875 31.78125 -1.421875 
Q 19.734375 -1.421875 13.25 4.234375 
Q 6.78125 9.90625 6.78125 20.515625 
Q 6.78125 27.484375 10.78125 32.3125 
Q 14.796875 37.15625 21.921875 38.8125 
z
M 18.3125 54.390625 
Q 18.3125 48.734375 21.84375 45.5625 
Q 25.390625 42.390625 31.78125 42.390625 
Q 38.140625 42.390625 41.71875 45.5625 
Q 45.3125 48.734375 45.3125 54.390625 
Q 45.3125 60.0625 41.71875 63.234375 
Q 38.140625 66.40625 31.78125 66.40625 
Q 25.390625 66.40625 21.84375 63.234375 
Q 18.3125 60.0625 18.3125 54.390625 
z
" id="DejaVuSans-56"/>
      </defs>
      <g transform="translate(68.257812 379.662717)scale(0.1 -0.1)">
       <use xlink:href="#DejaVuSans-8722"/>
       <use x="83.789062" xlink:href="#DejaVuSans-56"/>
      </g>
     </g>
    </g>
    <g id="ytick_2">
     <g id="line2d_11">
      <g>
       <use style="stroke:#000000;stroke-width:0.8;" x="90" xlink:href="#m9cd72f1a6c" y="338.875361"/>
      </g>
     </g>
     <g id="text_12">
      <!-- −6 -->
      <defs>
       <path d="M 33.015625 40.375 
Q 26.375 40.375 22.484375 35.828125 
Q 18.609375 31.296875 18.609375 23.390625 
Q 18.609375 15.53125 22.484375 10.953125 
Q 26.375 6.390625 33.015625 6.390625 
Q 39.65625 6.390625 43.53125 10.953125 
Q 47.40625 15.53125 47.40625 23.390625 
Q 47.40625 31.296875 43.53125 35.828125 
Q 39.65625 40.375 33.015625 40.375 
z
M 52.59375 71.296875 
L 52.59375 62.3125 
Q 48.875 64.0625 45.09375 64.984375 
Q 41.3125 65.921875 37.59375 65.921875 
Q 27.828125 65.921875 22.671875 59.328125 
Q 17.53125 52.734375 16.796875 39.40625 
Q 19.671875 43.65625 24.015625 45.921875 
Q 28.375 48.1875 33.59375 48.1875 
Q 44.578125 48.1875 50.953125 41.515625 
Q 57.328125 34.859375 57.328125 23.390625 
Q 57.328125 12.15625 50.6875 5.359375 
Q 44.046875 -1.421875 33.015625 -1.421875 
Q 20.359375 -1.421875 13.671875 8.265625 
Q 6.984375 17.96875 6.984375 36.375 
Q 6.984375 53.65625 15.1875 63.9375 
Q 23.390625 74.21875 37.203125 74.21875 
Q 40.921875 74.21875 44.703125 73.484375 
Q 48.484375 72.75 52.59375 71.296875 
z
" id="DejaVuSans-54"/>
      </defs>
      <g transform="translate(68.257812 342.67458)scale(0.1 -0.1)">
       <use xlink:href="#DejaVuSans-8722"/>
       <use x="83.789062" xlink:href="#DejaVuSans-54"/>
      </g>
     </g>
    </g>
    <g id="ytick_3">
     <g id="line2d_12">
      <g>
       <use style="stroke:#000000;stroke-width:0.8;" x="90" xlink:href="#m9cd72f1a6c" y="301.887224"/>
      </g>
     </g>
     <g id="text_13">
      <!-- −4 -->
      <defs>
       <path d="M 37.796875 64.3125 
L 12.890625 25.390625 
L 37.796875 25.390625 
z
M 35.203125 72.90625 
L 47.609375 72.90625 
L 47.609375 25.390625 
L 58.015625 25.390625 
L 58.015625 17.1875 
L 47.609375 17.1875 
L 47.609375 0 
L 37.796875 0 
L 37.796875 17.1875 
L 4.890625 17.1875 
L 4.890625 26.703125 
z
" id="DejaVuSans-52"/>
      </defs>
      <g transform="translate(68.257812 305.686442)scale(0.1 -0.1)">
       <use xlink:href="#DejaVuSans-8722"/>
       <use x="83.789062" xlink:href="#DejaVuSans-52"/>
      </g>
     </g>
    </g>
    <g id="ytick_4">
     <g id="line2d_13">
      <g>
       <use style="stroke:#000000;stroke-width:0.8;" x="90" xlink:href="#m9cd72f1a6c" y="264.899086"/>
      </g>
     </g>
     <g id="text_14">
      <!-- −2 -->
      <g transform="translate(68.257812 268.698305)scale(0.1 -0.1)">
       <use xlink:href="#DejaVuSans-8722"/>
       <use x="83.789062" xlink:href="#DejaVuSans-50"/>
      </g>
     </g>
    </g>
    <g id="ytick_5">
     <g id="line2d_14">
      <g>
       <use style="stroke:#000000;stroke-width:0.8;" x="90" xlink:href="#m9cd72f1a6c" y="227.910949"/>
      </g>
     </g>
     <g id="text_15">
      <!-- 0 -->
      <g transform="translate(76.6375 231.710167)scale(0.1 -0.1)">
       <use xlink:href="#DejaVuSans-48"/>
      </g>
     </g>
    </g>
    <g id="ytick_6">
     <g id="line2d_15">
      <g>
       <use style="stroke:#000000;stroke-width:0.8;" x="90" xlink:href="#m9cd72f1a6c" y="190.922811"/>
      </g>
     </g>
     <g id="text_16">
      <!-- 2 -->
      <g transform="translate(76.6375 194.72203)scale(0.1 -0.1)">
       <use xlink:href="#DejaVuSans-50"/>
      </g>
     </g>
    </g>
    <g id="ytick_7">
     <g id="line2d_16">
      <g>
       <use style="stroke:#000000;stroke-width:0.8;" x="90" xlink:href="#m9cd72f1a6c" y="153.934674"/>
      </g>
     </g>
     <g id="text_17">
      <!-- 4 -->
      <g transform="translate(76.6375 157.733893)scale(0.1 -0.1)">
       <use xlink:href="#DejaVuSans-52"/>
      </g>
     </g>
    </g>
    <g id="ytick_8">
     <g id="line2d_17">
      <g>
       <use style="stroke:#000000;stroke-width:0.8;" x="90" xlink:href="#m9cd72f1a6c" y="116.946537"/>
      </g>
     </g>
     <g id="text_18">
      <!-- 6 -->
      <g transform="translate(76.6375 120.745755)scale(0.1 -0.1)">
       <use xlink:href="#DejaVuSans-54"/>
      </g>
     </g>
    </g>
    <g id="ytick_9">
     <g id="line2d_18">
      <g>
       <use style="stroke:#000000;stroke-width:0.8;" x="90" xlink:href="#m9cd72f1a6c" y="79.958399"/>
      </g>
     </g>
     <g id="text_19">
      <!-- 8 -->
      <g transform="translate(76.6375 83.757618)scale(0.1 -0.1)">
       <use xlink:href="#DejaVuSans-56"/>
      </g>
     </g>
    </g>
    <g id="text_20">
     <!-- tSNE-2 -->
     <g transform="translate(62.178125 235.179531)rotate(-90)scale(0.1 -0.1)">
      <use xlink:href="#DejaVuSans-116"/>
      <use x="39.208984" xlink:href="#DejaVuSans-83"/>
      <use x="102.685547" xlink:href="#DejaVuSans-78"/>
      <use x="177.490234" xlink:href="#DejaVuSans-69"/>
      <use x="240.673828" xlink:href="#DejaVuSans-45"/>
      <use x="276.757812" xlink:href="#DejaVuSans-50"/>
     </g>
    </g>
   </g>
   <g id="patch_3">
    <path d="M 90 384.48 
L 90 51.84 
" style="fill:none;stroke:#000000;stroke-linecap:square;stroke-linejoin:miter;stroke-width:0.8;"/>
   </g>
   <g id="patch_4">
    <path d="M 648 384.48 
L 648 51.84 
" style="fill:none;stroke:#000000;stroke-linecap:square;stroke-linejoin:miter;stroke-width:0.8;"/>
   </g>
   <g id="patch_5">
    <path d="M 90 384.48 
L 648 384.48 
" style="fill:none;stroke:#000000;stroke-linecap:square;stroke-linejoin:miter;stroke-width:0.8;"/>
   </g>
   <g id="patch_6">
    <path d="M 90 51.84 
L 648 51.84 
" style="fill:none;stroke:#000000;stroke-linecap:square;stroke-linejoin:miter;stroke-width:0.8;"/>
   </g>
   <g id="legend_1">
    <g id="patch_7">
     <path d="M 563.125 89.19625 
L 641 89.19625 
Q 643 89.19625 643 87.19625 
L 643 58.84 
Q 643 56.84 641 56.84 
L 563.125 56.84 
Q 561.125 56.84 561.125 58.84 
L 561.125 87.19625 
Q 561.125 89.19625 563.125 89.19625 
z
" style="fill:#ffffff;opacity:0.8;stroke:#cccccc;stroke-linejoin:miter;"/>
    </g>
    <g id="PathCollection_3">
     <g>
      <use style="fill:#00bfc4;stroke:#00bfc4;" x="575.125" xlink:href="#m3aeb07c388" y="65.813437"/>
     </g>
    </g>
    <g id="text_21">
     <!-- D006262 -->
     <defs>
      <path d="M 19.671875 64.796875 
L 19.671875 8.109375 
L 31.59375 8.109375 
Q 46.6875 8.109375 53.6875 14.9375 
Q 60.6875 21.78125 60.6875 36.53125 
Q 60.6875 51.171875 53.6875 57.984375 
Q 46.6875 64.796875 31.59375 64.796875 
z
M 9.8125 72.90625 
L 30.078125 72.90625 
Q 51.265625 72.90625 61.171875 64.09375 
Q 71.09375 55.28125 71.09375 36.53125 
Q 71.09375 17.671875 61.125 8.828125 
Q 51.171875 0 30.078125 0 
L 9.8125 0 
z
" id="DejaVuSans-68"/>
     </defs>
     <g transform="translate(593.125 68.438437)scale(0.1 -0.1)">
      <use xlink:href="#DejaVuSans-68"/>
      <use x="77.001953" xlink:href="#DejaVuSans-48"/>
      <use x="140.625" xlink:href="#DejaVuSans-48"/>
      <use x="204.248047" xlink:href="#DejaVuSans-54"/>
      <use x="267.871094" xlink:href="#DejaVuSans-50"/>
      <use x="331.494141" xlink:href="#DejaVuSans-54"/>
      <use x="395.117188" xlink:href="#DejaVuSans-50"/>
     </g>
    </g>
    <g id="PathCollection_4">
     <g>
      <use style="fill:#f8766d;stroke:#f8766d;" x="575.125" xlink:href="#md5590014a5" y="80.491562"/>
     </g>
    </g>
    <g id="text_22">
     <!-- D012559 -->
     <defs>
      <path d="M 10.984375 1.515625 
L 10.984375 10.5 
Q 14.703125 8.734375 18.5 7.8125 
Q 22.3125 6.890625 25.984375 6.890625 
Q 35.75 6.890625 40.890625 13.453125 
Q 46.046875 20.015625 46.78125 33.40625 
Q 43.953125 29.203125 39.59375 26.953125 
Q 35.25 24.703125 29.984375 24.703125 
Q 19.046875 24.703125 12.671875 31.3125 
Q 6.296875 37.9375 6.296875 49.421875 
Q 6.296875 60.640625 12.9375 67.421875 
Q 19.578125 74.21875 30.609375 74.21875 
Q 43.265625 74.21875 49.921875 64.515625 
Q 56.59375 54.828125 56.59375 36.375 
Q 56.59375 19.140625 48.40625 8.859375 
Q 40.234375 -1.421875 26.421875 -1.421875 
Q 22.703125 -1.421875 18.890625 -0.6875 
Q 15.09375 0.046875 10.984375 1.515625 
z
M 30.609375 32.421875 
Q 37.25 32.421875 41.125 36.953125 
Q 45.015625 41.5 45.015625 49.421875 
Q 45.015625 57.28125 41.125 61.84375 
Q 37.25 66.40625 30.609375 66.40625 
Q 23.96875 66.40625 20.09375 61.84375 
Q 16.21875 57.28125 16.21875 49.421875 
Q 16.21875 41.5 20.09375 36.953125 
Q 23.96875 32.421875 30.609375 32.421875 
z
" id="DejaVuSans-57"/>
     </defs>
     <g transform="translate(593.125 83.116562)scale(0.1 -0.1)">
      <use xlink:href="#DejaVuSans-68"/>
      <use x="77.001953" xlink:href="#DejaVuSans-48"/>
      <use x="140.625" xlink:href="#DejaVuSans-49"/>
      <use x="204.248047" xlink:href="#DejaVuSans-50"/>
      <use x="267.871094" xlink:href="#DejaVuSans-53"/>
      <use x="331.494141" xlink:href="#DejaVuSans-53"/>
      <use x="395.117188" xlink:href="#DejaVuSans-57"/>
     </g>
    </g>
   </g>
  </g>
 </g>
 <defs>
  <clipPath id="pe2d8528c1d">
   <rect height="332.64" width="558" x="90" y="51.84"/>
  </clipPath>
 </defs>
</svg>
