<?xml version="1.0" encoding="utf-8" standalone="no"?>
<!DOCTYPE svg PUBLIC "-//W3C//DTD SVG 1.1//EN"
  "http://www.w3.org/Graphics/SVG/1.1/DTD/svg11.dtd">
<!-- Created with matplotlib (https://matplotlib.org/) -->
<svg height="432pt" version="1.1" viewBox="0 0 720 432" width="720pt" xmlns="http://www.w3.org/2000/svg" xmlns:xlink="http://www.w3.org/1999/xlink">
 <defs>
  <style type="text/css">
*{stroke-linecap:butt;stroke-linejoin:round;}
  </style>
 </defs>
 <g id="figure_1">
  <g id="patch_1">
   <path d="M 0 432 
L 720 432 
L 720 0 
L 0 0 
z
" style="fill:#ffffff;"/>
  </g>
  <g id="axes_1">
   <g id="patch_2">
    <path d="M 90 378 
L 648 378 
L 648 51.84 
L 90 51.84 
z
" style="fill:#ffffff;"/>
   </g>
   <g id="PathCollection_1">
    <defs>
     <path d="M 0 3 
C 0.795609 3 1.55874 2.683901 2.12132 2.12132 
C 2.683901 1.55874 3 0.795609 3 0 
C 3 -0.795609 2.683901 -1.55874 2.12132 -2.12132 
C 1.55874 -2.683901 0.795609 -3 0 -3 
C -0.795609 -3 -1.55874 -2.683901 -2.12132 -2.12132 
C -2.683901 -1.55874 -3 -0.795609 -3 0 
C -3 0.795609 -2.683901 1.55874 -2.12132 2.12132 
C -1.55874 2.683901 -0.795609 3 0 3 
z
" id="m347eb739d6" style="stroke:#00bfc4;"/>
    </defs>
    <g clip-path="url(#paf83a2d329)">
     <use style="fill:#00bfc4;stroke:#00bfc4;" x="203.989587" xlink:href="#m347eb739d6" y="245.717073"/>
     <use style="fill:#00bfc4;stroke:#00bfc4;" x="234.87025" xlink:href="#m347eb739d6" y="126.287646"/>
     <use style="fill:#00bfc4;stroke:#00bfc4;" x="572.500595" xlink:href="#m347eb739d6" y="212.155897"/>
     <use style="fill:#00bfc4;stroke:#00bfc4;" x="561.972372" xlink:href="#m347eb739d6" y="243.595069"/>
     <use style="fill:#00bfc4;stroke:#00bfc4;" x="187.441677" xlink:href="#m347eb739d6" y="263.128003"/>
     <use style="fill:#00bfc4;stroke:#00bfc4;" x="475.569497" xlink:href="#m347eb739d6" y="76.585325"/>
     <use style="fill:#00bfc4;stroke:#00bfc4;" x="132.801453" xlink:href="#m347eb739d6" y="223.159383"/>
     <use style="fill:#00bfc4;stroke:#00bfc4;" x="422.687707" xlink:href="#m347eb739d6" y="284.445862"/>
     <use style="fill:#00bfc4;stroke:#00bfc4;" x="198.453405" xlink:href="#m347eb739d6" y="199.819099"/>
     <use style="fill:#00bfc4;stroke:#00bfc4;" x="289.605226" xlink:href="#m347eb739d6" y="128.866468"/>
     <use style="fill:#00bfc4;stroke:#00bfc4;" x="402.658568" xlink:href="#m347eb739d6" y="223.085722"/>
     <use style="fill:#00bfc4;stroke:#00bfc4;" x="475.633067" xlink:href="#m347eb739d6" y="180.538042"/>
     <use style="fill:#00bfc4;stroke:#00bfc4;" x="495.694545" xlink:href="#m347eb739d6" y="325.150965"/>
     <use style="fill:#00bfc4;stroke:#00bfc4;" x="289.736156" xlink:href="#m347eb739d6" y="218.350842"/>
     <use style="fill:#00bfc4;stroke:#00bfc4;" x="259.656361" xlink:href="#m347eb739d6" y="153.35629"/>
     <use style="fill:#00bfc4;stroke:#00bfc4;" x="417.360548" xlink:href="#m347eb739d6" y="135.580287"/>
     <use style="fill:#00bfc4;stroke:#00bfc4;" x="317.824155" xlink:href="#m347eb739d6" y="84.423408"/>
     <use style="fill:#00bfc4;stroke:#00bfc4;" x="535.30386" xlink:href="#m347eb739d6" y="201.34967"/>
    </g>
   </g>
   <g id="PathCollection_2">
    <defs>
     <path d="M 0 3 
C 0.795609 3 1.55874 2.683901 2.12132 2.12132 
C 2.683901 1.55874 3 0.795609 3 0 
C 3 -0.795609 2.683901 -1.55874 2.12132 -2.12132 
C 1.55874 -2.683901 0.795609 -3 0 -3 
C -0.795609 -3 -1.55874 -2.683901 -2.12132 -2.12132 
C -2.683901 -1.55874 -3 -0.795609 -3 0 
C -3 0.795609 -2.683901 1.55874 -2.12132 2.12132 
C -1.55874 2.683901 -0.795609 3 0 3 
z
" id="m2495db3a08" style="stroke:#f8766d;"/>
    </defs>
    <g clip-path="url(#paf83a2d329)">
     <use style="fill:#f8766d;stroke:#f8766d;" x="234.901829" xlink:href="#m2495db3a08" y="174.636957"/>
     <use style="fill:#f8766d;stroke:#f8766d;" x="464.905547" xlink:href="#m2495db3a08" y="227.672148"/>
     <use style="fill:#f8766d;stroke:#f8766d;" x="376.05684" xlink:href="#m2495db3a08" y="296.06908"/>
     <use style="fill:#f8766d;stroke:#f8766d;" x="200.482567" xlink:href="#m2495db3a08" y="87.523571"/>
     <use style="fill:#f8766d;stroke:#f8766d;" x="301.11707" xlink:href="#m2495db3a08" y="175.977438"/>
     <use style="fill:#f8766d;stroke:#f8766d;" x="321.758369" xlink:href="#m2495db3a08" y="265.132567"/>
     <use style="fill:#f8766d;stroke:#f8766d;" x="482.885911" xlink:href="#m2495db3a08" y="121.02642"/>
     <use style="fill:#f8766d;stroke:#f8766d;" x="355.509816" xlink:href="#m2495db3a08" y="199.611453"/>
     <use style="fill:#f8766d;stroke:#f8766d;" x="176.847835" xlink:href="#m2495db3a08" y="169.958291"/>
     <use style="fill:#f8766d;stroke:#f8766d;" x="330.852811" xlink:href="#m2495db3a08" y="206.041076"/>
     <use style="fill:#f8766d;stroke:#f8766d;" x="471.742637" xlink:href="#m2495db3a08" y="257.059175"/>
     <use style="fill:#f8766d;stroke:#f8766d;" x="547.619627" xlink:href="#m2495db3a08" y="129.206242"/>
     <use style="fill:#f8766d;stroke:#f8766d;" x="308.956903" xlink:href="#m2495db3a08" y="360.6573"/>
     <use style="fill:#f8766d;stroke:#f8766d;" x="391.3327" xlink:href="#m2495db3a08" y="343.377426"/>
     <use style="fill:#f8766d;stroke:#f8766d;" x="117.96525" xlink:href="#m2495db3a08" y="259.670867"/>
     <use style="fill:#f8766d;stroke:#f8766d;" x="293.675409" xlink:href="#m2495db3a08" y="325.19809"/>
     <use style="fill:#f8766d;stroke:#f8766d;" x="335.474864" xlink:href="#m2495db3a08" y="277.044791"/>
     <use style="fill:#f8766d;stroke:#f8766d;" x="246.695878" xlink:href="#m2495db3a08" y="215.530324"/>
     <use style="fill:#f8766d;stroke:#f8766d;" x="434.721436" xlink:href="#m2495db3a08" y="108.785779"/>
     <use style="fill:#f8766d;stroke:#f8766d;" x="230.051338" xlink:href="#m2495db3a08" y="154.111443"/>
     <use style="fill:#f8766d;stroke:#f8766d;" x="382.34529" xlink:href="#m2495db3a08" y="177.003142"/>
     <use style="fill:#f8766d;stroke:#f8766d;" x="489.897994" xlink:href="#m2495db3a08" y="194.680993"/>
     <use style="fill:#f8766d;stroke:#f8766d;" x="486.509365" xlink:href="#m2495db3a08" y="153.064713"/>
     <use style="fill:#f8766d;stroke:#f8766d;" x="388.487053" xlink:href="#m2495db3a08" y="89.367582"/>
     <use style="fill:#f8766d;stroke:#f8766d;" x="620.03475" xlink:href="#m2495db3a08" y="205.59252"/>
     <use style="fill:#f8766d;stroke:#f8766d;" x="563.571611" xlink:href="#m2495db3a08" y="278.947514"/>
     <use style="fill:#f8766d;stroke:#f8766d;" x="153.680717" xlink:href="#m2495db3a08" y="193.924334"/>
     <use style="fill:#f8766d;stroke:#f8766d;" x="138.319619" xlink:href="#m2495db3a08" y="284.713097"/>
     <use style="fill:#f8766d;stroke:#f8766d;" x="535.703349" xlink:href="#m2495db3a08" y="232.180923"/>
     <use style="fill:#f8766d;stroke:#f8766d;" x="250.51163" xlink:href="#m2495db3a08" y="279.965239"/>
     <use style="fill:#f8766d;stroke:#f8766d;" x="417.789763" xlink:href="#m2495db3a08" y="263.997525"/>
     <use style="fill:#f8766d;stroke:#f8766d;" x="359.044661" xlink:href="#m2495db3a08" y="329.587715"/>
     <use style="fill:#f8766d;stroke:#f8766d;" x="311.768824" xlink:href="#m2495db3a08" y="299.52831"/>
     <use style="fill:#f8766d;stroke:#f8766d;" x="266.090158" xlink:href="#m2495db3a08" y="244.903722"/>
     <use style="fill:#f8766d;stroke:#f8766d;" x="440.265182" xlink:href="#m2495db3a08" y="226.035189"/>
     <use style="fill:#f8766d;stroke:#f8766d;" x="444.434342" xlink:href="#m2495db3a08" y="296.754719"/>
     <use style="fill:#f8766d;stroke:#f8766d;" x="366.507189" xlink:href="#m2495db3a08" y="136.751277"/>
     <use style="fill:#f8766d;stroke:#f8766d;" x="172.905416" xlink:href="#m2495db3a08" y="145.885444"/>
     <use style="fill:#f8766d;stroke:#f8766d;" x="352.793398" xlink:href="#m2495db3a08" y="309.025461"/>
     <use style="fill:#f8766d;stroke:#f8766d;" x="388.993819" xlink:href="#m2495db3a08" y="90.223457"/>
     <use style="fill:#f8766d;stroke:#f8766d;" x="599.221329" xlink:href="#m2495db3a08" y="264.111588"/>
     <use style="fill:#f8766d;stroke:#f8766d;" x="502.310083" xlink:href="#m2495db3a08" y="288.453091"/>
     <use style="fill:#f8766d;stroke:#f8766d;" x="571.998206" xlink:href="#m2495db3a08" y="165.671352"/>
     <use style="fill:#f8766d;stroke:#f8766d;" x="267.547461" xlink:href="#m2495db3a08" y="191.260531"/>
     <use style="fill:#f8766d;stroke:#f8766d;" x="323.04238" xlink:href="#m2495db3a08" y="162.291068"/>
     <use style="fill:#f8766d;stroke:#f8766d;" x="380.138792" xlink:href="#m2495db3a08" y="261.659151"/>
     <use style="fill:#f8766d;stroke:#f8766d;" x="402.4062" xlink:href="#m2495db3a08" y="183.957716"/>
     <use style="fill:#f8766d;stroke:#f8766d;" x="529.195312" xlink:href="#m2495db3a08" y="258.48778"/>
     <use style="fill:#f8766d;stroke:#f8766d;" x="250.786714" xlink:href="#m2495db3a08" y="279.974034"/>
     <use style="fill:#f8766d;stroke:#f8766d;" x="208.558235" xlink:href="#m2495db3a08" y="306.934276"/>
     <use style="fill:#f8766d;stroke:#f8766d;" x="556.954974" xlink:href="#m2495db3a08" y="109.320142"/>
     <use style="fill:#f8766d;stroke:#f8766d;" x="612.608199" xlink:href="#m2495db3a08" y="149.262054"/>
     <use style="fill:#f8766d;stroke:#f8766d;" x="412.691869" xlink:href="#m2495db3a08" y="330.611281"/>
     <use style="fill:#f8766d;stroke:#f8766d;" x="187.021787" xlink:href="#m2495db3a08" y="216.075123"/>
     <use style="fill:#f8766d;stroke:#f8766d;" x="452.978854" xlink:href="#m2495db3a08" y="193.534149"/>
     <use style="fill:#f8766d;stroke:#f8766d;" x="446.973447" xlink:href="#m2495db3a08" y="69.1827"/>
     <use style="fill:#f8766d;stroke:#f8766d;" x="338.176" xlink:href="#m2495db3a08" y="233.419001"/>
     <use style="fill:#f8766d;stroke:#f8766d;" x="517.192287" xlink:href="#m2495db3a08" y="171.135247"/>
     <use style="fill:#f8766d;stroke:#f8766d;" x="442.934947" xlink:href="#m2495db3a08" y="157.25692"/>
     <use style="fill:#f8766d;stroke:#f8766d;" x="153.654615" xlink:href="#m2495db3a08" y="123.841872"/>
     <use style="fill:#f8766d;stroke:#f8766d;" x="128.370228" xlink:href="#m2495db3a08" y="174.36135"/>
    </g>
   </g>
   <g id="matplotlib.axis_1">
    <g id="xtick_1">
     <g id="line2d_1">
      <defs>
       <path d="M 0 0 
L 0 3.5 
" id="m8f6197a71b" style="stroke:#000000;stroke-width:0.8;"/>
      </defs>
      <g>
       <use style="stroke:#000000;stroke-width:0.8;" x="132.0438" xlink:href="#m8f6197a71b" y="378"/>
      </g>
     </g>
     <g id="text_1">
      <!-- −10 -->
      <defs>
       <path d="M 10.59375 35.5 
L 73.1875 35.5 
L 73.1875 27.203125 
L 10.59375 27.203125 
z
" id="DejaVuSans-8722"/>
       <path d="M 12.40625 8.296875 
L 28.515625 8.296875 
L 28.515625 63.921875 
L 10.984375 60.40625 
L 10.984375 69.390625 
L 28.421875 72.90625 
L 38.28125 72.90625 
L 38.28125 8.296875 
L 54.390625 8.296875 
L 54.390625 0 
L 12.40625 0 
z
" id="DejaVuSans-49"/>
       <path d="M 31.78125 66.40625 
Q 24.171875 66.40625 20.328125 58.90625 
Q 16.5 51.421875 16.5 36.375 
Q 16.5 21.390625 20.328125 13.890625 
Q 24.171875 6.390625 31.78125 6.390625 
Q 39.453125 6.390625 43.28125 13.890625 
Q 47.125 21.390625 47.125 36.375 
Q 47.125 51.421875 43.28125 58.90625 
Q 39.453125 66.40625 31.78125 66.40625 
z
M 31.78125 74.21875 
Q 44.046875 74.21875 50.515625 64.515625 
Q 56.984375 54.828125 56.984375 36.375 
Q 56.984375 17.96875 50.515625 8.265625 
Q 44.046875 -1.421875 31.78125 -1.421875 
Q 19.53125 -1.421875 13.0625 8.265625 
Q 6.59375 17.96875 6.59375 36.375 
Q 6.59375 54.828125 13.0625 64.515625 
Q 19.53125 74.21875 31.78125 74.21875 
z
" id="DejaVuSans-48"/>
      </defs>
      <g transform="translate(121.491457 392.598437)scale(0.1 -0.1)">
       <use xlink:href="#DejaVuSans-8722"/>
       <use x="83.789062" xlink:href="#DejaVuSans-49"/>
       <use x="147.412109" xlink:href="#DejaVuSans-48"/>
      </g>
     </g>
    </g>
    <g id="xtick_2">
     <g id="line2d_2">
      <g>
       <use style="stroke:#000000;stroke-width:0.8;" x="229.72453" xlink:href="#m8f6197a71b" y="378"/>
      </g>
     </g>
     <g id="text_2">
      <!-- −5 -->
      <defs>
       <path d="M 10.796875 72.90625 
L 49.515625 72.90625 
L 49.515625 64.59375 
L 19.828125 64.59375 
L 19.828125 46.734375 
Q 21.96875 47.46875 24.109375 47.828125 
Q 26.265625 48.1875 28.421875 48.1875 
Q 40.625 48.1875 47.75 41.5 
Q 54.890625 34.8125 54.890625 23.390625 
Q 54.890625 11.625 47.5625 5.09375 
Q 40.234375 -1.421875 26.90625 -1.421875 
Q 22.3125 -1.421875 17.546875 -0.640625 
Q 12.796875 0.140625 7.71875 1.703125 
L 7.71875 11.625 
Q 12.109375 9.234375 16.796875 8.0625 
Q 21.484375 6.890625 26.703125 6.890625 
Q 35.15625 6.890625 40.078125 11.328125 
Q 45.015625 15.765625 45.015625 23.390625 
Q 45.015625 31 40.078125 35.4375 
Q 35.15625 39.890625 26.703125 39.890625 
Q 22.75 39.890625 18.8125 39.015625 
Q 14.890625 38.140625 10.796875 36.28125 
z
" id="DejaVuSans-53"/>
      </defs>
      <g transform="translate(222.353436 392.598437)scale(0.1 -0.1)">
       <use xlink:href="#DejaVuSans-8722"/>
       <use x="83.789062" xlink:href="#DejaVuSans-53"/>
      </g>
     </g>
    </g>
    <g id="xtick_3">
     <g id="line2d_3">
      <g>
       <use style="stroke:#000000;stroke-width:0.8;" x="327.405259" xlink:href="#m8f6197a71b" y="378"/>
      </g>
     </g>
     <g id="text_3">
      <!-- 0 -->
      <g transform="translate(324.224009 392.598437)scale(0.1 -0.1)">
       <use xlink:href="#DejaVuSans-48"/>
      </g>
     </g>
    </g>
    <g id="xtick_4">
     <g id="line2d_4">
      <g>
       <use style="stroke:#000000;stroke-width:0.8;" x="425.085989" xlink:href="#m8f6197a71b" y="378"/>
      </g>
     </g>
     <g id="text_4">
      <!-- 5 -->
      <g transform="translate(421.904739 392.598437)scale(0.1 -0.1)">
       <use xlink:href="#DejaVuSans-53"/>
      </g>
     </g>
    </g>
    <g id="xtick_5">
     <g id="line2d_5">
      <g>
       <use style="stroke:#000000;stroke-width:0.8;" x="522.766718" xlink:href="#m8f6197a71b" y="378"/>
      </g>
     </g>
     <g id="text_5">
      <!-- 10 -->
      <g transform="translate(516.404218 392.598437)scale(0.1 -0.1)">
       <use xlink:href="#DejaVuSans-49"/>
       <use x="63.623047" xlink:href="#DejaVuSans-48"/>
      </g>
     </g>
    </g>
    <g id="xtick_6">
     <g id="line2d_6">
      <g>
       <use style="stroke:#000000;stroke-width:0.8;" x="620.447448" xlink:href="#m8f6197a71b" y="378"/>
      </g>
     </g>
     <g id="text_6">
      <!-- 15 -->
      <g transform="translate(614.084948 392.598437)scale(0.1 -0.1)">
       <use xlink:href="#DejaVuSans-49"/>
       <use x="63.623047" xlink:href="#DejaVuSans-53"/>
      </g>
     </g>
    </g>
    <g id="text_7">
     <!-- tSNE-1 -->
     <defs>
      <path d="M 18.3125 70.21875 
L 18.3125 54.6875 
L 36.8125 54.6875 
L 36.8125 47.703125 
L 18.3125 47.703125 
L 18.3125 18.015625 
Q 18.3125 11.328125 20.140625 9.421875 
Q 21.96875 7.515625 27.59375 7.515625 
L 36.8125 7.515625 
L 36.8125 0 
L 27.59375 0 
Q 17.1875 0 13.234375 3.875 
Q 9.28125 7.765625 9.28125 18.015625 
L 9.28125 47.703125 
L 2.6875 47.703125 
L 2.6875 54.6875 
L 9.28125 54.6875 
L 9.28125 70.21875 
z
" id="DejaVuSans-116"/>
      <path d="M 53.515625 70.515625 
L 53.515625 60.890625 
Q 47.90625 63.578125 42.921875 64.890625 
Q 37.9375 66.21875 33.296875 66.21875 
Q 25.25 66.21875 20.875 63.09375 
Q 16.5 59.96875 16.5 54.203125 
Q 16.5 49.359375 19.40625 46.890625 
Q 22.3125 44.4375 30.421875 42.921875 
L 36.375 41.703125 
Q 47.40625 39.59375 52.65625 34.296875 
Q 57.90625 29 57.90625 20.125 
Q 57.90625 9.515625 50.796875 4.046875 
Q 43.703125 -1.421875 29.984375 -1.421875 
Q 24.8125 -1.421875 18.96875 -0.25 
Q 13.140625 0.921875 6.890625 3.21875 
L 6.890625 13.375 
Q 12.890625 10.015625 18.65625 8.296875 
Q 24.421875 6.59375 29.984375 6.59375 
Q 38.421875 6.59375 43.015625 9.90625 
Q 47.609375 13.234375 47.609375 19.390625 
Q 47.609375 24.75 44.3125 27.78125 
Q 41.015625 30.8125 33.5 32.328125 
L 27.484375 33.5 
Q 16.453125 35.6875 11.515625 40.375 
Q 6.59375 45.0625 6.59375 53.421875 
Q 6.59375 63.09375 13.40625 68.65625 
Q 20.21875 74.21875 32.171875 74.21875 
Q 37.3125 74.21875 42.625 73.28125 
Q 47.953125 72.359375 53.515625 70.515625 
z
" id="DejaVuSans-83"/>
      <path d="M 9.8125 72.90625 
L 23.09375 72.90625 
L 55.421875 11.921875 
L 55.421875 72.90625 
L 64.984375 72.90625 
L 64.984375 0 
L 51.703125 0 
L 19.390625 60.984375 
L 19.390625 0 
L 9.8125 0 
z
" id="DejaVuSans-78"/>
      <path d="M 9.8125 72.90625 
L 55.90625 72.90625 
L 55.90625 64.59375 
L 19.671875 64.59375 
L 19.671875 43.015625 
L 54.390625 43.015625 
L 54.390625 34.71875 
L 19.671875 34.71875 
L 19.671875 8.296875 
L 56.78125 8.296875 
L 56.78125 0 
L 9.8125 0 
z
" id="DejaVuSans-69"/>
      <path d="M 4.890625 31.390625 
L 31.203125 31.390625 
L 31.203125 23.390625 
L 4.890625 23.390625 
z
" id="DejaVuSans-45"/>
     </defs>
     <g transform="translate(351.980469 406.276563)scale(0.1 -0.1)">
      <use xlink:href="#DejaVuSans-116"/>
      <use x="39.208984" xlink:href="#DejaVuSans-83"/>
      <use x="102.685547" xlink:href="#DejaVuSans-78"/>
      <use x="177.490234" xlink:href="#DejaVuSans-69"/>
      <use x="240.673828" xlink:href="#DejaVuSans-45"/>
      <use x="276.757812" xlink:href="#DejaVuSans-49"/>
     </g>
    </g>
   </g>
   <g id="matplotlib.axis_2">
    <g id="ytick_1">
     <g id="line2d_7">
      <defs>
       <path d="M 0 0 
L -3.5 0 
" id="m6b35c0d5c5" style="stroke:#000000;stroke-width:0.8;"/>
      </defs>
      <g>
       <use style="stroke:#000000;stroke-width:0.8;" x="90" xlink:href="#m6b35c0d5c5" y="349.438606"/>
      </g>
     </g>
     <g id="text_8">
      <!-- −10 -->
      <g transform="translate(61.895313 353.237824)scale(0.1 -0.1)">
       <use xlink:href="#DejaVuSans-8722"/>
       <use x="83.789062" xlink:href="#DejaVuSans-49"/>
       <use x="147.412109" xlink:href="#DejaVuSans-48"/>
      </g>
     </g>
    </g>
    <g id="ytick_2">
     <g id="line2d_8">
      <g>
       <use style="stroke:#000000;stroke-width:0.8;" x="90" xlink:href="#m6b35c0d5c5" y="287.00042"/>
      </g>
     </g>
     <g id="text_9">
      <!-- −5 -->
      <g transform="translate(68.257812 290.799639)scale(0.1 -0.1)">
       <use xlink:href="#DejaVuSans-8722"/>
       <use x="83.789062" xlink:href="#DejaVuSans-53"/>
      </g>
     </g>
    </g>
    <g id="ytick_3">
     <g id="line2d_9">
      <g>
       <use style="stroke:#000000;stroke-width:0.8;" x="90" xlink:href="#m6b35c0d5c5" y="224.562234"/>
      </g>
     </g>
     <g id="text_10">
      <!-- 0 -->
      <g transform="translate(76.6375 228.361453)scale(0.1 -0.1)">
       <use xlink:href="#DejaVuSans-48"/>
      </g>
     </g>
    </g>
    <g id="ytick_4">
     <g id="line2d_10">
      <g>
       <use style="stroke:#000000;stroke-width:0.8;" x="90" xlink:href="#m6b35c0d5c5" y="162.124049"/>
      </g>
     </g>
     <g id="text_11">
      <!-- 5 -->
      <g transform="translate(76.6375 165.923267)scale(0.1 -0.1)">
       <use xlink:href="#DejaVuSans-53"/>
      </g>
     </g>
    </g>
    <g id="ytick_5">
     <g id="line2d_11">
      <g>
       <use style="stroke:#000000;stroke-width:0.8;" x="90" xlink:href="#m6b35c0d5c5" y="99.685863"/>
      </g>
     </g>
     <g id="text_12">
      <!-- 10 -->
      <g transform="translate(70.275 103.485082)scale(0.1 -0.1)">
       <use xlink:href="#DejaVuSans-49"/>
       <use x="63.623047" xlink:href="#DejaVuSans-48"/>
      </g>
     </g>
    </g>
    <g id="text_13">
     <!-- tSNE-2 -->
     <defs>
      <path d="M 19.1875 8.296875 
L 53.609375 8.296875 
L 53.609375 0 
L 7.328125 0 
L 7.328125 8.296875 
Q 12.9375 14.109375 22.625 23.890625 
Q 32.328125 33.6875 34.8125 36.53125 
Q 39.546875 41.84375 41.421875 45.53125 
Q 43.3125 49.21875 43.3125 52.78125 
Q 43.3125 58.59375 39.234375 62.25 
Q 35.15625 65.921875 28.609375 65.921875 
Q 23.96875 65.921875 18.8125 64.3125 
Q 13.671875 62.703125 7.8125 59.421875 
L 7.8125 69.390625 
Q 13.765625 71.78125 18.9375 73 
Q 24.125 74.21875 28.421875 74.21875 
Q 39.75 74.21875 46.484375 68.546875 
Q 53.21875 62.890625 53.21875 53.421875 
Q 53.21875 48.921875 51.53125 44.890625 
Q 49.859375 40.875 45.40625 35.40625 
Q 44.1875 33.984375 37.640625 27.21875 
Q 31.109375 20.453125 19.1875 8.296875 
z
" id="DejaVuSans-50"/>
     </defs>
     <g transform="translate(55.815625 231.939531)rotate(-90)scale(0.1 -0.1)">
      <use xlink:href="#DejaVuSans-116"/>
      <use x="39.208984" xlink:href="#DejaVuSans-83"/>
      <use x="102.685547" xlink:href="#DejaVuSans-78"/>
      <use x="177.490234" xlink:href="#DejaVuSans-69"/>
      <use x="240.673828" xlink:href="#DejaVuSans-45"/>
      <use x="276.757812" xlink:href="#DejaVuSans-50"/>
     </g>
    </g>
   </g>
   <g id="patch_3">
    <path d="M 90 378 
L 90 51.84 
" style="fill:none;stroke:#000000;stroke-linecap:square;stroke-linejoin:miter;stroke-width:0.8;"/>
   </g>
   <g id="patch_4">
    <path d="M 648 378 
L 648 51.84 
" style="fill:none;stroke:#000000;stroke-linecap:square;stroke-linejoin:miter;stroke-width:0.8;"/>
   </g>
   <g id="patch_5">
    <path d="M 90 378 
L 648 378 
" style="fill:none;stroke:#000000;stroke-linecap:square;stroke-linejoin:miter;stroke-width:0.8;"/>
   </g>
   <g id="patch_6">
    <path d="M 90 51.84 
L 648 51.84 
" style="fill:none;stroke:#000000;stroke-linecap:square;stroke-linejoin:miter;stroke-width:0.8;"/>
   </g>
   <g id="legend_1">
    <g id="patch_7">
     <path d="M 563.125 89.19625 
L 641 89.19625 
Q 643 89.19625 643 87.19625 
L 643 58.84 
Q 643 56.84 641 56.84 
L 563.125 56.84 
Q 561.125 56.84 561.125 58.84 
L 561.125 87.19625 
Q 561.125 89.19625 563.125 89.19625 
z
" style="fill:#ffffff;opacity:0.8;stroke:#cccccc;stroke-linejoin:miter;"/>
    </g>
    <g id="PathCollection_3">
     <g>
      <use style="fill:#00bfc4;stroke:#00bfc4;" x="575.125" xlink:href="#m347eb739d6" y="65.813437"/>
     </g>
    </g>
    <g id="text_14">
     <!-- D006262 -->
     <defs>
      <path d="M 19.671875 64.796875 
L 19.671875 8.109375 
L 31.59375 8.109375 
Q 46.6875 8.109375 53.6875 14.9375 
Q 60.6875 21.78125 60.6875 36.53125 
Q 60.6875 51.171875 53.6875 57.984375 
Q 46.6875 64.796875 31.59375 64.796875 
z
M 9.8125 72.90625 
L 30.078125 72.90625 
Q 51.265625 72.90625 61.171875 64.09375 
Q 71.09375 55.28125 71.09375 36.53125 
Q 71.09375 17.671875 61.125 8.828125 
Q 51.171875 0 30.078125 0 
L 9.8125 0 
z
" id="DejaVuSans-68"/>
      <path d="M 33.015625 40.375 
Q 26.375 40.375 22.484375 35.828125 
Q 18.609375 31.296875 18.609375 23.390625 
Q 18.609375 15.53125 22.484375 10.953125 
Q 26.375 6.390625 33.015625 6.390625 
Q 39.65625 6.390625 43.53125 10.953125 
Q 47.40625 15.53125 47.40625 23.390625 
Q 47.40625 31.296875 43.53125 35.828125 
Q 39.65625 40.375 33.015625 40.375 
z
M 52.59375 71.296875 
L 52.59375 62.3125 
Q 48.875 64.0625 45.09375 64.984375 
Q 41.3125 65.921875 37.59375 65.921875 
Q 27.828125 65.921875 22.671875 59.328125 
Q 17.53125 52.734375 16.796875 39.40625 
Q 19.671875 43.65625 24.015625 45.921875 
Q 28.375 48.1875 33.59375 48.1875 
Q 44.578125 48.1875 50.953125 41.515625 
Q 57.328125 34.859375 57.328125 23.390625 
Q 57.328125 12.15625 50.6875 5.359375 
Q 44.046875 -1.421875 33.015625 -1.421875 
Q 20.359375 -1.421875 13.671875 8.265625 
Q 6.984375 17.96875 6.984375 36.375 
Q 6.984375 53.65625 15.1875 63.9375 
Q 23.390625 74.21875 37.203125 74.21875 
Q 40.921875 74.21875 44.703125 73.484375 
Q 48.484375 72.75 52.59375 71.296875 
z
" id="DejaVuSans-54"/>
     </defs>
     <g transform="translate(593.125 68.438437)scale(0.1 -0.1)">
      <use xlink:href="#DejaVuSans-68"/>
      <use x="77.001953" xlink:href="#DejaVuSans-48"/>
      <use x="140.625" xlink:href="#DejaVuSans-48"/>
      <use x="204.248047" xlink:href="#DejaVuSans-54"/>
      <use x="267.871094" xlink:href="#DejaVuSans-50"/>
      <use x="331.494141" xlink:href="#DejaVuSans-54"/>
      <use x="395.117188" xlink:href="#DejaVuSans-50"/>
     </g>
    </g>
    <g id="PathCollection_4">
     <g>
      <use style="fill:#f8766d;stroke:#f8766d;" x="575.125" xlink:href="#m2495db3a08" y="80.491562"/>
     </g>
    </g>
    <g id="text_15">
     <!-- D037841 -->
     <defs>
      <path d="M 40.578125 39.3125 
Q 47.65625 37.796875 51.625 33 
Q 55.609375 28.21875 55.609375 21.1875 
Q 55.609375 10.40625 48.1875 4.484375 
Q 40.765625 -1.421875 27.09375 -1.421875 
Q 22.515625 -1.421875 17.65625 -0.515625 
Q 12.796875 0.390625 7.625 2.203125 
L 7.625 11.71875 
Q 11.71875 9.328125 16.59375 8.109375 
Q 21.484375 6.890625 26.8125 6.890625 
Q 36.078125 6.890625 40.9375 10.546875 
Q 45.796875 14.203125 45.796875 21.1875 
Q 45.796875 27.640625 41.28125 31.265625 
Q 36.765625 34.90625 28.71875 34.90625 
L 20.21875 34.90625 
L 20.21875 43.015625 
L 29.109375 43.015625 
Q 36.375 43.015625 40.234375 45.921875 
Q 44.09375 48.828125 44.09375 54.296875 
Q 44.09375 59.90625 40.109375 62.90625 
Q 36.140625 65.921875 28.71875 65.921875 
Q 24.65625 65.921875 20.015625 65.03125 
Q 15.375 64.15625 9.8125 62.3125 
L 9.8125 71.09375 
Q 15.4375 72.65625 20.34375 73.4375 
Q 25.25 74.21875 29.59375 74.21875 
Q 40.828125 74.21875 47.359375 69.109375 
Q 53.90625 64.015625 53.90625 55.328125 
Q 53.90625 49.265625 50.4375 45.09375 
Q 46.96875 40.921875 40.578125 39.3125 
z
" id="DejaVuSans-51"/>
      <path d="M 8.203125 72.90625 
L 55.078125 72.90625 
L 55.078125 68.703125 
L 28.609375 0 
L 18.3125 0 
L 43.21875 64.59375 
L 8.203125 64.59375 
z
" id="DejaVuSans-55"/>
      <path d="M 31.78125 34.625 
Q 24.75 34.625 20.71875 30.859375 
Q 16.703125 27.09375 16.703125 20.515625 
Q 16.703125 13.921875 20.71875 10.15625 
Q 24.75 6.390625 31.78125 6.390625 
Q 38.8125 6.390625 42.859375 10.171875 
Q 46.921875 13.96875 46.921875 20.515625 
Q 46.921875 27.09375 42.890625 30.859375 
Q 38.875 34.625 31.78125 34.625 
z
M 21.921875 38.8125 
Q 15.578125 40.375 12.03125 44.71875 
Q 8.5 49.078125 8.5 55.328125 
Q 8.5 64.0625 14.71875 69.140625 
Q 20.953125 74.21875 31.78125 74.21875 
Q 42.671875 74.21875 48.875 69.140625 
Q 55.078125 64.0625 55.078125 55.328125 
Q 55.078125 49.078125 51.53125 44.71875 
Q 48 40.375 41.703125 38.8125 
Q 48.828125 37.15625 52.796875 32.3125 
Q 56.78125 27.484375 56.78125 20.515625 
Q 56.78125 9.90625 50.3125 4.234375 
Q 43.84375 -1.421875 31.78125 -1.421875 
Q 19.734375 -1.421875 13.25 4.234375 
Q 6.78125 9.90625 6.78125 20.515625 
Q 6.78125 27.484375 10.78125 32.3125 
Q 14.796875 37.15625 21.921875 38.8125 
z
M 18.3125 54.390625 
Q 18.3125 48.734375 21.84375 45.5625 
Q 25.390625 42.390625 31.78125 42.390625 
Q 38.140625 42.390625 41.71875 45.5625 
Q 45.3125 48.734375 45.3125 54.390625 
Q 45.3125 60.0625 41.71875 63.234375 
Q 38.140625 66.40625 31.78125 66.40625 
Q 25.390625 66.40625 21.84375 63.234375 
Q 18.3125 60.0625 18.3125 54.390625 
z
" id="DejaVuSans-56"/>
      <path d="M 37.796875 64.3125 
L 12.890625 25.390625 
L 37.796875 25.390625 
z
M 35.203125 72.90625 
L 47.609375 72.90625 
L 47.609375 25.390625 
L 58.015625 25.390625 
L 58.015625 17.1875 
L 47.609375 17.1875 
L 47.609375 0 
L 37.796875 0 
L 37.796875 17.1875 
L 4.890625 17.1875 
L 4.890625 26.703125 
z
" id="DejaVuSans-52"/>
     </defs>
     <g transform="translate(593.125 83.116562)scale(0.1 -0.1)">
      <use xlink:href="#DejaVuSans-68"/>
      <use x="77.001953" xlink:href="#DejaVuSans-48"/>
      <use x="140.625" xlink:href="#DejaVuSans-51"/>
      <use x="204.248047" xlink:href="#DejaVuSans-55"/>
      <use x="267.871094" xlink:href="#DejaVuSans-56"/>
      <use x="331.494141" xlink:href="#DejaVuSans-52"/>
      <use x="395.117188" xlink:href="#DejaVuSans-49"/>
     </g>
    </g>
   </g>
  </g>
 </g>
 <defs>
  <clipPath id="paf83a2d329">
   <rect height="326.16" width="558" x="90" y="51.84"/>
  </clipPath>
 </defs>
</svg>
