<?xml version="1.0" encoding="utf-8" standalone="no"?>
<!DOCTYPE svg PUBLIC "-//W3C//DTD SVG 1.1//EN"
  "http://www.w3.org/Graphics/SVG/1.1/DTD/svg11.dtd">
<!-- Created with matplotlib (https://matplotlib.org/) -->
<svg height="432pt" version="1.1" viewBox="0 0 720 432" width="720pt" xmlns="http://www.w3.org/2000/svg" xmlns:xlink="http://www.w3.org/1999/xlink">
 <defs>
  <style type="text/css">
*{stroke-linecap:butt;stroke-linejoin:round;}
  </style>
 </defs>
 <g id="figure_1">
  <g id="patch_1">
   <path d="M 0 432 
L 720 432 
L 720 0 
L 0 0 
z
" style="fill:#ffffff;"/>
  </g>
  <g id="axes_1">
   <g id="patch_2">
    <path d="M 90 384.48 
L 648 384.48 
L 648 51.84 
L 90 51.84 
z
" style="fill:#ffffff;"/>
   </g>
   <g id="PathCollection_1">
    <defs>
     <path d="M 0 3 
C 0.795609 3 1.55874 2.683901 2.12132 2.12132 
C 2.683901 1.55874 3 0.795609 3 0 
C 3 -0.795609 2.683901 -1.55874 2.12132 -2.12132 
C 1.55874 -2.683901 0.795609 -3 0 -3 
C -0.795609 -3 -1.55874 -2.683901 -2.12132 -2.12132 
C -2.683901 -1.55874 -3 -0.795609 -3 0 
C -3 0.795609 -2.683901 1.55874 -2.12132 2.12132 
C -1.55874 2.683901 -0.795609 3 0 3 
z
" id="mf9d2b30044" style="stroke:#f8766d;"/>
    </defs>
    <g clip-path="url(#p1283776527)">
     <use style="fill:#f8766d;stroke:#f8766d;" x="352.488405" xlink:href="#mf9d2b30044" y="329.054513"/>
     <use style="fill:#f8766d;stroke:#f8766d;" x="241.29978" xlink:href="#mf9d2b30044" y="202.131403"/>
     <use style="fill:#f8766d;stroke:#f8766d;" x="381.1878" xlink:href="#mf9d2b30044" y="125.199826"/>
     <use style="fill:#f8766d;stroke:#f8766d;" x="597.272379" xlink:href="#mf9d2b30044" y="211.727656"/>
     <use style="fill:#f8766d;stroke:#f8766d;" x="499.884738" xlink:href="#mf9d2b30044" y="187.822907"/>
     <use style="fill:#f8766d;stroke:#f8766d;" x="526.280448" xlink:href="#mf9d2b30044" y="142.640542"/>
     <use style="fill:#f8766d;stroke:#f8766d;" x="544.242286" xlink:href="#mf9d2b30044" y="319.162736"/>
     <use style="fill:#f8766d;stroke:#f8766d;" x="163.784841" xlink:href="#mf9d2b30044" y="274.536427"/>
     <use style="fill:#f8766d;stroke:#f8766d;" x="248.076449" xlink:href="#mf9d2b30044" y="297.500568"/>
     <use style="fill:#f8766d;stroke:#f8766d;" x="390.324151" xlink:href="#mf9d2b30044" y="224.075245"/>
     <use style="fill:#f8766d;stroke:#f8766d;" x="583.096929" xlink:href="#mf9d2b30044" y="153.453306"/>
     <use style="fill:#f8766d;stroke:#f8766d;" x="290.801938" xlink:href="#mf9d2b30044" y="203.416871"/>
     <use style="fill:#f8766d;stroke:#f8766d;" x="622.540336" xlink:href="#mf9d2b30044" y="174.920258"/>
     <use style="fill:#f8766d;stroke:#f8766d;" x="232.566992" xlink:href="#mf9d2b30044" y="267.653269"/>
     <use style="fill:#f8766d;stroke:#f8766d;" x="417.601171" xlink:href="#mf9d2b30044" y="282.621146"/>
     <use style="fill:#f8766d;stroke:#f8766d;" x="335.860606" xlink:href="#mf9d2b30044" y="140.931497"/>
     <use style="fill:#f8766d;stroke:#f8766d;" x="438.161233" xlink:href="#mf9d2b30044" y="236.32212"/>
     <use style="fill:#f8766d;stroke:#f8766d;" x="582.163963" xlink:href="#mf9d2b30044" y="154.234007"/>
     <use style="fill:#f8766d;stroke:#f8766d;" x="274.863062" xlink:href="#mf9d2b30044" y="193.471989"/>
     <use style="fill:#f8766d;stroke:#f8766d;" x="271.330039" xlink:href="#mf9d2b30044" y="172.604809"/>
     <use style="fill:#f8766d;stroke:#f8766d;" x="214.33817" xlink:href="#mf9d2b30044" y="133.797734"/>
     <use style="fill:#f8766d;stroke:#f8766d;" x="213.34449" xlink:href="#mf9d2b30044" y="132.190899"/>
     <use style="fill:#f8766d;stroke:#f8766d;" x="230.405436" xlink:href="#mf9d2b30044" y="276.603661"/>
     <use style="fill:#f8766d;stroke:#f8766d;" x="352.541949" xlink:href="#mf9d2b30044" y="269.17399"/>
     <use style="fill:#f8766d;stroke:#f8766d;" x="352.178108" xlink:href="#mf9d2b30044" y="279.555621"/>
     <use style="fill:#f8766d;stroke:#f8766d;" x="381.231308" xlink:href="#mf9d2b30044" y="235.824399"/>
     <use style="fill:#f8766d;stroke:#f8766d;" x="198.907036" xlink:href="#mf9d2b30044" y="210.692652"/>
    </g>
   </g>
   <g id="PathCollection_2">
    <defs>
     <path d="M 0 3 
C 0.795609 3 1.55874 2.683901 2.12132 2.12132 
C 2.683901 1.55874 3 0.795609 3 0 
C 3 -0.795609 2.683901 -1.55874 2.12132 -2.12132 
C 1.55874 -2.683901 0.795609 -3 0 -3 
C -0.795609 -3 -1.55874 -2.683901 -2.12132 -2.12132 
C -2.683901 -1.55874 -3 -0.795609 -3 0 
C -3 0.795609 -2.683901 1.55874 -2.12132 2.12132 
C -1.55874 2.683901 -0.795609 3 0 3 
z
" id="m467dcffc9d" style="stroke:#00bfc4;"/>
    </defs>
    <g clip-path="url(#p1283776527)">
     <use style="fill:#00bfc4;stroke:#00bfc4;" x="493.765992" xlink:href="#m467dcffc9d" y="141.08652"/>
     <use style="fill:#00bfc4;stroke:#00bfc4;" x="321.470539" xlink:href="#m467dcffc9d" y="225.921562"/>
     <use style="fill:#00bfc4;stroke:#00bfc4;" x="455.832788" xlink:href="#m467dcffc9d" y="165.312738"/>
     <use style="fill:#00bfc4;stroke:#00bfc4;" x="473.262076" xlink:href="#m467dcffc9d" y="171.162221"/>
     <use style="fill:#00bfc4;stroke:#00bfc4;" x="463.608624" xlink:href="#m467dcffc9d" y="177.387445"/>
     <use style="fill:#00bfc4;stroke:#00bfc4;" x="529.340398" xlink:href="#m467dcffc9d" y="124.974657"/>
     <use style="fill:#00bfc4;stroke:#00bfc4;" x="525.524111" xlink:href="#m467dcffc9d" y="184.686841"/>
     <use style="fill:#00bfc4;stroke:#00bfc4;" x="474.886248" xlink:href="#m467dcffc9d" y="174.129818"/>
     <use style="fill:#00bfc4;stroke:#00bfc4;" x="481.649704" xlink:href="#m467dcffc9d" y="197.116841"/>
     <use style="fill:#00bfc4;stroke:#00bfc4;" x="475.041013" xlink:href="#m467dcffc9d" y="174.066307"/>
     <use style="fill:#00bfc4;stroke:#00bfc4;" x="498.031164" xlink:href="#m467dcffc9d" y="174.897917"/>
     <use style="fill:#00bfc4;stroke:#00bfc4;" x="459.067034" xlink:href="#m467dcffc9d" y="165.665501"/>
     <use style="fill:#00bfc4;stroke:#00bfc4;" x="475.011849" xlink:href="#m467dcffc9d" y="174.062898"/>
     <use style="fill:#00bfc4;stroke:#00bfc4;" x="421.012411" xlink:href="#m467dcffc9d" y="123.491386"/>
     <use style="fill:#00bfc4;stroke:#00bfc4;" x="443.478888" xlink:href="#m467dcffc9d" y="154.400593"/>
     <use style="fill:#00bfc4;stroke:#00bfc4;" x="427.497009" xlink:href="#m467dcffc9d" y="147.955099"/>
     <use style="fill:#00bfc4;stroke:#00bfc4;" x="477.924629" xlink:href="#m467dcffc9d" y="210.98545"/>
     <use style="fill:#00bfc4;stroke:#00bfc4;" x="483.732199" xlink:href="#m467dcffc9d" y="114.174893"/>
     <use style="fill:#00bfc4;stroke:#00bfc4;" x="404.032554" xlink:href="#m467dcffc9d" y="145.795776"/>
     <use style="fill:#00bfc4;stroke:#00bfc4;" x="234.581721" xlink:href="#m467dcffc9d" y="161.260913"/>
     <use style="fill:#00bfc4;stroke:#00bfc4;" x="451.477585" xlink:href="#m467dcffc9d" y="268.956781"/>
     <use style="fill:#00bfc4;stroke:#00bfc4;" x="542.681719" xlink:href="#m467dcffc9d" y="160.597461"/>
     <use style="fill:#00bfc4;stroke:#00bfc4;" x="187.774257" xlink:href="#m467dcffc9d" y="228.172466"/>
     <use style="fill:#00bfc4;stroke:#00bfc4;" x="397.886153" xlink:href="#m467dcffc9d" y="200.493246"/>
     <use style="fill:#00bfc4;stroke:#00bfc4;" x="262.280764" xlink:href="#m467dcffc9d" y="279.253035"/>
     <use style="fill:#00bfc4;stroke:#00bfc4;" x="288.908903" xlink:href="#m467dcffc9d" y="244.675375"/>
     <use style="fill:#00bfc4;stroke:#00bfc4;" x="236.880989" xlink:href="#m467dcffc9d" y="230.731178"/>
     <use style="fill:#00bfc4;stroke:#00bfc4;" x="293.321467" xlink:href="#m467dcffc9d" y="197.272866"/>
     <use style="fill:#00bfc4;stroke:#00bfc4;" x="220.175946" xlink:href="#m467dcffc9d" y="150.204181"/>
     <use style="fill:#00bfc4;stroke:#00bfc4;" x="392.122257" xlink:href="#m467dcffc9d" y="312.252934"/>
     <use style="fill:#00bfc4;stroke:#00bfc4;" x="393.274798" xlink:href="#m467dcffc9d" y="93.370782"/>
     <use style="fill:#00bfc4;stroke:#00bfc4;" x="314.896826" xlink:href="#m467dcffc9d" y="306.400295"/>
     <use style="fill:#00bfc4;stroke:#00bfc4;" x="184.455678" xlink:href="#m467dcffc9d" y="238.334132"/>
     <use style="fill:#00bfc4;stroke:#00bfc4;" x="460.004352" xlink:href="#m467dcffc9d" y="205.931994"/>
     <use style="fill:#00bfc4;stroke:#00bfc4;" x="431.357619" xlink:href="#m467dcffc9d" y="205.893825"/>
     <use style="fill:#00bfc4;stroke:#00bfc4;" x="492.844427" xlink:href="#m467dcffc9d" y="278.138673"/>
     <use style="fill:#00bfc4;stroke:#00bfc4;" x="358.541178" xlink:href="#m467dcffc9d" y="280.091185"/>
     <use style="fill:#00bfc4;stroke:#00bfc4;" x="438.160368" xlink:href="#m467dcffc9d" y="287.353992"/>
     <use style="fill:#00bfc4;stroke:#00bfc4;" x="399.991824" xlink:href="#m467dcffc9d" y="166.034426"/>
     <use style="fill:#00bfc4;stroke:#00bfc4;" x="425.502969" xlink:href="#m467dcffc9d" y="167.133597"/>
     <use style="fill:#00bfc4;stroke:#00bfc4;" x="345.151268" xlink:href="#m467dcffc9d" y="287.890174"/>
     <use style="fill:#00bfc4;stroke:#00bfc4;" x="308.756605" xlink:href="#m467dcffc9d" y="367.902195"/>
     <use style="fill:#00bfc4;stroke:#00bfc4;" x="424.998813" xlink:href="#m467dcffc9d" y="189.146231"/>
     <use style="fill:#00bfc4;stroke:#00bfc4;" x="517.43651" xlink:href="#m467dcffc9d" y="162.527918"/>
     <use style="fill:#00bfc4;stroke:#00bfc4;" x="519.296839" xlink:href="#m467dcffc9d" y="314.32292"/>
     <use style="fill:#00bfc4;stroke:#00bfc4;" x="225.915197" xlink:href="#m467dcffc9d" y="257.536214"/>
     <use style="fill:#00bfc4;stroke:#00bfc4;" x="320.859983" xlink:href="#m467dcffc9d" y="261.702082"/>
     <use style="fill:#00bfc4;stroke:#00bfc4;" x="302.795951" xlink:href="#m467dcffc9d" y="195.942377"/>
     <use style="fill:#00bfc4;stroke:#00bfc4;" x="472.915688" xlink:href="#m467dcffc9d" y="252.638581"/>
     <use style="fill:#00bfc4;stroke:#00bfc4;" x="226.95549" xlink:href="#m467dcffc9d" y="188.850554"/>
     <use style="fill:#00bfc4;stroke:#00bfc4;" x="516.257858" xlink:href="#m467dcffc9d" y="98.599733"/>
     <use style="fill:#00bfc4;stroke:#00bfc4;" x="353.099636" xlink:href="#m467dcffc9d" y="203.976224"/>
     <use style="fill:#00bfc4;stroke:#00bfc4;" x="176.430703" xlink:href="#m467dcffc9d" y="284.51116"/>
     <use style="fill:#00bfc4;stroke:#00bfc4;" x="475.102986" xlink:href="#m467dcffc9d" y="68.417805"/>
     <use style="fill:#00bfc4;stroke:#00bfc4;" x="444.627978" xlink:href="#m467dcffc9d" y="188.870207"/>
     <use style="fill:#00bfc4;stroke:#00bfc4;" x="455.876716" xlink:href="#m467dcffc9d" y="192.978515"/>
     <use style="fill:#00bfc4;stroke:#00bfc4;" x="418.679789" xlink:href="#m467dcffc9d" y="210.20897"/>
     <use style="fill:#00bfc4;stroke:#00bfc4;" x="489.664424" xlink:href="#m467dcffc9d" y="163.212264"/>
     <use style="fill:#00bfc4;stroke:#00bfc4;" x="197.457466" xlink:href="#m467dcffc9d" y="339.111464"/>
     <use style="fill:#00bfc4;stroke:#00bfc4;" x="212.066204" xlink:href="#m467dcffc9d" y="216.767566"/>
     <use style="fill:#00bfc4;stroke:#00bfc4;" x="284.094451" xlink:href="#m467dcffc9d" y="299.911083"/>
     <use style="fill:#00bfc4;stroke:#00bfc4;" x="333.771537" xlink:href="#m467dcffc9d" y="341.387728"/>
     <use style="fill:#00bfc4;stroke:#00bfc4;" x="279.172269" xlink:href="#m467dcffc9d" y="105.522368"/>
     <use style="fill:#00bfc4;stroke:#00bfc4;" x="192.808707" xlink:href="#m467dcffc9d" y="299.564603"/>
     <use style="fill:#00bfc4;stroke:#00bfc4;" x="500.185119" xlink:href="#m467dcffc9d" y="270.899929"/>
     <use style="fill:#00bfc4;stroke:#00bfc4;" x="339.265187" xlink:href="#m467dcffc9d" y="362.548173"/>
     <use style="fill:#00bfc4;stroke:#00bfc4;" x="397.669419" xlink:href="#m467dcffc9d" y="199.471041"/>
     <use style="fill:#00bfc4;stroke:#00bfc4;" x="517.713193" xlink:href="#m467dcffc9d" y="163.409085"/>
     <use style="fill:#00bfc4;stroke:#00bfc4;" x="212.479451" xlink:href="#m467dcffc9d" y="130.438821"/>
     <use style="fill:#00bfc4;stroke:#00bfc4;" x="267.934116" xlink:href="#m467dcffc9d" y="209.56052"/>
     <use style="fill:#00bfc4;stroke:#00bfc4;" x="473.111144" xlink:href="#m467dcffc9d" y="249.227732"/>
     <use style="fill:#00bfc4;stroke:#00bfc4;" x="452.678172" xlink:href="#m467dcffc9d" y="340.428904"/>
     <use style="fill:#00bfc4;stroke:#00bfc4;" x="506.445876" xlink:href="#m467dcffc9d" y="206.851831"/>
     <use style="fill:#00bfc4;stroke:#00bfc4;" x="449.06366" xlink:href="#m467dcffc9d" y="218.359676"/>
     <use style="fill:#00bfc4;stroke:#00bfc4;" x="380.687319" xlink:href="#m467dcffc9d" y="300.258312"/>
     <use style="fill:#00bfc4;stroke:#00bfc4;" x="404.339264" xlink:href="#m467dcffc9d" y="262.322817"/>
     <use style="fill:#00bfc4;stroke:#00bfc4;" x="512.563669" xlink:href="#m467dcffc9d" y="239.879112"/>
     <use style="fill:#00bfc4;stroke:#00bfc4;" x="363.315869" xlink:href="#m467dcffc9d" y="144.485298"/>
     <use style="fill:#00bfc4;stroke:#00bfc4;" x="228.494269" xlink:href="#m467dcffc9d" y="303.157089"/>
     <use style="fill:#00bfc4;stroke:#00bfc4;" x="268.11153" xlink:href="#m467dcffc9d" y="239.179903"/>
     <use style="fill:#00bfc4;stroke:#00bfc4;" x="198.079778" xlink:href="#m467dcffc9d" y="337.114618"/>
     <use style="fill:#00bfc4;stroke:#00bfc4;" x="345.403245" xlink:href="#m467dcffc9d" y="104.313"/>
     <use style="fill:#00bfc4;stroke:#00bfc4;" x="332.643477" xlink:href="#m467dcffc9d" y="257.145333"/>
     <use style="fill:#00bfc4;stroke:#00bfc4;" x="117.317865" xlink:href="#m467dcffc9d" y="223.347442"/>
     <use style="fill:#00bfc4;stroke:#00bfc4;" x="590.98674" xlink:href="#m467dcffc9d" y="220.194278"/>
     <use style="fill:#00bfc4;stroke:#00bfc4;" x="349.619795" xlink:href="#m467dcffc9d" y="208.983755"/>
     <use style="fill:#00bfc4;stroke:#00bfc4;" x="595.897399" xlink:href="#m467dcffc9d" y="201.952336"/>
     <use style="fill:#00bfc4;stroke:#00bfc4;" x="300.579253" xlink:href="#m467dcffc9d" y="266.596244"/>
     <use style="fill:#00bfc4;stroke:#00bfc4;" x="284.488954" xlink:href="#m467dcffc9d" y="319.883001"/>
     <use style="fill:#00bfc4;stroke:#00bfc4;" x="377.792576" xlink:href="#m467dcffc9d" y="175.085035"/>
     <use style="fill:#00bfc4;stroke:#00bfc4;" x="330.032493" xlink:href="#m467dcffc9d" y="187.491801"/>
     <use style="fill:#00bfc4;stroke:#00bfc4;" x="250.471384" xlink:href="#m467dcffc9d" y="140.404169"/>
     <use style="fill:#00bfc4;stroke:#00bfc4;" x="384.432105" xlink:href="#m467dcffc9d" y="254.057411"/>
     <use style="fill:#00bfc4;stroke:#00bfc4;" x="294.388179" xlink:href="#m467dcffc9d" y="160.517117"/>
     <use style="fill:#00bfc4;stroke:#00bfc4;" x="515.951027" xlink:href="#m467dcffc9d" y="261.831921"/>
     <use style="fill:#00bfc4;stroke:#00bfc4;" x="299.314966" xlink:href="#m467dcffc9d" y="240.029932"/>
     <use style="fill:#00bfc4;stroke:#00bfc4;" x="197.203236" xlink:href="#m467dcffc9d" y="283.643872"/>
     <use style="fill:#00bfc4;stroke:#00bfc4;" x="388.060029" xlink:href="#m467dcffc9d" y="183.489424"/>
     <use style="fill:#00bfc4;stroke:#00bfc4;" x="181.95363" xlink:href="#m467dcffc9d" y="236.283963"/>
     <use style="fill:#00bfc4;stroke:#00bfc4;" x="493.028944" xlink:href="#m467dcffc9d" y="304.775467"/>
     <use style="fill:#00bfc4;stroke:#00bfc4;" x="431.98684" xlink:href="#m467dcffc9d" y="76.279733"/>
     <use style="fill:#00bfc4;stroke:#00bfc4;" x="185.773377" xlink:href="#m467dcffc9d" y="347.375968"/>
     <use style="fill:#00bfc4;stroke:#00bfc4;" x="249.872403" xlink:href="#m467dcffc9d" y="239.712398"/>
     <use style="fill:#00bfc4;stroke:#00bfc4;" x="495.926531" xlink:href="#m467dcffc9d" y="291.261825"/>
     <use style="fill:#00bfc4;stroke:#00bfc4;" x="190.028021" xlink:href="#m467dcffc9d" y="161.699686"/>
     <use style="fill:#00bfc4;stroke:#00bfc4;" x="283.224939" xlink:href="#m467dcffc9d" y="256.977957"/>
     <use style="fill:#00bfc4;stroke:#00bfc4;" x="392.931385" xlink:href="#m467dcffc9d" y="230.841666"/>
     <use style="fill:#00bfc4;stroke:#00bfc4;" x="326.067126" xlink:href="#m467dcffc9d" y="334.558804"/>
     <use style="fill:#00bfc4;stroke:#00bfc4;" x="288.192958" xlink:href="#m467dcffc9d" y="169.849671"/>
     <use style="fill:#00bfc4;stroke:#00bfc4;" x="372.880819" xlink:href="#m467dcffc9d" y="187.345877"/>
     <use style="fill:#00bfc4;stroke:#00bfc4;" x="592.534713" xlink:href="#m467dcffc9d" y="217.74756"/>
     <use style="fill:#00bfc4;stroke:#00bfc4;" x="427.676507" xlink:href="#m467dcffc9d" y="282.19093"/>
     <use style="fill:#00bfc4;stroke:#00bfc4;" x="337.032075" xlink:href="#m467dcffc9d" y="356.41524"/>
     <use style="fill:#00bfc4;stroke:#00bfc4;" x="391.099769" xlink:href="#m467dcffc9d" y="183.084392"/>
     <use style="fill:#00bfc4;stroke:#00bfc4;" x="288.698076" xlink:href="#m467dcffc9d" y="242.795123"/>
     <use style="fill:#00bfc4;stroke:#00bfc4;" x="535.575902" xlink:href="#m467dcffc9d" y="200.6162"/>
     <use style="fill:#00bfc4;stroke:#00bfc4;" x="195.4494" xlink:href="#m467dcffc9d" y="248.477951"/>
     <use style="fill:#00bfc4;stroke:#00bfc4;" x="494.187517" xlink:href="#m467dcffc9d" y="225.5369"/>
     <use style="fill:#00bfc4;stroke:#00bfc4;" x="118.180785" xlink:href="#m467dcffc9d" y="223.2659"/>
     <use style="fill:#00bfc4;stroke:#00bfc4;" x="227.202315" xlink:href="#m467dcffc9d" y="257.508608"/>
     <use style="fill:#00bfc4;stroke:#00bfc4;" x="279.722873" xlink:href="#m467dcffc9d" y="314.680209"/>
     <use style="fill:#00bfc4;stroke:#00bfc4;" x="295.335003" xlink:href="#m467dcffc9d" y="219.579359"/>
     <use style="fill:#00bfc4;stroke:#00bfc4;" x="171.631998" xlink:href="#m467dcffc9d" y="212.468029"/>
     <use style="fill:#00bfc4;stroke:#00bfc4;" x="214.798915" xlink:href="#m467dcffc9d" y="152.239817"/>
     <use style="fill:#00bfc4;stroke:#00bfc4;" x="257.354794" xlink:href="#m467dcffc9d" y="318.606003"/>
     <use style="fill:#00bfc4;stroke:#00bfc4;" x="432.46562" xlink:href="#m467dcffc9d" y="78.54657"/>
     <use style="fill:#00bfc4;stroke:#00bfc4;" x="161.065147" xlink:href="#m467dcffc9d" y="288.926068"/>
     <use style="fill:#00bfc4;stroke:#00bfc4;" x="416.842387" xlink:href="#m467dcffc9d" y="338.461935"/>
     <use style="fill:#00bfc4;stroke:#00bfc4;" x="337.997489" xlink:href="#m467dcffc9d" y="142.34497"/>
     <use style="fill:#00bfc4;stroke:#00bfc4;" x="311.142832" xlink:href="#m467dcffc9d" y="256.140745"/>
     <use style="fill:#00bfc4;stroke:#00bfc4;" x="361.583461" xlink:href="#m467dcffc9d" y="305.001472"/>
     <use style="fill:#00bfc4;stroke:#00bfc4;" x="329.373026" xlink:href="#m467dcffc9d" y="181.071127"/>
     <use style="fill:#00bfc4;stroke:#00bfc4;" x="302.511416" xlink:href="#m467dcffc9d" y="302.418804"/>
     <use style="fill:#00bfc4;stroke:#00bfc4;" x="354.93454" xlink:href="#m467dcffc9d" y="323.94084"/>
     <use style="fill:#00bfc4;stroke:#00bfc4;" x="358.426211" xlink:href="#m467dcffc9d" y="352.639323"/>
     <use style="fill:#00bfc4;stroke:#00bfc4;" x="352.025707" xlink:href="#m467dcffc9d" y="207.094655"/>
     <use style="fill:#00bfc4;stroke:#00bfc4;" x="474.430712" xlink:href="#m467dcffc9d" y="186.804001"/>
     <use style="fill:#00bfc4;stroke:#00bfc4;" x="421.408496" xlink:href="#m467dcffc9d" y="124.210147"/>
     <use style="fill:#00bfc4;stroke:#00bfc4;" x="456.985358" xlink:href="#m467dcffc9d" y="174.701596"/>
     <use style="fill:#00bfc4;stroke:#00bfc4;" x="495.262962" xlink:href="#m467dcffc9d" y="101.344014"/>
     <use style="fill:#00bfc4;stroke:#00bfc4;" x="500.449111" xlink:href="#m467dcffc9d" y="137.118753"/>
     <use style="fill:#00bfc4;stroke:#00bfc4;" x="482.494138" xlink:href="#m467dcffc9d" y="151.214661"/>
     <use style="fill:#00bfc4;stroke:#00bfc4;" x="465.173448" xlink:href="#m467dcffc9d" y="169.74352"/>
     <use style="fill:#00bfc4;stroke:#00bfc4;" x="458.940542" xlink:href="#m467dcffc9d" y="177.441551"/>
     <use style="fill:#00bfc4;stroke:#00bfc4;" x="507.6089" xlink:href="#m467dcffc9d" y="102.758809"/>
     <use style="fill:#00bfc4;stroke:#00bfc4;" x="462.978946" xlink:href="#m467dcffc9d" y="148.917055"/>
     <use style="fill:#00bfc4;stroke:#00bfc4;" x="474.817326" xlink:href="#m467dcffc9d" y="128.440375"/>
     <use style="fill:#00bfc4;stroke:#00bfc4;" x="516.62504" xlink:href="#m467dcffc9d" y="122.44732"/>
     <use style="fill:#00bfc4;stroke:#00bfc4;" x="460.232844" xlink:href="#m467dcffc9d" y="126.224546"/>
     <use style="fill:#00bfc4;stroke:#00bfc4;" x="457.505301" xlink:href="#m467dcffc9d" y="174.870711"/>
     <use style="fill:#00bfc4;stroke:#00bfc4;" x="477.462124" xlink:href="#m467dcffc9d" y="156.764648"/>
     <use style="fill:#00bfc4;stroke:#00bfc4;" x="468.040143" xlink:href="#m467dcffc9d" y="169.36442"/>
     <use style="fill:#00bfc4;stroke:#00bfc4;" x="463.531989" xlink:href="#m467dcffc9d" y="143.293754"/>
     <use style="fill:#00bfc4;stroke:#00bfc4;" x="441.256078" xlink:href="#m467dcffc9d" y="167.394197"/>
     <use style="fill:#00bfc4;stroke:#00bfc4;" x="454.455796" xlink:href="#m467dcffc9d" y="119.057132"/>
     <use style="fill:#00bfc4;stroke:#00bfc4;" x="468.133537" xlink:href="#m467dcffc9d" y="177.705249"/>
     <use style="fill:#00bfc4;stroke:#00bfc4;" x="456.886957" xlink:href="#m467dcffc9d" y="127.649755"/>
     <use style="fill:#00bfc4;stroke:#00bfc4;" x="486.760878" xlink:href="#m467dcffc9d" y="126.058114"/>
     <use style="fill:#00bfc4;stroke:#00bfc4;" x="526.102183" xlink:href="#m467dcffc9d" y="188.212107"/>
     <use style="fill:#00bfc4;stroke:#00bfc4;" x="527.864143" xlink:href="#m467dcffc9d" y="264.030087"/>
     <use style="fill:#00bfc4;stroke:#00bfc4;" x="409.428928" xlink:href="#m467dcffc9d" y="105.575544"/>
     <use style="fill:#00bfc4;stroke:#00bfc4;" x="200.633101" xlink:href="#m467dcffc9d" y="195.876542"/>
     <use style="fill:#00bfc4;stroke:#00bfc4;" x="556.777651" xlink:href="#m467dcffc9d" y="176.889517"/>
     <use style="fill:#00bfc4;stroke:#00bfc4;" x="556.617835" xlink:href="#m467dcffc9d" y="118.708671"/>
     <use style="fill:#00bfc4;stroke:#00bfc4;" x="184.475338" xlink:href="#m467dcffc9d" y="301.383948"/>
     <use style="fill:#00bfc4;stroke:#00bfc4;" x="405.370779" xlink:href="#m467dcffc9d" y="283.534443"/>
     <use style="fill:#00bfc4;stroke:#00bfc4;" x="249.365749" xlink:href="#m467dcffc9d" y="220.542489"/>
     <use style="fill:#00bfc4;stroke:#00bfc4;" x="150.506209" xlink:href="#m467dcffc9d" y="257.740293"/>
     <use style="fill:#00bfc4;stroke:#00bfc4;" x="255.335592" xlink:href="#m467dcffc9d" y="336.093491"/>
     <use style="fill:#00bfc4;stroke:#00bfc4;" x="326.989661" xlink:href="#m467dcffc9d" y="240.546743"/>
     <use style="fill:#00bfc4;stroke:#00bfc4;" x="296.657684" xlink:href="#m467dcffc9d" y="342.682314"/>
     <use style="fill:#00bfc4;stroke:#00bfc4;" x="304.9835" xlink:href="#m467dcffc9d" y="290.812153"/>
     <use style="fill:#00bfc4;stroke:#00bfc4;" x="454.077252" xlink:href="#m467dcffc9d" y="340.848225"/>
     <use style="fill:#00bfc4;stroke:#00bfc4;" x="246.05651" xlink:href="#m467dcffc9d" y="349.96032"/>
     <use style="fill:#00bfc4;stroke:#00bfc4;" x="228.109092" xlink:href="#m467dcffc9d" y="206.083296"/>
     <use style="fill:#00bfc4;stroke:#00bfc4;" x="408.516036" xlink:href="#m467dcffc9d" y="266.153466"/>
     <use style="fill:#00bfc4;stroke:#00bfc4;" x="255.740992" xlink:href="#m467dcffc9d" y="280.155096"/>
     <use style="fill:#00bfc4;stroke:#00bfc4;" x="338.739211" xlink:href="#m467dcffc9d" y="363.281535"/>
     <use style="fill:#00bfc4;stroke:#00bfc4;" x="246.327133" xlink:href="#m467dcffc9d" y="290.286806"/>
     <use style="fill:#00bfc4;stroke:#00bfc4;" x="582.295615" xlink:href="#m467dcffc9d" y="232.40582"/>
     <use style="fill:#00bfc4;stroke:#00bfc4;" x="435.05078" xlink:href="#m467dcffc9d" y="247.740777"/>
     <use style="fill:#00bfc4;stroke:#00bfc4;" x="263.454889" xlink:href="#m467dcffc9d" y="134.248103"/>
     <use style="fill:#00bfc4;stroke:#00bfc4;" x="538.313274" xlink:href="#m467dcffc9d" y="215.458702"/>
     <use style="fill:#00bfc4;stroke:#00bfc4;" x="487.516497" xlink:href="#m467dcffc9d" y="310.122871"/>
     <use style="fill:#00bfc4;stroke:#00bfc4;" x="279.826064" xlink:href="#m467dcffc9d" y="208.159477"/>
     <use style="fill:#00bfc4;stroke:#00bfc4;" x="545.211489" xlink:href="#m467dcffc9d" y="319.152971"/>
     <use style="fill:#00bfc4;stroke:#00bfc4;" x="405.246401" xlink:href="#m467dcffc9d" y="231.130111"/>
    </g>
   </g>
   <g id="matplotlib.axis_1">
    <g id="xtick_1">
     <g id="line2d_1">
      <defs>
       <path d="M 0 0 
L 0 3.5 
" id="m4816c0e2fa" style="stroke:#000000;stroke-width:0.8;"/>
      </defs>
      <g>
       <use style="stroke:#000000;stroke-width:0.8;" x="142.026294" xlink:href="#m4816c0e2fa" y="384.48"/>
      </g>
     </g>
     <g id="text_1">
      <!-- −10.0 -->
      <defs>
       <path d="M 10.59375 35.5 
L 73.1875 35.5 
L 73.1875 27.203125 
L 10.59375 27.203125 
z
" id="DejaVuSans-8722"/>
       <path d="M 12.40625 8.296875 
L 28.515625 8.296875 
L 28.515625 63.921875 
L 10.984375 60.40625 
L 10.984375 69.390625 
L 28.421875 72.90625 
L 38.28125 72.90625 
L 38.28125 8.296875 
L 54.390625 8.296875 
L 54.390625 0 
L 12.40625 0 
z
" id="DejaVuSans-49"/>
       <path d="M 31.78125 66.40625 
Q 24.171875 66.40625 20.328125 58.90625 
Q 16.5 51.421875 16.5 36.375 
Q 16.5 21.390625 20.328125 13.890625 
Q 24.171875 6.390625 31.78125 6.390625 
Q 39.453125 6.390625 43.28125 13.890625 
Q 47.125 21.390625 47.125 36.375 
Q 47.125 51.421875 43.28125 58.90625 
Q 39.453125 66.40625 31.78125 66.40625 
z
M 31.78125 74.21875 
Q 44.046875 74.21875 50.515625 64.515625 
Q 56.984375 54.828125 56.984375 36.375 
Q 56.984375 17.96875 50.515625 8.265625 
Q 44.046875 -1.421875 31.78125 -1.421875 
Q 19.53125 -1.421875 13.0625 8.265625 
Q 6.59375 17.96875 6.59375 36.375 
Q 6.59375 54.828125 13.0625 64.515625 
Q 19.53125 74.21875 31.78125 74.21875 
z
" id="DejaVuSans-48"/>
       <path d="M 10.6875 12.40625 
L 21 12.40625 
L 21 0 
L 10.6875 0 
z
" id="DejaVuSans-46"/>
      </defs>
      <g transform="translate(126.703637 399.078438)scale(0.1 -0.1)">
       <use xlink:href="#DejaVuSans-8722"/>
       <use x="83.789062" xlink:href="#DejaVuSans-49"/>
       <use x="147.412109" xlink:href="#DejaVuSans-48"/>
       <use x="211.035156" xlink:href="#DejaVuSans-46"/>
       <use x="242.822266" xlink:href="#DejaVuSans-48"/>
      </g>
     </g>
    </g>
    <g id="xtick_2">
     <g id="line2d_2">
      <g>
       <use style="stroke:#000000;stroke-width:0.8;" x="204.044446" xlink:href="#m4816c0e2fa" y="384.48"/>
      </g>
     </g>
     <g id="text_2">
      <!-- −7.5 -->
      <defs>
       <path d="M 8.203125 72.90625 
L 55.078125 72.90625 
L 55.078125 68.703125 
L 28.609375 0 
L 18.3125 0 
L 43.21875 64.59375 
L 8.203125 64.59375 
z
" id="DejaVuSans-55"/>
       <path d="M 10.796875 72.90625 
L 49.515625 72.90625 
L 49.515625 64.59375 
L 19.828125 64.59375 
L 19.828125 46.734375 
Q 21.96875 47.46875 24.109375 47.828125 
Q 26.265625 48.1875 28.421875 48.1875 
Q 40.625 48.1875 47.75 41.5 
Q 54.890625 34.8125 54.890625 23.390625 
Q 54.890625 11.625 47.5625 5.09375 
Q 40.234375 -1.421875 26.90625 -1.421875 
Q 22.3125 -1.421875 17.546875 -0.640625 
Q 12.796875 0.140625 7.71875 1.703125 
L 7.71875 11.625 
Q 12.109375 9.234375 16.796875 8.0625 
Q 21.484375 6.890625 26.703125 6.890625 
Q 35.15625 6.890625 40.078125 11.328125 
Q 45.015625 15.765625 45.015625 23.390625 
Q 45.015625 31 40.078125 35.4375 
Q 35.15625 39.890625 26.703125 39.890625 
Q 22.75 39.890625 18.8125 39.015625 
Q 14.890625 38.140625 10.796875 36.28125 
z
" id="DejaVuSans-53"/>
      </defs>
      <g transform="translate(191.90304 399.078438)scale(0.1 -0.1)">
       <use xlink:href="#DejaVuSans-8722"/>
       <use x="83.789062" xlink:href="#DejaVuSans-55"/>
       <use x="147.412109" xlink:href="#DejaVuSans-46"/>
       <use x="179.199219" xlink:href="#DejaVuSans-53"/>
      </g>
     </g>
    </g>
    <g id="xtick_3">
     <g id="line2d_3">
      <g>
       <use style="stroke:#000000;stroke-width:0.8;" x="266.062599" xlink:href="#m4816c0e2fa" y="384.48"/>
      </g>
     </g>
     <g id="text_3">
      <!-- −5.0 -->
      <g transform="translate(253.921193 399.078438)scale(0.1 -0.1)">
       <use xlink:href="#DejaVuSans-8722"/>
       <use x="83.789062" xlink:href="#DejaVuSans-53"/>
       <use x="147.412109" xlink:href="#DejaVuSans-46"/>
       <use x="179.199219" xlink:href="#DejaVuSans-48"/>
      </g>
     </g>
    </g>
    <g id="xtick_4">
     <g id="line2d_4">
      <g>
       <use style="stroke:#000000;stroke-width:0.8;" x="328.080752" xlink:href="#m4816c0e2fa" y="384.48"/>
      </g>
     </g>
     <g id="text_4">
      <!-- −2.5 -->
      <defs>
       <path d="M 19.1875 8.296875 
L 53.609375 8.296875 
L 53.609375 0 
L 7.328125 0 
L 7.328125 8.296875 
Q 12.9375 14.109375 22.625 23.890625 
Q 32.328125 33.6875 34.8125 36.53125 
Q 39.546875 41.84375 41.421875 45.53125 
Q 43.3125 49.21875 43.3125 52.78125 
Q 43.3125 58.59375 39.234375 62.25 
Q 35.15625 65.921875 28.609375 65.921875 
Q 23.96875 65.921875 18.8125 64.3125 
Q 13.671875 62.703125 7.8125 59.421875 
L 7.8125 69.390625 
Q 13.765625 71.78125 18.9375 73 
Q 24.125 74.21875 28.421875 74.21875 
Q 39.75 74.21875 46.484375 68.546875 
Q 53.21875 62.890625 53.21875 53.421875 
Q 53.21875 48.921875 51.53125 44.890625 
Q 49.859375 40.875 45.40625 35.40625 
Q 44.1875 33.984375 37.640625 27.21875 
Q 31.109375 20.453125 19.1875 8.296875 
z
" id="DejaVuSans-50"/>
      </defs>
      <g transform="translate(315.939345 399.078438)scale(0.1 -0.1)">
       <use xlink:href="#DejaVuSans-8722"/>
       <use x="83.789062" xlink:href="#DejaVuSans-50"/>
       <use x="147.412109" xlink:href="#DejaVuSans-46"/>
       <use x="179.199219" xlink:href="#DejaVuSans-53"/>
      </g>
     </g>
    </g>
    <g id="xtick_5">
     <g id="line2d_5">
      <g>
       <use style="stroke:#000000;stroke-width:0.8;" x="390.098904" xlink:href="#m4816c0e2fa" y="384.48"/>
      </g>
     </g>
     <g id="text_5">
      <!-- 0.0 -->
      <g transform="translate(382.147342 399.078438)scale(0.1 -0.1)">
       <use xlink:href="#DejaVuSans-48"/>
       <use x="63.623047" xlink:href="#DejaVuSans-46"/>
       <use x="95.410156" xlink:href="#DejaVuSans-48"/>
      </g>
     </g>
    </g>
    <g id="xtick_6">
     <g id="line2d_6">
      <g>
       <use style="stroke:#000000;stroke-width:0.8;" x="452.117057" xlink:href="#m4816c0e2fa" y="384.48"/>
      </g>
     </g>
     <g id="text_6">
      <!-- 2.5 -->
      <g transform="translate(444.165494 399.078438)scale(0.1 -0.1)">
       <use xlink:href="#DejaVuSans-50"/>
       <use x="63.623047" xlink:href="#DejaVuSans-46"/>
       <use x="95.410156" xlink:href="#DejaVuSans-53"/>
      </g>
     </g>
    </g>
    <g id="xtick_7">
     <g id="line2d_7">
      <g>
       <use style="stroke:#000000;stroke-width:0.8;" x="514.135209" xlink:href="#m4816c0e2fa" y="384.48"/>
      </g>
     </g>
     <g id="text_7">
      <!-- 5.0 -->
      <g transform="translate(506.183647 399.078438)scale(0.1 -0.1)">
       <use xlink:href="#DejaVuSans-53"/>
       <use x="63.623047" xlink:href="#DejaVuSans-46"/>
       <use x="95.410156" xlink:href="#DejaVuSans-48"/>
      </g>
     </g>
    </g>
    <g id="xtick_8">
     <g id="line2d_8">
      <g>
       <use style="stroke:#000000;stroke-width:0.8;" x="576.153362" xlink:href="#m4816c0e2fa" y="384.48"/>
      </g>
     </g>
     <g id="text_8">
      <!-- 7.5 -->
      <g transform="translate(568.2018 399.078438)scale(0.1 -0.1)">
       <use xlink:href="#DejaVuSans-55"/>
       <use x="63.623047" xlink:href="#DejaVuSans-46"/>
       <use x="95.410156" xlink:href="#DejaVuSans-53"/>
      </g>
     </g>
    </g>
    <g id="xtick_9">
     <g id="line2d_9">
      <g>
       <use style="stroke:#000000;stroke-width:0.8;" x="638.171515" xlink:href="#m4816c0e2fa" y="384.48"/>
      </g>
     </g>
     <g id="text_9">
      <!-- 10.0 -->
      <g transform="translate(627.038702 399.078438)scale(0.1 -0.1)">
       <use xlink:href="#DejaVuSans-49"/>
       <use x="63.623047" xlink:href="#DejaVuSans-48"/>
       <use x="127.246094" xlink:href="#DejaVuSans-46"/>
       <use x="159.033203" xlink:href="#DejaVuSans-48"/>
      </g>
     </g>
    </g>
    <g id="text_10">
     <!-- tSNE-1 -->
     <defs>
      <path d="M 18.3125 70.21875 
L 18.3125 54.6875 
L 36.8125 54.6875 
L 36.8125 47.703125 
L 18.3125 47.703125 
L 18.3125 18.015625 
Q 18.3125 11.328125 20.140625 9.421875 
Q 21.96875 7.515625 27.59375 7.515625 
L 36.8125 7.515625 
L 36.8125 0 
L 27.59375 0 
Q 17.1875 0 13.234375 3.875 
Q 9.28125 7.765625 9.28125 18.015625 
L 9.28125 47.703125 
L 2.6875 47.703125 
L 2.6875 54.6875 
L 9.28125 54.6875 
L 9.28125 70.21875 
z
" id="DejaVuSans-116"/>
      <path d="M 53.515625 70.515625 
L 53.515625 60.890625 
Q 47.90625 63.578125 42.921875 64.890625 
Q 37.9375 66.21875 33.296875 66.21875 
Q 25.25 66.21875 20.875 63.09375 
Q 16.5 59.96875 16.5 54.203125 
Q 16.5 49.359375 19.40625 46.890625 
Q 22.3125 44.4375 30.421875 42.921875 
L 36.375 41.703125 
Q 47.40625 39.59375 52.65625 34.296875 
Q 57.90625 29 57.90625 20.125 
Q 57.90625 9.515625 50.796875 4.046875 
Q 43.703125 -1.421875 29.984375 -1.421875 
Q 24.8125 -1.421875 18.96875 -0.25 
Q 13.140625 0.921875 6.890625 3.21875 
L 6.890625 13.375 
Q 12.890625 10.015625 18.65625 8.296875 
Q 24.421875 6.59375 29.984375 6.59375 
Q 38.421875 6.59375 43.015625 9.90625 
Q 47.609375 13.234375 47.609375 19.390625 
Q 47.609375 24.75 44.3125 27.78125 
Q 41.015625 30.8125 33.5 32.328125 
L 27.484375 33.5 
Q 16.453125 35.6875 11.515625 40.375 
Q 6.59375 45.0625 6.59375 53.421875 
Q 6.59375 63.09375 13.40625 68.65625 
Q 20.21875 74.21875 32.171875 74.21875 
Q 37.3125 74.21875 42.625 73.28125 
Q 47.953125 72.359375 53.515625 70.515625 
z
" id="DejaVuSans-83"/>
      <path d="M 9.8125 72.90625 
L 23.09375 72.90625 
L 55.421875 11.921875 
L 55.421875 72.90625 
L 64.984375 72.90625 
L 64.984375 0 
L 51.703125 0 
L 19.390625 60.984375 
L 19.390625 0 
L 9.8125 0 
z
" id="DejaVuSans-78"/>
      <path d="M 9.8125 72.90625 
L 55.90625 72.90625 
L 55.90625 64.59375 
L 19.671875 64.59375 
L 19.671875 43.015625 
L 54.390625 43.015625 
L 54.390625 34.71875 
L 19.671875 34.71875 
L 19.671875 8.296875 
L 56.78125 8.296875 
L 56.78125 0 
L 9.8125 0 
z
" id="DejaVuSans-69"/>
      <path d="M 4.890625 31.390625 
L 31.203125 31.390625 
L 31.203125 23.390625 
L 4.890625 23.390625 
z
" id="DejaVuSans-45"/>
     </defs>
     <g transform="translate(351.980469 412.756563)scale(0.1 -0.1)">
      <use xlink:href="#DejaVuSans-116"/>
      <use x="39.208984" xlink:href="#DejaVuSans-83"/>
      <use x="102.685547" xlink:href="#DejaVuSans-78"/>
      <use x="177.490234" xlink:href="#DejaVuSans-69"/>
      <use x="240.673828" xlink:href="#DejaVuSans-45"/>
      <use x="276.757812" xlink:href="#DejaVuSans-49"/>
     </g>
    </g>
   </g>
   <g id="matplotlib.axis_2">
    <g id="ytick_1">
     <g id="line2d_10">
      <defs>
       <path d="M 0 0 
L -3.5 0 
" id="mdc78918bf5" style="stroke:#000000;stroke-width:0.8;"/>
      </defs>
      <g>
       <use style="stroke:#000000;stroke-width:0.8;" x="90" xlink:href="#mdc78918bf5" y="365.301979"/>
      </g>
     </g>
     <g id="text_11">
      <!-- −7.5 -->
      <g transform="translate(58.717187 369.101198)scale(0.1 -0.1)">
       <use xlink:href="#DejaVuSans-8722"/>
       <use x="83.789062" xlink:href="#DejaVuSans-55"/>
       <use x="147.412109" xlink:href="#DejaVuSans-46"/>
       <use x="179.199219" xlink:href="#DejaVuSans-53"/>
      </g>
     </g>
    </g>
    <g id="ytick_2">
     <g id="line2d_11">
      <g>
       <use style="stroke:#000000;stroke-width:0.8;" x="90" xlink:href="#mdc78918bf5" y="319.476189"/>
      </g>
     </g>
     <g id="text_12">
      <!-- −5.0 -->
      <g transform="translate(58.717187 323.275408)scale(0.1 -0.1)">
       <use xlink:href="#DejaVuSans-8722"/>
       <use x="83.789062" xlink:href="#DejaVuSans-53"/>
       <use x="147.412109" xlink:href="#DejaVuSans-46"/>
       <use x="179.199219" xlink:href="#DejaVuSans-48"/>
      </g>
     </g>
    </g>
    <g id="ytick_3">
     <g id="line2d_12">
      <g>
       <use style="stroke:#000000;stroke-width:0.8;" x="90" xlink:href="#mdc78918bf5" y="273.6504"/>
      </g>
     </g>
     <g id="text_13">
      <!-- −2.5 -->
      <g transform="translate(58.717187 277.449619)scale(0.1 -0.1)">
       <use xlink:href="#DejaVuSans-8722"/>
       <use x="83.789062" xlink:href="#DejaVuSans-50"/>
       <use x="147.412109" xlink:href="#DejaVuSans-46"/>
       <use x="179.199219" xlink:href="#DejaVuSans-53"/>
      </g>
     </g>
    </g>
    <g id="ytick_4">
     <g id="line2d_13">
      <g>
       <use style="stroke:#000000;stroke-width:0.8;" x="90" xlink:href="#mdc78918bf5" y="227.82461"/>
      </g>
     </g>
     <g id="text_14">
      <!-- 0.0 -->
      <g transform="translate(67.096875 231.623829)scale(0.1 -0.1)">
       <use xlink:href="#DejaVuSans-48"/>
       <use x="63.623047" xlink:href="#DejaVuSans-46"/>
       <use x="95.410156" xlink:href="#DejaVuSans-48"/>
      </g>
     </g>
    </g>
    <g id="ytick_5">
     <g id="line2d_14">
      <g>
       <use style="stroke:#000000;stroke-width:0.8;" x="90" xlink:href="#mdc78918bf5" y="181.998821"/>
      </g>
     </g>
     <g id="text_15">
      <!-- 2.5 -->
      <g transform="translate(67.096875 185.79804)scale(0.1 -0.1)">
       <use xlink:href="#DejaVuSans-50"/>
       <use x="63.623047" xlink:href="#DejaVuSans-46"/>
       <use x="95.410156" xlink:href="#DejaVuSans-53"/>
      </g>
     </g>
    </g>
    <g id="ytick_6">
     <g id="line2d_15">
      <g>
       <use style="stroke:#000000;stroke-width:0.8;" x="90" xlink:href="#mdc78918bf5" y="136.173031"/>
      </g>
     </g>
     <g id="text_16">
      <!-- 5.0 -->
      <g transform="translate(67.096875 139.97225)scale(0.1 -0.1)">
       <use xlink:href="#DejaVuSans-53"/>
       <use x="63.623047" xlink:href="#DejaVuSans-46"/>
       <use x="95.410156" xlink:href="#DejaVuSans-48"/>
      </g>
     </g>
    </g>
    <g id="ytick_7">
     <g id="line2d_16">
      <g>
       <use style="stroke:#000000;stroke-width:0.8;" x="90" xlink:href="#mdc78918bf5" y="90.347242"/>
      </g>
     </g>
     <g id="text_17">
      <!-- 7.5 -->
      <g transform="translate(67.096875 94.146461)scale(0.1 -0.1)">
       <use xlink:href="#DejaVuSans-55"/>
       <use x="63.623047" xlink:href="#DejaVuSans-46"/>
       <use x="95.410156" xlink:href="#DejaVuSans-53"/>
      </g>
     </g>
    </g>
    <g id="text_18">
     <!-- tSNE-2 -->
     <g transform="translate(52.6375 235.179531)rotate(-90)scale(0.1 -0.1)">
      <use xlink:href="#DejaVuSans-116"/>
      <use x="39.208984" xlink:href="#DejaVuSans-83"/>
      <use x="102.685547" xlink:href="#DejaVuSans-78"/>
      <use x="177.490234" xlink:href="#DejaVuSans-69"/>
      <use x="240.673828" xlink:href="#DejaVuSans-45"/>
      <use x="276.757812" xlink:href="#DejaVuSans-50"/>
     </g>
    </g>
   </g>
   <g id="patch_3">
    <path d="M 90 384.48 
L 90 51.84 
" style="fill:none;stroke:#000000;stroke-linecap:square;stroke-linejoin:miter;stroke-width:0.8;"/>
   </g>
   <g id="patch_4">
    <path d="M 648 384.48 
L 648 51.84 
" style="fill:none;stroke:#000000;stroke-linecap:square;stroke-linejoin:miter;stroke-width:0.8;"/>
   </g>
   <g id="patch_5">
    <path d="M 90 384.48 
L 648 384.48 
" style="fill:none;stroke:#000000;stroke-linecap:square;stroke-linejoin:miter;stroke-width:0.8;"/>
   </g>
   <g id="patch_6">
    <path d="M 90 51.84 
L 648 51.84 
" style="fill:none;stroke:#000000;stroke-linecap:square;stroke-linejoin:miter;stroke-width:0.8;"/>
   </g>
   <g id="legend_1">
    <g id="patch_7">
     <path d="M 563.125 89.19625 
L 641 89.19625 
Q 643 89.19625 643 87.19625 
L 643 58.84 
Q 643 56.84 641 56.84 
L 563.125 56.84 
Q 561.125 56.84 561.125 58.84 
L 561.125 87.19625 
Q 561.125 89.19625 563.125 89.19625 
z
" style="fill:#ffffff;opacity:0.8;stroke:#cccccc;stroke-linejoin:miter;"/>
    </g>
    <g id="PathCollection_3">
     <g>
      <use style="fill:#f8766d;stroke:#f8766d;" x="575.125" xlink:href="#mf9d2b30044" y="65.813437"/>
     </g>
    </g>
    <g id="text_19">
     <!-- D001714 -->
     <defs>
      <path d="M 19.671875 64.796875 
L 19.671875 8.109375 
L 31.59375 8.109375 
Q 46.6875 8.109375 53.6875 14.9375 
Q 60.6875 21.78125 60.6875 36.53125 
Q 60.6875 51.171875 53.6875 57.984375 
Q 46.6875 64.796875 31.59375 64.796875 
z
M 9.8125 72.90625 
L 30.078125 72.90625 
Q 51.265625 72.90625 61.171875 64.09375 
Q 71.09375 55.28125 71.09375 36.53125 
Q 71.09375 17.671875 61.125 8.828125 
Q 51.171875 0 30.078125 0 
L 9.8125 0 
z
" id="DejaVuSans-68"/>
      <path d="M 37.796875 64.3125 
L 12.890625 25.390625 
L 37.796875 25.390625 
z
M 35.203125 72.90625 
L 47.609375 72.90625 
L 47.609375 25.390625 
L 58.015625 25.390625 
L 58.015625 17.1875 
L 47.609375 17.1875 
L 47.609375 0 
L 37.796875 0 
L 37.796875 17.1875 
L 4.890625 17.1875 
L 4.890625 26.703125 
z
" id="DejaVuSans-52"/>
     </defs>
     <g transform="translate(593.125 68.438437)scale(0.1 -0.1)">
      <use xlink:href="#DejaVuSans-68"/>
      <use x="77.001953" xlink:href="#DejaVuSans-48"/>
      <use x="140.625" xlink:href="#DejaVuSans-48"/>
      <use x="204.248047" xlink:href="#DejaVuSans-49"/>
      <use x="267.871094" xlink:href="#DejaVuSans-55"/>
      <use x="331.494141" xlink:href="#DejaVuSans-49"/>
      <use x="395.117188" xlink:href="#DejaVuSans-52"/>
     </g>
    </g>
    <g id="PathCollection_4">
     <g>
      <use style="fill:#00bfc4;stroke:#00bfc4;" x="575.125" xlink:href="#m467dcffc9d" y="80.491562"/>
     </g>
    </g>
    <g id="text_20">
     <!-- D006262 -->
     <defs>
      <path d="M 33.015625 40.375 
Q 26.375 40.375 22.484375 35.828125 
Q 18.609375 31.296875 18.609375 23.390625 
Q 18.609375 15.53125 22.484375 10.953125 
Q 26.375 6.390625 33.015625 6.390625 
Q 39.65625 6.390625 43.53125 10.953125 
Q 47.40625 15.53125 47.40625 23.390625 
Q 47.40625 31.296875 43.53125 35.828125 
Q 39.65625 40.375 33.015625 40.375 
z
M 52.59375 71.296875 
L 52.59375 62.3125 
Q 48.875 64.0625 45.09375 64.984375 
Q 41.3125 65.921875 37.59375 65.921875 
Q 27.828125 65.921875 22.671875 59.328125 
Q 17.53125 52.734375 16.796875 39.40625 
Q 19.671875 43.65625 24.015625 45.921875 
Q 28.375 48.1875 33.59375 48.1875 
Q 44.578125 48.1875 50.953125 41.515625 
Q 57.328125 34.859375 57.328125 23.390625 
Q 57.328125 12.15625 50.6875 5.359375 
Q 44.046875 -1.421875 33.015625 -1.421875 
Q 20.359375 -1.421875 13.671875 8.265625 
Q 6.984375 17.96875 6.984375 36.375 
Q 6.984375 53.65625 15.1875 63.9375 
Q 23.390625 74.21875 37.203125 74.21875 
Q 40.921875 74.21875 44.703125 73.484375 
Q 48.484375 72.75 52.59375 71.296875 
z
" id="DejaVuSans-54"/>
     </defs>
     <g transform="translate(593.125 83.116562)scale(0.1 -0.1)">
      <use xlink:href="#DejaVuSans-68"/>
      <use x="77.001953" xlink:href="#DejaVuSans-48"/>
      <use x="140.625" xlink:href="#DejaVuSans-48"/>
      <use x="204.248047" xlink:href="#DejaVuSans-54"/>
      <use x="267.871094" xlink:href="#DejaVuSans-50"/>
      <use x="331.494141" xlink:href="#DejaVuSans-54"/>
      <use x="395.117188" xlink:href="#DejaVuSans-50"/>
     </g>
    </g>
   </g>
  </g>
 </g>
 <defs>
  <clipPath id="p1283776527">
   <rect height="332.64" width="558" x="90" y="51.84"/>
  </clipPath>
 </defs>
</svg>
