<?xml version="1.0" encoding="utf-8" standalone="no"?>
<!DOCTYPE svg PUBLIC "-//W3C//DTD SVG 1.1//EN"
  "http://www.w3.org/Graphics/SVG/1.1/DTD/svg11.dtd">
<!-- Created with matplotlib (https://matplotlib.org/) -->
<svg height="576pt" version="1.1" viewBox="0 0 576 576" width="576pt" xmlns="http://www.w3.org/2000/svg" xmlns:xlink="http://www.w3.org/1999/xlink">
 <defs>
  <style type="text/css">
*{stroke-linecap:butt;stroke-linejoin:round;}
  </style>
 </defs>
 <g id="figure_1">
  <g id="patch_1">
   <path d="M 0 576 
L 576 576 
L 576 0 
L 0 0 
z
" style="fill:#ffffff;"/>
  </g>
  <g id="axes_1">
   <g id="patch_2">
    <path d="M 72 512.64 
L 518.4 512.64 
L 518.4 69.12 
L 72 69.12 
z
" style="fill:#ffffff;"/>
   </g>
   <g id="matplotlib.axis_1">
    <g id="xtick_1">
     <g id="line2d_1">
      <path clip-path="url(#pe7f2db3132)" d="M 72 512.64 
L 72 69.12 
" style="fill:none;stroke:#b0b0b0;stroke-linecap:square;stroke-width:0.8;"/>
     </g>
     <g id="line2d_2">
      <defs>
       <path d="M 0 0 
L 0 3.5 
" id="ma8e08f4a50" style="stroke:#000000;stroke-width:0.8;"/>
      </defs>
      <g>
       <use style="stroke:#000000;stroke-width:0.8;" x="72" xlink:href="#ma8e08f4a50" y="512.64"/>
      </g>
     </g>
     <g id="text_1">
      <!-- 0.0 -->
      <defs>
       <path d="M 31.78125 66.40625 
Q 24.171875 66.40625 20.328125 58.90625 
Q 16.5 51.421875 16.5 36.375 
Q 16.5 21.390625 20.328125 13.890625 
Q 24.171875 6.390625 31.78125 6.390625 
Q 39.453125 6.390625 43.28125 13.890625 
Q 47.125 21.390625 47.125 36.375 
Q 47.125 51.421875 43.28125 58.90625 
Q 39.453125 66.40625 31.78125 66.40625 
z
M 31.78125 74.21875 
Q 44.046875 74.21875 50.515625 64.515625 
Q 56.984375 54.828125 56.984375 36.375 
Q 56.984375 17.96875 50.515625 8.265625 
Q 44.046875 -1.421875 31.78125 -1.421875 
Q 19.53125 -1.421875 13.0625 8.265625 
Q 6.59375 17.96875 6.59375 36.375 
Q 6.59375 54.828125 13.0625 64.515625 
Q 19.53125 74.21875 31.78125 74.21875 
z
" id="DejaVuSans-48"/>
       <path d="M 10.6875 12.40625 
L 21 12.40625 
L 21 0 
L 10.6875 0 
z
" id="DejaVuSans-46"/>
      </defs>
      <g transform="translate(64.048438 527.238438)scale(0.1 -0.1)">
       <use xlink:href="#DejaVuSans-48"/>
       <use x="63.623047" xlink:href="#DejaVuSans-46"/>
       <use x="95.410156" xlink:href="#DejaVuSans-48"/>
      </g>
     </g>
    </g>
    <g id="xtick_2">
     <g id="line2d_3">
      <path clip-path="url(#pe7f2db3132)" d="M 161.28 512.64 
L 161.28 69.12 
" style="fill:none;stroke:#b0b0b0;stroke-linecap:square;stroke-width:0.8;"/>
     </g>
     <g id="line2d_4">
      <g>
       <use style="stroke:#000000;stroke-width:0.8;" x="161.28" xlink:href="#ma8e08f4a50" y="512.64"/>
      </g>
     </g>
     <g id="text_2">
      <!-- 0.2 -->
      <defs>
       <path d="M 19.1875 8.296875 
L 53.609375 8.296875 
L 53.609375 0 
L 7.328125 0 
L 7.328125 8.296875 
Q 12.9375 14.109375 22.625 23.890625 
Q 32.328125 33.6875 34.8125 36.53125 
Q 39.546875 41.84375 41.421875 45.53125 
Q 43.3125 49.21875 43.3125 52.78125 
Q 43.3125 58.59375 39.234375 62.25 
Q 35.15625 65.921875 28.609375 65.921875 
Q 23.96875 65.921875 18.8125 64.3125 
Q 13.671875 62.703125 7.8125 59.421875 
L 7.8125 69.390625 
Q 13.765625 71.78125 18.9375 73 
Q 24.125 74.21875 28.421875 74.21875 
Q 39.75 74.21875 46.484375 68.546875 
Q 53.21875 62.890625 53.21875 53.421875 
Q 53.21875 48.921875 51.53125 44.890625 
Q 49.859375 40.875 45.40625 35.40625 
Q 44.1875 33.984375 37.640625 27.21875 
Q 31.109375 20.453125 19.1875 8.296875 
z
" id="DejaVuSans-50"/>
      </defs>
      <g transform="translate(153.328438 527.238438)scale(0.1 -0.1)">
       <use xlink:href="#DejaVuSans-48"/>
       <use x="63.623047" xlink:href="#DejaVuSans-46"/>
       <use x="95.410156" xlink:href="#DejaVuSans-50"/>
      </g>
     </g>
    </g>
    <g id="xtick_3">
     <g id="line2d_5">
      <path clip-path="url(#pe7f2db3132)" d="M 250.56 512.64 
L 250.56 69.12 
" style="fill:none;stroke:#b0b0b0;stroke-linecap:square;stroke-width:0.8;"/>
     </g>
     <g id="line2d_6">
      <g>
       <use style="stroke:#000000;stroke-width:0.8;" x="250.56" xlink:href="#ma8e08f4a50" y="512.64"/>
      </g>
     </g>
     <g id="text_3">
      <!-- 0.4 -->
      <defs>
       <path d="M 37.796875 64.3125 
L 12.890625 25.390625 
L 37.796875 25.390625 
z
M 35.203125 72.90625 
L 47.609375 72.90625 
L 47.609375 25.390625 
L 58.015625 25.390625 
L 58.015625 17.1875 
L 47.609375 17.1875 
L 47.609375 0 
L 37.796875 0 
L 37.796875 17.1875 
L 4.890625 17.1875 
L 4.890625 26.703125 
z
" id="DejaVuSans-52"/>
      </defs>
      <g transform="translate(242.608438 527.238438)scale(0.1 -0.1)">
       <use xlink:href="#DejaVuSans-48"/>
       <use x="63.623047" xlink:href="#DejaVuSans-46"/>
       <use x="95.410156" xlink:href="#DejaVuSans-52"/>
      </g>
     </g>
    </g>
    <g id="xtick_4">
     <g id="line2d_7">
      <path clip-path="url(#pe7f2db3132)" d="M 339.84 512.64 
L 339.84 69.12 
" style="fill:none;stroke:#b0b0b0;stroke-linecap:square;stroke-width:0.8;"/>
     </g>
     <g id="line2d_8">
      <g>
       <use style="stroke:#000000;stroke-width:0.8;" x="339.84" xlink:href="#ma8e08f4a50" y="512.64"/>
      </g>
     </g>
     <g id="text_4">
      <!-- 0.6 -->
      <defs>
       <path d="M 33.015625 40.375 
Q 26.375 40.375 22.484375 35.828125 
Q 18.609375 31.296875 18.609375 23.390625 
Q 18.609375 15.53125 22.484375 10.953125 
Q 26.375 6.390625 33.015625 6.390625 
Q 39.65625 6.390625 43.53125 10.953125 
Q 47.40625 15.53125 47.40625 23.390625 
Q 47.40625 31.296875 43.53125 35.828125 
Q 39.65625 40.375 33.015625 40.375 
z
M 52.59375 71.296875 
L 52.59375 62.3125 
Q 48.875 64.0625 45.09375 64.984375 
Q 41.3125 65.921875 37.59375 65.921875 
Q 27.828125 65.921875 22.671875 59.328125 
Q 17.53125 52.734375 16.796875 39.40625 
Q 19.671875 43.65625 24.015625 45.921875 
Q 28.375 48.1875 33.59375 48.1875 
Q 44.578125 48.1875 50.953125 41.515625 
Q 57.328125 34.859375 57.328125 23.390625 
Q 57.328125 12.15625 50.6875 5.359375 
Q 44.046875 -1.421875 33.015625 -1.421875 
Q 20.359375 -1.421875 13.671875 8.265625 
Q 6.984375 17.96875 6.984375 36.375 
Q 6.984375 53.65625 15.1875 63.9375 
Q 23.390625 74.21875 37.203125 74.21875 
Q 40.921875 74.21875 44.703125 73.484375 
Q 48.484375 72.75 52.59375 71.296875 
z
" id="DejaVuSans-54"/>
      </defs>
      <g transform="translate(331.888438 527.238438)scale(0.1 -0.1)">
       <use xlink:href="#DejaVuSans-48"/>
       <use x="63.623047" xlink:href="#DejaVuSans-46"/>
       <use x="95.410156" xlink:href="#DejaVuSans-54"/>
      </g>
     </g>
    </g>
    <g id="xtick_5">
     <g id="line2d_9">
      <path clip-path="url(#pe7f2db3132)" d="M 429.12 512.64 
L 429.12 69.12 
" style="fill:none;stroke:#b0b0b0;stroke-linecap:square;stroke-width:0.8;"/>
     </g>
     <g id="line2d_10">
      <g>
       <use style="stroke:#000000;stroke-width:0.8;" x="429.12" xlink:href="#ma8e08f4a50" y="512.64"/>
      </g>
     </g>
     <g id="text_5">
      <!-- 0.8 -->
      <defs>
       <path d="M 31.78125 34.625 
Q 24.75 34.625 20.71875 30.859375 
Q 16.703125 27.09375 16.703125 20.515625 
Q 16.703125 13.921875 20.71875 10.15625 
Q 24.75 6.390625 31.78125 6.390625 
Q 38.8125 6.390625 42.859375 10.171875 
Q 46.921875 13.96875 46.921875 20.515625 
Q 46.921875 27.09375 42.890625 30.859375 
Q 38.875 34.625 31.78125 34.625 
z
M 21.921875 38.8125 
Q 15.578125 40.375 12.03125 44.71875 
Q 8.5 49.078125 8.5 55.328125 
Q 8.5 64.0625 14.71875 69.140625 
Q 20.953125 74.21875 31.78125 74.21875 
Q 42.671875 74.21875 48.875 69.140625 
Q 55.078125 64.0625 55.078125 55.328125 
Q 55.078125 49.078125 51.53125 44.71875 
Q 48 40.375 41.703125 38.8125 
Q 48.828125 37.15625 52.796875 32.3125 
Q 56.78125 27.484375 56.78125 20.515625 
Q 56.78125 9.90625 50.3125 4.234375 
Q 43.84375 -1.421875 31.78125 -1.421875 
Q 19.734375 -1.421875 13.25 4.234375 
Q 6.78125 9.90625 6.78125 20.515625 
Q 6.78125 27.484375 10.78125 32.3125 
Q 14.796875 37.15625 21.921875 38.8125 
z
M 18.3125 54.390625 
Q 18.3125 48.734375 21.84375 45.5625 
Q 25.390625 42.390625 31.78125 42.390625 
Q 38.140625 42.390625 41.71875 45.5625 
Q 45.3125 48.734375 45.3125 54.390625 
Q 45.3125 60.0625 41.71875 63.234375 
Q 38.140625 66.40625 31.78125 66.40625 
Q 25.390625 66.40625 21.84375 63.234375 
Q 18.3125 60.0625 18.3125 54.390625 
z
" id="DejaVuSans-56"/>
      </defs>
      <g transform="translate(421.168437 527.238438)scale(0.1 -0.1)">
       <use xlink:href="#DejaVuSans-48"/>
       <use x="63.623047" xlink:href="#DejaVuSans-46"/>
       <use x="95.410156" xlink:href="#DejaVuSans-56"/>
      </g>
     </g>
    </g>
    <g id="xtick_6">
     <g id="line2d_11">
      <path clip-path="url(#pe7f2db3132)" d="M 518.4 512.64 
L 518.4 69.12 
" style="fill:none;stroke:#b0b0b0;stroke-linecap:square;stroke-width:0.8;"/>
     </g>
     <g id="line2d_12">
      <g>
       <use style="stroke:#000000;stroke-width:0.8;" x="518.4" xlink:href="#ma8e08f4a50" y="512.64"/>
      </g>
     </g>
     <g id="text_6">
      <!-- 1.0 -->
      <defs>
       <path d="M 12.40625 8.296875 
L 28.515625 8.296875 
L 28.515625 63.921875 
L 10.984375 60.40625 
L 10.984375 69.390625 
L 28.421875 72.90625 
L 38.28125 72.90625 
L 38.28125 8.296875 
L 54.390625 8.296875 
L 54.390625 0 
L 12.40625 0 
z
" id="DejaVuSans-49"/>
      </defs>
      <g transform="translate(510.448437 527.238438)scale(0.1 -0.1)">
       <use xlink:href="#DejaVuSans-49"/>
       <use x="63.623047" xlink:href="#DejaVuSans-46"/>
       <use x="95.410156" xlink:href="#DejaVuSans-48"/>
      </g>
     </g>
    </g>
    <g id="text_7">
     <!-- False Positive Rate -->
     <defs>
      <path d="M 9.8125 72.90625 
L 51.703125 72.90625 
L 51.703125 64.59375 
L 19.671875 64.59375 
L 19.671875 43.109375 
L 48.578125 43.109375 
L 48.578125 34.8125 
L 19.671875 34.8125 
L 19.671875 0 
L 9.8125 0 
z
" id="DejaVuSans-70"/>
      <path d="M 34.28125 27.484375 
Q 23.390625 27.484375 19.1875 25 
Q 14.984375 22.515625 14.984375 16.5 
Q 14.984375 11.71875 18.140625 8.90625 
Q 21.296875 6.109375 26.703125 6.109375 
Q 34.1875 6.109375 38.703125 11.40625 
Q 43.21875 16.703125 43.21875 25.484375 
L 43.21875 27.484375 
z
M 52.203125 31.203125 
L 52.203125 0 
L 43.21875 0 
L 43.21875 8.296875 
Q 40.140625 3.328125 35.546875 0.953125 
Q 30.953125 -1.421875 24.3125 -1.421875 
Q 15.921875 -1.421875 10.953125 3.296875 
Q 6 8.015625 6 15.921875 
Q 6 25.140625 12.171875 29.828125 
Q 18.359375 34.515625 30.609375 34.515625 
L 43.21875 34.515625 
L 43.21875 35.40625 
Q 43.21875 41.609375 39.140625 45 
Q 35.0625 48.390625 27.6875 48.390625 
Q 23 48.390625 18.546875 47.265625 
Q 14.109375 46.140625 10.015625 43.890625 
L 10.015625 52.203125 
Q 14.9375 54.109375 19.578125 55.046875 
Q 24.21875 56 28.609375 56 
Q 40.484375 56 46.34375 49.84375 
Q 52.203125 43.703125 52.203125 31.203125 
z
" id="DejaVuSans-97"/>
      <path d="M 9.421875 75.984375 
L 18.40625 75.984375 
L 18.40625 0 
L 9.421875 0 
z
" id="DejaVuSans-108"/>
      <path d="M 44.28125 53.078125 
L 44.28125 44.578125 
Q 40.484375 46.53125 36.375 47.5 
Q 32.28125 48.484375 27.875 48.484375 
Q 21.1875 48.484375 17.84375 46.4375 
Q 14.5 44.390625 14.5 40.28125 
Q 14.5 37.15625 16.890625 35.375 
Q 19.28125 33.59375 26.515625 31.984375 
L 29.59375 31.296875 
Q 39.15625 29.25 43.1875 25.515625 
Q 47.21875 21.78125 47.21875 15.09375 
Q 47.21875 7.46875 41.1875 3.015625 
Q 35.15625 -1.421875 24.609375 -1.421875 
Q 20.21875 -1.421875 15.453125 -0.5625 
Q 10.6875 0.296875 5.421875 2 
L 5.421875 11.28125 
Q 10.40625 8.6875 15.234375 7.390625 
Q 20.0625 6.109375 24.8125 6.109375 
Q 31.15625 6.109375 34.5625 8.28125 
Q 37.984375 10.453125 37.984375 14.40625 
Q 37.984375 18.0625 35.515625 20.015625 
Q 33.0625 21.96875 24.703125 23.78125 
L 21.578125 24.515625 
Q 13.234375 26.265625 9.515625 29.90625 
Q 5.8125 33.546875 5.8125 39.890625 
Q 5.8125 47.609375 11.28125 51.796875 
Q 16.75 56 26.8125 56 
Q 31.78125 56 36.171875 55.265625 
Q 40.578125 54.546875 44.28125 53.078125 
z
" id="DejaVuSans-115"/>
      <path d="M 56.203125 29.59375 
L 56.203125 25.203125 
L 14.890625 25.203125 
Q 15.484375 15.921875 20.484375 11.0625 
Q 25.484375 6.203125 34.421875 6.203125 
Q 39.59375 6.203125 44.453125 7.46875 
Q 49.3125 8.734375 54.109375 11.28125 
L 54.109375 2.78125 
Q 49.265625 0.734375 44.1875 -0.34375 
Q 39.109375 -1.421875 33.890625 -1.421875 
Q 20.796875 -1.421875 13.15625 6.1875 
Q 5.515625 13.8125 5.515625 26.8125 
Q 5.515625 40.234375 12.765625 48.109375 
Q 20.015625 56 32.328125 56 
Q 43.359375 56 49.78125 48.890625 
Q 56.203125 41.796875 56.203125 29.59375 
z
M 47.21875 32.234375 
Q 47.125 39.59375 43.09375 43.984375 
Q 39.0625 48.390625 32.421875 48.390625 
Q 24.90625 48.390625 20.390625 44.140625 
Q 15.875 39.890625 15.1875 32.171875 
z
" id="DejaVuSans-101"/>
      <path id="DejaVuSans-32"/>
      <path d="M 19.671875 64.796875 
L 19.671875 37.40625 
L 32.078125 37.40625 
Q 38.96875 37.40625 42.71875 40.96875 
Q 46.484375 44.53125 46.484375 51.125 
Q 46.484375 57.671875 42.71875 61.234375 
Q 38.96875 64.796875 32.078125 64.796875 
z
M 9.8125 72.90625 
L 32.078125 72.90625 
Q 44.34375 72.90625 50.609375 67.359375 
Q 56.890625 61.8125 56.890625 51.125 
Q 56.890625 40.328125 50.609375 34.8125 
Q 44.34375 29.296875 32.078125 29.296875 
L 19.671875 29.296875 
L 19.671875 0 
L 9.8125 0 
z
" id="DejaVuSans-80"/>
      <path d="M 30.609375 48.390625 
Q 23.390625 48.390625 19.1875 42.75 
Q 14.984375 37.109375 14.984375 27.296875 
Q 14.984375 17.484375 19.15625 11.84375 
Q 23.34375 6.203125 30.609375 6.203125 
Q 37.796875 6.203125 41.984375 11.859375 
Q 46.1875 17.53125 46.1875 27.296875 
Q 46.1875 37.015625 41.984375 42.703125 
Q 37.796875 48.390625 30.609375 48.390625 
z
M 30.609375 56 
Q 42.328125 56 49.015625 48.375 
Q 55.71875 40.765625 55.71875 27.296875 
Q 55.71875 13.875 49.015625 6.21875 
Q 42.328125 -1.421875 30.609375 -1.421875 
Q 18.84375 -1.421875 12.171875 6.21875 
Q 5.515625 13.875 5.515625 27.296875 
Q 5.515625 40.765625 12.171875 48.375 
Q 18.84375 56 30.609375 56 
z
" id="DejaVuSans-111"/>
      <path d="M 9.421875 54.6875 
L 18.40625 54.6875 
L 18.40625 0 
L 9.421875 0 
z
M 9.421875 75.984375 
L 18.40625 75.984375 
L 18.40625 64.59375 
L 9.421875 64.59375 
z
" id="DejaVuSans-105"/>
      <path d="M 18.3125 70.21875 
L 18.3125 54.6875 
L 36.8125 54.6875 
L 36.8125 47.703125 
L 18.3125 47.703125 
L 18.3125 18.015625 
Q 18.3125 11.328125 20.140625 9.421875 
Q 21.96875 7.515625 27.59375 7.515625 
L 36.8125 7.515625 
L 36.8125 0 
L 27.59375 0 
Q 17.1875 0 13.234375 3.875 
Q 9.28125 7.765625 9.28125 18.015625 
L 9.28125 47.703125 
L 2.6875 47.703125 
L 2.6875 54.6875 
L 9.28125 54.6875 
L 9.28125 70.21875 
z
" id="DejaVuSans-116"/>
      <path d="M 2.984375 54.6875 
L 12.5 54.6875 
L 29.59375 8.796875 
L 46.6875 54.6875 
L 56.203125 54.6875 
L 35.6875 0 
L 23.484375 0 
z
" id="DejaVuSans-118"/>
      <path d="M 44.390625 34.1875 
Q 47.5625 33.109375 50.5625 29.59375 
Q 53.5625 26.078125 56.59375 19.921875 
L 66.609375 0 
L 56 0 
L 46.6875 18.703125 
Q 43.0625 26.03125 39.671875 28.421875 
Q 36.28125 30.8125 30.421875 30.8125 
L 19.671875 30.8125 
L 19.671875 0 
L 9.8125 0 
L 9.8125 72.90625 
L 32.078125 72.90625 
Q 44.578125 72.90625 50.734375 67.671875 
Q 56.890625 62.453125 56.890625 51.90625 
Q 56.890625 45.015625 53.6875 40.46875 
Q 50.484375 35.9375 44.390625 34.1875 
z
M 19.671875 64.796875 
L 19.671875 38.921875 
L 32.078125 38.921875 
Q 39.203125 38.921875 42.84375 42.21875 
Q 46.484375 45.515625 46.484375 51.90625 
Q 46.484375 58.296875 42.84375 61.546875 
Q 39.203125 64.796875 32.078125 64.796875 
z
" id="DejaVuSans-82"/>
     </defs>
     <g transform="translate(247.994531 540.916563)scale(0.1 -0.1)">
      <use xlink:href="#DejaVuSans-70"/>
      <use x="57.378906" xlink:href="#DejaVuSans-97"/>
      <use x="118.658203" xlink:href="#DejaVuSans-108"/>
      <use x="146.441406" xlink:href="#DejaVuSans-115"/>
      <use x="198.541016" xlink:href="#DejaVuSans-101"/>
      <use x="260.064453" xlink:href="#DejaVuSans-32"/>
      <use x="291.851562" xlink:href="#DejaVuSans-80"/>
      <use x="352.107422" xlink:href="#DejaVuSans-111"/>
      <use x="413.289062" xlink:href="#DejaVuSans-115"/>
      <use x="465.388672" xlink:href="#DejaVuSans-105"/>
      <use x="493.171875" xlink:href="#DejaVuSans-116"/>
      <use x="532.380859" xlink:href="#DejaVuSans-105"/>
      <use x="560.164062" xlink:href="#DejaVuSans-118"/>
      <use x="619.34375" xlink:href="#DejaVuSans-101"/>
      <use x="680.867188" xlink:href="#DejaVuSans-32"/>
      <use x="712.654297" xlink:href="#DejaVuSans-82"/>
      <use x="782.105469" xlink:href="#DejaVuSans-97"/>
      <use x="843.384766" xlink:href="#DejaVuSans-116"/>
      <use x="882.59375" xlink:href="#DejaVuSans-101"/>
     </g>
    </g>
   </g>
   <g id="matplotlib.axis_2">
    <g id="ytick_1">
     <g id="line2d_13">
      <path clip-path="url(#pe7f2db3132)" d="M 72 512.64 
L 518.4 512.64 
" style="fill:none;stroke:#b0b0b0;stroke-linecap:square;stroke-width:0.8;"/>
     </g>
     <g id="line2d_14">
      <defs>
       <path d="M 0 0 
L -3.5 0 
" id="mde76c5b059" style="stroke:#000000;stroke-width:0.8;"/>
      </defs>
      <g>
       <use style="stroke:#000000;stroke-width:0.8;" x="72" xlink:href="#mde76c5b059" y="512.64"/>
      </g>
     </g>
     <g id="text_8">
      <!-- 0.0 -->
      <g transform="translate(49.096875 516.439219)scale(0.1 -0.1)">
       <use xlink:href="#DejaVuSans-48"/>
       <use x="63.623047" xlink:href="#DejaVuSans-46"/>
       <use x="95.410156" xlink:href="#DejaVuSans-48"/>
      </g>
     </g>
    </g>
    <g id="ytick_2">
     <g id="line2d_15">
      <path clip-path="url(#pe7f2db3132)" d="M 72 428.16 
L 518.4 428.16 
" style="fill:none;stroke:#b0b0b0;stroke-linecap:square;stroke-width:0.8;"/>
     </g>
     <g id="line2d_16">
      <g>
       <use style="stroke:#000000;stroke-width:0.8;" x="72" xlink:href="#mde76c5b059" y="428.16"/>
      </g>
     </g>
     <g id="text_9">
      <!-- 0.2 -->
      <g transform="translate(49.096875 431.959219)scale(0.1 -0.1)">
       <use xlink:href="#DejaVuSans-48"/>
       <use x="63.623047" xlink:href="#DejaVuSans-46"/>
       <use x="95.410156" xlink:href="#DejaVuSans-50"/>
      </g>
     </g>
    </g>
    <g id="ytick_3">
     <g id="line2d_17">
      <path clip-path="url(#pe7f2db3132)" d="M 72 343.68 
L 518.4 343.68 
" style="fill:none;stroke:#b0b0b0;stroke-linecap:square;stroke-width:0.8;"/>
     </g>
     <g id="line2d_18">
      <g>
       <use style="stroke:#000000;stroke-width:0.8;" x="72" xlink:href="#mde76c5b059" y="343.68"/>
      </g>
     </g>
     <g id="text_10">
      <!-- 0.4 -->
      <g transform="translate(49.096875 347.479219)scale(0.1 -0.1)">
       <use xlink:href="#DejaVuSans-48"/>
       <use x="63.623047" xlink:href="#DejaVuSans-46"/>
       <use x="95.410156" xlink:href="#DejaVuSans-52"/>
      </g>
     </g>
    </g>
    <g id="ytick_4">
     <g id="line2d_19">
      <path clip-path="url(#pe7f2db3132)" d="M 72 259.2 
L 518.4 259.2 
" style="fill:none;stroke:#b0b0b0;stroke-linecap:square;stroke-width:0.8;"/>
     </g>
     <g id="line2d_20">
      <g>
       <use style="stroke:#000000;stroke-width:0.8;" x="72" xlink:href="#mde76c5b059" y="259.2"/>
      </g>
     </g>
     <g id="text_11">
      <!-- 0.6 -->
      <g transform="translate(49.096875 262.999219)scale(0.1 -0.1)">
       <use xlink:href="#DejaVuSans-48"/>
       <use x="63.623047" xlink:href="#DejaVuSans-46"/>
       <use x="95.410156" xlink:href="#DejaVuSans-54"/>
      </g>
     </g>
    </g>
    <g id="ytick_5">
     <g id="line2d_21">
      <path clip-path="url(#pe7f2db3132)" d="M 72 174.72 
L 518.4 174.72 
" style="fill:none;stroke:#b0b0b0;stroke-linecap:square;stroke-width:0.8;"/>
     </g>
     <g id="line2d_22">
      <g>
       <use style="stroke:#000000;stroke-width:0.8;" x="72" xlink:href="#mde76c5b059" y="174.72"/>
      </g>
     </g>
     <g id="text_12">
      <!-- 0.8 -->
      <g transform="translate(49.096875 178.519219)scale(0.1 -0.1)">
       <use xlink:href="#DejaVuSans-48"/>
       <use x="63.623047" xlink:href="#DejaVuSans-46"/>
       <use x="95.410156" xlink:href="#DejaVuSans-56"/>
      </g>
     </g>
    </g>
    <g id="ytick_6">
     <g id="line2d_23">
      <path clip-path="url(#pe7f2db3132)" d="M 72 90.24 
L 518.4 90.24 
" style="fill:none;stroke:#b0b0b0;stroke-linecap:square;stroke-width:0.8;"/>
     </g>
     <g id="line2d_24">
      <g>
       <use style="stroke:#000000;stroke-width:0.8;" x="72" xlink:href="#mde76c5b059" y="90.24"/>
      </g>
     </g>
     <g id="text_13">
      <!-- 1.0 -->
      <g transform="translate(49.096875 94.039219)scale(0.1 -0.1)">
       <use xlink:href="#DejaVuSans-49"/>
       <use x="63.623047" xlink:href="#DejaVuSans-46"/>
       <use x="95.410156" xlink:href="#DejaVuSans-48"/>
      </g>
     </g>
    </g>
    <g id="text_14">
     <!-- True Positive Rate -->
     <defs>
      <path d="M -0.296875 72.90625 
L 61.375 72.90625 
L 61.375 64.59375 
L 35.5 64.59375 
L 35.5 0 
L 25.59375 0 
L 25.59375 64.59375 
L -0.296875 64.59375 
z
" id="DejaVuSans-84"/>
      <path d="M 41.109375 46.296875 
Q 39.59375 47.171875 37.8125 47.578125 
Q 36.03125 48 33.890625 48 
Q 26.265625 48 22.1875 43.046875 
Q 18.109375 38.09375 18.109375 28.8125 
L 18.109375 0 
L 9.078125 0 
L 9.078125 54.6875 
L 18.109375 54.6875 
L 18.109375 46.1875 
Q 20.953125 51.171875 25.484375 53.578125 
Q 30.03125 56 36.53125 56 
Q 37.453125 56 38.578125 55.875 
Q 39.703125 55.765625 41.0625 55.515625 
z
" id="DejaVuSans-114"/>
      <path d="M 8.5 21.578125 
L 8.5 54.6875 
L 17.484375 54.6875 
L 17.484375 21.921875 
Q 17.484375 14.15625 20.5 10.265625 
Q 23.53125 6.390625 29.59375 6.390625 
Q 36.859375 6.390625 41.078125 11.03125 
Q 45.3125 15.671875 45.3125 23.6875 
L 45.3125 54.6875 
L 54.296875 54.6875 
L 54.296875 0 
L 45.3125 0 
L 45.3125 8.40625 
Q 42.046875 3.421875 37.71875 1 
Q 33.40625 -1.421875 27.6875 -1.421875 
Q 18.265625 -1.421875 13.375 4.4375 
Q 8.5 10.296875 8.5 21.578125 
z
M 31.109375 56 
z
" id="DejaVuSans-117"/>
     </defs>
     <g transform="translate(43.017187 336.426094)rotate(-90)scale(0.1 -0.1)">
      <use xlink:href="#DejaVuSans-84"/>
      <use x="60.865234" xlink:href="#DejaVuSans-114"/>
      <use x="101.978516" xlink:href="#DejaVuSans-117"/>
      <use x="165.357422" xlink:href="#DejaVuSans-101"/>
      <use x="226.880859" xlink:href="#DejaVuSans-32"/>
      <use x="258.667969" xlink:href="#DejaVuSans-80"/>
      <use x="318.923828" xlink:href="#DejaVuSans-111"/>
      <use x="380.105469" xlink:href="#DejaVuSans-115"/>
      <use x="432.205078" xlink:href="#DejaVuSans-105"/>
      <use x="459.988281" xlink:href="#DejaVuSans-116"/>
      <use x="499.197266" xlink:href="#DejaVuSans-105"/>
      <use x="526.980469" xlink:href="#DejaVuSans-118"/>
      <use x="586.160156" xlink:href="#DejaVuSans-101"/>
      <use x="647.683594" xlink:href="#DejaVuSans-32"/>
      <use x="679.470703" xlink:href="#DejaVuSans-82"/>
      <use x="748.921875" xlink:href="#DejaVuSans-97"/>
      <use x="810.201172" xlink:href="#DejaVuSans-116"/>
      <use x="849.410156" xlink:href="#DejaVuSans-101"/>
     </g>
    </g>
   </g>
   <g id="line2d_25">
    <path clip-path="url(#pe7f2db3132)" d="M 72 512.64 
L 72.598391 512.64 
L 72.598391 508.307692 
L 73.196783 508.307692 
L 73.196783 504.697436 
L 73.795174 504.697436 
L 73.795174 489.895385 
L 74.393566 489.895385 
L 74.393566 485.202051 
L 74.991957 485.202051 
L 74.991957 474.371282 
L 75.590349 474.371282 
L 75.590349 470.038974 
L 76.18874 470.038974 
L 76.18874 469.677949 
L 76.787131 469.677949 
L 76.787131 468.955897 
L 77.385523 468.955897 
L 77.385523 468.594872 
L 77.983914 468.594872 
L 77.983914 453.070769 
L 78.582306 453.070769 
L 78.582306 446.933333 
L 79.180697 446.933333 
L 79.180697 446.572308 
L 79.779088 446.572308 
L 79.779088 437.907692 
L 80.37748 437.907692 
L 80.37748 423.466667 
L 80.975871 423.466667 
L 80.975871 416.607179 
L 81.574263 416.607179 
L 81.574263 412.635897 
L 82.172654 412.635897 
L 82.172654 411.191795 
L 82.771046 411.191795 
L 82.771046 409.386667 
L 83.967828 409.386667 
L 83.967828 408.664615 
L 84.56622 408.664615 
L 84.56622 408.30359 
L 85.164611 408.30359 
L 85.164611 406.137436 
L 85.763003 406.137436 
L 85.763003 405.77641 
L 86.361394 405.77641 
L 86.361394 396.389744 
L 86.959786 396.389744 
L 86.959786 393.501538 
L 87.558177 393.501538 
L 87.558177 393.140513 
L 88.75496 393.140513 
L 88.75496 392.418462 
L 89.353351 392.418462 
L 89.353351 392.057436 
L 89.951743 392.057436 
L 89.951743 390.974359 
L 90.550134 390.974359 
L 90.550134 389.891282 
L 91.148525 389.891282 
L 91.148525 386.281026 
L 91.746917 386.281026 
L 91.746917 384.836923 
L 92.345308 384.836923 
L 92.345308 383.031795 
L 94.140483 383.031795 
L 94.140483 381.587692 
L 94.738874 381.587692 
L 94.738874 380.865641 
L 95.337265 380.865641 
L 95.337265 379.782564 
L 95.935657 379.782564 
L 95.935657 379.421538 
L 96.534048 379.421538 
L 96.534048 378.338462 
L 97.13244 378.338462 
L 97.13244 377.255385 
L 97.730831 377.255385 
L 97.730831 376.533333 
L 98.329223 376.533333 
L 98.329223 374.367179 
L 98.927614 374.367179 
L 98.927614 368.229744 
L 99.526005 368.229744 
L 99.526005 361.009231 
L 100.124397 361.009231 
L 100.124397 359.565128 
L 100.722788 359.565128 
L 100.722788 358.121026 
L 101.32118 358.121026 
L 101.32118 357.76 
L 101.919571 357.76 
L 101.919571 357.398974 
L 103.116354 357.398974 
L 103.116354 352.344615 
L 103.714745 352.344615 
L 103.714745 350.539487 
L 104.313137 350.539487 
L 104.313137 350.178462 
L 105.50992 350.178462 
L 105.50992 349.45641 
L 106.108311 349.45641 
L 106.108311 349.095385 
L 107.305094 349.095385 
L 107.305094 348.734359 
L 107.903485 348.734359 
L 107.903485 348.012308 
L 110.297051 348.012308 
L 110.297051 347.651282 
L 110.895442 347.651282 
L 110.895442 346.929231 
L 111.493834 346.929231 
L 111.493834 345.485128 
L 112.092225 345.485128 
L 112.092225 344.402051 
L 112.690617 344.402051 
L 112.690617 343.68 
L 113.289008 343.68 
L 113.289008 338.986667 
L 114.485791 338.986667 
L 114.485791 337.542564 
L 115.682574 337.542564 
L 115.682574 336.820513 
L 116.280965 336.820513 
L 116.280965 335.737436 
L 116.879357 335.737436 
L 116.879357 332.849231 
L 118.674531 332.849231 
L 118.674531 330.683077 
L 119.272922 330.683077 
L 119.272922 329.961026 
L 119.871314 329.961026 
L 119.871314 328.516923 
L 120.469705 328.516923 
L 120.469705 325.989744 
L 121.068097 325.989744 
L 121.068097 325.628718 
L 121.666488 325.628718 
L 121.666488 319.852308 
L 122.863271 319.852308 
L 122.863271 318.769231 
L 123.461662 318.769231 
L 123.461662 317.686154 
L 124.060054 317.686154 
L 124.060054 314.797949 
L 124.658445 314.797949 
L 124.658445 314.075897 
L 125.256836 314.075897 
L 125.256836 310.826667 
L 125.855228 310.826667 
L 125.855228 309.382564 
L 126.453619 309.382564 
L 126.453619 309.021538 
L 127.052011 309.021538 
L 127.052011 307.577436 
L 127.650402 307.577436 
L 127.650402 306.855385 
L 128.248794 306.855385 
L 128.248794 305.050256 
L 128.847185 305.050256 
L 128.847185 303.245128 
L 129.445576 303.245128 
L 129.445576 300.717949 
L 131.240751 300.717949 
L 131.240751 299.995897 
L 131.839142 299.995897 
L 131.839142 296.385641 
L 132.437534 296.385641 
L 132.437534 293.858462 
L 133.634316 293.858462 
L 133.634316 293.13641 
L 134.232708 293.13641 
L 134.232708 291.331282 
L 135.429491 291.331282 
L 135.429491 289.526154 
L 136.027882 289.526154 
L 136.027882 289.165128 
L 136.626273 289.165128 
L 136.626273 288.443077 
L 137.224665 288.443077 
L 137.224665 288.082051 
L 139.618231 288.082051 
L 139.618231 286.276923 
L 141.413405 286.276923 
L 141.413405 285.193846 
L 142.610188 285.193846 
L 142.610188 284.471795 
L 143.208579 284.471795 
L 143.208579 282.305641 
L 146.200536 282.305641 
L 146.200536 281.222564 
L 147.99571 281.222564 
L 147.99571 280.500513 
L 148.594102 280.500513 
L 148.594102 277.251282 
L 149.192493 277.251282 
L 149.192493 274.724103 
L 149.790885 274.724103 
L 149.790885 272.918974 
L 150.389276 272.918974 
L 150.389276 270.752821 
L 150.987668 270.752821 
L 150.987668 270.391795 
L 151.586059 270.391795 
L 151.586059 268.225641 
L 152.18445 268.225641 
L 152.18445 267.142564 
L 152.782842 267.142564 
L 152.782842 265.698462 
L 153.381233 265.698462 
L 153.381233 263.532308 
L 153.979625 263.532308 
L 153.979625 262.449231 
L 154.578016 262.449231 
L 154.578016 262.088205 
L 155.176408 262.088205 
L 155.176408 260.283077 
L 155.774799 260.283077 
L 155.774799 259.922051 
L 156.37319 259.922051 
L 156.37319 257.394872 
L 156.971582 257.394872 
L 156.971582 254.506667 
L 157.569973 254.506667 
L 157.569973 252.340513 
L 158.168365 252.340513 
L 158.168365 251.979487 
L 158.766756 251.979487 
L 158.766756 247.286154 
L 159.963539 247.286154 
L 159.963539 246.203077 
L 160.56193 246.203077 
L 160.56193 245.842051 
L 161.160322 245.842051 
L 161.160322 244.758974 
L 162.357105 244.758974 
L 162.357105 244.397949 
L 162.955496 244.397949 
L 162.955496 242.953846 
L 163.553887 242.953846 
L 163.553887 233.206154 
L 164.152279 233.206154 
L 164.152279 230.678974 
L 164.75067 230.678974 
L 164.75067 228.873846 
L 165.349062 228.873846 
L 165.349062 228.512821 
L 166.545845 228.512821 
L 166.545845 225.985641 
L 167.144236 225.985641 
L 167.144236 225.624615 
L 167.742627 225.624615 
L 167.742627 224.902564 
L 168.341019 224.902564 
L 168.341019 222.014359 
L 168.93941 222.014359 
L 168.93941 221.292308 
L 169.537802 221.292308 
L 169.537802 217.321026 
L 170.136193 217.321026 
L 170.136193 216.237949 
L 171.931367 216.237949 
L 171.931367 215.515897 
L 172.529759 215.515897 
L 172.529759 214.071795 
L 173.12815 214.071795 
L 173.12815 212.627692 
L 174.324933 212.627692 
L 174.324933 211.544615 
L 174.923324 211.544615 
L 174.923324 210.461538 
L 175.521716 210.461538 
L 175.521716 209.739487 
L 176.120107 209.739487 
L 176.120107 209.378462 
L 176.718499 209.378462 
L 176.718499 208.295385 
L 179.112064 208.295385 
L 179.112064 207.573333 
L 179.710456 207.573333 
L 179.710456 206.851282 
L 180.907239 206.851282 
L 180.907239 206.129231 
L 182.702413 206.129231 
L 182.702413 205.407179 
L 183.300804 205.407179 
L 183.300804 203.602051 
L 186.292761 203.602051 
L 186.292761 203.241026 
L 186.891153 203.241026 
L 186.891153 202.518974 
L 187.489544 202.518974 
L 187.489544 202.157949 
L 188.087936 202.157949 
L 188.087936 201.796923 
L 188.686327 201.796923 
L 188.686327 200.713846 
L 189.284718 200.713846 
L 189.284718 199.991795 
L 190.481501 199.991795 
L 190.481501 198.908718 
L 191.079893 198.908718 
L 191.079893 197.464615 
L 191.678284 197.464615 
L 191.678284 196.742564 
L 192.875067 196.742564 
L 192.875067 195.298462 
L 194.670241 195.298462 
L 194.670241 191.688205 
L 195.867024 191.688205 
L 195.867024 191.327179 
L 197.063807 191.327179 
L 197.063807 190.605128 
L 198.858981 190.605128 
L 198.858981 190.244103 
L 199.457373 190.244103 
L 199.457373 186.633846 
L 200.055764 186.633846 
L 200.055764 186.272821 
L 200.654155 186.272821 
L 200.654155 185.550769 
L 201.252547 185.550769 
L 201.252547 184.467692 
L 201.850938 184.467692 
L 201.850938 183.384615 
L 202.44933 183.384615 
L 202.44933 183.02359 
L 203.047721 183.02359 
L 203.047721 182.662564 
L 204.244504 182.662564 
L 204.244504 180.49641 
L 204.842895 180.49641 
L 204.842895 179.774359 
L 206.039678 179.774359 
L 206.039678 176.886154 
L 207.834853 176.886154 
L 207.834853 175.803077 
L 209.031635 175.803077 
L 209.031635 174.358974 
L 209.630027 174.358974 
L 209.630027 172.553846 
L 210.228418 172.553846 
L 210.228418 170.748718 
L 212.023592 170.748718 
L 212.023592 170.026667 
L 212.621984 170.026667 
L 212.621984 169.304615 
L 213.220375 169.304615 
L 213.220375 168.94359 
L 213.818767 168.94359 
L 213.818767 168.582564 
L 214.417158 168.582564 
L 214.417158 168.221538 
L 216.212332 168.221538 
L 216.212332 166.055385 
L 216.810724 166.055385 
L 216.810724 165.333333 
L 217.409115 165.333333 
L 217.409115 164.972308 
L 218.007507 164.972308 
L 218.007507 164.611282 
L 219.20429 164.611282 
L 219.20429 164.250256 
L 220.999464 164.250256 
L 220.999464 163.528205 
L 225.188204 163.528205 
L 225.188204 163.167179 
L 226.384987 163.167179 
L 226.384987 162.445128 
L 226.983378 162.445128 
L 226.983378 161.362051 
L 227.581769 161.362051 
L 227.581769 160.278974 
L 229.376944 160.278974 
L 229.376944 159.917949 
L 229.975335 159.917949 
L 229.975335 159.556923 
L 231.172118 159.556923 
L 231.172118 157.751795 
L 232.368901 157.751795 
L 232.368901 157.029744 
L 232.967292 157.029744 
L 232.967292 156.668718 
L 234.762466 156.668718 
L 234.762466 156.307692 
L 235.360858 156.307692 
L 235.360858 155.224615 
L 235.959249 155.224615 
L 235.959249 154.86359 
L 237.754424 154.86359 
L 237.754424 153.780513 
L 239.549598 153.780513 
L 239.549598 153.058462 
L 240.147989 153.058462 
L 240.147989 151.975385 
L 240.746381 151.975385 
L 240.746381 150.892308 
L 241.344772 150.892308 
L 241.344772 150.531282 
L 243.139946 150.531282 
L 243.139946 150.170256 
L 244.336729 150.170256 
L 244.336729 149.809231 
L 244.935121 149.809231 
L 244.935121 149.448205 
L 247.328686 149.448205 
L 247.328686 146.56 
L 247.927078 146.56 
L 247.927078 144.754872 
L 250.320643 144.754872 
L 250.320643 144.032821 
L 252.115818 144.032821 
L 252.115818 143.671795 
L 256.304558 143.671795 
L 256.304558 142.949744 
L 257.50134 142.949744 
L 257.50134 142.588718 
L 271.862735 142.588718 
L 271.862735 142.227692 
L 274.854692 142.227692 
L 274.854692 141.866667 
L 278.44504 141.866667 
L 278.44504 140.422564 
L 280.838606 140.422564 
L 280.838606 140.061538 
L 282.035389 140.061538 
L 282.035389 139.700513 
L 284.428954 139.700513 
L 284.428954 139.339487 
L 288.617694 139.339487 
L 288.617694 138.25641 
L 291.01126 138.25641 
L 291.01126 137.895385 
L 291.609651 137.895385 
L 291.609651 137.173333 
L 294.003217 137.173333 
L 294.003217 136.812308 
L 295.798391 136.812308 
L 295.798391 136.451282 
L 296.396783 136.451282 
L 296.396783 136.090256 
L 298.790349 136.090256 
L 298.790349 135.007179 
L 299.38874 135.007179 
L 299.38874 133.924103 
L 301.782306 133.924103 
L 301.782306 133.202051 
L 302.380697 133.202051 
L 302.380697 132.841026 
L 302.979088 132.841026 
L 302.979088 132.118974 
L 303.57748 132.118974 
L 303.57748 131.757949 
L 304.175871 131.757949 
L 304.175871 131.396923 
L 304.774263 131.396923 
L 304.774263 130.313846 
L 305.971046 130.313846 
L 305.971046 129.591795 
L 307.167828 129.591795 
L 307.167828 128.869744 
L 312.553351 128.869744 
L 312.553351 128.508718 
L 313.151743 128.508718 
L 313.151743 127.786667 
L 313.750134 127.786667 
L 313.750134 127.425641 
L 314.946917 127.425641 
L 314.946917 126.70359 
L 316.1437 126.70359 
L 316.1437 126.342564 
L 318.537265 126.342564 
L 318.537265 125.981538 
L 319.135657 125.981538 
L 319.135657 125.620513 
L 321.529223 125.620513 
L 321.529223 125.259487 
L 322.726005 125.259487 
L 322.726005 123.815385 
L 324.52118 123.815385 
L 324.52118 123.454359 
L 325.717962 123.454359 
L 325.717962 123.093333 
L 328.111528 123.093333 
L 328.111528 121.288205 
L 328.70992 121.288205 
L 328.70992 119.844103 
L 329.308311 119.844103 
L 329.308311 119.483077 
L 330.505094 119.483077 
L 330.505094 119.122051 
L 331.701877 119.122051 
L 331.701877 118.761026 
L 333.497051 118.761026 
L 333.497051 117.677949 
L 335.292225 117.677949 
L 335.292225 117.316923 
L 335.890617 117.316923 
L 335.890617 116.594872 
L 336.489008 116.594872 
L 336.489008 115.511795 
L 337.087399 115.511795 
L 337.087399 115.150769 
L 338.284182 115.150769 
L 338.284182 114.789744 
L 338.882574 114.789744 
L 338.882574 114.428718 
L 339.480965 114.428718 
L 339.480965 114.067692 
L 341.276139 114.067692 
L 341.276139 113.706667 
L 344.268097 113.706667 
L 344.268097 113.345641 
L 348.456836 113.345641 
L 348.456836 112.62359 
L 349.653619 112.62359 
L 349.653619 112.262564 
L 350.850402 112.262564 
L 350.850402 111.540513 
L 351.448794 111.540513 
L 351.448794 111.179487 
L 353.842359 111.179487 
L 353.842359 110.818462 
L 358.629491 110.818462 
L 358.629491 110.457436 
L 362.818231 110.457436 
L 362.818231 109.735385 
L 365.810188 109.735385 
L 365.810188 109.374359 
L 369.400536 109.374359 
L 369.400536 109.013333 
L 369.998928 109.013333 
L 369.998928 108.652308 
L 372.990885 108.652308 
L 372.990885 108.291282 
L 374.786059 108.291282 
L 374.786059 107.930256 
L 378.376408 107.930256 
L 378.376408 107.569231 
L 381.966756 107.569231 
L 381.966756 107.208205 
L 384.360322 107.208205 
L 384.360322 106.847179 
L 386.155496 106.847179 
L 386.155496 106.125128 
L 386.753887 106.125128 
L 386.753887 105.042051 
L 389.147453 105.042051 
L 389.147453 104.681026 
L 392.737802 104.681026 
L 392.737802 103.958974 
L 393.336193 103.958974 
L 393.336193 103.597949 
L 395.729759 103.597949 
L 395.729759 103.236923 
L 396.926542 103.236923 
L 396.926542 102.875897 
L 405.304021 102.875897 
L 405.304021 102.514872 
L 408.295979 102.514872 
L 408.295979 101.792821 
L 410.689544 101.792821 
L 410.689544 101.431795 
L 413.08311 101.431795 
L 413.08311 101.070769 
L 416.075067 101.070769 
L 416.075067 100.709744 
L 419.067024 100.709744 
L 419.067024 100.348718 
L 424.452547 100.348718 
L 424.452547 99.987692 
L 425.64933 99.987692 
L 425.64933 99.626667 
L 431.633244 99.626667 
L 431.633244 99.265641 
L 434.02681 99.265641 
L 434.02681 98.904615 
L 435.223592 98.904615 
L 435.223592 98.54359 
L 437.018767 98.54359 
L 437.018767 98.182564 
L 438.813941 98.182564 
L 438.813941 97.821538 
L 439.412332 97.821538 
L 439.412332 96.738462 
L 447.789812 96.738462 
L 447.789812 96.377436 
L 450.781769 96.377436 
L 450.781769 96.01641 
L 451.978552 96.01641 
L 451.978552 95.655385 
L 454.970509 95.655385 
L 454.970509 95.294359 
L 455.568901 95.294359 
L 455.568901 94.572308 
L 456.167292 94.572308 
L 456.167292 94.211282 
L 460.356032 94.211282 
L 460.356032 93.850256 
L 470.528686 93.850256 
L 470.528686 93.489231 
L 471.725469 93.489231 
L 471.725469 93.128205 
L 474.119035 93.128205 
L 474.119035 92.767179 
L 481.898123 92.767179 
L 481.898123 92.045128 
L 483.693298 92.045128 
L 483.693298 91.684103 
L 501.046649 91.684103 
L 501.046649 91.323077 
L 505.83378 91.323077 
L 505.83378 90.962051 
L 511.817694 90.962051 
L 511.817694 90.24 
L 518.4 90.24 
L 518.4 90.24 
" style="fill:none;stroke:#ff8c00;stroke-linecap:square;stroke-width:2;"/>
   </g>
   <g id="line2d_26">
    <path clip-path="url(#pe7f2db3132)" d="M 72 512.64 
L 518.4 90.24 
" style="fill:none;stroke:#000080;stroke-dasharray:7.4,3.2;stroke-dashoffset:0;stroke-width:2;"/>
   </g>
   <g id="patch_3">
    <path d="M 72 512.64 
L 72 69.12 
" style="fill:none;stroke:#000000;stroke-linecap:square;stroke-linejoin:miter;stroke-width:0.8;"/>
   </g>
   <g id="patch_4">
    <path d="M 518.4 512.64 
L 518.4 69.12 
" style="fill:none;stroke:#000000;stroke-linecap:square;stroke-linejoin:miter;stroke-width:0.8;"/>
   </g>
   <g id="patch_5">
    <path d="M 72 512.64 
L 518.4 512.64 
" style="fill:none;stroke:#000000;stroke-linecap:square;stroke-linejoin:miter;stroke-width:0.8;"/>
   </g>
   <g id="patch_6">
    <path d="M 72 69.12 
L 518.4 69.12 
" style="fill:none;stroke:#000000;stroke-linecap:square;stroke-linejoin:miter;stroke-width:0.8;"/>
   </g>
   <g id="legend_1">
    <g id="patch_7">
     <path d="M 427.081875 509.64 
L 514.2 509.64 
Q 515.4 509.64 515.4 508.44 
L 515.4 500.233125 
Q 515.4 499.033125 514.2 499.033125 
L 427.081875 499.033125 
Q 425.881875 499.033125 425.881875 500.233125 
L 425.881875 508.44 
Q 425.881875 509.64 427.081875 509.64 
z
" style="fill:#ffffff;opacity:0.8;stroke:#cccccc;stroke-linejoin:miter;"/>
    </g>
    <g id="line2d_27">
     <path d="M 428.281875 503.892187 
L 440.281875 503.892187 
" style="fill:none;stroke:#ff8c00;stroke-linecap:square;stroke-width:2;"/>
    </g>
    <g id="line2d_28"/>
    <g id="text_15">
     <!-- D006262 (area =0.81) -->
     <defs>
      <path d="M 19.671875 64.796875 
L 19.671875 8.109375 
L 31.59375 8.109375 
Q 46.6875 8.109375 53.6875 14.9375 
Q 60.6875 21.78125 60.6875 36.53125 
Q 60.6875 51.171875 53.6875 57.984375 
Q 46.6875 64.796875 31.59375 64.796875 
z
M 9.8125 72.90625 
L 30.078125 72.90625 
Q 51.265625 72.90625 61.171875 64.09375 
Q 71.09375 55.28125 71.09375 36.53125 
Q 71.09375 17.671875 61.125 8.828125 
Q 51.171875 0 30.078125 0 
L 9.8125 0 
z
" id="DejaVuSans-68"/>
      <path d="M 31 75.875 
Q 24.46875 64.65625 21.28125 53.65625 
Q 18.109375 42.671875 18.109375 31.390625 
Q 18.109375 20.125 21.3125 9.0625 
Q 24.515625 -2 31 -13.1875 
L 23.1875 -13.1875 
Q 15.875 -1.703125 12.234375 9.375 
Q 8.59375 20.453125 8.59375 31.390625 
Q 8.59375 42.28125 12.203125 53.3125 
Q 15.828125 64.359375 23.1875 75.875 
z
" id="DejaVuSans-40"/>
      <path d="M 10.59375 45.40625 
L 73.1875 45.40625 
L 73.1875 37.203125 
L 10.59375 37.203125 
z
M 10.59375 25.484375 
L 73.1875 25.484375 
L 73.1875 17.1875 
L 10.59375 17.1875 
z
" id="DejaVuSans-61"/>
      <path d="M 8.015625 75.875 
L 15.828125 75.875 
Q 23.140625 64.359375 26.78125 53.3125 
Q 30.421875 42.28125 30.421875 31.390625 
Q 30.421875 20.453125 26.78125 9.375 
Q 23.140625 -1.703125 15.828125 -13.1875 
L 8.015625 -13.1875 
Q 14.5 -2 17.703125 9.0625 
Q 20.90625 20.125 20.90625 31.390625 
Q 20.90625 42.671875 17.703125 53.65625 
Q 14.5 64.65625 8.015625 75.875 
z
" id="DejaVuSans-41"/>
     </defs>
     <g transform="translate(445.081875 505.992188)scale(0.06 -0.06)">
      <use xlink:href="#DejaVuSans-68"/>
      <use x="77.001953" xlink:href="#DejaVuSans-48"/>
      <use x="140.625" xlink:href="#DejaVuSans-48"/>
      <use x="204.248047" xlink:href="#DejaVuSans-54"/>
      <use x="267.871094" xlink:href="#DejaVuSans-50"/>
      <use x="331.494141" xlink:href="#DejaVuSans-54"/>
      <use x="395.117188" xlink:href="#DejaVuSans-50"/>
      <use x="458.740234" xlink:href="#DejaVuSans-32"/>
      <use x="490.527344" xlink:href="#DejaVuSans-40"/>
      <use x="529.541016" xlink:href="#DejaVuSans-97"/>
      <use x="590.820312" xlink:href="#DejaVuSans-114"/>
      <use x="631.902344" xlink:href="#DejaVuSans-101"/>
      <use x="693.425781" xlink:href="#DejaVuSans-97"/>
      <use x="754.705078" xlink:href="#DejaVuSans-32"/>
      <use x="786.492188" xlink:href="#DejaVuSans-61"/>
      <use x="870.28125" xlink:href="#DejaVuSans-48"/>
      <use x="933.904297" xlink:href="#DejaVuSans-46"/>
      <use x="965.691406" xlink:href="#DejaVuSans-56"/>
      <use x="1029.314453" xlink:href="#DejaVuSans-49"/>
      <use x="1092.9375" xlink:href="#DejaVuSans-41"/>
     </g>
    </g>
   </g>
  </g>
 </g>
 <defs>
  <clipPath id="pe7f2db3132">
   <rect height="443.52" width="446.4" x="72" y="69.12"/>
  </clipPath>
 </defs>
</svg>
