<?xml version="1.0" encoding="utf-8" standalone="no"?>
<!DOCTYPE svg PUBLIC "-//W3C//DTD SVG 1.1//EN"
  "http://www.w3.org/Graphics/SVG/1.1/DTD/svg11.dtd">
<!-- Created with matplotlib (https://matplotlib.org/) -->
<svg height="432pt" version="1.1" viewBox="0 0 720 432" width="720pt" xmlns="http://www.w3.org/2000/svg" xmlns:xlink="http://www.w3.org/1999/xlink">
 <defs>
  <style type="text/css">
*{stroke-linecap:butt;stroke-linejoin:round;}
  </style>
 </defs>
 <g id="figure_1">
  <g id="patch_1">
   <path d="M 0 432 
L 720 432 
L 720 0 
L 0 0 
z
" style="fill:#ffffff;"/>
  </g>
  <g id="axes_1">
   <g id="patch_2">
    <path d="M 90 384.48 
L 648 384.48 
L 648 51.84 
L 90 51.84 
z
" style="fill:#ffffff;"/>
   </g>
   <g id="PathCollection_1">
    <defs>
     <path d="M 0 3 
C 0.795609 3 1.55874 2.683901 2.12132 2.12132 
C 2.683901 1.55874 3 0.795609 3 0 
C 3 -0.795609 2.683901 -1.55874 2.12132 -2.12132 
C 1.55874 -2.683901 0.795609 -3 0 -3 
C -0.795609 -3 -1.55874 -2.683901 -2.12132 -2.12132 
C -2.683901 -1.55874 -3 -0.795609 -3 0 
C -3 0.795609 -2.683901 1.55874 -2.12132 2.12132 
C -1.55874 2.683901 -0.795609 3 0 3 
z
" id="m4abbe1c644" style="stroke:#f8766d;"/>
    </defs>
    <g clip-path="url(#pb45b14e4a4)">
     <use style="fill:#f8766d;stroke:#f8766d;" x="327.464138" xlink:href="#m4abbe1c644" y="117.147856"/>
     <use style="fill:#f8766d;stroke:#f8766d;" x="291.03732" xlink:href="#m4abbe1c644" y="144.679738"/>
     <use style="fill:#f8766d;stroke:#f8766d;" x="299.637437" xlink:href="#m4abbe1c644" y="339.88038"/>
     <use style="fill:#f8766d;stroke:#f8766d;" x="415.189143" xlink:href="#m4abbe1c644" y="169.714088"/>
     <use style="fill:#f8766d;stroke:#f8766d;" x="204.398862" xlink:href="#m4abbe1c644" y="187.950799"/>
     <use style="fill:#f8766d;stroke:#f8766d;" x="375.824109" xlink:href="#m4abbe1c644" y="360.640341"/>
     <use style="fill:#f8766d;stroke:#f8766d;" x="374.493562" xlink:href="#m4abbe1c644" y="362.149131"/>
     <use style="fill:#f8766d;stroke:#f8766d;" x="468.115754" xlink:href="#m4abbe1c644" y="319.209235"/>
     <use style="fill:#f8766d;stroke:#f8766d;" x="272.712786" xlink:href="#m4abbe1c644" y="255.029336"/>
     <use style="fill:#f8766d;stroke:#f8766d;" x="319.906167" xlink:href="#m4abbe1c644" y="68.839387"/>
     <use style="fill:#f8766d;stroke:#f8766d;" x="139.961871" xlink:href="#m4abbe1c644" y="210.180721"/>
     <use style="fill:#f8766d;stroke:#f8766d;" x="383.32718" xlink:href="#m4abbe1c644" y="106.669923"/>
     <use style="fill:#f8766d;stroke:#f8766d;" x="300.716548" xlink:href="#m4abbe1c644" y="267.525099"/>
     <use style="fill:#f8766d;stroke:#f8766d;" x="117.725294" xlink:href="#m4abbe1c644" y="261.245483"/>
    </g>
   </g>
   <g id="PathCollection_2">
    <defs>
     <path d="M 0 3 
C 0.795609 3 1.55874 2.683901 2.12132 2.12132 
C 2.683901 1.55874 3 0.795609 3 0 
C 3 -0.795609 2.683901 -1.55874 2.12132 -2.12132 
C 1.55874 -2.683901 0.795609 -3 0 -3 
C -0.795609 -3 -1.55874 -2.683901 -2.12132 -2.12132 
C -2.683901 -1.55874 -3 -0.795609 -3 0 
C -3 0.795609 -2.683901 1.55874 -2.12132 2.12132 
C -1.55874 2.683901 -0.795609 3 0 3 
z
" id="m8f0cff894c" style="stroke:#00bfc4;"/>
    </defs>
    <g clip-path="url(#pb45b14e4a4)">
     <use style="fill:#00bfc4;stroke:#00bfc4;" x="396.204939" xlink:href="#m8f0cff894c" y="149.688157"/>
     <use style="fill:#00bfc4;stroke:#00bfc4;" x="288.740408" xlink:href="#m8f0cff894c" y="96.187079"/>
     <use style="fill:#00bfc4;stroke:#00bfc4;" x="393.778727" xlink:href="#m8f0cff894c" y="139.378182"/>
     <use style="fill:#00bfc4;stroke:#00bfc4;" x="340.475681" xlink:href="#m8f0cff894c" y="126.252611"/>
     <use style="fill:#00bfc4;stroke:#00bfc4;" x="376.68145" xlink:href="#m8f0cff894c" y="142.781451"/>
     <use style="fill:#00bfc4;stroke:#00bfc4;" x="364.185042" xlink:href="#m8f0cff894c" y="113.368782"/>
     <use style="fill:#00bfc4;stroke:#00bfc4;" x="337.226356" xlink:href="#m8f0cff894c" y="156.519758"/>
     <use style="fill:#00bfc4;stroke:#00bfc4;" x="393.333196" xlink:href="#m8f0cff894c" y="152.012527"/>
     <use style="fill:#00bfc4;stroke:#00bfc4;" x="426.763658" xlink:href="#m8f0cff894c" y="93.223135"/>
     <use style="fill:#00bfc4;stroke:#00bfc4;" x="385.101748" xlink:href="#m8f0cff894c" y="152.873877"/>
     <use style="fill:#00bfc4;stroke:#00bfc4;" x="363.86336" xlink:href="#m8f0cff894c" y="148.322828"/>
     <use style="fill:#00bfc4;stroke:#00bfc4;" x="363.350118" xlink:href="#m8f0cff894c" y="143.642872"/>
     <use style="fill:#00bfc4;stroke:#00bfc4;" x="374.044711" xlink:href="#m8f0cff894c" y="152.419583"/>
     <use style="fill:#00bfc4;stroke:#00bfc4;" x="287.908517" xlink:href="#m8f0cff894c" y="120.512842"/>
     <use style="fill:#00bfc4;stroke:#00bfc4;" x="374.301576" xlink:href="#m8f0cff894c" y="152.288501"/>
     <use style="fill:#00bfc4;stroke:#00bfc4;" x="374.02171" xlink:href="#m8f0cff894c" y="124.664852"/>
     <use style="fill:#00bfc4;stroke:#00bfc4;" x="421.451786" xlink:href="#m8f0cff894c" y="87.42059"/>
     <use style="fill:#00bfc4;stroke:#00bfc4;" x="469.858844" xlink:href="#m8f0cff894c" y="125.393949"/>
     <use style="fill:#00bfc4;stroke:#00bfc4;" x="353.772709" xlink:href="#m8f0cff894c" y="104.008639"/>
     <use style="fill:#00bfc4;stroke:#00bfc4;" x="122.611082" xlink:href="#m8f0cff894c" y="220.11441"/>
     <use style="fill:#00bfc4;stroke:#00bfc4;" x="478.550737" xlink:href="#m8f0cff894c" y="216.173693"/>
     <use style="fill:#00bfc4;stroke:#00bfc4;" x="388.489396" xlink:href="#m8f0cff894c" y="189.527404"/>
     <use style="fill:#00bfc4;stroke:#00bfc4;" x="135.39849" xlink:href="#m8f0cff894c" y="208.170744"/>
     <use style="fill:#00bfc4;stroke:#00bfc4;" x="232.144709" xlink:href="#m8f0cff894c" y="140.979474"/>
     <use style="fill:#00bfc4;stroke:#00bfc4;" x="341.459724" xlink:href="#m8f0cff894c" y="280.94738"/>
     <use style="fill:#00bfc4;stroke:#00bfc4;" x="376.780117" xlink:href="#m8f0cff894c" y="284.705627"/>
     <use style="fill:#00bfc4;stroke:#00bfc4;" x="425.296963" xlink:href="#m8f0cff894c" y="69.056265"/>
     <use style="fill:#00bfc4;stroke:#00bfc4;" x="376.076213" xlink:href="#m8f0cff894c" y="321.441584"/>
     <use style="fill:#00bfc4;stroke:#00bfc4;" x="367.838432" xlink:href="#m8f0cff894c" y="354.669688"/>
     <use style="fill:#00bfc4;stroke:#00bfc4;" x="600.400912" xlink:href="#m8f0cff894c" y="166.178738"/>
     <use style="fill:#00bfc4;stroke:#00bfc4;" x="603.328407" xlink:href="#m8f0cff894c" y="241.744336"/>
     <use style="fill:#00bfc4;stroke:#00bfc4;" x="462.259107" xlink:href="#m8f0cff894c" y="290.667314"/>
     <use style="fill:#00bfc4;stroke:#00bfc4;" x="120.45592" xlink:href="#m8f0cff894c" y="199.008458"/>
     <use style="fill:#00bfc4;stroke:#00bfc4;" x="342.018856" xlink:href="#m8f0cff894c" y="180.102514"/>
     <use style="fill:#00bfc4;stroke:#00bfc4;" x="456.642235" xlink:href="#m8f0cff894c" y="162.664285"/>
     <use style="fill:#00bfc4;stroke:#00bfc4;" x="268.529167" xlink:href="#m8f0cff894c" y="215.953237"/>
     <use style="fill:#00bfc4;stroke:#00bfc4;" x="465.905116" xlink:href="#m8f0cff894c" y="318.909289"/>
     <use style="fill:#00bfc4;stroke:#00bfc4;" x="335.523336" xlink:href="#m8f0cff894c" y="220.738987"/>
     <use style="fill:#00bfc4;stroke:#00bfc4;" x="270.29825" xlink:href="#m8f0cff894c" y="132.58855"/>
     <use style="fill:#00bfc4;stroke:#00bfc4;" x="416.598377" xlink:href="#m8f0cff894c" y="205.066001"/>
     <use style="fill:#00bfc4;stroke:#00bfc4;" x="139.852907" xlink:href="#m8f0cff894c" y="168.613254"/>
     <use style="fill:#00bfc4;stroke:#00bfc4;" x="198.11814" xlink:href="#m8f0cff894c" y="284.570733"/>
     <use style="fill:#00bfc4;stroke:#00bfc4;" x="487.028026" xlink:href="#m8f0cff894c" y="190.986195"/>
     <use style="fill:#00bfc4;stroke:#00bfc4;" x="415.87" xlink:href="#m8f0cff894c" y="201.370444"/>
     <use style="fill:#00bfc4;stroke:#00bfc4;" x="562.493854" xlink:href="#m8f0cff894c" y="243.566226"/>
     <use style="fill:#00bfc4;stroke:#00bfc4;" x="541.881655" xlink:href="#m8f0cff894c" y="278.008825"/>
     <use style="fill:#00bfc4;stroke:#00bfc4;" x="432.882962" xlink:href="#m8f0cff894c" y="293.243721"/>
     <use style="fill:#00bfc4;stroke:#00bfc4;" x="483.78106" xlink:href="#m8f0cff894c" y="208.363846"/>
     <use style="fill:#00bfc4;stroke:#00bfc4;" x="558.322905" xlink:href="#m8f0cff894c" y="230.644853"/>
     <use style="fill:#00bfc4;stroke:#00bfc4;" x="442.959696" xlink:href="#m8f0cff894c" y="226.192053"/>
     <use style="fill:#00bfc4;stroke:#00bfc4;" x="307.826157" xlink:href="#m8f0cff894c" y="130.288682"/>
     <use style="fill:#00bfc4;stroke:#00bfc4;" x="267.866905" xlink:href="#m8f0cff894c" y="187.001051"/>
     <use style="fill:#00bfc4;stroke:#00bfc4;" x="148.718863" xlink:href="#m8f0cff894c" y="237.233351"/>
     <use style="fill:#00bfc4;stroke:#00bfc4;" x="321.708077" xlink:href="#m8f0cff894c" y="70.861637"/>
     <use style="fill:#00bfc4;stroke:#00bfc4;" x="433.711898" xlink:href="#m8f0cff894c" y="157.036566"/>
     <use style="fill:#00bfc4;stroke:#00bfc4;" x="377.073043" xlink:href="#m8f0cff894c" y="166.727258"/>
     <use style="fill:#00bfc4;stroke:#00bfc4;" x="243.317711" xlink:href="#m8f0cff894c" y="153.093825"/>
     <use style="fill:#00bfc4;stroke:#00bfc4;" x="308.675681" xlink:href="#m8f0cff894c" y="141.713063"/>
     <use style="fill:#00bfc4;stroke:#00bfc4;" x="237.792859" xlink:href="#m8f0cff894c" y="156.663718"/>
     <use style="fill:#00bfc4;stroke:#00bfc4;" x="334.616196" xlink:href="#m8f0cff894c" y="102.667376"/>
     <use style="fill:#00bfc4;stroke:#00bfc4;" x="422.42576" xlink:href="#m8f0cff894c" y="279.575485"/>
     <use style="fill:#00bfc4;stroke:#00bfc4;" x="332.964503" xlink:href="#m8f0cff894c" y="240.378594"/>
     <use style="fill:#00bfc4;stroke:#00bfc4;" x="176.125823" xlink:href="#m8f0cff894c" y="151.955331"/>
     <use style="fill:#00bfc4;stroke:#00bfc4;" x="243.018775" xlink:href="#m8f0cff894c" y="279.215852"/>
     <use style="fill:#00bfc4;stroke:#00bfc4;" x="285.99175" xlink:href="#m8f0cff894c" y="206.293887"/>
     <use style="fill:#00bfc4;stroke:#00bfc4;" x="492.255658" xlink:href="#m8f0cff894c" y="275.884773"/>
     <use style="fill:#00bfc4;stroke:#00bfc4;" x="204.410126" xlink:href="#m8f0cff894c" y="184.345401"/>
     <use style="fill:#00bfc4;stroke:#00bfc4;" x="433.753429" xlink:href="#m8f0cff894c" y="187.468506"/>
     <use style="fill:#00bfc4;stroke:#00bfc4;" x="368.959058" xlink:href="#m8f0cff894c" y="367.263735"/>
     <use style="fill:#00bfc4;stroke:#00bfc4;" x="341.480977" xlink:href="#m8f0cff894c" y="305.016751"/>
     <use style="fill:#00bfc4;stroke:#00bfc4;" x="528.181498" xlink:href="#m8f0cff894c" y="217.432843"/>
     <use style="fill:#00bfc4;stroke:#00bfc4;" x="245.056786" xlink:href="#m8f0cff894c" y="316.159723"/>
     <use style="fill:#00bfc4;stroke:#00bfc4;" x="300.224529" xlink:href="#m8f0cff894c" y="161.708722"/>
     <use style="fill:#00bfc4;stroke:#00bfc4;" x="455.68384" xlink:href="#m8f0cff894c" y="255.585569"/>
     <use style="fill:#00bfc4;stroke:#00bfc4;" x="600.973601" xlink:href="#m8f0cff894c" y="166.086969"/>
     <use style="fill:#00bfc4;stroke:#00bfc4;" x="367.217314" xlink:href="#m8f0cff894c" y="233.466181"/>
     <use style="fill:#00bfc4;stroke:#00bfc4;" x="254.236242" xlink:href="#m8f0cff894c" y="226.561908"/>
     <use style="fill:#00bfc4;stroke:#00bfc4;" x="531.502716" xlink:href="#m8f0cff894c" y="124.759339"/>
     <use style="fill:#00bfc4;stroke:#00bfc4;" x="133.924997" xlink:href="#m8f0cff894c" y="256.500889"/>
     <use style="fill:#00bfc4;stroke:#00bfc4;" x="209.850294" xlink:href="#m8f0cff894c" y="223.117097"/>
     <use style="fill:#00bfc4;stroke:#00bfc4;" x="270.737744" xlink:href="#m8f0cff894c" y="250.743837"/>
     <use style="fill:#00bfc4;stroke:#00bfc4;" x="367.234158" xlink:href="#m8f0cff894c" y="84.254493"/>
     <use style="fill:#00bfc4;stroke:#00bfc4;" x="466.739385" xlink:href="#m8f0cff894c" y="228.714899"/>
     <use style="fill:#00bfc4;stroke:#00bfc4;" x="563.982011" xlink:href="#m8f0cff894c" y="314.545278"/>
     <use style="fill:#00bfc4;stroke:#00bfc4;" x="434.297766" xlink:href="#m8f0cff894c" y="229.510358"/>
     <use style="fill:#00bfc4;stroke:#00bfc4;" x="219.811496" xlink:href="#m8f0cff894c" y="222.345229"/>
     <use style="fill:#00bfc4;stroke:#00bfc4;" x="532.497426" xlink:href="#m8f0cff894c" y="123.264229"/>
     <use style="fill:#00bfc4;stroke:#00bfc4;" x="420.271127" xlink:href="#m8f0cff894c" y="286.417318"/>
     <use style="fill:#00bfc4;stroke:#00bfc4;" x="201.249964" xlink:href="#m8f0cff894c" y="264.558443"/>
     <use style="fill:#00bfc4;stroke:#00bfc4;" x="361.123713" xlink:href="#m8f0cff894c" y="199.863503"/>
     <use style="fill:#00bfc4;stroke:#00bfc4;" x="283.092295" xlink:href="#m8f0cff894c" y="186.282361"/>
     <use style="fill:#00bfc4;stroke:#00bfc4;" x="375.181046" xlink:href="#m8f0cff894c" y="350.136487"/>
     <use style="fill:#00bfc4;stroke:#00bfc4;" x="299.736769" xlink:href="#m8f0cff894c" y="266.420094"/>
     <use style="fill:#00bfc4;stroke:#00bfc4;" x="374.003314" xlink:href="#m8f0cff894c" y="302.523922"/>
     <use style="fill:#00bfc4;stroke:#00bfc4;" x="253.567778" xlink:href="#m8f0cff894c" y="219.906286"/>
     <use style="fill:#00bfc4;stroke:#00bfc4;" x="414.777953" xlink:href="#m8f0cff894c" y="309.281043"/>
     <use style="fill:#00bfc4;stroke:#00bfc4;" x="137.321296" xlink:href="#m8f0cff894c" y="248.004887"/>
     <use style="fill:#00bfc4;stroke:#00bfc4;" x="461.451528" xlink:href="#m8f0cff894c" y="196.437711"/>
     <use style="fill:#00bfc4;stroke:#00bfc4;" x="154.656935" xlink:href="#m8f0cff894c" y="220.182761"/>
     <use style="fill:#00bfc4;stroke:#00bfc4;" x="563.673656" xlink:href="#m8f0cff894c" y="245.866667"/>
     <use style="fill:#00bfc4;stroke:#00bfc4;" x="295.23302" xlink:href="#m8f0cff894c" y="222.918441"/>
     <use style="fill:#00bfc4;stroke:#00bfc4;" x="257.567098" xlink:href="#m8f0cff894c" y="238.966532"/>
     <use style="fill:#00bfc4;stroke:#00bfc4;" x="509.618824" xlink:href="#m8f0cff894c" y="252.963465"/>
     <use style="fill:#00bfc4;stroke:#00bfc4;" x="532.62361" xlink:href="#m8f0cff894c" y="221.344252"/>
     <use style="fill:#00bfc4;stroke:#00bfc4;" x="286.904068" xlink:href="#m8f0cff894c" y="293.092292"/>
     <use style="fill:#00bfc4;stroke:#00bfc4;" x="353.986196" xlink:href="#m8f0cff894c" y="271.728044"/>
     <use style="fill:#00bfc4;stroke:#00bfc4;" x="423.204409" xlink:href="#m8f0cff894c" y="249.552608"/>
     <use style="fill:#00bfc4;stroke:#00bfc4;" x="312.721551" xlink:href="#m8f0cff894c" y="238.958469"/>
     <use style="fill:#00bfc4;stroke:#00bfc4;" x="356.151557" xlink:href="#m8f0cff894c" y="308.705214"/>
     <use style="fill:#00bfc4;stroke:#00bfc4;" x="341.025395" xlink:href="#m8f0cff894c" y="260.342132"/>
     <use style="fill:#00bfc4;stroke:#00bfc4;" x="348.761509" xlink:href="#m8f0cff894c" y="187.798574"/>
     <use style="fill:#00bfc4;stroke:#00bfc4;" x="340.226774" xlink:href="#m8f0cff894c" y="220.643061"/>
     <use style="fill:#00bfc4;stroke:#00bfc4;" x="481.671074" xlink:href="#m8f0cff894c" y="275.496014"/>
     <use style="fill:#00bfc4;stroke:#00bfc4;" x="415.499632" xlink:href="#m8f0cff894c" y="208.529385"/>
     <use style="fill:#00bfc4;stroke:#00bfc4;" x="412.778606" xlink:href="#m8f0cff894c" y="304.690802"/>
     <use style="fill:#00bfc4;stroke:#00bfc4;" x="392.065842" xlink:href="#m8f0cff894c" y="185.37767"/>
     <use style="fill:#00bfc4;stroke:#00bfc4;" x="442.994058" xlink:href="#m8f0cff894c" y="351.256219"/>
     <use style="fill:#00bfc4;stroke:#00bfc4;" x="300.302601" xlink:href="#m8f0cff894c" y="182.226335"/>
     <use style="fill:#00bfc4;stroke:#00bfc4;" x="563.728407" xlink:href="#m8f0cff894c" y="314.668236"/>
     <use style="fill:#00bfc4;stroke:#00bfc4;" x="545.613612" xlink:href="#m8f0cff894c" y="275.552002"/>
     <use style="fill:#00bfc4;stroke:#00bfc4;" x="202.121582" xlink:href="#m8f0cff894c" y="263.829505"/>
     <use style="fill:#00bfc4;stroke:#00bfc4;" x="502.345098" xlink:href="#m8f0cff894c" y="295.839609"/>
     <use style="fill:#00bfc4;stroke:#00bfc4;" x="396.768055" xlink:href="#m8f0cff894c" y="356.762697"/>
     <use style="fill:#00bfc4;stroke:#00bfc4;" x="357.001753" xlink:href="#m8f0cff894c" y="349.286013"/>
     <use style="fill:#00bfc4;stroke:#00bfc4;" x="177.046786" xlink:href="#m8f0cff894c" y="266.12579"/>
     <use style="fill:#00bfc4;stroke:#00bfc4;" x="408.705201" xlink:href="#m8f0cff894c" y="274.741371"/>
     <use style="fill:#00bfc4;stroke:#00bfc4;" x="160.649144" xlink:href="#m8f0cff894c" y="228.786132"/>
     <use style="fill:#00bfc4;stroke:#00bfc4;" x="451.687314" xlink:href="#m8f0cff894c" y="278.474713"/>
     <use style="fill:#00bfc4;stroke:#00bfc4;" x="422.344055" xlink:href="#m8f0cff894c" y="248.216144"/>
     <use style="fill:#00bfc4;stroke:#00bfc4;" x="424.644489" xlink:href="#m8f0cff894c" y="290.983343"/>
     <use style="fill:#00bfc4;stroke:#00bfc4;" x="327.751845" xlink:href="#m8f0cff894c" y="311.877149"/>
     <use style="fill:#00bfc4;stroke:#00bfc4;" x="286.89564" xlink:href="#m8f0cff894c" y="183.049233"/>
     <use style="fill:#00bfc4;stroke:#00bfc4;" x="455.321935" xlink:href="#m8f0cff894c" y="269.871066"/>
     <use style="fill:#00bfc4;stroke:#00bfc4;" x="463.789441" xlink:href="#m8f0cff894c" y="303.3099"/>
     <use style="fill:#00bfc4;stroke:#00bfc4;" x="430.047086" xlink:href="#m8f0cff894c" y="332.325899"/>
     <use style="fill:#00bfc4;stroke:#00bfc4;" x="268.107802" xlink:href="#m8f0cff894c" y="254.106708"/>
     <use style="fill:#00bfc4;stroke:#00bfc4;" x="356.826347" xlink:href="#m8f0cff894c" y="139.213625"/>
     <use style="fill:#00bfc4;stroke:#00bfc4;" x="283.032462" xlink:href="#m8f0cff894c" y="95.943669"/>
     <use style="fill:#00bfc4;stroke:#00bfc4;" x="380.13717" xlink:href="#m8f0cff894c" y="135.964712"/>
     <use style="fill:#00bfc4;stroke:#00bfc4;" x="437.470522" xlink:href="#m8f0cff894c" y="113.105018"/>
     <use style="fill:#00bfc4;stroke:#00bfc4;" x="430.848075" xlink:href="#m8f0cff894c" y="145.479809"/>
     <use style="fill:#00bfc4;stroke:#00bfc4;" x="361.740781" xlink:href="#m8f0cff894c" y="146.880802"/>
     <use style="fill:#00bfc4;stroke:#00bfc4;" x="373.710219" xlink:href="#m8f0cff894c" y="140.157136"/>
     <use style="fill:#00bfc4;stroke:#00bfc4;" x="401.122922" xlink:href="#m8f0cff894c" y="143.384444"/>
     <use style="fill:#00bfc4;stroke:#00bfc4;" x="311.243489" xlink:href="#m8f0cff894c" y="132.939656"/>
     <use style="fill:#00bfc4;stroke:#00bfc4;" x="419.020682" xlink:href="#m8f0cff894c" y="127.824775"/>
     <use style="fill:#00bfc4;stroke:#00bfc4;" x="442.526374" xlink:href="#m8f0cff894c" y="122.036498"/>
     <use style="fill:#00bfc4;stroke:#00bfc4;" x="441.119467" xlink:href="#m8f0cff894c" y="144.219567"/>
     <use style="fill:#00bfc4;stroke:#00bfc4;" x="477.225337" xlink:href="#m8f0cff894c" y="103.932185"/>
     <use style="fill:#00bfc4;stroke:#00bfc4;" x="384.455288" xlink:href="#m8f0cff894c" y="136.136485"/>
     <use style="fill:#00bfc4;stroke:#00bfc4;" x="394.974515" xlink:href="#m8f0cff894c" y="140.2749"/>
     <use style="fill:#00bfc4;stroke:#00bfc4;" x="348.517071" xlink:href="#m8f0cff894c" y="132.940927"/>
     <use style="fill:#00bfc4;stroke:#00bfc4;" x="432.161387" xlink:href="#m8f0cff894c" y="126.332599"/>
     <use style="fill:#00bfc4;stroke:#00bfc4;" x="375.181874" xlink:href="#m8f0cff894c" y="126.061021"/>
     <use style="fill:#00bfc4;stroke:#00bfc4;" x="459.843906" xlink:href="#m8f0cff894c" y="113.526265"/>
     <use style="fill:#00bfc4;stroke:#00bfc4;" x="396.402578" xlink:href="#m8f0cff894c" y="146.738603"/>
     <use style="fill:#00bfc4;stroke:#00bfc4;" x="409.945768" xlink:href="#m8f0cff894c" y="112.835611"/>
     <use style="fill:#00bfc4;stroke:#00bfc4;" x="429.809087" xlink:href="#m8f0cff894c" y="124.883019"/>
     <use style="fill:#00bfc4;stroke:#00bfc4;" x="330.761998" xlink:href="#m8f0cff894c" y="157.593275"/>
     <use style="fill:#00bfc4;stroke:#00bfc4;" x="214.589375" xlink:href="#m8f0cff894c" y="197.096681"/>
     <use style="fill:#00bfc4;stroke:#00bfc4;" x="300.021251" xlink:href="#m8f0cff894c" y="202.954756"/>
     <use style="fill:#00bfc4;stroke:#00bfc4;" x="593.604194" xlink:href="#m8f0cff894c" y="216.478096"/>
     <use style="fill:#00bfc4;stroke:#00bfc4;" x="477.939773" xlink:href="#m8f0cff894c" y="145.729922"/>
     <use style="fill:#00bfc4;stroke:#00bfc4;" x="499.606521" xlink:href="#m8f0cff894c" y="158.95569"/>
     <use style="fill:#00bfc4;stroke:#00bfc4;" x="128.692306" xlink:href="#m8f0cff894c" y="242.437557"/>
     <use style="fill:#00bfc4;stroke:#00bfc4;" x="362.718726" xlink:href="#m8f0cff894c" y="246.259351"/>
     <use style="fill:#00bfc4;stroke:#00bfc4;" x="591.784805" xlink:href="#m8f0cff894c" y="228.457086"/>
     <use style="fill:#00bfc4;stroke:#00bfc4;" x="389.060031" xlink:href="#m8f0cff894c" y="258.490571"/>
     <use style="fill:#00bfc4;stroke:#00bfc4;" x="117.369232" xlink:href="#m8f0cff894c" y="282.201107"/>
     <use style="fill:#00bfc4;stroke:#00bfc4;" x="363.121959" xlink:href="#m8f0cff894c" y="92.039269"/>
     <use style="fill:#00bfc4;stroke:#00bfc4;" x="193.762165" xlink:href="#m8f0cff894c" y="249.176624"/>
     <use style="fill:#00bfc4;stroke:#00bfc4;" x="485.421437" xlink:href="#m8f0cff894c" y="257.755643"/>
     <use style="fill:#00bfc4;stroke:#00bfc4;" x="196.376064" xlink:href="#m8f0cff894c" y="291.647282"/>
     <use style="fill:#00bfc4;stroke:#00bfc4;" x="116.856656" xlink:href="#m8f0cff894c" y="287.794971"/>
     <use style="fill:#00bfc4;stroke:#00bfc4;" x="621.143344" xlink:href="#m8f0cff894c" y="221.470846"/>
     <use style="fill:#00bfc4;stroke:#00bfc4;" x="363.375735" xlink:href="#m8f0cff894c" y="214.722378"/>
     <use style="fill:#00bfc4;stroke:#00bfc4;" x="394.601503" xlink:href="#m8f0cff894c" y="295.306577"/>
     <use style="fill:#00bfc4;stroke:#00bfc4;" x="495.446138" xlink:href="#m8f0cff894c" y="274.386382"/>
     <use style="fill:#00bfc4;stroke:#00bfc4;" x="359.964933" xlink:href="#m8f0cff894c" y="272.936773"/>
     <use style="fill:#00bfc4;stroke:#00bfc4;" x="432.958674" xlink:href="#m8f0cff894c" y="230.371518"/>
     <use style="fill:#00bfc4;stroke:#00bfc4;" x="379.915939" xlink:href="#m8f0cff894c" y="232.370615"/>
     <use style="fill:#00bfc4;stroke:#00bfc4;" x="416.075003" xlink:href="#m8f0cff894c" y="344.270491"/>
     <use style="fill:#00bfc4;stroke:#00bfc4;" x="187.874011" xlink:href="#m8f0cff894c" y="301.137677"/>
     <use style="fill:#00bfc4;stroke:#00bfc4;" x="564.833003" xlink:href="#m8f0cff894c" y="250.23317"/>
     <use style="fill:#00bfc4;stroke:#00bfc4;" x="365.590949" xlink:href="#m8f0cff894c" y="320.264523"/>
     <use style="fill:#00bfc4;stroke:#00bfc4;" x="539.886345" xlink:href="#m8f0cff894c" y="203.661143"/>
     <use style="fill:#00bfc4;stroke:#00bfc4;" x="294.083195" xlink:href="#m8f0cff894c" y="338.365803"/>
    </g>
   </g>
   <g id="matplotlib.axis_1">
    <g id="xtick_1">
     <g id="line2d_1">
      <defs>
       <path d="M 0 0 
L 0 3.5 
" id="mee7782faae" style="stroke:#000000;stroke-width:0.8;"/>
      </defs>
      <g>
       <use style="stroke:#000000;stroke-width:0.8;" x="98.608685" xlink:href="#mee7782faae" y="384.48"/>
      </g>
     </g>
     <g id="text_1">
      <!-- −10 -->
      <defs>
       <path d="M 10.59375 35.5 
L 73.1875 35.5 
L 73.1875 27.203125 
L 10.59375 27.203125 
z
" id="DejaVuSans-8722"/>
       <path d="M 12.40625 8.296875 
L 28.515625 8.296875 
L 28.515625 63.921875 
L 10.984375 60.40625 
L 10.984375 69.390625 
L 28.421875 72.90625 
L 38.28125 72.90625 
L 38.28125 8.296875 
L 54.390625 8.296875 
L 54.390625 0 
L 12.40625 0 
z
" id="DejaVuSans-49"/>
       <path d="M 31.78125 66.40625 
Q 24.171875 66.40625 20.328125 58.90625 
Q 16.5 51.421875 16.5 36.375 
Q 16.5 21.390625 20.328125 13.890625 
Q 24.171875 6.390625 31.78125 6.390625 
Q 39.453125 6.390625 43.28125 13.890625 
Q 47.125 21.390625 47.125 36.375 
Q 47.125 51.421875 43.28125 58.90625 
Q 39.453125 66.40625 31.78125 66.40625 
z
M 31.78125 74.21875 
Q 44.046875 74.21875 50.515625 64.515625 
Q 56.984375 54.828125 56.984375 36.375 
Q 56.984375 17.96875 50.515625 8.265625 
Q 44.046875 -1.421875 31.78125 -1.421875 
Q 19.53125 -1.421875 13.0625 8.265625 
Q 6.59375 17.96875 6.59375 36.375 
Q 6.59375 54.828125 13.0625 64.515625 
Q 19.53125 74.21875 31.78125 74.21875 
z
" id="DejaVuSans-48"/>
      </defs>
      <g transform="translate(88.056341 399.078438)scale(0.1 -0.1)">
       <use xlink:href="#DejaVuSans-8722"/>
       <use x="83.789062" xlink:href="#DejaVuSans-49"/>
       <use x="147.412109" xlink:href="#DejaVuSans-48"/>
      </g>
     </g>
    </g>
    <g id="xtick_2">
     <g id="line2d_2">
      <g>
       <use style="stroke:#000000;stroke-width:0.8;" x="161.339877" xlink:href="#mee7782faae" y="384.48"/>
      </g>
     </g>
     <g id="text_2">
      <!-- −8 -->
      <defs>
       <path d="M 31.78125 34.625 
Q 24.75 34.625 20.71875 30.859375 
Q 16.703125 27.09375 16.703125 20.515625 
Q 16.703125 13.921875 20.71875 10.15625 
Q 24.75 6.390625 31.78125 6.390625 
Q 38.8125 6.390625 42.859375 10.171875 
Q 46.921875 13.96875 46.921875 20.515625 
Q 46.921875 27.09375 42.890625 30.859375 
Q 38.875 34.625 31.78125 34.625 
z
M 21.921875 38.8125 
Q 15.578125 40.375 12.03125 44.71875 
Q 8.5 49.078125 8.5 55.328125 
Q 8.5 64.0625 14.71875 69.140625 
Q 20.953125 74.21875 31.78125 74.21875 
Q 42.671875 74.21875 48.875 69.140625 
Q 55.078125 64.0625 55.078125 55.328125 
Q 55.078125 49.078125 51.53125 44.71875 
Q 48 40.375 41.703125 38.8125 
Q 48.828125 37.15625 52.796875 32.3125 
Q 56.78125 27.484375 56.78125 20.515625 
Q 56.78125 9.90625 50.3125 4.234375 
Q 43.84375 -1.421875 31.78125 -1.421875 
Q 19.734375 -1.421875 13.25 4.234375 
Q 6.78125 9.90625 6.78125 20.515625 
Q 6.78125 27.484375 10.78125 32.3125 
Q 14.796875 37.15625 21.921875 38.8125 
z
M 18.3125 54.390625 
Q 18.3125 48.734375 21.84375 45.5625 
Q 25.390625 42.390625 31.78125 42.390625 
Q 38.140625 42.390625 41.71875 45.5625 
Q 45.3125 48.734375 45.3125 54.390625 
Q 45.3125 60.0625 41.71875 63.234375 
Q 38.140625 66.40625 31.78125 66.40625 
Q 25.390625 66.40625 21.84375 63.234375 
Q 18.3125 60.0625 18.3125 54.390625 
z
" id="DejaVuSans-56"/>
      </defs>
      <g transform="translate(153.968783 399.078438)scale(0.1 -0.1)">
       <use xlink:href="#DejaVuSans-8722"/>
       <use x="83.789062" xlink:href="#DejaVuSans-56"/>
      </g>
     </g>
    </g>
    <g id="xtick_3">
     <g id="line2d_3">
      <g>
       <use style="stroke:#000000;stroke-width:0.8;" x="224.071069" xlink:href="#mee7782faae" y="384.48"/>
      </g>
     </g>
     <g id="text_3">
      <!-- −6 -->
      <defs>
       <path d="M 33.015625 40.375 
Q 26.375 40.375 22.484375 35.828125 
Q 18.609375 31.296875 18.609375 23.390625 
Q 18.609375 15.53125 22.484375 10.953125 
Q 26.375 6.390625 33.015625 6.390625 
Q 39.65625 6.390625 43.53125 10.953125 
Q 47.40625 15.53125 47.40625 23.390625 
Q 47.40625 31.296875 43.53125 35.828125 
Q 39.65625 40.375 33.015625 40.375 
z
M 52.59375 71.296875 
L 52.59375 62.3125 
Q 48.875 64.0625 45.09375 64.984375 
Q 41.3125 65.921875 37.59375 65.921875 
Q 27.828125 65.921875 22.671875 59.328125 
Q 17.53125 52.734375 16.796875 39.40625 
Q 19.671875 43.65625 24.015625 45.921875 
Q 28.375 48.1875 33.59375 48.1875 
Q 44.578125 48.1875 50.953125 41.515625 
Q 57.328125 34.859375 57.328125 23.390625 
Q 57.328125 12.15625 50.6875 5.359375 
Q 44.046875 -1.421875 33.015625 -1.421875 
Q 20.359375 -1.421875 13.671875 8.265625 
Q 6.984375 17.96875 6.984375 36.375 
Q 6.984375 53.65625 15.1875 63.9375 
Q 23.390625 74.21875 37.203125 74.21875 
Q 40.921875 74.21875 44.703125 73.484375 
Q 48.484375 72.75 52.59375 71.296875 
z
" id="DejaVuSans-54"/>
      </defs>
      <g transform="translate(216.699976 399.078438)scale(0.1 -0.1)">
       <use xlink:href="#DejaVuSans-8722"/>
       <use x="83.789062" xlink:href="#DejaVuSans-54"/>
      </g>
     </g>
    </g>
    <g id="xtick_4">
     <g id="line2d_4">
      <g>
       <use style="stroke:#000000;stroke-width:0.8;" x="286.802262" xlink:href="#mee7782faae" y="384.48"/>
      </g>
     </g>
     <g id="text_4">
      <!-- −4 -->
      <defs>
       <path d="M 37.796875 64.3125 
L 12.890625 25.390625 
L 37.796875 25.390625 
z
M 35.203125 72.90625 
L 47.609375 72.90625 
L 47.609375 25.390625 
L 58.015625 25.390625 
L 58.015625 17.1875 
L 47.609375 17.1875 
L 47.609375 0 
L 37.796875 0 
L 37.796875 17.1875 
L 4.890625 17.1875 
L 4.890625 26.703125 
z
" id="DejaVuSans-52"/>
      </defs>
      <g transform="translate(279.431168 399.078438)scale(0.1 -0.1)">
       <use xlink:href="#DejaVuSans-8722"/>
       <use x="83.789062" xlink:href="#DejaVuSans-52"/>
      </g>
     </g>
    </g>
    <g id="xtick_5">
     <g id="line2d_5">
      <g>
       <use style="stroke:#000000;stroke-width:0.8;" x="349.533454" xlink:href="#mee7782faae" y="384.48"/>
      </g>
     </g>
     <g id="text_5">
      <!-- −2 -->
      <defs>
       <path d="M 19.1875 8.296875 
L 53.609375 8.296875 
L 53.609375 0 
L 7.328125 0 
L 7.328125 8.296875 
Q 12.9375 14.109375 22.625 23.890625 
Q 32.328125 33.6875 34.8125 36.53125 
Q 39.546875 41.84375 41.421875 45.53125 
Q 43.3125 49.21875 43.3125 52.78125 
Q 43.3125 58.59375 39.234375 62.25 
Q 35.15625 65.921875 28.609375 65.921875 
Q 23.96875 65.921875 18.8125 64.3125 
Q 13.671875 62.703125 7.8125 59.421875 
L 7.8125 69.390625 
Q 13.765625 71.78125 18.9375 73 
Q 24.125 74.21875 28.421875 74.21875 
Q 39.75 74.21875 46.484375 68.546875 
Q 53.21875 62.890625 53.21875 53.421875 
Q 53.21875 48.921875 51.53125 44.890625 
Q 49.859375 40.875 45.40625 35.40625 
Q 44.1875 33.984375 37.640625 27.21875 
Q 31.109375 20.453125 19.1875 8.296875 
z
" id="DejaVuSans-50"/>
      </defs>
      <g transform="translate(342.16236 399.078438)scale(0.1 -0.1)">
       <use xlink:href="#DejaVuSans-8722"/>
       <use x="83.789062" xlink:href="#DejaVuSans-50"/>
      </g>
     </g>
    </g>
    <g id="xtick_6">
     <g id="line2d_6">
      <g>
       <use style="stroke:#000000;stroke-width:0.8;" x="412.264646" xlink:href="#mee7782faae" y="384.48"/>
      </g>
     </g>
     <g id="text_6">
      <!-- 0 -->
      <g transform="translate(409.083396 399.078438)scale(0.1 -0.1)">
       <use xlink:href="#DejaVuSans-48"/>
      </g>
     </g>
    </g>
    <g id="xtick_7">
     <g id="line2d_7">
      <g>
       <use style="stroke:#000000;stroke-width:0.8;" x="474.995839" xlink:href="#mee7782faae" y="384.48"/>
      </g>
     </g>
     <g id="text_7">
      <!-- 2 -->
      <g transform="translate(471.814589 399.078438)scale(0.1 -0.1)">
       <use xlink:href="#DejaVuSans-50"/>
      </g>
     </g>
    </g>
    <g id="xtick_8">
     <g id="line2d_8">
      <g>
       <use style="stroke:#000000;stroke-width:0.8;" x="537.727031" xlink:href="#mee7782faae" y="384.48"/>
      </g>
     </g>
     <g id="text_8">
      <!-- 4 -->
      <g transform="translate(534.545781 399.078438)scale(0.1 -0.1)">
       <use xlink:href="#DejaVuSans-52"/>
      </g>
     </g>
    </g>
    <g id="xtick_9">
     <g id="line2d_9">
      <g>
       <use style="stroke:#000000;stroke-width:0.8;" x="600.458223" xlink:href="#mee7782faae" y="384.48"/>
      </g>
     </g>
     <g id="text_9">
      <!-- 6 -->
      <g transform="translate(597.276973 399.078438)scale(0.1 -0.1)">
       <use xlink:href="#DejaVuSans-54"/>
      </g>
     </g>
    </g>
    <g id="text_10">
     <!-- tSNE-1 -->
     <defs>
      <path d="M 18.3125 70.21875 
L 18.3125 54.6875 
L 36.8125 54.6875 
L 36.8125 47.703125 
L 18.3125 47.703125 
L 18.3125 18.015625 
Q 18.3125 11.328125 20.140625 9.421875 
Q 21.96875 7.515625 27.59375 7.515625 
L 36.8125 7.515625 
L 36.8125 0 
L 27.59375 0 
Q 17.1875 0 13.234375 3.875 
Q 9.28125 7.765625 9.28125 18.015625 
L 9.28125 47.703125 
L 2.6875 47.703125 
L 2.6875 54.6875 
L 9.28125 54.6875 
L 9.28125 70.21875 
z
" id="DejaVuSans-116"/>
      <path d="M 53.515625 70.515625 
L 53.515625 60.890625 
Q 47.90625 63.578125 42.921875 64.890625 
Q 37.9375 66.21875 33.296875 66.21875 
Q 25.25 66.21875 20.875 63.09375 
Q 16.5 59.96875 16.5 54.203125 
Q 16.5 49.359375 19.40625 46.890625 
Q 22.3125 44.4375 30.421875 42.921875 
L 36.375 41.703125 
Q 47.40625 39.59375 52.65625 34.296875 
Q 57.90625 29 57.90625 20.125 
Q 57.90625 9.515625 50.796875 4.046875 
Q 43.703125 -1.421875 29.984375 -1.421875 
Q 24.8125 -1.421875 18.96875 -0.25 
Q 13.140625 0.921875 6.890625 3.21875 
L 6.890625 13.375 
Q 12.890625 10.015625 18.65625 8.296875 
Q 24.421875 6.59375 29.984375 6.59375 
Q 38.421875 6.59375 43.015625 9.90625 
Q 47.609375 13.234375 47.609375 19.390625 
Q 47.609375 24.75 44.3125 27.78125 
Q 41.015625 30.8125 33.5 32.328125 
L 27.484375 33.5 
Q 16.453125 35.6875 11.515625 40.375 
Q 6.59375 45.0625 6.59375 53.421875 
Q 6.59375 63.09375 13.40625 68.65625 
Q 20.21875 74.21875 32.171875 74.21875 
Q 37.3125 74.21875 42.625 73.28125 
Q 47.953125 72.359375 53.515625 70.515625 
z
" id="DejaVuSans-83"/>
      <path d="M 9.8125 72.90625 
L 23.09375 72.90625 
L 55.421875 11.921875 
L 55.421875 72.90625 
L 64.984375 72.90625 
L 64.984375 0 
L 51.703125 0 
L 19.390625 60.984375 
L 19.390625 0 
L 9.8125 0 
z
" id="DejaVuSans-78"/>
      <path d="M 9.8125 72.90625 
L 55.90625 72.90625 
L 55.90625 64.59375 
L 19.671875 64.59375 
L 19.671875 43.015625 
L 54.390625 43.015625 
L 54.390625 34.71875 
L 19.671875 34.71875 
L 19.671875 8.296875 
L 56.78125 8.296875 
L 56.78125 0 
L 9.8125 0 
z
" id="DejaVuSans-69"/>
      <path d="M 4.890625 31.390625 
L 31.203125 31.390625 
L 31.203125 23.390625 
L 4.890625 23.390625 
z
" id="DejaVuSans-45"/>
     </defs>
     <g transform="translate(351.980469 412.756563)scale(0.1 -0.1)">
      <use xlink:href="#DejaVuSans-116"/>
      <use x="39.208984" xlink:href="#DejaVuSans-83"/>
      <use x="102.685547" xlink:href="#DejaVuSans-78"/>
      <use x="177.490234" xlink:href="#DejaVuSans-69"/>
      <use x="240.673828" xlink:href="#DejaVuSans-45"/>
      <use x="276.757812" xlink:href="#DejaVuSans-49"/>
     </g>
    </g>
   </g>
   <g id="matplotlib.axis_2">
    <g id="ytick_1">
     <g id="line2d_10">
      <defs>
       <path d="M 0 0 
L -3.5 0 
" id="m02bb6a23c5" style="stroke:#000000;stroke-width:0.8;"/>
      </defs>
      <g>
       <use style="stroke:#000000;stroke-width:0.8;" x="90" xlink:href="#m02bb6a23c5" y="321.475224"/>
      </g>
     </g>
     <g id="text_11">
      <!-- −10 -->
      <g transform="translate(61.895313 325.274442)scale(0.1 -0.1)">
       <use xlink:href="#DejaVuSans-8722"/>
       <use x="83.789062" xlink:href="#DejaVuSans-49"/>
       <use x="147.412109" xlink:href="#DejaVuSans-48"/>
      </g>
     </g>
    </g>
    <g id="ytick_2">
     <g id="line2d_11">
      <g>
       <use style="stroke:#000000;stroke-width:0.8;" x="90" xlink:href="#m02bb6a23c5" y="257.031715"/>
      </g>
     </g>
     <g id="text_12">
      <!-- −5 -->
      <defs>
       <path d="M 10.796875 72.90625 
L 49.515625 72.90625 
L 49.515625 64.59375 
L 19.828125 64.59375 
L 19.828125 46.734375 
Q 21.96875 47.46875 24.109375 47.828125 
Q 26.265625 48.1875 28.421875 48.1875 
Q 40.625 48.1875 47.75 41.5 
Q 54.890625 34.8125 54.890625 23.390625 
Q 54.890625 11.625 47.5625 5.09375 
Q 40.234375 -1.421875 26.90625 -1.421875 
Q 22.3125 -1.421875 17.546875 -0.640625 
Q 12.796875 0.140625 7.71875 1.703125 
L 7.71875 11.625 
Q 12.109375 9.234375 16.796875 8.0625 
Q 21.484375 6.890625 26.703125 6.890625 
Q 35.15625 6.890625 40.078125 11.328125 
Q 45.015625 15.765625 45.015625 23.390625 
Q 45.015625 31 40.078125 35.4375 
Q 35.15625 39.890625 26.703125 39.890625 
Q 22.75 39.890625 18.8125 39.015625 
Q 14.890625 38.140625 10.796875 36.28125 
z
" id="DejaVuSans-53"/>
      </defs>
      <g transform="translate(68.257812 260.830934)scale(0.1 -0.1)">
       <use xlink:href="#DejaVuSans-8722"/>
       <use x="83.789062" xlink:href="#DejaVuSans-53"/>
      </g>
     </g>
    </g>
    <g id="ytick_3">
     <g id="line2d_12">
      <g>
       <use style="stroke:#000000;stroke-width:0.8;" x="90" xlink:href="#m02bb6a23c5" y="192.588207"/>
      </g>
     </g>
     <g id="text_13">
      <!-- 0 -->
      <g transform="translate(76.6375 196.387426)scale(0.1 -0.1)">
       <use xlink:href="#DejaVuSans-48"/>
      </g>
     </g>
    </g>
    <g id="ytick_4">
     <g id="line2d_13">
      <g>
       <use style="stroke:#000000;stroke-width:0.8;" x="90" xlink:href="#m02bb6a23c5" y="128.144698"/>
      </g>
     </g>
     <g id="text_14">
      <!-- 5 -->
      <g transform="translate(76.6375 131.943917)scale(0.1 -0.1)">
       <use xlink:href="#DejaVuSans-53"/>
      </g>
     </g>
    </g>
    <g id="ytick_5">
     <g id="line2d_14">
      <g>
       <use style="stroke:#000000;stroke-width:0.8;" x="90" xlink:href="#m02bb6a23c5" y="63.70119"/>
      </g>
     </g>
     <g id="text_15">
      <!-- 10 -->
      <g transform="translate(70.275 67.500409)scale(0.1 -0.1)">
       <use xlink:href="#DejaVuSans-49"/>
       <use x="63.623047" xlink:href="#DejaVuSans-48"/>
      </g>
     </g>
    </g>
    <g id="text_16">
     <!-- tSNE-2 -->
     <g transform="translate(55.815625 235.179531)rotate(-90)scale(0.1 -0.1)">
      <use xlink:href="#DejaVuSans-116"/>
      <use x="39.208984" xlink:href="#DejaVuSans-83"/>
      <use x="102.685547" xlink:href="#DejaVuSans-78"/>
      <use x="177.490234" xlink:href="#DejaVuSans-69"/>
      <use x="240.673828" xlink:href="#DejaVuSans-45"/>
      <use x="276.757812" xlink:href="#DejaVuSans-50"/>
     </g>
    </g>
   </g>
   <g id="patch_3">
    <path d="M 90 384.48 
L 90 51.84 
" style="fill:none;stroke:#000000;stroke-linecap:square;stroke-linejoin:miter;stroke-width:0.8;"/>
   </g>
   <g id="patch_4">
    <path d="M 648 384.48 
L 648 51.84 
" style="fill:none;stroke:#000000;stroke-linecap:square;stroke-linejoin:miter;stroke-width:0.8;"/>
   </g>
   <g id="patch_5">
    <path d="M 90 384.48 
L 648 384.48 
" style="fill:none;stroke:#000000;stroke-linecap:square;stroke-linejoin:miter;stroke-width:0.8;"/>
   </g>
   <g id="patch_6">
    <path d="M 90 51.84 
L 648 51.84 
" style="fill:none;stroke:#000000;stroke-linecap:square;stroke-linejoin:miter;stroke-width:0.8;"/>
   </g>
   <g id="legend_1">
    <g id="patch_7">
     <path d="M 563.125 89.19625 
L 641 89.19625 
Q 643 89.19625 643 87.19625 
L 643 58.84 
Q 643 56.84 641 56.84 
L 563.125 56.84 
Q 561.125 56.84 561.125 58.84 
L 561.125 87.19625 
Q 561.125 89.19625 563.125 89.19625 
z
" style="fill:#ffffff;opacity:0.8;stroke:#cccccc;stroke-linejoin:miter;"/>
    </g>
    <g id="PathCollection_3">
     <g>
      <use style="fill:#f8766d;stroke:#f8766d;" x="575.125" xlink:href="#m4abbe1c644" y="65.813437"/>
     </g>
    </g>
    <g id="text_17">
     <!-- D003920 -->
     <defs>
      <path d="M 19.671875 64.796875 
L 19.671875 8.109375 
L 31.59375 8.109375 
Q 46.6875 8.109375 53.6875 14.9375 
Q 60.6875 21.78125 60.6875 36.53125 
Q 60.6875 51.171875 53.6875 57.984375 
Q 46.6875 64.796875 31.59375 64.796875 
z
M 9.8125 72.90625 
L 30.078125 72.90625 
Q 51.265625 72.90625 61.171875 64.09375 
Q 71.09375 55.28125 71.09375 36.53125 
Q 71.09375 17.671875 61.125 8.828125 
Q 51.171875 0 30.078125 0 
L 9.8125 0 
z
" id="DejaVuSans-68"/>
      <path d="M 40.578125 39.3125 
Q 47.65625 37.796875 51.625 33 
Q 55.609375 28.21875 55.609375 21.1875 
Q 55.609375 10.40625 48.1875 4.484375 
Q 40.765625 -1.421875 27.09375 -1.421875 
Q 22.515625 -1.421875 17.65625 -0.515625 
Q 12.796875 0.390625 7.625 2.203125 
L 7.625 11.71875 
Q 11.71875 9.328125 16.59375 8.109375 
Q 21.484375 6.890625 26.8125 6.890625 
Q 36.078125 6.890625 40.9375 10.546875 
Q 45.796875 14.203125 45.796875 21.1875 
Q 45.796875 27.640625 41.28125 31.265625 
Q 36.765625 34.90625 28.71875 34.90625 
L 20.21875 34.90625 
L 20.21875 43.015625 
L 29.109375 43.015625 
Q 36.375 43.015625 40.234375 45.921875 
Q 44.09375 48.828125 44.09375 54.296875 
Q 44.09375 59.90625 40.109375 62.90625 
Q 36.140625 65.921875 28.71875 65.921875 
Q 24.65625 65.921875 20.015625 65.03125 
Q 15.375 64.15625 9.8125 62.3125 
L 9.8125 71.09375 
Q 15.4375 72.65625 20.34375 73.4375 
Q 25.25 74.21875 29.59375 74.21875 
Q 40.828125 74.21875 47.359375 69.109375 
Q 53.90625 64.015625 53.90625 55.328125 
Q 53.90625 49.265625 50.4375 45.09375 
Q 46.96875 40.921875 40.578125 39.3125 
z
" id="DejaVuSans-51"/>
      <path d="M 10.984375 1.515625 
L 10.984375 10.5 
Q 14.703125 8.734375 18.5 7.8125 
Q 22.3125 6.890625 25.984375 6.890625 
Q 35.75 6.890625 40.890625 13.453125 
Q 46.046875 20.015625 46.78125 33.40625 
Q 43.953125 29.203125 39.59375 26.953125 
Q 35.25 24.703125 29.984375 24.703125 
Q 19.046875 24.703125 12.671875 31.3125 
Q 6.296875 37.9375 6.296875 49.421875 
Q 6.296875 60.640625 12.9375 67.421875 
Q 19.578125 74.21875 30.609375 74.21875 
Q 43.265625 74.21875 49.921875 64.515625 
Q 56.59375 54.828125 56.59375 36.375 
Q 56.59375 19.140625 48.40625 8.859375 
Q 40.234375 -1.421875 26.421875 -1.421875 
Q 22.703125 -1.421875 18.890625 -0.6875 
Q 15.09375 0.046875 10.984375 1.515625 
z
M 30.609375 32.421875 
Q 37.25 32.421875 41.125 36.953125 
Q 45.015625 41.5 45.015625 49.421875 
Q 45.015625 57.28125 41.125 61.84375 
Q 37.25 66.40625 30.609375 66.40625 
Q 23.96875 66.40625 20.09375 61.84375 
Q 16.21875 57.28125 16.21875 49.421875 
Q 16.21875 41.5 20.09375 36.953125 
Q 23.96875 32.421875 30.609375 32.421875 
z
" id="DejaVuSans-57"/>
     </defs>
     <g transform="translate(593.125 68.438437)scale(0.1 -0.1)">
      <use xlink:href="#DejaVuSans-68"/>
      <use x="77.001953" xlink:href="#DejaVuSans-48"/>
      <use x="140.625" xlink:href="#DejaVuSans-48"/>
      <use x="204.248047" xlink:href="#DejaVuSans-51"/>
      <use x="267.871094" xlink:href="#DejaVuSans-57"/>
      <use x="331.494141" xlink:href="#DejaVuSans-50"/>
      <use x="395.117188" xlink:href="#DejaVuSans-48"/>
     </g>
    </g>
    <g id="PathCollection_4">
     <g>
      <use style="fill:#00bfc4;stroke:#00bfc4;" x="575.125" xlink:href="#m8f0cff894c" y="80.491562"/>
     </g>
    </g>
    <g id="text_18">
     <!-- D006262 -->
     <g transform="translate(593.125 83.116562)scale(0.1 -0.1)">
      <use xlink:href="#DejaVuSans-68"/>
      <use x="77.001953" xlink:href="#DejaVuSans-48"/>
      <use x="140.625" xlink:href="#DejaVuSans-48"/>
      <use x="204.248047" xlink:href="#DejaVuSans-54"/>
      <use x="267.871094" xlink:href="#DejaVuSans-50"/>
      <use x="331.494141" xlink:href="#DejaVuSans-54"/>
      <use x="395.117188" xlink:href="#DejaVuSans-50"/>
     </g>
    </g>
   </g>
  </g>
 </g>
 <defs>
  <clipPath id="pb45b14e4a4">
   <rect height="332.64" width="558" x="90" y="51.84"/>
  </clipPath>
 </defs>
</svg>
