<?xml version="1.0" encoding="utf-8" standalone="no"?>
<!DOCTYPE svg PUBLIC "-//W3C//DTD SVG 1.1//EN"
  "http://www.w3.org/Graphics/SVG/1.1/DTD/svg11.dtd">
<!-- Created with matplotlib (https://matplotlib.org/) -->
<svg height="576pt" version="1.1" viewBox="0 0 576 576" width="576pt" xmlns="http://www.w3.org/2000/svg" xmlns:xlink="http://www.w3.org/1999/xlink">
 <defs>
  <style type="text/css">
*{stroke-linecap:butt;stroke-linejoin:round;}
  </style>
 </defs>
 <g id="figure_1">
  <g id="patch_1">
   <path d="M 0 576 
L 576 576 
L 576 0 
L 0 0 
z
" style="fill:#ffffff;"/>
  </g>
  <g id="axes_1">
   <g id="patch_2">
    <path d="M 72 512.64 
L 518.4 512.64 
L 518.4 69.12 
L 72 69.12 
z
" style="fill:#ffffff;"/>
   </g>
   <g id="matplotlib.axis_1">
    <g id="xtick_1">
     <g id="line2d_1">
      <path clip-path="url(#p0c32ec9679)" d="M 72 512.64 
L 72 69.12 
" style="fill:none;stroke:#b0b0b0;stroke-linecap:square;stroke-width:0.8;"/>
     </g>
     <g id="line2d_2">
      <defs>
       <path d="M 0 0 
L 0 3.5 
" id="mf89ed0302a" style="stroke:#000000;stroke-width:0.8;"/>
      </defs>
      <g>
       <use style="stroke:#000000;stroke-width:0.8;" x="72" xlink:href="#mf89ed0302a" y="512.64"/>
      </g>
     </g>
     <g id="text_1">
      <!-- 0.0 -->
      <defs>
       <path d="M 31.78125 66.40625 
Q 24.171875 66.40625 20.328125 58.90625 
Q 16.5 51.421875 16.5 36.375 
Q 16.5 21.390625 20.328125 13.890625 
Q 24.171875 6.390625 31.78125 6.390625 
Q 39.453125 6.390625 43.28125 13.890625 
Q 47.125 21.390625 47.125 36.375 
Q 47.125 51.421875 43.28125 58.90625 
Q 39.453125 66.40625 31.78125 66.40625 
z
M 31.78125 74.21875 
Q 44.046875 74.21875 50.515625 64.515625 
Q 56.984375 54.828125 56.984375 36.375 
Q 56.984375 17.96875 50.515625 8.265625 
Q 44.046875 -1.421875 31.78125 -1.421875 
Q 19.53125 -1.421875 13.0625 8.265625 
Q 6.59375 17.96875 6.59375 36.375 
Q 6.59375 54.828125 13.0625 64.515625 
Q 19.53125 74.21875 31.78125 74.21875 
z
" id="DejaVuSans-48"/>
       <path d="M 10.6875 12.40625 
L 21 12.40625 
L 21 0 
L 10.6875 0 
z
" id="DejaVuSans-46"/>
      </defs>
      <g transform="translate(64.048438 527.238438)scale(0.1 -0.1)">
       <use xlink:href="#DejaVuSans-48"/>
       <use x="63.623047" xlink:href="#DejaVuSans-46"/>
       <use x="95.410156" xlink:href="#DejaVuSans-48"/>
      </g>
     </g>
    </g>
    <g id="xtick_2">
     <g id="line2d_3">
      <path clip-path="url(#p0c32ec9679)" d="M 161.28 512.64 
L 161.28 69.12 
" style="fill:none;stroke:#b0b0b0;stroke-linecap:square;stroke-width:0.8;"/>
     </g>
     <g id="line2d_4">
      <g>
       <use style="stroke:#000000;stroke-width:0.8;" x="161.28" xlink:href="#mf89ed0302a" y="512.64"/>
      </g>
     </g>
     <g id="text_2">
      <!-- 0.2 -->
      <defs>
       <path d="M 19.1875 8.296875 
L 53.609375 8.296875 
L 53.609375 0 
L 7.328125 0 
L 7.328125 8.296875 
Q 12.9375 14.109375 22.625 23.890625 
Q 32.328125 33.6875 34.8125 36.53125 
Q 39.546875 41.84375 41.421875 45.53125 
Q 43.3125 49.21875 43.3125 52.78125 
Q 43.3125 58.59375 39.234375 62.25 
Q 35.15625 65.921875 28.609375 65.921875 
Q 23.96875 65.921875 18.8125 64.3125 
Q 13.671875 62.703125 7.8125 59.421875 
L 7.8125 69.390625 
Q 13.765625 71.78125 18.9375 73 
Q 24.125 74.21875 28.421875 74.21875 
Q 39.75 74.21875 46.484375 68.546875 
Q 53.21875 62.890625 53.21875 53.421875 
Q 53.21875 48.921875 51.53125 44.890625 
Q 49.859375 40.875 45.40625 35.40625 
Q 44.1875 33.984375 37.640625 27.21875 
Q 31.109375 20.453125 19.1875 8.296875 
z
" id="DejaVuSans-50"/>
      </defs>
      <g transform="translate(153.328438 527.238438)scale(0.1 -0.1)">
       <use xlink:href="#DejaVuSans-48"/>
       <use x="63.623047" xlink:href="#DejaVuSans-46"/>
       <use x="95.410156" xlink:href="#DejaVuSans-50"/>
      </g>
     </g>
    </g>
    <g id="xtick_3">
     <g id="line2d_5">
      <path clip-path="url(#p0c32ec9679)" d="M 250.56 512.64 
L 250.56 69.12 
" style="fill:none;stroke:#b0b0b0;stroke-linecap:square;stroke-width:0.8;"/>
     </g>
     <g id="line2d_6">
      <g>
       <use style="stroke:#000000;stroke-width:0.8;" x="250.56" xlink:href="#mf89ed0302a" y="512.64"/>
      </g>
     </g>
     <g id="text_3">
      <!-- 0.4 -->
      <defs>
       <path d="M 37.796875 64.3125 
L 12.890625 25.390625 
L 37.796875 25.390625 
z
M 35.203125 72.90625 
L 47.609375 72.90625 
L 47.609375 25.390625 
L 58.015625 25.390625 
L 58.015625 17.1875 
L 47.609375 17.1875 
L 47.609375 0 
L 37.796875 0 
L 37.796875 17.1875 
L 4.890625 17.1875 
L 4.890625 26.703125 
z
" id="DejaVuSans-52"/>
      </defs>
      <g transform="translate(242.608438 527.238438)scale(0.1 -0.1)">
       <use xlink:href="#DejaVuSans-48"/>
       <use x="63.623047" xlink:href="#DejaVuSans-46"/>
       <use x="95.410156" xlink:href="#DejaVuSans-52"/>
      </g>
     </g>
    </g>
    <g id="xtick_4">
     <g id="line2d_7">
      <path clip-path="url(#p0c32ec9679)" d="M 339.84 512.64 
L 339.84 69.12 
" style="fill:none;stroke:#b0b0b0;stroke-linecap:square;stroke-width:0.8;"/>
     </g>
     <g id="line2d_8">
      <g>
       <use style="stroke:#000000;stroke-width:0.8;" x="339.84" xlink:href="#mf89ed0302a" y="512.64"/>
      </g>
     </g>
     <g id="text_4">
      <!-- 0.6 -->
      <defs>
       <path d="M 33.015625 40.375 
Q 26.375 40.375 22.484375 35.828125 
Q 18.609375 31.296875 18.609375 23.390625 
Q 18.609375 15.53125 22.484375 10.953125 
Q 26.375 6.390625 33.015625 6.390625 
Q 39.65625 6.390625 43.53125 10.953125 
Q 47.40625 15.53125 47.40625 23.390625 
Q 47.40625 31.296875 43.53125 35.828125 
Q 39.65625 40.375 33.015625 40.375 
z
M 52.59375 71.296875 
L 52.59375 62.3125 
Q 48.875 64.0625 45.09375 64.984375 
Q 41.3125 65.921875 37.59375 65.921875 
Q 27.828125 65.921875 22.671875 59.328125 
Q 17.53125 52.734375 16.796875 39.40625 
Q 19.671875 43.65625 24.015625 45.921875 
Q 28.375 48.1875 33.59375 48.1875 
Q 44.578125 48.1875 50.953125 41.515625 
Q 57.328125 34.859375 57.328125 23.390625 
Q 57.328125 12.15625 50.6875 5.359375 
Q 44.046875 -1.421875 33.015625 -1.421875 
Q 20.359375 -1.421875 13.671875 8.265625 
Q 6.984375 17.96875 6.984375 36.375 
Q 6.984375 53.65625 15.1875 63.9375 
Q 23.390625 74.21875 37.203125 74.21875 
Q 40.921875 74.21875 44.703125 73.484375 
Q 48.484375 72.75 52.59375 71.296875 
z
" id="DejaVuSans-54"/>
      </defs>
      <g transform="translate(331.888438 527.238438)scale(0.1 -0.1)">
       <use xlink:href="#DejaVuSans-48"/>
       <use x="63.623047" xlink:href="#DejaVuSans-46"/>
       <use x="95.410156" xlink:href="#DejaVuSans-54"/>
      </g>
     </g>
    </g>
    <g id="xtick_5">
     <g id="line2d_9">
      <path clip-path="url(#p0c32ec9679)" d="M 429.12 512.64 
L 429.12 69.12 
" style="fill:none;stroke:#b0b0b0;stroke-linecap:square;stroke-width:0.8;"/>
     </g>
     <g id="line2d_10">
      <g>
       <use style="stroke:#000000;stroke-width:0.8;" x="429.12" xlink:href="#mf89ed0302a" y="512.64"/>
      </g>
     </g>
     <g id="text_5">
      <!-- 0.8 -->
      <defs>
       <path d="M 31.78125 34.625 
Q 24.75 34.625 20.71875 30.859375 
Q 16.703125 27.09375 16.703125 20.515625 
Q 16.703125 13.921875 20.71875 10.15625 
Q 24.75 6.390625 31.78125 6.390625 
Q 38.8125 6.390625 42.859375 10.171875 
Q 46.921875 13.96875 46.921875 20.515625 
Q 46.921875 27.09375 42.890625 30.859375 
Q 38.875 34.625 31.78125 34.625 
z
M 21.921875 38.8125 
Q 15.578125 40.375 12.03125 44.71875 
Q 8.5 49.078125 8.5 55.328125 
Q 8.5 64.0625 14.71875 69.140625 
Q 20.953125 74.21875 31.78125 74.21875 
Q 42.671875 74.21875 48.875 69.140625 
Q 55.078125 64.0625 55.078125 55.328125 
Q 55.078125 49.078125 51.53125 44.71875 
Q 48 40.375 41.703125 38.8125 
Q 48.828125 37.15625 52.796875 32.3125 
Q 56.78125 27.484375 56.78125 20.515625 
Q 56.78125 9.90625 50.3125 4.234375 
Q 43.84375 -1.421875 31.78125 -1.421875 
Q 19.734375 -1.421875 13.25 4.234375 
Q 6.78125 9.90625 6.78125 20.515625 
Q 6.78125 27.484375 10.78125 32.3125 
Q 14.796875 37.15625 21.921875 38.8125 
z
M 18.3125 54.390625 
Q 18.3125 48.734375 21.84375 45.5625 
Q 25.390625 42.390625 31.78125 42.390625 
Q 38.140625 42.390625 41.71875 45.5625 
Q 45.3125 48.734375 45.3125 54.390625 
Q 45.3125 60.0625 41.71875 63.234375 
Q 38.140625 66.40625 31.78125 66.40625 
Q 25.390625 66.40625 21.84375 63.234375 
Q 18.3125 60.0625 18.3125 54.390625 
z
" id="DejaVuSans-56"/>
      </defs>
      <g transform="translate(421.168437 527.238438)scale(0.1 -0.1)">
       <use xlink:href="#DejaVuSans-48"/>
       <use x="63.623047" xlink:href="#DejaVuSans-46"/>
       <use x="95.410156" xlink:href="#DejaVuSans-56"/>
      </g>
     </g>
    </g>
    <g id="xtick_6">
     <g id="line2d_11">
      <path clip-path="url(#p0c32ec9679)" d="M 518.4 512.64 
L 518.4 69.12 
" style="fill:none;stroke:#b0b0b0;stroke-linecap:square;stroke-width:0.8;"/>
     </g>
     <g id="line2d_12">
      <g>
       <use style="stroke:#000000;stroke-width:0.8;" x="518.4" xlink:href="#mf89ed0302a" y="512.64"/>
      </g>
     </g>
     <g id="text_6">
      <!-- 1.0 -->
      <defs>
       <path d="M 12.40625 8.296875 
L 28.515625 8.296875 
L 28.515625 63.921875 
L 10.984375 60.40625 
L 10.984375 69.390625 
L 28.421875 72.90625 
L 38.28125 72.90625 
L 38.28125 8.296875 
L 54.390625 8.296875 
L 54.390625 0 
L 12.40625 0 
z
" id="DejaVuSans-49"/>
      </defs>
      <g transform="translate(510.448437 527.238438)scale(0.1 -0.1)">
       <use xlink:href="#DejaVuSans-49"/>
       <use x="63.623047" xlink:href="#DejaVuSans-46"/>
       <use x="95.410156" xlink:href="#DejaVuSans-48"/>
      </g>
     </g>
    </g>
    <g id="text_7">
     <!-- False Positive Rate -->
     <defs>
      <path d="M 9.8125 72.90625 
L 51.703125 72.90625 
L 51.703125 64.59375 
L 19.671875 64.59375 
L 19.671875 43.109375 
L 48.578125 43.109375 
L 48.578125 34.8125 
L 19.671875 34.8125 
L 19.671875 0 
L 9.8125 0 
z
" id="DejaVuSans-70"/>
      <path d="M 34.28125 27.484375 
Q 23.390625 27.484375 19.1875 25 
Q 14.984375 22.515625 14.984375 16.5 
Q 14.984375 11.71875 18.140625 8.90625 
Q 21.296875 6.109375 26.703125 6.109375 
Q 34.1875 6.109375 38.703125 11.40625 
Q 43.21875 16.703125 43.21875 25.484375 
L 43.21875 27.484375 
z
M 52.203125 31.203125 
L 52.203125 0 
L 43.21875 0 
L 43.21875 8.296875 
Q 40.140625 3.328125 35.546875 0.953125 
Q 30.953125 -1.421875 24.3125 -1.421875 
Q 15.921875 -1.421875 10.953125 3.296875 
Q 6 8.015625 6 15.921875 
Q 6 25.140625 12.171875 29.828125 
Q 18.359375 34.515625 30.609375 34.515625 
L 43.21875 34.515625 
L 43.21875 35.40625 
Q 43.21875 41.609375 39.140625 45 
Q 35.0625 48.390625 27.6875 48.390625 
Q 23 48.390625 18.546875 47.265625 
Q 14.109375 46.140625 10.015625 43.890625 
L 10.015625 52.203125 
Q 14.9375 54.109375 19.578125 55.046875 
Q 24.21875 56 28.609375 56 
Q 40.484375 56 46.34375 49.84375 
Q 52.203125 43.703125 52.203125 31.203125 
z
" id="DejaVuSans-97"/>
      <path d="M 9.421875 75.984375 
L 18.40625 75.984375 
L 18.40625 0 
L 9.421875 0 
z
" id="DejaVuSans-108"/>
      <path d="M 44.28125 53.078125 
L 44.28125 44.578125 
Q 40.484375 46.53125 36.375 47.5 
Q 32.28125 48.484375 27.875 48.484375 
Q 21.1875 48.484375 17.84375 46.4375 
Q 14.5 44.390625 14.5 40.28125 
Q 14.5 37.15625 16.890625 35.375 
Q 19.28125 33.59375 26.515625 31.984375 
L 29.59375 31.296875 
Q 39.15625 29.25 43.1875 25.515625 
Q 47.21875 21.78125 47.21875 15.09375 
Q 47.21875 7.46875 41.1875 3.015625 
Q 35.15625 -1.421875 24.609375 -1.421875 
Q 20.21875 -1.421875 15.453125 -0.5625 
Q 10.6875 0.296875 5.421875 2 
L 5.421875 11.28125 
Q 10.40625 8.6875 15.234375 7.390625 
Q 20.0625 6.109375 24.8125 6.109375 
Q 31.15625 6.109375 34.5625 8.28125 
Q 37.984375 10.453125 37.984375 14.40625 
Q 37.984375 18.0625 35.515625 20.015625 
Q 33.0625 21.96875 24.703125 23.78125 
L 21.578125 24.515625 
Q 13.234375 26.265625 9.515625 29.90625 
Q 5.8125 33.546875 5.8125 39.890625 
Q 5.8125 47.609375 11.28125 51.796875 
Q 16.75 56 26.8125 56 
Q 31.78125 56 36.171875 55.265625 
Q 40.578125 54.546875 44.28125 53.078125 
z
" id="DejaVuSans-115"/>
      <path d="M 56.203125 29.59375 
L 56.203125 25.203125 
L 14.890625 25.203125 
Q 15.484375 15.921875 20.484375 11.0625 
Q 25.484375 6.203125 34.421875 6.203125 
Q 39.59375 6.203125 44.453125 7.46875 
Q 49.3125 8.734375 54.109375 11.28125 
L 54.109375 2.78125 
Q 49.265625 0.734375 44.1875 -0.34375 
Q 39.109375 -1.421875 33.890625 -1.421875 
Q 20.796875 -1.421875 13.15625 6.1875 
Q 5.515625 13.8125 5.515625 26.8125 
Q 5.515625 40.234375 12.765625 48.109375 
Q 20.015625 56 32.328125 56 
Q 43.359375 56 49.78125 48.890625 
Q 56.203125 41.796875 56.203125 29.59375 
z
M 47.21875 32.234375 
Q 47.125 39.59375 43.09375 43.984375 
Q 39.0625 48.390625 32.421875 48.390625 
Q 24.90625 48.390625 20.390625 44.140625 
Q 15.875 39.890625 15.1875 32.171875 
z
" id="DejaVuSans-101"/>
      <path id="DejaVuSans-32"/>
      <path d="M 19.671875 64.796875 
L 19.671875 37.40625 
L 32.078125 37.40625 
Q 38.96875 37.40625 42.71875 40.96875 
Q 46.484375 44.53125 46.484375 51.125 
Q 46.484375 57.671875 42.71875 61.234375 
Q 38.96875 64.796875 32.078125 64.796875 
z
M 9.8125 72.90625 
L 32.078125 72.90625 
Q 44.34375 72.90625 50.609375 67.359375 
Q 56.890625 61.8125 56.890625 51.125 
Q 56.890625 40.328125 50.609375 34.8125 
Q 44.34375 29.296875 32.078125 29.296875 
L 19.671875 29.296875 
L 19.671875 0 
L 9.8125 0 
z
" id="DejaVuSans-80"/>
      <path d="M 30.609375 48.390625 
Q 23.390625 48.390625 19.1875 42.75 
Q 14.984375 37.109375 14.984375 27.296875 
Q 14.984375 17.484375 19.15625 11.84375 
Q 23.34375 6.203125 30.609375 6.203125 
Q 37.796875 6.203125 41.984375 11.859375 
Q 46.1875 17.53125 46.1875 27.296875 
Q 46.1875 37.015625 41.984375 42.703125 
Q 37.796875 48.390625 30.609375 48.390625 
z
M 30.609375 56 
Q 42.328125 56 49.015625 48.375 
Q 55.71875 40.765625 55.71875 27.296875 
Q 55.71875 13.875 49.015625 6.21875 
Q 42.328125 -1.421875 30.609375 -1.421875 
Q 18.84375 -1.421875 12.171875 6.21875 
Q 5.515625 13.875 5.515625 27.296875 
Q 5.515625 40.765625 12.171875 48.375 
Q 18.84375 56 30.609375 56 
z
" id="DejaVuSans-111"/>
      <path d="M 9.421875 54.6875 
L 18.40625 54.6875 
L 18.40625 0 
L 9.421875 0 
z
M 9.421875 75.984375 
L 18.40625 75.984375 
L 18.40625 64.59375 
L 9.421875 64.59375 
z
" id="DejaVuSans-105"/>
      <path d="M 18.3125 70.21875 
L 18.3125 54.6875 
L 36.8125 54.6875 
L 36.8125 47.703125 
L 18.3125 47.703125 
L 18.3125 18.015625 
Q 18.3125 11.328125 20.140625 9.421875 
Q 21.96875 7.515625 27.59375 7.515625 
L 36.8125 7.515625 
L 36.8125 0 
L 27.59375 0 
Q 17.1875 0 13.234375 3.875 
Q 9.28125 7.765625 9.28125 18.015625 
L 9.28125 47.703125 
L 2.6875 47.703125 
L 2.6875 54.6875 
L 9.28125 54.6875 
L 9.28125 70.21875 
z
" id="DejaVuSans-116"/>
      <path d="M 2.984375 54.6875 
L 12.5 54.6875 
L 29.59375 8.796875 
L 46.6875 54.6875 
L 56.203125 54.6875 
L 35.6875 0 
L 23.484375 0 
z
" id="DejaVuSans-118"/>
      <path d="M 44.390625 34.1875 
Q 47.5625 33.109375 50.5625 29.59375 
Q 53.5625 26.078125 56.59375 19.921875 
L 66.609375 0 
L 56 0 
L 46.6875 18.703125 
Q 43.0625 26.03125 39.671875 28.421875 
Q 36.28125 30.8125 30.421875 30.8125 
L 19.671875 30.8125 
L 19.671875 0 
L 9.8125 0 
L 9.8125 72.90625 
L 32.078125 72.90625 
Q 44.578125 72.90625 50.734375 67.671875 
Q 56.890625 62.453125 56.890625 51.90625 
Q 56.890625 45.015625 53.6875 40.46875 
Q 50.484375 35.9375 44.390625 34.1875 
z
M 19.671875 64.796875 
L 19.671875 38.921875 
L 32.078125 38.921875 
Q 39.203125 38.921875 42.84375 42.21875 
Q 46.484375 45.515625 46.484375 51.90625 
Q 46.484375 58.296875 42.84375 61.546875 
Q 39.203125 64.796875 32.078125 64.796875 
z
" id="DejaVuSans-82"/>
     </defs>
     <g transform="translate(247.994531 540.916563)scale(0.1 -0.1)">
      <use xlink:href="#DejaVuSans-70"/>
      <use x="57.378906" xlink:href="#DejaVuSans-97"/>
      <use x="118.658203" xlink:href="#DejaVuSans-108"/>
      <use x="146.441406" xlink:href="#DejaVuSans-115"/>
      <use x="198.541016" xlink:href="#DejaVuSans-101"/>
      <use x="260.064453" xlink:href="#DejaVuSans-32"/>
      <use x="291.851562" xlink:href="#DejaVuSans-80"/>
      <use x="352.107422" xlink:href="#DejaVuSans-111"/>
      <use x="413.289062" xlink:href="#DejaVuSans-115"/>
      <use x="465.388672" xlink:href="#DejaVuSans-105"/>
      <use x="493.171875" xlink:href="#DejaVuSans-116"/>
      <use x="532.380859" xlink:href="#DejaVuSans-105"/>
      <use x="560.164062" xlink:href="#DejaVuSans-118"/>
      <use x="619.34375" xlink:href="#DejaVuSans-101"/>
      <use x="680.867188" xlink:href="#DejaVuSans-32"/>
      <use x="712.654297" xlink:href="#DejaVuSans-82"/>
      <use x="782.105469" xlink:href="#DejaVuSans-97"/>
      <use x="843.384766" xlink:href="#DejaVuSans-116"/>
      <use x="882.59375" xlink:href="#DejaVuSans-101"/>
     </g>
    </g>
   </g>
   <g id="matplotlib.axis_2">
    <g id="ytick_1">
     <g id="line2d_13">
      <path clip-path="url(#p0c32ec9679)" d="M 72 512.64 
L 518.4 512.64 
" style="fill:none;stroke:#b0b0b0;stroke-linecap:square;stroke-width:0.8;"/>
     </g>
     <g id="line2d_14">
      <defs>
       <path d="M 0 0 
L -3.5 0 
" id="m4d9bf748bd" style="stroke:#000000;stroke-width:0.8;"/>
      </defs>
      <g>
       <use style="stroke:#000000;stroke-width:0.8;" x="72" xlink:href="#m4d9bf748bd" y="512.64"/>
      </g>
     </g>
     <g id="text_8">
      <!-- 0.0 -->
      <g transform="translate(49.096875 516.439219)scale(0.1 -0.1)">
       <use xlink:href="#DejaVuSans-48"/>
       <use x="63.623047" xlink:href="#DejaVuSans-46"/>
       <use x="95.410156" xlink:href="#DejaVuSans-48"/>
      </g>
     </g>
    </g>
    <g id="ytick_2">
     <g id="line2d_15">
      <path clip-path="url(#p0c32ec9679)" d="M 72 428.16 
L 518.4 428.16 
" style="fill:none;stroke:#b0b0b0;stroke-linecap:square;stroke-width:0.8;"/>
     </g>
     <g id="line2d_16">
      <g>
       <use style="stroke:#000000;stroke-width:0.8;" x="72" xlink:href="#m4d9bf748bd" y="428.16"/>
      </g>
     </g>
     <g id="text_9">
      <!-- 0.2 -->
      <g transform="translate(49.096875 431.959219)scale(0.1 -0.1)">
       <use xlink:href="#DejaVuSans-48"/>
       <use x="63.623047" xlink:href="#DejaVuSans-46"/>
       <use x="95.410156" xlink:href="#DejaVuSans-50"/>
      </g>
     </g>
    </g>
    <g id="ytick_3">
     <g id="line2d_17">
      <path clip-path="url(#p0c32ec9679)" d="M 72 343.68 
L 518.4 343.68 
" style="fill:none;stroke:#b0b0b0;stroke-linecap:square;stroke-width:0.8;"/>
     </g>
     <g id="line2d_18">
      <g>
       <use style="stroke:#000000;stroke-width:0.8;" x="72" xlink:href="#m4d9bf748bd" y="343.68"/>
      </g>
     </g>
     <g id="text_10">
      <!-- 0.4 -->
      <g transform="translate(49.096875 347.479219)scale(0.1 -0.1)">
       <use xlink:href="#DejaVuSans-48"/>
       <use x="63.623047" xlink:href="#DejaVuSans-46"/>
       <use x="95.410156" xlink:href="#DejaVuSans-52"/>
      </g>
     </g>
    </g>
    <g id="ytick_4">
     <g id="line2d_19">
      <path clip-path="url(#p0c32ec9679)" d="M 72 259.2 
L 518.4 259.2 
" style="fill:none;stroke:#b0b0b0;stroke-linecap:square;stroke-width:0.8;"/>
     </g>
     <g id="line2d_20">
      <g>
       <use style="stroke:#000000;stroke-width:0.8;" x="72" xlink:href="#m4d9bf748bd" y="259.2"/>
      </g>
     </g>
     <g id="text_11">
      <!-- 0.6 -->
      <g transform="translate(49.096875 262.999219)scale(0.1 -0.1)">
       <use xlink:href="#DejaVuSans-48"/>
       <use x="63.623047" xlink:href="#DejaVuSans-46"/>
       <use x="95.410156" xlink:href="#DejaVuSans-54"/>
      </g>
     </g>
    </g>
    <g id="ytick_5">
     <g id="line2d_21">
      <path clip-path="url(#p0c32ec9679)" d="M 72 174.72 
L 518.4 174.72 
" style="fill:none;stroke:#b0b0b0;stroke-linecap:square;stroke-width:0.8;"/>
     </g>
     <g id="line2d_22">
      <g>
       <use style="stroke:#000000;stroke-width:0.8;" x="72" xlink:href="#m4d9bf748bd" y="174.72"/>
      </g>
     </g>
     <g id="text_12">
      <!-- 0.8 -->
      <g transform="translate(49.096875 178.519219)scale(0.1 -0.1)">
       <use xlink:href="#DejaVuSans-48"/>
       <use x="63.623047" xlink:href="#DejaVuSans-46"/>
       <use x="95.410156" xlink:href="#DejaVuSans-56"/>
      </g>
     </g>
    </g>
    <g id="ytick_6">
     <g id="line2d_23">
      <path clip-path="url(#p0c32ec9679)" d="M 72 90.24 
L 518.4 90.24 
" style="fill:none;stroke:#b0b0b0;stroke-linecap:square;stroke-width:0.8;"/>
     </g>
     <g id="line2d_24">
      <g>
       <use style="stroke:#000000;stroke-width:0.8;" x="72" xlink:href="#m4d9bf748bd" y="90.24"/>
      </g>
     </g>
     <g id="text_13">
      <!-- 1.0 -->
      <g transform="translate(49.096875 94.039219)scale(0.1 -0.1)">
       <use xlink:href="#DejaVuSans-49"/>
       <use x="63.623047" xlink:href="#DejaVuSans-46"/>
       <use x="95.410156" xlink:href="#DejaVuSans-48"/>
      </g>
     </g>
    </g>
    <g id="text_14">
     <!-- True Positive Rate -->
     <defs>
      <path d="M -0.296875 72.90625 
L 61.375 72.90625 
L 61.375 64.59375 
L 35.5 64.59375 
L 35.5 0 
L 25.59375 0 
L 25.59375 64.59375 
L -0.296875 64.59375 
z
" id="DejaVuSans-84"/>
      <path d="M 41.109375 46.296875 
Q 39.59375 47.171875 37.8125 47.578125 
Q 36.03125 48 33.890625 48 
Q 26.265625 48 22.1875 43.046875 
Q 18.109375 38.09375 18.109375 28.8125 
L 18.109375 0 
L 9.078125 0 
L 9.078125 54.6875 
L 18.109375 54.6875 
L 18.109375 46.1875 
Q 20.953125 51.171875 25.484375 53.578125 
Q 30.03125 56 36.53125 56 
Q 37.453125 56 38.578125 55.875 
Q 39.703125 55.765625 41.0625 55.515625 
z
" id="DejaVuSans-114"/>
      <path d="M 8.5 21.578125 
L 8.5 54.6875 
L 17.484375 54.6875 
L 17.484375 21.921875 
Q 17.484375 14.15625 20.5 10.265625 
Q 23.53125 6.390625 29.59375 6.390625 
Q 36.859375 6.390625 41.078125 11.03125 
Q 45.3125 15.671875 45.3125 23.6875 
L 45.3125 54.6875 
L 54.296875 54.6875 
L 54.296875 0 
L 45.3125 0 
L 45.3125 8.40625 
Q 42.046875 3.421875 37.71875 1 
Q 33.40625 -1.421875 27.6875 -1.421875 
Q 18.265625 -1.421875 13.375 4.4375 
Q 8.5 10.296875 8.5 21.578125 
z
M 31.109375 56 
z
" id="DejaVuSans-117"/>
     </defs>
     <g transform="translate(43.017187 336.426094)rotate(-90)scale(0.1 -0.1)">
      <use xlink:href="#DejaVuSans-84"/>
      <use x="60.865234" xlink:href="#DejaVuSans-114"/>
      <use x="101.978516" xlink:href="#DejaVuSans-117"/>
      <use x="165.357422" xlink:href="#DejaVuSans-101"/>
      <use x="226.880859" xlink:href="#DejaVuSans-32"/>
      <use x="258.667969" xlink:href="#DejaVuSans-80"/>
      <use x="318.923828" xlink:href="#DejaVuSans-111"/>
      <use x="380.105469" xlink:href="#DejaVuSans-115"/>
      <use x="432.205078" xlink:href="#DejaVuSans-105"/>
      <use x="459.988281" xlink:href="#DejaVuSans-116"/>
      <use x="499.197266" xlink:href="#DejaVuSans-105"/>
      <use x="526.980469" xlink:href="#DejaVuSans-118"/>
      <use x="586.160156" xlink:href="#DejaVuSans-101"/>
      <use x="647.683594" xlink:href="#DejaVuSans-32"/>
      <use x="679.470703" xlink:href="#DejaVuSans-82"/>
      <use x="748.921875" xlink:href="#DejaVuSans-97"/>
      <use x="810.201172" xlink:href="#DejaVuSans-116"/>
      <use x="849.410156" xlink:href="#DejaVuSans-101"/>
     </g>
    </g>
   </g>
   <g id="line2d_25">
    <path clip-path="url(#p0c32ec9679)" d="M 72 512.64 
L 72 498.397895 
L 72.367105 498.397895 
L 72.367105 482.766316 
L 72.734211 482.766316 
L 72.734211 480.682105 
L 73.101316 480.682105 
L 73.101316 476.513684 
L 73.468421 476.513684 
L 73.468421 475.471579 
L 73.835526 475.471579 
L 73.835526 472.692632 
L 74.202632 472.692632 
L 74.202632 461.576842 
L 74.569737 461.576842 
L 74.569737 456.713684 
L 75.303947 456.713684 
L 75.303947 454.282105 
L 75.671053 454.282105 
L 75.671053 451.850526 
L 76.038158 451.850526 
L 76.038158 444.903158 
L 76.405263 444.903158 
L 76.405263 440.734737 
L 76.772368 440.734737 
L 76.772368 437.608421 
L 77.139474 437.608421 
L 77.139474 437.261053 
L 77.506579 437.261053 
L 77.506579 436.566316 
L 77.873684 436.566316 
L 77.873684 434.829474 
L 78.240789 434.829474 
L 78.240789 434.482105 
L 78.975 434.482105 
L 78.975 431.008421 
L 79.709211 431.008421 
L 79.709211 426.492632 
L 80.443421 426.492632 
L 80.443421 426.145263 
L 80.810526 426.145263 
L 80.810526 422.671579 
L 81.177632 422.671579 
L 81.177632 421.976842 
L 81.544737 421.976842 
L 81.544737 417.113684 
L 81.911842 417.113684 
L 81.911842 413.987368 
L 82.278947 413.987368 
L 82.278947 413.292632 
L 83.380263 413.292632 
L 83.380263 411.903158 
L 84.114474 411.903158 
L 84.114474 410.513684 
L 84.848684 410.513684 
L 84.848684 405.650526 
L 85.215789 405.650526 
L 85.215789 404.261053 
L 85.582895 404.261053 
L 85.582895 403.218947 
L 85.95 403.218947 
L 85.95 400.787368 
L 86.317105 400.787368 
L 86.317105 398.008421 
L 87.051316 398.008421 
L 87.051316 394.882105 
L 87.418421 394.882105 
L 87.418421 392.103158 
L 87.785526 392.103158 
L 87.785526 388.629474 
L 88.152632 388.629474 
L 88.152632 387.587368 
L 88.519737 387.587368 
L 88.519737 386.892632 
L 88.886842 386.892632 
L 88.886842 384.461053 
L 89.253947 384.461053 
L 89.253947 383.418947 
L 89.621053 383.418947 
L 89.621053 382.724211 
L 91.089474 382.724211 
L 91.089474 380.292632 
L 91.823684 380.292632 
L 91.823684 379.597895 
L 92.925 379.597895 
L 92.925 377.166316 
L 93.292105 377.166316 
L 93.292105 376.818947 
L 93.659211 376.818947 
L 93.659211 376.471579 
L 94.026316 376.471579 
L 94.026316 375.429474 
L 94.393421 375.429474 
L 94.393421 374.04 
L 94.760526 374.04 
L 94.760526 372.303158 
L 95.127632 372.303158 
L 95.127632 371.955789 
L 95.494737 371.955789 
L 95.494737 368.829474 
L 96.228947 368.829474 
L 96.228947 366.397895 
L 96.596053 366.397895 
L 96.596053 363.618947 
L 96.963158 363.618947 
L 96.963158 361.187368 
L 98.064474 361.187368 
L 98.064474 357.713684 
L 98.431579 357.713684 
L 98.431579 356.324211 
L 98.798684 356.324211 
L 98.798684 355.629474 
L 99.165789 355.629474 
L 99.165789 353.892632 
L 99.9 353.892632 
L 99.9 353.545263 
L 100.267105 353.545263 
L 100.267105 351.461053 
L 100.634211 351.461053 
L 100.634211 351.113684 
L 101.001316 351.113684 
L 101.001316 350.071579 
L 101.368421 350.071579 
L 101.368421 345.555789 
L 101.735526 345.555789 
L 101.735526 344.513684 
L 102.469737 344.513684 
L 102.469737 343.124211 
L 102.836842 343.124211 
L 102.836842 342.429474 
L 103.203947 342.429474 
L 103.203947 340.692632 
L 103.571053 340.692632 
L 103.571053 340.345263 
L 104.305263 340.345263 
L 104.305263 338.608421 
L 104.672368 338.608421 
L 104.672368 336.871579 
L 105.039474 336.871579 
L 105.039474 335.829474 
L 105.406579 335.829474 
L 105.406579 334.787368 
L 105.773684 334.787368 
L 105.773684 332.355789 
L 106.140789 332.355789 
L 106.140789 330.618947 
L 106.507895 330.618947 
L 106.507895 330.271579 
L 107.242105 330.271579 
L 107.242105 327.492632 
L 107.609211 327.492632 
L 107.609211 326.450526 
L 107.976316 326.450526 
L 107.976316 324.018947 
L 108.343421 324.018947 
L 108.343421 321.587368 
L 108.710526 321.587368 
L 108.710526 320.892632 
L 109.077632 320.892632 
L 109.077632 319.850526 
L 109.811842 319.850526 
L 109.811842 319.155789 
L 110.178947 319.155789 
L 110.178947 317.071579 
L 110.913158 317.071579 
L 110.913158 316.724211 
L 111.280263 316.724211 
L 111.280263 314.987368 
L 111.647368 314.987368 
L 111.647368 313.945263 
L 112.381579 313.945263 
L 112.381579 312.555789 
L 112.748684 312.555789 
L 112.748684 312.208421 
L 113.115789 312.208421 
L 113.115789 311.166316 
L 113.482895 311.166316 
L 113.482895 310.471579 
L 113.85 310.471579 
L 113.85 310.124211 
L 114.217105 310.124211 
L 114.217105 309.776842 
L 114.584211 309.776842 
L 114.584211 309.429474 
L 114.951316 309.429474 
L 114.951316 307.692632 
L 115.318421 307.692632 
L 115.318421 307.345263 
L 116.052632 307.345263 
L 116.052632 305.261053 
L 116.419737 305.261053 
L 116.419737 304.218947 
L 116.786842 304.218947 
L 116.786842 303.524211 
L 117.153947 303.524211 
L 117.153947 303.176842 
L 117.521053 303.176842 
L 117.521053 300.745263 
L 117.888158 300.745263 
L 117.888158 300.397895 
L 118.255263 300.397895 
L 118.255263 300.050526 
L 118.622368 300.050526 
L 118.622368 299.008421 
L 118.989474 299.008421 
L 118.989474 295.187368 
L 119.356579 295.187368 
L 119.356579 294.492632 
L 120.090789 294.492632 
L 120.090789 293.797895 
L 120.825 293.797895 
L 120.825 293.103158 
L 121.192105 293.103158 
L 121.192105 290.671579 
L 121.559211 290.671579 
L 121.559211 288.587368 
L 121.926316 288.587368 
L 121.926316 287.197895 
L 122.660526 287.197895 
L 122.660526 286.850526 
L 123.394737 286.850526 
L 123.394737 286.503158 
L 123.761842 286.503158 
L 123.761842 285.808421 
L 124.128947 285.808421 
L 124.128947 283.724211 
L 125.230263 283.724211 
L 125.230263 283.029474 
L 125.597368 283.029474 
L 125.597368 280.250526 
L 125.964474 280.250526 
L 125.964474 279.903158 
L 126.331579 279.903158 
L 126.331579 279.555789 
L 126.698684 279.555789 
L 126.698684 278.513684 
L 127.432895 278.513684 
L 127.432895 278.166316 
L 128.534211 278.166316 
L 128.534211 277.471579 
L 128.901316 277.471579 
L 128.901316 277.124211 
L 129.268421 277.124211 
L 129.268421 276.776842 
L 129.635526 276.776842 
L 129.635526 276.082105 
L 130.002632 276.082105 
L 130.002632 275.734737 
L 130.369737 275.734737 
L 130.369737 272.608421 
L 131.103947 272.608421 
L 131.103947 271.913684 
L 131.838158 271.913684 
L 131.838158 270.871579 
L 133.306579 270.871579 
L 133.306579 270.524211 
L 134.407895 270.524211 
L 134.407895 270.176842 
L 134.775 270.176842 
L 134.775 268.787368 
L 135.142105 268.787368 
L 135.142105 268.44 
L 135.509211 268.44 
L 135.509211 268.092632 
L 135.876316 268.092632 
L 135.876316 267.745263 
L 136.243421 267.745263 
L 136.243421 267.397895 
L 136.610526 267.397895 
L 136.610526 266.355789 
L 137.344737 266.355789 
L 137.344737 265.661053 
L 138.446053 265.661053 
L 138.446053 265.313684 
L 138.813158 265.313684 
L 138.813158 264.966316 
L 139.180263 264.966316 
L 139.180263 262.534737 
L 140.648684 262.534737 
L 140.648684 261.492632 
L 141.015789 261.492632 
L 141.015789 259.755789 
L 141.75 259.755789 
L 141.75 259.061053 
L 142.484211 259.061053 
L 142.484211 258.713684 
L 143.952632 258.713684 
L 143.952632 258.366316 
L 144.319737 258.366316 
L 144.319737 258.018947 
L 145.421053 258.018947 
L 145.421053 257.324211 
L 145.788158 257.324211 
L 145.788158 256.976842 
L 146.155263 256.976842 
L 146.155263 256.282105 
L 146.889474 256.282105 
L 146.889474 255.934737 
L 147.990789 255.934737 
L 147.990789 254.892632 
L 148.357895 254.892632 
L 148.357895 254.197895 
L 148.725 254.197895 
L 148.725 253.850526 
L 149.092105 253.850526 
L 149.092105 253.503158 
L 149.826316 253.503158 
L 149.826316 252.808421 
L 150.193421 252.808421 
L 150.193421 251.071579 
L 150.927632 251.071579 
L 150.927632 249.334737 
L 151.294737 249.334737 
L 151.294737 248.987368 
L 151.661842 248.987368 
L 151.661842 248.292632 
L 152.028947 248.292632 
L 152.028947 246.903158 
L 153.130263 246.903158 
L 153.130263 245.166316 
L 153.497368 245.166316 
L 153.497368 243.082105 
L 153.864474 243.082105 
L 153.864474 242.734737 
L 154.231579 242.734737 
L 154.231579 240.997895 
L 154.598684 240.997895 
L 154.598684 240.650526 
L 154.965789 240.650526 
L 154.965789 240.303158 
L 155.332895 240.303158 
L 155.332895 239.955789 
L 155.7 239.955789 
L 155.7 239.608421 
L 156.067105 239.608421 
L 156.067105 239.261053 
L 156.434211 239.261053 
L 156.434211 238.913684 
L 156.801316 238.913684 
L 156.801316 236.482105 
L 157.168421 236.482105 
L 157.168421 236.134737 
L 157.535526 236.134737 
L 157.535526 234.397895 
L 158.636842 234.397895 
L 158.636842 233.703158 
L 160.105263 233.703158 
L 160.105263 233.008421 
L 160.472368 233.008421 
L 160.472368 232.661053 
L 161.573684 232.661053 
L 161.573684 232.313684 
L 161.940789 232.313684 
L 161.940789 231.966316 
L 162.675 231.966316 
L 162.675 231.618947 
L 163.776316 231.618947 
L 163.776316 230.924211 
L 165.978947 230.924211 
L 165.978947 230.576842 
L 166.713158 230.576842 
L 166.713158 229.534737 
L 167.447368 229.534737 
L 167.447368 229.187368 
L 167.814474 229.187368 
L 167.814474 228.492632 
L 170.017105 228.492632 
L 170.017105 227.450526 
L 170.751316 227.450526 
L 170.751316 227.103158 
L 171.852632 227.103158 
L 171.852632 225.713684 
L 172.219737 225.713684 
L 172.219737 225.366316 
L 172.953947 225.366316 
L 172.953947 225.018947 
L 173.321053 225.018947 
L 173.321053 224.671579 
L 174.055263 224.671579 
L 174.055263 223.629474 
L 174.789474 223.629474 
L 174.789474 223.282105 
L 175.156579 223.282105 
L 175.156579 222.587368 
L 175.890789 222.587368 
L 175.890789 221.545263 
L 176.257895 221.545263 
L 176.257895 219.808421 
L 176.992105 219.808421 
L 176.992105 219.461053 
L 177.726316 219.461053 
L 177.726316 218.071579 
L 178.460526 218.071579 
L 178.460526 217.724211 
L 179.194737 217.724211 
L 179.194737 217.376842 
L 179.561842 217.376842 
L 179.561842 216.682105 
L 180.296053 216.682105 
L 180.296053 215.987368 
L 181.764474 215.987368 
L 181.764474 214.597895 
L 183.6 214.597895 
L 183.6 213.903158 
L 185.068421 213.903158 
L 185.068421 212.861053 
L 185.435526 212.861053 
L 185.435526 212.513684 
L 185.802632 212.513684 
L 185.802632 212.166316 
L 186.169737 212.166316 
L 186.169737 211.124211 
L 188.372368 211.124211 
L 188.372368 209.734737 
L 189.106579 209.734737 
L 189.106579 209.04 
L 189.473684 209.04 
L 189.473684 207.650526 
L 190.575 207.650526 
L 190.575 207.303158 
L 191.676316 207.303158 
L 191.676316 206.955789 
L 192.043421 206.955789 
L 192.043421 206.608421 
L 192.410526 206.608421 
L 192.410526 205.913684 
L 192.777632 205.913684 
L 192.777632 205.218947 
L 193.144737 205.218947 
L 193.144737 203.829474 
L 194.246053 203.829474 
L 194.246053 202.787368 
L 194.980263 202.787368 
L 194.980263 202.44 
L 195.714474 202.44 
L 195.714474 202.092632 
L 198.651316 202.092632 
L 198.651316 201.745263 
L 199.018421 201.745263 
L 199.018421 201.397895 
L 200.119737 201.397895 
L 200.119737 201.050526 
L 200.486842 201.050526 
L 200.486842 200.008421 
L 201.221053 200.008421 
L 201.221053 198.618947 
L 201.588158 198.618947 
L 201.588158 198.271579 
L 202.322368 198.271579 
L 202.322368 197.924211 
L 202.689474 197.924211 
L 202.689474 197.576842 
L 203.423684 197.576842 
L 203.423684 197.229474 
L 203.790789 197.229474 
L 203.790789 196.882105 
L 204.525 196.882105 
L 204.525 196.534737 
L 204.892105 196.534737 
L 204.892105 194.103158 
L 205.259211 194.103158 
L 205.259211 193.408421 
L 205.626316 193.408421 
L 205.626316 189.934737 
L 206.360526 189.934737 
L 206.360526 189.587368 
L 206.727632 189.587368 
L 206.727632 189.24 
L 209.297368 189.24 
L 209.297368 188.892632 
L 210.031579 188.892632 
L 210.031579 187.850526 
L 210.398684 187.850526 
L 210.398684 187.503158 
L 211.132895 187.503158 
L 211.132895 187.155789 
L 211.5 187.155789 
L 211.5 186.808421 
L 212.234211 186.808421 
L 212.234211 185.766316 
L 212.601316 185.766316 
L 212.601316 185.071579 
L 213.702632 185.071579 
L 213.702632 184.376842 
L 214.436842 184.376842 
L 214.436842 183.682105 
L 215.171053 183.682105 
L 215.171053 183.334737 
L 215.538158 183.334737 
L 215.538158 182.987368 
L 215.905263 182.987368 
L 215.905263 182.64 
L 216.272368 182.64 
L 216.272368 182.292632 
L 216.639474 182.292632 
L 216.639474 181.597895 
L 217.373684 181.597895 
L 217.373684 180.208421 
L 218.107895 180.208421 
L 218.107895 179.513684 
L 218.475 179.513684 
L 218.475 177.082105 
L 219.209211 177.082105 
L 219.209211 176.734737 
L 219.943421 176.734737 
L 219.943421 176.387368 
L 220.677632 176.387368 
L 220.677632 175.692632 
L 221.411842 175.692632 
L 221.411842 175.345263 
L 222.146053 175.345263 
L 222.146053 174.997895 
L 222.880263 174.997895 
L 222.880263 172.218947 
L 223.981579 172.218947 
L 223.981579 170.829474 
L 225.082895 170.829474 
L 225.082895 170.482105 
L 225.45 170.482105 
L 225.45 168.745263 
L 226.551316 168.745263 
L 226.551316 168.397895 
L 227.285526 168.397895 
L 227.285526 167.703158 
L 227.652632 167.703158 
L 227.652632 166.661053 
L 228.019737 166.661053 
L 228.019737 166.313684 
L 229.121053 166.313684 
L 229.121053 165.618947 
L 229.855263 165.618947 
L 229.855263 165.271579 
L 230.222368 165.271579 
L 230.222368 164.229474 
L 230.956579 164.229474 
L 230.956579 163.882105 
L 231.323684 163.882105 
L 231.323684 163.534737 
L 231.690789 163.534737 
L 231.690789 162.84 
L 233.159211 162.84 
L 233.159211 160.755789 
L 233.526316 160.755789 
L 233.526316 160.061053 
L 234.627632 160.061053 
L 234.627632 159.713684 
L 236.096053 159.713684 
L 236.096053 158.671579 
L 236.463158 158.671579 
L 236.463158 158.324211 
L 237.197368 158.324211 
L 237.197368 157.629474 
L 237.564474 157.629474 
L 237.564474 157.282105 
L 238.298684 157.282105 
L 238.298684 156.934737 
L 239.032895 156.934737 
L 239.032895 155.892632 
L 240.868421 155.892632 
L 240.868421 154.503158 
L 241.602632 154.503158 
L 241.602632 154.155789 
L 244.906579 154.155789 
L 244.906579 153.113684 
L 245.273684 153.113684 
L 245.273684 152.071579 
L 246.007895 152.071579 
L 246.007895 151.724211 
L 246.375 151.724211 
L 246.375 150.682105 
L 248.210526 150.682105 
L 248.210526 150.334737 
L 248.577632 150.334737 
L 248.577632 149.64 
L 248.944737 149.64 
L 248.944737 149.292632 
L 249.311842 149.292632 
L 249.311842 148.597895 
L 249.678947 148.597895 
L 249.678947 148.250526 
L 250.046053 148.250526 
L 250.046053 147.555789 
L 250.413158 147.555789 
L 250.413158 147.208421 
L 250.780263 147.208421 
L 250.780263 146.513684 
L 251.147368 146.513684 
L 251.147368 145.818947 
L 251.514474 145.818947 
L 251.514474 144.429474 
L 251.881579 144.429474 
L 251.881579 144.082105 
L 254.451316 144.082105 
L 254.451316 142.692632 
L 254.818421 142.692632 
L 254.818421 142.345263 
L 256.286842 142.345263 
L 256.286842 141.997895 
L 256.653947 141.997895 
L 256.653947 141.650526 
L 258.122368 141.650526 
L 258.122368 140.608421 
L 260.325 140.608421 
L 260.325 140.261053 
L 261.426316 140.261053 
L 261.426316 139.218947 
L 262.527632 139.218947 
L 262.527632 138.176842 
L 265.097368 138.176842 
L 265.097368 137.829474 
L 265.464474 137.829474 
L 265.464474 137.482105 
L 267.667105 137.482105 
L 267.667105 137.134737 
L 268.034211 137.134737 
L 268.034211 136.787368 
L 268.401316 136.787368 
L 268.401316 136.44 
L 269.135526 136.44 
L 269.135526 136.092632 
L 269.502632 136.092632 
L 269.502632 135.050526 
L 269.869737 135.050526 
L 269.869737 134.355789 
L 270.236842 134.355789 
L 270.236842 134.008421 
L 270.603947 134.008421 
L 270.603947 133.661053 
L 272.806579 133.661053 
L 272.806579 133.313684 
L 273.173684 133.313684 
L 273.173684 132.966316 
L 273.540789 132.966316 
L 273.540789 131.924211 
L 274.642105 131.924211 
L 274.642105 131.576842 
L 275.376316 131.576842 
L 275.376316 131.229474 
L 275.743421 131.229474 
L 275.743421 130.882105 
L 277.578947 130.882105 
L 277.578947 130.534737 
L 279.781579 130.534737 
L 279.781579 129.145263 
L 280.882895 129.145263 
L 280.882895 128.103158 
L 282.351316 128.103158 
L 282.351316 126.713684 
L 282.718421 126.713684 
L 282.718421 126.018947 
L 286.022368 126.018947 
L 286.022368 125.671579 
L 287.123684 125.671579 
L 287.123684 124.629474 
L 289.693421 124.629474 
L 289.693421 124.282105 
L 290.060526 124.282105 
L 290.060526 122.545263 
L 292.263158 122.545263 
L 292.263158 122.197895 
L 295.934211 122.197895 
L 295.934211 121.850526 
L 296.301316 121.850526 
L 296.301316 120.808421 
L 300.339474 120.808421 
L 300.339474 120.113684 
L 301.440789 120.113684 
L 301.440789 119.766316 
L 301.807895 119.766316 
L 301.807895 119.418947 
L 302.175 119.418947 
L 302.175 119.071579 
L 303.276316 119.071579 
L 303.276316 118.724211 
L 304.010526 118.724211 
L 304.010526 118.376842 
L 305.111842 118.376842 
L 305.111842 117.334737 
L 305.478947 117.334737 
L 305.478947 115.597895 
L 306.580263 115.597895 
L 306.580263 115.250526 
L 307.681579 115.250526 
L 307.681579 114.903158 
L 308.415789 114.903158 
L 308.415789 114.555789 
L 309.517105 114.555789 
L 309.517105 114.208421 
L 309.884211 114.208421 
L 309.884211 113.513684 
L 310.251316 113.513684 
L 310.251316 112.471579 
L 311.352632 112.471579 
L 311.352632 112.124211 
L 312.086842 112.124211 
L 312.086842 111.776842 
L 312.453947 111.776842 
L 312.453947 111.429474 
L 313.188158 111.429474 
L 313.188158 110.734737 
L 314.656579 110.734737 
L 314.656579 110.04 
L 316.125 110.04 
L 316.125 109.692632 
L 317.593421 109.692632 
L 317.593421 108.997895 
L 317.960526 108.997895 
L 317.960526 108.650526 
L 318.327632 108.650526 
L 318.327632 108.303158 
L 319.061842 108.303158 
L 319.061842 107.608421 
L 319.796053 107.608421 
L 319.796053 106.913684 
L 320.897368 106.913684 
L 320.897368 106.566316 
L 321.264474 106.566316 
L 321.264474 106.218947 
L 321.998684 106.218947 
L 321.998684 105.871579 
L 322.365789 105.871579 
L 322.365789 105.524211 
L 323.1 105.524211 
L 323.1 105.176842 
L 323.467105 105.176842 
L 323.467105 104.829474 
L 327.872368 104.829474 
L 327.872368 104.134737 
L 328.239474 104.134737 
L 328.239474 103.787368 
L 328.606579 103.787368 
L 328.606579 103.44 
L 331.543421 103.44 
L 331.543421 102.745263 
L 332.277632 102.745263 
L 332.277632 102.397895 
L 333.378947 102.397895 
L 333.378947 101.703158 
L 333.746053 101.703158 
L 333.746053 101.355789 
L 334.847368 101.355789 
L 334.847368 101.008421 
L 336.315789 101.008421 
L 336.315789 100.661053 
L 337.417105 100.661053 
L 337.417105 99.966316 
L 338.518421 99.966316 
L 338.518421 99.618947 
L 340.353947 99.618947 
L 340.353947 99.271579 
L 340.721053 99.271579 
L 340.721053 98.576842 
L 341.088158 98.576842 
L 341.088158 98.229474 
L 342.556579 98.229474 
L 342.556579 97.882105 
L 343.290789 97.882105 
L 343.290789 97.534737 
L 344.392105 97.534737 
L 344.392105 97.187368 
L 345.860526 97.187368 
L 345.860526 96.84 
L 350.632895 96.84 
L 350.632895 96.492632 
L 352.101316 96.492632 
L 352.101316 96.145263 
L 353.202632 96.145263 
L 353.202632 95.797895 
L 353.936842 95.797895 
L 353.936842 95.450526 
L 355.038158 95.450526 
L 355.038158 95.103158 
L 358.709211 95.103158 
L 358.709211 94.755789 
L 359.810526 94.755789 
L 359.810526 94.408421 
L 360.177632 94.408421 
L 360.177632 94.061053 
L 363.481579 94.061053 
L 363.481579 93.713684 
L 365.684211 93.713684 
L 365.684211 93.366316 
L 366.418421 93.366316 
L 366.418421 93.018947 
L 373.760526 93.018947 
L 373.760526 92.671579 
L 417.813158 92.671579 
L 417.813158 92.324211 
L 426.256579 92.324211 
L 426.256579 91.976842 
L 435.801316 91.976842 
L 435.801316 91.629474 
L 473.613158 91.629474 
L 473.613158 91.282105 
L 476.182895 91.282105 
L 476.182895 90.934737 
L 476.917105 90.934737 
L 476.917105 90.587368 
L 496.740789 90.587368 
L 496.740789 90.24 
L 518.4 90.24 
L 518.4 90.24 
" style="fill:none;stroke:#ff8c00;stroke-linecap:square;stroke-width:2;"/>
   </g>
   <g id="line2d_26">
    <path clip-path="url(#p0c32ec9679)" d="M 72 512.64 
L 518.4 90.24 
" style="fill:none;stroke:#000080;stroke-dasharray:7.4,3.2;stroke-dashoffset:0;stroke-width:2;"/>
   </g>
   <g id="patch_3">
    <path d="M 72 512.64 
L 72 69.12 
" style="fill:none;stroke:#000000;stroke-linecap:square;stroke-linejoin:miter;stroke-width:0.8;"/>
   </g>
   <g id="patch_4">
    <path d="M 518.4 512.64 
L 518.4 69.12 
" style="fill:none;stroke:#000000;stroke-linecap:square;stroke-linejoin:miter;stroke-width:0.8;"/>
   </g>
   <g id="patch_5">
    <path d="M 72 512.64 
L 518.4 512.64 
" style="fill:none;stroke:#000000;stroke-linecap:square;stroke-linejoin:miter;stroke-width:0.8;"/>
   </g>
   <g id="patch_6">
    <path d="M 72 69.12 
L 518.4 69.12 
" style="fill:none;stroke:#000000;stroke-linecap:square;stroke-linejoin:miter;stroke-width:0.8;"/>
   </g>
   <g id="legend_1">
    <g id="patch_7">
     <path d="M 427.081875 509.64 
L 514.2 509.64 
Q 515.4 509.64 515.4 508.44 
L 515.4 500.233125 
Q 515.4 499.033125 514.2 499.033125 
L 427.081875 499.033125 
Q 425.881875 499.033125 425.881875 500.233125 
L 425.881875 508.44 
Q 425.881875 509.64 427.081875 509.64 
z
" style="fill:#ffffff;opacity:0.8;stroke:#cccccc;stroke-linejoin:miter;"/>
    </g>
    <g id="line2d_27">
     <path d="M 428.281875 503.892187 
L 440.281875 503.892187 
" style="fill:none;stroke:#ff8c00;stroke-linecap:square;stroke-width:2;"/>
    </g>
    <g id="line2d_28"/>
    <g id="text_15">
     <!-- D006262 (area =0.83) -->
     <defs>
      <path d="M 19.671875 64.796875 
L 19.671875 8.109375 
L 31.59375 8.109375 
Q 46.6875 8.109375 53.6875 14.9375 
Q 60.6875 21.78125 60.6875 36.53125 
Q 60.6875 51.171875 53.6875 57.984375 
Q 46.6875 64.796875 31.59375 64.796875 
z
M 9.8125 72.90625 
L 30.078125 72.90625 
Q 51.265625 72.90625 61.171875 64.09375 
Q 71.09375 55.28125 71.09375 36.53125 
Q 71.09375 17.671875 61.125 8.828125 
Q 51.171875 0 30.078125 0 
L 9.8125 0 
z
" id="DejaVuSans-68"/>
      <path d="M 31 75.875 
Q 24.46875 64.65625 21.28125 53.65625 
Q 18.109375 42.671875 18.109375 31.390625 
Q 18.109375 20.125 21.3125 9.0625 
Q 24.515625 -2 31 -13.1875 
L 23.1875 -13.1875 
Q 15.875 -1.703125 12.234375 9.375 
Q 8.59375 20.453125 8.59375 31.390625 
Q 8.59375 42.28125 12.203125 53.3125 
Q 15.828125 64.359375 23.1875 75.875 
z
" id="DejaVuSans-40"/>
      <path d="M 10.59375 45.40625 
L 73.1875 45.40625 
L 73.1875 37.203125 
L 10.59375 37.203125 
z
M 10.59375 25.484375 
L 73.1875 25.484375 
L 73.1875 17.1875 
L 10.59375 17.1875 
z
" id="DejaVuSans-61"/>
      <path d="M 40.578125 39.3125 
Q 47.65625 37.796875 51.625 33 
Q 55.609375 28.21875 55.609375 21.1875 
Q 55.609375 10.40625 48.1875 4.484375 
Q 40.765625 -1.421875 27.09375 -1.421875 
Q 22.515625 -1.421875 17.65625 -0.515625 
Q 12.796875 0.390625 7.625 2.203125 
L 7.625 11.71875 
Q 11.71875 9.328125 16.59375 8.109375 
Q 21.484375 6.890625 26.8125 6.890625 
Q 36.078125 6.890625 40.9375 10.546875 
Q 45.796875 14.203125 45.796875 21.1875 
Q 45.796875 27.640625 41.28125 31.265625 
Q 36.765625 34.90625 28.71875 34.90625 
L 20.21875 34.90625 
L 20.21875 43.015625 
L 29.109375 43.015625 
Q 36.375 43.015625 40.234375 45.921875 
Q 44.09375 48.828125 44.09375 54.296875 
Q 44.09375 59.90625 40.109375 62.90625 
Q 36.140625 65.921875 28.71875 65.921875 
Q 24.65625 65.921875 20.015625 65.03125 
Q 15.375 64.15625 9.8125 62.3125 
L 9.8125 71.09375 
Q 15.4375 72.65625 20.34375 73.4375 
Q 25.25 74.21875 29.59375 74.21875 
Q 40.828125 74.21875 47.359375 69.109375 
Q 53.90625 64.015625 53.90625 55.328125 
Q 53.90625 49.265625 50.4375 45.09375 
Q 46.96875 40.921875 40.578125 39.3125 
z
" id="DejaVuSans-51"/>
      <path d="M 8.015625 75.875 
L 15.828125 75.875 
Q 23.140625 64.359375 26.78125 53.3125 
Q 30.421875 42.28125 30.421875 31.390625 
Q 30.421875 20.453125 26.78125 9.375 
Q 23.140625 -1.703125 15.828125 -13.1875 
L 8.015625 -13.1875 
Q 14.5 -2 17.703125 9.0625 
Q 20.90625 20.125 20.90625 31.390625 
Q 20.90625 42.671875 17.703125 53.65625 
Q 14.5 64.65625 8.015625 75.875 
z
" id="DejaVuSans-41"/>
     </defs>
     <g transform="translate(445.081875 505.992188)scale(0.06 -0.06)">
      <use xlink:href="#DejaVuSans-68"/>
      <use x="77.001953" xlink:href="#DejaVuSans-48"/>
      <use x="140.625" xlink:href="#DejaVuSans-48"/>
      <use x="204.248047" xlink:href="#DejaVuSans-54"/>
      <use x="267.871094" xlink:href="#DejaVuSans-50"/>
      <use x="331.494141" xlink:href="#DejaVuSans-54"/>
      <use x="395.117188" xlink:href="#DejaVuSans-50"/>
      <use x="458.740234" xlink:href="#DejaVuSans-32"/>
      <use x="490.527344" xlink:href="#DejaVuSans-40"/>
      <use x="529.541016" xlink:href="#DejaVuSans-97"/>
      <use x="590.820312" xlink:href="#DejaVuSans-114"/>
      <use x="631.902344" xlink:href="#DejaVuSans-101"/>
      <use x="693.425781" xlink:href="#DejaVuSans-97"/>
      <use x="754.705078" xlink:href="#DejaVuSans-32"/>
      <use x="786.492188" xlink:href="#DejaVuSans-61"/>
      <use x="870.28125" xlink:href="#DejaVuSans-48"/>
      <use x="933.904297" xlink:href="#DejaVuSans-46"/>
      <use x="965.691406" xlink:href="#DejaVuSans-56"/>
      <use x="1029.314453" xlink:href="#DejaVuSans-51"/>
      <use x="1092.9375" xlink:href="#DejaVuSans-41"/>
     </g>
    </g>
   </g>
  </g>
 </g>
 <defs>
  <clipPath id="p0c32ec9679">
   <rect height="443.52" width="446.4" x="72" y="69.12"/>
  </clipPath>
 </defs>
</svg>
