<?xml version="1.0" encoding="utf-8" standalone="no"?>
<!DOCTYPE svg PUBLIC "-//W3C//DTD SVG 1.1//EN"
  "http://www.w3.org/Graphics/SVG/1.1/DTD/svg11.dtd">
<!-- Created with matplotlib (https://matplotlib.org/) -->
<svg height="576pt" version="1.1" viewBox="0 0 576 576" width="576pt" xmlns="http://www.w3.org/2000/svg" xmlns:xlink="http://www.w3.org/1999/xlink">
 <defs>
  <style type="text/css">
*{stroke-linecap:butt;stroke-linejoin:round;}
  </style>
 </defs>
 <g id="figure_1">
  <g id="patch_1">
   <path d="M 0 576 
L 576 576 
L 576 0 
L 0 0 
z
" style="fill:#ffffff;"/>
  </g>
  <g id="axes_1">
   <g id="patch_2">
    <path d="M 72 512.64 
L 518.4 512.64 
L 518.4 69.12 
L 72 69.12 
z
" style="fill:#ffffff;"/>
   </g>
   <g id="matplotlib.axis_1">
    <g id="xtick_1">
     <g id="line2d_1">
      <path clip-path="url(#p88d45e9361)" d="M 72 512.64 
L 72 69.12 
" style="fill:none;stroke:#b0b0b0;stroke-linecap:square;stroke-width:0.8;"/>
     </g>
     <g id="line2d_2">
      <defs>
       <path d="M 0 0 
L 0 3.5 
" id="m7f84da39bd" style="stroke:#000000;stroke-width:0.8;"/>
      </defs>
      <g>
       <use style="stroke:#000000;stroke-width:0.8;" x="72" xlink:href="#m7f84da39bd" y="512.64"/>
      </g>
     </g>
     <g id="text_1">
      <!-- 0.0 -->
      <defs>
       <path d="M 31.78125 66.40625 
Q 24.171875 66.40625 20.328125 58.90625 
Q 16.5 51.421875 16.5 36.375 
Q 16.5 21.390625 20.328125 13.890625 
Q 24.171875 6.390625 31.78125 6.390625 
Q 39.453125 6.390625 43.28125 13.890625 
Q 47.125 21.390625 47.125 36.375 
Q 47.125 51.421875 43.28125 58.90625 
Q 39.453125 66.40625 31.78125 66.40625 
z
M 31.78125 74.21875 
Q 44.046875 74.21875 50.515625 64.515625 
Q 56.984375 54.828125 56.984375 36.375 
Q 56.984375 17.96875 50.515625 8.265625 
Q 44.046875 -1.421875 31.78125 -1.421875 
Q 19.53125 -1.421875 13.0625 8.265625 
Q 6.59375 17.96875 6.59375 36.375 
Q 6.59375 54.828125 13.0625 64.515625 
Q 19.53125 74.21875 31.78125 74.21875 
z
" id="DejaVuSans-48"/>
       <path d="M 10.6875 12.40625 
L 21 12.40625 
L 21 0 
L 10.6875 0 
z
" id="DejaVuSans-46"/>
      </defs>
      <g transform="translate(64.048438 527.238438)scale(0.1 -0.1)">
       <use xlink:href="#DejaVuSans-48"/>
       <use x="63.623047" xlink:href="#DejaVuSans-46"/>
       <use x="95.410156" xlink:href="#DejaVuSans-48"/>
      </g>
     </g>
    </g>
    <g id="xtick_2">
     <g id="line2d_3">
      <path clip-path="url(#p88d45e9361)" d="M 161.28 512.64 
L 161.28 69.12 
" style="fill:none;stroke:#b0b0b0;stroke-linecap:square;stroke-width:0.8;"/>
     </g>
     <g id="line2d_4">
      <g>
       <use style="stroke:#000000;stroke-width:0.8;" x="161.28" xlink:href="#m7f84da39bd" y="512.64"/>
      </g>
     </g>
     <g id="text_2">
      <!-- 0.2 -->
      <defs>
       <path d="M 19.1875 8.296875 
L 53.609375 8.296875 
L 53.609375 0 
L 7.328125 0 
L 7.328125 8.296875 
Q 12.9375 14.109375 22.625 23.890625 
Q 32.328125 33.6875 34.8125 36.53125 
Q 39.546875 41.84375 41.421875 45.53125 
Q 43.3125 49.21875 43.3125 52.78125 
Q 43.3125 58.59375 39.234375 62.25 
Q 35.15625 65.921875 28.609375 65.921875 
Q 23.96875 65.921875 18.8125 64.3125 
Q 13.671875 62.703125 7.8125 59.421875 
L 7.8125 69.390625 
Q 13.765625 71.78125 18.9375 73 
Q 24.125 74.21875 28.421875 74.21875 
Q 39.75 74.21875 46.484375 68.546875 
Q 53.21875 62.890625 53.21875 53.421875 
Q 53.21875 48.921875 51.53125 44.890625 
Q 49.859375 40.875 45.40625 35.40625 
Q 44.1875 33.984375 37.640625 27.21875 
Q 31.109375 20.453125 19.1875 8.296875 
z
" id="DejaVuSans-50"/>
      </defs>
      <g transform="translate(153.328438 527.238438)scale(0.1 -0.1)">
       <use xlink:href="#DejaVuSans-48"/>
       <use x="63.623047" xlink:href="#DejaVuSans-46"/>
       <use x="95.410156" xlink:href="#DejaVuSans-50"/>
      </g>
     </g>
    </g>
    <g id="xtick_3">
     <g id="line2d_5">
      <path clip-path="url(#p88d45e9361)" d="M 250.56 512.64 
L 250.56 69.12 
" style="fill:none;stroke:#b0b0b0;stroke-linecap:square;stroke-width:0.8;"/>
     </g>
     <g id="line2d_6">
      <g>
       <use style="stroke:#000000;stroke-width:0.8;" x="250.56" xlink:href="#m7f84da39bd" y="512.64"/>
      </g>
     </g>
     <g id="text_3">
      <!-- 0.4 -->
      <defs>
       <path d="M 37.796875 64.3125 
L 12.890625 25.390625 
L 37.796875 25.390625 
z
M 35.203125 72.90625 
L 47.609375 72.90625 
L 47.609375 25.390625 
L 58.015625 25.390625 
L 58.015625 17.1875 
L 47.609375 17.1875 
L 47.609375 0 
L 37.796875 0 
L 37.796875 17.1875 
L 4.890625 17.1875 
L 4.890625 26.703125 
z
" id="DejaVuSans-52"/>
      </defs>
      <g transform="translate(242.608438 527.238438)scale(0.1 -0.1)">
       <use xlink:href="#DejaVuSans-48"/>
       <use x="63.623047" xlink:href="#DejaVuSans-46"/>
       <use x="95.410156" xlink:href="#DejaVuSans-52"/>
      </g>
     </g>
    </g>
    <g id="xtick_4">
     <g id="line2d_7">
      <path clip-path="url(#p88d45e9361)" d="M 339.84 512.64 
L 339.84 69.12 
" style="fill:none;stroke:#b0b0b0;stroke-linecap:square;stroke-width:0.8;"/>
     </g>
     <g id="line2d_8">
      <g>
       <use style="stroke:#000000;stroke-width:0.8;" x="339.84" xlink:href="#m7f84da39bd" y="512.64"/>
      </g>
     </g>
     <g id="text_4">
      <!-- 0.6 -->
      <defs>
       <path d="M 33.015625 40.375 
Q 26.375 40.375 22.484375 35.828125 
Q 18.609375 31.296875 18.609375 23.390625 
Q 18.609375 15.53125 22.484375 10.953125 
Q 26.375 6.390625 33.015625 6.390625 
Q 39.65625 6.390625 43.53125 10.953125 
Q 47.40625 15.53125 47.40625 23.390625 
Q 47.40625 31.296875 43.53125 35.828125 
Q 39.65625 40.375 33.015625 40.375 
z
M 52.59375 71.296875 
L 52.59375 62.3125 
Q 48.875 64.0625 45.09375 64.984375 
Q 41.3125 65.921875 37.59375 65.921875 
Q 27.828125 65.921875 22.671875 59.328125 
Q 17.53125 52.734375 16.796875 39.40625 
Q 19.671875 43.65625 24.015625 45.921875 
Q 28.375 48.1875 33.59375 48.1875 
Q 44.578125 48.1875 50.953125 41.515625 
Q 57.328125 34.859375 57.328125 23.390625 
Q 57.328125 12.15625 50.6875 5.359375 
Q 44.046875 -1.421875 33.015625 -1.421875 
Q 20.359375 -1.421875 13.671875 8.265625 
Q 6.984375 17.96875 6.984375 36.375 
Q 6.984375 53.65625 15.1875 63.9375 
Q 23.390625 74.21875 37.203125 74.21875 
Q 40.921875 74.21875 44.703125 73.484375 
Q 48.484375 72.75 52.59375 71.296875 
z
" id="DejaVuSans-54"/>
      </defs>
      <g transform="translate(331.888438 527.238438)scale(0.1 -0.1)">
       <use xlink:href="#DejaVuSans-48"/>
       <use x="63.623047" xlink:href="#DejaVuSans-46"/>
       <use x="95.410156" xlink:href="#DejaVuSans-54"/>
      </g>
     </g>
    </g>
    <g id="xtick_5">
     <g id="line2d_9">
      <path clip-path="url(#p88d45e9361)" d="M 429.12 512.64 
L 429.12 69.12 
" style="fill:none;stroke:#b0b0b0;stroke-linecap:square;stroke-width:0.8;"/>
     </g>
     <g id="line2d_10">
      <g>
       <use style="stroke:#000000;stroke-width:0.8;" x="429.12" xlink:href="#m7f84da39bd" y="512.64"/>
      </g>
     </g>
     <g id="text_5">
      <!-- 0.8 -->
      <defs>
       <path d="M 31.78125 34.625 
Q 24.75 34.625 20.71875 30.859375 
Q 16.703125 27.09375 16.703125 20.515625 
Q 16.703125 13.921875 20.71875 10.15625 
Q 24.75 6.390625 31.78125 6.390625 
Q 38.8125 6.390625 42.859375 10.171875 
Q 46.921875 13.96875 46.921875 20.515625 
Q 46.921875 27.09375 42.890625 30.859375 
Q 38.875 34.625 31.78125 34.625 
z
M 21.921875 38.8125 
Q 15.578125 40.375 12.03125 44.71875 
Q 8.5 49.078125 8.5 55.328125 
Q 8.5 64.0625 14.71875 69.140625 
Q 20.953125 74.21875 31.78125 74.21875 
Q 42.671875 74.21875 48.875 69.140625 
Q 55.078125 64.0625 55.078125 55.328125 
Q 55.078125 49.078125 51.53125 44.71875 
Q 48 40.375 41.703125 38.8125 
Q 48.828125 37.15625 52.796875 32.3125 
Q 56.78125 27.484375 56.78125 20.515625 
Q 56.78125 9.90625 50.3125 4.234375 
Q 43.84375 -1.421875 31.78125 -1.421875 
Q 19.734375 -1.421875 13.25 4.234375 
Q 6.78125 9.90625 6.78125 20.515625 
Q 6.78125 27.484375 10.78125 32.3125 
Q 14.796875 37.15625 21.921875 38.8125 
z
M 18.3125 54.390625 
Q 18.3125 48.734375 21.84375 45.5625 
Q 25.390625 42.390625 31.78125 42.390625 
Q 38.140625 42.390625 41.71875 45.5625 
Q 45.3125 48.734375 45.3125 54.390625 
Q 45.3125 60.0625 41.71875 63.234375 
Q 38.140625 66.40625 31.78125 66.40625 
Q 25.390625 66.40625 21.84375 63.234375 
Q 18.3125 60.0625 18.3125 54.390625 
z
" id="DejaVuSans-56"/>
      </defs>
      <g transform="translate(421.168437 527.238438)scale(0.1 -0.1)">
       <use xlink:href="#DejaVuSans-48"/>
       <use x="63.623047" xlink:href="#DejaVuSans-46"/>
       <use x="95.410156" xlink:href="#DejaVuSans-56"/>
      </g>
     </g>
    </g>
    <g id="xtick_6">
     <g id="line2d_11">
      <path clip-path="url(#p88d45e9361)" d="M 518.4 512.64 
L 518.4 69.12 
" style="fill:none;stroke:#b0b0b0;stroke-linecap:square;stroke-width:0.8;"/>
     </g>
     <g id="line2d_12">
      <g>
       <use style="stroke:#000000;stroke-width:0.8;" x="518.4" xlink:href="#m7f84da39bd" y="512.64"/>
      </g>
     </g>
     <g id="text_6">
      <!-- 1.0 -->
      <defs>
       <path d="M 12.40625 8.296875 
L 28.515625 8.296875 
L 28.515625 63.921875 
L 10.984375 60.40625 
L 10.984375 69.390625 
L 28.421875 72.90625 
L 38.28125 72.90625 
L 38.28125 8.296875 
L 54.390625 8.296875 
L 54.390625 0 
L 12.40625 0 
z
" id="DejaVuSans-49"/>
      </defs>
      <g transform="translate(510.448437 527.238438)scale(0.1 -0.1)">
       <use xlink:href="#DejaVuSans-49"/>
       <use x="63.623047" xlink:href="#DejaVuSans-46"/>
       <use x="95.410156" xlink:href="#DejaVuSans-48"/>
      </g>
     </g>
    </g>
    <g id="text_7">
     <!-- False Positive Rate -->
     <defs>
      <path d="M 9.8125 72.90625 
L 51.703125 72.90625 
L 51.703125 64.59375 
L 19.671875 64.59375 
L 19.671875 43.109375 
L 48.578125 43.109375 
L 48.578125 34.8125 
L 19.671875 34.8125 
L 19.671875 0 
L 9.8125 0 
z
" id="DejaVuSans-70"/>
      <path d="M 34.28125 27.484375 
Q 23.390625 27.484375 19.1875 25 
Q 14.984375 22.515625 14.984375 16.5 
Q 14.984375 11.71875 18.140625 8.90625 
Q 21.296875 6.109375 26.703125 6.109375 
Q 34.1875 6.109375 38.703125 11.40625 
Q 43.21875 16.703125 43.21875 25.484375 
L 43.21875 27.484375 
z
M 52.203125 31.203125 
L 52.203125 0 
L 43.21875 0 
L 43.21875 8.296875 
Q 40.140625 3.328125 35.546875 0.953125 
Q 30.953125 -1.421875 24.3125 -1.421875 
Q 15.921875 -1.421875 10.953125 3.296875 
Q 6 8.015625 6 15.921875 
Q 6 25.140625 12.171875 29.828125 
Q 18.359375 34.515625 30.609375 34.515625 
L 43.21875 34.515625 
L 43.21875 35.40625 
Q 43.21875 41.609375 39.140625 45 
Q 35.0625 48.390625 27.6875 48.390625 
Q 23 48.390625 18.546875 47.265625 
Q 14.109375 46.140625 10.015625 43.890625 
L 10.015625 52.203125 
Q 14.9375 54.109375 19.578125 55.046875 
Q 24.21875 56 28.609375 56 
Q 40.484375 56 46.34375 49.84375 
Q 52.203125 43.703125 52.203125 31.203125 
z
" id="DejaVuSans-97"/>
      <path d="M 9.421875 75.984375 
L 18.40625 75.984375 
L 18.40625 0 
L 9.421875 0 
z
" id="DejaVuSans-108"/>
      <path d="M 44.28125 53.078125 
L 44.28125 44.578125 
Q 40.484375 46.53125 36.375 47.5 
Q 32.28125 48.484375 27.875 48.484375 
Q 21.1875 48.484375 17.84375 46.4375 
Q 14.5 44.390625 14.5 40.28125 
Q 14.5 37.15625 16.890625 35.375 
Q 19.28125 33.59375 26.515625 31.984375 
L 29.59375 31.296875 
Q 39.15625 29.25 43.1875 25.515625 
Q 47.21875 21.78125 47.21875 15.09375 
Q 47.21875 7.46875 41.1875 3.015625 
Q 35.15625 -1.421875 24.609375 -1.421875 
Q 20.21875 -1.421875 15.453125 -0.5625 
Q 10.6875 0.296875 5.421875 2 
L 5.421875 11.28125 
Q 10.40625 8.6875 15.234375 7.390625 
Q 20.0625 6.109375 24.8125 6.109375 
Q 31.15625 6.109375 34.5625 8.28125 
Q 37.984375 10.453125 37.984375 14.40625 
Q 37.984375 18.0625 35.515625 20.015625 
Q 33.0625 21.96875 24.703125 23.78125 
L 21.578125 24.515625 
Q 13.234375 26.265625 9.515625 29.90625 
Q 5.8125 33.546875 5.8125 39.890625 
Q 5.8125 47.609375 11.28125 51.796875 
Q 16.75 56 26.8125 56 
Q 31.78125 56 36.171875 55.265625 
Q 40.578125 54.546875 44.28125 53.078125 
z
" id="DejaVuSans-115"/>
      <path d="M 56.203125 29.59375 
L 56.203125 25.203125 
L 14.890625 25.203125 
Q 15.484375 15.921875 20.484375 11.0625 
Q 25.484375 6.203125 34.421875 6.203125 
Q 39.59375 6.203125 44.453125 7.46875 
Q 49.3125 8.734375 54.109375 11.28125 
L 54.109375 2.78125 
Q 49.265625 0.734375 44.1875 -0.34375 
Q 39.109375 -1.421875 33.890625 -1.421875 
Q 20.796875 -1.421875 13.15625 6.1875 
Q 5.515625 13.8125 5.515625 26.8125 
Q 5.515625 40.234375 12.765625 48.109375 
Q 20.015625 56 32.328125 56 
Q 43.359375 56 49.78125 48.890625 
Q 56.203125 41.796875 56.203125 29.59375 
z
M 47.21875 32.234375 
Q 47.125 39.59375 43.09375 43.984375 
Q 39.0625 48.390625 32.421875 48.390625 
Q 24.90625 48.390625 20.390625 44.140625 
Q 15.875 39.890625 15.1875 32.171875 
z
" id="DejaVuSans-101"/>
      <path id="DejaVuSans-32"/>
      <path d="M 19.671875 64.796875 
L 19.671875 37.40625 
L 32.078125 37.40625 
Q 38.96875 37.40625 42.71875 40.96875 
Q 46.484375 44.53125 46.484375 51.125 
Q 46.484375 57.671875 42.71875 61.234375 
Q 38.96875 64.796875 32.078125 64.796875 
z
M 9.8125 72.90625 
L 32.078125 72.90625 
Q 44.34375 72.90625 50.609375 67.359375 
Q 56.890625 61.8125 56.890625 51.125 
Q 56.890625 40.328125 50.609375 34.8125 
Q 44.34375 29.296875 32.078125 29.296875 
L 19.671875 29.296875 
L 19.671875 0 
L 9.8125 0 
z
" id="DejaVuSans-80"/>
      <path d="M 30.609375 48.390625 
Q 23.390625 48.390625 19.1875 42.75 
Q 14.984375 37.109375 14.984375 27.296875 
Q 14.984375 17.484375 19.15625 11.84375 
Q 23.34375 6.203125 30.609375 6.203125 
Q 37.796875 6.203125 41.984375 11.859375 
Q 46.1875 17.53125 46.1875 27.296875 
Q 46.1875 37.015625 41.984375 42.703125 
Q 37.796875 48.390625 30.609375 48.390625 
z
M 30.609375 56 
Q 42.328125 56 49.015625 48.375 
Q 55.71875 40.765625 55.71875 27.296875 
Q 55.71875 13.875 49.015625 6.21875 
Q 42.328125 -1.421875 30.609375 -1.421875 
Q 18.84375 -1.421875 12.171875 6.21875 
Q 5.515625 13.875 5.515625 27.296875 
Q 5.515625 40.765625 12.171875 48.375 
Q 18.84375 56 30.609375 56 
z
" id="DejaVuSans-111"/>
      <path d="M 9.421875 54.6875 
L 18.40625 54.6875 
L 18.40625 0 
L 9.421875 0 
z
M 9.421875 75.984375 
L 18.40625 75.984375 
L 18.40625 64.59375 
L 9.421875 64.59375 
z
" id="DejaVuSans-105"/>
      <path d="M 18.3125 70.21875 
L 18.3125 54.6875 
L 36.8125 54.6875 
L 36.8125 47.703125 
L 18.3125 47.703125 
L 18.3125 18.015625 
Q 18.3125 11.328125 20.140625 9.421875 
Q 21.96875 7.515625 27.59375 7.515625 
L 36.8125 7.515625 
L 36.8125 0 
L 27.59375 0 
Q 17.1875 0 13.234375 3.875 
Q 9.28125 7.765625 9.28125 18.015625 
L 9.28125 47.703125 
L 2.6875 47.703125 
L 2.6875 54.6875 
L 9.28125 54.6875 
L 9.28125 70.21875 
z
" id="DejaVuSans-116"/>
      <path d="M 2.984375 54.6875 
L 12.5 54.6875 
L 29.59375 8.796875 
L 46.6875 54.6875 
L 56.203125 54.6875 
L 35.6875 0 
L 23.484375 0 
z
" id="DejaVuSans-118"/>
      <path d="M 44.390625 34.1875 
Q 47.5625 33.109375 50.5625 29.59375 
Q 53.5625 26.078125 56.59375 19.921875 
L 66.609375 0 
L 56 0 
L 46.6875 18.703125 
Q 43.0625 26.03125 39.671875 28.421875 
Q 36.28125 30.8125 30.421875 30.8125 
L 19.671875 30.8125 
L 19.671875 0 
L 9.8125 0 
L 9.8125 72.90625 
L 32.078125 72.90625 
Q 44.578125 72.90625 50.734375 67.671875 
Q 56.890625 62.453125 56.890625 51.90625 
Q 56.890625 45.015625 53.6875 40.46875 
Q 50.484375 35.9375 44.390625 34.1875 
z
M 19.671875 64.796875 
L 19.671875 38.921875 
L 32.078125 38.921875 
Q 39.203125 38.921875 42.84375 42.21875 
Q 46.484375 45.515625 46.484375 51.90625 
Q 46.484375 58.296875 42.84375 61.546875 
Q 39.203125 64.796875 32.078125 64.796875 
z
" id="DejaVuSans-82"/>
     </defs>
     <g transform="translate(247.994531 540.916563)scale(0.1 -0.1)">
      <use xlink:href="#DejaVuSans-70"/>
      <use x="57.378906" xlink:href="#DejaVuSans-97"/>
      <use x="118.658203" xlink:href="#DejaVuSans-108"/>
      <use x="146.441406" xlink:href="#DejaVuSans-115"/>
      <use x="198.541016" xlink:href="#DejaVuSans-101"/>
      <use x="260.064453" xlink:href="#DejaVuSans-32"/>
      <use x="291.851562" xlink:href="#DejaVuSans-80"/>
      <use x="352.107422" xlink:href="#DejaVuSans-111"/>
      <use x="413.289062" xlink:href="#DejaVuSans-115"/>
      <use x="465.388672" xlink:href="#DejaVuSans-105"/>
      <use x="493.171875" xlink:href="#DejaVuSans-116"/>
      <use x="532.380859" xlink:href="#DejaVuSans-105"/>
      <use x="560.164062" xlink:href="#DejaVuSans-118"/>
      <use x="619.34375" xlink:href="#DejaVuSans-101"/>
      <use x="680.867188" xlink:href="#DejaVuSans-32"/>
      <use x="712.654297" xlink:href="#DejaVuSans-82"/>
      <use x="782.105469" xlink:href="#DejaVuSans-97"/>
      <use x="843.384766" xlink:href="#DejaVuSans-116"/>
      <use x="882.59375" xlink:href="#DejaVuSans-101"/>
     </g>
    </g>
   </g>
   <g id="matplotlib.axis_2">
    <g id="ytick_1">
     <g id="line2d_13">
      <path clip-path="url(#p88d45e9361)" d="M 72 512.64 
L 518.4 512.64 
" style="fill:none;stroke:#b0b0b0;stroke-linecap:square;stroke-width:0.8;"/>
     </g>
     <g id="line2d_14">
      <defs>
       <path d="M 0 0 
L -3.5 0 
" id="m2c251558b2" style="stroke:#000000;stroke-width:0.8;"/>
      </defs>
      <g>
       <use style="stroke:#000000;stroke-width:0.8;" x="72" xlink:href="#m2c251558b2" y="512.64"/>
      </g>
     </g>
     <g id="text_8">
      <!-- 0.0 -->
      <g transform="translate(49.096875 516.439219)scale(0.1 -0.1)">
       <use xlink:href="#DejaVuSans-48"/>
       <use x="63.623047" xlink:href="#DejaVuSans-46"/>
       <use x="95.410156" xlink:href="#DejaVuSans-48"/>
      </g>
     </g>
    </g>
    <g id="ytick_2">
     <g id="line2d_15">
      <path clip-path="url(#p88d45e9361)" d="M 72 428.16 
L 518.4 428.16 
" style="fill:none;stroke:#b0b0b0;stroke-linecap:square;stroke-width:0.8;"/>
     </g>
     <g id="line2d_16">
      <g>
       <use style="stroke:#000000;stroke-width:0.8;" x="72" xlink:href="#m2c251558b2" y="428.16"/>
      </g>
     </g>
     <g id="text_9">
      <!-- 0.2 -->
      <g transform="translate(49.096875 431.959219)scale(0.1 -0.1)">
       <use xlink:href="#DejaVuSans-48"/>
       <use x="63.623047" xlink:href="#DejaVuSans-46"/>
       <use x="95.410156" xlink:href="#DejaVuSans-50"/>
      </g>
     </g>
    </g>
    <g id="ytick_3">
     <g id="line2d_17">
      <path clip-path="url(#p88d45e9361)" d="M 72 343.68 
L 518.4 343.68 
" style="fill:none;stroke:#b0b0b0;stroke-linecap:square;stroke-width:0.8;"/>
     </g>
     <g id="line2d_18">
      <g>
       <use style="stroke:#000000;stroke-width:0.8;" x="72" xlink:href="#m2c251558b2" y="343.68"/>
      </g>
     </g>
     <g id="text_10">
      <!-- 0.4 -->
      <g transform="translate(49.096875 347.479219)scale(0.1 -0.1)">
       <use xlink:href="#DejaVuSans-48"/>
       <use x="63.623047" xlink:href="#DejaVuSans-46"/>
       <use x="95.410156" xlink:href="#DejaVuSans-52"/>
      </g>
     </g>
    </g>
    <g id="ytick_4">
     <g id="line2d_19">
      <path clip-path="url(#p88d45e9361)" d="M 72 259.2 
L 518.4 259.2 
" style="fill:none;stroke:#b0b0b0;stroke-linecap:square;stroke-width:0.8;"/>
     </g>
     <g id="line2d_20">
      <g>
       <use style="stroke:#000000;stroke-width:0.8;" x="72" xlink:href="#m2c251558b2" y="259.2"/>
      </g>
     </g>
     <g id="text_11">
      <!-- 0.6 -->
      <g transform="translate(49.096875 262.999219)scale(0.1 -0.1)">
       <use xlink:href="#DejaVuSans-48"/>
       <use x="63.623047" xlink:href="#DejaVuSans-46"/>
       <use x="95.410156" xlink:href="#DejaVuSans-54"/>
      </g>
     </g>
    </g>
    <g id="ytick_5">
     <g id="line2d_21">
      <path clip-path="url(#p88d45e9361)" d="M 72 174.72 
L 518.4 174.72 
" style="fill:none;stroke:#b0b0b0;stroke-linecap:square;stroke-width:0.8;"/>
     </g>
     <g id="line2d_22">
      <g>
       <use style="stroke:#000000;stroke-width:0.8;" x="72" xlink:href="#m2c251558b2" y="174.72"/>
      </g>
     </g>
     <g id="text_12">
      <!-- 0.8 -->
      <g transform="translate(49.096875 178.519219)scale(0.1 -0.1)">
       <use xlink:href="#DejaVuSans-48"/>
       <use x="63.623047" xlink:href="#DejaVuSans-46"/>
       <use x="95.410156" xlink:href="#DejaVuSans-56"/>
      </g>
     </g>
    </g>
    <g id="ytick_6">
     <g id="line2d_23">
      <path clip-path="url(#p88d45e9361)" d="M 72 90.24 
L 518.4 90.24 
" style="fill:none;stroke:#b0b0b0;stroke-linecap:square;stroke-width:0.8;"/>
     </g>
     <g id="line2d_24">
      <g>
       <use style="stroke:#000000;stroke-width:0.8;" x="72" xlink:href="#m2c251558b2" y="90.24"/>
      </g>
     </g>
     <g id="text_13">
      <!-- 1.0 -->
      <g transform="translate(49.096875 94.039219)scale(0.1 -0.1)">
       <use xlink:href="#DejaVuSans-49"/>
       <use x="63.623047" xlink:href="#DejaVuSans-46"/>
       <use x="95.410156" xlink:href="#DejaVuSans-48"/>
      </g>
     </g>
    </g>
    <g id="text_14">
     <!-- True Positive Rate -->
     <defs>
      <path d="M -0.296875 72.90625 
L 61.375 72.90625 
L 61.375 64.59375 
L 35.5 64.59375 
L 35.5 0 
L 25.59375 0 
L 25.59375 64.59375 
L -0.296875 64.59375 
z
" id="DejaVuSans-84"/>
      <path d="M 41.109375 46.296875 
Q 39.59375 47.171875 37.8125 47.578125 
Q 36.03125 48 33.890625 48 
Q 26.265625 48 22.1875 43.046875 
Q 18.109375 38.09375 18.109375 28.8125 
L 18.109375 0 
L 9.078125 0 
L 9.078125 54.6875 
L 18.109375 54.6875 
L 18.109375 46.1875 
Q 20.953125 51.171875 25.484375 53.578125 
Q 30.03125 56 36.53125 56 
Q 37.453125 56 38.578125 55.875 
Q 39.703125 55.765625 41.0625 55.515625 
z
" id="DejaVuSans-114"/>
      <path d="M 8.5 21.578125 
L 8.5 54.6875 
L 17.484375 54.6875 
L 17.484375 21.921875 
Q 17.484375 14.15625 20.5 10.265625 
Q 23.53125 6.390625 29.59375 6.390625 
Q 36.859375 6.390625 41.078125 11.03125 
Q 45.3125 15.671875 45.3125 23.6875 
L 45.3125 54.6875 
L 54.296875 54.6875 
L 54.296875 0 
L 45.3125 0 
L 45.3125 8.40625 
Q 42.046875 3.421875 37.71875 1 
Q 33.40625 -1.421875 27.6875 -1.421875 
Q 18.265625 -1.421875 13.375 4.4375 
Q 8.5 10.296875 8.5 21.578125 
z
M 31.109375 56 
z
" id="DejaVuSans-117"/>
     </defs>
     <g transform="translate(43.017187 336.426094)rotate(-90)scale(0.1 -0.1)">
      <use xlink:href="#DejaVuSans-84"/>
      <use x="60.865234" xlink:href="#DejaVuSans-114"/>
      <use x="101.978516" xlink:href="#DejaVuSans-117"/>
      <use x="165.357422" xlink:href="#DejaVuSans-101"/>
      <use x="226.880859" xlink:href="#DejaVuSans-32"/>
      <use x="258.667969" xlink:href="#DejaVuSans-80"/>
      <use x="318.923828" xlink:href="#DejaVuSans-111"/>
      <use x="380.105469" xlink:href="#DejaVuSans-115"/>
      <use x="432.205078" xlink:href="#DejaVuSans-105"/>
      <use x="459.988281" xlink:href="#DejaVuSans-116"/>
      <use x="499.197266" xlink:href="#DejaVuSans-105"/>
      <use x="526.980469" xlink:href="#DejaVuSans-118"/>
      <use x="586.160156" xlink:href="#DejaVuSans-101"/>
      <use x="647.683594" xlink:href="#DejaVuSans-32"/>
      <use x="679.470703" xlink:href="#DejaVuSans-82"/>
      <use x="748.921875" xlink:href="#DejaVuSans-97"/>
      <use x="810.201172" xlink:href="#DejaVuSans-116"/>
      <use x="849.410156" xlink:href="#DejaVuSans-101"/>
     </g>
    </g>
   </g>
   <g id="line2d_25">
    <path clip-path="url(#p88d45e9361)" d="M 72 512.64 
L 72 478.70359 
L 72.564349 478.70359 
L 72.564349 432.492308 
L 73.128698 432.492308 
L 73.128698 414.802051 
L 73.693047 414.802051 
L 73.693047 405.415385 
L 74.257396 405.415385 
L 74.257396 401.083077 
L 74.821745 401.083077 
L 74.821745 374.006154 
L 75.386094 374.006154 
L 75.386094 353.788718 
L 76.514791 353.788718 
L 76.514791 343.318974 
L 77.07914 343.318974 
L 77.07914 338.625641 
L 77.643489 338.625641 
L 77.643489 333.210256 
L 78.207838 333.210256 
L 78.207838 328.516923 
L 78.772187 328.516923 
L 78.772187 324.545641 
L 79.336536 324.545641 
L 79.336536 324.184615 
L 79.900885 324.184615 
L 79.900885 322.379487 
L 80.465234 322.379487 
L 80.465234 320.935385 
L 81.029583 320.935385 
L 81.029583 301.44 
L 81.593932 301.44 
L 81.593932 297.468718 
L 82.72263 297.468718 
L 82.72263 295.66359 
L 83.851327 295.66359 
L 83.851327 293.497436 
L 84.415676 293.497436 
L 84.415676 292.775385 
L 84.980025 292.775385 
L 84.980025 289.887179 
L 85.544374 289.887179 
L 85.544374 285.915897 
L 86.108723 285.915897 
L 86.108723 279.05641 
L 86.673072 279.05641 
L 86.673072 275.446154 
L 87.237421 275.446154 
L 87.237421 273.641026 
L 87.80177 273.641026 
L 87.80177 270.030769 
L 88.366119 270.030769 
L 88.366119 267.864615 
L 88.930468 267.864615 
L 88.930468 266.420513 
L 89.494817 266.420513 
L 89.494817 265.337436 
L 90.059166 265.337436 
L 90.059166 261.005128 
L 90.623515 261.005128 
L 90.623515 259.2 
L 91.752212 259.2 
L 91.752212 256.672821 
L 93.445259 256.672821 
L 93.445259 254.506667 
L 95.138306 254.506667 
L 95.138306 252.340513 
L 96.831353 252.340513 
L 96.831353 251.979487 
L 97.395702 251.979487 
L 97.395702 251.257436 
L 98.524399 251.257436 
L 98.524399 250.535385 
L 99.088748 250.535385 
L 99.088748 249.091282 
L 100.217446 249.091282 
L 100.217446 247.286154 
L 100.781795 247.286154 
L 100.781795 246.925128 
L 101.346144 246.925128 
L 101.346144 245.842051 
L 103.039191 245.842051 
L 103.039191 244.758974 
L 103.60354 244.758974 
L 103.60354 244.036923 
L 104.167889 244.036923 
L 104.167889 242.592821 
L 104.732238 242.592821 
L 104.732238 241.509744 
L 105.296587 241.509744 
L 105.296587 240.787692 
L 106.425284 240.787692 
L 106.425284 239.704615 
L 106.989633 239.704615 
L 106.989633 238.982564 
L 107.553982 238.982564 
L 107.553982 238.260513 
L 108.118331 238.260513 
L 108.118331 235.011282 
L 108.68268 235.011282 
L 108.68268 233.206154 
L 109.247029 233.206154 
L 109.247029 232.845128 
L 109.811378 232.845128 
L 109.811378 230.678974 
L 110.375727 230.678974 
L 110.375727 230.317949 
L 110.940076 230.317949 
L 110.940076 228.151795 
L 111.504425 228.151795 
L 111.504425 227.068718 
L 112.068774 227.068718 
L 112.068774 223.819487 
L 112.633123 223.819487 
L 112.633123 223.458462 
L 113.197472 223.458462 
L 113.197472 221.292308 
L 113.76182 221.292308 
L 113.76182 220.209231 
L 114.890518 220.209231 
L 114.890518 215.876923 
L 115.454867 215.876923 
L 115.454867 215.154872 
L 116.583565 215.154872 
L 116.583565 214.793846 
L 117.147914 214.793846 
L 117.147914 212.627692 
L 117.712263 212.627692 
L 117.712263 209.739487 
L 118.276612 209.739487 
L 118.276612 208.65641 
L 118.840961 208.65641 
L 118.840961 207.573333 
L 119.40531 207.573333 
L 119.40531 204.685128 
L 119.969659 204.685128 
L 119.969659 203.602051 
L 121.098357 203.602051 
L 121.098357 202.157949 
L 121.662705 202.157949 
L 121.662705 201.796923 
L 122.791403 201.796923 
L 122.791403 201.435897 
L 125.048799 201.435897 
L 125.048799 199.991795 
L 126.741846 199.991795 
L 126.741846 199.630769 
L 128.434893 199.630769 
L 128.434893 199.269744 
L 128.999241 199.269744 
L 128.999241 197.10359 
L 129.56359 197.10359 
L 129.56359 196.742564 
L 130.127939 196.742564 
L 130.127939 196.381538 
L 130.692288 196.381538 
L 130.692288 194.937436 
L 131.256637 194.937436 
L 131.256637 194.57641 
L 131.820986 194.57641 
L 131.820986 193.854359 
L 132.385335 193.854359 
L 132.385335 193.493333 
L 132.949684 193.493333 
L 132.949684 193.132308 
L 134.642731 193.132308 
L 134.642731 192.049231 
L 135.771429 192.049231 
L 135.771429 189.522051 
L 136.335777 189.522051 
L 136.335777 188.8 
L 136.900126 188.8 
L 136.900126 188.438974 
L 137.464475 188.438974 
L 137.464475 187.355897 
L 138.593173 187.355897 
L 138.593173 186.272821 
L 139.721871 186.272821 
L 139.721871 185.911795 
L 140.28622 185.911795 
L 140.28622 183.745641 
L 141.414918 183.745641 
L 141.414918 182.301538 
L 141.979267 182.301538 
L 141.979267 181.940513 
L 144.236662 181.940513 
L 144.236662 181.218462 
L 147.622756 181.218462 
L 147.622756 180.49641 
L 148.751454 180.49641 
L 148.751454 179.774359 
L 149.315803 179.774359 
L 149.315803 179.413333 
L 149.880152 179.413333 
L 149.880152 178.691282 
L 150.444501 178.691282 
L 150.444501 176.525128 
L 152.137547 176.525128 
L 152.137547 176.164103 
L 152.701896 176.164103 
L 152.701896 175.803077 
L 153.266245 175.803077 
L 153.266245 174.358974 
L 153.830594 174.358974 
L 153.830594 172.192821 
L 155.523641 172.192821 
L 155.523641 171.831795 
L 156.08799 171.831795 
L 156.08799 171.109744 
L 156.652339 171.109744 
L 156.652339 170.748718 
L 157.216688 170.748718 
L 157.216688 170.387692 
L 158.345386 170.387692 
L 158.345386 169.304615 
L 160.038432 169.304615 
L 160.038432 168.94359 
L 160.602781 168.94359 
L 160.602781 168.582564 
L 161.731479 168.582564 
L 161.731479 168.221538 
L 162.295828 168.221538 
L 162.295828 167.499487 
L 163.424526 167.499487 
L 163.424526 166.777436 
L 163.988875 166.777436 
L 163.988875 166.41641 
L 166.246271 166.41641 
L 166.246271 166.055385 
L 168.503666 166.055385 
L 168.503666 164.972308 
L 169.068015 164.972308 
L 169.068015 164.250256 
L 169.632364 164.250256 
L 169.632364 161.723077 
L 170.196713 161.723077 
L 170.196713 161.362051 
L 170.761062 161.362051 
L 170.761062 161.001026 
L 172.454109 161.001026 
L 172.454109 160.64 
L 173.582807 160.64 
L 173.582807 158.112821 
L 174.711504 158.112821 
L 174.711504 157.751795 
L 179.226296 157.751795 
L 179.226296 157.029744 
L 181.483692 157.029744 
L 181.483692 155.946667 
L 182.04804 155.946667 
L 182.04804 155.224615 
L 182.612389 155.224615 
L 182.612389 154.502564 
L 183.741087 154.502564 
L 183.741087 154.141538 
L 185.434134 154.141538 
L 185.434134 153.780513 
L 185.998483 153.780513 
L 185.998483 153.058462 
L 186.562832 153.058462 
L 186.562832 152.697436 
L 188.820228 152.697436 
L 188.820228 151.614359 
L 189.384576 151.614359 
L 189.384576 150.531282 
L 191.641972 150.531282 
L 191.641972 149.448205 
L 194.463717 149.448205 
L 194.463717 149.087179 
L 195.028066 149.087179 
L 195.028066 148.726154 
L 197.84981 148.726154 
L 197.84981 148.004103 
L 198.414159 148.004103 
L 198.414159 146.921026 
L 199.542857 146.921026 
L 199.542857 145.837949 
L 200.107206 145.837949 
L 200.107206 145.476923 
L 200.671555 145.476923 
L 200.671555 145.115897 
L 201.235904 145.115897 
L 201.235904 144.754872 
L 205.186346 144.754872 
L 205.186346 144.393846 
L 206.315044 144.393846 
L 206.315044 143.671795 
L 206.879393 143.671795 
L 206.879393 143.310769 
L 207.443742 143.310769 
L 207.443742 142.949744 
L 210.829836 142.949744 
L 210.829836 142.588718 
L 211.394185 142.588718 
L 211.394185 142.227692 
L 211.958534 142.227692 
L 211.958534 141.866667 
L 213.087231 141.866667 
L 213.087231 141.505641 
L 214.215929 141.505641 
L 214.215929 141.144615 
L 215.908976 141.144615 
L 215.908976 140.061538 
L 220.423767 140.061538 
L 220.423767 139.700513 
L 222.116814 139.700513 
L 222.116814 139.339487 
L 222.681163 139.339487 
L 222.681163 138.978462 
L 223.245512 138.978462 
L 223.245512 138.617436 
L 223.809861 138.617436 
L 223.809861 138.25641 
L 227.195954 138.25641 
L 227.195954 137.895385 
L 227.760303 137.895385 
L 227.760303 137.173333 
L 229.45335 137.173333 
L 229.45335 136.812308 
L 230.017699 136.812308 
L 230.017699 136.451282 
L 231.146397 136.451282 
L 231.146397 135.729231 
L 232.275095 135.729231 
L 232.275095 135.368205 
L 234.532491 135.368205 
L 234.532491 135.007179 
L 236.225537 135.007179 
L 236.225537 134.646154 
L 236.789886 134.646154 
L 236.789886 133.924103 
L 237.918584 133.924103 
L 237.918584 133.563077 
L 239.611631 133.563077 
L 239.611631 133.202051 
L 241.304678 133.202051 
L 241.304678 132.841026 
L 242.433375 132.841026 
L 242.433375 132.48 
L 242.997724 132.48 
L 242.997724 132.118974 
L 244.126422 132.118974 
L 244.126422 131.757949 
L 246.383818 131.757949 
L 246.383818 130.313846 
L 247.512516 130.313846 
L 247.512516 129.952821 
L 249.769912 129.952821 
L 249.769912 129.591795 
L 250.33426 129.591795 
L 250.33426 128.869744 
L 250.898609 128.869744 
L 250.898609 128.147692 
L 260.492541 128.147692 
L 260.492541 127.425641 
L 265.571681 127.425641 
L 265.571681 127.064615 
L 268.393426 127.064615 
L 268.393426 126.70359 
L 268.957775 126.70359 
L 268.957775 126.342564 
L 270.086473 126.342564 
L 270.086473 125.981538 
L 270.650822 125.981538 
L 270.650822 125.620513 
L 271.215171 125.620513 
L 271.215171 125.259487 
L 272.343869 125.259487 
L 272.343869 124.537436 
L 272.908217 124.537436 
L 272.908217 124.17641 
L 276.294311 124.17641 
L 276.294311 123.454359 
L 276.85866 123.454359 
L 276.85866 123.093333 
L 277.423009 123.093333 
L 277.423009 122.732308 
L 277.987358 122.732308 
L 277.987358 122.371282 
L 280.244753 122.371282 
L 280.244753 122.010256 
L 280.809102 122.010256 
L 280.809102 120.566154 
L 281.373451 120.566154 
L 281.373451 120.205128 
L 289.274336 120.205128 
L 289.274336 119.844103 
L 290.403034 119.844103 
L 290.403034 118.761026 
L 292.66043 118.761026 
L 292.66043 118.038974 
L 294.917826 118.038974 
L 294.917826 117.677949 
L 297.175221 117.677949 
L 297.175221 116.955897 
L 298.868268 116.955897 
L 298.868268 116.233846 
L 301.690013 116.233846 
L 301.690013 115.150769 
L 302.254362 115.150769 
L 302.254362 114.789744 
L 302.81871 114.789744 
L 302.81871 114.067692 
L 303.947408 114.067692 
L 303.947408 113.706667 
L 306.769153 113.706667 
L 306.769153 112.62359 
L 311.283944 112.62359 
L 311.283944 112.262564 
L 314.105689 112.262564 
L 314.105689 111.901538 
L 318.62048 111.901538 
L 318.62048 111.540513 
L 322.006574 111.540513 
L 322.006574 111.179487 
L 322.570923 111.179487 
L 322.570923 110.09641 
L 323.699621 110.09641 
L 323.699621 109.374359 
L 324.828319 109.374359 
L 324.828319 109.013333 
L 325.392668 109.013333 
L 325.392668 108.652308 
L 326.521365 108.652308 
L 326.521365 107.930256 
L 327.650063 107.930256 
L 327.650063 107.569231 
L 329.34311 107.569231 
L 329.34311 106.847179 
L 329.907459 106.847179 
L 329.907459 106.486154 
L 330.471808 106.486154 
L 330.471808 106.125128 
L 332.729204 106.125128 
L 332.729204 105.764103 
L 337.243995 105.764103 
L 337.243995 105.403077 
L 341.194437 105.403077 
L 341.194437 104.681026 
L 341.758786 104.681026 
L 341.758786 103.958974 
L 343.451833 103.958974 
L 343.451833 103.597949 
L 346.837927 103.597949 
L 346.837927 103.236923 
L 347.402276 103.236923 
L 347.402276 102.875897 
L 347.966625 102.875897 
L 347.966625 102.514872 
L 349.659671 102.514872 
L 349.659671 101.792821 
L 355.867509 101.792821 
L 355.867509 101.070769 
L 363.768394 101.070769 
L 363.768394 99.987692 
L 367.154488 99.987692 
L 367.154488 99.626667 
L 368.283186 99.626667 
L 368.283186 98.904615 
L 371.669279 98.904615 
L 371.669279 98.54359 
L 375.619722 98.54359 
L 375.619722 98.182564 
L 379.005815 98.182564 
L 379.005815 97.460513 
L 389.728445 97.460513 
L 389.728445 97.099487 
L 391.985841 97.099487 
L 391.985841 96.377436 
L 393.114539 96.377436 
L 393.114539 96.01641 
L 395.371934 96.01641 
L 395.371934 95.655385 
L 398.758028 95.655385 
L 398.758028 95.294359 
L 399.322377 95.294359 
L 399.322377 94.572308 
L 401.579772 94.572308 
L 401.579772 94.211282 
L 408.35196 94.211282 
L 408.35196 93.850256 
L 413.4311 93.850256 
L 413.4311 93.489231 
L 415.124147 93.489231 
L 415.124147 93.128205 
L 417.945891 93.128205 
L 417.945891 92.767179 
L 423.025032 92.767179 
L 423.025032 92.045128 
L 431.490265 92.045128 
L 431.490265 91.684103 
L 436.569406 91.684103 
L 436.569406 91.323077 
L 458.579014 91.323077 
L 458.579014 90.962051 
L 459.707712 90.962051 
L 459.707712 90.601026 
L 481.71732 90.601026 
L 481.71732 90.24 
L 518.4 90.24 
L 518.4 90.24 
" style="fill:none;stroke:#ff8c00;stroke-linecap:square;stroke-width:2;"/>
   </g>
   <g id="line2d_26">
    <path clip-path="url(#p88d45e9361)" d="M 72 512.64 
L 518.4 90.24 
" style="fill:none;stroke:#000080;stroke-dasharray:7.4,3.2;stroke-dashoffset:0;stroke-width:2;"/>
   </g>
   <g id="patch_3">
    <path d="M 72 512.64 
L 72 69.12 
" style="fill:none;stroke:#000000;stroke-linecap:square;stroke-linejoin:miter;stroke-width:0.8;"/>
   </g>
   <g id="patch_4">
    <path d="M 518.4 512.64 
L 518.4 69.12 
" style="fill:none;stroke:#000000;stroke-linecap:square;stroke-linejoin:miter;stroke-width:0.8;"/>
   </g>
   <g id="patch_5">
    <path d="M 72 512.64 
L 518.4 512.64 
" style="fill:none;stroke:#000000;stroke-linecap:square;stroke-linejoin:miter;stroke-width:0.8;"/>
   </g>
   <g id="patch_6">
    <path d="M 72 69.12 
L 518.4 69.12 
" style="fill:none;stroke:#000000;stroke-linecap:square;stroke-linejoin:miter;stroke-width:0.8;"/>
   </g>
   <g id="legend_1">
    <g id="patch_7">
     <path d="M 427.081875 509.64 
L 514.2 509.64 
Q 515.4 509.64 515.4 508.44 
L 515.4 500.233125 
Q 515.4 499.033125 514.2 499.033125 
L 427.081875 499.033125 
Q 425.881875 499.033125 425.881875 500.233125 
L 425.881875 508.44 
Q 425.881875 509.64 427.081875 509.64 
z
" style="fill:#ffffff;opacity:0.8;stroke:#cccccc;stroke-linejoin:miter;"/>
    </g>
    <g id="line2d_27">
     <path d="M 428.281875 503.892187 
L 440.281875 503.892187 
" style="fill:none;stroke:#ff8c00;stroke-linecap:square;stroke-width:2;"/>
    </g>
    <g id="line2d_28"/>
    <g id="text_15">
     <!-- D006262 (area =0.89) -->
     <defs>
      <path d="M 19.671875 64.796875 
L 19.671875 8.109375 
L 31.59375 8.109375 
Q 46.6875 8.109375 53.6875 14.9375 
Q 60.6875 21.78125 60.6875 36.53125 
Q 60.6875 51.171875 53.6875 57.984375 
Q 46.6875 64.796875 31.59375 64.796875 
z
M 9.8125 72.90625 
L 30.078125 72.90625 
Q 51.265625 72.90625 61.171875 64.09375 
Q 71.09375 55.28125 71.09375 36.53125 
Q 71.09375 17.671875 61.125 8.828125 
Q 51.171875 0 30.078125 0 
L 9.8125 0 
z
" id="DejaVuSans-68"/>
      <path d="M 31 75.875 
Q 24.46875 64.65625 21.28125 53.65625 
Q 18.109375 42.671875 18.109375 31.390625 
Q 18.109375 20.125 21.3125 9.0625 
Q 24.515625 -2 31 -13.1875 
L 23.1875 -13.1875 
Q 15.875 -1.703125 12.234375 9.375 
Q 8.59375 20.453125 8.59375 31.390625 
Q 8.59375 42.28125 12.203125 53.3125 
Q 15.828125 64.359375 23.1875 75.875 
z
" id="DejaVuSans-40"/>
      <path d="M 10.59375 45.40625 
L 73.1875 45.40625 
L 73.1875 37.203125 
L 10.59375 37.203125 
z
M 10.59375 25.484375 
L 73.1875 25.484375 
L 73.1875 17.1875 
L 10.59375 17.1875 
z
" id="DejaVuSans-61"/>
      <path d="M 10.984375 1.515625 
L 10.984375 10.5 
Q 14.703125 8.734375 18.5 7.8125 
Q 22.3125 6.890625 25.984375 6.890625 
Q 35.75 6.890625 40.890625 13.453125 
Q 46.046875 20.015625 46.78125 33.40625 
Q 43.953125 29.203125 39.59375 26.953125 
Q 35.25 24.703125 29.984375 24.703125 
Q 19.046875 24.703125 12.671875 31.3125 
Q 6.296875 37.9375 6.296875 49.421875 
Q 6.296875 60.640625 12.9375 67.421875 
Q 19.578125 74.21875 30.609375 74.21875 
Q 43.265625 74.21875 49.921875 64.515625 
Q 56.59375 54.828125 56.59375 36.375 
Q 56.59375 19.140625 48.40625 8.859375 
Q 40.234375 -1.421875 26.421875 -1.421875 
Q 22.703125 -1.421875 18.890625 -0.6875 
Q 15.09375 0.046875 10.984375 1.515625 
z
M 30.609375 32.421875 
Q 37.25 32.421875 41.125 36.953125 
Q 45.015625 41.5 45.015625 49.421875 
Q 45.015625 57.28125 41.125 61.84375 
Q 37.25 66.40625 30.609375 66.40625 
Q 23.96875 66.40625 20.09375 61.84375 
Q 16.21875 57.28125 16.21875 49.421875 
Q 16.21875 41.5 20.09375 36.953125 
Q 23.96875 32.421875 30.609375 32.421875 
z
" id="DejaVuSans-57"/>
      <path d="M 8.015625 75.875 
L 15.828125 75.875 
Q 23.140625 64.359375 26.78125 53.3125 
Q 30.421875 42.28125 30.421875 31.390625 
Q 30.421875 20.453125 26.78125 9.375 
Q 23.140625 -1.703125 15.828125 -13.1875 
L 8.015625 -13.1875 
Q 14.5 -2 17.703125 9.0625 
Q 20.90625 20.125 20.90625 31.390625 
Q 20.90625 42.671875 17.703125 53.65625 
Q 14.5 64.65625 8.015625 75.875 
z
" id="DejaVuSans-41"/>
     </defs>
     <g transform="translate(445.081875 505.992188)scale(0.06 -0.06)">
      <use xlink:href="#DejaVuSans-68"/>
      <use x="77.001953" xlink:href="#DejaVuSans-48"/>
      <use x="140.625" xlink:href="#DejaVuSans-48"/>
      <use x="204.248047" xlink:href="#DejaVuSans-54"/>
      <use x="267.871094" xlink:href="#DejaVuSans-50"/>
      <use x="331.494141" xlink:href="#DejaVuSans-54"/>
      <use x="395.117188" xlink:href="#DejaVuSans-50"/>
      <use x="458.740234" xlink:href="#DejaVuSans-32"/>
      <use x="490.527344" xlink:href="#DejaVuSans-40"/>
      <use x="529.541016" xlink:href="#DejaVuSans-97"/>
      <use x="590.820312" xlink:href="#DejaVuSans-114"/>
      <use x="631.902344" xlink:href="#DejaVuSans-101"/>
      <use x="693.425781" xlink:href="#DejaVuSans-97"/>
      <use x="754.705078" xlink:href="#DejaVuSans-32"/>
      <use x="786.492188" xlink:href="#DejaVuSans-61"/>
      <use x="870.28125" xlink:href="#DejaVuSans-48"/>
      <use x="933.904297" xlink:href="#DejaVuSans-46"/>
      <use x="965.691406" xlink:href="#DejaVuSans-56"/>
      <use x="1029.314453" xlink:href="#DejaVuSans-57"/>
      <use x="1092.9375" xlink:href="#DejaVuSans-41"/>
     </g>
    </g>
   </g>
  </g>
 </g>
 <defs>
  <clipPath id="p88d45e9361">
   <rect height="443.52" width="446.4" x="72" y="69.12"/>
  </clipPath>
 </defs>
</svg>
