<?xml version="1.0" encoding="utf-8" standalone="no"?>
<!DOCTYPE svg PUBLIC "-//W3C//DTD SVG 1.1//EN"
  "http://www.w3.org/Graphics/SVG/1.1/DTD/svg11.dtd">
<!-- Created with matplotlib (https://matplotlib.org/) -->
<svg height="432pt" version="1.1" viewBox="0 0 720 432" width="720pt" xmlns="http://www.w3.org/2000/svg" xmlns:xlink="http://www.w3.org/1999/xlink">
 <defs>
  <style type="text/css">
*{stroke-linecap:butt;stroke-linejoin:round;}
  </style>
 </defs>
 <g id="figure_1">
  <g id="patch_1">
   <path d="M 0 432 
L 720 432 
L 720 0 
L 0 0 
z
" style="fill:#ffffff;"/>
  </g>
  <g id="axes_1">
   <g id="patch_2">
    <path d="M 90 378 
L 648 378 
L 648 51.84 
L 90 51.84 
z
" style="fill:#ffffff;"/>
   </g>
   <g id="PathCollection_1">
    <defs>
     <path d="M 0 3 
C 0.795609 3 1.55874 2.683901 2.12132 2.12132 
C 2.683901 1.55874 3 0.795609 3 0 
C 3 -0.795609 2.683901 -1.55874 2.12132 -2.12132 
C 1.55874 -2.683901 0.795609 -3 0 -3 
C -0.795609 -3 -1.55874 -2.683901 -2.12132 -2.12132 
C -2.683901 -1.55874 -3 -0.795609 -3 0 
C -3 0.795609 -2.683901 1.55874 -2.12132 2.12132 
C -1.55874 2.683901 -0.795609 3 0 3 
z
" id="m3c48e0ecaf" style="stroke:#00bfc4;"/>
    </defs>
    <g clip-path="url(#pe58535a44f)">
     <use style="fill:#00bfc4;stroke:#00bfc4;" x="219.41921" xlink:href="#m3c48e0ecaf" y="127.850885"/>
     <use style="fill:#00bfc4;stroke:#00bfc4;" x="208.641001" xlink:href="#m3c48e0ecaf" y="312.290642"/>
     <use style="fill:#00bfc4;stroke:#00bfc4;" x="350.183999" xlink:href="#m3c48e0ecaf" y="327.489116"/>
     <use style="fill:#00bfc4;stroke:#00bfc4;" x="253.67035" xlink:href="#m3c48e0ecaf" y="117.090852"/>
     <use style="fill:#00bfc4;stroke:#00bfc4;" x="228.504557" xlink:href="#m3c48e0ecaf" y="293.252828"/>
     <use style="fill:#00bfc4;stroke:#00bfc4;" x="234.202838" xlink:href="#m3c48e0ecaf" y="333.386482"/>
     <use style="fill:#00bfc4;stroke:#00bfc4;" x="129.268339" xlink:href="#m3c48e0ecaf" y="288.304848"/>
     <use style="fill:#00bfc4;stroke:#00bfc4;" x="316.144342" xlink:href="#m3c48e0ecaf" y="88.401714"/>
     <use style="fill:#00bfc4;stroke:#00bfc4;" x="197.917069" xlink:href="#m3c48e0ecaf" y="343.659317"/>
     <use style="fill:#00bfc4;stroke:#00bfc4;" x="406.408606" xlink:href="#m3c48e0ecaf" y="98.263203"/>
    </g>
   </g>
   <g id="PathCollection_2">
    <defs>
     <path d="M 0 3 
C 0.795609 3 1.55874 2.683901 2.12132 2.12132 
C 2.683901 1.55874 3 0.795609 3 0 
C 3 -0.795609 2.683901 -1.55874 2.12132 -2.12132 
C 1.55874 -2.683901 0.795609 -3 0 -3 
C -0.795609 -3 -1.55874 -2.683901 -2.12132 -2.12132 
C -2.683901 -1.55874 -3 -0.795609 -3 0 
C -3 0.795609 -2.683901 1.55874 -2.12132 2.12132 
C -1.55874 2.683901 -0.795609 3 0 3 
z
" id="m25dabf45b8" style="stroke:#f8766d;"/>
    </defs>
    <g clip-path="url(#pe58535a44f)">
     <use style="fill:#f8766d;stroke:#f8766d;" x="523.908012" xlink:href="#m25dabf45b8" y="136.303265"/>
     <use style="fill:#f8766d;stroke:#f8766d;" x="349.296756" xlink:href="#m25dabf45b8" y="135.590072"/>
     <use style="fill:#f8766d;stroke:#f8766d;" x="269.72072" xlink:href="#m25dabf45b8" y="333.517161"/>
     <use style="fill:#f8766d;stroke:#f8766d;" x="490.560082" xlink:href="#m25dabf45b8" y="142.142546"/>
     <use style="fill:#f8766d;stroke:#f8766d;" x="464.143666" xlink:href="#m25dabf45b8" y="143.999502"/>
     <use style="fill:#f8766d;stroke:#f8766d;" x="411.638052" xlink:href="#m25dabf45b8" y="101.837829"/>
     <use style="fill:#f8766d;stroke:#f8766d;" x="166.132561" xlink:href="#m25dabf45b8" y="255.473748"/>
     <use style="fill:#f8766d;stroke:#f8766d;" x="409.477295" xlink:href="#m25dabf45b8" y="281.329568"/>
     <use style="fill:#f8766d;stroke:#f8766d;" x="509.237745" xlink:href="#m25dabf45b8" y="197.521402"/>
     <use style="fill:#f8766d;stroke:#f8766d;" x="450.016061" xlink:href="#m25dabf45b8" y="247.358944"/>
     <use style="fill:#f8766d;stroke:#f8766d;" x="190.688661" xlink:href="#m25dabf45b8" y="300.353205"/>
     <use style="fill:#f8766d;stroke:#f8766d;" x="397.61891" xlink:href="#m25dabf45b8" y="69.252882"/>
     <use style="fill:#f8766d;stroke:#f8766d;" x="418.579524" xlink:href="#m25dabf45b8" y="144.210355"/>
     <use style="fill:#f8766d;stroke:#f8766d;" x="445.585814" xlink:href="#m25dabf45b8" y="314.889937"/>
     <use style="fill:#f8766d;stroke:#f8766d;" x="620.994752" xlink:href="#m25dabf45b8" y="213.937493"/>
     <use style="fill:#f8766d;stroke:#f8766d;" x="617.345408" xlink:href="#m25dabf45b8" y="213.356152"/>
     <use style="fill:#f8766d;stroke:#f8766d;" x="393.522625" xlink:href="#m25dabf45b8" y="127.717674"/>
     <use style="fill:#f8766d;stroke:#f8766d;" x="350.836497" xlink:href="#m25dabf45b8" y="169.4476"/>
     <use style="fill:#f8766d;stroke:#f8766d;" x="389.733202" xlink:href="#m25dabf45b8" y="205.966234"/>
     <use style="fill:#f8766d;stroke:#f8766d;" x="250.360835" xlink:href="#m25dabf45b8" y="193.761882"/>
     <use style="fill:#f8766d;stroke:#f8766d;" x="280.538136" xlink:href="#m25dabf45b8" y="190.815767"/>
     <use style="fill:#f8766d;stroke:#f8766d;" x="437.352638" xlink:href="#m25dabf45b8" y="129.678952"/>
     <use style="fill:#f8766d;stroke:#f8766d;" x="376.408016" xlink:href="#m25dabf45b8" y="151.465226"/>
     <use style="fill:#f8766d;stroke:#f8766d;" x="293.671866" xlink:href="#m25dabf45b8" y="225.812697"/>
     <use style="fill:#f8766d;stroke:#f8766d;" x="117.005248" xlink:href="#m25dabf45b8" y="246.764073"/>
     <use style="fill:#f8766d;stroke:#f8766d;" x="427.206092" xlink:href="#m25dabf45b8" y="215.479537"/>
     <use style="fill:#f8766d;stroke:#f8766d;" x="244.244449" xlink:href="#m25dabf45b8" y="248.111698"/>
     <use style="fill:#f8766d;stroke:#f8766d;" x="161.928439" xlink:href="#m25dabf45b8" y="230.137034"/>
     <use style="fill:#f8766d;stroke:#f8766d;" x="606.033619" xlink:href="#m25dabf45b8" y="143.317405"/>
     <use style="fill:#f8766d;stroke:#f8766d;" x="259.219553" xlink:href="#m25dabf45b8" y="132.583789"/>
     <use style="fill:#f8766d;stroke:#f8766d;" x="402.36837" xlink:href="#m25dabf45b8" y="255.986608"/>
     <use style="fill:#f8766d;stroke:#f8766d;" x="279.344937" xlink:href="#m25dabf45b8" y="270.882165"/>
     <use style="fill:#f8766d;stroke:#f8766d;" x="344.498171" xlink:href="#m25dabf45b8" y="321.743736"/>
     <use style="fill:#f8766d;stroke:#f8766d;" x="240.359967" xlink:href="#m25dabf45b8" y="156.603685"/>
     <use style="fill:#f8766d;stroke:#f8766d;" x="528.153395" xlink:href="#m25dabf45b8" y="170.035539"/>
     <use style="fill:#f8766d;stroke:#f8766d;" x="451.557031" xlink:href="#m25dabf45b8" y="83.974431"/>
     <use style="fill:#f8766d;stroke:#f8766d;" x="470.622909" xlink:href="#m25dabf45b8" y="191.407259"/>
     <use style="fill:#f8766d;stroke:#f8766d;" x="464.780859" xlink:href="#m25dabf45b8" y="122.331795"/>
     <use style="fill:#f8766d;stroke:#f8766d;" x="453.643727" xlink:href="#m25dabf45b8" y="175.764858"/>
     <use style="fill:#f8766d;stroke:#f8766d;" x="324.858851" xlink:href="#m25dabf45b8" y="360.587118"/>
     <use style="fill:#f8766d;stroke:#f8766d;" x="506.906398" xlink:href="#m25dabf45b8" y="93.235319"/>
     <use style="fill:#f8766d;stroke:#f8766d;" x="371.030891" xlink:href="#m25dabf45b8" y="269.169763"/>
     <use style="fill:#f8766d;stroke:#f8766d;" x="347.649787" xlink:href="#m25dabf45b8" y="118.630346"/>
     <use style="fill:#f8766d;stroke:#f8766d;" x="476.433338" xlink:href="#m25dabf45b8" y="169.587974"/>
     <use style="fill:#f8766d;stroke:#f8766d;" x="302.692439" xlink:href="#m25dabf45b8" y="140.024978"/>
     <use style="fill:#f8766d;stroke:#f8766d;" x="157.174629" xlink:href="#m25dabf45b8" y="301.892723"/>
     <use style="fill:#f8766d;stroke:#f8766d;" x="345.453706" xlink:href="#m25dabf45b8" y="175.123404"/>
     <use style="fill:#f8766d;stroke:#f8766d;" x="506.70565" xlink:href="#m25dabf45b8" y="96.259283"/>
     <use style="fill:#f8766d;stroke:#f8766d;" x="390.236021" xlink:href="#m25dabf45b8" y="240.037488"/>
     <use style="fill:#f8766d;stroke:#f8766d;" x="340.419744" xlink:href="#m25dabf45b8" y="195.684033"/>
     <use style="fill:#f8766d;stroke:#f8766d;" x="298.048315" xlink:href="#m25dabf45b8" y="269.842768"/>
     <use style="fill:#f8766d;stroke:#f8766d;" x="193.381193" xlink:href="#m25dabf45b8" y="240.651286"/>
     <use style="fill:#f8766d;stroke:#f8766d;" x="416.197716" xlink:href="#m25dabf45b8" y="187.127785"/>
     <use style="fill:#f8766d;stroke:#f8766d;" x="305.283409" xlink:href="#m25dabf45b8" y="282.40509"/>
     <use style="fill:#f8766d;stroke:#f8766d;" x="482.54119" xlink:href="#m25dabf45b8" y="222.181336"/>
     <use style="fill:#f8766d;stroke:#f8766d;" x="514.676694" xlink:href="#m25dabf45b8" y="94.976339"/>
     <use style="fill:#f8766d;stroke:#f8766d;" x="502.090451" xlink:href="#m25dabf45b8" y="258.753155"/>
     <use style="fill:#f8766d;stroke:#f8766d;" x="190.202059" xlink:href="#m25dabf45b8" y="192.635522"/>
     <use style="fill:#f8766d;stroke:#f8766d;" x="432.008504" xlink:href="#m25dabf45b8" y="157.900259"/>
     <use style="fill:#f8766d;stroke:#f8766d;" x="299.964254" xlink:href="#m25dabf45b8" y="321.057956"/>
     <use style="fill:#f8766d;stroke:#f8766d;" x="153.090573" xlink:href="#m25dabf45b8" y="223.182008"/>
    </g>
   </g>
   <g id="matplotlib.axis_1">
    <g id="xtick_1">
     <g id="line2d_1">
      <defs>
       <path d="M 0 0 
L 0 3.5 
" id="m6463a3ab25" style="stroke:#000000;stroke-width:0.8;"/>
      </defs>
      <g>
       <use style="stroke:#000000;stroke-width:0.8;" x="94.982036" xlink:href="#m6463a3ab25" y="378"/>
      </g>
     </g>
     <g id="text_1">
      <!-- −6 -->
      <defs>
       <path d="M 10.59375 35.5 
L 73.1875 35.5 
L 73.1875 27.203125 
L 10.59375 27.203125 
z
" id="DejaVuSans-8722"/>
       <path d="M 33.015625 40.375 
Q 26.375 40.375 22.484375 35.828125 
Q 18.609375 31.296875 18.609375 23.390625 
Q 18.609375 15.53125 22.484375 10.953125 
Q 26.375 6.390625 33.015625 6.390625 
Q 39.65625 6.390625 43.53125 10.953125 
Q 47.40625 15.53125 47.40625 23.390625 
Q 47.40625 31.296875 43.53125 35.828125 
Q 39.65625 40.375 33.015625 40.375 
z
M 52.59375 71.296875 
L 52.59375 62.3125 
Q 48.875 64.0625 45.09375 64.984375 
Q 41.3125 65.921875 37.59375 65.921875 
Q 27.828125 65.921875 22.671875 59.328125 
Q 17.53125 52.734375 16.796875 39.40625 
Q 19.671875 43.65625 24.015625 45.921875 
Q 28.375 48.1875 33.59375 48.1875 
Q 44.578125 48.1875 50.953125 41.515625 
Q 57.328125 34.859375 57.328125 23.390625 
Q 57.328125 12.15625 50.6875 5.359375 
Q 44.046875 -1.421875 33.015625 -1.421875 
Q 20.359375 -1.421875 13.671875 8.265625 
Q 6.984375 17.96875 6.984375 36.375 
Q 6.984375 53.65625 15.1875 63.9375 
Q 23.390625 74.21875 37.203125 74.21875 
Q 40.921875 74.21875 44.703125 73.484375 
Q 48.484375 72.75 52.59375 71.296875 
z
" id="DejaVuSans-54"/>
      </defs>
      <g transform="translate(87.610942 392.598437)scale(0.1 -0.1)">
       <use xlink:href="#DejaVuSans-8722"/>
       <use x="83.789062" xlink:href="#DejaVuSans-54"/>
      </g>
     </g>
    </g>
    <g id="xtick_2">
     <g id="line2d_2">
      <g>
       <use style="stroke:#000000;stroke-width:0.8;" x="177.080161" xlink:href="#m6463a3ab25" y="378"/>
      </g>
     </g>
     <g id="text_2">
      <!-- −4 -->
      <defs>
       <path d="M 37.796875 64.3125 
L 12.890625 25.390625 
L 37.796875 25.390625 
z
M 35.203125 72.90625 
L 47.609375 72.90625 
L 47.609375 25.390625 
L 58.015625 25.390625 
L 58.015625 17.1875 
L 47.609375 17.1875 
L 47.609375 0 
L 37.796875 0 
L 37.796875 17.1875 
L 4.890625 17.1875 
L 4.890625 26.703125 
z
" id="DejaVuSans-52"/>
      </defs>
      <g transform="translate(169.709067 392.598437)scale(0.1 -0.1)">
       <use xlink:href="#DejaVuSans-8722"/>
       <use x="83.789062" xlink:href="#DejaVuSans-52"/>
      </g>
     </g>
    </g>
    <g id="xtick_3">
     <g id="line2d_3">
      <g>
       <use style="stroke:#000000;stroke-width:0.8;" x="259.178286" xlink:href="#m6463a3ab25" y="378"/>
      </g>
     </g>
     <g id="text_3">
      <!-- −2 -->
      <defs>
       <path d="M 19.1875 8.296875 
L 53.609375 8.296875 
L 53.609375 0 
L 7.328125 0 
L 7.328125 8.296875 
Q 12.9375 14.109375 22.625 23.890625 
Q 32.328125 33.6875 34.8125 36.53125 
Q 39.546875 41.84375 41.421875 45.53125 
Q 43.3125 49.21875 43.3125 52.78125 
Q 43.3125 58.59375 39.234375 62.25 
Q 35.15625 65.921875 28.609375 65.921875 
Q 23.96875 65.921875 18.8125 64.3125 
Q 13.671875 62.703125 7.8125 59.421875 
L 7.8125 69.390625 
Q 13.765625 71.78125 18.9375 73 
Q 24.125 74.21875 28.421875 74.21875 
Q 39.75 74.21875 46.484375 68.546875 
Q 53.21875 62.890625 53.21875 53.421875 
Q 53.21875 48.921875 51.53125 44.890625 
Q 49.859375 40.875 45.40625 35.40625 
Q 44.1875 33.984375 37.640625 27.21875 
Q 31.109375 20.453125 19.1875 8.296875 
z
" id="DejaVuSans-50"/>
      </defs>
      <g transform="translate(251.807193 392.598437)scale(0.1 -0.1)">
       <use xlink:href="#DejaVuSans-8722"/>
       <use x="83.789062" xlink:href="#DejaVuSans-50"/>
      </g>
     </g>
    </g>
    <g id="xtick_4">
     <g id="line2d_4">
      <g>
       <use style="stroke:#000000;stroke-width:0.8;" x="341.276412" xlink:href="#m6463a3ab25" y="378"/>
      </g>
     </g>
     <g id="text_4">
      <!-- 0 -->
      <defs>
       <path d="M 31.78125 66.40625 
Q 24.171875 66.40625 20.328125 58.90625 
Q 16.5 51.421875 16.5 36.375 
Q 16.5 21.390625 20.328125 13.890625 
Q 24.171875 6.390625 31.78125 6.390625 
Q 39.453125 6.390625 43.28125 13.890625 
Q 47.125 21.390625 47.125 36.375 
Q 47.125 51.421875 43.28125 58.90625 
Q 39.453125 66.40625 31.78125 66.40625 
z
M 31.78125 74.21875 
Q 44.046875 74.21875 50.515625 64.515625 
Q 56.984375 54.828125 56.984375 36.375 
Q 56.984375 17.96875 50.515625 8.265625 
Q 44.046875 -1.421875 31.78125 -1.421875 
Q 19.53125 -1.421875 13.0625 8.265625 
Q 6.59375 17.96875 6.59375 36.375 
Q 6.59375 54.828125 13.0625 64.515625 
Q 19.53125 74.21875 31.78125 74.21875 
z
" id="DejaVuSans-48"/>
      </defs>
      <g transform="translate(338.095162 392.598437)scale(0.1 -0.1)">
       <use xlink:href="#DejaVuSans-48"/>
      </g>
     </g>
    </g>
    <g id="xtick_5">
     <g id="line2d_5">
      <g>
       <use style="stroke:#000000;stroke-width:0.8;" x="423.374537" xlink:href="#m6463a3ab25" y="378"/>
      </g>
     </g>
     <g id="text_5">
      <!-- 2 -->
      <g transform="translate(420.193287 392.598437)scale(0.1 -0.1)">
       <use xlink:href="#DejaVuSans-50"/>
      </g>
     </g>
    </g>
    <g id="xtick_6">
     <g id="line2d_6">
      <g>
       <use style="stroke:#000000;stroke-width:0.8;" x="505.472662" xlink:href="#m6463a3ab25" y="378"/>
      </g>
     </g>
     <g id="text_6">
      <!-- 4 -->
      <g transform="translate(502.291412 392.598437)scale(0.1 -0.1)">
       <use xlink:href="#DejaVuSans-52"/>
      </g>
     </g>
    </g>
    <g id="xtick_7">
     <g id="line2d_7">
      <g>
       <use style="stroke:#000000;stroke-width:0.8;" x="587.570788" xlink:href="#m6463a3ab25" y="378"/>
      </g>
     </g>
     <g id="text_7">
      <!-- 6 -->
      <g transform="translate(584.389538 392.598437)scale(0.1 -0.1)">
       <use xlink:href="#DejaVuSans-54"/>
      </g>
     </g>
    </g>
    <g id="text_8">
     <!-- tSNE-1 -->
     <defs>
      <path d="M 18.3125 70.21875 
L 18.3125 54.6875 
L 36.8125 54.6875 
L 36.8125 47.703125 
L 18.3125 47.703125 
L 18.3125 18.015625 
Q 18.3125 11.328125 20.140625 9.421875 
Q 21.96875 7.515625 27.59375 7.515625 
L 36.8125 7.515625 
L 36.8125 0 
L 27.59375 0 
Q 17.1875 0 13.234375 3.875 
Q 9.28125 7.765625 9.28125 18.015625 
L 9.28125 47.703125 
L 2.6875 47.703125 
L 2.6875 54.6875 
L 9.28125 54.6875 
L 9.28125 70.21875 
z
" id="DejaVuSans-116"/>
      <path d="M 53.515625 70.515625 
L 53.515625 60.890625 
Q 47.90625 63.578125 42.921875 64.890625 
Q 37.9375 66.21875 33.296875 66.21875 
Q 25.25 66.21875 20.875 63.09375 
Q 16.5 59.96875 16.5 54.203125 
Q 16.5 49.359375 19.40625 46.890625 
Q 22.3125 44.4375 30.421875 42.921875 
L 36.375 41.703125 
Q 47.40625 39.59375 52.65625 34.296875 
Q 57.90625 29 57.90625 20.125 
Q 57.90625 9.515625 50.796875 4.046875 
Q 43.703125 -1.421875 29.984375 -1.421875 
Q 24.8125 -1.421875 18.96875 -0.25 
Q 13.140625 0.921875 6.890625 3.21875 
L 6.890625 13.375 
Q 12.890625 10.015625 18.65625 8.296875 
Q 24.421875 6.59375 29.984375 6.59375 
Q 38.421875 6.59375 43.015625 9.90625 
Q 47.609375 13.234375 47.609375 19.390625 
Q 47.609375 24.75 44.3125 27.78125 
Q 41.015625 30.8125 33.5 32.328125 
L 27.484375 33.5 
Q 16.453125 35.6875 11.515625 40.375 
Q 6.59375 45.0625 6.59375 53.421875 
Q 6.59375 63.09375 13.40625 68.65625 
Q 20.21875 74.21875 32.171875 74.21875 
Q 37.3125 74.21875 42.625 73.28125 
Q 47.953125 72.359375 53.515625 70.515625 
z
" id="DejaVuSans-83"/>
      <path d="M 9.8125 72.90625 
L 23.09375 72.90625 
L 55.421875 11.921875 
L 55.421875 72.90625 
L 64.984375 72.90625 
L 64.984375 0 
L 51.703125 0 
L 19.390625 60.984375 
L 19.390625 0 
L 9.8125 0 
z
" id="DejaVuSans-78"/>
      <path d="M 9.8125 72.90625 
L 55.90625 72.90625 
L 55.90625 64.59375 
L 19.671875 64.59375 
L 19.671875 43.015625 
L 54.390625 43.015625 
L 54.390625 34.71875 
L 19.671875 34.71875 
L 19.671875 8.296875 
L 56.78125 8.296875 
L 56.78125 0 
L 9.8125 0 
z
" id="DejaVuSans-69"/>
      <path d="M 4.890625 31.390625 
L 31.203125 31.390625 
L 31.203125 23.390625 
L 4.890625 23.390625 
z
" id="DejaVuSans-45"/>
      <path d="M 12.40625 8.296875 
L 28.515625 8.296875 
L 28.515625 63.921875 
L 10.984375 60.40625 
L 10.984375 69.390625 
L 28.421875 72.90625 
L 38.28125 72.90625 
L 38.28125 8.296875 
L 54.390625 8.296875 
L 54.390625 0 
L 12.40625 0 
z
" id="DejaVuSans-49"/>
     </defs>
     <g transform="translate(351.980469 406.276563)scale(0.1 -0.1)">
      <use xlink:href="#DejaVuSans-116"/>
      <use x="39.208984" xlink:href="#DejaVuSans-83"/>
      <use x="102.685547" xlink:href="#DejaVuSans-78"/>
      <use x="177.490234" xlink:href="#DejaVuSans-69"/>
      <use x="240.673828" xlink:href="#DejaVuSans-45"/>
      <use x="276.757812" xlink:href="#DejaVuSans-49"/>
     </g>
    </g>
   </g>
   <g id="matplotlib.axis_2">
    <g id="ytick_1">
     <g id="line2d_8">
      <defs>
       <path d="M 0 0 
L -3.5 0 
" id="m3a438872f4" style="stroke:#000000;stroke-width:0.8;"/>
      </defs>
      <g>
       <use style="stroke:#000000;stroke-width:0.8;" x="90" xlink:href="#m3a438872f4" y="352.220298"/>
      </g>
     </g>
     <g id="text_9">
      <!-- −6 -->
      <g transform="translate(68.257812 356.019517)scale(0.1 -0.1)">
       <use xlink:href="#DejaVuSans-8722"/>
       <use x="83.789062" xlink:href="#DejaVuSans-54"/>
      </g>
     </g>
    </g>
    <g id="ytick_2">
     <g id="line2d_9">
      <g>
       <use style="stroke:#000000;stroke-width:0.8;" x="90" xlink:href="#m3a438872f4" y="300.648461"/>
      </g>
     </g>
     <g id="text_10">
      <!-- −4 -->
      <g transform="translate(68.257812 304.44768)scale(0.1 -0.1)">
       <use xlink:href="#DejaVuSans-8722"/>
       <use x="83.789062" xlink:href="#DejaVuSans-52"/>
      </g>
     </g>
    </g>
    <g id="ytick_3">
     <g id="line2d_10">
      <g>
       <use style="stroke:#000000;stroke-width:0.8;" x="90" xlink:href="#m3a438872f4" y="249.076624"/>
      </g>
     </g>
     <g id="text_11">
      <!-- −2 -->
      <g transform="translate(68.257812 252.875842)scale(0.1 -0.1)">
       <use xlink:href="#DejaVuSans-8722"/>
       <use x="83.789062" xlink:href="#DejaVuSans-50"/>
      </g>
     </g>
    </g>
    <g id="ytick_4">
     <g id="line2d_11">
      <g>
       <use style="stroke:#000000;stroke-width:0.8;" x="90" xlink:href="#m3a438872f4" y="197.504786"/>
      </g>
     </g>
     <g id="text_12">
      <!-- 0 -->
      <g transform="translate(76.6375 201.304005)scale(0.1 -0.1)">
       <use xlink:href="#DejaVuSans-48"/>
      </g>
     </g>
    </g>
    <g id="ytick_5">
     <g id="line2d_12">
      <g>
       <use style="stroke:#000000;stroke-width:0.8;" x="90" xlink:href="#m3a438872f4" y="145.932949"/>
      </g>
     </g>
     <g id="text_13">
      <!-- 2 -->
      <g transform="translate(76.6375 149.732168)scale(0.1 -0.1)">
       <use xlink:href="#DejaVuSans-50"/>
      </g>
     </g>
    </g>
    <g id="ytick_6">
     <g id="line2d_13">
      <g>
       <use style="stroke:#000000;stroke-width:0.8;" x="90" xlink:href="#m3a438872f4" y="94.361112"/>
      </g>
     </g>
     <g id="text_14">
      <!-- 4 -->
      <g transform="translate(76.6375 98.160331)scale(0.1 -0.1)">
       <use xlink:href="#DejaVuSans-52"/>
      </g>
     </g>
    </g>
    <g id="text_15">
     <!-- tSNE-2 -->
     <g transform="translate(62.178125 231.939531)rotate(-90)scale(0.1 -0.1)">
      <use xlink:href="#DejaVuSans-116"/>
      <use x="39.208984" xlink:href="#DejaVuSans-83"/>
      <use x="102.685547" xlink:href="#DejaVuSans-78"/>
      <use x="177.490234" xlink:href="#DejaVuSans-69"/>
      <use x="240.673828" xlink:href="#DejaVuSans-45"/>
      <use x="276.757812" xlink:href="#DejaVuSans-50"/>
     </g>
    </g>
   </g>
   <g id="patch_3">
    <path d="M 90 378 
L 90 51.84 
" style="fill:none;stroke:#000000;stroke-linecap:square;stroke-linejoin:miter;stroke-width:0.8;"/>
   </g>
   <g id="patch_4">
    <path d="M 648 378 
L 648 51.84 
" style="fill:none;stroke:#000000;stroke-linecap:square;stroke-linejoin:miter;stroke-width:0.8;"/>
   </g>
   <g id="patch_5">
    <path d="M 90 378 
L 648 378 
" style="fill:none;stroke:#000000;stroke-linecap:square;stroke-linejoin:miter;stroke-width:0.8;"/>
   </g>
   <g id="patch_6">
    <path d="M 90 51.84 
L 648 51.84 
" style="fill:none;stroke:#000000;stroke-linecap:square;stroke-linejoin:miter;stroke-width:0.8;"/>
   </g>
   <g id="legend_1">
    <g id="patch_7">
     <path d="M 563.125 89.19625 
L 641 89.19625 
Q 643 89.19625 643 87.19625 
L 643 58.84 
Q 643 56.84 641 56.84 
L 563.125 56.84 
Q 561.125 56.84 561.125 58.84 
L 561.125 87.19625 
Q 561.125 89.19625 563.125 89.19625 
z
" style="fill:#ffffff;opacity:0.8;stroke:#cccccc;stroke-linejoin:miter;"/>
    </g>
    <g id="PathCollection_3">
     <g>
      <use style="fill:#00bfc4;stroke:#00bfc4;" x="575.125" xlink:href="#m3c48e0ecaf" y="65.813437"/>
     </g>
    </g>
    <g id="text_16">
     <!-- D006262 -->
     <defs>
      <path d="M 19.671875 64.796875 
L 19.671875 8.109375 
L 31.59375 8.109375 
Q 46.6875 8.109375 53.6875 14.9375 
Q 60.6875 21.78125 60.6875 36.53125 
Q 60.6875 51.171875 53.6875 57.984375 
Q 46.6875 64.796875 31.59375 64.796875 
z
M 9.8125 72.90625 
L 30.078125 72.90625 
Q 51.265625 72.90625 61.171875 64.09375 
Q 71.09375 55.28125 71.09375 36.53125 
Q 71.09375 17.671875 61.125 8.828125 
Q 51.171875 0 30.078125 0 
L 9.8125 0 
z
" id="DejaVuSans-68"/>
     </defs>
     <g transform="translate(593.125 68.438437)scale(0.1 -0.1)">
      <use xlink:href="#DejaVuSans-68"/>
      <use x="77.001953" xlink:href="#DejaVuSans-48"/>
      <use x="140.625" xlink:href="#DejaVuSans-48"/>
      <use x="204.248047" xlink:href="#DejaVuSans-54"/>
      <use x="267.871094" xlink:href="#DejaVuSans-50"/>
      <use x="331.494141" xlink:href="#DejaVuSans-54"/>
      <use x="395.117188" xlink:href="#DejaVuSans-50"/>
     </g>
    </g>
    <g id="PathCollection_4">
     <g>
      <use style="fill:#f8766d;stroke:#f8766d;" x="575.125" xlink:href="#m25dabf45b8" y="80.491562"/>
     </g>
    </g>
    <g id="text_17">
     <!-- D015497 -->
     <defs>
      <path d="M 10.796875 72.90625 
L 49.515625 72.90625 
L 49.515625 64.59375 
L 19.828125 64.59375 
L 19.828125 46.734375 
Q 21.96875 47.46875 24.109375 47.828125 
Q 26.265625 48.1875 28.421875 48.1875 
Q 40.625 48.1875 47.75 41.5 
Q 54.890625 34.8125 54.890625 23.390625 
Q 54.890625 11.625 47.5625 5.09375 
Q 40.234375 -1.421875 26.90625 -1.421875 
Q 22.3125 -1.421875 17.546875 -0.640625 
Q 12.796875 0.140625 7.71875 1.703125 
L 7.71875 11.625 
Q 12.109375 9.234375 16.796875 8.0625 
Q 21.484375 6.890625 26.703125 6.890625 
Q 35.15625 6.890625 40.078125 11.328125 
Q 45.015625 15.765625 45.015625 23.390625 
Q 45.015625 31 40.078125 35.4375 
Q 35.15625 39.890625 26.703125 39.890625 
Q 22.75 39.890625 18.8125 39.015625 
Q 14.890625 38.140625 10.796875 36.28125 
z
" id="DejaVuSans-53"/>
      <path d="M 10.984375 1.515625 
L 10.984375 10.5 
Q 14.703125 8.734375 18.5 7.8125 
Q 22.3125 6.890625 25.984375 6.890625 
Q 35.75 6.890625 40.890625 13.453125 
Q 46.046875 20.015625 46.78125 33.40625 
Q 43.953125 29.203125 39.59375 26.953125 
Q 35.25 24.703125 29.984375 24.703125 
Q 19.046875 24.703125 12.671875 31.3125 
Q 6.296875 37.9375 6.296875 49.421875 
Q 6.296875 60.640625 12.9375 67.421875 
Q 19.578125 74.21875 30.609375 74.21875 
Q 43.265625 74.21875 49.921875 64.515625 
Q 56.59375 54.828125 56.59375 36.375 
Q 56.59375 19.140625 48.40625 8.859375 
Q 40.234375 -1.421875 26.421875 -1.421875 
Q 22.703125 -1.421875 18.890625 -0.6875 
Q 15.09375 0.046875 10.984375 1.515625 
z
M 30.609375 32.421875 
Q 37.25 32.421875 41.125 36.953125 
Q 45.015625 41.5 45.015625 49.421875 
Q 45.015625 57.28125 41.125 61.84375 
Q 37.25 66.40625 30.609375 66.40625 
Q 23.96875 66.40625 20.09375 61.84375 
Q 16.21875 57.28125 16.21875 49.421875 
Q 16.21875 41.5 20.09375 36.953125 
Q 23.96875 32.421875 30.609375 32.421875 
z
" id="DejaVuSans-57"/>
      <path d="M 8.203125 72.90625 
L 55.078125 72.90625 
L 55.078125 68.703125 
L 28.609375 0 
L 18.3125 0 
L 43.21875 64.59375 
L 8.203125 64.59375 
z
" id="DejaVuSans-55"/>
     </defs>
     <g transform="translate(593.125 83.116562)scale(0.1 -0.1)">
      <use xlink:href="#DejaVuSans-68"/>
      <use x="77.001953" xlink:href="#DejaVuSans-48"/>
      <use x="140.625" xlink:href="#DejaVuSans-49"/>
      <use x="204.248047" xlink:href="#DejaVuSans-53"/>
      <use x="267.871094" xlink:href="#DejaVuSans-52"/>
      <use x="331.494141" xlink:href="#DejaVuSans-57"/>
      <use x="395.117188" xlink:href="#DejaVuSans-55"/>
     </g>
    </g>
   </g>
  </g>
 </g>
 <defs>
  <clipPath id="pe58535a44f">
   <rect height="326.16" width="558" x="90" y="51.84"/>
  </clipPath>
 </defs>
</svg>
