<?xml version="1.0" encoding="utf-8" standalone="no"?>
<!DOCTYPE svg PUBLIC "-//W3C//DTD SVG 1.1//EN"
  "http://www.w3.org/Graphics/SVG/1.1/DTD/svg11.dtd">
<!-- Created with matplotlib (https://matplotlib.org/) -->
<svg height="576pt" version="1.1" viewBox="0 0 576 576" width="576pt" xmlns="http://www.w3.org/2000/svg" xmlns:xlink="http://www.w3.org/1999/xlink">
 <defs>
  <style type="text/css">
*{stroke-linecap:butt;stroke-linejoin:round;}
  </style>
 </defs>
 <g id="figure_1">
  <g id="patch_1">
   <path d="M 0 576 
L 576 576 
L 576 0 
L 0 0 
z
" style="fill:#ffffff;"/>
  </g>
  <g id="axes_1">
   <g id="patch_2">
    <path d="M 72 512.64 
L 518.4 512.64 
L 518.4 69.12 
L 72 69.12 
z
" style="fill:#ffffff;"/>
   </g>
   <g id="matplotlib.axis_1">
    <g id="xtick_1">
     <g id="line2d_1">
      <path clip-path="url(#p03ae8562d2)" d="M 72 512.64 
L 72 69.12 
" style="fill:none;stroke:#b0b0b0;stroke-linecap:square;stroke-width:0.8;"/>
     </g>
     <g id="line2d_2">
      <defs>
       <path d="M 0 0 
L 0 3.5 
" id="me0914ef8e5" style="stroke:#000000;stroke-width:0.8;"/>
      </defs>
      <g>
       <use style="stroke:#000000;stroke-width:0.8;" x="72" xlink:href="#me0914ef8e5" y="512.64"/>
      </g>
     </g>
     <g id="text_1">
      <!-- 0.0 -->
      <defs>
       <path d="M 31.78125 66.40625 
Q 24.171875 66.40625 20.328125 58.90625 
Q 16.5 51.421875 16.5 36.375 
Q 16.5 21.390625 20.328125 13.890625 
Q 24.171875 6.390625 31.78125 6.390625 
Q 39.453125 6.390625 43.28125 13.890625 
Q 47.125 21.390625 47.125 36.375 
Q 47.125 51.421875 43.28125 58.90625 
Q 39.453125 66.40625 31.78125 66.40625 
z
M 31.78125 74.21875 
Q 44.046875 74.21875 50.515625 64.515625 
Q 56.984375 54.828125 56.984375 36.375 
Q 56.984375 17.96875 50.515625 8.265625 
Q 44.046875 -1.421875 31.78125 -1.421875 
Q 19.53125 -1.421875 13.0625 8.265625 
Q 6.59375 17.96875 6.59375 36.375 
Q 6.59375 54.828125 13.0625 64.515625 
Q 19.53125 74.21875 31.78125 74.21875 
z
" id="DejaVuSans-48"/>
       <path d="M 10.6875 12.40625 
L 21 12.40625 
L 21 0 
L 10.6875 0 
z
" id="DejaVuSans-46"/>
      </defs>
      <g transform="translate(64.048438 527.238438)scale(0.1 -0.1)">
       <use xlink:href="#DejaVuSans-48"/>
       <use x="63.623047" xlink:href="#DejaVuSans-46"/>
       <use x="95.410156" xlink:href="#DejaVuSans-48"/>
      </g>
     </g>
    </g>
    <g id="xtick_2">
     <g id="line2d_3">
      <path clip-path="url(#p03ae8562d2)" d="M 161.28 512.64 
L 161.28 69.12 
" style="fill:none;stroke:#b0b0b0;stroke-linecap:square;stroke-width:0.8;"/>
     </g>
     <g id="line2d_4">
      <g>
       <use style="stroke:#000000;stroke-width:0.8;" x="161.28" xlink:href="#me0914ef8e5" y="512.64"/>
      </g>
     </g>
     <g id="text_2">
      <!-- 0.2 -->
      <defs>
       <path d="M 19.1875 8.296875 
L 53.609375 8.296875 
L 53.609375 0 
L 7.328125 0 
L 7.328125 8.296875 
Q 12.9375 14.109375 22.625 23.890625 
Q 32.328125 33.6875 34.8125 36.53125 
Q 39.546875 41.84375 41.421875 45.53125 
Q 43.3125 49.21875 43.3125 52.78125 
Q 43.3125 58.59375 39.234375 62.25 
Q 35.15625 65.921875 28.609375 65.921875 
Q 23.96875 65.921875 18.8125 64.3125 
Q 13.671875 62.703125 7.8125 59.421875 
L 7.8125 69.390625 
Q 13.765625 71.78125 18.9375 73 
Q 24.125 74.21875 28.421875 74.21875 
Q 39.75 74.21875 46.484375 68.546875 
Q 53.21875 62.890625 53.21875 53.421875 
Q 53.21875 48.921875 51.53125 44.890625 
Q 49.859375 40.875 45.40625 35.40625 
Q 44.1875 33.984375 37.640625 27.21875 
Q 31.109375 20.453125 19.1875 8.296875 
z
" id="DejaVuSans-50"/>
      </defs>
      <g transform="translate(153.328438 527.238438)scale(0.1 -0.1)">
       <use xlink:href="#DejaVuSans-48"/>
       <use x="63.623047" xlink:href="#DejaVuSans-46"/>
       <use x="95.410156" xlink:href="#DejaVuSans-50"/>
      </g>
     </g>
    </g>
    <g id="xtick_3">
     <g id="line2d_5">
      <path clip-path="url(#p03ae8562d2)" d="M 250.56 512.64 
L 250.56 69.12 
" style="fill:none;stroke:#b0b0b0;stroke-linecap:square;stroke-width:0.8;"/>
     </g>
     <g id="line2d_6">
      <g>
       <use style="stroke:#000000;stroke-width:0.8;" x="250.56" xlink:href="#me0914ef8e5" y="512.64"/>
      </g>
     </g>
     <g id="text_3">
      <!-- 0.4 -->
      <defs>
       <path d="M 37.796875 64.3125 
L 12.890625 25.390625 
L 37.796875 25.390625 
z
M 35.203125 72.90625 
L 47.609375 72.90625 
L 47.609375 25.390625 
L 58.015625 25.390625 
L 58.015625 17.1875 
L 47.609375 17.1875 
L 47.609375 0 
L 37.796875 0 
L 37.796875 17.1875 
L 4.890625 17.1875 
L 4.890625 26.703125 
z
" id="DejaVuSans-52"/>
      </defs>
      <g transform="translate(242.608438 527.238438)scale(0.1 -0.1)">
       <use xlink:href="#DejaVuSans-48"/>
       <use x="63.623047" xlink:href="#DejaVuSans-46"/>
       <use x="95.410156" xlink:href="#DejaVuSans-52"/>
      </g>
     </g>
    </g>
    <g id="xtick_4">
     <g id="line2d_7">
      <path clip-path="url(#p03ae8562d2)" d="M 339.84 512.64 
L 339.84 69.12 
" style="fill:none;stroke:#b0b0b0;stroke-linecap:square;stroke-width:0.8;"/>
     </g>
     <g id="line2d_8">
      <g>
       <use style="stroke:#000000;stroke-width:0.8;" x="339.84" xlink:href="#me0914ef8e5" y="512.64"/>
      </g>
     </g>
     <g id="text_4">
      <!-- 0.6 -->
      <defs>
       <path d="M 33.015625 40.375 
Q 26.375 40.375 22.484375 35.828125 
Q 18.609375 31.296875 18.609375 23.390625 
Q 18.609375 15.53125 22.484375 10.953125 
Q 26.375 6.390625 33.015625 6.390625 
Q 39.65625 6.390625 43.53125 10.953125 
Q 47.40625 15.53125 47.40625 23.390625 
Q 47.40625 31.296875 43.53125 35.828125 
Q 39.65625 40.375 33.015625 40.375 
z
M 52.59375 71.296875 
L 52.59375 62.3125 
Q 48.875 64.0625 45.09375 64.984375 
Q 41.3125 65.921875 37.59375 65.921875 
Q 27.828125 65.921875 22.671875 59.328125 
Q 17.53125 52.734375 16.796875 39.40625 
Q 19.671875 43.65625 24.015625 45.921875 
Q 28.375 48.1875 33.59375 48.1875 
Q 44.578125 48.1875 50.953125 41.515625 
Q 57.328125 34.859375 57.328125 23.390625 
Q 57.328125 12.15625 50.6875 5.359375 
Q 44.046875 -1.421875 33.015625 -1.421875 
Q 20.359375 -1.421875 13.671875 8.265625 
Q 6.984375 17.96875 6.984375 36.375 
Q 6.984375 53.65625 15.1875 63.9375 
Q 23.390625 74.21875 37.203125 74.21875 
Q 40.921875 74.21875 44.703125 73.484375 
Q 48.484375 72.75 52.59375 71.296875 
z
" id="DejaVuSans-54"/>
      </defs>
      <g transform="translate(331.888438 527.238438)scale(0.1 -0.1)">
       <use xlink:href="#DejaVuSans-48"/>
       <use x="63.623047" xlink:href="#DejaVuSans-46"/>
       <use x="95.410156" xlink:href="#DejaVuSans-54"/>
      </g>
     </g>
    </g>
    <g id="xtick_5">
     <g id="line2d_9">
      <path clip-path="url(#p03ae8562d2)" d="M 429.12 512.64 
L 429.12 69.12 
" style="fill:none;stroke:#b0b0b0;stroke-linecap:square;stroke-width:0.8;"/>
     </g>
     <g id="line2d_10">
      <g>
       <use style="stroke:#000000;stroke-width:0.8;" x="429.12" xlink:href="#me0914ef8e5" y="512.64"/>
      </g>
     </g>
     <g id="text_5">
      <!-- 0.8 -->
      <defs>
       <path d="M 31.78125 34.625 
Q 24.75 34.625 20.71875 30.859375 
Q 16.703125 27.09375 16.703125 20.515625 
Q 16.703125 13.921875 20.71875 10.15625 
Q 24.75 6.390625 31.78125 6.390625 
Q 38.8125 6.390625 42.859375 10.171875 
Q 46.921875 13.96875 46.921875 20.515625 
Q 46.921875 27.09375 42.890625 30.859375 
Q 38.875 34.625 31.78125 34.625 
z
M 21.921875 38.8125 
Q 15.578125 40.375 12.03125 44.71875 
Q 8.5 49.078125 8.5 55.328125 
Q 8.5 64.0625 14.71875 69.140625 
Q 20.953125 74.21875 31.78125 74.21875 
Q 42.671875 74.21875 48.875 69.140625 
Q 55.078125 64.0625 55.078125 55.328125 
Q 55.078125 49.078125 51.53125 44.71875 
Q 48 40.375 41.703125 38.8125 
Q 48.828125 37.15625 52.796875 32.3125 
Q 56.78125 27.484375 56.78125 20.515625 
Q 56.78125 9.90625 50.3125 4.234375 
Q 43.84375 -1.421875 31.78125 -1.421875 
Q 19.734375 -1.421875 13.25 4.234375 
Q 6.78125 9.90625 6.78125 20.515625 
Q 6.78125 27.484375 10.78125 32.3125 
Q 14.796875 37.15625 21.921875 38.8125 
z
M 18.3125 54.390625 
Q 18.3125 48.734375 21.84375 45.5625 
Q 25.390625 42.390625 31.78125 42.390625 
Q 38.140625 42.390625 41.71875 45.5625 
Q 45.3125 48.734375 45.3125 54.390625 
Q 45.3125 60.0625 41.71875 63.234375 
Q 38.140625 66.40625 31.78125 66.40625 
Q 25.390625 66.40625 21.84375 63.234375 
Q 18.3125 60.0625 18.3125 54.390625 
z
" id="DejaVuSans-56"/>
      </defs>
      <g transform="translate(421.168437 527.238438)scale(0.1 -0.1)">
       <use xlink:href="#DejaVuSans-48"/>
       <use x="63.623047" xlink:href="#DejaVuSans-46"/>
       <use x="95.410156" xlink:href="#DejaVuSans-56"/>
      </g>
     </g>
    </g>
    <g id="xtick_6">
     <g id="line2d_11">
      <path clip-path="url(#p03ae8562d2)" d="M 518.4 512.64 
L 518.4 69.12 
" style="fill:none;stroke:#b0b0b0;stroke-linecap:square;stroke-width:0.8;"/>
     </g>
     <g id="line2d_12">
      <g>
       <use style="stroke:#000000;stroke-width:0.8;" x="518.4" xlink:href="#me0914ef8e5" y="512.64"/>
      </g>
     </g>
     <g id="text_6">
      <!-- 1.0 -->
      <defs>
       <path d="M 12.40625 8.296875 
L 28.515625 8.296875 
L 28.515625 63.921875 
L 10.984375 60.40625 
L 10.984375 69.390625 
L 28.421875 72.90625 
L 38.28125 72.90625 
L 38.28125 8.296875 
L 54.390625 8.296875 
L 54.390625 0 
L 12.40625 0 
z
" id="DejaVuSans-49"/>
      </defs>
      <g transform="translate(510.448437 527.238438)scale(0.1 -0.1)">
       <use xlink:href="#DejaVuSans-49"/>
       <use x="63.623047" xlink:href="#DejaVuSans-46"/>
       <use x="95.410156" xlink:href="#DejaVuSans-48"/>
      </g>
     </g>
    </g>
    <g id="text_7">
     <!-- False Positive Rate -->
     <defs>
      <path d="M 9.8125 72.90625 
L 51.703125 72.90625 
L 51.703125 64.59375 
L 19.671875 64.59375 
L 19.671875 43.109375 
L 48.578125 43.109375 
L 48.578125 34.8125 
L 19.671875 34.8125 
L 19.671875 0 
L 9.8125 0 
z
" id="DejaVuSans-70"/>
      <path d="M 34.28125 27.484375 
Q 23.390625 27.484375 19.1875 25 
Q 14.984375 22.515625 14.984375 16.5 
Q 14.984375 11.71875 18.140625 8.90625 
Q 21.296875 6.109375 26.703125 6.109375 
Q 34.1875 6.109375 38.703125 11.40625 
Q 43.21875 16.703125 43.21875 25.484375 
L 43.21875 27.484375 
z
M 52.203125 31.203125 
L 52.203125 0 
L 43.21875 0 
L 43.21875 8.296875 
Q 40.140625 3.328125 35.546875 0.953125 
Q 30.953125 -1.421875 24.3125 -1.421875 
Q 15.921875 -1.421875 10.953125 3.296875 
Q 6 8.015625 6 15.921875 
Q 6 25.140625 12.171875 29.828125 
Q 18.359375 34.515625 30.609375 34.515625 
L 43.21875 34.515625 
L 43.21875 35.40625 
Q 43.21875 41.609375 39.140625 45 
Q 35.0625 48.390625 27.6875 48.390625 
Q 23 48.390625 18.546875 47.265625 
Q 14.109375 46.140625 10.015625 43.890625 
L 10.015625 52.203125 
Q 14.9375 54.109375 19.578125 55.046875 
Q 24.21875 56 28.609375 56 
Q 40.484375 56 46.34375 49.84375 
Q 52.203125 43.703125 52.203125 31.203125 
z
" id="DejaVuSans-97"/>
      <path d="M 9.421875 75.984375 
L 18.40625 75.984375 
L 18.40625 0 
L 9.421875 0 
z
" id="DejaVuSans-108"/>
      <path d="M 44.28125 53.078125 
L 44.28125 44.578125 
Q 40.484375 46.53125 36.375 47.5 
Q 32.28125 48.484375 27.875 48.484375 
Q 21.1875 48.484375 17.84375 46.4375 
Q 14.5 44.390625 14.5 40.28125 
Q 14.5 37.15625 16.890625 35.375 
Q 19.28125 33.59375 26.515625 31.984375 
L 29.59375 31.296875 
Q 39.15625 29.25 43.1875 25.515625 
Q 47.21875 21.78125 47.21875 15.09375 
Q 47.21875 7.46875 41.1875 3.015625 
Q 35.15625 -1.421875 24.609375 -1.421875 
Q 20.21875 -1.421875 15.453125 -0.5625 
Q 10.6875 0.296875 5.421875 2 
L 5.421875 11.28125 
Q 10.40625 8.6875 15.234375 7.390625 
Q 20.0625 6.109375 24.8125 6.109375 
Q 31.15625 6.109375 34.5625 8.28125 
Q 37.984375 10.453125 37.984375 14.40625 
Q 37.984375 18.0625 35.515625 20.015625 
Q 33.0625 21.96875 24.703125 23.78125 
L 21.578125 24.515625 
Q 13.234375 26.265625 9.515625 29.90625 
Q 5.8125 33.546875 5.8125 39.890625 
Q 5.8125 47.609375 11.28125 51.796875 
Q 16.75 56 26.8125 56 
Q 31.78125 56 36.171875 55.265625 
Q 40.578125 54.546875 44.28125 53.078125 
z
" id="DejaVuSans-115"/>
      <path d="M 56.203125 29.59375 
L 56.203125 25.203125 
L 14.890625 25.203125 
Q 15.484375 15.921875 20.484375 11.0625 
Q 25.484375 6.203125 34.421875 6.203125 
Q 39.59375 6.203125 44.453125 7.46875 
Q 49.3125 8.734375 54.109375 11.28125 
L 54.109375 2.78125 
Q 49.265625 0.734375 44.1875 -0.34375 
Q 39.109375 -1.421875 33.890625 -1.421875 
Q 20.796875 -1.421875 13.15625 6.1875 
Q 5.515625 13.8125 5.515625 26.8125 
Q 5.515625 40.234375 12.765625 48.109375 
Q 20.015625 56 32.328125 56 
Q 43.359375 56 49.78125 48.890625 
Q 56.203125 41.796875 56.203125 29.59375 
z
M 47.21875 32.234375 
Q 47.125 39.59375 43.09375 43.984375 
Q 39.0625 48.390625 32.421875 48.390625 
Q 24.90625 48.390625 20.390625 44.140625 
Q 15.875 39.890625 15.1875 32.171875 
z
" id="DejaVuSans-101"/>
      <path id="DejaVuSans-32"/>
      <path d="M 19.671875 64.796875 
L 19.671875 37.40625 
L 32.078125 37.40625 
Q 38.96875 37.40625 42.71875 40.96875 
Q 46.484375 44.53125 46.484375 51.125 
Q 46.484375 57.671875 42.71875 61.234375 
Q 38.96875 64.796875 32.078125 64.796875 
z
M 9.8125 72.90625 
L 32.078125 72.90625 
Q 44.34375 72.90625 50.609375 67.359375 
Q 56.890625 61.8125 56.890625 51.125 
Q 56.890625 40.328125 50.609375 34.8125 
Q 44.34375 29.296875 32.078125 29.296875 
L 19.671875 29.296875 
L 19.671875 0 
L 9.8125 0 
z
" id="DejaVuSans-80"/>
      <path d="M 30.609375 48.390625 
Q 23.390625 48.390625 19.1875 42.75 
Q 14.984375 37.109375 14.984375 27.296875 
Q 14.984375 17.484375 19.15625 11.84375 
Q 23.34375 6.203125 30.609375 6.203125 
Q 37.796875 6.203125 41.984375 11.859375 
Q 46.1875 17.53125 46.1875 27.296875 
Q 46.1875 37.015625 41.984375 42.703125 
Q 37.796875 48.390625 30.609375 48.390625 
z
M 30.609375 56 
Q 42.328125 56 49.015625 48.375 
Q 55.71875 40.765625 55.71875 27.296875 
Q 55.71875 13.875 49.015625 6.21875 
Q 42.328125 -1.421875 30.609375 -1.421875 
Q 18.84375 -1.421875 12.171875 6.21875 
Q 5.515625 13.875 5.515625 27.296875 
Q 5.515625 40.765625 12.171875 48.375 
Q 18.84375 56 30.609375 56 
z
" id="DejaVuSans-111"/>
      <path d="M 9.421875 54.6875 
L 18.40625 54.6875 
L 18.40625 0 
L 9.421875 0 
z
M 9.421875 75.984375 
L 18.40625 75.984375 
L 18.40625 64.59375 
L 9.421875 64.59375 
z
" id="DejaVuSans-105"/>
      <path d="M 18.3125 70.21875 
L 18.3125 54.6875 
L 36.8125 54.6875 
L 36.8125 47.703125 
L 18.3125 47.703125 
L 18.3125 18.015625 
Q 18.3125 11.328125 20.140625 9.421875 
Q 21.96875 7.515625 27.59375 7.515625 
L 36.8125 7.515625 
L 36.8125 0 
L 27.59375 0 
Q 17.1875 0 13.234375 3.875 
Q 9.28125 7.765625 9.28125 18.015625 
L 9.28125 47.703125 
L 2.6875 47.703125 
L 2.6875 54.6875 
L 9.28125 54.6875 
L 9.28125 70.21875 
z
" id="DejaVuSans-116"/>
      <path d="M 2.984375 54.6875 
L 12.5 54.6875 
L 29.59375 8.796875 
L 46.6875 54.6875 
L 56.203125 54.6875 
L 35.6875 0 
L 23.484375 0 
z
" id="DejaVuSans-118"/>
      <path d="M 44.390625 34.1875 
Q 47.5625 33.109375 50.5625 29.59375 
Q 53.5625 26.078125 56.59375 19.921875 
L 66.609375 0 
L 56 0 
L 46.6875 18.703125 
Q 43.0625 26.03125 39.671875 28.421875 
Q 36.28125 30.8125 30.421875 30.8125 
L 19.671875 30.8125 
L 19.671875 0 
L 9.8125 0 
L 9.8125 72.90625 
L 32.078125 72.90625 
Q 44.578125 72.90625 50.734375 67.671875 
Q 56.890625 62.453125 56.890625 51.90625 
Q 56.890625 45.015625 53.6875 40.46875 
Q 50.484375 35.9375 44.390625 34.1875 
z
M 19.671875 64.796875 
L 19.671875 38.921875 
L 32.078125 38.921875 
Q 39.203125 38.921875 42.84375 42.21875 
Q 46.484375 45.515625 46.484375 51.90625 
Q 46.484375 58.296875 42.84375 61.546875 
Q 39.203125 64.796875 32.078125 64.796875 
z
" id="DejaVuSans-82"/>
     </defs>
     <g transform="translate(247.994531 540.916563)scale(0.1 -0.1)">
      <use xlink:href="#DejaVuSans-70"/>
      <use x="57.378906" xlink:href="#DejaVuSans-97"/>
      <use x="118.658203" xlink:href="#DejaVuSans-108"/>
      <use x="146.441406" xlink:href="#DejaVuSans-115"/>
      <use x="198.541016" xlink:href="#DejaVuSans-101"/>
      <use x="260.064453" xlink:href="#DejaVuSans-32"/>
      <use x="291.851562" xlink:href="#DejaVuSans-80"/>
      <use x="352.107422" xlink:href="#DejaVuSans-111"/>
      <use x="413.289062" xlink:href="#DejaVuSans-115"/>
      <use x="465.388672" xlink:href="#DejaVuSans-105"/>
      <use x="493.171875" xlink:href="#DejaVuSans-116"/>
      <use x="532.380859" xlink:href="#DejaVuSans-105"/>
      <use x="560.164062" xlink:href="#DejaVuSans-118"/>
      <use x="619.34375" xlink:href="#DejaVuSans-101"/>
      <use x="680.867188" xlink:href="#DejaVuSans-32"/>
      <use x="712.654297" xlink:href="#DejaVuSans-82"/>
      <use x="782.105469" xlink:href="#DejaVuSans-97"/>
      <use x="843.384766" xlink:href="#DejaVuSans-116"/>
      <use x="882.59375" xlink:href="#DejaVuSans-101"/>
     </g>
    </g>
   </g>
   <g id="matplotlib.axis_2">
    <g id="ytick_1">
     <g id="line2d_13">
      <path clip-path="url(#p03ae8562d2)" d="M 72 512.64 
L 518.4 512.64 
" style="fill:none;stroke:#b0b0b0;stroke-linecap:square;stroke-width:0.8;"/>
     </g>
     <g id="line2d_14">
      <defs>
       <path d="M 0 0 
L -3.5 0 
" id="m3b2c94a125" style="stroke:#000000;stroke-width:0.8;"/>
      </defs>
      <g>
       <use style="stroke:#000000;stroke-width:0.8;" x="72" xlink:href="#m3b2c94a125" y="512.64"/>
      </g>
     </g>
     <g id="text_8">
      <!-- 0.0 -->
      <g transform="translate(49.096875 516.439219)scale(0.1 -0.1)">
       <use xlink:href="#DejaVuSans-48"/>
       <use x="63.623047" xlink:href="#DejaVuSans-46"/>
       <use x="95.410156" xlink:href="#DejaVuSans-48"/>
      </g>
     </g>
    </g>
    <g id="ytick_2">
     <g id="line2d_15">
      <path clip-path="url(#p03ae8562d2)" d="M 72 428.16 
L 518.4 428.16 
" style="fill:none;stroke:#b0b0b0;stroke-linecap:square;stroke-width:0.8;"/>
     </g>
     <g id="line2d_16">
      <g>
       <use style="stroke:#000000;stroke-width:0.8;" x="72" xlink:href="#m3b2c94a125" y="428.16"/>
      </g>
     </g>
     <g id="text_9">
      <!-- 0.2 -->
      <g transform="translate(49.096875 431.959219)scale(0.1 -0.1)">
       <use xlink:href="#DejaVuSans-48"/>
       <use x="63.623047" xlink:href="#DejaVuSans-46"/>
       <use x="95.410156" xlink:href="#DejaVuSans-50"/>
      </g>
     </g>
    </g>
    <g id="ytick_3">
     <g id="line2d_17">
      <path clip-path="url(#p03ae8562d2)" d="M 72 343.68 
L 518.4 343.68 
" style="fill:none;stroke:#b0b0b0;stroke-linecap:square;stroke-width:0.8;"/>
     </g>
     <g id="line2d_18">
      <g>
       <use style="stroke:#000000;stroke-width:0.8;" x="72" xlink:href="#m3b2c94a125" y="343.68"/>
      </g>
     </g>
     <g id="text_10">
      <!-- 0.4 -->
      <g transform="translate(49.096875 347.479219)scale(0.1 -0.1)">
       <use xlink:href="#DejaVuSans-48"/>
       <use x="63.623047" xlink:href="#DejaVuSans-46"/>
       <use x="95.410156" xlink:href="#DejaVuSans-52"/>
      </g>
     </g>
    </g>
    <g id="ytick_4">
     <g id="line2d_19">
      <path clip-path="url(#p03ae8562d2)" d="M 72 259.2 
L 518.4 259.2 
" style="fill:none;stroke:#b0b0b0;stroke-linecap:square;stroke-width:0.8;"/>
     </g>
     <g id="line2d_20">
      <g>
       <use style="stroke:#000000;stroke-width:0.8;" x="72" xlink:href="#m3b2c94a125" y="259.2"/>
      </g>
     </g>
     <g id="text_11">
      <!-- 0.6 -->
      <g transform="translate(49.096875 262.999219)scale(0.1 -0.1)">
       <use xlink:href="#DejaVuSans-48"/>
       <use x="63.623047" xlink:href="#DejaVuSans-46"/>
       <use x="95.410156" xlink:href="#DejaVuSans-54"/>
      </g>
     </g>
    </g>
    <g id="ytick_5">
     <g id="line2d_21">
      <path clip-path="url(#p03ae8562d2)" d="M 72 174.72 
L 518.4 174.72 
" style="fill:none;stroke:#b0b0b0;stroke-linecap:square;stroke-width:0.8;"/>
     </g>
     <g id="line2d_22">
      <g>
       <use style="stroke:#000000;stroke-width:0.8;" x="72" xlink:href="#m3b2c94a125" y="174.72"/>
      </g>
     </g>
     <g id="text_12">
      <!-- 0.8 -->
      <g transform="translate(49.096875 178.519219)scale(0.1 -0.1)">
       <use xlink:href="#DejaVuSans-48"/>
       <use x="63.623047" xlink:href="#DejaVuSans-46"/>
       <use x="95.410156" xlink:href="#DejaVuSans-56"/>
      </g>
     </g>
    </g>
    <g id="ytick_6">
     <g id="line2d_23">
      <path clip-path="url(#p03ae8562d2)" d="M 72 90.24 
L 518.4 90.24 
" style="fill:none;stroke:#b0b0b0;stroke-linecap:square;stroke-width:0.8;"/>
     </g>
     <g id="line2d_24">
      <g>
       <use style="stroke:#000000;stroke-width:0.8;" x="72" xlink:href="#m3b2c94a125" y="90.24"/>
      </g>
     </g>
     <g id="text_13">
      <!-- 1.0 -->
      <g transform="translate(49.096875 94.039219)scale(0.1 -0.1)">
       <use xlink:href="#DejaVuSans-49"/>
       <use x="63.623047" xlink:href="#DejaVuSans-46"/>
       <use x="95.410156" xlink:href="#DejaVuSans-48"/>
      </g>
     </g>
    </g>
    <g id="text_14">
     <!-- True Positive Rate -->
     <defs>
      <path d="M -0.296875 72.90625 
L 61.375 72.90625 
L 61.375 64.59375 
L 35.5 64.59375 
L 35.5 0 
L 25.59375 0 
L 25.59375 64.59375 
L -0.296875 64.59375 
z
" id="DejaVuSans-84"/>
      <path d="M 41.109375 46.296875 
Q 39.59375 47.171875 37.8125 47.578125 
Q 36.03125 48 33.890625 48 
Q 26.265625 48 22.1875 43.046875 
Q 18.109375 38.09375 18.109375 28.8125 
L 18.109375 0 
L 9.078125 0 
L 9.078125 54.6875 
L 18.109375 54.6875 
L 18.109375 46.1875 
Q 20.953125 51.171875 25.484375 53.578125 
Q 30.03125 56 36.53125 56 
Q 37.453125 56 38.578125 55.875 
Q 39.703125 55.765625 41.0625 55.515625 
z
" id="DejaVuSans-114"/>
      <path d="M 8.5 21.578125 
L 8.5 54.6875 
L 17.484375 54.6875 
L 17.484375 21.921875 
Q 17.484375 14.15625 20.5 10.265625 
Q 23.53125 6.390625 29.59375 6.390625 
Q 36.859375 6.390625 41.078125 11.03125 
Q 45.3125 15.671875 45.3125 23.6875 
L 45.3125 54.6875 
L 54.296875 54.6875 
L 54.296875 0 
L 45.3125 0 
L 45.3125 8.40625 
Q 42.046875 3.421875 37.71875 1 
Q 33.40625 -1.421875 27.6875 -1.421875 
Q 18.265625 -1.421875 13.375 4.4375 
Q 8.5 10.296875 8.5 21.578125 
z
M 31.109375 56 
z
" id="DejaVuSans-117"/>
     </defs>
     <g transform="translate(43.017187 336.426094)rotate(-90)scale(0.1 -0.1)">
      <use xlink:href="#DejaVuSans-84"/>
      <use x="60.865234" xlink:href="#DejaVuSans-114"/>
      <use x="101.978516" xlink:href="#DejaVuSans-117"/>
      <use x="165.357422" xlink:href="#DejaVuSans-101"/>
      <use x="226.880859" xlink:href="#DejaVuSans-32"/>
      <use x="258.667969" xlink:href="#DejaVuSans-80"/>
      <use x="318.923828" xlink:href="#DejaVuSans-111"/>
      <use x="380.105469" xlink:href="#DejaVuSans-115"/>
      <use x="432.205078" xlink:href="#DejaVuSans-105"/>
      <use x="459.988281" xlink:href="#DejaVuSans-116"/>
      <use x="499.197266" xlink:href="#DejaVuSans-105"/>
      <use x="526.980469" xlink:href="#DejaVuSans-118"/>
      <use x="586.160156" xlink:href="#DejaVuSans-101"/>
      <use x="647.683594" xlink:href="#DejaVuSans-32"/>
      <use x="679.470703" xlink:href="#DejaVuSans-82"/>
      <use x="748.921875" xlink:href="#DejaVuSans-97"/>
      <use x="810.201172" xlink:href="#DejaVuSans-116"/>
      <use x="849.410156" xlink:href="#DejaVuSans-101"/>
     </g>
    </g>
   </g>
   <g id="line2d_25">
    <path clip-path="url(#p03ae8562d2)" d="M 72 512.64 
L 72 508.307692 
L 72.381538 508.307692 
L 72.381538 486.285128 
L 72.763077 486.285128 
L 72.763077 480.508718 
L 73.526154 480.508718 
L 73.526154 467.511795 
L 73.907692 467.511795 
L 73.907692 466.789744 
L 74.289231 466.789744 
L 74.289231 462.818462 
L 74.670769 462.818462 
L 74.670769 461.013333 
L 75.052308 461.013333 
L 75.052308 444.406154 
L 75.433846 444.406154 
L 75.433846 441.517949 
L 75.815385 441.517949 
L 75.815385 439.351795 
L 76.196923 439.351795 
L 76.196923 434.297436 
L 76.578462 434.297436 
L 76.578462 428.882051 
L 76.96 428.882051 
L 76.96 427.798974 
L 77.341538 427.798974 
L 77.341538 425.993846 
L 77.723077 425.993846 
L 77.723077 425.271795 
L 78.104615 425.271795 
L 78.104615 419.134359 
L 79.249231 419.134359 
L 79.249231 415.163077 
L 79.630769 415.163077 
L 79.630769 414.802051 
L 80.012308 414.802051 
L 80.012308 410.108718 
L 80.393846 410.108718 
L 80.393846 404.693333 
L 80.775385 404.693333 
L 80.775385 397.111795 
L 82.683077 397.111795 
L 82.683077 396.389744 
L 83.064615 396.389744 
L 83.064615 394.945641 
L 83.446154 394.945641 
L 83.446154 394.22359 
L 83.827692 394.22359 
L 83.827692 392.057436 
L 84.590769 392.057436 
L 84.590769 389.530256 
L 84.972308 389.530256 
L 84.972308 388.086154 
L 85.353846 388.086154 
L 85.353846 386.642051 
L 85.735385 386.642051 
L 85.735385 385.92 
L 86.116923 385.92 
L 86.116923 384.836923 
L 86.498462 384.836923 
L 86.498462 383.392821 
L 86.88 383.392821 
L 86.88 379.421538 
L 87.261538 379.421538 
L 87.261538 377.61641 
L 87.643077 377.61641 
L 87.643077 375.089231 
L 88.024615 375.089231 
L 88.024615 374.367179 
L 88.406154 374.367179 
L 88.406154 372.923077 
L 88.787692 372.923077 
L 88.787692 372.562051 
L 89.169231 372.562051 
L 89.169231 370.034872 
L 89.550769 370.034872 
L 89.550769 361.731282 
L 89.932308 361.731282 
L 89.932308 361.370256 
L 90.313846 361.370256 
L 90.313846 359.565128 
L 90.695385 359.565128 
L 90.695385 358.482051 
L 91.076923 358.482051 
L 91.076923 355.593846 
L 91.458462 355.593846 
L 91.458462 355.232821 
L 91.84 355.232821 
L 91.84 354.871795 
L 92.603077 354.871795 
L 92.603077 352.705641 
L 92.984615 352.705641 
L 92.984615 351.98359 
L 93.366154 351.98359 
L 93.366154 351.622564 
L 94.129231 351.622564 
L 94.129231 351.261538 
L 95.273846 351.261538 
L 95.273846 350.900513 
L 95.655385 350.900513 
L 95.655385 349.095385 
L 96.036923 349.095385 
L 96.036923 346.929231 
L 96.418462 346.929231 
L 96.418462 344.763077 
L 97.563077 344.763077 
L 97.563077 341.513846 
L 97.944615 341.513846 
L 97.944615 340.791795 
L 98.707692 340.791795 
L 98.707692 340.069744 
L 99.089231 340.069744 
L 99.089231 338.625641 
L 99.470769 338.625641 
L 99.470769 335.737436 
L 99.852308 335.737436 
L 99.852308 335.015385 
L 100.233846 335.015385 
L 100.233846 333.932308 
L 100.996923 333.932308 
L 100.996923 333.210256 
L 101.378462 333.210256 
L 101.378462 331.044103 
L 101.76 331.044103 
L 101.76 329.961026 
L 102.523077 329.961026 
L 102.523077 329.6 
L 102.904615 329.6 
L 102.904615 325.989744 
L 103.286154 325.989744 
L 103.286154 325.628718 
L 104.049231 325.628718 
L 104.049231 324.906667 
L 104.430769 324.906667 
L 104.430769 324.184615 
L 104.812308 324.184615 
L 104.812308 323.462564 
L 105.193846 323.462564 
L 105.193846 322.379487 
L 105.956923 322.379487 
L 105.956923 320.935385 
L 106.72 320.935385 
L 106.72 319.130256 
L 107.101538 319.130256 
L 107.101538 317.686154 
L 107.483077 317.686154 
L 107.483077 314.436923 
L 107.864615 314.436923 
L 107.864615 313.714872 
L 108.246154 313.714872 
L 108.246154 312.631795 
L 109.009231 312.631795 
L 109.009231 311.548718 
L 109.390769 311.548718 
L 109.390769 310.826667 
L 109.772308 310.826667 
L 109.772308 309.021538 
L 110.153846 309.021538 
L 110.153846 308.299487 
L 110.535385 308.299487 
L 110.535385 307.577436 
L 110.916923 307.577436 
L 110.916923 307.21641 
L 111.298462 307.21641 
L 111.298462 306.494359 
L 112.443077 306.494359 
L 112.443077 304.328205 
L 112.824615 304.328205 
L 112.824615 302.162051 
L 113.206154 302.162051 
L 113.206154 301.078974 
L 113.587692 301.078974 
L 113.587692 300.717949 
L 114.350769 300.717949 
L 114.350769 297.829744 
L 114.732308 297.829744 
L 114.732308 297.468718 
L 116.64 297.468718 
L 116.64 297.107692 
L 117.784615 297.107692 
L 117.784615 294.941538 
L 118.166154 294.941538 
L 118.166154 294.580513 
L 118.929231 294.580513 
L 118.929231 294.219487 
L 119.310769 294.219487 
L 119.310769 293.497436 
L 119.692308 293.497436 
L 119.692308 293.13641 
L 120.073846 293.13641 
L 120.073846 291.692308 
L 120.455385 291.692308 
L 120.455385 291.331282 
L 120.836923 291.331282 
L 120.836923 290.609231 
L 121.218462 290.609231 
L 121.218462 289.526154 
L 121.981538 289.526154 
L 121.981538 288.082051 
L 122.744615 288.082051 
L 122.744615 286.998974 
L 123.126154 286.998974 
L 123.126154 285.193846 
L 123.889231 285.193846 
L 123.889231 284.832821 
L 124.652308 284.832821 
L 124.652308 284.110769 
L 125.796923 284.110769 
L 125.796923 283.027692 
L 126.941538 283.027692 
L 126.941538 281.944615 
L 127.323077 281.944615 
L 127.323077 279.417436 
L 128.086154 279.417436 
L 128.086154 279.05641 
L 128.467692 279.05641 
L 128.467692 278.334359 
L 128.849231 278.334359 
L 128.849231 277.612308 
L 129.230769 277.612308 
L 129.230769 276.529231 
L 129.612308 276.529231 
L 129.612308 276.168205 
L 131.138462 276.168205 
L 131.138462 275.807179 
L 131.901538 275.807179 
L 131.901538 274.363077 
L 132.283077 274.363077 
L 132.283077 273.641026 
L 132.664615 273.641026 
L 132.664615 273.28 
L 133.809231 273.28 
L 133.809231 271.835897 
L 134.572308 271.835897 
L 134.572308 270.752821 
L 136.098462 270.752821 
L 136.098462 270.391795 
L 136.861538 270.391795 
L 136.861538 270.030769 
L 137.624615 270.030769 
L 137.624615 268.947692 
L 138.006154 268.947692 
L 138.006154 268.586667 
L 138.387692 268.586667 
L 138.387692 267.50359 
L 138.769231 267.50359 
L 138.769231 267.142564 
L 139.150769 267.142564 
L 139.150769 264.97641 
L 139.532308 264.97641 
L 139.532308 264.254359 
L 140.295385 264.254359 
L 140.295385 262.810256 
L 141.058462 262.810256 
L 141.058462 262.088205 
L 142.203077 262.088205 
L 142.203077 261.727179 
L 142.584615 261.727179 
L 142.584615 261.366154 
L 143.347692 261.366154 
L 143.347692 261.005128 
L 143.729231 261.005128 
L 143.729231 260.644103 
L 144.492308 260.644103 
L 144.492308 258.116923 
L 145.636923 258.116923 
L 145.636923 257.755897 
L 146.4 257.755897 
L 146.4 257.033846 
L 146.781538 257.033846 
L 146.781538 255.950769 
L 147.163077 255.950769 
L 147.163077 255.589744 
L 148.307692 255.589744 
L 148.307692 253.784615 
L 149.452308 253.784615 
L 149.452308 250.89641 
L 150.596923 250.89641 
L 150.596923 250.535385 
L 150.978462 250.535385 
L 150.978462 248.008205 
L 151.741538 248.008205 
L 151.741538 247.647179 
L 152.886154 247.647179 
L 152.886154 247.286154 
L 154.030769 247.286154 
L 154.030769 246.203077 
L 154.412308 246.203077 
L 154.412308 245.12 
L 157.464615 245.12 
L 157.464615 244.397949 
L 158.609231 244.397949 
L 158.609231 244.036923 
L 159.372308 244.036923 
L 159.372308 243.314872 
L 159.753846 243.314872 
L 159.753846 242.953846 
L 160.898462 242.953846 
L 160.898462 242.592821 
L 162.043077 242.592821 
L 162.043077 242.231795 
L 162.424615 242.231795 
L 162.424615 241.870769 
L 162.806154 241.870769 
L 162.806154 241.509744 
L 163.569231 241.509744 
L 163.569231 241.148718 
L 164.713846 241.148718 
L 164.713846 240.426667 
L 165.476923 240.426667 
L 165.476923 239.704615 
L 165.858462 239.704615 
L 165.858462 238.982564 
L 166.24 238.982564 
L 166.24 238.260513 
L 167.003077 238.260513 
L 167.003077 237.899487 
L 167.384615 237.899487 
L 167.384615 237.538462 
L 168.910769 237.538462 
L 168.910769 235.011282 
L 169.673846 235.011282 
L 169.673846 234.289231 
L 170.055385 234.289231 
L 170.055385 233.928205 
L 170.436923 233.928205 
L 170.436923 233.206154 
L 171.2 233.206154 
L 171.2 232.845128 
L 172.344615 232.845128 
L 172.344615 232.123077 
L 172.726154 232.123077 
L 172.726154 230.317949 
L 173.107692 230.317949 
L 173.107692 229.956923 
L 173.489231 229.956923 
L 173.489231 228.873846 
L 173.870769 228.873846 
L 173.870769 228.512821 
L 175.778462 228.512821 
L 175.778462 227.790769 
L 177.686154 227.790769 
L 177.686154 227.429744 
L 178.449231 227.429744 
L 178.449231 227.068718 
L 178.830769 227.068718 
L 178.830769 226.346667 
L 179.212308 226.346667 
L 179.212308 225.985641 
L 179.975385 225.985641 
L 179.975385 225.26359 
L 180.356923 225.26359 
L 180.356923 224.541538 
L 180.738462 224.541538 
L 180.738462 223.819487 
L 182.264615 223.819487 
L 182.264615 223.458462 
L 183.790769 223.458462 
L 183.790769 223.097436 
L 184.172308 223.097436 
L 184.172308 222.73641 
L 185.316923 222.73641 
L 185.316923 220.570256 
L 187.224615 220.570256 
L 187.224615 219.487179 
L 187.606154 219.487179 
L 187.606154 219.126154 
L 188.369231 219.126154 
L 188.369231 217.682051 
L 188.750769 217.682051 
L 188.750769 217.321026 
L 189.132308 217.321026 
L 189.132308 216.598974 
L 189.513846 216.598974 
L 189.513846 215.876923 
L 190.276923 215.876923 
L 190.276923 215.515897 
L 190.658462 215.515897 
L 190.658462 214.432821 
L 191.04 214.432821 
L 191.04 213.710769 
L 192.184615 213.710769 
L 192.184615 212.988718 
L 193.710769 212.988718 
L 193.710769 212.266667 
L 194.092308 212.266667 
L 194.092308 211.18359 
L 194.855385 211.18359 
L 194.855385 210.461538 
L 195.236923 210.461538 
L 195.236923 209.739487 
L 196 209.739487 
L 196 209.378462 
L 196.763077 209.378462 
L 196.763077 208.65641 
L 197.144615 208.65641 
L 197.144615 208.295385 
L 198.289231 208.295385 
L 198.289231 207.934359 
L 199.815385 207.934359 
L 199.815385 207.212308 
L 200.96 207.212308 
L 200.96 206.129231 
L 201.341538 206.129231 
L 201.341538 205.768205 
L 201.723077 205.768205 
L 201.723077 205.407179 
L 202.486154 205.407179 
L 202.486154 205.046154 
L 203.630769 205.046154 
L 203.630769 203.963077 
L 204.775385 203.963077 
L 204.775385 203.241026 
L 205.156923 203.241026 
L 205.156923 202.157949 
L 207.064615 202.157949 
L 207.064615 201.435897 
L 207.827692 201.435897 
L 207.827692 199.269744 
L 208.209231 199.269744 
L 208.209231 198.908718 
L 208.972308 198.908718 
L 208.972308 198.547692 
L 210.116923 198.547692 
L 210.116923 197.825641 
L 211.643077 197.825641 
L 211.643077 197.464615 
L 212.406154 197.464615 
L 212.406154 196.742564 
L 213.550769 196.742564 
L 213.550769 195.659487 
L 213.932308 195.659487 
L 213.932308 195.298462 
L 214.313846 195.298462 
L 214.313846 194.937436 
L 215.076923 194.937436 
L 215.076923 193.493333 
L 215.458462 193.493333 
L 215.458462 193.132308 
L 218.129231 193.132308 
L 218.129231 191.688205 
L 219.273846 191.688205 
L 219.273846 190.966154 
L 219.655385 190.966154 
L 219.655385 190.605128 
L 220.036923 190.605128 
L 220.036923 190.244103 
L 220.418462 190.244103 
L 220.418462 189.522051 
L 220.8 189.522051 
L 220.8 188.077949 
L 222.326154 188.077949 
L 222.326154 187.716923 
L 223.470769 187.716923 
L 223.470769 186.633846 
L 224.233846 186.633846 
L 224.233846 185.911795 
L 224.996923 185.911795 
L 224.996923 184.828718 
L 225.76 184.828718 
L 225.76 184.106667 
L 226.141538 184.106667 
L 226.141538 183.02359 
L 226.523077 183.02359 
L 226.523077 181.579487 
L 226.904615 181.579487 
L 226.904615 181.218462 
L 227.667692 181.218462 
L 227.667692 180.857436 
L 228.430769 180.857436 
L 228.430769 180.49641 
L 229.193846 180.49641 
L 229.193846 180.135385 
L 229.575385 180.135385 
L 229.575385 179.052308 
L 229.956923 179.052308 
L 229.956923 178.330256 
L 231.101538 178.330256 
L 231.101538 177.969231 
L 231.483077 177.969231 
L 231.483077 176.525128 
L 231.864615 176.525128 
L 231.864615 175.803077 
L 233.009231 175.803077 
L 233.009231 175.081026 
L 234.153846 175.081026 
L 234.153846 172.914872 
L 234.535385 172.914872 
L 234.535385 172.192821 
L 236.061538 172.192821 
L 236.061538 171.470769 
L 236.824615 171.470769 
L 236.824615 170.748718 
L 237.587692 170.748718 
L 237.587692 170.387692 
L 237.969231 170.387692 
L 237.969231 169.665641 
L 238.350769 169.665641 
L 238.350769 169.304615 
L 238.732308 169.304615 
L 238.732308 166.777436 
L 240.64 166.777436 
L 240.64 166.055385 
L 241.021538 166.055385 
L 241.021538 165.333333 
L 241.403077 165.333333 
L 241.403077 164.972308 
L 241.784615 164.972308 
L 241.784615 164.250256 
L 243.310769 164.250256 
L 243.310769 163.889231 
L 245.218462 163.889231 
L 245.218462 163.167179 
L 245.981538 163.167179 
L 245.981538 162.806154 
L 246.363077 162.806154 
L 246.363077 162.445128 
L 246.744615 162.445128 
L 246.744615 162.084103 
L 247.126154 162.084103 
L 247.126154 161.723077 
L 248.270769 161.723077 
L 248.270769 160.64 
L 249.415385 160.64 
L 249.415385 160.278974 
L 249.796923 160.278974 
L 249.796923 159.556923 
L 252.086154 159.556923 
L 252.086154 158.834872 
L 252.849231 158.834872 
L 252.849231 158.473846 
L 253.230769 158.473846 
L 253.230769 158.112821 
L 255.138462 158.112821 
L 255.138462 157.751795 
L 255.52 157.751795 
L 255.52 157.390769 
L 255.901538 157.390769 
L 255.901538 157.029744 
L 256.664615 157.029744 
L 256.664615 155.946667 
L 259.335385 155.946667 
L 259.335385 155.585641 
L 259.716923 155.585641 
L 259.716923 155.224615 
L 262.006154 155.224615 
L 262.006154 154.86359 
L 262.769231 154.86359 
L 262.769231 154.141538 
L 263.150769 154.141538 
L 263.150769 153.780513 
L 263.532308 153.780513 
L 263.532308 152.33641 
L 263.913846 152.33641 
L 263.913846 151.975385 
L 264.676923 151.975385 
L 264.676923 151.253333 
L 265.058462 151.253333 
L 265.058462 150.892308 
L 267.729231 150.892308 
L 267.729231 150.170256 
L 268.492308 150.170256 
L 268.492308 149.809231 
L 269.636923 149.809231 
L 269.636923 149.448205 
L 270.4 149.448205 
L 270.4 149.087179 
L 271.163077 149.087179 
L 271.163077 148.726154 
L 271.544615 148.726154 
L 271.544615 148.365128 
L 272.689231 148.365128 
L 272.689231 146.921026 
L 273.833846 146.921026 
L 273.833846 146.56 
L 275.36 146.56 
L 275.36 145.115897 
L 279.938462 145.115897 
L 279.938462 144.754872 
L 282.227692 144.754872 
L 282.227692 144.393846 
L 282.990769 144.393846 
L 282.990769 144.032821 
L 283.372308 144.032821 
L 283.372308 143.310769 
L 284.516923 143.310769 
L 284.516923 141.866667 
L 285.661538 141.866667 
L 285.661538 141.505641 
L 286.043077 141.505641 
L 286.043077 141.144615 
L 286.424615 141.144615 
L 286.424615 140.061538 
L 287.187692 140.061538 
L 287.187692 138.25641 
L 287.950769 138.25641 
L 287.950769 137.895385 
L 289.476923 137.895385 
L 289.476923 137.534359 
L 289.858462 137.534359 
L 289.858462 137.173333 
L 290.24 137.173333 
L 290.24 136.812308 
L 291.003077 136.812308 
L 291.003077 136.451282 
L 291.384615 136.451282 
L 291.384615 135.729231 
L 292.147692 135.729231 
L 292.147692 135.368205 
L 293.673846 135.368205 
L 293.673846 134.285128 
L 294.818462 134.285128 
L 294.818462 133.924103 
L 295.2 133.924103 
L 295.2 133.563077 
L 295.581538 133.563077 
L 295.581538 132.841026 
L 299.396923 132.841026 
L 299.396923 131.757949 
L 302.830769 131.757949 
L 302.830769 131.396923 
L 304.356923 131.396923 
L 304.356923 130.674872 
L 304.738462 130.674872 
L 304.738462 130.313846 
L 305.12 130.313846 
L 305.12 129.952821 
L 307.027692 129.952821 
L 307.027692 127.786667 
L 310.08 127.786667 
L 310.08 127.425641 
L 310.843077 127.425641 
L 310.843077 126.70359 
L 311.987692 126.70359 
L 311.987692 126.342564 
L 312.750769 126.342564 
L 312.750769 125.981538 
L 313.132308 125.981538 
L 313.132308 125.620513 
L 313.513846 125.620513 
L 313.513846 125.259487 
L 314.276923 125.259487 
L 314.276923 124.898462 
L 314.658462 124.898462 
L 314.658462 124.537436 
L 315.803077 124.537436 
L 315.803077 124.17641 
L 318.092308 124.17641 
L 318.092308 123.815385 
L 323.433846 123.815385 
L 323.433846 122.732308 
L 324.96 122.732308 
L 324.96 122.371282 
L 326.104615 122.371282 
L 326.104615 122.010256 
L 331.064615 122.010256 
L 331.064615 121.649231 
L 333.353846 121.649231 
L 333.353846 121.288205 
L 334.498462 121.288205 
L 334.498462 120.927179 
L 335.261538 120.927179 
L 335.261538 120.566154 
L 337.932308 120.566154 
L 337.932308 120.205128 
L 338.313846 120.205128 
L 338.313846 119.844103 
L 339.84 119.844103 
L 339.84 119.483077 
L 340.221538 119.483077 
L 340.221538 119.122051 
L 340.984615 119.122051 
L 340.984615 118.761026 
L 342.129231 118.761026 
L 342.129231 118.4 
L 344.418462 118.4 
L 344.418462 116.594872 
L 345.181538 116.594872 
L 345.181538 116.233846 
L 346.707692 116.233846 
L 346.707692 115.511795 
L 348.233846 115.511795 
L 348.233846 115.150769 
L 349.378462 115.150769 
L 349.378462 114.789744 
L 350.523077 114.789744 
L 350.523077 114.428718 
L 352.049231 114.428718 
L 352.049231 112.984615 
L 353.193846 112.984615 
L 353.193846 112.262564 
L 354.72 112.262564 
L 354.72 111.540513 
L 356.246154 111.540513 
L 356.246154 111.179487 
L 356.627692 111.179487 
L 356.627692 110.818462 
L 360.443077 110.818462 
L 360.443077 110.457436 
L 360.824615 110.457436 
L 360.824615 110.09641 
L 361.206154 110.09641 
L 361.206154 109.374359 
L 363.876923 109.374359 
L 363.876923 108.652308 
L 368.455385 108.652308 
L 368.455385 108.291282 
L 368.836923 108.291282 
L 368.836923 107.930256 
L 369.218462 107.930256 
L 369.218462 107.569231 
L 370.363077 107.569231 
L 370.363077 107.208205 
L 375.323077 107.208205 
L 375.323077 106.847179 
L 376.467692 106.847179 
L 376.467692 106.486154 
L 376.849231 106.486154 
L 376.849231 106.125128 
L 377.230769 106.125128 
L 377.230769 105.764103 
L 377.612308 105.764103 
L 377.612308 105.403077 
L 379.901538 105.403077 
L 379.901538 105.042051 
L 380.664615 105.042051 
L 380.664615 104.681026 
L 381.046154 104.681026 
L 381.046154 104.32 
L 381.427692 104.32 
L 381.427692 103.958974 
L 381.809231 103.958974 
L 381.809231 103.236923 
L 385.243077 103.236923 
L 385.243077 102.514872 
L 386.387692 102.514872 
L 386.387692 102.153846 
L 387.913846 102.153846 
L 387.913846 101.792821 
L 389.821538 101.792821 
L 389.821538 101.431795 
L 390.203077 101.431795 
L 390.203077 100.709744 
L 390.584615 100.709744 
L 390.584615 100.348718 
L 390.966154 100.348718 
L 390.966154 99.987692 
L 392.873846 99.987692 
L 392.873846 99.626667 
L 395.544615 99.626667 
L 395.544615 99.265641 
L 397.452308 99.265641 
L 397.452308 98.904615 
L 405.846154 98.904615 
L 405.846154 98.54359 
L 406.609231 98.54359 
L 406.609231 98.182564 
L 411.569231 98.182564 
L 411.569231 97.821538 
L 413.858462 97.821538 
L 413.858462 97.460513 
L 414.621538 97.460513 
L 414.621538 97.099487 
L 419.963077 97.099487 
L 419.963077 96.738462 
L 422.633846 96.738462 
L 422.633846 96.377436 
L 424.541538 96.377436 
L 424.541538 96.01641 
L 429.12 96.01641 
L 429.12 95.655385 
L 434.843077 95.655385 
L 434.843077 95.294359 
L 443.236923 95.294359 
L 443.236923 94.933333 
L 444.763077 94.933333 
L 444.763077 94.572308 
L 445.907692 94.572308 
L 445.907692 94.211282 
L 447.052308 94.211282 
L 447.052308 93.850256 
L 455.446154 93.850256 
L 455.446154 93.489231 
L 456.590769 93.489231 
L 456.590769 92.767179 
L 456.972308 92.767179 
L 456.972308 92.406154 
L 469.944615 92.406154 
L 469.944615 92.045128 
L 471.089231 92.045128 
L 471.089231 91.684103 
L 474.523077 91.684103 
L 474.523077 91.323077 
L 477.956923 91.323077 
L 477.956923 90.962051 
L 489.784615 90.962051 
L 489.784615 90.601026 
L 494.363077 90.601026 
L 494.363077 90.24 
L 518.4 90.24 
L 518.4 90.24 
" style="fill:none;stroke:#ff8c00;stroke-linecap:square;stroke-width:2;"/>
   </g>
   <g id="line2d_26">
    <path clip-path="url(#p03ae8562d2)" d="M 72 512.64 
L 518.4 90.24 
" style="fill:none;stroke:#000080;stroke-dasharray:7.4,3.2;stroke-dashoffset:0;stroke-width:2;"/>
   </g>
   <g id="patch_3">
    <path d="M 72 512.64 
L 72 69.12 
" style="fill:none;stroke:#000000;stroke-linecap:square;stroke-linejoin:miter;stroke-width:0.8;"/>
   </g>
   <g id="patch_4">
    <path d="M 518.4 512.64 
L 518.4 69.12 
" style="fill:none;stroke:#000000;stroke-linecap:square;stroke-linejoin:miter;stroke-width:0.8;"/>
   </g>
   <g id="patch_5">
    <path d="M 72 512.64 
L 518.4 512.64 
" style="fill:none;stroke:#000000;stroke-linecap:square;stroke-linejoin:miter;stroke-width:0.8;"/>
   </g>
   <g id="patch_6">
    <path d="M 72 69.12 
L 518.4 69.12 
" style="fill:none;stroke:#000000;stroke-linecap:square;stroke-linejoin:miter;stroke-width:0.8;"/>
   </g>
   <g id="legend_1">
    <g id="patch_7">
     <path d="M 427.081875 509.64 
L 514.2 509.64 
Q 515.4 509.64 515.4 508.44 
L 515.4 500.233125 
Q 515.4 499.033125 514.2 499.033125 
L 427.081875 499.033125 
Q 425.881875 499.033125 425.881875 500.233125 
L 425.881875 508.44 
Q 425.881875 509.64 427.081875 509.64 
z
" style="fill:#ffffff;opacity:0.8;stroke:#cccccc;stroke-linejoin:miter;"/>
    </g>
    <g id="line2d_27">
     <path d="M 428.281875 503.892187 
L 440.281875 503.892187 
" style="fill:none;stroke:#ff8c00;stroke-linecap:square;stroke-width:2;"/>
    </g>
    <g id="line2d_28"/>
    <g id="text_15">
     <!-- D013959 (area =0.81) -->
     <defs>
      <path d="M 19.671875 64.796875 
L 19.671875 8.109375 
L 31.59375 8.109375 
Q 46.6875 8.109375 53.6875 14.9375 
Q 60.6875 21.78125 60.6875 36.53125 
Q 60.6875 51.171875 53.6875 57.984375 
Q 46.6875 64.796875 31.59375 64.796875 
z
M 9.8125 72.90625 
L 30.078125 72.90625 
Q 51.265625 72.90625 61.171875 64.09375 
Q 71.09375 55.28125 71.09375 36.53125 
Q 71.09375 17.671875 61.125 8.828125 
Q 51.171875 0 30.078125 0 
L 9.8125 0 
z
" id="DejaVuSans-68"/>
      <path d="M 40.578125 39.3125 
Q 47.65625 37.796875 51.625 33 
Q 55.609375 28.21875 55.609375 21.1875 
Q 55.609375 10.40625 48.1875 4.484375 
Q 40.765625 -1.421875 27.09375 -1.421875 
Q 22.515625 -1.421875 17.65625 -0.515625 
Q 12.796875 0.390625 7.625 2.203125 
L 7.625 11.71875 
Q 11.71875 9.328125 16.59375 8.109375 
Q 21.484375 6.890625 26.8125 6.890625 
Q 36.078125 6.890625 40.9375 10.546875 
Q 45.796875 14.203125 45.796875 21.1875 
Q 45.796875 27.640625 41.28125 31.265625 
Q 36.765625 34.90625 28.71875 34.90625 
L 20.21875 34.90625 
L 20.21875 43.015625 
L 29.109375 43.015625 
Q 36.375 43.015625 40.234375 45.921875 
Q 44.09375 48.828125 44.09375 54.296875 
Q 44.09375 59.90625 40.109375 62.90625 
Q 36.140625 65.921875 28.71875 65.921875 
Q 24.65625 65.921875 20.015625 65.03125 
Q 15.375 64.15625 9.8125 62.3125 
L 9.8125 71.09375 
Q 15.4375 72.65625 20.34375 73.4375 
Q 25.25 74.21875 29.59375 74.21875 
Q 40.828125 74.21875 47.359375 69.109375 
Q 53.90625 64.015625 53.90625 55.328125 
Q 53.90625 49.265625 50.4375 45.09375 
Q 46.96875 40.921875 40.578125 39.3125 
z
" id="DejaVuSans-51"/>
      <path d="M 10.984375 1.515625 
L 10.984375 10.5 
Q 14.703125 8.734375 18.5 7.8125 
Q 22.3125 6.890625 25.984375 6.890625 
Q 35.75 6.890625 40.890625 13.453125 
Q 46.046875 20.015625 46.78125 33.40625 
Q 43.953125 29.203125 39.59375 26.953125 
Q 35.25 24.703125 29.984375 24.703125 
Q 19.046875 24.703125 12.671875 31.3125 
Q 6.296875 37.9375 6.296875 49.421875 
Q 6.296875 60.640625 12.9375 67.421875 
Q 19.578125 74.21875 30.609375 74.21875 
Q 43.265625 74.21875 49.921875 64.515625 
Q 56.59375 54.828125 56.59375 36.375 
Q 56.59375 19.140625 48.40625 8.859375 
Q 40.234375 -1.421875 26.421875 -1.421875 
Q 22.703125 -1.421875 18.890625 -0.6875 
Q 15.09375 0.046875 10.984375 1.515625 
z
M 30.609375 32.421875 
Q 37.25 32.421875 41.125 36.953125 
Q 45.015625 41.5 45.015625 49.421875 
Q 45.015625 57.28125 41.125 61.84375 
Q 37.25 66.40625 30.609375 66.40625 
Q 23.96875 66.40625 20.09375 61.84375 
Q 16.21875 57.28125 16.21875 49.421875 
Q 16.21875 41.5 20.09375 36.953125 
Q 23.96875 32.421875 30.609375 32.421875 
z
" id="DejaVuSans-57"/>
      <path d="M 10.796875 72.90625 
L 49.515625 72.90625 
L 49.515625 64.59375 
L 19.828125 64.59375 
L 19.828125 46.734375 
Q 21.96875 47.46875 24.109375 47.828125 
Q 26.265625 48.1875 28.421875 48.1875 
Q 40.625 48.1875 47.75 41.5 
Q 54.890625 34.8125 54.890625 23.390625 
Q 54.890625 11.625 47.5625 5.09375 
Q 40.234375 -1.421875 26.90625 -1.421875 
Q 22.3125 -1.421875 17.546875 -0.640625 
Q 12.796875 0.140625 7.71875 1.703125 
L 7.71875 11.625 
Q 12.109375 9.234375 16.796875 8.0625 
Q 21.484375 6.890625 26.703125 6.890625 
Q 35.15625 6.890625 40.078125 11.328125 
Q 45.015625 15.765625 45.015625 23.390625 
Q 45.015625 31 40.078125 35.4375 
Q 35.15625 39.890625 26.703125 39.890625 
Q 22.75 39.890625 18.8125 39.015625 
Q 14.890625 38.140625 10.796875 36.28125 
z
" id="DejaVuSans-53"/>
      <path d="M 31 75.875 
Q 24.46875 64.65625 21.28125 53.65625 
Q 18.109375 42.671875 18.109375 31.390625 
Q 18.109375 20.125 21.3125 9.0625 
Q 24.515625 -2 31 -13.1875 
L 23.1875 -13.1875 
Q 15.875 -1.703125 12.234375 9.375 
Q 8.59375 20.453125 8.59375 31.390625 
Q 8.59375 42.28125 12.203125 53.3125 
Q 15.828125 64.359375 23.1875 75.875 
z
" id="DejaVuSans-40"/>
      <path d="M 10.59375 45.40625 
L 73.1875 45.40625 
L 73.1875 37.203125 
L 10.59375 37.203125 
z
M 10.59375 25.484375 
L 73.1875 25.484375 
L 73.1875 17.1875 
L 10.59375 17.1875 
z
" id="DejaVuSans-61"/>
      <path d="M 8.015625 75.875 
L 15.828125 75.875 
Q 23.140625 64.359375 26.78125 53.3125 
Q 30.421875 42.28125 30.421875 31.390625 
Q 30.421875 20.453125 26.78125 9.375 
Q 23.140625 -1.703125 15.828125 -13.1875 
L 8.015625 -13.1875 
Q 14.5 -2 17.703125 9.0625 
Q 20.90625 20.125 20.90625 31.390625 
Q 20.90625 42.671875 17.703125 53.65625 
Q 14.5 64.65625 8.015625 75.875 
z
" id="DejaVuSans-41"/>
     </defs>
     <g transform="translate(445.081875 505.992188)scale(0.06 -0.06)">
      <use xlink:href="#DejaVuSans-68"/>
      <use x="77.001953" xlink:href="#DejaVuSans-48"/>
      <use x="140.625" xlink:href="#DejaVuSans-49"/>
      <use x="204.248047" xlink:href="#DejaVuSans-51"/>
      <use x="267.871094" xlink:href="#DejaVuSans-57"/>
      <use x="331.494141" xlink:href="#DejaVuSans-53"/>
      <use x="395.117188" xlink:href="#DejaVuSans-57"/>
      <use x="458.740234" xlink:href="#DejaVuSans-32"/>
      <use x="490.527344" xlink:href="#DejaVuSans-40"/>
      <use x="529.541016" xlink:href="#DejaVuSans-97"/>
      <use x="590.820312" xlink:href="#DejaVuSans-114"/>
      <use x="631.902344" xlink:href="#DejaVuSans-101"/>
      <use x="693.425781" xlink:href="#DejaVuSans-97"/>
      <use x="754.705078" xlink:href="#DejaVuSans-32"/>
      <use x="786.492188" xlink:href="#DejaVuSans-61"/>
      <use x="870.28125" xlink:href="#DejaVuSans-48"/>
      <use x="933.904297" xlink:href="#DejaVuSans-46"/>
      <use x="965.691406" xlink:href="#DejaVuSans-56"/>
      <use x="1029.314453" xlink:href="#DejaVuSans-49"/>
      <use x="1092.9375" xlink:href="#DejaVuSans-41"/>
     </g>
    </g>
   </g>
  </g>
 </g>
 <defs>
  <clipPath id="p03ae8562d2">
   <rect height="443.52" width="446.4" x="72" y="69.12"/>
  </clipPath>
 </defs>
</svg>
