<?xml version="1.0" encoding="utf-8" standalone="no"?>
<!DOCTYPE svg PUBLIC "-//W3C//DTD SVG 1.1//EN"
  "http://www.w3.org/Graphics/SVG/1.1/DTD/svg11.dtd">
<!-- Created with matplotlib (https://matplotlib.org/) -->
<svg height="576pt" version="1.1" viewBox="0 0 576 576" width="576pt" xmlns="http://www.w3.org/2000/svg" xmlns:xlink="http://www.w3.org/1999/xlink">
 <defs>
  <style type="text/css">
*{stroke-linecap:butt;stroke-linejoin:round;}
  </style>
 </defs>
 <g id="figure_1">
  <g id="patch_1">
   <path d="M 0 576 
L 576 576 
L 576 0 
L 0 0 
z
" style="fill:#ffffff;"/>
  </g>
  <g id="axes_1">
   <g id="patch_2">
    <path d="M 72 512.64 
L 518.4 512.64 
L 518.4 69.12 
L 72 69.12 
z
" style="fill:#ffffff;"/>
   </g>
   <g id="matplotlib.axis_1">
    <g id="xtick_1">
     <g id="line2d_1">
      <path clip-path="url(#p76245565cb)" d="M 72 512.64 
L 72 69.12 
" style="fill:none;stroke:#b0b0b0;stroke-linecap:square;stroke-width:0.8;"/>
     </g>
     <g id="line2d_2">
      <defs>
       <path d="M 0 0 
L 0 3.5 
" id="md9dfbbe5ce" style="stroke:#000000;stroke-width:0.8;"/>
      </defs>
      <g>
       <use style="stroke:#000000;stroke-width:0.8;" x="72" xlink:href="#md9dfbbe5ce" y="512.64"/>
      </g>
     </g>
     <g id="text_1">
      <!-- 0.0 -->
      <defs>
       <path d="M 31.78125 66.40625 
Q 24.171875 66.40625 20.328125 58.90625 
Q 16.5 51.421875 16.5 36.375 
Q 16.5 21.390625 20.328125 13.890625 
Q 24.171875 6.390625 31.78125 6.390625 
Q 39.453125 6.390625 43.28125 13.890625 
Q 47.125 21.390625 47.125 36.375 
Q 47.125 51.421875 43.28125 58.90625 
Q 39.453125 66.40625 31.78125 66.40625 
z
M 31.78125 74.21875 
Q 44.046875 74.21875 50.515625 64.515625 
Q 56.984375 54.828125 56.984375 36.375 
Q 56.984375 17.96875 50.515625 8.265625 
Q 44.046875 -1.421875 31.78125 -1.421875 
Q 19.53125 -1.421875 13.0625 8.265625 
Q 6.59375 17.96875 6.59375 36.375 
Q 6.59375 54.828125 13.0625 64.515625 
Q 19.53125 74.21875 31.78125 74.21875 
z
" id="DejaVuSans-48"/>
       <path d="M 10.6875 12.40625 
L 21 12.40625 
L 21 0 
L 10.6875 0 
z
" id="DejaVuSans-46"/>
      </defs>
      <g transform="translate(64.048438 527.238438)scale(0.1 -0.1)">
       <use xlink:href="#DejaVuSans-48"/>
       <use x="63.623047" xlink:href="#DejaVuSans-46"/>
       <use x="95.410156" xlink:href="#DejaVuSans-48"/>
      </g>
     </g>
    </g>
    <g id="xtick_2">
     <g id="line2d_3">
      <path clip-path="url(#p76245565cb)" d="M 161.28 512.64 
L 161.28 69.12 
" style="fill:none;stroke:#b0b0b0;stroke-linecap:square;stroke-width:0.8;"/>
     </g>
     <g id="line2d_4">
      <g>
       <use style="stroke:#000000;stroke-width:0.8;" x="161.28" xlink:href="#md9dfbbe5ce" y="512.64"/>
      </g>
     </g>
     <g id="text_2">
      <!-- 0.2 -->
      <defs>
       <path d="M 19.1875 8.296875 
L 53.609375 8.296875 
L 53.609375 0 
L 7.328125 0 
L 7.328125 8.296875 
Q 12.9375 14.109375 22.625 23.890625 
Q 32.328125 33.6875 34.8125 36.53125 
Q 39.546875 41.84375 41.421875 45.53125 
Q 43.3125 49.21875 43.3125 52.78125 
Q 43.3125 58.59375 39.234375 62.25 
Q 35.15625 65.921875 28.609375 65.921875 
Q 23.96875 65.921875 18.8125 64.3125 
Q 13.671875 62.703125 7.8125 59.421875 
L 7.8125 69.390625 
Q 13.765625 71.78125 18.9375 73 
Q 24.125 74.21875 28.421875 74.21875 
Q 39.75 74.21875 46.484375 68.546875 
Q 53.21875 62.890625 53.21875 53.421875 
Q 53.21875 48.921875 51.53125 44.890625 
Q 49.859375 40.875 45.40625 35.40625 
Q 44.1875 33.984375 37.640625 27.21875 
Q 31.109375 20.453125 19.1875 8.296875 
z
" id="DejaVuSans-50"/>
      </defs>
      <g transform="translate(153.328438 527.238438)scale(0.1 -0.1)">
       <use xlink:href="#DejaVuSans-48"/>
       <use x="63.623047" xlink:href="#DejaVuSans-46"/>
       <use x="95.410156" xlink:href="#DejaVuSans-50"/>
      </g>
     </g>
    </g>
    <g id="xtick_3">
     <g id="line2d_5">
      <path clip-path="url(#p76245565cb)" d="M 250.56 512.64 
L 250.56 69.12 
" style="fill:none;stroke:#b0b0b0;stroke-linecap:square;stroke-width:0.8;"/>
     </g>
     <g id="line2d_6">
      <g>
       <use style="stroke:#000000;stroke-width:0.8;" x="250.56" xlink:href="#md9dfbbe5ce" y="512.64"/>
      </g>
     </g>
     <g id="text_3">
      <!-- 0.4 -->
      <defs>
       <path d="M 37.796875 64.3125 
L 12.890625 25.390625 
L 37.796875 25.390625 
z
M 35.203125 72.90625 
L 47.609375 72.90625 
L 47.609375 25.390625 
L 58.015625 25.390625 
L 58.015625 17.1875 
L 47.609375 17.1875 
L 47.609375 0 
L 37.796875 0 
L 37.796875 17.1875 
L 4.890625 17.1875 
L 4.890625 26.703125 
z
" id="DejaVuSans-52"/>
      </defs>
      <g transform="translate(242.608438 527.238438)scale(0.1 -0.1)">
       <use xlink:href="#DejaVuSans-48"/>
       <use x="63.623047" xlink:href="#DejaVuSans-46"/>
       <use x="95.410156" xlink:href="#DejaVuSans-52"/>
      </g>
     </g>
    </g>
    <g id="xtick_4">
     <g id="line2d_7">
      <path clip-path="url(#p76245565cb)" d="M 339.84 512.64 
L 339.84 69.12 
" style="fill:none;stroke:#b0b0b0;stroke-linecap:square;stroke-width:0.8;"/>
     </g>
     <g id="line2d_8">
      <g>
       <use style="stroke:#000000;stroke-width:0.8;" x="339.84" xlink:href="#md9dfbbe5ce" y="512.64"/>
      </g>
     </g>
     <g id="text_4">
      <!-- 0.6 -->
      <defs>
       <path d="M 33.015625 40.375 
Q 26.375 40.375 22.484375 35.828125 
Q 18.609375 31.296875 18.609375 23.390625 
Q 18.609375 15.53125 22.484375 10.953125 
Q 26.375 6.390625 33.015625 6.390625 
Q 39.65625 6.390625 43.53125 10.953125 
Q 47.40625 15.53125 47.40625 23.390625 
Q 47.40625 31.296875 43.53125 35.828125 
Q 39.65625 40.375 33.015625 40.375 
z
M 52.59375 71.296875 
L 52.59375 62.3125 
Q 48.875 64.0625 45.09375 64.984375 
Q 41.3125 65.921875 37.59375 65.921875 
Q 27.828125 65.921875 22.671875 59.328125 
Q 17.53125 52.734375 16.796875 39.40625 
Q 19.671875 43.65625 24.015625 45.921875 
Q 28.375 48.1875 33.59375 48.1875 
Q 44.578125 48.1875 50.953125 41.515625 
Q 57.328125 34.859375 57.328125 23.390625 
Q 57.328125 12.15625 50.6875 5.359375 
Q 44.046875 -1.421875 33.015625 -1.421875 
Q 20.359375 -1.421875 13.671875 8.265625 
Q 6.984375 17.96875 6.984375 36.375 
Q 6.984375 53.65625 15.1875 63.9375 
Q 23.390625 74.21875 37.203125 74.21875 
Q 40.921875 74.21875 44.703125 73.484375 
Q 48.484375 72.75 52.59375 71.296875 
z
" id="DejaVuSans-54"/>
      </defs>
      <g transform="translate(331.888438 527.238438)scale(0.1 -0.1)">
       <use xlink:href="#DejaVuSans-48"/>
       <use x="63.623047" xlink:href="#DejaVuSans-46"/>
       <use x="95.410156" xlink:href="#DejaVuSans-54"/>
      </g>
     </g>
    </g>
    <g id="xtick_5">
     <g id="line2d_9">
      <path clip-path="url(#p76245565cb)" d="M 429.12 512.64 
L 429.12 69.12 
" style="fill:none;stroke:#b0b0b0;stroke-linecap:square;stroke-width:0.8;"/>
     </g>
     <g id="line2d_10">
      <g>
       <use style="stroke:#000000;stroke-width:0.8;" x="429.12" xlink:href="#md9dfbbe5ce" y="512.64"/>
      </g>
     </g>
     <g id="text_5">
      <!-- 0.8 -->
      <defs>
       <path d="M 31.78125 34.625 
Q 24.75 34.625 20.71875 30.859375 
Q 16.703125 27.09375 16.703125 20.515625 
Q 16.703125 13.921875 20.71875 10.15625 
Q 24.75 6.390625 31.78125 6.390625 
Q 38.8125 6.390625 42.859375 10.171875 
Q 46.921875 13.96875 46.921875 20.515625 
Q 46.921875 27.09375 42.890625 30.859375 
Q 38.875 34.625 31.78125 34.625 
z
M 21.921875 38.8125 
Q 15.578125 40.375 12.03125 44.71875 
Q 8.5 49.078125 8.5 55.328125 
Q 8.5 64.0625 14.71875 69.140625 
Q 20.953125 74.21875 31.78125 74.21875 
Q 42.671875 74.21875 48.875 69.140625 
Q 55.078125 64.0625 55.078125 55.328125 
Q 55.078125 49.078125 51.53125 44.71875 
Q 48 40.375 41.703125 38.8125 
Q 48.828125 37.15625 52.796875 32.3125 
Q 56.78125 27.484375 56.78125 20.515625 
Q 56.78125 9.90625 50.3125 4.234375 
Q 43.84375 -1.421875 31.78125 -1.421875 
Q 19.734375 -1.421875 13.25 4.234375 
Q 6.78125 9.90625 6.78125 20.515625 
Q 6.78125 27.484375 10.78125 32.3125 
Q 14.796875 37.15625 21.921875 38.8125 
z
M 18.3125 54.390625 
Q 18.3125 48.734375 21.84375 45.5625 
Q 25.390625 42.390625 31.78125 42.390625 
Q 38.140625 42.390625 41.71875 45.5625 
Q 45.3125 48.734375 45.3125 54.390625 
Q 45.3125 60.0625 41.71875 63.234375 
Q 38.140625 66.40625 31.78125 66.40625 
Q 25.390625 66.40625 21.84375 63.234375 
Q 18.3125 60.0625 18.3125 54.390625 
z
" id="DejaVuSans-56"/>
      </defs>
      <g transform="translate(421.168437 527.238438)scale(0.1 -0.1)">
       <use xlink:href="#DejaVuSans-48"/>
       <use x="63.623047" xlink:href="#DejaVuSans-46"/>
       <use x="95.410156" xlink:href="#DejaVuSans-56"/>
      </g>
     </g>
    </g>
    <g id="xtick_6">
     <g id="line2d_11">
      <path clip-path="url(#p76245565cb)" d="M 518.4 512.64 
L 518.4 69.12 
" style="fill:none;stroke:#b0b0b0;stroke-linecap:square;stroke-width:0.8;"/>
     </g>
     <g id="line2d_12">
      <g>
       <use style="stroke:#000000;stroke-width:0.8;" x="518.4" xlink:href="#md9dfbbe5ce" y="512.64"/>
      </g>
     </g>
     <g id="text_6">
      <!-- 1.0 -->
      <defs>
       <path d="M 12.40625 8.296875 
L 28.515625 8.296875 
L 28.515625 63.921875 
L 10.984375 60.40625 
L 10.984375 69.390625 
L 28.421875 72.90625 
L 38.28125 72.90625 
L 38.28125 8.296875 
L 54.390625 8.296875 
L 54.390625 0 
L 12.40625 0 
z
" id="DejaVuSans-49"/>
      </defs>
      <g transform="translate(510.448437 527.238438)scale(0.1 -0.1)">
       <use xlink:href="#DejaVuSans-49"/>
       <use x="63.623047" xlink:href="#DejaVuSans-46"/>
       <use x="95.410156" xlink:href="#DejaVuSans-48"/>
      </g>
     </g>
    </g>
    <g id="text_7">
     <!-- False Positive Rate -->
     <defs>
      <path d="M 9.8125 72.90625 
L 51.703125 72.90625 
L 51.703125 64.59375 
L 19.671875 64.59375 
L 19.671875 43.109375 
L 48.578125 43.109375 
L 48.578125 34.8125 
L 19.671875 34.8125 
L 19.671875 0 
L 9.8125 0 
z
" id="DejaVuSans-70"/>
      <path d="M 34.28125 27.484375 
Q 23.390625 27.484375 19.1875 25 
Q 14.984375 22.515625 14.984375 16.5 
Q 14.984375 11.71875 18.140625 8.90625 
Q 21.296875 6.109375 26.703125 6.109375 
Q 34.1875 6.109375 38.703125 11.40625 
Q 43.21875 16.703125 43.21875 25.484375 
L 43.21875 27.484375 
z
M 52.203125 31.203125 
L 52.203125 0 
L 43.21875 0 
L 43.21875 8.296875 
Q 40.140625 3.328125 35.546875 0.953125 
Q 30.953125 -1.421875 24.3125 -1.421875 
Q 15.921875 -1.421875 10.953125 3.296875 
Q 6 8.015625 6 15.921875 
Q 6 25.140625 12.171875 29.828125 
Q 18.359375 34.515625 30.609375 34.515625 
L 43.21875 34.515625 
L 43.21875 35.40625 
Q 43.21875 41.609375 39.140625 45 
Q 35.0625 48.390625 27.6875 48.390625 
Q 23 48.390625 18.546875 47.265625 
Q 14.109375 46.140625 10.015625 43.890625 
L 10.015625 52.203125 
Q 14.9375 54.109375 19.578125 55.046875 
Q 24.21875 56 28.609375 56 
Q 40.484375 56 46.34375 49.84375 
Q 52.203125 43.703125 52.203125 31.203125 
z
" id="DejaVuSans-97"/>
      <path d="M 9.421875 75.984375 
L 18.40625 75.984375 
L 18.40625 0 
L 9.421875 0 
z
" id="DejaVuSans-108"/>
      <path d="M 44.28125 53.078125 
L 44.28125 44.578125 
Q 40.484375 46.53125 36.375 47.5 
Q 32.28125 48.484375 27.875 48.484375 
Q 21.1875 48.484375 17.84375 46.4375 
Q 14.5 44.390625 14.5 40.28125 
Q 14.5 37.15625 16.890625 35.375 
Q 19.28125 33.59375 26.515625 31.984375 
L 29.59375 31.296875 
Q 39.15625 29.25 43.1875 25.515625 
Q 47.21875 21.78125 47.21875 15.09375 
Q 47.21875 7.46875 41.1875 3.015625 
Q 35.15625 -1.421875 24.609375 -1.421875 
Q 20.21875 -1.421875 15.453125 -0.5625 
Q 10.6875 0.296875 5.421875 2 
L 5.421875 11.28125 
Q 10.40625 8.6875 15.234375 7.390625 
Q 20.0625 6.109375 24.8125 6.109375 
Q 31.15625 6.109375 34.5625 8.28125 
Q 37.984375 10.453125 37.984375 14.40625 
Q 37.984375 18.0625 35.515625 20.015625 
Q 33.0625 21.96875 24.703125 23.78125 
L 21.578125 24.515625 
Q 13.234375 26.265625 9.515625 29.90625 
Q 5.8125 33.546875 5.8125 39.890625 
Q 5.8125 47.609375 11.28125 51.796875 
Q 16.75 56 26.8125 56 
Q 31.78125 56 36.171875 55.265625 
Q 40.578125 54.546875 44.28125 53.078125 
z
" id="DejaVuSans-115"/>
      <path d="M 56.203125 29.59375 
L 56.203125 25.203125 
L 14.890625 25.203125 
Q 15.484375 15.921875 20.484375 11.0625 
Q 25.484375 6.203125 34.421875 6.203125 
Q 39.59375 6.203125 44.453125 7.46875 
Q 49.3125 8.734375 54.109375 11.28125 
L 54.109375 2.78125 
Q 49.265625 0.734375 44.1875 -0.34375 
Q 39.109375 -1.421875 33.890625 -1.421875 
Q 20.796875 -1.421875 13.15625 6.1875 
Q 5.515625 13.8125 5.515625 26.8125 
Q 5.515625 40.234375 12.765625 48.109375 
Q 20.015625 56 32.328125 56 
Q 43.359375 56 49.78125 48.890625 
Q 56.203125 41.796875 56.203125 29.59375 
z
M 47.21875 32.234375 
Q 47.125 39.59375 43.09375 43.984375 
Q 39.0625 48.390625 32.421875 48.390625 
Q 24.90625 48.390625 20.390625 44.140625 
Q 15.875 39.890625 15.1875 32.171875 
z
" id="DejaVuSans-101"/>
      <path id="DejaVuSans-32"/>
      <path d="M 19.671875 64.796875 
L 19.671875 37.40625 
L 32.078125 37.40625 
Q 38.96875 37.40625 42.71875 40.96875 
Q 46.484375 44.53125 46.484375 51.125 
Q 46.484375 57.671875 42.71875 61.234375 
Q 38.96875 64.796875 32.078125 64.796875 
z
M 9.8125 72.90625 
L 32.078125 72.90625 
Q 44.34375 72.90625 50.609375 67.359375 
Q 56.890625 61.8125 56.890625 51.125 
Q 56.890625 40.328125 50.609375 34.8125 
Q 44.34375 29.296875 32.078125 29.296875 
L 19.671875 29.296875 
L 19.671875 0 
L 9.8125 0 
z
" id="DejaVuSans-80"/>
      <path d="M 30.609375 48.390625 
Q 23.390625 48.390625 19.1875 42.75 
Q 14.984375 37.109375 14.984375 27.296875 
Q 14.984375 17.484375 19.15625 11.84375 
Q 23.34375 6.203125 30.609375 6.203125 
Q 37.796875 6.203125 41.984375 11.859375 
Q 46.1875 17.53125 46.1875 27.296875 
Q 46.1875 37.015625 41.984375 42.703125 
Q 37.796875 48.390625 30.609375 48.390625 
z
M 30.609375 56 
Q 42.328125 56 49.015625 48.375 
Q 55.71875 40.765625 55.71875 27.296875 
Q 55.71875 13.875 49.015625 6.21875 
Q 42.328125 -1.421875 30.609375 -1.421875 
Q 18.84375 -1.421875 12.171875 6.21875 
Q 5.515625 13.875 5.515625 27.296875 
Q 5.515625 40.765625 12.171875 48.375 
Q 18.84375 56 30.609375 56 
z
" id="DejaVuSans-111"/>
      <path d="M 9.421875 54.6875 
L 18.40625 54.6875 
L 18.40625 0 
L 9.421875 0 
z
M 9.421875 75.984375 
L 18.40625 75.984375 
L 18.40625 64.59375 
L 9.421875 64.59375 
z
" id="DejaVuSans-105"/>
      <path d="M 18.3125 70.21875 
L 18.3125 54.6875 
L 36.8125 54.6875 
L 36.8125 47.703125 
L 18.3125 47.703125 
L 18.3125 18.015625 
Q 18.3125 11.328125 20.140625 9.421875 
Q 21.96875 7.515625 27.59375 7.515625 
L 36.8125 7.515625 
L 36.8125 0 
L 27.59375 0 
Q 17.1875 0 13.234375 3.875 
Q 9.28125 7.765625 9.28125 18.015625 
L 9.28125 47.703125 
L 2.6875 47.703125 
L 2.6875 54.6875 
L 9.28125 54.6875 
L 9.28125 70.21875 
z
" id="DejaVuSans-116"/>
      <path d="M 2.984375 54.6875 
L 12.5 54.6875 
L 29.59375 8.796875 
L 46.6875 54.6875 
L 56.203125 54.6875 
L 35.6875 0 
L 23.484375 0 
z
" id="DejaVuSans-118"/>
      <path d="M 44.390625 34.1875 
Q 47.5625 33.109375 50.5625 29.59375 
Q 53.5625 26.078125 56.59375 19.921875 
L 66.609375 0 
L 56 0 
L 46.6875 18.703125 
Q 43.0625 26.03125 39.671875 28.421875 
Q 36.28125 30.8125 30.421875 30.8125 
L 19.671875 30.8125 
L 19.671875 0 
L 9.8125 0 
L 9.8125 72.90625 
L 32.078125 72.90625 
Q 44.578125 72.90625 50.734375 67.671875 
Q 56.890625 62.453125 56.890625 51.90625 
Q 56.890625 45.015625 53.6875 40.46875 
Q 50.484375 35.9375 44.390625 34.1875 
z
M 19.671875 64.796875 
L 19.671875 38.921875 
L 32.078125 38.921875 
Q 39.203125 38.921875 42.84375 42.21875 
Q 46.484375 45.515625 46.484375 51.90625 
Q 46.484375 58.296875 42.84375 61.546875 
Q 39.203125 64.796875 32.078125 64.796875 
z
" id="DejaVuSans-82"/>
     </defs>
     <g transform="translate(247.994531 540.916563)scale(0.1 -0.1)">
      <use xlink:href="#DejaVuSans-70"/>
      <use x="57.378906" xlink:href="#DejaVuSans-97"/>
      <use x="118.658203" xlink:href="#DejaVuSans-108"/>
      <use x="146.441406" xlink:href="#DejaVuSans-115"/>
      <use x="198.541016" xlink:href="#DejaVuSans-101"/>
      <use x="260.064453" xlink:href="#DejaVuSans-32"/>
      <use x="291.851562" xlink:href="#DejaVuSans-80"/>
      <use x="352.107422" xlink:href="#DejaVuSans-111"/>
      <use x="413.289062" xlink:href="#DejaVuSans-115"/>
      <use x="465.388672" xlink:href="#DejaVuSans-105"/>
      <use x="493.171875" xlink:href="#DejaVuSans-116"/>
      <use x="532.380859" xlink:href="#DejaVuSans-105"/>
      <use x="560.164062" xlink:href="#DejaVuSans-118"/>
      <use x="619.34375" xlink:href="#DejaVuSans-101"/>
      <use x="680.867188" xlink:href="#DejaVuSans-32"/>
      <use x="712.654297" xlink:href="#DejaVuSans-82"/>
      <use x="782.105469" xlink:href="#DejaVuSans-97"/>
      <use x="843.384766" xlink:href="#DejaVuSans-116"/>
      <use x="882.59375" xlink:href="#DejaVuSans-101"/>
     </g>
    </g>
   </g>
   <g id="matplotlib.axis_2">
    <g id="ytick_1">
     <g id="line2d_13">
      <path clip-path="url(#p76245565cb)" d="M 72 512.64 
L 518.4 512.64 
" style="fill:none;stroke:#b0b0b0;stroke-linecap:square;stroke-width:0.8;"/>
     </g>
     <g id="line2d_14">
      <defs>
       <path d="M 0 0 
L -3.5 0 
" id="m98d0953993" style="stroke:#000000;stroke-width:0.8;"/>
      </defs>
      <g>
       <use style="stroke:#000000;stroke-width:0.8;" x="72" xlink:href="#m98d0953993" y="512.64"/>
      </g>
     </g>
     <g id="text_8">
      <!-- 0.0 -->
      <g transform="translate(49.096875 516.439219)scale(0.1 -0.1)">
       <use xlink:href="#DejaVuSans-48"/>
       <use x="63.623047" xlink:href="#DejaVuSans-46"/>
       <use x="95.410156" xlink:href="#DejaVuSans-48"/>
      </g>
     </g>
    </g>
    <g id="ytick_2">
     <g id="line2d_15">
      <path clip-path="url(#p76245565cb)" d="M 72 428.16 
L 518.4 428.16 
" style="fill:none;stroke:#b0b0b0;stroke-linecap:square;stroke-width:0.8;"/>
     </g>
     <g id="line2d_16">
      <g>
       <use style="stroke:#000000;stroke-width:0.8;" x="72" xlink:href="#m98d0953993" y="428.16"/>
      </g>
     </g>
     <g id="text_9">
      <!-- 0.2 -->
      <g transform="translate(49.096875 431.959219)scale(0.1 -0.1)">
       <use xlink:href="#DejaVuSans-48"/>
       <use x="63.623047" xlink:href="#DejaVuSans-46"/>
       <use x="95.410156" xlink:href="#DejaVuSans-50"/>
      </g>
     </g>
    </g>
    <g id="ytick_3">
     <g id="line2d_17">
      <path clip-path="url(#p76245565cb)" d="M 72 343.68 
L 518.4 343.68 
" style="fill:none;stroke:#b0b0b0;stroke-linecap:square;stroke-width:0.8;"/>
     </g>
     <g id="line2d_18">
      <g>
       <use style="stroke:#000000;stroke-width:0.8;" x="72" xlink:href="#m98d0953993" y="343.68"/>
      </g>
     </g>
     <g id="text_10">
      <!-- 0.4 -->
      <g transform="translate(49.096875 347.479219)scale(0.1 -0.1)">
       <use xlink:href="#DejaVuSans-48"/>
       <use x="63.623047" xlink:href="#DejaVuSans-46"/>
       <use x="95.410156" xlink:href="#DejaVuSans-52"/>
      </g>
     </g>
    </g>
    <g id="ytick_4">
     <g id="line2d_19">
      <path clip-path="url(#p76245565cb)" d="M 72 259.2 
L 518.4 259.2 
" style="fill:none;stroke:#b0b0b0;stroke-linecap:square;stroke-width:0.8;"/>
     </g>
     <g id="line2d_20">
      <g>
       <use style="stroke:#000000;stroke-width:0.8;" x="72" xlink:href="#m98d0953993" y="259.2"/>
      </g>
     </g>
     <g id="text_11">
      <!-- 0.6 -->
      <g transform="translate(49.096875 262.999219)scale(0.1 -0.1)">
       <use xlink:href="#DejaVuSans-48"/>
       <use x="63.623047" xlink:href="#DejaVuSans-46"/>
       <use x="95.410156" xlink:href="#DejaVuSans-54"/>
      </g>
     </g>
    </g>
    <g id="ytick_5">
     <g id="line2d_21">
      <path clip-path="url(#p76245565cb)" d="M 72 174.72 
L 518.4 174.72 
" style="fill:none;stroke:#b0b0b0;stroke-linecap:square;stroke-width:0.8;"/>
     </g>
     <g id="line2d_22">
      <g>
       <use style="stroke:#000000;stroke-width:0.8;" x="72" xlink:href="#m98d0953993" y="174.72"/>
      </g>
     </g>
     <g id="text_12">
      <!-- 0.8 -->
      <g transform="translate(49.096875 178.519219)scale(0.1 -0.1)">
       <use xlink:href="#DejaVuSans-48"/>
       <use x="63.623047" xlink:href="#DejaVuSans-46"/>
       <use x="95.410156" xlink:href="#DejaVuSans-56"/>
      </g>
     </g>
    </g>
    <g id="ytick_6">
     <g id="line2d_23">
      <path clip-path="url(#p76245565cb)" d="M 72 90.24 
L 518.4 90.24 
" style="fill:none;stroke:#b0b0b0;stroke-linecap:square;stroke-width:0.8;"/>
     </g>
     <g id="line2d_24">
      <g>
       <use style="stroke:#000000;stroke-width:0.8;" x="72" xlink:href="#m98d0953993" y="90.24"/>
      </g>
     </g>
     <g id="text_13">
      <!-- 1.0 -->
      <g transform="translate(49.096875 94.039219)scale(0.1 -0.1)">
       <use xlink:href="#DejaVuSans-49"/>
       <use x="63.623047" xlink:href="#DejaVuSans-46"/>
       <use x="95.410156" xlink:href="#DejaVuSans-48"/>
      </g>
     </g>
    </g>
    <g id="text_14">
     <!-- True Positive Rate -->
     <defs>
      <path d="M -0.296875 72.90625 
L 61.375 72.90625 
L 61.375 64.59375 
L 35.5 64.59375 
L 35.5 0 
L 25.59375 0 
L 25.59375 64.59375 
L -0.296875 64.59375 
z
" id="DejaVuSans-84"/>
      <path d="M 41.109375 46.296875 
Q 39.59375 47.171875 37.8125 47.578125 
Q 36.03125 48 33.890625 48 
Q 26.265625 48 22.1875 43.046875 
Q 18.109375 38.09375 18.109375 28.8125 
L 18.109375 0 
L 9.078125 0 
L 9.078125 54.6875 
L 18.109375 54.6875 
L 18.109375 46.1875 
Q 20.953125 51.171875 25.484375 53.578125 
Q 30.03125 56 36.53125 56 
Q 37.453125 56 38.578125 55.875 
Q 39.703125 55.765625 41.0625 55.515625 
z
" id="DejaVuSans-114"/>
      <path d="M 8.5 21.578125 
L 8.5 54.6875 
L 17.484375 54.6875 
L 17.484375 21.921875 
Q 17.484375 14.15625 20.5 10.265625 
Q 23.53125 6.390625 29.59375 6.390625 
Q 36.859375 6.390625 41.078125 11.03125 
Q 45.3125 15.671875 45.3125 23.6875 
L 45.3125 54.6875 
L 54.296875 54.6875 
L 54.296875 0 
L 45.3125 0 
L 45.3125 8.40625 
Q 42.046875 3.421875 37.71875 1 
Q 33.40625 -1.421875 27.6875 -1.421875 
Q 18.265625 -1.421875 13.375 4.4375 
Q 8.5 10.296875 8.5 21.578125 
z
M 31.109375 56 
z
" id="DejaVuSans-117"/>
     </defs>
     <g transform="translate(43.017187 336.426094)rotate(-90)scale(0.1 -0.1)">
      <use xlink:href="#DejaVuSans-84"/>
      <use x="60.865234" xlink:href="#DejaVuSans-114"/>
      <use x="101.978516" xlink:href="#DejaVuSans-117"/>
      <use x="165.357422" xlink:href="#DejaVuSans-101"/>
      <use x="226.880859" xlink:href="#DejaVuSans-32"/>
      <use x="258.667969" xlink:href="#DejaVuSans-80"/>
      <use x="318.923828" xlink:href="#DejaVuSans-111"/>
      <use x="380.105469" xlink:href="#DejaVuSans-115"/>
      <use x="432.205078" xlink:href="#DejaVuSans-105"/>
      <use x="459.988281" xlink:href="#DejaVuSans-116"/>
      <use x="499.197266" xlink:href="#DejaVuSans-105"/>
      <use x="526.980469" xlink:href="#DejaVuSans-118"/>
      <use x="586.160156" xlink:href="#DejaVuSans-101"/>
      <use x="647.683594" xlink:href="#DejaVuSans-32"/>
      <use x="679.470703" xlink:href="#DejaVuSans-82"/>
      <use x="748.921875" xlink:href="#DejaVuSans-97"/>
      <use x="810.201172" xlink:href="#DejaVuSans-116"/>
      <use x="849.410156" xlink:href="#DejaVuSans-101"/>
     </g>
    </g>
   </g>
   <g id="line2d_25">
    <path clip-path="url(#p76245565cb)" d="M 72 512.64 
L 72 490.617436 
L 72.564349 490.617436 
L 72.564349 490.25641 
L 73.128698 490.25641 
L 73.128698 483.396923 
L 74.821745 483.396923 
L 74.821745 483.035897 
L 75.386094 483.035897 
L 75.386094 482.674872 
L 75.950442 482.674872 
L 75.950442 468.955897 
L 76.514791 468.955897 
L 76.514791 456.681026 
L 77.07914 456.681026 
L 77.07914 455.958974 
L 77.643489 455.958974 
L 77.643489 452.348718 
L 78.207838 452.348718 
L 78.207838 448.01641 
L 78.772187 448.01641 
L 78.772187 442.601026 
L 79.336536 442.601026 
L 79.336536 441.156923 
L 79.900885 441.156923 
L 79.900885 436.824615 
L 80.465234 436.824615 
L 80.465234 435.019487 
L 81.029583 435.019487 
L 81.029583 433.93641 
L 81.593932 433.93641 
L 81.593932 423.466667 
L 82.158281 423.466667 
L 82.158281 412.996923 
L 82.72263 412.996923 
L 82.72263 406.859487 
L 83.286979 406.859487 
L 83.286979 406.498462 
L 84.415676 406.498462 
L 84.415676 399.277949 
L 84.980025 399.277949 
L 84.980025 394.22359 
L 86.108723 394.22359 
L 86.108723 392.057436 
L 86.673072 392.057436 
L 86.673072 389.530256 
L 87.237421 389.530256 
L 87.237421 389.169231 
L 87.80177 389.169231 
L 87.80177 387.364103 
L 88.366119 387.364103 
L 88.366119 385.197949 
L 88.930468 385.197949 
L 88.930468 381.948718 
L 89.494817 381.948718 
L 89.494817 381.587692 
L 90.059166 381.587692 
L 90.059166 380.504615 
L 90.623515 380.504615 
L 90.623515 379.782564 
L 91.187863 379.782564 
L 91.187863 378.699487 
L 91.752212 378.699487 
L 91.752212 377.977436 
L 92.88091 377.977436 
L 92.88091 375.450256 
L 93.445259 375.450256 
L 93.445259 374.728205 
L 94.009608 374.728205 
L 94.009608 365.702564 
L 94.573957 365.702564 
L 94.573957 364.980513 
L 95.138306 364.980513 
L 95.138306 363.175385 
L 96.267004 363.175385 
L 96.267004 360.648205 
L 96.831353 360.648205 
L 96.831353 358.843077 
L 97.395702 358.843077 
L 97.395702 358.482051 
L 97.960051 358.482051 
L 97.960051 358.121026 
L 99.088748 358.121026 
L 99.088748 356.676923 
L 100.781795 356.676923 
L 100.781795 355.232821 
L 101.910493 355.232821 
L 101.910493 354.510769 
L 102.474842 354.510769 
L 102.474842 350.178462 
L 103.039191 350.178462 
L 103.039191 348.373333 
L 103.60354 348.373333 
L 103.60354 344.763077 
L 104.167889 344.763077 
L 104.167889 336.459487 
L 104.732238 336.459487 
L 104.732238 335.37641 
L 105.860936 335.37641 
L 105.860936 333.932308 
L 106.425284 333.932308 
L 106.425284 332.849231 
L 107.553982 332.849231 
L 107.553982 332.488205 
L 108.118331 332.488205 
L 108.118331 331.405128 
L 109.247029 331.405128 
L 109.247029 331.044103 
L 110.375727 331.044103 
L 110.375727 329.961026 
L 110.940076 329.961026 
L 110.940076 329.6 
L 111.504425 329.6 
L 111.504425 329.238974 
L 112.633123 329.238974 
L 112.633123 328.877949 
L 113.76182 328.877949 
L 113.76182 327.794872 
L 114.326169 327.794872 
L 114.326169 327.433846 
L 115.454867 327.433846 
L 115.454867 324.184615 
L 116.019216 324.184615 
L 116.019216 322.379487 
L 117.712263 322.379487 
L 117.712263 322.018462 
L 118.276612 322.018462 
L 118.276612 320.574359 
L 118.840961 320.574359 
L 118.840961 320.213333 
L 120.534008 320.213333 
L 120.534008 319.852308 
L 121.098357 319.852308 
L 121.098357 318.408205 
L 121.662705 318.408205 
L 121.662705 318.047179 
L 122.791403 318.047179 
L 122.791403 316.242051 
L 123.355752 316.242051 
L 123.355752 313.714872 
L 125.613148 313.714872 
L 125.613148 312.270769 
L 126.741846 312.270769 
L 126.741846 310.465641 
L 128.434893 310.465641 
L 128.434893 309.74359 
L 128.999241 309.74359 
L 128.999241 309.021538 
L 130.127939 309.021538 
L 130.127939 307.577436 
L 130.692288 307.577436 
L 130.692288 307.21641 
L 131.820986 307.21641 
L 131.820986 303.967179 
L 132.949684 303.967179 
L 132.949684 303.606154 
L 133.514033 303.606154 
L 133.514033 302.523077 
L 134.078382 302.523077 
L 134.078382 301.078974 
L 134.642731 301.078974 
L 134.642731 300.717949 
L 135.20708 300.717949 
L 135.20708 299.995897 
L 135.771429 299.995897 
L 135.771429 299.634872 
L 136.335777 299.634872 
L 136.335777 298.551795 
L 136.900126 298.551795 
L 136.900126 297.107692 
L 137.464475 297.107692 
L 137.464475 296.385641 
L 138.028824 296.385641 
L 138.028824 294.941538 
L 138.593173 294.941538 
L 138.593173 293.858462 
L 139.157522 293.858462 
L 139.157522 293.497436 
L 140.850569 293.497436 
L 140.850569 291.692308 
L 141.414918 291.692308 
L 141.414918 288.804103 
L 141.979267 288.804103 
L 141.979267 288.082051 
L 142.543616 288.082051 
L 142.543616 286.637949 
L 143.107965 286.637949 
L 143.107965 285.193846 
L 143.672314 285.193846 
L 143.672314 284.110769 
L 144.801011 284.110769 
L 144.801011 283.749744 
L 145.36536 283.749744 
L 145.36536 283.027692 
L 145.929709 283.027692 
L 145.929709 280.861538 
L 146.494058 280.861538 
L 146.494058 280.500513 
L 147.058407 280.500513 
L 147.058407 279.778462 
L 148.187105 279.778462 
L 148.187105 278.334359 
L 148.751454 278.334359 
L 148.751454 277.251282 
L 149.880152 277.251282 
L 149.880152 275.807179 
L 151.00885 275.807179 
L 151.00885 275.446154 
L 152.137547 275.446154 
L 152.137547 274.002051 
L 152.701896 274.002051 
L 152.701896 273.641026 
L 153.266245 273.641026 
L 153.266245 272.918974 
L 154.394943 272.918974 
L 154.394943 272.557949 
L 154.959292 272.557949 
L 154.959292 271.835897 
L 155.523641 271.835897 
L 155.523641 270.752821 
L 156.08799 270.752821 
L 156.08799 269.308718 
L 156.652339 269.308718 
L 156.652339 268.225641 
L 157.216688 268.225641 
L 157.216688 267.864615 
L 158.345386 267.864615 
L 158.345386 267.142564 
L 158.909735 267.142564 
L 158.909735 264.615385 
L 160.038432 264.615385 
L 160.038432 259.922051 
L 160.602781 259.922051 
L 160.602781 259.2 
L 161.16713 259.2 
L 161.16713 258.838974 
L 162.295828 258.838974 
L 162.295828 258.477949 
L 163.424526 258.477949 
L 163.424526 257.394872 
L 163.988875 257.394872 
L 163.988875 256.672821 
L 164.553224 256.672821 
L 164.553224 255.589744 
L 165.681922 255.589744 
L 165.681922 254.867692 
L 166.246271 254.867692 
L 166.246271 253.784615 
L 167.939317 253.784615 
L 167.939317 253.42359 
L 169.068015 253.42359 
L 169.068015 252.701538 
L 170.761062 252.701538 
L 170.761062 251.979487 
L 171.325411 251.979487 
L 171.325411 250.89641 
L 172.454109 250.89641 
L 172.454109 247.647179 
L 173.582807 247.647179 
L 173.582807 246.925128 
L 174.147155 246.925128 
L 174.147155 245.12 
L 176.404551 245.12 
L 176.404551 244.758974 
L 178.661947 244.758974 
L 178.661947 244.397949 
L 179.790645 244.397949 
L 179.790645 243.314872 
L 180.919343 243.314872 
L 180.919343 241.148718 
L 182.612389 241.148718 
L 182.612389 240.787692 
L 183.741087 240.787692 
L 183.741087 240.065641 
L 185.434134 240.065641 
L 185.434134 239.704615 
L 185.998483 239.704615 
L 185.998483 239.34359 
L 186.562832 239.34359 
L 186.562832 237.177436 
L 187.127181 237.177436 
L 187.127181 236.455385 
L 188.255879 236.455385 
L 188.255879 236.094359 
L 189.948925 236.094359 
L 189.948925 230.317949 
L 190.513274 230.317949 
L 190.513274 229.595897 
L 191.077623 229.595897 
L 191.077623 229.234872 
L 191.641972 229.234872 
L 191.641972 228.873846 
L 192.206321 228.873846 
L 192.206321 228.512821 
L 192.77067 228.512821 
L 192.77067 228.151795 
L 193.335019 228.151795 
L 193.335019 227.790769 
L 193.899368 227.790769 
L 193.899368 227.068718 
L 194.463717 227.068718 
L 194.463717 225.26359 
L 195.028066 225.26359 
L 195.028066 224.902564 
L 195.592415 224.902564 
L 195.592415 224.541538 
L 196.156764 224.541538 
L 196.156764 222.73641 
L 197.84981 222.73641 
L 197.84981 222.375385 
L 199.542857 222.375385 
L 199.542857 222.014359 
L 200.107206 222.014359 
L 200.107206 221.653333 
L 200.671555 221.653333 
L 200.671555 220.209231 
L 201.800253 220.209231 
L 201.800253 219.848205 
L 202.364602 219.848205 
L 202.364602 219.487179 
L 205.186346 219.487179 
L 205.186346 218.404103 
L 206.315044 218.404103 
L 206.315044 217.321026 
L 206.879393 217.321026 
L 206.879393 216.96 
L 207.443742 216.96 
L 207.443742 216.598974 
L 208.008091 216.598974 
L 208.008091 216.237949 
L 208.57244 216.237949 
L 208.57244 215.154872 
L 209.701138 215.154872 
L 209.701138 214.793846 
L 211.394185 214.793846 
L 211.394185 212.988718 
L 213.65158 212.988718 
L 213.65158 211.905641 
L 214.215929 211.905641 
L 214.215929 211.544615 
L 215.908976 211.544615 
L 215.908976 211.18359 
L 218.166372 211.18359 
L 218.166372 210.822564 
L 219.859418 210.822564 
L 219.859418 210.461538 
L 220.988116 210.461538 
L 220.988116 210.100513 
L 223.245512 210.100513 
L 223.245512 209.378462 
L 223.809861 209.378462 
L 223.809861 208.65641 
L 224.37421 208.65641 
L 224.37421 208.295385 
L 226.067257 208.295385 
L 226.067257 207.934359 
L 226.631606 207.934359 
L 226.631606 207.573333 
L 228.324652 207.573333 
L 228.324652 206.851282 
L 230.017699 206.851282 
L 230.017699 205.407179 
L 230.582048 205.407179 
L 230.582048 205.046154 
L 231.146397 205.046154 
L 231.146397 204.685128 
L 232.839444 204.685128 
L 232.839444 203.602051 
L 233.403793 203.602051 
L 233.403793 203.241026 
L 235.661188 203.241026 
L 235.661188 202.518974 
L 236.225537 202.518974 
L 236.225537 201.796923 
L 237.354235 201.796923 
L 237.354235 201.435897 
L 237.918584 201.435897 
L 237.918584 199.991795 
L 238.482933 199.991795 
L 238.482933 199.269744 
L 239.611631 199.269744 
L 239.611631 198.186667 
L 240.17598 198.186667 
L 240.17598 197.825641 
L 241.304678 197.825641 
L 241.304678 197.464615 
L 241.869027 197.464615 
L 241.869027 196.742564 
L 242.997724 196.742564 
L 242.997724 190.966154 
L 244.126422 190.966154 
L 244.126422 189.883077 
L 248.641214 189.883077 
L 248.641214 187.716923 
L 249.205563 187.716923 
L 249.205563 186.994872 
L 252.591656 186.994872 
L 252.591656 186.633846 
L 254.849052 186.633846 
L 254.849052 186.272821 
L 259.363843 186.272821 
L 259.363843 185.911795 
L 259.928192 185.911795 
L 259.928192 185.550769 
L 260.492541 185.550769 
L 260.492541 185.189744 
L 261.05689 185.189744 
L 261.05689 184.828718 
L 261.621239 184.828718 
L 261.621239 183.745641 
L 262.749937 183.745641 
L 262.749937 183.384615 
L 265.571681 183.384615 
L 265.571681 183.02359 
L 267.264728 183.02359 
L 267.264728 181.940513 
L 268.957775 181.940513 
L 268.957775 181.579487 
L 272.343869 181.579487 
L 272.343869 181.218462 
L 272.908217 181.218462 
L 272.908217 180.135385 
L 274.601264 180.135385 
L 274.601264 179.774359 
L 275.729962 179.774359 
L 275.729962 179.052308 
L 279.116056 179.052308 
L 279.116056 178.691282 
L 279.680405 178.691282 
L 279.680405 178.330256 
L 281.9378 178.330256 
L 281.9378 177.969231 
L 282.502149 177.969231 
L 282.502149 177.247179 
L 283.066498 177.247179 
L 283.066498 176.164103 
L 284.759545 176.164103 
L 284.759545 175.442051 
L 285.888243 175.442051 
L 285.888243 174.72 
L 287.58129 174.72 
L 287.58129 173.997949 
L 289.274336 173.997949 
L 289.274336 173.636923 
L 289.838685 173.636923 
L 289.838685 173.275897 
L 290.967383 173.275897 
L 290.967383 172.553846 
L 291.531732 172.553846 
L 291.531732 172.192821 
L 292.096081 172.192821 
L 292.096081 171.831795 
L 294.353477 171.831795 
L 294.353477 170.748718 
L 297.73957 170.748718 
L 297.73957 170.026667 
L 298.868268 170.026667 
L 298.868268 169.304615 
L 300.561315 169.304615 
L 300.561315 168.94359 
L 302.254362 168.94359 
L 302.254362 168.221538 
L 306.204804 168.221538 
L 306.204804 167.860513 
L 307.897851 167.860513 
L 307.897851 167.138462 
L 309.026549 167.138462 
L 309.026549 166.777436 
L 312.412642 166.777436 
L 312.412642 166.41641 
L 312.976991 166.41641 
L 312.976991 165.694359 
L 313.54134 165.694359 
L 313.54134 164.972308 
L 315.798736 164.972308 
L 315.798736 164.611282 
L 316.363085 164.611282 
L 316.363085 163.889231 
L 318.62048 163.889231 
L 318.62048 163.528205 
L 320.313527 163.528205 
L 320.313527 162.806154 
L 322.570923 162.806154 
L 322.570923 162.445128 
L 324.26397 162.445128 
L 324.26397 162.084103 
L 325.957016 162.084103 
L 325.957016 161.723077 
L 329.907459 161.723077 
L 329.907459 161.001026 
L 331.036157 161.001026 
L 331.036157 160.64 
L 332.164855 160.64 
L 332.164855 159.917949 
L 333.293552 159.917949 
L 333.293552 159.195897 
L 334.42225 159.195897 
L 334.42225 158.112821 
L 334.986599 158.112821 
L 334.986599 157.751795 
L 335.550948 157.751795 
L 335.550948 157.390769 
L 336.679646 157.390769 
L 336.679646 156.668718 
L 338.937042 156.668718 
L 338.937042 155.946667 
L 340.06574 155.946667 
L 340.06574 155.585641 
L 341.758786 155.585641 
L 341.758786 155.224615 
L 342.887484 155.224615 
L 342.887484 154.502564 
L 345.709229 154.502564 
L 345.709229 154.141538 
L 346.273578 154.141538 
L 346.273578 152.697436 
L 346.837927 152.697436 
L 346.837927 152.33641 
L 347.402276 152.33641 
L 347.402276 151.975385 
L 347.966625 151.975385 
L 347.966625 151.614359 
L 351.917067 151.614359 
L 351.917067 151.253333 
L 353.610114 151.253333 
L 353.610114 150.892308 
L 354.174463 150.892308 
L 354.174463 150.170256 
L 355.867509 150.170256 
L 355.867509 149.809231 
L 356.431858 149.809231 
L 356.431858 149.448205 
L 356.996207 149.448205 
L 356.996207 148.365128 
L 357.560556 148.365128 
L 357.560556 147.282051 
L 358.689254 147.282051 
L 358.689254 146.921026 
L 359.253603 146.921026 
L 359.253603 145.837949 
L 362.075348 145.837949 
L 362.075348 145.115897 
L 363.204046 145.115897 
L 363.204046 144.393846 
L 364.897092 144.393846 
L 364.897092 143.671795 
L 367.154488 143.671795 
L 367.154488 143.310769 
L 368.847535 143.310769 
L 368.847535 142.949744 
L 369.411884 142.949744 
L 369.411884 141.144615 
L 371.10493 141.144615 
L 371.10493 140.422564 
L 373.362326 140.422564 
L 373.362326 140.061538 
L 373.926675 140.061538 
L 373.926675 138.25641 
L 374.491024 138.25641 
L 374.491024 136.451282 
L 375.619722 136.451282 
L 375.619722 135.368205 
L 376.184071 135.368205 
L 376.184071 135.007179 
L 379.570164 135.007179 
L 379.570164 134.646154 
L 381.82756 134.646154 
L 381.82756 133.924103 
L 382.956258 133.924103 
L 382.956258 133.563077 
L 385.213654 133.563077 
L 385.213654 133.202051 
L 385.778003 133.202051 
L 385.778003 131.757949 
L 388.035398 131.757949 
L 388.035398 131.396923 
L 388.599747 131.396923 
L 388.599747 130.313846 
L 389.164096 130.313846 
L 389.164096 129.952821 
L 390.292794 129.952821 
L 390.292794 128.869744 
L 391.421492 128.869744 
L 391.421492 128.508718 
L 391.985841 128.508718 
L 391.985841 128.147692 
L 393.678887 128.147692 
L 393.678887 126.342564 
L 394.243236 126.342564 
L 394.243236 125.259487 
L 395.936283 125.259487 
L 395.936283 124.537436 
L 396.500632 124.537436 
L 396.500632 124.17641 
L 397.064981 124.17641 
L 397.064981 123.815385 
L 397.62933 123.815385 
L 397.62933 123.454359 
L 398.193679 123.454359 
L 398.193679 123.093333 
L 399.322377 123.093333 
L 399.322377 122.732308 
L 401.579772 122.732308 
L 401.579772 121.649231 
L 403.272819 121.649231 
L 403.272819 120.927179 
L 403.837168 120.927179 
L 403.837168 120.566154 
L 404.401517 120.566154 
L 404.401517 119.844103 
L 407.787611 119.844103 
L 407.787611 118.761026 
L 411.173704 118.761026 
L 411.173704 118.4 
L 412.302402 118.4 
L 412.302402 118.038974 
L 412.866751 118.038974 
L 412.866751 116.955897 
L 413.4311 116.955897 
L 413.4311 116.594872 
L 415.124147 116.594872 
L 415.124147 116.233846 
L 415.688496 116.233846 
L 415.688496 115.150769 
L 416.252845 115.150769 
L 416.252845 114.789744 
L 416.817193 114.789744 
L 416.817193 112.984615 
L 417.381542 112.984615 
L 417.381542 112.62359 
L 419.074589 112.62359 
L 419.074589 112.262564 
L 420.767636 112.262564 
L 420.767636 111.901538 
L 425.282427 111.901538 
L 425.282427 111.540513 
L 428.668521 111.540513 
L 428.668521 111.179487 
L 430.925917 111.179487 
L 430.925917 110.818462 
L 433.183312 110.818462 
L 433.183312 110.457436 
L 434.31201 110.457436 
L 434.31201 109.374359 
L 437.698104 109.374359 
L 437.698104 109.013333 
L 438.262453 109.013333 
L 438.262453 108.652308 
L 440.519848 108.652308 
L 440.519848 108.291282 
L 441.648546 108.291282 
L 441.648546 107.569231 
L 444.470291 107.569231 
L 444.470291 107.208205 
L 445.598989 107.208205 
L 445.598989 106.847179 
L 446.727686 106.847179 
L 446.727686 106.125128 
L 447.292035 106.125128 
L 447.292035 105.764103 
L 449.549431 105.764103 
L 449.549431 105.403077 
L 452.371176 105.403077 
L 452.371176 104.32 
L 454.064223 104.32 
L 454.064223 103.958974 
L 454.628571 103.958974 
L 454.628571 103.597949 
L 455.19292 103.597949 
L 455.19292 103.236923 
L 455.757269 103.236923 
L 455.757269 102.153846 
L 456.321618 102.153846 
L 456.321618 101.431795 
L 458.579014 101.431795 
L 458.579014 101.070769 
L 459.143363 101.070769 
L 459.143363 100.348718 
L 459.707712 100.348718 
L 459.707712 99.626667 
L 460.272061 99.626667 
L 460.272061 98.904615 
L 460.83641 98.904615 
L 460.83641 98.54359 
L 464.786852 98.54359 
L 464.786852 98.182564 
L 465.351201 98.182564 
L 465.351201 97.821538 
L 465.91555 97.821538 
L 465.91555 97.460513 
L 467.608597 97.460513 
L 467.608597 97.099487 
L 468.737295 97.099487 
L 468.737295 96.738462 
L 472.123388 96.738462 
L 472.123388 96.377436 
L 473.252086 96.377436 
L 473.252086 96.01641 
L 474.945133 96.01641 
L 474.945133 95.294359 
L 476.63818 95.294359 
L 476.63818 94.933333 
L 478.331226 94.933333 
L 478.331226 93.850256 
L 480.024273 93.850256 
L 480.024273 93.489231 
L 488.489507 93.489231 
L 488.489507 93.128205 
L 490.182554 93.128205 
L 490.182554 92.406154 
L 492.439949 92.406154 
L 492.439949 92.045128 
L 499.776485 92.045128 
L 499.776485 91.684103 
L 505.984324 91.684103 
L 505.984324 91.323077 
L 506.548673 91.323077 
L 506.548673 90.962051 
L 510.499115 90.962051 
L 510.499115 90.601026 
L 513.32086 90.601026 
L 513.32086 90.24 
L 518.4 90.24 
L 518.4 90.24 
" style="fill:none;stroke:#ff8c00;stroke-linecap:square;stroke-width:2;"/>
   </g>
   <g id="line2d_26">
    <path clip-path="url(#p76245565cb)" d="M 72 512.64 
L 518.4 90.24 
" style="fill:none;stroke:#000080;stroke-dasharray:7.4,3.2;stroke-dashoffset:0;stroke-width:2;"/>
   </g>
   <g id="patch_3">
    <path d="M 72 512.64 
L 72 69.12 
" style="fill:none;stroke:#000000;stroke-linecap:square;stroke-linejoin:miter;stroke-width:0.8;"/>
   </g>
   <g id="patch_4">
    <path d="M 518.4 512.64 
L 518.4 69.12 
" style="fill:none;stroke:#000000;stroke-linecap:square;stroke-linejoin:miter;stroke-width:0.8;"/>
   </g>
   <g id="patch_5">
    <path d="M 72 512.64 
L 518.4 512.64 
" style="fill:none;stroke:#000000;stroke-linecap:square;stroke-linejoin:miter;stroke-width:0.8;"/>
   </g>
   <g id="patch_6">
    <path d="M 72 69.12 
L 518.4 69.12 
" style="fill:none;stroke:#000000;stroke-linecap:square;stroke-linejoin:miter;stroke-width:0.8;"/>
   </g>
   <g id="legend_1">
    <g id="patch_7">
     <path d="M 427.081875 509.64 
L 514.2 509.64 
Q 515.4 509.64 515.4 508.44 
L 515.4 500.233125 
Q 515.4 499.033125 514.2 499.033125 
L 427.081875 499.033125 
Q 425.881875 499.033125 425.881875 500.233125 
L 425.881875 508.44 
Q 425.881875 509.64 427.081875 509.64 
z
" style="fill:#ffffff;opacity:0.8;stroke:#cccccc;stroke-linejoin:miter;"/>
    </g>
    <g id="line2d_27">
     <path d="M 428.281875 503.892187 
L 440.281875 503.892187 
" style="fill:none;stroke:#ff8c00;stroke-linecap:square;stroke-width:2;"/>
    </g>
    <g id="line2d_28"/>
    <g id="text_15">
     <!-- D006262 (area =0.76) -->
     <defs>
      <path d="M 19.671875 64.796875 
L 19.671875 8.109375 
L 31.59375 8.109375 
Q 46.6875 8.109375 53.6875 14.9375 
Q 60.6875 21.78125 60.6875 36.53125 
Q 60.6875 51.171875 53.6875 57.984375 
Q 46.6875 64.796875 31.59375 64.796875 
z
M 9.8125 72.90625 
L 30.078125 72.90625 
Q 51.265625 72.90625 61.171875 64.09375 
Q 71.09375 55.28125 71.09375 36.53125 
Q 71.09375 17.671875 61.125 8.828125 
Q 51.171875 0 30.078125 0 
L 9.8125 0 
z
" id="DejaVuSans-68"/>
      <path d="M 31 75.875 
Q 24.46875 64.65625 21.28125 53.65625 
Q 18.109375 42.671875 18.109375 31.390625 
Q 18.109375 20.125 21.3125 9.0625 
Q 24.515625 -2 31 -13.1875 
L 23.1875 -13.1875 
Q 15.875 -1.703125 12.234375 9.375 
Q 8.59375 20.453125 8.59375 31.390625 
Q 8.59375 42.28125 12.203125 53.3125 
Q 15.828125 64.359375 23.1875 75.875 
z
" id="DejaVuSans-40"/>
      <path d="M 10.59375 45.40625 
L 73.1875 45.40625 
L 73.1875 37.203125 
L 10.59375 37.203125 
z
M 10.59375 25.484375 
L 73.1875 25.484375 
L 73.1875 17.1875 
L 10.59375 17.1875 
z
" id="DejaVuSans-61"/>
      <path d="M 8.203125 72.90625 
L 55.078125 72.90625 
L 55.078125 68.703125 
L 28.609375 0 
L 18.3125 0 
L 43.21875 64.59375 
L 8.203125 64.59375 
z
" id="DejaVuSans-55"/>
      <path d="M 8.015625 75.875 
L 15.828125 75.875 
Q 23.140625 64.359375 26.78125 53.3125 
Q 30.421875 42.28125 30.421875 31.390625 
Q 30.421875 20.453125 26.78125 9.375 
Q 23.140625 -1.703125 15.828125 -13.1875 
L 8.015625 -13.1875 
Q 14.5 -2 17.703125 9.0625 
Q 20.90625 20.125 20.90625 31.390625 
Q 20.90625 42.671875 17.703125 53.65625 
Q 14.5 64.65625 8.015625 75.875 
z
" id="DejaVuSans-41"/>
     </defs>
     <g transform="translate(445.081875 505.992188)scale(0.06 -0.06)">
      <use xlink:href="#DejaVuSans-68"/>
      <use x="77.001953" xlink:href="#DejaVuSans-48"/>
      <use x="140.625" xlink:href="#DejaVuSans-48"/>
      <use x="204.248047" xlink:href="#DejaVuSans-54"/>
      <use x="267.871094" xlink:href="#DejaVuSans-50"/>
      <use x="331.494141" xlink:href="#DejaVuSans-54"/>
      <use x="395.117188" xlink:href="#DejaVuSans-50"/>
      <use x="458.740234" xlink:href="#DejaVuSans-32"/>
      <use x="490.527344" xlink:href="#DejaVuSans-40"/>
      <use x="529.541016" xlink:href="#DejaVuSans-97"/>
      <use x="590.820312" xlink:href="#DejaVuSans-114"/>
      <use x="631.902344" xlink:href="#DejaVuSans-101"/>
      <use x="693.425781" xlink:href="#DejaVuSans-97"/>
      <use x="754.705078" xlink:href="#DejaVuSans-32"/>
      <use x="786.492188" xlink:href="#DejaVuSans-61"/>
      <use x="870.28125" xlink:href="#DejaVuSans-48"/>
      <use x="933.904297" xlink:href="#DejaVuSans-46"/>
      <use x="965.691406" xlink:href="#DejaVuSans-55"/>
      <use x="1029.314453" xlink:href="#DejaVuSans-54"/>
      <use x="1092.9375" xlink:href="#DejaVuSans-41"/>
     </g>
    </g>
   </g>
  </g>
 </g>
 <defs>
  <clipPath id="p76245565cb">
   <rect height="443.52" width="446.4" x="72" y="69.12"/>
  </clipPath>
 </defs>
</svg>
