<?xml version="1.0" encoding="utf-8" standalone="no"?>
<!DOCTYPE svg PUBLIC "-//W3C//DTD SVG 1.1//EN"
  "http://www.w3.org/Graphics/SVG/1.1/DTD/svg11.dtd">
<!-- Created with matplotlib (https://matplotlib.org/) -->
<svg height="432pt" version="1.1" viewBox="0 0 720 432" width="720pt" xmlns="http://www.w3.org/2000/svg" xmlns:xlink="http://www.w3.org/1999/xlink">
 <defs>
  <style type="text/css">
*{stroke-linecap:butt;stroke-linejoin:round;}
  </style>
 </defs>
 <g id="figure_1">
  <g id="patch_1">
   <path d="M 0 432 
L 720 432 
L 720 0 
L 0 0 
z
" style="fill:#ffffff;"/>
  </g>
  <g id="axes_1">
   <g id="patch_2">
    <path d="M 90 384.48 
L 648 384.48 
L 648 51.84 
L 90 51.84 
z
" style="fill:#ffffff;"/>
   </g>
   <g id="PathCollection_1">
    <defs>
     <path d="M 0 3 
C 0.795609 3 1.55874 2.683901 2.12132 2.12132 
C 2.683901 1.55874 3 0.795609 3 0 
C 3 -0.795609 2.683901 -1.55874 2.12132 -2.12132 
C 1.55874 -2.683901 0.795609 -3 0 -3 
C -0.795609 -3 -1.55874 -2.683901 -2.12132 -2.12132 
C -2.683901 -1.55874 -3 -0.795609 -3 0 
C -3 0.795609 -2.683901 1.55874 -2.12132 2.12132 
C -1.55874 2.683901 -0.795609 3 0 3 
z
" id="m253ba86e7b" style="stroke:#f8766d;"/>
    </defs>
    <g clip-path="url(#p8bc5c6e6d9)">
     <use style="fill:#f8766d;stroke:#f8766d;" x="532.706367" xlink:href="#m253ba86e7b" y="308.80805"/>
     <use style="fill:#f8766d;stroke:#f8766d;" x="178.821914" xlink:href="#m253ba86e7b" y="119.860898"/>
     <use style="fill:#f8766d;stroke:#f8766d;" x="290.338029" xlink:href="#m253ba86e7b" y="105.197547"/>
     <use style="fill:#f8766d;stroke:#f8766d;" x="517.172196" xlink:href="#m253ba86e7b" y="244.351635"/>
     <use style="fill:#f8766d;stroke:#f8766d;" x="418.812355" xlink:href="#m253ba86e7b" y="360.026778"/>
    </g>
   </g>
   <g id="PathCollection_2">
    <defs>
     <path d="M 0 3 
C 0.795609 3 1.55874 2.683901 2.12132 2.12132 
C 2.683901 1.55874 3 0.795609 3 0 
C 3 -0.795609 2.683901 -1.55874 2.12132 -2.12132 
C 1.55874 -2.683901 0.795609 -3 0 -3 
C -0.795609 -3 -1.55874 -2.683901 -2.12132 -2.12132 
C -2.683901 -1.55874 -3 -0.795609 -3 0 
C -3 0.795609 -2.683901 1.55874 -2.12132 2.12132 
C -1.55874 2.683901 -0.795609 3 0 3 
z
" id="mcf2e57ab12" style="stroke:#00bfc4;"/>
    </defs>
    <g clip-path="url(#p8bc5c6e6d9)">
     <use style="fill:#00bfc4;stroke:#00bfc4;" x="557.142442" xlink:href="#mcf2e57ab12" y="214.800147"/>
     <use style="fill:#00bfc4;stroke:#00bfc4;" x="503.451502" xlink:href="#mcf2e57ab12" y="340.811098"/>
     <use style="fill:#00bfc4;stroke:#00bfc4;" x="514.571778" xlink:href="#mcf2e57ab12" y="245.001133"/>
     <use style="fill:#00bfc4;stroke:#00bfc4;" x="510.230942" xlink:href="#mcf2e57ab12" y="300.278576"/>
     <use style="fill:#00bfc4;stroke:#00bfc4;" x="519.563212" xlink:href="#mcf2e57ab12" y="258.159968"/>
     <use style="fill:#00bfc4;stroke:#00bfc4;" x="463.880445" xlink:href="#mcf2e57ab12" y="266.011513"/>
     <use style="fill:#00bfc4;stroke:#00bfc4;" x="588.406436" xlink:href="#mcf2e57ab12" y="293.624115"/>
     <use style="fill:#00bfc4;stroke:#00bfc4;" x="526.238131" xlink:href="#mcf2e57ab12" y="247.902425"/>
     <use style="fill:#00bfc4;stroke:#00bfc4;" x="498.603428" xlink:href="#mcf2e57ab12" y="288.647476"/>
     <use style="fill:#00bfc4;stroke:#00bfc4;" x="527.727447" xlink:href="#mcf2e57ab12" y="251.053439"/>
     <use style="fill:#00bfc4;stroke:#00bfc4;" x="538.03649" xlink:href="#mcf2e57ab12" y="286.982364"/>
     <use style="fill:#00bfc4;stroke:#00bfc4;" x="506.869932" xlink:href="#mcf2e57ab12" y="250.026166"/>
     <use style="fill:#00bfc4;stroke:#00bfc4;" x="528.334318" xlink:href="#mcf2e57ab12" y="254.114071"/>
     <use style="fill:#00bfc4;stroke:#00bfc4;" x="566.740593" xlink:href="#mcf2e57ab12" y="273.506806"/>
     <use style="fill:#00bfc4;stroke:#00bfc4;" x="493.201451" xlink:href="#mcf2e57ab12" y="239.126111"/>
     <use style="fill:#00bfc4;stroke:#00bfc4;" x="478.387839" xlink:href="#mcf2e57ab12" y="254.24961"/>
     <use style="fill:#00bfc4;stroke:#00bfc4;" x="482.191382" xlink:href="#mcf2e57ab12" y="291.101167"/>
     <use style="fill:#00bfc4;stroke:#00bfc4;" x="593.992123" xlink:href="#mcf2e57ab12" y="220.140521"/>
     <use style="fill:#00bfc4;stroke:#00bfc4;" x="458.165495" xlink:href="#mcf2e57ab12" y="259.652931"/>
     <use style="fill:#00bfc4;stroke:#00bfc4;" x="292.448537" xlink:href="#mcf2e57ab12" y="99.812803"/>
     <use style="fill:#00bfc4;stroke:#00bfc4;" x="352.124083" xlink:href="#mcf2e57ab12" y="246.069001"/>
     <use style="fill:#00bfc4;stroke:#00bfc4;" x="459.666431" xlink:href="#mcf2e57ab12" y="189.924006"/>
     <use style="fill:#00bfc4;stroke:#00bfc4;" x="367.988802" xlink:href="#mcf2e57ab12" y="125.152656"/>
     <use style="fill:#00bfc4;stroke:#00bfc4;" x="459.270176" xlink:href="#mcf2e57ab12" y="307.487052"/>
     <use style="fill:#00bfc4;stroke:#00bfc4;" x="223.55263" xlink:href="#mcf2e57ab12" y="250.210381"/>
     <use style="fill:#00bfc4;stroke:#00bfc4;" x="211.913608" xlink:href="#mcf2e57ab12" y="209.114361"/>
     <use style="fill:#00bfc4;stroke:#00bfc4;" x="300.155209" xlink:href="#mcf2e57ab12" y="87.593242"/>
     <use style="fill:#00bfc4;stroke:#00bfc4;" x="281.204448" xlink:href="#mcf2e57ab12" y="308.510558"/>
     <use style="fill:#00bfc4;stroke:#00bfc4;" x="145.338177" xlink:href="#mcf2e57ab12" y="177.925146"/>
     <use style="fill:#00bfc4;stroke:#00bfc4;" x="147.936986" xlink:href="#mcf2e57ab12" y="221.91679"/>
     <use style="fill:#00bfc4;stroke:#00bfc4;" x="476.665173" xlink:href="#mcf2e57ab12" y="367.537796"/>
     <use style="fill:#00bfc4;stroke:#00bfc4;" x="302.272687" xlink:href="#mcf2e57ab12" y="294.484845"/>
     <use style="fill:#00bfc4;stroke:#00bfc4;" x="371.632929" xlink:href="#mcf2e57ab12" y="125.154797"/>
     <use style="fill:#00bfc4;stroke:#00bfc4;" x="519.833784" xlink:href="#mcf2e57ab12" y="158.311486"/>
     <use style="fill:#00bfc4;stroke:#00bfc4;" x="546.189208" xlink:href="#mcf2e57ab12" y="333.811707"/>
     <use style="fill:#00bfc4;stroke:#00bfc4;" x="339.30602" xlink:href="#mcf2e57ab12" y="250.464001"/>
     <use style="fill:#00bfc4;stroke:#00bfc4;" x="168.821938" xlink:href="#mcf2e57ab12" y="215.880153"/>
     <use style="fill:#00bfc4;stroke:#00bfc4;" x="354.352951" xlink:href="#mcf2e57ab12" y="209.059729"/>
     <use style="fill:#00bfc4;stroke:#00bfc4;" x="621.128692" xlink:href="#mcf2e57ab12" y="230.180236"/>
     <use style="fill:#00bfc4;stroke:#00bfc4;" x="503.187169" xlink:href="#mcf2e57ab12" y="202.319979"/>
     <use style="fill:#00bfc4;stroke:#00bfc4;" x="179.650559" xlink:href="#mcf2e57ab12" y="126.036665"/>
     <use style="fill:#00bfc4;stroke:#00bfc4;" x="286.179602" xlink:href="#mcf2e57ab12" y="108.90123"/>
     <use style="fill:#00bfc4;stroke:#00bfc4;" x="394.201111" xlink:href="#mcf2e57ab12" y="283.494403"/>
     <use style="fill:#00bfc4;stroke:#00bfc4;" x="469.051454" xlink:href="#mcf2e57ab12" y="204.200304"/>
     <use style="fill:#00bfc4;stroke:#00bfc4;" x="318.4137" xlink:href="#mcf2e57ab12" y="265.758453"/>
     <use style="fill:#00bfc4;stroke:#00bfc4;" x="282.746542" xlink:href="#mcf2e57ab12" y="265.670558"/>
     <use style="fill:#00bfc4;stroke:#00bfc4;" x="249.619031" xlink:href="#mcf2e57ab12" y="225.592285"/>
     <use style="fill:#00bfc4;stroke:#00bfc4;" x="380.352321" xlink:href="#mcf2e57ab12" y="283.940792"/>
     <use style="fill:#00bfc4;stroke:#00bfc4;" x="304.379469" xlink:href="#mcf2e57ab12" y="322.15042"/>
     <use style="fill:#00bfc4;stroke:#00bfc4;" x="371.024339" xlink:href="#mcf2e57ab12" y="297.430338"/>
     <use style="fill:#00bfc4;stroke:#00bfc4;" x="580.67239" xlink:href="#mcf2e57ab12" y="247.720779"/>
     <use style="fill:#00bfc4;stroke:#00bfc4;" x="443.568063" xlink:href="#mcf2e57ab12" y="130.225484"/>
     <use style="fill:#00bfc4;stroke:#00bfc4;" x="342.9003" xlink:href="#mcf2e57ab12" y="103.716224"/>
     <use style="fill:#00bfc4;stroke:#00bfc4;" x="458.503595" xlink:href="#mcf2e57ab12" y="247.01852"/>
     <use style="fill:#00bfc4;stroke:#00bfc4;" x="540.620033" xlink:href="#mcf2e57ab12" y="273.575095"/>
     <use style="fill:#00bfc4;stroke:#00bfc4;" x="502.525642" xlink:href="#mcf2e57ab12" y="228.192401"/>
     <use style="fill:#00bfc4;stroke:#00bfc4;" x="456.721061" xlink:href="#mcf2e57ab12" y="297.169846"/>
     <use style="fill:#00bfc4;stroke:#00bfc4;" x="574.562145" xlink:href="#mcf2e57ab12" y="253.960586"/>
     <use style="fill:#00bfc4;stroke:#00bfc4;" x="439.387959" xlink:href="#mcf2e57ab12" y="324.137511"/>
     <use style="fill:#00bfc4;stroke:#00bfc4;" x="451.627674" xlink:href="#mcf2e57ab12" y="277.379124"/>
     <use style="fill:#00bfc4;stroke:#00bfc4;" x="190.683384" xlink:href="#mcf2e57ab12" y="266.862257"/>
     <use style="fill:#00bfc4;stroke:#00bfc4;" x="385.351368" xlink:href="#mcf2e57ab12" y="330.103305"/>
     <use style="fill:#00bfc4;stroke:#00bfc4;" x="277.613179" xlink:href="#mcf2e57ab12" y="68.782204"/>
     <use style="fill:#00bfc4;stroke:#00bfc4;" x="293.563142" xlink:href="#mcf2e57ab12" y="158.030651"/>
     <use style="fill:#00bfc4;stroke:#00bfc4;" x="388.040012" xlink:href="#mcf2e57ab12" y="201.064429"/>
     <use style="fill:#00bfc4;stroke:#00bfc4;" x="212.280355" xlink:href="#mcf2e57ab12" y="172.75708"/>
     <use style="fill:#00bfc4;stroke:#00bfc4;" x="432.925803" xlink:href="#mcf2e57ab12" y="283.157979"/>
     <use style="fill:#00bfc4;stroke:#00bfc4;" x="473.88628" xlink:href="#mcf2e57ab12" y="202.436581"/>
     <use style="fill:#00bfc4;stroke:#00bfc4;" x="136.926045" xlink:href="#mcf2e57ab12" y="157.720541"/>
     <use style="fill:#00bfc4;stroke:#00bfc4;" x="330.255488" xlink:href="#mcf2e57ab12" y="286.085903"/>
     <use style="fill:#00bfc4;stroke:#00bfc4;" x="400.540687" xlink:href="#mcf2e57ab12" y="224.033573"/>
     <use style="fill:#00bfc4;stroke:#00bfc4;" x="271.926499" xlink:href="#mcf2e57ab12" y="206.717321"/>
     <use style="fill:#00bfc4;stroke:#00bfc4;" x="612.182912" xlink:href="#mcf2e57ab12" y="285.116419"/>
     <use style="fill:#00bfc4;stroke:#00bfc4;" x="492.697083" xlink:href="#mcf2e57ab12" y="187.816066"/>
     <use style="fill:#00bfc4;stroke:#00bfc4;" x="121.465021" xlink:href="#mcf2e57ab12" y="233.404563"/>
     <use style="fill:#00bfc4;stroke:#00bfc4;" x="325.668589" xlink:href="#mcf2e57ab12" y="202.028201"/>
     <use style="fill:#00bfc4;stroke:#00bfc4;" x="431.809429" xlink:href="#mcf2e57ab12" y="149.66586"/>
     <use style="fill:#00bfc4;stroke:#00bfc4;" x="550.31997" xlink:href="#mcf2e57ab12" y="169.8407"/>
     <use style="fill:#00bfc4;stroke:#00bfc4;" x="327.461194" xlink:href="#mcf2e57ab12" y="130.093677"/>
     <use style="fill:#00bfc4;stroke:#00bfc4;" x="341.040687" xlink:href="#mcf2e57ab12" y="156.620187"/>
     <use style="fill:#00bfc4;stroke:#00bfc4;" x="415.366877" xlink:href="#mcf2e57ab12" y="318.360183"/>
     <use style="fill:#00bfc4;stroke:#00bfc4;" x="512.336951" xlink:href="#mcf2e57ab12" y="193.637977"/>
     <use style="fill:#00bfc4;stroke:#00bfc4;" x="248.401202" xlink:href="#mcf2e57ab12" y="248.097423"/>
     <use style="fill:#00bfc4;stroke:#00bfc4;" x="261.723594" xlink:href="#mcf2e57ab12" y="210.760145"/>
     <use style="fill:#00bfc4;stroke:#00bfc4;" x="503.766794" xlink:href="#mcf2e57ab12" y="125.867597"/>
     <use style="fill:#00bfc4;stroke:#00bfc4;" x="352.986496" xlink:href="#mcf2e57ab12" y="163.641216"/>
     <use style="fill:#00bfc4;stroke:#00bfc4;" x="474.897014" xlink:href="#mcf2e57ab12" y="156.088204"/>
     <use style="fill:#00bfc4;stroke:#00bfc4;" x="228.935886" xlink:href="#mcf2e57ab12" y="277.865108"/>
     <use style="fill:#00bfc4;stroke:#00bfc4;" x="269.158764" xlink:href="#mcf2e57ab12" y="163.261004"/>
     <use style="fill:#00bfc4;stroke:#00bfc4;" x="421.424914" xlink:href="#mcf2e57ab12" y="224.214171"/>
     <use style="fill:#00bfc4;stroke:#00bfc4;" x="408.807554" xlink:href="#mcf2e57ab12" y="188.471182"/>
     <use style="fill:#00bfc4;stroke:#00bfc4;" x="136.398641" xlink:href="#mcf2e57ab12" y="180.404136"/>
     <use style="fill:#00bfc4;stroke:#00bfc4;" x="409.287982" xlink:href="#mcf2e57ab12" y="304.63821"/>
     <use style="fill:#00bfc4;stroke:#00bfc4;" x="181.250633" xlink:href="#mcf2e57ab12" y="194.28407"/>
     <use style="fill:#00bfc4;stroke:#00bfc4;" x="358.65811" xlink:href="#mcf2e57ab12" y="182.35651"/>
     <use style="fill:#00bfc4;stroke:#00bfc4;" x="235.214868" xlink:href="#mcf2e57ab12" y="295.455754"/>
     <use style="fill:#00bfc4;stroke:#00bfc4;" x="333.925095" xlink:href="#mcf2e57ab12" y="131.432331"/>
     <use style="fill:#00bfc4;stroke:#00bfc4;" x="387.328175" xlink:href="#mcf2e57ab12" y="261.200625"/>
     <use style="fill:#00bfc4;stroke:#00bfc4;" x="307.639971" xlink:href="#mcf2e57ab12" y="158.50481"/>
     <use style="fill:#00bfc4;stroke:#00bfc4;" x="332.496704" xlink:href="#mcf2e57ab12" y="254.935612"/>
     <use style="fill:#00bfc4;stroke:#00bfc4;" x="232.587889" xlink:href="#mcf2e57ab12" y="96.227911"/>
     <use style="fill:#00bfc4;stroke:#00bfc4;" x="433.382554" xlink:href="#mcf2e57ab12" y="148.164714"/>
     <use style="fill:#00bfc4;stroke:#00bfc4;" x="422.24079" xlink:href="#mcf2e57ab12" y="254.809119"/>
     <use style="fill:#00bfc4;stroke:#00bfc4;" x="586.000892" xlink:href="#mcf2e57ab12" y="176.973016"/>
     <use style="fill:#00bfc4;stroke:#00bfc4;" x="318.312157" xlink:href="#mcf2e57ab12" y="199.445058"/>
     <use style="fill:#00bfc4;stroke:#00bfc4;" x="230.19001" xlink:href="#mcf2e57ab12" y="200.266408"/>
     <use style="fill:#00bfc4;stroke:#00bfc4;" x="178.715505" xlink:href="#mcf2e57ab12" y="235.663698"/>
     <use style="fill:#00bfc4;stroke:#00bfc4;" x="410.822764" xlink:href="#mcf2e57ab12" y="317.004874"/>
     <use style="fill:#00bfc4;stroke:#00bfc4;" x="259.606273" xlink:href="#mcf2e57ab12" y="297.366212"/>
     <use style="fill:#00bfc4;stroke:#00bfc4;" x="368.722011" xlink:href="#mcf2e57ab12" y="256.948908"/>
     <use style="fill:#00bfc4;stroke:#00bfc4;" x="517.541823" xlink:href="#mcf2e57ab12" y="144.754634"/>
     <use style="fill:#00bfc4;stroke:#00bfc4;" x="346.25724" xlink:href="#mcf2e57ab12" y="219.603237"/>
     <use style="fill:#00bfc4;stroke:#00bfc4;" x="208.515481" xlink:href="#mcf2e57ab12" y="183.396447"/>
     <use style="fill:#00bfc4;stroke:#00bfc4;" x="386.08461" xlink:href="#mcf2e57ab12" y="251.614065"/>
     <use style="fill:#00bfc4;stroke:#00bfc4;" x="236.491653" xlink:href="#mcf2e57ab12" y="288.180893"/>
     <use style="fill:#00bfc4;stroke:#00bfc4;" x="602.676802" xlink:href="#mcf2e57ab12" y="308.67352"/>
     <use style="fill:#00bfc4;stroke:#00bfc4;" x="116.871308" xlink:href="#mcf2e57ab12" y="199.964765"/>
     <use style="fill:#00bfc4;stroke:#00bfc4;" x="539.260681" xlink:href="#mcf2e57ab12" y="202.155058"/>
     <use style="fill:#00bfc4;stroke:#00bfc4;" x="258.899549" xlink:href="#mcf2e57ab12" y="211.423052"/>
     <use style="fill:#00bfc4;stroke:#00bfc4;" x="290.819234" xlink:href="#mcf2e57ab12" y="265.803994"/>
     <use style="fill:#00bfc4;stroke:#00bfc4;" x="268.92747" xlink:href="#mcf2e57ab12" y="169.022467"/>
     <use style="fill:#00bfc4;stroke:#00bfc4;" x="277.701989" xlink:href="#mcf2e57ab12" y="274.368235"/>
     <use style="fill:#00bfc4;stroke:#00bfc4;" x="149.716092" xlink:href="#mcf2e57ab12" y="188.583046"/>
     <use style="fill:#00bfc4;stroke:#00bfc4;" x="141.927334" xlink:href="#mcf2e57ab12" y="179.099864"/>
     <use style="fill:#00bfc4;stroke:#00bfc4;" x="269.057081" xlink:href="#mcf2e57ab12" y="158.548305"/>
     <use style="fill:#00bfc4;stroke:#00bfc4;" x="192.328603" xlink:href="#mcf2e57ab12" y="264.586426"/>
     <use style="fill:#00bfc4;stroke:#00bfc4;" x="342.384336" xlink:href="#mcf2e57ab12" y="93.074612"/>
     <use style="fill:#00bfc4;stroke:#00bfc4;" x="197.699168" xlink:href="#mcf2e57ab12" y="230.542206"/>
     <use style="fill:#00bfc4;stroke:#00bfc4;" x="187.411716" xlink:href="#mcf2e57ab12" y="230.222187"/>
     <use style="fill:#00bfc4;stroke:#00bfc4;" x="235.381969" xlink:href="#mcf2e57ab12" y="261.986376"/>
     <use style="fill:#00bfc4;stroke:#00bfc4;" x="264.893482" xlink:href="#mcf2e57ab12" y="238.110548"/>
     <use style="fill:#00bfc4;stroke:#00bfc4;" x="409.747193" xlink:href="#mcf2e57ab12" y="189.822994"/>
     <use style="fill:#00bfc4;stroke:#00bfc4;" x="220.446082" xlink:href="#mcf2e57ab12" y="229.745022"/>
     <use style="fill:#00bfc4;stroke:#00bfc4;" x="200.27019" xlink:href="#mcf2e57ab12" y="182.568814"/>
     <use style="fill:#00bfc4;stroke:#00bfc4;" x="176.956174" xlink:href="#mcf2e57ab12" y="173.531596"/>
     <use style="fill:#00bfc4;stroke:#00bfc4;" x="439.715278" xlink:href="#mcf2e57ab12" y="132.393293"/>
     <use style="fill:#00bfc4;stroke:#00bfc4;" x="512.085101" xlink:href="#mcf2e57ab12" y="264.69312"/>
     <use style="fill:#00bfc4;stroke:#00bfc4;" x="507.703248" xlink:href="#mcf2e57ab12" y="340.762304"/>
     <use style="fill:#00bfc4;stroke:#00bfc4;" x="507.365188" xlink:href="#mcf2e57ab12" y="255.776091"/>
     <use style="fill:#00bfc4;stroke:#00bfc4;" x="583.069084" xlink:href="#mcf2e57ab12" y="254.516844"/>
     <use style="fill:#00bfc4;stroke:#00bfc4;" x="546.171126" xlink:href="#mcf2e57ab12" y="222.707402"/>
     <use style="fill:#00bfc4;stroke:#00bfc4;" x="535.903981" xlink:href="#mcf2e57ab12" y="227.432206"/>
     <use style="fill:#00bfc4;stroke:#00bfc4;" x="517.193615" xlink:href="#mcf2e57ab12" y="281.177342"/>
     <use style="fill:#00bfc4;stroke:#00bfc4;" x="521.820052" xlink:href="#mcf2e57ab12" y="262.588162"/>
     <use style="fill:#00bfc4;stroke:#00bfc4;" x="584.967863" xlink:href="#mcf2e57ab12" y="234.760689"/>
     <use style="fill:#00bfc4;stroke:#00bfc4;" x="548.670752" xlink:href="#mcf2e57ab12" y="254.615035"/>
     <use style="fill:#00bfc4;stroke:#00bfc4;" x="574.544614" xlink:href="#mcf2e57ab12" y="224.23044"/>
     <use style="fill:#00bfc4;stroke:#00bfc4;" x="543.278" xlink:href="#mcf2e57ab12" y="228.856077"/>
     <use style="fill:#00bfc4;stroke:#00bfc4;" x="620.707831" xlink:href="#mcf2e57ab12" y="258.481522"/>
     <use style="fill:#00bfc4;stroke:#00bfc4;" x="508.073587" xlink:href="#mcf2e57ab12" y="255.109875"/>
     <use style="fill:#00bfc4;stroke:#00bfc4;" x="515.91503" xlink:href="#mcf2e57ab12" y="244.708037"/>
     <use style="fill:#00bfc4;stroke:#00bfc4;" x="505.583623" xlink:href="#mcf2e57ab12" y="272.470064"/>
     <use style="fill:#00bfc4;stroke:#00bfc4;" x="554.995345" xlink:href="#mcf2e57ab12" y="253.289256"/>
     <use style="fill:#00bfc4;stroke:#00bfc4;" x="483.623593" xlink:href="#mcf2e57ab12" y="259.417955"/>
     <use style="fill:#00bfc4;stroke:#00bfc4;" x="615.146936" xlink:href="#mcf2e57ab12" y="257.426696"/>
     <use style="fill:#00bfc4;stroke:#00bfc4;" x="523.525247" xlink:href="#mcf2e57ab12" y="257.450098"/>
     <use style="fill:#00bfc4;stroke:#00bfc4;" x="487.744045" xlink:href="#mcf2e57ab12" y="266.776095"/>
     <use style="fill:#00bfc4;stroke:#00bfc4;" x="573.863675" xlink:href="#mcf2e57ab12" y="214.53969"/>
     <use style="fill:#00bfc4;stroke:#00bfc4;" x="591.417388" xlink:href="#mcf2e57ab12" y="297.355723"/>
     <use style="fill:#00bfc4;stroke:#00bfc4;" x="378.033017" xlink:href="#mcf2e57ab12" y="176.832942"/>
     <use style="fill:#00bfc4;stroke:#00bfc4;" x="456.44782" xlink:href="#mcf2e57ab12" y="212.459981"/>
     <use style="fill:#00bfc4;stroke:#00bfc4;" x="376.525824" xlink:href="#mcf2e57ab12" y="299.016973"/>
     <use style="fill:#00bfc4;stroke:#00bfc4;" x="553.421498" xlink:href="#mcf2e57ab12" y="294.96692"/>
     <use style="fill:#00bfc4;stroke:#00bfc4;" x="470.88114" xlink:href="#mcf2e57ab12" y="349.670963"/>
     <use style="fill:#00bfc4;stroke:#00bfc4;" x="343.068455" xlink:href="#mcf2e57ab12" y="124.472791"/>
     <use style="fill:#00bfc4;stroke:#00bfc4;" x="119.349196" xlink:href="#mcf2e57ab12" y="236.721838"/>
     <use style="fill:#00bfc4;stroke:#00bfc4;" x="337.856296" xlink:href="#mcf2e57ab12" y="328.070546"/>
     <use style="fill:#00bfc4;stroke:#00bfc4;" x="295.376807" xlink:href="#mcf2e57ab12" y="225.980271"/>
     <use style="fill:#00bfc4;stroke:#00bfc4;" x="254.020512" xlink:href="#mcf2e57ab12" y="130.64749"/>
     <use style="fill:#00bfc4;stroke:#00bfc4;" x="194.733696" xlink:href="#mcf2e57ab12" y="324.621537"/>
     <use style="fill:#00bfc4;stroke:#00bfc4;" x="334.345257" xlink:href="#mcf2e57ab12" y="87.340044"/>
     <use style="fill:#00bfc4;stroke:#00bfc4;" x="290.781597" xlink:href="#mcf2e57ab12" y="241.927325"/>
     <use style="fill:#00bfc4;stroke:#00bfc4;" x="296.431598" xlink:href="#mcf2e57ab12" y="141.49797"/>
     <use style="fill:#00bfc4;stroke:#00bfc4;" x="236.955325" xlink:href="#mcf2e57ab12" y="118.185777"/>
     <use style="fill:#00bfc4;stroke:#00bfc4;" x="334.57199" xlink:href="#mcf2e57ab12" y="326.731462"/>
     <use style="fill:#00bfc4;stroke:#00bfc4;" x="333.061372" xlink:href="#mcf2e57ab12" y="216.327492"/>
     <use style="fill:#00bfc4;stroke:#00bfc4;" x="216.790489" xlink:href="#mcf2e57ab12" y="232.013592"/>
     <use style="fill:#00bfc4;stroke:#00bfc4;" x="341.955754" xlink:href="#mcf2e57ab12" y="288.78699"/>
     <use style="fill:#00bfc4;stroke:#00bfc4;" x="228.560213" xlink:href="#mcf2e57ab12" y="206.817091"/>
     <use style="fill:#00bfc4;stroke:#00bfc4;" x="502.413279" xlink:href="#mcf2e57ab12" y="122.460522"/>
     <use style="fill:#00bfc4;stroke:#00bfc4;" x="373.646787" xlink:href="#mcf2e57ab12" y="232.73573"/>
     <use style="fill:#00bfc4;stroke:#00bfc4;" x="175.477008" xlink:href="#mcf2e57ab12" y="168.160105"/>
     <use style="fill:#00bfc4;stroke:#00bfc4;" x="584.29963" xlink:href="#mcf2e57ab12" y="321.378836"/>
     <use style="fill:#00bfc4;stroke:#00bfc4;" x="310.715836" xlink:href="#mcf2e57ab12" y="264.78026"/>
     <use style="fill:#00bfc4;stroke:#00bfc4;" x="275.784512" xlink:href="#mcf2e57ab12" y="306.508857"/>
     <use style="fill:#00bfc4;stroke:#00bfc4;" x="447.548686" xlink:href="#mcf2e57ab12" y="245.169347"/>
     <use style="fill:#00bfc4;stroke:#00bfc4;" x="170.565641" xlink:href="#mcf2e57ab12" y="242.86724"/>
    </g>
   </g>
   <g id="matplotlib.axis_1">
    <g id="xtick_1">
     <g id="line2d_1">
      <defs>
       <path d="M 0 0 
L 0 3.5 
" id="mfd957985dd" style="stroke:#000000;stroke-width:0.8;"/>
      </defs>
      <g>
       <use style="stroke:#000000;stroke-width:0.8;" x="155.732565" xlink:href="#mfd957985dd" y="384.48"/>
      </g>
     </g>
     <g id="text_1">
      <!-- −10 -->
      <defs>
       <path d="M 10.59375 35.5 
L 73.1875 35.5 
L 73.1875 27.203125 
L 10.59375 27.203125 
z
" id="DejaVuSans-8722"/>
       <path d="M 12.40625 8.296875 
L 28.515625 8.296875 
L 28.515625 63.921875 
L 10.984375 60.40625 
L 10.984375 69.390625 
L 28.421875 72.90625 
L 38.28125 72.90625 
L 38.28125 8.296875 
L 54.390625 8.296875 
L 54.390625 0 
L 12.40625 0 
z
" id="DejaVuSans-49"/>
       <path d="M 31.78125 66.40625 
Q 24.171875 66.40625 20.328125 58.90625 
Q 16.5 51.421875 16.5 36.375 
Q 16.5 21.390625 20.328125 13.890625 
Q 24.171875 6.390625 31.78125 6.390625 
Q 39.453125 6.390625 43.28125 13.890625 
Q 47.125 21.390625 47.125 36.375 
Q 47.125 51.421875 43.28125 58.90625 
Q 39.453125 66.40625 31.78125 66.40625 
z
M 31.78125 74.21875 
Q 44.046875 74.21875 50.515625 64.515625 
Q 56.984375 54.828125 56.984375 36.375 
Q 56.984375 17.96875 50.515625 8.265625 
Q 44.046875 -1.421875 31.78125 -1.421875 
Q 19.53125 -1.421875 13.0625 8.265625 
Q 6.59375 17.96875 6.59375 36.375 
Q 6.59375 54.828125 13.0625 64.515625 
Q 19.53125 74.21875 31.78125 74.21875 
z
" id="DejaVuSans-48"/>
      </defs>
      <g transform="translate(145.180221 399.078438)scale(0.1 -0.1)">
       <use xlink:href="#DejaVuSans-8722"/>
       <use x="83.789062" xlink:href="#DejaVuSans-49"/>
       <use x="147.412109" xlink:href="#DejaVuSans-48"/>
      </g>
     </g>
    </g>
    <g id="xtick_2">
     <g id="line2d_2">
      <g>
       <use style="stroke:#000000;stroke-width:0.8;" x="278.407566" xlink:href="#mfd957985dd" y="384.48"/>
      </g>
     </g>
     <g id="text_2">
      <!-- −5 -->
      <defs>
       <path d="M 10.796875 72.90625 
L 49.515625 72.90625 
L 49.515625 64.59375 
L 19.828125 64.59375 
L 19.828125 46.734375 
Q 21.96875 47.46875 24.109375 47.828125 
Q 26.265625 48.1875 28.421875 48.1875 
Q 40.625 48.1875 47.75 41.5 
Q 54.890625 34.8125 54.890625 23.390625 
Q 54.890625 11.625 47.5625 5.09375 
Q 40.234375 -1.421875 26.90625 -1.421875 
Q 22.3125 -1.421875 17.546875 -0.640625 
Q 12.796875 0.140625 7.71875 1.703125 
L 7.71875 11.625 
Q 12.109375 9.234375 16.796875 8.0625 
Q 21.484375 6.890625 26.703125 6.890625 
Q 35.15625 6.890625 40.078125 11.328125 
Q 45.015625 15.765625 45.015625 23.390625 
Q 45.015625 31 40.078125 35.4375 
Q 35.15625 39.890625 26.703125 39.890625 
Q 22.75 39.890625 18.8125 39.015625 
Q 14.890625 38.140625 10.796875 36.28125 
z
" id="DejaVuSans-53"/>
      </defs>
      <g transform="translate(271.036472 399.078438)scale(0.1 -0.1)">
       <use xlink:href="#DejaVuSans-8722"/>
       <use x="83.789062" xlink:href="#DejaVuSans-53"/>
      </g>
     </g>
    </g>
    <g id="xtick_3">
     <g id="line2d_3">
      <g>
       <use style="stroke:#000000;stroke-width:0.8;" x="401.082567" xlink:href="#mfd957985dd" y="384.48"/>
      </g>
     </g>
     <g id="text_3">
      <!-- 0 -->
      <g transform="translate(397.901317 399.078438)scale(0.1 -0.1)">
       <use xlink:href="#DejaVuSans-48"/>
      </g>
     </g>
    </g>
    <g id="xtick_4">
     <g id="line2d_4">
      <g>
       <use style="stroke:#000000;stroke-width:0.8;" x="523.757569" xlink:href="#mfd957985dd" y="384.48"/>
      </g>
     </g>
     <g id="text_4">
      <!-- 5 -->
      <g transform="translate(520.576319 399.078438)scale(0.1 -0.1)">
       <use xlink:href="#DejaVuSans-53"/>
      </g>
     </g>
    </g>
    <g id="xtick_5">
     <g id="line2d_5">
      <g>
       <use style="stroke:#000000;stroke-width:0.8;" x="646.43257" xlink:href="#mfd957985dd" y="384.48"/>
      </g>
     </g>
     <g id="text_5">
      <!-- 10 -->
      <g transform="translate(640.07007 399.078438)scale(0.1 -0.1)">
       <use xlink:href="#DejaVuSans-49"/>
       <use x="63.623047" xlink:href="#DejaVuSans-48"/>
      </g>
     </g>
    </g>
    <g id="text_6">
     <!-- tSNE-1 -->
     <defs>
      <path d="M 18.3125 70.21875 
L 18.3125 54.6875 
L 36.8125 54.6875 
L 36.8125 47.703125 
L 18.3125 47.703125 
L 18.3125 18.015625 
Q 18.3125 11.328125 20.140625 9.421875 
Q 21.96875 7.515625 27.59375 7.515625 
L 36.8125 7.515625 
L 36.8125 0 
L 27.59375 0 
Q 17.1875 0 13.234375 3.875 
Q 9.28125 7.765625 9.28125 18.015625 
L 9.28125 47.703125 
L 2.6875 47.703125 
L 2.6875 54.6875 
L 9.28125 54.6875 
L 9.28125 70.21875 
z
" id="DejaVuSans-116"/>
      <path d="M 53.515625 70.515625 
L 53.515625 60.890625 
Q 47.90625 63.578125 42.921875 64.890625 
Q 37.9375 66.21875 33.296875 66.21875 
Q 25.25 66.21875 20.875 63.09375 
Q 16.5 59.96875 16.5 54.203125 
Q 16.5 49.359375 19.40625 46.890625 
Q 22.3125 44.4375 30.421875 42.921875 
L 36.375 41.703125 
Q 47.40625 39.59375 52.65625 34.296875 
Q 57.90625 29 57.90625 20.125 
Q 57.90625 9.515625 50.796875 4.046875 
Q 43.703125 -1.421875 29.984375 -1.421875 
Q 24.8125 -1.421875 18.96875 -0.25 
Q 13.140625 0.921875 6.890625 3.21875 
L 6.890625 13.375 
Q 12.890625 10.015625 18.65625 8.296875 
Q 24.421875 6.59375 29.984375 6.59375 
Q 38.421875 6.59375 43.015625 9.90625 
Q 47.609375 13.234375 47.609375 19.390625 
Q 47.609375 24.75 44.3125 27.78125 
Q 41.015625 30.8125 33.5 32.328125 
L 27.484375 33.5 
Q 16.453125 35.6875 11.515625 40.375 
Q 6.59375 45.0625 6.59375 53.421875 
Q 6.59375 63.09375 13.40625 68.65625 
Q 20.21875 74.21875 32.171875 74.21875 
Q 37.3125 74.21875 42.625 73.28125 
Q 47.953125 72.359375 53.515625 70.515625 
z
" id="DejaVuSans-83"/>
      <path d="M 9.8125 72.90625 
L 23.09375 72.90625 
L 55.421875 11.921875 
L 55.421875 72.90625 
L 64.984375 72.90625 
L 64.984375 0 
L 51.703125 0 
L 19.390625 60.984375 
L 19.390625 0 
L 9.8125 0 
z
" id="DejaVuSans-78"/>
      <path d="M 9.8125 72.90625 
L 55.90625 72.90625 
L 55.90625 64.59375 
L 19.671875 64.59375 
L 19.671875 43.015625 
L 54.390625 43.015625 
L 54.390625 34.71875 
L 19.671875 34.71875 
L 19.671875 8.296875 
L 56.78125 8.296875 
L 56.78125 0 
L 9.8125 0 
z
" id="DejaVuSans-69"/>
      <path d="M 4.890625 31.390625 
L 31.203125 31.390625 
L 31.203125 23.390625 
L 4.890625 23.390625 
z
" id="DejaVuSans-45"/>
     </defs>
     <g transform="translate(351.980469 412.756563)scale(0.1 -0.1)">
      <use xlink:href="#DejaVuSans-116"/>
      <use x="39.208984" xlink:href="#DejaVuSans-83"/>
      <use x="102.685547" xlink:href="#DejaVuSans-78"/>
      <use x="177.490234" xlink:href="#DejaVuSans-69"/>
      <use x="240.673828" xlink:href="#DejaVuSans-45"/>
      <use x="276.757812" xlink:href="#DejaVuSans-49"/>
     </g>
    </g>
   </g>
   <g id="matplotlib.axis_2">
    <g id="ytick_1">
     <g id="line2d_6">
      <defs>
       <path d="M 0 0 
L -3.5 0 
" id="m5c461d1507" style="stroke:#000000;stroke-width:0.8;"/>
      </defs>
      <g>
       <use style="stroke:#000000;stroke-width:0.8;" x="90" xlink:href="#m5c461d1507" y="361.249474"/>
      </g>
     </g>
     <g id="text_7">
      <!-- −6 -->
      <defs>
       <path d="M 33.015625 40.375 
Q 26.375 40.375 22.484375 35.828125 
Q 18.609375 31.296875 18.609375 23.390625 
Q 18.609375 15.53125 22.484375 10.953125 
Q 26.375 6.390625 33.015625 6.390625 
Q 39.65625 6.390625 43.53125 10.953125 
Q 47.40625 15.53125 47.40625 23.390625 
Q 47.40625 31.296875 43.53125 35.828125 
Q 39.65625 40.375 33.015625 40.375 
z
M 52.59375 71.296875 
L 52.59375 62.3125 
Q 48.875 64.0625 45.09375 64.984375 
Q 41.3125 65.921875 37.59375 65.921875 
Q 27.828125 65.921875 22.671875 59.328125 
Q 17.53125 52.734375 16.796875 39.40625 
Q 19.671875 43.65625 24.015625 45.921875 
Q 28.375 48.1875 33.59375 48.1875 
Q 44.578125 48.1875 50.953125 41.515625 
Q 57.328125 34.859375 57.328125 23.390625 
Q 57.328125 12.15625 50.6875 5.359375 
Q 44.046875 -1.421875 33.015625 -1.421875 
Q 20.359375 -1.421875 13.671875 8.265625 
Q 6.984375 17.96875 6.984375 36.375 
Q 6.984375 53.65625 15.1875 63.9375 
Q 23.390625 74.21875 37.203125 74.21875 
Q 40.921875 74.21875 44.703125 73.484375 
Q 48.484375 72.75 52.59375 71.296875 
z
" id="DejaVuSans-54"/>
      </defs>
      <g transform="translate(68.257812 365.048692)scale(0.1 -0.1)">
       <use xlink:href="#DejaVuSans-8722"/>
       <use x="83.789062" xlink:href="#DejaVuSans-54"/>
      </g>
     </g>
    </g>
    <g id="ytick_2">
     <g id="line2d_7">
      <g>
       <use style="stroke:#000000;stroke-width:0.8;" x="90" xlink:href="#m5c461d1507" y="318.227396"/>
      </g>
     </g>
     <g id="text_8">
      <!-- −4 -->
      <defs>
       <path d="M 37.796875 64.3125 
L 12.890625 25.390625 
L 37.796875 25.390625 
z
M 35.203125 72.90625 
L 47.609375 72.90625 
L 47.609375 25.390625 
L 58.015625 25.390625 
L 58.015625 17.1875 
L 47.609375 17.1875 
L 47.609375 0 
L 37.796875 0 
L 37.796875 17.1875 
L 4.890625 17.1875 
L 4.890625 26.703125 
z
" id="DejaVuSans-52"/>
      </defs>
      <g transform="translate(68.257812 322.026615)scale(0.1 -0.1)">
       <use xlink:href="#DejaVuSans-8722"/>
       <use x="83.789062" xlink:href="#DejaVuSans-52"/>
      </g>
     </g>
    </g>
    <g id="ytick_3">
     <g id="line2d_8">
      <g>
       <use style="stroke:#000000;stroke-width:0.8;" x="90" xlink:href="#m5c461d1507" y="275.205318"/>
      </g>
     </g>
     <g id="text_9">
      <!-- −2 -->
      <defs>
       <path d="M 19.1875 8.296875 
L 53.609375 8.296875 
L 53.609375 0 
L 7.328125 0 
L 7.328125 8.296875 
Q 12.9375 14.109375 22.625 23.890625 
Q 32.328125 33.6875 34.8125 36.53125 
Q 39.546875 41.84375 41.421875 45.53125 
Q 43.3125 49.21875 43.3125 52.78125 
Q 43.3125 58.59375 39.234375 62.25 
Q 35.15625 65.921875 28.609375 65.921875 
Q 23.96875 65.921875 18.8125 64.3125 
Q 13.671875 62.703125 7.8125 59.421875 
L 7.8125 69.390625 
Q 13.765625 71.78125 18.9375 73 
Q 24.125 74.21875 28.421875 74.21875 
Q 39.75 74.21875 46.484375 68.546875 
Q 53.21875 62.890625 53.21875 53.421875 
Q 53.21875 48.921875 51.53125 44.890625 
Q 49.859375 40.875 45.40625 35.40625 
Q 44.1875 33.984375 37.640625 27.21875 
Q 31.109375 20.453125 19.1875 8.296875 
z
" id="DejaVuSans-50"/>
      </defs>
      <g transform="translate(68.257812 279.004537)scale(0.1 -0.1)">
       <use xlink:href="#DejaVuSans-8722"/>
       <use x="83.789062" xlink:href="#DejaVuSans-50"/>
      </g>
     </g>
    </g>
    <g id="ytick_4">
     <g id="line2d_9">
      <g>
       <use style="stroke:#000000;stroke-width:0.8;" x="90" xlink:href="#m5c461d1507" y="232.18324"/>
      </g>
     </g>
     <g id="text_10">
      <!-- 0 -->
      <g transform="translate(76.6375 235.982459)scale(0.1 -0.1)">
       <use xlink:href="#DejaVuSans-48"/>
      </g>
     </g>
    </g>
    <g id="ytick_5">
     <g id="line2d_10">
      <g>
       <use style="stroke:#000000;stroke-width:0.8;" x="90" xlink:href="#m5c461d1507" y="189.161162"/>
      </g>
     </g>
     <g id="text_11">
      <!-- 2 -->
      <g transform="translate(76.6375 192.960381)scale(0.1 -0.1)">
       <use xlink:href="#DejaVuSans-50"/>
      </g>
     </g>
    </g>
    <g id="ytick_6">
     <g id="line2d_11">
      <g>
       <use style="stroke:#000000;stroke-width:0.8;" x="90" xlink:href="#m5c461d1507" y="146.139084"/>
      </g>
     </g>
     <g id="text_12">
      <!-- 4 -->
      <g transform="translate(76.6375 149.938303)scale(0.1 -0.1)">
       <use xlink:href="#DejaVuSans-52"/>
      </g>
     </g>
    </g>
    <g id="ytick_7">
     <g id="line2d_12">
      <g>
       <use style="stroke:#000000;stroke-width:0.8;" x="90" xlink:href="#m5c461d1507" y="103.117006"/>
      </g>
     </g>
     <g id="text_13">
      <!-- 6 -->
      <g transform="translate(76.6375 106.916225)scale(0.1 -0.1)">
       <use xlink:href="#DejaVuSans-54"/>
      </g>
     </g>
    </g>
    <g id="ytick_8">
     <g id="line2d_13">
      <g>
       <use style="stroke:#000000;stroke-width:0.8;" x="90" xlink:href="#m5c461d1507" y="60.094928"/>
      </g>
     </g>
     <g id="text_14">
      <!-- 8 -->
      <defs>
       <path d="M 31.78125 34.625 
Q 24.75 34.625 20.71875 30.859375 
Q 16.703125 27.09375 16.703125 20.515625 
Q 16.703125 13.921875 20.71875 10.15625 
Q 24.75 6.390625 31.78125 6.390625 
Q 38.8125 6.390625 42.859375 10.171875 
Q 46.921875 13.96875 46.921875 20.515625 
Q 46.921875 27.09375 42.890625 30.859375 
Q 38.875 34.625 31.78125 34.625 
z
M 21.921875 38.8125 
Q 15.578125 40.375 12.03125 44.71875 
Q 8.5 49.078125 8.5 55.328125 
Q 8.5 64.0625 14.71875 69.140625 
Q 20.953125 74.21875 31.78125 74.21875 
Q 42.671875 74.21875 48.875 69.140625 
Q 55.078125 64.0625 55.078125 55.328125 
Q 55.078125 49.078125 51.53125 44.71875 
Q 48 40.375 41.703125 38.8125 
Q 48.828125 37.15625 52.796875 32.3125 
Q 56.78125 27.484375 56.78125 20.515625 
Q 56.78125 9.90625 50.3125 4.234375 
Q 43.84375 -1.421875 31.78125 -1.421875 
Q 19.734375 -1.421875 13.25 4.234375 
Q 6.78125 9.90625 6.78125 20.515625 
Q 6.78125 27.484375 10.78125 32.3125 
Q 14.796875 37.15625 21.921875 38.8125 
z
M 18.3125 54.390625 
Q 18.3125 48.734375 21.84375 45.5625 
Q 25.390625 42.390625 31.78125 42.390625 
Q 38.140625 42.390625 41.71875 45.5625 
Q 45.3125 48.734375 45.3125 54.390625 
Q 45.3125 60.0625 41.71875 63.234375 
Q 38.140625 66.40625 31.78125 66.40625 
Q 25.390625 66.40625 21.84375 63.234375 
Q 18.3125 60.0625 18.3125 54.390625 
z
" id="DejaVuSans-56"/>
      </defs>
      <g transform="translate(76.6375 63.894147)scale(0.1 -0.1)">
       <use xlink:href="#DejaVuSans-56"/>
      </g>
     </g>
    </g>
    <g id="text_15">
     <!-- tSNE-2 -->
     <g transform="translate(62.178125 235.179531)rotate(-90)scale(0.1 -0.1)">
      <use xlink:href="#DejaVuSans-116"/>
      <use x="39.208984" xlink:href="#DejaVuSans-83"/>
      <use x="102.685547" xlink:href="#DejaVuSans-78"/>
      <use x="177.490234" xlink:href="#DejaVuSans-69"/>
      <use x="240.673828" xlink:href="#DejaVuSans-45"/>
      <use x="276.757812" xlink:href="#DejaVuSans-50"/>
     </g>
    </g>
   </g>
   <g id="patch_3">
    <path d="M 90 384.48 
L 90 51.84 
" style="fill:none;stroke:#000000;stroke-linecap:square;stroke-linejoin:miter;stroke-width:0.8;"/>
   </g>
   <g id="patch_4">
    <path d="M 648 384.48 
L 648 51.84 
" style="fill:none;stroke:#000000;stroke-linecap:square;stroke-linejoin:miter;stroke-width:0.8;"/>
   </g>
   <g id="patch_5">
    <path d="M 90 384.48 
L 648 384.48 
" style="fill:none;stroke:#000000;stroke-linecap:square;stroke-linejoin:miter;stroke-width:0.8;"/>
   </g>
   <g id="patch_6">
    <path d="M 90 51.84 
L 648 51.84 
" style="fill:none;stroke:#000000;stroke-linecap:square;stroke-linejoin:miter;stroke-width:0.8;"/>
   </g>
   <g id="legend_1">
    <g id="patch_7">
     <path d="M 563.125 89.19625 
L 641 89.19625 
Q 643 89.19625 643 87.19625 
L 643 58.84 
Q 643 56.84 641 56.84 
L 563.125 56.84 
Q 561.125 56.84 561.125 58.84 
L 561.125 87.19625 
Q 561.125 89.19625 563.125 89.19625 
z
" style="fill:#ffffff;opacity:0.8;stroke:#cccccc;stroke-linejoin:miter;"/>
    </g>
    <g id="PathCollection_3">
     <g>
      <use style="fill:#f8766d;stroke:#f8766d;" x="575.125" xlink:href="#m253ba86e7b" y="65.813437"/>
     </g>
    </g>
    <g id="text_16">
     <!-- D004827 -->
     <defs>
      <path d="M 19.671875 64.796875 
L 19.671875 8.109375 
L 31.59375 8.109375 
Q 46.6875 8.109375 53.6875 14.9375 
Q 60.6875 21.78125 60.6875 36.53125 
Q 60.6875 51.171875 53.6875 57.984375 
Q 46.6875 64.796875 31.59375 64.796875 
z
M 9.8125 72.90625 
L 30.078125 72.90625 
Q 51.265625 72.90625 61.171875 64.09375 
Q 71.09375 55.28125 71.09375 36.53125 
Q 71.09375 17.671875 61.125 8.828125 
Q 51.171875 0 30.078125 0 
L 9.8125 0 
z
" id="DejaVuSans-68"/>
      <path d="M 8.203125 72.90625 
L 55.078125 72.90625 
L 55.078125 68.703125 
L 28.609375 0 
L 18.3125 0 
L 43.21875 64.59375 
L 8.203125 64.59375 
z
" id="DejaVuSans-55"/>
     </defs>
     <g transform="translate(593.125 68.438437)scale(0.1 -0.1)">
      <use xlink:href="#DejaVuSans-68"/>
      <use x="77.001953" xlink:href="#DejaVuSans-48"/>
      <use x="140.625" xlink:href="#DejaVuSans-48"/>
      <use x="204.248047" xlink:href="#DejaVuSans-52"/>
      <use x="267.871094" xlink:href="#DejaVuSans-56"/>
      <use x="331.494141" xlink:href="#DejaVuSans-50"/>
      <use x="395.117188" xlink:href="#DejaVuSans-55"/>
     </g>
    </g>
    <g id="PathCollection_4">
     <g>
      <use style="fill:#00bfc4;stroke:#00bfc4;" x="575.125" xlink:href="#mcf2e57ab12" y="80.491562"/>
     </g>
    </g>
    <g id="text_17">
     <!-- D006262 -->
     <g transform="translate(593.125 83.116562)scale(0.1 -0.1)">
      <use xlink:href="#DejaVuSans-68"/>
      <use x="77.001953" xlink:href="#DejaVuSans-48"/>
      <use x="140.625" xlink:href="#DejaVuSans-48"/>
      <use x="204.248047" xlink:href="#DejaVuSans-54"/>
      <use x="267.871094" xlink:href="#DejaVuSans-50"/>
      <use x="331.494141" xlink:href="#DejaVuSans-54"/>
      <use x="395.117188" xlink:href="#DejaVuSans-50"/>
     </g>
    </g>
   </g>
  </g>
 </g>
 <defs>
  <clipPath id="p8bc5c6e6d9">
   <rect height="332.64" width="558" x="90" y="51.84"/>
  </clipPath>
 </defs>
</svg>
