<?xml version="1.0" encoding="utf-8" standalone="no"?>
<!DOCTYPE svg PUBLIC "-//W3C//DTD SVG 1.1//EN"
  "http://www.w3.org/Graphics/SVG/1.1/DTD/svg11.dtd">
<!-- Created with matplotlib (https://matplotlib.org/) -->
<svg height="576pt" version="1.1" viewBox="0 0 576 576" width="576pt" xmlns="http://www.w3.org/2000/svg" xmlns:xlink="http://www.w3.org/1999/xlink">
 <defs>
  <style type="text/css">
*{stroke-linecap:butt;stroke-linejoin:round;}
  </style>
 </defs>
 <g id="figure_1">
  <g id="patch_1">
   <path d="M 0 576 
L 576 576 
L 576 0 
L 0 0 
z
" style="fill:#ffffff;"/>
  </g>
  <g id="axes_1">
   <g id="patch_2">
    <path d="M 72 512.64 
L 518.4 512.64 
L 518.4 69.12 
L 72 69.12 
z
" style="fill:#ffffff;"/>
   </g>
   <g id="matplotlib.axis_1">
    <g id="xtick_1">
     <g id="line2d_1">
      <path clip-path="url(#p4d36182037)" d="M 72 512.64 
L 72 69.12 
" style="fill:none;stroke:#b0b0b0;stroke-linecap:square;stroke-width:0.8;"/>
     </g>
     <g id="line2d_2">
      <defs>
       <path d="M 0 0 
L 0 3.5 
" id="m722b93659c" style="stroke:#000000;stroke-width:0.8;"/>
      </defs>
      <g>
       <use style="stroke:#000000;stroke-width:0.8;" x="72" xlink:href="#m722b93659c" y="512.64"/>
      </g>
     </g>
     <g id="text_1">
      <!-- 0.0 -->
      <defs>
       <path d="M 31.78125 66.40625 
Q 24.171875 66.40625 20.328125 58.90625 
Q 16.5 51.421875 16.5 36.375 
Q 16.5 21.390625 20.328125 13.890625 
Q 24.171875 6.390625 31.78125 6.390625 
Q 39.453125 6.390625 43.28125 13.890625 
Q 47.125 21.390625 47.125 36.375 
Q 47.125 51.421875 43.28125 58.90625 
Q 39.453125 66.40625 31.78125 66.40625 
z
M 31.78125 74.21875 
Q 44.046875 74.21875 50.515625 64.515625 
Q 56.984375 54.828125 56.984375 36.375 
Q 56.984375 17.96875 50.515625 8.265625 
Q 44.046875 -1.421875 31.78125 -1.421875 
Q 19.53125 -1.421875 13.0625 8.265625 
Q 6.59375 17.96875 6.59375 36.375 
Q 6.59375 54.828125 13.0625 64.515625 
Q 19.53125 74.21875 31.78125 74.21875 
z
" id="DejaVuSans-48"/>
       <path d="M 10.6875 12.40625 
L 21 12.40625 
L 21 0 
L 10.6875 0 
z
" id="DejaVuSans-46"/>
      </defs>
      <g transform="translate(64.048438 527.238438)scale(0.1 -0.1)">
       <use xlink:href="#DejaVuSans-48"/>
       <use x="63.623047" xlink:href="#DejaVuSans-46"/>
       <use x="95.410156" xlink:href="#DejaVuSans-48"/>
      </g>
     </g>
    </g>
    <g id="xtick_2">
     <g id="line2d_3">
      <path clip-path="url(#p4d36182037)" d="M 161.28 512.64 
L 161.28 69.12 
" style="fill:none;stroke:#b0b0b0;stroke-linecap:square;stroke-width:0.8;"/>
     </g>
     <g id="line2d_4">
      <g>
       <use style="stroke:#000000;stroke-width:0.8;" x="161.28" xlink:href="#m722b93659c" y="512.64"/>
      </g>
     </g>
     <g id="text_2">
      <!-- 0.2 -->
      <defs>
       <path d="M 19.1875 8.296875 
L 53.609375 8.296875 
L 53.609375 0 
L 7.328125 0 
L 7.328125 8.296875 
Q 12.9375 14.109375 22.625 23.890625 
Q 32.328125 33.6875 34.8125 36.53125 
Q 39.546875 41.84375 41.421875 45.53125 
Q 43.3125 49.21875 43.3125 52.78125 
Q 43.3125 58.59375 39.234375 62.25 
Q 35.15625 65.921875 28.609375 65.921875 
Q 23.96875 65.921875 18.8125 64.3125 
Q 13.671875 62.703125 7.8125 59.421875 
L 7.8125 69.390625 
Q 13.765625 71.78125 18.9375 73 
Q 24.125 74.21875 28.421875 74.21875 
Q 39.75 74.21875 46.484375 68.546875 
Q 53.21875 62.890625 53.21875 53.421875 
Q 53.21875 48.921875 51.53125 44.890625 
Q 49.859375 40.875 45.40625 35.40625 
Q 44.1875 33.984375 37.640625 27.21875 
Q 31.109375 20.453125 19.1875 8.296875 
z
" id="DejaVuSans-50"/>
      </defs>
      <g transform="translate(153.328438 527.238438)scale(0.1 -0.1)">
       <use xlink:href="#DejaVuSans-48"/>
       <use x="63.623047" xlink:href="#DejaVuSans-46"/>
       <use x="95.410156" xlink:href="#DejaVuSans-50"/>
      </g>
     </g>
    </g>
    <g id="xtick_3">
     <g id="line2d_5">
      <path clip-path="url(#p4d36182037)" d="M 250.56 512.64 
L 250.56 69.12 
" style="fill:none;stroke:#b0b0b0;stroke-linecap:square;stroke-width:0.8;"/>
     </g>
     <g id="line2d_6">
      <g>
       <use style="stroke:#000000;stroke-width:0.8;" x="250.56" xlink:href="#m722b93659c" y="512.64"/>
      </g>
     </g>
     <g id="text_3">
      <!-- 0.4 -->
      <defs>
       <path d="M 37.796875 64.3125 
L 12.890625 25.390625 
L 37.796875 25.390625 
z
M 35.203125 72.90625 
L 47.609375 72.90625 
L 47.609375 25.390625 
L 58.015625 25.390625 
L 58.015625 17.1875 
L 47.609375 17.1875 
L 47.609375 0 
L 37.796875 0 
L 37.796875 17.1875 
L 4.890625 17.1875 
L 4.890625 26.703125 
z
" id="DejaVuSans-52"/>
      </defs>
      <g transform="translate(242.608438 527.238438)scale(0.1 -0.1)">
       <use xlink:href="#DejaVuSans-48"/>
       <use x="63.623047" xlink:href="#DejaVuSans-46"/>
       <use x="95.410156" xlink:href="#DejaVuSans-52"/>
      </g>
     </g>
    </g>
    <g id="xtick_4">
     <g id="line2d_7">
      <path clip-path="url(#p4d36182037)" d="M 339.84 512.64 
L 339.84 69.12 
" style="fill:none;stroke:#b0b0b0;stroke-linecap:square;stroke-width:0.8;"/>
     </g>
     <g id="line2d_8">
      <g>
       <use style="stroke:#000000;stroke-width:0.8;" x="339.84" xlink:href="#m722b93659c" y="512.64"/>
      </g>
     </g>
     <g id="text_4">
      <!-- 0.6 -->
      <defs>
       <path d="M 33.015625 40.375 
Q 26.375 40.375 22.484375 35.828125 
Q 18.609375 31.296875 18.609375 23.390625 
Q 18.609375 15.53125 22.484375 10.953125 
Q 26.375 6.390625 33.015625 6.390625 
Q 39.65625 6.390625 43.53125 10.953125 
Q 47.40625 15.53125 47.40625 23.390625 
Q 47.40625 31.296875 43.53125 35.828125 
Q 39.65625 40.375 33.015625 40.375 
z
M 52.59375 71.296875 
L 52.59375 62.3125 
Q 48.875 64.0625 45.09375 64.984375 
Q 41.3125 65.921875 37.59375 65.921875 
Q 27.828125 65.921875 22.671875 59.328125 
Q 17.53125 52.734375 16.796875 39.40625 
Q 19.671875 43.65625 24.015625 45.921875 
Q 28.375 48.1875 33.59375 48.1875 
Q 44.578125 48.1875 50.953125 41.515625 
Q 57.328125 34.859375 57.328125 23.390625 
Q 57.328125 12.15625 50.6875 5.359375 
Q 44.046875 -1.421875 33.015625 -1.421875 
Q 20.359375 -1.421875 13.671875 8.265625 
Q 6.984375 17.96875 6.984375 36.375 
Q 6.984375 53.65625 15.1875 63.9375 
Q 23.390625 74.21875 37.203125 74.21875 
Q 40.921875 74.21875 44.703125 73.484375 
Q 48.484375 72.75 52.59375 71.296875 
z
" id="DejaVuSans-54"/>
      </defs>
      <g transform="translate(331.888438 527.238438)scale(0.1 -0.1)">
       <use xlink:href="#DejaVuSans-48"/>
       <use x="63.623047" xlink:href="#DejaVuSans-46"/>
       <use x="95.410156" xlink:href="#DejaVuSans-54"/>
      </g>
     </g>
    </g>
    <g id="xtick_5">
     <g id="line2d_9">
      <path clip-path="url(#p4d36182037)" d="M 429.12 512.64 
L 429.12 69.12 
" style="fill:none;stroke:#b0b0b0;stroke-linecap:square;stroke-width:0.8;"/>
     </g>
     <g id="line2d_10">
      <g>
       <use style="stroke:#000000;stroke-width:0.8;" x="429.12" xlink:href="#m722b93659c" y="512.64"/>
      </g>
     </g>
     <g id="text_5">
      <!-- 0.8 -->
      <defs>
       <path d="M 31.78125 34.625 
Q 24.75 34.625 20.71875 30.859375 
Q 16.703125 27.09375 16.703125 20.515625 
Q 16.703125 13.921875 20.71875 10.15625 
Q 24.75 6.390625 31.78125 6.390625 
Q 38.8125 6.390625 42.859375 10.171875 
Q 46.921875 13.96875 46.921875 20.515625 
Q 46.921875 27.09375 42.890625 30.859375 
Q 38.875 34.625 31.78125 34.625 
z
M 21.921875 38.8125 
Q 15.578125 40.375 12.03125 44.71875 
Q 8.5 49.078125 8.5 55.328125 
Q 8.5 64.0625 14.71875 69.140625 
Q 20.953125 74.21875 31.78125 74.21875 
Q 42.671875 74.21875 48.875 69.140625 
Q 55.078125 64.0625 55.078125 55.328125 
Q 55.078125 49.078125 51.53125 44.71875 
Q 48 40.375 41.703125 38.8125 
Q 48.828125 37.15625 52.796875 32.3125 
Q 56.78125 27.484375 56.78125 20.515625 
Q 56.78125 9.90625 50.3125 4.234375 
Q 43.84375 -1.421875 31.78125 -1.421875 
Q 19.734375 -1.421875 13.25 4.234375 
Q 6.78125 9.90625 6.78125 20.515625 
Q 6.78125 27.484375 10.78125 32.3125 
Q 14.796875 37.15625 21.921875 38.8125 
z
M 18.3125 54.390625 
Q 18.3125 48.734375 21.84375 45.5625 
Q 25.390625 42.390625 31.78125 42.390625 
Q 38.140625 42.390625 41.71875 45.5625 
Q 45.3125 48.734375 45.3125 54.390625 
Q 45.3125 60.0625 41.71875 63.234375 
Q 38.140625 66.40625 31.78125 66.40625 
Q 25.390625 66.40625 21.84375 63.234375 
Q 18.3125 60.0625 18.3125 54.390625 
z
" id="DejaVuSans-56"/>
      </defs>
      <g transform="translate(421.168437 527.238438)scale(0.1 -0.1)">
       <use xlink:href="#DejaVuSans-48"/>
       <use x="63.623047" xlink:href="#DejaVuSans-46"/>
       <use x="95.410156" xlink:href="#DejaVuSans-56"/>
      </g>
     </g>
    </g>
    <g id="xtick_6">
     <g id="line2d_11">
      <path clip-path="url(#p4d36182037)" d="M 518.4 512.64 
L 518.4 69.12 
" style="fill:none;stroke:#b0b0b0;stroke-linecap:square;stroke-width:0.8;"/>
     </g>
     <g id="line2d_12">
      <g>
       <use style="stroke:#000000;stroke-width:0.8;" x="518.4" xlink:href="#m722b93659c" y="512.64"/>
      </g>
     </g>
     <g id="text_6">
      <!-- 1.0 -->
      <defs>
       <path d="M 12.40625 8.296875 
L 28.515625 8.296875 
L 28.515625 63.921875 
L 10.984375 60.40625 
L 10.984375 69.390625 
L 28.421875 72.90625 
L 38.28125 72.90625 
L 38.28125 8.296875 
L 54.390625 8.296875 
L 54.390625 0 
L 12.40625 0 
z
" id="DejaVuSans-49"/>
      </defs>
      <g transform="translate(510.448437 527.238438)scale(0.1 -0.1)">
       <use xlink:href="#DejaVuSans-49"/>
       <use x="63.623047" xlink:href="#DejaVuSans-46"/>
       <use x="95.410156" xlink:href="#DejaVuSans-48"/>
      </g>
     </g>
    </g>
    <g id="text_7">
     <!-- False Positive Rate -->
     <defs>
      <path d="M 9.8125 72.90625 
L 51.703125 72.90625 
L 51.703125 64.59375 
L 19.671875 64.59375 
L 19.671875 43.109375 
L 48.578125 43.109375 
L 48.578125 34.8125 
L 19.671875 34.8125 
L 19.671875 0 
L 9.8125 0 
z
" id="DejaVuSans-70"/>
      <path d="M 34.28125 27.484375 
Q 23.390625 27.484375 19.1875 25 
Q 14.984375 22.515625 14.984375 16.5 
Q 14.984375 11.71875 18.140625 8.90625 
Q 21.296875 6.109375 26.703125 6.109375 
Q 34.1875 6.109375 38.703125 11.40625 
Q 43.21875 16.703125 43.21875 25.484375 
L 43.21875 27.484375 
z
M 52.203125 31.203125 
L 52.203125 0 
L 43.21875 0 
L 43.21875 8.296875 
Q 40.140625 3.328125 35.546875 0.953125 
Q 30.953125 -1.421875 24.3125 -1.421875 
Q 15.921875 -1.421875 10.953125 3.296875 
Q 6 8.015625 6 15.921875 
Q 6 25.140625 12.171875 29.828125 
Q 18.359375 34.515625 30.609375 34.515625 
L 43.21875 34.515625 
L 43.21875 35.40625 
Q 43.21875 41.609375 39.140625 45 
Q 35.0625 48.390625 27.6875 48.390625 
Q 23 48.390625 18.546875 47.265625 
Q 14.109375 46.140625 10.015625 43.890625 
L 10.015625 52.203125 
Q 14.9375 54.109375 19.578125 55.046875 
Q 24.21875 56 28.609375 56 
Q 40.484375 56 46.34375 49.84375 
Q 52.203125 43.703125 52.203125 31.203125 
z
" id="DejaVuSans-97"/>
      <path d="M 9.421875 75.984375 
L 18.40625 75.984375 
L 18.40625 0 
L 9.421875 0 
z
" id="DejaVuSans-108"/>
      <path d="M 44.28125 53.078125 
L 44.28125 44.578125 
Q 40.484375 46.53125 36.375 47.5 
Q 32.28125 48.484375 27.875 48.484375 
Q 21.1875 48.484375 17.84375 46.4375 
Q 14.5 44.390625 14.5 40.28125 
Q 14.5 37.15625 16.890625 35.375 
Q 19.28125 33.59375 26.515625 31.984375 
L 29.59375 31.296875 
Q 39.15625 29.25 43.1875 25.515625 
Q 47.21875 21.78125 47.21875 15.09375 
Q 47.21875 7.46875 41.1875 3.015625 
Q 35.15625 -1.421875 24.609375 -1.421875 
Q 20.21875 -1.421875 15.453125 -0.5625 
Q 10.6875 0.296875 5.421875 2 
L 5.421875 11.28125 
Q 10.40625 8.6875 15.234375 7.390625 
Q 20.0625 6.109375 24.8125 6.109375 
Q 31.15625 6.109375 34.5625 8.28125 
Q 37.984375 10.453125 37.984375 14.40625 
Q 37.984375 18.0625 35.515625 20.015625 
Q 33.0625 21.96875 24.703125 23.78125 
L 21.578125 24.515625 
Q 13.234375 26.265625 9.515625 29.90625 
Q 5.8125 33.546875 5.8125 39.890625 
Q 5.8125 47.609375 11.28125 51.796875 
Q 16.75 56 26.8125 56 
Q 31.78125 56 36.171875 55.265625 
Q 40.578125 54.546875 44.28125 53.078125 
z
" id="DejaVuSans-115"/>
      <path d="M 56.203125 29.59375 
L 56.203125 25.203125 
L 14.890625 25.203125 
Q 15.484375 15.921875 20.484375 11.0625 
Q 25.484375 6.203125 34.421875 6.203125 
Q 39.59375 6.203125 44.453125 7.46875 
Q 49.3125 8.734375 54.109375 11.28125 
L 54.109375 2.78125 
Q 49.265625 0.734375 44.1875 -0.34375 
Q 39.109375 -1.421875 33.890625 -1.421875 
Q 20.796875 -1.421875 13.15625 6.1875 
Q 5.515625 13.8125 5.515625 26.8125 
Q 5.515625 40.234375 12.765625 48.109375 
Q 20.015625 56 32.328125 56 
Q 43.359375 56 49.78125 48.890625 
Q 56.203125 41.796875 56.203125 29.59375 
z
M 47.21875 32.234375 
Q 47.125 39.59375 43.09375 43.984375 
Q 39.0625 48.390625 32.421875 48.390625 
Q 24.90625 48.390625 20.390625 44.140625 
Q 15.875 39.890625 15.1875 32.171875 
z
" id="DejaVuSans-101"/>
      <path id="DejaVuSans-32"/>
      <path d="M 19.671875 64.796875 
L 19.671875 37.40625 
L 32.078125 37.40625 
Q 38.96875 37.40625 42.71875 40.96875 
Q 46.484375 44.53125 46.484375 51.125 
Q 46.484375 57.671875 42.71875 61.234375 
Q 38.96875 64.796875 32.078125 64.796875 
z
M 9.8125 72.90625 
L 32.078125 72.90625 
Q 44.34375 72.90625 50.609375 67.359375 
Q 56.890625 61.8125 56.890625 51.125 
Q 56.890625 40.328125 50.609375 34.8125 
Q 44.34375 29.296875 32.078125 29.296875 
L 19.671875 29.296875 
L 19.671875 0 
L 9.8125 0 
z
" id="DejaVuSans-80"/>
      <path d="M 30.609375 48.390625 
Q 23.390625 48.390625 19.1875 42.75 
Q 14.984375 37.109375 14.984375 27.296875 
Q 14.984375 17.484375 19.15625 11.84375 
Q 23.34375 6.203125 30.609375 6.203125 
Q 37.796875 6.203125 41.984375 11.859375 
Q 46.1875 17.53125 46.1875 27.296875 
Q 46.1875 37.015625 41.984375 42.703125 
Q 37.796875 48.390625 30.609375 48.390625 
z
M 30.609375 56 
Q 42.328125 56 49.015625 48.375 
Q 55.71875 40.765625 55.71875 27.296875 
Q 55.71875 13.875 49.015625 6.21875 
Q 42.328125 -1.421875 30.609375 -1.421875 
Q 18.84375 -1.421875 12.171875 6.21875 
Q 5.515625 13.875 5.515625 27.296875 
Q 5.515625 40.765625 12.171875 48.375 
Q 18.84375 56 30.609375 56 
z
" id="DejaVuSans-111"/>
      <path d="M 9.421875 54.6875 
L 18.40625 54.6875 
L 18.40625 0 
L 9.421875 0 
z
M 9.421875 75.984375 
L 18.40625 75.984375 
L 18.40625 64.59375 
L 9.421875 64.59375 
z
" id="DejaVuSans-105"/>
      <path d="M 18.3125 70.21875 
L 18.3125 54.6875 
L 36.8125 54.6875 
L 36.8125 47.703125 
L 18.3125 47.703125 
L 18.3125 18.015625 
Q 18.3125 11.328125 20.140625 9.421875 
Q 21.96875 7.515625 27.59375 7.515625 
L 36.8125 7.515625 
L 36.8125 0 
L 27.59375 0 
Q 17.1875 0 13.234375 3.875 
Q 9.28125 7.765625 9.28125 18.015625 
L 9.28125 47.703125 
L 2.6875 47.703125 
L 2.6875 54.6875 
L 9.28125 54.6875 
L 9.28125 70.21875 
z
" id="DejaVuSans-116"/>
      <path d="M 2.984375 54.6875 
L 12.5 54.6875 
L 29.59375 8.796875 
L 46.6875 54.6875 
L 56.203125 54.6875 
L 35.6875 0 
L 23.484375 0 
z
" id="DejaVuSans-118"/>
      <path d="M 44.390625 34.1875 
Q 47.5625 33.109375 50.5625 29.59375 
Q 53.5625 26.078125 56.59375 19.921875 
L 66.609375 0 
L 56 0 
L 46.6875 18.703125 
Q 43.0625 26.03125 39.671875 28.421875 
Q 36.28125 30.8125 30.421875 30.8125 
L 19.671875 30.8125 
L 19.671875 0 
L 9.8125 0 
L 9.8125 72.90625 
L 32.078125 72.90625 
Q 44.578125 72.90625 50.734375 67.671875 
Q 56.890625 62.453125 56.890625 51.90625 
Q 56.890625 45.015625 53.6875 40.46875 
Q 50.484375 35.9375 44.390625 34.1875 
z
M 19.671875 64.796875 
L 19.671875 38.921875 
L 32.078125 38.921875 
Q 39.203125 38.921875 42.84375 42.21875 
Q 46.484375 45.515625 46.484375 51.90625 
Q 46.484375 58.296875 42.84375 61.546875 
Q 39.203125 64.796875 32.078125 64.796875 
z
" id="DejaVuSans-82"/>
     </defs>
     <g transform="translate(247.994531 540.916563)scale(0.1 -0.1)">
      <use xlink:href="#DejaVuSans-70"/>
      <use x="57.378906" xlink:href="#DejaVuSans-97"/>
      <use x="118.658203" xlink:href="#DejaVuSans-108"/>
      <use x="146.441406" xlink:href="#DejaVuSans-115"/>
      <use x="198.541016" xlink:href="#DejaVuSans-101"/>
      <use x="260.064453" xlink:href="#DejaVuSans-32"/>
      <use x="291.851562" xlink:href="#DejaVuSans-80"/>
      <use x="352.107422" xlink:href="#DejaVuSans-111"/>
      <use x="413.289062" xlink:href="#DejaVuSans-115"/>
      <use x="465.388672" xlink:href="#DejaVuSans-105"/>
      <use x="493.171875" xlink:href="#DejaVuSans-116"/>
      <use x="532.380859" xlink:href="#DejaVuSans-105"/>
      <use x="560.164062" xlink:href="#DejaVuSans-118"/>
      <use x="619.34375" xlink:href="#DejaVuSans-101"/>
      <use x="680.867188" xlink:href="#DejaVuSans-32"/>
      <use x="712.654297" xlink:href="#DejaVuSans-82"/>
      <use x="782.105469" xlink:href="#DejaVuSans-97"/>
      <use x="843.384766" xlink:href="#DejaVuSans-116"/>
      <use x="882.59375" xlink:href="#DejaVuSans-101"/>
     </g>
    </g>
   </g>
   <g id="matplotlib.axis_2">
    <g id="ytick_1">
     <g id="line2d_13">
      <path clip-path="url(#p4d36182037)" d="M 72 512.64 
L 518.4 512.64 
" style="fill:none;stroke:#b0b0b0;stroke-linecap:square;stroke-width:0.8;"/>
     </g>
     <g id="line2d_14">
      <defs>
       <path d="M 0 0 
L -3.5 0 
" id="m396c6c4d56" style="stroke:#000000;stroke-width:0.8;"/>
      </defs>
      <g>
       <use style="stroke:#000000;stroke-width:0.8;" x="72" xlink:href="#m396c6c4d56" y="512.64"/>
      </g>
     </g>
     <g id="text_8">
      <!-- 0.0 -->
      <g transform="translate(49.096875 516.439219)scale(0.1 -0.1)">
       <use xlink:href="#DejaVuSans-48"/>
       <use x="63.623047" xlink:href="#DejaVuSans-46"/>
       <use x="95.410156" xlink:href="#DejaVuSans-48"/>
      </g>
     </g>
    </g>
    <g id="ytick_2">
     <g id="line2d_15">
      <path clip-path="url(#p4d36182037)" d="M 72 428.16 
L 518.4 428.16 
" style="fill:none;stroke:#b0b0b0;stroke-linecap:square;stroke-width:0.8;"/>
     </g>
     <g id="line2d_16">
      <g>
       <use style="stroke:#000000;stroke-width:0.8;" x="72" xlink:href="#m396c6c4d56" y="428.16"/>
      </g>
     </g>
     <g id="text_9">
      <!-- 0.2 -->
      <g transform="translate(49.096875 431.959219)scale(0.1 -0.1)">
       <use xlink:href="#DejaVuSans-48"/>
       <use x="63.623047" xlink:href="#DejaVuSans-46"/>
       <use x="95.410156" xlink:href="#DejaVuSans-50"/>
      </g>
     </g>
    </g>
    <g id="ytick_3">
     <g id="line2d_17">
      <path clip-path="url(#p4d36182037)" d="M 72 343.68 
L 518.4 343.68 
" style="fill:none;stroke:#b0b0b0;stroke-linecap:square;stroke-width:0.8;"/>
     </g>
     <g id="line2d_18">
      <g>
       <use style="stroke:#000000;stroke-width:0.8;" x="72" xlink:href="#m396c6c4d56" y="343.68"/>
      </g>
     </g>
     <g id="text_10">
      <!-- 0.4 -->
      <g transform="translate(49.096875 347.479219)scale(0.1 -0.1)">
       <use xlink:href="#DejaVuSans-48"/>
       <use x="63.623047" xlink:href="#DejaVuSans-46"/>
       <use x="95.410156" xlink:href="#DejaVuSans-52"/>
      </g>
     </g>
    </g>
    <g id="ytick_4">
     <g id="line2d_19">
      <path clip-path="url(#p4d36182037)" d="M 72 259.2 
L 518.4 259.2 
" style="fill:none;stroke:#b0b0b0;stroke-linecap:square;stroke-width:0.8;"/>
     </g>
     <g id="line2d_20">
      <g>
       <use style="stroke:#000000;stroke-width:0.8;" x="72" xlink:href="#m396c6c4d56" y="259.2"/>
      </g>
     </g>
     <g id="text_11">
      <!-- 0.6 -->
      <g transform="translate(49.096875 262.999219)scale(0.1 -0.1)">
       <use xlink:href="#DejaVuSans-48"/>
       <use x="63.623047" xlink:href="#DejaVuSans-46"/>
       <use x="95.410156" xlink:href="#DejaVuSans-54"/>
      </g>
     </g>
    </g>
    <g id="ytick_5">
     <g id="line2d_21">
      <path clip-path="url(#p4d36182037)" d="M 72 174.72 
L 518.4 174.72 
" style="fill:none;stroke:#b0b0b0;stroke-linecap:square;stroke-width:0.8;"/>
     </g>
     <g id="line2d_22">
      <g>
       <use style="stroke:#000000;stroke-width:0.8;" x="72" xlink:href="#m396c6c4d56" y="174.72"/>
      </g>
     </g>
     <g id="text_12">
      <!-- 0.8 -->
      <g transform="translate(49.096875 178.519219)scale(0.1 -0.1)">
       <use xlink:href="#DejaVuSans-48"/>
       <use x="63.623047" xlink:href="#DejaVuSans-46"/>
       <use x="95.410156" xlink:href="#DejaVuSans-56"/>
      </g>
     </g>
    </g>
    <g id="ytick_6">
     <g id="line2d_23">
      <path clip-path="url(#p4d36182037)" d="M 72 90.24 
L 518.4 90.24 
" style="fill:none;stroke:#b0b0b0;stroke-linecap:square;stroke-width:0.8;"/>
     </g>
     <g id="line2d_24">
      <g>
       <use style="stroke:#000000;stroke-width:0.8;" x="72" xlink:href="#m396c6c4d56" y="90.24"/>
      </g>
     </g>
     <g id="text_13">
      <!-- 1.0 -->
      <g transform="translate(49.096875 94.039219)scale(0.1 -0.1)">
       <use xlink:href="#DejaVuSans-49"/>
       <use x="63.623047" xlink:href="#DejaVuSans-46"/>
       <use x="95.410156" xlink:href="#DejaVuSans-48"/>
      </g>
     </g>
    </g>
    <g id="text_14">
     <!-- True Positive Rate -->
     <defs>
      <path d="M -0.296875 72.90625 
L 61.375 72.90625 
L 61.375 64.59375 
L 35.5 64.59375 
L 35.5 0 
L 25.59375 0 
L 25.59375 64.59375 
L -0.296875 64.59375 
z
" id="DejaVuSans-84"/>
      <path d="M 41.109375 46.296875 
Q 39.59375 47.171875 37.8125 47.578125 
Q 36.03125 48 33.890625 48 
Q 26.265625 48 22.1875 43.046875 
Q 18.109375 38.09375 18.109375 28.8125 
L 18.109375 0 
L 9.078125 0 
L 9.078125 54.6875 
L 18.109375 54.6875 
L 18.109375 46.1875 
Q 20.953125 51.171875 25.484375 53.578125 
Q 30.03125 56 36.53125 56 
Q 37.453125 56 38.578125 55.875 
Q 39.703125 55.765625 41.0625 55.515625 
z
" id="DejaVuSans-114"/>
      <path d="M 8.5 21.578125 
L 8.5 54.6875 
L 17.484375 54.6875 
L 17.484375 21.921875 
Q 17.484375 14.15625 20.5 10.265625 
Q 23.53125 6.390625 29.59375 6.390625 
Q 36.859375 6.390625 41.078125 11.03125 
Q 45.3125 15.671875 45.3125 23.6875 
L 45.3125 54.6875 
L 54.296875 54.6875 
L 54.296875 0 
L 45.3125 0 
L 45.3125 8.40625 
Q 42.046875 3.421875 37.71875 1 
Q 33.40625 -1.421875 27.6875 -1.421875 
Q 18.265625 -1.421875 13.375 4.4375 
Q 8.5 10.296875 8.5 21.578125 
z
M 31.109375 56 
z
" id="DejaVuSans-117"/>
     </defs>
     <g transform="translate(43.017187 336.426094)rotate(-90)scale(0.1 -0.1)">
      <use xlink:href="#DejaVuSans-84"/>
      <use x="60.865234" xlink:href="#DejaVuSans-114"/>
      <use x="101.978516" xlink:href="#DejaVuSans-117"/>
      <use x="165.357422" xlink:href="#DejaVuSans-101"/>
      <use x="226.880859" xlink:href="#DejaVuSans-32"/>
      <use x="258.667969" xlink:href="#DejaVuSans-80"/>
      <use x="318.923828" xlink:href="#DejaVuSans-111"/>
      <use x="380.105469" xlink:href="#DejaVuSans-115"/>
      <use x="432.205078" xlink:href="#DejaVuSans-105"/>
      <use x="459.988281" xlink:href="#DejaVuSans-116"/>
      <use x="499.197266" xlink:href="#DejaVuSans-105"/>
      <use x="526.980469" xlink:href="#DejaVuSans-118"/>
      <use x="586.160156" xlink:href="#DejaVuSans-101"/>
      <use x="647.683594" xlink:href="#DejaVuSans-32"/>
      <use x="679.470703" xlink:href="#DejaVuSans-82"/>
      <use x="748.921875" xlink:href="#DejaVuSans-97"/>
      <use x="810.201172" xlink:href="#DejaVuSans-116"/>
      <use x="849.410156" xlink:href="#DejaVuSans-101"/>
     </g>
    </g>
   </g>
   <g id="line2d_25">
    <path clip-path="url(#p4d36182037)" d="M 72 512.64 
L 72 502.170256 
L 72.381538 502.170256 
L 72.381538 486.646154 
L 72.763077 486.646154 
L 72.763077 461.013333 
L 73.144615 461.013333 
L 73.144615 435.019487 
L 73.526154 435.019487 
L 73.526154 430.687179 
L 73.907692 430.687179 
L 73.907692 426.715897 
L 74.289231 426.715897 
L 74.289231 410.830769 
L 74.670769 410.830769 
L 74.670769 403.249231 
L 75.052308 403.249231 
L 75.052308 400.722051 
L 75.433846 400.722051 
L 75.433846 399.277949 
L 75.815385 399.277949 
L 75.815385 398.555897 
L 76.196923 398.555897 
L 76.196923 387.725128 
L 76.96 387.725128 
L 76.96 385.92 
L 77.723077 385.92 
L 77.723077 378.699487 
L 78.104615 378.699487 
L 78.104615 371.117949 
L 78.486154 371.117949 
L 78.486154 367.507692 
L 78.867692 367.507692 
L 78.867692 364.619487 
L 79.630769 364.619487 
L 79.630769 361.370256 
L 80.012308 361.370256 
L 80.012308 359.926154 
L 80.393846 359.926154 
L 80.393846 355.593846 
L 80.775385 355.593846 
L 80.775385 350.900513 
L 81.156923 350.900513 
L 81.156923 349.45641 
L 81.538462 349.45641 
L 81.538462 348.373333 
L 81.92 348.373333 
L 81.92 348.012308 
L 82.683077 348.012308 
L 82.683077 347.290256 
L 83.064615 347.290256 
L 83.064615 341.874872 
L 83.446154 341.874872 
L 83.446154 338.264615 
L 83.827692 338.264615 
L 83.827692 337.90359 
L 84.209231 337.90359 
L 84.209231 337.181538 
L 84.972308 337.181538 
L 84.972308 336.459487 
L 85.353846 336.459487 
L 85.353846 335.015385 
L 85.735385 335.015385 
L 85.735385 330.322051 
L 86.116923 330.322051 
L 86.116923 328.516923 
L 86.498462 328.516923 
L 86.498462 322.379487 
L 86.88 322.379487 
L 86.88 321.657436 
L 87.643077 321.657436 
L 87.643077 320.574359 
L 88.024615 320.574359 
L 88.024615 320.213333 
L 88.406154 320.213333 
L 88.406154 317.325128 
L 88.787692 317.325128 
L 88.787692 314.075897 
L 89.169231 314.075897 
L 89.169231 312.992821 
L 89.550769 312.992821 
L 89.550769 311.187692 
L 89.932308 311.187692 
L 89.932308 306.855385 
L 90.313846 306.855385 
L 90.313846 302.884103 
L 90.695385 302.884103 
L 90.695385 302.162051 
L 91.076923 302.162051 
L 91.076923 299.273846 
L 91.458462 299.273846 
L 91.458462 298.190769 
L 91.84 298.190769 
L 91.84 297.468718 
L 92.603077 297.468718 
L 92.603077 296.385641 
L 93.366154 296.385641 
L 93.366154 294.219487 
L 94.129231 294.219487 
L 94.129231 292.775385 
L 94.510769 292.775385 
L 94.510769 283.027692 
L 94.892308 283.027692 
L 94.892308 280.861538 
L 95.273846 280.861538 
L 95.273846 279.778462 
L 95.655385 279.778462 
L 95.655385 278.334359 
L 96.036923 278.334359 
L 96.036923 276.890256 
L 96.418462 276.890256 
L 96.418462 271.474872 
L 96.8 271.474872 
L 96.8 270.391795 
L 97.181538 270.391795 
L 97.181538 269.669744 
L 97.563077 269.669744 
L 97.563077 269.308718 
L 98.326154 269.308718 
L 98.326154 267.864615 
L 98.707692 267.864615 
L 98.707692 264.254359 
L 99.089231 264.254359 
L 99.089231 263.171282 
L 99.470769 263.171282 
L 99.470769 262.088205 
L 99.852308 262.088205 
L 99.852308 260.283077 
L 100.233846 260.283077 
L 100.233846 259.2 
L 100.615385 259.2 
L 100.615385 258.477949 
L 100.996923 258.477949 
L 100.996923 257.394872 
L 101.378462 257.394872 
L 101.378462 257.033846 
L 102.141538 257.033846 
L 102.141538 256.311795 
L 103.286154 256.311795 
L 103.286154 255.589744 
L 103.667692 255.589744 
L 103.667692 254.867692 
L 104.049231 254.867692 
L 104.049231 253.784615 
L 104.430769 253.784615 
L 104.430769 253.42359 
L 104.812308 253.42359 
L 104.812308 252.701538 
L 105.193846 252.701538 
L 105.193846 251.979487 
L 105.956923 251.979487 
L 105.956923 251.257436 
L 106.338462 251.257436 
L 106.338462 250.89641 
L 106.72 250.89641 
L 106.72 250.174359 
L 107.101538 250.174359 
L 107.101538 249.813333 
L 107.483077 249.813333 
L 107.483077 249.091282 
L 108.627692 249.091282 
L 108.627692 247.286154 
L 109.390769 247.286154 
L 109.390769 246.203077 
L 110.153846 246.203077 
L 110.153846 245.481026 
L 110.535385 245.481026 
L 110.535385 245.12 
L 111.298462 245.12 
L 111.298462 244.397949 
L 111.68 244.397949 
L 111.68 243.675897 
L 112.061538 243.675897 
L 112.061538 241.870769 
L 113.206154 241.870769 
L 113.206154 240.787692 
L 113.587692 240.787692 
L 113.587692 240.426667 
L 113.969231 240.426667 
L 113.969231 240.065641 
L 115.113846 240.065641 
L 115.113846 237.538462 
L 115.495385 237.538462 
L 115.495385 236.81641 
L 115.876923 236.81641 
L 115.876923 236.455385 
L 116.258462 236.455385 
L 116.258462 235.011282 
L 116.64 235.011282 
L 116.64 232.845128 
L 117.021538 232.845128 
L 117.021538 228.873846 
L 117.403077 228.873846 
L 117.403077 227.790769 
L 117.784615 227.790769 
L 117.784615 226.707692 
L 118.547692 226.707692 
L 118.547692 226.346667 
L 118.929231 226.346667 
L 118.929231 225.985641 
L 119.692308 225.985641 
L 119.692308 224.541538 
L 120.455385 224.541538 
L 120.455385 223.819487 
L 121.218462 223.819487 
L 121.218462 222.375385 
L 121.6 222.375385 
L 121.6 221.653333 
L 121.981538 221.653333 
L 121.981538 221.292308 
L 122.363077 221.292308 
L 122.363077 220.931282 
L 122.744615 220.931282 
L 122.744615 219.487179 
L 123.126154 219.487179 
L 123.126154 219.126154 
L 123.507692 219.126154 
L 123.507692 217.682051 
L 123.889231 217.682051 
L 123.889231 216.96 
L 124.270769 216.96 
L 124.270769 216.598974 
L 125.033846 216.598974 
L 125.033846 215.876923 
L 126.178462 215.876923 
L 126.178462 215.515897 
L 126.941538 215.515897 
L 126.941538 214.071795 
L 127.704615 214.071795 
L 127.704615 213.710769 
L 128.086154 213.710769 
L 128.086154 212.627692 
L 128.849231 212.627692 
L 128.849231 212.266667 
L 129.230769 212.266667 
L 129.230769 211.905641 
L 129.612308 211.905641 
L 129.612308 210.822564 
L 129.993846 210.822564 
L 129.993846 209.378462 
L 130.375385 209.378462 
L 130.375385 209.017436 
L 130.756923 209.017436 
L 130.756923 208.65641 
L 131.138462 208.65641 
L 131.138462 208.295385 
L 131.52 208.295385 
L 131.52 207.212308 
L 133.046154 207.212308 
L 133.046154 206.490256 
L 135.335385 206.490256 
L 135.335385 206.129231 
L 136.48 206.129231 
L 136.48 205.768205 
L 137.624615 205.768205 
L 137.624615 205.407179 
L 138.006154 205.407179 
L 138.006154 202.518974 
L 138.769231 202.518974 
L 138.769231 200.352821 
L 139.150769 200.352821 
L 139.150769 198.908718 
L 139.532308 198.908718 
L 139.532308 198.547692 
L 140.295385 198.547692 
L 140.295385 197.464615 
L 140.676923 197.464615 
L 140.676923 196.742564 
L 141.058462 196.742564 
L 141.058462 195.659487 
L 144.110769 195.659487 
L 144.110769 194.937436 
L 147.163077 194.937436 
L 147.163077 194.57641 
L 147.544615 194.57641 
L 147.544615 193.493333 
L 147.926154 193.493333 
L 147.926154 193.132308 
L 148.307692 193.132308 
L 148.307692 192.410256 
L 148.689231 192.410256 
L 148.689231 192.049231 
L 149.070769 192.049231 
L 149.070769 191.688205 
L 149.452308 191.688205 
L 149.452308 190.966154 
L 150.215385 190.966154 
L 150.215385 190.244103 
L 150.596923 190.244103 
L 150.596923 189.522051 
L 150.978462 189.522051 
L 150.978462 188.077949 
L 151.36 188.077949 
L 151.36 186.994872 
L 152.123077 186.994872 
L 152.123077 186.633846 
L 152.504615 186.633846 
L 152.504615 185.550769 
L 152.886154 185.550769 
L 152.886154 184.828718 
L 153.267692 184.828718 
L 153.267692 184.467692 
L 153.649231 184.467692 
L 153.649231 182.662564 
L 154.412308 182.662564 
L 154.412308 180.857436 
L 154.793846 180.857436 
L 154.793846 180.49641 
L 155.175385 180.49641 
L 155.175385 179.413333 
L 155.556923 179.413333 
L 155.556923 179.052308 
L 156.32 179.052308 
L 156.32 177.247179 
L 157.464615 177.247179 
L 157.464615 176.164103 
L 157.846154 176.164103 
L 157.846154 175.803077 
L 158.227692 175.803077 
L 158.227692 175.442051 
L 160.135385 175.442051 
L 160.135385 173.997949 
L 160.898462 173.997949 
L 160.898462 173.275897 
L 161.28 173.275897 
L 161.28 172.192821 
L 161.661538 172.192821 
L 161.661538 171.470769 
L 162.043077 171.470769 
L 162.043077 171.109744 
L 162.424615 171.109744 
L 162.424615 170.026667 
L 162.806154 170.026667 
L 162.806154 169.304615 
L 163.569231 169.304615 
L 163.569231 168.582564 
L 165.095385 168.582564 
L 165.095385 167.860513 
L 165.476923 167.860513 
L 165.476923 167.499487 
L 166.621538 167.499487 
L 166.621538 166.777436 
L 168.910769 166.777436 
L 168.910769 165.694359 
L 169.292308 165.694359 
L 169.292308 165.333333 
L 170.055385 165.333333 
L 170.055385 164.972308 
L 170.818462 164.972308 
L 170.818462 164.611282 
L 171.2 164.611282 
L 171.2 163.889231 
L 171.581538 163.889231 
L 171.581538 160.64 
L 173.870769 160.64 
L 173.870769 158.834872 
L 175.015385 158.834872 
L 175.015385 158.112821 
L 176.541538 158.112821 
L 176.541538 157.751795 
L 178.067692 157.751795 
L 178.067692 156.668718 
L 178.830769 156.668718 
L 178.830769 156.307692 
L 179.975385 156.307692 
L 179.975385 155.585641 
L 181.12 155.585641 
L 181.12 154.86359 
L 181.883077 154.86359 
L 181.883077 154.141538 
L 183.027692 154.141538 
L 183.027692 153.780513 
L 184.172308 153.780513 
L 184.172308 153.419487 
L 184.935385 153.419487 
L 184.935385 152.697436 
L 185.316923 152.697436 
L 185.316923 152.33641 
L 185.698462 152.33641 
L 185.698462 150.892308 
L 186.08 150.892308 
L 186.08 150.531282 
L 186.843077 150.531282 
L 186.843077 150.170256 
L 187.224615 150.170256 
L 187.224615 149.809231 
L 187.987692 149.809231 
L 187.987692 148.726154 
L 188.369231 148.726154 
L 188.369231 148.365128 
L 189.513846 148.365128 
L 189.513846 147.643077 
L 189.895385 147.643077 
L 189.895385 147.282051 
L 193.710769 147.282051 
L 193.710769 146.56 
L 194.092308 146.56 
L 194.092308 146.198974 
L 194.473846 146.198974 
L 194.473846 145.476923 
L 194.855385 145.476923 
L 194.855385 144.393846 
L 195.236923 144.393846 
L 195.236923 144.032821 
L 196 144.032821 
L 196 143.310769 
L 196.381538 143.310769 
L 196.381538 142.949744 
L 197.144615 142.949744 
L 197.144615 141.866667 
L 197.526154 141.866667 
L 197.526154 141.144615 
L 197.907692 141.144615 
L 197.907692 140.061538 
L 198.289231 140.061538 
L 198.289231 139.700513 
L 199.815385 139.700513 
L 199.815385 139.339487 
L 203.249231 139.339487 
L 203.249231 138.25641 
L 204.012308 138.25641 
L 204.012308 137.534359 
L 204.393846 137.534359 
L 204.393846 137.173333 
L 204.775385 137.173333 
L 204.775385 136.812308 
L 205.156923 136.812308 
L 205.156923 136.451282 
L 206.683077 136.451282 
L 206.683077 135.729231 
L 207.064615 135.729231 
L 207.064615 135.368205 
L 208.209231 135.368205 
L 208.209231 135.007179 
L 211.261538 135.007179 
L 211.261538 133.202051 
L 211.643077 133.202051 
L 211.643077 132.48 
L 212.406154 132.48 
L 212.406154 132.118974 
L 213.550769 132.118974 
L 213.550769 131.757949 
L 215.458462 131.757949 
L 215.458462 131.396923 
L 215.84 131.396923 
L 215.84 131.035897 
L 216.221538 131.035897 
L 216.221538 130.313846 
L 217.366154 130.313846 
L 217.366154 129.230769 
L 218.892308 129.230769 
L 218.892308 128.869744 
L 219.273846 128.869744 
L 219.273846 128.508718 
L 220.036923 128.508718 
L 220.036923 127.786667 
L 220.8 127.786667 
L 220.8 127.425641 
L 222.707692 127.425641 
L 222.707692 127.064615 
L 223.470769 127.064615 
L 223.470769 126.70359 
L 223.852308 126.70359 
L 223.852308 126.342564 
L 224.615385 126.342564 
L 224.615385 125.620513 
L 230.338462 125.620513 
L 230.338462 125.259487 
L 231.101538 125.259487 
L 231.101538 124.898462 
L 234.153846 124.898462 
L 234.153846 124.17641 
L 236.061538 124.17641 
L 236.061538 123.815385 
L 237.969231 123.815385 
L 237.969231 123.093333 
L 239.113846 123.093333 
L 239.113846 122.010256 
L 241.403077 122.010256 
L 241.403077 121.649231 
L 241.784615 121.649231 
L 241.784615 120.927179 
L 242.547692 120.927179 
L 242.547692 120.566154 
L 244.455385 120.566154 
L 244.455385 120.205128 
L 244.836923 120.205128 
L 244.836923 119.844103 
L 245.218462 119.844103 
L 245.218462 119.483077 
L 245.6 119.483077 
L 245.6 119.122051 
L 247.126154 119.122051 
L 247.126154 118.038974 
L 249.415385 118.038974 
L 249.415385 117.677949 
L 250.178462 117.677949 
L 250.178462 117.316923 
L 250.56 117.316923 
L 250.56 116.955897 
L 253.230769 116.955897 
L 253.230769 116.594872 
L 253.993846 116.594872 
L 253.993846 114.789744 
L 254.375385 114.789744 
L 254.375385 114.428718 
L 254.756923 114.428718 
L 254.756923 113.706667 
L 259.335385 113.706667 
L 259.335385 113.345641 
L 259.716923 113.345641 
L 259.716923 112.984615 
L 260.48 112.984615 
L 260.48 112.62359 
L 261.243077 112.62359 
L 261.243077 112.262564 
L 262.387692 112.262564 
L 262.387692 111.901538 
L 266.966154 111.901538 
L 266.966154 111.540513 
L 267.347692 111.540513 
L 267.347692 111.179487 
L 271.544615 111.179487 
L 271.544615 110.818462 
L 273.452308 110.818462 
L 273.452308 110.457436 
L 275.741538 110.457436 
L 275.741538 110.09641 
L 276.504615 110.09641 
L 276.504615 109.735385 
L 277.267692 109.735385 
L 277.267692 109.374359 
L 281.083077 109.374359 
L 281.083077 109.013333 
L 282.609231 109.013333 
L 282.609231 108.652308 
L 284.135385 108.652308 
L 284.135385 108.291282 
L 285.28 108.291282 
L 285.28 107.930256 
L 286.043077 107.930256 
L 286.043077 106.847179 
L 286.424615 106.847179 
L 286.424615 105.403077 
L 287.187692 105.403077 
L 287.187692 104.681026 
L 288.713846 104.681026 
L 288.713846 104.32 
L 290.621538 104.32 
L 290.621538 103.958974 
L 291.766154 103.958974 
L 291.766154 103.597949 
L 292.529231 103.597949 
L 292.529231 103.236923 
L 293.292308 103.236923 
L 293.292308 102.514872 
L 293.673846 102.514872 
L 293.673846 102.153846 
L 294.055385 102.153846 
L 294.055385 101.792821 
L 294.436923 101.792821 
L 294.436923 101.431795 
L 295.581538 101.431795 
L 295.581538 101.070769 
L 297.870769 101.070769 
L 297.870769 100.348718 
L 299.396923 100.348718 
L 299.396923 99.987692 
L 302.830769 99.987692 
L 302.830769 99.265641 
L 303.212308 99.265641 
L 303.212308 98.54359 
L 303.975385 98.54359 
L 303.975385 97.821538 
L 305.883077 97.821538 
L 305.883077 97.460513 
L 307.790769 97.460513 
L 307.790769 97.099487 
L 308.553846 97.099487 
L 308.553846 96.738462 
L 310.461538 96.738462 
L 310.461538 96.377436 
L 311.987692 96.377436 
L 311.987692 96.01641 
L 317.329231 96.01641 
L 317.329231 95.655385 
L 331.064615 95.655385 
L 331.064615 95.294359 
L 335.643077 95.294359 
L 335.643077 94.933333 
L 340.221538 94.933333 
L 340.221538 94.572308 
L 343.273846 94.572308 
L 343.273846 94.211282 
L 345.944615 94.211282 
L 345.944615 93.850256 
L 347.089231 93.850256 
L 347.089231 93.489231 
L 347.470769 93.489231 
L 347.470769 93.128205 
L 358.153846 93.128205 
L 358.153846 92.767179 
L 358.535385 92.767179 
L 358.535385 92.406154 
L 371.889231 92.406154 
L 371.889231 92.045128 
L 389.821538 92.045128 
L 389.821538 91.684103 
L 413.476923 91.684103 
L 413.476923 91.323077 
L 424.541538 91.323077 
L 424.541538 90.962051 
L 444 90.962051 
L 444 90.601026 
L 486.350769 90.601026 
L 486.350769 90.24 
L 518.4 90.24 
L 518.4 90.24 
" style="fill:none;stroke:#ff8c00;stroke-linecap:square;stroke-width:2;"/>
   </g>
   <g id="line2d_26">
    <path clip-path="url(#p4d36182037)" d="M 72 512.64 
L 518.4 90.24 
" style="fill:none;stroke:#000080;stroke-dasharray:7.4,3.2;stroke-dashoffset:0;stroke-width:2;"/>
   </g>
   <g id="patch_3">
    <path d="M 72 512.64 
L 72 69.12 
" style="fill:none;stroke:#000000;stroke-linecap:square;stroke-linejoin:miter;stroke-width:0.8;"/>
   </g>
   <g id="patch_4">
    <path d="M 518.4 512.64 
L 518.4 69.12 
" style="fill:none;stroke:#000000;stroke-linecap:square;stroke-linejoin:miter;stroke-width:0.8;"/>
   </g>
   <g id="patch_5">
    <path d="M 72 512.64 
L 518.4 512.64 
" style="fill:none;stroke:#000000;stroke-linecap:square;stroke-linejoin:miter;stroke-width:0.8;"/>
   </g>
   <g id="patch_6">
    <path d="M 72 69.12 
L 518.4 69.12 
" style="fill:none;stroke:#000000;stroke-linecap:square;stroke-linejoin:miter;stroke-width:0.8;"/>
   </g>
   <g id="legend_1">
    <g id="patch_7">
     <path d="M 427.081875 509.64 
L 514.2 509.64 
Q 515.4 509.64 515.4 508.44 
L 515.4 500.233125 
Q 515.4 499.033125 514.2 499.033125 
L 427.081875 499.033125 
Q 425.881875 499.033125 425.881875 500.233125 
L 425.881875 508.44 
Q 425.881875 509.64 427.081875 509.64 
z
" style="fill:#ffffff;opacity:0.8;stroke:#cccccc;stroke-linejoin:miter;"/>
    </g>
    <g id="line2d_27">
     <path d="M 428.281875 503.892187 
L 440.281875 503.892187 
" style="fill:none;stroke:#ff8c00;stroke-linecap:square;stroke-width:2;"/>
    </g>
    <g id="line2d_28"/>
    <g id="text_15">
     <!-- D007410 (area =0.89) -->
     <defs>
      <path d="M 19.671875 64.796875 
L 19.671875 8.109375 
L 31.59375 8.109375 
Q 46.6875 8.109375 53.6875 14.9375 
Q 60.6875 21.78125 60.6875 36.53125 
Q 60.6875 51.171875 53.6875 57.984375 
Q 46.6875 64.796875 31.59375 64.796875 
z
M 9.8125 72.90625 
L 30.078125 72.90625 
Q 51.265625 72.90625 61.171875 64.09375 
Q 71.09375 55.28125 71.09375 36.53125 
Q 71.09375 17.671875 61.125 8.828125 
Q 51.171875 0 30.078125 0 
L 9.8125 0 
z
" id="DejaVuSans-68"/>
      <path d="M 8.203125 72.90625 
L 55.078125 72.90625 
L 55.078125 68.703125 
L 28.609375 0 
L 18.3125 0 
L 43.21875 64.59375 
L 8.203125 64.59375 
z
" id="DejaVuSans-55"/>
      <path d="M 31 75.875 
Q 24.46875 64.65625 21.28125 53.65625 
Q 18.109375 42.671875 18.109375 31.390625 
Q 18.109375 20.125 21.3125 9.0625 
Q 24.515625 -2 31 -13.1875 
L 23.1875 -13.1875 
Q 15.875 -1.703125 12.234375 9.375 
Q 8.59375 20.453125 8.59375 31.390625 
Q 8.59375 42.28125 12.203125 53.3125 
Q 15.828125 64.359375 23.1875 75.875 
z
" id="DejaVuSans-40"/>
      <path d="M 10.59375 45.40625 
L 73.1875 45.40625 
L 73.1875 37.203125 
L 10.59375 37.203125 
z
M 10.59375 25.484375 
L 73.1875 25.484375 
L 73.1875 17.1875 
L 10.59375 17.1875 
z
" id="DejaVuSans-61"/>
      <path d="M 10.984375 1.515625 
L 10.984375 10.5 
Q 14.703125 8.734375 18.5 7.8125 
Q 22.3125 6.890625 25.984375 6.890625 
Q 35.75 6.890625 40.890625 13.453125 
Q 46.046875 20.015625 46.78125 33.40625 
Q 43.953125 29.203125 39.59375 26.953125 
Q 35.25 24.703125 29.984375 24.703125 
Q 19.046875 24.703125 12.671875 31.3125 
Q 6.296875 37.9375 6.296875 49.421875 
Q 6.296875 60.640625 12.9375 67.421875 
Q 19.578125 74.21875 30.609375 74.21875 
Q 43.265625 74.21875 49.921875 64.515625 
Q 56.59375 54.828125 56.59375 36.375 
Q 56.59375 19.140625 48.40625 8.859375 
Q 40.234375 -1.421875 26.421875 -1.421875 
Q 22.703125 -1.421875 18.890625 -0.6875 
Q 15.09375 0.046875 10.984375 1.515625 
z
M 30.609375 32.421875 
Q 37.25 32.421875 41.125 36.953125 
Q 45.015625 41.5 45.015625 49.421875 
Q 45.015625 57.28125 41.125 61.84375 
Q 37.25 66.40625 30.609375 66.40625 
Q 23.96875 66.40625 20.09375 61.84375 
Q 16.21875 57.28125 16.21875 49.421875 
Q 16.21875 41.5 20.09375 36.953125 
Q 23.96875 32.421875 30.609375 32.421875 
z
" id="DejaVuSans-57"/>
      <path d="M 8.015625 75.875 
L 15.828125 75.875 
Q 23.140625 64.359375 26.78125 53.3125 
Q 30.421875 42.28125 30.421875 31.390625 
Q 30.421875 20.453125 26.78125 9.375 
Q 23.140625 -1.703125 15.828125 -13.1875 
L 8.015625 -13.1875 
Q 14.5 -2 17.703125 9.0625 
Q 20.90625 20.125 20.90625 31.390625 
Q 20.90625 42.671875 17.703125 53.65625 
Q 14.5 64.65625 8.015625 75.875 
z
" id="DejaVuSans-41"/>
     </defs>
     <g transform="translate(445.081875 505.992188)scale(0.06 -0.06)">
      <use xlink:href="#DejaVuSans-68"/>
      <use x="77.001953" xlink:href="#DejaVuSans-48"/>
      <use x="140.625" xlink:href="#DejaVuSans-48"/>
      <use x="204.248047" xlink:href="#DejaVuSans-55"/>
      <use x="267.871094" xlink:href="#DejaVuSans-52"/>
      <use x="331.494141" xlink:href="#DejaVuSans-49"/>
      <use x="395.117188" xlink:href="#DejaVuSans-48"/>
      <use x="458.740234" xlink:href="#DejaVuSans-32"/>
      <use x="490.527344" xlink:href="#DejaVuSans-40"/>
      <use x="529.541016" xlink:href="#DejaVuSans-97"/>
      <use x="590.820312" xlink:href="#DejaVuSans-114"/>
      <use x="631.902344" xlink:href="#DejaVuSans-101"/>
      <use x="693.425781" xlink:href="#DejaVuSans-97"/>
      <use x="754.705078" xlink:href="#DejaVuSans-32"/>
      <use x="786.492188" xlink:href="#DejaVuSans-61"/>
      <use x="870.28125" xlink:href="#DejaVuSans-48"/>
      <use x="933.904297" xlink:href="#DejaVuSans-46"/>
      <use x="965.691406" xlink:href="#DejaVuSans-56"/>
      <use x="1029.314453" xlink:href="#DejaVuSans-57"/>
      <use x="1092.9375" xlink:href="#DejaVuSans-41"/>
     </g>
    </g>
   </g>
  </g>
 </g>
 <defs>
  <clipPath id="p4d36182037">
   <rect height="443.52" width="446.4" x="72" y="69.12"/>
  </clipPath>
 </defs>
</svg>
