<?xml version="1.0" encoding="utf-8" standalone="no"?>
<!DOCTYPE svg PUBLIC "-//W3C//DTD SVG 1.1//EN"
  "http://www.w3.org/Graphics/SVG/1.1/DTD/svg11.dtd">
<!-- Created with matplotlib (https://matplotlib.org/) -->
<svg height="576pt" version="1.1" viewBox="0 0 576 576" width="576pt" xmlns="http://www.w3.org/2000/svg" xmlns:xlink="http://www.w3.org/1999/xlink">
 <defs>
  <style type="text/css">
*{stroke-linecap:butt;stroke-linejoin:round;}
  </style>
 </defs>
 <g id="figure_1">
  <g id="patch_1">
   <path d="M 0 576 
L 576 576 
L 576 0 
L 0 0 
z
" style="fill:#ffffff;"/>
  </g>
  <g id="axes_1">
   <g id="patch_2">
    <path d="M 72 512.64 
L 518.4 512.64 
L 518.4 69.12 
L 72 69.12 
z
" style="fill:#ffffff;"/>
   </g>
   <g id="matplotlib.axis_1">
    <g id="xtick_1">
     <g id="line2d_1">
      <path clip-path="url(#p1cbc706394)" d="M 72 512.64 
L 72 69.12 
" style="fill:none;stroke:#b0b0b0;stroke-linecap:square;stroke-width:0.8;"/>
     </g>
     <g id="line2d_2">
      <defs>
       <path d="M 0 0 
L 0 3.5 
" id="m9e9d3a3a62" style="stroke:#000000;stroke-width:0.8;"/>
      </defs>
      <g>
       <use style="stroke:#000000;stroke-width:0.8;" x="72" xlink:href="#m9e9d3a3a62" y="512.64"/>
      </g>
     </g>
     <g id="text_1">
      <!-- 0.0 -->
      <defs>
       <path d="M 31.78125 66.40625 
Q 24.171875 66.40625 20.328125 58.90625 
Q 16.5 51.421875 16.5 36.375 
Q 16.5 21.390625 20.328125 13.890625 
Q 24.171875 6.390625 31.78125 6.390625 
Q 39.453125 6.390625 43.28125 13.890625 
Q 47.125 21.390625 47.125 36.375 
Q 47.125 51.421875 43.28125 58.90625 
Q 39.453125 66.40625 31.78125 66.40625 
z
M 31.78125 74.21875 
Q 44.046875 74.21875 50.515625 64.515625 
Q 56.984375 54.828125 56.984375 36.375 
Q 56.984375 17.96875 50.515625 8.265625 
Q 44.046875 -1.421875 31.78125 -1.421875 
Q 19.53125 -1.421875 13.0625 8.265625 
Q 6.59375 17.96875 6.59375 36.375 
Q 6.59375 54.828125 13.0625 64.515625 
Q 19.53125 74.21875 31.78125 74.21875 
z
" id="DejaVuSans-48"/>
       <path d="M 10.6875 12.40625 
L 21 12.40625 
L 21 0 
L 10.6875 0 
z
" id="DejaVuSans-46"/>
      </defs>
      <g transform="translate(64.048438 527.238438)scale(0.1 -0.1)">
       <use xlink:href="#DejaVuSans-48"/>
       <use x="63.623047" xlink:href="#DejaVuSans-46"/>
       <use x="95.410156" xlink:href="#DejaVuSans-48"/>
      </g>
     </g>
    </g>
    <g id="xtick_2">
     <g id="line2d_3">
      <path clip-path="url(#p1cbc706394)" d="M 161.28 512.64 
L 161.28 69.12 
" style="fill:none;stroke:#b0b0b0;stroke-linecap:square;stroke-width:0.8;"/>
     </g>
     <g id="line2d_4">
      <g>
       <use style="stroke:#000000;stroke-width:0.8;" x="161.28" xlink:href="#m9e9d3a3a62" y="512.64"/>
      </g>
     </g>
     <g id="text_2">
      <!-- 0.2 -->
      <defs>
       <path d="M 19.1875 8.296875 
L 53.609375 8.296875 
L 53.609375 0 
L 7.328125 0 
L 7.328125 8.296875 
Q 12.9375 14.109375 22.625 23.890625 
Q 32.328125 33.6875 34.8125 36.53125 
Q 39.546875 41.84375 41.421875 45.53125 
Q 43.3125 49.21875 43.3125 52.78125 
Q 43.3125 58.59375 39.234375 62.25 
Q 35.15625 65.921875 28.609375 65.921875 
Q 23.96875 65.921875 18.8125 64.3125 
Q 13.671875 62.703125 7.8125 59.421875 
L 7.8125 69.390625 
Q 13.765625 71.78125 18.9375 73 
Q 24.125 74.21875 28.421875 74.21875 
Q 39.75 74.21875 46.484375 68.546875 
Q 53.21875 62.890625 53.21875 53.421875 
Q 53.21875 48.921875 51.53125 44.890625 
Q 49.859375 40.875 45.40625 35.40625 
Q 44.1875 33.984375 37.640625 27.21875 
Q 31.109375 20.453125 19.1875 8.296875 
z
" id="DejaVuSans-50"/>
      </defs>
      <g transform="translate(153.328438 527.238438)scale(0.1 -0.1)">
       <use xlink:href="#DejaVuSans-48"/>
       <use x="63.623047" xlink:href="#DejaVuSans-46"/>
       <use x="95.410156" xlink:href="#DejaVuSans-50"/>
      </g>
     </g>
    </g>
    <g id="xtick_3">
     <g id="line2d_5">
      <path clip-path="url(#p1cbc706394)" d="M 250.56 512.64 
L 250.56 69.12 
" style="fill:none;stroke:#b0b0b0;stroke-linecap:square;stroke-width:0.8;"/>
     </g>
     <g id="line2d_6">
      <g>
       <use style="stroke:#000000;stroke-width:0.8;" x="250.56" xlink:href="#m9e9d3a3a62" y="512.64"/>
      </g>
     </g>
     <g id="text_3">
      <!-- 0.4 -->
      <defs>
       <path d="M 37.796875 64.3125 
L 12.890625 25.390625 
L 37.796875 25.390625 
z
M 35.203125 72.90625 
L 47.609375 72.90625 
L 47.609375 25.390625 
L 58.015625 25.390625 
L 58.015625 17.1875 
L 47.609375 17.1875 
L 47.609375 0 
L 37.796875 0 
L 37.796875 17.1875 
L 4.890625 17.1875 
L 4.890625 26.703125 
z
" id="DejaVuSans-52"/>
      </defs>
      <g transform="translate(242.608438 527.238438)scale(0.1 -0.1)">
       <use xlink:href="#DejaVuSans-48"/>
       <use x="63.623047" xlink:href="#DejaVuSans-46"/>
       <use x="95.410156" xlink:href="#DejaVuSans-52"/>
      </g>
     </g>
    </g>
    <g id="xtick_4">
     <g id="line2d_7">
      <path clip-path="url(#p1cbc706394)" d="M 339.84 512.64 
L 339.84 69.12 
" style="fill:none;stroke:#b0b0b0;stroke-linecap:square;stroke-width:0.8;"/>
     </g>
     <g id="line2d_8">
      <g>
       <use style="stroke:#000000;stroke-width:0.8;" x="339.84" xlink:href="#m9e9d3a3a62" y="512.64"/>
      </g>
     </g>
     <g id="text_4">
      <!-- 0.6 -->
      <defs>
       <path d="M 33.015625 40.375 
Q 26.375 40.375 22.484375 35.828125 
Q 18.609375 31.296875 18.609375 23.390625 
Q 18.609375 15.53125 22.484375 10.953125 
Q 26.375 6.390625 33.015625 6.390625 
Q 39.65625 6.390625 43.53125 10.953125 
Q 47.40625 15.53125 47.40625 23.390625 
Q 47.40625 31.296875 43.53125 35.828125 
Q 39.65625 40.375 33.015625 40.375 
z
M 52.59375 71.296875 
L 52.59375 62.3125 
Q 48.875 64.0625 45.09375 64.984375 
Q 41.3125 65.921875 37.59375 65.921875 
Q 27.828125 65.921875 22.671875 59.328125 
Q 17.53125 52.734375 16.796875 39.40625 
Q 19.671875 43.65625 24.015625 45.921875 
Q 28.375 48.1875 33.59375 48.1875 
Q 44.578125 48.1875 50.953125 41.515625 
Q 57.328125 34.859375 57.328125 23.390625 
Q 57.328125 12.15625 50.6875 5.359375 
Q 44.046875 -1.421875 33.015625 -1.421875 
Q 20.359375 -1.421875 13.671875 8.265625 
Q 6.984375 17.96875 6.984375 36.375 
Q 6.984375 53.65625 15.1875 63.9375 
Q 23.390625 74.21875 37.203125 74.21875 
Q 40.921875 74.21875 44.703125 73.484375 
Q 48.484375 72.75 52.59375 71.296875 
z
" id="DejaVuSans-54"/>
      </defs>
      <g transform="translate(331.888438 527.238438)scale(0.1 -0.1)">
       <use xlink:href="#DejaVuSans-48"/>
       <use x="63.623047" xlink:href="#DejaVuSans-46"/>
       <use x="95.410156" xlink:href="#DejaVuSans-54"/>
      </g>
     </g>
    </g>
    <g id="xtick_5">
     <g id="line2d_9">
      <path clip-path="url(#p1cbc706394)" d="M 429.12 512.64 
L 429.12 69.12 
" style="fill:none;stroke:#b0b0b0;stroke-linecap:square;stroke-width:0.8;"/>
     </g>
     <g id="line2d_10">
      <g>
       <use style="stroke:#000000;stroke-width:0.8;" x="429.12" xlink:href="#m9e9d3a3a62" y="512.64"/>
      </g>
     </g>
     <g id="text_5">
      <!-- 0.8 -->
      <defs>
       <path d="M 31.78125 34.625 
Q 24.75 34.625 20.71875 30.859375 
Q 16.703125 27.09375 16.703125 20.515625 
Q 16.703125 13.921875 20.71875 10.15625 
Q 24.75 6.390625 31.78125 6.390625 
Q 38.8125 6.390625 42.859375 10.171875 
Q 46.921875 13.96875 46.921875 20.515625 
Q 46.921875 27.09375 42.890625 30.859375 
Q 38.875 34.625 31.78125 34.625 
z
M 21.921875 38.8125 
Q 15.578125 40.375 12.03125 44.71875 
Q 8.5 49.078125 8.5 55.328125 
Q 8.5 64.0625 14.71875 69.140625 
Q 20.953125 74.21875 31.78125 74.21875 
Q 42.671875 74.21875 48.875 69.140625 
Q 55.078125 64.0625 55.078125 55.328125 
Q 55.078125 49.078125 51.53125 44.71875 
Q 48 40.375 41.703125 38.8125 
Q 48.828125 37.15625 52.796875 32.3125 
Q 56.78125 27.484375 56.78125 20.515625 
Q 56.78125 9.90625 50.3125 4.234375 
Q 43.84375 -1.421875 31.78125 -1.421875 
Q 19.734375 -1.421875 13.25 4.234375 
Q 6.78125 9.90625 6.78125 20.515625 
Q 6.78125 27.484375 10.78125 32.3125 
Q 14.796875 37.15625 21.921875 38.8125 
z
M 18.3125 54.390625 
Q 18.3125 48.734375 21.84375 45.5625 
Q 25.390625 42.390625 31.78125 42.390625 
Q 38.140625 42.390625 41.71875 45.5625 
Q 45.3125 48.734375 45.3125 54.390625 
Q 45.3125 60.0625 41.71875 63.234375 
Q 38.140625 66.40625 31.78125 66.40625 
Q 25.390625 66.40625 21.84375 63.234375 
Q 18.3125 60.0625 18.3125 54.390625 
z
" id="DejaVuSans-56"/>
      </defs>
      <g transform="translate(421.168437 527.238438)scale(0.1 -0.1)">
       <use xlink:href="#DejaVuSans-48"/>
       <use x="63.623047" xlink:href="#DejaVuSans-46"/>
       <use x="95.410156" xlink:href="#DejaVuSans-56"/>
      </g>
     </g>
    </g>
    <g id="xtick_6">
     <g id="line2d_11">
      <path clip-path="url(#p1cbc706394)" d="M 518.4 512.64 
L 518.4 69.12 
" style="fill:none;stroke:#b0b0b0;stroke-linecap:square;stroke-width:0.8;"/>
     </g>
     <g id="line2d_12">
      <g>
       <use style="stroke:#000000;stroke-width:0.8;" x="518.4" xlink:href="#m9e9d3a3a62" y="512.64"/>
      </g>
     </g>
     <g id="text_6">
      <!-- 1.0 -->
      <defs>
       <path d="M 12.40625 8.296875 
L 28.515625 8.296875 
L 28.515625 63.921875 
L 10.984375 60.40625 
L 10.984375 69.390625 
L 28.421875 72.90625 
L 38.28125 72.90625 
L 38.28125 8.296875 
L 54.390625 8.296875 
L 54.390625 0 
L 12.40625 0 
z
" id="DejaVuSans-49"/>
      </defs>
      <g transform="translate(510.448437 527.238438)scale(0.1 -0.1)">
       <use xlink:href="#DejaVuSans-49"/>
       <use x="63.623047" xlink:href="#DejaVuSans-46"/>
       <use x="95.410156" xlink:href="#DejaVuSans-48"/>
      </g>
     </g>
    </g>
    <g id="text_7">
     <!-- False Positive Rate -->
     <defs>
      <path d="M 9.8125 72.90625 
L 51.703125 72.90625 
L 51.703125 64.59375 
L 19.671875 64.59375 
L 19.671875 43.109375 
L 48.578125 43.109375 
L 48.578125 34.8125 
L 19.671875 34.8125 
L 19.671875 0 
L 9.8125 0 
z
" id="DejaVuSans-70"/>
      <path d="M 34.28125 27.484375 
Q 23.390625 27.484375 19.1875 25 
Q 14.984375 22.515625 14.984375 16.5 
Q 14.984375 11.71875 18.140625 8.90625 
Q 21.296875 6.109375 26.703125 6.109375 
Q 34.1875 6.109375 38.703125 11.40625 
Q 43.21875 16.703125 43.21875 25.484375 
L 43.21875 27.484375 
z
M 52.203125 31.203125 
L 52.203125 0 
L 43.21875 0 
L 43.21875 8.296875 
Q 40.140625 3.328125 35.546875 0.953125 
Q 30.953125 -1.421875 24.3125 -1.421875 
Q 15.921875 -1.421875 10.953125 3.296875 
Q 6 8.015625 6 15.921875 
Q 6 25.140625 12.171875 29.828125 
Q 18.359375 34.515625 30.609375 34.515625 
L 43.21875 34.515625 
L 43.21875 35.40625 
Q 43.21875 41.609375 39.140625 45 
Q 35.0625 48.390625 27.6875 48.390625 
Q 23 48.390625 18.546875 47.265625 
Q 14.109375 46.140625 10.015625 43.890625 
L 10.015625 52.203125 
Q 14.9375 54.109375 19.578125 55.046875 
Q 24.21875 56 28.609375 56 
Q 40.484375 56 46.34375 49.84375 
Q 52.203125 43.703125 52.203125 31.203125 
z
" id="DejaVuSans-97"/>
      <path d="M 9.421875 75.984375 
L 18.40625 75.984375 
L 18.40625 0 
L 9.421875 0 
z
" id="DejaVuSans-108"/>
      <path d="M 44.28125 53.078125 
L 44.28125 44.578125 
Q 40.484375 46.53125 36.375 47.5 
Q 32.28125 48.484375 27.875 48.484375 
Q 21.1875 48.484375 17.84375 46.4375 
Q 14.5 44.390625 14.5 40.28125 
Q 14.5 37.15625 16.890625 35.375 
Q 19.28125 33.59375 26.515625 31.984375 
L 29.59375 31.296875 
Q 39.15625 29.25 43.1875 25.515625 
Q 47.21875 21.78125 47.21875 15.09375 
Q 47.21875 7.46875 41.1875 3.015625 
Q 35.15625 -1.421875 24.609375 -1.421875 
Q 20.21875 -1.421875 15.453125 -0.5625 
Q 10.6875 0.296875 5.421875 2 
L 5.421875 11.28125 
Q 10.40625 8.6875 15.234375 7.390625 
Q 20.0625 6.109375 24.8125 6.109375 
Q 31.15625 6.109375 34.5625 8.28125 
Q 37.984375 10.453125 37.984375 14.40625 
Q 37.984375 18.0625 35.515625 20.015625 
Q 33.0625 21.96875 24.703125 23.78125 
L 21.578125 24.515625 
Q 13.234375 26.265625 9.515625 29.90625 
Q 5.8125 33.546875 5.8125 39.890625 
Q 5.8125 47.609375 11.28125 51.796875 
Q 16.75 56 26.8125 56 
Q 31.78125 56 36.171875 55.265625 
Q 40.578125 54.546875 44.28125 53.078125 
z
" id="DejaVuSans-115"/>
      <path d="M 56.203125 29.59375 
L 56.203125 25.203125 
L 14.890625 25.203125 
Q 15.484375 15.921875 20.484375 11.0625 
Q 25.484375 6.203125 34.421875 6.203125 
Q 39.59375 6.203125 44.453125 7.46875 
Q 49.3125 8.734375 54.109375 11.28125 
L 54.109375 2.78125 
Q 49.265625 0.734375 44.1875 -0.34375 
Q 39.109375 -1.421875 33.890625 -1.421875 
Q 20.796875 -1.421875 13.15625 6.1875 
Q 5.515625 13.8125 5.515625 26.8125 
Q 5.515625 40.234375 12.765625 48.109375 
Q 20.015625 56 32.328125 56 
Q 43.359375 56 49.78125 48.890625 
Q 56.203125 41.796875 56.203125 29.59375 
z
M 47.21875 32.234375 
Q 47.125 39.59375 43.09375 43.984375 
Q 39.0625 48.390625 32.421875 48.390625 
Q 24.90625 48.390625 20.390625 44.140625 
Q 15.875 39.890625 15.1875 32.171875 
z
" id="DejaVuSans-101"/>
      <path id="DejaVuSans-32"/>
      <path d="M 19.671875 64.796875 
L 19.671875 37.40625 
L 32.078125 37.40625 
Q 38.96875 37.40625 42.71875 40.96875 
Q 46.484375 44.53125 46.484375 51.125 
Q 46.484375 57.671875 42.71875 61.234375 
Q 38.96875 64.796875 32.078125 64.796875 
z
M 9.8125 72.90625 
L 32.078125 72.90625 
Q 44.34375 72.90625 50.609375 67.359375 
Q 56.890625 61.8125 56.890625 51.125 
Q 56.890625 40.328125 50.609375 34.8125 
Q 44.34375 29.296875 32.078125 29.296875 
L 19.671875 29.296875 
L 19.671875 0 
L 9.8125 0 
z
" id="DejaVuSans-80"/>
      <path d="M 30.609375 48.390625 
Q 23.390625 48.390625 19.1875 42.75 
Q 14.984375 37.109375 14.984375 27.296875 
Q 14.984375 17.484375 19.15625 11.84375 
Q 23.34375 6.203125 30.609375 6.203125 
Q 37.796875 6.203125 41.984375 11.859375 
Q 46.1875 17.53125 46.1875 27.296875 
Q 46.1875 37.015625 41.984375 42.703125 
Q 37.796875 48.390625 30.609375 48.390625 
z
M 30.609375 56 
Q 42.328125 56 49.015625 48.375 
Q 55.71875 40.765625 55.71875 27.296875 
Q 55.71875 13.875 49.015625 6.21875 
Q 42.328125 -1.421875 30.609375 -1.421875 
Q 18.84375 -1.421875 12.171875 6.21875 
Q 5.515625 13.875 5.515625 27.296875 
Q 5.515625 40.765625 12.171875 48.375 
Q 18.84375 56 30.609375 56 
z
" id="DejaVuSans-111"/>
      <path d="M 9.421875 54.6875 
L 18.40625 54.6875 
L 18.40625 0 
L 9.421875 0 
z
M 9.421875 75.984375 
L 18.40625 75.984375 
L 18.40625 64.59375 
L 9.421875 64.59375 
z
" id="DejaVuSans-105"/>
      <path d="M 18.3125 70.21875 
L 18.3125 54.6875 
L 36.8125 54.6875 
L 36.8125 47.703125 
L 18.3125 47.703125 
L 18.3125 18.015625 
Q 18.3125 11.328125 20.140625 9.421875 
Q 21.96875 7.515625 27.59375 7.515625 
L 36.8125 7.515625 
L 36.8125 0 
L 27.59375 0 
Q 17.1875 0 13.234375 3.875 
Q 9.28125 7.765625 9.28125 18.015625 
L 9.28125 47.703125 
L 2.6875 47.703125 
L 2.6875 54.6875 
L 9.28125 54.6875 
L 9.28125 70.21875 
z
" id="DejaVuSans-116"/>
      <path d="M 2.984375 54.6875 
L 12.5 54.6875 
L 29.59375 8.796875 
L 46.6875 54.6875 
L 56.203125 54.6875 
L 35.6875 0 
L 23.484375 0 
z
" id="DejaVuSans-118"/>
      <path d="M 44.390625 34.1875 
Q 47.5625 33.109375 50.5625 29.59375 
Q 53.5625 26.078125 56.59375 19.921875 
L 66.609375 0 
L 56 0 
L 46.6875 18.703125 
Q 43.0625 26.03125 39.671875 28.421875 
Q 36.28125 30.8125 30.421875 30.8125 
L 19.671875 30.8125 
L 19.671875 0 
L 9.8125 0 
L 9.8125 72.90625 
L 32.078125 72.90625 
Q 44.578125 72.90625 50.734375 67.671875 
Q 56.890625 62.453125 56.890625 51.90625 
Q 56.890625 45.015625 53.6875 40.46875 
Q 50.484375 35.9375 44.390625 34.1875 
z
M 19.671875 64.796875 
L 19.671875 38.921875 
L 32.078125 38.921875 
Q 39.203125 38.921875 42.84375 42.21875 
Q 46.484375 45.515625 46.484375 51.90625 
Q 46.484375 58.296875 42.84375 61.546875 
Q 39.203125 64.796875 32.078125 64.796875 
z
" id="DejaVuSans-82"/>
     </defs>
     <g transform="translate(247.994531 540.916563)scale(0.1 -0.1)">
      <use xlink:href="#DejaVuSans-70"/>
      <use x="57.378906" xlink:href="#DejaVuSans-97"/>
      <use x="118.658203" xlink:href="#DejaVuSans-108"/>
      <use x="146.441406" xlink:href="#DejaVuSans-115"/>
      <use x="198.541016" xlink:href="#DejaVuSans-101"/>
      <use x="260.064453" xlink:href="#DejaVuSans-32"/>
      <use x="291.851562" xlink:href="#DejaVuSans-80"/>
      <use x="352.107422" xlink:href="#DejaVuSans-111"/>
      <use x="413.289062" xlink:href="#DejaVuSans-115"/>
      <use x="465.388672" xlink:href="#DejaVuSans-105"/>
      <use x="493.171875" xlink:href="#DejaVuSans-116"/>
      <use x="532.380859" xlink:href="#DejaVuSans-105"/>
      <use x="560.164062" xlink:href="#DejaVuSans-118"/>
      <use x="619.34375" xlink:href="#DejaVuSans-101"/>
      <use x="680.867188" xlink:href="#DejaVuSans-32"/>
      <use x="712.654297" xlink:href="#DejaVuSans-82"/>
      <use x="782.105469" xlink:href="#DejaVuSans-97"/>
      <use x="843.384766" xlink:href="#DejaVuSans-116"/>
      <use x="882.59375" xlink:href="#DejaVuSans-101"/>
     </g>
    </g>
   </g>
   <g id="matplotlib.axis_2">
    <g id="ytick_1">
     <g id="line2d_13">
      <path clip-path="url(#p1cbc706394)" d="M 72 512.64 
L 518.4 512.64 
" style="fill:none;stroke:#b0b0b0;stroke-linecap:square;stroke-width:0.8;"/>
     </g>
     <g id="line2d_14">
      <defs>
       <path d="M 0 0 
L -3.5 0 
" id="m56e201c263" style="stroke:#000000;stroke-width:0.8;"/>
      </defs>
      <g>
       <use style="stroke:#000000;stroke-width:0.8;" x="72" xlink:href="#m56e201c263" y="512.64"/>
      </g>
     </g>
     <g id="text_8">
      <!-- 0.0 -->
      <g transform="translate(49.096875 516.439219)scale(0.1 -0.1)">
       <use xlink:href="#DejaVuSans-48"/>
       <use x="63.623047" xlink:href="#DejaVuSans-46"/>
       <use x="95.410156" xlink:href="#DejaVuSans-48"/>
      </g>
     </g>
    </g>
    <g id="ytick_2">
     <g id="line2d_15">
      <path clip-path="url(#p1cbc706394)" d="M 72 428.16 
L 518.4 428.16 
" style="fill:none;stroke:#b0b0b0;stroke-linecap:square;stroke-width:0.8;"/>
     </g>
     <g id="line2d_16">
      <g>
       <use style="stroke:#000000;stroke-width:0.8;" x="72" xlink:href="#m56e201c263" y="428.16"/>
      </g>
     </g>
     <g id="text_9">
      <!-- 0.2 -->
      <g transform="translate(49.096875 431.959219)scale(0.1 -0.1)">
       <use xlink:href="#DejaVuSans-48"/>
       <use x="63.623047" xlink:href="#DejaVuSans-46"/>
       <use x="95.410156" xlink:href="#DejaVuSans-50"/>
      </g>
     </g>
    </g>
    <g id="ytick_3">
     <g id="line2d_17">
      <path clip-path="url(#p1cbc706394)" d="M 72 343.68 
L 518.4 343.68 
" style="fill:none;stroke:#b0b0b0;stroke-linecap:square;stroke-width:0.8;"/>
     </g>
     <g id="line2d_18">
      <g>
       <use style="stroke:#000000;stroke-width:0.8;" x="72" xlink:href="#m56e201c263" y="343.68"/>
      </g>
     </g>
     <g id="text_10">
      <!-- 0.4 -->
      <g transform="translate(49.096875 347.479219)scale(0.1 -0.1)">
       <use xlink:href="#DejaVuSans-48"/>
       <use x="63.623047" xlink:href="#DejaVuSans-46"/>
       <use x="95.410156" xlink:href="#DejaVuSans-52"/>
      </g>
     </g>
    </g>
    <g id="ytick_4">
     <g id="line2d_19">
      <path clip-path="url(#p1cbc706394)" d="M 72 259.2 
L 518.4 259.2 
" style="fill:none;stroke:#b0b0b0;stroke-linecap:square;stroke-width:0.8;"/>
     </g>
     <g id="line2d_20">
      <g>
       <use style="stroke:#000000;stroke-width:0.8;" x="72" xlink:href="#m56e201c263" y="259.2"/>
      </g>
     </g>
     <g id="text_11">
      <!-- 0.6 -->
      <g transform="translate(49.096875 262.999219)scale(0.1 -0.1)">
       <use xlink:href="#DejaVuSans-48"/>
       <use x="63.623047" xlink:href="#DejaVuSans-46"/>
       <use x="95.410156" xlink:href="#DejaVuSans-54"/>
      </g>
     </g>
    </g>
    <g id="ytick_5">
     <g id="line2d_21">
      <path clip-path="url(#p1cbc706394)" d="M 72 174.72 
L 518.4 174.72 
" style="fill:none;stroke:#b0b0b0;stroke-linecap:square;stroke-width:0.8;"/>
     </g>
     <g id="line2d_22">
      <g>
       <use style="stroke:#000000;stroke-width:0.8;" x="72" xlink:href="#m56e201c263" y="174.72"/>
      </g>
     </g>
     <g id="text_12">
      <!-- 0.8 -->
      <g transform="translate(49.096875 178.519219)scale(0.1 -0.1)">
       <use xlink:href="#DejaVuSans-48"/>
       <use x="63.623047" xlink:href="#DejaVuSans-46"/>
       <use x="95.410156" xlink:href="#DejaVuSans-56"/>
      </g>
     </g>
    </g>
    <g id="ytick_6">
     <g id="line2d_23">
      <path clip-path="url(#p1cbc706394)" d="M 72 90.24 
L 518.4 90.24 
" style="fill:none;stroke:#b0b0b0;stroke-linecap:square;stroke-width:0.8;"/>
     </g>
     <g id="line2d_24">
      <g>
       <use style="stroke:#000000;stroke-width:0.8;" x="72" xlink:href="#m56e201c263" y="90.24"/>
      </g>
     </g>
     <g id="text_13">
      <!-- 1.0 -->
      <g transform="translate(49.096875 94.039219)scale(0.1 -0.1)">
       <use xlink:href="#DejaVuSans-49"/>
       <use x="63.623047" xlink:href="#DejaVuSans-46"/>
       <use x="95.410156" xlink:href="#DejaVuSans-48"/>
      </g>
     </g>
    </g>
    <g id="text_14">
     <!-- True Positive Rate -->
     <defs>
      <path d="M -0.296875 72.90625 
L 61.375 72.90625 
L 61.375 64.59375 
L 35.5 64.59375 
L 35.5 0 
L 25.59375 0 
L 25.59375 64.59375 
L -0.296875 64.59375 
z
" id="DejaVuSans-84"/>
      <path d="M 41.109375 46.296875 
Q 39.59375 47.171875 37.8125 47.578125 
Q 36.03125 48 33.890625 48 
Q 26.265625 48 22.1875 43.046875 
Q 18.109375 38.09375 18.109375 28.8125 
L 18.109375 0 
L 9.078125 0 
L 9.078125 54.6875 
L 18.109375 54.6875 
L 18.109375 46.1875 
Q 20.953125 51.171875 25.484375 53.578125 
Q 30.03125 56 36.53125 56 
Q 37.453125 56 38.578125 55.875 
Q 39.703125 55.765625 41.0625 55.515625 
z
" id="DejaVuSans-114"/>
      <path d="M 8.5 21.578125 
L 8.5 54.6875 
L 17.484375 54.6875 
L 17.484375 21.921875 
Q 17.484375 14.15625 20.5 10.265625 
Q 23.53125 6.390625 29.59375 6.390625 
Q 36.859375 6.390625 41.078125 11.03125 
Q 45.3125 15.671875 45.3125 23.6875 
L 45.3125 54.6875 
L 54.296875 54.6875 
L 54.296875 0 
L 45.3125 0 
L 45.3125 8.40625 
Q 42.046875 3.421875 37.71875 1 
Q 33.40625 -1.421875 27.6875 -1.421875 
Q 18.265625 -1.421875 13.375 4.4375 
Q 8.5 10.296875 8.5 21.578125 
z
M 31.109375 56 
z
" id="DejaVuSans-117"/>
     </defs>
     <g transform="translate(43.017187 336.426094)rotate(-90)scale(0.1 -0.1)">
      <use xlink:href="#DejaVuSans-84"/>
      <use x="60.865234" xlink:href="#DejaVuSans-114"/>
      <use x="101.978516" xlink:href="#DejaVuSans-117"/>
      <use x="165.357422" xlink:href="#DejaVuSans-101"/>
      <use x="226.880859" xlink:href="#DejaVuSans-32"/>
      <use x="258.667969" xlink:href="#DejaVuSans-80"/>
      <use x="318.923828" xlink:href="#DejaVuSans-111"/>
      <use x="380.105469" xlink:href="#DejaVuSans-115"/>
      <use x="432.205078" xlink:href="#DejaVuSans-105"/>
      <use x="459.988281" xlink:href="#DejaVuSans-116"/>
      <use x="499.197266" xlink:href="#DejaVuSans-105"/>
      <use x="526.980469" xlink:href="#DejaVuSans-118"/>
      <use x="586.160156" xlink:href="#DejaVuSans-101"/>
      <use x="647.683594" xlink:href="#DejaVuSans-32"/>
      <use x="679.470703" xlink:href="#DejaVuSans-82"/>
      <use x="748.921875" xlink:href="#DejaVuSans-97"/>
      <use x="810.201172" xlink:href="#DejaVuSans-116"/>
      <use x="849.410156" xlink:href="#DejaVuSans-101"/>
     </g>
    </g>
   </g>
   <g id="line2d_25">
    <path clip-path="url(#p1cbc706394)" d="M 72 512.64 
L 72 454.875897 
L 72.381538 454.875897 
L 72.381538 451.987692 
L 72.763077 451.987692 
L 72.763077 441.878974 
L 73.144615 441.878974 
L 73.144615 438.268718 
L 73.526154 438.268718 
L 73.526154 431.770256 
L 74.289231 431.770256 
L 74.289231 429.965128 
L 75.052308 429.965128 
L 75.052308 429.604103 
L 75.815385 429.604103 
L 75.815385 427.437949 
L 76.196923 427.437949 
L 76.196923 422.744615 
L 76.578462 422.744615 
L 76.578462 422.022564 
L 76.96 422.022564 
L 76.96 419.85641 
L 77.341538 419.85641 
L 77.341538 419.134359 
L 77.723077 419.134359 
L 77.723077 415.163077 
L 78.486154 415.163077 
L 78.486154 414.441026 
L 78.867692 414.441026 
L 78.867692 413.718974 
L 79.249231 413.718974 
L 79.249231 408.664615 
L 79.630769 408.664615 
L 79.630769 407.942564 
L 80.012308 407.942564 
L 80.012308 405.054359 
L 80.393846 405.054359 
L 80.393846 404.693333 
L 80.775385 404.693333 
L 80.775385 402.527179 
L 81.156923 402.527179 
L 81.156923 401.083077 
L 81.538462 401.083077 
L 81.538462 399.638974 
L 81.92 399.638974 
L 81.92 398.194872 
L 82.301538 398.194872 
L 82.301538 397.833846 
L 82.683077 397.833846 
L 82.683077 397.111795 
L 83.064615 397.111795 
L 83.064615 396.028718 
L 83.446154 396.028718 
L 83.446154 394.584615 
L 84.209231 394.584615 
L 84.209231 393.501538 
L 84.590769 393.501538 
L 84.590769 392.779487 
L 84.972308 392.779487 
L 84.972308 392.418462 
L 85.353846 392.418462 
L 85.353846 389.169231 
L 85.735385 389.169231 
L 85.735385 388.086154 
L 86.498462 388.086154 
L 86.498462 384.114872 
L 86.88 384.114872 
L 86.88 382.670769 
L 87.261538 382.670769 
L 87.261538 381.587692 
L 87.643077 381.587692 
L 87.643077 374.006154 
L 88.024615 374.006154 
L 88.024615 370.034872 
L 88.787692 370.034872 
L 88.787692 368.590769 
L 89.169231 368.590769 
L 89.169231 364.619487 
L 89.932308 364.619487 
L 89.932308 364.258462 
L 90.313846 364.258462 
L 90.313846 363.53641 
L 90.695385 363.53641 
L 90.695385 363.175385 
L 91.076923 363.175385 
L 91.076923 360.648205 
L 91.458462 360.648205 
L 91.458462 360.287179 
L 92.221538 360.287179 
L 92.221538 359.926154 
L 92.603077 359.926154 
L 92.603077 359.204103 
L 93.366154 359.204103 
L 93.366154 357.76 
L 94.510769 357.76 
L 94.510769 354.871795 
L 94.892308 354.871795 
L 94.892308 353.788718 
L 95.655385 353.788718 
L 95.655385 353.427692 
L 96.036923 353.427692 
L 96.036923 348.012308 
L 97.181538 348.012308 
L 97.181538 345.485128 
L 97.563077 345.485128 
L 97.563077 345.124103 
L 97.944615 345.124103 
L 97.944615 344.763077 
L 98.326154 344.763077 
L 98.326154 344.402051 
L 98.707692 344.402051 
L 98.707692 344.041026 
L 99.089231 344.041026 
L 99.089231 343.68 
L 99.470769 343.68 
L 99.470769 343.318974 
L 99.852308 343.318974 
L 99.852308 342.596923 
L 100.233846 342.596923 
L 100.233846 340.791795 
L 100.615385 340.791795 
L 100.615385 340.069744 
L 101.378462 340.069744 
L 101.378462 338.264615 
L 102.904615 338.264615 
L 102.904615 337.90359 
L 103.286154 337.90359 
L 103.286154 337.542564 
L 103.667692 337.542564 
L 103.667692 335.37641 
L 104.049231 335.37641 
L 104.049231 334.654359 
L 105.193846 334.654359 
L 105.193846 333.932308 
L 106.338462 333.932308 
L 106.338462 333.571282 
L 107.101538 333.571282 
L 107.101538 333.210256 
L 107.483077 333.210256 
L 107.483077 332.849231 
L 107.864615 332.849231 
L 107.864615 331.766154 
L 108.246154 331.766154 
L 108.246154 331.405128 
L 108.627692 331.405128 
L 108.627692 331.044103 
L 109.009231 331.044103 
L 109.009231 330.683077 
L 109.772308 330.683077 
L 109.772308 330.322051 
L 110.153846 330.322051 
L 110.153846 329.238974 
L 110.916923 329.238974 
L 110.916923 328.877949 
L 111.68 328.877949 
L 111.68 326.711795 
L 112.061538 326.711795 
L 112.061538 326.350769 
L 112.824615 326.350769 
L 112.824615 321.657436 
L 113.206154 321.657436 
L 113.206154 321.29641 
L 113.587692 321.29641 
L 113.587692 320.574359 
L 114.732308 320.574359 
L 114.732308 316.603077 
L 115.495385 316.603077 
L 115.495385 316.242051 
L 115.876923 316.242051 
L 115.876923 315.158974 
L 116.258462 315.158974 
L 116.258462 313.353846 
L 116.64 313.353846 
L 116.64 312.992821 
L 117.021538 312.992821 
L 117.021538 311.548718 
L 117.403077 311.548718 
L 117.403077 311.187692 
L 118.166154 311.187692 
L 118.166154 310.826667 
L 118.547692 310.826667 
L 118.547692 310.465641 
L 118.929231 310.465641 
L 118.929231 308.660513 
L 119.310769 308.660513 
L 119.310769 306.494359 
L 119.692308 306.494359 
L 119.692308 306.133333 
L 120.455385 306.133333 
L 120.455385 305.772308 
L 121.218462 305.772308 
L 121.218462 305.050256 
L 121.981538 305.050256 
L 121.981538 303.245128 
L 122.363077 303.245128 
L 122.363077 301.078974 
L 123.889231 301.078974 
L 123.889231 299.273846 
L 124.270769 299.273846 
L 124.270769 298.551795 
L 124.652308 298.551795 
L 124.652308 297.107692 
L 125.033846 297.107692 
L 125.033846 296.024615 
L 125.415385 296.024615 
L 125.415385 294.941538 
L 125.796923 294.941538 
L 125.796923 293.13641 
L 126.178462 293.13641 
L 126.178462 291.692308 
L 127.323077 291.692308 
L 127.323077 290.970256 
L 127.704615 290.970256 
L 127.704615 289.887179 
L 128.086154 289.887179 
L 128.086154 288.804103 
L 128.467692 288.804103 
L 128.467692 286.276923 
L 128.849231 286.276923 
L 128.849231 281.58359 
L 129.230769 281.58359 
L 129.230769 280.139487 
L 129.612308 280.139487 
L 129.612308 279.05641 
L 129.993846 279.05641 
L 129.993846 277.251282 
L 130.375385 277.251282 
L 130.375385 275.085128 
L 130.756923 275.085128 
L 130.756923 271.835897 
L 131.901538 271.835897 
L 131.901538 271.474872 
L 132.283077 271.474872 
L 132.283077 268.947692 
L 132.664615 268.947692 
L 132.664615 266.781538 
L 133.046154 266.781538 
L 133.046154 265.337436 
L 133.427692 265.337436 
L 133.427692 264.254359 
L 133.809231 264.254359 
L 133.809231 263.893333 
L 134.190769 263.893333 
L 134.190769 262.810256 
L 134.953846 262.810256 
L 134.953846 261.727179 
L 135.335385 261.727179 
L 135.335385 261.366154 
L 137.624615 261.366154 
L 137.624615 260.283077 
L 138.387692 260.283077 
L 138.387692 259.922051 
L 138.769231 259.922051 
L 138.769231 258.838974 
L 139.532308 258.838974 
L 139.532308 258.477949 
L 139.913846 258.477949 
L 139.913846 256.672821 
L 140.295385 256.672821 
L 140.295385 256.311795 
L 140.676923 256.311795 
L 140.676923 253.784615 
L 141.058462 253.784615 
L 141.058462 251.979487 
L 141.821538 251.979487 
L 141.821538 251.257436 
L 142.203077 251.257436 
L 142.203077 249.452308 
L 142.584615 249.452308 
L 142.584615 248.369231 
L 142.966154 248.369231 
L 142.966154 247.286154 
L 143.347692 247.286154 
L 143.347692 246.925128 
L 143.729231 246.925128 
L 143.729231 246.203077 
L 144.110769 246.203077 
L 144.110769 245.481026 
L 144.873846 245.481026 
L 144.873846 243.675897 
L 145.255385 243.675897 
L 145.255385 242.231795 
L 145.636923 242.231795 
L 145.636923 241.509744 
L 146.018462 241.509744 
L 146.018462 241.148718 
L 147.163077 241.148718 
L 147.163077 240.426667 
L 147.544615 240.426667 
L 147.544615 240.065641 
L 147.926154 240.065641 
L 147.926154 238.260513 
L 148.689231 238.260513 
L 148.689231 237.538462 
L 149.070769 237.538462 
L 149.070769 237.177436 
L 150.215385 237.177436 
L 150.215385 236.094359 
L 150.596923 236.094359 
L 150.596923 235.011282 
L 150.978462 235.011282 
L 150.978462 232.484103 
L 151.36 232.484103 
L 151.36 231.401026 
L 152.504615 231.401026 
L 152.504615 230.317949 
L 153.649231 230.317949 
L 153.649231 229.956923 
L 154.030769 229.956923 
L 154.030769 229.234872 
L 154.412308 229.234872 
L 154.412308 228.512821 
L 155.938462 228.512821 
L 155.938462 228.151795 
L 156.701538 228.151795 
L 156.701538 227.790769 
L 157.464615 227.790769 
L 157.464615 227.068718 
L 158.227692 227.068718 
L 158.227692 223.458462 
L 159.753846 223.458462 
L 159.753846 220.931282 
L 160.135385 220.931282 
L 160.135385 220.209231 
L 162.424615 220.209231 
L 162.424615 219.487179 
L 163.950769 219.487179 
L 163.950769 219.126154 
L 164.332308 219.126154 
L 164.332308 218.765128 
L 165.476923 218.765128 
L 165.476923 218.404103 
L 165.858462 218.404103 
L 165.858462 218.043077 
L 166.621538 218.043077 
L 166.621538 216.598974 
L 167.003077 216.598974 
L 167.003077 215.876923 
L 167.766154 215.876923 
L 167.766154 214.793846 
L 168.529231 214.793846 
L 168.529231 214.432821 
L 169.673846 214.432821 
L 169.673846 214.071795 
L 170.436923 214.071795 
L 170.436923 213.349744 
L 170.818462 213.349744 
L 170.818462 212.988718 
L 171.963077 212.988718 
L 171.963077 211.905641 
L 173.107692 211.905641 
L 173.107692 211.18359 
L 175.396923 211.18359 
L 175.396923 210.461538 
L 175.778462 210.461538 
L 175.778462 210.100513 
L 176.16 210.100513 
L 176.16 209.739487 
L 178.449231 209.739487 
L 178.449231 209.378462 
L 179.212308 209.378462 
L 179.212308 208.65641 
L 179.975385 208.65641 
L 179.975385 207.934359 
L 180.738462 207.934359 
L 180.738462 207.212308 
L 181.12 207.212308 
L 181.12 206.851282 
L 181.883077 206.851282 
L 181.883077 206.490256 
L 182.264615 206.490256 
L 182.264615 205.768205 
L 183.409231 205.768205 
L 183.409231 205.046154 
L 183.790769 205.046154 
L 183.790769 204.685128 
L 184.172308 204.685128 
L 184.172308 204.324103 
L 184.935385 204.324103 
L 184.935385 203.963077 
L 186.843077 203.963077 
L 186.843077 203.241026 
L 188.750769 203.241026 
L 188.750769 202.518974 
L 189.513846 202.518974 
L 189.513846 201.796923 
L 189.895385 201.796923 
L 189.895385 200.352821 
L 191.04 200.352821 
L 191.04 199.630769 
L 191.421538 199.630769 
L 191.421538 198.908718 
L 191.803077 198.908718 
L 191.803077 197.464615 
L 192.566154 197.464615 
L 192.566154 197.10359 
L 192.947692 197.10359 
L 192.947692 196.020513 
L 193.329231 196.020513 
L 193.329231 195.659487 
L 193.710769 195.659487 
L 193.710769 195.298462 
L 194.092308 195.298462 
L 194.092308 194.937436 
L 194.855385 194.937436 
L 194.855385 194.215385 
L 195.236923 194.215385 
L 195.236923 192.771282 
L 196 192.771282 
L 196 191.688205 
L 196.763077 191.688205 
L 196.763077 191.327179 
L 197.144615 191.327179 
L 197.144615 190.966154 
L 197.526154 190.966154 
L 197.526154 189.522051 
L 197.907692 189.522051 
L 197.907692 189.161026 
L 199.815385 189.161026 
L 199.815385 188.438974 
L 200.578462 188.438974 
L 200.578462 188.077949 
L 201.341538 188.077949 
L 201.341538 187.355897 
L 201.723077 187.355897 
L 201.723077 186.994872 
L 203.630769 186.994872 
L 203.630769 186.633846 
L 204.012308 186.633846 
L 204.012308 185.550769 
L 204.393846 185.550769 
L 204.393846 185.189744 
L 204.775385 185.189744 
L 204.775385 184.106667 
L 207.446154 184.106667 
L 207.446154 183.384615 
L 207.827692 183.384615 
L 207.827692 183.02359 
L 208.209231 183.02359 
L 208.209231 182.662564 
L 209.353846 182.662564 
L 209.353846 182.301538 
L 209.735385 182.301538 
L 209.735385 181.579487 
L 210.116923 181.579487 
L 210.116923 180.49641 
L 212.406154 180.49641 
L 212.406154 179.774359 
L 213.169231 179.774359 
L 213.169231 178.691282 
L 213.550769 178.691282 
L 213.550769 178.330256 
L 214.313846 178.330256 
L 214.313846 176.886154 
L 215.458462 176.886154 
L 215.458462 176.525128 
L 216.221538 176.525128 
L 216.221538 176.164103 
L 217.366154 176.164103 
L 217.366154 175.803077 
L 218.892308 175.803077 
L 218.892308 175.081026 
L 219.655385 175.081026 
L 219.655385 174.72 
L 220.036923 174.72 
L 220.036923 174.358974 
L 221.563077 174.358974 
L 221.563077 173.636923 
L 221.944615 173.636923 
L 221.944615 172.914872 
L 223.852308 172.914872 
L 223.852308 172.192821 
L 224.233846 172.192821 
L 224.233846 171.831795 
L 224.615385 171.831795 
L 224.615385 171.109744 
L 225.76 171.109744 
L 225.76 170.748718 
L 226.523077 170.748718 
L 226.523077 170.387692 
L 226.904615 170.387692 
L 226.904615 170.026667 
L 228.049231 170.026667 
L 228.049231 169.304615 
L 228.430769 169.304615 
L 228.430769 168.94359 
L 229.193846 168.94359 
L 229.193846 168.221538 
L 229.575385 168.221538 
L 229.575385 166.777436 
L 231.864615 166.777436 
L 231.864615 166.41641 
L 232.627692 166.41641 
L 232.627692 166.055385 
L 233.390769 166.055385 
L 233.390769 165.694359 
L 236.061538 165.694359 
L 236.061538 164.972308 
L 236.824615 164.972308 
L 236.824615 164.250256 
L 237.206154 164.250256 
L 237.206154 163.889231 
L 238.350769 163.889231 
L 238.350769 161.723077 
L 238.732308 161.723077 
L 238.732308 161.362051 
L 239.495385 161.362051 
L 239.495385 160.64 
L 241.403077 160.64 
L 241.403077 159.917949 
L 242.547692 159.917949 
L 242.547692 159.195897 
L 243.692308 159.195897 
L 243.692308 158.834872 
L 244.073846 158.834872 
L 244.073846 158.473846 
L 244.455385 158.473846 
L 244.455385 158.112821 
L 245.6 158.112821 
L 245.6 157.390769 
L 247.507692 157.390769 
L 247.507692 156.668718 
L 247.889231 156.668718 
L 247.889231 156.307692 
L 248.270769 156.307692 
L 248.270769 155.946667 
L 249.033846 155.946667 
L 249.033846 155.585641 
L 250.56 155.585641 
L 250.56 155.224615 
L 251.323077 155.224615 
L 251.323077 153.780513 
L 251.704615 153.780513 
L 251.704615 153.419487 
L 253.993846 153.419487 
L 253.993846 153.058462 
L 254.375385 153.058462 
L 254.375385 152.697436 
L 255.138462 152.697436 
L 255.138462 152.33641 
L 255.52 152.33641 
L 255.52 151.253333 
L 256.283077 151.253333 
L 256.283077 150.892308 
L 257.809231 150.892308 
L 257.809231 150.531282 
L 258.190769 150.531282 
L 258.190769 150.170256 
L 260.098462 150.170256 
L 260.098462 148.726154 
L 260.48 148.726154 
L 260.48 148.365128 
L 260.861538 148.365128 
L 260.861538 148.004103 
L 262.387692 148.004103 
L 262.387692 147.643077 
L 264.295385 147.643077 
L 264.295385 146.921026 
L 264.676923 146.921026 
L 264.676923 146.198974 
L 265.058462 146.198974 
L 265.058462 145.837949 
L 265.821538 145.837949 
L 265.821538 145.115897 
L 266.584615 145.115897 
L 266.584615 144.393846 
L 266.966154 144.393846 
L 266.966154 144.032821 
L 267.729231 144.032821 
L 267.729231 143.671795 
L 268.110769 143.671795 
L 268.110769 143.310769 
L 268.492308 143.310769 
L 268.492308 142.949744 
L 269.255385 142.949744 
L 269.255385 141.866667 
L 269.636923 141.866667 
L 269.636923 141.144615 
L 272.689231 141.144615 
L 272.689231 140.78359 
L 273.070769 140.78359 
L 273.070769 140.422564 
L 273.833846 140.422564 
L 273.833846 140.061538 
L 274.215385 140.061538 
L 274.215385 139.700513 
L 274.978462 139.700513 
L 274.978462 139.339487 
L 275.36 139.339487 
L 275.36 138.617436 
L 276.886154 138.617436 
L 276.886154 138.25641 
L 277.649231 138.25641 
L 277.649231 137.895385 
L 278.412308 137.895385 
L 278.412308 137.534359 
L 279.556923 137.534359 
L 279.556923 137.173333 
L 279.938462 137.173333 
L 279.938462 136.812308 
L 281.846154 136.812308 
L 281.846154 136.451282 
L 282.609231 136.451282 
L 282.609231 136.090256 
L 282.990769 136.090256 
L 282.990769 135.007179 
L 283.372308 135.007179 
L 283.372308 134.646154 
L 285.28 134.646154 
L 285.28 134.285128 
L 286.043077 134.285128 
L 286.043077 133.924103 
L 288.332308 133.924103 
L 288.332308 132.48 
L 293.673846 132.48 
L 293.673846 131.757949 
L 294.055385 131.757949 
L 294.055385 131.396923 
L 294.436923 131.396923 
L 294.436923 131.035897 
L 294.818462 131.035897 
L 294.818462 129.952821 
L 295.963077 129.952821 
L 295.963077 128.508718 
L 296.726154 128.508718 
L 296.726154 128.147692 
L 298.252308 128.147692 
L 298.252308 127.786667 
L 298.633846 127.786667 
L 298.633846 127.425641 
L 299.396923 127.425641 
L 299.396923 127.064615 
L 300.923077 127.064615 
L 300.923077 126.70359 
L 304.356923 126.70359 
L 304.356923 126.342564 
L 307.790769 126.342564 
L 307.790769 125.620513 
L 308.172308 125.620513 
L 308.172308 125.259487 
L 308.935385 125.259487 
L 308.935385 124.898462 
L 310.843077 124.898462 
L 310.843077 124.17641 
L 311.224615 124.17641 
L 311.224615 123.815385 
L 312.369231 123.815385 
L 312.369231 123.093333 
L 313.513846 123.093333 
L 313.513846 122.732308 
L 316.184615 122.732308 
L 316.184615 122.010256 
L 316.566154 122.010256 
L 316.566154 121.649231 
L 319.236923 121.649231 
L 319.236923 121.288205 
L 320 121.288205 
L 320 120.927179 
L 320.381538 120.927179 
L 320.381538 120.566154 
L 321.907692 120.566154 
L 321.907692 120.205128 
L 323.052308 120.205128 
L 323.052308 119.844103 
L 324.196923 119.844103 
L 324.196923 119.483077 
L 324.578462 119.483077 
L 324.578462 119.122051 
L 325.341538 119.122051 
L 325.341538 118.761026 
L 326.104615 118.761026 
L 326.104615 118.4 
L 326.867692 118.4 
L 326.867692 118.038974 
L 327.249231 118.038974 
L 327.249231 117.677949 
L 327.630769 117.677949 
L 327.630769 117.316923 
L 328.012308 117.316923 
L 328.012308 116.233846 
L 328.393846 116.233846 
L 328.393846 115.511795 
L 328.775385 115.511795 
L 328.775385 115.150769 
L 329.538462 115.150769 
L 329.538462 114.428718 
L 329.92 114.428718 
L 329.92 114.067692 
L 331.064615 114.067692 
L 331.064615 113.706667 
L 331.446154 113.706667 
L 331.446154 113.345641 
L 332.209231 113.345641 
L 332.209231 112.62359 
L 334.116923 112.62359 
L 334.116923 112.262564 
L 334.88 112.262564 
L 334.88 111.901538 
L 336.024615 111.901538 
L 336.024615 111.540513 
L 337.550769 111.540513 
L 337.550769 110.457436 
L 337.932308 110.457436 
L 337.932308 110.09641 
L 339.076923 110.09641 
L 339.076923 109.735385 
L 339.458462 109.735385 
L 339.458462 109.374359 
L 339.84 109.374359 
L 339.84 108.652308 
L 340.984615 108.652308 
L 340.984615 108.291282 
L 342.129231 108.291282 
L 342.129231 107.930256 
L 344.036923 107.930256 
L 344.036923 107.208205 
L 347.470769 107.208205 
L 347.470769 106.847179 
L 351.667692 106.847179 
L 351.667692 106.486154 
L 356.627692 106.486154 
L 356.627692 106.125128 
L 358.153846 106.125128 
L 358.153846 105.403077 
L 359.298462 105.403077 
L 359.298462 105.042051 
L 360.061538 105.042051 
L 360.061538 104.681026 
L 362.350769 104.681026 
L 362.350769 104.32 
L 363.876923 104.32 
L 363.876923 103.958974 
L 364.258462 103.958974 
L 364.258462 103.236923 
L 366.547692 103.236923 
L 366.547692 102.875897 
L 369.218462 102.875897 
L 369.218462 102.514872 
L 370.744615 102.514872 
L 370.744615 102.153846 
L 373.796923 102.153846 
L 373.796923 101.792821 
L 374.941538 101.792821 
L 374.941538 101.431795 
L 377.230769 101.431795 
L 377.230769 101.070769 
L 380.283077 101.070769 
L 380.283077 100.709744 
L 384.48 100.709744 
L 384.48 100.348718 
L 385.624615 100.348718 
L 385.624615 99.987692 
L 386.769231 99.987692 
L 386.769231 99.626667 
L 388.676923 99.626667 
L 388.676923 99.265641 
L 389.821538 99.265641 
L 389.821538 98.54359 
L 390.966154 98.54359 
L 390.966154 98.182564 
L 393.636923 98.182564 
L 393.636923 97.821538 
L 396.307692 97.821538 
L 396.307692 97.099487 
L 401.267692 97.099487 
L 401.267692 96.738462 
L 402.030769 96.738462 
L 402.030769 96.377436 
L 406.609231 96.377436 
L 406.609231 96.01641 
L 409.28 96.01641 
L 409.28 95.655385 
L 410.424615 95.655385 
L 410.424615 95.294359 
L 411.569231 95.294359 
L 411.569231 94.933333 
L 416.147692 94.933333 
L 416.147692 94.572308 
L 418.055385 94.572308 
L 418.055385 94.211282 
L 420.344615 94.211282 
L 420.344615 93.850256 
L 421.107692 93.850256 
L 421.107692 93.489231 
L 421.489231 93.489231 
L 421.489231 92.767179 
L 425.686154 92.767179 
L 425.686154 92.406154 
L 433.316923 92.406154 
L 433.316923 91.684103 
L 442.855385 91.684103 
L 442.855385 91.323077 
L 467.273846 91.323077 
L 467.273846 90.962051 
L 472.996923 90.962051 
L 472.996923 90.601026 
L 477.193846 90.601026 
L 477.193846 90.24 
L 518.4 90.24 
L 518.4 90.24 
" style="fill:none;stroke:#ff8c00;stroke-linecap:square;stroke-width:2;"/>
   </g>
   <g id="line2d_26">
    <path clip-path="url(#p1cbc706394)" d="M 72 512.64 
L 518.4 90.24 
" style="fill:none;stroke:#000080;stroke-dasharray:7.4,3.2;stroke-dashoffset:0;stroke-width:2;"/>
   </g>
   <g id="patch_3">
    <path d="M 72 512.64 
L 72 69.12 
" style="fill:none;stroke:#000000;stroke-linecap:square;stroke-linejoin:miter;stroke-width:0.8;"/>
   </g>
   <g id="patch_4">
    <path d="M 518.4 512.64 
L 518.4 69.12 
" style="fill:none;stroke:#000000;stroke-linecap:square;stroke-linejoin:miter;stroke-width:0.8;"/>
   </g>
   <g id="patch_5">
    <path d="M 72 512.64 
L 518.4 512.64 
" style="fill:none;stroke:#000000;stroke-linecap:square;stroke-linejoin:miter;stroke-width:0.8;"/>
   </g>
   <g id="patch_6">
    <path d="M 72 69.12 
L 518.4 69.12 
" style="fill:none;stroke:#000000;stroke-linecap:square;stroke-linejoin:miter;stroke-width:0.8;"/>
   </g>
   <g id="legend_1">
    <g id="patch_7">
     <path d="M 427.081875 509.64 
L 514.2 509.64 
Q 515.4 509.64 515.4 508.44 
L 515.4 500.233125 
Q 515.4 499.033125 514.2 499.033125 
L 427.081875 499.033125 
Q 425.881875 499.033125 425.881875 500.233125 
L 425.881875 508.44 
Q 425.881875 509.64 427.081875 509.64 
z
" style="fill:#ffffff;opacity:0.8;stroke:#cccccc;stroke-linejoin:miter;"/>
    </g>
    <g id="line2d_27">
     <path d="M 428.281875 503.892187 
L 440.281875 503.892187 
" style="fill:none;stroke:#ff8c00;stroke-linecap:square;stroke-width:2;"/>
    </g>
    <g id="line2d_28"/>
    <g id="text_15">
     <!-- D008171 (area =0.82) -->
     <defs>
      <path d="M 19.671875 64.796875 
L 19.671875 8.109375 
L 31.59375 8.109375 
Q 46.6875 8.109375 53.6875 14.9375 
Q 60.6875 21.78125 60.6875 36.53125 
Q 60.6875 51.171875 53.6875 57.984375 
Q 46.6875 64.796875 31.59375 64.796875 
z
M 9.8125 72.90625 
L 30.078125 72.90625 
Q 51.265625 72.90625 61.171875 64.09375 
Q 71.09375 55.28125 71.09375 36.53125 
Q 71.09375 17.671875 61.125 8.828125 
Q 51.171875 0 30.078125 0 
L 9.8125 0 
z
" id="DejaVuSans-68"/>
      <path d="M 8.203125 72.90625 
L 55.078125 72.90625 
L 55.078125 68.703125 
L 28.609375 0 
L 18.3125 0 
L 43.21875 64.59375 
L 8.203125 64.59375 
z
" id="DejaVuSans-55"/>
      <path d="M 31 75.875 
Q 24.46875 64.65625 21.28125 53.65625 
Q 18.109375 42.671875 18.109375 31.390625 
Q 18.109375 20.125 21.3125 9.0625 
Q 24.515625 -2 31 -13.1875 
L 23.1875 -13.1875 
Q 15.875 -1.703125 12.234375 9.375 
Q 8.59375 20.453125 8.59375 31.390625 
Q 8.59375 42.28125 12.203125 53.3125 
Q 15.828125 64.359375 23.1875 75.875 
z
" id="DejaVuSans-40"/>
      <path d="M 10.59375 45.40625 
L 73.1875 45.40625 
L 73.1875 37.203125 
L 10.59375 37.203125 
z
M 10.59375 25.484375 
L 73.1875 25.484375 
L 73.1875 17.1875 
L 10.59375 17.1875 
z
" id="DejaVuSans-61"/>
      <path d="M 8.015625 75.875 
L 15.828125 75.875 
Q 23.140625 64.359375 26.78125 53.3125 
Q 30.421875 42.28125 30.421875 31.390625 
Q 30.421875 20.453125 26.78125 9.375 
Q 23.140625 -1.703125 15.828125 -13.1875 
L 8.015625 -13.1875 
Q 14.5 -2 17.703125 9.0625 
Q 20.90625 20.125 20.90625 31.390625 
Q 20.90625 42.671875 17.703125 53.65625 
Q 14.5 64.65625 8.015625 75.875 
z
" id="DejaVuSans-41"/>
     </defs>
     <g transform="translate(445.081875 505.992188)scale(0.06 -0.06)">
      <use xlink:href="#DejaVuSans-68"/>
      <use x="77.001953" xlink:href="#DejaVuSans-48"/>
      <use x="140.625" xlink:href="#DejaVuSans-48"/>
      <use x="204.248047" xlink:href="#DejaVuSans-56"/>
      <use x="267.871094" xlink:href="#DejaVuSans-49"/>
      <use x="331.494141" xlink:href="#DejaVuSans-55"/>
      <use x="395.117188" xlink:href="#DejaVuSans-49"/>
      <use x="458.740234" xlink:href="#DejaVuSans-32"/>
      <use x="490.527344" xlink:href="#DejaVuSans-40"/>
      <use x="529.541016" xlink:href="#DejaVuSans-97"/>
      <use x="590.820312" xlink:href="#DejaVuSans-114"/>
      <use x="631.902344" xlink:href="#DejaVuSans-101"/>
      <use x="693.425781" xlink:href="#DejaVuSans-97"/>
      <use x="754.705078" xlink:href="#DejaVuSans-32"/>
      <use x="786.492188" xlink:href="#DejaVuSans-61"/>
      <use x="870.28125" xlink:href="#DejaVuSans-48"/>
      <use x="933.904297" xlink:href="#DejaVuSans-46"/>
      <use x="965.691406" xlink:href="#DejaVuSans-56"/>
      <use x="1029.314453" xlink:href="#DejaVuSans-50"/>
      <use x="1092.9375" xlink:href="#DejaVuSans-41"/>
     </g>
    </g>
   </g>
  </g>
 </g>
 <defs>
  <clipPath id="p1cbc706394">
   <rect height="443.52" width="446.4" x="72" y="69.12"/>
  </clipPath>
 </defs>
</svg>
