<?xml version="1.0" encoding="utf-8" standalone="no"?>
<!DOCTYPE svg PUBLIC "-//W3C//DTD SVG 1.1//EN"
  "http://www.w3.org/Graphics/SVG/1.1/DTD/svg11.dtd">
<!-- Created with matplotlib (https://matplotlib.org/) -->
<svg height="576pt" version="1.1" viewBox="0 0 576 576" width="576pt" xmlns="http://www.w3.org/2000/svg" xmlns:xlink="http://www.w3.org/1999/xlink">
 <defs>
  <style type="text/css">
*{stroke-linecap:butt;stroke-linejoin:round;}
  </style>
 </defs>
 <g id="figure_1">
  <g id="patch_1">
   <path d="M 0 576 
L 576 576 
L 576 0 
L 0 0 
z
" style="fill:#ffffff;"/>
  </g>
  <g id="axes_1">
   <g id="patch_2">
    <path d="M 72 512.64 
L 518.4 512.64 
L 518.4 69.12 
L 72 69.12 
z
" style="fill:#ffffff;"/>
   </g>
   <g id="matplotlib.axis_1">
    <g id="xtick_1">
     <g id="line2d_1">
      <path clip-path="url(#pa8010ab898)" d="M 72 512.64 
L 72 69.12 
" style="fill:none;stroke:#b0b0b0;stroke-linecap:square;stroke-width:0.8;"/>
     </g>
     <g id="line2d_2">
      <defs>
       <path d="M 0 0 
L 0 3.5 
" id="m712f523195" style="stroke:#000000;stroke-width:0.8;"/>
      </defs>
      <g>
       <use style="stroke:#000000;stroke-width:0.8;" x="72" xlink:href="#m712f523195" y="512.64"/>
      </g>
     </g>
     <g id="text_1">
      <!-- 0.0 -->
      <defs>
       <path d="M 31.78125 66.40625 
Q 24.171875 66.40625 20.328125 58.90625 
Q 16.5 51.421875 16.5 36.375 
Q 16.5 21.390625 20.328125 13.890625 
Q 24.171875 6.390625 31.78125 6.390625 
Q 39.453125 6.390625 43.28125 13.890625 
Q 47.125 21.390625 47.125 36.375 
Q 47.125 51.421875 43.28125 58.90625 
Q 39.453125 66.40625 31.78125 66.40625 
z
M 31.78125 74.21875 
Q 44.046875 74.21875 50.515625 64.515625 
Q 56.984375 54.828125 56.984375 36.375 
Q 56.984375 17.96875 50.515625 8.265625 
Q 44.046875 -1.421875 31.78125 -1.421875 
Q 19.53125 -1.421875 13.0625 8.265625 
Q 6.59375 17.96875 6.59375 36.375 
Q 6.59375 54.828125 13.0625 64.515625 
Q 19.53125 74.21875 31.78125 74.21875 
z
" id="DejaVuSans-48"/>
       <path d="M 10.6875 12.40625 
L 21 12.40625 
L 21 0 
L 10.6875 0 
z
" id="DejaVuSans-46"/>
      </defs>
      <g transform="translate(64.048438 527.238438)scale(0.1 -0.1)">
       <use xlink:href="#DejaVuSans-48"/>
       <use x="63.623047" xlink:href="#DejaVuSans-46"/>
       <use x="95.410156" xlink:href="#DejaVuSans-48"/>
      </g>
     </g>
    </g>
    <g id="xtick_2">
     <g id="line2d_3">
      <path clip-path="url(#pa8010ab898)" d="M 161.28 512.64 
L 161.28 69.12 
" style="fill:none;stroke:#b0b0b0;stroke-linecap:square;stroke-width:0.8;"/>
     </g>
     <g id="line2d_4">
      <g>
       <use style="stroke:#000000;stroke-width:0.8;" x="161.28" xlink:href="#m712f523195" y="512.64"/>
      </g>
     </g>
     <g id="text_2">
      <!-- 0.2 -->
      <defs>
       <path d="M 19.1875 8.296875 
L 53.609375 8.296875 
L 53.609375 0 
L 7.328125 0 
L 7.328125 8.296875 
Q 12.9375 14.109375 22.625 23.890625 
Q 32.328125 33.6875 34.8125 36.53125 
Q 39.546875 41.84375 41.421875 45.53125 
Q 43.3125 49.21875 43.3125 52.78125 
Q 43.3125 58.59375 39.234375 62.25 
Q 35.15625 65.921875 28.609375 65.921875 
Q 23.96875 65.921875 18.8125 64.3125 
Q 13.671875 62.703125 7.8125 59.421875 
L 7.8125 69.390625 
Q 13.765625 71.78125 18.9375 73 
Q 24.125 74.21875 28.421875 74.21875 
Q 39.75 74.21875 46.484375 68.546875 
Q 53.21875 62.890625 53.21875 53.421875 
Q 53.21875 48.921875 51.53125 44.890625 
Q 49.859375 40.875 45.40625 35.40625 
Q 44.1875 33.984375 37.640625 27.21875 
Q 31.109375 20.453125 19.1875 8.296875 
z
" id="DejaVuSans-50"/>
      </defs>
      <g transform="translate(153.328438 527.238438)scale(0.1 -0.1)">
       <use xlink:href="#DejaVuSans-48"/>
       <use x="63.623047" xlink:href="#DejaVuSans-46"/>
       <use x="95.410156" xlink:href="#DejaVuSans-50"/>
      </g>
     </g>
    </g>
    <g id="xtick_3">
     <g id="line2d_5">
      <path clip-path="url(#pa8010ab898)" d="M 250.56 512.64 
L 250.56 69.12 
" style="fill:none;stroke:#b0b0b0;stroke-linecap:square;stroke-width:0.8;"/>
     </g>
     <g id="line2d_6">
      <g>
       <use style="stroke:#000000;stroke-width:0.8;" x="250.56" xlink:href="#m712f523195" y="512.64"/>
      </g>
     </g>
     <g id="text_3">
      <!-- 0.4 -->
      <defs>
       <path d="M 37.796875 64.3125 
L 12.890625 25.390625 
L 37.796875 25.390625 
z
M 35.203125 72.90625 
L 47.609375 72.90625 
L 47.609375 25.390625 
L 58.015625 25.390625 
L 58.015625 17.1875 
L 47.609375 17.1875 
L 47.609375 0 
L 37.796875 0 
L 37.796875 17.1875 
L 4.890625 17.1875 
L 4.890625 26.703125 
z
" id="DejaVuSans-52"/>
      </defs>
      <g transform="translate(242.608438 527.238438)scale(0.1 -0.1)">
       <use xlink:href="#DejaVuSans-48"/>
       <use x="63.623047" xlink:href="#DejaVuSans-46"/>
       <use x="95.410156" xlink:href="#DejaVuSans-52"/>
      </g>
     </g>
    </g>
    <g id="xtick_4">
     <g id="line2d_7">
      <path clip-path="url(#pa8010ab898)" d="M 339.84 512.64 
L 339.84 69.12 
" style="fill:none;stroke:#b0b0b0;stroke-linecap:square;stroke-width:0.8;"/>
     </g>
     <g id="line2d_8">
      <g>
       <use style="stroke:#000000;stroke-width:0.8;" x="339.84" xlink:href="#m712f523195" y="512.64"/>
      </g>
     </g>
     <g id="text_4">
      <!-- 0.6 -->
      <defs>
       <path d="M 33.015625 40.375 
Q 26.375 40.375 22.484375 35.828125 
Q 18.609375 31.296875 18.609375 23.390625 
Q 18.609375 15.53125 22.484375 10.953125 
Q 26.375 6.390625 33.015625 6.390625 
Q 39.65625 6.390625 43.53125 10.953125 
Q 47.40625 15.53125 47.40625 23.390625 
Q 47.40625 31.296875 43.53125 35.828125 
Q 39.65625 40.375 33.015625 40.375 
z
M 52.59375 71.296875 
L 52.59375 62.3125 
Q 48.875 64.0625 45.09375 64.984375 
Q 41.3125 65.921875 37.59375 65.921875 
Q 27.828125 65.921875 22.671875 59.328125 
Q 17.53125 52.734375 16.796875 39.40625 
Q 19.671875 43.65625 24.015625 45.921875 
Q 28.375 48.1875 33.59375 48.1875 
Q 44.578125 48.1875 50.953125 41.515625 
Q 57.328125 34.859375 57.328125 23.390625 
Q 57.328125 12.15625 50.6875 5.359375 
Q 44.046875 -1.421875 33.015625 -1.421875 
Q 20.359375 -1.421875 13.671875 8.265625 
Q 6.984375 17.96875 6.984375 36.375 
Q 6.984375 53.65625 15.1875 63.9375 
Q 23.390625 74.21875 37.203125 74.21875 
Q 40.921875 74.21875 44.703125 73.484375 
Q 48.484375 72.75 52.59375 71.296875 
z
" id="DejaVuSans-54"/>
      </defs>
      <g transform="translate(331.888438 527.238438)scale(0.1 -0.1)">
       <use xlink:href="#DejaVuSans-48"/>
       <use x="63.623047" xlink:href="#DejaVuSans-46"/>
       <use x="95.410156" xlink:href="#DejaVuSans-54"/>
      </g>
     </g>
    </g>
    <g id="xtick_5">
     <g id="line2d_9">
      <path clip-path="url(#pa8010ab898)" d="M 429.12 512.64 
L 429.12 69.12 
" style="fill:none;stroke:#b0b0b0;stroke-linecap:square;stroke-width:0.8;"/>
     </g>
     <g id="line2d_10">
      <g>
       <use style="stroke:#000000;stroke-width:0.8;" x="429.12" xlink:href="#m712f523195" y="512.64"/>
      </g>
     </g>
     <g id="text_5">
      <!-- 0.8 -->
      <defs>
       <path d="M 31.78125 34.625 
Q 24.75 34.625 20.71875 30.859375 
Q 16.703125 27.09375 16.703125 20.515625 
Q 16.703125 13.921875 20.71875 10.15625 
Q 24.75 6.390625 31.78125 6.390625 
Q 38.8125 6.390625 42.859375 10.171875 
Q 46.921875 13.96875 46.921875 20.515625 
Q 46.921875 27.09375 42.890625 30.859375 
Q 38.875 34.625 31.78125 34.625 
z
M 21.921875 38.8125 
Q 15.578125 40.375 12.03125 44.71875 
Q 8.5 49.078125 8.5 55.328125 
Q 8.5 64.0625 14.71875 69.140625 
Q 20.953125 74.21875 31.78125 74.21875 
Q 42.671875 74.21875 48.875 69.140625 
Q 55.078125 64.0625 55.078125 55.328125 
Q 55.078125 49.078125 51.53125 44.71875 
Q 48 40.375 41.703125 38.8125 
Q 48.828125 37.15625 52.796875 32.3125 
Q 56.78125 27.484375 56.78125 20.515625 
Q 56.78125 9.90625 50.3125 4.234375 
Q 43.84375 -1.421875 31.78125 -1.421875 
Q 19.734375 -1.421875 13.25 4.234375 
Q 6.78125 9.90625 6.78125 20.515625 
Q 6.78125 27.484375 10.78125 32.3125 
Q 14.796875 37.15625 21.921875 38.8125 
z
M 18.3125 54.390625 
Q 18.3125 48.734375 21.84375 45.5625 
Q 25.390625 42.390625 31.78125 42.390625 
Q 38.140625 42.390625 41.71875 45.5625 
Q 45.3125 48.734375 45.3125 54.390625 
Q 45.3125 60.0625 41.71875 63.234375 
Q 38.140625 66.40625 31.78125 66.40625 
Q 25.390625 66.40625 21.84375 63.234375 
Q 18.3125 60.0625 18.3125 54.390625 
z
" id="DejaVuSans-56"/>
      </defs>
      <g transform="translate(421.168437 527.238438)scale(0.1 -0.1)">
       <use xlink:href="#DejaVuSans-48"/>
       <use x="63.623047" xlink:href="#DejaVuSans-46"/>
       <use x="95.410156" xlink:href="#DejaVuSans-56"/>
      </g>
     </g>
    </g>
    <g id="xtick_6">
     <g id="line2d_11">
      <path clip-path="url(#pa8010ab898)" d="M 518.4 512.64 
L 518.4 69.12 
" style="fill:none;stroke:#b0b0b0;stroke-linecap:square;stroke-width:0.8;"/>
     </g>
     <g id="line2d_12">
      <g>
       <use style="stroke:#000000;stroke-width:0.8;" x="518.4" xlink:href="#m712f523195" y="512.64"/>
      </g>
     </g>
     <g id="text_6">
      <!-- 1.0 -->
      <defs>
       <path d="M 12.40625 8.296875 
L 28.515625 8.296875 
L 28.515625 63.921875 
L 10.984375 60.40625 
L 10.984375 69.390625 
L 28.421875 72.90625 
L 38.28125 72.90625 
L 38.28125 8.296875 
L 54.390625 8.296875 
L 54.390625 0 
L 12.40625 0 
z
" id="DejaVuSans-49"/>
      </defs>
      <g transform="translate(510.448437 527.238438)scale(0.1 -0.1)">
       <use xlink:href="#DejaVuSans-49"/>
       <use x="63.623047" xlink:href="#DejaVuSans-46"/>
       <use x="95.410156" xlink:href="#DejaVuSans-48"/>
      </g>
     </g>
    </g>
    <g id="text_7">
     <!-- False Positive Rate -->
     <defs>
      <path d="M 9.8125 72.90625 
L 51.703125 72.90625 
L 51.703125 64.59375 
L 19.671875 64.59375 
L 19.671875 43.109375 
L 48.578125 43.109375 
L 48.578125 34.8125 
L 19.671875 34.8125 
L 19.671875 0 
L 9.8125 0 
z
" id="DejaVuSans-70"/>
      <path d="M 34.28125 27.484375 
Q 23.390625 27.484375 19.1875 25 
Q 14.984375 22.515625 14.984375 16.5 
Q 14.984375 11.71875 18.140625 8.90625 
Q 21.296875 6.109375 26.703125 6.109375 
Q 34.1875 6.109375 38.703125 11.40625 
Q 43.21875 16.703125 43.21875 25.484375 
L 43.21875 27.484375 
z
M 52.203125 31.203125 
L 52.203125 0 
L 43.21875 0 
L 43.21875 8.296875 
Q 40.140625 3.328125 35.546875 0.953125 
Q 30.953125 -1.421875 24.3125 -1.421875 
Q 15.921875 -1.421875 10.953125 3.296875 
Q 6 8.015625 6 15.921875 
Q 6 25.140625 12.171875 29.828125 
Q 18.359375 34.515625 30.609375 34.515625 
L 43.21875 34.515625 
L 43.21875 35.40625 
Q 43.21875 41.609375 39.140625 45 
Q 35.0625 48.390625 27.6875 48.390625 
Q 23 48.390625 18.546875 47.265625 
Q 14.109375 46.140625 10.015625 43.890625 
L 10.015625 52.203125 
Q 14.9375 54.109375 19.578125 55.046875 
Q 24.21875 56 28.609375 56 
Q 40.484375 56 46.34375 49.84375 
Q 52.203125 43.703125 52.203125 31.203125 
z
" id="DejaVuSans-97"/>
      <path d="M 9.421875 75.984375 
L 18.40625 75.984375 
L 18.40625 0 
L 9.421875 0 
z
" id="DejaVuSans-108"/>
      <path d="M 44.28125 53.078125 
L 44.28125 44.578125 
Q 40.484375 46.53125 36.375 47.5 
Q 32.28125 48.484375 27.875 48.484375 
Q 21.1875 48.484375 17.84375 46.4375 
Q 14.5 44.390625 14.5 40.28125 
Q 14.5 37.15625 16.890625 35.375 
Q 19.28125 33.59375 26.515625 31.984375 
L 29.59375 31.296875 
Q 39.15625 29.25 43.1875 25.515625 
Q 47.21875 21.78125 47.21875 15.09375 
Q 47.21875 7.46875 41.1875 3.015625 
Q 35.15625 -1.421875 24.609375 -1.421875 
Q 20.21875 -1.421875 15.453125 -0.5625 
Q 10.6875 0.296875 5.421875 2 
L 5.421875 11.28125 
Q 10.40625 8.6875 15.234375 7.390625 
Q 20.0625 6.109375 24.8125 6.109375 
Q 31.15625 6.109375 34.5625 8.28125 
Q 37.984375 10.453125 37.984375 14.40625 
Q 37.984375 18.0625 35.515625 20.015625 
Q 33.0625 21.96875 24.703125 23.78125 
L 21.578125 24.515625 
Q 13.234375 26.265625 9.515625 29.90625 
Q 5.8125 33.546875 5.8125 39.890625 
Q 5.8125 47.609375 11.28125 51.796875 
Q 16.75 56 26.8125 56 
Q 31.78125 56 36.171875 55.265625 
Q 40.578125 54.546875 44.28125 53.078125 
z
" id="DejaVuSans-115"/>
      <path d="M 56.203125 29.59375 
L 56.203125 25.203125 
L 14.890625 25.203125 
Q 15.484375 15.921875 20.484375 11.0625 
Q 25.484375 6.203125 34.421875 6.203125 
Q 39.59375 6.203125 44.453125 7.46875 
Q 49.3125 8.734375 54.109375 11.28125 
L 54.109375 2.78125 
Q 49.265625 0.734375 44.1875 -0.34375 
Q 39.109375 -1.421875 33.890625 -1.421875 
Q 20.796875 -1.421875 13.15625 6.1875 
Q 5.515625 13.8125 5.515625 26.8125 
Q 5.515625 40.234375 12.765625 48.109375 
Q 20.015625 56 32.328125 56 
Q 43.359375 56 49.78125 48.890625 
Q 56.203125 41.796875 56.203125 29.59375 
z
M 47.21875 32.234375 
Q 47.125 39.59375 43.09375 43.984375 
Q 39.0625 48.390625 32.421875 48.390625 
Q 24.90625 48.390625 20.390625 44.140625 
Q 15.875 39.890625 15.1875 32.171875 
z
" id="DejaVuSans-101"/>
      <path id="DejaVuSans-32"/>
      <path d="M 19.671875 64.796875 
L 19.671875 37.40625 
L 32.078125 37.40625 
Q 38.96875 37.40625 42.71875 40.96875 
Q 46.484375 44.53125 46.484375 51.125 
Q 46.484375 57.671875 42.71875 61.234375 
Q 38.96875 64.796875 32.078125 64.796875 
z
M 9.8125 72.90625 
L 32.078125 72.90625 
Q 44.34375 72.90625 50.609375 67.359375 
Q 56.890625 61.8125 56.890625 51.125 
Q 56.890625 40.328125 50.609375 34.8125 
Q 44.34375 29.296875 32.078125 29.296875 
L 19.671875 29.296875 
L 19.671875 0 
L 9.8125 0 
z
" id="DejaVuSans-80"/>
      <path d="M 30.609375 48.390625 
Q 23.390625 48.390625 19.1875 42.75 
Q 14.984375 37.109375 14.984375 27.296875 
Q 14.984375 17.484375 19.15625 11.84375 
Q 23.34375 6.203125 30.609375 6.203125 
Q 37.796875 6.203125 41.984375 11.859375 
Q 46.1875 17.53125 46.1875 27.296875 
Q 46.1875 37.015625 41.984375 42.703125 
Q 37.796875 48.390625 30.609375 48.390625 
z
M 30.609375 56 
Q 42.328125 56 49.015625 48.375 
Q 55.71875 40.765625 55.71875 27.296875 
Q 55.71875 13.875 49.015625 6.21875 
Q 42.328125 -1.421875 30.609375 -1.421875 
Q 18.84375 -1.421875 12.171875 6.21875 
Q 5.515625 13.875 5.515625 27.296875 
Q 5.515625 40.765625 12.171875 48.375 
Q 18.84375 56 30.609375 56 
z
" id="DejaVuSans-111"/>
      <path d="M 9.421875 54.6875 
L 18.40625 54.6875 
L 18.40625 0 
L 9.421875 0 
z
M 9.421875 75.984375 
L 18.40625 75.984375 
L 18.40625 64.59375 
L 9.421875 64.59375 
z
" id="DejaVuSans-105"/>
      <path d="M 18.3125 70.21875 
L 18.3125 54.6875 
L 36.8125 54.6875 
L 36.8125 47.703125 
L 18.3125 47.703125 
L 18.3125 18.015625 
Q 18.3125 11.328125 20.140625 9.421875 
Q 21.96875 7.515625 27.59375 7.515625 
L 36.8125 7.515625 
L 36.8125 0 
L 27.59375 0 
Q 17.1875 0 13.234375 3.875 
Q 9.28125 7.765625 9.28125 18.015625 
L 9.28125 47.703125 
L 2.6875 47.703125 
L 2.6875 54.6875 
L 9.28125 54.6875 
L 9.28125 70.21875 
z
" id="DejaVuSans-116"/>
      <path d="M 2.984375 54.6875 
L 12.5 54.6875 
L 29.59375 8.796875 
L 46.6875 54.6875 
L 56.203125 54.6875 
L 35.6875 0 
L 23.484375 0 
z
" id="DejaVuSans-118"/>
      <path d="M 44.390625 34.1875 
Q 47.5625 33.109375 50.5625 29.59375 
Q 53.5625 26.078125 56.59375 19.921875 
L 66.609375 0 
L 56 0 
L 46.6875 18.703125 
Q 43.0625 26.03125 39.671875 28.421875 
Q 36.28125 30.8125 30.421875 30.8125 
L 19.671875 30.8125 
L 19.671875 0 
L 9.8125 0 
L 9.8125 72.90625 
L 32.078125 72.90625 
Q 44.578125 72.90625 50.734375 67.671875 
Q 56.890625 62.453125 56.890625 51.90625 
Q 56.890625 45.015625 53.6875 40.46875 
Q 50.484375 35.9375 44.390625 34.1875 
z
M 19.671875 64.796875 
L 19.671875 38.921875 
L 32.078125 38.921875 
Q 39.203125 38.921875 42.84375 42.21875 
Q 46.484375 45.515625 46.484375 51.90625 
Q 46.484375 58.296875 42.84375 61.546875 
Q 39.203125 64.796875 32.078125 64.796875 
z
" id="DejaVuSans-82"/>
     </defs>
     <g transform="translate(247.994531 540.916563)scale(0.1 -0.1)">
      <use xlink:href="#DejaVuSans-70"/>
      <use x="57.378906" xlink:href="#DejaVuSans-97"/>
      <use x="118.658203" xlink:href="#DejaVuSans-108"/>
      <use x="146.441406" xlink:href="#DejaVuSans-115"/>
      <use x="198.541016" xlink:href="#DejaVuSans-101"/>
      <use x="260.064453" xlink:href="#DejaVuSans-32"/>
      <use x="291.851562" xlink:href="#DejaVuSans-80"/>
      <use x="352.107422" xlink:href="#DejaVuSans-111"/>
      <use x="413.289062" xlink:href="#DejaVuSans-115"/>
      <use x="465.388672" xlink:href="#DejaVuSans-105"/>
      <use x="493.171875" xlink:href="#DejaVuSans-116"/>
      <use x="532.380859" xlink:href="#DejaVuSans-105"/>
      <use x="560.164062" xlink:href="#DejaVuSans-118"/>
      <use x="619.34375" xlink:href="#DejaVuSans-101"/>
      <use x="680.867188" xlink:href="#DejaVuSans-32"/>
      <use x="712.654297" xlink:href="#DejaVuSans-82"/>
      <use x="782.105469" xlink:href="#DejaVuSans-97"/>
      <use x="843.384766" xlink:href="#DejaVuSans-116"/>
      <use x="882.59375" xlink:href="#DejaVuSans-101"/>
     </g>
    </g>
   </g>
   <g id="matplotlib.axis_2">
    <g id="ytick_1">
     <g id="line2d_13">
      <path clip-path="url(#pa8010ab898)" d="M 72 512.64 
L 518.4 512.64 
" style="fill:none;stroke:#b0b0b0;stroke-linecap:square;stroke-width:0.8;"/>
     </g>
     <g id="line2d_14">
      <defs>
       <path d="M 0 0 
L -3.5 0 
" id="m942bb6939c" style="stroke:#000000;stroke-width:0.8;"/>
      </defs>
      <g>
       <use style="stroke:#000000;stroke-width:0.8;" x="72" xlink:href="#m942bb6939c" y="512.64"/>
      </g>
     </g>
     <g id="text_8">
      <!-- 0.0 -->
      <g transform="translate(49.096875 516.439219)scale(0.1 -0.1)">
       <use xlink:href="#DejaVuSans-48"/>
       <use x="63.623047" xlink:href="#DejaVuSans-46"/>
       <use x="95.410156" xlink:href="#DejaVuSans-48"/>
      </g>
     </g>
    </g>
    <g id="ytick_2">
     <g id="line2d_15">
      <path clip-path="url(#pa8010ab898)" d="M 72 428.16 
L 518.4 428.16 
" style="fill:none;stroke:#b0b0b0;stroke-linecap:square;stroke-width:0.8;"/>
     </g>
     <g id="line2d_16">
      <g>
       <use style="stroke:#000000;stroke-width:0.8;" x="72" xlink:href="#m942bb6939c" y="428.16"/>
      </g>
     </g>
     <g id="text_9">
      <!-- 0.2 -->
      <g transform="translate(49.096875 431.959219)scale(0.1 -0.1)">
       <use xlink:href="#DejaVuSans-48"/>
       <use x="63.623047" xlink:href="#DejaVuSans-46"/>
       <use x="95.410156" xlink:href="#DejaVuSans-50"/>
      </g>
     </g>
    </g>
    <g id="ytick_3">
     <g id="line2d_17">
      <path clip-path="url(#pa8010ab898)" d="M 72 343.68 
L 518.4 343.68 
" style="fill:none;stroke:#b0b0b0;stroke-linecap:square;stroke-width:0.8;"/>
     </g>
     <g id="line2d_18">
      <g>
       <use style="stroke:#000000;stroke-width:0.8;" x="72" xlink:href="#m942bb6939c" y="343.68"/>
      </g>
     </g>
     <g id="text_10">
      <!-- 0.4 -->
      <g transform="translate(49.096875 347.479219)scale(0.1 -0.1)">
       <use xlink:href="#DejaVuSans-48"/>
       <use x="63.623047" xlink:href="#DejaVuSans-46"/>
       <use x="95.410156" xlink:href="#DejaVuSans-52"/>
      </g>
     </g>
    </g>
    <g id="ytick_4">
     <g id="line2d_19">
      <path clip-path="url(#pa8010ab898)" d="M 72 259.2 
L 518.4 259.2 
" style="fill:none;stroke:#b0b0b0;stroke-linecap:square;stroke-width:0.8;"/>
     </g>
     <g id="line2d_20">
      <g>
       <use style="stroke:#000000;stroke-width:0.8;" x="72" xlink:href="#m942bb6939c" y="259.2"/>
      </g>
     </g>
     <g id="text_11">
      <!-- 0.6 -->
      <g transform="translate(49.096875 262.999219)scale(0.1 -0.1)">
       <use xlink:href="#DejaVuSans-48"/>
       <use x="63.623047" xlink:href="#DejaVuSans-46"/>
       <use x="95.410156" xlink:href="#DejaVuSans-54"/>
      </g>
     </g>
    </g>
    <g id="ytick_5">
     <g id="line2d_21">
      <path clip-path="url(#pa8010ab898)" d="M 72 174.72 
L 518.4 174.72 
" style="fill:none;stroke:#b0b0b0;stroke-linecap:square;stroke-width:0.8;"/>
     </g>
     <g id="line2d_22">
      <g>
       <use style="stroke:#000000;stroke-width:0.8;" x="72" xlink:href="#m942bb6939c" y="174.72"/>
      </g>
     </g>
     <g id="text_12">
      <!-- 0.8 -->
      <g transform="translate(49.096875 178.519219)scale(0.1 -0.1)">
       <use xlink:href="#DejaVuSans-48"/>
       <use x="63.623047" xlink:href="#DejaVuSans-46"/>
       <use x="95.410156" xlink:href="#DejaVuSans-56"/>
      </g>
     </g>
    </g>
    <g id="ytick_6">
     <g id="line2d_23">
      <path clip-path="url(#pa8010ab898)" d="M 72 90.24 
L 518.4 90.24 
" style="fill:none;stroke:#b0b0b0;stroke-linecap:square;stroke-width:0.8;"/>
     </g>
     <g id="line2d_24">
      <g>
       <use style="stroke:#000000;stroke-width:0.8;" x="72" xlink:href="#m942bb6939c" y="90.24"/>
      </g>
     </g>
     <g id="text_13">
      <!-- 1.0 -->
      <g transform="translate(49.096875 94.039219)scale(0.1 -0.1)">
       <use xlink:href="#DejaVuSans-49"/>
       <use x="63.623047" xlink:href="#DejaVuSans-46"/>
       <use x="95.410156" xlink:href="#DejaVuSans-48"/>
      </g>
     </g>
    </g>
    <g id="text_14">
     <!-- True Positive Rate -->
     <defs>
      <path d="M -0.296875 72.90625 
L 61.375 72.90625 
L 61.375 64.59375 
L 35.5 64.59375 
L 35.5 0 
L 25.59375 0 
L 25.59375 64.59375 
L -0.296875 64.59375 
z
" id="DejaVuSans-84"/>
      <path d="M 41.109375 46.296875 
Q 39.59375 47.171875 37.8125 47.578125 
Q 36.03125 48 33.890625 48 
Q 26.265625 48 22.1875 43.046875 
Q 18.109375 38.09375 18.109375 28.8125 
L 18.109375 0 
L 9.078125 0 
L 9.078125 54.6875 
L 18.109375 54.6875 
L 18.109375 46.1875 
Q 20.953125 51.171875 25.484375 53.578125 
Q 30.03125 56 36.53125 56 
Q 37.453125 56 38.578125 55.875 
Q 39.703125 55.765625 41.0625 55.515625 
z
" id="DejaVuSans-114"/>
      <path d="M 8.5 21.578125 
L 8.5 54.6875 
L 17.484375 54.6875 
L 17.484375 21.921875 
Q 17.484375 14.15625 20.5 10.265625 
Q 23.53125 6.390625 29.59375 6.390625 
Q 36.859375 6.390625 41.078125 11.03125 
Q 45.3125 15.671875 45.3125 23.6875 
L 45.3125 54.6875 
L 54.296875 54.6875 
L 54.296875 0 
L 45.3125 0 
L 45.3125 8.40625 
Q 42.046875 3.421875 37.71875 1 
Q 33.40625 -1.421875 27.6875 -1.421875 
Q 18.265625 -1.421875 13.375 4.4375 
Q 8.5 10.296875 8.5 21.578125 
z
M 31.109375 56 
z
" id="DejaVuSans-117"/>
     </defs>
     <g transform="translate(43.017187 336.426094)rotate(-90)scale(0.1 -0.1)">
      <use xlink:href="#DejaVuSans-84"/>
      <use x="60.865234" xlink:href="#DejaVuSans-114"/>
      <use x="101.978516" xlink:href="#DejaVuSans-117"/>
      <use x="165.357422" xlink:href="#DejaVuSans-101"/>
      <use x="226.880859" xlink:href="#DejaVuSans-32"/>
      <use x="258.667969" xlink:href="#DejaVuSans-80"/>
      <use x="318.923828" xlink:href="#DejaVuSans-111"/>
      <use x="380.105469" xlink:href="#DejaVuSans-115"/>
      <use x="432.205078" xlink:href="#DejaVuSans-105"/>
      <use x="459.988281" xlink:href="#DejaVuSans-116"/>
      <use x="499.197266" xlink:href="#DejaVuSans-105"/>
      <use x="526.980469" xlink:href="#DejaVuSans-118"/>
      <use x="586.160156" xlink:href="#DejaVuSans-101"/>
      <use x="647.683594" xlink:href="#DejaVuSans-32"/>
      <use x="679.470703" xlink:href="#DejaVuSans-82"/>
      <use x="748.921875" xlink:href="#DejaVuSans-97"/>
      <use x="810.201172" xlink:href="#DejaVuSans-116"/>
      <use x="849.410156" xlink:href="#DejaVuSans-101"/>
     </g>
    </g>
   </g>
   <g id="line2d_25">
    <path clip-path="url(#pa8010ab898)" d="M 72 512.64 
L 72 484.282155 
L 72.348478 484.282155 
L 72.348478 440.426417 
L 72.696956 440.426417 
L 72.696956 414.706511 
L 73.045433 414.706511 
L 73.045433 400.197845 
L 73.393911 400.197845 
L 73.393911 399.538361 
L 73.742389 399.538361 
L 73.742389 398.549133 
L 74.090867 398.549133 
L 74.090867 391.624543 
L 74.439344 391.624543 
L 74.439344 389.975831 
L 74.787822 389.975831 
L 74.787822 387.997377 
L 75.1363 387.997377 
L 75.1363 384.370211 
L 76.181733 384.370211 
L 76.181733 381.732272 
L 76.530211 381.732272 
L 76.530211 379.424075 
L 76.878689 379.424075 
L 76.878689 377.775363 
L 77.227166 377.775363 
L 77.227166 374.807681 
L 77.575644 374.807681 
L 77.575644 372.499485 
L 77.924122 372.499485 
L 77.924122 372.169742 
L 78.2726 372.169742 
L 78.2726 367.883091 
L 78.621077 367.883091 
L 78.621077 366.564122 
L 78.969555 366.564122 
L 78.969555 363.59644 
L 79.318033 363.59644 
L 79.318033 362.607213 
L 79.666511 362.607213 
L 79.666511 362.277471 
L 80.014988 362.277471 
L 80.014988 357.661077 
L 80.363466 357.661077 
L 80.363466 357.001593 
L 80.711944 357.001593 
L 80.711944 353.374426 
L 81.060422 353.374426 
L 81.060422 349.417518 
L 81.408899 349.417518 
L 81.408899 346.449836 
L 81.757377 346.449836 
L 81.757377 345.130867 
L 82.80281 345.130867 
L 82.80281 344.801124 
L 83.151288 344.801124 
L 83.151288 344.141639 
L 83.499766 344.141639 
L 83.499766 343.811897 
L 83.848244 343.811897 
L 83.848244 343.482155 
L 84.196721 343.482155 
L 84.196721 341.833443 
L 84.545199 341.833443 
L 84.545199 341.5037 
L 84.893677 341.5037 
L 84.893677 341.173958 
L 85.242155 341.173958 
L 85.242155 340.844215 
L 85.590632 340.844215 
L 85.590632 339.525246 
L 86.287588 339.525246 
L 86.287588 337.546792 
L 86.636066 337.546792 
L 86.636066 337.217049 
L 86.984543 337.217049 
L 86.984543 335.89808 
L 87.333021 335.89808 
L 87.333021 335.568337 
L 88.378454 335.568337 
L 88.378454 334.57911 
L 89.07541 334.57911 
L 89.07541 333.589883 
L 89.423888 333.589883 
L 89.423888 332.600656 
L 89.772365 332.600656 
L 89.772365 329.303232 
L 90.120843 329.303232 
L 90.120843 324.686838 
L 90.817799 324.686838 
L 90.817799 324.357096 
L 91.166276 324.357096 
L 91.166276 324.027354 
L 91.514754 324.027354 
L 91.514754 323.367869 
L 91.863232 323.367869 
L 91.863232 322.378642 
L 92.21171 322.378642 
L 92.21171 320.72993 
L 92.908665 320.72993 
L 92.908665 318.421733 
L 93.257143 318.421733 
L 93.257143 317.432506 
L 93.605621 317.432506 
L 93.605621 315.783794 
L 93.954098 315.783794 
L 93.954098 314.464824 
L 94.302576 314.464824 
L 94.302576 314.135082 
L 94.999532 314.135082 
L 94.999532 313.475597 
L 95.696487 313.475597 
L 95.696487 312.816112 
L 96.044965 312.816112 
L 96.044965 310.178173 
L 96.393443 310.178173 
L 96.393443 309.848431 
L 97.090398 309.848431 
L 97.090398 309.518689 
L 97.787354 309.518689 
L 97.787354 307.869977 
L 98.135831 307.869977 
L 98.135831 307.540234 
L 98.832787 307.540234 
L 98.832787 302.923841 
L 99.181265 302.923841 
L 99.181265 302.264356 
L 99.529742 302.264356 
L 99.529742 301.604871 
L 100.575176 301.604871 
L 100.575176 300.285902 
L 100.923653 300.285902 
L 100.923653 298.63719 
L 101.620609 298.63719 
L 101.620609 297.977705 
L 101.969087 297.977705 
L 101.969087 295.999251 
L 102.666042 295.999251 
L 102.666042 294.680281 
L 103.01452 294.680281 
L 103.01452 294.350539 
L 103.362998 294.350539 
L 103.362998 294.020796 
L 103.711475 294.020796 
L 103.711475 293.691054 
L 104.059953 293.691054 
L 104.059953 291.7126 
L 105.105386 291.7126 
L 105.105386 291.053115 
L 105.453864 291.053115 
L 105.453864 290.063888 
L 105.802342 290.063888 
L 105.802342 289.404403 
L 106.847775 289.404403 
L 106.847775 287.425948 
L 107.196253 287.425948 
L 107.196253 287.096206 
L 107.544731 287.096206 
L 107.544731 286.436721 
L 108.241686 286.436721 
L 108.241686 285.777237 
L 108.590164 285.777237 
L 108.590164 284.458267 
L 109.984075 284.458267 
L 109.984075 283.798782 
L 110.332553 283.798782 
L 110.332553 283.46904 
L 112.423419 283.46904 
L 112.423419 281.820328 
L 112.771897 281.820328 
L 112.771897 281.490585 
L 113.120375 281.490585 
L 113.120375 281.160843 
L 113.468852 281.160843 
L 113.468852 279.841874 
L 113.81733 279.841874 
L 113.81733 275.884965 
L 114.165808 275.884965 
L 114.165808 275.22548 
L 115.211241 275.22548 
L 115.211241 273.906511 
L 115.559719 273.906511 
L 115.559719 273.576768 
L 115.908197 273.576768 
L 115.908197 272.917283 
L 116.256674 272.917283 
L 116.256674 271.928056 
L 116.605152 271.928056 
L 116.605152 271.268571 
L 117.999063 271.268571 
L 117.999063 270.938829 
L 118.347541 270.938829 
L 118.347541 270.609087 
L 119.044496 270.609087 
L 119.044496 269.949602 
L 119.741452 269.949602 
L 119.741452 268.30089 
L 120.438407 268.30089 
L 120.438407 267.311663 
L 121.483841 267.311663 
L 121.483841 266.322436 
L 122.529274 266.322436 
L 122.529274 265.662951 
L 122.877752 265.662951 
L 122.877752 265.333208 
L 123.22623 265.333208 
L 123.22623 265.003466 
L 123.574707 265.003466 
L 123.574707 264.014239 
L 123.923185 264.014239 
L 123.923185 263.025012 
L 124.968618 263.025012 
L 124.968618 262.035785 
L 125.317096 262.035785 
L 125.317096 261.3763 
L 126.014052 261.3763 
L 126.014052 260.716815 
L 126.711007 260.716815 
L 126.711007 260.387073 
L 127.059485 260.387073 
L 127.059485 260.05733 
L 127.407963 260.05733 
L 127.407963 259.727588 
L 128.104918 259.727588 
L 128.104918 259.068103 
L 128.801874 259.068103 
L 128.801874 258.738361 
L 130.195785 258.738361 
L 130.195785 258.408618 
L 130.544262 258.408618 
L 130.544262 257.419391 
L 131.589696 257.419391 
L 131.589696 256.759906 
L 131.938173 256.759906 
L 131.938173 256.430164 
L 132.286651 256.430164 
L 132.286651 255.440937 
L 132.635129 255.440937 
L 132.635129 254.45171 
L 132.983607 254.45171 
L 132.983607 253.792225 
L 133.332084 253.792225 
L 133.332084 252.802998 
L 133.680562 252.802998 
L 133.680562 252.143513 
L 134.02904 252.143513 
L 134.02904 250.824543 
L 134.725995 250.824543 
L 134.725995 250.494801 
L 135.074473 250.494801 
L 135.074473 249.175831 
L 136.468384 249.175831 
L 136.468384 248.516347 
L 137.513817 248.516347 
L 137.513817 248.186604 
L 137.862295 248.186604 
L 137.862295 247.527119 
L 138.559251 247.527119 
L 138.559251 247.197377 
L 139.256206 247.197377 
L 139.256206 246.537892 
L 139.604684 246.537892 
L 139.604684 245.878407 
L 140.650117 245.878407 
L 140.650117 244.88918 
L 140.998595 244.88918 
L 140.998595 243.240468 
L 141.347073 243.240468 
L 141.347073 242.580984 
L 141.69555 242.580984 
L 141.69555 241.921499 
L 142.392506 241.921499 
L 142.392506 241.591756 
L 142.740984 241.591756 
L 142.740984 241.262014 
L 143.437939 241.262014 
L 143.437939 239.943044 
L 144.134895 239.943044 
L 144.134895 238.953817 
L 144.483372 238.953817 
L 144.483372 238.294333 
L 145.180328 238.294333 
L 145.180328 237.634848 
L 146.225761 237.634848 
L 146.225761 237.305105 
L 146.574239 237.305105 
L 146.574239 235.986136 
L 147.271194 235.986136 
L 147.271194 234.337424 
L 147.619672 234.337424 
L 147.619672 233.348197 
L 148.316628 233.348197 
L 148.316628 233.018454 
L 148.665105 233.018454 
L 148.665105 232.029227 
L 149.362061 232.029227 
L 149.362061 231.699485 
L 150.755972 231.699485 
L 150.755972 230.710258 
L 151.801405 230.710258 
L 151.801405 230.050773 
L 152.149883 230.050773 
L 152.149883 229.061546 
L 153.195316 229.061546 
L 153.195316 228.731803 
L 154.589227 228.731803 
L 154.589227 228.072319 
L 154.937705 228.072319 
L 154.937705 227.412834 
L 155.63466 227.412834 
L 155.63466 227.083091 
L 156.331616 227.083091 
L 156.331616 225.104637 
L 156.680094 225.104637 
L 156.680094 224.11541 
L 157.028571 224.11541 
L 157.028571 223.785667 
L 157.377049 223.785667 
L 157.377049 223.126183 
L 157.725527 223.126183 
L 157.725527 222.79644 
L 158.074005 222.79644 
L 158.074005 221.477471 
L 158.422482 221.477471 
L 158.422482 221.147728 
L 158.77096 221.147728 
L 158.77096 220.488244 
L 160.513349 220.488244 
L 160.513349 220.158501 
L 160.861827 220.158501 
L 160.861827 218.839532 
L 161.210304 218.839532 
L 161.210304 218.180047 
L 161.558782 218.180047 
L 161.558782 217.850304 
L 161.90726 217.850304 
L 161.90726 217.19082 
L 162.255738 217.19082 
L 162.255738 216.861077 
L 162.604215 216.861077 
L 162.604215 216.531335 
L 162.952693 216.531335 
L 162.952693 216.201593 
L 163.301171 216.201593 
L 163.301171 215.542108 
L 163.998126 215.542108 
L 163.998126 215.212365 
L 164.695082 215.212365 
L 164.695082 214.223138 
L 165.04356 214.223138 
L 165.04356 213.893396 
L 165.392037 213.893396 
L 165.392037 213.563653 
L 167.482904 213.563653 
L 167.482904 213.233911 
L 168.179859 213.233911 
L 168.179859 212.904169 
L 169.225293 212.904169 
L 169.225293 212.574426 
L 169.922248 212.574426 
L 169.922248 210.925714 
L 170.619204 210.925714 
L 170.619204 210.595972 
L 172.013115 210.595972 
L 172.013115 208.617518 
L 173.058548 208.617518 
L 173.058548 208.287775 
L 173.407026 208.287775 
L 173.407026 207.958033 
L 176.194848 207.958033 
L 176.194848 205.979578 
L 176.891803 205.979578 
L 176.891803 205.649836 
L 177.937237 205.649836 
L 177.937237 204.990351 
L 179.679625 204.990351 
L 179.679625 204.330867 
L 180.725059 204.330867 
L 180.725059 204.001124 
L 181.073536 204.001124 
L 181.073536 203.671382 
L 181.422014 203.671382 
L 181.422014 202.682155 
L 181.770492 202.682155 
L 181.770492 200.7037 
L 182.11897 200.7037 
L 182.11897 200.373958 
L 182.467447 200.373958 
L 182.467447 200.044215 
L 183.164403 200.044215 
L 183.164403 199.054988 
L 183.512881 199.054988 
L 183.512881 198.395504 
L 184.209836 198.395504 
L 184.209836 198.065761 
L 184.906792 198.065761 
L 184.906792 197.736019 
L 185.603747 197.736019 
L 185.603747 194.438595 
L 185.952225 194.438595 
L 185.952225 194.108852 
L 186.997658 194.108852 
L 186.997658 193.119625 
L 187.346136 193.119625 
L 187.346136 192.460141 
L 187.694614 192.460141 
L 187.694614 192.130398 
L 188.391569 192.130398 
L 188.391569 191.470913 
L 189.437002 191.470913 
L 189.437002 191.141171 
L 192.224824 191.141171 
L 192.224824 190.811429 
L 193.270258 190.811429 
L 193.270258 190.481686 
L 193.618735 190.481686 
L 193.618735 190.151944 
L 194.315691 190.151944 
L 194.315691 189.822201 
L 194.664169 189.822201 
L 194.664169 188.503232 
L 195.709602 188.503232 
L 195.709602 188.173489 
L 196.05808 188.173489 
L 196.05808 187.843747 
L 197.103513 187.843747 
L 197.103513 187.184262 
L 197.451991 187.184262 
L 197.451991 186.85452 
L 198.148946 186.85452 
L 198.148946 186.195035 
L 198.497424 186.195035 
L 198.497424 183.886838 
L 199.194379 183.886838 
L 199.194379 183.557096 
L 200.58829 183.557096 
L 200.58829 183.227354 
L 201.982201 183.227354 
L 201.982201 182.567869 
L 203.376112 182.567869 
L 203.376112 182.238126 
L 204.421546 182.238126 
L 204.421546 181.908384 
L 204.770023 181.908384 
L 204.770023 181.578642 
L 206.163934 181.578642 
L 206.163934 181.248899 
L 206.86089 181.248899 
L 206.86089 180.919157 
L 207.557845 180.919157 
L 207.557845 180.589415 
L 208.951756 180.589415 
L 208.951756 180.259672 
L 210.345667 180.259672 
L 210.345667 179.600187 
L 210.694145 179.600187 
L 210.694145 178.940703 
L 211.739578 178.940703 
L 211.739578 178.281218 
L 214.5274 178.281218 
L 214.5274 177.951475 
L 214.875878 177.951475 
L 214.875878 177.621733 
L 215.224356 177.621733 
L 215.224356 177.291991 
L 215.921311 177.291991 
L 215.921311 176.632506 
L 216.618267 176.632506 
L 216.618267 175.643279 
L 218.709133 175.643279 
L 218.709133 175.313536 
L 219.057611 175.313536 
L 219.057611 173.664824 
L 220.8 173.664824 
L 220.8 173.00534 
L 222.542389 173.00534 
L 222.542389 172.016112 
L 223.587822 172.016112 
L 223.587822 171.026885 
L 224.633255 171.026885 
L 224.633255 169.707916 
L 224.981733 169.707916 
L 224.981733 169.048431 
L 225.330211 169.048431 
L 225.330211 168.718689 
L 226.027166 168.718689 
L 226.027166 168.388946 
L 226.375644 168.388946 
L 226.375644 168.059204 
L 227.0726 168.059204 
L 227.0726 167.069977 
L 227.421077 167.069977 
L 227.421077 166.740234 
L 228.814988 166.740234 
L 228.814988 165.751007 
L 229.860422 165.751007 
L 229.860422 165.421265 
L 230.208899 165.421265 
L 230.208899 164.76178 
L 230.557377 164.76178 
L 230.557377 164.102295 
L 232.996721 164.102295 
L 232.996721 163.772553 
L 233.345199 163.772553 
L 233.345199 163.44281 
L 233.693677 163.44281 
L 233.693677 163.113068 
L 234.042155 163.113068 
L 234.042155 162.453583 
L 235.087588 162.453583 
L 235.087588 161.794098 
L 236.481499 161.794098 
L 236.481499 161.464356 
L 237.526932 161.464356 
L 237.526932 161.134614 
L 237.87541 161.134614 
L 237.87541 160.804871 
L 238.223888 160.804871 
L 238.223888 160.475129 
L 238.920843 160.475129 
L 238.920843 160.145386 
L 239.966276 160.145386 
L 239.966276 159.815644 
L 240.314754 159.815644 
L 240.314754 158.826417 
L 240.663232 158.826417 
L 240.663232 158.166932 
L 241.01171 158.166932 
L 241.01171 157.83719 
L 241.708665 157.83719 
L 241.708665 157.177705 
L 242.057143 157.177705 
L 242.057143 156.51822 
L 243.102576 156.51822 
L 243.102576 156.188478 
L 243.799532 156.188478 
L 243.799532 155.528993 
L 244.844965 155.528993 
L 244.844965 155.199251 
L 245.193443 155.199251 
L 245.193443 154.869508 
L 246.238876 154.869508 
L 246.238876 154.539766 
L 246.587354 154.539766 
L 246.587354 153.550539 
L 249.026698 153.550539 
L 249.026698 151.901827 
L 249.375176 151.901827 
L 249.375176 151.572084 
L 249.723653 151.572084 
L 249.723653 151.242342 
L 250.072131 151.242342 
L 250.072131 150.9126 
L 251.117564 150.9126 
L 251.117564 150.582857 
L 251.466042 150.582857 
L 251.466042 150.253115 
L 251.81452 150.253115 
L 251.81452 149.923372 
L 252.162998 149.923372 
L 252.162998 149.59363 
L 252.511475 149.59363 
L 252.511475 149.263888 
L 253.208431 149.263888 
L 253.208431 148.934145 
L 253.556909 148.934145 
L 253.556909 148.604403 
L 254.253864 148.604403 
L 254.253864 147.615176 
L 255.996253 147.615176 
L 255.996253 146.955691 
L 256.344731 146.955691 
L 256.344731 146.625948 
L 256.693208 146.625948 
L 256.693208 145.306979 
L 258.435597 145.306979 
L 258.435597 144.977237 
L 258.784075 144.977237 
L 258.784075 143.988009 
L 259.132553 143.988009 
L 259.132553 143.328525 
L 259.829508 143.328525 
L 259.829508 142.998782 
L 260.177986 142.998782 
L 260.177986 142.339297 
L 260.526464 142.339297 
L 260.526464 141.679813 
L 262.61733 141.679813 
L 262.61733 141.020328 
L 262.965808 141.020328 
L 262.965808 140.690585 
L 264.011241 140.690585 
L 264.011241 140.031101 
L 264.359719 140.031101 
L 264.359719 139.701358 
L 264.708197 139.701358 
L 264.708197 139.371616 
L 265.056674 139.371616 
L 265.056674 139.041874 
L 265.405152 139.041874 
L 265.405152 138.712131 
L 265.75363 138.712131 
L 265.75363 137.722904 
L 266.102108 137.722904 
L 266.102108 137.063419 
L 268.192974 137.063419 
L 268.192974 135.74445 
L 268.88993 135.74445 
L 268.88993 135.414707 
L 269.935363 135.414707 
L 269.935363 135.084965 
L 270.283841 135.084965 
L 270.283841 134.755222 
L 270.980796 134.755222 
L 270.980796 134.095738 
L 271.329274 134.095738 
L 271.329274 133.765995 
L 273.071663 133.765995 
L 273.071663 133.106511 
L 273.420141 133.106511 
L 273.420141 132.776768 
L 274.117096 132.776768 
L 274.117096 132.117283 
L 274.814052 132.117283 
L 274.814052 131.787541 
L 275.162529 131.787541 
L 275.162529 131.128056 
L 276.55644 131.128056 
L 276.55644 130.798314 
L 277.601874 130.798314 
L 277.601874 130.468571 
L 277.950351 130.468571 
L 277.950351 130.138829 
L 278.298829 130.138829 
L 278.298829 129.809087 
L 278.647307 129.809087 
L 278.647307 129.479344 
L 278.995785 129.479344 
L 278.995785 129.149602 
L 281.783607 129.149602 
L 281.783607 128.819859 
L 282.82904 128.819859 
L 282.82904 127.830632 
L 283.177518 127.830632 
L 283.177518 127.50089 
L 284.222951 127.50089 
L 284.222951 127.171148 
L 285.268384 127.171148 
L 285.268384 126.841405 
L 286.313817 126.841405 
L 286.313817 126.18192 
L 286.662295 126.18192 
L 286.662295 125.852178 
L 287.010773 125.852178 
L 287.010773 125.522436 
L 287.707728 125.522436 
L 287.707728 125.192693 
L 288.404684 125.192693 
L 288.404684 124.533208 
L 292.586417 124.533208 
L 292.586417 124.203466 
L 294.677283 124.203466 
L 294.677283 123.543981 
L 295.025761 123.543981 
L 295.025761 123.214239 
L 297.465105 123.214239 
L 297.465105 122.884496 
L 299.90445 122.884496 
L 299.90445 122.554754 
L 300.949883 122.554754 
L 300.949883 122.225012 
L 301.646838 122.225012 
L 301.646838 121.895269 
L 301.995316 121.895269 
L 301.995316 121.565527 
L 304.783138 121.565527 
L 304.783138 121.235785 
L 305.131616 121.235785 
L 305.131616 120.906042 
L 308.964871 120.906042 
L 308.964871 119.916815 
L 309.313349 119.916815 
L 309.313349 119.25733 
L 312.798126 119.25733 
L 312.798126 118.927588 
L 313.84356 118.927588 
L 313.84356 118.597845 
L 314.540515 118.597845 
L 314.540515 117.938361 
L 314.888993 117.938361 
L 314.888993 117.278876 
L 318.722248 117.278876 
L 318.722248 116.949133 
L 320.464637 116.949133 
L 320.464637 116.619391 
L 320.813115 116.619391 
L 320.813115 115.959906 
L 321.51007 115.959906 
L 321.51007 115.300422 
L 323.600937 115.300422 
L 323.600937 114.970679 
L 324.297892 114.970679 
L 324.297892 114.640937 
L 325.691803 114.640937 
L 325.691803 113.981452 
L 326.737237 113.981452 
L 326.737237 113.65171 
L 327.085714 113.65171 
L 327.085714 113.321967 
L 327.78267 113.321967 
L 327.78267 112.992225 
L 328.131148 112.992225 
L 328.131148 112.662482 
L 331.615925 112.662482 
L 331.615925 112.33274 
L 331.964403 112.33274 
L 331.964403 112.002998 
L 333.009836 112.002998 
L 333.009836 111.673255 
L 334.752225 111.673255 
L 334.752225 111.343513 
L 336.146136 111.343513 
L 336.146136 111.01377 
L 336.843091 111.01377 
L 336.843091 110.684028 
L 337.191569 110.684028 
L 337.191569 110.354286 
L 340.676347 110.354286 
L 340.676347 110.024543 
L 341.024824 110.024543 
L 341.024824 109.694801 
L 342.070258 109.694801 
L 342.070258 109.365059 
L 344.85808 109.365059 
L 344.85808 109.035316 
L 345.555035 109.035316 
L 345.555035 108.705574 
L 345.903513 108.705574 
L 345.903513 108.375831 
L 346.251991 108.375831 
L 346.251991 107.386604 
L 349.38829 107.386604 
L 349.38829 107.056862 
L 351.827635 107.056862 
L 351.827635 106.727119 
L 352.52459 106.727119 
L 352.52459 106.397377 
L 352.873068 106.397377 
L 352.873068 106.067635 
L 354.615457 106.067635 
L 354.615457 105.40815 
L 354.963934 105.40815 
L 354.963934 105.078407 
L 355.66089 105.078407 
L 355.66089 104.748665 
L 364.024356 104.748665 
L 364.024356 104.418923 
L 365.418267 104.418923 
L 365.418267 104.08918 
L 370.296956 104.08918 
L 370.296956 103.759438 
L 376.918033 103.759438 
L 376.918033 103.429696 
L 377.963466 103.429696 
L 377.963466 103.099953 
L 378.660422 103.099953 
L 378.660422 102.770211 
L 380.40281 102.770211 
L 380.40281 102.440468 
L 385.281499 102.440468 
L 385.281499 102.110726 
L 386.67541 102.110726 
L 386.67541 101.780984 
L 387.372365 101.780984 
L 387.372365 101.451241 
L 388.417799 101.451241 
L 388.417799 100.791756 
L 391.902576 100.791756 
L 391.902576 100.462014 
L 392.948009 100.462014 
L 392.948009 100.132272 
L 394.34192 100.132272 
L 394.34192 99.802529 
L 397.47822 99.802529 
L 397.47822 99.472787 
L 400.962998 99.472787 
L 400.962998 99.143044 
L 401.659953 99.143044 
L 401.659953 98.813302 
L 403.75082 98.813302 
L 403.75082 98.153817 
L 404.447775 98.153817 
L 404.447775 97.824075 
L 406.190164 97.824075 
L 406.190164 97.494333 
L 408.28103 97.494333 
L 408.28103 97.16459 
L 410.720375 97.16459 
L 410.720375 96.834848 
L 411.765808 96.834848 
L 411.765808 96.505105 
L 412.114286 96.505105 
L 412.114286 96.175363 
L 413.508197 96.175363 
L 413.508197 95.845621 
L 415.599063 95.845621 
L 415.599063 95.515878 
L 416.296019 95.515878 
L 416.296019 95.186136 
L 416.992974 95.186136 
L 416.992974 94.856393 
L 417.341452 94.856393 
L 417.341452 94.526651 
L 422.917096 94.526651 
L 422.917096 94.196909 
L 423.614052 94.196909 
L 423.614052 93.537424 
L 424.659485 93.537424 
L 424.659485 93.207681 
L 430.932084 93.207681 
L 430.932084 92.877939 
L 436.507728 92.877939 
L 436.507728 92.548197 
L 439.992506 92.548197 
L 439.992506 92.218454 
L 441.037939 92.218454 
L 441.037939 91.888712 
L 456.719438 91.888712 
L 456.719438 91.55897 
L 463.340515 91.55897 
L 463.340515 91.229227 
L 466.128337 91.229227 
L 466.128337 90.899485 
L 475.537237 90.899485 
L 475.537237 90.569742 
L 478.673536 90.569742 
L 478.673536 90.24 
L 518.4 90.24 
L 518.4 90.24 
" style="fill:none;stroke:#ff8c00;stroke-linecap:square;stroke-width:2;"/>
   </g>
   <g id="line2d_26">
    <path clip-path="url(#pa8010ab898)" d="M 72 512.64 
L 518.4 90.24 
" style="fill:none;stroke:#000080;stroke-dasharray:7.4,3.2;stroke-dashoffset:0;stroke-width:2;"/>
   </g>
   <g id="patch_3">
    <path d="M 72 512.64 
L 72 69.12 
" style="fill:none;stroke:#000000;stroke-linecap:square;stroke-linejoin:miter;stroke-width:0.8;"/>
   </g>
   <g id="patch_4">
    <path d="M 518.4 512.64 
L 518.4 69.12 
" style="fill:none;stroke:#000000;stroke-linecap:square;stroke-linejoin:miter;stroke-width:0.8;"/>
   </g>
   <g id="patch_5">
    <path d="M 72 512.64 
L 518.4 512.64 
" style="fill:none;stroke:#000000;stroke-linecap:square;stroke-linejoin:miter;stroke-width:0.8;"/>
   </g>
   <g id="patch_6">
    <path d="M 72 69.12 
L 518.4 69.12 
" style="fill:none;stroke:#000000;stroke-linecap:square;stroke-linejoin:miter;stroke-width:0.8;"/>
   </g>
   <g id="legend_1">
    <g id="patch_7">
     <path d="M 427.081875 509.64 
L 514.2 509.64 
Q 515.4 509.64 515.4 508.44 
L 515.4 500.233125 
Q 515.4 499.033125 514.2 499.033125 
L 427.081875 499.033125 
Q 425.881875 499.033125 425.881875 500.233125 
L 425.881875 508.44 
Q 425.881875 509.64 427.081875 509.64 
z
" style="fill:#ffffff;opacity:0.8;stroke:#cccccc;stroke-linejoin:miter;"/>
    </g>
    <g id="line2d_27">
     <path d="M 428.281875 503.892187 
L 440.281875 503.892187 
" style="fill:none;stroke:#ff8c00;stroke-linecap:square;stroke-width:2;"/>
    </g>
    <g id="line2d_28"/>
    <g id="text_15">
     <!-- D043183 (area =0.84) -->
     <defs>
      <path d="M 19.671875 64.796875 
L 19.671875 8.109375 
L 31.59375 8.109375 
Q 46.6875 8.109375 53.6875 14.9375 
Q 60.6875 21.78125 60.6875 36.53125 
Q 60.6875 51.171875 53.6875 57.984375 
Q 46.6875 64.796875 31.59375 64.796875 
z
M 9.8125 72.90625 
L 30.078125 72.90625 
Q 51.265625 72.90625 61.171875 64.09375 
Q 71.09375 55.28125 71.09375 36.53125 
Q 71.09375 17.671875 61.125 8.828125 
Q 51.171875 0 30.078125 0 
L 9.8125 0 
z
" id="DejaVuSans-68"/>
      <path d="M 40.578125 39.3125 
Q 47.65625 37.796875 51.625 33 
Q 55.609375 28.21875 55.609375 21.1875 
Q 55.609375 10.40625 48.1875 4.484375 
Q 40.765625 -1.421875 27.09375 -1.421875 
Q 22.515625 -1.421875 17.65625 -0.515625 
Q 12.796875 0.390625 7.625 2.203125 
L 7.625 11.71875 
Q 11.71875 9.328125 16.59375 8.109375 
Q 21.484375 6.890625 26.8125 6.890625 
Q 36.078125 6.890625 40.9375 10.546875 
Q 45.796875 14.203125 45.796875 21.1875 
Q 45.796875 27.640625 41.28125 31.265625 
Q 36.765625 34.90625 28.71875 34.90625 
L 20.21875 34.90625 
L 20.21875 43.015625 
L 29.109375 43.015625 
Q 36.375 43.015625 40.234375 45.921875 
Q 44.09375 48.828125 44.09375 54.296875 
Q 44.09375 59.90625 40.109375 62.90625 
Q 36.140625 65.921875 28.71875 65.921875 
Q 24.65625 65.921875 20.015625 65.03125 
Q 15.375 64.15625 9.8125 62.3125 
L 9.8125 71.09375 
Q 15.4375 72.65625 20.34375 73.4375 
Q 25.25 74.21875 29.59375 74.21875 
Q 40.828125 74.21875 47.359375 69.109375 
Q 53.90625 64.015625 53.90625 55.328125 
Q 53.90625 49.265625 50.4375 45.09375 
Q 46.96875 40.921875 40.578125 39.3125 
z
" id="DejaVuSans-51"/>
      <path d="M 31 75.875 
Q 24.46875 64.65625 21.28125 53.65625 
Q 18.109375 42.671875 18.109375 31.390625 
Q 18.109375 20.125 21.3125 9.0625 
Q 24.515625 -2 31 -13.1875 
L 23.1875 -13.1875 
Q 15.875 -1.703125 12.234375 9.375 
Q 8.59375 20.453125 8.59375 31.390625 
Q 8.59375 42.28125 12.203125 53.3125 
Q 15.828125 64.359375 23.1875 75.875 
z
" id="DejaVuSans-40"/>
      <path d="M 10.59375 45.40625 
L 73.1875 45.40625 
L 73.1875 37.203125 
L 10.59375 37.203125 
z
M 10.59375 25.484375 
L 73.1875 25.484375 
L 73.1875 17.1875 
L 10.59375 17.1875 
z
" id="DejaVuSans-61"/>
      <path d="M 8.015625 75.875 
L 15.828125 75.875 
Q 23.140625 64.359375 26.78125 53.3125 
Q 30.421875 42.28125 30.421875 31.390625 
Q 30.421875 20.453125 26.78125 9.375 
Q 23.140625 -1.703125 15.828125 -13.1875 
L 8.015625 -13.1875 
Q 14.5 -2 17.703125 9.0625 
Q 20.90625 20.125 20.90625 31.390625 
Q 20.90625 42.671875 17.703125 53.65625 
Q 14.5 64.65625 8.015625 75.875 
z
" id="DejaVuSans-41"/>
     </defs>
     <g transform="translate(445.081875 505.992188)scale(0.06 -0.06)">
      <use xlink:href="#DejaVuSans-68"/>
      <use x="77.001953" xlink:href="#DejaVuSans-48"/>
      <use x="140.625" xlink:href="#DejaVuSans-52"/>
      <use x="204.248047" xlink:href="#DejaVuSans-51"/>
      <use x="267.871094" xlink:href="#DejaVuSans-49"/>
      <use x="331.494141" xlink:href="#DejaVuSans-56"/>
      <use x="395.117188" xlink:href="#DejaVuSans-51"/>
      <use x="458.740234" xlink:href="#DejaVuSans-32"/>
      <use x="490.527344" xlink:href="#DejaVuSans-40"/>
      <use x="529.541016" xlink:href="#DejaVuSans-97"/>
      <use x="590.820312" xlink:href="#DejaVuSans-114"/>
      <use x="631.902344" xlink:href="#DejaVuSans-101"/>
      <use x="693.425781" xlink:href="#DejaVuSans-97"/>
      <use x="754.705078" xlink:href="#DejaVuSans-32"/>
      <use x="786.492188" xlink:href="#DejaVuSans-61"/>
      <use x="870.28125" xlink:href="#DejaVuSans-48"/>
      <use x="933.904297" xlink:href="#DejaVuSans-46"/>
      <use x="965.691406" xlink:href="#DejaVuSans-56"/>
      <use x="1029.314453" xlink:href="#DejaVuSans-52"/>
      <use x="1092.9375" xlink:href="#DejaVuSans-41"/>
     </g>
    </g>
   </g>
  </g>
 </g>
 <defs>
  <clipPath id="pa8010ab898">
   <rect height="443.52" width="446.4" x="72" y="69.12"/>
  </clipPath>
 </defs>
</svg>
