<?xml version="1.0" encoding="utf-8" standalone="no"?>
<!DOCTYPE svg PUBLIC "-//W3C//DTD SVG 1.1//EN"
  "http://www.w3.org/Graphics/SVG/1.1/DTD/svg11.dtd">
<!-- Created with matplotlib (https://matplotlib.org/) -->
<svg height="432pt" version="1.1" viewBox="0 0 720 432" width="720pt" xmlns="http://www.w3.org/2000/svg" xmlns:xlink="http://www.w3.org/1999/xlink">
 <defs>
  <style type="text/css">
*{stroke-linecap:butt;stroke-linejoin:round;}
  </style>
 </defs>
 <g id="figure_1">
  <g id="patch_1">
   <path d="M 0 432 
L 720 432 
L 720 0 
L 0 0 
z
" style="fill:#ffffff;"/>
  </g>
  <g id="axes_1">
   <g id="patch_2">
    <path d="M 90 384.48 
L 648 384.48 
L 648 51.84 
L 90 51.84 
z
" style="fill:#ffffff;"/>
   </g>
   <g id="PathCollection_1">
    <defs>
     <path d="M 0 3 
C 0.795609 3 1.55874 2.683901 2.12132 2.12132 
C 2.683901 1.55874 3 0.795609 3 0 
C 3 -0.795609 2.683901 -1.55874 2.12132 -2.12132 
C 1.55874 -2.683901 0.795609 -3 0 -3 
C -0.795609 -3 -1.55874 -2.683901 -2.12132 -2.12132 
C -2.683901 -1.55874 -3 -0.795609 -3 0 
C -3 0.795609 -2.683901 1.55874 -2.12132 2.12132 
C -1.55874 2.683901 -0.795609 3 0 3 
z
" id="m999f9505c5" style="stroke:#f8766d;"/>
    </defs>
    <g clip-path="url(#pd59269217a)">
     <use style="fill:#f8766d;stroke:#f8766d;" x="330.520364" xlink:href="#m999f9505c5" y="113.493149"/>
     <use style="fill:#f8766d;stroke:#f8766d;" x="232.390666" xlink:href="#m999f9505c5" y="162.409452"/>
     <use style="fill:#f8766d;stroke:#f8766d;" x="410.206618" xlink:href="#m999f9505c5" y="115.185305"/>
     <use style="fill:#f8766d;stroke:#f8766d;" x="392.113451" xlink:href="#m999f9505c5" y="343.059221"/>
     <use style="fill:#f8766d;stroke:#f8766d;" x="505.305421" xlink:href="#m999f9505c5" y="357.514394"/>
     <use style="fill:#f8766d;stroke:#f8766d;" x="377.784561" xlink:href="#m999f9505c5" y="146.593798"/>
     <use style="fill:#f8766d;stroke:#f8766d;" x="213.559744" xlink:href="#m999f9505c5" y="111.019441"/>
     <use style="fill:#f8766d;stroke:#f8766d;" x="181.91919" xlink:href="#m999f9505c5" y="155.477382"/>
     <use style="fill:#f8766d;stroke:#f8766d;" x="531.170963" xlink:href="#m999f9505c5" y="184.815419"/>
     <use style="fill:#f8766d;stroke:#f8766d;" x="346.764794" xlink:href="#m999f9505c5" y="98.996558"/>
     <use style="fill:#f8766d;stroke:#f8766d;" x="495.672838" xlink:href="#m999f9505c5" y="148.515727"/>
     <use style="fill:#f8766d;stroke:#f8766d;" x="494.831623" xlink:href="#m999f9505c5" y="363.698964"/>
     <use style="fill:#f8766d;stroke:#f8766d;" x="383.728062" xlink:href="#m999f9505c5" y="289.574667"/>
     <use style="fill:#f8766d;stroke:#f8766d;" x="433.205747" xlink:href="#m999f9505c5" y="316.311514"/>
     <use style="fill:#f8766d;stroke:#f8766d;" x="583.795127" xlink:href="#m999f9505c5" y="293.47903"/>
    </g>
   </g>
   <g id="PathCollection_2">
    <defs>
     <path d="M 0 3 
C 0.795609 3 1.55874 2.683901 2.12132 2.12132 
C 2.683901 1.55874 3 0.795609 3 0 
C 3 -0.795609 2.683901 -1.55874 2.12132 -2.12132 
C 1.55874 -2.683901 0.795609 -3 0 -3 
C -0.795609 -3 -1.55874 -2.683901 -2.12132 -2.12132 
C -2.683901 -1.55874 -3 -0.795609 -3 0 
C -3 0.795609 -2.683901 1.55874 -2.12132 2.12132 
C -1.55874 2.683901 -0.795609 3 0 3 
z
" id="ma5035105eb" style="stroke:#00bfc4;"/>
    </defs>
    <g clip-path="url(#pd59269217a)">
     <use style="fill:#00bfc4;stroke:#00bfc4;" x="351.509116" xlink:href="#ma5035105eb" y="152.910567"/>
     <use style="fill:#00bfc4;stroke:#00bfc4;" x="387.618362" xlink:href="#ma5035105eb" y="182.064207"/>
     <use style="fill:#00bfc4;stroke:#00bfc4;" x="295.13156" xlink:href="#ma5035105eb" y="160.761512"/>
     <use style="fill:#00bfc4;stroke:#00bfc4;" x="241.510877" xlink:href="#ma5035105eb" y="163.346736"/>
     <use style="fill:#00bfc4;stroke:#00bfc4;" x="291.727317" xlink:href="#ma5035105eb" y="170.813188"/>
     <use style="fill:#00bfc4;stroke:#00bfc4;" x="363.592661" xlink:href="#ma5035105eb" y="178.89245"/>
     <use style="fill:#00bfc4;stroke:#00bfc4;" x="281.567471" xlink:href="#ma5035105eb" y="119.041086"/>
     <use style="fill:#00bfc4;stroke:#00bfc4;" x="281.520744" xlink:href="#ma5035105eb" y="164.354523"/>
     <use style="fill:#00bfc4;stroke:#00bfc4;" x="399.459794" xlink:href="#ma5035105eb" y="114.906068"/>
     <use style="fill:#00bfc4;stroke:#00bfc4;" x="281.383809" xlink:href="#ma5035105eb" y="164.332638"/>
     <use style="fill:#00bfc4;stroke:#00bfc4;" x="249.731908" xlink:href="#ma5035105eb" y="176.524386"/>
     <use style="fill:#00bfc4;stroke:#00bfc4;" x="299.771221" xlink:href="#ma5035105eb" y="164.740147"/>
     <use style="fill:#00bfc4;stroke:#00bfc4;" x="281.404921" xlink:href="#ma5035105eb" y="164.352812"/>
     <use style="fill:#00bfc4;stroke:#00bfc4;" x="267.527509" xlink:href="#ma5035105eb" y="197.815001"/>
     <use style="fill:#00bfc4;stroke:#00bfc4;" x="315.392698" xlink:href="#ma5035105eb" y="156.129072"/>
     <use style="fill:#00bfc4;stroke:#00bfc4;" x="333.216807" xlink:href="#ma5035105eb" y="153.239662"/>
     <use style="fill:#00bfc4;stroke:#00bfc4;" x="413.129494" xlink:href="#ma5035105eb" y="116.687224"/>
     <use style="fill:#00bfc4;stroke:#00bfc4;" x="360.211266" xlink:href="#ma5035105eb" y="127.295646"/>
     <use style="fill:#00bfc4;stroke:#00bfc4;" x="392.449823" xlink:href="#ma5035105eb" y="167.004318"/>
     <use style="fill:#00bfc4;stroke:#00bfc4;" x="498.104474" xlink:href="#ma5035105eb" y="191.598953"/>
     <use style="fill:#00bfc4;stroke:#00bfc4;" x="259.000319" xlink:href="#ma5035105eb" y="302.961809"/>
     <use style="fill:#00bfc4;stroke:#00bfc4;" x="236.060596" xlink:href="#ma5035105eb" y="122.774565"/>
     <use style="fill:#00bfc4;stroke:#00bfc4;" x="482.947786" xlink:href="#ma5035105eb" y="193.706681"/>
     <use style="fill:#00bfc4;stroke:#00bfc4;" x="232.995699" xlink:href="#ma5035105eb" y="84.226504"/>
     <use style="fill:#00bfc4;stroke:#00bfc4;" x="448.713856" xlink:href="#ma5035105eb" y="302.223216"/>
     <use style="fill:#00bfc4;stroke:#00bfc4;" x="416.470057" xlink:href="#ma5035105eb" y="323.660219"/>
     <use style="fill:#00bfc4;stroke:#00bfc4;" x="496.012026" xlink:href="#ma5035105eb" y="180.921318"/>
     <use style="fill:#00bfc4;stroke:#00bfc4;" x="323.66036" xlink:href="#ma5035105eb" y="348.522084"/>
     <use style="fill:#00bfc4;stroke:#00bfc4;" x="572.579208" xlink:href="#ma5035105eb" y="282.805024"/>
     <use style="fill:#00bfc4;stroke:#00bfc4;" x="620.73375" xlink:href="#ma5035105eb" y="235.690098"/>
     <use style="fill:#00bfc4;stroke:#00bfc4;" x="444.255614" xlink:href="#ma5035105eb" y="348.41219"/>
     <use style="fill:#00bfc4;stroke:#00bfc4;" x="246.685268" xlink:href="#ma5035105eb" y="317.621695"/>
     <use style="fill:#00bfc4;stroke:#00bfc4;" x="471.823078" xlink:href="#ma5035105eb" y="193.058615"/>
     <use style="fill:#00bfc4;stroke:#00bfc4;" x="204.762122" xlink:href="#ma5035105eb" y="169.776906"/>
     <use style="fill:#00bfc4;stroke:#00bfc4;" x="219.65504" xlink:href="#ma5035105eb" y="145.31152"/>
     <use style="fill:#00bfc4;stroke:#00bfc4;" x="256.898733" xlink:href="#ma5035105eb" y="303.060669"/>
     <use style="fill:#00bfc4;stroke:#00bfc4;" x="559.873939" xlink:href="#ma5035105eb" y="327.467644"/>
     <use style="fill:#00bfc4;stroke:#00bfc4;" x="287.956498" xlink:href="#ma5035105eb" y="239.256586"/>
     <use style="fill:#00bfc4;stroke:#00bfc4;" x="249.583212" xlink:href="#ma5035105eb" y="190.022027"/>
     <use style="fill:#00bfc4;stroke:#00bfc4;" x="214.934686" xlink:href="#ma5035105eb" y="226.5091"/>
     <use style="fill:#00bfc4;stroke:#00bfc4;" x="456.559785" xlink:href="#ma5035105eb" y="207.350511"/>
     <use style="fill:#00bfc4;stroke:#00bfc4;" x="397.240333" xlink:href="#ma5035105eb" y="199.779627"/>
     <use style="fill:#00bfc4;stroke:#00bfc4;" x="140.452474" xlink:href="#ma5035105eb" y="213.782472"/>
     <use style="fill:#00bfc4;stroke:#00bfc4;" x="209.6613" xlink:href="#ma5035105eb" y="225.057055"/>
     <use style="fill:#00bfc4;stroke:#00bfc4;" x="206.12336" xlink:href="#ma5035105eb" y="323.937151"/>
     <use style="fill:#00bfc4;stroke:#00bfc4;" x="325.762085" xlink:href="#ma5035105eb" y="320.070413"/>
     <use style="fill:#00bfc4;stroke:#00bfc4;" x="387.454103" xlink:href="#ma5035105eb" y="307.932185"/>
     <use style="fill:#00bfc4;stroke:#00bfc4;" x="320.959562" xlink:href="#ma5035105eb" y="348.401919"/>
     <use style="fill:#00bfc4;stroke:#00bfc4;" x="490.320051" xlink:href="#ma5035105eb" y="117.103771"/>
     <use style="fill:#00bfc4;stroke:#00bfc4;" x="117.075784" xlink:href="#ma5035105eb" y="189.436217"/>
     <use style="fill:#00bfc4;stroke:#00bfc4;" x="401.635269" xlink:href="#ma5035105eb" y="151.112972"/>
     <use style="fill:#00bfc4;stroke:#00bfc4;" x="375.838021" xlink:href="#ma5035105eb" y="230.328784"/>
     <use style="fill:#00bfc4;stroke:#00bfc4;" x="511.010044" xlink:href="#ma5035105eb" y="236.651252"/>
     <use style="fill:#00bfc4;stroke:#00bfc4;" x="396.500793" xlink:href="#ma5035105eb" y="177.351866"/>
     <use style="fill:#00bfc4;stroke:#00bfc4;" x="246.464136" xlink:href="#ma5035105eb" y="150.28627"/>
     <use style="fill:#00bfc4;stroke:#00bfc4;" x="286.526022" xlink:href="#ma5035105eb" y="189.824944"/>
     <use style="fill:#00bfc4;stroke:#00bfc4;" x="323.19658" xlink:href="#ma5035105eb" y="208.363864"/>
     <use style="fill:#00bfc4;stroke:#00bfc4;" x="269.628501" xlink:href="#ma5035105eb" y="179.95411"/>
     <use style="fill:#00bfc4;stroke:#00bfc4;" x="334.665956" xlink:href="#ma5035105eb" y="214.140313"/>
     <use style="fill:#00bfc4;stroke:#00bfc4;" x="434.334825" xlink:href="#ma5035105eb" y="173.494882"/>
     <use style="fill:#00bfc4;stroke:#00bfc4;" x="449.536291" xlink:href="#ma5035105eb" y="333.603278"/>
     <use style="fill:#00bfc4;stroke:#00bfc4;" x="365.278119" xlink:href="#ma5035105eb" y="252.716763"/>
     <use style="fill:#00bfc4;stroke:#00bfc4;" x="542.082952" xlink:href="#ma5035105eb" y="222.886567"/>
     <use style="fill:#00bfc4;stroke:#00bfc4;" x="450.736851" xlink:href="#ma5035105eb" y="274.164985"/>
     <use style="fill:#00bfc4;stroke:#00bfc4;" x="230.526766" xlink:href="#ma5035105eb" y="282.826342"/>
     <use style="fill:#00bfc4;stroke:#00bfc4;" x="489.207942" xlink:href="#ma5035105eb" y="327.313272"/>
     <use style="fill:#00bfc4;stroke:#00bfc4;" x="304.516808" xlink:href="#ma5035105eb" y="196.243247"/>
     <use style="fill:#00bfc4;stroke:#00bfc4;" x="193.423216" xlink:href="#ma5035105eb" y="221.608691"/>
     <use style="fill:#00bfc4;stroke:#00bfc4;" x="545.650822" xlink:href="#ma5035105eb" y="270.027699"/>
     <use style="fill:#00bfc4;stroke:#00bfc4;" x="366.085465" xlink:href="#ma5035105eb" y="362.86907"/>
     <use style="fill:#00bfc4;stroke:#00bfc4;" x="223.785491" xlink:href="#ma5035105eb" y="289.730268"/>
     <use style="fill:#00bfc4;stroke:#00bfc4;" x="278.040768" xlink:href="#ma5035105eb" y="317.356205"/>
     <use style="fill:#00bfc4;stroke:#00bfc4;" x="226.350504" xlink:href="#ma5035105eb" y="201.958498"/>
     <use style="fill:#00bfc4;stroke:#00bfc4;" x="283.830155" xlink:href="#ma5035105eb" y="74.535295"/>
     <use style="fill:#00bfc4;stroke:#00bfc4;" x="620.924216" xlink:href="#ma5035105eb" y="234.73471"/>
     <use style="fill:#00bfc4;stroke:#00bfc4;" x="309.157234" xlink:href="#ma5035105eb" y="251.421181"/>
     <use style="fill:#00bfc4;stroke:#00bfc4;" x="168.555439" xlink:href="#ma5035105eb" y="105.557935"/>
     <use style="fill:#00bfc4;stroke:#00bfc4;" x="210.242347" xlink:href="#ma5035105eb" y="134.571598"/>
     <use style="fill:#00bfc4;stroke:#00bfc4;" x="465.674429" xlink:href="#ma5035105eb" y="251.415868"/>
     <use style="fill:#00bfc4;stroke:#00bfc4;" x="426.956969" xlink:href="#ma5035105eb" y="224.390666"/>
     <use style="fill:#00bfc4;stroke:#00bfc4;" x="344.290282" xlink:href="#ma5035105eb" y="221.847226"/>
     <use style="fill:#00bfc4;stroke:#00bfc4;" x="332.885593" xlink:href="#ma5035105eb" y="68.852283"/>
     <use style="fill:#00bfc4;stroke:#00bfc4;" x="373.110006" xlink:href="#ma5035105eb" y="305.440345"/>
     <use style="fill:#00bfc4;stroke:#00bfc4;" x="389.722313" xlink:href="#ma5035105eb" y="280.275246"/>
     <use style="fill:#00bfc4;stroke:#00bfc4;" x="120.954875" xlink:href="#ma5035105eb" y="174.232438"/>
     <use style="fill:#00bfc4;stroke:#00bfc4;" x="418.808714" xlink:href="#ma5035105eb" y="223.87622"/>
     <use style="fill:#00bfc4;stroke:#00bfc4;" x="136.66788" xlink:href="#ma5035105eb" y="157.034745"/>
     <use style="fill:#00bfc4;stroke:#00bfc4;" x="406.364416" xlink:href="#ma5035105eb" y="291.189305"/>
     <use style="fill:#00bfc4;stroke:#00bfc4;" x="481.626219" xlink:href="#ma5035105eb" y="282.727017"/>
     <use style="fill:#00bfc4;stroke:#00bfc4;" x="198.418905" xlink:href="#ma5035105eb" y="190.320606"/>
     <use style="fill:#00bfc4;stroke:#00bfc4;" x="287.875861" xlink:href="#ma5035105eb" y="352.482372"/>
     <use style="fill:#00bfc4;stroke:#00bfc4;" x="562.886423" xlink:href="#ma5035105eb" y="274.872184"/>
     <use style="fill:#00bfc4;stroke:#00bfc4;" x="343.122728" xlink:href="#ma5035105eb" y="223.241306"/>
     <use style="fill:#00bfc4;stroke:#00bfc4;" x="606.85867" xlink:href="#ma5035105eb" y="304.721981"/>
     <use style="fill:#00bfc4;stroke:#00bfc4;" x="378.273065" xlink:href="#ma5035105eb" y="223.414441"/>
     <use style="fill:#00bfc4;stroke:#00bfc4;" x="389.255337" xlink:href="#ma5035105eb" y="337.747311"/>
     <use style="fill:#00bfc4;stroke:#00bfc4;" x="480.051007" xlink:href="#ma5035105eb" y="241.215011"/>
     <use style="fill:#00bfc4;stroke:#00bfc4;" x="229.30627" xlink:href="#ma5035105eb" y="251.751568"/>
     <use style="fill:#00bfc4;stroke:#00bfc4;" x="516.516363" xlink:href="#ma5035105eb" y="219.643889"/>
     <use style="fill:#00bfc4;stroke:#00bfc4;" x="209.433707" xlink:href="#ma5035105eb" y="324.040915"/>
     <use style="fill:#00bfc4;stroke:#00bfc4;" x="269.824349" xlink:href="#ma5035105eb" y="225.371048"/>
     <use style="fill:#00bfc4;stroke:#00bfc4;" x="295.707516" xlink:href="#ma5035105eb" y="208.092541"/>
     <use style="fill:#00bfc4;stroke:#00bfc4;" x="416.79328" xlink:href="#ma5035105eb" y="190.818081"/>
     <use style="fill:#00bfc4;stroke:#00bfc4;" x="211.730923" xlink:href="#ma5035105eb" y="313.088788"/>
     <use style="fill:#00bfc4;stroke:#00bfc4;" x="304.398682" xlink:href="#ma5035105eb" y="269.971151"/>
     <use style="fill:#00bfc4;stroke:#00bfc4;" x="438.645275" xlink:href="#ma5035105eb" y="312.26917"/>
     <use style="fill:#00bfc4;stroke:#00bfc4;" x="552.520758" xlink:href="#ma5035105eb" y="345.329787"/>
     <use style="fill:#00bfc4;stroke:#00bfc4;" x="373.706278" xlink:href="#ma5035105eb" y="235.13031"/>
     <use style="fill:#00bfc4;stroke:#00bfc4;" x="368.876362" xlink:href="#ma5035105eb" y="367.467717"/>
     <use style="fill:#00bfc4;stroke:#00bfc4;" x="242.032322" xlink:href="#ma5035105eb" y="242.36133"/>
     <use style="fill:#00bfc4;stroke:#00bfc4;" x="186.815774" xlink:href="#ma5035105eb" y="181.970494"/>
     <use style="fill:#00bfc4;stroke:#00bfc4;" x="295.722535" xlink:href="#ma5035105eb" y="243.04483"/>
     <use style="fill:#00bfc4;stroke:#00bfc4;" x="485.714146" xlink:href="#ma5035105eb" y="327.412734"/>
     <use style="fill:#00bfc4;stroke:#00bfc4;" x="225.694721" xlink:href="#ma5035105eb" y="236.876239"/>
     <use style="fill:#00bfc4;stroke:#00bfc4;" x="396.272086" xlink:href="#ma5035105eb" y="301.312482"/>
     <use style="fill:#00bfc4;stroke:#00bfc4;" x="266.331453" xlink:href="#ma5035105eb" y="107.00176"/>
     <use style="fill:#00bfc4;stroke:#00bfc4;" x="490.926936" xlink:href="#ma5035105eb" y="212.720177"/>
     <use style="fill:#00bfc4;stroke:#00bfc4;" x="348.218185" xlink:href="#ma5035105eb" y="196.33839"/>
     <use style="fill:#00bfc4;stroke:#00bfc4;" x="412.91062" xlink:href="#ma5035105eb" y="286.065429"/>
     <use style="fill:#00bfc4;stroke:#00bfc4;" x="319.793784" xlink:href="#ma5035105eb" y="320.6876"/>
     <use style="fill:#00bfc4;stroke:#00bfc4;" x="472.806486" xlink:href="#ma5035105eb" y="276.969839"/>
     <use style="fill:#00bfc4;stroke:#00bfc4;" x="334.331519" xlink:href="#ma5035105eb" y="310.044552"/>
     <use style="fill:#00bfc4;stroke:#00bfc4;" x="590.286102" xlink:href="#ma5035105eb" y="276.301434"/>
     <use style="fill:#00bfc4;stroke:#00bfc4;" x="556.315332" xlink:href="#ma5035105eb" y="274.890792"/>
     <use style="fill:#00bfc4;stroke:#00bfc4;" x="476.49883" xlink:href="#ma5035105eb" y="272.537219"/>
     <use style="fill:#00bfc4;stroke:#00bfc4;" x="571.711564" xlink:href="#ma5035105eb" y="331.666018"/>
     <use style="fill:#00bfc4;stroke:#00bfc4;" x="508.177398" xlink:href="#ma5035105eb" y="230.47269"/>
     <use style="fill:#00bfc4;stroke:#00bfc4;" x="503.514008" xlink:href="#ma5035105eb" y="334.234192"/>
     <use style="fill:#00bfc4;stroke:#00bfc4;" x="549.275203" xlink:href="#ma5035105eb" y="340.61122"/>
     <use style="fill:#00bfc4;stroke:#00bfc4;" x="396.020696" xlink:href="#ma5035105eb" y="303.689135"/>
     <use style="fill:#00bfc4;stroke:#00bfc4;" x="370.202306" xlink:href="#ma5035105eb" y="320.957304"/>
     <use style="fill:#00bfc4;stroke:#00bfc4;" x="286.469941" xlink:href="#ma5035105eb" y="354.598893"/>
     <use style="fill:#00bfc4;stroke:#00bfc4;" x="198.060019" xlink:href="#ma5035105eb" y="250.670013"/>
     <use style="fill:#00bfc4;stroke:#00bfc4;" x="532.284935" xlink:href="#ma5035105eb" y="312.141766"/>
     <use style="fill:#00bfc4;stroke:#00bfc4;" x="564.538284" xlink:href="#ma5035105eb" y="300.064684"/>
     <use style="fill:#00bfc4;stroke:#00bfc4;" x="394.912715" xlink:href="#ma5035105eb" y="226.002011"/>
     <use style="fill:#00bfc4;stroke:#00bfc4;" x="265.77262" xlink:href="#ma5035105eb" y="157.452873"/>
     <use style="fill:#00bfc4;stroke:#00bfc4;" x="351.764638" xlink:href="#ma5035105eb" y="166.442154"/>
     <use style="fill:#00bfc4;stroke:#00bfc4;" x="298.643083" xlink:href="#ma5035105eb" y="171.316421"/>
     <use style="fill:#00bfc4;stroke:#00bfc4;" x="309.15422" xlink:href="#ma5035105eb" y="124.809426"/>
     <use style="fill:#00bfc4;stroke:#00bfc4;" x="366.058258" xlink:href="#ma5035105eb" y="178.913592"/>
     <use style="fill:#00bfc4;stroke:#00bfc4;" x="325.529703" xlink:href="#ma5035105eb" y="161.898451"/>
     <use style="fill:#00bfc4;stroke:#00bfc4;" x="286.724533" xlink:href="#ma5035105eb" y="149.833265"/>
     <use style="fill:#00bfc4;stroke:#00bfc4;" x="284.801334" xlink:href="#ma5035105eb" y="171.17018"/>
     <use style="fill:#00bfc4;stroke:#00bfc4;" x="373.620528" xlink:href="#ma5035105eb" y="164.099523"/>
     <use style="fill:#00bfc4;stroke:#00bfc4;" x="304.321311" xlink:href="#ma5035105eb" y="141.677219"/>
     <use style="fill:#00bfc4;stroke:#00bfc4;" x="339.187715" xlink:href="#ma5035105eb" y="128.099561"/>
     <use style="fill:#00bfc4;stroke:#00bfc4;" x="344.312483" xlink:href="#ma5035105eb" y="178.571106"/>
     <use style="fill:#00bfc4;stroke:#00bfc4;" x="324.297396" xlink:href="#ma5035105eb" y="117.353144"/>
     <use style="fill:#00bfc4;stroke:#00bfc4;" x="274.896802" xlink:href="#ma5035105eb" y="142.957508"/>
     <use style="fill:#00bfc4;stroke:#00bfc4;" x="291.331417" xlink:href="#ma5035105eb" y="170.754884"/>
     <use style="fill:#00bfc4;stroke:#00bfc4;" x="265.054871" xlink:href="#ma5035105eb" y="164.595927"/>
     <use style="fill:#00bfc4;stroke:#00bfc4;" x="306.521963" xlink:href="#ma5035105eb" y="135.899289"/>
     <use style="fill:#00bfc4;stroke:#00bfc4;" x="326.214033" xlink:href="#ma5035105eb" y="171.103311"/>
     <use style="fill:#00bfc4;stroke:#00bfc4;" x="337.5353" xlink:href="#ma5035105eb" y="110.222238"/>
     <use style="fill:#00bfc4;stroke:#00bfc4;" x="286.962536" xlink:href="#ma5035105eb" y="169.47777"/>
     <use style="fill:#00bfc4;stroke:#00bfc4;" x="328.954869" xlink:href="#ma5035105eb" y="119.966322"/>
     <use style="fill:#00bfc4;stroke:#00bfc4;" x="352.713391" xlink:href="#ma5035105eb" y="135.25657"/>
     <use style="fill:#00bfc4;stroke:#00bfc4;" x="278.562228" xlink:href="#ma5035105eb" y="118.702704"/>
     <use style="fill:#00bfc4;stroke:#00bfc4;" x="169.264957" xlink:href="#ma5035105eb" y="131.715154"/>
     <use style="fill:#00bfc4;stroke:#00bfc4;" x="227.126985" xlink:href="#ma5035105eb" y="281.845813"/>
     <use style="fill:#00bfc4;stroke:#00bfc4;" x="124.703228" xlink:href="#ma5035105eb" y="199.322467"/>
     <use style="fill:#00bfc4;stroke:#00bfc4;" x="247.730671" xlink:href="#ma5035105eb" y="138.057902"/>
     <use style="fill:#00bfc4;stroke:#00bfc4;" x="328.88885" xlink:href="#ma5035105eb" y="187.280314"/>
     <use style="fill:#00bfc4;stroke:#00bfc4;" x="482.611921" xlink:href="#ma5035105eb" y="235.796388"/>
     <use style="fill:#00bfc4;stroke:#00bfc4;" x="355.081105" xlink:href="#ma5035105eb" y="256.108371"/>
     <use style="fill:#00bfc4;stroke:#00bfc4;" x="289.81373" xlink:href="#ma5035105eb" y="300.386354"/>
     <use style="fill:#00bfc4;stroke:#00bfc4;" x="330.818905" xlink:href="#ma5035105eb" y="279.759493"/>
     <use style="fill:#00bfc4;stroke:#00bfc4;" x="460.412141" xlink:href="#ma5035105eb" y="256.070083"/>
     <use style="fill:#00bfc4;stroke:#00bfc4;" x="401.038252" xlink:href="#ma5035105eb" y="265.635875"/>
     <use style="fill:#00bfc4;stroke:#00bfc4;" x="437.612039" xlink:href="#ma5035105eb" y="254.399153"/>
     <use style="fill:#00bfc4;stroke:#00bfc4;" x="339.560487" xlink:href="#ma5035105eb" y="288.603955"/>
     <use style="fill:#00bfc4;stroke:#00bfc4;" x="293.055249" xlink:href="#ma5035105eb" y="323.588625"/>
     <use style="fill:#00bfc4;stroke:#00bfc4;" x="494.632574" xlink:href="#ma5035105eb" y="149.542762"/>
     <use style="fill:#00bfc4;stroke:#00bfc4;" x="451.274972" xlink:href="#ma5035105eb" y="154.072608"/>
     <use style="fill:#00bfc4;stroke:#00bfc4;" x="319.206616" xlink:href="#ma5035105eb" y="239.864736"/>
     <use style="fill:#00bfc4;stroke:#00bfc4;" x="518.944645" xlink:href="#ma5035105eb" y="350.519096"/>
     <use style="fill:#00bfc4;stroke:#00bfc4;" x="487.191987" xlink:href="#ma5035105eb" y="326.172852"/>
     <use style="fill:#00bfc4;stroke:#00bfc4;" x="446.063915" xlink:href="#ma5035105eb" y="322.21841"/>
     <use style="fill:#00bfc4;stroke:#00bfc4;" x="117.579412" xlink:href="#ma5035105eb" y="177.407904"/>
     <use style="fill:#00bfc4;stroke:#00bfc4;" x="294.309799" xlink:href="#ma5035105eb" y="266.120569"/>
     <use style="fill:#00bfc4;stroke:#00bfc4;" x="546.596369" xlink:href="#ma5035105eb" y="305.894984"/>
     <use style="fill:#00bfc4;stroke:#00bfc4;" x="146.240391" xlink:href="#ma5035105eb" y="252.072316"/>
     <use style="fill:#00bfc4;stroke:#00bfc4;" x="204.449634" xlink:href="#ma5035105eb" y="329.766949"/>
     <use style="fill:#00bfc4;stroke:#00bfc4;" x="344.839386" xlink:href="#ma5035105eb" y="356.383268"/>
     <use style="fill:#00bfc4;stroke:#00bfc4;" x="183.756174" xlink:href="#ma5035105eb" y="289.48417"/>
     <use style="fill:#00bfc4;stroke:#00bfc4;" x="557.478618" xlink:href="#ma5035105eb" y="350.972621"/>
    </g>
   </g>
   <g id="matplotlib.axis_1">
    <g id="xtick_1">
     <g id="line2d_1">
      <defs>
       <path d="M 0 0 
L 0 3.5 
" id="m477052e45a" style="stroke:#000000;stroke-width:0.8;"/>
      </defs>
      <g>
       <use style="stroke:#000000;stroke-width:0.8;" x="137.675674" xlink:href="#m477052e45a" y="384.48"/>
      </g>
     </g>
     <g id="text_1">
      <!-- −7.5 -->
      <defs>
       <path d="M 10.59375 35.5 
L 73.1875 35.5 
L 73.1875 27.203125 
L 10.59375 27.203125 
z
" id="DejaVuSans-8722"/>
       <path d="M 8.203125 72.90625 
L 55.078125 72.90625 
L 55.078125 68.703125 
L 28.609375 0 
L 18.3125 0 
L 43.21875 64.59375 
L 8.203125 64.59375 
z
" id="DejaVuSans-55"/>
       <path d="M 10.6875 12.40625 
L 21 12.40625 
L 21 0 
L 10.6875 0 
z
" id="DejaVuSans-46"/>
       <path d="M 10.796875 72.90625 
L 49.515625 72.90625 
L 49.515625 64.59375 
L 19.828125 64.59375 
L 19.828125 46.734375 
Q 21.96875 47.46875 24.109375 47.828125 
Q 26.265625 48.1875 28.421875 48.1875 
Q 40.625 48.1875 47.75 41.5 
Q 54.890625 34.8125 54.890625 23.390625 
Q 54.890625 11.625 47.5625 5.09375 
Q 40.234375 -1.421875 26.90625 -1.421875 
Q 22.3125 -1.421875 17.546875 -0.640625 
Q 12.796875 0.140625 7.71875 1.703125 
L 7.71875 11.625 
Q 12.109375 9.234375 16.796875 8.0625 
Q 21.484375 6.890625 26.703125 6.890625 
Q 35.15625 6.890625 40.078125 11.328125 
Q 45.015625 15.765625 45.015625 23.390625 
Q 45.015625 31 40.078125 35.4375 
Q 35.15625 39.890625 26.703125 39.890625 
Q 22.75 39.890625 18.8125 39.015625 
Q 14.890625 38.140625 10.796875 36.28125 
z
" id="DejaVuSans-53"/>
      </defs>
      <g transform="translate(125.534267 399.078438)scale(0.1 -0.1)">
       <use xlink:href="#DejaVuSans-8722"/>
       <use x="83.789062" xlink:href="#DejaVuSans-55"/>
       <use x="147.412109" xlink:href="#DejaVuSans-46"/>
       <use x="179.199219" xlink:href="#DejaVuSans-53"/>
      </g>
     </g>
    </g>
    <g id="xtick_2">
     <g id="line2d_2">
      <g>
       <use style="stroke:#000000;stroke-width:0.8;" x="208.491469" xlink:href="#m477052e45a" y="384.48"/>
      </g>
     </g>
     <g id="text_2">
      <!-- −5.0 -->
      <defs>
       <path d="M 31.78125 66.40625 
Q 24.171875 66.40625 20.328125 58.90625 
Q 16.5 51.421875 16.5 36.375 
Q 16.5 21.390625 20.328125 13.890625 
Q 24.171875 6.390625 31.78125 6.390625 
Q 39.453125 6.390625 43.28125 13.890625 
Q 47.125 21.390625 47.125 36.375 
Q 47.125 51.421875 43.28125 58.90625 
Q 39.453125 66.40625 31.78125 66.40625 
z
M 31.78125 74.21875 
Q 44.046875 74.21875 50.515625 64.515625 
Q 56.984375 54.828125 56.984375 36.375 
Q 56.984375 17.96875 50.515625 8.265625 
Q 44.046875 -1.421875 31.78125 -1.421875 
Q 19.53125 -1.421875 13.0625 8.265625 
Q 6.59375 17.96875 6.59375 36.375 
Q 6.59375 54.828125 13.0625 64.515625 
Q 19.53125 74.21875 31.78125 74.21875 
z
" id="DejaVuSans-48"/>
      </defs>
      <g transform="translate(196.350062 399.078438)scale(0.1 -0.1)">
       <use xlink:href="#DejaVuSans-8722"/>
       <use x="83.789062" xlink:href="#DejaVuSans-53"/>
       <use x="147.412109" xlink:href="#DejaVuSans-46"/>
       <use x="179.199219" xlink:href="#DejaVuSans-48"/>
      </g>
     </g>
    </g>
    <g id="xtick_3">
     <g id="line2d_3">
      <g>
       <use style="stroke:#000000;stroke-width:0.8;" x="279.307264" xlink:href="#m477052e45a" y="384.48"/>
      </g>
     </g>
     <g id="text_3">
      <!-- −2.5 -->
      <defs>
       <path d="M 19.1875 8.296875 
L 53.609375 8.296875 
L 53.609375 0 
L 7.328125 0 
L 7.328125 8.296875 
Q 12.9375 14.109375 22.625 23.890625 
Q 32.328125 33.6875 34.8125 36.53125 
Q 39.546875 41.84375 41.421875 45.53125 
Q 43.3125 49.21875 43.3125 52.78125 
Q 43.3125 58.59375 39.234375 62.25 
Q 35.15625 65.921875 28.609375 65.921875 
Q 23.96875 65.921875 18.8125 64.3125 
Q 13.671875 62.703125 7.8125 59.421875 
L 7.8125 69.390625 
Q 13.765625 71.78125 18.9375 73 
Q 24.125 74.21875 28.421875 74.21875 
Q 39.75 74.21875 46.484375 68.546875 
Q 53.21875 62.890625 53.21875 53.421875 
Q 53.21875 48.921875 51.53125 44.890625 
Q 49.859375 40.875 45.40625 35.40625 
Q 44.1875 33.984375 37.640625 27.21875 
Q 31.109375 20.453125 19.1875 8.296875 
z
" id="DejaVuSans-50"/>
      </defs>
      <g transform="translate(267.165857 399.078438)scale(0.1 -0.1)">
       <use xlink:href="#DejaVuSans-8722"/>
       <use x="83.789062" xlink:href="#DejaVuSans-50"/>
       <use x="147.412109" xlink:href="#DejaVuSans-46"/>
       <use x="179.199219" xlink:href="#DejaVuSans-53"/>
      </g>
     </g>
    </g>
    <g id="xtick_4">
     <g id="line2d_4">
      <g>
       <use style="stroke:#000000;stroke-width:0.8;" x="350.123058" xlink:href="#m477052e45a" y="384.48"/>
      </g>
     </g>
     <g id="text_4">
      <!-- 0.0 -->
      <g transform="translate(342.171496 399.078438)scale(0.1 -0.1)">
       <use xlink:href="#DejaVuSans-48"/>
       <use x="63.623047" xlink:href="#DejaVuSans-46"/>
       <use x="95.410156" xlink:href="#DejaVuSans-48"/>
      </g>
     </g>
    </g>
    <g id="xtick_5">
     <g id="line2d_5">
      <g>
       <use style="stroke:#000000;stroke-width:0.8;" x="420.938853" xlink:href="#m477052e45a" y="384.48"/>
      </g>
     </g>
     <g id="text_5">
      <!-- 2.5 -->
      <g transform="translate(412.987291 399.078438)scale(0.1 -0.1)">
       <use xlink:href="#DejaVuSans-50"/>
       <use x="63.623047" xlink:href="#DejaVuSans-46"/>
       <use x="95.410156" xlink:href="#DejaVuSans-53"/>
      </g>
     </g>
    </g>
    <g id="xtick_6">
     <g id="line2d_6">
      <g>
       <use style="stroke:#000000;stroke-width:0.8;" x="491.754648" xlink:href="#m477052e45a" y="384.48"/>
      </g>
     </g>
     <g id="text_6">
      <!-- 5.0 -->
      <g transform="translate(483.803086 399.078438)scale(0.1 -0.1)">
       <use xlink:href="#DejaVuSans-53"/>
       <use x="63.623047" xlink:href="#DejaVuSans-46"/>
       <use x="95.410156" xlink:href="#DejaVuSans-48"/>
      </g>
     </g>
    </g>
    <g id="xtick_7">
     <g id="line2d_7">
      <g>
       <use style="stroke:#000000;stroke-width:0.8;" x="562.570443" xlink:href="#m477052e45a" y="384.48"/>
      </g>
     </g>
     <g id="text_7">
      <!-- 7.5 -->
      <g transform="translate(554.618881 399.078438)scale(0.1 -0.1)">
       <use xlink:href="#DejaVuSans-55"/>
       <use x="63.623047" xlink:href="#DejaVuSans-46"/>
       <use x="95.410156" xlink:href="#DejaVuSans-53"/>
      </g>
     </g>
    </g>
    <g id="xtick_8">
     <g id="line2d_8">
      <g>
       <use style="stroke:#000000;stroke-width:0.8;" x="633.386238" xlink:href="#m477052e45a" y="384.48"/>
      </g>
     </g>
     <g id="text_8">
      <!-- 10.0 -->
      <defs>
       <path d="M 12.40625 8.296875 
L 28.515625 8.296875 
L 28.515625 63.921875 
L 10.984375 60.40625 
L 10.984375 69.390625 
L 28.421875 72.90625 
L 38.28125 72.90625 
L 38.28125 8.296875 
L 54.390625 8.296875 
L 54.390625 0 
L 12.40625 0 
z
" id="DejaVuSans-49"/>
      </defs>
      <g transform="translate(622.253426 399.078438)scale(0.1 -0.1)">
       <use xlink:href="#DejaVuSans-49"/>
       <use x="63.623047" xlink:href="#DejaVuSans-48"/>
       <use x="127.246094" xlink:href="#DejaVuSans-46"/>
       <use x="159.033203" xlink:href="#DejaVuSans-48"/>
      </g>
     </g>
    </g>
    <g id="text_9">
     <!-- tSNE-1 -->
     <defs>
      <path d="M 18.3125 70.21875 
L 18.3125 54.6875 
L 36.8125 54.6875 
L 36.8125 47.703125 
L 18.3125 47.703125 
L 18.3125 18.015625 
Q 18.3125 11.328125 20.140625 9.421875 
Q 21.96875 7.515625 27.59375 7.515625 
L 36.8125 7.515625 
L 36.8125 0 
L 27.59375 0 
Q 17.1875 0 13.234375 3.875 
Q 9.28125 7.765625 9.28125 18.015625 
L 9.28125 47.703125 
L 2.6875 47.703125 
L 2.6875 54.6875 
L 9.28125 54.6875 
L 9.28125 70.21875 
z
" id="DejaVuSans-116"/>
      <path d="M 53.515625 70.515625 
L 53.515625 60.890625 
Q 47.90625 63.578125 42.921875 64.890625 
Q 37.9375 66.21875 33.296875 66.21875 
Q 25.25 66.21875 20.875 63.09375 
Q 16.5 59.96875 16.5 54.203125 
Q 16.5 49.359375 19.40625 46.890625 
Q 22.3125 44.4375 30.421875 42.921875 
L 36.375 41.703125 
Q 47.40625 39.59375 52.65625 34.296875 
Q 57.90625 29 57.90625 20.125 
Q 57.90625 9.515625 50.796875 4.046875 
Q 43.703125 -1.421875 29.984375 -1.421875 
Q 24.8125 -1.421875 18.96875 -0.25 
Q 13.140625 0.921875 6.890625 3.21875 
L 6.890625 13.375 
Q 12.890625 10.015625 18.65625 8.296875 
Q 24.421875 6.59375 29.984375 6.59375 
Q 38.421875 6.59375 43.015625 9.90625 
Q 47.609375 13.234375 47.609375 19.390625 
Q 47.609375 24.75 44.3125 27.78125 
Q 41.015625 30.8125 33.5 32.328125 
L 27.484375 33.5 
Q 16.453125 35.6875 11.515625 40.375 
Q 6.59375 45.0625 6.59375 53.421875 
Q 6.59375 63.09375 13.40625 68.65625 
Q 20.21875 74.21875 32.171875 74.21875 
Q 37.3125 74.21875 42.625 73.28125 
Q 47.953125 72.359375 53.515625 70.515625 
z
" id="DejaVuSans-83"/>
      <path d="M 9.8125 72.90625 
L 23.09375 72.90625 
L 55.421875 11.921875 
L 55.421875 72.90625 
L 64.984375 72.90625 
L 64.984375 0 
L 51.703125 0 
L 19.390625 60.984375 
L 19.390625 0 
L 9.8125 0 
z
" id="DejaVuSans-78"/>
      <path d="M 9.8125 72.90625 
L 55.90625 72.90625 
L 55.90625 64.59375 
L 19.671875 64.59375 
L 19.671875 43.015625 
L 54.390625 43.015625 
L 54.390625 34.71875 
L 19.671875 34.71875 
L 19.671875 8.296875 
L 56.78125 8.296875 
L 56.78125 0 
L 9.8125 0 
z
" id="DejaVuSans-69"/>
      <path d="M 4.890625 31.390625 
L 31.203125 31.390625 
L 31.203125 23.390625 
L 4.890625 23.390625 
z
" id="DejaVuSans-45"/>
     </defs>
     <g transform="translate(351.980469 412.756563)scale(0.1 -0.1)">
      <use xlink:href="#DejaVuSans-116"/>
      <use x="39.208984" xlink:href="#DejaVuSans-83"/>
      <use x="102.685547" xlink:href="#DejaVuSans-78"/>
      <use x="177.490234" xlink:href="#DejaVuSans-69"/>
      <use x="240.673828" xlink:href="#DejaVuSans-45"/>
      <use x="276.757812" xlink:href="#DejaVuSans-49"/>
     </g>
    </g>
   </g>
   <g id="matplotlib.axis_2">
    <g id="ytick_1">
     <g id="line2d_9">
      <defs>
       <path d="M 0 0 
L -3.5 0 
" id="m6e1494a315" style="stroke:#000000;stroke-width:0.8;"/>
      </defs>
      <g>
       <use style="stroke:#000000;stroke-width:0.8;" x="90" xlink:href="#m6e1494a315" y="365.340437"/>
      </g>
     </g>
     <g id="text_10">
      <!-- −7.5 -->
      <g transform="translate(58.717187 369.139655)scale(0.1 -0.1)">
       <use xlink:href="#DejaVuSans-8722"/>
       <use x="83.789062" xlink:href="#DejaVuSans-55"/>
       <use x="147.412109" xlink:href="#DejaVuSans-46"/>
       <use x="179.199219" xlink:href="#DejaVuSans-53"/>
      </g>
     </g>
    </g>
    <g id="ytick_2">
     <g id="line2d_10">
      <g>
       <use style="stroke:#000000;stroke-width:0.8;" x="90" xlink:href="#m6e1494a315" y="323.52148"/>
      </g>
     </g>
     <g id="text_11">
      <!-- −5.0 -->
      <g transform="translate(58.717187 327.320699)scale(0.1 -0.1)">
       <use xlink:href="#DejaVuSans-8722"/>
       <use x="83.789062" xlink:href="#DejaVuSans-53"/>
       <use x="147.412109" xlink:href="#DejaVuSans-46"/>
       <use x="179.199219" xlink:href="#DejaVuSans-48"/>
      </g>
     </g>
    </g>
    <g id="ytick_3">
     <g id="line2d_11">
      <g>
       <use style="stroke:#000000;stroke-width:0.8;" x="90" xlink:href="#m6e1494a315" y="281.702524"/>
      </g>
     </g>
     <g id="text_12">
      <!-- −2.5 -->
      <g transform="translate(58.717187 285.501743)scale(0.1 -0.1)">
       <use xlink:href="#DejaVuSans-8722"/>
       <use x="83.789062" xlink:href="#DejaVuSans-50"/>
       <use x="147.412109" xlink:href="#DejaVuSans-46"/>
       <use x="179.199219" xlink:href="#DejaVuSans-53"/>
      </g>
     </g>
    </g>
    <g id="ytick_4">
     <g id="line2d_12">
      <g>
       <use style="stroke:#000000;stroke-width:0.8;" x="90" xlink:href="#m6e1494a315" y="239.883568"/>
      </g>
     </g>
     <g id="text_13">
      <!-- 0.0 -->
      <g transform="translate(67.096875 243.682787)scale(0.1 -0.1)">
       <use xlink:href="#DejaVuSans-48"/>
       <use x="63.623047" xlink:href="#DejaVuSans-46"/>
       <use x="95.410156" xlink:href="#DejaVuSans-48"/>
      </g>
     </g>
    </g>
    <g id="ytick_5">
     <g id="line2d_13">
      <g>
       <use style="stroke:#000000;stroke-width:0.8;" x="90" xlink:href="#m6e1494a315" y="198.064611"/>
      </g>
     </g>
     <g id="text_14">
      <!-- 2.5 -->
      <g transform="translate(67.096875 201.86383)scale(0.1 -0.1)">
       <use xlink:href="#DejaVuSans-50"/>
       <use x="63.623047" xlink:href="#DejaVuSans-46"/>
       <use x="95.410156" xlink:href="#DejaVuSans-53"/>
      </g>
     </g>
    </g>
    <g id="ytick_6">
     <g id="line2d_14">
      <g>
       <use style="stroke:#000000;stroke-width:0.8;" x="90" xlink:href="#m6e1494a315" y="156.245655"/>
      </g>
     </g>
     <g id="text_15">
      <!-- 5.0 -->
      <g transform="translate(67.096875 160.044874)scale(0.1 -0.1)">
       <use xlink:href="#DejaVuSans-53"/>
       <use x="63.623047" xlink:href="#DejaVuSans-46"/>
       <use x="95.410156" xlink:href="#DejaVuSans-48"/>
      </g>
     </g>
    </g>
    <g id="ytick_7">
     <g id="line2d_15">
      <g>
       <use style="stroke:#000000;stroke-width:0.8;" x="90" xlink:href="#m6e1494a315" y="114.426699"/>
      </g>
     </g>
     <g id="text_16">
      <!-- 7.5 -->
      <g transform="translate(67.096875 118.225918)scale(0.1 -0.1)">
       <use xlink:href="#DejaVuSans-55"/>
       <use x="63.623047" xlink:href="#DejaVuSans-46"/>
       <use x="95.410156" xlink:href="#DejaVuSans-53"/>
      </g>
     </g>
    </g>
    <g id="ytick_8">
     <g id="line2d_16">
      <g>
       <use style="stroke:#000000;stroke-width:0.8;" x="90" xlink:href="#m6e1494a315" y="72.607743"/>
      </g>
     </g>
     <g id="text_17">
      <!-- 10.0 -->
      <g transform="translate(60.734375 76.406961)scale(0.1 -0.1)">
       <use xlink:href="#DejaVuSans-49"/>
       <use x="63.623047" xlink:href="#DejaVuSans-48"/>
       <use x="127.246094" xlink:href="#DejaVuSans-46"/>
       <use x="159.033203" xlink:href="#DejaVuSans-48"/>
      </g>
     </g>
    </g>
    <g id="text_18">
     <!-- tSNE-2 -->
     <g transform="translate(52.6375 235.179531)rotate(-90)scale(0.1 -0.1)">
      <use xlink:href="#DejaVuSans-116"/>
      <use x="39.208984" xlink:href="#DejaVuSans-83"/>
      <use x="102.685547" xlink:href="#DejaVuSans-78"/>
      <use x="177.490234" xlink:href="#DejaVuSans-69"/>
      <use x="240.673828" xlink:href="#DejaVuSans-45"/>
      <use x="276.757812" xlink:href="#DejaVuSans-50"/>
     </g>
    </g>
   </g>
   <g id="patch_3">
    <path d="M 90 384.48 
L 90 51.84 
" style="fill:none;stroke:#000000;stroke-linecap:square;stroke-linejoin:miter;stroke-width:0.8;"/>
   </g>
   <g id="patch_4">
    <path d="M 648 384.48 
L 648 51.84 
" style="fill:none;stroke:#000000;stroke-linecap:square;stroke-linejoin:miter;stroke-width:0.8;"/>
   </g>
   <g id="patch_5">
    <path d="M 90 384.48 
L 648 384.48 
" style="fill:none;stroke:#000000;stroke-linecap:square;stroke-linejoin:miter;stroke-width:0.8;"/>
   </g>
   <g id="patch_6">
    <path d="M 90 51.84 
L 648 51.84 
" style="fill:none;stroke:#000000;stroke-linecap:square;stroke-linejoin:miter;stroke-width:0.8;"/>
   </g>
   <g id="legend_1">
    <g id="patch_7">
     <path d="M 563.125 89.19625 
L 641 89.19625 
Q 643 89.19625 643 87.19625 
L 643 58.84 
Q 643 56.84 641 56.84 
L 563.125 56.84 
Q 561.125 56.84 561.125 58.84 
L 561.125 87.19625 
Q 561.125 89.19625 563.125 89.19625 
z
" style="fill:#ffffff;opacity:0.8;stroke:#cccccc;stroke-linejoin:miter;"/>
    </g>
    <g id="PathCollection_3">
     <g>
      <use style="fill:#f8766d;stroke:#f8766d;" x="575.125" xlink:href="#m999f9505c5" y="65.813437"/>
     </g>
    </g>
    <g id="text_19">
     <!-- D001289 -->
     <defs>
      <path d="M 19.671875 64.796875 
L 19.671875 8.109375 
L 31.59375 8.109375 
Q 46.6875 8.109375 53.6875 14.9375 
Q 60.6875 21.78125 60.6875 36.53125 
Q 60.6875 51.171875 53.6875 57.984375 
Q 46.6875 64.796875 31.59375 64.796875 
z
M 9.8125 72.90625 
L 30.078125 72.90625 
Q 51.265625 72.90625 61.171875 64.09375 
Q 71.09375 55.28125 71.09375 36.53125 
Q 71.09375 17.671875 61.125 8.828125 
Q 51.171875 0 30.078125 0 
L 9.8125 0 
z
" id="DejaVuSans-68"/>
      <path d="M 31.78125 34.625 
Q 24.75 34.625 20.71875 30.859375 
Q 16.703125 27.09375 16.703125 20.515625 
Q 16.703125 13.921875 20.71875 10.15625 
Q 24.75 6.390625 31.78125 6.390625 
Q 38.8125 6.390625 42.859375 10.171875 
Q 46.921875 13.96875 46.921875 20.515625 
Q 46.921875 27.09375 42.890625 30.859375 
Q 38.875 34.625 31.78125 34.625 
z
M 21.921875 38.8125 
Q 15.578125 40.375 12.03125 44.71875 
Q 8.5 49.078125 8.5 55.328125 
Q 8.5 64.0625 14.71875 69.140625 
Q 20.953125 74.21875 31.78125 74.21875 
Q 42.671875 74.21875 48.875 69.140625 
Q 55.078125 64.0625 55.078125 55.328125 
Q 55.078125 49.078125 51.53125 44.71875 
Q 48 40.375 41.703125 38.8125 
Q 48.828125 37.15625 52.796875 32.3125 
Q 56.78125 27.484375 56.78125 20.515625 
Q 56.78125 9.90625 50.3125 4.234375 
Q 43.84375 -1.421875 31.78125 -1.421875 
Q 19.734375 -1.421875 13.25 4.234375 
Q 6.78125 9.90625 6.78125 20.515625 
Q 6.78125 27.484375 10.78125 32.3125 
Q 14.796875 37.15625 21.921875 38.8125 
z
M 18.3125 54.390625 
Q 18.3125 48.734375 21.84375 45.5625 
Q 25.390625 42.390625 31.78125 42.390625 
Q 38.140625 42.390625 41.71875 45.5625 
Q 45.3125 48.734375 45.3125 54.390625 
Q 45.3125 60.0625 41.71875 63.234375 
Q 38.140625 66.40625 31.78125 66.40625 
Q 25.390625 66.40625 21.84375 63.234375 
Q 18.3125 60.0625 18.3125 54.390625 
z
" id="DejaVuSans-56"/>
      <path d="M 10.984375 1.515625 
L 10.984375 10.5 
Q 14.703125 8.734375 18.5 7.8125 
Q 22.3125 6.890625 25.984375 6.890625 
Q 35.75 6.890625 40.890625 13.453125 
Q 46.046875 20.015625 46.78125 33.40625 
Q 43.953125 29.203125 39.59375 26.953125 
Q 35.25 24.703125 29.984375 24.703125 
Q 19.046875 24.703125 12.671875 31.3125 
Q 6.296875 37.9375 6.296875 49.421875 
Q 6.296875 60.640625 12.9375 67.421875 
Q 19.578125 74.21875 30.609375 74.21875 
Q 43.265625 74.21875 49.921875 64.515625 
Q 56.59375 54.828125 56.59375 36.375 
Q 56.59375 19.140625 48.40625 8.859375 
Q 40.234375 -1.421875 26.421875 -1.421875 
Q 22.703125 -1.421875 18.890625 -0.6875 
Q 15.09375 0.046875 10.984375 1.515625 
z
M 30.609375 32.421875 
Q 37.25 32.421875 41.125 36.953125 
Q 45.015625 41.5 45.015625 49.421875 
Q 45.015625 57.28125 41.125 61.84375 
Q 37.25 66.40625 30.609375 66.40625 
Q 23.96875 66.40625 20.09375 61.84375 
Q 16.21875 57.28125 16.21875 49.421875 
Q 16.21875 41.5 20.09375 36.953125 
Q 23.96875 32.421875 30.609375 32.421875 
z
" id="DejaVuSans-57"/>
     </defs>
     <g transform="translate(593.125 68.438437)scale(0.1 -0.1)">
      <use xlink:href="#DejaVuSans-68"/>
      <use x="77.001953" xlink:href="#DejaVuSans-48"/>
      <use x="140.625" xlink:href="#DejaVuSans-48"/>
      <use x="204.248047" xlink:href="#DejaVuSans-49"/>
      <use x="267.871094" xlink:href="#DejaVuSans-50"/>
      <use x="331.494141" xlink:href="#DejaVuSans-56"/>
      <use x="395.117188" xlink:href="#DejaVuSans-57"/>
     </g>
    </g>
    <g id="PathCollection_4">
     <g>
      <use style="fill:#00bfc4;stroke:#00bfc4;" x="575.125" xlink:href="#ma5035105eb" y="80.491562"/>
     </g>
    </g>
    <g id="text_20">
     <!-- D006262 -->
     <defs>
      <path d="M 33.015625 40.375 
Q 26.375 40.375 22.484375 35.828125 
Q 18.609375 31.296875 18.609375 23.390625 
Q 18.609375 15.53125 22.484375 10.953125 
Q 26.375 6.390625 33.015625 6.390625 
Q 39.65625 6.390625 43.53125 10.953125 
Q 47.40625 15.53125 47.40625 23.390625 
Q 47.40625 31.296875 43.53125 35.828125 
Q 39.65625 40.375 33.015625 40.375 
z
M 52.59375 71.296875 
L 52.59375 62.3125 
Q 48.875 64.0625 45.09375 64.984375 
Q 41.3125 65.921875 37.59375 65.921875 
Q 27.828125 65.921875 22.671875 59.328125 
Q 17.53125 52.734375 16.796875 39.40625 
Q 19.671875 43.65625 24.015625 45.921875 
Q 28.375 48.1875 33.59375 48.1875 
Q 44.578125 48.1875 50.953125 41.515625 
Q 57.328125 34.859375 57.328125 23.390625 
Q 57.328125 12.15625 50.6875 5.359375 
Q 44.046875 -1.421875 33.015625 -1.421875 
Q 20.359375 -1.421875 13.671875 8.265625 
Q 6.984375 17.96875 6.984375 36.375 
Q 6.984375 53.65625 15.1875 63.9375 
Q 23.390625 74.21875 37.203125 74.21875 
Q 40.921875 74.21875 44.703125 73.484375 
Q 48.484375 72.75 52.59375 71.296875 
z
" id="DejaVuSans-54"/>
     </defs>
     <g transform="translate(593.125 83.116562)scale(0.1 -0.1)">
      <use xlink:href="#DejaVuSans-68"/>
      <use x="77.001953" xlink:href="#DejaVuSans-48"/>
      <use x="140.625" xlink:href="#DejaVuSans-48"/>
      <use x="204.248047" xlink:href="#DejaVuSans-54"/>
      <use x="267.871094" xlink:href="#DejaVuSans-50"/>
      <use x="331.494141" xlink:href="#DejaVuSans-54"/>
      <use x="395.117188" xlink:href="#DejaVuSans-50"/>
     </g>
    </g>
   </g>
  </g>
 </g>
 <defs>
  <clipPath id="pd59269217a">
   <rect height="332.64" width="558" x="90" y="51.84"/>
  </clipPath>
 </defs>
</svg>
