<?xml version="1.0" encoding="utf-8" standalone="no"?>
<!DOCTYPE svg PUBLIC "-//W3C//DTD SVG 1.1//EN"
  "http://www.w3.org/Graphics/SVG/1.1/DTD/svg11.dtd">
<!-- Created with matplotlib (https://matplotlib.org/) -->
<svg height="432pt" version="1.1" viewBox="0 0 720 432" width="720pt" xmlns="http://www.w3.org/2000/svg" xmlns:xlink="http://www.w3.org/1999/xlink">
 <defs>
  <style type="text/css">
*{stroke-linecap:butt;stroke-linejoin:round;}
  </style>
 </defs>
 <g id="figure_1">
  <g id="patch_1">
   <path d="M 0 432 
L 720 432 
L 720 0 
L 0 0 
z
" style="fill:#ffffff;"/>
  </g>
  <g id="axes_1">
   <g id="patch_2">
    <path d="M 90 378 
L 648 378 
L 648 51.84 
L 90 51.84 
z
" style="fill:#ffffff;"/>
   </g>
   <g id="PathCollection_1">
    <defs>
     <path d="M 0 3 
C 0.795609 3 1.55874 2.683901 2.12132 2.12132 
C 2.683901 1.55874 3 0.795609 3 0 
C 3 -0.795609 2.683901 -1.55874 2.12132 -2.12132 
C 1.55874 -2.683901 0.795609 -3 0 -3 
C -0.795609 -3 -1.55874 -2.683901 -2.12132 -2.12132 
C -2.683901 -1.55874 -3 -0.795609 -3 0 
C -3 0.795609 -2.683901 1.55874 -2.12132 2.12132 
C -1.55874 2.683901 -0.795609 3 0 3 
z
" id="mb5c8b94540" style="stroke:#00bfc4;"/>
    </defs>
    <g clip-path="url(#p5046ace0b0)">
     <use style="fill:#00bfc4;stroke:#00bfc4;" x="568.488452" xlink:href="#mb5c8b94540" y="145.211787"/>
     <use style="fill:#00bfc4;stroke:#00bfc4;" x="550.385399" xlink:href="#mb5c8b94540" y="270.195406"/>
     <use style="fill:#00bfc4;stroke:#00bfc4;" x="569.048257" xlink:href="#mb5c8b94540" y="267.657634"/>
     <use style="fill:#00bfc4;stroke:#00bfc4;" x="610.953662" xlink:href="#mb5c8b94540" y="278.465349"/>
     <use style="fill:#00bfc4;stroke:#00bfc4;" x="622.449474" xlink:href="#mb5c8b94540" y="288.179897"/>
     <use style="fill:#00bfc4;stroke:#00bfc4;" x="576.388948" xlink:href="#mb5c8b94540" y="267.950303"/>
     <use style="fill:#00bfc4;stroke:#00bfc4;" x="291.778053" xlink:href="#mb5c8b94540" y="323.848923"/>
     <use style="fill:#00bfc4;stroke:#00bfc4;" x="436.978558" xlink:href="#mb5c8b94540" y="177.250032"/>
     <use style="fill:#00bfc4;stroke:#00bfc4;" x="464.887988" xlink:href="#mb5c8b94540" y="183.787765"/>
     <use style="fill:#00bfc4;stroke:#00bfc4;" x="468.139536" xlink:href="#mb5c8b94540" y="170.064531"/>
     <use style="fill:#00bfc4;stroke:#00bfc4;" x="474.879231" xlink:href="#mb5c8b94540" y="143.09787"/>
     <use style="fill:#00bfc4;stroke:#00bfc4;" x="560.488966" xlink:href="#mb5c8b94540" y="142.068046"/>
     <use style="fill:#00bfc4;stroke:#00bfc4;" x="519.932653" xlink:href="#mb5c8b94540" y="145.909509"/>
     <use style="fill:#00bfc4;stroke:#00bfc4;" x="525.299587" xlink:href="#mb5c8b94540" y="333.848683"/>
     <use style="fill:#00bfc4;stroke:#00bfc4;" x="410.482291" xlink:href="#mb5c8b94540" y="299.795881"/>
     <use style="fill:#00bfc4;stroke:#00bfc4;" x="276.458148" xlink:href="#mb5c8b94540" y="109.726269"/>
     <use style="fill:#00bfc4;stroke:#00bfc4;" x="538.397491" xlink:href="#mb5c8b94540" y="335.801161"/>
     <use style="fill:#00bfc4;stroke:#00bfc4;" x="543.91789" xlink:href="#mb5c8b94540" y="125.91123"/>
     <use style="fill:#00bfc4;stroke:#00bfc4;" x="503.835819" xlink:href="#mb5c8b94540" y="223.803755"/>
     <use style="fill:#00bfc4;stroke:#00bfc4;" x="524.983094" xlink:href="#mb5c8b94540" y="222.731628"/>
     <use style="fill:#00bfc4;stroke:#00bfc4;" x="505.102679" xlink:href="#mb5c8b94540" y="299.307287"/>
     <use style="fill:#00bfc4;stroke:#00bfc4;" x="558.685614" xlink:href="#mb5c8b94540" y="340.01916"/>
     <use style="fill:#00bfc4;stroke:#00bfc4;" x="253.872457" xlink:href="#mb5c8b94540" y="121.326191"/>
     <use style="fill:#00bfc4;stroke:#00bfc4;" x="276.049967" xlink:href="#mb5c8b94540" y="114.917746"/>
     <use style="fill:#00bfc4;stroke:#00bfc4;" x="531.326948" xlink:href="#mb5c8b94540" y="133.151242"/>
     <use style="fill:#00bfc4;stroke:#00bfc4;" x="208.373195" xlink:href="#mb5c8b94540" y="136.974511"/>
     <use style="fill:#00bfc4;stroke:#00bfc4;" x="241.715695" xlink:href="#mb5c8b94540" y="117.239143"/>
     <use style="fill:#00bfc4;stroke:#00bfc4;" x="496.379083" xlink:href="#mb5c8b94540" y="258.044879"/>
     <use style="fill:#00bfc4;stroke:#00bfc4;" x="539.228754" xlink:href="#mb5c8b94540" y="220.42393"/>
    </g>
   </g>
   <g id="PathCollection_2">
    <defs>
     <path d="M 0 3 
C 0.795609 3 1.55874 2.683901 2.12132 2.12132 
C 2.683901 1.55874 3 0.795609 3 0 
C 3 -0.795609 2.683901 -1.55874 2.12132 -2.12132 
C 1.55874 -2.683901 0.795609 -3 0 -3 
C -0.795609 -3 -1.55874 -2.683901 -2.12132 -2.12132 
C -2.683901 -1.55874 -3 -0.795609 -3 0 
C -3 0.795609 -2.683901 1.55874 -2.12132 2.12132 
C -1.55874 2.683901 -0.795609 3 0 3 
z
" id="m99db681f36" style="stroke:#f8766d;"/>
    </defs>
    <g clip-path="url(#p5046ace0b0)">
     <use style="fill:#f8766d;stroke:#f8766d;" x="361.875553" xlink:href="#m99db681f36" y="276.421595"/>
     <use style="fill:#f8766d;stroke:#f8766d;" x="194.877544" xlink:href="#m99db681f36" y="236.703407"/>
     <use style="fill:#f8766d;stroke:#f8766d;" x="461.842813" xlink:href="#m99db681f36" y="281.752732"/>
     <use style="fill:#f8766d;stroke:#f8766d;" x="454.455669" xlink:href="#m99db681f36" y="278.655466"/>
     <use style="fill:#f8766d;stroke:#f8766d;" x="201.009" xlink:href="#m99db681f36" y="225.554849"/>
     <use style="fill:#f8766d;stroke:#f8766d;" x="296.923372" xlink:href="#m99db681f36" y="138.994921"/>
     <use style="fill:#f8766d;stroke:#f8766d;" x="313.184253" xlink:href="#m99db681f36" y="161.983729"/>
     <use style="fill:#f8766d;stroke:#f8766d;" x="417.897255" xlink:href="#m99db681f36" y="150.563334"/>
     <use style="fill:#f8766d;stroke:#f8766d;" x="404.135892" xlink:href="#m99db681f36" y="351.863304"/>
     <use style="fill:#f8766d;stroke:#f8766d;" x="365.516015" xlink:href="#m99db681f36" y="220.493307"/>
     <use style="fill:#f8766d;stroke:#f8766d;" x="440.060095" xlink:href="#m99db681f36" y="266.904298"/>
     <use style="fill:#f8766d;stroke:#f8766d;" x="428.31802" xlink:href="#m99db681f36" y="278.911564"/>
     <use style="fill:#f8766d;stroke:#f8766d;" x="377.618297" xlink:href="#m99db681f36" y="140.633264"/>
     <use style="fill:#f8766d;stroke:#f8766d;" x="401.593761" xlink:href="#m99db681f36" y="83.878806"/>
     <use style="fill:#f8766d;stroke:#f8766d;" x="332.548468" xlink:href="#m99db681f36" y="226.359716"/>
     <use style="fill:#f8766d;stroke:#f8766d;" x="302.608466" xlink:href="#m99db681f36" y="239.25854"/>
     <use style="fill:#f8766d;stroke:#f8766d;" x="291.736614" xlink:href="#m99db681f36" y="247.43398"/>
     <use style="fill:#f8766d;stroke:#f8766d;" x="427.738013" xlink:href="#m99db681f36" y="121.527226"/>
     <use style="fill:#f8766d;stroke:#f8766d;" x="414.531228" xlink:href="#m99db681f36" y="360.84056"/>
     <use style="fill:#f8766d;stroke:#f8766d;" x="362.497277" xlink:href="#m99db681f36" y="245.111823"/>
     <use style="fill:#f8766d;stroke:#f8766d;" x="379.501045" xlink:href="#m99db681f36" y="238.521631"/>
     <use style="fill:#f8766d;stroke:#f8766d;" x="476.447931" xlink:href="#m99db681f36" y="91.002733"/>
     <use style="fill:#f8766d;stroke:#f8766d;" x="381.12667" xlink:href="#m99db681f36" y="241.942234"/>
     <use style="fill:#f8766d;stroke:#f8766d;" x="416.66452" xlink:href="#m99db681f36" y="235.277222"/>
     <use style="fill:#f8766d;stroke:#f8766d;" x="409.007143" xlink:href="#m99db681f36" y="201.921466"/>
     <use style="fill:#f8766d;stroke:#f8766d;" x="408.292953" xlink:href="#m99db681f36" y="207.65793"/>
     <use style="fill:#f8766d;stroke:#f8766d;" x="460.20675" xlink:href="#m99db681f36" y="220.85377"/>
     <use style="fill:#f8766d;stroke:#f8766d;" x="520.494074" xlink:href="#m99db681f36" y="183.366491"/>
     <use style="fill:#f8766d;stroke:#f8766d;" x="463.61018" xlink:href="#m99db681f36" y="200.419246"/>
     <use style="fill:#f8766d;stroke:#f8766d;" x="311.431018" xlink:href="#m99db681f36" y="298.966711"/>
     <use style="fill:#f8766d;stroke:#f8766d;" x="370.057445" xlink:href="#m99db681f36" y="71.235836"/>
     <use style="fill:#f8766d;stroke:#f8766d;" x="262.970586" xlink:href="#m99db681f36" y="289.454208"/>
     <use style="fill:#f8766d;stroke:#f8766d;" x="295.680978" xlink:href="#m99db681f36" y="315.96521"/>
     <use style="fill:#f8766d;stroke:#f8766d;" x="411.661665" xlink:href="#m99db681f36" y="96.100007"/>
     <use style="fill:#f8766d;stroke:#f8766d;" x="359.219413" xlink:href="#m99db681f36" y="68.99944"/>
     <use style="fill:#f8766d;stroke:#f8766d;" x="338.879332" xlink:href="#m99db681f36" y="296.460331"/>
     <use style="fill:#f8766d;stroke:#f8766d;" x="226.286641" xlink:href="#m99db681f36" y="284.140117"/>
     <use style="fill:#f8766d;stroke:#f8766d;" x="160.858547" xlink:href="#m99db681f36" y="205.240915"/>
     <use style="fill:#f8766d;stroke:#f8766d;" x="117.814685" xlink:href="#m99db681f36" y="229.853539"/>
     <use style="fill:#f8766d;stroke:#f8766d;" x="124.938087" xlink:href="#m99db681f36" y="219.004543"/>
     <use style="fill:#f8766d;stroke:#f8766d;" x="284.746678" xlink:href="#m99db681f36" y="193.691388"/>
     <use style="fill:#f8766d;stroke:#f8766d;" x="134.064378" xlink:href="#m99db681f36" y="211.581458"/>
     <use style="fill:#f8766d;stroke:#f8766d;" x="158.076907" xlink:href="#m99db681f36" y="225.887334"/>
     <use style="fill:#f8766d;stroke:#f8766d;" x="251.093644" xlink:href="#m99db681f36" y="193.835446"/>
     <use style="fill:#f8766d;stroke:#f8766d;" x="411.997639" xlink:href="#m99db681f36" y="181.075755"/>
     <use style="fill:#f8766d;stroke:#f8766d;" x="357.870678" xlink:href="#m99db681f36" y="189.3712"/>
     <use style="fill:#f8766d;stroke:#f8766d;" x="230.679969" xlink:href="#m99db681f36" y="188.952179"/>
     <use style="fill:#f8766d;stroke:#f8766d;" x="287.550239" xlink:href="#m99db681f36" y="292.924177"/>
     <use style="fill:#f8766d;stroke:#f8766d;" x="610.840368" xlink:href="#m99db681f36" y="247.071451"/>
     <use style="fill:#f8766d;stroke:#f8766d;" x="425.544755" xlink:href="#m99db681f36" y="327.209644"/>
    </g>
   </g>
   <g id="matplotlib.axis_1">
    <g id="xtick_1">
     <g id="line2d_1">
      <defs>
       <path d="M 0 0 
L 0 3.5 
" id="m0a068814ea" style="stroke:#000000;stroke-width:0.8;"/>
      </defs>
      <g>
       <use style="stroke:#000000;stroke-width:0.8;" x="106.237503" xlink:href="#m0a068814ea" y="378"/>
      </g>
     </g>
     <g id="text_1">
      <!-- −8 -->
      <defs>
       <path d="M 10.59375 35.5 
L 73.1875 35.5 
L 73.1875 27.203125 
L 10.59375 27.203125 
z
" id="DejaVuSans-8722"/>
       <path d="M 31.78125 34.625 
Q 24.75 34.625 20.71875 30.859375 
Q 16.703125 27.09375 16.703125 20.515625 
Q 16.703125 13.921875 20.71875 10.15625 
Q 24.75 6.390625 31.78125 6.390625 
Q 38.8125 6.390625 42.859375 10.171875 
Q 46.921875 13.96875 46.921875 20.515625 
Q 46.921875 27.09375 42.890625 30.859375 
Q 38.875 34.625 31.78125 34.625 
z
M 21.921875 38.8125 
Q 15.578125 40.375 12.03125 44.71875 
Q 8.5 49.078125 8.5 55.328125 
Q 8.5 64.0625 14.71875 69.140625 
Q 20.953125 74.21875 31.78125 74.21875 
Q 42.671875 74.21875 48.875 69.140625 
Q 55.078125 64.0625 55.078125 55.328125 
Q 55.078125 49.078125 51.53125 44.71875 
Q 48 40.375 41.703125 38.8125 
Q 48.828125 37.15625 52.796875 32.3125 
Q 56.78125 27.484375 56.78125 20.515625 
Q 56.78125 9.90625 50.3125 4.234375 
Q 43.84375 -1.421875 31.78125 -1.421875 
Q 19.734375 -1.421875 13.25 4.234375 
Q 6.78125 9.90625 6.78125 20.515625 
Q 6.78125 27.484375 10.78125 32.3125 
Q 14.796875 37.15625 21.921875 38.8125 
z
M 18.3125 54.390625 
Q 18.3125 48.734375 21.84375 45.5625 
Q 25.390625 42.390625 31.78125 42.390625 
Q 38.140625 42.390625 41.71875 45.5625 
Q 45.3125 48.734375 45.3125 54.390625 
Q 45.3125 60.0625 41.71875 63.234375 
Q 38.140625 66.40625 31.78125 66.40625 
Q 25.390625 66.40625 21.84375 63.234375 
Q 18.3125 60.0625 18.3125 54.390625 
z
" id="DejaVuSans-56"/>
      </defs>
      <g transform="translate(98.866409 392.598437)scale(0.1 -0.1)">
       <use xlink:href="#DejaVuSans-8722"/>
       <use x="83.789062" xlink:href="#DejaVuSans-56"/>
      </g>
     </g>
    </g>
    <g id="xtick_2">
     <g id="line2d_2">
      <g>
       <use style="stroke:#000000;stroke-width:0.8;" x="175.760334" xlink:href="#m0a068814ea" y="378"/>
      </g>
     </g>
     <g id="text_2">
      <!-- −6 -->
      <defs>
       <path d="M 33.015625 40.375 
Q 26.375 40.375 22.484375 35.828125 
Q 18.609375 31.296875 18.609375 23.390625 
Q 18.609375 15.53125 22.484375 10.953125 
Q 26.375 6.390625 33.015625 6.390625 
Q 39.65625 6.390625 43.53125 10.953125 
Q 47.40625 15.53125 47.40625 23.390625 
Q 47.40625 31.296875 43.53125 35.828125 
Q 39.65625 40.375 33.015625 40.375 
z
M 52.59375 71.296875 
L 52.59375 62.3125 
Q 48.875 64.0625 45.09375 64.984375 
Q 41.3125 65.921875 37.59375 65.921875 
Q 27.828125 65.921875 22.671875 59.328125 
Q 17.53125 52.734375 16.796875 39.40625 
Q 19.671875 43.65625 24.015625 45.921875 
Q 28.375 48.1875 33.59375 48.1875 
Q 44.578125 48.1875 50.953125 41.515625 
Q 57.328125 34.859375 57.328125 23.390625 
Q 57.328125 12.15625 50.6875 5.359375 
Q 44.046875 -1.421875 33.015625 -1.421875 
Q 20.359375 -1.421875 13.671875 8.265625 
Q 6.984375 17.96875 6.984375 36.375 
Q 6.984375 53.65625 15.1875 63.9375 
Q 23.390625 74.21875 37.203125 74.21875 
Q 40.921875 74.21875 44.703125 73.484375 
Q 48.484375 72.75 52.59375 71.296875 
z
" id="DejaVuSans-54"/>
      </defs>
      <g transform="translate(168.38924 392.598437)scale(0.1 -0.1)">
       <use xlink:href="#DejaVuSans-8722"/>
       <use x="83.789062" xlink:href="#DejaVuSans-54"/>
      </g>
     </g>
    </g>
    <g id="xtick_3">
     <g id="line2d_3">
      <g>
       <use style="stroke:#000000;stroke-width:0.8;" x="245.283165" xlink:href="#m0a068814ea" y="378"/>
      </g>
     </g>
     <g id="text_3">
      <!-- −4 -->
      <defs>
       <path d="M 37.796875 64.3125 
L 12.890625 25.390625 
L 37.796875 25.390625 
z
M 35.203125 72.90625 
L 47.609375 72.90625 
L 47.609375 25.390625 
L 58.015625 25.390625 
L 58.015625 17.1875 
L 47.609375 17.1875 
L 47.609375 0 
L 37.796875 0 
L 37.796875 17.1875 
L 4.890625 17.1875 
L 4.890625 26.703125 
z
" id="DejaVuSans-52"/>
      </defs>
      <g transform="translate(237.912071 392.598437)scale(0.1 -0.1)">
       <use xlink:href="#DejaVuSans-8722"/>
       <use x="83.789062" xlink:href="#DejaVuSans-52"/>
      </g>
     </g>
    </g>
    <g id="xtick_4">
     <g id="line2d_4">
      <g>
       <use style="stroke:#000000;stroke-width:0.8;" x="314.805995" xlink:href="#m0a068814ea" y="378"/>
      </g>
     </g>
     <g id="text_4">
      <!-- −2 -->
      <defs>
       <path d="M 19.1875 8.296875 
L 53.609375 8.296875 
L 53.609375 0 
L 7.328125 0 
L 7.328125 8.296875 
Q 12.9375 14.109375 22.625 23.890625 
Q 32.328125 33.6875 34.8125 36.53125 
Q 39.546875 41.84375 41.421875 45.53125 
Q 43.3125 49.21875 43.3125 52.78125 
Q 43.3125 58.59375 39.234375 62.25 
Q 35.15625 65.921875 28.609375 65.921875 
Q 23.96875 65.921875 18.8125 64.3125 
Q 13.671875 62.703125 7.8125 59.421875 
L 7.8125 69.390625 
Q 13.765625 71.78125 18.9375 73 
Q 24.125 74.21875 28.421875 74.21875 
Q 39.75 74.21875 46.484375 68.546875 
Q 53.21875 62.890625 53.21875 53.421875 
Q 53.21875 48.921875 51.53125 44.890625 
Q 49.859375 40.875 45.40625 35.40625 
Q 44.1875 33.984375 37.640625 27.21875 
Q 31.109375 20.453125 19.1875 8.296875 
z
" id="DejaVuSans-50"/>
      </defs>
      <g transform="translate(307.434902 392.598437)scale(0.1 -0.1)">
       <use xlink:href="#DejaVuSans-8722"/>
       <use x="83.789062" xlink:href="#DejaVuSans-50"/>
      </g>
     </g>
    </g>
    <g id="xtick_5">
     <g id="line2d_5">
      <g>
       <use style="stroke:#000000;stroke-width:0.8;" x="384.328826" xlink:href="#m0a068814ea" y="378"/>
      </g>
     </g>
     <g id="text_5">
      <!-- 0 -->
      <defs>
       <path d="M 31.78125 66.40625 
Q 24.171875 66.40625 20.328125 58.90625 
Q 16.5 51.421875 16.5 36.375 
Q 16.5 21.390625 20.328125 13.890625 
Q 24.171875 6.390625 31.78125 6.390625 
Q 39.453125 6.390625 43.28125 13.890625 
Q 47.125 21.390625 47.125 36.375 
Q 47.125 51.421875 43.28125 58.90625 
Q 39.453125 66.40625 31.78125 66.40625 
z
M 31.78125 74.21875 
Q 44.046875 74.21875 50.515625 64.515625 
Q 56.984375 54.828125 56.984375 36.375 
Q 56.984375 17.96875 50.515625 8.265625 
Q 44.046875 -1.421875 31.78125 -1.421875 
Q 19.53125 -1.421875 13.0625 8.265625 
Q 6.59375 17.96875 6.59375 36.375 
Q 6.59375 54.828125 13.0625 64.515625 
Q 19.53125 74.21875 31.78125 74.21875 
z
" id="DejaVuSans-48"/>
      </defs>
      <g transform="translate(381.147576 392.598437)scale(0.1 -0.1)">
       <use xlink:href="#DejaVuSans-48"/>
      </g>
     </g>
    </g>
    <g id="xtick_6">
     <g id="line2d_6">
      <g>
       <use style="stroke:#000000;stroke-width:0.8;" x="453.851657" xlink:href="#m0a068814ea" y="378"/>
      </g>
     </g>
     <g id="text_6">
      <!-- 2 -->
      <g transform="translate(450.670407 392.598437)scale(0.1 -0.1)">
       <use xlink:href="#DejaVuSans-50"/>
      </g>
     </g>
    </g>
    <g id="xtick_7">
     <g id="line2d_7">
      <g>
       <use style="stroke:#000000;stroke-width:0.8;" x="523.374488" xlink:href="#m0a068814ea" y="378"/>
      </g>
     </g>
     <g id="text_7">
      <!-- 4 -->
      <g transform="translate(520.193238 392.598437)scale(0.1 -0.1)">
       <use xlink:href="#DejaVuSans-52"/>
      </g>
     </g>
    </g>
    <g id="xtick_8">
     <g id="line2d_8">
      <g>
       <use style="stroke:#000000;stroke-width:0.8;" x="592.897318" xlink:href="#m0a068814ea" y="378"/>
      </g>
     </g>
     <g id="text_8">
      <!-- 6 -->
      <g transform="translate(589.716068 392.598437)scale(0.1 -0.1)">
       <use xlink:href="#DejaVuSans-54"/>
      </g>
     </g>
    </g>
    <g id="text_9">
     <!-- tSNE-1 -->
     <defs>
      <path d="M 18.3125 70.21875 
L 18.3125 54.6875 
L 36.8125 54.6875 
L 36.8125 47.703125 
L 18.3125 47.703125 
L 18.3125 18.015625 
Q 18.3125 11.328125 20.140625 9.421875 
Q 21.96875 7.515625 27.59375 7.515625 
L 36.8125 7.515625 
L 36.8125 0 
L 27.59375 0 
Q 17.1875 0 13.234375 3.875 
Q 9.28125 7.765625 9.28125 18.015625 
L 9.28125 47.703125 
L 2.6875 47.703125 
L 2.6875 54.6875 
L 9.28125 54.6875 
L 9.28125 70.21875 
z
" id="DejaVuSans-116"/>
      <path d="M 53.515625 70.515625 
L 53.515625 60.890625 
Q 47.90625 63.578125 42.921875 64.890625 
Q 37.9375 66.21875 33.296875 66.21875 
Q 25.25 66.21875 20.875 63.09375 
Q 16.5 59.96875 16.5 54.203125 
Q 16.5 49.359375 19.40625 46.890625 
Q 22.3125 44.4375 30.421875 42.921875 
L 36.375 41.703125 
Q 47.40625 39.59375 52.65625 34.296875 
Q 57.90625 29 57.90625 20.125 
Q 57.90625 9.515625 50.796875 4.046875 
Q 43.703125 -1.421875 29.984375 -1.421875 
Q 24.8125 -1.421875 18.96875 -0.25 
Q 13.140625 0.921875 6.890625 3.21875 
L 6.890625 13.375 
Q 12.890625 10.015625 18.65625 8.296875 
Q 24.421875 6.59375 29.984375 6.59375 
Q 38.421875 6.59375 43.015625 9.90625 
Q 47.609375 13.234375 47.609375 19.390625 
Q 47.609375 24.75 44.3125 27.78125 
Q 41.015625 30.8125 33.5 32.328125 
L 27.484375 33.5 
Q 16.453125 35.6875 11.515625 40.375 
Q 6.59375 45.0625 6.59375 53.421875 
Q 6.59375 63.09375 13.40625 68.65625 
Q 20.21875 74.21875 32.171875 74.21875 
Q 37.3125 74.21875 42.625 73.28125 
Q 47.953125 72.359375 53.515625 70.515625 
z
" id="DejaVuSans-83"/>
      <path d="M 9.8125 72.90625 
L 23.09375 72.90625 
L 55.421875 11.921875 
L 55.421875 72.90625 
L 64.984375 72.90625 
L 64.984375 0 
L 51.703125 0 
L 19.390625 60.984375 
L 19.390625 0 
L 9.8125 0 
z
" id="DejaVuSans-78"/>
      <path d="M 9.8125 72.90625 
L 55.90625 72.90625 
L 55.90625 64.59375 
L 19.671875 64.59375 
L 19.671875 43.015625 
L 54.390625 43.015625 
L 54.390625 34.71875 
L 19.671875 34.71875 
L 19.671875 8.296875 
L 56.78125 8.296875 
L 56.78125 0 
L 9.8125 0 
z
" id="DejaVuSans-69"/>
      <path d="M 4.890625 31.390625 
L 31.203125 31.390625 
L 31.203125 23.390625 
L 4.890625 23.390625 
z
" id="DejaVuSans-45"/>
      <path d="M 12.40625 8.296875 
L 28.515625 8.296875 
L 28.515625 63.921875 
L 10.984375 60.40625 
L 10.984375 69.390625 
L 28.421875 72.90625 
L 38.28125 72.90625 
L 38.28125 8.296875 
L 54.390625 8.296875 
L 54.390625 0 
L 12.40625 0 
z
" id="DejaVuSans-49"/>
     </defs>
     <g transform="translate(351.980469 406.276563)scale(0.1 -0.1)">
      <use xlink:href="#DejaVuSans-116"/>
      <use x="39.208984" xlink:href="#DejaVuSans-83"/>
      <use x="102.685547" xlink:href="#DejaVuSans-78"/>
      <use x="177.490234" xlink:href="#DejaVuSans-69"/>
      <use x="240.673828" xlink:href="#DejaVuSans-45"/>
      <use x="276.757812" xlink:href="#DejaVuSans-49"/>
     </g>
    </g>
   </g>
   <g id="matplotlib.axis_2">
    <g id="ytick_1">
     <g id="line2d_9">
      <defs>
       <path d="M 0 0 
L -3.5 0 
" id="m47f6cb848a" style="stroke:#000000;stroke-width:0.8;"/>
      </defs>
      <g>
       <use style="stroke:#000000;stroke-width:0.8;" x="90" xlink:href="#m47f6cb848a" y="366.276158"/>
      </g>
     </g>
     <g id="text_10">
      <!-- −4 -->
      <g transform="translate(68.257812 370.075377)scale(0.1 -0.1)">
       <use xlink:href="#DejaVuSans-8722"/>
       <use x="83.789062" xlink:href="#DejaVuSans-52"/>
      </g>
     </g>
    </g>
    <g id="ytick_2">
     <g id="line2d_10">
      <g>
       <use style="stroke:#000000;stroke-width:0.8;" x="90" xlink:href="#m47f6cb848a" y="323.904238"/>
      </g>
     </g>
     <g id="text_11">
      <!-- −2 -->
      <g transform="translate(68.257812 327.703456)scale(0.1 -0.1)">
       <use xlink:href="#DejaVuSans-8722"/>
       <use x="83.789062" xlink:href="#DejaVuSans-50"/>
      </g>
     </g>
    </g>
    <g id="ytick_3">
     <g id="line2d_11">
      <g>
       <use style="stroke:#000000;stroke-width:0.8;" x="90" xlink:href="#m47f6cb848a" y="281.532317"/>
      </g>
     </g>
     <g id="text_12">
      <!-- 0 -->
      <g transform="translate(76.6375 285.331536)scale(0.1 -0.1)">
       <use xlink:href="#DejaVuSans-48"/>
      </g>
     </g>
    </g>
    <g id="ytick_4">
     <g id="line2d_12">
      <g>
       <use style="stroke:#000000;stroke-width:0.8;" x="90" xlink:href="#m47f6cb848a" y="239.160397"/>
      </g>
     </g>
     <g id="text_13">
      <!-- 2 -->
      <g transform="translate(76.6375 242.959615)scale(0.1 -0.1)">
       <use xlink:href="#DejaVuSans-50"/>
      </g>
     </g>
    </g>
    <g id="ytick_5">
     <g id="line2d_13">
      <g>
       <use style="stroke:#000000;stroke-width:0.8;" x="90" xlink:href="#m47f6cb848a" y="196.788476"/>
      </g>
     </g>
     <g id="text_14">
      <!-- 4 -->
      <g transform="translate(76.6375 200.587695)scale(0.1 -0.1)">
       <use xlink:href="#DejaVuSans-52"/>
      </g>
     </g>
    </g>
    <g id="ytick_6">
     <g id="line2d_14">
      <g>
       <use style="stroke:#000000;stroke-width:0.8;" x="90" xlink:href="#m47f6cb848a" y="154.416556"/>
      </g>
     </g>
     <g id="text_15">
      <!-- 6 -->
      <g transform="translate(76.6375 158.215774)scale(0.1 -0.1)">
       <use xlink:href="#DejaVuSans-54"/>
      </g>
     </g>
    </g>
    <g id="ytick_7">
     <g id="line2d_15">
      <g>
       <use style="stroke:#000000;stroke-width:0.8;" x="90" xlink:href="#m47f6cb848a" y="112.044635"/>
      </g>
     </g>
     <g id="text_16">
      <!-- 8 -->
      <g transform="translate(76.6375 115.843854)scale(0.1 -0.1)">
       <use xlink:href="#DejaVuSans-56"/>
      </g>
     </g>
    </g>
    <g id="ytick_8">
     <g id="line2d_16">
      <g>
       <use style="stroke:#000000;stroke-width:0.8;" x="90" xlink:href="#m47f6cb848a" y="69.672715"/>
      </g>
     </g>
     <g id="text_17">
      <!-- 10 -->
      <g transform="translate(70.275 73.471933)scale(0.1 -0.1)">
       <use xlink:href="#DejaVuSans-49"/>
       <use x="63.623047" xlink:href="#DejaVuSans-48"/>
      </g>
     </g>
    </g>
    <g id="text_18">
     <!-- tSNE-2 -->
     <g transform="translate(62.178125 231.939531)rotate(-90)scale(0.1 -0.1)">
      <use xlink:href="#DejaVuSans-116"/>
      <use x="39.208984" xlink:href="#DejaVuSans-83"/>
      <use x="102.685547" xlink:href="#DejaVuSans-78"/>
      <use x="177.490234" xlink:href="#DejaVuSans-69"/>
      <use x="240.673828" xlink:href="#DejaVuSans-45"/>
      <use x="276.757812" xlink:href="#DejaVuSans-50"/>
     </g>
    </g>
   </g>
   <g id="patch_3">
    <path d="M 90 378 
L 90 51.84 
" style="fill:none;stroke:#000000;stroke-linecap:square;stroke-linejoin:miter;stroke-width:0.8;"/>
   </g>
   <g id="patch_4">
    <path d="M 648 378 
L 648 51.84 
" style="fill:none;stroke:#000000;stroke-linecap:square;stroke-linejoin:miter;stroke-width:0.8;"/>
   </g>
   <g id="patch_5">
    <path d="M 90 378 
L 648 378 
" style="fill:none;stroke:#000000;stroke-linecap:square;stroke-linejoin:miter;stroke-width:0.8;"/>
   </g>
   <g id="patch_6">
    <path d="M 90 51.84 
L 648 51.84 
" style="fill:none;stroke:#000000;stroke-linecap:square;stroke-linejoin:miter;stroke-width:0.8;"/>
   </g>
   <g id="legend_1">
    <g id="patch_7">
     <path d="M 563.125 89.19625 
L 641 89.19625 
Q 643 89.19625 643 87.19625 
L 643 58.84 
Q 643 56.84 641 56.84 
L 563.125 56.84 
Q 561.125 56.84 561.125 58.84 
L 561.125 87.19625 
Q 561.125 89.19625 563.125 89.19625 
z
" style="fill:#ffffff;opacity:0.8;stroke:#cccccc;stroke-linejoin:miter;"/>
    </g>
    <g id="PathCollection_3">
     <g>
      <use style="fill:#00bfc4;stroke:#00bfc4;" x="575.125" xlink:href="#mb5c8b94540" y="65.813437"/>
     </g>
    </g>
    <g id="text_19">
     <!-- D006262 -->
     <defs>
      <path d="M 19.671875 64.796875 
L 19.671875 8.109375 
L 31.59375 8.109375 
Q 46.6875 8.109375 53.6875 14.9375 
Q 60.6875 21.78125 60.6875 36.53125 
Q 60.6875 51.171875 53.6875 57.984375 
Q 46.6875 64.796875 31.59375 64.796875 
z
M 9.8125 72.90625 
L 30.078125 72.90625 
Q 51.265625 72.90625 61.171875 64.09375 
Q 71.09375 55.28125 71.09375 36.53125 
Q 71.09375 17.671875 61.125 8.828125 
Q 51.171875 0 30.078125 0 
L 9.8125 0 
z
" id="DejaVuSans-68"/>
     </defs>
     <g transform="translate(593.125 68.438437)scale(0.1 -0.1)">
      <use xlink:href="#DejaVuSans-68"/>
      <use x="77.001953" xlink:href="#DejaVuSans-48"/>
      <use x="140.625" xlink:href="#DejaVuSans-48"/>
      <use x="204.248047" xlink:href="#DejaVuSans-54"/>
      <use x="267.871094" xlink:href="#DejaVuSans-50"/>
      <use x="331.494141" xlink:href="#DejaVuSans-54"/>
      <use x="395.117188" xlink:href="#DejaVuSans-50"/>
     </g>
    </g>
    <g id="PathCollection_4">
     <g>
      <use style="fill:#f8766d;stroke:#f8766d;" x="575.125" xlink:href="#m99db681f36" y="80.491562"/>
     </g>
    </g>
    <g id="text_20">
     <!-- D012400 -->
     <g transform="translate(593.125 83.116562)scale(0.1 -0.1)">
      <use xlink:href="#DejaVuSans-68"/>
      <use x="77.001953" xlink:href="#DejaVuSans-48"/>
      <use x="140.625" xlink:href="#DejaVuSans-49"/>
      <use x="204.248047" xlink:href="#DejaVuSans-50"/>
      <use x="267.871094" xlink:href="#DejaVuSans-52"/>
      <use x="331.494141" xlink:href="#DejaVuSans-48"/>
      <use x="395.117188" xlink:href="#DejaVuSans-48"/>
     </g>
    </g>
   </g>
  </g>
 </g>
 <defs>
  <clipPath id="p5046ace0b0">
   <rect height="326.16" width="558" x="90" y="51.84"/>
  </clipPath>
 </defs>
</svg>
