<?xml version="1.0" encoding="utf-8" standalone="no"?>
<!DOCTYPE svg PUBLIC "-//W3C//DTD SVG 1.1//EN"
  "http://www.w3.org/Graphics/SVG/1.1/DTD/svg11.dtd">
<!-- Created with matplotlib (https://matplotlib.org/) -->
<svg height="576pt" version="1.1" viewBox="0 0 576 576" width="576pt" xmlns="http://www.w3.org/2000/svg" xmlns:xlink="http://www.w3.org/1999/xlink">
 <defs>
  <style type="text/css">
*{stroke-linecap:butt;stroke-linejoin:round;}
  </style>
 </defs>
 <g id="figure_1">
  <g id="patch_1">
   <path d="M 0 576 
L 576 576 
L 576 0 
L 0 0 
z
" style="fill:#ffffff;"/>
  </g>
  <g id="axes_1">
   <g id="patch_2">
    <path d="M 72 512.64 
L 518.4 512.64 
L 518.4 69.12 
L 72 69.12 
z
" style="fill:#ffffff;"/>
   </g>
   <g id="matplotlib.axis_1">
    <g id="xtick_1">
     <g id="line2d_1">
      <path clip-path="url(#p1641c38231)" d="M 72 512.64 
L 72 69.12 
" style="fill:none;stroke:#b0b0b0;stroke-linecap:square;stroke-width:0.8;"/>
     </g>
     <g id="line2d_2">
      <defs>
       <path d="M 0 0 
L 0 3.5 
" id="md2c5bdaf99" style="stroke:#000000;stroke-width:0.8;"/>
      </defs>
      <g>
       <use style="stroke:#000000;stroke-width:0.8;" x="72" xlink:href="#md2c5bdaf99" y="512.64"/>
      </g>
     </g>
     <g id="text_1">
      <!-- 0.0 -->
      <defs>
       <path d="M 31.78125 66.40625 
Q 24.171875 66.40625 20.328125 58.90625 
Q 16.5 51.421875 16.5 36.375 
Q 16.5 21.390625 20.328125 13.890625 
Q 24.171875 6.390625 31.78125 6.390625 
Q 39.453125 6.390625 43.28125 13.890625 
Q 47.125 21.390625 47.125 36.375 
Q 47.125 51.421875 43.28125 58.90625 
Q 39.453125 66.40625 31.78125 66.40625 
z
M 31.78125 74.21875 
Q 44.046875 74.21875 50.515625 64.515625 
Q 56.984375 54.828125 56.984375 36.375 
Q 56.984375 17.96875 50.515625 8.265625 
Q 44.046875 -1.421875 31.78125 -1.421875 
Q 19.53125 -1.421875 13.0625 8.265625 
Q 6.59375 17.96875 6.59375 36.375 
Q 6.59375 54.828125 13.0625 64.515625 
Q 19.53125 74.21875 31.78125 74.21875 
z
" id="DejaVuSans-48"/>
       <path d="M 10.6875 12.40625 
L 21 12.40625 
L 21 0 
L 10.6875 0 
z
" id="DejaVuSans-46"/>
      </defs>
      <g transform="translate(64.048438 527.238438)scale(0.1 -0.1)">
       <use xlink:href="#DejaVuSans-48"/>
       <use x="63.623047" xlink:href="#DejaVuSans-46"/>
       <use x="95.410156" xlink:href="#DejaVuSans-48"/>
      </g>
     </g>
    </g>
    <g id="xtick_2">
     <g id="line2d_3">
      <path clip-path="url(#p1641c38231)" d="M 161.28 512.64 
L 161.28 69.12 
" style="fill:none;stroke:#b0b0b0;stroke-linecap:square;stroke-width:0.8;"/>
     </g>
     <g id="line2d_4">
      <g>
       <use style="stroke:#000000;stroke-width:0.8;" x="161.28" xlink:href="#md2c5bdaf99" y="512.64"/>
      </g>
     </g>
     <g id="text_2">
      <!-- 0.2 -->
      <defs>
       <path d="M 19.1875 8.296875 
L 53.609375 8.296875 
L 53.609375 0 
L 7.328125 0 
L 7.328125 8.296875 
Q 12.9375 14.109375 22.625 23.890625 
Q 32.328125 33.6875 34.8125 36.53125 
Q 39.546875 41.84375 41.421875 45.53125 
Q 43.3125 49.21875 43.3125 52.78125 
Q 43.3125 58.59375 39.234375 62.25 
Q 35.15625 65.921875 28.609375 65.921875 
Q 23.96875 65.921875 18.8125 64.3125 
Q 13.671875 62.703125 7.8125 59.421875 
L 7.8125 69.390625 
Q 13.765625 71.78125 18.9375 73 
Q 24.125 74.21875 28.421875 74.21875 
Q 39.75 74.21875 46.484375 68.546875 
Q 53.21875 62.890625 53.21875 53.421875 
Q 53.21875 48.921875 51.53125 44.890625 
Q 49.859375 40.875 45.40625 35.40625 
Q 44.1875 33.984375 37.640625 27.21875 
Q 31.109375 20.453125 19.1875 8.296875 
z
" id="DejaVuSans-50"/>
      </defs>
      <g transform="translate(153.328438 527.238438)scale(0.1 -0.1)">
       <use xlink:href="#DejaVuSans-48"/>
       <use x="63.623047" xlink:href="#DejaVuSans-46"/>
       <use x="95.410156" xlink:href="#DejaVuSans-50"/>
      </g>
     </g>
    </g>
    <g id="xtick_3">
     <g id="line2d_5">
      <path clip-path="url(#p1641c38231)" d="M 250.56 512.64 
L 250.56 69.12 
" style="fill:none;stroke:#b0b0b0;stroke-linecap:square;stroke-width:0.8;"/>
     </g>
     <g id="line2d_6">
      <g>
       <use style="stroke:#000000;stroke-width:0.8;" x="250.56" xlink:href="#md2c5bdaf99" y="512.64"/>
      </g>
     </g>
     <g id="text_3">
      <!-- 0.4 -->
      <defs>
       <path d="M 37.796875 64.3125 
L 12.890625 25.390625 
L 37.796875 25.390625 
z
M 35.203125 72.90625 
L 47.609375 72.90625 
L 47.609375 25.390625 
L 58.015625 25.390625 
L 58.015625 17.1875 
L 47.609375 17.1875 
L 47.609375 0 
L 37.796875 0 
L 37.796875 17.1875 
L 4.890625 17.1875 
L 4.890625 26.703125 
z
" id="DejaVuSans-52"/>
      </defs>
      <g transform="translate(242.608438 527.238438)scale(0.1 -0.1)">
       <use xlink:href="#DejaVuSans-48"/>
       <use x="63.623047" xlink:href="#DejaVuSans-46"/>
       <use x="95.410156" xlink:href="#DejaVuSans-52"/>
      </g>
     </g>
    </g>
    <g id="xtick_4">
     <g id="line2d_7">
      <path clip-path="url(#p1641c38231)" d="M 339.84 512.64 
L 339.84 69.12 
" style="fill:none;stroke:#b0b0b0;stroke-linecap:square;stroke-width:0.8;"/>
     </g>
     <g id="line2d_8">
      <g>
       <use style="stroke:#000000;stroke-width:0.8;" x="339.84" xlink:href="#md2c5bdaf99" y="512.64"/>
      </g>
     </g>
     <g id="text_4">
      <!-- 0.6 -->
      <defs>
       <path d="M 33.015625 40.375 
Q 26.375 40.375 22.484375 35.828125 
Q 18.609375 31.296875 18.609375 23.390625 
Q 18.609375 15.53125 22.484375 10.953125 
Q 26.375 6.390625 33.015625 6.390625 
Q 39.65625 6.390625 43.53125 10.953125 
Q 47.40625 15.53125 47.40625 23.390625 
Q 47.40625 31.296875 43.53125 35.828125 
Q 39.65625 40.375 33.015625 40.375 
z
M 52.59375 71.296875 
L 52.59375 62.3125 
Q 48.875 64.0625 45.09375 64.984375 
Q 41.3125 65.921875 37.59375 65.921875 
Q 27.828125 65.921875 22.671875 59.328125 
Q 17.53125 52.734375 16.796875 39.40625 
Q 19.671875 43.65625 24.015625 45.921875 
Q 28.375 48.1875 33.59375 48.1875 
Q 44.578125 48.1875 50.953125 41.515625 
Q 57.328125 34.859375 57.328125 23.390625 
Q 57.328125 12.15625 50.6875 5.359375 
Q 44.046875 -1.421875 33.015625 -1.421875 
Q 20.359375 -1.421875 13.671875 8.265625 
Q 6.984375 17.96875 6.984375 36.375 
Q 6.984375 53.65625 15.1875 63.9375 
Q 23.390625 74.21875 37.203125 74.21875 
Q 40.921875 74.21875 44.703125 73.484375 
Q 48.484375 72.75 52.59375 71.296875 
z
" id="DejaVuSans-54"/>
      </defs>
      <g transform="translate(331.888438 527.238438)scale(0.1 -0.1)">
       <use xlink:href="#DejaVuSans-48"/>
       <use x="63.623047" xlink:href="#DejaVuSans-46"/>
       <use x="95.410156" xlink:href="#DejaVuSans-54"/>
      </g>
     </g>
    </g>
    <g id="xtick_5">
     <g id="line2d_9">
      <path clip-path="url(#p1641c38231)" d="M 429.12 512.64 
L 429.12 69.12 
" style="fill:none;stroke:#b0b0b0;stroke-linecap:square;stroke-width:0.8;"/>
     </g>
     <g id="line2d_10">
      <g>
       <use style="stroke:#000000;stroke-width:0.8;" x="429.12" xlink:href="#md2c5bdaf99" y="512.64"/>
      </g>
     </g>
     <g id="text_5">
      <!-- 0.8 -->
      <defs>
       <path d="M 31.78125 34.625 
Q 24.75 34.625 20.71875 30.859375 
Q 16.703125 27.09375 16.703125 20.515625 
Q 16.703125 13.921875 20.71875 10.15625 
Q 24.75 6.390625 31.78125 6.390625 
Q 38.8125 6.390625 42.859375 10.171875 
Q 46.921875 13.96875 46.921875 20.515625 
Q 46.921875 27.09375 42.890625 30.859375 
Q 38.875 34.625 31.78125 34.625 
z
M 21.921875 38.8125 
Q 15.578125 40.375 12.03125 44.71875 
Q 8.5 49.078125 8.5 55.328125 
Q 8.5 64.0625 14.71875 69.140625 
Q 20.953125 74.21875 31.78125 74.21875 
Q 42.671875 74.21875 48.875 69.140625 
Q 55.078125 64.0625 55.078125 55.328125 
Q 55.078125 49.078125 51.53125 44.71875 
Q 48 40.375 41.703125 38.8125 
Q 48.828125 37.15625 52.796875 32.3125 
Q 56.78125 27.484375 56.78125 20.515625 
Q 56.78125 9.90625 50.3125 4.234375 
Q 43.84375 -1.421875 31.78125 -1.421875 
Q 19.734375 -1.421875 13.25 4.234375 
Q 6.78125 9.90625 6.78125 20.515625 
Q 6.78125 27.484375 10.78125 32.3125 
Q 14.796875 37.15625 21.921875 38.8125 
z
M 18.3125 54.390625 
Q 18.3125 48.734375 21.84375 45.5625 
Q 25.390625 42.390625 31.78125 42.390625 
Q 38.140625 42.390625 41.71875 45.5625 
Q 45.3125 48.734375 45.3125 54.390625 
Q 45.3125 60.0625 41.71875 63.234375 
Q 38.140625 66.40625 31.78125 66.40625 
Q 25.390625 66.40625 21.84375 63.234375 
Q 18.3125 60.0625 18.3125 54.390625 
z
" id="DejaVuSans-56"/>
      </defs>
      <g transform="translate(421.168437 527.238438)scale(0.1 -0.1)">
       <use xlink:href="#DejaVuSans-48"/>
       <use x="63.623047" xlink:href="#DejaVuSans-46"/>
       <use x="95.410156" xlink:href="#DejaVuSans-56"/>
      </g>
     </g>
    </g>
    <g id="xtick_6">
     <g id="line2d_11">
      <path clip-path="url(#p1641c38231)" d="M 518.4 512.64 
L 518.4 69.12 
" style="fill:none;stroke:#b0b0b0;stroke-linecap:square;stroke-width:0.8;"/>
     </g>
     <g id="line2d_12">
      <g>
       <use style="stroke:#000000;stroke-width:0.8;" x="518.4" xlink:href="#md2c5bdaf99" y="512.64"/>
      </g>
     </g>
     <g id="text_6">
      <!-- 1.0 -->
      <defs>
       <path d="M 12.40625 8.296875 
L 28.515625 8.296875 
L 28.515625 63.921875 
L 10.984375 60.40625 
L 10.984375 69.390625 
L 28.421875 72.90625 
L 38.28125 72.90625 
L 38.28125 8.296875 
L 54.390625 8.296875 
L 54.390625 0 
L 12.40625 0 
z
" id="DejaVuSans-49"/>
      </defs>
      <g transform="translate(510.448437 527.238438)scale(0.1 -0.1)">
       <use xlink:href="#DejaVuSans-49"/>
       <use x="63.623047" xlink:href="#DejaVuSans-46"/>
       <use x="95.410156" xlink:href="#DejaVuSans-48"/>
      </g>
     </g>
    </g>
    <g id="text_7">
     <!-- False Positive Rate -->
     <defs>
      <path d="M 9.8125 72.90625 
L 51.703125 72.90625 
L 51.703125 64.59375 
L 19.671875 64.59375 
L 19.671875 43.109375 
L 48.578125 43.109375 
L 48.578125 34.8125 
L 19.671875 34.8125 
L 19.671875 0 
L 9.8125 0 
z
" id="DejaVuSans-70"/>
      <path d="M 34.28125 27.484375 
Q 23.390625 27.484375 19.1875 25 
Q 14.984375 22.515625 14.984375 16.5 
Q 14.984375 11.71875 18.140625 8.90625 
Q 21.296875 6.109375 26.703125 6.109375 
Q 34.1875 6.109375 38.703125 11.40625 
Q 43.21875 16.703125 43.21875 25.484375 
L 43.21875 27.484375 
z
M 52.203125 31.203125 
L 52.203125 0 
L 43.21875 0 
L 43.21875 8.296875 
Q 40.140625 3.328125 35.546875 0.953125 
Q 30.953125 -1.421875 24.3125 -1.421875 
Q 15.921875 -1.421875 10.953125 3.296875 
Q 6 8.015625 6 15.921875 
Q 6 25.140625 12.171875 29.828125 
Q 18.359375 34.515625 30.609375 34.515625 
L 43.21875 34.515625 
L 43.21875 35.40625 
Q 43.21875 41.609375 39.140625 45 
Q 35.0625 48.390625 27.6875 48.390625 
Q 23 48.390625 18.546875 47.265625 
Q 14.109375 46.140625 10.015625 43.890625 
L 10.015625 52.203125 
Q 14.9375 54.109375 19.578125 55.046875 
Q 24.21875 56 28.609375 56 
Q 40.484375 56 46.34375 49.84375 
Q 52.203125 43.703125 52.203125 31.203125 
z
" id="DejaVuSans-97"/>
      <path d="M 9.421875 75.984375 
L 18.40625 75.984375 
L 18.40625 0 
L 9.421875 0 
z
" id="DejaVuSans-108"/>
      <path d="M 44.28125 53.078125 
L 44.28125 44.578125 
Q 40.484375 46.53125 36.375 47.5 
Q 32.28125 48.484375 27.875 48.484375 
Q 21.1875 48.484375 17.84375 46.4375 
Q 14.5 44.390625 14.5 40.28125 
Q 14.5 37.15625 16.890625 35.375 
Q 19.28125 33.59375 26.515625 31.984375 
L 29.59375 31.296875 
Q 39.15625 29.25 43.1875 25.515625 
Q 47.21875 21.78125 47.21875 15.09375 
Q 47.21875 7.46875 41.1875 3.015625 
Q 35.15625 -1.421875 24.609375 -1.421875 
Q 20.21875 -1.421875 15.453125 -0.5625 
Q 10.6875 0.296875 5.421875 2 
L 5.421875 11.28125 
Q 10.40625 8.6875 15.234375 7.390625 
Q 20.0625 6.109375 24.8125 6.109375 
Q 31.15625 6.109375 34.5625 8.28125 
Q 37.984375 10.453125 37.984375 14.40625 
Q 37.984375 18.0625 35.515625 20.015625 
Q 33.0625 21.96875 24.703125 23.78125 
L 21.578125 24.515625 
Q 13.234375 26.265625 9.515625 29.90625 
Q 5.8125 33.546875 5.8125 39.890625 
Q 5.8125 47.609375 11.28125 51.796875 
Q 16.75 56 26.8125 56 
Q 31.78125 56 36.171875 55.265625 
Q 40.578125 54.546875 44.28125 53.078125 
z
" id="DejaVuSans-115"/>
      <path d="M 56.203125 29.59375 
L 56.203125 25.203125 
L 14.890625 25.203125 
Q 15.484375 15.921875 20.484375 11.0625 
Q 25.484375 6.203125 34.421875 6.203125 
Q 39.59375 6.203125 44.453125 7.46875 
Q 49.3125 8.734375 54.109375 11.28125 
L 54.109375 2.78125 
Q 49.265625 0.734375 44.1875 -0.34375 
Q 39.109375 -1.421875 33.890625 -1.421875 
Q 20.796875 -1.421875 13.15625 6.1875 
Q 5.515625 13.8125 5.515625 26.8125 
Q 5.515625 40.234375 12.765625 48.109375 
Q 20.015625 56 32.328125 56 
Q 43.359375 56 49.78125 48.890625 
Q 56.203125 41.796875 56.203125 29.59375 
z
M 47.21875 32.234375 
Q 47.125 39.59375 43.09375 43.984375 
Q 39.0625 48.390625 32.421875 48.390625 
Q 24.90625 48.390625 20.390625 44.140625 
Q 15.875 39.890625 15.1875 32.171875 
z
" id="DejaVuSans-101"/>
      <path id="DejaVuSans-32"/>
      <path d="M 19.671875 64.796875 
L 19.671875 37.40625 
L 32.078125 37.40625 
Q 38.96875 37.40625 42.71875 40.96875 
Q 46.484375 44.53125 46.484375 51.125 
Q 46.484375 57.671875 42.71875 61.234375 
Q 38.96875 64.796875 32.078125 64.796875 
z
M 9.8125 72.90625 
L 32.078125 72.90625 
Q 44.34375 72.90625 50.609375 67.359375 
Q 56.890625 61.8125 56.890625 51.125 
Q 56.890625 40.328125 50.609375 34.8125 
Q 44.34375 29.296875 32.078125 29.296875 
L 19.671875 29.296875 
L 19.671875 0 
L 9.8125 0 
z
" id="DejaVuSans-80"/>
      <path d="M 30.609375 48.390625 
Q 23.390625 48.390625 19.1875 42.75 
Q 14.984375 37.109375 14.984375 27.296875 
Q 14.984375 17.484375 19.15625 11.84375 
Q 23.34375 6.203125 30.609375 6.203125 
Q 37.796875 6.203125 41.984375 11.859375 
Q 46.1875 17.53125 46.1875 27.296875 
Q 46.1875 37.015625 41.984375 42.703125 
Q 37.796875 48.390625 30.609375 48.390625 
z
M 30.609375 56 
Q 42.328125 56 49.015625 48.375 
Q 55.71875 40.765625 55.71875 27.296875 
Q 55.71875 13.875 49.015625 6.21875 
Q 42.328125 -1.421875 30.609375 -1.421875 
Q 18.84375 -1.421875 12.171875 6.21875 
Q 5.515625 13.875 5.515625 27.296875 
Q 5.515625 40.765625 12.171875 48.375 
Q 18.84375 56 30.609375 56 
z
" id="DejaVuSans-111"/>
      <path d="M 9.421875 54.6875 
L 18.40625 54.6875 
L 18.40625 0 
L 9.421875 0 
z
M 9.421875 75.984375 
L 18.40625 75.984375 
L 18.40625 64.59375 
L 9.421875 64.59375 
z
" id="DejaVuSans-105"/>
      <path d="M 18.3125 70.21875 
L 18.3125 54.6875 
L 36.8125 54.6875 
L 36.8125 47.703125 
L 18.3125 47.703125 
L 18.3125 18.015625 
Q 18.3125 11.328125 20.140625 9.421875 
Q 21.96875 7.515625 27.59375 7.515625 
L 36.8125 7.515625 
L 36.8125 0 
L 27.59375 0 
Q 17.1875 0 13.234375 3.875 
Q 9.28125 7.765625 9.28125 18.015625 
L 9.28125 47.703125 
L 2.6875 47.703125 
L 2.6875 54.6875 
L 9.28125 54.6875 
L 9.28125 70.21875 
z
" id="DejaVuSans-116"/>
      <path d="M 2.984375 54.6875 
L 12.5 54.6875 
L 29.59375 8.796875 
L 46.6875 54.6875 
L 56.203125 54.6875 
L 35.6875 0 
L 23.484375 0 
z
" id="DejaVuSans-118"/>
      <path d="M 44.390625 34.1875 
Q 47.5625 33.109375 50.5625 29.59375 
Q 53.5625 26.078125 56.59375 19.921875 
L 66.609375 0 
L 56 0 
L 46.6875 18.703125 
Q 43.0625 26.03125 39.671875 28.421875 
Q 36.28125 30.8125 30.421875 30.8125 
L 19.671875 30.8125 
L 19.671875 0 
L 9.8125 0 
L 9.8125 72.90625 
L 32.078125 72.90625 
Q 44.578125 72.90625 50.734375 67.671875 
Q 56.890625 62.453125 56.890625 51.90625 
Q 56.890625 45.015625 53.6875 40.46875 
Q 50.484375 35.9375 44.390625 34.1875 
z
M 19.671875 64.796875 
L 19.671875 38.921875 
L 32.078125 38.921875 
Q 39.203125 38.921875 42.84375 42.21875 
Q 46.484375 45.515625 46.484375 51.90625 
Q 46.484375 58.296875 42.84375 61.546875 
Q 39.203125 64.796875 32.078125 64.796875 
z
" id="DejaVuSans-82"/>
     </defs>
     <g transform="translate(247.994531 540.916563)scale(0.1 -0.1)">
      <use xlink:href="#DejaVuSans-70"/>
      <use x="57.378906" xlink:href="#DejaVuSans-97"/>
      <use x="118.658203" xlink:href="#DejaVuSans-108"/>
      <use x="146.441406" xlink:href="#DejaVuSans-115"/>
      <use x="198.541016" xlink:href="#DejaVuSans-101"/>
      <use x="260.064453" xlink:href="#DejaVuSans-32"/>
      <use x="291.851562" xlink:href="#DejaVuSans-80"/>
      <use x="352.107422" xlink:href="#DejaVuSans-111"/>
      <use x="413.289062" xlink:href="#DejaVuSans-115"/>
      <use x="465.388672" xlink:href="#DejaVuSans-105"/>
      <use x="493.171875" xlink:href="#DejaVuSans-116"/>
      <use x="532.380859" xlink:href="#DejaVuSans-105"/>
      <use x="560.164062" xlink:href="#DejaVuSans-118"/>
      <use x="619.34375" xlink:href="#DejaVuSans-101"/>
      <use x="680.867188" xlink:href="#DejaVuSans-32"/>
      <use x="712.654297" xlink:href="#DejaVuSans-82"/>
      <use x="782.105469" xlink:href="#DejaVuSans-97"/>
      <use x="843.384766" xlink:href="#DejaVuSans-116"/>
      <use x="882.59375" xlink:href="#DejaVuSans-101"/>
     </g>
    </g>
   </g>
   <g id="matplotlib.axis_2">
    <g id="ytick_1">
     <g id="line2d_13">
      <path clip-path="url(#p1641c38231)" d="M 72 512.64 
L 518.4 512.64 
" style="fill:none;stroke:#b0b0b0;stroke-linecap:square;stroke-width:0.8;"/>
     </g>
     <g id="line2d_14">
      <defs>
       <path d="M 0 0 
L -3.5 0 
" id="m0287f918cb" style="stroke:#000000;stroke-width:0.8;"/>
      </defs>
      <g>
       <use style="stroke:#000000;stroke-width:0.8;" x="72" xlink:href="#m0287f918cb" y="512.64"/>
      </g>
     </g>
     <g id="text_8">
      <!-- 0.0 -->
      <g transform="translate(49.096875 516.439219)scale(0.1 -0.1)">
       <use xlink:href="#DejaVuSans-48"/>
       <use x="63.623047" xlink:href="#DejaVuSans-46"/>
       <use x="95.410156" xlink:href="#DejaVuSans-48"/>
      </g>
     </g>
    </g>
    <g id="ytick_2">
     <g id="line2d_15">
      <path clip-path="url(#p1641c38231)" d="M 72 428.16 
L 518.4 428.16 
" style="fill:none;stroke:#b0b0b0;stroke-linecap:square;stroke-width:0.8;"/>
     </g>
     <g id="line2d_16">
      <g>
       <use style="stroke:#000000;stroke-width:0.8;" x="72" xlink:href="#m0287f918cb" y="428.16"/>
      </g>
     </g>
     <g id="text_9">
      <!-- 0.2 -->
      <g transform="translate(49.096875 431.959219)scale(0.1 -0.1)">
       <use xlink:href="#DejaVuSans-48"/>
       <use x="63.623047" xlink:href="#DejaVuSans-46"/>
       <use x="95.410156" xlink:href="#DejaVuSans-50"/>
      </g>
     </g>
    </g>
    <g id="ytick_3">
     <g id="line2d_17">
      <path clip-path="url(#p1641c38231)" d="M 72 343.68 
L 518.4 343.68 
" style="fill:none;stroke:#b0b0b0;stroke-linecap:square;stroke-width:0.8;"/>
     </g>
     <g id="line2d_18">
      <g>
       <use style="stroke:#000000;stroke-width:0.8;" x="72" xlink:href="#m0287f918cb" y="343.68"/>
      </g>
     </g>
     <g id="text_10">
      <!-- 0.4 -->
      <g transform="translate(49.096875 347.479219)scale(0.1 -0.1)">
       <use xlink:href="#DejaVuSans-48"/>
       <use x="63.623047" xlink:href="#DejaVuSans-46"/>
       <use x="95.410156" xlink:href="#DejaVuSans-52"/>
      </g>
     </g>
    </g>
    <g id="ytick_4">
     <g id="line2d_19">
      <path clip-path="url(#p1641c38231)" d="M 72 259.2 
L 518.4 259.2 
" style="fill:none;stroke:#b0b0b0;stroke-linecap:square;stroke-width:0.8;"/>
     </g>
     <g id="line2d_20">
      <g>
       <use style="stroke:#000000;stroke-width:0.8;" x="72" xlink:href="#m0287f918cb" y="259.2"/>
      </g>
     </g>
     <g id="text_11">
      <!-- 0.6 -->
      <g transform="translate(49.096875 262.999219)scale(0.1 -0.1)">
       <use xlink:href="#DejaVuSans-48"/>
       <use x="63.623047" xlink:href="#DejaVuSans-46"/>
       <use x="95.410156" xlink:href="#DejaVuSans-54"/>
      </g>
     </g>
    </g>
    <g id="ytick_5">
     <g id="line2d_21">
      <path clip-path="url(#p1641c38231)" d="M 72 174.72 
L 518.4 174.72 
" style="fill:none;stroke:#b0b0b0;stroke-linecap:square;stroke-width:0.8;"/>
     </g>
     <g id="line2d_22">
      <g>
       <use style="stroke:#000000;stroke-width:0.8;" x="72" xlink:href="#m0287f918cb" y="174.72"/>
      </g>
     </g>
     <g id="text_12">
      <!-- 0.8 -->
      <g transform="translate(49.096875 178.519219)scale(0.1 -0.1)">
       <use xlink:href="#DejaVuSans-48"/>
       <use x="63.623047" xlink:href="#DejaVuSans-46"/>
       <use x="95.410156" xlink:href="#DejaVuSans-56"/>
      </g>
     </g>
    </g>
    <g id="ytick_6">
     <g id="line2d_23">
      <path clip-path="url(#p1641c38231)" d="M 72 90.24 
L 518.4 90.24 
" style="fill:none;stroke:#b0b0b0;stroke-linecap:square;stroke-width:0.8;"/>
     </g>
     <g id="line2d_24">
      <g>
       <use style="stroke:#000000;stroke-width:0.8;" x="72" xlink:href="#m0287f918cb" y="90.24"/>
      </g>
     </g>
     <g id="text_13">
      <!-- 1.0 -->
      <g transform="translate(49.096875 94.039219)scale(0.1 -0.1)">
       <use xlink:href="#DejaVuSans-49"/>
       <use x="63.623047" xlink:href="#DejaVuSans-46"/>
       <use x="95.410156" xlink:href="#DejaVuSans-48"/>
      </g>
     </g>
    </g>
    <g id="text_14">
     <!-- True Positive Rate -->
     <defs>
      <path d="M -0.296875 72.90625 
L 61.375 72.90625 
L 61.375 64.59375 
L 35.5 64.59375 
L 35.5 0 
L 25.59375 0 
L 25.59375 64.59375 
L -0.296875 64.59375 
z
" id="DejaVuSans-84"/>
      <path d="M 41.109375 46.296875 
Q 39.59375 47.171875 37.8125 47.578125 
Q 36.03125 48 33.890625 48 
Q 26.265625 48 22.1875 43.046875 
Q 18.109375 38.09375 18.109375 28.8125 
L 18.109375 0 
L 9.078125 0 
L 9.078125 54.6875 
L 18.109375 54.6875 
L 18.109375 46.1875 
Q 20.953125 51.171875 25.484375 53.578125 
Q 30.03125 56 36.53125 56 
Q 37.453125 56 38.578125 55.875 
Q 39.703125 55.765625 41.0625 55.515625 
z
" id="DejaVuSans-114"/>
      <path d="M 8.5 21.578125 
L 8.5 54.6875 
L 17.484375 54.6875 
L 17.484375 21.921875 
Q 17.484375 14.15625 20.5 10.265625 
Q 23.53125 6.390625 29.59375 6.390625 
Q 36.859375 6.390625 41.078125 11.03125 
Q 45.3125 15.671875 45.3125 23.6875 
L 45.3125 54.6875 
L 54.296875 54.6875 
L 54.296875 0 
L 45.3125 0 
L 45.3125 8.40625 
Q 42.046875 3.421875 37.71875 1 
Q 33.40625 -1.421875 27.6875 -1.421875 
Q 18.265625 -1.421875 13.375 4.4375 
Q 8.5 10.296875 8.5 21.578125 
z
M 31.109375 56 
z
" id="DejaVuSans-117"/>
     </defs>
     <g transform="translate(43.017187 336.426094)rotate(-90)scale(0.1 -0.1)">
      <use xlink:href="#DejaVuSans-84"/>
      <use x="60.865234" xlink:href="#DejaVuSans-114"/>
      <use x="101.978516" xlink:href="#DejaVuSans-117"/>
      <use x="165.357422" xlink:href="#DejaVuSans-101"/>
      <use x="226.880859" xlink:href="#DejaVuSans-32"/>
      <use x="258.667969" xlink:href="#DejaVuSans-80"/>
      <use x="318.923828" xlink:href="#DejaVuSans-111"/>
      <use x="380.105469" xlink:href="#DejaVuSans-115"/>
      <use x="432.205078" xlink:href="#DejaVuSans-105"/>
      <use x="459.988281" xlink:href="#DejaVuSans-116"/>
      <use x="499.197266" xlink:href="#DejaVuSans-105"/>
      <use x="526.980469" xlink:href="#DejaVuSans-118"/>
      <use x="586.160156" xlink:href="#DejaVuSans-101"/>
      <use x="647.683594" xlink:href="#DejaVuSans-32"/>
      <use x="679.470703" xlink:href="#DejaVuSans-82"/>
      <use x="748.921875" xlink:href="#DejaVuSans-97"/>
      <use x="810.201172" xlink:href="#DejaVuSans-116"/>
      <use x="849.410156" xlink:href="#DejaVuSans-101"/>
     </g>
    </g>
   </g>
   <g id="line2d_25">
    <path clip-path="url(#p1641c38231)" d="M 72 512.64 
L 72 490.25641 
L 72.381538 490.25641 
L 72.381538 489.534359 
L 72.763077 489.534359 
L 72.763077 488.812308 
L 73.144615 488.812308 
L 73.144615 488.451282 
L 73.526154 488.451282 
L 73.526154 484.118974 
L 73.907692 484.118974 
L 73.907692 471.122051 
L 74.289231 471.122051 
L 74.289231 466.789744 
L 74.670769 466.789744 
L 74.670769 458.125128 
L 75.052308 458.125128 
L 75.052308 454.514872 
L 75.433846 454.514872 
L 75.433846 451.265641 
L 75.815385 451.265641 
L 75.815385 449.460513 
L 76.196923 449.460513 
L 76.196923 444.406154 
L 76.578462 444.406154 
L 76.578462 442.24 
L 76.96 442.24 
L 76.96 440.795897 
L 77.341538 440.795897 
L 77.341538 438.629744 
L 77.723077 438.629744 
L 77.723077 436.46359 
L 78.104615 436.46359 
L 78.104615 432.492308 
L 78.867692 432.492308 
L 78.867692 431.048205 
L 79.249231 431.048205 
L 79.249231 430.687179 
L 79.630769 430.687179 
L 79.630769 427.798974 
L 80.012308 427.798974 
L 80.012308 422.744615 
L 80.775385 422.744615 
L 80.775385 419.495385 
L 81.156923 419.495385 
L 81.156923 414.08 
L 81.538462 414.08 
L 81.538462 409.747692 
L 81.92 409.747692 
L 81.92 407.942564 
L 82.301538 407.942564 
L 82.301538 395.306667 
L 82.683077 395.306667 
L 82.683077 389.891282 
L 83.064615 389.891282 
L 83.064615 389.530256 
L 83.446154 389.530256 
L 83.446154 387.725128 
L 83.827692 387.725128 
L 83.827692 386.642051 
L 84.209231 386.642051 
L 84.209231 385.197949 
L 84.590769 385.197949 
L 84.590769 382.309744 
L 84.972308 382.309744 
L 84.972308 381.948718 
L 85.353846 381.948718 
L 85.353846 380.865641 
L 85.735385 380.865641 
L 85.735385 380.14359 
L 86.116923 380.14359 
L 86.116923 378.338462 
L 86.498462 378.338462 
L 86.498462 376.533333 
L 86.88 376.533333 
L 86.88 372.562051 
L 87.261538 372.562051 
L 87.261538 370.395897 
L 87.643077 370.395897 
L 87.643077 366.424615 
L 88.024615 366.424615 
L 88.024615 365.341538 
L 88.787692 365.341538 
L 88.787692 363.53641 
L 89.169231 363.53641 
L 89.169231 362.092308 
L 89.550769 362.092308 
L 89.550769 361.370256 
L 89.932308 361.370256 
L 89.932308 359.204103 
L 90.313846 359.204103 
L 90.313846 357.398974 
L 90.695385 357.398974 
L 90.695385 355.954872 
L 91.458462 355.954872 
L 91.458462 354.149744 
L 91.84 354.149744 
L 91.84 352.705641 
L 92.221538 352.705641 
L 92.221538 350.539487 
L 92.603077 350.539487 
L 92.603077 349.095385 
L 92.984615 349.095385 
L 92.984615 348.373333 
L 93.366154 348.373333 
L 93.366154 345.846154 
L 93.747692 345.846154 
L 93.747692 345.485128 
L 94.129231 345.485128 
L 94.129231 344.763077 
L 94.510769 344.763077 
L 94.510769 344.402051 
L 94.892308 344.402051 
L 94.892308 342.957949 
L 95.655385 342.957949 
L 95.655385 342.596923 
L 96.036923 342.596923 
L 96.036923 342.235897 
L 96.8 342.235897 
L 96.8 341.513846 
L 97.181538 341.513846 
L 97.181538 339.708718 
L 97.563077 339.708718 
L 97.563077 338.625641 
L 97.944615 338.625641 
L 97.944615 337.90359 
L 98.326154 337.90359 
L 98.326154 337.181538 
L 98.707692 337.181538 
L 98.707692 335.37641 
L 99.089231 335.37641 
L 99.089231 333.932308 
L 99.470769 333.932308 
L 99.470769 333.571282 
L 99.852308 333.571282 
L 99.852308 332.488205 
L 100.233846 332.488205 
L 100.233846 331.405128 
L 100.996923 331.405128 
L 100.996923 329.961026 
L 101.378462 329.961026 
L 101.378462 327.433846 
L 102.141538 327.433846 
L 102.141538 327.072821 
L 102.904615 327.072821 
L 102.904615 326.711795 
L 104.430769 326.711795 
L 104.430769 326.350769 
L 105.193846 326.350769 
L 105.193846 325.989744 
L 105.575385 325.989744 
L 105.575385 325.628718 
L 105.956923 325.628718 
L 105.956923 324.545641 
L 106.338462 324.545641 
L 106.338462 324.184615 
L 106.72 324.184615 
L 106.72 323.82359 
L 107.101538 323.82359 
L 107.101538 322.379487 
L 107.483077 322.379487 
L 107.483077 322.018462 
L 108.246154 322.018462 
L 108.246154 321.29641 
L 108.627692 321.29641 
L 108.627692 319.852308 
L 109.009231 319.852308 
L 109.009231 319.130256 
L 109.390769 319.130256 
L 109.390769 318.047179 
L 109.772308 318.047179 
L 109.772308 316.964103 
L 110.153846 316.964103 
L 110.153846 316.603077 
L 111.298462 316.603077 
L 111.298462 315.158974 
L 111.68 315.158974 
L 111.68 314.075897 
L 112.061538 314.075897 
L 112.061538 312.992821 
L 112.824615 312.992821 
L 112.824615 312.270769 
L 113.206154 312.270769 
L 113.206154 309.74359 
L 113.587692 309.74359 
L 113.587692 309.382564 
L 114.732308 309.382564 
L 114.732308 307.938462 
L 115.113846 307.938462 
L 115.113846 306.494359 
L 115.495385 306.494359 
L 115.495385 306.133333 
L 116.258462 306.133333 
L 116.258462 304.689231 
L 116.64 304.689231 
L 116.64 304.328205 
L 117.021538 304.328205 
L 117.021538 302.523077 
L 117.784615 302.523077 
L 117.784615 302.162051 
L 118.166154 302.162051 
L 118.166154 301.801026 
L 118.929231 301.801026 
L 118.929231 301.44 
L 120.073846 301.44 
L 120.073846 301.078974 
L 121.218462 301.078974 
L 121.218462 299.634872 
L 121.6 299.634872 
L 121.6 299.273846 
L 121.981538 299.273846 
L 121.981538 296.385641 
L 122.363077 296.385641 
L 122.363077 296.024615 
L 122.744615 296.024615 
L 122.744615 294.580513 
L 123.126154 294.580513 
L 123.126154 293.858462 
L 123.507692 293.858462 
L 123.507692 293.497436 
L 123.889231 293.497436 
L 123.889231 293.13641 
L 124.270769 293.13641 
L 124.270769 291.331282 
L 124.652308 291.331282 
L 124.652308 289.526154 
L 125.415385 289.526154 
L 125.415385 288.804103 
L 125.796923 288.804103 
L 125.796923 287.36 
L 126.178462 287.36 
L 126.178462 286.998974 
L 126.56 286.998974 
L 126.56 285.915897 
L 127.704615 285.915897 
L 127.704615 285.193846 
L 128.467692 285.193846 
L 128.467692 284.832821 
L 128.849231 284.832821 
L 128.849231 283.027692 
L 129.612308 283.027692 
L 129.612308 282.666667 
L 129.993846 282.666667 
L 129.993846 280.861538 
L 130.375385 280.861538 
L 130.375385 279.417436 
L 130.756923 279.417436 
L 130.756923 279.05641 
L 131.138462 279.05641 
L 131.138462 278.695385 
L 131.52 278.695385 
L 131.52 277.251282 
L 131.901538 277.251282 
L 131.901538 272.196923 
L 132.664615 272.196923 
L 132.664615 269.308718 
L 133.427692 269.308718 
L 133.427692 267.864615 
L 134.190769 267.864615 
L 134.190769 267.142564 
L 135.716923 267.142564 
L 135.716923 266.059487 
L 136.098462 266.059487 
L 136.098462 265.337436 
L 137.624615 265.337436 
L 137.624615 264.254359 
L 138.006154 264.254359 
L 138.006154 262.449231 
L 138.387692 262.449231 
L 138.387692 261.727179 
L 139.532308 261.727179 
L 139.532308 261.366154 
L 139.913846 261.366154 
L 139.913846 261.005128 
L 141.058462 261.005128 
L 141.058462 260.644103 
L 141.821538 260.644103 
L 141.821538 260.283077 
L 142.966154 260.283077 
L 142.966154 259.561026 
L 144.492308 259.561026 
L 144.492308 258.116923 
L 145.636923 258.116923 
L 145.636923 257.033846 
L 146.018462 257.033846 
L 146.018462 256.672821 
L 146.4 256.672821 
L 146.4 255.228718 
L 146.781538 255.228718 
L 146.781538 254.145641 
L 147.163077 254.145641 
L 147.163077 251.979487 
L 147.544615 251.979487 
L 147.544615 251.618462 
L 148.689231 251.618462 
L 148.689231 250.89641 
L 149.070769 250.89641 
L 149.070769 248.730256 
L 149.452308 248.730256 
L 149.452308 248.369231 
L 149.833846 248.369231 
L 149.833846 245.842051 
L 150.215385 245.842051 
L 150.215385 245.481026 
L 150.596923 245.481026 
L 150.596923 244.397949 
L 151.36 244.397949 
L 151.36 244.036923 
L 152.504615 244.036923 
L 152.504615 243.314872 
L 153.649231 243.314872 
L 153.649231 241.870769 
L 154.412308 241.870769 
L 154.412308 241.148718 
L 155.556923 241.148718 
L 155.556923 238.260513 
L 155.938462 238.260513 
L 155.938462 235.733333 
L 156.32 235.733333 
L 156.32 235.011282 
L 157.083077 235.011282 
L 157.083077 234.650256 
L 157.464615 234.650256 
L 157.464615 232.845128 
L 158.609231 232.845128 
L 158.609231 232.484103 
L 158.990769 232.484103 
L 158.990769 231.04 
L 159.372308 231.04 
L 159.372308 230.678974 
L 160.516923 230.678974 
L 160.516923 229.956923 
L 161.28 229.956923 
L 161.28 229.595897 
L 161.661538 229.595897 
L 161.661538 229.234872 
L 162.043077 229.234872 
L 162.043077 228.151795 
L 163.569231 228.151795 
L 163.569231 226.707692 
L 164.332308 226.707692 
L 164.332308 225.26359 
L 164.713846 225.26359 
L 164.713846 223.097436 
L 165.095385 223.097436 
L 165.095385 222.73641 
L 166.24 222.73641 
L 166.24 219.126154 
L 166.621538 219.126154 
L 166.621538 218.765128 
L 167.003077 218.765128 
L 167.003077 216.598974 
L 167.766154 216.598974 
L 167.766154 216.237949 
L 168.910769 216.237949 
L 168.910769 215.515897 
L 171.2 215.515897 
L 171.2 215.154872 
L 171.963077 215.154872 
L 171.963077 213.710769 
L 172.726154 213.710769 
L 172.726154 213.349744 
L 173.107692 213.349744 
L 173.107692 212.988718 
L 173.489231 212.988718 
L 173.489231 212.627692 
L 173.870769 212.627692 
L 173.870769 211.905641 
L 174.633846 211.905641 
L 174.633846 211.544615 
L 175.015385 211.544615 
L 175.015385 210.822564 
L 175.778462 210.822564 
L 175.778462 210.100513 
L 176.541538 210.100513 
L 176.541538 208.65641 
L 177.304615 208.65641 
L 177.304615 207.573333 
L 178.067692 207.573333 
L 178.067692 207.212308 
L 179.212308 207.212308 
L 179.212308 206.851282 
L 179.593846 206.851282 
L 179.593846 206.129231 
L 179.975385 206.129231 
L 179.975385 205.407179 
L 181.12 205.407179 
L 181.12 204.685128 
L 181.501538 204.685128 
L 181.501538 203.963077 
L 181.883077 203.963077 
L 181.883077 203.602051 
L 182.264615 203.602051 
L 182.264615 202.518974 
L 184.172308 202.518974 
L 184.172308 201.796923 
L 184.553846 201.796923 
L 184.553846 201.435897 
L 184.935385 201.435897 
L 184.935385 201.074872 
L 185.698462 201.074872 
L 185.698462 200.713846 
L 187.224615 200.713846 
L 187.224615 199.991795 
L 187.606154 199.991795 
L 187.606154 199.630769 
L 187.987692 199.630769 
L 187.987692 198.908718 
L 189.132308 198.908718 
L 189.132308 198.186667 
L 190.658462 198.186667 
L 190.658462 197.464615 
L 191.04 197.464615 
L 191.04 196.381538 
L 192.184615 196.381538 
L 192.184615 195.298462 
L 192.566154 195.298462 
L 192.566154 194.57641 
L 192.947692 194.57641 
L 192.947692 194.215385 
L 194.092308 194.215385 
L 194.092308 193.493333 
L 194.855385 193.493333 
L 194.855385 192.049231 
L 196.763077 192.049231 
L 196.763077 190.966154 
L 197.907692 190.966154 
L 197.907692 189.883077 
L 198.670769 189.883077 
L 198.670769 188.438974 
L 199.052308 188.438974 
L 199.052308 186.633846 
L 200.196923 186.633846 
L 200.196923 186.272821 
L 200.96 186.272821 
L 200.96 185.550769 
L 201.341538 185.550769 
L 201.341538 185.189744 
L 202.486154 185.189744 
L 202.486154 184.828718 
L 202.867692 184.828718 
L 202.867692 184.467692 
L 203.630769 184.467692 
L 203.630769 184.106667 
L 204.012308 184.106667 
L 204.012308 183.745641 
L 204.775385 183.745641 
L 204.775385 183.02359 
L 205.156923 183.02359 
L 205.156923 182.301538 
L 205.538462 182.301538 
L 205.538462 181.940513 
L 205.92 181.940513 
L 205.92 181.579487 
L 207.827692 181.579487 
L 207.827692 181.218462 
L 208.972308 181.218462 
L 208.972308 180.135385 
L 209.353846 180.135385 
L 209.353846 179.413333 
L 210.116923 179.413333 
L 210.116923 179.052308 
L 210.498462 179.052308 
L 210.498462 177.969231 
L 211.261538 177.969231 
L 211.261538 177.608205 
L 213.169231 177.608205 
L 213.169231 177.247179 
L 213.550769 177.247179 
L 213.550769 176.525128 
L 213.932308 176.525128 
L 213.932308 175.442051 
L 214.695385 175.442051 
L 214.695385 174.72 
L 216.221538 174.72 
L 216.221538 172.914872 
L 216.603077 172.914872 
L 216.603077 172.192821 
L 217.366154 172.192821 
L 217.366154 171.831795 
L 217.747692 171.831795 
L 217.747692 170.026667 
L 218.129231 170.026667 
L 218.129231 169.665641 
L 220.036923 169.665641 
L 220.036923 168.94359 
L 223.089231 168.94359 
L 223.089231 167.860513 
L 224.233846 167.860513 
L 224.233846 167.138462 
L 224.615385 167.138462 
L 224.615385 166.41641 
L 224.996923 166.41641 
L 224.996923 166.055385 
L 225.76 166.055385 
L 225.76 164.250256 
L 226.904615 164.250256 
L 226.904615 163.889231 
L 227.667692 163.889231 
L 227.667692 163.528205 
L 228.430769 163.528205 
L 228.430769 162.806154 
L 230.338462 162.806154 
L 230.338462 161.362051 
L 231.483077 161.362051 
L 231.483077 159.556923 
L 232.627692 159.556923 
L 232.627692 159.195897 
L 237.587692 159.195897 
L 237.587692 158.834872 
L 239.113846 158.834872 
L 239.113846 158.473846 
L 239.495385 158.473846 
L 239.495385 158.112821 
L 241.021538 158.112821 
L 241.021538 157.751795 
L 241.784615 157.751795 
L 241.784615 157.390769 
L 243.692308 157.390769 
L 243.692308 155.585641 
L 244.073846 155.585641 
L 244.073846 154.502564 
L 244.836923 154.502564 
L 244.836923 154.141538 
L 245.218462 154.141538 
L 245.218462 153.780513 
L 245.6 153.780513 
L 245.6 152.33641 
L 245.981538 152.33641 
L 245.981538 150.170256 
L 249.033846 150.170256 
L 249.033846 149.809231 
L 250.56 149.809231 
L 250.56 149.087179 
L 250.941538 149.087179 
L 250.941538 148.726154 
L 251.704615 148.726154 
L 251.704615 147.282051 
L 252.849231 147.282051 
L 252.849231 146.198974 
L 253.993846 146.198974 
L 253.993846 145.837949 
L 254.756923 145.837949 
L 254.756923 145.476923 
L 255.52 145.476923 
L 255.52 144.754872 
L 256.664615 144.754872 
L 256.664615 143.671795 
L 258.190769 143.671795 
L 258.190769 143.310769 
L 258.572308 143.310769 
L 258.572308 142.588718 
L 259.335385 142.588718 
L 259.335385 142.227692 
L 262.387692 142.227692 
L 262.387692 140.78359 
L 263.150769 140.78359 
L 263.150769 140.061538 
L 265.44 140.061538 
L 265.44 139.339487 
L 266.584615 139.339487 
L 266.584615 138.617436 
L 267.347692 138.617436 
L 267.347692 138.25641 
L 268.492308 138.25641 
L 268.492308 137.895385 
L 269.255385 137.895385 
L 269.255385 137.534359 
L 270.4 137.534359 
L 270.4 137.173333 
L 271.544615 137.173333 
L 271.544615 136.812308 
L 271.926154 136.812308 
L 271.926154 136.451282 
L 273.070769 136.451282 
L 273.070769 136.090256 
L 274.215385 136.090256 
L 274.215385 135.729231 
L 278.412308 135.729231 
L 278.412308 135.368205 
L 279.175385 135.368205 
L 279.175385 134.285128 
L 280.701538 134.285128 
L 280.701538 133.924103 
L 282.609231 133.924103 
L 282.609231 133.202051 
L 284.135385 133.202051 
L 284.135385 132.118974 
L 284.898462 132.118974 
L 284.898462 131.757949 
L 286.424615 131.757949 
L 286.424615 131.396923 
L 287.187692 131.396923 
L 287.187692 131.035897 
L 287.569231 131.035897 
L 287.569231 130.674872 
L 287.950769 130.674872 
L 287.950769 130.313846 
L 288.713846 130.313846 
L 288.713846 129.952821 
L 289.095385 129.952821 
L 289.095385 129.591795 
L 289.858462 129.591795 
L 289.858462 129.230769 
L 291.384615 129.230769 
L 291.384615 128.869744 
L 292.529231 128.869744 
L 292.529231 128.508718 
L 294.055385 128.508718 
L 294.055385 127.425641 
L 294.436923 127.425641 
L 294.436923 127.064615 
L 295.581538 127.064615 
L 295.581538 126.70359 
L 297.107692 126.70359 
L 297.107692 125.259487 
L 297.870769 125.259487 
L 297.870769 124.898462 
L 302.067692 124.898462 
L 302.067692 124.17641 
L 302.449231 124.17641 
L 302.449231 123.815385 
L 302.830769 123.815385 
L 302.830769 123.454359 
L 303.212308 123.454359 
L 303.212308 122.371282 
L 303.975385 122.371282 
L 303.975385 121.649231 
L 304.738462 121.649231 
L 304.738462 121.288205 
L 309.316923 121.288205 
L 309.316923 120.927179 
L 309.698462 120.927179 
L 309.698462 120.205128 
L 311.987692 120.205128 
L 311.987692 119.844103 
L 312.369231 119.844103 
L 312.369231 119.122051 
L 312.750769 119.122051 
L 312.750769 118.761026 
L 314.276923 118.761026 
L 314.276923 118.4 
L 317.329231 118.4 
L 317.329231 118.038974 
L 318.092308 118.038974 
L 318.092308 117.316923 
L 318.855385 117.316923 
L 318.855385 116.594872 
L 320 116.594872 
L 320 116.233846 
L 320.381538 116.233846 
L 320.381538 115.872821 
L 320.763077 115.872821 
L 320.763077 115.511795 
L 321.144615 115.511795 
L 321.144615 115.150769 
L 323.433846 115.150769 
L 323.433846 114.067692 
L 325.723077 114.067692 
L 325.723077 113.706667 
L 328.012308 113.706667 
L 328.012308 113.345641 
L 329.538462 113.345641 
L 329.538462 112.984615 
L 329.92 112.984615 
L 329.92 112.62359 
L 330.301538 112.62359 
L 330.301538 112.262564 
L 331.064615 112.262564 
L 331.064615 111.901538 
L 333.353846 111.901538 
L 333.353846 111.540513 
L 334.498462 111.540513 
L 334.498462 111.179487 
L 335.261538 111.179487 
L 335.261538 110.818462 
L 340.221538 110.818462 
L 340.221538 110.457436 
L 340.603077 110.457436 
L 340.603077 110.09641 
L 341.747692 110.09641 
L 341.747692 109.735385 
L 342.129231 109.735385 
L 342.129231 109.374359 
L 342.510769 109.374359 
L 342.510769 109.013333 
L 344.036923 109.013333 
L 344.036923 108.652308 
L 345.181538 108.652308 
L 345.181538 107.930256 
L 346.326154 107.930256 
L 346.326154 107.569231 
L 347.470769 107.569231 
L 347.470769 106.486154 
L 348.615385 106.486154 
L 348.615385 106.125128 
L 350.141538 106.125128 
L 350.141538 105.764103 
L 350.904615 105.764103 
L 350.904615 105.042051 
L 353.193846 105.042051 
L 353.193846 104.681026 
L 355.864615 104.681026 
L 355.864615 103.958974 
L 356.246154 103.958974 
L 356.246154 103.236923 
L 358.153846 103.236923 
L 358.153846 102.875897 
L 359.298462 102.875897 
L 359.298462 102.514872 
L 365.403077 102.514872 
L 365.403077 101.792821 
L 372.652308 101.792821 
L 372.652308 101.431795 
L 374.56 101.431795 
L 374.56 101.070769 
L 375.323077 101.070769 
L 375.323077 100.709744 
L 375.704615 100.709744 
L 375.704615 100.348718 
L 377.612308 100.348718 
L 377.612308 99.987692 
L 381.427692 99.987692 
L 381.427692 99.626667 
L 382.953846 99.626667 
L 382.953846 99.265641 
L 384.861538 99.265641 
L 384.861538 98.904615 
L 392.110769 98.904615 
L 392.110769 98.54359 
L 393.255385 98.54359 
L 393.255385 97.821538 
L 394.4 97.821538 
L 394.4 97.099487 
L 398.596923 97.099487 
L 398.596923 96.738462 
L 399.741538 96.738462 
L 399.741538 96.01641 
L 406.609231 96.01641 
L 406.609231 95.655385 
L 406.990769 95.655385 
L 406.990769 95.294359 
L 407.372308 95.294359 
L 407.372308 94.933333 
L 409.661538 94.933333 
L 409.661538 94.572308 
L 411.950769 94.572308 
L 411.950769 94.211282 
L 413.476923 94.211282 
L 413.476923 93.850256 
L 416.147692 93.850256 
L 416.147692 93.489231 
L 417.673846 93.489231 
L 417.673846 92.767179 
L 421.107692 92.767179 
L 421.107692 92.406154 
L 423.396923 92.406154 
L 423.396923 92.045128 
L 428.738462 92.045128 
L 428.738462 91.684103 
L 431.790769 91.684103 
L 431.790769 91.323077 
L 442.855385 91.323077 
L 442.855385 90.962051 
L 452.012308 90.962051 
L 452.012308 90.601026 
L 458.116923 90.601026 
L 458.116923 90.24 
L 518.4 90.24 
L 518.4 90.24 
" style="fill:none;stroke:#ff8c00;stroke-linecap:square;stroke-width:2;"/>
   </g>
   <g id="line2d_26">
    <path clip-path="url(#p1641c38231)" d="M 72 512.64 
L 518.4 90.24 
" style="fill:none;stroke:#000080;stroke-dasharray:7.4,3.2;stroke-dashoffset:0;stroke-width:2;"/>
   </g>
   <g id="patch_3">
    <path d="M 72 512.64 
L 72 69.12 
" style="fill:none;stroke:#000000;stroke-linecap:square;stroke-linejoin:miter;stroke-width:0.8;"/>
   </g>
   <g id="patch_4">
    <path d="M 518.4 512.64 
L 518.4 69.12 
" style="fill:none;stroke:#000000;stroke-linecap:square;stroke-linejoin:miter;stroke-width:0.8;"/>
   </g>
   <g id="patch_5">
    <path d="M 72 512.64 
L 518.4 512.64 
" style="fill:none;stroke:#000000;stroke-linecap:square;stroke-linejoin:miter;stroke-width:0.8;"/>
   </g>
   <g id="patch_6">
    <path d="M 72 69.12 
L 518.4 69.12 
" style="fill:none;stroke:#000000;stroke-linecap:square;stroke-linejoin:miter;stroke-width:0.8;"/>
   </g>
   <g id="legend_1">
    <g id="patch_7">
     <path d="M 427.081875 509.64 
L 514.2 509.64 
Q 515.4 509.64 515.4 508.44 
L 515.4 500.233125 
Q 515.4 499.033125 514.2 499.033125 
L 427.081875 499.033125 
Q 425.881875 499.033125 425.881875 500.233125 
L 425.881875 508.44 
Q 425.881875 509.64 427.081875 509.64 
z
" style="fill:#ffffff;opacity:0.8;stroke:#cccccc;stroke-linejoin:miter;"/>
    </g>
    <g id="line2d_27">
     <path d="M 428.281875 503.892187 
L 440.281875 503.892187 
" style="fill:none;stroke:#ff8c00;stroke-linecap:square;stroke-width:2;"/>
    </g>
    <g id="line2d_28"/>
    <g id="text_15">
     <!-- D006262 (area =0.83) -->
     <defs>
      <path d="M 19.671875 64.796875 
L 19.671875 8.109375 
L 31.59375 8.109375 
Q 46.6875 8.109375 53.6875 14.9375 
Q 60.6875 21.78125 60.6875 36.53125 
Q 60.6875 51.171875 53.6875 57.984375 
Q 46.6875 64.796875 31.59375 64.796875 
z
M 9.8125 72.90625 
L 30.078125 72.90625 
Q 51.265625 72.90625 61.171875 64.09375 
Q 71.09375 55.28125 71.09375 36.53125 
Q 71.09375 17.671875 61.125 8.828125 
Q 51.171875 0 30.078125 0 
L 9.8125 0 
z
" id="DejaVuSans-68"/>
      <path d="M 31 75.875 
Q 24.46875 64.65625 21.28125 53.65625 
Q 18.109375 42.671875 18.109375 31.390625 
Q 18.109375 20.125 21.3125 9.0625 
Q 24.515625 -2 31 -13.1875 
L 23.1875 -13.1875 
Q 15.875 -1.703125 12.234375 9.375 
Q 8.59375 20.453125 8.59375 31.390625 
Q 8.59375 42.28125 12.203125 53.3125 
Q 15.828125 64.359375 23.1875 75.875 
z
" id="DejaVuSans-40"/>
      <path d="M 10.59375 45.40625 
L 73.1875 45.40625 
L 73.1875 37.203125 
L 10.59375 37.203125 
z
M 10.59375 25.484375 
L 73.1875 25.484375 
L 73.1875 17.1875 
L 10.59375 17.1875 
z
" id="DejaVuSans-61"/>
      <path d="M 40.578125 39.3125 
Q 47.65625 37.796875 51.625 33 
Q 55.609375 28.21875 55.609375 21.1875 
Q 55.609375 10.40625 48.1875 4.484375 
Q 40.765625 -1.421875 27.09375 -1.421875 
Q 22.515625 -1.421875 17.65625 -0.515625 
Q 12.796875 0.390625 7.625 2.203125 
L 7.625 11.71875 
Q 11.71875 9.328125 16.59375 8.109375 
Q 21.484375 6.890625 26.8125 6.890625 
Q 36.078125 6.890625 40.9375 10.546875 
Q 45.796875 14.203125 45.796875 21.1875 
Q 45.796875 27.640625 41.28125 31.265625 
Q 36.765625 34.90625 28.71875 34.90625 
L 20.21875 34.90625 
L 20.21875 43.015625 
L 29.109375 43.015625 
Q 36.375 43.015625 40.234375 45.921875 
Q 44.09375 48.828125 44.09375 54.296875 
Q 44.09375 59.90625 40.109375 62.90625 
Q 36.140625 65.921875 28.71875 65.921875 
Q 24.65625 65.921875 20.015625 65.03125 
Q 15.375 64.15625 9.8125 62.3125 
L 9.8125 71.09375 
Q 15.4375 72.65625 20.34375 73.4375 
Q 25.25 74.21875 29.59375 74.21875 
Q 40.828125 74.21875 47.359375 69.109375 
Q 53.90625 64.015625 53.90625 55.328125 
Q 53.90625 49.265625 50.4375 45.09375 
Q 46.96875 40.921875 40.578125 39.3125 
z
" id="DejaVuSans-51"/>
      <path d="M 8.015625 75.875 
L 15.828125 75.875 
Q 23.140625 64.359375 26.78125 53.3125 
Q 30.421875 42.28125 30.421875 31.390625 
Q 30.421875 20.453125 26.78125 9.375 
Q 23.140625 -1.703125 15.828125 -13.1875 
L 8.015625 -13.1875 
Q 14.5 -2 17.703125 9.0625 
Q 20.90625 20.125 20.90625 31.390625 
Q 20.90625 42.671875 17.703125 53.65625 
Q 14.5 64.65625 8.015625 75.875 
z
" id="DejaVuSans-41"/>
     </defs>
     <g transform="translate(445.081875 505.992188)scale(0.06 -0.06)">
      <use xlink:href="#DejaVuSans-68"/>
      <use x="77.001953" xlink:href="#DejaVuSans-48"/>
      <use x="140.625" xlink:href="#DejaVuSans-48"/>
      <use x="204.248047" xlink:href="#DejaVuSans-54"/>
      <use x="267.871094" xlink:href="#DejaVuSans-50"/>
      <use x="331.494141" xlink:href="#DejaVuSans-54"/>
      <use x="395.117188" xlink:href="#DejaVuSans-50"/>
      <use x="458.740234" xlink:href="#DejaVuSans-32"/>
      <use x="490.527344" xlink:href="#DejaVuSans-40"/>
      <use x="529.541016" xlink:href="#DejaVuSans-97"/>
      <use x="590.820312" xlink:href="#DejaVuSans-114"/>
      <use x="631.902344" xlink:href="#DejaVuSans-101"/>
      <use x="693.425781" xlink:href="#DejaVuSans-97"/>
      <use x="754.705078" xlink:href="#DejaVuSans-32"/>
      <use x="786.492188" xlink:href="#DejaVuSans-61"/>
      <use x="870.28125" xlink:href="#DejaVuSans-48"/>
      <use x="933.904297" xlink:href="#DejaVuSans-46"/>
      <use x="965.691406" xlink:href="#DejaVuSans-56"/>
      <use x="1029.314453" xlink:href="#DejaVuSans-51"/>
      <use x="1092.9375" xlink:href="#DejaVuSans-41"/>
     </g>
    </g>
   </g>
  </g>
 </g>
 <defs>
  <clipPath id="p1641c38231">
   <rect height="443.52" width="446.4" x="72" y="69.12"/>
  </clipPath>
 </defs>
</svg>
