<?xml version="1.0" encoding="utf-8" standalone="no"?>
<!DOCTYPE svg PUBLIC "-//W3C//DTD SVG 1.1//EN"
  "http://www.w3.org/Graphics/SVG/1.1/DTD/svg11.dtd">
<!-- Created with matplotlib (https://matplotlib.org/) -->
<svg height="432pt" version="1.1" viewBox="0 0 720 432" width="720pt" xmlns="http://www.w3.org/2000/svg" xmlns:xlink="http://www.w3.org/1999/xlink">
 <defs>
  <style type="text/css">
*{stroke-linecap:butt;stroke-linejoin:round;}
  </style>
 </defs>
 <g id="figure_1">
  <g id="patch_1">
   <path d="M 0 432 
L 720 432 
L 720 0 
L 0 0 
z
" style="fill:#ffffff;"/>
  </g>
  <g id="axes_1">
   <g id="patch_2">
    <path d="M 90 378 
L 648 378 
L 648 51.84 
L 90 51.84 
z
" style="fill:#ffffff;"/>
   </g>
   <g id="PathCollection_1">
    <defs>
     <path d="M 0 3 
C 0.795609 3 1.55874 2.683901 2.12132 2.12132 
C 2.683901 1.55874 3 0.795609 3 0 
C 3 -0.795609 2.683901 -1.55874 2.12132 -2.12132 
C 1.55874 -2.683901 0.795609 -3 0 -3 
C -0.795609 -3 -1.55874 -2.683901 -2.12132 -2.12132 
C -2.683901 -1.55874 -3 -0.795609 -3 0 
C -3 0.795609 -2.683901 1.55874 -2.12132 2.12132 
C -1.55874 2.683901 -0.795609 3 0 3 
z
" id="m63c3e4164b" style="stroke:#f8766d;"/>
    </defs>
    <g clip-path="url(#p390ea32c67)">
     <use style="fill:#f8766d;stroke:#f8766d;" x="394.858823" xlink:href="#m63c3e4164b" y="279.505966"/>
     <use style="fill:#f8766d;stroke:#f8766d;" x="329.384312" xlink:href="#m63c3e4164b" y="295.1327"/>
     <use style="fill:#f8766d;stroke:#f8766d;" x="232.201917" xlink:href="#m63c3e4164b" y="237.877411"/>
     <use style="fill:#f8766d;stroke:#f8766d;" x="363.194683" xlink:href="#m63c3e4164b" y="296.802691"/>
     <use style="fill:#f8766d;stroke:#f8766d;" x="359.689421" xlink:href="#m63c3e4164b" y="131.725302"/>
     <use style="fill:#f8766d;stroke:#f8766d;" x="360.883964" xlink:href="#m63c3e4164b" y="222.847617"/>
     <use style="fill:#f8766d;stroke:#f8766d;" x="387.987329" xlink:href="#m63c3e4164b" y="161.360239"/>
     <use style="fill:#f8766d;stroke:#f8766d;" x="325.576605" xlink:href="#m63c3e4164b" y="221.581222"/>
     <use style="fill:#f8766d;stroke:#f8766d;" x="200.169025" xlink:href="#m63c3e4164b" y="245.469679"/>
     <use style="fill:#f8766d;stroke:#f8766d;" x="568.486412" xlink:href="#m63c3e4164b" y="193.562781"/>
     <use style="fill:#f8766d;stroke:#f8766d;" x="446.664869" xlink:href="#m63c3e4164b" y="168.588473"/>
     <use style="fill:#f8766d;stroke:#f8766d;" x="314.011993" xlink:href="#m63c3e4164b" y="276.416885"/>
     <use style="fill:#f8766d;stroke:#f8766d;" x="186.692819" xlink:href="#m63c3e4164b" y="221.940867"/>
     <use style="fill:#f8766d;stroke:#f8766d;" x="361.939796" xlink:href="#m63c3e4164b" y="198.142909"/>
     <use style="fill:#f8766d;stroke:#f8766d;" x="304.515442" xlink:href="#m63c3e4164b" y="317.555503"/>
     <use style="fill:#f8766d;stroke:#f8766d;" x="390.972297" xlink:href="#m63c3e4164b" y="326.168856"/>
     <use style="fill:#f8766d;stroke:#f8766d;" x="406.73337" xlink:href="#m63c3e4164b" y="245.135036"/>
     <use style="fill:#f8766d;stroke:#f8766d;" x="142.634179" xlink:href="#m63c3e4164b" y="131.161006"/>
     <use style="fill:#f8766d;stroke:#f8766d;" x="291.473804" xlink:href="#m63c3e4164b" y="274.339228"/>
     <use style="fill:#f8766d;stroke:#f8766d;" x="120.667742" xlink:href="#m63c3e4164b" y="153.004639"/>
     <use style="fill:#f8766d;stroke:#f8766d;" x="308.547015" xlink:href="#m63c3e4164b" y="181.966833"/>
     <use style="fill:#f8766d;stroke:#f8766d;" x="322.852596" xlink:href="#m63c3e4164b" y="143.579743"/>
     <use style="fill:#f8766d;stroke:#f8766d;" x="322.810663" xlink:href="#m63c3e4164b" y="314.471419"/>
     <use style="fill:#f8766d;stroke:#f8766d;" x="186.787795" xlink:href="#m63c3e4164b" y="269.334838"/>
     <use style="fill:#f8766d;stroke:#f8766d;" x="380.043173" xlink:href="#m63c3e4164b" y="310.953251"/>
     <use style="fill:#f8766d;stroke:#f8766d;" x="258.181686" xlink:href="#m63c3e4164b" y="190.156391"/>
     <use style="fill:#f8766d;stroke:#f8766d;" x="323.762242" xlink:href="#m63c3e4164b" y="155.612123"/>
     <use style="fill:#f8766d;stroke:#f8766d;" x="368.910889" xlink:href="#m63c3e4164b" y="275.756668"/>
     <use style="fill:#f8766d;stroke:#f8766d;" x="221.654231" xlink:href="#m63c3e4164b" y="111.658538"/>
     <use style="fill:#f8766d;stroke:#f8766d;" x="325.391428" xlink:href="#m63c3e4164b" y="66.848193"/>
     <use style="fill:#f8766d;stroke:#f8766d;" x="409.245542" xlink:href="#m63c3e4164b" y="182.818127"/>
     <use style="fill:#f8766d;stroke:#f8766d;" x="286.146154" xlink:href="#m63c3e4164b" y="100.446663"/>
     <use style="fill:#f8766d;stroke:#f8766d;" x="222.56537" xlink:href="#m63c3e4164b" y="210.011787"/>
     <use style="fill:#f8766d;stroke:#f8766d;" x="190.348349" xlink:href="#m63c3e4164b" y="164.092014"/>
     <use style="fill:#f8766d;stroke:#f8766d;" x="493.186528" xlink:href="#m63c3e4164b" y="217.025076"/>
     <use style="fill:#f8766d;stroke:#f8766d;" x="328.930118" xlink:href="#m63c3e4164b" y="174.873856"/>
     <use style="fill:#f8766d;stroke:#f8766d;" x="364.279968" xlink:href="#m63c3e4164b" y="312.746956"/>
     <use style="fill:#f8766d;stroke:#f8766d;" x="322.3424" xlink:href="#m63c3e4164b" y="334.550062"/>
     <use style="fill:#f8766d;stroke:#f8766d;" x="546.198127" xlink:href="#m63c3e4164b" y="226.020204"/>
     <use style="fill:#f8766d;stroke:#f8766d;" x="427.716816" xlink:href="#m63c3e4164b" y="340.743771"/>
     <use style="fill:#f8766d;stroke:#f8766d;" x="499.02283" xlink:href="#m63c3e4164b" y="362.991807"/>
     <use style="fill:#f8766d;stroke:#f8766d;" x="463.919683" xlink:href="#m63c3e4164b" y="353.726946"/>
     <use style="fill:#f8766d;stroke:#f8766d;" x="483.841663" xlink:href="#m63c3e4164b" y="358.782485"/>
     <use style="fill:#f8766d;stroke:#f8766d;" x="508.369973" xlink:href="#m63c3e4164b" y="354.139581"/>
     <use style="fill:#f8766d;stroke:#f8766d;" x="616.820954" xlink:href="#m63c3e4164b" y="249.660494"/>
     <use style="fill:#f8766d;stroke:#f8766d;" x="432.397837" xlink:href="#m63c3e4164b" y="270.671953"/>
     <use style="fill:#f8766d;stroke:#f8766d;" x="541.779042" xlink:href="#m63c3e4164b" y="257.244729"/>
     <use style="fill:#f8766d;stroke:#f8766d;" x="497.297447" xlink:href="#m63c3e4164b" y="239.16373"/>
     <use style="fill:#f8766d;stroke:#f8766d;" x="567.216435" xlink:href="#m63c3e4164b" y="291.794727"/>
     <use style="fill:#f8766d;stroke:#f8766d;" x="622.443279" xlink:href="#m63c3e4164b" y="248.706409"/>
     <use style="fill:#f8766d;stroke:#f8766d;" x="565.639561" xlink:href="#m63c3e4164b" y="288.863388"/>
     <use style="fill:#f8766d;stroke:#f8766d;" x="502.351597" xlink:href="#m63c3e4164b" y="266.094387"/>
     <use style="fill:#f8766d;stroke:#f8766d;" x="533.069807" xlink:href="#m63c3e4164b" y="258.148076"/>
     <use style="fill:#f8766d;stroke:#f8766d;" x="451.737223" xlink:href="#m63c3e4164b" y="237.601536"/>
     <use style="fill:#f8766d;stroke:#f8766d;" x="483.916893" xlink:href="#m63c3e4164b" y="214.371645"/>
     <use style="fill:#f8766d;stroke:#f8766d;" x="478.558389" xlink:href="#m63c3e4164b" y="254.854718"/>
    </g>
   </g>
   <g id="PathCollection_2">
    <defs>
     <path d="M 0 3 
C 0.795609 3 1.55874 2.683901 2.12132 2.12132 
C 2.683901 1.55874 3 0.795609 3 0 
C 3 -0.795609 2.683901 -1.55874 2.12132 -2.12132 
C 1.55874 -2.683901 0.795609 -3 0 -3 
C -0.795609 -3 -1.55874 -2.683901 -2.12132 -2.12132 
C -2.683901 -1.55874 -3 -0.795609 -3 0 
C -3 0.795609 -2.683901 1.55874 -2.12132 2.12132 
C -1.55874 2.683901 -0.795609 3 0 3 
z
" id="mec007a033b" style="stroke:#00bfc4;"/>
    </defs>
    <g clip-path="url(#p390ea32c67)">
     <use style="fill:#00bfc4;stroke:#00bfc4;" x="165.696054" xlink:href="#mec007a033b" y="169.642267"/>
     <use style="fill:#00bfc4;stroke:#00bfc4;" x="252.135037" xlink:href="#mec007a033b" y="174.241062"/>
     <use style="fill:#00bfc4;stroke:#00bfc4;" x="353.49963" xlink:href="#mec007a033b" y="269.015149"/>
     <use style="fill:#00bfc4;stroke:#00bfc4;" x="375.658843" xlink:href="#mec007a033b" y="199.214949"/>
     <use style="fill:#00bfc4;stroke:#00bfc4;" x="288.336448" xlink:href="#mec007a033b" y="214.448669"/>
     <use style="fill:#00bfc4;stroke:#00bfc4;" x="394.977093" xlink:href="#mec007a033b" y="122.56534"/>
     <use style="fill:#00bfc4;stroke:#00bfc4;" x="300.912953" xlink:href="#mec007a033b" y="251.94368"/>
     <use style="fill:#00bfc4;stroke:#00bfc4;" x="183.939728" xlink:href="#mec007a033b" y="192.28808"/>
     <use style="fill:#00bfc4;stroke:#00bfc4;" x="192.800571" xlink:href="#mec007a033b" y="132.718471"/>
     <use style="fill:#00bfc4;stroke:#00bfc4;" x="502.369596" xlink:href="#mec007a033b" y="237.835879"/>
     <use style="fill:#00bfc4;stroke:#00bfc4;" x="315.696511" xlink:href="#mec007a033b" y="219.880205"/>
     <use style="fill:#00bfc4;stroke:#00bfc4;" x="344.704106" xlink:href="#mec007a033b" y="98.94206"/>
     <use style="fill:#00bfc4;stroke:#00bfc4;" x="394.63314" xlink:href="#mec007a033b" y="256.979888"/>
     <use style="fill:#00bfc4;stroke:#00bfc4;" x="328.680162" xlink:href="#mec007a033b" y="358.890359"/>
     <use style="fill:#00bfc4;stroke:#00bfc4;" x="473.709808" xlink:href="#mec007a033b" y="98.287283"/>
     <use style="fill:#00bfc4;stroke:#00bfc4;" x="344.480773" xlink:href="#mec007a033b" y="94.001557"/>
     <use style="fill:#00bfc4;stroke:#00bfc4;" x="285.219672" xlink:href="#mec007a033b" y="211.354629"/>
     <use style="fill:#00bfc4;stroke:#00bfc4;" x="143.368519" xlink:href="#mec007a033b" y="203.392287"/>
     <use style="fill:#00bfc4;stroke:#00bfc4;" x="312.907838" xlink:href="#mec007a033b" y="203.550678"/>
     <use style="fill:#00bfc4;stroke:#00bfc4;" x="269.244249" xlink:href="#mec007a033b" y="227.945402"/>
     <use style="fill:#00bfc4;stroke:#00bfc4;" x="308.646004" xlink:href="#mec007a033b" y="253.719819"/>
     <use style="fill:#00bfc4;stroke:#00bfc4;" x="230.817168" xlink:href="#mec007a033b" y="187.626769"/>
     <use style="fill:#00bfc4;stroke:#00bfc4;" x="369.974875" xlink:href="#mec007a033b" y="224.235541"/>
     <use style="fill:#00bfc4;stroke:#00bfc4;" x="290.013401" xlink:href="#mec007a033b" y="176.977092"/>
     <use style="fill:#00bfc4;stroke:#00bfc4;" x="218.537832" xlink:href="#mec007a033b" y="153.914461"/>
     <use style="fill:#00bfc4;stroke:#00bfc4;" x="209.312825" xlink:href="#mec007a033b" y="160.094177"/>
     <use style="fill:#00bfc4;stroke:#00bfc4;" x="291.820471" xlink:href="#mec007a033b" y="90.531126"/>
     <use style="fill:#00bfc4;stroke:#00bfc4;" x="271.446239" xlink:href="#mec007a033b" y="310.257781"/>
     <use style="fill:#00bfc4;stroke:#00bfc4;" x="197.924651" xlink:href="#mec007a033b" y="317.180681"/>
     <use style="fill:#00bfc4;stroke:#00bfc4;" x="418.615298" xlink:href="#mec007a033b" y="150.493842"/>
     <use style="fill:#00bfc4;stroke:#00bfc4;" x="296.61908" xlink:href="#mec007a033b" y="288.672437"/>
     <use style="fill:#00bfc4;stroke:#00bfc4;" x="510.224342" xlink:href="#mec007a033b" y="179.927377"/>
     <use style="fill:#00bfc4;stroke:#00bfc4;" x="130.521769" xlink:href="#mec007a033b" y="185.191451"/>
     <use style="fill:#00bfc4;stroke:#00bfc4;" x="212.645993" xlink:href="#mec007a033b" y="95.319296"/>
     <use style="fill:#00bfc4;stroke:#00bfc4;" x="150.300807" xlink:href="#mec007a033b" y="124.185803"/>
     <use style="fill:#00bfc4;stroke:#00bfc4;" x="276.205873" xlink:href="#mec007a033b" y="146.02147"/>
     <use style="fill:#00bfc4;stroke:#00bfc4;" x="275.228512" xlink:href="#mec007a033b" y="255.90987"/>
     <use style="fill:#00bfc4;stroke:#00bfc4;" x="408.458329" xlink:href="#mec007a033b" y="91.915341"/>
     <use style="fill:#00bfc4;stroke:#00bfc4;" x="255.373563" xlink:href="#mec007a033b" y="284.462697"/>
     <use style="fill:#00bfc4;stroke:#00bfc4;" x="270.230716" xlink:href="#mec007a033b" y="341.488764"/>
     <use style="fill:#00bfc4;stroke:#00bfc4;" x="341.077604" xlink:href="#mec007a033b" y="129.786265"/>
     <use style="fill:#00bfc4;stroke:#00bfc4;" x="415.82871" xlink:href="#mec007a033b" y="150.622188"/>
     <use style="fill:#00bfc4;stroke:#00bfc4;" x="180.585342" xlink:href="#mec007a033b" y="192.335641"/>
     <use style="fill:#00bfc4;stroke:#00bfc4;" x="283.171559" xlink:href="#mec007a033b" y="159.123442"/>
     <use style="fill:#00bfc4;stroke:#00bfc4;" x="132.774261" xlink:href="#mec007a033b" y="230.140064"/>
     <use style="fill:#00bfc4;stroke:#00bfc4;" x="143.403916" xlink:href="#mec007a033b" y="273.150335"/>
     <use style="fill:#00bfc4;stroke:#00bfc4;" x="491.16841" xlink:href="#mec007a033b" y="142.218805"/>
     <use style="fill:#00bfc4;stroke:#00bfc4;" x="355.653627" xlink:href="#mec007a033b" y="116.534366"/>
     <use style="fill:#00bfc4;stroke:#00bfc4;" x="452.471006" xlink:href="#mec007a033b" y="94.057972"/>
     <use style="fill:#00bfc4;stroke:#00bfc4;" x="320.840541" xlink:href="#mec007a033b" y="121.94804"/>
     <use style="fill:#00bfc4;stroke:#00bfc4;" x="461.007354" xlink:href="#mec007a033b" y="292.896216"/>
     <use style="fill:#00bfc4;stroke:#00bfc4;" x="425.813102" xlink:href="#mec007a033b" y="300.941587"/>
     <use style="fill:#00bfc4;stroke:#00bfc4;" x="118.33341" xlink:href="#mec007a033b" y="223.363402"/>
    </g>
   </g>
   <g id="matplotlib.axis_1">
    <g id="xtick_1">
     <g id="line2d_1">
      <defs>
       <path d="M 0 0 
L 0 3.5 
" id="m8e7d86ca68" style="stroke:#000000;stroke-width:0.8;"/>
      </defs>
      <g>
       <use style="stroke:#000000;stroke-width:0.8;" x="121.083778" xlink:href="#m8e7d86ca68" y="378"/>
      </g>
     </g>
     <g id="text_1">
      <!-- −6 -->
      <defs>
       <path d="M 10.59375 35.5 
L 73.1875 35.5 
L 73.1875 27.203125 
L 10.59375 27.203125 
z
" id="DejaVuSans-8722"/>
       <path d="M 33.015625 40.375 
Q 26.375 40.375 22.484375 35.828125 
Q 18.609375 31.296875 18.609375 23.390625 
Q 18.609375 15.53125 22.484375 10.953125 
Q 26.375 6.390625 33.015625 6.390625 
Q 39.65625 6.390625 43.53125 10.953125 
Q 47.40625 15.53125 47.40625 23.390625 
Q 47.40625 31.296875 43.53125 35.828125 
Q 39.65625 40.375 33.015625 40.375 
z
M 52.59375 71.296875 
L 52.59375 62.3125 
Q 48.875 64.0625 45.09375 64.984375 
Q 41.3125 65.921875 37.59375 65.921875 
Q 27.828125 65.921875 22.671875 59.328125 
Q 17.53125 52.734375 16.796875 39.40625 
Q 19.671875 43.65625 24.015625 45.921875 
Q 28.375 48.1875 33.59375 48.1875 
Q 44.578125 48.1875 50.953125 41.515625 
Q 57.328125 34.859375 57.328125 23.390625 
Q 57.328125 12.15625 50.6875 5.359375 
Q 44.046875 -1.421875 33.015625 -1.421875 
Q 20.359375 -1.421875 13.671875 8.265625 
Q 6.984375 17.96875 6.984375 36.375 
Q 6.984375 53.65625 15.1875 63.9375 
Q 23.390625 74.21875 37.203125 74.21875 
Q 40.921875 74.21875 44.703125 73.484375 
Q 48.484375 72.75 52.59375 71.296875 
z
" id="DejaVuSans-54"/>
      </defs>
      <g transform="translate(113.712685 392.598437)scale(0.1 -0.1)">
       <use xlink:href="#DejaVuSans-8722"/>
       <use x="83.789062" xlink:href="#DejaVuSans-54"/>
      </g>
     </g>
    </g>
    <g id="xtick_2">
     <g id="line2d_2">
      <g>
       <use style="stroke:#000000;stroke-width:0.8;" x="192.911438" xlink:href="#m8e7d86ca68" y="378"/>
      </g>
     </g>
     <g id="text_2">
      <!-- −4 -->
      <defs>
       <path d="M 37.796875 64.3125 
L 12.890625 25.390625 
L 37.796875 25.390625 
z
M 35.203125 72.90625 
L 47.609375 72.90625 
L 47.609375 25.390625 
L 58.015625 25.390625 
L 58.015625 17.1875 
L 47.609375 17.1875 
L 47.609375 0 
L 37.796875 0 
L 37.796875 17.1875 
L 4.890625 17.1875 
L 4.890625 26.703125 
z
" id="DejaVuSans-52"/>
      </defs>
      <g transform="translate(185.540345 392.598437)scale(0.1 -0.1)">
       <use xlink:href="#DejaVuSans-8722"/>
       <use x="83.789062" xlink:href="#DejaVuSans-52"/>
      </g>
     </g>
    </g>
    <g id="xtick_3">
     <g id="line2d_3">
      <g>
       <use style="stroke:#000000;stroke-width:0.8;" x="264.739098" xlink:href="#m8e7d86ca68" y="378"/>
      </g>
     </g>
     <g id="text_3">
      <!-- −2 -->
      <defs>
       <path d="M 19.1875 8.296875 
L 53.609375 8.296875 
L 53.609375 0 
L 7.328125 0 
L 7.328125 8.296875 
Q 12.9375 14.109375 22.625 23.890625 
Q 32.328125 33.6875 34.8125 36.53125 
Q 39.546875 41.84375 41.421875 45.53125 
Q 43.3125 49.21875 43.3125 52.78125 
Q 43.3125 58.59375 39.234375 62.25 
Q 35.15625 65.921875 28.609375 65.921875 
Q 23.96875 65.921875 18.8125 64.3125 
Q 13.671875 62.703125 7.8125 59.421875 
L 7.8125 69.390625 
Q 13.765625 71.78125 18.9375 73 
Q 24.125 74.21875 28.421875 74.21875 
Q 39.75 74.21875 46.484375 68.546875 
Q 53.21875 62.890625 53.21875 53.421875 
Q 53.21875 48.921875 51.53125 44.890625 
Q 49.859375 40.875 45.40625 35.40625 
Q 44.1875 33.984375 37.640625 27.21875 
Q 31.109375 20.453125 19.1875 8.296875 
z
" id="DejaVuSans-50"/>
      </defs>
      <g transform="translate(257.368005 392.598437)scale(0.1 -0.1)">
       <use xlink:href="#DejaVuSans-8722"/>
       <use x="83.789062" xlink:href="#DejaVuSans-50"/>
      </g>
     </g>
    </g>
    <g id="xtick_4">
     <g id="line2d_4">
      <g>
       <use style="stroke:#000000;stroke-width:0.8;" x="336.566758" xlink:href="#m8e7d86ca68" y="378"/>
      </g>
     </g>
     <g id="text_4">
      <!-- 0 -->
      <defs>
       <path d="M 31.78125 66.40625 
Q 24.171875 66.40625 20.328125 58.90625 
Q 16.5 51.421875 16.5 36.375 
Q 16.5 21.390625 20.328125 13.890625 
Q 24.171875 6.390625 31.78125 6.390625 
Q 39.453125 6.390625 43.28125 13.890625 
Q 47.125 21.390625 47.125 36.375 
Q 47.125 51.421875 43.28125 58.90625 
Q 39.453125 66.40625 31.78125 66.40625 
z
M 31.78125 74.21875 
Q 44.046875 74.21875 50.515625 64.515625 
Q 56.984375 54.828125 56.984375 36.375 
Q 56.984375 17.96875 50.515625 8.265625 
Q 44.046875 -1.421875 31.78125 -1.421875 
Q 19.53125 -1.421875 13.0625 8.265625 
Q 6.59375 17.96875 6.59375 36.375 
Q 6.59375 54.828125 13.0625 64.515625 
Q 19.53125 74.21875 31.78125 74.21875 
z
" id="DejaVuSans-48"/>
      </defs>
      <g transform="translate(333.385508 392.598437)scale(0.1 -0.1)">
       <use xlink:href="#DejaVuSans-48"/>
      </g>
     </g>
    </g>
    <g id="xtick_5">
     <g id="line2d_5">
      <g>
       <use style="stroke:#000000;stroke-width:0.8;" x="408.394418" xlink:href="#m8e7d86ca68" y="378"/>
      </g>
     </g>
     <g id="text_5">
      <!-- 2 -->
      <g transform="translate(405.213168 392.598437)scale(0.1 -0.1)">
       <use xlink:href="#DejaVuSans-50"/>
      </g>
     </g>
    </g>
    <g id="xtick_6">
     <g id="line2d_6">
      <g>
       <use style="stroke:#000000;stroke-width:0.8;" x="480.222079" xlink:href="#m8e7d86ca68" y="378"/>
      </g>
     </g>
     <g id="text_6">
      <!-- 4 -->
      <g transform="translate(477.040829 392.598437)scale(0.1 -0.1)">
       <use xlink:href="#DejaVuSans-52"/>
      </g>
     </g>
    </g>
    <g id="xtick_7">
     <g id="line2d_7">
      <g>
       <use style="stroke:#000000;stroke-width:0.8;" x="552.049739" xlink:href="#m8e7d86ca68" y="378"/>
      </g>
     </g>
     <g id="text_7">
      <!-- 6 -->
      <g transform="translate(548.868489 392.598437)scale(0.1 -0.1)">
       <use xlink:href="#DejaVuSans-54"/>
      </g>
     </g>
    </g>
    <g id="xtick_8">
     <g id="line2d_8">
      <g>
       <use style="stroke:#000000;stroke-width:0.8;" x="623.877399" xlink:href="#m8e7d86ca68" y="378"/>
      </g>
     </g>
     <g id="text_8">
      <!-- 8 -->
      <defs>
       <path d="M 31.78125 34.625 
Q 24.75 34.625 20.71875 30.859375 
Q 16.703125 27.09375 16.703125 20.515625 
Q 16.703125 13.921875 20.71875 10.15625 
Q 24.75 6.390625 31.78125 6.390625 
Q 38.8125 6.390625 42.859375 10.171875 
Q 46.921875 13.96875 46.921875 20.515625 
Q 46.921875 27.09375 42.890625 30.859375 
Q 38.875 34.625 31.78125 34.625 
z
M 21.921875 38.8125 
Q 15.578125 40.375 12.03125 44.71875 
Q 8.5 49.078125 8.5 55.328125 
Q 8.5 64.0625 14.71875 69.140625 
Q 20.953125 74.21875 31.78125 74.21875 
Q 42.671875 74.21875 48.875 69.140625 
Q 55.078125 64.0625 55.078125 55.328125 
Q 55.078125 49.078125 51.53125 44.71875 
Q 48 40.375 41.703125 38.8125 
Q 48.828125 37.15625 52.796875 32.3125 
Q 56.78125 27.484375 56.78125 20.515625 
Q 56.78125 9.90625 50.3125 4.234375 
Q 43.84375 -1.421875 31.78125 -1.421875 
Q 19.734375 -1.421875 13.25 4.234375 
Q 6.78125 9.90625 6.78125 20.515625 
Q 6.78125 27.484375 10.78125 32.3125 
Q 14.796875 37.15625 21.921875 38.8125 
z
M 18.3125 54.390625 
Q 18.3125 48.734375 21.84375 45.5625 
Q 25.390625 42.390625 31.78125 42.390625 
Q 38.140625 42.390625 41.71875 45.5625 
Q 45.3125 48.734375 45.3125 54.390625 
Q 45.3125 60.0625 41.71875 63.234375 
Q 38.140625 66.40625 31.78125 66.40625 
Q 25.390625 66.40625 21.84375 63.234375 
Q 18.3125 60.0625 18.3125 54.390625 
z
" id="DejaVuSans-56"/>
      </defs>
      <g transform="translate(620.696149 392.598437)scale(0.1 -0.1)">
       <use xlink:href="#DejaVuSans-56"/>
      </g>
     </g>
    </g>
    <g id="text_9">
     <!-- tSNE-1 -->
     <defs>
      <path d="M 18.3125 70.21875 
L 18.3125 54.6875 
L 36.8125 54.6875 
L 36.8125 47.703125 
L 18.3125 47.703125 
L 18.3125 18.015625 
Q 18.3125 11.328125 20.140625 9.421875 
Q 21.96875 7.515625 27.59375 7.515625 
L 36.8125 7.515625 
L 36.8125 0 
L 27.59375 0 
Q 17.1875 0 13.234375 3.875 
Q 9.28125 7.765625 9.28125 18.015625 
L 9.28125 47.703125 
L 2.6875 47.703125 
L 2.6875 54.6875 
L 9.28125 54.6875 
L 9.28125 70.21875 
z
" id="DejaVuSans-116"/>
      <path d="M 53.515625 70.515625 
L 53.515625 60.890625 
Q 47.90625 63.578125 42.921875 64.890625 
Q 37.9375 66.21875 33.296875 66.21875 
Q 25.25 66.21875 20.875 63.09375 
Q 16.5 59.96875 16.5 54.203125 
Q 16.5 49.359375 19.40625 46.890625 
Q 22.3125 44.4375 30.421875 42.921875 
L 36.375 41.703125 
Q 47.40625 39.59375 52.65625 34.296875 
Q 57.90625 29 57.90625 20.125 
Q 57.90625 9.515625 50.796875 4.046875 
Q 43.703125 -1.421875 29.984375 -1.421875 
Q 24.8125 -1.421875 18.96875 -0.25 
Q 13.140625 0.921875 6.890625 3.21875 
L 6.890625 13.375 
Q 12.890625 10.015625 18.65625 8.296875 
Q 24.421875 6.59375 29.984375 6.59375 
Q 38.421875 6.59375 43.015625 9.90625 
Q 47.609375 13.234375 47.609375 19.390625 
Q 47.609375 24.75 44.3125 27.78125 
Q 41.015625 30.8125 33.5 32.328125 
L 27.484375 33.5 
Q 16.453125 35.6875 11.515625 40.375 
Q 6.59375 45.0625 6.59375 53.421875 
Q 6.59375 63.09375 13.40625 68.65625 
Q 20.21875 74.21875 32.171875 74.21875 
Q 37.3125 74.21875 42.625 73.28125 
Q 47.953125 72.359375 53.515625 70.515625 
z
" id="DejaVuSans-83"/>
      <path d="M 9.8125 72.90625 
L 23.09375 72.90625 
L 55.421875 11.921875 
L 55.421875 72.90625 
L 64.984375 72.90625 
L 64.984375 0 
L 51.703125 0 
L 19.390625 60.984375 
L 19.390625 0 
L 9.8125 0 
z
" id="DejaVuSans-78"/>
      <path d="M 9.8125 72.90625 
L 55.90625 72.90625 
L 55.90625 64.59375 
L 19.671875 64.59375 
L 19.671875 43.015625 
L 54.390625 43.015625 
L 54.390625 34.71875 
L 19.671875 34.71875 
L 19.671875 8.296875 
L 56.78125 8.296875 
L 56.78125 0 
L 9.8125 0 
z
" id="DejaVuSans-69"/>
      <path d="M 4.890625 31.390625 
L 31.203125 31.390625 
L 31.203125 23.390625 
L 4.890625 23.390625 
z
" id="DejaVuSans-45"/>
      <path d="M 12.40625 8.296875 
L 28.515625 8.296875 
L 28.515625 63.921875 
L 10.984375 60.40625 
L 10.984375 69.390625 
L 28.421875 72.90625 
L 38.28125 72.90625 
L 38.28125 8.296875 
L 54.390625 8.296875 
L 54.390625 0 
L 12.40625 0 
z
" id="DejaVuSans-49"/>
     </defs>
     <g transform="translate(351.980469 406.276563)scale(0.1 -0.1)">
      <use xlink:href="#DejaVuSans-116"/>
      <use x="39.208984" xlink:href="#DejaVuSans-83"/>
      <use x="102.685547" xlink:href="#DejaVuSans-78"/>
      <use x="177.490234" xlink:href="#DejaVuSans-69"/>
      <use x="240.673828" xlink:href="#DejaVuSans-45"/>
      <use x="276.757812" xlink:href="#DejaVuSans-49"/>
     </g>
    </g>
   </g>
   <g id="matplotlib.axis_2">
    <g id="ytick_1">
     <g id="line2d_9">
      <defs>
       <path d="M 0 0 
L -3.5 0 
" id="me898635f88" style="stroke:#000000;stroke-width:0.8;"/>
      </defs>
      <g>
       <use style="stroke:#000000;stroke-width:0.8;" x="90" xlink:href="#me898635f88" y="362.085927"/>
      </g>
     </g>
     <g id="text_10">
      <!-- −6 -->
      <g transform="translate(68.257812 365.885146)scale(0.1 -0.1)">
       <use xlink:href="#DejaVuSans-8722"/>
       <use x="83.789062" xlink:href="#DejaVuSans-54"/>
      </g>
     </g>
    </g>
    <g id="ytick_2">
     <g id="line2d_10">
      <g>
       <use style="stroke:#000000;stroke-width:0.8;" x="90" xlink:href="#me898635f88" y="322.351365"/>
      </g>
     </g>
     <g id="text_11">
      <!-- −4 -->
      <g transform="translate(68.257812 326.150584)scale(0.1 -0.1)">
       <use xlink:href="#DejaVuSans-8722"/>
       <use x="83.789062" xlink:href="#DejaVuSans-52"/>
      </g>
     </g>
    </g>
    <g id="ytick_3">
     <g id="line2d_11">
      <g>
       <use style="stroke:#000000;stroke-width:0.8;" x="90" xlink:href="#me898635f88" y="282.616803"/>
      </g>
     </g>
     <g id="text_12">
      <!-- −2 -->
      <g transform="translate(68.257812 286.416022)scale(0.1 -0.1)">
       <use xlink:href="#DejaVuSans-8722"/>
       <use x="83.789062" xlink:href="#DejaVuSans-50"/>
      </g>
     </g>
    </g>
    <g id="ytick_4">
     <g id="line2d_12">
      <g>
       <use style="stroke:#000000;stroke-width:0.8;" x="90" xlink:href="#me898635f88" y="242.882242"/>
      </g>
     </g>
     <g id="text_13">
      <!-- 0 -->
      <g transform="translate(76.6375 246.68146)scale(0.1 -0.1)">
       <use xlink:href="#DejaVuSans-48"/>
      </g>
     </g>
    </g>
    <g id="ytick_5">
     <g id="line2d_13">
      <g>
       <use style="stroke:#000000;stroke-width:0.8;" x="90" xlink:href="#me898635f88" y="203.14768"/>
      </g>
     </g>
     <g id="text_14">
      <!-- 2 -->
      <g transform="translate(76.6375 206.946899)scale(0.1 -0.1)">
       <use xlink:href="#DejaVuSans-50"/>
      </g>
     </g>
    </g>
    <g id="ytick_6">
     <g id="line2d_14">
      <g>
       <use style="stroke:#000000;stroke-width:0.8;" x="90" xlink:href="#me898635f88" y="163.413118"/>
      </g>
     </g>
     <g id="text_15">
      <!-- 4 -->
      <g transform="translate(76.6375 167.212337)scale(0.1 -0.1)">
       <use xlink:href="#DejaVuSans-52"/>
      </g>
     </g>
    </g>
    <g id="ytick_7">
     <g id="line2d_15">
      <g>
       <use style="stroke:#000000;stroke-width:0.8;" x="90" xlink:href="#me898635f88" y="123.678556"/>
      </g>
     </g>
     <g id="text_16">
      <!-- 6 -->
      <g transform="translate(76.6375 127.477775)scale(0.1 -0.1)">
       <use xlink:href="#DejaVuSans-54"/>
      </g>
     </g>
    </g>
    <g id="ytick_8">
     <g id="line2d_16">
      <g>
       <use style="stroke:#000000;stroke-width:0.8;" x="90" xlink:href="#me898635f88" y="83.943994"/>
      </g>
     </g>
     <g id="text_17">
      <!-- 8 -->
      <g transform="translate(76.6375 87.743213)scale(0.1 -0.1)">
       <use xlink:href="#DejaVuSans-56"/>
      </g>
     </g>
    </g>
    <g id="text_18">
     <!-- tSNE-2 -->
     <g transform="translate(62.178125 231.939531)rotate(-90)scale(0.1 -0.1)">
      <use xlink:href="#DejaVuSans-116"/>
      <use x="39.208984" xlink:href="#DejaVuSans-83"/>
      <use x="102.685547" xlink:href="#DejaVuSans-78"/>
      <use x="177.490234" xlink:href="#DejaVuSans-69"/>
      <use x="240.673828" xlink:href="#DejaVuSans-45"/>
      <use x="276.757812" xlink:href="#DejaVuSans-50"/>
     </g>
    </g>
   </g>
   <g id="patch_3">
    <path d="M 90 378 
L 90 51.84 
" style="fill:none;stroke:#000000;stroke-linecap:square;stroke-linejoin:miter;stroke-width:0.8;"/>
   </g>
   <g id="patch_4">
    <path d="M 648 378 
L 648 51.84 
" style="fill:none;stroke:#000000;stroke-linecap:square;stroke-linejoin:miter;stroke-width:0.8;"/>
   </g>
   <g id="patch_5">
    <path d="M 90 378 
L 648 378 
" style="fill:none;stroke:#000000;stroke-linecap:square;stroke-linejoin:miter;stroke-width:0.8;"/>
   </g>
   <g id="patch_6">
    <path d="M 90 51.84 
L 648 51.84 
" style="fill:none;stroke:#000000;stroke-linecap:square;stroke-linejoin:miter;stroke-width:0.8;"/>
   </g>
   <g id="legend_1">
    <g id="patch_7">
     <path d="M 563.125 89.19625 
L 641 89.19625 
Q 643 89.19625 643 87.19625 
L 643 58.84 
Q 643 56.84 641 56.84 
L 563.125 56.84 
Q 561.125 56.84 561.125 58.84 
L 561.125 87.19625 
Q 561.125 89.19625 563.125 89.19625 
z
" style="fill:#ffffff;opacity:0.8;stroke:#cccccc;stroke-linejoin:miter;"/>
    </g>
    <g id="PathCollection_3">
     <g>
      <use style="fill:#f8766d;stroke:#f8766d;" x="575.125" xlink:href="#m63c3e4164b" y="65.813437"/>
     </g>
    </g>
    <g id="text_19">
     <!-- D000236 -->
     <defs>
      <path d="M 19.671875 64.796875 
L 19.671875 8.109375 
L 31.59375 8.109375 
Q 46.6875 8.109375 53.6875 14.9375 
Q 60.6875 21.78125 60.6875 36.53125 
Q 60.6875 51.171875 53.6875 57.984375 
Q 46.6875 64.796875 31.59375 64.796875 
z
M 9.8125 72.90625 
L 30.078125 72.90625 
Q 51.265625 72.90625 61.171875 64.09375 
Q 71.09375 55.28125 71.09375 36.53125 
Q 71.09375 17.671875 61.125 8.828125 
Q 51.171875 0 30.078125 0 
L 9.8125 0 
z
" id="DejaVuSans-68"/>
      <path d="M 40.578125 39.3125 
Q 47.65625 37.796875 51.625 33 
Q 55.609375 28.21875 55.609375 21.1875 
Q 55.609375 10.40625 48.1875 4.484375 
Q 40.765625 -1.421875 27.09375 -1.421875 
Q 22.515625 -1.421875 17.65625 -0.515625 
Q 12.796875 0.390625 7.625 2.203125 
L 7.625 11.71875 
Q 11.71875 9.328125 16.59375 8.109375 
Q 21.484375 6.890625 26.8125 6.890625 
Q 36.078125 6.890625 40.9375 10.546875 
Q 45.796875 14.203125 45.796875 21.1875 
Q 45.796875 27.640625 41.28125 31.265625 
Q 36.765625 34.90625 28.71875 34.90625 
L 20.21875 34.90625 
L 20.21875 43.015625 
L 29.109375 43.015625 
Q 36.375 43.015625 40.234375 45.921875 
Q 44.09375 48.828125 44.09375 54.296875 
Q 44.09375 59.90625 40.109375 62.90625 
Q 36.140625 65.921875 28.71875 65.921875 
Q 24.65625 65.921875 20.015625 65.03125 
Q 15.375 64.15625 9.8125 62.3125 
L 9.8125 71.09375 
Q 15.4375 72.65625 20.34375 73.4375 
Q 25.25 74.21875 29.59375 74.21875 
Q 40.828125 74.21875 47.359375 69.109375 
Q 53.90625 64.015625 53.90625 55.328125 
Q 53.90625 49.265625 50.4375 45.09375 
Q 46.96875 40.921875 40.578125 39.3125 
z
" id="DejaVuSans-51"/>
     </defs>
     <g transform="translate(593.125 68.438437)scale(0.1 -0.1)">
      <use xlink:href="#DejaVuSans-68"/>
      <use x="77.001953" xlink:href="#DejaVuSans-48"/>
      <use x="140.625" xlink:href="#DejaVuSans-48"/>
      <use x="204.248047" xlink:href="#DejaVuSans-48"/>
      <use x="267.871094" xlink:href="#DejaVuSans-50"/>
      <use x="331.494141" xlink:href="#DejaVuSans-51"/>
      <use x="395.117188" xlink:href="#DejaVuSans-54"/>
     </g>
    </g>
    <g id="PathCollection_4">
     <g>
      <use style="fill:#00bfc4;stroke:#00bfc4;" x="575.125" xlink:href="#mec007a033b" y="80.491562"/>
     </g>
    </g>
    <g id="text_20">
     <!-- D006262 -->
     <g transform="translate(593.125 83.116562)scale(0.1 -0.1)">
      <use xlink:href="#DejaVuSans-68"/>
      <use x="77.001953" xlink:href="#DejaVuSans-48"/>
      <use x="140.625" xlink:href="#DejaVuSans-48"/>
      <use x="204.248047" xlink:href="#DejaVuSans-54"/>
      <use x="267.871094" xlink:href="#DejaVuSans-50"/>
      <use x="331.494141" xlink:href="#DejaVuSans-54"/>
      <use x="395.117188" xlink:href="#DejaVuSans-50"/>
     </g>
    </g>
   </g>
  </g>
 </g>
 <defs>
  <clipPath id="p390ea32c67">
   <rect height="326.16" width="558" x="90" y="51.84"/>
  </clipPath>
 </defs>
</svg>
