<?xml version="1.0" encoding="utf-8" standalone="no"?>
<!DOCTYPE svg PUBLIC "-//W3C//DTD SVG 1.1//EN"
  "http://www.w3.org/Graphics/SVG/1.1/DTD/svg11.dtd">
<!-- Created with matplotlib (https://matplotlib.org/) -->
<svg height="432pt" version="1.1" viewBox="0 0 720 432" width="720pt" xmlns="http://www.w3.org/2000/svg" xmlns:xlink="http://www.w3.org/1999/xlink">
 <defs>
  <style type="text/css">
*{stroke-linecap:butt;stroke-linejoin:round;}
  </style>
 </defs>
 <g id="figure_1">
  <g id="patch_1">
   <path d="M 0 432 
L 720 432 
L 720 0 
L 0 0 
z
" style="fill:#ffffff;"/>
  </g>
  <g id="axes_1">
   <g id="patch_2">
    <path d="M 90 378 
L 648 378 
L 648 51.84 
L 90 51.84 
z
" style="fill:#ffffff;"/>
   </g>
   <g id="PathCollection_1">
    <defs>
     <path d="M 0 3 
C 0.795609 3 1.55874 2.683901 2.12132 2.12132 
C 2.683901 1.55874 3 0.795609 3 0 
C 3 -0.795609 2.683901 -1.55874 2.12132 -2.12132 
C 1.55874 -2.683901 0.795609 -3 0 -3 
C -0.795609 -3 -1.55874 -2.683901 -2.12132 -2.12132 
C -2.683901 -1.55874 -3 -0.795609 -3 0 
C -3 0.795609 -2.683901 1.55874 -2.12132 2.12132 
C -1.55874 2.683901 -0.795609 3 0 3 
z
" id="me177a09d33" style="stroke:#f8766d;"/>
    </defs>
    <g clip-path="url(#p3e804cfe7f)">
     <use style="fill:#f8766d;stroke:#f8766d;" x="352.875295" xlink:href="#me177a09d33" y="323.218635"/>
     <use style="fill:#f8766d;stroke:#f8766d;" x="241.861254" xlink:href="#me177a09d33" y="199.26661"/>
     <use style="fill:#f8766d;stroke:#f8766d;" x="381.529628" xlink:href="#me177a09d33" y="124.13589"/>
     <use style="fill:#f8766d;stroke:#f8766d;" x="597.274921" xlink:href="#me177a09d33" y="208.638229"/>
     <use style="fill:#f8766d;stroke:#f8766d;" x="500.040192" xlink:href="#me177a09d33" y="185.293056"/>
     <use style="fill:#f8766d;stroke:#f8766d;" x="526.394456" xlink:href="#me177a09d33" y="141.168345"/>
     <use style="fill:#f8766d;stroke:#f8766d;" x="544.328093" xlink:href="#me177a09d33" y="313.558408"/>
     <use style="fill:#f8766d;stroke:#f8766d;" x="164.468022" xlink:href="#me177a09d33" y="269.976738"/>
     <use style="fill:#f8766d;stroke:#f8766d;" x="248.627284" xlink:href="#me177a09d33" y="292.403321"/>
     <use style="fill:#f8766d;stroke:#f8766d;" x="390.651633" xlink:href="#me177a09d33" y="220.696779"/>
     <use style="fill:#f8766d;stroke:#f8766d;" x="583.121726" xlink:href="#me177a09d33" y="151.727999"/>
     <use style="fill:#f8766d;stroke:#f8766d;" x="291.285686" xlink:href="#me177a09d33" y="200.521989"/>
     <use style="fill:#f8766d;stroke:#f8766d;" x="622.503201" xlink:href="#me177a09d33" y="172.692439"/>
     <use style="fill:#f8766d;stroke:#f8766d;" x="233.142177" xlink:href="#me177a09d33" y="263.254703"/>
     <use style="fill:#f8766d;stroke:#f8766d;" x="417.885825" xlink:href="#me177a09d33" y="277.872204"/>
     <use style="fill:#f8766d;stroke:#f8766d;" x="336.273605" xlink:href="#me177a09d33" y="139.499307"/>
     <use style="fill:#f8766d;stroke:#f8766d;" x="438.413604" xlink:href="#me177a09d33" y="232.656972"/>
     <use style="fill:#f8766d;stroke:#f8766d;" x="582.190224" xlink:href="#me177a09d33" y="152.490423"/>
     <use style="fill:#f8766d;stroke:#f8766d;" x="275.371836" xlink:href="#me177a09d33" y="190.809901"/>
     <use style="fill:#f8766d;stroke:#f8766d;" x="271.844362" xlink:href="#me177a09d33" y="170.431191"/>
     <use style="fill:#f8766d;stroke:#f8766d;" x="214.941978" xlink:href="#me177a09d33" y="132.532537"/>
     <use style="fill:#f8766d;stroke:#f8766d;" x="213.949864" xlink:href="#me177a09d33" y="130.96331"/>
     <use style="fill:#f8766d;stroke:#f8766d;" x="230.984018" xlink:href="#me177a09d33" y="271.995581"/>
     <use style="fill:#f8766d;stroke:#f8766d;" x="352.928755" xlink:href="#me177a09d33" y="264.739826"/>
     <use style="fill:#f8766d;stroke:#f8766d;" x="352.565486" xlink:href="#me177a09d33" y="274.878439"/>
     <use style="fill:#f8766d;stroke:#f8766d;" x="381.573067" xlink:href="#me177a09d33" y="232.170902"/>
     <use style="fill:#f8766d;stroke:#f8766d;" x="199.53508" xlink:href="#me177a09d33" y="207.627453"/>
    </g>
   </g>
   <g id="PathCollection_2">
    <defs>
     <path d="M 0 3 
C 0.795609 3 1.55874 2.683901 2.12132 2.12132 
C 2.683901 1.55874 3 0.795609 3 0 
C 3 -0.795609 2.683901 -1.55874 2.12132 -2.12132 
C 1.55874 -2.683901 0.795609 -3 0 -3 
C -0.795609 -3 -1.55874 -2.683901 -2.12132 -2.12132 
C -2.683901 -1.55874 -3 -0.795609 -3 0 
C -3 0.795609 -2.683901 1.55874 -2.12132 2.12132 
C -1.55874 2.683901 -0.795609 3 0 3 
z
" id="m74e86e24cc" style="stroke:#00bfc4;"/>
    </defs>
    <g clip-path="url(#p3e804cfe7f)">
     <use style="fill:#00bfc4;stroke:#00bfc4;" x="493.931059" xlink:href="#m74e86e24cc" y="139.650701"/>
     <use style="fill:#00bfc4;stroke:#00bfc4;" x="321.906133" xlink:href="#m74e86e24cc" y="222.499877"/>
     <use style="fill:#00bfc4;stroke:#00bfc4;" x="456.057413" xlink:href="#m74e86e24cc" y="163.309818"/>
     <use style="fill:#00bfc4;stroke:#00bfc4;" x="473.459332" xlink:href="#m74e86e24cc" y="169.022372"/>
     <use style="fill:#00bfc4;stroke:#00bfc4;" x="463.821036" xlink:href="#m74e86e24cc" y="175.101874"/>
     <use style="fill:#00bfc4;stroke:#00bfc4;" x="529.449607" xlink:href="#m74e86e24cc" y="123.915994"/>
     <use style="fill:#00bfc4;stroke:#00bfc4;" x="525.639307" xlink:href="#m74e86e24cc" y="182.230401"/>
     <use style="fill:#00bfc4;stroke:#00bfc4;" x="475.080954" xlink:href="#m74e86e24cc" y="171.920501"/>
     <use style="fill:#00bfc4;stroke:#00bfc4;" x="481.833792" xlink:href="#m74e86e24cc" y="194.369431"/>
     <use style="fill:#00bfc4;stroke:#00bfc4;" x="475.235476" xlink:href="#m74e86e24cc" y="171.858478"/>
     <use style="fill:#00bfc4;stroke:#00bfc4;" x="498.189529" xlink:href="#m74e86e24cc" y="172.670621"/>
     <use style="fill:#00bfc4;stroke:#00bfc4;" x="459.286579" xlink:href="#m74e86e24cc" y="163.654322"/>
     <use style="fill:#00bfc4;stroke:#00bfc4;" x="475.206358" xlink:href="#m74e86e24cc" y="171.855149"/>
     <use style="fill:#00bfc4;stroke:#00bfc4;" x="421.291708" xlink:href="#m74e86e24cc" y="122.46744"/>
     <use style="fill:#00bfc4;stroke:#00bfc4;" x="443.722909" xlink:href="#m74e86e24cc" y="152.65311"/>
     <use style="fill:#00bfc4;stroke:#00bfc4;" x="427.766123" xlink:href="#m74e86e24cc" y="146.358497"/>
     <use style="fill:#00bfc4;stroke:#00bfc4;" x="478.114563" xlink:href="#m74e86e24cc" y="207.913397"/>
     <use style="fill:#00bfc4;stroke:#00bfc4;" x="483.913016" xlink:href="#m74e86e24cc" y="113.369034"/>
     <use style="fill:#00bfc4;stroke:#00bfc4;" x="404.338512" xlink:href="#m74e86e24cc" y="144.24972"/>
     <use style="fill:#00bfc4;stroke:#00bfc4;" x="235.153745" xlink:href="#m74e86e24cc" y="159.352841"/>
     <use style="fill:#00bfc4;stroke:#00bfc4;" x="451.709047" xlink:href="#m74e86e24cc" y="264.527703"/>
     <use style="fill:#00bfc4;stroke:#00bfc4;" x="542.769976" xlink:href="#m74e86e24cc" y="158.704918"/>
     <use style="fill:#00bfc4;stroke:#00bfc4;" x="188.419781" xlink:href="#m74e86e24cc" y="224.69809"/>
     <use style="fill:#00bfc4;stroke:#00bfc4;" x="398.201762" xlink:href="#m74e86e24cc" y="197.6668"/>
     <use style="fill:#00bfc4;stroke:#00bfc4;" x="262.809296" xlink:href="#m74e86e24cc" y="274.582936"/>
     <use style="fill:#00bfc4;stroke:#00bfc4;" x="289.395624" xlink:href="#m74e86e24cc" y="240.81469"/>
     <use style="fill:#00bfc4;stroke:#00bfc4;" x="237.449401" xlink:href="#m74e86e24cc" y="227.196906"/>
     <use style="fill:#00bfc4;stroke:#00bfc4;" x="293.801258" xlink:href="#m74e86e24cc" y="194.521805"/>
     <use style="fill:#00bfc4;stroke:#00bfc4;" x="220.770588" xlink:href="#m74e86e24cc" y="148.554931"/>
     <use style="fill:#00bfc4;stroke:#00bfc4;" x="392.446916" xlink:href="#m74e86e24cc" y="306.810355"/>
     <use style="fill:#00bfc4;stroke:#00bfc4;" x="393.597647" xlink:href="#m74e86e24cc" y="93.051919"/>
     <use style="fill:#00bfc4;stroke:#00bfc4;" x="315.342741" xlink:href="#m74e86e24cc" y="301.09472"/>
     <use style="fill:#00bfc4;stroke:#00bfc4;" x="185.106406" xlink:href="#m74e86e24cc" y="234.621886"/>
     <use style="fill:#00bfc4;stroke:#00bfc4;" x="460.222427" xlink:href="#m74e86e24cc" y="202.978236"/>
     <use style="fill:#00bfc4;stroke:#00bfc4;" x="431.620673" xlink:href="#m74e86e24cc" y="202.940959"/>
     <use style="fill:#00bfc4;stroke:#00bfc4;" x="493.01093" xlink:href="#m74e86e24cc" y="273.494659"/>
     <use style="fill:#00bfc4;stroke:#00bfc4;" x="358.918564" xlink:href="#m74e86e24cc" y="275.401467"/>
     <use style="fill:#00bfc4;stroke:#00bfc4;" x="438.412739" xlink:href="#m74e86e24cc" y="282.494262"/>
     <use style="fill:#00bfc4;stroke:#00bfc4;" x="400.304127" xlink:href="#m74e86e24cc" y="164.014612"/>
     <use style="fill:#00bfc4;stroke:#00bfc4;" x="425.775214" xlink:href="#m74e86e24cc" y="165.088053"/>
     <use style="fill:#00bfc4;stroke:#00bfc4;" x="345.54968" xlink:href="#m74e86e24cc" y="283.017893"/>
     <use style="fill:#00bfc4;stroke:#00bfc4;" x="309.21216" xlink:href="#m74e86e24cc" y="361.156947"/>
     <use style="fill:#00bfc4;stroke:#00bfc4;" x="425.27185" xlink:href="#m74e86e24cc" y="186.585402"/>
     <use style="fill:#00bfc4;stroke:#00bfc4;" x="517.564408" xlink:href="#m74e86e24cc" y="160.590185"/>
     <use style="fill:#00bfc4;stroke:#00bfc4;" x="519.421814" xlink:href="#m74e86e24cc" y="308.831887"/>
     <use style="fill:#00bfc4;stroke:#00bfc4;" x="226.50083" xlink:href="#m74e86e24cc" y="253.374474"/>
     <use style="fill:#00bfc4;stroke:#00bfc4;" x="321.296536" xlink:href="#m74e86e24cc" y="257.442827"/>
     <use style="fill:#00bfc4;stroke:#00bfc4;" x="303.260868" xlink:href="#m74e86e24cc" y="193.222461"/>
     <use style="fill:#00bfc4;stroke:#00bfc4;" x="473.113487" xlink:href="#m74e86e24cc" y="248.591488"/>
     <use style="fill:#00bfc4;stroke:#00bfc4;" x="227.539488" xlink:href="#m74e86e24cc" y="186.296647"/>
     <use style="fill:#00bfc4;stroke:#00bfc4;" x="516.387603" xlink:href="#m74e86e24cc" y="98.15847"/>
     <use style="fill:#00bfc4;stroke:#00bfc4;" x="353.485567" xlink:href="#m74e86e24cc" y="201.068248"/>
     <use style="fill:#00bfc4;stroke:#00bfc4;" x="177.094031" xlink:href="#m74e86e24cc" y="279.717976"/>
     <use style="fill:#00bfc4;stroke:#00bfc4;" x="475.297351" xlink:href="#m74e86e24cc" y="68.683053"/>
     <use style="fill:#00bfc4;stroke:#00bfc4;" x="444.870194" xlink:href="#m74e86e24cc" y="186.31584"/>
     <use style="fill:#00bfc4;stroke:#00bfc4;" x="456.101271" xlink:href="#m74e86e24cc" y="190.32798"/>
     <use style="fill:#00bfc4;stroke:#00bfc4;" x="418.962749" xlink:href="#m74e86e24cc" y="207.155094"/>
     <use style="fill:#00bfc4;stroke:#00bfc4;" x="489.835927" xlink:href="#m74e86e24cc" y="161.258513"/>
     <use style="fill:#00bfc4;stroke:#00bfc4;" x="198.08778" xlink:href="#m74e86e24cc" y="333.040166"/>
     <use style="fill:#00bfc4;stroke:#00bfc4;" x="212.67358" xlink:href="#m74e86e24cc" y="213.560162"/>
     <use style="fill:#00bfc4;stroke:#00bfc4;" x="284.588735" xlink:href="#m74e86e24cc" y="294.75741"/>
     <use style="fill:#00bfc4;stroke:#00bfc4;" x="334.187814" xlink:href="#m74e86e24cc" y="335.263146"/>
     <use style="fill:#00bfc4;stroke:#00bfc4;" x="279.674277" xlink:href="#m74e86e24cc" y="104.919054"/>
     <use style="fill:#00bfc4;stroke:#00bfc4;" x="193.44632" xlink:href="#m74e86e24cc" y="294.41904"/>
     <use style="fill:#00bfc4;stroke:#00bfc4;" x="500.340106" xlink:href="#m74e86e24cc" y="266.425364"/>
     <use style="fill:#00bfc4;stroke:#00bfc4;" x="339.672841" xlink:href="#m74e86e24cc" y="355.928255"/>
     <use style="fill:#00bfc4;stroke:#00bfc4;" x="397.985368" xlink:href="#m74e86e24cc" y="196.668525"/>
     <use style="fill:#00bfc4;stroke:#00bfc4;" x="517.840654" xlink:href="#m74e86e24cc" y="161.450726"/>
     <use style="fill:#00bfc4;stroke:#00bfc4;" x="213.086178" xlink:href="#m74e86e24cc" y="129.252248"/>
     <use style="fill:#00bfc4;stroke:#00bfc4;" x="268.45377" xlink:href="#m74e86e24cc" y="206.521823"/>
     <use style="fill:#00bfc4;stroke:#00bfc4;" x="473.308637" xlink:href="#m74e86e24cc" y="245.260483"/>
     <use style="fill:#00bfc4;stroke:#00bfc4;" x="452.907749" xlink:href="#m74e86e24cc" y="334.326767"/>
     <use style="fill:#00bfc4;stroke:#00bfc4;" x="506.591023" xlink:href="#m74e86e24cc" y="203.87654"/>
     <use style="fill:#00bfc4;stroke:#00bfc4;" x="449.298912" xlink:href="#m74e86e24cc" y="215.115003"/>
     <use style="fill:#00bfc4;stroke:#00bfc4;" x="381.029932" xlink:href="#m74e86e24cc" y="295.09651"/>
     <use style="fill:#00bfc4;stroke:#00bfc4;" x="404.64474" xlink:href="#m74e86e24cc" y="258.04903"/>
     <use style="fill:#00bfc4;stroke:#00bfc4;" x="512.699211" xlink:href="#m74e86e24cc" y="236.1307"/>
     <use style="fill:#00bfc4;stroke:#00bfc4;" x="363.685757" xlink:href="#m74e86e24cc" y="142.969922"/>
     <use style="fill:#00bfc4;stroke:#00bfc4;" x="229.075851" xlink:href="#m74e86e24cc" y="297.927431"/>
     <use style="fill:#00bfc4;stroke:#00bfc4;" x="268.630903" xlink:href="#m74e86e24cc" y="235.447859"/>
     <use style="fill:#00bfc4;stroke:#00bfc4;" x="198.709116" xlink:href="#m74e86e24cc" y="331.090064"/>
     <use style="fill:#00bfc4;stroke:#00bfc4;" x="345.80126" xlink:href="#m74e86e24cc" y="103.737999"/>
     <use style="fill:#00bfc4;stroke:#00bfc4;" x="333.061528" xlink:href="#m74e86e24cc" y="252.992744"/>
     <use style="fill:#00bfc4;stroke:#00bfc4;" x="118.074022" xlink:href="#m74e86e24cc" y="219.986013"/>
     <use style="fill:#00bfc4;stroke:#00bfc4;" x="590.999155" xlink:href="#m74e86e24cc" y="216.90666"/>
     <use style="fill:#00bfc4;stroke:#00bfc4;" x="350.01119" xlink:href="#m74e86e24cc" y="205.95856"/>
     <use style="fill:#00bfc4;stroke:#00bfc4;" x="595.902098" xlink:href="#m74e86e24cc" y="199.091735"/>
     <use style="fill:#00bfc4;stroke:#00bfc4;" x="301.047649" xlink:href="#m74e86e24cc" y="262.222423"/>
     <use style="fill:#00bfc4;stroke:#00bfc4;" x="284.982614" xlink:href="#m74e86e24cc" y="314.261814"/>
     <use style="fill:#00bfc4;stroke:#00bfc4;" x="378.139735" xlink:href="#m74e86e24cc" y="172.853359"/>
     <use style="fill:#00bfc4;stroke:#00bfc4;" x="330.454643" xlink:href="#m74e86e24cc" y="184.969701"/>
     <use style="fill:#00bfc4;stroke:#00bfc4;" x="251.018463" xlink:href="#m74e86e24cc" y="138.984323"/>
     <use style="fill:#00bfc4;stroke:#00bfc4;" x="384.768839" xlink:href="#m74e86e24cc" y="249.977106"/>
     <use style="fill:#00bfc4;stroke:#00bfc4;" x="294.866295" xlink:href="#m74e86e24cc" y="158.626455"/>
     <use style="fill:#00bfc4;stroke:#00bfc4;" x="516.081252" xlink:href="#m74e86e24cc" y="257.569627"/>
     <use style="fill:#00bfc4;stroke:#00bfc4;" x="299.785348" xlink:href="#m74e86e24cc" y="236.27799"/>
     <use style="fill:#00bfc4;stroke:#00bfc4;" x="197.83395" xlink:href="#m74e86e24cc" y="278.87099"/>
     <use style="fill:#00bfc4;stroke:#00bfc4;" x="388.391066" xlink:href="#m74e86e24cc" y="181.061015"/>
     <use style="fill:#00bfc4;stroke:#00bfc4;" x="182.608283" xlink:href="#m74e86e24cc" y="232.619709"/>
     <use style="fill:#00bfc4;stroke:#00bfc4;" x="493.195162" xlink:href="#m74e86e24cc" y="299.507926"/>
     <use style="fill:#00bfc4;stroke:#00bfc4;" x="432.248906" xlink:href="#m74e86e24cc" y="76.360954"/>
     <use style="fill:#00bfc4;stroke:#00bfc4;" x="186.422043" xlink:href="#m74e86e24cc" y="341.111209"/>
     <use style="fill:#00bfc4;stroke:#00bfc4;" x="250.420417" xlink:href="#m74e86e24cc" y="235.967888"/>
     <use style="fill:#00bfc4;stroke:#00bfc4;" x="496.088202" xlink:href="#m74e86e24cc" y="286.310618"/>
     <use style="fill:#00bfc4;stroke:#00bfc4;" x="190.670002" xlink:href="#m74e86e24cc" y="159.781342"/>
     <use style="fill:#00bfc4;stroke:#00bfc4;" x="283.720584" xlink:href="#m74e86e24cc" y="252.829286"/>
     <use style="fill:#00bfc4;stroke:#00bfc4;" x="393.254774" xlink:href="#m74e86e24cc" y="227.304808"/>
     <use style="fill:#00bfc4;stroke:#00bfc4;" x="326.495502" xlink:href="#m74e86e24cc" y="328.594077"/>
     <use style="fill:#00bfc4;stroke:#00bfc4;" x="288.680808" xlink:href="#m74e86e24cc" y="167.740547"/>
     <use style="fill:#00bfc4;stroke:#00bfc4;" x="373.235691" xlink:href="#m74e86e24cc" y="184.827193"/>
     <use style="fill:#00bfc4;stroke:#00bfc4;" x="592.544694" xlink:href="#m74e86e24cc" y="214.517216"/>
     <use style="fill:#00bfc4;stroke:#00bfc4;" x="427.94534" xlink:href="#m74e86e24cc" y="277.45206"/>
     <use style="fill:#00bfc4;stroke:#00bfc4;" x="337.443235" xlink:href="#m74e86e24cc" y="349.938888"/>
     <use style="fill:#00bfc4;stroke:#00bfc4;" x="391.426033" xlink:href="#m74e86e24cc" y="180.665463"/>
     <use style="fill:#00bfc4;stroke:#00bfc4;" x="289.185126" xlink:href="#m74e86e24cc" y="238.978452"/>
     <use style="fill:#00bfc4;stroke:#00bfc4;" x="535.67532" xlink:href="#m74e86e24cc" y="197.786878"/>
     <use style="fill:#00bfc4;stroke:#00bfc4;" x="196.082861" xlink:href="#m74e86e24cc" y="244.528252"/>
     <use style="fill:#00bfc4;stroke:#00bfc4;" x="494.351913" xlink:href="#m74e86e24cc" y="222.124219"/>
     <use style="fill:#00bfc4;stroke:#00bfc4;" x="118.93557" xlink:href="#m74e86e24cc" y="219.90638"/>
     <use style="fill:#00bfc4;stroke:#00bfc4;" x="227.785925" xlink:href="#m74e86e24cc" y="253.347516"/>
     <use style="fill:#00bfc4;stroke:#00bfc4;" x="280.224018" xlink:href="#m74e86e24cc" y="309.180812"/>
     <use style="fill:#00bfc4;stroke:#00bfc4;" x="295.811633" xlink:href="#m74e86e24cc" y="216.306136"/>
     <use style="fill:#00bfc4;stroke:#00bfc4;" x="172.302862" xlink:href="#m74e86e24cc" y="209.361271"/>
     <use style="fill:#00bfc4;stroke:#00bfc4;" x="215.401995" xlink:href="#m74e86e24cc" y="150.542916"/>
     <use style="fill:#00bfc4;stroke:#00bfc4;" x="257.891058" xlink:href="#m74e86e24cc" y="313.014709"/>
     <use style="fill:#00bfc4;stroke:#00bfc4;" x="432.726934" xlink:href="#m74e86e24cc" y="78.574724"/>
     <use style="fill:#00bfc4;stroke:#00bfc4;" x="161.75261" xlink:href="#m74e86e24cc" y="284.029538"/>
     <use style="fill:#00bfc4;stroke:#00bfc4;" x="417.128231" xlink:href="#m74e86e24cc" y="332.405841"/>
     <use style="fill:#00bfc4;stroke:#00bfc4;" x="338.407133" xlink:href="#m74e86e24cc" y="140.879693"/>
     <use style="fill:#00bfc4;stroke:#00bfc4;" x="311.594641" xlink:href="#m74e86e24cc" y="252.011672"/>
     <use style="fill:#00bfc4;stroke:#00bfc4;" x="361.95607" xlink:href="#m74e86e24cc" y="299.72864"/>
     <use style="fill:#00bfc4;stroke:#00bfc4;" x="329.79621" xlink:href="#m74e86e24cc" y="178.699325"/>
     <use style="fill:#00bfc4;stroke:#00bfc4;" x="302.97678" xlink:href="#m74e86e24cc" y="297.206431"/>
     <use style="fill:#00bfc4;stroke:#00bfc4;" x="355.31759" xlink:href="#m74e86e24cc" y="318.224665"/>
     <use style="fill:#00bfc4;stroke:#00bfc4;" x="358.803778" xlink:href="#m74e86e24cc" y="346.251357"/>
     <use style="fill:#00bfc4;stroke:#00bfc4;" x="352.413323" xlink:href="#m74e86e24cc" y="204.11368"/>
     <use style="fill:#00bfc4;stroke:#00bfc4;" x="474.626134" xlink:href="#m74e86e24cc" y="184.298001"/>
     <use style="fill:#00bfc4;stroke:#00bfc4;" x="421.687172" xlink:href="#m74e86e24cc" y="123.169379"/>
     <use style="fill:#00bfc4;stroke:#00bfc4;" x="457.20817" xlink:href="#m74e86e24cc" y="172.478894"/>
     <use style="fill:#00bfc4;stroke:#00bfc4;" x="495.425672" xlink:href="#m74e86e24cc" y="100.838509"/>
     <use style="fill:#00bfc4;stroke:#00bfc4;" x="500.60368" xlink:href="#m74e86e24cc" y="135.775813"/>
     <use style="fill:#00bfc4;stroke:#00bfc4;" x="482.676899" xlink:href="#m74e86e24cc" y="149.541757"/>
     <use style="fill:#00bfc4;stroke:#00bfc4;" x="465.383405" xlink:href="#m74e86e24cc" y="167.636881"/>
     <use style="fill:#00bfc4;stroke:#00bfc4;" x="459.160284" xlink:href="#m74e86e24cc" y="175.154712"/>
     <use style="fill:#00bfc4;stroke:#00bfc4;" x="507.752227" xlink:href="#m74e86e24cc" y="102.220184"/>
     <use style="fill:#00bfc4;stroke:#00bfc4;" x="463.192348" xlink:href="#m74e86e24cc" y="147.297932"/>
     <use style="fill:#00bfc4;stroke:#00bfc4;" x="475.012141" xlink:href="#m74e86e24cc" y="127.300584"/>
     <use style="fill:#00bfc4;stroke:#00bfc4;" x="516.754211" xlink:href="#m74e86e24cc" y="121.447818"/>
     <use style="fill:#00bfc4;stroke:#00bfc4;" x="460.450558" xlink:href="#m74e86e24cc" y="125.136621"/>
     <use style="fill:#00bfc4;stroke:#00bfc4;" x="457.727298" xlink:href="#m74e86e24cc" y="172.644052"/>
     <use style="fill:#00bfc4;stroke:#00bfc4;" x="477.652786" xlink:href="#m74e86e24cc" y="154.961826"/>
     <use style="fill:#00bfc4;stroke:#00bfc4;" x="468.245597" xlink:href="#m74e86e24cc" y="167.266655"/>
     <use style="fill:#00bfc4;stroke:#00bfc4;" x="463.744522" xlink:href="#m74e86e24cc" y="141.806264"/>
     <use style="fill:#00bfc4;stroke:#00bfc4;" x="441.50359" xlink:href="#m74e86e24cc" y="165.342553"/>
     <use style="fill:#00bfc4;stroke:#00bfc4;" x="454.682582" xlink:href="#m74e86e24cc" y="118.136988"/>
     <use style="fill:#00bfc4;stroke:#00bfc4;" x="468.338846" xlink:href="#m74e86e24cc" y="175.412238"/>
     <use style="fill:#00bfc4;stroke:#00bfc4;" x="457.109925" xlink:href="#m74e86e24cc" y="126.528471"/>
     <use style="fill:#00bfc4;stroke:#00bfc4;" x="486.93694" xlink:href="#m74e86e24cc" y="124.974088"/>
     <use style="fill:#00bfc4;stroke:#00bfc4;" x="526.216472" xlink:href="#m74e86e24cc" y="185.673146"/>
     <use style="fill:#00bfc4;stroke:#00bfc4;" x="527.975663" xlink:href="#m74e86e24cc" y="259.716336"/>
     <use style="fill:#00bfc4;stroke:#00bfc4;" x="409.726413" xlink:href="#m74e86e24cc" y="104.970986"/>
     <use style="fill:#00bfc4;stroke:#00bfc4;" x="201.258425" xlink:href="#m74e86e24cc" y="193.158166"/>
     <use style="fill:#00bfc4;stroke:#00bfc4;" x="556.843769" xlink:href="#m74e86e24cc" y="174.615601"/>
     <use style="fill:#00bfc4;stroke:#00bfc4;" x="556.68421" xlink:href="#m74e86e24cc" y="117.796685"/>
     <use style="fill:#00bfc4;stroke:#00bfc4;" x="185.126035" xlink:href="#m74e86e24cc" y="296.195798"/>
     <use style="fill:#00bfc4;stroke:#00bfc4;" x="405.674635" xlink:href="#m74e86e24cc" y="278.764124"/>
     <use style="fill:#00bfc4;stroke:#00bfc4;" x="249.914564" xlink:href="#m74e86e24cc" y="217.24672"/>
     <use style="fill:#00bfc4;stroke:#00bfc4;" x="151.210248" xlink:href="#m74e86e24cc" y="253.573776"/>
     <use style="fill:#00bfc4;stroke:#00bfc4;" x="255.875026" xlink:href="#m74e86e24cc" y="330.09284"/>
     <use style="fill:#00bfc4;stroke:#00bfc4;" x="327.416588" xlink:href="#m74e86e24cc" y="236.782703"/>
     <use style="fill:#00bfc4;stroke:#00bfc4;" x="297.132237" xlink:href="#m74e86e24cc" y="336.527426"/>
     <use style="fill:#00bfc4;stroke:#00bfc4;" x="305.444981" xlink:href="#m74e86e24cc" y="285.871472"/>
     <use style="fill:#00bfc4;stroke:#00bfc4;" x="454.30463" xlink:href="#m74e86e24cc" y="334.736272"/>
     <use style="fill:#00bfc4;stroke:#00bfc4;" x="246.610519" xlink:href="#m74e86e24cc" y="343.635065"/>
     <use style="fill:#00bfc4;stroke:#00bfc4;" x="228.691279" xlink:href="#m74e86e24cc" y="203.125996"/>
     <use style="fill:#00bfc4;stroke:#00bfc4;" x="408.814954" xlink:href="#m74e86e24cc" y="261.790007"/>
     <use style="fill:#00bfc4;stroke:#00bfc4;" x="256.279794" xlink:href="#m74e86e24cc" y="275.463882"/>
     <use style="fill:#00bfc4;stroke:#00bfc4;" x="339.147689" xlink:href="#m74e86e24cc" y="356.644449"/>
     <use style="fill:#00bfc4;stroke:#00bfc4;" x="246.880719" xlink:href="#m74e86e24cc" y="285.358422"/>
     <use style="fill:#00bfc4;stroke:#00bfc4;" x="582.321675" xlink:href="#m74e86e24cc" y="228.832347"/>
     <use style="fill:#00bfc4;stroke:#00bfc4;" x="435.308034" xlink:href="#m74e86e24cc" y="243.808335"/>
     <use style="fill:#00bfc4;stroke:#00bfc4;" x="263.981578" xlink:href="#m74e86e24cc" y="132.972361"/>
     <use style="fill:#00bfc4;stroke:#00bfc4;" x="538.408389" xlink:href="#m74e86e24cc" y="212.281937"/>
     <use style="fill:#00bfc4;stroke:#00bfc4;" x="487.691374" xlink:href="#m74e86e24cc" y="304.730156"/>
     <use style="fill:#00bfc4;stroke:#00bfc4;" x="280.32704" xlink:href="#m74e86e24cc" y="205.153577"/>
     <use style="fill:#00bfc4;stroke:#00bfc4;" x="545.295771" xlink:href="#m74e86e24cc" y="313.548873"/>
     <use style="fill:#00bfc4;stroke:#00bfc4;" x="405.550453" xlink:href="#m74e86e24cc" y="227.586501"/>
    </g>
   </g>
   <g id="matplotlib.axis_1">
    <g id="xtick_1">
     <g id="line2d_1">
      <defs>
       <path d="M 0 0 
L 0 3.5 
" id="m1390fcbb79" style="stroke:#000000;stroke-width:0.8;"/>
      </defs>
      <g>
       <use style="stroke:#000000;stroke-width:0.8;" x="142.743643" xlink:href="#m1390fcbb79" y="378"/>
      </g>
     </g>
     <g id="text_1">
      <!-- −10 -->
      <defs>
       <path d="M 10.59375 35.5 
L 73.1875 35.5 
L 73.1875 27.203125 
L 10.59375 27.203125 
z
" id="DejaVuSans-8722"/>
       <path d="M 12.40625 8.296875 
L 28.515625 8.296875 
L 28.515625 63.921875 
L 10.984375 60.40625 
L 10.984375 69.390625 
L 28.421875 72.90625 
L 38.28125 72.90625 
L 38.28125 8.296875 
L 54.390625 8.296875 
L 54.390625 0 
L 12.40625 0 
z
" id="DejaVuSans-49"/>
       <path d="M 31.78125 66.40625 
Q 24.171875 66.40625 20.328125 58.90625 
Q 16.5 51.421875 16.5 36.375 
Q 16.5 21.390625 20.328125 13.890625 
Q 24.171875 6.390625 31.78125 6.390625 
Q 39.453125 6.390625 43.28125 13.890625 
Q 47.125 21.390625 47.125 36.375 
Q 47.125 51.421875 43.28125 58.90625 
Q 39.453125 66.40625 31.78125 66.40625 
z
M 31.78125 74.21875 
Q 44.046875 74.21875 50.515625 64.515625 
Q 56.984375 54.828125 56.984375 36.375 
Q 56.984375 17.96875 50.515625 8.265625 
Q 44.046875 -1.421875 31.78125 -1.421875 
Q 19.53125 -1.421875 13.0625 8.265625 
Q 6.59375 17.96875 6.59375 36.375 
Q 6.59375 54.828125 13.0625 64.515625 
Q 19.53125 74.21875 31.78125 74.21875 
z
" id="DejaVuSans-48"/>
      </defs>
      <g transform="translate(132.191299 392.598437)scale(0.1 -0.1)">
       <use xlink:href="#DejaVuSans-8722"/>
       <use x="83.789062" xlink:href="#DejaVuSans-49"/>
       <use x="147.412109" xlink:href="#DejaVuSans-48"/>
      </g>
     </g>
    </g>
    <g id="xtick_2">
     <g id="line2d_2">
      <g>
       <use style="stroke:#000000;stroke-width:0.8;" x="266.585192" xlink:href="#m1390fcbb79" y="378"/>
      </g>
     </g>
     <g id="text_2">
      <!-- −5 -->
      <defs>
       <path d="M 10.796875 72.90625 
L 49.515625 72.90625 
L 49.515625 64.59375 
L 19.828125 64.59375 
L 19.828125 46.734375 
Q 21.96875 47.46875 24.109375 47.828125 
Q 26.265625 48.1875 28.421875 48.1875 
Q 40.625 48.1875 47.75 41.5 
Q 54.890625 34.8125 54.890625 23.390625 
Q 54.890625 11.625 47.5625 5.09375 
Q 40.234375 -1.421875 26.90625 -1.421875 
Q 22.3125 -1.421875 17.546875 -0.640625 
Q 12.796875 0.140625 7.71875 1.703125 
L 7.71875 11.625 
Q 12.109375 9.234375 16.796875 8.0625 
Q 21.484375 6.890625 26.703125 6.890625 
Q 35.15625 6.890625 40.078125 11.328125 
Q 45.015625 15.765625 45.015625 23.390625 
Q 45.015625 31 40.078125 35.4375 
Q 35.15625 39.890625 26.703125 39.890625 
Q 22.75 39.890625 18.8125 39.015625 
Q 14.890625 38.140625 10.796875 36.28125 
z
" id="DejaVuSans-53"/>
      </defs>
      <g transform="translate(259.214098 392.598437)scale(0.1 -0.1)">
       <use xlink:href="#DejaVuSans-8722"/>
       <use x="83.789062" xlink:href="#DejaVuSans-53"/>
      </g>
     </g>
    </g>
    <g id="xtick_3">
     <g id="line2d_3">
      <g>
       <use style="stroke:#000000;stroke-width:0.8;" x="390.42674" xlink:href="#m1390fcbb79" y="378"/>
      </g>
     </g>
     <g id="text_3">
      <!-- 0 -->
      <g transform="translate(387.24549 392.598437)scale(0.1 -0.1)">
       <use xlink:href="#DejaVuSans-48"/>
      </g>
     </g>
    </g>
    <g id="xtick_4">
     <g id="line2d_4">
      <g>
       <use style="stroke:#000000;stroke-width:0.8;" x="514.268288" xlink:href="#m1390fcbb79" y="378"/>
      </g>
     </g>
     <g id="text_4">
      <!-- 5 -->
      <g transform="translate(511.087038 392.598437)scale(0.1 -0.1)">
       <use xlink:href="#DejaVuSans-53"/>
      </g>
     </g>
    </g>
    <g id="xtick_5">
     <g id="line2d_5">
      <g>
       <use style="stroke:#000000;stroke-width:0.8;" x="638.109837" xlink:href="#m1390fcbb79" y="378"/>
      </g>
     </g>
     <g id="text_5">
      <!-- 10 -->
      <g transform="translate(631.747337 392.598437)scale(0.1 -0.1)">
       <use xlink:href="#DejaVuSans-49"/>
       <use x="63.623047" xlink:href="#DejaVuSans-48"/>
      </g>
     </g>
    </g>
    <g id="text_6">
     <!-- tSNE-1 -->
     <defs>
      <path d="M 18.3125 70.21875 
L 18.3125 54.6875 
L 36.8125 54.6875 
L 36.8125 47.703125 
L 18.3125 47.703125 
L 18.3125 18.015625 
Q 18.3125 11.328125 20.140625 9.421875 
Q 21.96875 7.515625 27.59375 7.515625 
L 36.8125 7.515625 
L 36.8125 0 
L 27.59375 0 
Q 17.1875 0 13.234375 3.875 
Q 9.28125 7.765625 9.28125 18.015625 
L 9.28125 47.703125 
L 2.6875 47.703125 
L 2.6875 54.6875 
L 9.28125 54.6875 
L 9.28125 70.21875 
z
" id="DejaVuSans-116"/>
      <path d="M 53.515625 70.515625 
L 53.515625 60.890625 
Q 47.90625 63.578125 42.921875 64.890625 
Q 37.9375 66.21875 33.296875 66.21875 
Q 25.25 66.21875 20.875 63.09375 
Q 16.5 59.96875 16.5 54.203125 
Q 16.5 49.359375 19.40625 46.890625 
Q 22.3125 44.4375 30.421875 42.921875 
L 36.375 41.703125 
Q 47.40625 39.59375 52.65625 34.296875 
Q 57.90625 29 57.90625 20.125 
Q 57.90625 9.515625 50.796875 4.046875 
Q 43.703125 -1.421875 29.984375 -1.421875 
Q 24.8125 -1.421875 18.96875 -0.25 
Q 13.140625 0.921875 6.890625 3.21875 
L 6.890625 13.375 
Q 12.890625 10.015625 18.65625 8.296875 
Q 24.421875 6.59375 29.984375 6.59375 
Q 38.421875 6.59375 43.015625 9.90625 
Q 47.609375 13.234375 47.609375 19.390625 
Q 47.609375 24.75 44.3125 27.78125 
Q 41.015625 30.8125 33.5 32.328125 
L 27.484375 33.5 
Q 16.453125 35.6875 11.515625 40.375 
Q 6.59375 45.0625 6.59375 53.421875 
Q 6.59375 63.09375 13.40625 68.65625 
Q 20.21875 74.21875 32.171875 74.21875 
Q 37.3125 74.21875 42.625 73.28125 
Q 47.953125 72.359375 53.515625 70.515625 
z
" id="DejaVuSans-83"/>
      <path d="M 9.8125 72.90625 
L 23.09375 72.90625 
L 55.421875 11.921875 
L 55.421875 72.90625 
L 64.984375 72.90625 
L 64.984375 0 
L 51.703125 0 
L 19.390625 60.984375 
L 19.390625 0 
L 9.8125 0 
z
" id="DejaVuSans-78"/>
      <path d="M 9.8125 72.90625 
L 55.90625 72.90625 
L 55.90625 64.59375 
L 19.671875 64.59375 
L 19.671875 43.015625 
L 54.390625 43.015625 
L 54.390625 34.71875 
L 19.671875 34.71875 
L 19.671875 8.296875 
L 56.78125 8.296875 
L 56.78125 0 
L 9.8125 0 
z
" id="DejaVuSans-69"/>
      <path d="M 4.890625 31.390625 
L 31.203125 31.390625 
L 31.203125 23.390625 
L 4.890625 23.390625 
z
" id="DejaVuSans-45"/>
     </defs>
     <g transform="translate(351.980469 406.276563)scale(0.1 -0.1)">
      <use xlink:href="#DejaVuSans-116"/>
      <use x="39.208984" xlink:href="#DejaVuSans-83"/>
      <use x="102.685547" xlink:href="#DejaVuSans-78"/>
      <use x="177.490234" xlink:href="#DejaVuSans-69"/>
      <use x="240.673828" xlink:href="#DejaVuSans-45"/>
      <use x="276.757812" xlink:href="#DejaVuSans-49"/>
     </g>
    </g>
   </g>
   <g id="matplotlib.axis_2">
    <g id="ytick_1">
     <g id="line2d_6">
      <defs>
       <path d="M 0 0 
L -3.5 0 
" id="m2a3c841152" style="stroke:#000000;stroke-width:0.8;"/>
      </defs>
      <g>
       <use style="stroke:#000000;stroke-width:0.8;" x="90" xlink:href="#m2a3c841152" y="358.617598"/>
      </g>
     </g>
     <g id="text_7">
      <!-- −7.5 -->
      <defs>
       <path d="M 8.203125 72.90625 
L 55.078125 72.90625 
L 55.078125 68.703125 
L 28.609375 0 
L 18.3125 0 
L 43.21875 64.59375 
L 8.203125 64.59375 
z
" id="DejaVuSans-55"/>
       <path d="M 10.6875 12.40625 
L 21 12.40625 
L 21 0 
L 10.6875 0 
z
" id="DejaVuSans-46"/>
      </defs>
      <g transform="translate(58.717187 362.416817)scale(0.1 -0.1)">
       <use xlink:href="#DejaVuSans-8722"/>
       <use x="83.789062" xlink:href="#DejaVuSans-55"/>
       <use x="147.412109" xlink:href="#DejaVuSans-46"/>
       <use x="179.199219" xlink:href="#DejaVuSans-53"/>
      </g>
     </g>
    </g>
    <g id="ytick_2">
     <g id="line2d_7">
      <g>
       <use style="stroke:#000000;stroke-width:0.8;" x="90" xlink:href="#m2a3c841152" y="313.864525"/>
      </g>
     </g>
     <g id="text_8">
      <!-- −5.0 -->
      <g transform="translate(58.717187 317.663743)scale(0.1 -0.1)">
       <use xlink:href="#DejaVuSans-8722"/>
       <use x="83.789062" xlink:href="#DejaVuSans-53"/>
       <use x="147.412109" xlink:href="#DejaVuSans-46"/>
       <use x="179.199219" xlink:href="#DejaVuSans-48"/>
      </g>
     </g>
    </g>
    <g id="ytick_3">
     <g id="line2d_8">
      <g>
       <use style="stroke:#000000;stroke-width:0.8;" x="90" xlink:href="#m2a3c841152" y="269.111451"/>
      </g>
     </g>
     <g id="text_9">
      <!-- −2.5 -->
      <defs>
       <path d="M 19.1875 8.296875 
L 53.609375 8.296875 
L 53.609375 0 
L 7.328125 0 
L 7.328125 8.296875 
Q 12.9375 14.109375 22.625 23.890625 
Q 32.328125 33.6875 34.8125 36.53125 
Q 39.546875 41.84375 41.421875 45.53125 
Q 43.3125 49.21875 43.3125 52.78125 
Q 43.3125 58.59375 39.234375 62.25 
Q 35.15625 65.921875 28.609375 65.921875 
Q 23.96875 65.921875 18.8125 64.3125 
Q 13.671875 62.703125 7.8125 59.421875 
L 7.8125 69.390625 
Q 13.765625 71.78125 18.9375 73 
Q 24.125 74.21875 28.421875 74.21875 
Q 39.75 74.21875 46.484375 68.546875 
Q 53.21875 62.890625 53.21875 53.421875 
Q 53.21875 48.921875 51.53125 44.890625 
Q 49.859375 40.875 45.40625 35.40625 
Q 44.1875 33.984375 37.640625 27.21875 
Q 31.109375 20.453125 19.1875 8.296875 
z
" id="DejaVuSans-50"/>
      </defs>
      <g transform="translate(58.717187 272.91067)scale(0.1 -0.1)">
       <use xlink:href="#DejaVuSans-8722"/>
       <use x="83.789062" xlink:href="#DejaVuSans-50"/>
       <use x="147.412109" xlink:href="#DejaVuSans-46"/>
       <use x="179.199219" xlink:href="#DejaVuSans-53"/>
      </g>
     </g>
    </g>
    <g id="ytick_4">
     <g id="line2d_9">
      <g>
       <use style="stroke:#000000;stroke-width:0.8;" x="90" xlink:href="#m2a3c841152" y="224.358377"/>
      </g>
     </g>
     <g id="text_10">
      <!-- 0.0 -->
      <g transform="translate(67.096875 228.157596)scale(0.1 -0.1)">
       <use xlink:href="#DejaVuSans-48"/>
       <use x="63.623047" xlink:href="#DejaVuSans-46"/>
       <use x="95.410156" xlink:href="#DejaVuSans-48"/>
      </g>
     </g>
    </g>
    <g id="ytick_5">
     <g id="line2d_10">
      <g>
       <use style="stroke:#000000;stroke-width:0.8;" x="90" xlink:href="#m2a3c841152" y="179.605304"/>
      </g>
     </g>
     <g id="text_11">
      <!-- 2.5 -->
      <g transform="translate(67.096875 183.404522)scale(0.1 -0.1)">
       <use xlink:href="#DejaVuSans-50"/>
       <use x="63.623047" xlink:href="#DejaVuSans-46"/>
       <use x="95.410156" xlink:href="#DejaVuSans-53"/>
      </g>
     </g>
    </g>
    <g id="ytick_6">
     <g id="line2d_11">
      <g>
       <use style="stroke:#000000;stroke-width:0.8;" x="90" xlink:href="#m2a3c841152" y="134.85223"/>
      </g>
     </g>
     <g id="text_12">
      <!-- 5.0 -->
      <g transform="translate(67.096875 138.651449)scale(0.1 -0.1)">
       <use xlink:href="#DejaVuSans-53"/>
       <use x="63.623047" xlink:href="#DejaVuSans-46"/>
       <use x="95.410156" xlink:href="#DejaVuSans-48"/>
      </g>
     </g>
    </g>
    <g id="ytick_7">
     <g id="line2d_12">
      <g>
       <use style="stroke:#000000;stroke-width:0.8;" x="90" xlink:href="#m2a3c841152" y="90.099156"/>
      </g>
     </g>
     <g id="text_13">
      <!-- 7.5 -->
      <g transform="translate(67.096875 93.898375)scale(0.1 -0.1)">
       <use xlink:href="#DejaVuSans-55"/>
       <use x="63.623047" xlink:href="#DejaVuSans-46"/>
       <use x="95.410156" xlink:href="#DejaVuSans-53"/>
      </g>
     </g>
    </g>
    <g id="text_14">
     <!-- tSNE-2 -->
     <g transform="translate(52.6375 231.939531)rotate(-90)scale(0.1 -0.1)">
      <use xlink:href="#DejaVuSans-116"/>
      <use x="39.208984" xlink:href="#DejaVuSans-83"/>
      <use x="102.685547" xlink:href="#DejaVuSans-78"/>
      <use x="177.490234" xlink:href="#DejaVuSans-69"/>
      <use x="240.673828" xlink:href="#DejaVuSans-45"/>
      <use x="276.757812" xlink:href="#DejaVuSans-50"/>
     </g>
    </g>
   </g>
   <g id="patch_3">
    <path d="M 90 378 
L 90 51.84 
" style="fill:none;stroke:#000000;stroke-linecap:square;stroke-linejoin:miter;stroke-width:0.8;"/>
   </g>
   <g id="patch_4">
    <path d="M 648 378 
L 648 51.84 
" style="fill:none;stroke:#000000;stroke-linecap:square;stroke-linejoin:miter;stroke-width:0.8;"/>
   </g>
   <g id="patch_5">
    <path d="M 90 378 
L 648 378 
" style="fill:none;stroke:#000000;stroke-linecap:square;stroke-linejoin:miter;stroke-width:0.8;"/>
   </g>
   <g id="patch_6">
    <path d="M 90 51.84 
L 648 51.84 
" style="fill:none;stroke:#000000;stroke-linecap:square;stroke-linejoin:miter;stroke-width:0.8;"/>
   </g>
   <g id="legend_1">
    <g id="patch_7">
     <path d="M 563.125 89.19625 
L 641 89.19625 
Q 643 89.19625 643 87.19625 
L 643 58.84 
Q 643 56.84 641 56.84 
L 563.125 56.84 
Q 561.125 56.84 561.125 58.84 
L 561.125 87.19625 
Q 561.125 89.19625 563.125 89.19625 
z
" style="fill:#ffffff;opacity:0.8;stroke:#cccccc;stroke-linejoin:miter;"/>
    </g>
    <g id="PathCollection_3">
     <g>
      <use style="fill:#f8766d;stroke:#f8766d;" x="575.125" xlink:href="#me177a09d33" y="65.813437"/>
     </g>
    </g>
    <g id="text_15">
     <!-- D003863 -->
     <defs>
      <path d="M 19.671875 64.796875 
L 19.671875 8.109375 
L 31.59375 8.109375 
Q 46.6875 8.109375 53.6875 14.9375 
Q 60.6875 21.78125 60.6875 36.53125 
Q 60.6875 51.171875 53.6875 57.984375 
Q 46.6875 64.796875 31.59375 64.796875 
z
M 9.8125 72.90625 
L 30.078125 72.90625 
Q 51.265625 72.90625 61.171875 64.09375 
Q 71.09375 55.28125 71.09375 36.53125 
Q 71.09375 17.671875 61.125 8.828125 
Q 51.171875 0 30.078125 0 
L 9.8125 0 
z
" id="DejaVuSans-68"/>
      <path d="M 40.578125 39.3125 
Q 47.65625 37.796875 51.625 33 
Q 55.609375 28.21875 55.609375 21.1875 
Q 55.609375 10.40625 48.1875 4.484375 
Q 40.765625 -1.421875 27.09375 -1.421875 
Q 22.515625 -1.421875 17.65625 -0.515625 
Q 12.796875 0.390625 7.625 2.203125 
L 7.625 11.71875 
Q 11.71875 9.328125 16.59375 8.109375 
Q 21.484375 6.890625 26.8125 6.890625 
Q 36.078125 6.890625 40.9375 10.546875 
Q 45.796875 14.203125 45.796875 21.1875 
Q 45.796875 27.640625 41.28125 31.265625 
Q 36.765625 34.90625 28.71875 34.90625 
L 20.21875 34.90625 
L 20.21875 43.015625 
L 29.109375 43.015625 
Q 36.375 43.015625 40.234375 45.921875 
Q 44.09375 48.828125 44.09375 54.296875 
Q 44.09375 59.90625 40.109375 62.90625 
Q 36.140625 65.921875 28.71875 65.921875 
Q 24.65625 65.921875 20.015625 65.03125 
Q 15.375 64.15625 9.8125 62.3125 
L 9.8125 71.09375 
Q 15.4375 72.65625 20.34375 73.4375 
Q 25.25 74.21875 29.59375 74.21875 
Q 40.828125 74.21875 47.359375 69.109375 
Q 53.90625 64.015625 53.90625 55.328125 
Q 53.90625 49.265625 50.4375 45.09375 
Q 46.96875 40.921875 40.578125 39.3125 
z
" id="DejaVuSans-51"/>
      <path d="M 31.78125 34.625 
Q 24.75 34.625 20.71875 30.859375 
Q 16.703125 27.09375 16.703125 20.515625 
Q 16.703125 13.921875 20.71875 10.15625 
Q 24.75 6.390625 31.78125 6.390625 
Q 38.8125 6.390625 42.859375 10.171875 
Q 46.921875 13.96875 46.921875 20.515625 
Q 46.921875 27.09375 42.890625 30.859375 
Q 38.875 34.625 31.78125 34.625 
z
M 21.921875 38.8125 
Q 15.578125 40.375 12.03125 44.71875 
Q 8.5 49.078125 8.5 55.328125 
Q 8.5 64.0625 14.71875 69.140625 
Q 20.953125 74.21875 31.78125 74.21875 
Q 42.671875 74.21875 48.875 69.140625 
Q 55.078125 64.0625 55.078125 55.328125 
Q 55.078125 49.078125 51.53125 44.71875 
Q 48 40.375 41.703125 38.8125 
Q 48.828125 37.15625 52.796875 32.3125 
Q 56.78125 27.484375 56.78125 20.515625 
Q 56.78125 9.90625 50.3125 4.234375 
Q 43.84375 -1.421875 31.78125 -1.421875 
Q 19.734375 -1.421875 13.25 4.234375 
Q 6.78125 9.90625 6.78125 20.515625 
Q 6.78125 27.484375 10.78125 32.3125 
Q 14.796875 37.15625 21.921875 38.8125 
z
M 18.3125 54.390625 
Q 18.3125 48.734375 21.84375 45.5625 
Q 25.390625 42.390625 31.78125 42.390625 
Q 38.140625 42.390625 41.71875 45.5625 
Q 45.3125 48.734375 45.3125 54.390625 
Q 45.3125 60.0625 41.71875 63.234375 
Q 38.140625 66.40625 31.78125 66.40625 
Q 25.390625 66.40625 21.84375 63.234375 
Q 18.3125 60.0625 18.3125 54.390625 
z
" id="DejaVuSans-56"/>
      <path d="M 33.015625 40.375 
Q 26.375 40.375 22.484375 35.828125 
Q 18.609375 31.296875 18.609375 23.390625 
Q 18.609375 15.53125 22.484375 10.953125 
Q 26.375 6.390625 33.015625 6.390625 
Q 39.65625 6.390625 43.53125 10.953125 
Q 47.40625 15.53125 47.40625 23.390625 
Q 47.40625 31.296875 43.53125 35.828125 
Q 39.65625 40.375 33.015625 40.375 
z
M 52.59375 71.296875 
L 52.59375 62.3125 
Q 48.875 64.0625 45.09375 64.984375 
Q 41.3125 65.921875 37.59375 65.921875 
Q 27.828125 65.921875 22.671875 59.328125 
Q 17.53125 52.734375 16.796875 39.40625 
Q 19.671875 43.65625 24.015625 45.921875 
Q 28.375 48.1875 33.59375 48.1875 
Q 44.578125 48.1875 50.953125 41.515625 
Q 57.328125 34.859375 57.328125 23.390625 
Q 57.328125 12.15625 50.6875 5.359375 
Q 44.046875 -1.421875 33.015625 -1.421875 
Q 20.359375 -1.421875 13.671875 8.265625 
Q 6.984375 17.96875 6.984375 36.375 
Q 6.984375 53.65625 15.1875 63.9375 
Q 23.390625 74.21875 37.203125 74.21875 
Q 40.921875 74.21875 44.703125 73.484375 
Q 48.484375 72.75 52.59375 71.296875 
z
" id="DejaVuSans-54"/>
     </defs>
     <g transform="translate(593.125 68.438437)scale(0.1 -0.1)">
      <use xlink:href="#DejaVuSans-68"/>
      <use x="77.001953" xlink:href="#DejaVuSans-48"/>
      <use x="140.625" xlink:href="#DejaVuSans-48"/>
      <use x="204.248047" xlink:href="#DejaVuSans-51"/>
      <use x="267.871094" xlink:href="#DejaVuSans-56"/>
      <use x="331.494141" xlink:href="#DejaVuSans-54"/>
      <use x="395.117188" xlink:href="#DejaVuSans-51"/>
     </g>
    </g>
    <g id="PathCollection_4">
     <g>
      <use style="fill:#00bfc4;stroke:#00bfc4;" x="575.125" xlink:href="#m74e86e24cc" y="80.491562"/>
     </g>
    </g>
    <g id="text_16">
     <!-- D006262 -->
     <g transform="translate(593.125 83.116562)scale(0.1 -0.1)">
      <use xlink:href="#DejaVuSans-68"/>
      <use x="77.001953" xlink:href="#DejaVuSans-48"/>
      <use x="140.625" xlink:href="#DejaVuSans-48"/>
      <use x="204.248047" xlink:href="#DejaVuSans-54"/>
      <use x="267.871094" xlink:href="#DejaVuSans-50"/>
      <use x="331.494141" xlink:href="#DejaVuSans-54"/>
      <use x="395.117188" xlink:href="#DejaVuSans-50"/>
     </g>
    </g>
   </g>
  </g>
 </g>
 <defs>
  <clipPath id="p3e804cfe7f">
   <rect height="326.16" width="558" x="90" y="51.84"/>
  </clipPath>
 </defs>
</svg>
