<?xml version="1.0" encoding="utf-8" standalone="no"?>
<!DOCTYPE svg PUBLIC "-//W3C//DTD SVG 1.1//EN"
  "http://www.w3.org/Graphics/SVG/1.1/DTD/svg11.dtd">
<!-- Created with matplotlib (https://matplotlib.org/) -->
<svg height="576pt" version="1.1" viewBox="0 0 576 576" width="576pt" xmlns="http://www.w3.org/2000/svg" xmlns:xlink="http://www.w3.org/1999/xlink">
 <defs>
  <style type="text/css">
*{stroke-linecap:butt;stroke-linejoin:round;}
  </style>
 </defs>
 <g id="figure_1">
  <g id="patch_1">
   <path d="M 0 576 
L 576 576 
L 576 0 
L 0 0 
z
" style="fill:#ffffff;"/>
  </g>
  <g id="axes_1">
   <g id="patch_2">
    <path d="M 72 512.64 
L 518.4 512.64 
L 518.4 69.12 
L 72 69.12 
z
" style="fill:#ffffff;"/>
   </g>
   <g id="matplotlib.axis_1">
    <g id="xtick_1">
     <g id="line2d_1">
      <path clip-path="url(#p9203e75566)" d="M 72 512.64 
L 72 69.12 
" style="fill:none;stroke:#b0b0b0;stroke-linecap:square;stroke-width:0.8;"/>
     </g>
     <g id="line2d_2">
      <defs>
       <path d="M 0 0 
L 0 3.5 
" id="m50b765a34e" style="stroke:#000000;stroke-width:0.8;"/>
      </defs>
      <g>
       <use style="stroke:#000000;stroke-width:0.8;" x="72" xlink:href="#m50b765a34e" y="512.64"/>
      </g>
     </g>
     <g id="text_1">
      <!-- 0.0 -->
      <defs>
       <path d="M 31.78125 66.40625 
Q 24.171875 66.40625 20.328125 58.90625 
Q 16.5 51.421875 16.5 36.375 
Q 16.5 21.390625 20.328125 13.890625 
Q 24.171875 6.390625 31.78125 6.390625 
Q 39.453125 6.390625 43.28125 13.890625 
Q 47.125 21.390625 47.125 36.375 
Q 47.125 51.421875 43.28125 58.90625 
Q 39.453125 66.40625 31.78125 66.40625 
z
M 31.78125 74.21875 
Q 44.046875 74.21875 50.515625 64.515625 
Q 56.984375 54.828125 56.984375 36.375 
Q 56.984375 17.96875 50.515625 8.265625 
Q 44.046875 -1.421875 31.78125 -1.421875 
Q 19.53125 -1.421875 13.0625 8.265625 
Q 6.59375 17.96875 6.59375 36.375 
Q 6.59375 54.828125 13.0625 64.515625 
Q 19.53125 74.21875 31.78125 74.21875 
z
" id="DejaVuSans-48"/>
       <path d="M 10.6875 12.40625 
L 21 12.40625 
L 21 0 
L 10.6875 0 
z
" id="DejaVuSans-46"/>
      </defs>
      <g transform="translate(64.048438 527.238438)scale(0.1 -0.1)">
       <use xlink:href="#DejaVuSans-48"/>
       <use x="63.623047" xlink:href="#DejaVuSans-46"/>
       <use x="95.410156" xlink:href="#DejaVuSans-48"/>
      </g>
     </g>
    </g>
    <g id="xtick_2">
     <g id="line2d_3">
      <path clip-path="url(#p9203e75566)" d="M 161.28 512.64 
L 161.28 69.12 
" style="fill:none;stroke:#b0b0b0;stroke-linecap:square;stroke-width:0.8;"/>
     </g>
     <g id="line2d_4">
      <g>
       <use style="stroke:#000000;stroke-width:0.8;" x="161.28" xlink:href="#m50b765a34e" y="512.64"/>
      </g>
     </g>
     <g id="text_2">
      <!-- 0.2 -->
      <defs>
       <path d="M 19.1875 8.296875 
L 53.609375 8.296875 
L 53.609375 0 
L 7.328125 0 
L 7.328125 8.296875 
Q 12.9375 14.109375 22.625 23.890625 
Q 32.328125 33.6875 34.8125 36.53125 
Q 39.546875 41.84375 41.421875 45.53125 
Q 43.3125 49.21875 43.3125 52.78125 
Q 43.3125 58.59375 39.234375 62.25 
Q 35.15625 65.921875 28.609375 65.921875 
Q 23.96875 65.921875 18.8125 64.3125 
Q 13.671875 62.703125 7.8125 59.421875 
L 7.8125 69.390625 
Q 13.765625 71.78125 18.9375 73 
Q 24.125 74.21875 28.421875 74.21875 
Q 39.75 74.21875 46.484375 68.546875 
Q 53.21875 62.890625 53.21875 53.421875 
Q 53.21875 48.921875 51.53125 44.890625 
Q 49.859375 40.875 45.40625 35.40625 
Q 44.1875 33.984375 37.640625 27.21875 
Q 31.109375 20.453125 19.1875 8.296875 
z
" id="DejaVuSans-50"/>
      </defs>
      <g transform="translate(153.328438 527.238438)scale(0.1 -0.1)">
       <use xlink:href="#DejaVuSans-48"/>
       <use x="63.623047" xlink:href="#DejaVuSans-46"/>
       <use x="95.410156" xlink:href="#DejaVuSans-50"/>
      </g>
     </g>
    </g>
    <g id="xtick_3">
     <g id="line2d_5">
      <path clip-path="url(#p9203e75566)" d="M 250.56 512.64 
L 250.56 69.12 
" style="fill:none;stroke:#b0b0b0;stroke-linecap:square;stroke-width:0.8;"/>
     </g>
     <g id="line2d_6">
      <g>
       <use style="stroke:#000000;stroke-width:0.8;" x="250.56" xlink:href="#m50b765a34e" y="512.64"/>
      </g>
     </g>
     <g id="text_3">
      <!-- 0.4 -->
      <defs>
       <path d="M 37.796875 64.3125 
L 12.890625 25.390625 
L 37.796875 25.390625 
z
M 35.203125 72.90625 
L 47.609375 72.90625 
L 47.609375 25.390625 
L 58.015625 25.390625 
L 58.015625 17.1875 
L 47.609375 17.1875 
L 47.609375 0 
L 37.796875 0 
L 37.796875 17.1875 
L 4.890625 17.1875 
L 4.890625 26.703125 
z
" id="DejaVuSans-52"/>
      </defs>
      <g transform="translate(242.608438 527.238438)scale(0.1 -0.1)">
       <use xlink:href="#DejaVuSans-48"/>
       <use x="63.623047" xlink:href="#DejaVuSans-46"/>
       <use x="95.410156" xlink:href="#DejaVuSans-52"/>
      </g>
     </g>
    </g>
    <g id="xtick_4">
     <g id="line2d_7">
      <path clip-path="url(#p9203e75566)" d="M 339.84 512.64 
L 339.84 69.12 
" style="fill:none;stroke:#b0b0b0;stroke-linecap:square;stroke-width:0.8;"/>
     </g>
     <g id="line2d_8">
      <g>
       <use style="stroke:#000000;stroke-width:0.8;" x="339.84" xlink:href="#m50b765a34e" y="512.64"/>
      </g>
     </g>
     <g id="text_4">
      <!-- 0.6 -->
      <defs>
       <path d="M 33.015625 40.375 
Q 26.375 40.375 22.484375 35.828125 
Q 18.609375 31.296875 18.609375 23.390625 
Q 18.609375 15.53125 22.484375 10.953125 
Q 26.375 6.390625 33.015625 6.390625 
Q 39.65625 6.390625 43.53125 10.953125 
Q 47.40625 15.53125 47.40625 23.390625 
Q 47.40625 31.296875 43.53125 35.828125 
Q 39.65625 40.375 33.015625 40.375 
z
M 52.59375 71.296875 
L 52.59375 62.3125 
Q 48.875 64.0625 45.09375 64.984375 
Q 41.3125 65.921875 37.59375 65.921875 
Q 27.828125 65.921875 22.671875 59.328125 
Q 17.53125 52.734375 16.796875 39.40625 
Q 19.671875 43.65625 24.015625 45.921875 
Q 28.375 48.1875 33.59375 48.1875 
Q 44.578125 48.1875 50.953125 41.515625 
Q 57.328125 34.859375 57.328125 23.390625 
Q 57.328125 12.15625 50.6875 5.359375 
Q 44.046875 -1.421875 33.015625 -1.421875 
Q 20.359375 -1.421875 13.671875 8.265625 
Q 6.984375 17.96875 6.984375 36.375 
Q 6.984375 53.65625 15.1875 63.9375 
Q 23.390625 74.21875 37.203125 74.21875 
Q 40.921875 74.21875 44.703125 73.484375 
Q 48.484375 72.75 52.59375 71.296875 
z
" id="DejaVuSans-54"/>
      </defs>
      <g transform="translate(331.888438 527.238438)scale(0.1 -0.1)">
       <use xlink:href="#DejaVuSans-48"/>
       <use x="63.623047" xlink:href="#DejaVuSans-46"/>
       <use x="95.410156" xlink:href="#DejaVuSans-54"/>
      </g>
     </g>
    </g>
    <g id="xtick_5">
     <g id="line2d_9">
      <path clip-path="url(#p9203e75566)" d="M 429.12 512.64 
L 429.12 69.12 
" style="fill:none;stroke:#b0b0b0;stroke-linecap:square;stroke-width:0.8;"/>
     </g>
     <g id="line2d_10">
      <g>
       <use style="stroke:#000000;stroke-width:0.8;" x="429.12" xlink:href="#m50b765a34e" y="512.64"/>
      </g>
     </g>
     <g id="text_5">
      <!-- 0.8 -->
      <defs>
       <path d="M 31.78125 34.625 
Q 24.75 34.625 20.71875 30.859375 
Q 16.703125 27.09375 16.703125 20.515625 
Q 16.703125 13.921875 20.71875 10.15625 
Q 24.75 6.390625 31.78125 6.390625 
Q 38.8125 6.390625 42.859375 10.171875 
Q 46.921875 13.96875 46.921875 20.515625 
Q 46.921875 27.09375 42.890625 30.859375 
Q 38.875 34.625 31.78125 34.625 
z
M 21.921875 38.8125 
Q 15.578125 40.375 12.03125 44.71875 
Q 8.5 49.078125 8.5 55.328125 
Q 8.5 64.0625 14.71875 69.140625 
Q 20.953125 74.21875 31.78125 74.21875 
Q 42.671875 74.21875 48.875 69.140625 
Q 55.078125 64.0625 55.078125 55.328125 
Q 55.078125 49.078125 51.53125 44.71875 
Q 48 40.375 41.703125 38.8125 
Q 48.828125 37.15625 52.796875 32.3125 
Q 56.78125 27.484375 56.78125 20.515625 
Q 56.78125 9.90625 50.3125 4.234375 
Q 43.84375 -1.421875 31.78125 -1.421875 
Q 19.734375 -1.421875 13.25 4.234375 
Q 6.78125 9.90625 6.78125 20.515625 
Q 6.78125 27.484375 10.78125 32.3125 
Q 14.796875 37.15625 21.921875 38.8125 
z
M 18.3125 54.390625 
Q 18.3125 48.734375 21.84375 45.5625 
Q 25.390625 42.390625 31.78125 42.390625 
Q 38.140625 42.390625 41.71875 45.5625 
Q 45.3125 48.734375 45.3125 54.390625 
Q 45.3125 60.0625 41.71875 63.234375 
Q 38.140625 66.40625 31.78125 66.40625 
Q 25.390625 66.40625 21.84375 63.234375 
Q 18.3125 60.0625 18.3125 54.390625 
z
" id="DejaVuSans-56"/>
      </defs>
      <g transform="translate(421.168437 527.238438)scale(0.1 -0.1)">
       <use xlink:href="#DejaVuSans-48"/>
       <use x="63.623047" xlink:href="#DejaVuSans-46"/>
       <use x="95.410156" xlink:href="#DejaVuSans-56"/>
      </g>
     </g>
    </g>
    <g id="xtick_6">
     <g id="line2d_11">
      <path clip-path="url(#p9203e75566)" d="M 518.4 512.64 
L 518.4 69.12 
" style="fill:none;stroke:#b0b0b0;stroke-linecap:square;stroke-width:0.8;"/>
     </g>
     <g id="line2d_12">
      <g>
       <use style="stroke:#000000;stroke-width:0.8;" x="518.4" xlink:href="#m50b765a34e" y="512.64"/>
      </g>
     </g>
     <g id="text_6">
      <!-- 1.0 -->
      <defs>
       <path d="M 12.40625 8.296875 
L 28.515625 8.296875 
L 28.515625 63.921875 
L 10.984375 60.40625 
L 10.984375 69.390625 
L 28.421875 72.90625 
L 38.28125 72.90625 
L 38.28125 8.296875 
L 54.390625 8.296875 
L 54.390625 0 
L 12.40625 0 
z
" id="DejaVuSans-49"/>
      </defs>
      <g transform="translate(510.448437 527.238438)scale(0.1 -0.1)">
       <use xlink:href="#DejaVuSans-49"/>
       <use x="63.623047" xlink:href="#DejaVuSans-46"/>
       <use x="95.410156" xlink:href="#DejaVuSans-48"/>
      </g>
     </g>
    </g>
    <g id="text_7">
     <!-- False Positive Rate -->
     <defs>
      <path d="M 9.8125 72.90625 
L 51.703125 72.90625 
L 51.703125 64.59375 
L 19.671875 64.59375 
L 19.671875 43.109375 
L 48.578125 43.109375 
L 48.578125 34.8125 
L 19.671875 34.8125 
L 19.671875 0 
L 9.8125 0 
z
" id="DejaVuSans-70"/>
      <path d="M 34.28125 27.484375 
Q 23.390625 27.484375 19.1875 25 
Q 14.984375 22.515625 14.984375 16.5 
Q 14.984375 11.71875 18.140625 8.90625 
Q 21.296875 6.109375 26.703125 6.109375 
Q 34.1875 6.109375 38.703125 11.40625 
Q 43.21875 16.703125 43.21875 25.484375 
L 43.21875 27.484375 
z
M 52.203125 31.203125 
L 52.203125 0 
L 43.21875 0 
L 43.21875 8.296875 
Q 40.140625 3.328125 35.546875 0.953125 
Q 30.953125 -1.421875 24.3125 -1.421875 
Q 15.921875 -1.421875 10.953125 3.296875 
Q 6 8.015625 6 15.921875 
Q 6 25.140625 12.171875 29.828125 
Q 18.359375 34.515625 30.609375 34.515625 
L 43.21875 34.515625 
L 43.21875 35.40625 
Q 43.21875 41.609375 39.140625 45 
Q 35.0625 48.390625 27.6875 48.390625 
Q 23 48.390625 18.546875 47.265625 
Q 14.109375 46.140625 10.015625 43.890625 
L 10.015625 52.203125 
Q 14.9375 54.109375 19.578125 55.046875 
Q 24.21875 56 28.609375 56 
Q 40.484375 56 46.34375 49.84375 
Q 52.203125 43.703125 52.203125 31.203125 
z
" id="DejaVuSans-97"/>
      <path d="M 9.421875 75.984375 
L 18.40625 75.984375 
L 18.40625 0 
L 9.421875 0 
z
" id="DejaVuSans-108"/>
      <path d="M 44.28125 53.078125 
L 44.28125 44.578125 
Q 40.484375 46.53125 36.375 47.5 
Q 32.28125 48.484375 27.875 48.484375 
Q 21.1875 48.484375 17.84375 46.4375 
Q 14.5 44.390625 14.5 40.28125 
Q 14.5 37.15625 16.890625 35.375 
Q 19.28125 33.59375 26.515625 31.984375 
L 29.59375 31.296875 
Q 39.15625 29.25 43.1875 25.515625 
Q 47.21875 21.78125 47.21875 15.09375 
Q 47.21875 7.46875 41.1875 3.015625 
Q 35.15625 -1.421875 24.609375 -1.421875 
Q 20.21875 -1.421875 15.453125 -0.5625 
Q 10.6875 0.296875 5.421875 2 
L 5.421875 11.28125 
Q 10.40625 8.6875 15.234375 7.390625 
Q 20.0625 6.109375 24.8125 6.109375 
Q 31.15625 6.109375 34.5625 8.28125 
Q 37.984375 10.453125 37.984375 14.40625 
Q 37.984375 18.0625 35.515625 20.015625 
Q 33.0625 21.96875 24.703125 23.78125 
L 21.578125 24.515625 
Q 13.234375 26.265625 9.515625 29.90625 
Q 5.8125 33.546875 5.8125 39.890625 
Q 5.8125 47.609375 11.28125 51.796875 
Q 16.75 56 26.8125 56 
Q 31.78125 56 36.171875 55.265625 
Q 40.578125 54.546875 44.28125 53.078125 
z
" id="DejaVuSans-115"/>
      <path d="M 56.203125 29.59375 
L 56.203125 25.203125 
L 14.890625 25.203125 
Q 15.484375 15.921875 20.484375 11.0625 
Q 25.484375 6.203125 34.421875 6.203125 
Q 39.59375 6.203125 44.453125 7.46875 
Q 49.3125 8.734375 54.109375 11.28125 
L 54.109375 2.78125 
Q 49.265625 0.734375 44.1875 -0.34375 
Q 39.109375 -1.421875 33.890625 -1.421875 
Q 20.796875 -1.421875 13.15625 6.1875 
Q 5.515625 13.8125 5.515625 26.8125 
Q 5.515625 40.234375 12.765625 48.109375 
Q 20.015625 56 32.328125 56 
Q 43.359375 56 49.78125 48.890625 
Q 56.203125 41.796875 56.203125 29.59375 
z
M 47.21875 32.234375 
Q 47.125 39.59375 43.09375 43.984375 
Q 39.0625 48.390625 32.421875 48.390625 
Q 24.90625 48.390625 20.390625 44.140625 
Q 15.875 39.890625 15.1875 32.171875 
z
" id="DejaVuSans-101"/>
      <path id="DejaVuSans-32"/>
      <path d="M 19.671875 64.796875 
L 19.671875 37.40625 
L 32.078125 37.40625 
Q 38.96875 37.40625 42.71875 40.96875 
Q 46.484375 44.53125 46.484375 51.125 
Q 46.484375 57.671875 42.71875 61.234375 
Q 38.96875 64.796875 32.078125 64.796875 
z
M 9.8125 72.90625 
L 32.078125 72.90625 
Q 44.34375 72.90625 50.609375 67.359375 
Q 56.890625 61.8125 56.890625 51.125 
Q 56.890625 40.328125 50.609375 34.8125 
Q 44.34375 29.296875 32.078125 29.296875 
L 19.671875 29.296875 
L 19.671875 0 
L 9.8125 0 
z
" id="DejaVuSans-80"/>
      <path d="M 30.609375 48.390625 
Q 23.390625 48.390625 19.1875 42.75 
Q 14.984375 37.109375 14.984375 27.296875 
Q 14.984375 17.484375 19.15625 11.84375 
Q 23.34375 6.203125 30.609375 6.203125 
Q 37.796875 6.203125 41.984375 11.859375 
Q 46.1875 17.53125 46.1875 27.296875 
Q 46.1875 37.015625 41.984375 42.703125 
Q 37.796875 48.390625 30.609375 48.390625 
z
M 30.609375 56 
Q 42.328125 56 49.015625 48.375 
Q 55.71875 40.765625 55.71875 27.296875 
Q 55.71875 13.875 49.015625 6.21875 
Q 42.328125 -1.421875 30.609375 -1.421875 
Q 18.84375 -1.421875 12.171875 6.21875 
Q 5.515625 13.875 5.515625 27.296875 
Q 5.515625 40.765625 12.171875 48.375 
Q 18.84375 56 30.609375 56 
z
" id="DejaVuSans-111"/>
      <path d="M 9.421875 54.6875 
L 18.40625 54.6875 
L 18.40625 0 
L 9.421875 0 
z
M 9.421875 75.984375 
L 18.40625 75.984375 
L 18.40625 64.59375 
L 9.421875 64.59375 
z
" id="DejaVuSans-105"/>
      <path d="M 18.3125 70.21875 
L 18.3125 54.6875 
L 36.8125 54.6875 
L 36.8125 47.703125 
L 18.3125 47.703125 
L 18.3125 18.015625 
Q 18.3125 11.328125 20.140625 9.421875 
Q 21.96875 7.515625 27.59375 7.515625 
L 36.8125 7.515625 
L 36.8125 0 
L 27.59375 0 
Q 17.1875 0 13.234375 3.875 
Q 9.28125 7.765625 9.28125 18.015625 
L 9.28125 47.703125 
L 2.6875 47.703125 
L 2.6875 54.6875 
L 9.28125 54.6875 
L 9.28125 70.21875 
z
" id="DejaVuSans-116"/>
      <path d="M 2.984375 54.6875 
L 12.5 54.6875 
L 29.59375 8.796875 
L 46.6875 54.6875 
L 56.203125 54.6875 
L 35.6875 0 
L 23.484375 0 
z
" id="DejaVuSans-118"/>
      <path d="M 44.390625 34.1875 
Q 47.5625 33.109375 50.5625 29.59375 
Q 53.5625 26.078125 56.59375 19.921875 
L 66.609375 0 
L 56 0 
L 46.6875 18.703125 
Q 43.0625 26.03125 39.671875 28.421875 
Q 36.28125 30.8125 30.421875 30.8125 
L 19.671875 30.8125 
L 19.671875 0 
L 9.8125 0 
L 9.8125 72.90625 
L 32.078125 72.90625 
Q 44.578125 72.90625 50.734375 67.671875 
Q 56.890625 62.453125 56.890625 51.90625 
Q 56.890625 45.015625 53.6875 40.46875 
Q 50.484375 35.9375 44.390625 34.1875 
z
M 19.671875 64.796875 
L 19.671875 38.921875 
L 32.078125 38.921875 
Q 39.203125 38.921875 42.84375 42.21875 
Q 46.484375 45.515625 46.484375 51.90625 
Q 46.484375 58.296875 42.84375 61.546875 
Q 39.203125 64.796875 32.078125 64.796875 
z
" id="DejaVuSans-82"/>
     </defs>
     <g transform="translate(247.994531 540.916563)scale(0.1 -0.1)">
      <use xlink:href="#DejaVuSans-70"/>
      <use x="57.378906" xlink:href="#DejaVuSans-97"/>
      <use x="118.658203" xlink:href="#DejaVuSans-108"/>
      <use x="146.441406" xlink:href="#DejaVuSans-115"/>
      <use x="198.541016" xlink:href="#DejaVuSans-101"/>
      <use x="260.064453" xlink:href="#DejaVuSans-32"/>
      <use x="291.851562" xlink:href="#DejaVuSans-80"/>
      <use x="352.107422" xlink:href="#DejaVuSans-111"/>
      <use x="413.289062" xlink:href="#DejaVuSans-115"/>
      <use x="465.388672" xlink:href="#DejaVuSans-105"/>
      <use x="493.171875" xlink:href="#DejaVuSans-116"/>
      <use x="532.380859" xlink:href="#DejaVuSans-105"/>
      <use x="560.164062" xlink:href="#DejaVuSans-118"/>
      <use x="619.34375" xlink:href="#DejaVuSans-101"/>
      <use x="680.867188" xlink:href="#DejaVuSans-32"/>
      <use x="712.654297" xlink:href="#DejaVuSans-82"/>
      <use x="782.105469" xlink:href="#DejaVuSans-97"/>
      <use x="843.384766" xlink:href="#DejaVuSans-116"/>
      <use x="882.59375" xlink:href="#DejaVuSans-101"/>
     </g>
    </g>
   </g>
   <g id="matplotlib.axis_2">
    <g id="ytick_1">
     <g id="line2d_13">
      <path clip-path="url(#p9203e75566)" d="M 72 512.64 
L 518.4 512.64 
" style="fill:none;stroke:#b0b0b0;stroke-linecap:square;stroke-width:0.8;"/>
     </g>
     <g id="line2d_14">
      <defs>
       <path d="M 0 0 
L -3.5 0 
" id="mdf50999cf1" style="stroke:#000000;stroke-width:0.8;"/>
      </defs>
      <g>
       <use style="stroke:#000000;stroke-width:0.8;" x="72" xlink:href="#mdf50999cf1" y="512.64"/>
      </g>
     </g>
     <g id="text_8">
      <!-- 0.0 -->
      <g transform="translate(49.096875 516.439219)scale(0.1 -0.1)">
       <use xlink:href="#DejaVuSans-48"/>
       <use x="63.623047" xlink:href="#DejaVuSans-46"/>
       <use x="95.410156" xlink:href="#DejaVuSans-48"/>
      </g>
     </g>
    </g>
    <g id="ytick_2">
     <g id="line2d_15">
      <path clip-path="url(#p9203e75566)" d="M 72 428.16 
L 518.4 428.16 
" style="fill:none;stroke:#b0b0b0;stroke-linecap:square;stroke-width:0.8;"/>
     </g>
     <g id="line2d_16">
      <g>
       <use style="stroke:#000000;stroke-width:0.8;" x="72" xlink:href="#mdf50999cf1" y="428.16"/>
      </g>
     </g>
     <g id="text_9">
      <!-- 0.2 -->
      <g transform="translate(49.096875 431.959219)scale(0.1 -0.1)">
       <use xlink:href="#DejaVuSans-48"/>
       <use x="63.623047" xlink:href="#DejaVuSans-46"/>
       <use x="95.410156" xlink:href="#DejaVuSans-50"/>
      </g>
     </g>
    </g>
    <g id="ytick_3">
     <g id="line2d_17">
      <path clip-path="url(#p9203e75566)" d="M 72 343.68 
L 518.4 343.68 
" style="fill:none;stroke:#b0b0b0;stroke-linecap:square;stroke-width:0.8;"/>
     </g>
     <g id="line2d_18">
      <g>
       <use style="stroke:#000000;stroke-width:0.8;" x="72" xlink:href="#mdf50999cf1" y="343.68"/>
      </g>
     </g>
     <g id="text_10">
      <!-- 0.4 -->
      <g transform="translate(49.096875 347.479219)scale(0.1 -0.1)">
       <use xlink:href="#DejaVuSans-48"/>
       <use x="63.623047" xlink:href="#DejaVuSans-46"/>
       <use x="95.410156" xlink:href="#DejaVuSans-52"/>
      </g>
     </g>
    </g>
    <g id="ytick_4">
     <g id="line2d_19">
      <path clip-path="url(#p9203e75566)" d="M 72 259.2 
L 518.4 259.2 
" style="fill:none;stroke:#b0b0b0;stroke-linecap:square;stroke-width:0.8;"/>
     </g>
     <g id="line2d_20">
      <g>
       <use style="stroke:#000000;stroke-width:0.8;" x="72" xlink:href="#mdf50999cf1" y="259.2"/>
      </g>
     </g>
     <g id="text_11">
      <!-- 0.6 -->
      <g transform="translate(49.096875 262.999219)scale(0.1 -0.1)">
       <use xlink:href="#DejaVuSans-48"/>
       <use x="63.623047" xlink:href="#DejaVuSans-46"/>
       <use x="95.410156" xlink:href="#DejaVuSans-54"/>
      </g>
     </g>
    </g>
    <g id="ytick_5">
     <g id="line2d_21">
      <path clip-path="url(#p9203e75566)" d="M 72 174.72 
L 518.4 174.72 
" style="fill:none;stroke:#b0b0b0;stroke-linecap:square;stroke-width:0.8;"/>
     </g>
     <g id="line2d_22">
      <g>
       <use style="stroke:#000000;stroke-width:0.8;" x="72" xlink:href="#mdf50999cf1" y="174.72"/>
      </g>
     </g>
     <g id="text_12">
      <!-- 0.8 -->
      <g transform="translate(49.096875 178.519219)scale(0.1 -0.1)">
       <use xlink:href="#DejaVuSans-48"/>
       <use x="63.623047" xlink:href="#DejaVuSans-46"/>
       <use x="95.410156" xlink:href="#DejaVuSans-56"/>
      </g>
     </g>
    </g>
    <g id="ytick_6">
     <g id="line2d_23">
      <path clip-path="url(#p9203e75566)" d="M 72 90.24 
L 518.4 90.24 
" style="fill:none;stroke:#b0b0b0;stroke-linecap:square;stroke-width:0.8;"/>
     </g>
     <g id="line2d_24">
      <g>
       <use style="stroke:#000000;stroke-width:0.8;" x="72" xlink:href="#mdf50999cf1" y="90.24"/>
      </g>
     </g>
     <g id="text_13">
      <!-- 1.0 -->
      <g transform="translate(49.096875 94.039219)scale(0.1 -0.1)">
       <use xlink:href="#DejaVuSans-49"/>
       <use x="63.623047" xlink:href="#DejaVuSans-46"/>
       <use x="95.410156" xlink:href="#DejaVuSans-48"/>
      </g>
     </g>
    </g>
    <g id="text_14">
     <!-- True Positive Rate -->
     <defs>
      <path d="M -0.296875 72.90625 
L 61.375 72.90625 
L 61.375 64.59375 
L 35.5 64.59375 
L 35.5 0 
L 25.59375 0 
L 25.59375 64.59375 
L -0.296875 64.59375 
z
" id="DejaVuSans-84"/>
      <path d="M 41.109375 46.296875 
Q 39.59375 47.171875 37.8125 47.578125 
Q 36.03125 48 33.890625 48 
Q 26.265625 48 22.1875 43.046875 
Q 18.109375 38.09375 18.109375 28.8125 
L 18.109375 0 
L 9.078125 0 
L 9.078125 54.6875 
L 18.109375 54.6875 
L 18.109375 46.1875 
Q 20.953125 51.171875 25.484375 53.578125 
Q 30.03125 56 36.53125 56 
Q 37.453125 56 38.578125 55.875 
Q 39.703125 55.765625 41.0625 55.515625 
z
" id="DejaVuSans-114"/>
      <path d="M 8.5 21.578125 
L 8.5 54.6875 
L 17.484375 54.6875 
L 17.484375 21.921875 
Q 17.484375 14.15625 20.5 10.265625 
Q 23.53125 6.390625 29.59375 6.390625 
Q 36.859375 6.390625 41.078125 11.03125 
Q 45.3125 15.671875 45.3125 23.6875 
L 45.3125 54.6875 
L 54.296875 54.6875 
L 54.296875 0 
L 45.3125 0 
L 45.3125 8.40625 
Q 42.046875 3.421875 37.71875 1 
Q 33.40625 -1.421875 27.6875 -1.421875 
Q 18.265625 -1.421875 13.375 4.4375 
Q 8.5 10.296875 8.5 21.578125 
z
M 31.109375 56 
z
" id="DejaVuSans-117"/>
     </defs>
     <g transform="translate(43.017187 336.426094)rotate(-90)scale(0.1 -0.1)">
      <use xlink:href="#DejaVuSans-84"/>
      <use x="60.865234" xlink:href="#DejaVuSans-114"/>
      <use x="101.978516" xlink:href="#DejaVuSans-117"/>
      <use x="165.357422" xlink:href="#DejaVuSans-101"/>
      <use x="226.880859" xlink:href="#DejaVuSans-32"/>
      <use x="258.667969" xlink:href="#DejaVuSans-80"/>
      <use x="318.923828" xlink:href="#DejaVuSans-111"/>
      <use x="380.105469" xlink:href="#DejaVuSans-115"/>
      <use x="432.205078" xlink:href="#DejaVuSans-105"/>
      <use x="459.988281" xlink:href="#DejaVuSans-116"/>
      <use x="499.197266" xlink:href="#DejaVuSans-105"/>
      <use x="526.980469" xlink:href="#DejaVuSans-118"/>
      <use x="586.160156" xlink:href="#DejaVuSans-101"/>
      <use x="647.683594" xlink:href="#DejaVuSans-32"/>
      <use x="679.470703" xlink:href="#DejaVuSans-82"/>
      <use x="748.921875" xlink:href="#DejaVuSans-97"/>
      <use x="810.201172" xlink:href="#DejaVuSans-116"/>
      <use x="849.410156" xlink:href="#DejaVuSans-101"/>
     </g>
    </g>
   </g>
   <g id="line2d_25">
    <path clip-path="url(#p9203e75566)" d="M 72 512.64 
L 72 501.932776 
L 72.381538 501.932776 
L 72.381538 496.043802 
L 72.763077 496.043802 
L 72.763077 490.69019 
L 73.144615 490.69019 
L 73.144615 485.871939 
L 73.526154 485.871939 
L 73.526154 484.801217 
L 73.907692 484.801217 
L 73.907692 479.447605 
L 74.289231 479.447605 
L 74.289231 477.841521 
L 74.670769 477.841521 
L 74.670769 476.235437 
L 75.052308 476.235437 
L 75.052308 466.598935 
L 75.815385 466.598935 
L 75.815385 464.45749 
L 76.196923 464.45749 
L 76.196923 463.386768 
L 76.578462 463.386768 
L 76.578462 462.851407 
L 76.96 462.851407 
L 76.96 462.316046 
L 77.341538 462.316046 
L 77.341538 460.709962 
L 78.104615 460.709962 
L 78.104615 459.103878 
L 79.630769 459.103878 
L 79.630769 456.962433 
L 80.393846 456.962433 
L 80.393846 456.427072 
L 81.156923 456.427072 
L 81.156923 455.35635 
L 81.538462 455.35635 
L 81.538462 452.679544 
L 81.92 452.679544 
L 81.92 449.467376 
L 82.301538 449.467376 
L 82.301538 447.325932 
L 83.064615 447.325932 
L 83.064615 446.79057 
L 83.446154 446.79057 
L 83.446154 446.255209 
L 83.827692 446.255209 
L 83.827692 445.719848 
L 84.590769 445.719848 
L 84.590769 441.436958 
L 84.972308 441.436958 
L 84.972308 438.760152 
L 85.353846 438.760152 
L 85.353846 438.224791 
L 85.735385 438.224791 
L 85.735385 436.083346 
L 86.116923 436.083346 
L 86.116923 435.012624 
L 86.498462 435.012624 
L 86.498462 433.40654 
L 86.88 433.40654 
L 86.88 430.194373 
L 87.261538 430.194373 
L 87.261538 429.659011 
L 88.024615 429.659011 
L 88.024615 428.588289 
L 88.406154 428.588289 
L 88.406154 427.517567 
L 89.550769 427.517567 
L 89.550769 425.376122 
L 89.932308 425.376122 
L 89.932308 423.234677 
L 90.695385 423.234677 
L 90.695385 422.699316 
L 91.458462 422.699316 
L 91.458462 421.093232 
L 92.221538 421.093232 
L 92.221538 420.557871 
L 92.603077 420.557871 
L 92.603077 417.881065 
L 93.747692 417.881065 
L 93.747692 417.345703 
L 94.129231 417.345703 
L 94.129231 409.850646 
L 94.510769 409.850646 
L 94.510769 409.315285 
L 95.273846 409.315285 
L 95.273846 408.779924 
L 95.655385 408.779924 
L 95.655385 405.032395 
L 96.418462 405.032395 
L 96.418462 403.961673 
L 96.8 403.961673 
L 96.8 402.890951 
L 97.181538 402.890951 
L 97.181538 402.355589 
L 97.563077 402.355589 
L 97.563077 400.214144 
L 98.326154 400.214144 
L 98.326154 399.143422 
L 99.089231 399.143422 
L 99.089231 398.608061 
L 99.470769 398.608061 
L 99.470769 397.537338 
L 100.996923 397.537338 
L 100.996923 396.466616 
L 101.378462 396.466616 
L 101.378462 395.931255 
L 101.76 395.931255 
L 101.76 394.325171 
L 102.904615 394.325171 
L 102.904615 392.719087 
L 103.286154 392.719087 
L 103.286154 391.648365 
L 103.667692 391.648365 
L 103.667692 390.042281 
L 104.049231 390.042281 
L 104.049231 389.50692 
L 105.193846 389.50692 
L 105.193846 388.971559 
L 105.575385 388.971559 
L 105.575385 386.830114 
L 105.956923 386.830114 
L 105.956923 386.294753 
L 106.338462 386.294753 
L 106.338462 385.759392 
L 106.72 385.759392 
L 106.72 384.153308 
L 107.101538 384.153308 
L 107.101538 383.617947 
L 108.246154 383.617947 
L 108.246154 383.082586 
L 108.627692 383.082586 
L 108.627692 382.547224 
L 109.390769 382.547224 
L 109.390769 382.011863 
L 109.772308 382.011863 
L 109.772308 380.941141 
L 110.153846 380.941141 
L 110.153846 380.405779 
L 110.916923 380.405779 
L 110.916923 378.799696 
L 112.824615 378.799696 
L 112.824615 377.728973 
L 113.587692 377.728973 
L 113.587692 376.658251 
L 114.350769 376.658251 
L 114.350769 375.587529 
L 114.732308 375.587529 
L 114.732308 374.516806 
L 115.876923 374.516806 
L 115.876923 371.84 
L 116.64 371.84 
L 116.64 370.769278 
L 118.166154 370.769278 
L 118.166154 370.233916 
L 118.929231 370.233916 
L 118.929231 368.092471 
L 119.692308 368.092471 
L 119.692308 367.55711 
L 120.836923 367.55711 
L 120.836923 365.951027 
L 121.6 365.951027 
L 121.6 364.344943 
L 123.126154 364.344943 
L 123.126154 363.809582 
L 124.270769 363.809582 
L 124.270769 363.274221 
L 124.652308 363.274221 
L 124.652308 362.738859 
L 125.033846 362.738859 
L 125.033846 361.668137 
L 125.796923 361.668137 
L 125.796923 359.526692 
L 126.178462 359.526692 
L 126.178462 358.45597 
L 127.704615 358.45597 
L 127.704615 356.849886 
L 128.086154 356.849886 
L 128.086154 353.102357 
L 128.467692 353.102357 
L 128.467692 352.566996 
L 128.849231 352.566996 
L 128.849231 352.031635 
L 129.230769 352.031635 
L 129.230769 349.89019 
L 131.52 349.89019 
L 131.52 349.354829 
L 131.901538 349.354829 
L 131.901538 348.819468 
L 132.283077 348.819468 
L 132.283077 348.284106 
L 133.809231 348.284106 
L 133.809231 347.213384 
L 134.190769 347.213384 
L 134.190769 346.678023 
L 136.48 346.678023 
L 136.48 346.142662 
L 137.243077 346.142662 
L 137.243077 343.465856 
L 137.624615 343.465856 
L 137.624615 342.930494 
L 138.387692 342.930494 
L 138.387692 341.859772 
L 138.769231 341.859772 
L 138.769231 340.789049 
L 139.532308 340.789049 
L 139.532308 339.718327 
L 139.913846 339.718327 
L 139.913846 338.647605 
L 140.676923 338.647605 
L 140.676923 336.50616 
L 141.821538 336.50616 
L 141.821538 335.970798 
L 144.873846 335.970798 
L 144.873846 333.293992 
L 145.255385 333.293992 
L 145.255385 332.22327 
L 145.636923 332.22327 
L 145.636923 331.152548 
L 146.781538 331.152548 
L 146.781538 330.617186 
L 147.163077 330.617186 
L 147.163077 327.94038 
L 147.544615 327.94038 
L 147.544615 326.334297 
L 148.307692 326.334297 
L 148.307692 325.798935 
L 148.689231 325.798935 
L 148.689231 324.728213 
L 149.070769 324.728213 
L 149.070769 324.192852 
L 149.833846 324.192852 
L 149.833846 322.586768 
L 150.215385 322.586768 
L 150.215385 317.768517 
L 150.596923 317.768517 
L 150.596923 317.233156 
L 151.741538 317.233156 
L 151.741538 316.697795 
L 152.123077 316.697795 
L 152.123077 316.162433 
L 152.886154 316.162433 
L 152.886154 315.091711 
L 154.030769 315.091711 
L 154.030769 314.55635 
L 154.412308 314.55635 
L 154.412308 314.020989 
L 154.793846 314.020989 
L 154.793846 309.738099 
L 155.556923 309.738099 
L 155.556923 305.99057 
L 157.083077 305.99057 
L 157.083077 305.455209 
L 157.464615 305.455209 
L 157.464615 304.919848 
L 158.609231 304.919848 
L 158.609231 304.384487 
L 158.990769 304.384487 
L 158.990769 302.243042 
L 159.372308 302.243042 
L 159.372308 299.566236 
L 159.753846 299.566236 
L 159.753846 298.495513 
L 162.424615 298.495513 
L 162.424615 294.747985 
L 162.806154 294.747985 
L 162.806154 294.212624 
L 163.187692 294.212624 
L 163.187692 291.535817 
L 163.569231 291.535817 
L 163.569231 291.000456 
L 164.332308 291.000456 
L 164.332308 289.929734 
L 165.095385 289.929734 
L 165.095385 288.32365 
L 165.476923 288.32365 
L 165.476923 287.788289 
L 165.858462 287.788289 
L 165.858462 286.182205 
L 166.24 286.182205 
L 166.24 285.111483 
L 167.384615 285.111483 
L 167.384615 284.04076 
L 168.147692 284.04076 
L 168.147692 283.505399 
L 168.529231 283.505399 
L 168.529231 282.970038 
L 168.910769 282.970038 
L 168.910769 281.899316 
L 169.292308 281.899316 
L 169.292308 281.363954 
L 169.673846 281.363954 
L 169.673846 280.828593 
L 170.055385 280.828593 
L 170.055385 277.616426 
L 171.2 277.616426 
L 171.2 276.545703 
L 172.726154 276.545703 
L 172.726154 276.010342 
L 173.489231 276.010342 
L 173.489231 275.474981 
L 175.015385 275.474981 
L 175.015385 274.404259 
L 175.396923 274.404259 
L 175.396923 272.798175 
L 176.16 272.798175 
L 176.16 272.262814 
L 176.923077 272.262814 
L 176.923077 270.121369 
L 178.449231 270.121369 
L 178.449231 269.586008 
L 178.830769 269.586008 
L 178.830769 269.050646 
L 179.212308 269.050646 
L 179.212308 267.979924 
L 179.975385 267.979924 
L 179.975385 266.37384 
L 180.356923 266.37384 
L 180.356923 265.838479 
L 180.738462 265.838479 
L 180.738462 265.303118 
L 181.12 265.303118 
L 181.12 263.697034 
L 182.264615 263.697034 
L 182.264615 262.090951 
L 182.646154 262.090951 
L 182.646154 258.878783 
L 183.027692 258.878783 
L 183.027692 258.343422 
L 183.790769 258.343422 
L 183.790769 257.2727 
L 184.172308 257.2727 
L 184.172308 256.737338 
L 184.935385 256.737338 
L 184.935385 255.131255 
L 185.316923 255.131255 
L 185.316923 254.595894 
L 185.698462 254.595894 
L 185.698462 254.060532 
L 186.08 254.060532 
L 186.08 253.525171 
L 186.461538 253.525171 
L 186.461538 250.313004 
L 186.843077 250.313004 
L 186.843077 248.171559 
L 188.750769 248.171559 
L 188.750769 246.030114 
L 189.132308 246.030114 
L 189.132308 245.494753 
L 191.421538 245.494753 
L 191.421538 244.959392 
L 192.184615 244.959392 
L 192.184615 241.747224 
L 194.473846 241.747224 
L 194.473846 241.211863 
L 194.855385 241.211863 
L 194.855385 239.605779 
L 195.236923 239.605779 
L 195.236923 239.070418 
L 196 239.070418 
L 196 237.999696 
L 196.763077 237.999696 
L 196.763077 236.928973 
L 197.526154 236.928973 
L 197.526154 236.393612 
L 198.670769 236.393612 
L 198.670769 234.787529 
L 200.578462 234.787529 
L 200.578462 234.252167 
L 200.96 234.252167 
L 200.96 233.716806 
L 202.486154 233.716806 
L 202.486154 231.04 
L 204.012308 231.04 
L 204.012308 229.969278 
L 204.393846 229.969278 
L 204.393846 226.75711 
L 205.538462 226.75711 
L 205.538462 225.686388 
L 205.92 225.686388 
L 205.92 225.151027 
L 206.683077 225.151027 
L 206.683077 224.615665 
L 207.064615 224.615665 
L 207.064615 223.009582 
L 207.827692 223.009582 
L 207.827692 222.474221 
L 208.590769 222.474221 
L 208.590769 221.403498 
L 209.353846 221.403498 
L 209.353846 218.726692 
L 210.88 218.726692 
L 210.88 218.191331 
L 211.261538 218.191331 
L 211.261538 217.65597 
L 212.787692 217.65597 
L 212.787692 216.585247 
L 213.550769 216.585247 
L 213.550769 216.049886 
L 215.076923 216.049886 
L 215.076923 214.443802 
L 216.221538 214.443802 
L 216.221538 213.908441 
L 216.984615 213.908441 
L 216.984615 213.37308 
L 218.510769 213.37308 
L 218.510769 212.837719 
L 220.418462 212.837719 
L 220.418462 212.302357 
L 221.944615 212.302357 
L 221.944615 211.766996 
L 222.326154 211.766996 
L 222.326154 210.696274 
L 223.089231 210.696274 
L 223.089231 210.160913 
L 223.470769 210.160913 
L 223.470769 208.019468 
L 224.615385 208.019468 
L 224.615385 207.484106 
L 224.996923 207.484106 
L 224.996923 206.948745 
L 225.76 206.948745 
L 225.76 205.878023 
L 226.523077 205.878023 
L 226.523077 205.342662 
L 226.904615 205.342662 
L 226.904615 204.271939 
L 228.049231 204.271939 
L 228.049231 203.736578 
L 229.193846 203.736578 
L 229.193846 203.201217 
L 230.338462 203.201217 
L 230.338462 202.665856 
L 230.72 202.665856 
L 230.72 201.595133 
L 231.101538 201.595133 
L 231.101538 201.059772 
L 231.483077 201.059772 
L 231.483077 199.989049 
L 231.864615 199.989049 
L 231.864615 198.918327 
L 233.009231 198.918327 
L 233.009231 198.382966 
L 233.390769 198.382966 
L 233.390769 197.847605 
L 233.772308 197.847605 
L 233.772308 195.70616 
L 236.061538 195.70616 
L 236.061538 194.635437 
L 236.443077 194.635437 
L 236.443077 194.100076 
L 236.824615 194.100076 
L 236.824615 193.564715 
L 239.113846 193.564715 
L 239.113846 193.029354 
L 239.495385 193.029354 
L 239.495385 191.958631 
L 241.021538 191.958631 
L 241.021538 191.42327 
L 243.310769 191.42327 
L 243.310769 190.887909 
L 243.692308 190.887909 
L 243.692308 188.211103 
L 244.455385 188.211103 
L 244.455385 187.14038 
L 245.218462 187.14038 
L 245.218462 186.069658 
L 245.981538 186.069658 
L 245.981538 185.534297 
L 248.270769 185.534297 
L 248.270769 183.928213 
L 249.415385 183.928213 
L 249.415385 183.392852 
L 250.56 183.392852 
L 250.56 182.322129 
L 251.704615 182.322129 
L 251.704615 181.786768 
L 252.849231 181.786768 
L 252.849231 181.251407 
L 253.612308 181.251407 
L 253.612308 180.180684 
L 254.756923 180.180684 
L 254.756923 179.645323 
L 257.046154 179.645323 
L 257.046154 178.574601 
L 257.427692 178.574601 
L 257.427692 177.503878 
L 262.006154 177.503878 
L 262.006154 176.968517 
L 263.913846 176.968517 
L 263.913846 176.433156 
L 264.295385 176.433156 
L 264.295385 174.827072 
L 265.058462 174.827072 
L 265.058462 174.291711 
L 265.821538 174.291711 
L 265.821538 173.75635 
L 266.203077 173.75635 
L 266.203077 173.220989 
L 266.966154 173.220989 
L 266.966154 172.685627 
L 267.347692 172.685627 
L 267.347692 172.150266 
L 268.110769 172.150266 
L 268.110769 171.614905 
L 268.492308 171.614905 
L 268.492308 171.079544 
L 269.255385 171.079544 
L 269.255385 167.867376 
L 269.636923 167.867376 
L 269.636923 165.725932 
L 271.544615 165.725932 
L 271.544615 165.19057 
L 272.307692 165.19057 
L 272.307692 164.655209 
L 273.452308 164.655209 
L 273.452308 164.119848 
L 275.741538 164.119848 
L 275.741538 163.584487 
L 276.123077 163.584487 
L 276.123077 163.049125 
L 276.886154 163.049125 
L 276.886154 162.513764 
L 277.649231 162.513764 
L 277.649231 161.443042 
L 278.412308 161.443042 
L 278.412308 159.836958 
L 279.175385 159.836958 
L 279.175385 159.301597 
L 280.32 159.301597 
L 280.32 158.766236 
L 280.701538 158.766236 
L 280.701538 156.624791 
L 281.846154 156.624791 
L 281.846154 156.08943 
L 282.227692 156.08943 
L 282.227692 155.018707 
L 282.609231 155.018707 
L 282.609231 153.947985 
L 282.990769 153.947985 
L 282.990769 153.412624 
L 283.372308 153.412624 
L 283.372308 152.877262 
L 284.135385 152.877262 
L 284.135385 152.341901 
L 287.950769 152.341901 
L 287.950769 151.80654 
L 290.24 151.80654 
L 290.24 151.271179 
L 292.529231 151.271179 
L 292.529231 150.735817 
L 294.055385 150.735817 
L 294.055385 149.129734 
L 294.818462 149.129734 
L 294.818462 148.594373 
L 295.963077 148.594373 
L 295.963077 148.059011 
L 296.344615 148.059011 
L 296.344615 147.52365 
L 297.107692 147.52365 
L 297.107692 146.988289 
L 297.489231 146.988289 
L 297.489231 146.452928 
L 299.015385 146.452928 
L 299.015385 145.917567 
L 299.396923 145.917567 
L 299.396923 145.382205 
L 299.778462 145.382205 
L 299.778462 143.24076 
L 300.923077 143.24076 
L 300.923077 142.705399 
L 301.304615 142.705399 
L 301.304615 142.170038 
L 301.686154 142.170038 
L 301.686154 141.634677 
L 311.606154 141.634677 
L 311.606154 140.563954 
L 315.421538 140.563954 
L 315.421538 140.028593 
L 315.803077 140.028593 
L 315.803077 139.493232 
L 316.566154 139.493232 
L 316.566154 138.957871 
L 317.329231 138.957871 
L 317.329231 138.42251 
L 318.855385 138.42251 
L 318.855385 137.351787 
L 319.236923 137.351787 
L 319.236923 136.281065 
L 320.763077 136.281065 
L 320.763077 135.745703 
L 325.341538 135.745703 
L 325.341538 135.210342 
L 325.723077 135.210342 
L 325.723077 134.674981 
L 326.867692 134.674981 
L 326.867692 134.13962 
L 329.156923 134.13962 
L 329.156923 133.068897 
L 329.92 133.068897 
L 329.92 132.533536 
L 332.209231 132.533536 
L 332.209231 131.998175 
L 334.498462 131.998175 
L 334.498462 131.462814 
L 335.261538 131.462814 
L 335.261538 130.927452 
L 336.024615 130.927452 
L 336.024615 130.392091 
L 338.313846 130.392091 
L 338.313846 129.85673 
L 342.892308 129.85673 
L 342.892308 129.321369 
L 344.036923 129.321369 
L 344.036923 128.786008 
L 348.615385 128.786008 
L 348.615385 127.179924 
L 349.76 127.179924 
L 349.76 126.644563 
L 350.523077 126.644563 
L 350.523077 126.109202 
L 352.049231 126.109202 
L 352.049231 125.57384 
L 352.430769 125.57384 
L 352.430769 125.038479 
L 353.193846 125.038479 
L 353.193846 123.432395 
L 353.575385 123.432395 
L 353.575385 122.897034 
L 356.246154 122.897034 
L 356.246154 122.361673 
L 357.390769 122.361673 
L 357.390769 121.826312 
L 361.206154 121.826312 
L 361.206154 121.290951 
L 362.732308 121.290951 
L 362.732308 120.755589 
L 363.876923 120.755589 
L 363.876923 120.220228 
L 365.021538 120.220228 
L 365.021538 119.684867 
L 366.166154 119.684867 
L 366.166154 118.614144 
L 366.929231 118.614144 
L 366.929231 118.078783 
L 369.981538 118.078783 
L 369.981538 117.543422 
L 372.270769 117.543422 
L 372.270769 117.008061 
L 373.033846 117.008061 
L 373.033846 116.4727 
L 374.178462 116.4727 
L 374.178462 115.937338 
L 376.086154 115.937338 
L 376.086154 115.401977 
L 378.756923 115.401977 
L 378.756923 114.866616 
L 379.52 114.866616 
L 379.52 114.331255 
L 380.283077 114.331255 
L 380.283077 113.795894 
L 382.190769 113.795894 
L 382.190769 112.725171 
L 383.335385 112.725171 
L 383.335385 111.654449 
L 384.48 111.654449 
L 384.48 111.119087 
L 387.150769 111.119087 
L 387.150769 110.583726 
L 389.058462 110.583726 
L 389.058462 110.048365 
L 389.44 110.048365 
L 389.44 109.513004 
L 391.729231 109.513004 
L 391.729231 108.977643 
L 392.873846 108.977643 
L 392.873846 108.442281 
L 394.4 108.442281 
L 394.4 107.90692 
L 401.649231 107.90692 
L 401.649231 107.371559 
L 402.030769 107.371559 
L 402.030769 106.836198 
L 402.793846 106.836198 
L 402.793846 106.300837 
L 403.556923 106.300837 
L 403.556923 105.765475 
L 405.846154 105.765475 
L 405.846154 105.230114 
L 406.227692 105.230114 
L 406.227692 104.159392 
L 407.372308 104.159392 
L 407.372308 103.62403 
L 407.753846 103.62403 
L 407.753846 102.553308 
L 408.135385 102.553308 
L 408.135385 102.017947 
L 409.28 102.017947 
L 409.28 100.947224 
L 409.661538 100.947224 
L 409.661538 100.411863 
L 414.621538 100.411863 
L 414.621538 99.341141 
L 415.003077 99.341141 
L 415.003077 98.805779 
L 421.489231 98.805779 
L 421.489231 98.270418 
L 423.778462 98.270418 
L 423.778462 97.199696 
L 431.409231 97.199696 
L 431.409231 96.664335 
L 432.553846 96.664335 
L 432.553846 96.128973 
L 434.08 96.128973 
L 434.08 95.593612 
L 437.895385 95.593612 
L 437.895385 95.058251 
L 439.803077 95.058251 
L 439.803077 94.52289 
L 449.341538 94.52289 
L 449.341538 93.987529 
L 449.723077 93.987529 
L 449.723077 93.452167 
L 460.024615 93.452167 
L 460.024615 92.916806 
L 461.169231 92.916806 
L 461.169231 92.381445 
L 471.089231 92.381445 
L 471.089231 91.846084 
L 486.350769 91.846084 
L 486.350769 91.310722 
L 487.876923 91.310722 
L 487.876923 90.775361 
L 497.415385 90.775361 
L 497.415385 90.24 
L 518.4 90.24 
L 518.4 90.24 
" style="fill:none;stroke:#ff8c00;stroke-linecap:square;stroke-width:2;"/>
   </g>
   <g id="line2d_26">
    <path clip-path="url(#p9203e75566)" d="M 72 512.64 
L 518.4 90.24 
" style="fill:none;stroke:#000080;stroke-dasharray:7.4,3.2;stroke-dashoffset:0;stroke-width:2;"/>
   </g>
   <g id="patch_3">
    <path d="M 72 512.64 
L 72 69.12 
" style="fill:none;stroke:#000000;stroke-linecap:square;stroke-linejoin:miter;stroke-width:0.8;"/>
   </g>
   <g id="patch_4">
    <path d="M 518.4 512.64 
L 518.4 69.12 
" style="fill:none;stroke:#000000;stroke-linecap:square;stroke-linejoin:miter;stroke-width:0.8;"/>
   </g>
   <g id="patch_5">
    <path d="M 72 512.64 
L 518.4 512.64 
" style="fill:none;stroke:#000000;stroke-linecap:square;stroke-linejoin:miter;stroke-width:0.8;"/>
   </g>
   <g id="patch_6">
    <path d="M 72 69.12 
L 518.4 69.12 
" style="fill:none;stroke:#000000;stroke-linecap:square;stroke-linejoin:miter;stroke-width:0.8;"/>
   </g>
   <g id="legend_1">
    <g id="patch_7">
     <path d="M 427.081875 509.64 
L 514.2 509.64 
Q 515.4 509.64 515.4 508.44 
L 515.4 500.233125 
Q 515.4 499.033125 514.2 499.033125 
L 427.081875 499.033125 
Q 425.881875 499.033125 425.881875 500.233125 
L 425.881875 508.44 
Q 425.881875 509.64 427.081875 509.64 
z
" style="fill:#ffffff;opacity:0.8;stroke:#cccccc;stroke-linejoin:miter;"/>
    </g>
    <g id="line2d_27">
     <path d="M 428.281875 503.892187 
L 440.281875 503.892187 
" style="fill:none;stroke:#ff8c00;stroke-linecap:square;stroke-width:2;"/>
    </g>
    <g id="line2d_28"/>
    <g id="text_15">
     <!-- D012559 (area =0.76) -->
     <defs>
      <path d="M 19.671875 64.796875 
L 19.671875 8.109375 
L 31.59375 8.109375 
Q 46.6875 8.109375 53.6875 14.9375 
Q 60.6875 21.78125 60.6875 36.53125 
Q 60.6875 51.171875 53.6875 57.984375 
Q 46.6875 64.796875 31.59375 64.796875 
z
M 9.8125 72.90625 
L 30.078125 72.90625 
Q 51.265625 72.90625 61.171875 64.09375 
Q 71.09375 55.28125 71.09375 36.53125 
Q 71.09375 17.671875 61.125 8.828125 
Q 51.171875 0 30.078125 0 
L 9.8125 0 
z
" id="DejaVuSans-68"/>
      <path d="M 10.796875 72.90625 
L 49.515625 72.90625 
L 49.515625 64.59375 
L 19.828125 64.59375 
L 19.828125 46.734375 
Q 21.96875 47.46875 24.109375 47.828125 
Q 26.265625 48.1875 28.421875 48.1875 
Q 40.625 48.1875 47.75 41.5 
Q 54.890625 34.8125 54.890625 23.390625 
Q 54.890625 11.625 47.5625 5.09375 
Q 40.234375 -1.421875 26.90625 -1.421875 
Q 22.3125 -1.421875 17.546875 -0.640625 
Q 12.796875 0.140625 7.71875 1.703125 
L 7.71875 11.625 
Q 12.109375 9.234375 16.796875 8.0625 
Q 21.484375 6.890625 26.703125 6.890625 
Q 35.15625 6.890625 40.078125 11.328125 
Q 45.015625 15.765625 45.015625 23.390625 
Q 45.015625 31 40.078125 35.4375 
Q 35.15625 39.890625 26.703125 39.890625 
Q 22.75 39.890625 18.8125 39.015625 
Q 14.890625 38.140625 10.796875 36.28125 
z
" id="DejaVuSans-53"/>
      <path d="M 10.984375 1.515625 
L 10.984375 10.5 
Q 14.703125 8.734375 18.5 7.8125 
Q 22.3125 6.890625 25.984375 6.890625 
Q 35.75 6.890625 40.890625 13.453125 
Q 46.046875 20.015625 46.78125 33.40625 
Q 43.953125 29.203125 39.59375 26.953125 
Q 35.25 24.703125 29.984375 24.703125 
Q 19.046875 24.703125 12.671875 31.3125 
Q 6.296875 37.9375 6.296875 49.421875 
Q 6.296875 60.640625 12.9375 67.421875 
Q 19.578125 74.21875 30.609375 74.21875 
Q 43.265625 74.21875 49.921875 64.515625 
Q 56.59375 54.828125 56.59375 36.375 
Q 56.59375 19.140625 48.40625 8.859375 
Q 40.234375 -1.421875 26.421875 -1.421875 
Q 22.703125 -1.421875 18.890625 -0.6875 
Q 15.09375 0.046875 10.984375 1.515625 
z
M 30.609375 32.421875 
Q 37.25 32.421875 41.125 36.953125 
Q 45.015625 41.5 45.015625 49.421875 
Q 45.015625 57.28125 41.125 61.84375 
Q 37.25 66.40625 30.609375 66.40625 
Q 23.96875 66.40625 20.09375 61.84375 
Q 16.21875 57.28125 16.21875 49.421875 
Q 16.21875 41.5 20.09375 36.953125 
Q 23.96875 32.421875 30.609375 32.421875 
z
" id="DejaVuSans-57"/>
      <path d="M 31 75.875 
Q 24.46875 64.65625 21.28125 53.65625 
Q 18.109375 42.671875 18.109375 31.390625 
Q 18.109375 20.125 21.3125 9.0625 
Q 24.515625 -2 31 -13.1875 
L 23.1875 -13.1875 
Q 15.875 -1.703125 12.234375 9.375 
Q 8.59375 20.453125 8.59375 31.390625 
Q 8.59375 42.28125 12.203125 53.3125 
Q 15.828125 64.359375 23.1875 75.875 
z
" id="DejaVuSans-40"/>
      <path d="M 10.59375 45.40625 
L 73.1875 45.40625 
L 73.1875 37.203125 
L 10.59375 37.203125 
z
M 10.59375 25.484375 
L 73.1875 25.484375 
L 73.1875 17.1875 
L 10.59375 17.1875 
z
" id="DejaVuSans-61"/>
      <path d="M 8.203125 72.90625 
L 55.078125 72.90625 
L 55.078125 68.703125 
L 28.609375 0 
L 18.3125 0 
L 43.21875 64.59375 
L 8.203125 64.59375 
z
" id="DejaVuSans-55"/>
      <path d="M 8.015625 75.875 
L 15.828125 75.875 
Q 23.140625 64.359375 26.78125 53.3125 
Q 30.421875 42.28125 30.421875 31.390625 
Q 30.421875 20.453125 26.78125 9.375 
Q 23.140625 -1.703125 15.828125 -13.1875 
L 8.015625 -13.1875 
Q 14.5 -2 17.703125 9.0625 
Q 20.90625 20.125 20.90625 31.390625 
Q 20.90625 42.671875 17.703125 53.65625 
Q 14.5 64.65625 8.015625 75.875 
z
" id="DejaVuSans-41"/>
     </defs>
     <g transform="translate(445.081875 505.992188)scale(0.06 -0.06)">
      <use xlink:href="#DejaVuSans-68"/>
      <use x="77.001953" xlink:href="#DejaVuSans-48"/>
      <use x="140.625" xlink:href="#DejaVuSans-49"/>
      <use x="204.248047" xlink:href="#DejaVuSans-50"/>
      <use x="267.871094" xlink:href="#DejaVuSans-53"/>
      <use x="331.494141" xlink:href="#DejaVuSans-53"/>
      <use x="395.117188" xlink:href="#DejaVuSans-57"/>
      <use x="458.740234" xlink:href="#DejaVuSans-32"/>
      <use x="490.527344" xlink:href="#DejaVuSans-40"/>
      <use x="529.541016" xlink:href="#DejaVuSans-97"/>
      <use x="590.820312" xlink:href="#DejaVuSans-114"/>
      <use x="631.902344" xlink:href="#DejaVuSans-101"/>
      <use x="693.425781" xlink:href="#DejaVuSans-97"/>
      <use x="754.705078" xlink:href="#DejaVuSans-32"/>
      <use x="786.492188" xlink:href="#DejaVuSans-61"/>
      <use x="870.28125" xlink:href="#DejaVuSans-48"/>
      <use x="933.904297" xlink:href="#DejaVuSans-46"/>
      <use x="965.691406" xlink:href="#DejaVuSans-55"/>
      <use x="1029.314453" xlink:href="#DejaVuSans-54"/>
      <use x="1092.9375" xlink:href="#DejaVuSans-41"/>
     </g>
    </g>
   </g>
  </g>
 </g>
 <defs>
  <clipPath id="p9203e75566">
   <rect height="443.52" width="446.4" x="72" y="69.12"/>
  </clipPath>
 </defs>
</svg>
