<?xml version="1.0" encoding="utf-8" standalone="no"?>
<!DOCTYPE svg PUBLIC "-//W3C//DTD SVG 1.1//EN"
  "http://www.w3.org/Graphics/SVG/1.1/DTD/svg11.dtd">
<!-- Created with matplotlib (https://matplotlib.org/) -->
<svg height="432pt" version="1.1" viewBox="0 0 720 432" width="720pt" xmlns="http://www.w3.org/2000/svg" xmlns:xlink="http://www.w3.org/1999/xlink">
 <defs>
  <style type="text/css">
*{stroke-linecap:butt;stroke-linejoin:round;}
  </style>
 </defs>
 <g id="figure_1">
  <g id="patch_1">
   <path d="M 0 432 
L 720 432 
L 720 0 
L 0 0 
z
" style="fill:#ffffff;"/>
  </g>
  <g id="axes_1">
   <g id="patch_2">
    <path d="M 90 378 
L 648 378 
L 648 51.84 
L 90 51.84 
z
" style="fill:#ffffff;"/>
   </g>
   <g id="PathCollection_1">
    <defs>
     <path d="M 0 3 
C 0.795609 3 1.55874 2.683901 2.12132 2.12132 
C 2.683901 1.55874 3 0.795609 3 0 
C 3 -0.795609 2.683901 -1.55874 2.12132 -2.12132 
C 1.55874 -2.683901 0.795609 -3 0 -3 
C -0.795609 -3 -1.55874 -2.683901 -2.12132 -2.12132 
C -2.683901 -1.55874 -3 -0.795609 -3 0 
C -3 0.795609 -2.683901 1.55874 -2.12132 2.12132 
C -1.55874 2.683901 -0.795609 3 0 3 
z
" id="mcd725fc946" style="stroke:#00bfc4;"/>
    </defs>
    <g clip-path="url(#p75f3741636)">
     <use style="fill:#00bfc4;stroke:#00bfc4;" x="250.874922" xlink:href="#mcd725fc946" y="81.983334"/>
     <use style="fill:#00bfc4;stroke:#00bfc4;" x="533.884237" xlink:href="#mcd725fc946" y="286.383381"/>
     <use style="fill:#00bfc4;stroke:#00bfc4;" x="283.779108" xlink:href="#mcd725fc946" y="121.960006"/>
     <use style="fill:#00bfc4;stroke:#00bfc4;" x="243.760126" xlink:href="#mcd725fc946" y="337.661268"/>
    </g>
   </g>
   <g id="PathCollection_2">
    <defs>
     <path d="M 0 3 
C 0.795609 3 1.55874 2.683901 2.12132 2.12132 
C 2.683901 1.55874 3 0.795609 3 0 
C 3 -0.795609 2.683901 -1.55874 2.12132 -2.12132 
C 1.55874 -2.683901 0.795609 -3 0 -3 
C -0.795609 -3 -1.55874 -2.683901 -2.12132 -2.12132 
C -2.683901 -1.55874 -3 -0.795609 -3 0 
C -3 0.795609 -2.683901 1.55874 -2.12132 2.12132 
C -1.55874 2.683901 -0.795609 3 0 3 
z
" id="m3b0853d52c" style="stroke:#f8766d;"/>
    </defs>
    <g clip-path="url(#p75f3741636)">
     <use style="fill:#f8766d;stroke:#f8766d;" x="256.118902" xlink:href="#m3b0853d52c" y="162.670387"/>
     <use style="fill:#f8766d;stroke:#f8766d;" x="309.035949" xlink:href="#m3b0853d52c" y="320.307185"/>
     <use style="fill:#f8766d;stroke:#f8766d;" x="323.042837" xlink:href="#m3b0853d52c" y="303.606375"/>
     <use style="fill:#f8766d;stroke:#f8766d;" x="286.149015" xlink:href="#m3b0853d52c" y="250.014657"/>
     <use style="fill:#f8766d;stroke:#f8766d;" x="250.073476" xlink:href="#m3b0853d52c" y="145.632963"/>
     <use style="fill:#f8766d;stroke:#f8766d;" x="336.939846" xlink:href="#m3b0853d52c" y="136.679535"/>
     <use style="fill:#f8766d;stroke:#f8766d;" x="359.806352" xlink:href="#m3b0853d52c" y="118.587267"/>
     <use style="fill:#f8766d;stroke:#f8766d;" x="319.492384" xlink:href="#m3b0853d52c" y="360.581468"/>
     <use style="fill:#f8766d;stroke:#f8766d;" x="325.872152" xlink:href="#m3b0853d52c" y="226.495744"/>
     <use style="fill:#f8766d;stroke:#f8766d;" x="398.480039" xlink:href="#m3b0853d52c" y="240.485628"/>
     <use style="fill:#f8766d;stroke:#f8766d;" x="270.986435" xlink:href="#m3b0853d52c" y="135.422675"/>
     <use style="fill:#f8766d;stroke:#f8766d;" x="230.377819" xlink:href="#m3b0853d52c" y="266.798918"/>
     <use style="fill:#f8766d;stroke:#f8766d;" x="400.413416" xlink:href="#m3b0853d52c" y="69.258532"/>
     <use style="fill:#f8766d;stroke:#f8766d;" x="296.640416" xlink:href="#m3b0853d52c" y="194.305012"/>
     <use style="fill:#f8766d;stroke:#f8766d;" x="248.897471" xlink:href="#m3b0853d52c" y="341.011561"/>
     <use style="fill:#f8766d;stroke:#f8766d;" x="422.594883" xlink:href="#m3b0853d52c" y="312.474701"/>
     <use style="fill:#f8766d;stroke:#f8766d;" x="449.855823" xlink:href="#m3b0853d52c" y="266.205522"/>
     <use style="fill:#f8766d;stroke:#f8766d;" x="457.681236" xlink:href="#m3b0853d52c" y="229.409558"/>
     <use style="fill:#f8766d;stroke:#f8766d;" x="450.632944" xlink:href="#m3b0853d52c" y="124.370131"/>
     <use style="fill:#f8766d;stroke:#f8766d;" x="185.469156" xlink:href="#m3b0853d52c" y="146.02474"/>
     <use style="fill:#f8766d;stroke:#f8766d;" x="620.915844" xlink:href="#m3b0853d52c" y="253.94517"/>
     <use style="fill:#f8766d;stroke:#f8766d;" x="236.245333" xlink:href="#m3b0853d52c" y="297.431782"/>
     <use style="fill:#f8766d;stroke:#f8766d;" x="436.396243" xlink:href="#m3b0853d52c" y="250.267248"/>
     <use style="fill:#f8766d;stroke:#f8766d;" x="317.780976" xlink:href="#m3b0853d52c" y="81.722488"/>
     <use style="fill:#f8766d;stroke:#f8766d;" x="317.988248" xlink:href="#m3b0853d52c" y="266.631794"/>
     <use style="fill:#f8766d;stroke:#f8766d;" x="420.159219" xlink:href="#m3b0853d52c" y="281.4339"/>
     <use style="fill:#f8766d;stroke:#f8766d;" x="398.492093" xlink:href="#m3b0853d52c" y="154.681573"/>
     <use style="fill:#f8766d;stroke:#f8766d;" x="122.301525" xlink:href="#m3b0853d52c" y="89.713111"/>
     <use style="fill:#f8766d;stroke:#f8766d;" x="205.552054" xlink:href="#m3b0853d52c" y="303.327147"/>
     <use style="fill:#f8766d;stroke:#f8766d;" x="223.420711" xlink:href="#m3b0853d52c" y="96.050907"/>
     <use style="fill:#f8766d;stroke:#f8766d;" x="363.673788" xlink:href="#m3b0853d52c" y="199.523609"/>
     <use style="fill:#f8766d;stroke:#f8766d;" x="487.866517" xlink:href="#m3b0853d52c" y="127.841766"/>
     <use style="fill:#f8766d;stroke:#f8766d;" x="461.485291" xlink:href="#m3b0853d52c" y="143.127498"/>
     <use style="fill:#f8766d;stroke:#f8766d;" x="323.545139" xlink:href="#m3b0853d52c" y="156.070412"/>
     <use style="fill:#f8766d;stroke:#f8766d;" x="256.112161" xlink:href="#m3b0853d52c" y="189.960641"/>
     <use style="fill:#f8766d;stroke:#f8766d;" x="192.586613" xlink:href="#m3b0853d52c" y="148.766033"/>
     <use style="fill:#f8766d;stroke:#f8766d;" x="456.883286" xlink:href="#m3b0853d52c" y="299.875259"/>
     <use style="fill:#f8766d;stroke:#f8766d;" x="405.802897" xlink:href="#m3b0853d52c" y="273.497107"/>
     <use style="fill:#f8766d;stroke:#f8766d;" x="205.981533" xlink:href="#m3b0853d52c" y="287.603667"/>
     <use style="fill:#f8766d;stroke:#f8766d;" x="475.574996" xlink:href="#m3b0853d52c" y="306.680694"/>
     <use style="fill:#f8766d;stroke:#f8766d;" x="466.875894" xlink:href="#m3b0853d52c" y="256.25081"/>
     <use style="fill:#f8766d;stroke:#f8766d;" x="581.118964" xlink:href="#m3b0853d52c" y="184.413352"/>
     <use style="fill:#f8766d;stroke:#f8766d;" x="550.567652" xlink:href="#m3b0853d52c" y="197.674671"/>
     <use style="fill:#f8766d;stroke:#f8766d;" x="423.450804" xlink:href="#m3b0853d52c" y="203.430041"/>
     <use style="fill:#f8766d;stroke:#f8766d;" x="170.138313" xlink:href="#m3b0853d52c" y="137.190305"/>
     <use style="fill:#f8766d;stroke:#f8766d;" x="314.154242" xlink:href="#m3b0853d52c" y="174.253258"/>
     <use style="fill:#f8766d;stroke:#f8766d;" x="506.382864" xlink:href="#m3b0853d52c" y="317.021024"/>
     <use style="fill:#f8766d;stroke:#f8766d;" x="312.387344" xlink:href="#m3b0853d52c" y="149.565968"/>
     <use style="fill:#f8766d;stroke:#f8766d;" x="198.350563" xlink:href="#m3b0853d52c" y="99.82863"/>
     <use style="fill:#f8766d;stroke:#f8766d;" x="388.81266" xlink:href="#m3b0853d52c" y="184.880975"/>
     <use style="fill:#f8766d;stroke:#f8766d;" x="314.065171" xlink:href="#m3b0853d52c" y="310.662354"/>
     <use style="fill:#f8766d;stroke:#f8766d;" x="344.379395" xlink:href="#m3b0853d52c" y="79.498886"/>
     <use style="fill:#f8766d;stroke:#f8766d;" x="263.134764" xlink:href="#m3b0853d52c" y="306.508395"/>
     <use style="fill:#f8766d;stroke:#f8766d;" x="185.012534" xlink:href="#m3b0853d52c" y="244.907957"/>
     <use style="fill:#f8766d;stroke:#f8766d;" x="179.409928" xlink:href="#m3b0853d52c" y="176.571216"/>
     <use style="fill:#f8766d;stroke:#f8766d;" x="387.000836" xlink:href="#m3b0853d52c" y="117.141503"/>
     <use style="fill:#f8766d;stroke:#f8766d;" x="451.937892" xlink:href="#m3b0853d52c" y="316.67568"/>
     <use style="fill:#f8766d;stroke:#f8766d;" x="186.53865" xlink:href="#m3b0853d52c" y="207.63748"/>
     <use style="fill:#f8766d;stroke:#f8766d;" x="226.739057" xlink:href="#m3b0853d52c" y="201.079286"/>
     <use style="fill:#f8766d;stroke:#f8766d;" x="295.3981" xlink:href="#m3b0853d52c" y="100.172117"/>
     <use style="fill:#f8766d;stroke:#f8766d;" x="247.340453" xlink:href="#m3b0853d52c" y="74.499639"/>
     <use style="fill:#f8766d;stroke:#f8766d;" x="432.558889" xlink:href="#m3b0853d52c" y="223.419313"/>
     <use style="fill:#f8766d;stroke:#f8766d;" x="615.044853" xlink:href="#m3b0853d52c" y="258.785214"/>
     <use style="fill:#f8766d;stroke:#f8766d;" x="424.215029" xlink:href="#m3b0853d52c" y="254.877258"/>
     <use style="fill:#f8766d;stroke:#f8766d;" x="310.52561" xlink:href="#m3b0853d52c" y="263.278691"/>
     <use style="fill:#f8766d;stroke:#f8766d;" x="477.603996" xlink:href="#m3b0853d52c" y="122.491571"/>
     <use style="fill:#f8766d;stroke:#f8766d;" x="117.084156" xlink:href="#m3b0853d52c" y="160.93314"/>
     <use style="fill:#f8766d;stroke:#f8766d;" x="397.714338" xlink:href="#m3b0853d52c" y="283.730762"/>
     <use style="fill:#f8766d;stroke:#f8766d;" x="504.293514" xlink:href="#m3b0853d52c" y="191.47949"/>
    </g>
   </g>
   <g id="matplotlib.axis_1">
    <g id="xtick_1">
     <g id="line2d_1">
      <defs>
       <path d="M 0 0 
L 0 3.5 
" id="mecea7faac3" style="stroke:#000000;stroke-width:0.8;"/>
      </defs>
      <g>
       <use style="stroke:#000000;stroke-width:0.8;" x="114.594664" xlink:href="#mecea7faac3" y="378"/>
      </g>
     </g>
     <g id="text_1">
      <!-- −5 -->
      <defs>
       <path d="M 10.59375 35.5 
L 73.1875 35.5 
L 73.1875 27.203125 
L 10.59375 27.203125 
z
" id="DejaVuSans-8722"/>
       <path d="M 10.796875 72.90625 
L 49.515625 72.90625 
L 49.515625 64.59375 
L 19.828125 64.59375 
L 19.828125 46.734375 
Q 21.96875 47.46875 24.109375 47.828125 
Q 26.265625 48.1875 28.421875 48.1875 
Q 40.625 48.1875 47.75 41.5 
Q 54.890625 34.8125 54.890625 23.390625 
Q 54.890625 11.625 47.5625 5.09375 
Q 40.234375 -1.421875 26.90625 -1.421875 
Q 22.3125 -1.421875 17.546875 -0.640625 
Q 12.796875 0.140625 7.71875 1.703125 
L 7.71875 11.625 
Q 12.109375 9.234375 16.796875 8.0625 
Q 21.484375 6.890625 26.703125 6.890625 
Q 35.15625 6.890625 40.078125 11.328125 
Q 45.015625 15.765625 45.015625 23.390625 
Q 45.015625 31 40.078125 35.4375 
Q 35.15625 39.890625 26.703125 39.890625 
Q 22.75 39.890625 18.8125 39.015625 
Q 14.890625 38.140625 10.796875 36.28125 
z
" id="DejaVuSans-53"/>
      </defs>
      <g transform="translate(107.22357 392.598437)scale(0.1 -0.1)">
       <use xlink:href="#DejaVuSans-8722"/>
       <use x="83.789062" xlink:href="#DejaVuSans-53"/>
      </g>
     </g>
    </g>
    <g id="xtick_2">
     <g id="line2d_2">
      <g>
       <use style="stroke:#000000;stroke-width:0.8;" x="189.00061" xlink:href="#mecea7faac3" y="378"/>
      </g>
     </g>
     <g id="text_2">
      <!-- −4 -->
      <defs>
       <path d="M 37.796875 64.3125 
L 12.890625 25.390625 
L 37.796875 25.390625 
z
M 35.203125 72.90625 
L 47.609375 72.90625 
L 47.609375 25.390625 
L 58.015625 25.390625 
L 58.015625 17.1875 
L 47.609375 17.1875 
L 47.609375 0 
L 37.796875 0 
L 37.796875 17.1875 
L 4.890625 17.1875 
L 4.890625 26.703125 
z
" id="DejaVuSans-52"/>
      </defs>
      <g transform="translate(181.629516 392.598437)scale(0.1 -0.1)">
       <use xlink:href="#DejaVuSans-8722"/>
       <use x="83.789062" xlink:href="#DejaVuSans-52"/>
      </g>
     </g>
    </g>
    <g id="xtick_3">
     <g id="line2d_3">
      <g>
       <use style="stroke:#000000;stroke-width:0.8;" x="263.406555" xlink:href="#mecea7faac3" y="378"/>
      </g>
     </g>
     <g id="text_3">
      <!-- −3 -->
      <defs>
       <path d="M 40.578125 39.3125 
Q 47.65625 37.796875 51.625 33 
Q 55.609375 28.21875 55.609375 21.1875 
Q 55.609375 10.40625 48.1875 4.484375 
Q 40.765625 -1.421875 27.09375 -1.421875 
Q 22.515625 -1.421875 17.65625 -0.515625 
Q 12.796875 0.390625 7.625 2.203125 
L 7.625 11.71875 
Q 11.71875 9.328125 16.59375 8.109375 
Q 21.484375 6.890625 26.8125 6.890625 
Q 36.078125 6.890625 40.9375 10.546875 
Q 45.796875 14.203125 45.796875 21.1875 
Q 45.796875 27.640625 41.28125 31.265625 
Q 36.765625 34.90625 28.71875 34.90625 
L 20.21875 34.90625 
L 20.21875 43.015625 
L 29.109375 43.015625 
Q 36.375 43.015625 40.234375 45.921875 
Q 44.09375 48.828125 44.09375 54.296875 
Q 44.09375 59.90625 40.109375 62.90625 
Q 36.140625 65.921875 28.71875 65.921875 
Q 24.65625 65.921875 20.015625 65.03125 
Q 15.375 64.15625 9.8125 62.3125 
L 9.8125 71.09375 
Q 15.4375 72.65625 20.34375 73.4375 
Q 25.25 74.21875 29.59375 74.21875 
Q 40.828125 74.21875 47.359375 69.109375 
Q 53.90625 64.015625 53.90625 55.328125 
Q 53.90625 49.265625 50.4375 45.09375 
Q 46.96875 40.921875 40.578125 39.3125 
z
" id="DejaVuSans-51"/>
      </defs>
      <g transform="translate(256.035461 392.598437)scale(0.1 -0.1)">
       <use xlink:href="#DejaVuSans-8722"/>
       <use x="83.789062" xlink:href="#DejaVuSans-51"/>
      </g>
     </g>
    </g>
    <g id="xtick_4">
     <g id="line2d_4">
      <g>
       <use style="stroke:#000000;stroke-width:0.8;" x="337.8125" xlink:href="#mecea7faac3" y="378"/>
      </g>
     </g>
     <g id="text_4">
      <!-- −2 -->
      <defs>
       <path d="M 19.1875 8.296875 
L 53.609375 8.296875 
L 53.609375 0 
L 7.328125 0 
L 7.328125 8.296875 
Q 12.9375 14.109375 22.625 23.890625 
Q 32.328125 33.6875 34.8125 36.53125 
Q 39.546875 41.84375 41.421875 45.53125 
Q 43.3125 49.21875 43.3125 52.78125 
Q 43.3125 58.59375 39.234375 62.25 
Q 35.15625 65.921875 28.609375 65.921875 
Q 23.96875 65.921875 18.8125 64.3125 
Q 13.671875 62.703125 7.8125 59.421875 
L 7.8125 69.390625 
Q 13.765625 71.78125 18.9375 73 
Q 24.125 74.21875 28.421875 74.21875 
Q 39.75 74.21875 46.484375 68.546875 
Q 53.21875 62.890625 53.21875 53.421875 
Q 53.21875 48.921875 51.53125 44.890625 
Q 49.859375 40.875 45.40625 35.40625 
Q 44.1875 33.984375 37.640625 27.21875 
Q 31.109375 20.453125 19.1875 8.296875 
z
" id="DejaVuSans-50"/>
      </defs>
      <g transform="translate(330.441406 392.598437)scale(0.1 -0.1)">
       <use xlink:href="#DejaVuSans-8722"/>
       <use x="83.789062" xlink:href="#DejaVuSans-50"/>
      </g>
     </g>
    </g>
    <g id="xtick_5">
     <g id="line2d_5">
      <g>
       <use style="stroke:#000000;stroke-width:0.8;" x="412.218445" xlink:href="#mecea7faac3" y="378"/>
      </g>
     </g>
     <g id="text_5">
      <!-- −1 -->
      <defs>
       <path d="M 12.40625 8.296875 
L 28.515625 8.296875 
L 28.515625 63.921875 
L 10.984375 60.40625 
L 10.984375 69.390625 
L 28.421875 72.90625 
L 38.28125 72.90625 
L 38.28125 8.296875 
L 54.390625 8.296875 
L 54.390625 0 
L 12.40625 0 
z
" id="DejaVuSans-49"/>
      </defs>
      <g transform="translate(404.847352 392.598437)scale(0.1 -0.1)">
       <use xlink:href="#DejaVuSans-8722"/>
       <use x="83.789062" xlink:href="#DejaVuSans-49"/>
      </g>
     </g>
    </g>
    <g id="xtick_6">
     <g id="line2d_6">
      <g>
       <use style="stroke:#000000;stroke-width:0.8;" x="486.624391" xlink:href="#mecea7faac3" y="378"/>
      </g>
     </g>
     <g id="text_6">
      <!-- 0 -->
      <defs>
       <path d="M 31.78125 66.40625 
Q 24.171875 66.40625 20.328125 58.90625 
Q 16.5 51.421875 16.5 36.375 
Q 16.5 21.390625 20.328125 13.890625 
Q 24.171875 6.390625 31.78125 6.390625 
Q 39.453125 6.390625 43.28125 13.890625 
Q 47.125 21.390625 47.125 36.375 
Q 47.125 51.421875 43.28125 58.90625 
Q 39.453125 66.40625 31.78125 66.40625 
z
M 31.78125 74.21875 
Q 44.046875 74.21875 50.515625 64.515625 
Q 56.984375 54.828125 56.984375 36.375 
Q 56.984375 17.96875 50.515625 8.265625 
Q 44.046875 -1.421875 31.78125 -1.421875 
Q 19.53125 -1.421875 13.0625 8.265625 
Q 6.59375 17.96875 6.59375 36.375 
Q 6.59375 54.828125 13.0625 64.515625 
Q 19.53125 74.21875 31.78125 74.21875 
z
" id="DejaVuSans-48"/>
      </defs>
      <g transform="translate(483.443141 392.598437)scale(0.1 -0.1)">
       <use xlink:href="#DejaVuSans-48"/>
      </g>
     </g>
    </g>
    <g id="xtick_7">
     <g id="line2d_7">
      <g>
       <use style="stroke:#000000;stroke-width:0.8;" x="561.030336" xlink:href="#mecea7faac3" y="378"/>
      </g>
     </g>
     <g id="text_7">
      <!-- 1 -->
      <g transform="translate(557.849086 392.598437)scale(0.1 -0.1)">
       <use xlink:href="#DejaVuSans-49"/>
      </g>
     </g>
    </g>
    <g id="xtick_8">
     <g id="line2d_8">
      <g>
       <use style="stroke:#000000;stroke-width:0.8;" x="635.436281" xlink:href="#mecea7faac3" y="378"/>
      </g>
     </g>
     <g id="text_8">
      <!-- 2 -->
      <g transform="translate(632.255031 392.598437)scale(0.1 -0.1)">
       <use xlink:href="#DejaVuSans-50"/>
      </g>
     </g>
    </g>
    <g id="text_9">
     <!-- tSNE-1 -->
     <defs>
      <path d="M 18.3125 70.21875 
L 18.3125 54.6875 
L 36.8125 54.6875 
L 36.8125 47.703125 
L 18.3125 47.703125 
L 18.3125 18.015625 
Q 18.3125 11.328125 20.140625 9.421875 
Q 21.96875 7.515625 27.59375 7.515625 
L 36.8125 7.515625 
L 36.8125 0 
L 27.59375 0 
Q 17.1875 0 13.234375 3.875 
Q 9.28125 7.765625 9.28125 18.015625 
L 9.28125 47.703125 
L 2.6875 47.703125 
L 2.6875 54.6875 
L 9.28125 54.6875 
L 9.28125 70.21875 
z
" id="DejaVuSans-116"/>
      <path d="M 53.515625 70.515625 
L 53.515625 60.890625 
Q 47.90625 63.578125 42.921875 64.890625 
Q 37.9375 66.21875 33.296875 66.21875 
Q 25.25 66.21875 20.875 63.09375 
Q 16.5 59.96875 16.5 54.203125 
Q 16.5 49.359375 19.40625 46.890625 
Q 22.3125 44.4375 30.421875 42.921875 
L 36.375 41.703125 
Q 47.40625 39.59375 52.65625 34.296875 
Q 57.90625 29 57.90625 20.125 
Q 57.90625 9.515625 50.796875 4.046875 
Q 43.703125 -1.421875 29.984375 -1.421875 
Q 24.8125 -1.421875 18.96875 -0.25 
Q 13.140625 0.921875 6.890625 3.21875 
L 6.890625 13.375 
Q 12.890625 10.015625 18.65625 8.296875 
Q 24.421875 6.59375 29.984375 6.59375 
Q 38.421875 6.59375 43.015625 9.90625 
Q 47.609375 13.234375 47.609375 19.390625 
Q 47.609375 24.75 44.3125 27.78125 
Q 41.015625 30.8125 33.5 32.328125 
L 27.484375 33.5 
Q 16.453125 35.6875 11.515625 40.375 
Q 6.59375 45.0625 6.59375 53.421875 
Q 6.59375 63.09375 13.40625 68.65625 
Q 20.21875 74.21875 32.171875 74.21875 
Q 37.3125 74.21875 42.625 73.28125 
Q 47.953125 72.359375 53.515625 70.515625 
z
" id="DejaVuSans-83"/>
      <path d="M 9.8125 72.90625 
L 23.09375 72.90625 
L 55.421875 11.921875 
L 55.421875 72.90625 
L 64.984375 72.90625 
L 64.984375 0 
L 51.703125 0 
L 19.390625 60.984375 
L 19.390625 0 
L 9.8125 0 
z
" id="DejaVuSans-78"/>
      <path d="M 9.8125 72.90625 
L 55.90625 72.90625 
L 55.90625 64.59375 
L 19.671875 64.59375 
L 19.671875 43.015625 
L 54.390625 43.015625 
L 54.390625 34.71875 
L 19.671875 34.71875 
L 19.671875 8.296875 
L 56.78125 8.296875 
L 56.78125 0 
L 9.8125 0 
z
" id="DejaVuSans-69"/>
      <path d="M 4.890625 31.390625 
L 31.203125 31.390625 
L 31.203125 23.390625 
L 4.890625 23.390625 
z
" id="DejaVuSans-45"/>
     </defs>
     <g transform="translate(351.980469 406.276563)scale(0.1 -0.1)">
      <use xlink:href="#DejaVuSans-116"/>
      <use x="39.208984" xlink:href="#DejaVuSans-83"/>
      <use x="102.685547" xlink:href="#DejaVuSans-78"/>
      <use x="177.490234" xlink:href="#DejaVuSans-69"/>
      <use x="240.673828" xlink:href="#DejaVuSans-45"/>
      <use x="276.757812" xlink:href="#DejaVuSans-49"/>
     </g>
    </g>
   </g>
   <g id="matplotlib.axis_2">
    <g id="ytick_1">
     <g id="line2d_9">
      <defs>
       <path d="M 0 0 
L -3.5 0 
" id="me57027fc2f" style="stroke:#000000;stroke-width:0.8;"/>
      </defs>
      <g>
       <use style="stroke:#000000;stroke-width:0.8;" x="90" xlink:href="#me57027fc2f" y="365.445593"/>
      </g>
     </g>
     <g id="text_10">
      <!-- 4 -->
      <g transform="translate(76.6375 369.244812)scale(0.1 -0.1)">
       <use xlink:href="#DejaVuSans-52"/>
      </g>
     </g>
    </g>
    <g id="ytick_2">
     <g id="line2d_10">
      <g>
       <use style="stroke:#000000;stroke-width:0.8;" x="90" xlink:href="#me57027fc2f" y="298.864148"/>
      </g>
     </g>
     <g id="text_11">
      <!-- 6 -->
      <defs>
       <path d="M 33.015625 40.375 
Q 26.375 40.375 22.484375 35.828125 
Q 18.609375 31.296875 18.609375 23.390625 
Q 18.609375 15.53125 22.484375 10.953125 
Q 26.375 6.390625 33.015625 6.390625 
Q 39.65625 6.390625 43.53125 10.953125 
Q 47.40625 15.53125 47.40625 23.390625 
Q 47.40625 31.296875 43.53125 35.828125 
Q 39.65625 40.375 33.015625 40.375 
z
M 52.59375 71.296875 
L 52.59375 62.3125 
Q 48.875 64.0625 45.09375 64.984375 
Q 41.3125 65.921875 37.59375 65.921875 
Q 27.828125 65.921875 22.671875 59.328125 
Q 17.53125 52.734375 16.796875 39.40625 
Q 19.671875 43.65625 24.015625 45.921875 
Q 28.375 48.1875 33.59375 48.1875 
Q 44.578125 48.1875 50.953125 41.515625 
Q 57.328125 34.859375 57.328125 23.390625 
Q 57.328125 12.15625 50.6875 5.359375 
Q 44.046875 -1.421875 33.015625 -1.421875 
Q 20.359375 -1.421875 13.671875 8.265625 
Q 6.984375 17.96875 6.984375 36.375 
Q 6.984375 53.65625 15.1875 63.9375 
Q 23.390625 74.21875 37.203125 74.21875 
Q 40.921875 74.21875 44.703125 73.484375 
Q 48.484375 72.75 52.59375 71.296875 
z
" id="DejaVuSans-54"/>
      </defs>
      <g transform="translate(76.6375 302.663367)scale(0.1 -0.1)">
       <use xlink:href="#DejaVuSans-54"/>
      </g>
     </g>
    </g>
    <g id="ytick_3">
     <g id="line2d_11">
      <g>
       <use style="stroke:#000000;stroke-width:0.8;" x="90" xlink:href="#me57027fc2f" y="232.282703"/>
      </g>
     </g>
     <g id="text_12">
      <!-- 8 -->
      <defs>
       <path d="M 31.78125 34.625 
Q 24.75 34.625 20.71875 30.859375 
Q 16.703125 27.09375 16.703125 20.515625 
Q 16.703125 13.921875 20.71875 10.15625 
Q 24.75 6.390625 31.78125 6.390625 
Q 38.8125 6.390625 42.859375 10.171875 
Q 46.921875 13.96875 46.921875 20.515625 
Q 46.921875 27.09375 42.890625 30.859375 
Q 38.875 34.625 31.78125 34.625 
z
M 21.921875 38.8125 
Q 15.578125 40.375 12.03125 44.71875 
Q 8.5 49.078125 8.5 55.328125 
Q 8.5 64.0625 14.71875 69.140625 
Q 20.953125 74.21875 31.78125 74.21875 
Q 42.671875 74.21875 48.875 69.140625 
Q 55.078125 64.0625 55.078125 55.328125 
Q 55.078125 49.078125 51.53125 44.71875 
Q 48 40.375 41.703125 38.8125 
Q 48.828125 37.15625 52.796875 32.3125 
Q 56.78125 27.484375 56.78125 20.515625 
Q 56.78125 9.90625 50.3125 4.234375 
Q 43.84375 -1.421875 31.78125 -1.421875 
Q 19.734375 -1.421875 13.25 4.234375 
Q 6.78125 9.90625 6.78125 20.515625 
Q 6.78125 27.484375 10.78125 32.3125 
Q 14.796875 37.15625 21.921875 38.8125 
z
M 18.3125 54.390625 
Q 18.3125 48.734375 21.84375 45.5625 
Q 25.390625 42.390625 31.78125 42.390625 
Q 38.140625 42.390625 41.71875 45.5625 
Q 45.3125 48.734375 45.3125 54.390625 
Q 45.3125 60.0625 41.71875 63.234375 
Q 38.140625 66.40625 31.78125 66.40625 
Q 25.390625 66.40625 21.84375 63.234375 
Q 18.3125 60.0625 18.3125 54.390625 
z
" id="DejaVuSans-56"/>
      </defs>
      <g transform="translate(76.6375 236.081922)scale(0.1 -0.1)">
       <use xlink:href="#DejaVuSans-56"/>
      </g>
     </g>
    </g>
    <g id="ytick_4">
     <g id="line2d_12">
      <g>
       <use style="stroke:#000000;stroke-width:0.8;" x="90" xlink:href="#me57027fc2f" y="165.701258"/>
      </g>
     </g>
     <g id="text_13">
      <!-- 10 -->
      <g transform="translate(70.275 169.500477)scale(0.1 -0.1)">
       <use xlink:href="#DejaVuSans-49"/>
       <use x="63.623047" xlink:href="#DejaVuSans-48"/>
      </g>
     </g>
    </g>
    <g id="ytick_5">
     <g id="line2d_13">
      <g>
       <use style="stroke:#000000;stroke-width:0.8;" x="90" xlink:href="#me57027fc2f" y="99.119813"/>
      </g>
     </g>
     <g id="text_14">
      <!-- 12 -->
      <g transform="translate(70.275 102.919031)scale(0.1 -0.1)">
       <use xlink:href="#DejaVuSans-49"/>
       <use x="63.623047" xlink:href="#DejaVuSans-50"/>
      </g>
     </g>
    </g>
    <g id="text_15">
     <!-- tSNE-2 -->
     <g transform="translate(64.195312 231.939531)rotate(-90)scale(0.1 -0.1)">
      <use xlink:href="#DejaVuSans-116"/>
      <use x="39.208984" xlink:href="#DejaVuSans-83"/>
      <use x="102.685547" xlink:href="#DejaVuSans-78"/>
      <use x="177.490234" xlink:href="#DejaVuSans-69"/>
      <use x="240.673828" xlink:href="#DejaVuSans-45"/>
      <use x="276.757812" xlink:href="#DejaVuSans-50"/>
     </g>
    </g>
   </g>
   <g id="patch_3">
    <path d="M 90 378 
L 90 51.84 
" style="fill:none;stroke:#000000;stroke-linecap:square;stroke-linejoin:miter;stroke-width:0.8;"/>
   </g>
   <g id="patch_4">
    <path d="M 648 378 
L 648 51.84 
" style="fill:none;stroke:#000000;stroke-linecap:square;stroke-linejoin:miter;stroke-width:0.8;"/>
   </g>
   <g id="patch_5">
    <path d="M 90 378 
L 648 378 
" style="fill:none;stroke:#000000;stroke-linecap:square;stroke-linejoin:miter;stroke-width:0.8;"/>
   </g>
   <g id="patch_6">
    <path d="M 90 51.84 
L 648 51.84 
" style="fill:none;stroke:#000000;stroke-linecap:square;stroke-linejoin:miter;stroke-width:0.8;"/>
   </g>
   <g id="legend_1">
    <g id="patch_7">
     <path d="M 563.125 89.19625 
L 641 89.19625 
Q 643 89.19625 643 87.19625 
L 643 58.84 
Q 643 56.84 641 56.84 
L 563.125 56.84 
Q 561.125 56.84 561.125 58.84 
L 561.125 87.19625 
Q 561.125 89.19625 563.125 89.19625 
z
" style="fill:#ffffff;opacity:0.8;stroke:#cccccc;stroke-linejoin:miter;"/>
    </g>
    <g id="PathCollection_3">
     <g>
      <use style="fill:#00bfc4;stroke:#00bfc4;" x="575.125" xlink:href="#mcd725fc946" y="65.813437"/>
     </g>
    </g>
    <g id="text_16">
     <!-- D006262 -->
     <defs>
      <path d="M 19.671875 64.796875 
L 19.671875 8.109375 
L 31.59375 8.109375 
Q 46.6875 8.109375 53.6875 14.9375 
Q 60.6875 21.78125 60.6875 36.53125 
Q 60.6875 51.171875 53.6875 57.984375 
Q 46.6875 64.796875 31.59375 64.796875 
z
M 9.8125 72.90625 
L 30.078125 72.90625 
Q 51.265625 72.90625 61.171875 64.09375 
Q 71.09375 55.28125 71.09375 36.53125 
Q 71.09375 17.671875 61.125 8.828125 
Q 51.171875 0 30.078125 0 
L 9.8125 0 
z
" id="DejaVuSans-68"/>
     </defs>
     <g transform="translate(593.125 68.438437)scale(0.1 -0.1)">
      <use xlink:href="#DejaVuSans-68"/>
      <use x="77.001953" xlink:href="#DejaVuSans-48"/>
      <use x="140.625" xlink:href="#DejaVuSans-48"/>
      <use x="204.248047" xlink:href="#DejaVuSans-54"/>
      <use x="267.871094" xlink:href="#DejaVuSans-50"/>
      <use x="331.494141" xlink:href="#DejaVuSans-54"/>
      <use x="395.117188" xlink:href="#DejaVuSans-50"/>
     </g>
    </g>
    <g id="PathCollection_4">
     <g>
      <use style="fill:#f8766d;stroke:#f8766d;" x="575.125" xlink:href="#m3b0853d52c" y="80.491562"/>
     </g>
    </g>
    <g id="text_17">
     <!-- D006515 -->
     <g transform="translate(593.125 83.116562)scale(0.1 -0.1)">
      <use xlink:href="#DejaVuSans-68"/>
      <use x="77.001953" xlink:href="#DejaVuSans-48"/>
      <use x="140.625" xlink:href="#DejaVuSans-48"/>
      <use x="204.248047" xlink:href="#DejaVuSans-54"/>
      <use x="267.871094" xlink:href="#DejaVuSans-53"/>
      <use x="331.494141" xlink:href="#DejaVuSans-49"/>
      <use x="395.117188" xlink:href="#DejaVuSans-53"/>
     </g>
    </g>
   </g>
  </g>
 </g>
 <defs>
  <clipPath id="p75f3741636">
   <rect height="326.16" width="558" x="90" y="51.84"/>
  </clipPath>
 </defs>
</svg>
