<?xml version="1.0" encoding="utf-8" standalone="no"?>
<!DOCTYPE svg PUBLIC "-//W3C//DTD SVG 1.1//EN"
  "http://www.w3.org/Graphics/SVG/1.1/DTD/svg11.dtd">
<!-- Created with matplotlib (https://matplotlib.org/) -->
<svg height="432pt" version="1.1" viewBox="0 0 720 432" width="720pt" xmlns="http://www.w3.org/2000/svg" xmlns:xlink="http://www.w3.org/1999/xlink">
 <defs>
  <style type="text/css">
*{stroke-linecap:butt;stroke-linejoin:round;}
  </style>
 </defs>
 <g id="figure_1">
  <g id="patch_1">
   <path d="M 0 432 
L 720 432 
L 720 0 
L 0 0 
z
" style="fill:#ffffff;"/>
  </g>
  <g id="axes_1">
   <g id="patch_2">
    <path d="M 90 378 
L 648 378 
L 648 51.84 
L 90 51.84 
z
" style="fill:#ffffff;"/>
   </g>
   <g id="PathCollection_1">
    <defs>
     <path d="M 0 3 
C 0.795609 3 1.55874 2.683901 2.12132 2.12132 
C 2.683901 1.55874 3 0.795609 3 0 
C 3 -0.795609 2.683901 -1.55874 2.12132 -2.12132 
C 1.55874 -2.683901 0.795609 -3 0 -3 
C -0.795609 -3 -1.55874 -2.683901 -2.12132 -2.12132 
C -2.683901 -1.55874 -3 -0.795609 -3 0 
C -3 0.795609 -2.683901 1.55874 -2.12132 2.12132 
C -1.55874 2.683901 -0.795609 3 0 3 
z
" id="m3ca1af9093" style="stroke:#f8766d;"/>
    </defs>
    <g clip-path="url(#p91000223ef)">
     <use style="fill:#f8766d;stroke:#f8766d;" x="478.224465" xlink:href="#m3ca1af9093" y="164.010751"/>
     <use style="fill:#f8766d;stroke:#f8766d;" x="457.016098" xlink:href="#m3ca1af9093" y="160.418221"/>
     <use style="fill:#f8766d;stroke:#f8766d;" x="544.232606" xlink:href="#m3ca1af9093" y="89.552441"/>
     <use style="fill:#f8766d;stroke:#f8766d;" x="429.972982" xlink:href="#m3ca1af9093" y="294.092222"/>
     <use style="fill:#f8766d;stroke:#f8766d;" x="502.355917" xlink:href="#m3ca1af9093" y="261.204075"/>
     <use style="fill:#f8766d;stroke:#f8766d;" x="370.092511" xlink:href="#m3ca1af9093" y="124.304135"/>
     <use style="fill:#f8766d;stroke:#f8766d;" x="344.596761" xlink:href="#m3ca1af9093" y="266.397424"/>
     <use style="fill:#f8766d;stroke:#f8766d;" x="379.424894" xlink:href="#m3ca1af9093" y="304.445669"/>
     <use style="fill:#f8766d;stroke:#f8766d;" x="174.718784" xlink:href="#m3ca1af9093" y="323.192838"/>
     <use style="fill:#f8766d;stroke:#f8766d;" x="438.329595" xlink:href="#m3ca1af9093" y="325.068656"/>
     <use style="fill:#f8766d;stroke:#f8766d;" x="516.034232" xlink:href="#m3ca1af9093" y="157.784595"/>
     <use style="fill:#f8766d;stroke:#f8766d;" x="550.713807" xlink:href="#m3ca1af9093" y="141.277008"/>
     <use style="fill:#f8766d;stroke:#f8766d;" x="511.32753" xlink:href="#m3ca1af9093" y="112.82004"/>
     <use style="fill:#f8766d;stroke:#f8766d;" x="216.870999" xlink:href="#m3ca1af9093" y="263.68978"/>
     <use style="fill:#f8766d;stroke:#f8766d;" x="578.874725" xlink:href="#m3ca1af9093" y="160.713967"/>
     <use style="fill:#f8766d;stroke:#f8766d;" x="576.014457" xlink:href="#m3ca1af9093" y="249.359816"/>
     <use style="fill:#f8766d;stroke:#f8766d;" x="397.526255" xlink:href="#m3ca1af9093" y="158.634473"/>
    </g>
   </g>
   <g id="PathCollection_2">
    <defs>
     <path d="M 0 3 
C 0.795609 3 1.55874 2.683901 2.12132 2.12132 
C 2.683901 1.55874 3 0.795609 3 0 
C 3 -0.795609 2.683901 -1.55874 2.12132 -2.12132 
C 1.55874 -2.683901 0.795609 -3 0 -3 
C -0.795609 -3 -1.55874 -2.683901 -2.12132 -2.12132 
C -2.683901 -1.55874 -3 -0.795609 -3 0 
C -3 0.795609 -2.683901 1.55874 -2.12132 2.12132 
C -1.55874 2.683901 -0.795609 3 0 3 
z
" id="ma9da9de7b8" style="stroke:#00bfc4;"/>
    </defs>
    <g clip-path="url(#p91000223ef)">
     <use style="fill:#00bfc4;stroke:#00bfc4;" x="487.581186" xlink:href="#ma9da9de7b8" y="163.65974"/>
     <use style="fill:#00bfc4;stroke:#00bfc4;" x="390.480186" xlink:href="#ma9da9de7b8" y="177.427885"/>
     <use style="fill:#00bfc4;stroke:#00bfc4;" x="469.521884" xlink:href="#ma9da9de7b8" y="160.969575"/>
     <use style="fill:#00bfc4;stroke:#00bfc4;" x="500.952783" xlink:href="#ma9da9de7b8" y="133.682644"/>
     <use style="fill:#00bfc4;stroke:#00bfc4;" x="467.262673" xlink:href="#ma9da9de7b8" y="154.759627"/>
     <use style="fill:#00bfc4;stroke:#00bfc4;" x="419.711438" xlink:href="#ma9da9de7b8" y="168.80281"/>
     <use style="fill:#00bfc4;stroke:#00bfc4;" x="476.56925" xlink:href="#ma9da9de7b8" y="124.370959"/>
     <use style="fill:#00bfc4;stroke:#00bfc4;" x="489.169727" xlink:href="#ma9da9de7b8" y="162.217243"/>
     <use style="fill:#00bfc4;stroke:#00bfc4;" x="501.320842" xlink:href="#ma9da9de7b8" y="191.020688"/>
     <use style="fill:#00bfc4;stroke:#00bfc4;" x="488.320334" xlink:href="#ma9da9de7b8" y="156.60113"/>
     <use style="fill:#00bfc4;stroke:#00bfc4;" x="482.01535" xlink:href="#ma9da9de7b8" y="153.31509"/>
     <use style="fill:#00bfc4;stroke:#00bfc4;" x="470.720358" xlink:href="#ma9da9de7b8" y="169.010147"/>
     <use style="fill:#00bfc4;stroke:#00bfc4;" x="488.334976" xlink:href="#ma9da9de7b8" y="156.631213"/>
     <use style="fill:#00bfc4;stroke:#00bfc4;" x="566.248449" xlink:href="#ma9da9de7b8" y="111.695437"/>
     <use style="fill:#00bfc4;stroke:#00bfc4;" x="460.104662" xlink:href="#ma9da9de7b8" y="182.563583"/>
     <use style="fill:#00bfc4;stroke:#00bfc4;" x="443.838311" xlink:href="#ma9da9de7b8" y="180.588387"/>
     <use style="fill:#00bfc4;stroke:#00bfc4;" x="501.19429" xlink:href="#ma9da9de7b8" y="194.961017"/>
     <use style="fill:#00bfc4;stroke:#00bfc4;" x="592.439817" xlink:href="#ma9da9de7b8" y="125.980307"/>
     <use style="fill:#00bfc4;stroke:#00bfc4;" x="428.429717" xlink:href="#ma9da9de7b8" y="183.314505"/>
     <use style="fill:#00bfc4;stroke:#00bfc4;" x="241.623969" xlink:href="#ma9da9de7b8" y="340.355424"/>
     <use style="fill:#00bfc4;stroke:#00bfc4;" x="302.410763" xlink:href="#ma9da9de7b8" y="213.026296"/>
     <use style="fill:#00bfc4;stroke:#00bfc4;" x="500.355892" xlink:href="#ma9da9de7b8" y="91.066296"/>
     <use style="fill:#00bfc4;stroke:#00bfc4;" x="334.692557" xlink:href="#ma9da9de7b8" y="291.5048"/>
     <use style="fill:#00bfc4;stroke:#00bfc4;" x="419.287552" xlink:href="#ma9da9de7b8" y="91.744021"/>
     <use style="fill:#00bfc4;stroke:#00bfc4;" x="201.744589" xlink:href="#ma9da9de7b8" y="220.89846"/>
     <use style="fill:#00bfc4;stroke:#00bfc4;" x="216.454306" xlink:href="#ma9da9de7b8" y="236.146515"/>
     <use style="fill:#00bfc4;stroke:#00bfc4;" x="117.755556" xlink:href="#ma9da9de7b8" y="267.682311"/>
     <use style="fill:#00bfc4;stroke:#00bfc4;" x="156.087275" xlink:href="#ma9da9de7b8" y="289.434042"/>
     <use style="fill:#00bfc4;stroke:#00bfc4;" x="219.320767" xlink:href="#ma9da9de7b8" y="294.606461"/>
     <use style="fill:#00bfc4;stroke:#00bfc4;" x="123.206457" xlink:href="#ma9da9de7b8" y="224.304329"/>
     <use style="fill:#00bfc4;stroke:#00bfc4;" x="306.732193" xlink:href="#ma9da9de7b8" y="102.235846"/>
     <use style="fill:#00bfc4;stroke:#00bfc4;" x="318.510212" xlink:href="#ma9da9de7b8" y="235.206964"/>
     <use style="fill:#00bfc4;stroke:#00bfc4;" x="231.935708" xlink:href="#ma9da9de7b8" y="326.188377"/>
     <use style="fill:#00bfc4;stroke:#00bfc4;" x="342.287669" xlink:href="#ma9da9de7b8" y="166.10291"/>
     <use style="fill:#00bfc4;stroke:#00bfc4;" x="547.53628" xlink:href="#ma9da9de7b8" y="190.537157"/>
     <use style="fill:#00bfc4;stroke:#00bfc4;" x="426.545387" xlink:href="#ma9da9de7b8" y="288.158143"/>
     <use style="fill:#00bfc4;stroke:#00bfc4;" x="246.602589" xlink:href="#ma9da9de7b8" y="225.288279"/>
     <use style="fill:#00bfc4;stroke:#00bfc4;" x="209.183459" xlink:href="#ma9da9de7b8" y="194.737954"/>
     <use style="fill:#00bfc4;stroke:#00bfc4;" x="455.216797" xlink:href="#ma9da9de7b8" y="75.786714"/>
     <use style="fill:#00bfc4;stroke:#00bfc4;" x="389.7295" xlink:href="#ma9da9de7b8" y="144.871123"/>
     <use style="fill:#00bfc4;stroke:#00bfc4;" x="252.934711" xlink:href="#ma9da9de7b8" y="229.2754"/>
     <use style="fill:#00bfc4;stroke:#00bfc4;" x="477.166286" xlink:href="#ma9da9de7b8" y="298.078333"/>
     <use style="fill:#00bfc4;stroke:#00bfc4;" x="555.439795" xlink:href="#ma9da9de7b8" y="174.586179"/>
     <use style="fill:#00bfc4;stroke:#00bfc4;" x="533.995157" xlink:href="#ma9da9de7b8" y="214.076472"/>
     <use style="fill:#00bfc4;stroke:#00bfc4;" x="435.160897" xlink:href="#ma9da9de7b8" y="340.95695"/>
     <use style="fill:#00bfc4;stroke:#00bfc4;" x="290.602445" xlink:href="#ma9da9de7b8" y="324.814047"/>
     <use style="fill:#00bfc4;stroke:#00bfc4;" x="184.510809" xlink:href="#ma9da9de7b8" y="242.624958"/>
     <use style="fill:#00bfc4;stroke:#00bfc4;" x="359.453667" xlink:href="#ma9da9de7b8" y="201.819958"/>
     <use style="fill:#00bfc4;stroke:#00bfc4;" x="322.56553" xlink:href="#ma9da9de7b8" y="230.373871"/>
     <use style="fill:#00bfc4;stroke:#00bfc4;" x="381.339226" xlink:href="#ma9da9de7b8" y="219.266359"/>
     <use style="fill:#00bfc4;stroke:#00bfc4;" x="553.805611" xlink:href="#ma9da9de7b8" y="117.605594"/>
     <use style="fill:#00bfc4;stroke:#00bfc4;" x="457.520844" xlink:href="#ma9da9de7b8" y="256.781773"/>
     <use style="fill:#00bfc4;stroke:#00bfc4;" x="309.501785" xlink:href="#ma9da9de7b8" y="359.477221"/>
     <use style="fill:#00bfc4;stroke:#00bfc4;" x="414.037753" xlink:href="#ma9da9de7b8" y="167.001262"/>
     <use style="fill:#00bfc4;stroke:#00bfc4;" x="531.735887" xlink:href="#ma9da9de7b8" y="175.622273"/>
     <use style="fill:#00bfc4;stroke:#00bfc4;" x="470.773433" xlink:href="#ma9da9de7b8" y="136.005647"/>
     <use style="fill:#00bfc4;stroke:#00bfc4;" x="430.50565" xlink:href="#ma9da9de7b8" y="213.66569"/>
     <use style="fill:#00bfc4;stroke:#00bfc4;" x="532.330063" xlink:href="#ma9da9de7b8" y="130.646079"/>
     <use style="fill:#00bfc4;stroke:#00bfc4;" x="463.795581" xlink:href="#ma9da9de7b8" y="220.121945"/>
     <use style="fill:#00bfc4;stroke:#00bfc4;" x="407.22352" xlink:href="#ma9da9de7b8" y="191.035059"/>
     <use style="fill:#00bfc4;stroke:#00bfc4;" x="471.282286" xlink:href="#ma9da9de7b8" y="328.764565"/>
     <use style="fill:#00bfc4;stroke:#00bfc4;" x="517.513736" xlink:href="#ma9da9de7b8" y="287.675281"/>
     <use style="fill:#00bfc4;stroke:#00bfc4;" x="330.765832" xlink:href="#ma9da9de7b8" y="181.255586"/>
     <use style="fill:#00bfc4;stroke:#00bfc4;" x="280.818213" xlink:href="#ma9da9de7b8" y="262.51595"/>
     <use style="fill:#00bfc4;stroke:#00bfc4;" x="418.66018" xlink:href="#ma9da9de7b8" y="284.828896"/>
     <use style="fill:#00bfc4;stroke:#00bfc4;" x="534.403873" xlink:href="#ma9da9de7b8" y="291.39509"/>
     <use style="fill:#00bfc4;stroke:#00bfc4;" x="397.803512" xlink:href="#ma9da9de7b8" y="103.49823"/>
     <use style="fill:#00bfc4;stroke:#00bfc4;" x="545.508663" xlink:href="#ma9da9de7b8" y="217.710907"/>
     <use style="fill:#00bfc4;stroke:#00bfc4;" x="195.417452" xlink:href="#ma9da9de7b8" y="313.311409"/>
     <use style="fill:#00bfc4;stroke:#00bfc4;" x="123.300525" xlink:href="#ma9da9de7b8" y="303.320691"/>
     <use style="fill:#00bfc4;stroke:#00bfc4;" x="320.85579" xlink:href="#ma9da9de7b8" y="220.064134"/>
     <use style="fill:#00bfc4;stroke:#00bfc4;" x="369.411672" xlink:href="#ma9da9de7b8" y="344.964328"/>
     <use style="fill:#00bfc4;stroke:#00bfc4;" x="418.671988" xlink:href="#ma9da9de7b8" y="83.240374"/>
     <use style="fill:#00bfc4;stroke:#00bfc4;" x="276.339413" xlink:href="#ma9da9de7b8" y="186.539259"/>
     <use style="fill:#00bfc4;stroke:#00bfc4;" x="125.342179" xlink:href="#ma9da9de7b8" y="225.256272"/>
     <use style="fill:#00bfc4;stroke:#00bfc4;" x="223.394367" xlink:href="#ma9da9de7b8" y="207.634457"/>
     <use style="fill:#00bfc4;stroke:#00bfc4;" x="442.092453" xlink:href="#ma9da9de7b8" y="230.558334"/>
     <use style="fill:#00bfc4;stroke:#00bfc4;" x="598.937943" xlink:href="#ma9da9de7b8" y="189.714465"/>
     <use style="fill:#00bfc4;stroke:#00bfc4;" x="343.435705" xlink:href="#ma9da9de7b8" y="295.134734"/>
     <use style="fill:#00bfc4;stroke:#00bfc4;" x="365.05841" xlink:href="#ma9da9de7b8" y="273.31872"/>
     <use style="fill:#00bfc4;stroke:#00bfc4;" x="406.787444" xlink:href="#ma9da9de7b8" y="236.095578"/>
     <use style="fill:#00bfc4;stroke:#00bfc4;" x="362.748339" xlink:href="#ma9da9de7b8" y="91.084472"/>
     <use style="fill:#00bfc4;stroke:#00bfc4;" x="200.502617" xlink:href="#ma9da9de7b8" y="247.915532"/>
     <use style="fill:#00bfc4;stroke:#00bfc4;" x="164.823521" xlink:href="#ma9da9de7b8" y="198.743264"/>
     <use style="fill:#00bfc4;stroke:#00bfc4;" x="338.466518" xlink:href="#ma9da9de7b8" y="172.603744"/>
     <use style="fill:#00bfc4;stroke:#00bfc4;" x="383.235911" xlink:href="#ma9da9de7b8" y="259.388423"/>
     <use style="fill:#00bfc4;stroke:#00bfc4;" x="599.103644" xlink:href="#ma9da9de7b8" y="190.292399"/>
     <use style="fill:#00bfc4;stroke:#00bfc4;" x="204.679285" xlink:href="#ma9da9de7b8" y="258.972887"/>
     <use style="fill:#00bfc4;stroke:#00bfc4;" x="358.143106" xlink:href="#ma9da9de7b8" y="326.579489"/>
     <use style="fill:#00bfc4;stroke:#00bfc4;" x="272.775551" xlink:href="#ma9da9de7b8" y="163.861506"/>
     <use style="fill:#00bfc4;stroke:#00bfc4;" x="439.120641" xlink:href="#ma9da9de7b8" y="264.442885"/>
     <use style="fill:#00bfc4;stroke:#00bfc4;" x="233.766988" xlink:href="#ma9da9de7b8" y="294.516953"/>
     <use style="fill:#00bfc4;stroke:#00bfc4;" x="382.951166" xlink:href="#ma9da9de7b8" y="241.733784"/>
     <use style="fill:#00bfc4;stroke:#00bfc4;" x="347.904069" xlink:href="#ma9da9de7b8" y="260.584703"/>
     <use style="fill:#00bfc4;stroke:#00bfc4;" x="446.306492" xlink:href="#ma9da9de7b8" y="281.891036"/>
     <use style="fill:#00bfc4;stroke:#00bfc4;" x="203.962362" xlink:href="#ma9da9de7b8" y="281.16767"/>
     <use style="fill:#00bfc4;stroke:#00bfc4;" x="205.549118" xlink:href="#ma9da9de7b8" y="250.807333"/>
     <use style="fill:#00bfc4;stroke:#00bfc4;" x="303.964511" xlink:href="#ma9da9de7b8" y="201.332561"/>
     <use style="fill:#00bfc4;stroke:#00bfc4;" x="278.264519" xlink:href="#ma9da9de7b8" y="260.906974"/>
     <use style="fill:#00bfc4;stroke:#00bfc4;" x="428.871712" xlink:href="#ma9da9de7b8" y="330.778363"/>
     <use style="fill:#00bfc4;stroke:#00bfc4;" x="198.664409" xlink:href="#ma9da9de7b8" y="157.462304"/>
     <use style="fill:#00bfc4;stroke:#00bfc4;" x="444.58562" xlink:href="#ma9da9de7b8" y="212.410742"/>
     <use style="fill:#00bfc4;stroke:#00bfc4;" x="309.491552" xlink:href="#ma9da9de7b8" y="360.788668"/>
     <use style="fill:#00bfc4;stroke:#00bfc4;" x="468.541531" xlink:href="#ma9da9de7b8" y="328.167179"/>
     <use style="fill:#00bfc4;stroke:#00bfc4;" x="529.192537" xlink:href="#ma9da9de7b8" y="228.360199"/>
     <use style="fill:#00bfc4;stroke:#00bfc4;" x="245.693567" xlink:href="#ma9da9de7b8" y="255.383582"/>
     <use style="fill:#00bfc4;stroke:#00bfc4;" x="244.273916" xlink:href="#ma9da9de7b8" y="206.803626"/>
     <use style="fill:#00bfc4;stroke:#00bfc4;" x="390.239955" xlink:href="#ma9da9de7b8" y="243.874367"/>
     <use style="fill:#00bfc4;stroke:#00bfc4;" x="183.321145" xlink:href="#ma9da9de7b8" y="316.075657"/>
     <use style="fill:#00bfc4;stroke:#00bfc4;" x="266.982344" xlink:href="#ma9da9de7b8" y="160.511428"/>
     <use style="fill:#00bfc4;stroke:#00bfc4;" x="336.306022" xlink:href="#ma9da9de7b8" y="163.555459"/>
     <use style="fill:#00bfc4;stroke:#00bfc4;" x="211.467263" xlink:href="#ma9da9de7b8" y="201.392962"/>
     <use style="fill:#00bfc4;stroke:#00bfc4;" x="526.654461" xlink:href="#ma9da9de7b8" y="290.106678"/>
     <use style="fill:#00bfc4;stroke:#00bfc4;" x="276.767993" xlink:href="#ma9da9de7b8" y="169.938494"/>
     <use style="fill:#00bfc4;stroke:#00bfc4;" x="180.613432" xlink:href="#ma9da9de7b8" y="275.945569"/>
     <use style="fill:#00bfc4;stroke:#00bfc4;" x="464.650615" xlink:href="#ma9da9de7b8" y="101.631848"/>
     <use style="fill:#00bfc4;stroke:#00bfc4;" x="234.427458" xlink:href="#ma9da9de7b8" y="325.108045"/>
     <use style="fill:#00bfc4;stroke:#00bfc4;" x="469.504874" xlink:href="#ma9da9de7b8" y="198.738878"/>
     <use style="fill:#00bfc4;stroke:#00bfc4;" x="161.105175" xlink:href="#ma9da9de7b8" y="194.794458"/>
     <use style="fill:#00bfc4;stroke:#00bfc4;" x="295.432819" xlink:href="#ma9da9de7b8" y="325.251405"/>
     <use style="fill:#00bfc4;stroke:#00bfc4;" x="394.395845" xlink:href="#ma9da9de7b8" y="305.370212"/>
     <use style="fill:#00bfc4;stroke:#00bfc4;" x="172.248419" xlink:href="#ma9da9de7b8" y="263.797528"/>
     <use style="fill:#00bfc4;stroke:#00bfc4;" x="323.53235" xlink:href="#ma9da9de7b8" y="291.879895"/>
     <use style="fill:#00bfc4;stroke:#00bfc4;" x="217.451544" xlink:href="#ma9da9de7b8" y="294.025429"/>
     <use style="fill:#00bfc4;stroke:#00bfc4;" x="353.231901" xlink:href="#ma9da9de7b8" y="301.70392"/>
     <use style="fill:#00bfc4;stroke:#00bfc4;" x="198.805944" xlink:href="#ma9da9de7b8" y="160.629342"/>
     <use style="fill:#00bfc4;stroke:#00bfc4;" x="430.364322" xlink:href="#ma9da9de7b8" y="323.243966"/>
     <use style="fill:#00bfc4;stroke:#00bfc4;" x="566.31814" xlink:href="#ma9da9de7b8" y="267.511248"/>
     <use style="fill:#00bfc4;stroke:#00bfc4;" x="234.502843" xlink:href="#ma9da9de7b8" y="211.414106"/>
     <use style="fill:#00bfc4;stroke:#00bfc4;" x="201.432683" xlink:href="#ma9da9de7b8" y="256.765932"/>
     <use style="fill:#00bfc4;stroke:#00bfc4;" x="156.961936" xlink:href="#ma9da9de7b8" y="233.353484"/>
     <use style="fill:#00bfc4;stroke:#00bfc4;" x="437.208727" xlink:href="#ma9da9de7b8" y="260.700754"/>
     <use style="fill:#00bfc4;stroke:#00bfc4;" x="348.239361" xlink:href="#ma9da9de7b8" y="136.276923"/>
     <use style="fill:#00bfc4;stroke:#00bfc4;" x="261.343058" xlink:href="#ma9da9de7b8" y="285.66909"/>
     <use style="fill:#00bfc4;stroke:#00bfc4;" x="262.540397" xlink:href="#ma9da9de7b8" y="302.549509"/>
     <use style="fill:#00bfc4;stroke:#00bfc4;" x="390.942853" xlink:href="#ma9da9de7b8" y="255.672755"/>
     <use style="fill:#00bfc4;stroke:#00bfc4;" x="478.725406" xlink:href="#ma9da9de7b8" y="149.419084"/>
     <use style="fill:#00bfc4;stroke:#00bfc4;" x="390.046946" xlink:href="#ma9da9de7b8" y="177.254271"/>
     <use style="fill:#00bfc4;stroke:#00bfc4;" x="460.77976" xlink:href="#ma9da9de7b8" y="159.673216"/>
     <use style="fill:#00bfc4;stroke:#00bfc4;" x="568.528723" xlink:href="#ma9da9de7b8" y="131.669611"/>
     <use style="fill:#00bfc4;stroke:#00bfc4;" x="510.001999" xlink:href="#ma9da9de7b8" y="142.884871"/>
     <use style="fill:#00bfc4;stroke:#00bfc4;" x="468.620688" xlink:href="#ma9da9de7b8" y="174.721708"/>
     <use style="fill:#00bfc4;stroke:#00bfc4;" x="466.275399" xlink:href="#ma9da9de7b8" y="155.363697"/>
     <use style="fill:#00bfc4;stroke:#00bfc4;" x="482.085947" xlink:href="#ma9da9de7b8" y="166.507645"/>
     <use style="fill:#00bfc4;stroke:#00bfc4;" x="556.017847" xlink:href="#ma9da9de7b8" y="134.623213"/>
     <use style="fill:#00bfc4;stroke:#00bfc4;" x="446.318497" xlink:href="#ma9da9de7b8" y="141.697216"/>
     <use style="fill:#00bfc4;stroke:#00bfc4;" x="436.351564" xlink:href="#ma9da9de7b8" y="130.53773"/>
     <use style="fill:#00bfc4;stroke:#00bfc4;" x="531.687016" xlink:href="#ma9da9de7b8" y="155.907935"/>
     <use style="fill:#00bfc4;stroke:#00bfc4;" x="429.567175" xlink:href="#ma9da9de7b8" y="125.237961"/>
     <use style="fill:#00bfc4;stroke:#00bfc4;" x="511.075226" xlink:href="#ma9da9de7b8" y="115.470682"/>
     <use style="fill:#00bfc4;stroke:#00bfc4;" x="518.938137" xlink:href="#ma9da9de7b8" y="157.415224"/>
     <use style="fill:#00bfc4;stroke:#00bfc4;" x="489.079542" xlink:href="#ma9da9de7b8" y="144.223921"/>
     <use style="fill:#00bfc4;stroke:#00bfc4;" x="443.709811" xlink:href="#ma9da9de7b8" y="136.000336"/>
     <use style="fill:#00bfc4;stroke:#00bfc4;" x="441.815907" xlink:href="#ma9da9de7b8" y="170.088906"/>
     <use style="fill:#00bfc4;stroke:#00bfc4;" x="421.875902" xlink:href="#ma9da9de7b8" y="122.78669"/>
     <use style="fill:#00bfc4;stroke:#00bfc4;" x="472.434867" xlink:href="#ma9da9de7b8" y="152.934669"/>
     <use style="fill:#00bfc4;stroke:#00bfc4;" x="424.220614" xlink:href="#ma9da9de7b8" y="145.471076"/>
     <use style="fill:#00bfc4;stroke:#00bfc4;" x="442.037107" xlink:href="#ma9da9de7b8" y="134.887946"/>
     <use style="fill:#00bfc4;stroke:#00bfc4;" x="476.164233" xlink:href="#ma9da9de7b8" y="119.274388"/>
     <use style="fill:#00bfc4;stroke:#00bfc4;" x="313.804067" xlink:href="#ma9da9de7b8" y="128.940666"/>
     <use style="fill:#00bfc4;stroke:#00bfc4;" x="501.176933" xlink:href="#ma9da9de7b8" y="69.051332"/>
     <use style="fill:#00bfc4;stroke:#00bfc4;" x="378.288357" xlink:href="#ma9da9de7b8" y="215.86877"/>
     <use style="fill:#00bfc4;stroke:#00bfc4;" x="525.396549" xlink:href="#ma9da9de7b8" y="179.37025"/>
     <use style="fill:#00bfc4;stroke:#00bfc4;" x="620.244444" xlink:href="#ma9da9de7b8" y="158.141139"/>
     <use style="fill:#00bfc4;stroke:#00bfc4;" x="299.534489" xlink:href="#ma9da9de7b8" y="278.05479"/>
     <use style="fill:#00bfc4;stroke:#00bfc4;" x="170.508386" xlink:href="#ma9da9de7b8" y="212.93317"/>
     <use style="fill:#00bfc4;stroke:#00bfc4;" x="318.406304" xlink:href="#ma9da9de7b8" y="327.43094"/>
     <use style="fill:#00bfc4;stroke:#00bfc4;" x="238.003023" xlink:href="#ma9da9de7b8" y="171.034124"/>
     <use style="fill:#00bfc4;stroke:#00bfc4;" x="325.498829" xlink:href="#ma9da9de7b8" y="260.270073"/>
     <use style="fill:#00bfc4;stroke:#00bfc4;" x="311.110478" xlink:href="#ma9da9de7b8" y="359.760452"/>
     <use style="fill:#00bfc4;stroke:#00bfc4;" x="427.173304" xlink:href="#ma9da9de7b8" y="306.275746"/>
     <use style="fill:#00bfc4;stroke:#00bfc4;" x="247.594566" xlink:href="#ma9da9de7b8" y="134.820915"/>
     <use style="fill:#00bfc4;stroke:#00bfc4;" x="368.348125" xlink:href="#ma9da9de7b8" y="340.491843"/>
     <use style="fill:#00bfc4;stroke:#00bfc4;" x="485.844282" xlink:href="#ma9da9de7b8" y="236.525949"/>
     <use style="fill:#00bfc4;stroke:#00bfc4;" x="402.969798" xlink:href="#ma9da9de7b8" y="197.837014"/>
     <use style="fill:#00bfc4;stroke:#00bfc4;" x="198.148807" xlink:href="#ma9da9de7b8" y="199.412241"/>
     <use style="fill:#00bfc4;stroke:#00bfc4;" x="260.122983" xlink:href="#ma9da9de7b8" y="241.731232"/>
     <use style="fill:#00bfc4;stroke:#00bfc4;" x="538.09392" xlink:href="#ma9da9de7b8" y="290.002156"/>
     <use style="fill:#00bfc4;stroke:#00bfc4;" x="259.247062" xlink:href="#ma9da9de7b8" y="246.077821"/>
     <use style="fill:#00bfc4;stroke:#00bfc4;" x="401.761327" xlink:href="#ma9da9de7b8" y="228.736912"/>
     <use style="fill:#00bfc4;stroke:#00bfc4;" x="275.725898" xlink:href="#ma9da9de7b8" y="184.787897"/>
     <use style="fill:#00bfc4;stroke:#00bfc4;" x="256.345913" xlink:href="#ma9da9de7b8" y="295.025107"/>
     <use style="fill:#00bfc4;stroke:#00bfc4;" x="474.198673" xlink:href="#ma9da9de7b8" y="107.798619"/>
     <use style="fill:#00bfc4;stroke:#00bfc4;" x="415.289078" xlink:href="#ma9da9de7b8" y="334.72559"/>
     <use style="fill:#00bfc4;stroke:#00bfc4;" x="139.551735" xlink:href="#ma9da9de7b8" y="296.27475"/>
     <use style="fill:#00bfc4;stroke:#00bfc4;" x="348.187552" xlink:href="#ma9da9de7b8" y="134.601884"/>
     <use style="fill:#00bfc4;stroke:#00bfc4;" x="254.20329" xlink:href="#ma9da9de7b8" y="204.556491"/>
    </g>
   </g>
   <g id="matplotlib.axis_1">
    <g id="xtick_1">
     <g id="line2d_1">
      <defs>
       <path d="M 0 0 
L 0 3.5 
" id="mf1cb9af268" style="stroke:#000000;stroke-width:0.8;"/>
      </defs>
      <g>
       <use style="stroke:#000000;stroke-width:0.8;" x="111.687584" xlink:href="#mf1cb9af268" y="378"/>
      </g>
     </g>
     <g id="text_1">
      <!-- −10.0 -->
      <defs>
       <path d="M 10.59375 35.5 
L 73.1875 35.5 
L 73.1875 27.203125 
L 10.59375 27.203125 
z
" id="DejaVuSans-8722"/>
       <path d="M 12.40625 8.296875 
L 28.515625 8.296875 
L 28.515625 63.921875 
L 10.984375 60.40625 
L 10.984375 69.390625 
L 28.421875 72.90625 
L 38.28125 72.90625 
L 38.28125 8.296875 
L 54.390625 8.296875 
L 54.390625 0 
L 12.40625 0 
z
" id="DejaVuSans-49"/>
       <path d="M 31.78125 66.40625 
Q 24.171875 66.40625 20.328125 58.90625 
Q 16.5 51.421875 16.5 36.375 
Q 16.5 21.390625 20.328125 13.890625 
Q 24.171875 6.390625 31.78125 6.390625 
Q 39.453125 6.390625 43.28125 13.890625 
Q 47.125 21.390625 47.125 36.375 
Q 47.125 51.421875 43.28125 58.90625 
Q 39.453125 66.40625 31.78125 66.40625 
z
M 31.78125 74.21875 
Q 44.046875 74.21875 50.515625 64.515625 
Q 56.984375 54.828125 56.984375 36.375 
Q 56.984375 17.96875 50.515625 8.265625 
Q 44.046875 -1.421875 31.78125 -1.421875 
Q 19.53125 -1.421875 13.0625 8.265625 
Q 6.59375 17.96875 6.59375 36.375 
Q 6.59375 54.828125 13.0625 64.515625 
Q 19.53125 74.21875 31.78125 74.21875 
z
" id="DejaVuSans-48"/>
       <path d="M 10.6875 12.40625 
L 21 12.40625 
L 21 0 
L 10.6875 0 
z
" id="DejaVuSans-46"/>
      </defs>
      <g transform="translate(96.364928 392.598437)scale(0.1 -0.1)">
       <use xlink:href="#DejaVuSans-8722"/>
       <use x="83.789062" xlink:href="#DejaVuSans-49"/>
       <use x="147.412109" xlink:href="#DejaVuSans-48"/>
       <use x="211.035156" xlink:href="#DejaVuSans-46"/>
       <use x="242.822266" xlink:href="#DejaVuSans-48"/>
      </g>
     </g>
    </g>
    <g id="xtick_2">
     <g id="line2d_2">
      <g>
       <use style="stroke:#000000;stroke-width:0.8;" x="180.472356" xlink:href="#mf1cb9af268" y="378"/>
      </g>
     </g>
     <g id="text_2">
      <!-- −7.5 -->
      <defs>
       <path d="M 8.203125 72.90625 
L 55.078125 72.90625 
L 55.078125 68.703125 
L 28.609375 0 
L 18.3125 0 
L 43.21875 64.59375 
L 8.203125 64.59375 
z
" id="DejaVuSans-55"/>
       <path d="M 10.796875 72.90625 
L 49.515625 72.90625 
L 49.515625 64.59375 
L 19.828125 64.59375 
L 19.828125 46.734375 
Q 21.96875 47.46875 24.109375 47.828125 
Q 26.265625 48.1875 28.421875 48.1875 
Q 40.625 48.1875 47.75 41.5 
Q 54.890625 34.8125 54.890625 23.390625 
Q 54.890625 11.625 47.5625 5.09375 
Q 40.234375 -1.421875 26.90625 -1.421875 
Q 22.3125 -1.421875 17.546875 -0.640625 
Q 12.796875 0.140625 7.71875 1.703125 
L 7.71875 11.625 
Q 12.109375 9.234375 16.796875 8.0625 
Q 21.484375 6.890625 26.703125 6.890625 
Q 35.15625 6.890625 40.078125 11.328125 
Q 45.015625 15.765625 45.015625 23.390625 
Q 45.015625 31 40.078125 35.4375 
Q 35.15625 39.890625 26.703125 39.890625 
Q 22.75 39.890625 18.8125 39.015625 
Q 14.890625 38.140625 10.796875 36.28125 
z
" id="DejaVuSans-53"/>
      </defs>
      <g transform="translate(168.33095 392.598437)scale(0.1 -0.1)">
       <use xlink:href="#DejaVuSans-8722"/>
       <use x="83.789062" xlink:href="#DejaVuSans-55"/>
       <use x="147.412109" xlink:href="#DejaVuSans-46"/>
       <use x="179.199219" xlink:href="#DejaVuSans-53"/>
      </g>
     </g>
    </g>
    <g id="xtick_3">
     <g id="line2d_3">
      <g>
       <use style="stroke:#000000;stroke-width:0.8;" x="249.257128" xlink:href="#mf1cb9af268" y="378"/>
      </g>
     </g>
     <g id="text_3">
      <!-- −5.0 -->
      <g transform="translate(237.115721 392.598437)scale(0.1 -0.1)">
       <use xlink:href="#DejaVuSans-8722"/>
       <use x="83.789062" xlink:href="#DejaVuSans-53"/>
       <use x="147.412109" xlink:href="#DejaVuSans-46"/>
       <use x="179.199219" xlink:href="#DejaVuSans-48"/>
      </g>
     </g>
    </g>
    <g id="xtick_4">
     <g id="line2d_4">
      <g>
       <use style="stroke:#000000;stroke-width:0.8;" x="318.041899" xlink:href="#mf1cb9af268" y="378"/>
      </g>
     </g>
     <g id="text_4">
      <!-- −2.5 -->
      <defs>
       <path d="M 19.1875 8.296875 
L 53.609375 8.296875 
L 53.609375 0 
L 7.328125 0 
L 7.328125 8.296875 
Q 12.9375 14.109375 22.625 23.890625 
Q 32.328125 33.6875 34.8125 36.53125 
Q 39.546875 41.84375 41.421875 45.53125 
Q 43.3125 49.21875 43.3125 52.78125 
Q 43.3125 58.59375 39.234375 62.25 
Q 35.15625 65.921875 28.609375 65.921875 
Q 23.96875 65.921875 18.8125 64.3125 
Q 13.671875 62.703125 7.8125 59.421875 
L 7.8125 69.390625 
Q 13.765625 71.78125 18.9375 73 
Q 24.125 74.21875 28.421875 74.21875 
Q 39.75 74.21875 46.484375 68.546875 
Q 53.21875 62.890625 53.21875 53.421875 
Q 53.21875 48.921875 51.53125 44.890625 
Q 49.859375 40.875 45.40625 35.40625 
Q 44.1875 33.984375 37.640625 27.21875 
Q 31.109375 20.453125 19.1875 8.296875 
z
" id="DejaVuSans-50"/>
      </defs>
      <g transform="translate(305.900493 392.598437)scale(0.1 -0.1)">
       <use xlink:href="#DejaVuSans-8722"/>
       <use x="83.789062" xlink:href="#DejaVuSans-50"/>
       <use x="147.412109" xlink:href="#DejaVuSans-46"/>
       <use x="179.199219" xlink:href="#DejaVuSans-53"/>
      </g>
     </g>
    </g>
    <g id="xtick_5">
     <g id="line2d_5">
      <g>
       <use style="stroke:#000000;stroke-width:0.8;" x="386.826671" xlink:href="#mf1cb9af268" y="378"/>
      </g>
     </g>
     <g id="text_5">
      <!-- 0.0 -->
      <g transform="translate(378.875109 392.598437)scale(0.1 -0.1)">
       <use xlink:href="#DejaVuSans-48"/>
       <use x="63.623047" xlink:href="#DejaVuSans-46"/>
       <use x="95.410156" xlink:href="#DejaVuSans-48"/>
      </g>
     </g>
    </g>
    <g id="xtick_6">
     <g id="line2d_6">
      <g>
       <use style="stroke:#000000;stroke-width:0.8;" x="455.611443" xlink:href="#mf1cb9af268" y="378"/>
      </g>
     </g>
     <g id="text_6">
      <!-- 2.5 -->
      <g transform="translate(447.65988 392.598437)scale(0.1 -0.1)">
       <use xlink:href="#DejaVuSans-50"/>
       <use x="63.623047" xlink:href="#DejaVuSans-46"/>
       <use x="95.410156" xlink:href="#DejaVuSans-53"/>
      </g>
     </g>
    </g>
    <g id="xtick_7">
     <g id="line2d_7">
      <g>
       <use style="stroke:#000000;stroke-width:0.8;" x="524.396214" xlink:href="#mf1cb9af268" y="378"/>
      </g>
     </g>
     <g id="text_7">
      <!-- 5.0 -->
      <g transform="translate(516.444652 392.598437)scale(0.1 -0.1)">
       <use xlink:href="#DejaVuSans-53"/>
       <use x="63.623047" xlink:href="#DejaVuSans-46"/>
       <use x="95.410156" xlink:href="#DejaVuSans-48"/>
      </g>
     </g>
    </g>
    <g id="xtick_8">
     <g id="line2d_8">
      <g>
       <use style="stroke:#000000;stroke-width:0.8;" x="593.180986" xlink:href="#mf1cb9af268" y="378"/>
      </g>
     </g>
     <g id="text_8">
      <!-- 7.5 -->
      <g transform="translate(585.229423 392.598437)scale(0.1 -0.1)">
       <use xlink:href="#DejaVuSans-55"/>
       <use x="63.623047" xlink:href="#DejaVuSans-46"/>
       <use x="95.410156" xlink:href="#DejaVuSans-53"/>
      </g>
     </g>
    </g>
    <g id="text_9">
     <!-- tSNE-1 -->
     <defs>
      <path d="M 18.3125 70.21875 
L 18.3125 54.6875 
L 36.8125 54.6875 
L 36.8125 47.703125 
L 18.3125 47.703125 
L 18.3125 18.015625 
Q 18.3125 11.328125 20.140625 9.421875 
Q 21.96875 7.515625 27.59375 7.515625 
L 36.8125 7.515625 
L 36.8125 0 
L 27.59375 0 
Q 17.1875 0 13.234375 3.875 
Q 9.28125 7.765625 9.28125 18.015625 
L 9.28125 47.703125 
L 2.6875 47.703125 
L 2.6875 54.6875 
L 9.28125 54.6875 
L 9.28125 70.21875 
z
" id="DejaVuSans-116"/>
      <path d="M 53.515625 70.515625 
L 53.515625 60.890625 
Q 47.90625 63.578125 42.921875 64.890625 
Q 37.9375 66.21875 33.296875 66.21875 
Q 25.25 66.21875 20.875 63.09375 
Q 16.5 59.96875 16.5 54.203125 
Q 16.5 49.359375 19.40625 46.890625 
Q 22.3125 44.4375 30.421875 42.921875 
L 36.375 41.703125 
Q 47.40625 39.59375 52.65625 34.296875 
Q 57.90625 29 57.90625 20.125 
Q 57.90625 9.515625 50.796875 4.046875 
Q 43.703125 -1.421875 29.984375 -1.421875 
Q 24.8125 -1.421875 18.96875 -0.25 
Q 13.140625 0.921875 6.890625 3.21875 
L 6.890625 13.375 
Q 12.890625 10.015625 18.65625 8.296875 
Q 24.421875 6.59375 29.984375 6.59375 
Q 38.421875 6.59375 43.015625 9.90625 
Q 47.609375 13.234375 47.609375 19.390625 
Q 47.609375 24.75 44.3125 27.78125 
Q 41.015625 30.8125 33.5 32.328125 
L 27.484375 33.5 
Q 16.453125 35.6875 11.515625 40.375 
Q 6.59375 45.0625 6.59375 53.421875 
Q 6.59375 63.09375 13.40625 68.65625 
Q 20.21875 74.21875 32.171875 74.21875 
Q 37.3125 74.21875 42.625 73.28125 
Q 47.953125 72.359375 53.515625 70.515625 
z
" id="DejaVuSans-83"/>
      <path d="M 9.8125 72.90625 
L 23.09375 72.90625 
L 55.421875 11.921875 
L 55.421875 72.90625 
L 64.984375 72.90625 
L 64.984375 0 
L 51.703125 0 
L 19.390625 60.984375 
L 19.390625 0 
L 9.8125 0 
z
" id="DejaVuSans-78"/>
      <path d="M 9.8125 72.90625 
L 55.90625 72.90625 
L 55.90625 64.59375 
L 19.671875 64.59375 
L 19.671875 43.015625 
L 54.390625 43.015625 
L 54.390625 34.71875 
L 19.671875 34.71875 
L 19.671875 8.296875 
L 56.78125 8.296875 
L 56.78125 0 
L 9.8125 0 
z
" id="DejaVuSans-69"/>
      <path d="M 4.890625 31.390625 
L 31.203125 31.390625 
L 31.203125 23.390625 
L 4.890625 23.390625 
z
" id="DejaVuSans-45"/>
     </defs>
     <g transform="translate(351.980469 406.276563)scale(0.1 -0.1)">
      <use xlink:href="#DejaVuSans-116"/>
      <use x="39.208984" xlink:href="#DejaVuSans-83"/>
      <use x="102.685547" xlink:href="#DejaVuSans-78"/>
      <use x="177.490234" xlink:href="#DejaVuSans-69"/>
      <use x="240.673828" xlink:href="#DejaVuSans-45"/>
      <use x="276.757812" xlink:href="#DejaVuSans-49"/>
     </g>
    </g>
   </g>
   <g id="matplotlib.axis_2">
    <g id="ytick_1">
     <g id="line2d_9">
      <defs>
       <path d="M 0 0 
L -3.5 0 
" id="m89b5cc47c5" style="stroke:#000000;stroke-width:0.8;"/>
      </defs>
      <g>
       <use style="stroke:#000000;stroke-width:0.8;" x="90" xlink:href="#m89b5cc47c5" y="363.981603"/>
      </g>
     </g>
     <g id="text_10">
      <!-- −10.0 -->
      <g transform="translate(52.354687 367.780822)scale(0.1 -0.1)">
       <use xlink:href="#DejaVuSans-8722"/>
       <use x="83.789062" xlink:href="#DejaVuSans-49"/>
       <use x="147.412109" xlink:href="#DejaVuSans-48"/>
       <use x="211.035156" xlink:href="#DejaVuSans-46"/>
       <use x="242.822266" xlink:href="#DejaVuSans-48"/>
      </g>
     </g>
    </g>
    <g id="ytick_2">
     <g id="line2d_10">
      <g>
       <use style="stroke:#000000;stroke-width:0.8;" x="90" xlink:href="#m89b5cc47c5" y="323.858847"/>
      </g>
     </g>
     <g id="text_11">
      <!-- −7.5 -->
      <g transform="translate(58.717187 327.658065)scale(0.1 -0.1)">
       <use xlink:href="#DejaVuSans-8722"/>
       <use x="83.789062" xlink:href="#DejaVuSans-55"/>
       <use x="147.412109" xlink:href="#DejaVuSans-46"/>
       <use x="179.199219" xlink:href="#DejaVuSans-53"/>
      </g>
     </g>
    </g>
    <g id="ytick_3">
     <g id="line2d_11">
      <g>
       <use style="stroke:#000000;stroke-width:0.8;" x="90" xlink:href="#m89b5cc47c5" y="283.73609"/>
      </g>
     </g>
     <g id="text_12">
      <!-- −5.0 -->
      <g transform="translate(58.717187 287.535309)scale(0.1 -0.1)">
       <use xlink:href="#DejaVuSans-8722"/>
       <use x="83.789062" xlink:href="#DejaVuSans-53"/>
       <use x="147.412109" xlink:href="#DejaVuSans-46"/>
       <use x="179.199219" xlink:href="#DejaVuSans-48"/>
      </g>
     </g>
    </g>
    <g id="ytick_4">
     <g id="line2d_12">
      <g>
       <use style="stroke:#000000;stroke-width:0.8;" x="90" xlink:href="#m89b5cc47c5" y="243.613333"/>
      </g>
     </g>
     <g id="text_13">
      <!-- −2.5 -->
      <g transform="translate(58.717187 247.412552)scale(0.1 -0.1)">
       <use xlink:href="#DejaVuSans-8722"/>
       <use x="83.789062" xlink:href="#DejaVuSans-50"/>
       <use x="147.412109" xlink:href="#DejaVuSans-46"/>
       <use x="179.199219" xlink:href="#DejaVuSans-53"/>
      </g>
     </g>
    </g>
    <g id="ytick_5">
     <g id="line2d_13">
      <g>
       <use style="stroke:#000000;stroke-width:0.8;" x="90" xlink:href="#m89b5cc47c5" y="203.490576"/>
      </g>
     </g>
     <g id="text_14">
      <!-- 0.0 -->
      <g transform="translate(67.096875 207.289795)scale(0.1 -0.1)">
       <use xlink:href="#DejaVuSans-48"/>
       <use x="63.623047" xlink:href="#DejaVuSans-46"/>
       <use x="95.410156" xlink:href="#DejaVuSans-48"/>
      </g>
     </g>
    </g>
    <g id="ytick_6">
     <g id="line2d_14">
      <g>
       <use style="stroke:#000000;stroke-width:0.8;" x="90" xlink:href="#m89b5cc47c5" y="163.36782"/>
      </g>
     </g>
     <g id="text_15">
      <!-- 2.5 -->
      <g transform="translate(67.096875 167.167038)scale(0.1 -0.1)">
       <use xlink:href="#DejaVuSans-50"/>
       <use x="63.623047" xlink:href="#DejaVuSans-46"/>
       <use x="95.410156" xlink:href="#DejaVuSans-53"/>
      </g>
     </g>
    </g>
    <g id="ytick_7">
     <g id="line2d_15">
      <g>
       <use style="stroke:#000000;stroke-width:0.8;" x="90" xlink:href="#m89b5cc47c5" y="123.245063"/>
      </g>
     </g>
     <g id="text_16">
      <!-- 5.0 -->
      <g transform="translate(67.096875 127.044282)scale(0.1 -0.1)">
       <use xlink:href="#DejaVuSans-53"/>
       <use x="63.623047" xlink:href="#DejaVuSans-46"/>
       <use x="95.410156" xlink:href="#DejaVuSans-48"/>
      </g>
     </g>
    </g>
    <g id="ytick_8">
     <g id="line2d_16">
      <g>
       <use style="stroke:#000000;stroke-width:0.8;" x="90" xlink:href="#m89b5cc47c5" y="83.122306"/>
      </g>
     </g>
     <g id="text_17">
      <!-- 7.5 -->
      <g transform="translate(67.096875 86.921525)scale(0.1 -0.1)">
       <use xlink:href="#DejaVuSans-55"/>
       <use x="63.623047" xlink:href="#DejaVuSans-46"/>
       <use x="95.410156" xlink:href="#DejaVuSans-53"/>
      </g>
     </g>
    </g>
    <g id="text_18">
     <!-- tSNE-2 -->
     <g transform="translate(46.275 231.939531)rotate(-90)scale(0.1 -0.1)">
      <use xlink:href="#DejaVuSans-116"/>
      <use x="39.208984" xlink:href="#DejaVuSans-83"/>
      <use x="102.685547" xlink:href="#DejaVuSans-78"/>
      <use x="177.490234" xlink:href="#DejaVuSans-69"/>
      <use x="240.673828" xlink:href="#DejaVuSans-45"/>
      <use x="276.757812" xlink:href="#DejaVuSans-50"/>
     </g>
    </g>
   </g>
   <g id="patch_3">
    <path d="M 90 378 
L 90 51.84 
" style="fill:none;stroke:#000000;stroke-linecap:square;stroke-linejoin:miter;stroke-width:0.8;"/>
   </g>
   <g id="patch_4">
    <path d="M 648 378 
L 648 51.84 
" style="fill:none;stroke:#000000;stroke-linecap:square;stroke-linejoin:miter;stroke-width:0.8;"/>
   </g>
   <g id="patch_5">
    <path d="M 90 378 
L 648 378 
" style="fill:none;stroke:#000000;stroke-linecap:square;stroke-linejoin:miter;stroke-width:0.8;"/>
   </g>
   <g id="patch_6">
    <path d="M 90 51.84 
L 648 51.84 
" style="fill:none;stroke:#000000;stroke-linecap:square;stroke-linejoin:miter;stroke-width:0.8;"/>
   </g>
   <g id="legend_1">
    <g id="patch_7">
     <path d="M 563.125 89.19625 
L 641 89.19625 
Q 643 89.19625 643 87.19625 
L 643 58.84 
Q 643 56.84 641 56.84 
L 563.125 56.84 
Q 561.125 56.84 561.125 58.84 
L 561.125 87.19625 
Q 561.125 89.19625 563.125 89.19625 
z
" style="fill:#ffffff;opacity:0.8;stroke:#cccccc;stroke-linejoin:miter;"/>
    </g>
    <g id="PathCollection_3">
     <g>
      <use style="fill:#f8766d;stroke:#f8766d;" x="575.125" xlink:href="#m3ca1af9093" y="65.813437"/>
     </g>
    </g>
    <g id="text_19">
     <!-- D002318 -->
     <defs>
      <path d="M 19.671875 64.796875 
L 19.671875 8.109375 
L 31.59375 8.109375 
Q 46.6875 8.109375 53.6875 14.9375 
Q 60.6875 21.78125 60.6875 36.53125 
Q 60.6875 51.171875 53.6875 57.984375 
Q 46.6875 64.796875 31.59375 64.796875 
z
M 9.8125 72.90625 
L 30.078125 72.90625 
Q 51.265625 72.90625 61.171875 64.09375 
Q 71.09375 55.28125 71.09375 36.53125 
Q 71.09375 17.671875 61.125 8.828125 
Q 51.171875 0 30.078125 0 
L 9.8125 0 
z
" id="DejaVuSans-68"/>
      <path d="M 40.578125 39.3125 
Q 47.65625 37.796875 51.625 33 
Q 55.609375 28.21875 55.609375 21.1875 
Q 55.609375 10.40625 48.1875 4.484375 
Q 40.765625 -1.421875 27.09375 -1.421875 
Q 22.515625 -1.421875 17.65625 -0.515625 
Q 12.796875 0.390625 7.625 2.203125 
L 7.625 11.71875 
Q 11.71875 9.328125 16.59375 8.109375 
Q 21.484375 6.890625 26.8125 6.890625 
Q 36.078125 6.890625 40.9375 10.546875 
Q 45.796875 14.203125 45.796875 21.1875 
Q 45.796875 27.640625 41.28125 31.265625 
Q 36.765625 34.90625 28.71875 34.90625 
L 20.21875 34.90625 
L 20.21875 43.015625 
L 29.109375 43.015625 
Q 36.375 43.015625 40.234375 45.921875 
Q 44.09375 48.828125 44.09375 54.296875 
Q 44.09375 59.90625 40.109375 62.90625 
Q 36.140625 65.921875 28.71875 65.921875 
Q 24.65625 65.921875 20.015625 65.03125 
Q 15.375 64.15625 9.8125 62.3125 
L 9.8125 71.09375 
Q 15.4375 72.65625 20.34375 73.4375 
Q 25.25 74.21875 29.59375 74.21875 
Q 40.828125 74.21875 47.359375 69.109375 
Q 53.90625 64.015625 53.90625 55.328125 
Q 53.90625 49.265625 50.4375 45.09375 
Q 46.96875 40.921875 40.578125 39.3125 
z
" id="DejaVuSans-51"/>
      <path d="M 31.78125 34.625 
Q 24.75 34.625 20.71875 30.859375 
Q 16.703125 27.09375 16.703125 20.515625 
Q 16.703125 13.921875 20.71875 10.15625 
Q 24.75 6.390625 31.78125 6.390625 
Q 38.8125 6.390625 42.859375 10.171875 
Q 46.921875 13.96875 46.921875 20.515625 
Q 46.921875 27.09375 42.890625 30.859375 
Q 38.875 34.625 31.78125 34.625 
z
M 21.921875 38.8125 
Q 15.578125 40.375 12.03125 44.71875 
Q 8.5 49.078125 8.5 55.328125 
Q 8.5 64.0625 14.71875 69.140625 
Q 20.953125 74.21875 31.78125 74.21875 
Q 42.671875 74.21875 48.875 69.140625 
Q 55.078125 64.0625 55.078125 55.328125 
Q 55.078125 49.078125 51.53125 44.71875 
Q 48 40.375 41.703125 38.8125 
Q 48.828125 37.15625 52.796875 32.3125 
Q 56.78125 27.484375 56.78125 20.515625 
Q 56.78125 9.90625 50.3125 4.234375 
Q 43.84375 -1.421875 31.78125 -1.421875 
Q 19.734375 -1.421875 13.25 4.234375 
Q 6.78125 9.90625 6.78125 20.515625 
Q 6.78125 27.484375 10.78125 32.3125 
Q 14.796875 37.15625 21.921875 38.8125 
z
M 18.3125 54.390625 
Q 18.3125 48.734375 21.84375 45.5625 
Q 25.390625 42.390625 31.78125 42.390625 
Q 38.140625 42.390625 41.71875 45.5625 
Q 45.3125 48.734375 45.3125 54.390625 
Q 45.3125 60.0625 41.71875 63.234375 
Q 38.140625 66.40625 31.78125 66.40625 
Q 25.390625 66.40625 21.84375 63.234375 
Q 18.3125 60.0625 18.3125 54.390625 
z
" id="DejaVuSans-56"/>
     </defs>
     <g transform="translate(593.125 68.438437)scale(0.1 -0.1)">
      <use xlink:href="#DejaVuSans-68"/>
      <use x="77.001953" xlink:href="#DejaVuSans-48"/>
      <use x="140.625" xlink:href="#DejaVuSans-48"/>
      <use x="204.248047" xlink:href="#DejaVuSans-50"/>
      <use x="267.871094" xlink:href="#DejaVuSans-51"/>
      <use x="331.494141" xlink:href="#DejaVuSans-49"/>
      <use x="395.117188" xlink:href="#DejaVuSans-56"/>
     </g>
    </g>
    <g id="PathCollection_4">
     <g>
      <use style="fill:#00bfc4;stroke:#00bfc4;" x="575.125" xlink:href="#ma9da9de7b8" y="80.491562"/>
     </g>
    </g>
    <g id="text_20">
     <!-- D006262 -->
     <defs>
      <path d="M 33.015625 40.375 
Q 26.375 40.375 22.484375 35.828125 
Q 18.609375 31.296875 18.609375 23.390625 
Q 18.609375 15.53125 22.484375 10.953125 
Q 26.375 6.390625 33.015625 6.390625 
Q 39.65625 6.390625 43.53125 10.953125 
Q 47.40625 15.53125 47.40625 23.390625 
Q 47.40625 31.296875 43.53125 35.828125 
Q 39.65625 40.375 33.015625 40.375 
z
M 52.59375 71.296875 
L 52.59375 62.3125 
Q 48.875 64.0625 45.09375 64.984375 
Q 41.3125 65.921875 37.59375 65.921875 
Q 27.828125 65.921875 22.671875 59.328125 
Q 17.53125 52.734375 16.796875 39.40625 
Q 19.671875 43.65625 24.015625 45.921875 
Q 28.375 48.1875 33.59375 48.1875 
Q 44.578125 48.1875 50.953125 41.515625 
Q 57.328125 34.859375 57.328125 23.390625 
Q 57.328125 12.15625 50.6875 5.359375 
Q 44.046875 -1.421875 33.015625 -1.421875 
Q 20.359375 -1.421875 13.671875 8.265625 
Q 6.984375 17.96875 6.984375 36.375 
Q 6.984375 53.65625 15.1875 63.9375 
Q 23.390625 74.21875 37.203125 74.21875 
Q 40.921875 74.21875 44.703125 73.484375 
Q 48.484375 72.75 52.59375 71.296875 
z
" id="DejaVuSans-54"/>
     </defs>
     <g transform="translate(593.125 83.116562)scale(0.1 -0.1)">
      <use xlink:href="#DejaVuSans-68"/>
      <use x="77.001953" xlink:href="#DejaVuSans-48"/>
      <use x="140.625" xlink:href="#DejaVuSans-48"/>
      <use x="204.248047" xlink:href="#DejaVuSans-54"/>
      <use x="267.871094" xlink:href="#DejaVuSans-50"/>
      <use x="331.494141" xlink:href="#DejaVuSans-54"/>
      <use x="395.117188" xlink:href="#DejaVuSans-50"/>
     </g>
    </g>
   </g>
  </g>
 </g>
 <defs>
  <clipPath id="p91000223ef">
   <rect height="326.16" width="558" x="90" y="51.84"/>
  </clipPath>
 </defs>
</svg>
