<?xml version="1.0" encoding="utf-8" standalone="no"?>
<!DOCTYPE svg PUBLIC "-//W3C//DTD SVG 1.1//EN"
  "http://www.w3.org/Graphics/SVG/1.1/DTD/svg11.dtd">
<!-- Created with matplotlib (https://matplotlib.org/) -->
<svg height="432pt" version="1.1" viewBox="0 0 720 432" width="720pt" xmlns="http://www.w3.org/2000/svg" xmlns:xlink="http://www.w3.org/1999/xlink">
 <defs>
  <style type="text/css">
*{stroke-linecap:butt;stroke-linejoin:round;}
  </style>
 </defs>
 <g id="figure_1">
  <g id="patch_1">
   <path d="M 0 432 
L 720 432 
L 720 0 
L 0 0 
z
" style="fill:#ffffff;"/>
  </g>
  <g id="axes_1">
   <g id="patch_2">
    <path d="M 90 378 
L 648 378 
L 648 51.84 
L 90 51.84 
z
" style="fill:#ffffff;"/>
   </g>
   <g id="PathCollection_1">
    <defs>
     <path d="M 0 3 
C 0.795609 3 1.55874 2.683901 2.12132 2.12132 
C 2.683901 1.55874 3 0.795609 3 0 
C 3 -0.795609 2.683901 -1.55874 2.12132 -2.12132 
C 1.55874 -2.683901 0.795609 -3 0 -3 
C -0.795609 -3 -1.55874 -2.683901 -2.12132 -2.12132 
C -2.683901 -1.55874 -3 -0.795609 -3 0 
C -3 0.795609 -2.683901 1.55874 -2.12132 2.12132 
C -1.55874 2.683901 -0.795609 3 0 3 
z
" id="m9b74de1955" style="stroke:#f8766d;"/>
    </defs>
    <g clip-path="url(#p15e7429893)">
     <use style="fill:#f8766d;stroke:#f8766d;" x="228.272732" xlink:href="#m9b74de1955" y="258.356369"/>
     <use style="fill:#f8766d;stroke:#f8766d;" x="188.526506" xlink:href="#m9b74de1955" y="333.545041"/>
     <use style="fill:#f8766d;stroke:#f8766d;" x="177.28573" xlink:href="#m9b74de1955" y="361.466035"/>
     <use style="fill:#f8766d;stroke:#f8766d;" x="205.345282" xlink:href="#m9b74de1955" y="267.531102"/>
     <use style="fill:#f8766d;stroke:#f8766d;" x="273.983767" xlink:href="#m9b74de1955" y="196.958598"/>
     <use style="fill:#f8766d;stroke:#f8766d;" x="230.429357" xlink:href="#m9b74de1955" y="203.969262"/>
     <use style="fill:#f8766d;stroke:#f8766d;" x="224.075584" xlink:href="#m9b74de1955" y="191.417416"/>
     <use style="fill:#f8766d;stroke:#f8766d;" x="183.208135" xlink:href="#m9b74de1955" y="215.638293"/>
     <use style="fill:#f8766d;stroke:#f8766d;" x="160.464301" xlink:href="#m9b74de1955" y="218.56691"/>
     <use style="fill:#f8766d;stroke:#f8766d;" x="129.875266" xlink:href="#m9b74de1955" y="218.932644"/>
     <use style="fill:#f8766d;stroke:#f8766d;" x="196.842519" xlink:href="#m9b74de1955" y="260.491914"/>
     <use style="fill:#f8766d;stroke:#f8766d;" x="261.93196" xlink:href="#m9b74de1955" y="221.531524"/>
     <use style="fill:#f8766d;stroke:#f8766d;" x="229.144949" xlink:href="#m9b74de1955" y="160.568535"/>
     <use style="fill:#f8766d;stroke:#f8766d;" x="195.20443" xlink:href="#m9b74de1955" y="241.481887"/>
     <use style="fill:#f8766d;stroke:#f8766d;" x="259.097968" xlink:href="#m9b74de1955" y="300.05388"/>
     <use style="fill:#f8766d;stroke:#f8766d;" x="233.20725" xlink:href="#m9b74de1955" y="229.188839"/>
     <use style="fill:#f8766d;stroke:#f8766d;" x="170.53613" xlink:href="#m9b74de1955" y="254.556473"/>
     <use style="fill:#f8766d;stroke:#f8766d;" x="246.606621" xlink:href="#m9b74de1955" y="319.815441"/>
     <use style="fill:#f8766d;stroke:#f8766d;" x="237.475831" xlink:href="#m9b74de1955" y="277.642142"/>
     <use style="fill:#f8766d;stroke:#f8766d;" x="253.414554" xlink:href="#m9b74de1955" y="257.017078"/>
     <use style="fill:#f8766d;stroke:#f8766d;" x="163.273844" xlink:href="#m9b74de1955" y="311.228865"/>
     <use style="fill:#f8766d;stroke:#f8766d;" x="228.686787" xlink:href="#m9b74de1955" y="105.63101"/>
     <use style="fill:#f8766d;stroke:#f8766d;" x="197.243007" xlink:href="#m9b74de1955" y="320.116501"/>
     <use style="fill:#f8766d;stroke:#f8766d;" x="230.380234" xlink:href="#m9b74de1955" y="241.666352"/>
     <use style="fill:#f8766d;stroke:#f8766d;" x="131.062731" xlink:href="#m9b74de1955" y="143.390842"/>
     <use style="fill:#f8766d;stroke:#f8766d;" x="319.118676" xlink:href="#m9b74de1955" y="275.283827"/>
     <use style="fill:#f8766d;stroke:#f8766d;" x="413.756148" xlink:href="#m9b74de1955" y="206.777731"/>
     <use style="fill:#f8766d;stroke:#f8766d;" x="271.127457" xlink:href="#m9b74de1955" y="230.596106"/>
     <use style="fill:#f8766d;stroke:#f8766d;" x="275.531245" xlink:href="#m9b74de1955" y="241.261762"/>
     <use style="fill:#f8766d;stroke:#f8766d;" x="262.303861" xlink:href="#m9b74de1955" y="331.989338"/>
     <use style="fill:#f8766d;stroke:#f8766d;" x="264.640879" xlink:href="#m9b74de1955" y="143.808378"/>
     <use style="fill:#f8766d;stroke:#f8766d;" x="178.822309" xlink:href="#m9b74de1955" y="178.770124"/>
     <use style="fill:#f8766d;stroke:#f8766d;" x="251.139051" xlink:href="#m9b74de1955" y="200.490045"/>
     <use style="fill:#f8766d;stroke:#f8766d;" x="208.886908" xlink:href="#m9b74de1955" y="213.18184"/>
     <use style="fill:#f8766d;stroke:#f8766d;" x="322.534819" xlink:href="#m9b74de1955" y="335.982457"/>
     <use style="fill:#f8766d;stroke:#f8766d;" x="151.963081" xlink:href="#m9b74de1955" y="252.410461"/>
     <use style="fill:#f8766d;stroke:#f8766d;" x="205.019024" xlink:href="#m9b74de1955" y="188.105987"/>
     <use style="fill:#f8766d;stroke:#f8766d;" x="387.54205" xlink:href="#m9b74de1955" y="175.795668"/>
     <use style="fill:#f8766d;stroke:#f8766d;" x="475.868943" xlink:href="#m9b74de1955" y="293.748098"/>
     <use style="fill:#f8766d;stroke:#f8766d;" x="552.906111" xlink:href="#m9b74de1955" y="304.744533"/>
     <use style="fill:#f8766d;stroke:#f8766d;" x="480.9227" xlink:href="#m9b74de1955" y="278.659687"/>
     <use style="fill:#f8766d;stroke:#f8766d;" x="515.960716" xlink:href="#m9b74de1955" y="247.099034"/>
     <use style="fill:#f8766d;stroke:#f8766d;" x="494.748141" xlink:href="#m9b74de1955" y="295.213894"/>
     <use style="fill:#f8766d;stroke:#f8766d;" x="500.199862" xlink:href="#m9b74de1955" y="304.563211"/>
     <use style="fill:#f8766d;stroke:#f8766d;" x="527.583607" xlink:href="#m9b74de1955" y="259.743995"/>
     <use style="fill:#f8766d;stroke:#f8766d;" x="519.77422" xlink:href="#m9b74de1955" y="298.648895"/>
     <use style="fill:#f8766d;stroke:#f8766d;" x="562.596564" xlink:href="#m9b74de1955" y="261.404625"/>
     <use style="fill:#f8766d;stroke:#f8766d;" x="518.297292" xlink:href="#m9b74de1955" y="320.32873"/>
     <use style="fill:#f8766d;stroke:#f8766d;" x="490.937457" xlink:href="#m9b74de1955" y="291.028864"/>
     <use style="fill:#f8766d;stroke:#f8766d;" x="524.183467" xlink:href="#m9b74de1955" y="281.37878"/>
     <use style="fill:#f8766d;stroke:#f8766d;" x="532.004459" xlink:href="#m9b74de1955" y="290.650111"/>
     <use style="fill:#f8766d;stroke:#f8766d;" x="549.414701" xlink:href="#m9b74de1955" y="279.846394"/>
     <use style="fill:#f8766d;stroke:#f8766d;" x="393.425218" xlink:href="#m9b74de1955" y="223.332025"/>
     <use style="fill:#f8766d;stroke:#f8766d;" x="448.577094" xlink:href="#m9b74de1955" y="265.773488"/>
     <use style="fill:#f8766d;stroke:#f8766d;" x="443.742187" xlink:href="#m9b74de1955" y="358.953531"/>
     <use style="fill:#f8766d;stroke:#f8766d;" x="453.40107" xlink:href="#m9b74de1955" y="275.342306"/>
     <use style="fill:#f8766d;stroke:#f8766d;" x="381.474243" xlink:href="#m9b74de1955" y="264.347409"/>
     <use style="fill:#f8766d;stroke:#f8766d;" x="518.20419" xlink:href="#m9b74de1955" y="126.034029"/>
     <use style="fill:#f8766d;stroke:#f8766d;" x="506.367954" xlink:href="#m9b74de1955" y="96.57791"/>
     <use style="fill:#f8766d;stroke:#f8766d;" x="479.456187" xlink:href="#m9b74de1955" y="128.729646"/>
     <use style="fill:#f8766d;stroke:#f8766d;" x="529.929892" xlink:href="#m9b74de1955" y="146.628887"/>
     <use style="fill:#f8766d;stroke:#f8766d;" x="537.719974" xlink:href="#m9b74de1955" y="118.266898"/>
     <use style="fill:#f8766d;stroke:#f8766d;" x="434.90191" xlink:href="#m9b74de1955" y="218.088218"/>
     <use style="fill:#f8766d;stroke:#f8766d;" x="481.247061" xlink:href="#m9b74de1955" y="143.973633"/>
     <use style="fill:#f8766d;stroke:#f8766d;" x="511.213928" xlink:href="#m9b74de1955" y="144.082349"/>
     <use style="fill:#f8766d;stroke:#f8766d;" x="415.068874" xlink:href="#m9b74de1955" y="260.643728"/>
     <use style="fill:#f8766d;stroke:#f8766d;" x="465.883448" xlink:href="#m9b74de1955" y="363.035315"/>
     <use style="fill:#f8766d;stroke:#f8766d;" x="421.681349" xlink:href="#m9b74de1955" y="322.768327"/>
     <use style="fill:#f8766d;stroke:#f8766d;" x="420.641896" xlink:href="#m9b74de1955" y="164.257509"/>
     <use style="fill:#f8766d;stroke:#f8766d;" x="458.472902" xlink:href="#m9b74de1955" y="125.464873"/>
     <use style="fill:#f8766d;stroke:#f8766d;" x="460.522763" xlink:href="#m9b74de1955" y="340.541225"/>
     <use style="fill:#f8766d;stroke:#f8766d;" x="416.210005" xlink:href="#m9b74de1955" y="281.830806"/>
     <use style="fill:#f8766d;stroke:#f8766d;" x="417.119044" xlink:href="#m9b74de1955" y="285.52589"/>
     <use style="fill:#f8766d;stroke:#f8766d;" x="472.784764" xlink:href="#m9b74de1955" y="247.417367"/>
     <use style="fill:#f8766d;stroke:#f8766d;" x="472.975621" xlink:href="#m9b74de1955" y="248.971758"/>
     <use style="fill:#f8766d;stroke:#f8766d;" x="486.190814" xlink:href="#m9b74de1955" y="127.372653"/>
     <use style="fill:#f8766d;stroke:#f8766d;" x="501.742743" xlink:href="#m9b74de1955" y="162.429708"/>
     <use style="fill:#f8766d;stroke:#f8766d;" x="575.377649" xlink:href="#m9b74de1955" y="101.448708"/>
     <use style="fill:#f8766d;stroke:#f8766d;" x="515.33199" xlink:href="#m9b74de1955" y="195.022718"/>
     <use style="fill:#f8766d;stroke:#f8766d;" x="420.232285" xlink:href="#m9b74de1955" y="190.527264"/>
     <use style="fill:#f8766d;stroke:#f8766d;" x="582.116366" xlink:href="#m9b74de1955" y="181.036563"/>
     <use style="fill:#f8766d;stroke:#f8766d;" x="572.362549" xlink:href="#m9b74de1955" y="220.558201"/>
     <use style="fill:#f8766d;stroke:#f8766d;" x="558.412099" xlink:href="#m9b74de1955" y="222.300447"/>
     <use style="fill:#f8766d;stroke:#f8766d;" x="441.358232" xlink:href="#m9b74de1955" y="187.213331"/>
     <use style="fill:#f8766d;stroke:#f8766d;" x="613.949254" xlink:href="#m9b74de1955" y="234.98067"/>
     <use style="fill:#f8766d;stroke:#f8766d;" x="537.079884" xlink:href="#m9b74de1955" y="246.166596"/>
     <use style="fill:#f8766d;stroke:#f8766d;" x="442.772399" xlink:href="#m9b74de1955" y="165.893161"/>
     <use style="fill:#f8766d;stroke:#f8766d;" x="558.644162" xlink:href="#m9b74de1955" y="185.319053"/>
     <use style="fill:#f8766d;stroke:#f8766d;" x="560.425391" xlink:href="#m9b74de1955" y="184.759883"/>
     <use style="fill:#f8766d;stroke:#f8766d;" x="575.3098" xlink:href="#m9b74de1955" y="101.496845"/>
     <use style="fill:#f8766d;stroke:#f8766d;" x="308.085482" xlink:href="#m9b74de1955" y="177.758469"/>
     <use style="fill:#f8766d;stroke:#f8766d;" x="456.067923" xlink:href="#m9b74de1955" y="178.565272"/>
     <use style="fill:#f8766d;stroke:#f8766d;" x="547.271064" xlink:href="#m9b74de1955" y="227.65278"/>
     <use style="fill:#f8766d;stroke:#f8766d;" x="527.721669" xlink:href="#m9b74de1955" y="214.745367"/>
     <use style="fill:#f8766d;stroke:#f8766d;" x="505.586097" xlink:href="#m9b74de1955" y="211.339975"/>
     <use style="fill:#f8766d;stroke:#f8766d;" x="329.782726" xlink:href="#m9b74de1955" y="103.693291"/>
     <use style="fill:#f8766d;stroke:#f8766d;" x="393.906782" xlink:href="#m9b74de1955" y="136.688493"/>
     <use style="fill:#f8766d;stroke:#f8766d;" x="502.397614" xlink:href="#m9b74de1955" y="251.543082"/>
     <use style="fill:#f8766d;stroke:#f8766d;" x="388.801945" xlink:href="#m9b74de1955" y="70.248693"/>
     <use style="fill:#f8766d;stroke:#f8766d;" x="332.320386" xlink:href="#m9b74de1955" y="129.413018"/>
     <use style="fill:#f8766d;stroke:#f8766d;" x="386.040294" xlink:href="#m9b74de1955" y="358.308781"/>
     <use style="fill:#f8766d;stroke:#f8766d;" x="327.880282" xlink:href="#m9b74de1955" y="78.0629"/>
     <use style="fill:#f8766d;stroke:#f8766d;" x="457.771794" xlink:href="#m9b74de1955" y="153.485909"/>
     <use style="fill:#f8766d;stroke:#f8766d;" x="475.077064" xlink:href="#m9b74de1955" y="71.241649"/>
     <use style="fill:#f8766d;stroke:#f8766d;" x="382.407619" xlink:href="#m9b74de1955" y="115.934148"/>
     <use style="fill:#f8766d;stroke:#f8766d;" x="423.175614" xlink:href="#m9b74de1955" y="101.032515"/>
     <use style="fill:#f8766d;stroke:#f8766d;" x="390.336422" xlink:href="#m9b74de1955" y="290.767272"/>
     <use style="fill:#f8766d;stroke:#f8766d;" x="454.069644" xlink:href="#m9b74de1955" y="67.549547"/>
     <use style="fill:#f8766d;stroke:#f8766d;" x="201.290166" xlink:href="#m9b74de1955" y="139.981321"/>
     <use style="fill:#f8766d;stroke:#f8766d;" x="424.733717" xlink:href="#m9b74de1955" y="231.551865"/>
     <use style="fill:#f8766d;stroke:#f8766d;" x="382.48812" xlink:href="#m9b74de1955" y="116.314447"/>
     <use style="fill:#f8766d;stroke:#f8766d;" x="205.748053" xlink:href="#m9b74de1955" y="172.147425"/>
     <use style="fill:#f8766d;stroke:#f8766d;" x="454.435235" xlink:href="#m9b74de1955" y="67.776118"/>
     <use style="fill:#f8766d;stroke:#f8766d;" x="312.493008" xlink:href="#m9b74de1955" y="233.353934"/>
     <use style="fill:#f8766d;stroke:#f8766d;" x="433.077064" xlink:href="#m9b74de1955" y="89.592408"/>
     <use style="fill:#f8766d;stroke:#f8766d;" x="333.777765" xlink:href="#m9b74de1955" y="261.52794"/>
     <use style="fill:#f8766d;stroke:#f8766d;" x="413.128069" xlink:href="#m9b74de1955" y="112.442386"/>
     <use style="fill:#f8766d;stroke:#f8766d;" x="303.991567" xlink:href="#m9b74de1955" y="112.353981"/>
     <use style="fill:#f8766d;stroke:#f8766d;" x="392.316663" xlink:href="#m9b74de1955" y="66.804685"/>
     <use style="fill:#f8766d;stroke:#f8766d;" x="387.848401" xlink:href="#m9b74de1955" y="149.629699"/>
     <use style="fill:#f8766d;stroke:#f8766d;" x="347.911794" xlink:href="#m9b74de1955" y="302.394692"/>
     <use style="fill:#f8766d;stroke:#f8766d;" x="610.883006" xlink:href="#m9b74de1955" y="245.853255"/>
     <use style="fill:#f8766d;stroke:#f8766d;" x="612.143769" xlink:href="#m9b74de1955" y="253.773696"/>
     <use style="fill:#f8766d;stroke:#f8766d;" x="533.823961" xlink:href="#m9b74de1955" y="157.764483"/>
     <use style="fill:#f8766d;stroke:#f8766d;" x="434.37585" xlink:href="#m9b74de1955" y="335.624628"/>
     <use style="fill:#f8766d;stroke:#f8766d;" x="470.00868" xlink:href="#m9b74de1955" y="219.571664"/>
     <use style="fill:#f8766d;stroke:#f8766d;" x="622.545745" xlink:href="#m9b74de1955" y="215.057232"/>
     <use style="fill:#f8766d;stroke:#f8766d;" x="446.312514" xlink:href="#m9b74de1955" y="337.651778"/>
     <use style="fill:#f8766d;stroke:#f8766d;" x="452.283368" xlink:href="#m9b74de1955" y="234.272"/>
     <use style="fill:#f8766d;stroke:#f8766d;" x="459.182955" xlink:href="#m9b74de1955" y="208.01764"/>
     <use style="fill:#f8766d;stroke:#f8766d;" x="420.387192" xlink:href="#m9b74de1955" y="196.4681"/>
     <use style="fill:#f8766d;stroke:#f8766d;" x="458.96376" xlink:href="#m9b74de1955" y="195.473611"/>
     <use style="fill:#f8766d;stroke:#f8766d;" x="413.694885" xlink:href="#m9b74de1955" y="314.765046"/>
    </g>
   </g>
   <g id="PathCollection_2">
    <defs>
     <path d="M 0 3 
C 0.795609 3 1.55874 2.683901 2.12132 2.12132 
C 2.683901 1.55874 3 0.795609 3 0 
C 3 -0.795609 2.683901 -1.55874 2.12132 -2.12132 
C 1.55874 -2.683901 0.795609 -3 0 -3 
C -0.795609 -3 -1.55874 -2.683901 -2.12132 -2.12132 
C -2.683901 -1.55874 -3 -0.795609 -3 0 
C -3 0.795609 -2.683901 1.55874 -2.12132 2.12132 
C -1.55874 2.683901 -0.795609 3 0 3 
z
" id="md8d9844f8e" style="stroke:#00bfc4;"/>
    </defs>
    <g clip-path="url(#p15e7429893)">
     <use style="fill:#00bfc4;stroke:#00bfc4;" x="292.6755" xlink:href="#md8d9844f8e" y="213.964119"/>
     <use style="fill:#00bfc4;stroke:#00bfc4;" x="261.477937" xlink:href="#md8d9844f8e" y="142.700173"/>
     <use style="fill:#00bfc4;stroke:#00bfc4;" x="247.316087" xlink:href="#md8d9844f8e" y="181.764329"/>
     <use style="fill:#00bfc4;stroke:#00bfc4;" x="307.419657" xlink:href="#md8d9844f8e" y="277.415795"/>
     <use style="fill:#00bfc4;stroke:#00bfc4;" x="237.226183" xlink:href="#md8d9844f8e" y="352.284203"/>
     <use style="fill:#00bfc4;stroke:#00bfc4;" x="220.807188" xlink:href="#md8d9844f8e" y="297.425679"/>
     <use style="fill:#00bfc4;stroke:#00bfc4;" x="168.040773" xlink:href="#md8d9844f8e" y="343.111004"/>
     <use style="fill:#00bfc4;stroke:#00bfc4;" x="205.39778" xlink:href="#md8d9844f8e" y="321.805281"/>
     <use style="fill:#00bfc4;stroke:#00bfc4;" x="199.126484" xlink:href="#md8d9844f8e" y="198.607949"/>
     <use style="fill:#00bfc4;stroke:#00bfc4;" x="170.130241" xlink:href="#md8d9844f8e" y="233.95024"/>
     <use style="fill:#00bfc4;stroke:#00bfc4;" x="196.199889" xlink:href="#md8d9844f8e" y="230.855283"/>
     <use style="fill:#00bfc4;stroke:#00bfc4;" x="232.315117" xlink:href="#md8d9844f8e" y="303.467572"/>
     <use style="fill:#00bfc4;stroke:#00bfc4;" x="250.575852" xlink:href="#md8d9844f8e" y="200.704951"/>
     <use style="fill:#00bfc4;stroke:#00bfc4;" x="218.283781" xlink:href="#md8d9844f8e" y="336.701219"/>
     <use style="fill:#00bfc4;stroke:#00bfc4;" x="202.477904" xlink:href="#md8d9844f8e" y="285.852949"/>
     <use style="fill:#00bfc4;stroke:#00bfc4;" x="118.278351" xlink:href="#md8d9844f8e" y="200.452253"/>
     <use style="fill:#00bfc4;stroke:#00bfc4;" x="305.612521" xlink:href="#md8d9844f8e" y="293.285898"/>
     <use style="fill:#00bfc4;stroke:#00bfc4;" x="152.685728" xlink:href="#md8d9844f8e" y="192.249276"/>
     <use style="fill:#00bfc4;stroke:#00bfc4;" x="216.384584" xlink:href="#md8d9844f8e" y="254.689558"/>
     <use style="fill:#00bfc4;stroke:#00bfc4;" x="175.12425" xlink:href="#md8d9844f8e" y="278.331025"/>
     <use style="fill:#00bfc4;stroke:#00bfc4;" x="356.191387" xlink:href="#md8d9844f8e" y="217.458531"/>
     <use style="fill:#00bfc4;stroke:#00bfc4;" x="369.640841" xlink:href="#md8d9844f8e" y="227.751888"/>
     <use style="fill:#00bfc4;stroke:#00bfc4;" x="351.728393" xlink:href="#md8d9844f8e" y="322.393969"/>
     <use style="fill:#00bfc4;stroke:#00bfc4;" x="351.661643" xlink:href="#md8d9844f8e" y="320.038309"/>
     <use style="fill:#00bfc4;stroke:#00bfc4;" x="302.333394" xlink:href="#md8d9844f8e" y="146.552737"/>
     <use style="fill:#00bfc4;stroke:#00bfc4;" x="375.310709" xlink:href="#md8d9844f8e" y="200.616624"/>
     <use style="fill:#00bfc4;stroke:#00bfc4;" x="412.162673" xlink:href="#md8d9844f8e" y="151.657895"/>
     <use style="fill:#00bfc4;stroke:#00bfc4;" x="362.486355" xlink:href="#md8d9844f8e" y="209.851728"/>
     <use style="fill:#00bfc4;stroke:#00bfc4;" x="352.070003" xlink:href="#md8d9844f8e" y="194.39487"/>
     <use style="fill:#00bfc4;stroke:#00bfc4;" x="347.877329" xlink:href="#md8d9844f8e" y="161.220675"/>
     <use style="fill:#00bfc4;stroke:#00bfc4;" x="281.440615" xlink:href="#md8d9844f8e" y="165.831462"/>
     <use style="fill:#00bfc4;stroke:#00bfc4;" x="346.515638" xlink:href="#md8d9844f8e" y="160.855527"/>
     <use style="fill:#00bfc4;stroke:#00bfc4;" x="366.865013" xlink:href="#md8d9844f8e" y="132.515293"/>
    </g>
   </g>
   <g id="matplotlib.axis_1">
    <g id="xtick_1">
     <g id="line2d_1">
      <defs>
       <path d="M 0 0 
L 0 3.5 
" id="md7771cdbf2" style="stroke:#000000;stroke-width:0.8;"/>
      </defs>
      <g>
       <use style="stroke:#000000;stroke-width:0.8;" x="121.65094" xlink:href="#md7771cdbf2" y="378"/>
      </g>
     </g>
     <g id="text_1">
      <!-- −15 -->
      <defs>
       <path d="M 10.59375 35.5 
L 73.1875 35.5 
L 73.1875 27.203125 
L 10.59375 27.203125 
z
" id="DejaVuSans-8722"/>
       <path d="M 12.40625 8.296875 
L 28.515625 8.296875 
L 28.515625 63.921875 
L 10.984375 60.40625 
L 10.984375 69.390625 
L 28.421875 72.90625 
L 38.28125 72.90625 
L 38.28125 8.296875 
L 54.390625 8.296875 
L 54.390625 0 
L 12.40625 0 
z
" id="DejaVuSans-49"/>
       <path d="M 10.796875 72.90625 
L 49.515625 72.90625 
L 49.515625 64.59375 
L 19.828125 64.59375 
L 19.828125 46.734375 
Q 21.96875 47.46875 24.109375 47.828125 
Q 26.265625 48.1875 28.421875 48.1875 
Q 40.625 48.1875 47.75 41.5 
Q 54.890625 34.8125 54.890625 23.390625 
Q 54.890625 11.625 47.5625 5.09375 
Q 40.234375 -1.421875 26.90625 -1.421875 
Q 22.3125 -1.421875 17.546875 -0.640625 
Q 12.796875 0.140625 7.71875 1.703125 
L 7.71875 11.625 
Q 12.109375 9.234375 16.796875 8.0625 
Q 21.484375 6.890625 26.703125 6.890625 
Q 35.15625 6.890625 40.078125 11.328125 
Q 45.015625 15.765625 45.015625 23.390625 
Q 45.015625 31 40.078125 35.4375 
Q 35.15625 39.890625 26.703125 39.890625 
Q 22.75 39.890625 18.8125 39.015625 
Q 14.890625 38.140625 10.796875 36.28125 
z
" id="DejaVuSans-53"/>
      </defs>
      <g transform="translate(111.098597 392.598437)scale(0.1 -0.1)">
       <use xlink:href="#DejaVuSans-8722"/>
       <use x="83.789062" xlink:href="#DejaVuSans-49"/>
       <use x="147.412109" xlink:href="#DejaVuSans-53"/>
      </g>
     </g>
    </g>
    <g id="xtick_2">
     <g id="line2d_2">
      <g>
       <use style="stroke:#000000;stroke-width:0.8;" x="205.925978" xlink:href="#md7771cdbf2" y="378"/>
      </g>
     </g>
     <g id="text_2">
      <!-- −10 -->
      <defs>
       <path d="M 31.78125 66.40625 
Q 24.171875 66.40625 20.328125 58.90625 
Q 16.5 51.421875 16.5 36.375 
Q 16.5 21.390625 20.328125 13.890625 
Q 24.171875 6.390625 31.78125 6.390625 
Q 39.453125 6.390625 43.28125 13.890625 
Q 47.125 21.390625 47.125 36.375 
Q 47.125 51.421875 43.28125 58.90625 
Q 39.453125 66.40625 31.78125 66.40625 
z
M 31.78125 74.21875 
Q 44.046875 74.21875 50.515625 64.515625 
Q 56.984375 54.828125 56.984375 36.375 
Q 56.984375 17.96875 50.515625 8.265625 
Q 44.046875 -1.421875 31.78125 -1.421875 
Q 19.53125 -1.421875 13.0625 8.265625 
Q 6.59375 17.96875 6.59375 36.375 
Q 6.59375 54.828125 13.0625 64.515625 
Q 19.53125 74.21875 31.78125 74.21875 
z
" id="DejaVuSans-48"/>
      </defs>
      <g transform="translate(195.373634 392.598437)scale(0.1 -0.1)">
       <use xlink:href="#DejaVuSans-8722"/>
       <use x="83.789062" xlink:href="#DejaVuSans-49"/>
       <use x="147.412109" xlink:href="#DejaVuSans-48"/>
      </g>
     </g>
    </g>
    <g id="xtick_3">
     <g id="line2d_3">
      <g>
       <use style="stroke:#000000;stroke-width:0.8;" x="290.201015" xlink:href="#md7771cdbf2" y="378"/>
      </g>
     </g>
     <g id="text_3">
      <!-- −5 -->
      <g transform="translate(282.829922 392.598437)scale(0.1 -0.1)">
       <use xlink:href="#DejaVuSans-8722"/>
       <use x="83.789062" xlink:href="#DejaVuSans-53"/>
      </g>
     </g>
    </g>
    <g id="xtick_4">
     <g id="line2d_4">
      <g>
       <use style="stroke:#000000;stroke-width:0.8;" x="374.476053" xlink:href="#md7771cdbf2" y="378"/>
      </g>
     </g>
     <g id="text_4">
      <!-- 0 -->
      <g transform="translate(371.294803 392.598437)scale(0.1 -0.1)">
       <use xlink:href="#DejaVuSans-48"/>
      </g>
     </g>
    </g>
    <g id="xtick_5">
     <g id="line2d_5">
      <g>
       <use style="stroke:#000000;stroke-width:0.8;" x="458.75109" xlink:href="#md7771cdbf2" y="378"/>
      </g>
     </g>
     <g id="text_5">
      <!-- 5 -->
      <g transform="translate(455.56984 392.598437)scale(0.1 -0.1)">
       <use xlink:href="#DejaVuSans-53"/>
      </g>
     </g>
    </g>
    <g id="xtick_6">
     <g id="line2d_6">
      <g>
       <use style="stroke:#000000;stroke-width:0.8;" x="543.026128" xlink:href="#md7771cdbf2" y="378"/>
      </g>
     </g>
     <g id="text_6">
      <!-- 10 -->
      <g transform="translate(536.663628 392.598437)scale(0.1 -0.1)">
       <use xlink:href="#DejaVuSans-49"/>
       <use x="63.623047" xlink:href="#DejaVuSans-48"/>
      </g>
     </g>
    </g>
    <g id="xtick_7">
     <g id="line2d_7">
      <g>
       <use style="stroke:#000000;stroke-width:0.8;" x="627.301165" xlink:href="#md7771cdbf2" y="378"/>
      </g>
     </g>
     <g id="text_7">
      <!-- 15 -->
      <g transform="translate(620.938665 392.598437)scale(0.1 -0.1)">
       <use xlink:href="#DejaVuSans-49"/>
       <use x="63.623047" xlink:href="#DejaVuSans-53"/>
      </g>
     </g>
    </g>
    <g id="text_8">
     <!-- tSNE-1 -->
     <defs>
      <path d="M 18.3125 70.21875 
L 18.3125 54.6875 
L 36.8125 54.6875 
L 36.8125 47.703125 
L 18.3125 47.703125 
L 18.3125 18.015625 
Q 18.3125 11.328125 20.140625 9.421875 
Q 21.96875 7.515625 27.59375 7.515625 
L 36.8125 7.515625 
L 36.8125 0 
L 27.59375 0 
Q 17.1875 0 13.234375 3.875 
Q 9.28125 7.765625 9.28125 18.015625 
L 9.28125 47.703125 
L 2.6875 47.703125 
L 2.6875 54.6875 
L 9.28125 54.6875 
L 9.28125 70.21875 
z
" id="DejaVuSans-116"/>
      <path d="M 53.515625 70.515625 
L 53.515625 60.890625 
Q 47.90625 63.578125 42.921875 64.890625 
Q 37.9375 66.21875 33.296875 66.21875 
Q 25.25 66.21875 20.875 63.09375 
Q 16.5 59.96875 16.5 54.203125 
Q 16.5 49.359375 19.40625 46.890625 
Q 22.3125 44.4375 30.421875 42.921875 
L 36.375 41.703125 
Q 47.40625 39.59375 52.65625 34.296875 
Q 57.90625 29 57.90625 20.125 
Q 57.90625 9.515625 50.796875 4.046875 
Q 43.703125 -1.421875 29.984375 -1.421875 
Q 24.8125 -1.421875 18.96875 -0.25 
Q 13.140625 0.921875 6.890625 3.21875 
L 6.890625 13.375 
Q 12.890625 10.015625 18.65625 8.296875 
Q 24.421875 6.59375 29.984375 6.59375 
Q 38.421875 6.59375 43.015625 9.90625 
Q 47.609375 13.234375 47.609375 19.390625 
Q 47.609375 24.75 44.3125 27.78125 
Q 41.015625 30.8125 33.5 32.328125 
L 27.484375 33.5 
Q 16.453125 35.6875 11.515625 40.375 
Q 6.59375 45.0625 6.59375 53.421875 
Q 6.59375 63.09375 13.40625 68.65625 
Q 20.21875 74.21875 32.171875 74.21875 
Q 37.3125 74.21875 42.625 73.28125 
Q 47.953125 72.359375 53.515625 70.515625 
z
" id="DejaVuSans-83"/>
      <path d="M 9.8125 72.90625 
L 23.09375 72.90625 
L 55.421875 11.921875 
L 55.421875 72.90625 
L 64.984375 72.90625 
L 64.984375 0 
L 51.703125 0 
L 19.390625 60.984375 
L 19.390625 0 
L 9.8125 0 
z
" id="DejaVuSans-78"/>
      <path d="M 9.8125 72.90625 
L 55.90625 72.90625 
L 55.90625 64.59375 
L 19.671875 64.59375 
L 19.671875 43.015625 
L 54.390625 43.015625 
L 54.390625 34.71875 
L 19.671875 34.71875 
L 19.671875 8.296875 
L 56.78125 8.296875 
L 56.78125 0 
L 9.8125 0 
z
" id="DejaVuSans-69"/>
      <path d="M 4.890625 31.390625 
L 31.203125 31.390625 
L 31.203125 23.390625 
L 4.890625 23.390625 
z
" id="DejaVuSans-45"/>
     </defs>
     <g transform="translate(351.980469 406.276563)scale(0.1 -0.1)">
      <use xlink:href="#DejaVuSans-116"/>
      <use x="39.208984" xlink:href="#DejaVuSans-83"/>
      <use x="102.685547" xlink:href="#DejaVuSans-78"/>
      <use x="177.490234" xlink:href="#DejaVuSans-69"/>
      <use x="240.673828" xlink:href="#DejaVuSans-45"/>
      <use x="276.757812" xlink:href="#DejaVuSans-49"/>
     </g>
    </g>
   </g>
   <g id="matplotlib.axis_2">
    <g id="ytick_1">
     <g id="line2d_8">
      <defs>
       <path d="M 0 0 
L -3.5 0 
" id="m2cdf950270" style="stroke:#000000;stroke-width:0.8;"/>
      </defs>
      <g>
       <use style="stroke:#000000;stroke-width:0.8;" x="90" xlink:href="#m2cdf950270" y="373.779397"/>
      </g>
     </g>
     <g id="text_9">
      <!-- −10.0 -->
      <defs>
       <path d="M 10.6875 12.40625 
L 21 12.40625 
L 21 0 
L 10.6875 0 
z
" id="DejaVuSans-46"/>
      </defs>
      <g transform="translate(52.354687 377.578616)scale(0.1 -0.1)">
       <use xlink:href="#DejaVuSans-8722"/>
       <use x="83.789062" xlink:href="#DejaVuSans-49"/>
       <use x="147.412109" xlink:href="#DejaVuSans-48"/>
       <use x="211.035156" xlink:href="#DejaVuSans-46"/>
       <use x="242.822266" xlink:href="#DejaVuSans-48"/>
      </g>
     </g>
    </g>
    <g id="ytick_2">
     <g id="line2d_9">
      <g>
       <use style="stroke:#000000;stroke-width:0.8;" x="90" xlink:href="#m2cdf950270" y="335.936638"/>
      </g>
     </g>
     <g id="text_10">
      <!-- −7.5 -->
      <defs>
       <path d="M 8.203125 72.90625 
L 55.078125 72.90625 
L 55.078125 68.703125 
L 28.609375 0 
L 18.3125 0 
L 43.21875 64.59375 
L 8.203125 64.59375 
z
" id="DejaVuSans-55"/>
      </defs>
      <g transform="translate(58.717187 339.735857)scale(0.1 -0.1)">
       <use xlink:href="#DejaVuSans-8722"/>
       <use x="83.789062" xlink:href="#DejaVuSans-55"/>
       <use x="147.412109" xlink:href="#DejaVuSans-46"/>
       <use x="179.199219" xlink:href="#DejaVuSans-53"/>
      </g>
     </g>
    </g>
    <g id="ytick_3">
     <g id="line2d_10">
      <g>
       <use style="stroke:#000000;stroke-width:0.8;" x="90" xlink:href="#m2cdf950270" y="298.093879"/>
      </g>
     </g>
     <g id="text_11">
      <!-- −5.0 -->
      <g transform="translate(58.717187 301.893098)scale(0.1 -0.1)">
       <use xlink:href="#DejaVuSans-8722"/>
       <use x="83.789062" xlink:href="#DejaVuSans-53"/>
       <use x="147.412109" xlink:href="#DejaVuSans-46"/>
       <use x="179.199219" xlink:href="#DejaVuSans-48"/>
      </g>
     </g>
    </g>
    <g id="ytick_4">
     <g id="line2d_11">
      <g>
       <use style="stroke:#000000;stroke-width:0.8;" x="90" xlink:href="#m2cdf950270" y="260.25112"/>
      </g>
     </g>
     <g id="text_12">
      <!-- −2.5 -->
      <defs>
       <path d="M 19.1875 8.296875 
L 53.609375 8.296875 
L 53.609375 0 
L 7.328125 0 
L 7.328125 8.296875 
Q 12.9375 14.109375 22.625 23.890625 
Q 32.328125 33.6875 34.8125 36.53125 
Q 39.546875 41.84375 41.421875 45.53125 
Q 43.3125 49.21875 43.3125 52.78125 
Q 43.3125 58.59375 39.234375 62.25 
Q 35.15625 65.921875 28.609375 65.921875 
Q 23.96875 65.921875 18.8125 64.3125 
Q 13.671875 62.703125 7.8125 59.421875 
L 7.8125 69.390625 
Q 13.765625 71.78125 18.9375 73 
Q 24.125 74.21875 28.421875 74.21875 
Q 39.75 74.21875 46.484375 68.546875 
Q 53.21875 62.890625 53.21875 53.421875 
Q 53.21875 48.921875 51.53125 44.890625 
Q 49.859375 40.875 45.40625 35.40625 
Q 44.1875 33.984375 37.640625 27.21875 
Q 31.109375 20.453125 19.1875 8.296875 
z
" id="DejaVuSans-50"/>
      </defs>
      <g transform="translate(58.717187 264.050338)scale(0.1 -0.1)">
       <use xlink:href="#DejaVuSans-8722"/>
       <use x="83.789062" xlink:href="#DejaVuSans-50"/>
       <use x="147.412109" xlink:href="#DejaVuSans-46"/>
       <use x="179.199219" xlink:href="#DejaVuSans-53"/>
      </g>
     </g>
    </g>
    <g id="ytick_5">
     <g id="line2d_12">
      <g>
       <use style="stroke:#000000;stroke-width:0.8;" x="90" xlink:href="#m2cdf950270" y="222.408361"/>
      </g>
     </g>
     <g id="text_13">
      <!-- 0.0 -->
      <g transform="translate(67.096875 226.207579)scale(0.1 -0.1)">
       <use xlink:href="#DejaVuSans-48"/>
       <use x="63.623047" xlink:href="#DejaVuSans-46"/>
       <use x="95.410156" xlink:href="#DejaVuSans-48"/>
      </g>
     </g>
    </g>
    <g id="ytick_6">
     <g id="line2d_13">
      <g>
       <use style="stroke:#000000;stroke-width:0.8;" x="90" xlink:href="#m2cdf950270" y="184.565601"/>
      </g>
     </g>
     <g id="text_14">
      <!-- 2.5 -->
      <g transform="translate(67.096875 188.36482)scale(0.1 -0.1)">
       <use xlink:href="#DejaVuSans-50"/>
       <use x="63.623047" xlink:href="#DejaVuSans-46"/>
       <use x="95.410156" xlink:href="#DejaVuSans-53"/>
      </g>
     </g>
    </g>
    <g id="ytick_7">
     <g id="line2d_14">
      <g>
       <use style="stroke:#000000;stroke-width:0.8;" x="90" xlink:href="#m2cdf950270" y="146.722842"/>
      </g>
     </g>
     <g id="text_15">
      <!-- 5.0 -->
      <g transform="translate(67.096875 150.522061)scale(0.1 -0.1)">
       <use xlink:href="#DejaVuSans-53"/>
       <use x="63.623047" xlink:href="#DejaVuSans-46"/>
       <use x="95.410156" xlink:href="#DejaVuSans-48"/>
      </g>
     </g>
    </g>
    <g id="ytick_8">
     <g id="line2d_15">
      <g>
       <use style="stroke:#000000;stroke-width:0.8;" x="90" xlink:href="#m2cdf950270" y="108.880083"/>
      </g>
     </g>
     <g id="text_16">
      <!-- 7.5 -->
      <g transform="translate(67.096875 112.679302)scale(0.1 -0.1)">
       <use xlink:href="#DejaVuSans-55"/>
       <use x="63.623047" xlink:href="#DejaVuSans-46"/>
       <use x="95.410156" xlink:href="#DejaVuSans-53"/>
      </g>
     </g>
    </g>
    <g id="ytick_9">
     <g id="line2d_16">
      <g>
       <use style="stroke:#000000;stroke-width:0.8;" x="90" xlink:href="#m2cdf950270" y="71.037324"/>
      </g>
     </g>
     <g id="text_17">
      <!-- 10.0 -->
      <g transform="translate(60.734375 74.836543)scale(0.1 -0.1)">
       <use xlink:href="#DejaVuSans-49"/>
       <use x="63.623047" xlink:href="#DejaVuSans-48"/>
       <use x="127.246094" xlink:href="#DejaVuSans-46"/>
       <use x="159.033203" xlink:href="#DejaVuSans-48"/>
      </g>
     </g>
    </g>
    <g id="text_18">
     <!-- tSNE-2 -->
     <g transform="translate(46.275 231.939531)rotate(-90)scale(0.1 -0.1)">
      <use xlink:href="#DejaVuSans-116"/>
      <use x="39.208984" xlink:href="#DejaVuSans-83"/>
      <use x="102.685547" xlink:href="#DejaVuSans-78"/>
      <use x="177.490234" xlink:href="#DejaVuSans-69"/>
      <use x="240.673828" xlink:href="#DejaVuSans-45"/>
      <use x="276.757812" xlink:href="#DejaVuSans-50"/>
     </g>
    </g>
   </g>
   <g id="patch_3">
    <path d="M 90 378 
L 90 51.84 
" style="fill:none;stroke:#000000;stroke-linecap:square;stroke-linejoin:miter;stroke-width:0.8;"/>
   </g>
   <g id="patch_4">
    <path d="M 648 378 
L 648 51.84 
" style="fill:none;stroke:#000000;stroke-linecap:square;stroke-linejoin:miter;stroke-width:0.8;"/>
   </g>
   <g id="patch_5">
    <path d="M 90 378 
L 648 378 
" style="fill:none;stroke:#000000;stroke-linecap:square;stroke-linejoin:miter;stroke-width:0.8;"/>
   </g>
   <g id="patch_6">
    <path d="M 90 51.84 
L 648 51.84 
" style="fill:none;stroke:#000000;stroke-linecap:square;stroke-linejoin:miter;stroke-width:0.8;"/>
   </g>
   <g id="legend_1">
    <g id="patch_7">
     <path d="M 563.125 89.19625 
L 641 89.19625 
Q 643 89.19625 643 87.19625 
L 643 58.84 
Q 643 56.84 641 56.84 
L 563.125 56.84 
Q 561.125 56.84 561.125 58.84 
L 561.125 87.19625 
Q 561.125 89.19625 563.125 89.19625 
z
" style="fill:#ffffff;opacity:0.8;stroke:#cccccc;stroke-linejoin:miter;"/>
    </g>
    <g id="PathCollection_3">
     <g>
      <use style="fill:#f8766d;stroke:#f8766d;" x="575.125" xlink:href="#m9b74de1955" y="65.813437"/>
     </g>
    </g>
    <g id="text_19">
     <!-- D003424 -->
     <defs>
      <path d="M 19.671875 64.796875 
L 19.671875 8.109375 
L 31.59375 8.109375 
Q 46.6875 8.109375 53.6875 14.9375 
Q 60.6875 21.78125 60.6875 36.53125 
Q 60.6875 51.171875 53.6875 57.984375 
Q 46.6875 64.796875 31.59375 64.796875 
z
M 9.8125 72.90625 
L 30.078125 72.90625 
Q 51.265625 72.90625 61.171875 64.09375 
Q 71.09375 55.28125 71.09375 36.53125 
Q 71.09375 17.671875 61.125 8.828125 
Q 51.171875 0 30.078125 0 
L 9.8125 0 
z
" id="DejaVuSans-68"/>
      <path d="M 40.578125 39.3125 
Q 47.65625 37.796875 51.625 33 
Q 55.609375 28.21875 55.609375 21.1875 
Q 55.609375 10.40625 48.1875 4.484375 
Q 40.765625 -1.421875 27.09375 -1.421875 
Q 22.515625 -1.421875 17.65625 -0.515625 
Q 12.796875 0.390625 7.625 2.203125 
L 7.625 11.71875 
Q 11.71875 9.328125 16.59375 8.109375 
Q 21.484375 6.890625 26.8125 6.890625 
Q 36.078125 6.890625 40.9375 10.546875 
Q 45.796875 14.203125 45.796875 21.1875 
Q 45.796875 27.640625 41.28125 31.265625 
Q 36.765625 34.90625 28.71875 34.90625 
L 20.21875 34.90625 
L 20.21875 43.015625 
L 29.109375 43.015625 
Q 36.375 43.015625 40.234375 45.921875 
Q 44.09375 48.828125 44.09375 54.296875 
Q 44.09375 59.90625 40.109375 62.90625 
Q 36.140625 65.921875 28.71875 65.921875 
Q 24.65625 65.921875 20.015625 65.03125 
Q 15.375 64.15625 9.8125 62.3125 
L 9.8125 71.09375 
Q 15.4375 72.65625 20.34375 73.4375 
Q 25.25 74.21875 29.59375 74.21875 
Q 40.828125 74.21875 47.359375 69.109375 
Q 53.90625 64.015625 53.90625 55.328125 
Q 53.90625 49.265625 50.4375 45.09375 
Q 46.96875 40.921875 40.578125 39.3125 
z
" id="DejaVuSans-51"/>
      <path d="M 37.796875 64.3125 
L 12.890625 25.390625 
L 37.796875 25.390625 
z
M 35.203125 72.90625 
L 47.609375 72.90625 
L 47.609375 25.390625 
L 58.015625 25.390625 
L 58.015625 17.1875 
L 47.609375 17.1875 
L 47.609375 0 
L 37.796875 0 
L 37.796875 17.1875 
L 4.890625 17.1875 
L 4.890625 26.703125 
z
" id="DejaVuSans-52"/>
     </defs>
     <g transform="translate(593.125 68.438437)scale(0.1 -0.1)">
      <use xlink:href="#DejaVuSans-68"/>
      <use x="77.001953" xlink:href="#DejaVuSans-48"/>
      <use x="140.625" xlink:href="#DejaVuSans-48"/>
      <use x="204.248047" xlink:href="#DejaVuSans-51"/>
      <use x="267.871094" xlink:href="#DejaVuSans-52"/>
      <use x="331.494141" xlink:href="#DejaVuSans-50"/>
      <use x="395.117188" xlink:href="#DejaVuSans-52"/>
     </g>
    </g>
    <g id="PathCollection_4">
     <g>
      <use style="fill:#00bfc4;stroke:#00bfc4;" x="575.125" xlink:href="#md8d9844f8e" y="80.491562"/>
     </g>
    </g>
    <g id="text_20">
     <!-- D006262 -->
     <defs>
      <path d="M 33.015625 40.375 
Q 26.375 40.375 22.484375 35.828125 
Q 18.609375 31.296875 18.609375 23.390625 
Q 18.609375 15.53125 22.484375 10.953125 
Q 26.375 6.390625 33.015625 6.390625 
Q 39.65625 6.390625 43.53125 10.953125 
Q 47.40625 15.53125 47.40625 23.390625 
Q 47.40625 31.296875 43.53125 35.828125 
Q 39.65625 40.375 33.015625 40.375 
z
M 52.59375 71.296875 
L 52.59375 62.3125 
Q 48.875 64.0625 45.09375 64.984375 
Q 41.3125 65.921875 37.59375 65.921875 
Q 27.828125 65.921875 22.671875 59.328125 
Q 17.53125 52.734375 16.796875 39.40625 
Q 19.671875 43.65625 24.015625 45.921875 
Q 28.375 48.1875 33.59375 48.1875 
Q 44.578125 48.1875 50.953125 41.515625 
Q 57.328125 34.859375 57.328125 23.390625 
Q 57.328125 12.15625 50.6875 5.359375 
Q 44.046875 -1.421875 33.015625 -1.421875 
Q 20.359375 -1.421875 13.671875 8.265625 
Q 6.984375 17.96875 6.984375 36.375 
Q 6.984375 53.65625 15.1875 63.9375 
Q 23.390625 74.21875 37.203125 74.21875 
Q 40.921875 74.21875 44.703125 73.484375 
Q 48.484375 72.75 52.59375 71.296875 
z
" id="DejaVuSans-54"/>
     </defs>
     <g transform="translate(593.125 83.116562)scale(0.1 -0.1)">
      <use xlink:href="#DejaVuSans-68"/>
      <use x="77.001953" xlink:href="#DejaVuSans-48"/>
      <use x="140.625" xlink:href="#DejaVuSans-48"/>
      <use x="204.248047" xlink:href="#DejaVuSans-54"/>
      <use x="267.871094" xlink:href="#DejaVuSans-50"/>
      <use x="331.494141" xlink:href="#DejaVuSans-54"/>
      <use x="395.117188" xlink:href="#DejaVuSans-50"/>
     </g>
    </g>
   </g>
  </g>
 </g>
 <defs>
  <clipPath id="p15e7429893">
   <rect height="326.16" width="558" x="90" y="51.84"/>
  </clipPath>
 </defs>
</svg>
