<?xml version="1.0" encoding="utf-8" standalone="no"?>
<!DOCTYPE svg PUBLIC "-//W3C//DTD SVG 1.1//EN"
  "http://www.w3.org/Graphics/SVG/1.1/DTD/svg11.dtd">
<!-- Created with matplotlib (https://matplotlib.org/) -->
<svg height="576pt" version="1.1" viewBox="0 0 576 576" width="576pt" xmlns="http://www.w3.org/2000/svg" xmlns:xlink="http://www.w3.org/1999/xlink">
 <defs>
  <style type="text/css">
*{stroke-linecap:butt;stroke-linejoin:round;}
  </style>
 </defs>
 <g id="figure_1">
  <g id="patch_1">
   <path d="M 0 576 
L 576 576 
L 576 0 
L 0 0 
z
" style="fill:#ffffff;"/>
  </g>
  <g id="axes_1">
   <g id="patch_2">
    <path d="M 72 512.64 
L 518.4 512.64 
L 518.4 69.12 
L 72 69.12 
z
" style="fill:#ffffff;"/>
   </g>
   <g id="matplotlib.axis_1">
    <g id="xtick_1">
     <g id="line2d_1">
      <path clip-path="url(#p0db8737a1a)" d="M 72 512.64 
L 72 69.12 
" style="fill:none;stroke:#b0b0b0;stroke-linecap:square;stroke-width:0.8;"/>
     </g>
     <g id="line2d_2">
      <defs>
       <path d="M 0 0 
L 0 3.5 
" id="m2629ab7ae0" style="stroke:#000000;stroke-width:0.8;"/>
      </defs>
      <g>
       <use style="stroke:#000000;stroke-width:0.8;" x="72" xlink:href="#m2629ab7ae0" y="512.64"/>
      </g>
     </g>
     <g id="text_1">
      <!-- 0.0 -->
      <defs>
       <path d="M 31.78125 66.40625 
Q 24.171875 66.40625 20.328125 58.90625 
Q 16.5 51.421875 16.5 36.375 
Q 16.5 21.390625 20.328125 13.890625 
Q 24.171875 6.390625 31.78125 6.390625 
Q 39.453125 6.390625 43.28125 13.890625 
Q 47.125 21.390625 47.125 36.375 
Q 47.125 51.421875 43.28125 58.90625 
Q 39.453125 66.40625 31.78125 66.40625 
z
M 31.78125 74.21875 
Q 44.046875 74.21875 50.515625 64.515625 
Q 56.984375 54.828125 56.984375 36.375 
Q 56.984375 17.96875 50.515625 8.265625 
Q 44.046875 -1.421875 31.78125 -1.421875 
Q 19.53125 -1.421875 13.0625 8.265625 
Q 6.59375 17.96875 6.59375 36.375 
Q 6.59375 54.828125 13.0625 64.515625 
Q 19.53125 74.21875 31.78125 74.21875 
z
" id="DejaVuSans-48"/>
       <path d="M 10.6875 12.40625 
L 21 12.40625 
L 21 0 
L 10.6875 0 
z
" id="DejaVuSans-46"/>
      </defs>
      <g transform="translate(64.048438 527.238438)scale(0.1 -0.1)">
       <use xlink:href="#DejaVuSans-48"/>
       <use x="63.623047" xlink:href="#DejaVuSans-46"/>
       <use x="95.410156" xlink:href="#DejaVuSans-48"/>
      </g>
     </g>
    </g>
    <g id="xtick_2">
     <g id="line2d_3">
      <path clip-path="url(#p0db8737a1a)" d="M 161.28 512.64 
L 161.28 69.12 
" style="fill:none;stroke:#b0b0b0;stroke-linecap:square;stroke-width:0.8;"/>
     </g>
     <g id="line2d_4">
      <g>
       <use style="stroke:#000000;stroke-width:0.8;" x="161.28" xlink:href="#m2629ab7ae0" y="512.64"/>
      </g>
     </g>
     <g id="text_2">
      <!-- 0.2 -->
      <defs>
       <path d="M 19.1875 8.296875 
L 53.609375 8.296875 
L 53.609375 0 
L 7.328125 0 
L 7.328125 8.296875 
Q 12.9375 14.109375 22.625 23.890625 
Q 32.328125 33.6875 34.8125 36.53125 
Q 39.546875 41.84375 41.421875 45.53125 
Q 43.3125 49.21875 43.3125 52.78125 
Q 43.3125 58.59375 39.234375 62.25 
Q 35.15625 65.921875 28.609375 65.921875 
Q 23.96875 65.921875 18.8125 64.3125 
Q 13.671875 62.703125 7.8125 59.421875 
L 7.8125 69.390625 
Q 13.765625 71.78125 18.9375 73 
Q 24.125 74.21875 28.421875 74.21875 
Q 39.75 74.21875 46.484375 68.546875 
Q 53.21875 62.890625 53.21875 53.421875 
Q 53.21875 48.921875 51.53125 44.890625 
Q 49.859375 40.875 45.40625 35.40625 
Q 44.1875 33.984375 37.640625 27.21875 
Q 31.109375 20.453125 19.1875 8.296875 
z
" id="DejaVuSans-50"/>
      </defs>
      <g transform="translate(153.328438 527.238438)scale(0.1 -0.1)">
       <use xlink:href="#DejaVuSans-48"/>
       <use x="63.623047" xlink:href="#DejaVuSans-46"/>
       <use x="95.410156" xlink:href="#DejaVuSans-50"/>
      </g>
     </g>
    </g>
    <g id="xtick_3">
     <g id="line2d_5">
      <path clip-path="url(#p0db8737a1a)" d="M 250.56 512.64 
L 250.56 69.12 
" style="fill:none;stroke:#b0b0b0;stroke-linecap:square;stroke-width:0.8;"/>
     </g>
     <g id="line2d_6">
      <g>
       <use style="stroke:#000000;stroke-width:0.8;" x="250.56" xlink:href="#m2629ab7ae0" y="512.64"/>
      </g>
     </g>
     <g id="text_3">
      <!-- 0.4 -->
      <defs>
       <path d="M 37.796875 64.3125 
L 12.890625 25.390625 
L 37.796875 25.390625 
z
M 35.203125 72.90625 
L 47.609375 72.90625 
L 47.609375 25.390625 
L 58.015625 25.390625 
L 58.015625 17.1875 
L 47.609375 17.1875 
L 47.609375 0 
L 37.796875 0 
L 37.796875 17.1875 
L 4.890625 17.1875 
L 4.890625 26.703125 
z
" id="DejaVuSans-52"/>
      </defs>
      <g transform="translate(242.608438 527.238438)scale(0.1 -0.1)">
       <use xlink:href="#DejaVuSans-48"/>
       <use x="63.623047" xlink:href="#DejaVuSans-46"/>
       <use x="95.410156" xlink:href="#DejaVuSans-52"/>
      </g>
     </g>
    </g>
    <g id="xtick_4">
     <g id="line2d_7">
      <path clip-path="url(#p0db8737a1a)" d="M 339.84 512.64 
L 339.84 69.12 
" style="fill:none;stroke:#b0b0b0;stroke-linecap:square;stroke-width:0.8;"/>
     </g>
     <g id="line2d_8">
      <g>
       <use style="stroke:#000000;stroke-width:0.8;" x="339.84" xlink:href="#m2629ab7ae0" y="512.64"/>
      </g>
     </g>
     <g id="text_4">
      <!-- 0.6 -->
      <defs>
       <path d="M 33.015625 40.375 
Q 26.375 40.375 22.484375 35.828125 
Q 18.609375 31.296875 18.609375 23.390625 
Q 18.609375 15.53125 22.484375 10.953125 
Q 26.375 6.390625 33.015625 6.390625 
Q 39.65625 6.390625 43.53125 10.953125 
Q 47.40625 15.53125 47.40625 23.390625 
Q 47.40625 31.296875 43.53125 35.828125 
Q 39.65625 40.375 33.015625 40.375 
z
M 52.59375 71.296875 
L 52.59375 62.3125 
Q 48.875 64.0625 45.09375 64.984375 
Q 41.3125 65.921875 37.59375 65.921875 
Q 27.828125 65.921875 22.671875 59.328125 
Q 17.53125 52.734375 16.796875 39.40625 
Q 19.671875 43.65625 24.015625 45.921875 
Q 28.375 48.1875 33.59375 48.1875 
Q 44.578125 48.1875 50.953125 41.515625 
Q 57.328125 34.859375 57.328125 23.390625 
Q 57.328125 12.15625 50.6875 5.359375 
Q 44.046875 -1.421875 33.015625 -1.421875 
Q 20.359375 -1.421875 13.671875 8.265625 
Q 6.984375 17.96875 6.984375 36.375 
Q 6.984375 53.65625 15.1875 63.9375 
Q 23.390625 74.21875 37.203125 74.21875 
Q 40.921875 74.21875 44.703125 73.484375 
Q 48.484375 72.75 52.59375 71.296875 
z
" id="DejaVuSans-54"/>
      </defs>
      <g transform="translate(331.888438 527.238438)scale(0.1 -0.1)">
       <use xlink:href="#DejaVuSans-48"/>
       <use x="63.623047" xlink:href="#DejaVuSans-46"/>
       <use x="95.410156" xlink:href="#DejaVuSans-54"/>
      </g>
     </g>
    </g>
    <g id="xtick_5">
     <g id="line2d_9">
      <path clip-path="url(#p0db8737a1a)" d="M 429.12 512.64 
L 429.12 69.12 
" style="fill:none;stroke:#b0b0b0;stroke-linecap:square;stroke-width:0.8;"/>
     </g>
     <g id="line2d_10">
      <g>
       <use style="stroke:#000000;stroke-width:0.8;" x="429.12" xlink:href="#m2629ab7ae0" y="512.64"/>
      </g>
     </g>
     <g id="text_5">
      <!-- 0.8 -->
      <defs>
       <path d="M 31.78125 34.625 
Q 24.75 34.625 20.71875 30.859375 
Q 16.703125 27.09375 16.703125 20.515625 
Q 16.703125 13.921875 20.71875 10.15625 
Q 24.75 6.390625 31.78125 6.390625 
Q 38.8125 6.390625 42.859375 10.171875 
Q 46.921875 13.96875 46.921875 20.515625 
Q 46.921875 27.09375 42.890625 30.859375 
Q 38.875 34.625 31.78125 34.625 
z
M 21.921875 38.8125 
Q 15.578125 40.375 12.03125 44.71875 
Q 8.5 49.078125 8.5 55.328125 
Q 8.5 64.0625 14.71875 69.140625 
Q 20.953125 74.21875 31.78125 74.21875 
Q 42.671875 74.21875 48.875 69.140625 
Q 55.078125 64.0625 55.078125 55.328125 
Q 55.078125 49.078125 51.53125 44.71875 
Q 48 40.375 41.703125 38.8125 
Q 48.828125 37.15625 52.796875 32.3125 
Q 56.78125 27.484375 56.78125 20.515625 
Q 56.78125 9.90625 50.3125 4.234375 
Q 43.84375 -1.421875 31.78125 -1.421875 
Q 19.734375 -1.421875 13.25 4.234375 
Q 6.78125 9.90625 6.78125 20.515625 
Q 6.78125 27.484375 10.78125 32.3125 
Q 14.796875 37.15625 21.921875 38.8125 
z
M 18.3125 54.390625 
Q 18.3125 48.734375 21.84375 45.5625 
Q 25.390625 42.390625 31.78125 42.390625 
Q 38.140625 42.390625 41.71875 45.5625 
Q 45.3125 48.734375 45.3125 54.390625 
Q 45.3125 60.0625 41.71875 63.234375 
Q 38.140625 66.40625 31.78125 66.40625 
Q 25.390625 66.40625 21.84375 63.234375 
Q 18.3125 60.0625 18.3125 54.390625 
z
" id="DejaVuSans-56"/>
      </defs>
      <g transform="translate(421.168437 527.238438)scale(0.1 -0.1)">
       <use xlink:href="#DejaVuSans-48"/>
       <use x="63.623047" xlink:href="#DejaVuSans-46"/>
       <use x="95.410156" xlink:href="#DejaVuSans-56"/>
      </g>
     </g>
    </g>
    <g id="xtick_6">
     <g id="line2d_11">
      <path clip-path="url(#p0db8737a1a)" d="M 518.4 512.64 
L 518.4 69.12 
" style="fill:none;stroke:#b0b0b0;stroke-linecap:square;stroke-width:0.8;"/>
     </g>
     <g id="line2d_12">
      <g>
       <use style="stroke:#000000;stroke-width:0.8;" x="518.4" xlink:href="#m2629ab7ae0" y="512.64"/>
      </g>
     </g>
     <g id="text_6">
      <!-- 1.0 -->
      <defs>
       <path d="M 12.40625 8.296875 
L 28.515625 8.296875 
L 28.515625 63.921875 
L 10.984375 60.40625 
L 10.984375 69.390625 
L 28.421875 72.90625 
L 38.28125 72.90625 
L 38.28125 8.296875 
L 54.390625 8.296875 
L 54.390625 0 
L 12.40625 0 
z
" id="DejaVuSans-49"/>
      </defs>
      <g transform="translate(510.448437 527.238438)scale(0.1 -0.1)">
       <use xlink:href="#DejaVuSans-49"/>
       <use x="63.623047" xlink:href="#DejaVuSans-46"/>
       <use x="95.410156" xlink:href="#DejaVuSans-48"/>
      </g>
     </g>
    </g>
    <g id="text_7">
     <!-- False Positive Rate -->
     <defs>
      <path d="M 9.8125 72.90625 
L 51.703125 72.90625 
L 51.703125 64.59375 
L 19.671875 64.59375 
L 19.671875 43.109375 
L 48.578125 43.109375 
L 48.578125 34.8125 
L 19.671875 34.8125 
L 19.671875 0 
L 9.8125 0 
z
" id="DejaVuSans-70"/>
      <path d="M 34.28125 27.484375 
Q 23.390625 27.484375 19.1875 25 
Q 14.984375 22.515625 14.984375 16.5 
Q 14.984375 11.71875 18.140625 8.90625 
Q 21.296875 6.109375 26.703125 6.109375 
Q 34.1875 6.109375 38.703125 11.40625 
Q 43.21875 16.703125 43.21875 25.484375 
L 43.21875 27.484375 
z
M 52.203125 31.203125 
L 52.203125 0 
L 43.21875 0 
L 43.21875 8.296875 
Q 40.140625 3.328125 35.546875 0.953125 
Q 30.953125 -1.421875 24.3125 -1.421875 
Q 15.921875 -1.421875 10.953125 3.296875 
Q 6 8.015625 6 15.921875 
Q 6 25.140625 12.171875 29.828125 
Q 18.359375 34.515625 30.609375 34.515625 
L 43.21875 34.515625 
L 43.21875 35.40625 
Q 43.21875 41.609375 39.140625 45 
Q 35.0625 48.390625 27.6875 48.390625 
Q 23 48.390625 18.546875 47.265625 
Q 14.109375 46.140625 10.015625 43.890625 
L 10.015625 52.203125 
Q 14.9375 54.109375 19.578125 55.046875 
Q 24.21875 56 28.609375 56 
Q 40.484375 56 46.34375 49.84375 
Q 52.203125 43.703125 52.203125 31.203125 
z
" id="DejaVuSans-97"/>
      <path d="M 9.421875 75.984375 
L 18.40625 75.984375 
L 18.40625 0 
L 9.421875 0 
z
" id="DejaVuSans-108"/>
      <path d="M 44.28125 53.078125 
L 44.28125 44.578125 
Q 40.484375 46.53125 36.375 47.5 
Q 32.28125 48.484375 27.875 48.484375 
Q 21.1875 48.484375 17.84375 46.4375 
Q 14.5 44.390625 14.5 40.28125 
Q 14.5 37.15625 16.890625 35.375 
Q 19.28125 33.59375 26.515625 31.984375 
L 29.59375 31.296875 
Q 39.15625 29.25 43.1875 25.515625 
Q 47.21875 21.78125 47.21875 15.09375 
Q 47.21875 7.46875 41.1875 3.015625 
Q 35.15625 -1.421875 24.609375 -1.421875 
Q 20.21875 -1.421875 15.453125 -0.5625 
Q 10.6875 0.296875 5.421875 2 
L 5.421875 11.28125 
Q 10.40625 8.6875 15.234375 7.390625 
Q 20.0625 6.109375 24.8125 6.109375 
Q 31.15625 6.109375 34.5625 8.28125 
Q 37.984375 10.453125 37.984375 14.40625 
Q 37.984375 18.0625 35.515625 20.015625 
Q 33.0625 21.96875 24.703125 23.78125 
L 21.578125 24.515625 
Q 13.234375 26.265625 9.515625 29.90625 
Q 5.8125 33.546875 5.8125 39.890625 
Q 5.8125 47.609375 11.28125 51.796875 
Q 16.75 56 26.8125 56 
Q 31.78125 56 36.171875 55.265625 
Q 40.578125 54.546875 44.28125 53.078125 
z
" id="DejaVuSans-115"/>
      <path d="M 56.203125 29.59375 
L 56.203125 25.203125 
L 14.890625 25.203125 
Q 15.484375 15.921875 20.484375 11.0625 
Q 25.484375 6.203125 34.421875 6.203125 
Q 39.59375 6.203125 44.453125 7.46875 
Q 49.3125 8.734375 54.109375 11.28125 
L 54.109375 2.78125 
Q 49.265625 0.734375 44.1875 -0.34375 
Q 39.109375 -1.421875 33.890625 -1.421875 
Q 20.796875 -1.421875 13.15625 6.1875 
Q 5.515625 13.8125 5.515625 26.8125 
Q 5.515625 40.234375 12.765625 48.109375 
Q 20.015625 56 32.328125 56 
Q 43.359375 56 49.78125 48.890625 
Q 56.203125 41.796875 56.203125 29.59375 
z
M 47.21875 32.234375 
Q 47.125 39.59375 43.09375 43.984375 
Q 39.0625 48.390625 32.421875 48.390625 
Q 24.90625 48.390625 20.390625 44.140625 
Q 15.875 39.890625 15.1875 32.171875 
z
" id="DejaVuSans-101"/>
      <path id="DejaVuSans-32"/>
      <path d="M 19.671875 64.796875 
L 19.671875 37.40625 
L 32.078125 37.40625 
Q 38.96875 37.40625 42.71875 40.96875 
Q 46.484375 44.53125 46.484375 51.125 
Q 46.484375 57.671875 42.71875 61.234375 
Q 38.96875 64.796875 32.078125 64.796875 
z
M 9.8125 72.90625 
L 32.078125 72.90625 
Q 44.34375 72.90625 50.609375 67.359375 
Q 56.890625 61.8125 56.890625 51.125 
Q 56.890625 40.328125 50.609375 34.8125 
Q 44.34375 29.296875 32.078125 29.296875 
L 19.671875 29.296875 
L 19.671875 0 
L 9.8125 0 
z
" id="DejaVuSans-80"/>
      <path d="M 30.609375 48.390625 
Q 23.390625 48.390625 19.1875 42.75 
Q 14.984375 37.109375 14.984375 27.296875 
Q 14.984375 17.484375 19.15625 11.84375 
Q 23.34375 6.203125 30.609375 6.203125 
Q 37.796875 6.203125 41.984375 11.859375 
Q 46.1875 17.53125 46.1875 27.296875 
Q 46.1875 37.015625 41.984375 42.703125 
Q 37.796875 48.390625 30.609375 48.390625 
z
M 30.609375 56 
Q 42.328125 56 49.015625 48.375 
Q 55.71875 40.765625 55.71875 27.296875 
Q 55.71875 13.875 49.015625 6.21875 
Q 42.328125 -1.421875 30.609375 -1.421875 
Q 18.84375 -1.421875 12.171875 6.21875 
Q 5.515625 13.875 5.515625 27.296875 
Q 5.515625 40.765625 12.171875 48.375 
Q 18.84375 56 30.609375 56 
z
" id="DejaVuSans-111"/>
      <path d="M 9.421875 54.6875 
L 18.40625 54.6875 
L 18.40625 0 
L 9.421875 0 
z
M 9.421875 75.984375 
L 18.40625 75.984375 
L 18.40625 64.59375 
L 9.421875 64.59375 
z
" id="DejaVuSans-105"/>
      <path d="M 18.3125 70.21875 
L 18.3125 54.6875 
L 36.8125 54.6875 
L 36.8125 47.703125 
L 18.3125 47.703125 
L 18.3125 18.015625 
Q 18.3125 11.328125 20.140625 9.421875 
Q 21.96875 7.515625 27.59375 7.515625 
L 36.8125 7.515625 
L 36.8125 0 
L 27.59375 0 
Q 17.1875 0 13.234375 3.875 
Q 9.28125 7.765625 9.28125 18.015625 
L 9.28125 47.703125 
L 2.6875 47.703125 
L 2.6875 54.6875 
L 9.28125 54.6875 
L 9.28125 70.21875 
z
" id="DejaVuSans-116"/>
      <path d="M 2.984375 54.6875 
L 12.5 54.6875 
L 29.59375 8.796875 
L 46.6875 54.6875 
L 56.203125 54.6875 
L 35.6875 0 
L 23.484375 0 
z
" id="DejaVuSans-118"/>
      <path d="M 44.390625 34.1875 
Q 47.5625 33.109375 50.5625 29.59375 
Q 53.5625 26.078125 56.59375 19.921875 
L 66.609375 0 
L 56 0 
L 46.6875 18.703125 
Q 43.0625 26.03125 39.671875 28.421875 
Q 36.28125 30.8125 30.421875 30.8125 
L 19.671875 30.8125 
L 19.671875 0 
L 9.8125 0 
L 9.8125 72.90625 
L 32.078125 72.90625 
Q 44.578125 72.90625 50.734375 67.671875 
Q 56.890625 62.453125 56.890625 51.90625 
Q 56.890625 45.015625 53.6875 40.46875 
Q 50.484375 35.9375 44.390625 34.1875 
z
M 19.671875 64.796875 
L 19.671875 38.921875 
L 32.078125 38.921875 
Q 39.203125 38.921875 42.84375 42.21875 
Q 46.484375 45.515625 46.484375 51.90625 
Q 46.484375 58.296875 42.84375 61.546875 
Q 39.203125 64.796875 32.078125 64.796875 
z
" id="DejaVuSans-82"/>
     </defs>
     <g transform="translate(247.994531 540.916563)scale(0.1 -0.1)">
      <use xlink:href="#DejaVuSans-70"/>
      <use x="57.378906" xlink:href="#DejaVuSans-97"/>
      <use x="118.658203" xlink:href="#DejaVuSans-108"/>
      <use x="146.441406" xlink:href="#DejaVuSans-115"/>
      <use x="198.541016" xlink:href="#DejaVuSans-101"/>
      <use x="260.064453" xlink:href="#DejaVuSans-32"/>
      <use x="291.851562" xlink:href="#DejaVuSans-80"/>
      <use x="352.107422" xlink:href="#DejaVuSans-111"/>
      <use x="413.289062" xlink:href="#DejaVuSans-115"/>
      <use x="465.388672" xlink:href="#DejaVuSans-105"/>
      <use x="493.171875" xlink:href="#DejaVuSans-116"/>
      <use x="532.380859" xlink:href="#DejaVuSans-105"/>
      <use x="560.164062" xlink:href="#DejaVuSans-118"/>
      <use x="619.34375" xlink:href="#DejaVuSans-101"/>
      <use x="680.867188" xlink:href="#DejaVuSans-32"/>
      <use x="712.654297" xlink:href="#DejaVuSans-82"/>
      <use x="782.105469" xlink:href="#DejaVuSans-97"/>
      <use x="843.384766" xlink:href="#DejaVuSans-116"/>
      <use x="882.59375" xlink:href="#DejaVuSans-101"/>
     </g>
    </g>
   </g>
   <g id="matplotlib.axis_2">
    <g id="ytick_1">
     <g id="line2d_13">
      <path clip-path="url(#p0db8737a1a)" d="M 72 512.64 
L 518.4 512.64 
" style="fill:none;stroke:#b0b0b0;stroke-linecap:square;stroke-width:0.8;"/>
     </g>
     <g id="line2d_14">
      <defs>
       <path d="M 0 0 
L -3.5 0 
" id="m85e4dac790" style="stroke:#000000;stroke-width:0.8;"/>
      </defs>
      <g>
       <use style="stroke:#000000;stroke-width:0.8;" x="72" xlink:href="#m85e4dac790" y="512.64"/>
      </g>
     </g>
     <g id="text_8">
      <!-- 0.0 -->
      <g transform="translate(49.096875 516.439219)scale(0.1 -0.1)">
       <use xlink:href="#DejaVuSans-48"/>
       <use x="63.623047" xlink:href="#DejaVuSans-46"/>
       <use x="95.410156" xlink:href="#DejaVuSans-48"/>
      </g>
     </g>
    </g>
    <g id="ytick_2">
     <g id="line2d_15">
      <path clip-path="url(#p0db8737a1a)" d="M 72 428.16 
L 518.4 428.16 
" style="fill:none;stroke:#b0b0b0;stroke-linecap:square;stroke-width:0.8;"/>
     </g>
     <g id="line2d_16">
      <g>
       <use style="stroke:#000000;stroke-width:0.8;" x="72" xlink:href="#m85e4dac790" y="428.16"/>
      </g>
     </g>
     <g id="text_9">
      <!-- 0.2 -->
      <g transform="translate(49.096875 431.959219)scale(0.1 -0.1)">
       <use xlink:href="#DejaVuSans-48"/>
       <use x="63.623047" xlink:href="#DejaVuSans-46"/>
       <use x="95.410156" xlink:href="#DejaVuSans-50"/>
      </g>
     </g>
    </g>
    <g id="ytick_3">
     <g id="line2d_17">
      <path clip-path="url(#p0db8737a1a)" d="M 72 343.68 
L 518.4 343.68 
" style="fill:none;stroke:#b0b0b0;stroke-linecap:square;stroke-width:0.8;"/>
     </g>
     <g id="line2d_18">
      <g>
       <use style="stroke:#000000;stroke-width:0.8;" x="72" xlink:href="#m85e4dac790" y="343.68"/>
      </g>
     </g>
     <g id="text_10">
      <!-- 0.4 -->
      <g transform="translate(49.096875 347.479219)scale(0.1 -0.1)">
       <use xlink:href="#DejaVuSans-48"/>
       <use x="63.623047" xlink:href="#DejaVuSans-46"/>
       <use x="95.410156" xlink:href="#DejaVuSans-52"/>
      </g>
     </g>
    </g>
    <g id="ytick_4">
     <g id="line2d_19">
      <path clip-path="url(#p0db8737a1a)" d="M 72 259.2 
L 518.4 259.2 
" style="fill:none;stroke:#b0b0b0;stroke-linecap:square;stroke-width:0.8;"/>
     </g>
     <g id="line2d_20">
      <g>
       <use style="stroke:#000000;stroke-width:0.8;" x="72" xlink:href="#m85e4dac790" y="259.2"/>
      </g>
     </g>
     <g id="text_11">
      <!-- 0.6 -->
      <g transform="translate(49.096875 262.999219)scale(0.1 -0.1)">
       <use xlink:href="#DejaVuSans-48"/>
       <use x="63.623047" xlink:href="#DejaVuSans-46"/>
       <use x="95.410156" xlink:href="#DejaVuSans-54"/>
      </g>
     </g>
    </g>
    <g id="ytick_5">
     <g id="line2d_21">
      <path clip-path="url(#p0db8737a1a)" d="M 72 174.72 
L 518.4 174.72 
" style="fill:none;stroke:#b0b0b0;stroke-linecap:square;stroke-width:0.8;"/>
     </g>
     <g id="line2d_22">
      <g>
       <use style="stroke:#000000;stroke-width:0.8;" x="72" xlink:href="#m85e4dac790" y="174.72"/>
      </g>
     </g>
     <g id="text_12">
      <!-- 0.8 -->
      <g transform="translate(49.096875 178.519219)scale(0.1 -0.1)">
       <use xlink:href="#DejaVuSans-48"/>
       <use x="63.623047" xlink:href="#DejaVuSans-46"/>
       <use x="95.410156" xlink:href="#DejaVuSans-56"/>
      </g>
     </g>
    </g>
    <g id="ytick_6">
     <g id="line2d_23">
      <path clip-path="url(#p0db8737a1a)" d="M 72 90.24 
L 518.4 90.24 
" style="fill:none;stroke:#b0b0b0;stroke-linecap:square;stroke-width:0.8;"/>
     </g>
     <g id="line2d_24">
      <g>
       <use style="stroke:#000000;stroke-width:0.8;" x="72" xlink:href="#m85e4dac790" y="90.24"/>
      </g>
     </g>
     <g id="text_13">
      <!-- 1.0 -->
      <g transform="translate(49.096875 94.039219)scale(0.1 -0.1)">
       <use xlink:href="#DejaVuSans-49"/>
       <use x="63.623047" xlink:href="#DejaVuSans-46"/>
       <use x="95.410156" xlink:href="#DejaVuSans-48"/>
      </g>
     </g>
    </g>
    <g id="text_14">
     <!-- True Positive Rate -->
     <defs>
      <path d="M -0.296875 72.90625 
L 61.375 72.90625 
L 61.375 64.59375 
L 35.5 64.59375 
L 35.5 0 
L 25.59375 0 
L 25.59375 64.59375 
L -0.296875 64.59375 
z
" id="DejaVuSans-84"/>
      <path d="M 41.109375 46.296875 
Q 39.59375 47.171875 37.8125 47.578125 
Q 36.03125 48 33.890625 48 
Q 26.265625 48 22.1875 43.046875 
Q 18.109375 38.09375 18.109375 28.8125 
L 18.109375 0 
L 9.078125 0 
L 9.078125 54.6875 
L 18.109375 54.6875 
L 18.109375 46.1875 
Q 20.953125 51.171875 25.484375 53.578125 
Q 30.03125 56 36.53125 56 
Q 37.453125 56 38.578125 55.875 
Q 39.703125 55.765625 41.0625 55.515625 
z
" id="DejaVuSans-114"/>
      <path d="M 8.5 21.578125 
L 8.5 54.6875 
L 17.484375 54.6875 
L 17.484375 21.921875 
Q 17.484375 14.15625 20.5 10.265625 
Q 23.53125 6.390625 29.59375 6.390625 
Q 36.859375 6.390625 41.078125 11.03125 
Q 45.3125 15.671875 45.3125 23.6875 
L 45.3125 54.6875 
L 54.296875 54.6875 
L 54.296875 0 
L 45.3125 0 
L 45.3125 8.40625 
Q 42.046875 3.421875 37.71875 1 
Q 33.40625 -1.421875 27.6875 -1.421875 
Q 18.265625 -1.421875 13.375 4.4375 
Q 8.5 10.296875 8.5 21.578125 
z
M 31.109375 56 
z
" id="DejaVuSans-117"/>
     </defs>
     <g transform="translate(43.017187 336.426094)rotate(-90)scale(0.1 -0.1)">
      <use xlink:href="#DejaVuSans-84"/>
      <use x="60.865234" xlink:href="#DejaVuSans-114"/>
      <use x="101.978516" xlink:href="#DejaVuSans-117"/>
      <use x="165.357422" xlink:href="#DejaVuSans-101"/>
      <use x="226.880859" xlink:href="#DejaVuSans-32"/>
      <use x="258.667969" xlink:href="#DejaVuSans-80"/>
      <use x="318.923828" xlink:href="#DejaVuSans-111"/>
      <use x="380.105469" xlink:href="#DejaVuSans-115"/>
      <use x="432.205078" xlink:href="#DejaVuSans-105"/>
      <use x="459.988281" xlink:href="#DejaVuSans-116"/>
      <use x="499.197266" xlink:href="#DejaVuSans-105"/>
      <use x="526.980469" xlink:href="#DejaVuSans-118"/>
      <use x="586.160156" xlink:href="#DejaVuSans-101"/>
      <use x="647.683594" xlink:href="#DejaVuSans-32"/>
      <use x="679.470703" xlink:href="#DejaVuSans-82"/>
      <use x="748.921875" xlink:href="#DejaVuSans-97"/>
      <use x="810.201172" xlink:href="#DejaVuSans-116"/>
      <use x="849.410156" xlink:href="#DejaVuSans-101"/>
     </g>
    </g>
   </g>
   <g id="line2d_25">
    <path clip-path="url(#p0db8737a1a)" d="M 72 512.64 
L 72 501.809231 
L 72.381538 501.809231 
L 72.381538 496.754872 
L 72.763077 496.754872 
L 72.763077 495.671795 
L 73.144615 495.671795 
L 73.144615 487.729231 
L 73.526154 487.729231 
L 73.526154 486.285128 
L 73.907692 486.285128 
L 73.907692 483.035897 
L 74.670769 483.035897 
L 74.670769 469.316923 
L 75.052308 469.316923 
L 75.052308 468.594872 
L 75.433846 468.594872 
L 75.433846 464.262564 
L 75.815385 464.262564 
L 75.815385 455.597949 
L 76.196923 455.597949 
L 76.196923 454.514872 
L 76.578462 454.514872 
L 76.578462 453.431795 
L 76.96 453.431795 
L 76.96 453.070769 
L 77.341538 453.070769 
L 77.341538 451.265641 
L 77.723077 451.265641 
L 77.723077 449.460513 
L 78.104615 449.460513 
L 78.104615 443.684103 
L 79.249231 443.684103 
L 79.249231 442.962051 
L 79.630769 442.962051 
L 79.630769 439.351795 
L 80.012308 439.351795 
L 80.012308 435.741538 
L 80.393846 435.741538 
L 80.393846 435.019487 
L 81.538462 435.019487 
L 81.538462 433.575385 
L 81.92 433.575385 
L 81.92 432.131282 
L 82.683077 432.131282 
L 82.683077 428.882051 
L 83.446154 428.882051 
L 83.446154 428.521026 
L 83.827692 428.521026 
L 83.827692 425.632821 
L 84.209231 425.632821 
L 84.209231 424.910769 
L 84.590769 424.910769 
L 84.590769 423.466667 
L 84.972308 423.466667 
L 84.972308 423.105641 
L 85.353846 423.105641 
L 85.353846 422.022564 
L 85.735385 422.022564 
L 85.735385 419.85641 
L 86.116923 419.85641 
L 86.116923 412.274872 
L 86.498462 412.274872 
L 86.498462 411.191795 
L 86.88 411.191795 
L 86.88 410.469744 
L 87.261538 410.469744 
L 87.261538 408.30359 
L 87.643077 408.30359 
L 87.643077 405.054359 
L 88.406154 405.054359 
L 88.406154 404.332308 
L 88.787692 404.332308 
L 88.787692 398.194872 
L 89.169231 398.194872 
L 89.169231 397.111795 
L 89.550769 397.111795 
L 89.550769 396.750769 
L 90.313846 396.750769 
L 90.313846 396.389744 
L 90.695385 396.389744 
L 90.695385 393.501538 
L 91.076923 393.501538 
L 91.076923 392.057436 
L 91.458462 392.057436 
L 91.458462 389.891282 
L 91.84 389.891282 
L 91.84 389.530256 
L 92.221538 389.530256 
L 92.221538 388.086154 
L 92.984615 388.086154 
L 92.984615 387.725128 
L 93.366154 387.725128 
L 93.366154 387.364103 
L 93.747692 387.364103 
L 93.747692 385.92 
L 94.129231 385.92 
L 94.129231 385.558974 
L 94.510769 385.558974 
L 94.510769 384.475897 
L 94.892308 384.475897 
L 94.892308 381.948718 
L 95.273846 381.948718 
L 95.273846 381.226667 
L 95.655385 381.226667 
L 95.655385 378.338462 
L 96.8 378.338462 
L 96.8 376.894359 
L 97.181538 376.894359 
L 97.181538 375.811282 
L 97.563077 375.811282 
L 97.563077 375.089231 
L 98.326154 375.089231 
L 98.326154 374.728205 
L 98.707692 374.728205 
L 98.707692 374.006154 
L 99.089231 374.006154 
L 99.089231 373.645128 
L 99.470769 373.645128 
L 99.470769 373.284103 
L 99.852308 373.284103 
L 99.852308 371.84 
L 100.233846 371.84 
L 100.233846 371.478974 
L 100.615385 371.478974 
L 100.615385 367.146667 
L 100.996923 367.146667 
L 100.996923 366.785641 
L 102.141538 366.785641 
L 102.141538 362.814359 
L 102.904615 362.814359 
L 102.904615 361.009231 
L 103.286154 361.009231 
L 103.286154 360.648205 
L 103.667692 360.648205 
L 103.667692 360.287179 
L 104.049231 360.287179 
L 104.049231 359.204103 
L 104.430769 359.204103 
L 104.430769 358.843077 
L 104.812308 358.843077 
L 104.812308 358.121026 
L 105.193846 358.121026 
L 105.193846 357.398974 
L 105.575385 357.398974 
L 105.575385 356.315897 
L 106.338462 356.315897 
L 106.338462 355.954872 
L 106.72 355.954872 
L 106.72 355.593846 
L 107.101538 355.593846 
L 107.101538 353.427692 
L 107.483077 353.427692 
L 107.483077 353.066667 
L 108.627692 353.066667 
L 108.627692 352.705641 
L 109.009231 352.705641 
L 109.009231 345.485128 
L 109.390769 345.485128 
L 109.390769 344.402051 
L 109.772308 344.402051 
L 109.772308 343.318974 
L 110.153846 343.318974 
L 110.153846 340.430769 
L 110.535385 340.430769 
L 110.535385 339.347692 
L 110.916923 339.347692 
L 110.916923 338.986667 
L 111.298462 338.986667 
L 111.298462 335.737436 
L 112.061538 335.737436 
L 112.061538 335.37641 
L 112.824615 335.37641 
L 112.824615 331.766154 
L 113.206154 331.766154 
L 113.206154 330.683077 
L 114.350769 330.683077 
L 114.350769 328.877949 
L 114.732308 328.877949 
L 114.732308 328.516923 
L 115.113846 328.516923 
L 115.113846 325.989744 
L 115.495385 325.989744 
L 115.495385 324.906667 
L 115.876923 324.906667 
L 115.876923 323.82359 
L 117.021538 323.82359 
L 117.021538 322.379487 
L 117.403077 322.379487 
L 117.403077 322.018462 
L 117.784615 322.018462 
L 117.784615 319.852308 
L 118.547692 319.852308 
L 118.547692 319.491282 
L 118.929231 319.491282 
L 118.929231 317.325128 
L 119.692308 317.325128 
L 119.692308 316.603077 
L 120.073846 316.603077 
L 120.073846 315.881026 
L 120.836923 315.881026 
L 120.836923 315.158974 
L 121.218462 315.158974 
L 121.218462 314.797949 
L 121.6 314.797949 
L 121.6 313.714872 
L 121.981538 313.714872 
L 121.981538 311.548718 
L 122.363077 311.548718 
L 122.363077 310.826667 
L 123.126154 310.826667 
L 123.126154 307.938462 
L 123.889231 307.938462 
L 123.889231 307.577436 
L 125.033846 307.577436 
L 125.033846 307.21641 
L 125.415385 307.21641 
L 125.415385 306.133333 
L 125.796923 306.133333 
L 125.796923 305.772308 
L 126.178462 305.772308 
L 126.178462 303.606154 
L 126.56 303.606154 
L 126.56 302.523077 
L 127.323077 302.523077 
L 127.323077 300.356923 
L 128.086154 300.356923 
L 128.086154 299.995897 
L 128.467692 299.995897 
L 128.467692 298.912821 
L 128.849231 298.912821 
L 128.849231 295.66359 
L 129.230769 295.66359 
L 129.230769 295.302564 
L 129.612308 295.302564 
L 129.612308 294.941538 
L 130.375385 294.941538 
L 130.375385 293.13641 
L 130.756923 293.13641 
L 130.756923 290.970256 
L 131.138462 290.970256 
L 131.138462 289.887179 
L 131.52 289.887179 
L 131.52 288.804103 
L 131.901538 288.804103 
L 131.901538 288.443077 
L 132.283077 288.443077 
L 132.283077 286.998974 
L 132.664615 286.998974 
L 132.664615 285.554872 
L 133.046154 285.554872 
L 133.046154 284.832821 
L 133.427692 284.832821 
L 133.427692 284.471795 
L 133.809231 284.471795 
L 133.809231 282.305641 
L 134.190769 282.305641 
L 134.190769 280.500513 
L 134.953846 280.500513 
L 134.953846 279.778462 
L 136.098462 279.778462 
L 136.098462 279.417436 
L 136.48 279.417436 
L 136.48 279.05641 
L 136.861538 279.05641 
L 136.861538 278.695385 
L 137.243077 278.695385 
L 137.243077 277.973333 
L 137.624615 277.973333 
L 137.624615 277.612308 
L 138.006154 277.612308 
L 138.006154 276.890256 
L 138.387692 276.890256 
L 138.387692 276.168205 
L 138.769231 276.168205 
L 138.769231 275.807179 
L 139.150769 275.807179 
L 139.150769 274.002051 
L 139.532308 274.002051 
L 139.532308 273.641026 
L 139.913846 273.641026 
L 139.913846 273.28 
L 140.295385 273.28 
L 140.295385 272.918974 
L 141.058462 272.918974 
L 141.058462 271.835897 
L 141.44 271.835897 
L 141.44 271.113846 
L 142.584615 271.113846 
L 142.584615 270.391795 
L 143.347692 270.391795 
L 143.347692 268.586667 
L 143.729231 268.586667 
L 143.729231 268.225641 
L 144.110769 268.225641 
L 144.110769 267.50359 
L 144.492308 267.50359 
L 144.492308 266.420513 
L 145.255385 266.420513 
L 145.255385 265.698462 
L 145.636923 265.698462 
L 145.636923 264.615385 
L 146.781538 264.615385 
L 146.781538 262.810256 
L 147.544615 262.810256 
L 147.544615 261.727179 
L 148.307692 261.727179 
L 148.307692 259.561026 
L 149.452308 259.561026 
L 149.452308 258.838974 
L 149.833846 258.838974 
L 149.833846 258.477949 
L 150.215385 258.477949 
L 150.215385 257.755897 
L 150.596923 257.755897 
L 150.596923 257.033846 
L 150.978462 257.033846 
L 150.978462 256.672821 
L 151.36 256.672821 
L 151.36 256.311795 
L 151.741538 256.311795 
L 151.741538 254.867692 
L 152.886154 254.867692 
L 152.886154 253.784615 
L 153.267692 253.784615 
L 153.267692 253.42359 
L 153.649231 253.42359 
L 153.649231 251.257436 
L 154.030769 251.257436 
L 154.030769 249.452308 
L 154.412308 249.452308 
L 154.412308 248.369231 
L 155.175385 248.369231 
L 155.175385 248.008205 
L 155.556923 248.008205 
L 155.556923 247.647179 
L 155.938462 247.647179 
L 155.938462 245.481026 
L 156.32 245.481026 
L 156.32 244.397949 
L 156.701538 244.397949 
L 156.701538 244.036923 
L 158.227692 244.036923 
L 158.227692 243.675897 
L 158.990769 243.675897 
L 158.990769 242.592821 
L 159.372308 242.592821 
L 159.372308 239.34359 
L 159.753846 239.34359 
L 159.753846 238.621538 
L 160.135385 238.621538 
L 160.135385 238.260513 
L 160.898462 238.260513 
L 160.898462 237.899487 
L 161.28 237.899487 
L 161.28 236.094359 
L 162.043077 236.094359 
L 162.043077 235.733333 
L 162.424615 235.733333 
L 162.424615 235.011282 
L 162.806154 235.011282 
L 162.806154 233.928205 
L 163.187692 233.928205 
L 163.187692 233.567179 
L 164.332308 233.567179 
L 164.332308 233.206154 
L 165.095385 233.206154 
L 165.095385 232.845128 
L 165.858462 232.845128 
L 165.858462 232.484103 
L 166.24 232.484103 
L 166.24 231.762051 
L 167.766154 231.762051 
L 167.766154 231.401026 
L 168.910769 231.401026 
L 168.910769 230.317949 
L 169.292308 230.317949 
L 169.292308 228.873846 
L 169.673846 228.873846 
L 169.673846 228.151795 
L 170.436923 228.151795 
L 170.436923 227.790769 
L 171.581538 227.790769 
L 171.581538 226.707692 
L 172.344615 226.707692 
L 172.344615 224.180513 
L 172.726154 224.180513 
L 172.726154 220.931282 
L 173.870769 220.931282 
L 173.870769 219.126154 
L 174.252308 219.126154 
L 174.252308 217.682051 
L 174.633846 217.682051 
L 174.633846 216.237949 
L 175.015385 216.237949 
L 175.015385 215.515897 
L 175.778462 215.515897 
L 175.778462 215.154872 
L 176.541538 215.154872 
L 176.541538 214.793846 
L 176.923077 214.793846 
L 176.923077 214.071795 
L 177.686154 214.071795 
L 177.686154 213.349744 
L 178.449231 213.349744 
L 178.449231 210.822564 
L 178.830769 210.822564 
L 178.830769 210.100513 
L 179.212308 210.100513 
L 179.212308 208.65641 
L 179.975385 208.65641 
L 179.975385 208.295385 
L 180.738462 208.295385 
L 180.738462 207.934359 
L 181.12 207.934359 
L 181.12 207.212308 
L 181.501538 207.212308 
L 181.501538 206.851282 
L 181.883077 206.851282 
L 181.883077 205.407179 
L 182.646154 205.407179 
L 182.646154 205.046154 
L 183.790769 205.046154 
L 183.790769 203.602051 
L 184.172308 203.602051 
L 184.172308 202.518974 
L 184.553846 202.518974 
L 184.553846 201.796923 
L 184.935385 201.796923 
L 184.935385 201.074872 
L 185.316923 201.074872 
L 185.316923 200.713846 
L 185.698462 200.713846 
L 185.698462 200.352821 
L 186.08 200.352821 
L 186.08 199.991795 
L 187.224615 199.991795 
L 187.224615 199.269744 
L 187.987692 199.269744 
L 187.987692 198.547692 
L 189.513846 198.547692 
L 189.513846 197.825641 
L 190.658462 197.825641 
L 190.658462 196.742564 
L 191.803077 196.742564 
L 191.803077 196.020513 
L 192.184615 196.020513 
L 192.184615 195.298462 
L 192.566154 195.298462 
L 192.566154 194.57641 
L 195.236923 194.57641 
L 195.236923 194.215385 
L 196.381538 194.215385 
L 196.381538 193.854359 
L 196.763077 193.854359 
L 196.763077 193.493333 
L 197.144615 193.493333 
L 197.144615 193.132308 
L 199.433846 193.132308 
L 199.433846 192.410256 
L 199.815385 192.410256 
L 199.815385 192.049231 
L 200.196923 192.049231 
L 200.196923 191.688205 
L 201.341538 191.688205 
L 201.341538 190.966154 
L 201.723077 190.966154 
L 201.723077 190.605128 
L 202.867692 190.605128 
L 202.867692 190.244103 
L 203.249231 190.244103 
L 203.249231 189.883077 
L 203.630769 189.883077 
L 203.630769 189.522051 
L 205.156923 189.522051 
L 205.156923 188.8 
L 205.92 188.8 
L 205.92 188.077949 
L 207.064615 188.077949 
L 207.064615 186.272821 
L 207.827692 186.272821 
L 207.827692 185.550769 
L 208.972308 185.550769 
L 208.972308 183.384615 
L 209.735385 183.384615 
L 209.735385 182.301538 
L 211.261538 182.301538 
L 211.261538 181.579487 
L 213.550769 181.579487 
L 213.550769 180.857436 
L 214.695385 180.857436 
L 214.695385 180.49641 
L 216.984615 180.49641 
L 216.984615 180.135385 
L 219.655385 180.135385 
L 219.655385 179.774359 
L 220.036923 179.774359 
L 220.036923 179.413333 
L 220.418462 179.413333 
L 220.418462 178.330256 
L 220.8 178.330256 
L 220.8 177.969231 
L 221.563077 177.969231 
L 221.563077 177.608205 
L 221.944615 177.608205 
L 221.944615 177.247179 
L 222.326154 177.247179 
L 222.326154 176.164103 
L 222.707692 176.164103 
L 222.707692 173.997949 
L 223.089231 173.997949 
L 223.089231 173.636923 
L 223.852308 173.636923 
L 223.852308 173.275897 
L 224.615385 173.275897 
L 224.615385 172.914872 
L 225.76 172.914872 
L 225.76 171.109744 
L 227.286154 171.109744 
L 227.286154 170.748718 
L 229.193846 170.748718 
L 229.193846 170.026667 
L 229.575385 170.026667 
L 229.575385 169.665641 
L 230.338462 169.665641 
L 230.338462 169.304615 
L 231.483077 169.304615 
L 231.483077 168.94359 
L 231.864615 168.94359 
L 231.864615 168.582564 
L 232.246154 168.582564 
L 232.246154 167.138462 
L 232.627692 167.138462 
L 232.627692 166.41641 
L 233.009231 166.41641 
L 233.009231 165.694359 
L 233.772308 165.694359 
L 233.772308 165.333333 
L 234.916923 165.333333 
L 234.916923 164.972308 
L 236.061538 164.972308 
L 236.061538 164.611282 
L 236.443077 164.611282 
L 236.443077 163.528205 
L 236.824615 163.528205 
L 236.824615 162.806154 
L 238.350769 162.806154 
L 238.350769 161.723077 
L 238.732308 161.723077 
L 238.732308 159.556923 
L 240.64 159.556923 
L 240.64 159.195897 
L 241.021538 159.195897 
L 241.021538 158.473846 
L 241.403077 158.473846 
L 241.403077 158.112821 
L 242.929231 158.112821 
L 242.929231 157.029744 
L 243.310769 157.029744 
L 243.310769 156.307692 
L 243.692308 156.307692 
L 243.692308 155.946667 
L 244.073846 155.946667 
L 244.073846 155.585641 
L 244.455385 155.585641 
L 244.455385 155.224615 
L 245.218462 155.224615 
L 245.218462 154.141538 
L 245.6 154.141538 
L 245.6 153.419487 
L 247.889231 153.419487 
L 247.889231 153.058462 
L 248.652308 153.058462 
L 248.652308 152.33641 
L 249.033846 152.33641 
L 249.033846 151.975385 
L 249.415385 151.975385 
L 249.415385 151.614359 
L 249.796923 151.614359 
L 249.796923 151.253333 
L 250.178462 151.253333 
L 250.178462 150.892308 
L 252.849231 150.892308 
L 252.849231 149.809231 
L 254.375385 149.809231 
L 254.375385 149.448205 
L 255.138462 149.448205 
L 255.138462 149.087179 
L 255.52 149.087179 
L 255.52 148.726154 
L 255.901538 148.726154 
L 255.901538 148.365128 
L 256.283077 148.365128 
L 256.283077 148.004103 
L 256.664615 148.004103 
L 256.664615 147.643077 
L 257.809231 147.643077 
L 257.809231 147.282051 
L 258.190769 147.282051 
L 258.190769 146.921026 
L 258.572308 146.921026 
L 258.572308 146.198974 
L 258.953846 146.198974 
L 258.953846 145.837949 
L 259.335385 145.837949 
L 259.335385 145.476923 
L 260.098462 145.476923 
L 260.098462 145.115897 
L 261.624615 145.115897 
L 261.624615 144.754872 
L 262.387692 144.754872 
L 262.387692 144.393846 
L 264.295385 144.393846 
L 264.295385 143.310769 
L 265.058462 143.310769 
L 265.058462 142.949744 
L 265.44 142.949744 
L 265.44 142.588718 
L 267.347692 142.588718 
L 267.347692 141.866667 
L 268.492308 141.866667 
L 268.492308 141.505641 
L 269.255385 141.505641 
L 269.255385 138.617436 
L 269.636923 138.617436 
L 269.636923 138.25641 
L 270.4 138.25641 
L 270.4 137.895385 
L 271.163077 137.895385 
L 271.163077 137.534359 
L 271.544615 137.534359 
L 271.544615 135.729231 
L 273.452308 135.729231 
L 273.452308 135.368205 
L 273.833846 135.368205 
L 273.833846 134.646154 
L 274.215385 134.646154 
L 274.215385 133.924103 
L 274.596923 133.924103 
L 274.596923 133.563077 
L 275.36 133.563077 
L 275.36 133.202051 
L 275.741538 133.202051 
L 275.741538 132.118974 
L 276.123077 132.118974 
L 276.123077 131.757949 
L 277.267692 131.757949 
L 277.267692 131.035897 
L 277.649231 131.035897 
L 277.649231 130.674872 
L 278.412308 130.674872 
L 278.412308 130.313846 
L 280.32 130.313846 
L 280.32 129.591795 
L 280.701538 129.591795 
L 280.701538 129.230769 
L 283.372308 129.230769 
L 283.372308 128.508718 
L 283.753846 128.508718 
L 283.753846 127.786667 
L 286.424615 127.786667 
L 286.424615 127.425641 
L 287.187692 127.425641 
L 287.187692 127.064615 
L 292.910769 127.064615 
L 292.910769 126.70359 
L 294.818462 126.70359 
L 294.818462 126.342564 
L 297.107692 126.342564 
L 297.107692 125.620513 
L 299.778462 125.620513 
L 299.778462 124.898462 
L 300.16 124.898462 
L 300.16 124.537436 
L 300.923077 124.537436 
L 300.923077 124.17641 
L 303.212308 124.17641 
L 303.212308 123.454359 
L 304.356923 123.454359 
L 304.356923 122.732308 
L 305.501538 122.732308 
L 305.501538 122.371282 
L 306.646154 122.371282 
L 306.646154 121.649231 
L 309.316923 121.649231 
L 309.316923 121.288205 
L 309.698462 121.288205 
L 309.698462 120.566154 
L 310.843077 120.566154 
L 310.843077 119.483077 
L 311.606154 119.483077 
L 311.606154 118.4 
L 311.987692 118.4 
L 311.987692 118.038974 
L 315.421538 118.038974 
L 315.421538 117.677949 
L 316.566154 117.677949 
L 316.566154 116.955897 
L 317.329231 116.955897 
L 317.329231 116.594872 
L 319.618462 116.594872 
L 319.618462 116.233846 
L 320 116.233846 
L 320 115.872821 
L 320.381538 115.872821 
L 320.381538 115.511795 
L 321.526154 115.511795 
L 321.526154 115.150769 
L 321.907692 115.150769 
L 321.907692 114.789744 
L 322.289231 114.789744 
L 322.289231 114.428718 
L 323.815385 114.428718 
L 323.815385 114.067692 
L 324.196923 114.067692 
L 324.196923 112.984615 
L 324.578462 112.984615 
L 324.578462 112.62359 
L 326.486154 112.62359 
L 326.486154 111.901538 
L 328.012308 111.901538 
L 328.012308 111.540513 
L 329.538462 111.540513 
L 329.538462 111.179487 
L 332.972308 111.179487 
L 332.972308 110.818462 
L 333.353846 110.818462 
L 333.353846 110.457436 
L 333.735385 110.457436 
L 333.735385 110.09641 
L 340.221538 110.09641 
L 340.221538 109.735385 
L 345.944615 109.735385 
L 345.944615 109.374359 
L 347.852308 109.374359 
L 347.852308 109.013333 
L 348.233846 109.013333 
L 348.233846 108.652308 
L 350.141538 108.652308 
L 350.141538 108.291282 
L 350.904615 108.291282 
L 350.904615 107.569231 
L 351.286154 107.569231 
L 351.286154 107.208205 
L 353.956923 107.208205 
L 353.956923 106.847179 
L 354.72 106.847179 
L 354.72 106.125128 
L 355.483077 106.125128 
L 355.483077 105.764103 
L 359.68 105.764103 
L 359.68 105.403077 
L 360.443077 105.403077 
L 360.443077 105.042051 
L 366.547692 105.042051 
L 366.547692 104.681026 
L 371.889231 104.681026 
L 371.889231 104.32 
L 376.467692 104.32 
L 376.467692 103.958974 
L 379.52 103.958974 
L 379.52 103.597949 
L 384.48 103.597949 
L 384.48 103.236923 
L 385.624615 103.236923 
L 385.624615 102.514872 
L 386.006154 102.514872 
L 386.006154 102.153846 
L 388.295385 102.153846 
L 388.295385 101.792821 
L 389.44 101.792821 
L 389.44 101.431795 
L 390.966154 101.431795 
L 390.966154 101.070769 
L 394.781538 101.070769 
L 394.781538 100.709744 
L 396.689231 100.709744 
L 396.689231 100.348718 
L 401.267692 100.348718 
L 401.267692 99.987692 
L 408.135385 99.987692 
L 408.135385 99.626667 
L 408.516923 99.626667 
L 408.516923 99.265641 
L 409.28 99.265641 
L 409.28 98.54359 
L 410.806154 98.54359 
L 410.806154 98.182564 
L 411.569231 98.182564 
L 411.569231 97.460513 
L 412.713846 97.460513 
L 412.713846 97.099487 
L 415.384615 97.099487 
L 415.384615 96.377436 
L 419.2 96.377436 
L 419.2 96.01641 
L 419.963077 96.01641 
L 419.963077 95.294359 
L 422.252308 95.294359 
L 422.252308 94.933333 
L 433.698462 94.933333 
L 433.698462 94.572308 
L 439.421538 94.572308 
L 439.421538 94.211282 
L 440.184615 94.211282 
L 440.184615 93.850256 
L 440.566154 93.850256 
L 440.566154 93.489231 
L 441.710769 93.489231 
L 441.710769 93.128205 
L 448.196923 93.128205 
L 448.196923 92.045128 
L 464.603077 92.045128 
L 464.603077 91.684103 
L 468.8 91.684103 
L 468.8 91.323077 
L 482.535385 91.323077 
L 482.535385 90.962051 
L 511.150769 90.962051 
L 511.150769 90.601026 
L 515.347692 90.601026 
L 515.347692 90.24 
L 518.4 90.24 
L 518.4 90.24 
" style="fill:none;stroke:#ff8c00;stroke-linecap:square;stroke-width:2;"/>
   </g>
   <g id="line2d_26">
    <path clip-path="url(#p0db8737a1a)" d="M 72 512.64 
L 518.4 90.24 
" style="fill:none;stroke:#000080;stroke-dasharray:7.4,3.2;stroke-dashoffset:0;stroke-width:2;"/>
   </g>
   <g id="patch_3">
    <path d="M 72 512.64 
L 72 69.12 
" style="fill:none;stroke:#000000;stroke-linecap:square;stroke-linejoin:miter;stroke-width:0.8;"/>
   </g>
   <g id="patch_4">
    <path d="M 518.4 512.64 
L 518.4 69.12 
" style="fill:none;stroke:#000000;stroke-linecap:square;stroke-linejoin:miter;stroke-width:0.8;"/>
   </g>
   <g id="patch_5">
    <path d="M 72 512.64 
L 518.4 512.64 
" style="fill:none;stroke:#000000;stroke-linecap:square;stroke-linejoin:miter;stroke-width:0.8;"/>
   </g>
   <g id="patch_6">
    <path d="M 72 69.12 
L 518.4 69.12 
" style="fill:none;stroke:#000000;stroke-linecap:square;stroke-linejoin:miter;stroke-width:0.8;"/>
   </g>
   <g id="legend_1">
    <g id="patch_7">
     <path d="M 427.081875 509.64 
L 514.2 509.64 
Q 515.4 509.64 515.4 508.44 
L 515.4 500.233125 
Q 515.4 499.033125 514.2 499.033125 
L 427.081875 499.033125 
Q 425.881875 499.033125 425.881875 500.233125 
L 425.881875 508.44 
Q 425.881875 509.64 427.081875 509.64 
z
" style="fill:#ffffff;opacity:0.8;stroke:#cccccc;stroke-linejoin:miter;"/>
    </g>
    <g id="line2d_27">
     <path d="M 428.281875 503.892187 
L 440.281875 503.892187 
" style="fill:none;stroke:#ff8c00;stroke-linecap:square;stroke-width:2;"/>
    </g>
    <g id="line2d_28"/>
    <g id="text_15">
     <!-- D006262 (area =0.81) -->
     <defs>
      <path d="M 19.671875 64.796875 
L 19.671875 8.109375 
L 31.59375 8.109375 
Q 46.6875 8.109375 53.6875 14.9375 
Q 60.6875 21.78125 60.6875 36.53125 
Q 60.6875 51.171875 53.6875 57.984375 
Q 46.6875 64.796875 31.59375 64.796875 
z
M 9.8125 72.90625 
L 30.078125 72.90625 
Q 51.265625 72.90625 61.171875 64.09375 
Q 71.09375 55.28125 71.09375 36.53125 
Q 71.09375 17.671875 61.125 8.828125 
Q 51.171875 0 30.078125 0 
L 9.8125 0 
z
" id="DejaVuSans-68"/>
      <path d="M 31 75.875 
Q 24.46875 64.65625 21.28125 53.65625 
Q 18.109375 42.671875 18.109375 31.390625 
Q 18.109375 20.125 21.3125 9.0625 
Q 24.515625 -2 31 -13.1875 
L 23.1875 -13.1875 
Q 15.875 -1.703125 12.234375 9.375 
Q 8.59375 20.453125 8.59375 31.390625 
Q 8.59375 42.28125 12.203125 53.3125 
Q 15.828125 64.359375 23.1875 75.875 
z
" id="DejaVuSans-40"/>
      <path d="M 10.59375 45.40625 
L 73.1875 45.40625 
L 73.1875 37.203125 
L 10.59375 37.203125 
z
M 10.59375 25.484375 
L 73.1875 25.484375 
L 73.1875 17.1875 
L 10.59375 17.1875 
z
" id="DejaVuSans-61"/>
      <path d="M 8.015625 75.875 
L 15.828125 75.875 
Q 23.140625 64.359375 26.78125 53.3125 
Q 30.421875 42.28125 30.421875 31.390625 
Q 30.421875 20.453125 26.78125 9.375 
Q 23.140625 -1.703125 15.828125 -13.1875 
L 8.015625 -13.1875 
Q 14.5 -2 17.703125 9.0625 
Q 20.90625 20.125 20.90625 31.390625 
Q 20.90625 42.671875 17.703125 53.65625 
Q 14.5 64.65625 8.015625 75.875 
z
" id="DejaVuSans-41"/>
     </defs>
     <g transform="translate(445.081875 505.992188)scale(0.06 -0.06)">
      <use xlink:href="#DejaVuSans-68"/>
      <use x="77.001953" xlink:href="#DejaVuSans-48"/>
      <use x="140.625" xlink:href="#DejaVuSans-48"/>
      <use x="204.248047" xlink:href="#DejaVuSans-54"/>
      <use x="267.871094" xlink:href="#DejaVuSans-50"/>
      <use x="331.494141" xlink:href="#DejaVuSans-54"/>
      <use x="395.117188" xlink:href="#DejaVuSans-50"/>
      <use x="458.740234" xlink:href="#DejaVuSans-32"/>
      <use x="490.527344" xlink:href="#DejaVuSans-40"/>
      <use x="529.541016" xlink:href="#DejaVuSans-97"/>
      <use x="590.820312" xlink:href="#DejaVuSans-114"/>
      <use x="631.902344" xlink:href="#DejaVuSans-101"/>
      <use x="693.425781" xlink:href="#DejaVuSans-97"/>
      <use x="754.705078" xlink:href="#DejaVuSans-32"/>
      <use x="786.492188" xlink:href="#DejaVuSans-61"/>
      <use x="870.28125" xlink:href="#DejaVuSans-48"/>
      <use x="933.904297" xlink:href="#DejaVuSans-46"/>
      <use x="965.691406" xlink:href="#DejaVuSans-56"/>
      <use x="1029.314453" xlink:href="#DejaVuSans-49"/>
      <use x="1092.9375" xlink:href="#DejaVuSans-41"/>
     </g>
    </g>
   </g>
  </g>
 </g>
 <defs>
  <clipPath id="p0db8737a1a">
   <rect height="443.52" width="446.4" x="72" y="69.12"/>
  </clipPath>
 </defs>
</svg>
