<?xml version="1.0" encoding="utf-8" standalone="no"?>
<!DOCTYPE svg PUBLIC "-//W3C//DTD SVG 1.1//EN"
  "http://www.w3.org/Graphics/SVG/1.1/DTD/svg11.dtd">
<!-- Created with matplotlib (https://matplotlib.org/) -->
<svg height="576pt" version="1.1" viewBox="0 0 576 576" width="576pt" xmlns="http://www.w3.org/2000/svg" xmlns:xlink="http://www.w3.org/1999/xlink">
 <defs>
  <style type="text/css">
*{stroke-linecap:butt;stroke-linejoin:round;}
  </style>
 </defs>
 <g id="figure_1">
  <g id="patch_1">
   <path d="M 0 576 
L 576 576 
L 576 0 
L 0 0 
z
" style="fill:#ffffff;"/>
  </g>
  <g id="axes_1">
   <g id="patch_2">
    <path d="M 72 512.64 
L 518.4 512.64 
L 518.4 69.12 
L 72 69.12 
z
" style="fill:#ffffff;"/>
   </g>
   <g id="matplotlib.axis_1">
    <g id="xtick_1">
     <g id="line2d_1">
      <path clip-path="url(#peb56e6913c)" d="M 72 512.64 
L 72 69.12 
" style="fill:none;stroke:#b0b0b0;stroke-linecap:square;stroke-width:0.8;"/>
     </g>
     <g id="line2d_2">
      <defs>
       <path d="M 0 0 
L 0 3.5 
" id="md012a94024" style="stroke:#000000;stroke-width:0.8;"/>
      </defs>
      <g>
       <use style="stroke:#000000;stroke-width:0.8;" x="72" xlink:href="#md012a94024" y="512.64"/>
      </g>
     </g>
     <g id="text_1">
      <!-- 0.0 -->
      <defs>
       <path d="M 31.78125 66.40625 
Q 24.171875 66.40625 20.328125 58.90625 
Q 16.5 51.421875 16.5 36.375 
Q 16.5 21.390625 20.328125 13.890625 
Q 24.171875 6.390625 31.78125 6.390625 
Q 39.453125 6.390625 43.28125 13.890625 
Q 47.125 21.390625 47.125 36.375 
Q 47.125 51.421875 43.28125 58.90625 
Q 39.453125 66.40625 31.78125 66.40625 
z
M 31.78125 74.21875 
Q 44.046875 74.21875 50.515625 64.515625 
Q 56.984375 54.828125 56.984375 36.375 
Q 56.984375 17.96875 50.515625 8.265625 
Q 44.046875 -1.421875 31.78125 -1.421875 
Q 19.53125 -1.421875 13.0625 8.265625 
Q 6.59375 17.96875 6.59375 36.375 
Q 6.59375 54.828125 13.0625 64.515625 
Q 19.53125 74.21875 31.78125 74.21875 
z
" id="DejaVuSans-48"/>
       <path d="M 10.6875 12.40625 
L 21 12.40625 
L 21 0 
L 10.6875 0 
z
" id="DejaVuSans-46"/>
      </defs>
      <g transform="translate(64.048438 527.238438)scale(0.1 -0.1)">
       <use xlink:href="#DejaVuSans-48"/>
       <use x="63.623047" xlink:href="#DejaVuSans-46"/>
       <use x="95.410156" xlink:href="#DejaVuSans-48"/>
      </g>
     </g>
    </g>
    <g id="xtick_2">
     <g id="line2d_3">
      <path clip-path="url(#peb56e6913c)" d="M 161.28 512.64 
L 161.28 69.12 
" style="fill:none;stroke:#b0b0b0;stroke-linecap:square;stroke-width:0.8;"/>
     </g>
     <g id="line2d_4">
      <g>
       <use style="stroke:#000000;stroke-width:0.8;" x="161.28" xlink:href="#md012a94024" y="512.64"/>
      </g>
     </g>
     <g id="text_2">
      <!-- 0.2 -->
      <defs>
       <path d="M 19.1875 8.296875 
L 53.609375 8.296875 
L 53.609375 0 
L 7.328125 0 
L 7.328125 8.296875 
Q 12.9375 14.109375 22.625 23.890625 
Q 32.328125 33.6875 34.8125 36.53125 
Q 39.546875 41.84375 41.421875 45.53125 
Q 43.3125 49.21875 43.3125 52.78125 
Q 43.3125 58.59375 39.234375 62.25 
Q 35.15625 65.921875 28.609375 65.921875 
Q 23.96875 65.921875 18.8125 64.3125 
Q 13.671875 62.703125 7.8125 59.421875 
L 7.8125 69.390625 
Q 13.765625 71.78125 18.9375 73 
Q 24.125 74.21875 28.421875 74.21875 
Q 39.75 74.21875 46.484375 68.546875 
Q 53.21875 62.890625 53.21875 53.421875 
Q 53.21875 48.921875 51.53125 44.890625 
Q 49.859375 40.875 45.40625 35.40625 
Q 44.1875 33.984375 37.640625 27.21875 
Q 31.109375 20.453125 19.1875 8.296875 
z
" id="DejaVuSans-50"/>
      </defs>
      <g transform="translate(153.328438 527.238438)scale(0.1 -0.1)">
       <use xlink:href="#DejaVuSans-48"/>
       <use x="63.623047" xlink:href="#DejaVuSans-46"/>
       <use x="95.410156" xlink:href="#DejaVuSans-50"/>
      </g>
     </g>
    </g>
    <g id="xtick_3">
     <g id="line2d_5">
      <path clip-path="url(#peb56e6913c)" d="M 250.56 512.64 
L 250.56 69.12 
" style="fill:none;stroke:#b0b0b0;stroke-linecap:square;stroke-width:0.8;"/>
     </g>
     <g id="line2d_6">
      <g>
       <use style="stroke:#000000;stroke-width:0.8;" x="250.56" xlink:href="#md012a94024" y="512.64"/>
      </g>
     </g>
     <g id="text_3">
      <!-- 0.4 -->
      <defs>
       <path d="M 37.796875 64.3125 
L 12.890625 25.390625 
L 37.796875 25.390625 
z
M 35.203125 72.90625 
L 47.609375 72.90625 
L 47.609375 25.390625 
L 58.015625 25.390625 
L 58.015625 17.1875 
L 47.609375 17.1875 
L 47.609375 0 
L 37.796875 0 
L 37.796875 17.1875 
L 4.890625 17.1875 
L 4.890625 26.703125 
z
" id="DejaVuSans-52"/>
      </defs>
      <g transform="translate(242.608438 527.238438)scale(0.1 -0.1)">
       <use xlink:href="#DejaVuSans-48"/>
       <use x="63.623047" xlink:href="#DejaVuSans-46"/>
       <use x="95.410156" xlink:href="#DejaVuSans-52"/>
      </g>
     </g>
    </g>
    <g id="xtick_4">
     <g id="line2d_7">
      <path clip-path="url(#peb56e6913c)" d="M 339.84 512.64 
L 339.84 69.12 
" style="fill:none;stroke:#b0b0b0;stroke-linecap:square;stroke-width:0.8;"/>
     </g>
     <g id="line2d_8">
      <g>
       <use style="stroke:#000000;stroke-width:0.8;" x="339.84" xlink:href="#md012a94024" y="512.64"/>
      </g>
     </g>
     <g id="text_4">
      <!-- 0.6 -->
      <defs>
       <path d="M 33.015625 40.375 
Q 26.375 40.375 22.484375 35.828125 
Q 18.609375 31.296875 18.609375 23.390625 
Q 18.609375 15.53125 22.484375 10.953125 
Q 26.375 6.390625 33.015625 6.390625 
Q 39.65625 6.390625 43.53125 10.953125 
Q 47.40625 15.53125 47.40625 23.390625 
Q 47.40625 31.296875 43.53125 35.828125 
Q 39.65625 40.375 33.015625 40.375 
z
M 52.59375 71.296875 
L 52.59375 62.3125 
Q 48.875 64.0625 45.09375 64.984375 
Q 41.3125 65.921875 37.59375 65.921875 
Q 27.828125 65.921875 22.671875 59.328125 
Q 17.53125 52.734375 16.796875 39.40625 
Q 19.671875 43.65625 24.015625 45.921875 
Q 28.375 48.1875 33.59375 48.1875 
Q 44.578125 48.1875 50.953125 41.515625 
Q 57.328125 34.859375 57.328125 23.390625 
Q 57.328125 12.15625 50.6875 5.359375 
Q 44.046875 -1.421875 33.015625 -1.421875 
Q 20.359375 -1.421875 13.671875 8.265625 
Q 6.984375 17.96875 6.984375 36.375 
Q 6.984375 53.65625 15.1875 63.9375 
Q 23.390625 74.21875 37.203125 74.21875 
Q 40.921875 74.21875 44.703125 73.484375 
Q 48.484375 72.75 52.59375 71.296875 
z
" id="DejaVuSans-54"/>
      </defs>
      <g transform="translate(331.888438 527.238438)scale(0.1 -0.1)">
       <use xlink:href="#DejaVuSans-48"/>
       <use x="63.623047" xlink:href="#DejaVuSans-46"/>
       <use x="95.410156" xlink:href="#DejaVuSans-54"/>
      </g>
     </g>
    </g>
    <g id="xtick_5">
     <g id="line2d_9">
      <path clip-path="url(#peb56e6913c)" d="M 429.12 512.64 
L 429.12 69.12 
" style="fill:none;stroke:#b0b0b0;stroke-linecap:square;stroke-width:0.8;"/>
     </g>
     <g id="line2d_10">
      <g>
       <use style="stroke:#000000;stroke-width:0.8;" x="429.12" xlink:href="#md012a94024" y="512.64"/>
      </g>
     </g>
     <g id="text_5">
      <!-- 0.8 -->
      <defs>
       <path d="M 31.78125 34.625 
Q 24.75 34.625 20.71875 30.859375 
Q 16.703125 27.09375 16.703125 20.515625 
Q 16.703125 13.921875 20.71875 10.15625 
Q 24.75 6.390625 31.78125 6.390625 
Q 38.8125 6.390625 42.859375 10.171875 
Q 46.921875 13.96875 46.921875 20.515625 
Q 46.921875 27.09375 42.890625 30.859375 
Q 38.875 34.625 31.78125 34.625 
z
M 21.921875 38.8125 
Q 15.578125 40.375 12.03125 44.71875 
Q 8.5 49.078125 8.5 55.328125 
Q 8.5 64.0625 14.71875 69.140625 
Q 20.953125 74.21875 31.78125 74.21875 
Q 42.671875 74.21875 48.875 69.140625 
Q 55.078125 64.0625 55.078125 55.328125 
Q 55.078125 49.078125 51.53125 44.71875 
Q 48 40.375 41.703125 38.8125 
Q 48.828125 37.15625 52.796875 32.3125 
Q 56.78125 27.484375 56.78125 20.515625 
Q 56.78125 9.90625 50.3125 4.234375 
Q 43.84375 -1.421875 31.78125 -1.421875 
Q 19.734375 -1.421875 13.25 4.234375 
Q 6.78125 9.90625 6.78125 20.515625 
Q 6.78125 27.484375 10.78125 32.3125 
Q 14.796875 37.15625 21.921875 38.8125 
z
M 18.3125 54.390625 
Q 18.3125 48.734375 21.84375 45.5625 
Q 25.390625 42.390625 31.78125 42.390625 
Q 38.140625 42.390625 41.71875 45.5625 
Q 45.3125 48.734375 45.3125 54.390625 
Q 45.3125 60.0625 41.71875 63.234375 
Q 38.140625 66.40625 31.78125 66.40625 
Q 25.390625 66.40625 21.84375 63.234375 
Q 18.3125 60.0625 18.3125 54.390625 
z
" id="DejaVuSans-56"/>
      </defs>
      <g transform="translate(421.168437 527.238438)scale(0.1 -0.1)">
       <use xlink:href="#DejaVuSans-48"/>
       <use x="63.623047" xlink:href="#DejaVuSans-46"/>
       <use x="95.410156" xlink:href="#DejaVuSans-56"/>
      </g>
     </g>
    </g>
    <g id="xtick_6">
     <g id="line2d_11">
      <path clip-path="url(#peb56e6913c)" d="M 518.4 512.64 
L 518.4 69.12 
" style="fill:none;stroke:#b0b0b0;stroke-linecap:square;stroke-width:0.8;"/>
     </g>
     <g id="line2d_12">
      <g>
       <use style="stroke:#000000;stroke-width:0.8;" x="518.4" xlink:href="#md012a94024" y="512.64"/>
      </g>
     </g>
     <g id="text_6">
      <!-- 1.0 -->
      <defs>
       <path d="M 12.40625 8.296875 
L 28.515625 8.296875 
L 28.515625 63.921875 
L 10.984375 60.40625 
L 10.984375 69.390625 
L 28.421875 72.90625 
L 38.28125 72.90625 
L 38.28125 8.296875 
L 54.390625 8.296875 
L 54.390625 0 
L 12.40625 0 
z
" id="DejaVuSans-49"/>
      </defs>
      <g transform="translate(510.448437 527.238438)scale(0.1 -0.1)">
       <use xlink:href="#DejaVuSans-49"/>
       <use x="63.623047" xlink:href="#DejaVuSans-46"/>
       <use x="95.410156" xlink:href="#DejaVuSans-48"/>
      </g>
     </g>
    </g>
    <g id="text_7">
     <!-- False Positive Rate -->
     <defs>
      <path d="M 9.8125 72.90625 
L 51.703125 72.90625 
L 51.703125 64.59375 
L 19.671875 64.59375 
L 19.671875 43.109375 
L 48.578125 43.109375 
L 48.578125 34.8125 
L 19.671875 34.8125 
L 19.671875 0 
L 9.8125 0 
z
" id="DejaVuSans-70"/>
      <path d="M 34.28125 27.484375 
Q 23.390625 27.484375 19.1875 25 
Q 14.984375 22.515625 14.984375 16.5 
Q 14.984375 11.71875 18.140625 8.90625 
Q 21.296875 6.109375 26.703125 6.109375 
Q 34.1875 6.109375 38.703125 11.40625 
Q 43.21875 16.703125 43.21875 25.484375 
L 43.21875 27.484375 
z
M 52.203125 31.203125 
L 52.203125 0 
L 43.21875 0 
L 43.21875 8.296875 
Q 40.140625 3.328125 35.546875 0.953125 
Q 30.953125 -1.421875 24.3125 -1.421875 
Q 15.921875 -1.421875 10.953125 3.296875 
Q 6 8.015625 6 15.921875 
Q 6 25.140625 12.171875 29.828125 
Q 18.359375 34.515625 30.609375 34.515625 
L 43.21875 34.515625 
L 43.21875 35.40625 
Q 43.21875 41.609375 39.140625 45 
Q 35.0625 48.390625 27.6875 48.390625 
Q 23 48.390625 18.546875 47.265625 
Q 14.109375 46.140625 10.015625 43.890625 
L 10.015625 52.203125 
Q 14.9375 54.109375 19.578125 55.046875 
Q 24.21875 56 28.609375 56 
Q 40.484375 56 46.34375 49.84375 
Q 52.203125 43.703125 52.203125 31.203125 
z
" id="DejaVuSans-97"/>
      <path d="M 9.421875 75.984375 
L 18.40625 75.984375 
L 18.40625 0 
L 9.421875 0 
z
" id="DejaVuSans-108"/>
      <path d="M 44.28125 53.078125 
L 44.28125 44.578125 
Q 40.484375 46.53125 36.375 47.5 
Q 32.28125 48.484375 27.875 48.484375 
Q 21.1875 48.484375 17.84375 46.4375 
Q 14.5 44.390625 14.5 40.28125 
Q 14.5 37.15625 16.890625 35.375 
Q 19.28125 33.59375 26.515625 31.984375 
L 29.59375 31.296875 
Q 39.15625 29.25 43.1875 25.515625 
Q 47.21875 21.78125 47.21875 15.09375 
Q 47.21875 7.46875 41.1875 3.015625 
Q 35.15625 -1.421875 24.609375 -1.421875 
Q 20.21875 -1.421875 15.453125 -0.5625 
Q 10.6875 0.296875 5.421875 2 
L 5.421875 11.28125 
Q 10.40625 8.6875 15.234375 7.390625 
Q 20.0625 6.109375 24.8125 6.109375 
Q 31.15625 6.109375 34.5625 8.28125 
Q 37.984375 10.453125 37.984375 14.40625 
Q 37.984375 18.0625 35.515625 20.015625 
Q 33.0625 21.96875 24.703125 23.78125 
L 21.578125 24.515625 
Q 13.234375 26.265625 9.515625 29.90625 
Q 5.8125 33.546875 5.8125 39.890625 
Q 5.8125 47.609375 11.28125 51.796875 
Q 16.75 56 26.8125 56 
Q 31.78125 56 36.171875 55.265625 
Q 40.578125 54.546875 44.28125 53.078125 
z
" id="DejaVuSans-115"/>
      <path d="M 56.203125 29.59375 
L 56.203125 25.203125 
L 14.890625 25.203125 
Q 15.484375 15.921875 20.484375 11.0625 
Q 25.484375 6.203125 34.421875 6.203125 
Q 39.59375 6.203125 44.453125 7.46875 
Q 49.3125 8.734375 54.109375 11.28125 
L 54.109375 2.78125 
Q 49.265625 0.734375 44.1875 -0.34375 
Q 39.109375 -1.421875 33.890625 -1.421875 
Q 20.796875 -1.421875 13.15625 6.1875 
Q 5.515625 13.8125 5.515625 26.8125 
Q 5.515625 40.234375 12.765625 48.109375 
Q 20.015625 56 32.328125 56 
Q 43.359375 56 49.78125 48.890625 
Q 56.203125 41.796875 56.203125 29.59375 
z
M 47.21875 32.234375 
Q 47.125 39.59375 43.09375 43.984375 
Q 39.0625 48.390625 32.421875 48.390625 
Q 24.90625 48.390625 20.390625 44.140625 
Q 15.875 39.890625 15.1875 32.171875 
z
" id="DejaVuSans-101"/>
      <path id="DejaVuSans-32"/>
      <path d="M 19.671875 64.796875 
L 19.671875 37.40625 
L 32.078125 37.40625 
Q 38.96875 37.40625 42.71875 40.96875 
Q 46.484375 44.53125 46.484375 51.125 
Q 46.484375 57.671875 42.71875 61.234375 
Q 38.96875 64.796875 32.078125 64.796875 
z
M 9.8125 72.90625 
L 32.078125 72.90625 
Q 44.34375 72.90625 50.609375 67.359375 
Q 56.890625 61.8125 56.890625 51.125 
Q 56.890625 40.328125 50.609375 34.8125 
Q 44.34375 29.296875 32.078125 29.296875 
L 19.671875 29.296875 
L 19.671875 0 
L 9.8125 0 
z
" id="DejaVuSans-80"/>
      <path d="M 30.609375 48.390625 
Q 23.390625 48.390625 19.1875 42.75 
Q 14.984375 37.109375 14.984375 27.296875 
Q 14.984375 17.484375 19.15625 11.84375 
Q 23.34375 6.203125 30.609375 6.203125 
Q 37.796875 6.203125 41.984375 11.859375 
Q 46.1875 17.53125 46.1875 27.296875 
Q 46.1875 37.015625 41.984375 42.703125 
Q 37.796875 48.390625 30.609375 48.390625 
z
M 30.609375 56 
Q 42.328125 56 49.015625 48.375 
Q 55.71875 40.765625 55.71875 27.296875 
Q 55.71875 13.875 49.015625 6.21875 
Q 42.328125 -1.421875 30.609375 -1.421875 
Q 18.84375 -1.421875 12.171875 6.21875 
Q 5.515625 13.875 5.515625 27.296875 
Q 5.515625 40.765625 12.171875 48.375 
Q 18.84375 56 30.609375 56 
z
" id="DejaVuSans-111"/>
      <path d="M 9.421875 54.6875 
L 18.40625 54.6875 
L 18.40625 0 
L 9.421875 0 
z
M 9.421875 75.984375 
L 18.40625 75.984375 
L 18.40625 64.59375 
L 9.421875 64.59375 
z
" id="DejaVuSans-105"/>
      <path d="M 18.3125 70.21875 
L 18.3125 54.6875 
L 36.8125 54.6875 
L 36.8125 47.703125 
L 18.3125 47.703125 
L 18.3125 18.015625 
Q 18.3125 11.328125 20.140625 9.421875 
Q 21.96875 7.515625 27.59375 7.515625 
L 36.8125 7.515625 
L 36.8125 0 
L 27.59375 0 
Q 17.1875 0 13.234375 3.875 
Q 9.28125 7.765625 9.28125 18.015625 
L 9.28125 47.703125 
L 2.6875 47.703125 
L 2.6875 54.6875 
L 9.28125 54.6875 
L 9.28125 70.21875 
z
" id="DejaVuSans-116"/>
      <path d="M 2.984375 54.6875 
L 12.5 54.6875 
L 29.59375 8.796875 
L 46.6875 54.6875 
L 56.203125 54.6875 
L 35.6875 0 
L 23.484375 0 
z
" id="DejaVuSans-118"/>
      <path d="M 44.390625 34.1875 
Q 47.5625 33.109375 50.5625 29.59375 
Q 53.5625 26.078125 56.59375 19.921875 
L 66.609375 0 
L 56 0 
L 46.6875 18.703125 
Q 43.0625 26.03125 39.671875 28.421875 
Q 36.28125 30.8125 30.421875 30.8125 
L 19.671875 30.8125 
L 19.671875 0 
L 9.8125 0 
L 9.8125 72.90625 
L 32.078125 72.90625 
Q 44.578125 72.90625 50.734375 67.671875 
Q 56.890625 62.453125 56.890625 51.90625 
Q 56.890625 45.015625 53.6875 40.46875 
Q 50.484375 35.9375 44.390625 34.1875 
z
M 19.671875 64.796875 
L 19.671875 38.921875 
L 32.078125 38.921875 
Q 39.203125 38.921875 42.84375 42.21875 
Q 46.484375 45.515625 46.484375 51.90625 
Q 46.484375 58.296875 42.84375 61.546875 
Q 39.203125 64.796875 32.078125 64.796875 
z
" id="DejaVuSans-82"/>
     </defs>
     <g transform="translate(247.994531 540.916563)scale(0.1 -0.1)">
      <use xlink:href="#DejaVuSans-70"/>
      <use x="57.378906" xlink:href="#DejaVuSans-97"/>
      <use x="118.658203" xlink:href="#DejaVuSans-108"/>
      <use x="146.441406" xlink:href="#DejaVuSans-115"/>
      <use x="198.541016" xlink:href="#DejaVuSans-101"/>
      <use x="260.064453" xlink:href="#DejaVuSans-32"/>
      <use x="291.851562" xlink:href="#DejaVuSans-80"/>
      <use x="352.107422" xlink:href="#DejaVuSans-111"/>
      <use x="413.289062" xlink:href="#DejaVuSans-115"/>
      <use x="465.388672" xlink:href="#DejaVuSans-105"/>
      <use x="493.171875" xlink:href="#DejaVuSans-116"/>
      <use x="532.380859" xlink:href="#DejaVuSans-105"/>
      <use x="560.164062" xlink:href="#DejaVuSans-118"/>
      <use x="619.34375" xlink:href="#DejaVuSans-101"/>
      <use x="680.867188" xlink:href="#DejaVuSans-32"/>
      <use x="712.654297" xlink:href="#DejaVuSans-82"/>
      <use x="782.105469" xlink:href="#DejaVuSans-97"/>
      <use x="843.384766" xlink:href="#DejaVuSans-116"/>
      <use x="882.59375" xlink:href="#DejaVuSans-101"/>
     </g>
    </g>
   </g>
   <g id="matplotlib.axis_2">
    <g id="ytick_1">
     <g id="line2d_13">
      <path clip-path="url(#peb56e6913c)" d="M 72 512.64 
L 518.4 512.64 
" style="fill:none;stroke:#b0b0b0;stroke-linecap:square;stroke-width:0.8;"/>
     </g>
     <g id="line2d_14">
      <defs>
       <path d="M 0 0 
L -3.5 0 
" id="m1dd3ae04fe" style="stroke:#000000;stroke-width:0.8;"/>
      </defs>
      <g>
       <use style="stroke:#000000;stroke-width:0.8;" x="72" xlink:href="#m1dd3ae04fe" y="512.64"/>
      </g>
     </g>
     <g id="text_8">
      <!-- 0.0 -->
      <g transform="translate(49.096875 516.439219)scale(0.1 -0.1)">
       <use xlink:href="#DejaVuSans-48"/>
       <use x="63.623047" xlink:href="#DejaVuSans-46"/>
       <use x="95.410156" xlink:href="#DejaVuSans-48"/>
      </g>
     </g>
    </g>
    <g id="ytick_2">
     <g id="line2d_15">
      <path clip-path="url(#peb56e6913c)" d="M 72 428.16 
L 518.4 428.16 
" style="fill:none;stroke:#b0b0b0;stroke-linecap:square;stroke-width:0.8;"/>
     </g>
     <g id="line2d_16">
      <g>
       <use style="stroke:#000000;stroke-width:0.8;" x="72" xlink:href="#m1dd3ae04fe" y="428.16"/>
      </g>
     </g>
     <g id="text_9">
      <!-- 0.2 -->
      <g transform="translate(49.096875 431.959219)scale(0.1 -0.1)">
       <use xlink:href="#DejaVuSans-48"/>
       <use x="63.623047" xlink:href="#DejaVuSans-46"/>
       <use x="95.410156" xlink:href="#DejaVuSans-50"/>
      </g>
     </g>
    </g>
    <g id="ytick_3">
     <g id="line2d_17">
      <path clip-path="url(#peb56e6913c)" d="M 72 343.68 
L 518.4 343.68 
" style="fill:none;stroke:#b0b0b0;stroke-linecap:square;stroke-width:0.8;"/>
     </g>
     <g id="line2d_18">
      <g>
       <use style="stroke:#000000;stroke-width:0.8;" x="72" xlink:href="#m1dd3ae04fe" y="343.68"/>
      </g>
     </g>
     <g id="text_10">
      <!-- 0.4 -->
      <g transform="translate(49.096875 347.479219)scale(0.1 -0.1)">
       <use xlink:href="#DejaVuSans-48"/>
       <use x="63.623047" xlink:href="#DejaVuSans-46"/>
       <use x="95.410156" xlink:href="#DejaVuSans-52"/>
      </g>
     </g>
    </g>
    <g id="ytick_4">
     <g id="line2d_19">
      <path clip-path="url(#peb56e6913c)" d="M 72 259.2 
L 518.4 259.2 
" style="fill:none;stroke:#b0b0b0;stroke-linecap:square;stroke-width:0.8;"/>
     </g>
     <g id="line2d_20">
      <g>
       <use style="stroke:#000000;stroke-width:0.8;" x="72" xlink:href="#m1dd3ae04fe" y="259.2"/>
      </g>
     </g>
     <g id="text_11">
      <!-- 0.6 -->
      <g transform="translate(49.096875 262.999219)scale(0.1 -0.1)">
       <use xlink:href="#DejaVuSans-48"/>
       <use x="63.623047" xlink:href="#DejaVuSans-46"/>
       <use x="95.410156" xlink:href="#DejaVuSans-54"/>
      </g>
     </g>
    </g>
    <g id="ytick_5">
     <g id="line2d_21">
      <path clip-path="url(#peb56e6913c)" d="M 72 174.72 
L 518.4 174.72 
" style="fill:none;stroke:#b0b0b0;stroke-linecap:square;stroke-width:0.8;"/>
     </g>
     <g id="line2d_22">
      <g>
       <use style="stroke:#000000;stroke-width:0.8;" x="72" xlink:href="#m1dd3ae04fe" y="174.72"/>
      </g>
     </g>
     <g id="text_12">
      <!-- 0.8 -->
      <g transform="translate(49.096875 178.519219)scale(0.1 -0.1)">
       <use xlink:href="#DejaVuSans-48"/>
       <use x="63.623047" xlink:href="#DejaVuSans-46"/>
       <use x="95.410156" xlink:href="#DejaVuSans-56"/>
      </g>
     </g>
    </g>
    <g id="ytick_6">
     <g id="line2d_23">
      <path clip-path="url(#peb56e6913c)" d="M 72 90.24 
L 518.4 90.24 
" style="fill:none;stroke:#b0b0b0;stroke-linecap:square;stroke-width:0.8;"/>
     </g>
     <g id="line2d_24">
      <g>
       <use style="stroke:#000000;stroke-width:0.8;" x="72" xlink:href="#m1dd3ae04fe" y="90.24"/>
      </g>
     </g>
     <g id="text_13">
      <!-- 1.0 -->
      <g transform="translate(49.096875 94.039219)scale(0.1 -0.1)">
       <use xlink:href="#DejaVuSans-49"/>
       <use x="63.623047" xlink:href="#DejaVuSans-46"/>
       <use x="95.410156" xlink:href="#DejaVuSans-48"/>
      </g>
     </g>
    </g>
    <g id="text_14">
     <!-- True Positive Rate -->
     <defs>
      <path d="M -0.296875 72.90625 
L 61.375 72.90625 
L 61.375 64.59375 
L 35.5 64.59375 
L 35.5 0 
L 25.59375 0 
L 25.59375 64.59375 
L -0.296875 64.59375 
z
" id="DejaVuSans-84"/>
      <path d="M 41.109375 46.296875 
Q 39.59375 47.171875 37.8125 47.578125 
Q 36.03125 48 33.890625 48 
Q 26.265625 48 22.1875 43.046875 
Q 18.109375 38.09375 18.109375 28.8125 
L 18.109375 0 
L 9.078125 0 
L 9.078125 54.6875 
L 18.109375 54.6875 
L 18.109375 46.1875 
Q 20.953125 51.171875 25.484375 53.578125 
Q 30.03125 56 36.53125 56 
Q 37.453125 56 38.578125 55.875 
Q 39.703125 55.765625 41.0625 55.515625 
z
" id="DejaVuSans-114"/>
      <path d="M 8.5 21.578125 
L 8.5 54.6875 
L 17.484375 54.6875 
L 17.484375 21.921875 
Q 17.484375 14.15625 20.5 10.265625 
Q 23.53125 6.390625 29.59375 6.390625 
Q 36.859375 6.390625 41.078125 11.03125 
Q 45.3125 15.671875 45.3125 23.6875 
L 45.3125 54.6875 
L 54.296875 54.6875 
L 54.296875 0 
L 45.3125 0 
L 45.3125 8.40625 
Q 42.046875 3.421875 37.71875 1 
Q 33.40625 -1.421875 27.6875 -1.421875 
Q 18.265625 -1.421875 13.375 4.4375 
Q 8.5 10.296875 8.5 21.578125 
z
M 31.109375 56 
z
" id="DejaVuSans-117"/>
     </defs>
     <g transform="translate(43.017187 336.426094)rotate(-90)scale(0.1 -0.1)">
      <use xlink:href="#DejaVuSans-84"/>
      <use x="60.865234" xlink:href="#DejaVuSans-114"/>
      <use x="101.978516" xlink:href="#DejaVuSans-117"/>
      <use x="165.357422" xlink:href="#DejaVuSans-101"/>
      <use x="226.880859" xlink:href="#DejaVuSans-32"/>
      <use x="258.667969" xlink:href="#DejaVuSans-80"/>
      <use x="318.923828" xlink:href="#DejaVuSans-111"/>
      <use x="380.105469" xlink:href="#DejaVuSans-115"/>
      <use x="432.205078" xlink:href="#DejaVuSans-105"/>
      <use x="459.988281" xlink:href="#DejaVuSans-116"/>
      <use x="499.197266" xlink:href="#DejaVuSans-105"/>
      <use x="526.980469" xlink:href="#DejaVuSans-118"/>
      <use x="586.160156" xlink:href="#DejaVuSans-101"/>
      <use x="647.683594" xlink:href="#DejaVuSans-32"/>
      <use x="679.470703" xlink:href="#DejaVuSans-82"/>
      <use x="748.921875" xlink:href="#DejaVuSans-97"/>
      <use x="810.201172" xlink:href="#DejaVuSans-116"/>
      <use x="849.410156" xlink:href="#DejaVuSans-101"/>
     </g>
    </g>
   </g>
   <g id="line2d_25">
    <path clip-path="url(#peb56e6913c)" d="M 72 512.64 
L 72.763077 512.64 
L 72.763077 500.971492 
L 73.144615 500.971492 
L 73.144615 481.135028 
L 73.526154 481.135028 
L 73.526154 478.217901 
L 73.907692 478.217901 
L 73.907692 472.383646 
L 74.289231 472.383646 
L 74.289231 467.716243 
L 74.670769 467.716243 
L 74.670769 465.965967 
L 75.052308 465.965967 
L 75.052308 464.215691 
L 75.433846 464.215691 
L 75.433846 437.378122 
L 75.815385 437.378122 
L 75.815385 419.291934 
L 76.196923 419.291934 
L 76.196923 409.957127 
L 76.578462 409.957127 
L 76.578462 402.372597 
L 76.96 402.372597 
L 76.96 398.288619 
L 77.341538 398.288619 
L 77.341538 397.705193 
L 77.723077 397.705193 
L 77.723077 391.870939 
L 78.104615 391.870939 
L 78.104615 385.45326 
L 78.486154 385.45326 
L 78.486154 384.869834 
L 78.867692 384.869834 
L 78.867692 377.868729 
L 79.249231 377.868729 
L 79.249231 374.951602 
L 79.630769 374.951602 
L 79.630769 370.867624 
L 80.012308 370.867624 
L 80.012308 346.363757 
L 80.393846 346.363757 
L 80.393846 339.362652 
L 80.775385 339.362652 
L 80.775385 334.695249 
L 81.156923 334.695249 
L 81.156923 332.361547 
L 81.538462 332.361547 
L 81.538462 325.943867 
L 81.92 325.943867 
L 81.92 323.610166 
L 82.301538 323.610166 
L 82.301538 323.02674 
L 82.683077 323.02674 
L 82.683077 320.693039 
L 83.064615 320.693039 
L 83.064615 315.44221 
L 83.446154 315.44221 
L 83.446154 311.358232 
L 83.827692 311.358232 
L 83.827692 307.274254 
L 84.209231 307.274254 
L 84.209231 304.940552 
L 84.590769 304.940552 
L 84.590769 303.773702 
L 84.972308 303.773702 
L 84.972308 295.02232 
L 85.353846 295.02232 
L 85.353846 291.521768 
L 85.735385 291.521768 
L 85.735385 290.354917 
L 86.498462 290.354917 
L 86.498462 289.771492 
L 87.261538 289.771492 
L 87.261538 288.604641 
L 87.643077 288.604641 
L 87.643077 286.854365 
L 88.024615 286.854365 
L 88.024615 281.603536 
L 88.406154 281.603536 
L 88.406154 278.686409 
L 88.787692 278.686409 
L 88.787692 276.936133 
L 89.169231 276.936133 
L 89.169231 275.769282 
L 89.550769 275.769282 
L 89.550769 275.185856 
L 89.932308 275.185856 
L 89.932308 266.434475 
L 90.313846 266.434475 
L 90.313846 265.85105 
L 91.076923 265.85105 
L 91.076923 264.684199 
L 91.458462 264.684199 
L 91.458462 263.517348 
L 91.84 263.517348 
L 91.84 261.183646 
L 92.221538 261.183646 
L 92.221538 260.600221 
L 92.603077 260.600221 
L 92.603077 254.182541 
L 93.366154 254.182541 
L 93.366154 252.432265 
L 93.747692 252.432265 
L 93.747692 251.265414 
L 94.892308 251.265414 
L 94.892308 250.681989 
L 95.273846 250.681989 
L 95.273846 248.348287 
L 96.036923 248.348287 
L 96.036923 246.598011 
L 96.8 246.598011 
L 96.8 245.43116 
L 97.181538 245.43116 
L 97.181538 244.847735 
L 97.563077 244.847735 
L 97.563077 241.347182 
L 97.944615 241.347182 
L 97.944615 240.763757 
L 98.326154 240.763757 
L 98.326154 238.430055 
L 98.707692 238.430055 
L 98.707692 234.346077 
L 99.470769 234.346077 
L 99.470769 233.762652 
L 99.852308 233.762652 
L 99.852308 233.179227 
L 100.233846 233.179227 
L 100.233846 232.595801 
L 100.615385 232.595801 
L 100.615385 232.012376 
L 101.378462 232.012376 
L 101.378462 231.42895 
L 101.76 231.42895 
L 101.76 230.845525 
L 102.141538 230.845525 
L 102.141538 230.262099 
L 102.904615 230.262099 
L 102.904615 228.511823 
L 104.049231 228.511823 
L 104.049231 227.344972 
L 104.430769 227.344972 
L 104.430769 226.761547 
L 104.812308 226.761547 
L 104.812308 225.011271 
L 105.193846 225.011271 
L 105.193846 224.427845 
L 105.575385 224.427845 
L 105.575385 222.094144 
L 105.956923 222.094144 
L 105.956923 221.510718 
L 106.338462 221.510718 
L 106.338462 220.927293 
L 107.483077 220.927293 
L 107.483077 219.760442 
L 107.864615 219.760442 
L 107.864615 219.177017 
L 108.246154 219.177017 
L 108.246154 217.42674 
L 109.390769 217.42674 
L 109.390769 215.093039 
L 109.772308 215.093039 
L 109.772308 213.342762 
L 110.916923 213.342762 
L 110.916923 211.009061 
L 111.298462 211.009061 
L 111.298462 210.425635 
L 111.68 210.425635 
L 111.68 209.84221 
L 112.061538 209.84221 
L 112.061538 209.258785 
L 113.206154 209.258785 
L 113.206154 208.675359 
L 114.350769 208.675359 
L 114.350769 208.091934 
L 115.113846 208.091934 
L 115.113846 207.508508 
L 115.495385 207.508508 
L 115.495385 206.341657 
L 116.258462 206.341657 
L 116.258462 197.006851 
L 118.929231 197.006851 
L 118.929231 195.256575 
L 119.310769 195.256575 
L 119.310769 194.089724 
L 119.692308 194.089724 
L 119.692308 193.506298 
L 120.836923 193.506298 
L 120.836923 192.339448 
L 121.6 192.339448 
L 121.6 191.756022 
L 121.981538 191.756022 
L 121.981538 190.005746 
L 122.744615 190.005746 
L 122.744615 188.838895 
L 123.126154 188.838895 
L 123.126154 188.25547 
L 123.507692 188.25547 
L 123.507692 187.088619 
L 124.270769 187.088619 
L 124.270769 186.505193 
L 124.652308 186.505193 
L 124.652308 185.921768 
L 125.415385 185.921768 
L 125.415385 185.338343 
L 125.796923 185.338343 
L 125.796923 184.754917 
L 126.178462 184.754917 
L 126.178462 184.171492 
L 126.56 184.171492 
L 126.56 183.004641 
L 127.704615 183.004641 
L 127.704615 181.83779 
L 128.467692 181.83779 
L 128.467692 181.254365 
L 130.756923 181.254365 
L 130.756923 180.670939 
L 131.901538 180.670939 
L 131.901538 179.504088 
L 132.664615 179.504088 
L 132.664615 178.920663 
L 134.953846 178.920663 
L 134.953846 178.337238 
L 135.335385 178.337238 
L 135.335385 177.753812 
L 135.716923 177.753812 
L 135.716923 176.586961 
L 136.098462 176.586961 
L 136.098462 174.836685 
L 136.48 174.836685 
L 136.48 174.25326 
L 137.624615 174.25326 
L 137.624615 173.086409 
L 138.387692 173.086409 
L 138.387692 171.919558 
L 140.295385 171.919558 
L 140.295385 171.336133 
L 140.676923 171.336133 
L 140.676923 170.169282 
L 141.821538 170.169282 
L 141.821538 169.585856 
L 142.966154 169.585856 
L 142.966154 168.419006 
L 143.347692 168.419006 
L 143.347692 166.668729 
L 143.729231 166.668729 
L 143.729231 166.085304 
L 144.492308 166.085304 
L 144.492308 163.751602 
L 145.636923 163.751602 
L 145.636923 162.584751 
L 147.544615 162.584751 
L 147.544615 162.001326 
L 150.596923 162.001326 
L 150.596923 161.417901 
L 150.978462 161.417901 
L 150.978462 160.25105 
L 151.741538 160.25105 
L 151.741538 159.084199 
L 152.123077 159.084199 
L 152.123077 158.500773 
L 152.504615 158.500773 
L 152.504615 157.917348 
L 152.886154 157.917348 
L 152.886154 157.333923 
L 153.267692 157.333923 
L 153.267692 156.750497 
L 153.649231 156.750497 
L 153.649231 156.167072 
L 154.030769 156.167072 
L 154.030769 155.583646 
L 154.412308 155.583646 
L 154.412308 155.000221 
L 154.793846 155.000221 
L 154.793846 154.416796 
L 157.083077 154.416796 
L 157.083077 153.249945 
L 159.372308 153.249945 
L 159.372308 150.916243 
L 161.661538 150.916243 
L 161.661538 149.749392 
L 163.569231 149.749392 
L 163.569231 149.165967 
L 164.332308 149.165967 
L 164.332308 148.582541 
L 165.095385 148.582541 
L 165.095385 147.999116 
L 167.766154 147.999116 
L 167.766154 146.832265 
L 168.529231 146.832265 
L 168.529231 145.665414 
L 170.055385 145.665414 
L 170.055385 145.081989 
L 170.436923 145.081989 
L 170.436923 144.498564 
L 170.818462 144.498564 
L 170.818462 143.915138 
L 171.2 143.915138 
L 171.2 143.331713 
L 171.963077 143.331713 
L 171.963077 142.748287 
L 173.870769 142.748287 
L 173.870769 142.164862 
L 174.633846 142.164862 
L 174.633846 140.998011 
L 175.778462 140.998011 
L 175.778462 140.414586 
L 178.449231 140.414586 
L 178.449231 139.83116 
L 178.830769 139.83116 
L 178.830769 139.247735 
L 181.883077 139.247735 
L 181.883077 138.664309 
L 182.264615 138.664309 
L 182.264615 137.497459 
L 182.646154 137.497459 
L 182.646154 136.330608 
L 183.790769 136.330608 
L 183.790769 135.747182 
L 184.935385 135.747182 
L 184.935385 135.163757 
L 185.316923 135.163757 
L 185.316923 134.580331 
L 187.606154 134.580331 
L 187.606154 132.830055 
L 191.803077 132.830055 
L 191.803077 132.24663 
L 192.184615 132.24663 
L 192.184615 131.663204 
L 192.566154 131.663204 
L 192.566154 131.079779 
L 193.329231 131.079779 
L 193.329231 130.496354 
L 196 130.496354 
L 196 129.912928 
L 196.381538 129.912928 
L 196.381538 129.329503 
L 197.907692 129.329503 
L 197.907692 128.746077 
L 199.052308 128.746077 
L 199.052308 128.162652 
L 202.104615 128.162652 
L 202.104615 127.579227 
L 204.393846 127.579227 
L 204.393846 126.412376 
L 215.84 126.412376 
L 215.84 125.82895 
L 216.221538 125.82895 
L 216.221538 125.245525 
L 216.603077 125.245525 
L 216.603077 124.662099 
L 217.366154 124.662099 
L 217.366154 124.078674 
L 234.535385 124.078674 
L 234.535385 123.495249 
L 236.443077 123.495249 
L 236.443077 122.911823 
L 237.206154 122.911823 
L 237.206154 122.328398 
L 237.969231 122.328398 
L 237.969231 121.744972 
L 238.732308 121.744972 
L 238.732308 121.161547 
L 244.073846 121.161547 
L 244.073846 119.994696 
L 246.744615 119.994696 
L 246.744615 119.411271 
L 248.270769 119.411271 
L 248.270769 118.827845 
L 252.086154 118.827845 
L 252.086154 118.24442 
L 252.467692 118.24442 
L 252.467692 117.660994 
L 254.756923 117.660994 
L 254.756923 117.077569 
L 255.138462 117.077569 
L 255.138462 116.494144 
L 256.664615 116.494144 
L 256.664615 115.910718 
L 258.190769 115.910718 
L 258.190769 115.327293 
L 259.716923 115.327293 
L 259.716923 114.743867 
L 264.676923 114.743867 
L 264.676923 114.160442 
L 267.347692 114.160442 
L 267.347692 113.577017 
L 267.729231 113.577017 
L 267.729231 112.993591 
L 273.452308 112.993591 
L 273.452308 111.82674 
L 274.596923 111.82674 
L 274.596923 110.65989 
L 280.701538 110.65989 
L 280.701538 109.493039 
L 281.464615 109.493039 
L 281.464615 108.909613 
L 299.396923 108.909613 
L 299.396923 108.326188 
L 303.212308 108.326188 
L 303.212308 107.742762 
L 305.12 107.742762 
L 305.12 107.159337 
L 318.092308 107.159337 
L 318.092308 105.992486 
L 319.618462 105.992486 
L 319.618462 105.409061 
L 323.433846 105.409061 
L 323.433846 104.825635 
L 342.510769 104.825635 
L 342.510769 104.24221 
L 350.523077 104.24221 
L 350.523077 103.658785 
L 353.193846 103.658785 
L 353.193846 103.075359 
L 360.443077 103.075359 
L 360.443077 102.491934 
L 361.206154 102.491934 
L 361.206154 101.325083 
L 368.073846 101.325083 
L 368.073846 100.741657 
L 374.178462 100.741657 
L 374.178462 100.158232 
L 395.544615 100.158232 
L 395.544615 99.574807 
L 401.267692 99.574807 
L 401.267692 98.991381 
L 405.083077 98.991381 
L 405.083077 98.407956 
L 410.424615 98.407956 
L 410.424615 97.82453 
L 424.541538 97.82453 
L 424.541538 97.241105 
L 431.790769 97.241105 
L 431.790769 96.65768 
L 445.907692 96.65768 
L 445.907692 96.074254 
L 454.683077 96.074254 
L 454.683077 95.490829 
L 464.221538 95.490829 
L 464.221538 94.907403 
L 485.587692 94.907403 
L 485.587692 94.323978 
L 490.547692 94.323978 
L 490.547692 93.740552 
L 492.836923 93.740552 
L 492.836923 93.157127 
L 494.363077 93.157127 
L 494.363077 92.573702 
L 498.941538 92.573702 
L 498.941538 91.990276 
L 500.849231 91.990276 
L 500.849231 91.406851 
L 501.993846 91.406851 
L 501.993846 90.823425 
L 503.138462 90.823425 
L 503.138462 90.24 
L 518.4 90.24 
L 518.4 90.24 
" style="fill:none;stroke:#ff8c00;stroke-linecap:square;stroke-width:2;"/>
   </g>
   <g id="line2d_26">
    <path clip-path="url(#peb56e6913c)" d="M 72 512.64 
L 518.4 90.24 
" style="fill:none;stroke:#000080;stroke-dasharray:7.4,3.2;stroke-dashoffset:0;stroke-width:2;"/>
   </g>
   <g id="patch_3">
    <path d="M 72 512.64 
L 72 69.12 
" style="fill:none;stroke:#000000;stroke-linecap:square;stroke-linejoin:miter;stroke-width:0.8;"/>
   </g>
   <g id="patch_4">
    <path d="M 518.4 512.64 
L 518.4 69.12 
" style="fill:none;stroke:#000000;stroke-linecap:square;stroke-linejoin:miter;stroke-width:0.8;"/>
   </g>
   <g id="patch_5">
    <path d="M 72 512.64 
L 518.4 512.64 
" style="fill:none;stroke:#000000;stroke-linecap:square;stroke-linejoin:miter;stroke-width:0.8;"/>
   </g>
   <g id="patch_6">
    <path d="M 72 69.12 
L 518.4 69.12 
" style="fill:none;stroke:#000000;stroke-linecap:square;stroke-linejoin:miter;stroke-width:0.8;"/>
   </g>
   <g id="legend_1">
    <g id="patch_7">
     <path d="M 427.081875 509.64 
L 514.2 509.64 
Q 515.4 509.64 515.4 508.44 
L 515.4 500.233125 
Q 515.4 499.033125 514.2 499.033125 
L 427.081875 499.033125 
Q 425.881875 499.033125 425.881875 500.233125 
L 425.881875 508.44 
Q 425.881875 509.64 427.081875 509.64 
z
" style="fill:#ffffff;opacity:0.8;stroke:#cccccc;stroke-linejoin:miter;"/>
    </g>
    <g id="line2d_27">
     <path d="M 428.281875 503.892187 
L 440.281875 503.892187 
" style="fill:none;stroke:#ff8c00;stroke-linecap:square;stroke-width:2;"/>
    </g>
    <g id="line2d_28"/>
    <g id="text_15">
     <!-- D008107 (area =0.90) -->
     <defs>
      <path d="M 19.671875 64.796875 
L 19.671875 8.109375 
L 31.59375 8.109375 
Q 46.6875 8.109375 53.6875 14.9375 
Q 60.6875 21.78125 60.6875 36.53125 
Q 60.6875 51.171875 53.6875 57.984375 
Q 46.6875 64.796875 31.59375 64.796875 
z
M 9.8125 72.90625 
L 30.078125 72.90625 
Q 51.265625 72.90625 61.171875 64.09375 
Q 71.09375 55.28125 71.09375 36.53125 
Q 71.09375 17.671875 61.125 8.828125 
Q 51.171875 0 30.078125 0 
L 9.8125 0 
z
" id="DejaVuSans-68"/>
      <path d="M 8.203125 72.90625 
L 55.078125 72.90625 
L 55.078125 68.703125 
L 28.609375 0 
L 18.3125 0 
L 43.21875 64.59375 
L 8.203125 64.59375 
z
" id="DejaVuSans-55"/>
      <path d="M 31 75.875 
Q 24.46875 64.65625 21.28125 53.65625 
Q 18.109375 42.671875 18.109375 31.390625 
Q 18.109375 20.125 21.3125 9.0625 
Q 24.515625 -2 31 -13.1875 
L 23.1875 -13.1875 
Q 15.875 -1.703125 12.234375 9.375 
Q 8.59375 20.453125 8.59375 31.390625 
Q 8.59375 42.28125 12.203125 53.3125 
Q 15.828125 64.359375 23.1875 75.875 
z
" id="DejaVuSans-40"/>
      <path d="M 10.59375 45.40625 
L 73.1875 45.40625 
L 73.1875 37.203125 
L 10.59375 37.203125 
z
M 10.59375 25.484375 
L 73.1875 25.484375 
L 73.1875 17.1875 
L 10.59375 17.1875 
z
" id="DejaVuSans-61"/>
      <path d="M 10.984375 1.515625 
L 10.984375 10.5 
Q 14.703125 8.734375 18.5 7.8125 
Q 22.3125 6.890625 25.984375 6.890625 
Q 35.75 6.890625 40.890625 13.453125 
Q 46.046875 20.015625 46.78125 33.40625 
Q 43.953125 29.203125 39.59375 26.953125 
Q 35.25 24.703125 29.984375 24.703125 
Q 19.046875 24.703125 12.671875 31.3125 
Q 6.296875 37.9375 6.296875 49.421875 
Q 6.296875 60.640625 12.9375 67.421875 
Q 19.578125 74.21875 30.609375 74.21875 
Q 43.265625 74.21875 49.921875 64.515625 
Q 56.59375 54.828125 56.59375 36.375 
Q 56.59375 19.140625 48.40625 8.859375 
Q 40.234375 -1.421875 26.421875 -1.421875 
Q 22.703125 -1.421875 18.890625 -0.6875 
Q 15.09375 0.046875 10.984375 1.515625 
z
M 30.609375 32.421875 
Q 37.25 32.421875 41.125 36.953125 
Q 45.015625 41.5 45.015625 49.421875 
Q 45.015625 57.28125 41.125 61.84375 
Q 37.25 66.40625 30.609375 66.40625 
Q 23.96875 66.40625 20.09375 61.84375 
Q 16.21875 57.28125 16.21875 49.421875 
Q 16.21875 41.5 20.09375 36.953125 
Q 23.96875 32.421875 30.609375 32.421875 
z
" id="DejaVuSans-57"/>
      <path d="M 8.015625 75.875 
L 15.828125 75.875 
Q 23.140625 64.359375 26.78125 53.3125 
Q 30.421875 42.28125 30.421875 31.390625 
Q 30.421875 20.453125 26.78125 9.375 
Q 23.140625 -1.703125 15.828125 -13.1875 
L 8.015625 -13.1875 
Q 14.5 -2 17.703125 9.0625 
Q 20.90625 20.125 20.90625 31.390625 
Q 20.90625 42.671875 17.703125 53.65625 
Q 14.5 64.65625 8.015625 75.875 
z
" id="DejaVuSans-41"/>
     </defs>
     <g transform="translate(445.081875 505.992188)scale(0.06 -0.06)">
      <use xlink:href="#DejaVuSans-68"/>
      <use x="77.001953" xlink:href="#DejaVuSans-48"/>
      <use x="140.625" xlink:href="#DejaVuSans-48"/>
      <use x="204.248047" xlink:href="#DejaVuSans-56"/>
      <use x="267.871094" xlink:href="#DejaVuSans-49"/>
      <use x="331.494141" xlink:href="#DejaVuSans-48"/>
      <use x="395.117188" xlink:href="#DejaVuSans-55"/>
      <use x="458.740234" xlink:href="#DejaVuSans-32"/>
      <use x="490.527344" xlink:href="#DejaVuSans-40"/>
      <use x="529.541016" xlink:href="#DejaVuSans-97"/>
      <use x="590.820312" xlink:href="#DejaVuSans-114"/>
      <use x="631.902344" xlink:href="#DejaVuSans-101"/>
      <use x="693.425781" xlink:href="#DejaVuSans-97"/>
      <use x="754.705078" xlink:href="#DejaVuSans-32"/>
      <use x="786.492188" xlink:href="#DejaVuSans-61"/>
      <use x="870.28125" xlink:href="#DejaVuSans-48"/>
      <use x="933.904297" xlink:href="#DejaVuSans-46"/>
      <use x="965.691406" xlink:href="#DejaVuSans-57"/>
      <use x="1029.314453" xlink:href="#DejaVuSans-48"/>
      <use x="1092.9375" xlink:href="#DejaVuSans-41"/>
     </g>
    </g>
   </g>
  </g>
 </g>
 <defs>
  <clipPath id="peb56e6913c">
   <rect height="443.52" width="446.4" x="72" y="69.12"/>
  </clipPath>
 </defs>
</svg>
