<?xml version="1.0" encoding="utf-8" standalone="no"?>
<!DOCTYPE svg PUBLIC "-//W3C//DTD SVG 1.1//EN"
  "http://www.w3.org/Graphics/SVG/1.1/DTD/svg11.dtd">
<!-- Created with matplotlib (https://matplotlib.org/) -->
<svg height="576pt" version="1.1" viewBox="0 0 576 576" width="576pt" xmlns="http://www.w3.org/2000/svg" xmlns:xlink="http://www.w3.org/1999/xlink">
 <defs>
  <style type="text/css">
*{stroke-linecap:butt;stroke-linejoin:round;}
  </style>
 </defs>
 <g id="figure_1">
  <g id="patch_1">
   <path d="M 0 576 
L 576 576 
L 576 0 
L 0 0 
z
" style="fill:#ffffff;"/>
  </g>
  <g id="axes_1">
   <g id="patch_2">
    <path d="M 72 512.64 
L 518.4 512.64 
L 518.4 69.12 
L 72 69.12 
z
" style="fill:#ffffff;"/>
   </g>
   <g id="matplotlib.axis_1">
    <g id="xtick_1">
     <g id="line2d_1">
      <path clip-path="url(#pf4ed989580)" d="M 72 512.64 
L 72 69.12 
" style="fill:none;stroke:#b0b0b0;stroke-linecap:square;stroke-width:0.8;"/>
     </g>
     <g id="line2d_2">
      <defs>
       <path d="M 0 0 
L 0 3.5 
" id="md2795d9549" style="stroke:#000000;stroke-width:0.8;"/>
      </defs>
      <g>
       <use style="stroke:#000000;stroke-width:0.8;" x="72" xlink:href="#md2795d9549" y="512.64"/>
      </g>
     </g>
     <g id="text_1">
      <!-- 0.0 -->
      <defs>
       <path d="M 31.78125 66.40625 
Q 24.171875 66.40625 20.328125 58.90625 
Q 16.5 51.421875 16.5 36.375 
Q 16.5 21.390625 20.328125 13.890625 
Q 24.171875 6.390625 31.78125 6.390625 
Q 39.453125 6.390625 43.28125 13.890625 
Q 47.125 21.390625 47.125 36.375 
Q 47.125 51.421875 43.28125 58.90625 
Q 39.453125 66.40625 31.78125 66.40625 
z
M 31.78125 74.21875 
Q 44.046875 74.21875 50.515625 64.515625 
Q 56.984375 54.828125 56.984375 36.375 
Q 56.984375 17.96875 50.515625 8.265625 
Q 44.046875 -1.421875 31.78125 -1.421875 
Q 19.53125 -1.421875 13.0625 8.265625 
Q 6.59375 17.96875 6.59375 36.375 
Q 6.59375 54.828125 13.0625 64.515625 
Q 19.53125 74.21875 31.78125 74.21875 
z
" id="DejaVuSans-48"/>
       <path d="M 10.6875 12.40625 
L 21 12.40625 
L 21 0 
L 10.6875 0 
z
" id="DejaVuSans-46"/>
      </defs>
      <g transform="translate(64.048438 527.238438)scale(0.1 -0.1)">
       <use xlink:href="#DejaVuSans-48"/>
       <use x="63.623047" xlink:href="#DejaVuSans-46"/>
       <use x="95.410156" xlink:href="#DejaVuSans-48"/>
      </g>
     </g>
    </g>
    <g id="xtick_2">
     <g id="line2d_3">
      <path clip-path="url(#pf4ed989580)" d="M 161.28 512.64 
L 161.28 69.12 
" style="fill:none;stroke:#b0b0b0;stroke-linecap:square;stroke-width:0.8;"/>
     </g>
     <g id="line2d_4">
      <g>
       <use style="stroke:#000000;stroke-width:0.8;" x="161.28" xlink:href="#md2795d9549" y="512.64"/>
      </g>
     </g>
     <g id="text_2">
      <!-- 0.2 -->
      <defs>
       <path d="M 19.1875 8.296875 
L 53.609375 8.296875 
L 53.609375 0 
L 7.328125 0 
L 7.328125 8.296875 
Q 12.9375 14.109375 22.625 23.890625 
Q 32.328125 33.6875 34.8125 36.53125 
Q 39.546875 41.84375 41.421875 45.53125 
Q 43.3125 49.21875 43.3125 52.78125 
Q 43.3125 58.59375 39.234375 62.25 
Q 35.15625 65.921875 28.609375 65.921875 
Q 23.96875 65.921875 18.8125 64.3125 
Q 13.671875 62.703125 7.8125 59.421875 
L 7.8125 69.390625 
Q 13.765625 71.78125 18.9375 73 
Q 24.125 74.21875 28.421875 74.21875 
Q 39.75 74.21875 46.484375 68.546875 
Q 53.21875 62.890625 53.21875 53.421875 
Q 53.21875 48.921875 51.53125 44.890625 
Q 49.859375 40.875 45.40625 35.40625 
Q 44.1875 33.984375 37.640625 27.21875 
Q 31.109375 20.453125 19.1875 8.296875 
z
" id="DejaVuSans-50"/>
      </defs>
      <g transform="translate(153.328438 527.238438)scale(0.1 -0.1)">
       <use xlink:href="#DejaVuSans-48"/>
       <use x="63.623047" xlink:href="#DejaVuSans-46"/>
       <use x="95.410156" xlink:href="#DejaVuSans-50"/>
      </g>
     </g>
    </g>
    <g id="xtick_3">
     <g id="line2d_5">
      <path clip-path="url(#pf4ed989580)" d="M 250.56 512.64 
L 250.56 69.12 
" style="fill:none;stroke:#b0b0b0;stroke-linecap:square;stroke-width:0.8;"/>
     </g>
     <g id="line2d_6">
      <g>
       <use style="stroke:#000000;stroke-width:0.8;" x="250.56" xlink:href="#md2795d9549" y="512.64"/>
      </g>
     </g>
     <g id="text_3">
      <!-- 0.4 -->
      <defs>
       <path d="M 37.796875 64.3125 
L 12.890625 25.390625 
L 37.796875 25.390625 
z
M 35.203125 72.90625 
L 47.609375 72.90625 
L 47.609375 25.390625 
L 58.015625 25.390625 
L 58.015625 17.1875 
L 47.609375 17.1875 
L 47.609375 0 
L 37.796875 0 
L 37.796875 17.1875 
L 4.890625 17.1875 
L 4.890625 26.703125 
z
" id="DejaVuSans-52"/>
      </defs>
      <g transform="translate(242.608438 527.238438)scale(0.1 -0.1)">
       <use xlink:href="#DejaVuSans-48"/>
       <use x="63.623047" xlink:href="#DejaVuSans-46"/>
       <use x="95.410156" xlink:href="#DejaVuSans-52"/>
      </g>
     </g>
    </g>
    <g id="xtick_4">
     <g id="line2d_7">
      <path clip-path="url(#pf4ed989580)" d="M 339.84 512.64 
L 339.84 69.12 
" style="fill:none;stroke:#b0b0b0;stroke-linecap:square;stroke-width:0.8;"/>
     </g>
     <g id="line2d_8">
      <g>
       <use style="stroke:#000000;stroke-width:0.8;" x="339.84" xlink:href="#md2795d9549" y="512.64"/>
      </g>
     </g>
     <g id="text_4">
      <!-- 0.6 -->
      <defs>
       <path d="M 33.015625 40.375 
Q 26.375 40.375 22.484375 35.828125 
Q 18.609375 31.296875 18.609375 23.390625 
Q 18.609375 15.53125 22.484375 10.953125 
Q 26.375 6.390625 33.015625 6.390625 
Q 39.65625 6.390625 43.53125 10.953125 
Q 47.40625 15.53125 47.40625 23.390625 
Q 47.40625 31.296875 43.53125 35.828125 
Q 39.65625 40.375 33.015625 40.375 
z
M 52.59375 71.296875 
L 52.59375 62.3125 
Q 48.875 64.0625 45.09375 64.984375 
Q 41.3125 65.921875 37.59375 65.921875 
Q 27.828125 65.921875 22.671875 59.328125 
Q 17.53125 52.734375 16.796875 39.40625 
Q 19.671875 43.65625 24.015625 45.921875 
Q 28.375 48.1875 33.59375 48.1875 
Q 44.578125 48.1875 50.953125 41.515625 
Q 57.328125 34.859375 57.328125 23.390625 
Q 57.328125 12.15625 50.6875 5.359375 
Q 44.046875 -1.421875 33.015625 -1.421875 
Q 20.359375 -1.421875 13.671875 8.265625 
Q 6.984375 17.96875 6.984375 36.375 
Q 6.984375 53.65625 15.1875 63.9375 
Q 23.390625 74.21875 37.203125 74.21875 
Q 40.921875 74.21875 44.703125 73.484375 
Q 48.484375 72.75 52.59375 71.296875 
z
" id="DejaVuSans-54"/>
      </defs>
      <g transform="translate(331.888438 527.238438)scale(0.1 -0.1)">
       <use xlink:href="#DejaVuSans-48"/>
       <use x="63.623047" xlink:href="#DejaVuSans-46"/>
       <use x="95.410156" xlink:href="#DejaVuSans-54"/>
      </g>
     </g>
    </g>
    <g id="xtick_5">
     <g id="line2d_9">
      <path clip-path="url(#pf4ed989580)" d="M 429.12 512.64 
L 429.12 69.12 
" style="fill:none;stroke:#b0b0b0;stroke-linecap:square;stroke-width:0.8;"/>
     </g>
     <g id="line2d_10">
      <g>
       <use style="stroke:#000000;stroke-width:0.8;" x="429.12" xlink:href="#md2795d9549" y="512.64"/>
      </g>
     </g>
     <g id="text_5">
      <!-- 0.8 -->
      <defs>
       <path d="M 31.78125 34.625 
Q 24.75 34.625 20.71875 30.859375 
Q 16.703125 27.09375 16.703125 20.515625 
Q 16.703125 13.921875 20.71875 10.15625 
Q 24.75 6.390625 31.78125 6.390625 
Q 38.8125 6.390625 42.859375 10.171875 
Q 46.921875 13.96875 46.921875 20.515625 
Q 46.921875 27.09375 42.890625 30.859375 
Q 38.875 34.625 31.78125 34.625 
z
M 21.921875 38.8125 
Q 15.578125 40.375 12.03125 44.71875 
Q 8.5 49.078125 8.5 55.328125 
Q 8.5 64.0625 14.71875 69.140625 
Q 20.953125 74.21875 31.78125 74.21875 
Q 42.671875 74.21875 48.875 69.140625 
Q 55.078125 64.0625 55.078125 55.328125 
Q 55.078125 49.078125 51.53125 44.71875 
Q 48 40.375 41.703125 38.8125 
Q 48.828125 37.15625 52.796875 32.3125 
Q 56.78125 27.484375 56.78125 20.515625 
Q 56.78125 9.90625 50.3125 4.234375 
Q 43.84375 -1.421875 31.78125 -1.421875 
Q 19.734375 -1.421875 13.25 4.234375 
Q 6.78125 9.90625 6.78125 20.515625 
Q 6.78125 27.484375 10.78125 32.3125 
Q 14.796875 37.15625 21.921875 38.8125 
z
M 18.3125 54.390625 
Q 18.3125 48.734375 21.84375 45.5625 
Q 25.390625 42.390625 31.78125 42.390625 
Q 38.140625 42.390625 41.71875 45.5625 
Q 45.3125 48.734375 45.3125 54.390625 
Q 45.3125 60.0625 41.71875 63.234375 
Q 38.140625 66.40625 31.78125 66.40625 
Q 25.390625 66.40625 21.84375 63.234375 
Q 18.3125 60.0625 18.3125 54.390625 
z
" id="DejaVuSans-56"/>
      </defs>
      <g transform="translate(421.168437 527.238438)scale(0.1 -0.1)">
       <use xlink:href="#DejaVuSans-48"/>
       <use x="63.623047" xlink:href="#DejaVuSans-46"/>
       <use x="95.410156" xlink:href="#DejaVuSans-56"/>
      </g>
     </g>
    </g>
    <g id="xtick_6">
     <g id="line2d_11">
      <path clip-path="url(#pf4ed989580)" d="M 518.4 512.64 
L 518.4 69.12 
" style="fill:none;stroke:#b0b0b0;stroke-linecap:square;stroke-width:0.8;"/>
     </g>
     <g id="line2d_12">
      <g>
       <use style="stroke:#000000;stroke-width:0.8;" x="518.4" xlink:href="#md2795d9549" y="512.64"/>
      </g>
     </g>
     <g id="text_6">
      <!-- 1.0 -->
      <defs>
       <path d="M 12.40625 8.296875 
L 28.515625 8.296875 
L 28.515625 63.921875 
L 10.984375 60.40625 
L 10.984375 69.390625 
L 28.421875 72.90625 
L 38.28125 72.90625 
L 38.28125 8.296875 
L 54.390625 8.296875 
L 54.390625 0 
L 12.40625 0 
z
" id="DejaVuSans-49"/>
      </defs>
      <g transform="translate(510.448437 527.238438)scale(0.1 -0.1)">
       <use xlink:href="#DejaVuSans-49"/>
       <use x="63.623047" xlink:href="#DejaVuSans-46"/>
       <use x="95.410156" xlink:href="#DejaVuSans-48"/>
      </g>
     </g>
    </g>
    <g id="text_7">
     <!-- False Positive Rate -->
     <defs>
      <path d="M 9.8125 72.90625 
L 51.703125 72.90625 
L 51.703125 64.59375 
L 19.671875 64.59375 
L 19.671875 43.109375 
L 48.578125 43.109375 
L 48.578125 34.8125 
L 19.671875 34.8125 
L 19.671875 0 
L 9.8125 0 
z
" id="DejaVuSans-70"/>
      <path d="M 34.28125 27.484375 
Q 23.390625 27.484375 19.1875 25 
Q 14.984375 22.515625 14.984375 16.5 
Q 14.984375 11.71875 18.140625 8.90625 
Q 21.296875 6.109375 26.703125 6.109375 
Q 34.1875 6.109375 38.703125 11.40625 
Q 43.21875 16.703125 43.21875 25.484375 
L 43.21875 27.484375 
z
M 52.203125 31.203125 
L 52.203125 0 
L 43.21875 0 
L 43.21875 8.296875 
Q 40.140625 3.328125 35.546875 0.953125 
Q 30.953125 -1.421875 24.3125 -1.421875 
Q 15.921875 -1.421875 10.953125 3.296875 
Q 6 8.015625 6 15.921875 
Q 6 25.140625 12.171875 29.828125 
Q 18.359375 34.515625 30.609375 34.515625 
L 43.21875 34.515625 
L 43.21875 35.40625 
Q 43.21875 41.609375 39.140625 45 
Q 35.0625 48.390625 27.6875 48.390625 
Q 23 48.390625 18.546875 47.265625 
Q 14.109375 46.140625 10.015625 43.890625 
L 10.015625 52.203125 
Q 14.9375 54.109375 19.578125 55.046875 
Q 24.21875 56 28.609375 56 
Q 40.484375 56 46.34375 49.84375 
Q 52.203125 43.703125 52.203125 31.203125 
z
" id="DejaVuSans-97"/>
      <path d="M 9.421875 75.984375 
L 18.40625 75.984375 
L 18.40625 0 
L 9.421875 0 
z
" id="DejaVuSans-108"/>
      <path d="M 44.28125 53.078125 
L 44.28125 44.578125 
Q 40.484375 46.53125 36.375 47.5 
Q 32.28125 48.484375 27.875 48.484375 
Q 21.1875 48.484375 17.84375 46.4375 
Q 14.5 44.390625 14.5 40.28125 
Q 14.5 37.15625 16.890625 35.375 
Q 19.28125 33.59375 26.515625 31.984375 
L 29.59375 31.296875 
Q 39.15625 29.25 43.1875 25.515625 
Q 47.21875 21.78125 47.21875 15.09375 
Q 47.21875 7.46875 41.1875 3.015625 
Q 35.15625 -1.421875 24.609375 -1.421875 
Q 20.21875 -1.421875 15.453125 -0.5625 
Q 10.6875 0.296875 5.421875 2 
L 5.421875 11.28125 
Q 10.40625 8.6875 15.234375 7.390625 
Q 20.0625 6.109375 24.8125 6.109375 
Q 31.15625 6.109375 34.5625 8.28125 
Q 37.984375 10.453125 37.984375 14.40625 
Q 37.984375 18.0625 35.515625 20.015625 
Q 33.0625 21.96875 24.703125 23.78125 
L 21.578125 24.515625 
Q 13.234375 26.265625 9.515625 29.90625 
Q 5.8125 33.546875 5.8125 39.890625 
Q 5.8125 47.609375 11.28125 51.796875 
Q 16.75 56 26.8125 56 
Q 31.78125 56 36.171875 55.265625 
Q 40.578125 54.546875 44.28125 53.078125 
z
" id="DejaVuSans-115"/>
      <path d="M 56.203125 29.59375 
L 56.203125 25.203125 
L 14.890625 25.203125 
Q 15.484375 15.921875 20.484375 11.0625 
Q 25.484375 6.203125 34.421875 6.203125 
Q 39.59375 6.203125 44.453125 7.46875 
Q 49.3125 8.734375 54.109375 11.28125 
L 54.109375 2.78125 
Q 49.265625 0.734375 44.1875 -0.34375 
Q 39.109375 -1.421875 33.890625 -1.421875 
Q 20.796875 -1.421875 13.15625 6.1875 
Q 5.515625 13.8125 5.515625 26.8125 
Q 5.515625 40.234375 12.765625 48.109375 
Q 20.015625 56 32.328125 56 
Q 43.359375 56 49.78125 48.890625 
Q 56.203125 41.796875 56.203125 29.59375 
z
M 47.21875 32.234375 
Q 47.125 39.59375 43.09375 43.984375 
Q 39.0625 48.390625 32.421875 48.390625 
Q 24.90625 48.390625 20.390625 44.140625 
Q 15.875 39.890625 15.1875 32.171875 
z
" id="DejaVuSans-101"/>
      <path id="DejaVuSans-32"/>
      <path d="M 19.671875 64.796875 
L 19.671875 37.40625 
L 32.078125 37.40625 
Q 38.96875 37.40625 42.71875 40.96875 
Q 46.484375 44.53125 46.484375 51.125 
Q 46.484375 57.671875 42.71875 61.234375 
Q 38.96875 64.796875 32.078125 64.796875 
z
M 9.8125 72.90625 
L 32.078125 72.90625 
Q 44.34375 72.90625 50.609375 67.359375 
Q 56.890625 61.8125 56.890625 51.125 
Q 56.890625 40.328125 50.609375 34.8125 
Q 44.34375 29.296875 32.078125 29.296875 
L 19.671875 29.296875 
L 19.671875 0 
L 9.8125 0 
z
" id="DejaVuSans-80"/>
      <path d="M 30.609375 48.390625 
Q 23.390625 48.390625 19.1875 42.75 
Q 14.984375 37.109375 14.984375 27.296875 
Q 14.984375 17.484375 19.15625 11.84375 
Q 23.34375 6.203125 30.609375 6.203125 
Q 37.796875 6.203125 41.984375 11.859375 
Q 46.1875 17.53125 46.1875 27.296875 
Q 46.1875 37.015625 41.984375 42.703125 
Q 37.796875 48.390625 30.609375 48.390625 
z
M 30.609375 56 
Q 42.328125 56 49.015625 48.375 
Q 55.71875 40.765625 55.71875 27.296875 
Q 55.71875 13.875 49.015625 6.21875 
Q 42.328125 -1.421875 30.609375 -1.421875 
Q 18.84375 -1.421875 12.171875 6.21875 
Q 5.515625 13.875 5.515625 27.296875 
Q 5.515625 40.765625 12.171875 48.375 
Q 18.84375 56 30.609375 56 
z
" id="DejaVuSans-111"/>
      <path d="M 9.421875 54.6875 
L 18.40625 54.6875 
L 18.40625 0 
L 9.421875 0 
z
M 9.421875 75.984375 
L 18.40625 75.984375 
L 18.40625 64.59375 
L 9.421875 64.59375 
z
" id="DejaVuSans-105"/>
      <path d="M 18.3125 70.21875 
L 18.3125 54.6875 
L 36.8125 54.6875 
L 36.8125 47.703125 
L 18.3125 47.703125 
L 18.3125 18.015625 
Q 18.3125 11.328125 20.140625 9.421875 
Q 21.96875 7.515625 27.59375 7.515625 
L 36.8125 7.515625 
L 36.8125 0 
L 27.59375 0 
Q 17.1875 0 13.234375 3.875 
Q 9.28125 7.765625 9.28125 18.015625 
L 9.28125 47.703125 
L 2.6875 47.703125 
L 2.6875 54.6875 
L 9.28125 54.6875 
L 9.28125 70.21875 
z
" id="DejaVuSans-116"/>
      <path d="M 2.984375 54.6875 
L 12.5 54.6875 
L 29.59375 8.796875 
L 46.6875 54.6875 
L 56.203125 54.6875 
L 35.6875 0 
L 23.484375 0 
z
" id="DejaVuSans-118"/>
      <path d="M 44.390625 34.1875 
Q 47.5625 33.109375 50.5625 29.59375 
Q 53.5625 26.078125 56.59375 19.921875 
L 66.609375 0 
L 56 0 
L 46.6875 18.703125 
Q 43.0625 26.03125 39.671875 28.421875 
Q 36.28125 30.8125 30.421875 30.8125 
L 19.671875 30.8125 
L 19.671875 0 
L 9.8125 0 
L 9.8125 72.90625 
L 32.078125 72.90625 
Q 44.578125 72.90625 50.734375 67.671875 
Q 56.890625 62.453125 56.890625 51.90625 
Q 56.890625 45.015625 53.6875 40.46875 
Q 50.484375 35.9375 44.390625 34.1875 
z
M 19.671875 64.796875 
L 19.671875 38.921875 
L 32.078125 38.921875 
Q 39.203125 38.921875 42.84375 42.21875 
Q 46.484375 45.515625 46.484375 51.90625 
Q 46.484375 58.296875 42.84375 61.546875 
Q 39.203125 64.796875 32.078125 64.796875 
z
" id="DejaVuSans-82"/>
     </defs>
     <g transform="translate(247.994531 540.916563)scale(0.1 -0.1)">
      <use xlink:href="#DejaVuSans-70"/>
      <use x="57.378906" xlink:href="#DejaVuSans-97"/>
      <use x="118.658203" xlink:href="#DejaVuSans-108"/>
      <use x="146.441406" xlink:href="#DejaVuSans-115"/>
      <use x="198.541016" xlink:href="#DejaVuSans-101"/>
      <use x="260.064453" xlink:href="#DejaVuSans-32"/>
      <use x="291.851562" xlink:href="#DejaVuSans-80"/>
      <use x="352.107422" xlink:href="#DejaVuSans-111"/>
      <use x="413.289062" xlink:href="#DejaVuSans-115"/>
      <use x="465.388672" xlink:href="#DejaVuSans-105"/>
      <use x="493.171875" xlink:href="#DejaVuSans-116"/>
      <use x="532.380859" xlink:href="#DejaVuSans-105"/>
      <use x="560.164062" xlink:href="#DejaVuSans-118"/>
      <use x="619.34375" xlink:href="#DejaVuSans-101"/>
      <use x="680.867188" xlink:href="#DejaVuSans-32"/>
      <use x="712.654297" xlink:href="#DejaVuSans-82"/>
      <use x="782.105469" xlink:href="#DejaVuSans-97"/>
      <use x="843.384766" xlink:href="#DejaVuSans-116"/>
      <use x="882.59375" xlink:href="#DejaVuSans-101"/>
     </g>
    </g>
   </g>
   <g id="matplotlib.axis_2">
    <g id="ytick_1">
     <g id="line2d_13">
      <path clip-path="url(#pf4ed989580)" d="M 72 512.64 
L 518.4 512.64 
" style="fill:none;stroke:#b0b0b0;stroke-linecap:square;stroke-width:0.8;"/>
     </g>
     <g id="line2d_14">
      <defs>
       <path d="M 0 0 
L -3.5 0 
" id="m879626faed" style="stroke:#000000;stroke-width:0.8;"/>
      </defs>
      <g>
       <use style="stroke:#000000;stroke-width:0.8;" x="72" xlink:href="#m879626faed" y="512.64"/>
      </g>
     </g>
     <g id="text_8">
      <!-- 0.0 -->
      <g transform="translate(49.096875 516.439219)scale(0.1 -0.1)">
       <use xlink:href="#DejaVuSans-48"/>
       <use x="63.623047" xlink:href="#DejaVuSans-46"/>
       <use x="95.410156" xlink:href="#DejaVuSans-48"/>
      </g>
     </g>
    </g>
    <g id="ytick_2">
     <g id="line2d_15">
      <path clip-path="url(#pf4ed989580)" d="M 72 428.16 
L 518.4 428.16 
" style="fill:none;stroke:#b0b0b0;stroke-linecap:square;stroke-width:0.8;"/>
     </g>
     <g id="line2d_16">
      <g>
       <use style="stroke:#000000;stroke-width:0.8;" x="72" xlink:href="#m879626faed" y="428.16"/>
      </g>
     </g>
     <g id="text_9">
      <!-- 0.2 -->
      <g transform="translate(49.096875 431.959219)scale(0.1 -0.1)">
       <use xlink:href="#DejaVuSans-48"/>
       <use x="63.623047" xlink:href="#DejaVuSans-46"/>
       <use x="95.410156" xlink:href="#DejaVuSans-50"/>
      </g>
     </g>
    </g>
    <g id="ytick_3">
     <g id="line2d_17">
      <path clip-path="url(#pf4ed989580)" d="M 72 343.68 
L 518.4 343.68 
" style="fill:none;stroke:#b0b0b0;stroke-linecap:square;stroke-width:0.8;"/>
     </g>
     <g id="line2d_18">
      <g>
       <use style="stroke:#000000;stroke-width:0.8;" x="72" xlink:href="#m879626faed" y="343.68"/>
      </g>
     </g>
     <g id="text_10">
      <!-- 0.4 -->
      <g transform="translate(49.096875 347.479219)scale(0.1 -0.1)">
       <use xlink:href="#DejaVuSans-48"/>
       <use x="63.623047" xlink:href="#DejaVuSans-46"/>
       <use x="95.410156" xlink:href="#DejaVuSans-52"/>
      </g>
     </g>
    </g>
    <g id="ytick_4">
     <g id="line2d_19">
      <path clip-path="url(#pf4ed989580)" d="M 72 259.2 
L 518.4 259.2 
" style="fill:none;stroke:#b0b0b0;stroke-linecap:square;stroke-width:0.8;"/>
     </g>
     <g id="line2d_20">
      <g>
       <use style="stroke:#000000;stroke-width:0.8;" x="72" xlink:href="#m879626faed" y="259.2"/>
      </g>
     </g>
     <g id="text_11">
      <!-- 0.6 -->
      <g transform="translate(49.096875 262.999219)scale(0.1 -0.1)">
       <use xlink:href="#DejaVuSans-48"/>
       <use x="63.623047" xlink:href="#DejaVuSans-46"/>
       <use x="95.410156" xlink:href="#DejaVuSans-54"/>
      </g>
     </g>
    </g>
    <g id="ytick_5">
     <g id="line2d_21">
      <path clip-path="url(#pf4ed989580)" d="M 72 174.72 
L 518.4 174.72 
" style="fill:none;stroke:#b0b0b0;stroke-linecap:square;stroke-width:0.8;"/>
     </g>
     <g id="line2d_22">
      <g>
       <use style="stroke:#000000;stroke-width:0.8;" x="72" xlink:href="#m879626faed" y="174.72"/>
      </g>
     </g>
     <g id="text_12">
      <!-- 0.8 -->
      <g transform="translate(49.096875 178.519219)scale(0.1 -0.1)">
       <use xlink:href="#DejaVuSans-48"/>
       <use x="63.623047" xlink:href="#DejaVuSans-46"/>
       <use x="95.410156" xlink:href="#DejaVuSans-56"/>
      </g>
     </g>
    </g>
    <g id="ytick_6">
     <g id="line2d_23">
      <path clip-path="url(#pf4ed989580)" d="M 72 90.24 
L 518.4 90.24 
" style="fill:none;stroke:#b0b0b0;stroke-linecap:square;stroke-width:0.8;"/>
     </g>
     <g id="line2d_24">
      <g>
       <use style="stroke:#000000;stroke-width:0.8;" x="72" xlink:href="#m879626faed" y="90.24"/>
      </g>
     </g>
     <g id="text_13">
      <!-- 1.0 -->
      <g transform="translate(49.096875 94.039219)scale(0.1 -0.1)">
       <use xlink:href="#DejaVuSans-49"/>
       <use x="63.623047" xlink:href="#DejaVuSans-46"/>
       <use x="95.410156" xlink:href="#DejaVuSans-48"/>
      </g>
     </g>
    </g>
    <g id="text_14">
     <!-- True Positive Rate -->
     <defs>
      <path d="M -0.296875 72.90625 
L 61.375 72.90625 
L 61.375 64.59375 
L 35.5 64.59375 
L 35.5 0 
L 25.59375 0 
L 25.59375 64.59375 
L -0.296875 64.59375 
z
" id="DejaVuSans-84"/>
      <path d="M 41.109375 46.296875 
Q 39.59375 47.171875 37.8125 47.578125 
Q 36.03125 48 33.890625 48 
Q 26.265625 48 22.1875 43.046875 
Q 18.109375 38.09375 18.109375 28.8125 
L 18.109375 0 
L 9.078125 0 
L 9.078125 54.6875 
L 18.109375 54.6875 
L 18.109375 46.1875 
Q 20.953125 51.171875 25.484375 53.578125 
Q 30.03125 56 36.53125 56 
Q 37.453125 56 38.578125 55.875 
Q 39.703125 55.765625 41.0625 55.515625 
z
" id="DejaVuSans-114"/>
      <path d="M 8.5 21.578125 
L 8.5 54.6875 
L 17.484375 54.6875 
L 17.484375 21.921875 
Q 17.484375 14.15625 20.5 10.265625 
Q 23.53125 6.390625 29.59375 6.390625 
Q 36.859375 6.390625 41.078125 11.03125 
Q 45.3125 15.671875 45.3125 23.6875 
L 45.3125 54.6875 
L 54.296875 54.6875 
L 54.296875 0 
L 45.3125 0 
L 45.3125 8.40625 
Q 42.046875 3.421875 37.71875 1 
Q 33.40625 -1.421875 27.6875 -1.421875 
Q 18.265625 -1.421875 13.375 4.4375 
Q 8.5 10.296875 8.5 21.578125 
z
M 31.109375 56 
z
" id="DejaVuSans-117"/>
     </defs>
     <g transform="translate(43.017187 336.426094)rotate(-90)scale(0.1 -0.1)">
      <use xlink:href="#DejaVuSans-84"/>
      <use x="60.865234" xlink:href="#DejaVuSans-114"/>
      <use x="101.978516" xlink:href="#DejaVuSans-117"/>
      <use x="165.357422" xlink:href="#DejaVuSans-101"/>
      <use x="226.880859" xlink:href="#DejaVuSans-32"/>
      <use x="258.667969" xlink:href="#DejaVuSans-80"/>
      <use x="318.923828" xlink:href="#DejaVuSans-111"/>
      <use x="380.105469" xlink:href="#DejaVuSans-115"/>
      <use x="432.205078" xlink:href="#DejaVuSans-105"/>
      <use x="459.988281" xlink:href="#DejaVuSans-116"/>
      <use x="499.197266" xlink:href="#DejaVuSans-105"/>
      <use x="526.980469" xlink:href="#DejaVuSans-118"/>
      <use x="586.160156" xlink:href="#DejaVuSans-101"/>
      <use x="647.683594" xlink:href="#DejaVuSans-32"/>
      <use x="679.470703" xlink:href="#DejaVuSans-82"/>
      <use x="748.921875" xlink:href="#DejaVuSans-97"/>
      <use x="810.201172" xlink:href="#DejaVuSans-116"/>
      <use x="849.410156" xlink:href="#DejaVuSans-101"/>
     </g>
    </g>
   </g>
   <g id="line2d_25">
    <path clip-path="url(#pf4ed989580)" d="M 72 512.64 
L 72 511.195897 
L 72.381538 511.195897 
L 72.381538 505.058462 
L 72.763077 505.058462 
L 72.763077 481.952821 
L 73.144615 481.952821 
L 73.144615 475.454359 
L 73.526154 475.454359 
L 73.526154 470.038974 
L 73.907692 470.038974 
L 73.907692 461.374359 
L 74.289231 461.374359 
L 74.289231 454.153846 
L 74.670769 454.153846 
L 74.670769 452.348718 
L 75.052308 452.348718 
L 75.052308 447.655385 
L 75.433846 447.655385 
L 75.433846 447.294359 
L 75.815385 447.294359 
L 75.815385 443.684103 
L 76.578462 443.684103 
L 76.578462 441.878974 
L 76.96 441.878974 
L 76.96 441.517949 
L 77.341538 441.517949 
L 77.341538 437.907692 
L 77.723077 437.907692 
L 77.723077 434.297436 
L 78.104615 434.297436 
L 78.104615 423.466667 
L 78.486154 423.466667 
L 78.486154 414.802051 
L 78.867692 414.802051 
L 78.867692 411.552821 
L 79.249231 411.552821 
L 79.249231 407.581538 
L 80.012308 407.581538 
L 80.012308 399.277949 
L 80.393846 399.277949 
L 80.393846 398.194872 
L 80.775385 398.194872 
L 80.775385 387.725128 
L 81.156923 387.725128 
L 81.156923 382.309744 
L 81.538462 382.309744 
L 81.538462 381.948718 
L 81.92 381.948718 
L 81.92 375.089231 
L 82.301538 375.089231 
L 82.301538 364.619487 
L 82.683077 364.619487 
L 82.683077 363.53641 
L 83.064615 363.53641 
L 83.064615 360.287179 
L 83.446154 360.287179 
L 83.446154 358.121026 
L 83.827692 358.121026 
L 83.827692 351.98359 
L 84.209231 351.98359 
L 84.209231 351.261538 
L 84.590769 351.261538 
L 84.590769 350.900513 
L 84.972308 350.900513 
L 84.972308 346.568205 
L 85.353846 346.568205 
L 85.353846 341.874872 
L 86.116923 341.874872 
L 86.116923 340.791795 
L 86.498462 340.791795 
L 86.498462 339.347692 
L 87.261538 339.347692 
L 87.261538 332.488205 
L 87.643077 332.488205 
L 87.643077 331.044103 
L 88.406154 331.044103 
L 88.406154 328.877949 
L 88.787692 328.877949 
L 88.787692 326.711795 
L 89.169231 326.711795 
L 89.169231 324.545641 
L 89.550769 324.545641 
L 89.550769 324.184615 
L 89.932308 324.184615 
L 89.932308 323.82359 
L 90.695385 323.82359 
L 90.695385 323.462564 
L 91.076923 323.462564 
L 91.076923 322.018462 
L 91.458462 322.018462 
L 91.458462 316.603077 
L 91.84 316.603077 
L 91.84 315.881026 
L 92.221538 315.881026 
L 92.221538 314.797949 
L 92.603077 314.797949 
L 92.603077 313.714872 
L 92.984615 313.714872 
L 92.984615 313.353846 
L 93.366154 313.353846 
L 93.366154 312.992821 
L 93.747692 312.992821 
L 93.747692 310.465641 
L 94.129231 310.465641 
L 94.129231 309.021538 
L 94.510769 309.021538 
L 94.510769 306.855385 
L 94.892308 306.855385 
L 94.892308 306.133333 
L 95.273846 306.133333 
L 95.273846 305.411282 
L 95.655385 305.411282 
L 95.655385 301.801026 
L 96.036923 301.801026 
L 96.036923 301.078974 
L 96.418462 301.078974 
L 96.418462 299.634872 
L 96.8 299.634872 
L 96.8 298.190769 
L 97.181538 298.190769 
L 97.181538 294.219487 
L 97.563077 294.219487 
L 97.563077 292.775385 
L 98.326154 292.775385 
L 98.326154 291.692308 
L 99.089231 291.692308 
L 99.089231 289.526154 
L 99.470769 289.526154 
L 99.470769 286.637949 
L 99.852308 286.637949 
L 99.852308 285.915897 
L 100.233846 285.915897 
L 100.233846 284.471795 
L 100.996923 284.471795 
L 100.996923 282.305641 
L 102.141538 282.305641 
L 102.141538 281.58359 
L 102.523077 281.58359 
L 102.523077 280.861538 
L 102.904615 280.861538 
L 102.904615 280.500513 
L 103.286154 280.500513 
L 103.286154 280.139487 
L 104.049231 280.139487 
L 104.049231 278.695385 
L 104.430769 278.695385 
L 104.430769 278.334359 
L 104.812308 278.334359 
L 104.812308 277.973333 
L 105.193846 277.973333 
L 105.193846 276.890256 
L 105.575385 276.890256 
L 105.575385 276.168205 
L 105.956923 276.168205 
L 105.956923 275.085128 
L 106.338462 275.085128 
L 106.338462 274.363077 
L 106.72 274.363077 
L 106.72 273.641026 
L 107.101538 273.641026 
L 107.101538 272.918974 
L 107.864615 272.918974 
L 107.864615 272.557949 
L 108.246154 272.557949 
L 108.246154 271.835897 
L 108.627692 271.835897 
L 108.627692 270.391795 
L 109.009231 270.391795 
L 109.009231 270.030769 
L 109.390769 270.030769 
L 109.390769 268.947692 
L 109.772308 268.947692 
L 109.772308 266.781538 
L 110.153846 266.781538 
L 110.153846 266.059487 
L 111.298462 266.059487 
L 111.298462 264.615385 
L 111.68 264.615385 
L 111.68 261.366154 
L 112.061538 261.366154 
L 112.061538 260.644103 
L 112.824615 260.644103 
L 112.824615 259.2 
L 113.206154 259.2 
L 113.206154 258.838974 
L 114.350769 258.838974 
L 114.350769 257.394872 
L 114.732308 257.394872 
L 114.732308 257.033846 
L 115.113846 257.033846 
L 115.113846 256.311795 
L 115.495385 256.311795 
L 115.495385 255.589744 
L 115.876923 255.589744 
L 115.876923 253.062564 
L 116.258462 253.062564 
L 116.258462 252.340513 
L 116.64 252.340513 
L 116.64 250.89641 
L 117.021538 250.89641 
L 117.021538 247.286154 
L 117.403077 247.286154 
L 117.403077 245.842051 
L 117.784615 245.842051 
L 117.784615 245.12 
L 118.166154 245.12 
L 118.166154 244.758974 
L 118.929231 244.758974 
L 118.929231 244.036923 
L 119.692308 244.036923 
L 119.692308 241.509744 
L 120.073846 241.509744 
L 120.073846 241.148718 
L 120.836923 241.148718 
L 120.836923 240.426667 
L 121.6 240.426667 
L 121.6 238.621538 
L 122.744615 238.621538 
L 122.744615 237.538462 
L 123.126154 237.538462 
L 123.126154 236.094359 
L 124.270769 236.094359 
L 124.270769 235.733333 
L 124.652308 235.733333 
L 124.652308 235.372308 
L 125.033846 235.372308 
L 125.033846 235.011282 
L 125.415385 235.011282 
L 125.415385 234.289231 
L 125.796923 234.289231 
L 125.796923 233.928205 
L 126.56 233.928205 
L 126.56 230.317949 
L 126.941538 230.317949 
L 126.941538 229.595897 
L 127.323077 229.595897 
L 127.323077 229.234872 
L 128.086154 229.234872 
L 128.086154 226.346667 
L 129.230769 226.346667 
L 129.230769 225.624615 
L 130.375385 225.624615 
L 130.375385 225.26359 
L 130.756923 225.26359 
L 130.756923 224.541538 
L 132.283077 224.541538 
L 132.283077 223.458462 
L 132.664615 223.458462 
L 132.664615 222.375385 
L 133.046154 222.375385 
L 133.046154 221.653333 
L 133.809231 221.653333 
L 133.809231 220.931282 
L 134.572308 220.931282 
L 134.572308 219.848205 
L 134.953846 219.848205 
L 134.953846 219.487179 
L 135.335385 219.487179 
L 135.335385 218.765128 
L 136.48 218.765128 
L 136.48 218.404103 
L 136.861538 218.404103 
L 136.861538 218.043077 
L 137.243077 218.043077 
L 137.243077 216.598974 
L 138.387692 216.598974 
L 138.387692 216.237949 
L 139.913846 216.237949 
L 139.913846 215.876923 
L 140.295385 215.876923 
L 140.295385 215.154872 
L 140.676923 215.154872 
L 140.676923 214.793846 
L 142.584615 214.793846 
L 142.584615 214.432821 
L 142.966154 214.432821 
L 142.966154 212.988718 
L 143.347692 212.988718 
L 143.347692 212.627692 
L 143.729231 212.627692 
L 143.729231 211.544615 
L 144.492308 211.544615 
L 144.492308 210.822564 
L 145.255385 210.822564 
L 145.255385 209.378462 
L 146.018462 209.378462 
L 146.018462 208.65641 
L 147.926154 208.65641 
L 147.926154 208.295385 
L 148.307692 208.295385 
L 148.307692 207.212308 
L 149.452308 207.212308 
L 149.452308 206.129231 
L 149.833846 206.129231 
L 149.833846 204.324103 
L 150.215385 204.324103 
L 150.215385 203.963077 
L 150.596923 203.963077 
L 150.596923 203.241026 
L 150.978462 203.241026 
L 150.978462 202.88 
L 151.36 202.88 
L 151.36 202.157949 
L 151.741538 202.157949 
L 151.741538 201.074872 
L 152.123077 201.074872 
L 152.123077 200.713846 
L 152.504615 200.713846 
L 152.504615 199.991795 
L 152.886154 199.991795 
L 152.886154 199.630769 
L 153.267692 199.630769 
L 153.267692 199.269744 
L 153.649231 199.269744 
L 153.649231 198.908718 
L 154.793846 198.908718 
L 154.793846 198.547692 
L 155.175385 198.547692 
L 155.175385 198.186667 
L 155.556923 198.186667 
L 155.556923 197.825641 
L 156.32 197.825641 
L 156.32 196.742564 
L 157.846154 196.742564 
L 157.846154 196.381538 
L 160.516923 196.381538 
L 160.516923 196.020513 
L 161.28 196.020513 
L 161.28 195.659487 
L 161.661538 195.659487 
L 161.661538 195.298462 
L 162.043077 195.298462 
L 162.043077 194.215385 
L 162.806154 194.215385 
L 162.806154 193.132308 
L 163.187692 193.132308 
L 163.187692 192.410256 
L 163.569231 192.410256 
L 163.569231 191.688205 
L 163.950769 191.688205 
L 163.950769 190.605128 
L 164.332308 190.605128 
L 164.332308 190.244103 
L 165.095385 190.244103 
L 165.095385 189.883077 
L 165.858462 189.883077 
L 165.858462 188.438974 
L 166.621538 188.438974 
L 166.621538 187.716923 
L 167.384615 187.716923 
L 167.384615 186.994872 
L 167.766154 186.994872 
L 167.766154 186.633846 
L 168.147692 186.633846 
L 168.147692 185.911795 
L 169.292308 185.911795 
L 169.292308 185.189744 
L 169.673846 185.189744 
L 169.673846 184.828718 
L 170.055385 184.828718 
L 170.055385 184.467692 
L 170.436923 184.467692 
L 170.436923 184.106667 
L 170.818462 184.106667 
L 170.818462 183.745641 
L 171.2 183.745641 
L 171.2 183.384615 
L 171.581538 183.384615 
L 171.581538 183.02359 
L 171.963077 183.02359 
L 171.963077 181.940513 
L 173.107692 181.940513 
L 173.107692 181.579487 
L 173.870769 181.579487 
L 173.870769 181.218462 
L 175.778462 181.218462 
L 175.778462 180.857436 
L 176.16 180.857436 
L 176.16 180.135385 
L 176.541538 180.135385 
L 176.541538 179.774359 
L 177.304615 179.774359 
L 177.304615 179.413333 
L 178.830769 179.413333 
L 178.830769 179.052308 
L 179.212308 179.052308 
L 179.212308 178.691282 
L 181.12 178.691282 
L 181.12 177.247179 
L 181.501538 177.247179 
L 181.501538 176.525128 
L 181.883077 176.525128 
L 181.883077 176.164103 
L 184.553846 176.164103 
L 184.553846 175.803077 
L 184.935385 175.803077 
L 184.935385 175.442051 
L 185.316923 175.442051 
L 185.316923 174.358974 
L 187.224615 174.358974 
L 187.224615 173.997949 
L 189.132308 173.997949 
L 189.132308 173.636923 
L 190.276923 173.636923 
L 190.276923 173.275897 
L 191.803077 173.275897 
L 191.803077 172.914872 
L 192.184615 172.914872 
L 192.184615 172.553846 
L 192.566154 172.553846 
L 192.566154 171.831795 
L 192.947692 171.831795 
L 192.947692 170.748718 
L 193.710769 170.748718 
L 193.710769 169.304615 
L 194.092308 169.304615 
L 194.092308 168.94359 
L 194.855385 168.94359 
L 194.855385 168.582564 
L 197.526154 168.582564 
L 197.526154 167.860513 
L 198.670769 167.860513 
L 198.670769 167.499487 
L 199.052308 167.499487 
L 199.052308 167.138462 
L 202.104615 167.138462 
L 202.104615 166.777436 
L 203.630769 166.777436 
L 203.630769 166.055385 
L 204.775385 166.055385 
L 204.775385 165.694359 
L 206.301538 165.694359 
L 206.301538 165.333333 
L 206.683077 165.333333 
L 206.683077 164.250256 
L 207.064615 164.250256 
L 207.064615 163.528205 
L 207.446154 163.528205 
L 207.446154 163.167179 
L 207.827692 163.167179 
L 207.827692 161.362051 
L 208.209231 161.362051 
L 208.209231 161.001026 
L 208.972308 161.001026 
L 208.972308 160.278974 
L 211.261538 160.278974 
L 211.261538 159.917949 
L 211.643077 159.917949 
L 211.643077 159.556923 
L 212.406154 159.556923 
L 212.406154 159.195897 
L 212.787692 159.195897 
L 212.787692 158.834872 
L 213.550769 158.834872 
L 213.550769 158.473846 
L 214.695385 158.473846 
L 214.695385 158.112821 
L 215.076923 158.112821 
L 215.076923 157.751795 
L 216.603077 157.751795 
L 216.603077 157.029744 
L 216.984615 157.029744 
L 216.984615 156.668718 
L 217.366154 156.668718 
L 217.366154 154.86359 
L 218.129231 154.86359 
L 218.129231 154.502564 
L 219.273846 154.502564 
L 219.273846 154.141538 
L 220.418462 154.141538 
L 220.418462 153.780513 
L 221.563077 153.780513 
L 221.563077 153.419487 
L 223.470769 153.419487 
L 223.470769 153.058462 
L 225.76 153.058462 
L 225.76 152.697436 
L 226.141538 152.697436 
L 226.141538 152.33641 
L 226.523077 152.33641 
L 226.523077 151.975385 
L 230.338462 151.975385 
L 230.338462 151.614359 
L 233.009231 151.614359 
L 233.009231 151.253333 
L 233.390769 151.253333 
L 233.390769 150.892308 
L 235.68 150.892308 
L 235.68 150.531282 
L 236.061538 150.531282 
L 236.061538 150.170256 
L 238.732308 150.170256 
L 238.732308 149.809231 
L 239.876923 149.809231 
L 239.876923 149.448205 
L 240.258462 149.448205 
L 240.258462 149.087179 
L 241.403077 149.087179 
L 241.403077 148.726154 
L 242.166154 148.726154 
L 242.166154 148.365128 
L 242.547692 148.365128 
L 242.547692 148.004103 
L 244.455385 148.004103 
L 244.455385 147.282051 
L 247.126154 147.282051 
L 247.126154 146.921026 
L 248.270769 146.921026 
L 248.270769 146.198974 
L 250.178462 146.198974 
L 250.178462 145.837949 
L 250.56 145.837949 
L 250.56 145.476923 
L 251.704615 145.476923 
L 251.704615 145.115897 
L 253.612308 145.115897 
L 253.612308 144.754872 
L 253.993846 144.754872 
L 253.993846 144.393846 
L 255.52 144.393846 
L 255.52 144.032821 
L 256.664615 144.032821 
L 256.664615 143.310769 
L 257.427692 143.310769 
L 257.427692 142.949744 
L 258.190769 142.949744 
L 258.190769 142.588718 
L 258.953846 142.588718 
L 258.953846 142.227692 
L 260.861538 142.227692 
L 260.861538 141.866667 
L 261.624615 141.866667 
L 261.624615 141.505641 
L 263.532308 141.505641 
L 263.532308 141.144615 
L 263.913846 141.144615 
L 263.913846 140.78359 
L 265.058462 140.78359 
L 265.058462 140.061538 
L 265.44 140.061538 
L 265.44 139.700513 
L 266.203077 139.700513 
L 266.203077 138.25641 
L 266.966154 138.25641 
L 266.966154 137.173333 
L 268.110769 137.173333 
L 268.110769 136.812308 
L 268.492308 136.812308 
L 268.492308 136.451282 
L 269.255385 136.451282 
L 269.255385 136.090256 
L 270.018462 136.090256 
L 270.018462 135.007179 
L 275.741538 135.007179 
L 275.741538 134.646154 
L 276.886154 134.646154 
L 276.886154 133.924103 
L 278.030769 133.924103 
L 278.030769 133.563077 
L 278.793846 133.563077 
L 278.793846 132.841026 
L 279.556923 132.841026 
L 279.556923 132.48 
L 279.938462 132.48 
L 279.938462 132.118974 
L 280.701538 132.118974 
L 280.701538 131.757949 
L 284.516923 131.757949 
L 284.516923 131.396923 
L 289.858462 131.396923 
L 289.858462 131.035897 
L 295.2 131.035897 
L 295.2 130.674872 
L 295.963077 130.674872 
L 295.963077 129.230769 
L 296.726154 129.230769 
L 296.726154 128.869744 
L 297.870769 128.869744 
L 297.870769 128.508718 
L 300.541538 128.508718 
L 300.541538 128.147692 
L 300.923077 128.147692 
L 300.923077 127.786667 
L 301.304615 127.786667 
L 301.304615 127.425641 
L 302.449231 127.425641 
L 302.449231 126.70359 
L 302.830769 126.70359 
L 302.830769 126.342564 
L 306.264615 126.342564 
L 306.264615 125.981538 
L 307.027692 125.981538 
L 307.027692 125.620513 
L 307.790769 125.620513 
L 307.790769 125.259487 
L 309.698462 125.259487 
L 309.698462 124.898462 
L 310.08 124.898462 
L 310.08 124.537436 
L 310.843077 124.537436 
L 310.843077 124.17641 
L 311.224615 124.17641 
L 311.224615 123.815385 
L 311.606154 123.815385 
L 311.606154 123.093333 
L 313.895385 123.093333 
L 313.895385 122.371282 
L 316.947692 122.371282 
L 316.947692 121.288205 
L 317.329231 121.288205 
L 317.329231 120.927179 
L 318.855385 120.927179 
L 318.855385 120.566154 
L 321.526154 120.566154 
L 321.526154 119.844103 
L 321.907692 119.844103 
L 321.907692 119.122051 
L 325.341538 119.122051 
L 325.341538 118.761026 
L 326.104615 118.761026 
L 326.104615 118.4 
L 326.486154 118.4 
L 326.486154 118.038974 
L 327.249231 118.038974 
L 327.249231 117.677949 
L 335.261538 117.677949 
L 335.261538 116.955897 
L 336.024615 116.955897 
L 336.024615 116.594872 
L 337.169231 116.594872 
L 337.169231 116.233846 
L 338.695385 116.233846 
L 338.695385 115.872821 
L 341.747692 115.872821 
L 341.747692 115.511795 
L 344.8 115.511795 
L 344.8 115.150769 
L 345.563077 115.150769 
L 345.563077 114.428718 
L 350.523077 114.428718 
L 350.523077 114.067692 
L 350.904615 114.067692 
L 350.904615 113.345641 
L 352.430769 113.345641 
L 352.430769 112.984615 
L 353.193846 112.984615 
L 353.193846 112.62359 
L 354.338462 112.62359 
L 354.338462 112.262564 
L 357.009231 112.262564 
L 357.009231 111.901538 
L 357.390769 111.901538 
L 357.390769 111.540513 
L 358.153846 111.540513 
L 358.153846 111.179487 
L 358.916923 111.179487 
L 358.916923 110.818462 
L 359.298462 110.818462 
L 359.298462 110.09641 
L 360.824615 110.09641 
L 360.824615 109.735385 
L 361.969231 109.735385 
L 361.969231 109.374359 
L 363.876923 109.374359 
L 363.876923 108.652308 
L 366.929231 108.652308 
L 366.929231 108.291282 
L 369.218462 108.291282 
L 369.218462 107.930256 
L 370.744615 107.930256 
L 370.744615 107.569231 
L 372.270769 107.569231 
L 372.270769 107.208205 
L 373.796923 107.208205 
L 373.796923 106.847179 
L 379.138462 106.847179 
L 379.138462 106.486154 
L 381.046154 106.486154 
L 381.046154 106.125128 
L 382.572308 106.125128 
L 382.572308 105.764103 
L 383.716923 105.764103 
L 383.716923 105.403077 
L 385.243077 105.403077 
L 385.243077 105.042051 
L 387.150769 105.042051 
L 387.150769 104.681026 
L 387.913846 104.681026 
L 387.913846 103.958974 
L 392.110769 103.958974 
L 392.110769 103.597949 
L 393.636923 103.597949 
L 393.636923 103.236923 
L 394.4 103.236923 
L 394.4 102.875897 
L 395.544615 102.875897 
L 395.544615 102.514872 
L 397.070769 102.514872 
L 397.070769 102.153846 
L 398.596923 102.153846 
L 398.596923 101.792821 
L 400.123077 101.792821 
L 400.123077 101.431795 
L 403.556923 101.431795 
L 403.556923 101.070769 
L 406.609231 101.070769 
L 406.609231 100.709744 
L 408.135385 100.709744 
L 408.135385 100.348718 
L 408.898462 100.348718 
L 408.898462 99.987692 
L 409.28 99.987692 
L 409.28 99.265641 
L 412.332308 99.265641 
L 412.332308 98.904615 
L 415.384615 98.904615 
L 415.384615 98.54359 
L 416.910769 98.54359 
L 416.910769 98.182564 
L 417.673846 98.182564 
L 417.673846 97.821538 
L 422.252308 97.821538 
L 422.252308 97.460513 
L 423.778462 97.460513 
L 423.778462 97.099487 
L 425.686154 97.099487 
L 425.686154 96.738462 
L 429.501538 96.738462 
L 429.501538 96.377436 
L 431.409231 96.377436 
L 431.409231 95.655385 
L 433.698462 95.655385 
L 433.698462 94.933333 
L 434.843077 94.933333 
L 434.843077 94.572308 
L 443.236923 94.572308 
L 443.236923 94.211282 
L 450.486154 94.211282 
L 450.486154 93.850256 
L 453.538462 93.850256 
L 453.538462 93.489231 
L 458.498462 93.489231 
L 458.498462 93.128205 
L 461.169231 93.128205 
L 461.169231 92.767179 
L 467.273846 92.767179 
L 467.273846 92.406154 
L 469.181538 92.406154 
L 469.181538 92.045128 
L 475.667692 92.045128 
L 475.667692 91.684103 
L 476.812308 91.684103 
L 476.812308 91.323077 
L 482.916923 91.323077 
L 482.916923 90.601026 
L 501.612308 90.601026 
L 501.612308 90.24 
L 518.4 90.24 
L 518.4 90.24 
" style="fill:none;stroke:#ff8c00;stroke-linecap:square;stroke-width:2;"/>
   </g>
   <g id="line2d_26">
    <path clip-path="url(#pf4ed989580)" d="M 72 512.64 
L 518.4 90.24 
" style="fill:none;stroke:#000080;stroke-dasharray:7.4,3.2;stroke-dashoffset:0;stroke-width:2;"/>
   </g>
   <g id="patch_3">
    <path d="M 72 512.64 
L 72 69.12 
" style="fill:none;stroke:#000000;stroke-linecap:square;stroke-linejoin:miter;stroke-width:0.8;"/>
   </g>
   <g id="patch_4">
    <path d="M 518.4 512.64 
L 518.4 69.12 
" style="fill:none;stroke:#000000;stroke-linecap:square;stroke-linejoin:miter;stroke-width:0.8;"/>
   </g>
   <g id="patch_5">
    <path d="M 72 512.64 
L 518.4 512.64 
" style="fill:none;stroke:#000000;stroke-linecap:square;stroke-linejoin:miter;stroke-width:0.8;"/>
   </g>
   <g id="patch_6">
    <path d="M 72 69.12 
L 518.4 69.12 
" style="fill:none;stroke:#000000;stroke-linecap:square;stroke-linejoin:miter;stroke-width:0.8;"/>
   </g>
   <g id="legend_1">
    <g id="patch_7">
     <path d="M 427.081875 509.64 
L 514.2 509.64 
Q 515.4 509.64 515.4 508.44 
L 515.4 500.233125 
Q 515.4 499.033125 514.2 499.033125 
L 427.081875 499.033125 
Q 425.881875 499.033125 425.881875 500.233125 
L 425.881875 508.44 
Q 425.881875 509.64 427.081875 509.64 
z
" style="fill:#ffffff;opacity:0.8;stroke:#cccccc;stroke-linejoin:miter;"/>
    </g>
    <g id="line2d_27">
     <path d="M 428.281875 503.892187 
L 440.281875 503.892187 
" style="fill:none;stroke:#ff8c00;stroke-linecap:square;stroke-width:2;"/>
    </g>
    <g id="line2d_28"/>
    <g id="text_15">
     <!-- D007410 (area =0.85) -->
     <defs>
      <path d="M 19.671875 64.796875 
L 19.671875 8.109375 
L 31.59375 8.109375 
Q 46.6875 8.109375 53.6875 14.9375 
Q 60.6875 21.78125 60.6875 36.53125 
Q 60.6875 51.171875 53.6875 57.984375 
Q 46.6875 64.796875 31.59375 64.796875 
z
M 9.8125 72.90625 
L 30.078125 72.90625 
Q 51.265625 72.90625 61.171875 64.09375 
Q 71.09375 55.28125 71.09375 36.53125 
Q 71.09375 17.671875 61.125 8.828125 
Q 51.171875 0 30.078125 0 
L 9.8125 0 
z
" id="DejaVuSans-68"/>
      <path d="M 8.203125 72.90625 
L 55.078125 72.90625 
L 55.078125 68.703125 
L 28.609375 0 
L 18.3125 0 
L 43.21875 64.59375 
L 8.203125 64.59375 
z
" id="DejaVuSans-55"/>
      <path d="M 31 75.875 
Q 24.46875 64.65625 21.28125 53.65625 
Q 18.109375 42.671875 18.109375 31.390625 
Q 18.109375 20.125 21.3125 9.0625 
Q 24.515625 -2 31 -13.1875 
L 23.1875 -13.1875 
Q 15.875 -1.703125 12.234375 9.375 
Q 8.59375 20.453125 8.59375 31.390625 
Q 8.59375 42.28125 12.203125 53.3125 
Q 15.828125 64.359375 23.1875 75.875 
z
" id="DejaVuSans-40"/>
      <path d="M 10.59375 45.40625 
L 73.1875 45.40625 
L 73.1875 37.203125 
L 10.59375 37.203125 
z
M 10.59375 25.484375 
L 73.1875 25.484375 
L 73.1875 17.1875 
L 10.59375 17.1875 
z
" id="DejaVuSans-61"/>
      <path d="M 10.796875 72.90625 
L 49.515625 72.90625 
L 49.515625 64.59375 
L 19.828125 64.59375 
L 19.828125 46.734375 
Q 21.96875 47.46875 24.109375 47.828125 
Q 26.265625 48.1875 28.421875 48.1875 
Q 40.625 48.1875 47.75 41.5 
Q 54.890625 34.8125 54.890625 23.390625 
Q 54.890625 11.625 47.5625 5.09375 
Q 40.234375 -1.421875 26.90625 -1.421875 
Q 22.3125 -1.421875 17.546875 -0.640625 
Q 12.796875 0.140625 7.71875 1.703125 
L 7.71875 11.625 
Q 12.109375 9.234375 16.796875 8.0625 
Q 21.484375 6.890625 26.703125 6.890625 
Q 35.15625 6.890625 40.078125 11.328125 
Q 45.015625 15.765625 45.015625 23.390625 
Q 45.015625 31 40.078125 35.4375 
Q 35.15625 39.890625 26.703125 39.890625 
Q 22.75 39.890625 18.8125 39.015625 
Q 14.890625 38.140625 10.796875 36.28125 
z
" id="DejaVuSans-53"/>
      <path d="M 8.015625 75.875 
L 15.828125 75.875 
Q 23.140625 64.359375 26.78125 53.3125 
Q 30.421875 42.28125 30.421875 31.390625 
Q 30.421875 20.453125 26.78125 9.375 
Q 23.140625 -1.703125 15.828125 -13.1875 
L 8.015625 -13.1875 
Q 14.5 -2 17.703125 9.0625 
Q 20.90625 20.125 20.90625 31.390625 
Q 20.90625 42.671875 17.703125 53.65625 
Q 14.5 64.65625 8.015625 75.875 
z
" id="DejaVuSans-41"/>
     </defs>
     <g transform="translate(445.081875 505.992188)scale(0.06 -0.06)">
      <use xlink:href="#DejaVuSans-68"/>
      <use x="77.001953" xlink:href="#DejaVuSans-48"/>
      <use x="140.625" xlink:href="#DejaVuSans-48"/>
      <use x="204.248047" xlink:href="#DejaVuSans-55"/>
      <use x="267.871094" xlink:href="#DejaVuSans-52"/>
      <use x="331.494141" xlink:href="#DejaVuSans-49"/>
      <use x="395.117188" xlink:href="#DejaVuSans-48"/>
      <use x="458.740234" xlink:href="#DejaVuSans-32"/>
      <use x="490.527344" xlink:href="#DejaVuSans-40"/>
      <use x="529.541016" xlink:href="#DejaVuSans-97"/>
      <use x="590.820312" xlink:href="#DejaVuSans-114"/>
      <use x="631.902344" xlink:href="#DejaVuSans-101"/>
      <use x="693.425781" xlink:href="#DejaVuSans-97"/>
      <use x="754.705078" xlink:href="#DejaVuSans-32"/>
      <use x="786.492188" xlink:href="#DejaVuSans-61"/>
      <use x="870.28125" xlink:href="#DejaVuSans-48"/>
      <use x="933.904297" xlink:href="#DejaVuSans-46"/>
      <use x="965.691406" xlink:href="#DejaVuSans-56"/>
      <use x="1029.314453" xlink:href="#DejaVuSans-53"/>
      <use x="1092.9375" xlink:href="#DejaVuSans-41"/>
     </g>
    </g>
   </g>
  </g>
 </g>
 <defs>
  <clipPath id="pf4ed989580">
   <rect height="443.52" width="446.4" x="72" y="69.12"/>
  </clipPath>
 </defs>
</svg>
