<?xml version="1.0" encoding="utf-8" standalone="no"?>
<!DOCTYPE svg PUBLIC "-//W3C//DTD SVG 1.1//EN"
  "http://www.w3.org/Graphics/SVG/1.1/DTD/svg11.dtd">
<!-- Created with matplotlib (https://matplotlib.org/) -->
<svg height="576pt" version="1.1" viewBox="0 0 576 576" width="576pt" xmlns="http://www.w3.org/2000/svg" xmlns:xlink="http://www.w3.org/1999/xlink">
 <defs>
  <style type="text/css">
*{stroke-linecap:butt;stroke-linejoin:round;}
  </style>
 </defs>
 <g id="figure_1">
  <g id="patch_1">
   <path d="M 0 576 
L 576 576 
L 576 0 
L 0 0 
z
" style="fill:#ffffff;"/>
  </g>
  <g id="axes_1">
   <g id="patch_2">
    <path d="M 72 512.64 
L 518.4 512.64 
L 518.4 69.12 
L 72 69.12 
z
" style="fill:#ffffff;"/>
   </g>
   <g id="matplotlib.axis_1">
    <g id="xtick_1">
     <g id="line2d_1">
      <path clip-path="url(#p2cd2538c62)" d="M 72 512.64 
L 72 69.12 
" style="fill:none;stroke:#b0b0b0;stroke-linecap:square;stroke-width:0.8;"/>
     </g>
     <g id="line2d_2">
      <defs>
       <path d="M 0 0 
L 0 3.5 
" id="mabe99b6790" style="stroke:#000000;stroke-width:0.8;"/>
      </defs>
      <g>
       <use style="stroke:#000000;stroke-width:0.8;" x="72" xlink:href="#mabe99b6790" y="512.64"/>
      </g>
     </g>
     <g id="text_1">
      <!-- 0.0 -->
      <defs>
       <path d="M 31.78125 66.40625 
Q 24.171875 66.40625 20.328125 58.90625 
Q 16.5 51.421875 16.5 36.375 
Q 16.5 21.390625 20.328125 13.890625 
Q 24.171875 6.390625 31.78125 6.390625 
Q 39.453125 6.390625 43.28125 13.890625 
Q 47.125 21.390625 47.125 36.375 
Q 47.125 51.421875 43.28125 58.90625 
Q 39.453125 66.40625 31.78125 66.40625 
z
M 31.78125 74.21875 
Q 44.046875 74.21875 50.515625 64.515625 
Q 56.984375 54.828125 56.984375 36.375 
Q 56.984375 17.96875 50.515625 8.265625 
Q 44.046875 -1.421875 31.78125 -1.421875 
Q 19.53125 -1.421875 13.0625 8.265625 
Q 6.59375 17.96875 6.59375 36.375 
Q 6.59375 54.828125 13.0625 64.515625 
Q 19.53125 74.21875 31.78125 74.21875 
z
" id="DejaVuSans-48"/>
       <path d="M 10.6875 12.40625 
L 21 12.40625 
L 21 0 
L 10.6875 0 
z
" id="DejaVuSans-46"/>
      </defs>
      <g transform="translate(64.048438 527.238438)scale(0.1 -0.1)">
       <use xlink:href="#DejaVuSans-48"/>
       <use x="63.623047" xlink:href="#DejaVuSans-46"/>
       <use x="95.410156" xlink:href="#DejaVuSans-48"/>
      </g>
     </g>
    </g>
    <g id="xtick_2">
     <g id="line2d_3">
      <path clip-path="url(#p2cd2538c62)" d="M 161.28 512.64 
L 161.28 69.12 
" style="fill:none;stroke:#b0b0b0;stroke-linecap:square;stroke-width:0.8;"/>
     </g>
     <g id="line2d_4">
      <g>
       <use style="stroke:#000000;stroke-width:0.8;" x="161.28" xlink:href="#mabe99b6790" y="512.64"/>
      </g>
     </g>
     <g id="text_2">
      <!-- 0.2 -->
      <defs>
       <path d="M 19.1875 8.296875 
L 53.609375 8.296875 
L 53.609375 0 
L 7.328125 0 
L 7.328125 8.296875 
Q 12.9375 14.109375 22.625 23.890625 
Q 32.328125 33.6875 34.8125 36.53125 
Q 39.546875 41.84375 41.421875 45.53125 
Q 43.3125 49.21875 43.3125 52.78125 
Q 43.3125 58.59375 39.234375 62.25 
Q 35.15625 65.921875 28.609375 65.921875 
Q 23.96875 65.921875 18.8125 64.3125 
Q 13.671875 62.703125 7.8125 59.421875 
L 7.8125 69.390625 
Q 13.765625 71.78125 18.9375 73 
Q 24.125 74.21875 28.421875 74.21875 
Q 39.75 74.21875 46.484375 68.546875 
Q 53.21875 62.890625 53.21875 53.421875 
Q 53.21875 48.921875 51.53125 44.890625 
Q 49.859375 40.875 45.40625 35.40625 
Q 44.1875 33.984375 37.640625 27.21875 
Q 31.109375 20.453125 19.1875 8.296875 
z
" id="DejaVuSans-50"/>
      </defs>
      <g transform="translate(153.328438 527.238438)scale(0.1 -0.1)">
       <use xlink:href="#DejaVuSans-48"/>
       <use x="63.623047" xlink:href="#DejaVuSans-46"/>
       <use x="95.410156" xlink:href="#DejaVuSans-50"/>
      </g>
     </g>
    </g>
    <g id="xtick_3">
     <g id="line2d_5">
      <path clip-path="url(#p2cd2538c62)" d="M 250.56 512.64 
L 250.56 69.12 
" style="fill:none;stroke:#b0b0b0;stroke-linecap:square;stroke-width:0.8;"/>
     </g>
     <g id="line2d_6">
      <g>
       <use style="stroke:#000000;stroke-width:0.8;" x="250.56" xlink:href="#mabe99b6790" y="512.64"/>
      </g>
     </g>
     <g id="text_3">
      <!-- 0.4 -->
      <defs>
       <path d="M 37.796875 64.3125 
L 12.890625 25.390625 
L 37.796875 25.390625 
z
M 35.203125 72.90625 
L 47.609375 72.90625 
L 47.609375 25.390625 
L 58.015625 25.390625 
L 58.015625 17.1875 
L 47.609375 17.1875 
L 47.609375 0 
L 37.796875 0 
L 37.796875 17.1875 
L 4.890625 17.1875 
L 4.890625 26.703125 
z
" id="DejaVuSans-52"/>
      </defs>
      <g transform="translate(242.608438 527.238438)scale(0.1 -0.1)">
       <use xlink:href="#DejaVuSans-48"/>
       <use x="63.623047" xlink:href="#DejaVuSans-46"/>
       <use x="95.410156" xlink:href="#DejaVuSans-52"/>
      </g>
     </g>
    </g>
    <g id="xtick_4">
     <g id="line2d_7">
      <path clip-path="url(#p2cd2538c62)" d="M 339.84 512.64 
L 339.84 69.12 
" style="fill:none;stroke:#b0b0b0;stroke-linecap:square;stroke-width:0.8;"/>
     </g>
     <g id="line2d_8">
      <g>
       <use style="stroke:#000000;stroke-width:0.8;" x="339.84" xlink:href="#mabe99b6790" y="512.64"/>
      </g>
     </g>
     <g id="text_4">
      <!-- 0.6 -->
      <defs>
       <path d="M 33.015625 40.375 
Q 26.375 40.375 22.484375 35.828125 
Q 18.609375 31.296875 18.609375 23.390625 
Q 18.609375 15.53125 22.484375 10.953125 
Q 26.375 6.390625 33.015625 6.390625 
Q 39.65625 6.390625 43.53125 10.953125 
Q 47.40625 15.53125 47.40625 23.390625 
Q 47.40625 31.296875 43.53125 35.828125 
Q 39.65625 40.375 33.015625 40.375 
z
M 52.59375 71.296875 
L 52.59375 62.3125 
Q 48.875 64.0625 45.09375 64.984375 
Q 41.3125 65.921875 37.59375 65.921875 
Q 27.828125 65.921875 22.671875 59.328125 
Q 17.53125 52.734375 16.796875 39.40625 
Q 19.671875 43.65625 24.015625 45.921875 
Q 28.375 48.1875 33.59375 48.1875 
Q 44.578125 48.1875 50.953125 41.515625 
Q 57.328125 34.859375 57.328125 23.390625 
Q 57.328125 12.15625 50.6875 5.359375 
Q 44.046875 -1.421875 33.015625 -1.421875 
Q 20.359375 -1.421875 13.671875 8.265625 
Q 6.984375 17.96875 6.984375 36.375 
Q 6.984375 53.65625 15.1875 63.9375 
Q 23.390625 74.21875 37.203125 74.21875 
Q 40.921875 74.21875 44.703125 73.484375 
Q 48.484375 72.75 52.59375 71.296875 
z
" id="DejaVuSans-54"/>
      </defs>
      <g transform="translate(331.888438 527.238438)scale(0.1 -0.1)">
       <use xlink:href="#DejaVuSans-48"/>
       <use x="63.623047" xlink:href="#DejaVuSans-46"/>
       <use x="95.410156" xlink:href="#DejaVuSans-54"/>
      </g>
     </g>
    </g>
    <g id="xtick_5">
     <g id="line2d_9">
      <path clip-path="url(#p2cd2538c62)" d="M 429.12 512.64 
L 429.12 69.12 
" style="fill:none;stroke:#b0b0b0;stroke-linecap:square;stroke-width:0.8;"/>
     </g>
     <g id="line2d_10">
      <g>
       <use style="stroke:#000000;stroke-width:0.8;" x="429.12" xlink:href="#mabe99b6790" y="512.64"/>
      </g>
     </g>
     <g id="text_5">
      <!-- 0.8 -->
      <defs>
       <path d="M 31.78125 34.625 
Q 24.75 34.625 20.71875 30.859375 
Q 16.703125 27.09375 16.703125 20.515625 
Q 16.703125 13.921875 20.71875 10.15625 
Q 24.75 6.390625 31.78125 6.390625 
Q 38.8125 6.390625 42.859375 10.171875 
Q 46.921875 13.96875 46.921875 20.515625 
Q 46.921875 27.09375 42.890625 30.859375 
Q 38.875 34.625 31.78125 34.625 
z
M 21.921875 38.8125 
Q 15.578125 40.375 12.03125 44.71875 
Q 8.5 49.078125 8.5 55.328125 
Q 8.5 64.0625 14.71875 69.140625 
Q 20.953125 74.21875 31.78125 74.21875 
Q 42.671875 74.21875 48.875 69.140625 
Q 55.078125 64.0625 55.078125 55.328125 
Q 55.078125 49.078125 51.53125 44.71875 
Q 48 40.375 41.703125 38.8125 
Q 48.828125 37.15625 52.796875 32.3125 
Q 56.78125 27.484375 56.78125 20.515625 
Q 56.78125 9.90625 50.3125 4.234375 
Q 43.84375 -1.421875 31.78125 -1.421875 
Q 19.734375 -1.421875 13.25 4.234375 
Q 6.78125 9.90625 6.78125 20.515625 
Q 6.78125 27.484375 10.78125 32.3125 
Q 14.796875 37.15625 21.921875 38.8125 
z
M 18.3125 54.390625 
Q 18.3125 48.734375 21.84375 45.5625 
Q 25.390625 42.390625 31.78125 42.390625 
Q 38.140625 42.390625 41.71875 45.5625 
Q 45.3125 48.734375 45.3125 54.390625 
Q 45.3125 60.0625 41.71875 63.234375 
Q 38.140625 66.40625 31.78125 66.40625 
Q 25.390625 66.40625 21.84375 63.234375 
Q 18.3125 60.0625 18.3125 54.390625 
z
" id="DejaVuSans-56"/>
      </defs>
      <g transform="translate(421.168437 527.238438)scale(0.1 -0.1)">
       <use xlink:href="#DejaVuSans-48"/>
       <use x="63.623047" xlink:href="#DejaVuSans-46"/>
       <use x="95.410156" xlink:href="#DejaVuSans-56"/>
      </g>
     </g>
    </g>
    <g id="xtick_6">
     <g id="line2d_11">
      <path clip-path="url(#p2cd2538c62)" d="M 518.4 512.64 
L 518.4 69.12 
" style="fill:none;stroke:#b0b0b0;stroke-linecap:square;stroke-width:0.8;"/>
     </g>
     <g id="line2d_12">
      <g>
       <use style="stroke:#000000;stroke-width:0.8;" x="518.4" xlink:href="#mabe99b6790" y="512.64"/>
      </g>
     </g>
     <g id="text_6">
      <!-- 1.0 -->
      <defs>
       <path d="M 12.40625 8.296875 
L 28.515625 8.296875 
L 28.515625 63.921875 
L 10.984375 60.40625 
L 10.984375 69.390625 
L 28.421875 72.90625 
L 38.28125 72.90625 
L 38.28125 8.296875 
L 54.390625 8.296875 
L 54.390625 0 
L 12.40625 0 
z
" id="DejaVuSans-49"/>
      </defs>
      <g transform="translate(510.448437 527.238438)scale(0.1 -0.1)">
       <use xlink:href="#DejaVuSans-49"/>
       <use x="63.623047" xlink:href="#DejaVuSans-46"/>
       <use x="95.410156" xlink:href="#DejaVuSans-48"/>
      </g>
     </g>
    </g>
    <g id="text_7">
     <!-- False Positive Rate -->
     <defs>
      <path d="M 9.8125 72.90625 
L 51.703125 72.90625 
L 51.703125 64.59375 
L 19.671875 64.59375 
L 19.671875 43.109375 
L 48.578125 43.109375 
L 48.578125 34.8125 
L 19.671875 34.8125 
L 19.671875 0 
L 9.8125 0 
z
" id="DejaVuSans-70"/>
      <path d="M 34.28125 27.484375 
Q 23.390625 27.484375 19.1875 25 
Q 14.984375 22.515625 14.984375 16.5 
Q 14.984375 11.71875 18.140625 8.90625 
Q 21.296875 6.109375 26.703125 6.109375 
Q 34.1875 6.109375 38.703125 11.40625 
Q 43.21875 16.703125 43.21875 25.484375 
L 43.21875 27.484375 
z
M 52.203125 31.203125 
L 52.203125 0 
L 43.21875 0 
L 43.21875 8.296875 
Q 40.140625 3.328125 35.546875 0.953125 
Q 30.953125 -1.421875 24.3125 -1.421875 
Q 15.921875 -1.421875 10.953125 3.296875 
Q 6 8.015625 6 15.921875 
Q 6 25.140625 12.171875 29.828125 
Q 18.359375 34.515625 30.609375 34.515625 
L 43.21875 34.515625 
L 43.21875 35.40625 
Q 43.21875 41.609375 39.140625 45 
Q 35.0625 48.390625 27.6875 48.390625 
Q 23 48.390625 18.546875 47.265625 
Q 14.109375 46.140625 10.015625 43.890625 
L 10.015625 52.203125 
Q 14.9375 54.109375 19.578125 55.046875 
Q 24.21875 56 28.609375 56 
Q 40.484375 56 46.34375 49.84375 
Q 52.203125 43.703125 52.203125 31.203125 
z
" id="DejaVuSans-97"/>
      <path d="M 9.421875 75.984375 
L 18.40625 75.984375 
L 18.40625 0 
L 9.421875 0 
z
" id="DejaVuSans-108"/>
      <path d="M 44.28125 53.078125 
L 44.28125 44.578125 
Q 40.484375 46.53125 36.375 47.5 
Q 32.28125 48.484375 27.875 48.484375 
Q 21.1875 48.484375 17.84375 46.4375 
Q 14.5 44.390625 14.5 40.28125 
Q 14.5 37.15625 16.890625 35.375 
Q 19.28125 33.59375 26.515625 31.984375 
L 29.59375 31.296875 
Q 39.15625 29.25 43.1875 25.515625 
Q 47.21875 21.78125 47.21875 15.09375 
Q 47.21875 7.46875 41.1875 3.015625 
Q 35.15625 -1.421875 24.609375 -1.421875 
Q 20.21875 -1.421875 15.453125 -0.5625 
Q 10.6875 0.296875 5.421875 2 
L 5.421875 11.28125 
Q 10.40625 8.6875 15.234375 7.390625 
Q 20.0625 6.109375 24.8125 6.109375 
Q 31.15625 6.109375 34.5625 8.28125 
Q 37.984375 10.453125 37.984375 14.40625 
Q 37.984375 18.0625 35.515625 20.015625 
Q 33.0625 21.96875 24.703125 23.78125 
L 21.578125 24.515625 
Q 13.234375 26.265625 9.515625 29.90625 
Q 5.8125 33.546875 5.8125 39.890625 
Q 5.8125 47.609375 11.28125 51.796875 
Q 16.75 56 26.8125 56 
Q 31.78125 56 36.171875 55.265625 
Q 40.578125 54.546875 44.28125 53.078125 
z
" id="DejaVuSans-115"/>
      <path d="M 56.203125 29.59375 
L 56.203125 25.203125 
L 14.890625 25.203125 
Q 15.484375 15.921875 20.484375 11.0625 
Q 25.484375 6.203125 34.421875 6.203125 
Q 39.59375 6.203125 44.453125 7.46875 
Q 49.3125 8.734375 54.109375 11.28125 
L 54.109375 2.78125 
Q 49.265625 0.734375 44.1875 -0.34375 
Q 39.109375 -1.421875 33.890625 -1.421875 
Q 20.796875 -1.421875 13.15625 6.1875 
Q 5.515625 13.8125 5.515625 26.8125 
Q 5.515625 40.234375 12.765625 48.109375 
Q 20.015625 56 32.328125 56 
Q 43.359375 56 49.78125 48.890625 
Q 56.203125 41.796875 56.203125 29.59375 
z
M 47.21875 32.234375 
Q 47.125 39.59375 43.09375 43.984375 
Q 39.0625 48.390625 32.421875 48.390625 
Q 24.90625 48.390625 20.390625 44.140625 
Q 15.875 39.890625 15.1875 32.171875 
z
" id="DejaVuSans-101"/>
      <path id="DejaVuSans-32"/>
      <path d="M 19.671875 64.796875 
L 19.671875 37.40625 
L 32.078125 37.40625 
Q 38.96875 37.40625 42.71875 40.96875 
Q 46.484375 44.53125 46.484375 51.125 
Q 46.484375 57.671875 42.71875 61.234375 
Q 38.96875 64.796875 32.078125 64.796875 
z
M 9.8125 72.90625 
L 32.078125 72.90625 
Q 44.34375 72.90625 50.609375 67.359375 
Q 56.890625 61.8125 56.890625 51.125 
Q 56.890625 40.328125 50.609375 34.8125 
Q 44.34375 29.296875 32.078125 29.296875 
L 19.671875 29.296875 
L 19.671875 0 
L 9.8125 0 
z
" id="DejaVuSans-80"/>
      <path d="M 30.609375 48.390625 
Q 23.390625 48.390625 19.1875 42.75 
Q 14.984375 37.109375 14.984375 27.296875 
Q 14.984375 17.484375 19.15625 11.84375 
Q 23.34375 6.203125 30.609375 6.203125 
Q 37.796875 6.203125 41.984375 11.859375 
Q 46.1875 17.53125 46.1875 27.296875 
Q 46.1875 37.015625 41.984375 42.703125 
Q 37.796875 48.390625 30.609375 48.390625 
z
M 30.609375 56 
Q 42.328125 56 49.015625 48.375 
Q 55.71875 40.765625 55.71875 27.296875 
Q 55.71875 13.875 49.015625 6.21875 
Q 42.328125 -1.421875 30.609375 -1.421875 
Q 18.84375 -1.421875 12.171875 6.21875 
Q 5.515625 13.875 5.515625 27.296875 
Q 5.515625 40.765625 12.171875 48.375 
Q 18.84375 56 30.609375 56 
z
" id="DejaVuSans-111"/>
      <path d="M 9.421875 54.6875 
L 18.40625 54.6875 
L 18.40625 0 
L 9.421875 0 
z
M 9.421875 75.984375 
L 18.40625 75.984375 
L 18.40625 64.59375 
L 9.421875 64.59375 
z
" id="DejaVuSans-105"/>
      <path d="M 18.3125 70.21875 
L 18.3125 54.6875 
L 36.8125 54.6875 
L 36.8125 47.703125 
L 18.3125 47.703125 
L 18.3125 18.015625 
Q 18.3125 11.328125 20.140625 9.421875 
Q 21.96875 7.515625 27.59375 7.515625 
L 36.8125 7.515625 
L 36.8125 0 
L 27.59375 0 
Q 17.1875 0 13.234375 3.875 
Q 9.28125 7.765625 9.28125 18.015625 
L 9.28125 47.703125 
L 2.6875 47.703125 
L 2.6875 54.6875 
L 9.28125 54.6875 
L 9.28125 70.21875 
z
" id="DejaVuSans-116"/>
      <path d="M 2.984375 54.6875 
L 12.5 54.6875 
L 29.59375 8.796875 
L 46.6875 54.6875 
L 56.203125 54.6875 
L 35.6875 0 
L 23.484375 0 
z
" id="DejaVuSans-118"/>
      <path d="M 44.390625 34.1875 
Q 47.5625 33.109375 50.5625 29.59375 
Q 53.5625 26.078125 56.59375 19.921875 
L 66.609375 0 
L 56 0 
L 46.6875 18.703125 
Q 43.0625 26.03125 39.671875 28.421875 
Q 36.28125 30.8125 30.421875 30.8125 
L 19.671875 30.8125 
L 19.671875 0 
L 9.8125 0 
L 9.8125 72.90625 
L 32.078125 72.90625 
Q 44.578125 72.90625 50.734375 67.671875 
Q 56.890625 62.453125 56.890625 51.90625 
Q 56.890625 45.015625 53.6875 40.46875 
Q 50.484375 35.9375 44.390625 34.1875 
z
M 19.671875 64.796875 
L 19.671875 38.921875 
L 32.078125 38.921875 
Q 39.203125 38.921875 42.84375 42.21875 
Q 46.484375 45.515625 46.484375 51.90625 
Q 46.484375 58.296875 42.84375 61.546875 
Q 39.203125 64.796875 32.078125 64.796875 
z
" id="DejaVuSans-82"/>
     </defs>
     <g transform="translate(247.994531 540.916563)scale(0.1 -0.1)">
      <use xlink:href="#DejaVuSans-70"/>
      <use x="57.378906" xlink:href="#DejaVuSans-97"/>
      <use x="118.658203" xlink:href="#DejaVuSans-108"/>
      <use x="146.441406" xlink:href="#DejaVuSans-115"/>
      <use x="198.541016" xlink:href="#DejaVuSans-101"/>
      <use x="260.064453" xlink:href="#DejaVuSans-32"/>
      <use x="291.851562" xlink:href="#DejaVuSans-80"/>
      <use x="352.107422" xlink:href="#DejaVuSans-111"/>
      <use x="413.289062" xlink:href="#DejaVuSans-115"/>
      <use x="465.388672" xlink:href="#DejaVuSans-105"/>
      <use x="493.171875" xlink:href="#DejaVuSans-116"/>
      <use x="532.380859" xlink:href="#DejaVuSans-105"/>
      <use x="560.164062" xlink:href="#DejaVuSans-118"/>
      <use x="619.34375" xlink:href="#DejaVuSans-101"/>
      <use x="680.867188" xlink:href="#DejaVuSans-32"/>
      <use x="712.654297" xlink:href="#DejaVuSans-82"/>
      <use x="782.105469" xlink:href="#DejaVuSans-97"/>
      <use x="843.384766" xlink:href="#DejaVuSans-116"/>
      <use x="882.59375" xlink:href="#DejaVuSans-101"/>
     </g>
    </g>
   </g>
   <g id="matplotlib.axis_2">
    <g id="ytick_1">
     <g id="line2d_13">
      <path clip-path="url(#p2cd2538c62)" d="M 72 512.64 
L 518.4 512.64 
" style="fill:none;stroke:#b0b0b0;stroke-linecap:square;stroke-width:0.8;"/>
     </g>
     <g id="line2d_14">
      <defs>
       <path d="M 0 0 
L -3.5 0 
" id="mb855da1377" style="stroke:#000000;stroke-width:0.8;"/>
      </defs>
      <g>
       <use style="stroke:#000000;stroke-width:0.8;" x="72" xlink:href="#mb855da1377" y="512.64"/>
      </g>
     </g>
     <g id="text_8">
      <!-- 0.0 -->
      <g transform="translate(49.096875 516.439219)scale(0.1 -0.1)">
       <use xlink:href="#DejaVuSans-48"/>
       <use x="63.623047" xlink:href="#DejaVuSans-46"/>
       <use x="95.410156" xlink:href="#DejaVuSans-48"/>
      </g>
     </g>
    </g>
    <g id="ytick_2">
     <g id="line2d_15">
      <path clip-path="url(#p2cd2538c62)" d="M 72 428.16 
L 518.4 428.16 
" style="fill:none;stroke:#b0b0b0;stroke-linecap:square;stroke-width:0.8;"/>
     </g>
     <g id="line2d_16">
      <g>
       <use style="stroke:#000000;stroke-width:0.8;" x="72" xlink:href="#mb855da1377" y="428.16"/>
      </g>
     </g>
     <g id="text_9">
      <!-- 0.2 -->
      <g transform="translate(49.096875 431.959219)scale(0.1 -0.1)">
       <use xlink:href="#DejaVuSans-48"/>
       <use x="63.623047" xlink:href="#DejaVuSans-46"/>
       <use x="95.410156" xlink:href="#DejaVuSans-50"/>
      </g>
     </g>
    </g>
    <g id="ytick_3">
     <g id="line2d_17">
      <path clip-path="url(#p2cd2538c62)" d="M 72 343.68 
L 518.4 343.68 
" style="fill:none;stroke:#b0b0b0;stroke-linecap:square;stroke-width:0.8;"/>
     </g>
     <g id="line2d_18">
      <g>
       <use style="stroke:#000000;stroke-width:0.8;" x="72" xlink:href="#mb855da1377" y="343.68"/>
      </g>
     </g>
     <g id="text_10">
      <!-- 0.4 -->
      <g transform="translate(49.096875 347.479219)scale(0.1 -0.1)">
       <use xlink:href="#DejaVuSans-48"/>
       <use x="63.623047" xlink:href="#DejaVuSans-46"/>
       <use x="95.410156" xlink:href="#DejaVuSans-52"/>
      </g>
     </g>
    </g>
    <g id="ytick_4">
     <g id="line2d_19">
      <path clip-path="url(#p2cd2538c62)" d="M 72 259.2 
L 518.4 259.2 
" style="fill:none;stroke:#b0b0b0;stroke-linecap:square;stroke-width:0.8;"/>
     </g>
     <g id="line2d_20">
      <g>
       <use style="stroke:#000000;stroke-width:0.8;" x="72" xlink:href="#mb855da1377" y="259.2"/>
      </g>
     </g>
     <g id="text_11">
      <!-- 0.6 -->
      <g transform="translate(49.096875 262.999219)scale(0.1 -0.1)">
       <use xlink:href="#DejaVuSans-48"/>
       <use x="63.623047" xlink:href="#DejaVuSans-46"/>
       <use x="95.410156" xlink:href="#DejaVuSans-54"/>
      </g>
     </g>
    </g>
    <g id="ytick_5">
     <g id="line2d_21">
      <path clip-path="url(#p2cd2538c62)" d="M 72 174.72 
L 518.4 174.72 
" style="fill:none;stroke:#b0b0b0;stroke-linecap:square;stroke-width:0.8;"/>
     </g>
     <g id="line2d_22">
      <g>
       <use style="stroke:#000000;stroke-width:0.8;" x="72" xlink:href="#mb855da1377" y="174.72"/>
      </g>
     </g>
     <g id="text_12">
      <!-- 0.8 -->
      <g transform="translate(49.096875 178.519219)scale(0.1 -0.1)">
       <use xlink:href="#DejaVuSans-48"/>
       <use x="63.623047" xlink:href="#DejaVuSans-46"/>
       <use x="95.410156" xlink:href="#DejaVuSans-56"/>
      </g>
     </g>
    </g>
    <g id="ytick_6">
     <g id="line2d_23">
      <path clip-path="url(#p2cd2538c62)" d="M 72 90.24 
L 518.4 90.24 
" style="fill:none;stroke:#b0b0b0;stroke-linecap:square;stroke-width:0.8;"/>
     </g>
     <g id="line2d_24">
      <g>
       <use style="stroke:#000000;stroke-width:0.8;" x="72" xlink:href="#mb855da1377" y="90.24"/>
      </g>
     </g>
     <g id="text_13">
      <!-- 1.0 -->
      <g transform="translate(49.096875 94.039219)scale(0.1 -0.1)">
       <use xlink:href="#DejaVuSans-49"/>
       <use x="63.623047" xlink:href="#DejaVuSans-46"/>
       <use x="95.410156" xlink:href="#DejaVuSans-48"/>
      </g>
     </g>
    </g>
    <g id="text_14">
     <!-- True Positive Rate -->
     <defs>
      <path d="M -0.296875 72.90625 
L 61.375 72.90625 
L 61.375 64.59375 
L 35.5 64.59375 
L 35.5 0 
L 25.59375 0 
L 25.59375 64.59375 
L -0.296875 64.59375 
z
" id="DejaVuSans-84"/>
      <path d="M 41.109375 46.296875 
Q 39.59375 47.171875 37.8125 47.578125 
Q 36.03125 48 33.890625 48 
Q 26.265625 48 22.1875 43.046875 
Q 18.109375 38.09375 18.109375 28.8125 
L 18.109375 0 
L 9.078125 0 
L 9.078125 54.6875 
L 18.109375 54.6875 
L 18.109375 46.1875 
Q 20.953125 51.171875 25.484375 53.578125 
Q 30.03125 56 36.53125 56 
Q 37.453125 56 38.578125 55.875 
Q 39.703125 55.765625 41.0625 55.515625 
z
" id="DejaVuSans-114"/>
      <path d="M 8.5 21.578125 
L 8.5 54.6875 
L 17.484375 54.6875 
L 17.484375 21.921875 
Q 17.484375 14.15625 20.5 10.265625 
Q 23.53125 6.390625 29.59375 6.390625 
Q 36.859375 6.390625 41.078125 11.03125 
Q 45.3125 15.671875 45.3125 23.6875 
L 45.3125 54.6875 
L 54.296875 54.6875 
L 54.296875 0 
L 45.3125 0 
L 45.3125 8.40625 
Q 42.046875 3.421875 37.71875 1 
Q 33.40625 -1.421875 27.6875 -1.421875 
Q 18.265625 -1.421875 13.375 4.4375 
Q 8.5 10.296875 8.5 21.578125 
z
M 31.109375 56 
z
" id="DejaVuSans-117"/>
     </defs>
     <g transform="translate(43.017187 336.426094)rotate(-90)scale(0.1 -0.1)">
      <use xlink:href="#DejaVuSans-84"/>
      <use x="60.865234" xlink:href="#DejaVuSans-114"/>
      <use x="101.978516" xlink:href="#DejaVuSans-117"/>
      <use x="165.357422" xlink:href="#DejaVuSans-101"/>
      <use x="226.880859" xlink:href="#DejaVuSans-32"/>
      <use x="258.667969" xlink:href="#DejaVuSans-80"/>
      <use x="318.923828" xlink:href="#DejaVuSans-111"/>
      <use x="380.105469" xlink:href="#DejaVuSans-115"/>
      <use x="432.205078" xlink:href="#DejaVuSans-105"/>
      <use x="459.988281" xlink:href="#DejaVuSans-116"/>
      <use x="499.197266" xlink:href="#DejaVuSans-105"/>
      <use x="526.980469" xlink:href="#DejaVuSans-118"/>
      <use x="586.160156" xlink:href="#DejaVuSans-101"/>
      <use x="647.683594" xlink:href="#DejaVuSans-32"/>
      <use x="679.470703" xlink:href="#DejaVuSans-82"/>
      <use x="748.921875" xlink:href="#DejaVuSans-97"/>
      <use x="810.201172" xlink:href="#DejaVuSans-116"/>
      <use x="849.410156" xlink:href="#DejaVuSans-101"/>
     </g>
    </g>
   </g>
   <g id="line2d_25">
    <path clip-path="url(#p2cd2538c62)" d="M 72 512.64 
L 72 464.262564 
L 72.381538 464.262564 
L 72.381538 450.904615 
L 72.763077 450.904615 
L 72.763077 450.182564 
L 73.144615 450.182564 
L 73.144615 449.821538 
L 73.907692 449.821538 
L 73.907692 442.601026 
L 74.289231 442.601026 
L 74.289231 439.712821 
L 74.670769 439.712821 
L 74.670769 433.93641 
L 75.052308 433.93641 
L 75.052308 428.521026 
L 76.196923 428.521026 
L 76.196923 423.827692 
L 76.578462 423.827692 
L 76.578462 416.968205 
L 76.96 416.968205 
L 76.96 412.635897 
L 77.341538 412.635897 
L 77.341538 407.581538 
L 77.723077 407.581538 
L 77.723077 407.220513 
L 78.104615 407.220513 
L 78.104615 406.498462 
L 78.486154 406.498462 
L 78.486154 397.833846 
L 78.867692 397.833846 
L 78.867692 394.945641 
L 79.249231 394.945641 
L 79.249231 388.086154 
L 79.630769 388.086154 
L 79.630769 385.92 
L 80.012308 385.92 
L 80.012308 377.61641 
L 80.393846 377.61641 
L 80.393846 376.894359 
L 80.775385 376.894359 
L 80.775385 375.450256 
L 81.156923 375.450256 
L 81.156923 374.006154 
L 81.538462 374.006154 
L 81.538462 371.478974 
L 81.92 371.478974 
L 81.92 366.06359 
L 82.301538 366.06359 
L 82.301538 365.341538 
L 82.683077 365.341538 
L 82.683077 363.53641 
L 83.064615 363.53641 
L 83.064615 361.731282 
L 83.446154 361.731282 
L 83.446154 360.287179 
L 83.827692 360.287179 
L 83.827692 359.204103 
L 84.209231 359.204103 
L 84.209231 358.482051 
L 84.590769 358.482051 
L 84.590769 357.76 
L 84.972308 357.76 
L 84.972308 354.871795 
L 85.353846 354.871795 
L 85.353846 351.261538 
L 85.735385 351.261538 
L 85.735385 350.178462 
L 86.498462 350.178462 
L 86.498462 346.568205 
L 86.88 346.568205 
L 86.88 345.846154 
L 87.261538 345.846154 
L 87.261538 342.596923 
L 88.024615 342.596923 
L 88.024615 340.791795 
L 88.787692 340.791795 
L 88.787692 340.430769 
L 89.169231 340.430769 
L 89.169231 339.347692 
L 89.550769 339.347692 
L 89.550769 338.264615 
L 89.932308 338.264615 
L 89.932308 336.098462 
L 90.313846 336.098462 
L 90.313846 331.766154 
L 91.076923 331.766154 
L 91.076923 331.044103 
L 91.458462 331.044103 
L 91.458462 329.961026 
L 91.84 329.961026 
L 91.84 327.433846 
L 92.221538 327.433846 
L 92.221538 327.072821 
L 92.603077 327.072821 
L 92.603077 325.989744 
L 92.984615 325.989744 
L 92.984615 325.628718 
L 93.366154 325.628718 
L 93.366154 324.545641 
L 93.747692 324.545641 
L 93.747692 324.184615 
L 94.129231 324.184615 
L 94.129231 321.657436 
L 94.510769 321.657436 
L 94.510769 320.935385 
L 94.892308 320.935385 
L 94.892308 317.325128 
L 95.273846 317.325128 
L 95.273846 316.964103 
L 96.036923 316.964103 
L 96.036923 315.881026 
L 96.418462 315.881026 
L 96.418462 315.158974 
L 96.8 315.158974 
L 96.8 310.826667 
L 97.563077 310.826667 
L 97.563077 310.465641 
L 97.944615 310.465641 
L 97.944615 309.382564 
L 98.707692 309.382564 
L 98.707692 307.938462 
L 99.089231 307.938462 
L 99.089231 307.577436 
L 99.470769 307.577436 
L 99.470769 306.494359 
L 99.852308 306.494359 
L 99.852308 301.078974 
L 100.233846 301.078974 
L 100.233846 300.717949 
L 100.615385 300.717949 
L 100.615385 299.995897 
L 101.76 299.995897 
L 101.76 299.634872 
L 102.141538 299.634872 
L 102.141538 299.273846 
L 102.523077 299.273846 
L 102.523077 298.190769 
L 102.904615 298.190769 
L 102.904615 293.497436 
L 103.286154 293.497436 
L 103.286154 291.331282 
L 103.667692 291.331282 
L 103.667692 289.887179 
L 104.049231 289.887179 
L 104.049231 288.443077 
L 104.812308 288.443077 
L 104.812308 288.082051 
L 105.193846 288.082051 
L 105.193846 287.721026 
L 105.575385 287.721026 
L 105.575385 286.998974 
L 105.956923 286.998974 
L 105.956923 286.276923 
L 106.338462 286.276923 
L 106.338462 284.832821 
L 106.72 284.832821 
L 106.72 283.749744 
L 107.101538 283.749744 
L 107.101538 283.027692 
L 107.483077 283.027692 
L 107.483077 281.944615 
L 107.864615 281.944615 
L 107.864615 281.58359 
L 108.246154 281.58359 
L 108.246154 281.222564 
L 108.627692 281.222564 
L 108.627692 280.500513 
L 109.009231 280.500513 
L 109.009231 279.778462 
L 109.390769 279.778462 
L 109.390769 279.05641 
L 109.772308 279.05641 
L 109.772308 277.612308 
L 110.153846 277.612308 
L 110.153846 277.251282 
L 111.68 277.251282 
L 111.68 274.363077 
L 112.443077 274.363077 
L 112.443077 273.28 
L 112.824615 273.28 
L 112.824615 271.835897 
L 113.206154 271.835897 
L 113.206154 271.113846 
L 113.587692 271.113846 
L 113.587692 270.752821 
L 113.969231 270.752821 
L 113.969231 269.308718 
L 114.350769 269.308718 
L 114.350769 268.586667 
L 114.732308 268.586667 
L 114.732308 265.337436 
L 115.113846 265.337436 
L 115.113846 264.97641 
L 115.495385 264.97641 
L 115.495385 263.893333 
L 115.876923 263.893333 
L 115.876923 256.672821 
L 116.258462 256.672821 
L 116.258462 256.311795 
L 116.64 256.311795 
L 116.64 255.950769 
L 117.021538 255.950769 
L 117.021538 255.228718 
L 117.403077 255.228718 
L 117.403077 254.506667 
L 117.784615 254.506667 
L 117.784615 253.784615 
L 118.547692 253.784615 
L 118.547692 251.979487 
L 120.073846 251.979487 
L 120.073846 250.89641 
L 120.455385 250.89641 
L 120.455385 250.535385 
L 120.836923 250.535385 
L 120.836923 249.813333 
L 121.218462 249.813333 
L 121.218462 249.091282 
L 122.744615 249.091282 
L 122.744615 248.369231 
L 123.507692 248.369231 
L 123.507692 248.008205 
L 123.889231 248.008205 
L 123.889231 247.647179 
L 124.270769 247.647179 
L 124.270769 247.286154 
L 124.652308 247.286154 
L 124.652308 246.564103 
L 125.033846 246.564103 
L 125.033846 245.842051 
L 126.178462 245.842051 
L 126.178462 244.758974 
L 126.941538 244.758974 
L 126.941538 244.397949 
L 127.323077 244.397949 
L 127.323077 243.675897 
L 127.704615 243.675897 
L 127.704615 242.592821 
L 128.849231 242.592821 
L 128.849231 241.509744 
L 129.230769 241.509744 
L 129.230769 241.148718 
L 129.612308 241.148718 
L 129.612308 239.704615 
L 129.993846 239.704615 
L 129.993846 238.982564 
L 130.375385 238.982564 
L 130.375385 238.621538 
L 131.138462 238.621538 
L 131.138462 238.260513 
L 131.52 238.260513 
L 131.52 236.455385 
L 132.283077 236.455385 
L 132.283077 236.094359 
L 132.664615 236.094359 
L 132.664615 235.733333 
L 133.046154 235.733333 
L 133.046154 235.011282 
L 133.427692 235.011282 
L 133.427692 234.289231 
L 133.809231 234.289231 
L 133.809231 233.928205 
L 134.953846 233.928205 
L 134.953846 233.567179 
L 136.861538 233.567179 
L 136.861538 231.762051 
L 137.243077 231.762051 
L 137.243077 231.401026 
L 137.624615 231.401026 
L 137.624615 230.317949 
L 138.387692 230.317949 
L 138.387692 229.595897 
L 139.532308 229.595897 
L 139.532308 228.873846 
L 139.913846 228.873846 
L 139.913846 228.512821 
L 140.676923 228.512821 
L 140.676923 227.790769 
L 141.44 227.790769 
L 141.44 226.707692 
L 142.584615 226.707692 
L 142.584615 224.902564 
L 142.966154 224.902564 
L 142.966154 224.541538 
L 143.347692 224.541538 
L 143.347692 222.73641 
L 143.729231 222.73641 
L 143.729231 221.653333 
L 145.636923 221.653333 
L 145.636923 220.931282 
L 146.018462 220.931282 
L 146.018462 220.570256 
L 146.4 220.570256 
L 146.4 219.487179 
L 146.781538 219.487179 
L 146.781538 218.404103 
L 147.544615 218.404103 
L 147.544615 217.682051 
L 148.307692 217.682051 
L 148.307692 217.321026 
L 148.689231 217.321026 
L 148.689231 215.876923 
L 149.070769 215.876923 
L 149.070769 214.793846 
L 149.452308 214.793846 
L 149.452308 214.071795 
L 150.978462 214.071795 
L 150.978462 210.822564 
L 151.741538 210.822564 
L 151.741538 209.739487 
L 152.123077 209.739487 
L 152.123077 208.65641 
L 153.649231 208.65641 
L 153.649231 208.295385 
L 154.030769 208.295385 
L 154.030769 207.934359 
L 154.412308 207.934359 
L 154.412308 206.851282 
L 155.175385 206.851282 
L 155.175385 206.490256 
L 155.556923 206.490256 
L 155.556923 205.768205 
L 156.32 205.768205 
L 156.32 205.046154 
L 156.701538 205.046154 
L 156.701538 204.685128 
L 157.464615 204.685128 
L 157.464615 203.602051 
L 157.846154 203.602051 
L 157.846154 203.241026 
L 158.609231 203.241026 
L 158.609231 202.88 
L 158.990769 202.88 
L 158.990769 202.518974 
L 159.372308 202.518974 
L 159.372308 202.157949 
L 159.753846 202.157949 
L 159.753846 201.435897 
L 160.135385 201.435897 
L 160.135385 199.991795 
L 160.516923 199.991795 
L 160.516923 197.464615 
L 161.661538 197.464615 
L 161.661538 197.10359 
L 163.187692 197.10359 
L 163.187692 196.742564 
L 163.569231 196.742564 
L 163.569231 195.659487 
L 163.950769 195.659487 
L 163.950769 194.937436 
L 166.621538 194.937436 
L 166.621538 194.57641 
L 167.384615 194.57641 
L 167.384615 193.493333 
L 168.147692 193.493333 
L 168.147692 192.049231 
L 168.529231 192.049231 
L 168.529231 189.883077 
L 169.292308 189.883077 
L 169.292308 189.522051 
L 170.055385 189.522051 
L 170.055385 188.8 
L 171.963077 188.8 
L 171.963077 188.438974 
L 172.726154 188.438974 
L 172.726154 187.716923 
L 174.252308 187.716923 
L 174.252308 186.633846 
L 174.633846 186.633846 
L 174.633846 186.272821 
L 175.015385 186.272821 
L 175.015385 184.828718 
L 175.396923 184.828718 
L 175.396923 184.467692 
L 176.16 184.467692 
L 176.16 184.106667 
L 176.541538 184.106667 
L 176.541538 183.384615 
L 177.304615 183.384615 
L 177.304615 183.02359 
L 178.449231 183.02359 
L 178.449231 182.301538 
L 178.830769 182.301538 
L 178.830769 180.857436 
L 179.975385 180.857436 
L 179.975385 179.774359 
L 181.12 179.774359 
L 181.12 179.413333 
L 181.501538 179.413333 
L 181.501538 178.330256 
L 181.883077 178.330256 
L 181.883077 177.608205 
L 182.264615 177.608205 
L 182.264615 176.525128 
L 182.646154 176.525128 
L 182.646154 175.803077 
L 183.790769 175.803077 
L 183.790769 175.442051 
L 184.172308 175.442051 
L 184.172308 175.081026 
L 184.553846 175.081026 
L 184.553846 174.72 
L 184.935385 174.72 
L 184.935385 173.997949 
L 185.698462 173.997949 
L 185.698462 172.914872 
L 187.224615 172.914872 
L 187.224615 172.553846 
L 187.606154 172.553846 
L 187.606154 172.192821 
L 188.369231 172.192821 
L 188.369231 171.831795 
L 190.276923 171.831795 
L 190.276923 170.748718 
L 191.803077 170.748718 
L 191.803077 170.387692 
L 192.566154 170.387692 
L 192.566154 169.304615 
L 193.329231 169.304615 
L 193.329231 168.582564 
L 194.092308 168.582564 
L 194.092308 168.221538 
L 195.236923 168.221538 
L 195.236923 167.860513 
L 196.381538 167.860513 
L 196.381538 167.138462 
L 196.763077 167.138462 
L 196.763077 166.777436 
L 199.433846 166.777436 
L 199.433846 166.41641 
L 200.196923 166.41641 
L 200.196923 165.694359 
L 200.578462 165.694359 
L 200.578462 164.972308 
L 201.341538 164.972308 
L 201.341538 164.250256 
L 201.723077 164.250256 
L 201.723077 163.889231 
L 203.249231 163.889231 
L 203.249231 163.167179 
L 203.630769 163.167179 
L 203.630769 162.084103 
L 204.012308 162.084103 
L 204.012308 161.723077 
L 204.393846 161.723077 
L 204.393846 161.362051 
L 205.92 161.362051 
L 205.92 161.001026 
L 206.683077 161.001026 
L 206.683077 160.64 
L 207.446154 160.64 
L 207.446154 160.278974 
L 207.827692 160.278974 
L 207.827692 159.917949 
L 210.116923 159.917949 
L 210.116923 159.195897 
L 210.498462 159.195897 
L 210.498462 158.834872 
L 210.88 158.834872 
L 210.88 158.112821 
L 211.643077 158.112821 
L 211.643077 157.390769 
L 212.406154 157.390769 
L 212.406154 156.307692 
L 212.787692 156.307692 
L 212.787692 155.585641 
L 213.169231 155.585641 
L 213.169231 154.86359 
L 215.076923 154.86359 
L 215.076923 154.502564 
L 215.458462 154.502564 
L 215.458462 154.141538 
L 217.366154 154.141538 
L 217.366154 153.780513 
L 218.129231 153.780513 
L 218.129231 153.419487 
L 218.510769 153.419487 
L 218.510769 153.058462 
L 219.273846 153.058462 
L 219.273846 152.33641 
L 220.418462 152.33641 
L 220.418462 151.975385 
L 221.181538 151.975385 
L 221.181538 151.614359 
L 222.326154 151.614359 
L 222.326154 151.253333 
L 222.707692 151.253333 
L 222.707692 150.892308 
L 223.089231 150.892308 
L 223.089231 150.170256 
L 223.470769 150.170256 
L 223.470769 149.809231 
L 224.233846 149.809231 
L 224.233846 149.448205 
L 224.615385 149.448205 
L 224.615385 149.087179 
L 226.523077 149.087179 
L 226.523077 148.726154 
L 226.904615 148.726154 
L 226.904615 146.921026 
L 227.667692 146.921026 
L 227.667692 146.56 
L 228.049231 146.56 
L 228.049231 145.476923 
L 228.812308 145.476923 
L 228.812308 145.115897 
L 229.575385 145.115897 
L 229.575385 144.754872 
L 231.483077 144.754872 
L 231.483077 142.949744 
L 233.772308 142.949744 
L 233.772308 142.588718 
L 234.535385 142.588718 
L 234.535385 142.227692 
L 237.206154 142.227692 
L 237.206154 141.866667 
L 237.587692 141.866667 
L 237.587692 141.144615 
L 239.876923 141.144615 
L 239.876923 140.422564 
L 240.64 140.422564 
L 240.64 138.617436 
L 242.547692 138.617436 
L 242.547692 138.25641 
L 244.073846 138.25641 
L 244.073846 137.895385 
L 245.218462 137.895385 
L 245.218462 137.173333 
L 245.6 137.173333 
L 245.6 136.451282 
L 245.981538 136.451282 
L 245.981538 135.368205 
L 246.363077 135.368205 
L 246.363077 134.646154 
L 247.507692 134.646154 
L 247.507692 133.924103 
L 248.270769 133.924103 
L 248.270769 133.563077 
L 249.796923 133.563077 
L 249.796923 133.202051 
L 250.178462 133.202051 
L 250.178462 132.841026 
L 250.56 132.841026 
L 250.56 131.757949 
L 251.323077 131.757949 
L 251.323077 131.396923 
L 252.086154 131.396923 
L 252.086154 131.035897 
L 252.467692 131.035897 
L 252.467692 130.674872 
L 253.230769 130.674872 
L 253.230769 130.313846 
L 258.190769 130.313846 
L 258.190769 129.952821 
L 260.861538 129.952821 
L 260.861538 129.591795 
L 261.624615 129.591795 
L 261.624615 129.230769 
L 262.006154 129.230769 
L 262.006154 128.869744 
L 262.387692 128.869744 
L 262.387692 128.508718 
L 266.584615 128.508718 
L 266.584615 128.147692 
L 266.966154 128.147692 
L 266.966154 127.425641 
L 267.347692 127.425641 
L 267.347692 126.70359 
L 268.492308 126.70359 
L 268.492308 125.981538 
L 269.255385 125.981538 
L 269.255385 125.620513 
L 271.544615 125.620513 
L 271.544615 125.259487 
L 272.307692 125.259487 
L 272.307692 124.898462 
L 272.689231 124.898462 
L 272.689231 124.537436 
L 273.070769 124.537436 
L 273.070769 123.815385 
L 273.452308 123.815385 
L 273.452308 123.454359 
L 275.36 123.454359 
L 275.36 123.093333 
L 280.32 123.093333 
L 280.32 122.732308 
L 281.464615 122.732308 
L 281.464615 121.649231 
L 281.846154 121.649231 
L 281.846154 121.288205 
L 282.609231 121.288205 
L 282.609231 120.927179 
L 284.516923 120.927179 
L 284.516923 120.566154 
L 289.095385 120.566154 
L 289.095385 120.205128 
L 289.858462 120.205128 
L 289.858462 119.844103 
L 292.147692 119.844103 
L 292.147692 119.122051 
L 293.673846 119.122051 
L 293.673846 118.761026 
L 295.963077 118.761026 
L 295.963077 118.4 
L 298.252308 118.4 
L 298.252308 118.038974 
L 299.015385 118.038974 
L 299.015385 117.677949 
L 300.16 117.677949 
L 300.16 117.316923 
L 302.449231 117.316923 
L 302.449231 116.955897 
L 303.593846 116.955897 
L 303.593846 116.594872 
L 305.501538 116.594872 
L 305.501538 116.233846 
L 305.883077 116.233846 
L 305.883077 115.872821 
L 306.646154 115.872821 
L 306.646154 115.511795 
L 308.172308 115.511795 
L 308.172308 115.150769 
L 309.698462 115.150769 
L 309.698462 114.789744 
L 312.369231 114.789744 
L 312.369231 114.428718 
L 313.895385 114.428718 
L 313.895385 114.067692 
L 315.421538 114.067692 
L 315.421538 113.706667 
L 324.196923 113.706667 
L 324.196923 112.984615 
L 327.249231 112.984615 
L 327.249231 112.62359 
L 328.775385 112.62359 
L 328.775385 112.262564 
L 331.827692 112.262564 
L 331.827692 111.540513 
L 334.498462 111.540513 
L 334.498462 110.818462 
L 334.88 110.818462 
L 334.88 110.457436 
L 335.643077 110.457436 
L 335.643077 109.735385 
L 336.024615 109.735385 
L 336.024615 109.013333 
L 337.932308 109.013333 
L 337.932308 108.291282 
L 343.273846 108.291282 
L 343.273846 107.930256 
L 344.418462 107.930256 
L 344.418462 107.569231 
L 351.667692 107.569231 
L 351.667692 106.486154 
L 352.430769 106.486154 
L 352.430769 106.125128 
L 356.627692 106.125128 
L 356.627692 105.403077 
L 357.772308 105.403077 
L 357.772308 105.042051 
L 358.153846 105.042051 
L 358.153846 104.681026 
L 358.916923 104.681026 
L 358.916923 104.32 
L 359.298462 104.32 
L 359.298462 103.597949 
L 362.732308 103.597949 
L 362.732308 103.236923 
L 364.64 103.236923 
L 364.64 102.875897 
L 365.784615 102.875897 
L 365.784615 102.153846 
L 368.455385 102.153846 
L 368.455385 101.792821 
L 369.981538 101.792821 
L 369.981538 100.709744 
L 371.889231 100.709744 
L 371.889231 100.348718 
L 372.652308 100.348718 
L 372.652308 99.987692 
L 374.178462 99.987692 
L 374.178462 99.626667 
L 374.941538 99.626667 
L 374.941538 99.265641 
L 378.375385 99.265641 
L 378.375385 98.904615 
L 382.190769 98.904615 
L 382.190769 98.54359 
L 383.335385 98.54359 
L 383.335385 98.182564 
L 384.861538 98.182564 
L 384.861538 97.821538 
L 389.058462 97.821538 
L 389.058462 97.460513 
L 397.452308 97.460513 
L 397.452308 97.099487 
L 404.32 97.099487 
L 404.32 96.738462 
L 408.516923 96.738462 
L 408.516923 96.377436 
L 409.28 96.377436 
L 409.28 96.01641 
L 412.332308 96.01641 
L 412.332308 95.294359 
L 413.858462 95.294359 
L 413.858462 94.933333 
L 434.08 94.933333 
L 434.08 94.572308 
L 435.606154 94.572308 
L 435.606154 94.211282 
L 436.369231 94.211282 
L 436.369231 93.850256 
L 445.526154 93.850256 
L 445.526154 93.489231 
L 447.052308 93.489231 
L 447.052308 93.128205 
L 450.104615 93.128205 
L 450.104615 92.767179 
L 453.538462 92.767179 
L 453.538462 92.406154 
L 461.169231 92.406154 
L 461.169231 92.045128 
L 466.892308 92.045128 
L 466.892308 91.684103 
L 479.483077 91.684103 
L 479.483077 91.323077 
L 484.824615 91.323077 
L 484.824615 90.962051 
L 501.230769 90.962051 
L 501.230769 90.601026 
L 507.716923 90.601026 
L 507.716923 90.24 
L 518.4 90.24 
L 518.4 90.24 
" style="fill:none;stroke:#ff8c00;stroke-linecap:square;stroke-width:2;"/>
   </g>
   <g id="line2d_26">
    <path clip-path="url(#p2cd2538c62)" d="M 72 512.64 
L 518.4 90.24 
" style="fill:none;stroke:#000080;stroke-dasharray:7.4,3.2;stroke-dashoffset:0;stroke-width:2;"/>
   </g>
   <g id="patch_3">
    <path d="M 72 512.64 
L 72 69.12 
" style="fill:none;stroke:#000000;stroke-linecap:square;stroke-linejoin:miter;stroke-width:0.8;"/>
   </g>
   <g id="patch_4">
    <path d="M 518.4 512.64 
L 518.4 69.12 
" style="fill:none;stroke:#000000;stroke-linecap:square;stroke-linejoin:miter;stroke-width:0.8;"/>
   </g>
   <g id="patch_5">
    <path d="M 72 512.64 
L 518.4 512.64 
" style="fill:none;stroke:#000000;stroke-linecap:square;stroke-linejoin:miter;stroke-width:0.8;"/>
   </g>
   <g id="patch_6">
    <path d="M 72 69.12 
L 518.4 69.12 
" style="fill:none;stroke:#000000;stroke-linecap:square;stroke-linejoin:miter;stroke-width:0.8;"/>
   </g>
   <g id="legend_1">
    <g id="patch_7">
     <path d="M 427.081875 509.64 
L 514.2 509.64 
Q 515.4 509.64 515.4 508.44 
L 515.4 500.233125 
Q 515.4 499.033125 514.2 499.033125 
L 427.081875 499.033125 
Q 425.881875 499.033125 425.881875 500.233125 
L 425.881875 508.44 
Q 425.881875 509.64 427.081875 509.64 
z
" style="fill:#ffffff;opacity:0.8;stroke:#cccccc;stroke-linejoin:miter;"/>
    </g>
    <g id="line2d_27">
     <path d="M 428.281875 503.892187 
L 440.281875 503.892187 
" style="fill:none;stroke:#ff8c00;stroke-linecap:square;stroke-width:2;"/>
    </g>
    <g id="line2d_28"/>
    <g id="text_15">
     <!-- D006262 (area =0.86) -->
     <defs>
      <path d="M 19.671875 64.796875 
L 19.671875 8.109375 
L 31.59375 8.109375 
Q 46.6875 8.109375 53.6875 14.9375 
Q 60.6875 21.78125 60.6875 36.53125 
Q 60.6875 51.171875 53.6875 57.984375 
Q 46.6875 64.796875 31.59375 64.796875 
z
M 9.8125 72.90625 
L 30.078125 72.90625 
Q 51.265625 72.90625 61.171875 64.09375 
Q 71.09375 55.28125 71.09375 36.53125 
Q 71.09375 17.671875 61.125 8.828125 
Q 51.171875 0 30.078125 0 
L 9.8125 0 
z
" id="DejaVuSans-68"/>
      <path d="M 31 75.875 
Q 24.46875 64.65625 21.28125 53.65625 
Q 18.109375 42.671875 18.109375 31.390625 
Q 18.109375 20.125 21.3125 9.0625 
Q 24.515625 -2 31 -13.1875 
L 23.1875 -13.1875 
Q 15.875 -1.703125 12.234375 9.375 
Q 8.59375 20.453125 8.59375 31.390625 
Q 8.59375 42.28125 12.203125 53.3125 
Q 15.828125 64.359375 23.1875 75.875 
z
" id="DejaVuSans-40"/>
      <path d="M 10.59375 45.40625 
L 73.1875 45.40625 
L 73.1875 37.203125 
L 10.59375 37.203125 
z
M 10.59375 25.484375 
L 73.1875 25.484375 
L 73.1875 17.1875 
L 10.59375 17.1875 
z
" id="DejaVuSans-61"/>
      <path d="M 8.015625 75.875 
L 15.828125 75.875 
Q 23.140625 64.359375 26.78125 53.3125 
Q 30.421875 42.28125 30.421875 31.390625 
Q 30.421875 20.453125 26.78125 9.375 
Q 23.140625 -1.703125 15.828125 -13.1875 
L 8.015625 -13.1875 
Q 14.5 -2 17.703125 9.0625 
Q 20.90625 20.125 20.90625 31.390625 
Q 20.90625 42.671875 17.703125 53.65625 
Q 14.5 64.65625 8.015625 75.875 
z
" id="DejaVuSans-41"/>
     </defs>
     <g transform="translate(445.081875 505.992188)scale(0.06 -0.06)">
      <use xlink:href="#DejaVuSans-68"/>
      <use x="77.001953" xlink:href="#DejaVuSans-48"/>
      <use x="140.625" xlink:href="#DejaVuSans-48"/>
      <use x="204.248047" xlink:href="#DejaVuSans-54"/>
      <use x="267.871094" xlink:href="#DejaVuSans-50"/>
      <use x="331.494141" xlink:href="#DejaVuSans-54"/>
      <use x="395.117188" xlink:href="#DejaVuSans-50"/>
      <use x="458.740234" xlink:href="#DejaVuSans-32"/>
      <use x="490.527344" xlink:href="#DejaVuSans-40"/>
      <use x="529.541016" xlink:href="#DejaVuSans-97"/>
      <use x="590.820312" xlink:href="#DejaVuSans-114"/>
      <use x="631.902344" xlink:href="#DejaVuSans-101"/>
      <use x="693.425781" xlink:href="#DejaVuSans-97"/>
      <use x="754.705078" xlink:href="#DejaVuSans-32"/>
      <use x="786.492188" xlink:href="#DejaVuSans-61"/>
      <use x="870.28125" xlink:href="#DejaVuSans-48"/>
      <use x="933.904297" xlink:href="#DejaVuSans-46"/>
      <use x="965.691406" xlink:href="#DejaVuSans-56"/>
      <use x="1029.314453" xlink:href="#DejaVuSans-54"/>
      <use x="1092.9375" xlink:href="#DejaVuSans-41"/>
     </g>
    </g>
   </g>
  </g>
 </g>
 <defs>
  <clipPath id="p2cd2538c62">
   <rect height="443.52" width="446.4" x="72" y="69.12"/>
  </clipPath>
 </defs>
</svg>
