<?xml version="1.0" encoding="utf-8" standalone="no"?>
<!DOCTYPE svg PUBLIC "-//W3C//DTD SVG 1.1//EN"
  "http://www.w3.org/Graphics/SVG/1.1/DTD/svg11.dtd">
<!-- Created with matplotlib (https://matplotlib.org/) -->
<svg height="432pt" version="1.1" viewBox="0 0 720 432" width="720pt" xmlns="http://www.w3.org/2000/svg" xmlns:xlink="http://www.w3.org/1999/xlink">
 <defs>
  <style type="text/css">
*{stroke-linecap:butt;stroke-linejoin:round;}
  </style>
 </defs>
 <g id="figure_1">
  <g id="patch_1">
   <path d="M 0 432 
L 720 432 
L 720 0 
L 0 0 
z
" style="fill:#ffffff;"/>
  </g>
  <g id="axes_1">
   <g id="patch_2">
    <path d="M 90 378 
L 648 378 
L 648 51.84 
L 90 51.84 
z
" style="fill:#ffffff;"/>
   </g>
   <g id="PathCollection_1">
    <defs>
     <path d="M 0 3 
C 0.795609 3 1.55874 2.683901 2.12132 2.12132 
C 2.683901 1.55874 3 0.795609 3 0 
C 3 -0.795609 2.683901 -1.55874 2.12132 -2.12132 
C 1.55874 -2.683901 0.795609 -3 0 -3 
C -0.795609 -3 -1.55874 -2.683901 -2.12132 -2.12132 
C -2.683901 -1.55874 -3 -0.795609 -3 0 
C -3 0.795609 -2.683901 1.55874 -2.12132 2.12132 
C -1.55874 2.683901 -0.795609 3 0 3 
z
" id="m21a676ce11" style="stroke:#f8766d;"/>
    </defs>
    <g clip-path="url(#pe27c957908)">
     <use style="fill:#f8766d;stroke:#f8766d;" x="393.111055" xlink:href="#m21a676ce11" y="112.815202"/>
     <use style="fill:#f8766d;stroke:#f8766d;" x="401.577291" xlink:href="#m21a676ce11" y="152.541224"/>
     <use style="fill:#f8766d;stroke:#f8766d;" x="457.096369" xlink:href="#m21a676ce11" y="124.711682"/>
     <use style="fill:#f8766d;stroke:#f8766d;" x="520.923616" xlink:href="#m21a676ce11" y="104.847975"/>
     <use style="fill:#f8766d;stroke:#f8766d;" x="436.889458" xlink:href="#m21a676ce11" y="125.893323"/>
     <use style="fill:#f8766d;stroke:#f8766d;" x="439.21046" xlink:href="#m21a676ce11" y="109.736564"/>
     <use style="fill:#f8766d;stroke:#f8766d;" x="408.171762" xlink:href="#m21a676ce11" y="218.40931"/>
     <use style="fill:#f8766d;stroke:#f8766d;" x="501.134738" xlink:href="#m21a676ce11" y="117.812566"/>
     <use style="fill:#f8766d;stroke:#f8766d;" x="412.335348" xlink:href="#m21a676ce11" y="88.337813"/>
     <use style="fill:#f8766d;stroke:#f8766d;" x="535.593157" xlink:href="#m21a676ce11" y="99.679154"/>
     <use style="fill:#f8766d;stroke:#f8766d;" x="539.466694" xlink:href="#m21a676ce11" y="70.235193"/>
     <use style="fill:#f8766d;stroke:#f8766d;" x="574.458042" xlink:href="#m21a676ce11" y="118.088264"/>
     <use style="fill:#f8766d;stroke:#f8766d;" x="560.471306" xlink:href="#m21a676ce11" y="136.08558"/>
     <use style="fill:#f8766d;stroke:#f8766d;" x="582.552407" xlink:href="#m21a676ce11" y="116.603374"/>
     <use style="fill:#f8766d;stroke:#f8766d;" x="507.290113" xlink:href="#m21a676ce11" y="129.254199"/>
     <use style="fill:#f8766d;stroke:#f8766d;" x="494.207829" xlink:href="#m21a676ce11" y="130.326723"/>
     <use style="fill:#f8766d;stroke:#f8766d;" x="235.846524" xlink:href="#m21a676ce11" y="119.556575"/>
     <use style="fill:#f8766d;stroke:#f8766d;" x="510.973501" xlink:href="#m21a676ce11" y="121.440513"/>
     <use style="fill:#f8766d;stroke:#f8766d;" x="516.992278" xlink:href="#m21a676ce11" y="90.306719"/>
     <use style="fill:#f8766d;stroke:#f8766d;" x="289.14725" xlink:href="#m21a676ce11" y="344.86332"/>
     <use style="fill:#f8766d;stroke:#f8766d;" x="622.541859" xlink:href="#m21a676ce11" y="160.360168"/>
     <use style="fill:#f8766d;stroke:#f8766d;" x="532.677791" xlink:href="#m21a676ce11" y="87.410606"/>
     <use style="fill:#f8766d;stroke:#f8766d;" x="496.883334" xlink:href="#m21a676ce11" y="147.888001"/>
     <use style="fill:#f8766d;stroke:#f8766d;" x="566.891663" xlink:href="#m21a676ce11" y="107.754291"/>
     <use style="fill:#f8766d;stroke:#f8766d;" x="538.924309" xlink:href="#m21a676ce11" y="113.442679"/>
     <use style="fill:#f8766d;stroke:#f8766d;" x="522.120642" xlink:href="#m21a676ce11" y="98.53063"/>
     <use style="fill:#f8766d;stroke:#f8766d;" x="502.622302" xlink:href="#m21a676ce11" y="103.705378"/>
     <use style="fill:#f8766d;stroke:#f8766d;" x="561.240284" xlink:href="#m21a676ce11" y="86.67794"/>
     <use style="fill:#f8766d;stroke:#f8766d;" x="595.005681" xlink:href="#m21a676ce11" y="95.695636"/>
     <use style="fill:#f8766d;stroke:#f8766d;" x="497.469714" xlink:href="#m21a676ce11" y="137.825907"/>
     <use style="fill:#f8766d;stroke:#f8766d;" x="418.984225" xlink:href="#m21a676ce11" y="82.485095"/>
     <use style="fill:#f8766d;stroke:#f8766d;" x="574.579109" xlink:href="#m21a676ce11" y="133.439222"/>
     <use style="fill:#f8766d;stroke:#f8766d;" x="412.053553" xlink:href="#m21a676ce11" y="114.267364"/>
     <use style="fill:#f8766d;stroke:#f8766d;" x="456.15103" xlink:href="#m21a676ce11" y="88.567927"/>
     <use style="fill:#f8766d;stroke:#f8766d;" x="481.344343" xlink:href="#m21a676ce11" y="85.178128"/>
     <use style="fill:#f8766d;stroke:#f8766d;" x="481.913541" xlink:href="#m21a676ce11" y="79.779118"/>
     <use style="fill:#f8766d;stroke:#f8766d;" x="361.694272" xlink:href="#m21a676ce11" y="339.025074"/>
     <use style="fill:#f8766d;stroke:#f8766d;" x="486.900262" xlink:href="#m21a676ce11" y="124.575995"/>
     <use style="fill:#f8766d;stroke:#f8766d;" x="528.502929" xlink:href="#m21a676ce11" y="284.517868"/>
     <use style="fill:#f8766d;stroke:#f8766d;" x="292.293895" xlink:href="#m21a676ce11" y="320.174681"/>
     <use style="fill:#f8766d;stroke:#f8766d;" x="450.584697" xlink:href="#m21a676ce11" y="296.01026"/>
     <use style="fill:#f8766d;stroke:#f8766d;" x="504.647632" xlink:href="#m21a676ce11" y="281.475279"/>
     <use style="fill:#f8766d;stroke:#f8766d;" x="383.839851" xlink:href="#m21a676ce11" y="304.327691"/>
     <use style="fill:#f8766d;stroke:#f8766d;" x="274.585616" xlink:href="#m21a676ce11" y="314.232937"/>
     <use style="fill:#f8766d;stroke:#f8766d;" x="338.720927" xlink:href="#m21a676ce11" y="271.198428"/>
     <use style="fill:#f8766d;stroke:#f8766d;" x="280.196763" xlink:href="#m21a676ce11" y="304.202384"/>
     <use style="fill:#f8766d;stroke:#f8766d;" x="336.673281" xlink:href="#m21a676ce11" y="313.400498"/>
     <use style="fill:#f8766d;stroke:#f8766d;" x="358.292835" xlink:href="#m21a676ce11" y="284.779121"/>
     <use style="fill:#f8766d;stroke:#f8766d;" x="440.49899" xlink:href="#m21a676ce11" y="277.211092"/>
     <use style="fill:#f8766d;stroke:#f8766d;" x="372.760539" xlink:href="#m21a676ce11" y="285.073505"/>
     <use style="fill:#f8766d;stroke:#f8766d;" x="344.067063" xlink:href="#m21a676ce11" y="310.073202"/>
     <use style="fill:#f8766d;stroke:#f8766d;" x="458.78077" xlink:href="#m21a676ce11" y="330.608299"/>
     <use style="fill:#f8766d;stroke:#f8766d;" x="444.567957" xlink:href="#m21a676ce11" y="322.577184"/>
     <use style="fill:#f8766d;stroke:#f8766d;" x="503.419568" xlink:href="#m21a676ce11" y="291.985292"/>
     <use style="fill:#f8766d;stroke:#f8766d;" x="328.404177" xlink:href="#m21a676ce11" y="290.39005"/>
     <use style="fill:#f8766d;stroke:#f8766d;" x="288.68409" xlink:href="#m21a676ce11" y="286.228862"/>
     <use style="fill:#f8766d;stroke:#f8766d;" x="409.607949" xlink:href="#m21a676ce11" y="307.521687"/>
     <use style="fill:#f8766d;stroke:#f8766d;" x="396.467912" xlink:href="#m21a676ce11" y="279.950936"/>
     <use style="fill:#f8766d;stroke:#f8766d;" x="282.766766" xlink:href="#m21a676ce11" y="296.742449"/>
     <use style="fill:#f8766d;stroke:#f8766d;" x="333.113423" xlink:href="#m21a676ce11" y="340.835814"/>
     <use style="fill:#f8766d;stroke:#f8766d;" x="395.321058" xlink:href="#m21a676ce11" y="314.230557"/>
     <use style="fill:#f8766d;stroke:#f8766d;" x="493.19552" xlink:href="#m21a676ce11" y="282.063787"/>
     <use style="fill:#f8766d;stroke:#f8766d;" x="296.062584" xlink:href="#m21a676ce11" y="333.350884"/>
     <use style="fill:#f8766d;stroke:#f8766d;" x="438.231749" xlink:href="#m21a676ce11" y="290.514252"/>
     <use style="fill:#f8766d;stroke:#f8766d;" x="568.488005" xlink:href="#m21a676ce11" y="239.28734"/>
     <use style="fill:#f8766d;stroke:#f8766d;" x="522.218734" xlink:href="#m21a676ce11" y="301.104132"/>
     <use style="fill:#f8766d;stroke:#f8766d;" x="346.686741" xlink:href="#m21a676ce11" y="353.64175"/>
     <use style="fill:#f8766d;stroke:#f8766d;" x="300.095861" xlink:href="#m21a676ce11" y="339.324995"/>
     <use style="fill:#f8766d;stroke:#f8766d;" x="314.01416" xlink:href="#m21a676ce11" y="270.476313"/>
     <use style="fill:#f8766d;stroke:#f8766d;" x="570.34026" xlink:href="#m21a676ce11" y="236.184177"/>
     <use style="fill:#f8766d;stroke:#f8766d;" x="344.276871" xlink:href="#m21a676ce11" y="334.1217"/>
     <use style="fill:#f8766d;stroke:#f8766d;" x="382.30741" xlink:href="#m21a676ce11" y="331.282682"/>
     <use style="fill:#f8766d;stroke:#f8766d;" x="389.619746" xlink:href="#m21a676ce11" y="332.044591"/>
     <use style="fill:#f8766d;stroke:#f8766d;" x="411.145599" xlink:href="#m21a676ce11" y="323.15373"/>
     <use style="fill:#f8766d;stroke:#f8766d;" x="382.312745" xlink:href="#m21a676ce11" y="294.409576"/>
     <use style="fill:#f8766d;stroke:#f8766d;" x="352.648088" xlink:href="#m21a676ce11" y="301.70227"/>
     <use style="fill:#f8766d;stroke:#f8766d;" x="391.496624" xlink:href="#m21a676ce11" y="341.02044"/>
     <use style="fill:#f8766d;stroke:#f8766d;" x="316.919355" xlink:href="#m21a676ce11" y="306.648267"/>
     <use style="fill:#f8766d;stroke:#f8766d;" x="455.724884" xlink:href="#m21a676ce11" y="262.244396"/>
     <use style="fill:#f8766d;stroke:#f8766d;" x="360.372068" xlink:href="#m21a676ce11" y="352.072103"/>
     <use style="fill:#f8766d;stroke:#f8766d;" x="364.111989" xlink:href="#m21a676ce11" y="322.433995"/>
     <use style="fill:#f8766d;stroke:#f8766d;" x="251.015937" xlink:href="#m21a676ce11" y="298.54907"/>
     <use style="fill:#f8766d;stroke:#f8766d;" x="307.534008" xlink:href="#m21a676ce11" y="325.966328"/>
     <use style="fill:#f8766d;stroke:#f8766d;" x="376.805208" xlink:href="#m21a676ce11" y="315.529219"/>
     <use style="fill:#f8766d;stroke:#f8766d;" x="469.217548" xlink:href="#m21a676ce11" y="283.507718"/>
     <use style="fill:#f8766d;stroke:#f8766d;" x="379.402354" xlink:href="#m21a676ce11" y="291.237854"/>
     <use style="fill:#f8766d;stroke:#f8766d;" x="483.175132" xlink:href="#m21a676ce11" y="323.238582"/>
     <use style="fill:#f8766d;stroke:#f8766d;" x="407.631057" xlink:href="#m21a676ce11" y="247.271562"/>
     <use style="fill:#f8766d;stroke:#f8766d;" x="451.736445" xlink:href="#m21a676ce11" y="274.01728"/>
     <use style="fill:#f8766d;stroke:#f8766d;" x="491.662527" xlink:href="#m21a676ce11" y="313.793973"/>
     <use style="fill:#f8766d;stroke:#f8766d;" x="331.308839" xlink:href="#m21a676ce11" y="272.767325"/>
     <use style="fill:#f8766d;stroke:#f8766d;" x="426.332511" xlink:href="#m21a676ce11" y="293.401145"/>
     <use style="fill:#f8766d;stroke:#f8766d;" x="310.8072" xlink:href="#m21a676ce11" y="302.026756"/>
     <use style="fill:#f8766d;stroke:#f8766d;" x="440.447358" xlink:href="#m21a676ce11" y="316.657945"/>
     <use style="fill:#f8766d;stroke:#f8766d;" x="293.077054" xlink:href="#m21a676ce11" y="284.542617"/>
     <use style="fill:#f8766d;stroke:#f8766d;" x="346.454063" xlink:href="#m21a676ce11" y="311.972703"/>
     <use style="fill:#f8766d;stroke:#f8766d;" x="433.493779" xlink:href="#m21a676ce11" y="330.698061"/>
     <use style="fill:#f8766d;stroke:#f8766d;" x="219.26935" xlink:href="#m21a676ce11" y="184.982621"/>
     <use style="fill:#f8766d;stroke:#f8766d;" x="211.924316" xlink:href="#m21a676ce11" y="193.452983"/>
     <use style="fill:#f8766d;stroke:#f8766d;" x="241.312783" xlink:href="#m21a676ce11" y="244.215279"/>
     <use style="fill:#f8766d;stroke:#f8766d;" x="211.691454" xlink:href="#m21a676ce11" y="227.282065"/>
     <use style="fill:#f8766d;stroke:#f8766d;" x="219.569099" xlink:href="#m21a676ce11" y="196.116857"/>
     <use style="fill:#f8766d;stroke:#f8766d;" x="234.593751" xlink:href="#m21a676ce11" y="240.250795"/>
     <use style="fill:#f8766d;stroke:#f8766d;" x="500.061669" xlink:href="#m21a676ce11" y="233.326833"/>
     <use style="fill:#f8766d;stroke:#f8766d;" x="207.767928" xlink:href="#m21a676ce11" y="184.535139"/>
     <use style="fill:#f8766d;stroke:#f8766d;" x="168.755556" xlink:href="#m21a676ce11" y="212.206952"/>
     <use style="fill:#f8766d;stroke:#f8766d;" x="219.828398" xlink:href="#m21a676ce11" y="237.051933"/>
     <use style="fill:#f8766d;stroke:#f8766d;" x="318.019148" xlink:href="#m21a676ce11" y="196.136779"/>
     <use style="fill:#f8766d;stroke:#f8766d;" x="450.376578" xlink:href="#m21a676ce11" y="242.950412"/>
     <use style="fill:#f8766d;stroke:#f8766d;" x="259.372903" xlink:href="#m21a676ce11" y="208.757255"/>
     <use style="fill:#f8766d;stroke:#f8766d;" x="209.700698" xlink:href="#m21a676ce11" y="218.235285"/>
     <use style="fill:#f8766d;stroke:#f8766d;" x="250.250321" xlink:href="#m21a676ce11" y="212.50877"/>
     <use style="fill:#f8766d;stroke:#f8766d;" x="285.777525" xlink:href="#m21a676ce11" y="206.796737"/>
     <use style="fill:#f8766d;stroke:#f8766d;" x="402.980004" xlink:href="#m21a676ce11" y="240.31828"/>
     <use style="fill:#f8766d;stroke:#f8766d;" x="410.670614" xlink:href="#m21a676ce11" y="347.753896"/>
     <use style="fill:#f8766d;stroke:#f8766d;" x="466.62721" xlink:href="#m21a676ce11" y="257.738252"/>
     <use style="fill:#f8766d;stroke:#f8766d;" x="244.7906" xlink:href="#m21a676ce11" y="184.845736"/>
     <use style="fill:#f8766d;stroke:#f8766d;" x="177.027983" xlink:href="#m21a676ce11" y="236.088444"/>
     <use style="fill:#f8766d;stroke:#f8766d;" x="240.36462" xlink:href="#m21a676ce11" y="214.190702"/>
     <use style="fill:#f8766d;stroke:#f8766d;" x="234.22227" xlink:href="#m21a676ce11" y="190.007012"/>
     <use style="fill:#f8766d;stroke:#f8766d;" x="175.705523" xlink:href="#m21a676ce11" y="237.464027"/>
     <use style="fill:#f8766d;stroke:#f8766d;" x="115.458141" xlink:href="#m21a676ce11" y="212.837527"/>
     <use style="fill:#f8766d;stroke:#f8766d;" x="461.145185" xlink:href="#m21a676ce11" y="158.546989"/>
     <use style="fill:#f8766d;stroke:#f8766d;" x="222.461968" xlink:href="#m21a676ce11" y="204.677089"/>
     <use style="fill:#f8766d;stroke:#f8766d;" x="335.977472" xlink:href="#m21a676ce11" y="216.858128"/>
     <use style="fill:#f8766d;stroke:#f8766d;" x="356.484764" xlink:href="#m21a676ce11" y="156.378396"/>
     <use style="fill:#f8766d;stroke:#f8766d;" x="247.664493" xlink:href="#m21a676ce11" y="228.166289"/>
     <use style="fill:#f8766d;stroke:#f8766d;" x="514.726005" xlink:href="#m21a676ce11" y="66.73123"/>
     <use style="fill:#f8766d;stroke:#f8766d;" x="221.440331" xlink:href="#m21a676ce11" y="145.795568"/>
     <use style="fill:#f8766d;stroke:#f8766d;" x="350.613653" xlink:href="#m21a676ce11" y="105.573412"/>
     <use style="fill:#f8766d;stroke:#f8766d;" x="497.557404" xlink:href="#m21a676ce11" y="96.369379"/>
     <use style="fill:#f8766d;stroke:#f8766d;" x="337.431605" xlink:href="#m21a676ce11" y="211.907923"/>
     <use style="fill:#f8766d;stroke:#f8766d;" x="505.374274" xlink:href="#m21a676ce11" y="304.473021"/>
     <use style="fill:#f8766d;stroke:#f8766d;" x="341.697975" xlink:href="#m21a676ce11" y="165.430245"/>
    </g>
   </g>
   <g id="PathCollection_2">
    <defs>
     <path d="M 0 3 
C 0.795609 3 1.55874 2.683901 2.12132 2.12132 
C 2.683901 1.55874 3 0.795609 3 0 
C 3 -0.795609 2.683901 -1.55874 2.12132 -2.12132 
C 1.55874 -2.683901 0.795609 -3 0 -3 
C -0.795609 -3 -1.55874 -2.683901 -2.12132 -2.12132 
C -2.683901 -1.55874 -3 -0.795609 -3 0 
C -3 0.795609 -2.683901 1.55874 -2.12132 2.12132 
C -1.55874 2.683901 -0.795609 3 0 3 
z
" id="m657bd1064a" style="stroke:#00bfc4;"/>
    </defs>
    <g clip-path="url(#pe27c957908)">
     <use style="fill:#00bfc4;stroke:#00bfc4;" x="508.480794" xlink:href="#m657bd1064a" y="182.539108"/>
     <use style="fill:#00bfc4;stroke:#00bfc4;" x="149.208333" xlink:href="#m657bd1064a" y="219.881199"/>
     <use style="fill:#00bfc4;stroke:#00bfc4;" x="437.31371" xlink:href="#m657bd1064a" y="147.026421"/>
     <use style="fill:#00bfc4;stroke:#00bfc4;" x="383.892985" xlink:href="#m657bd1064a" y="160.723466"/>
     <use style="fill:#00bfc4;stroke:#00bfc4;" x="351.999739" xlink:href="#m657bd1064a" y="261.064006"/>
     <use style="fill:#00bfc4;stroke:#00bfc4;" x="418.499117" xlink:href="#m657bd1064a" y="197.138265"/>
     <use style="fill:#00bfc4;stroke:#00bfc4;" x="407.458554" xlink:href="#m657bd1064a" y="74.15084"/>
     <use style="fill:#00bfc4;stroke:#00bfc4;" x="484.097756" xlink:href="#m657bd1064a" y="105.24499"/>
     <use style="fill:#00bfc4;stroke:#00bfc4;" x="358.803536" xlink:href="#m657bd1064a" y="102.645982"/>
     <use style="fill:#00bfc4;stroke:#00bfc4;" x="535.733769" xlink:href="#m657bd1064a" y="137.038983"/>
     <use style="fill:#00bfc4;stroke:#00bfc4;" x="552.967589" xlink:href="#m657bd1064a" y="156.329621"/>
     <use style="fill:#00bfc4;stroke:#00bfc4;" x="503.712067" xlink:href="#m657bd1064a" y="80.114748"/>
     <use style="fill:#00bfc4;stroke:#00bfc4;" x="326.256892" xlink:href="#m657bd1064a" y="230.562753"/>
     <use style="fill:#00bfc4;stroke:#00bfc4;" x="481.324" xlink:href="#m657bd1064a" y="119.545391"/>
     <use style="fill:#00bfc4;stroke:#00bfc4;" x="464.325013" xlink:href="#m657bd1064a" y="134.968162"/>
     <use style="fill:#00bfc4;stroke:#00bfc4;" x="590.123296" xlink:href="#m657bd1064a" y="285.477053"/>
     <use style="fill:#00bfc4;stroke:#00bfc4;" x="590.976377" xlink:href="#m657bd1064a" y="285.033943"/>
     <use style="fill:#00bfc4;stroke:#00bfc4;" x="461.131414" xlink:href="#m657bd1064a" y="96.012341"/>
     <use style="fill:#00bfc4;stroke:#00bfc4;" x="488.793043" xlink:href="#m657bd1064a" y="98.702899"/>
     <use style="fill:#00bfc4;stroke:#00bfc4;" x="462.438032" xlink:href="#m657bd1064a" y="69.734114"/>
     <use style="fill:#00bfc4;stroke:#00bfc4;" x="298.214236" xlink:href="#m657bd1064a" y="216.924284"/>
     <use style="fill:#00bfc4;stroke:#00bfc4;" x="553.011325" xlink:href="#m657bd1064a" y="308.710366"/>
     <use style="fill:#00bfc4;stroke:#00bfc4;" x="462.708797" xlink:href="#m657bd1064a" y="139.123423"/>
     <use style="fill:#00bfc4;stroke:#00bfc4;" x="535.847443" xlink:href="#m657bd1064a" y="128.587774"/>
     <use style="fill:#00bfc4;stroke:#00bfc4;" x="514.528883" xlink:href="#m657bd1064a" y="111.851754"/>
     <use style="fill:#00bfc4;stroke:#00bfc4;" x="436.534729" xlink:href="#m657bd1064a" y="96.766762"/>
     <use style="fill:#00bfc4;stroke:#00bfc4;" x="461.434843" xlink:href="#m657bd1064a" y="106.987042"/>
     <use style="fill:#00bfc4;stroke:#00bfc4;" x="475.127446" xlink:href="#m657bd1064a" y="112.849308"/>
     <use style="fill:#00bfc4;stroke:#00bfc4;" x="490.65637" xlink:href="#m657bd1064a" y="251.347144"/>
     <use style="fill:#00bfc4;stroke:#00bfc4;" x="206.718362" xlink:href="#m657bd1064a" y="126.899401"/>
     <use style="fill:#00bfc4;stroke:#00bfc4;" x="409.994731" xlink:href="#m657bd1064a" y="213.798272"/>
     <use style="fill:#00bfc4;stroke:#00bfc4;" x="518.089855" xlink:href="#m657bd1064a" y="262.288568"/>
     <use style="fill:#00bfc4;stroke:#00bfc4;" x="360.090135" xlink:href="#m657bd1064a" y="136.800678"/>
     <use style="fill:#00bfc4;stroke:#00bfc4;" x="153.687051" xlink:href="#m657bd1064a" y="209.494331"/>
     <use style="fill:#00bfc4;stroke:#00bfc4;" x="423.08241" xlink:href="#m657bd1064a" y="175.710305"/>
     <use style="fill:#00bfc4;stroke:#00bfc4;" x="442.13606" xlink:href="#m657bd1064a" y="177.4175"/>
     <use style="fill:#00bfc4;stroke:#00bfc4;" x="467.925028" xlink:href="#m657bd1064a" y="187.070383"/>
     <use style="fill:#00bfc4;stroke:#00bfc4;" x="267.522437" xlink:href="#m657bd1064a" y="146.514928"/>
     <use style="fill:#00bfc4;stroke:#00bfc4;" x="271.372245" xlink:href="#m657bd1064a" y="278.616518"/>
     <use style="fill:#00bfc4;stroke:#00bfc4;" x="520.0701" xlink:href="#m657bd1064a" y="272.823595"/>
     <use style="fill:#00bfc4;stroke:#00bfc4;" x="299.679991" xlink:href="#m657bd1064a" y="152.712593"/>
     <use style="fill:#00bfc4;stroke:#00bfc4;" x="508.998076" xlink:href="#m657bd1064a" y="182.664534"/>
     <use style="fill:#00bfc4;stroke:#00bfc4;" x="402.788499" xlink:href="#m657bd1064a" y="181.16782"/>
     <use style="fill:#00bfc4;stroke:#00bfc4;" x="358.03907" xlink:href="#m657bd1064a" y="214.597933"/>
     <use style="fill:#00bfc4;stroke:#00bfc4;" x="467.079457" xlink:href="#m657bd1064a" y="207.161925"/>
     <use style="fill:#00bfc4;stroke:#00bfc4;" x="378.92208" xlink:href="#m657bd1064a" y="187.812942"/>
     <use style="fill:#00bfc4;stroke:#00bfc4;" x="473.515119" xlink:href="#m657bd1064a" y="239.328317"/>
     <use style="fill:#00bfc4;stroke:#00bfc4;" x="458.266657" xlink:href="#m657bd1064a" y="189.229817"/>
     <use style="fill:#00bfc4;stroke:#00bfc4;" x="462.38687" xlink:href="#m657bd1064a" y="227.303856"/>
     <use style="fill:#00bfc4;stroke:#00bfc4;" x="447.621496" xlink:href="#m657bd1064a" y="212.839707"/>
     <use style="fill:#00bfc4;stroke:#00bfc4;" x="278.842586" xlink:href="#m657bd1064a" y="148.934733"/>
     <use style="fill:#00bfc4;stroke:#00bfc4;" x="519.921977" xlink:href="#m657bd1064a" y="263.902741"/>
     <use style="fill:#00bfc4;stroke:#00bfc4;" x="305.984712" xlink:href="#m657bd1064a" y="132.687979"/>
     <use style="fill:#00bfc4;stroke:#00bfc4;" x="341.847833" xlink:href="#m657bd1064a" y="105.58847"/>
     <use style="fill:#00bfc4;stroke:#00bfc4;" x="134.836991" xlink:href="#m657bd1064a" y="197.034846"/>
     <use style="fill:#00bfc4;stroke:#00bfc4;" x="377.582818" xlink:href="#m657bd1064a" y="110.741783"/>
     <use style="fill:#00bfc4;stroke:#00bfc4;" x="481.798392" xlink:href="#m657bd1064a" y="203.054323"/>
     <use style="fill:#00bfc4;stroke:#00bfc4;" x="156.604814" xlink:href="#m657bd1064a" y="177.756353"/>
     <use style="fill:#00bfc4;stroke:#00bfc4;" x="342.183858" xlink:href="#m657bd1064a" y="156.979402"/>
     <use style="fill:#00bfc4;stroke:#00bfc4;" x="521.369107" xlink:href="#m657bd1064a" y="201.565421"/>
     <use style="fill:#00bfc4;stroke:#00bfc4;" x="396.527151" xlink:href="#m657bd1064a" y="137.982046"/>
     <use style="fill:#00bfc4;stroke:#00bfc4;" x="368.989716" xlink:href="#m657bd1064a" y="169.716328"/>
     <use style="fill:#00bfc4;stroke:#00bfc4;" x="442.917589" xlink:href="#m657bd1064a" y="206.327837"/>
     <use style="fill:#00bfc4;stroke:#00bfc4;" x="451.021865" xlink:href="#m657bd1064a" y="202.083931"/>
     <use style="fill:#00bfc4;stroke:#00bfc4;" x="420.750014" xlink:href="#m657bd1064a" y="207.189987"/>
     <use style="fill:#00bfc4;stroke:#00bfc4;" x="283.377806" xlink:href="#m657bd1064a" y="231.479059"/>
     <use style="fill:#00bfc4;stroke:#00bfc4;" x="242.960288" xlink:href="#m657bd1064a" y="119.337523"/>
     <use style="fill:#00bfc4;stroke:#00bfc4;" x="237.488984" xlink:href="#m657bd1064a" y="124.668022"/>
     <use style="fill:#00bfc4;stroke:#00bfc4;" x="446.999162" xlink:href="#m657bd1064a" y="196.283777"/>
     <use style="fill:#00bfc4;stroke:#00bfc4;" x="152.257539" xlink:href="#m657bd1064a" y="189.34686"/>
     <use style="fill:#00bfc4;stroke:#00bfc4;" x="273.796665" xlink:href="#m657bd1064a" y="150.042658"/>
     <use style="fill:#00bfc4;stroke:#00bfc4;" x="311.145304" xlink:href="#m657bd1064a" y="131.922879"/>
     <use style="fill:#00bfc4;stroke:#00bfc4;" x="185.577646" xlink:href="#m657bd1064a" y="198.420783"/>
     <use style="fill:#00bfc4;stroke:#00bfc4;" x="285.899119" xlink:href="#m657bd1064a" y="194.565328"/>
     <use style="fill:#00bfc4;stroke:#00bfc4;" x="499.800912" xlink:href="#m657bd1064a" y="233.311528"/>
     <use style="fill:#00bfc4;stroke:#00bfc4;" x="265.821162" xlink:href="#m657bd1064a" y="224.091498"/>
     <use style="fill:#00bfc4;stroke:#00bfc4;" x="338.439551" xlink:href="#m657bd1064a" y="360.27033"/>
     <use style="fill:#00bfc4;stroke:#00bfc4;" x="272.791925" xlink:href="#m657bd1064a" y="189.413357"/>
     <use style="fill:#00bfc4;stroke:#00bfc4;" x="192.099388" xlink:href="#m657bd1064a" y="221.972506"/>
     <use style="fill:#00bfc4;stroke:#00bfc4;" x="379.977002" xlink:href="#m657bd1064a" y="240.167433"/>
     <use style="fill:#00bfc4;stroke:#00bfc4;" x="219.872134" xlink:href="#m657bd1064a" y="170.36081"/>
     <use style="fill:#00bfc4;stroke:#00bfc4;" x="280.204273" xlink:href="#m657bd1064a" y="177.563355"/>
     <use style="fill:#00bfc4;stroke:#00bfc4;" x="288.104323" xlink:href="#m657bd1064a" y="256.607749"/>
     <use style="fill:#00bfc4;stroke:#00bfc4;" x="204.619967" xlink:href="#m657bd1064a" y="211.170703"/>
     <use style="fill:#00bfc4;stroke:#00bfc4;" x="246.849583" xlink:href="#m657bd1064a" y="163.768166"/>
     <use style="fill:#00bfc4;stroke:#00bfc4;" x="187.630812" xlink:href="#m657bd1064a" y="197.745375"/>
     <use style="fill:#00bfc4;stroke:#00bfc4;" x="405.049621" xlink:href="#m657bd1064a" y="235.834901"/>
     <use style="fill:#00bfc4;stroke:#00bfc4;" x="254.844573" xlink:href="#m657bd1064a" y="197.885526"/>
     <use style="fill:#00bfc4;stroke:#00bfc4;" x="173.246512" xlink:href="#m657bd1064a" y="221.322038"/>
     <use style="fill:#00bfc4;stroke:#00bfc4;" x="191.557372" xlink:href="#m657bd1064a" y="185.913811"/>
     <use style="fill:#00bfc4;stroke:#00bfc4;" x="272.809736" xlink:href="#m657bd1064a" y="189.429767"/>
     <use style="fill:#00bfc4;stroke:#00bfc4;" x="368.296079" xlink:href="#m657bd1064a" y="167.004987"/>
     <use style="fill:#00bfc4;stroke:#00bfc4;" x="145.290892" xlink:href="#m657bd1064a" y="214.393253"/>
     <use style="fill:#00bfc4;stroke:#00bfc4;" x="248.29585" xlink:href="#m657bd1064a" y="201.23741"/>
     <use style="fill:#00bfc4;stroke:#00bfc4;" x="210.644235" xlink:href="#m657bd1064a" y="208.439888"/>
     <use style="fill:#00bfc4;stroke:#00bfc4;" x="235.062543" xlink:href="#m657bd1064a" y="210.481077"/>
     <use style="fill:#00bfc4;stroke:#00bfc4;" x="368.765818" xlink:href="#m657bd1064a" y="196.156413"/>
     <use style="fill:#00bfc4;stroke:#00bfc4;" x="555.389218" xlink:href="#m657bd1064a" y="266.206363"/>
     <use style="fill:#00bfc4;stroke:#00bfc4;" x="306.640553" xlink:href="#m657bd1064a" y="182.896155"/>
     <use style="fill:#00bfc4;stroke:#00bfc4;" x="555.505859" xlink:href="#m657bd1064a" y="96.232157"/>
     <use style="fill:#00bfc4;stroke:#00bfc4;" x="359.783986" xlink:href="#m657bd1064a" y="196.455898"/>
     <use style="fill:#00bfc4;stroke:#00bfc4;" x="546.966304" xlink:href="#m657bd1064a" y="154.647317"/>
    </g>
   </g>
   <g id="matplotlib.axis_1">
    <g id="xtick_1">
     <g id="line2d_1">
      <defs>
       <path d="M 0 0 
L 0 3.5 
" id="m49f74dc831" style="stroke:#000000;stroke-width:0.8;"/>
      </defs>
      <g>
       <use style="stroke:#000000;stroke-width:0.8;" x="120.565257" xlink:href="#m49f74dc831" y="378"/>
      </g>
     </g>
     <g id="text_1">
      <!-- −15 -->
      <defs>
       <path d="M 10.59375 35.5 
L 73.1875 35.5 
L 73.1875 27.203125 
L 10.59375 27.203125 
z
" id="DejaVuSans-8722"/>
       <path d="M 12.40625 8.296875 
L 28.515625 8.296875 
L 28.515625 63.921875 
L 10.984375 60.40625 
L 10.984375 69.390625 
L 28.421875 72.90625 
L 38.28125 72.90625 
L 38.28125 8.296875 
L 54.390625 8.296875 
L 54.390625 0 
L 12.40625 0 
z
" id="DejaVuSans-49"/>
       <path d="M 10.796875 72.90625 
L 49.515625 72.90625 
L 49.515625 64.59375 
L 19.828125 64.59375 
L 19.828125 46.734375 
Q 21.96875 47.46875 24.109375 47.828125 
Q 26.265625 48.1875 28.421875 48.1875 
Q 40.625 48.1875 47.75 41.5 
Q 54.890625 34.8125 54.890625 23.390625 
Q 54.890625 11.625 47.5625 5.09375 
Q 40.234375 -1.421875 26.90625 -1.421875 
Q 22.3125 -1.421875 17.546875 -0.640625 
Q 12.796875 0.140625 7.71875 1.703125 
L 7.71875 11.625 
Q 12.109375 9.234375 16.796875 8.0625 
Q 21.484375 6.890625 26.703125 6.890625 
Q 35.15625 6.890625 40.078125 11.328125 
Q 45.015625 15.765625 45.015625 23.390625 
Q 45.015625 31 40.078125 35.4375 
Q 35.15625 39.890625 26.703125 39.890625 
Q 22.75 39.890625 18.8125 39.015625 
Q 14.890625 38.140625 10.796875 36.28125 
z
" id="DejaVuSans-53"/>
      </defs>
      <g transform="translate(110.012914 392.598437)scale(0.1 -0.1)">
       <use xlink:href="#DejaVuSans-8722"/>
       <use x="83.789062" xlink:href="#DejaVuSans-49"/>
       <use x="147.412109" xlink:href="#DejaVuSans-53"/>
      </g>
     </g>
    </g>
    <g id="xtick_2">
     <g id="line2d_2">
      <g>
       <use style="stroke:#000000;stroke-width:0.8;" x="208.454546" xlink:href="#m49f74dc831" y="378"/>
      </g>
     </g>
     <g id="text_2">
      <!-- −10 -->
      <defs>
       <path d="M 31.78125 66.40625 
Q 24.171875 66.40625 20.328125 58.90625 
Q 16.5 51.421875 16.5 36.375 
Q 16.5 21.390625 20.328125 13.890625 
Q 24.171875 6.390625 31.78125 6.390625 
Q 39.453125 6.390625 43.28125 13.890625 
Q 47.125 21.390625 47.125 36.375 
Q 47.125 51.421875 43.28125 58.90625 
Q 39.453125 66.40625 31.78125 66.40625 
z
M 31.78125 74.21875 
Q 44.046875 74.21875 50.515625 64.515625 
Q 56.984375 54.828125 56.984375 36.375 
Q 56.984375 17.96875 50.515625 8.265625 
Q 44.046875 -1.421875 31.78125 -1.421875 
Q 19.53125 -1.421875 13.0625 8.265625 
Q 6.59375 17.96875 6.59375 36.375 
Q 6.59375 54.828125 13.0625 64.515625 
Q 19.53125 74.21875 31.78125 74.21875 
z
" id="DejaVuSans-48"/>
      </defs>
      <g transform="translate(197.902202 392.598437)scale(0.1 -0.1)">
       <use xlink:href="#DejaVuSans-8722"/>
       <use x="83.789062" xlink:href="#DejaVuSans-49"/>
       <use x="147.412109" xlink:href="#DejaVuSans-48"/>
      </g>
     </g>
    </g>
    <g id="xtick_3">
     <g id="line2d_3">
      <g>
       <use style="stroke:#000000;stroke-width:0.8;" x="296.343834" xlink:href="#m49f74dc831" y="378"/>
      </g>
     </g>
     <g id="text_3">
      <!-- −5 -->
      <g transform="translate(288.972741 392.598437)scale(0.1 -0.1)">
       <use xlink:href="#DejaVuSans-8722"/>
       <use x="83.789062" xlink:href="#DejaVuSans-53"/>
      </g>
     </g>
    </g>
    <g id="xtick_4">
     <g id="line2d_4">
      <g>
       <use style="stroke:#000000;stroke-width:0.8;" x="384.233123" xlink:href="#m49f74dc831" y="378"/>
      </g>
     </g>
     <g id="text_4">
      <!-- 0 -->
      <g transform="translate(381.051873 392.598437)scale(0.1 -0.1)">
       <use xlink:href="#DejaVuSans-48"/>
      </g>
     </g>
    </g>
    <g id="xtick_5">
     <g id="line2d_5">
      <g>
       <use style="stroke:#000000;stroke-width:0.8;" x="472.122411" xlink:href="#m49f74dc831" y="378"/>
      </g>
     </g>
     <g id="text_5">
      <!-- 5 -->
      <g transform="translate(468.941161 392.598437)scale(0.1 -0.1)">
       <use xlink:href="#DejaVuSans-53"/>
      </g>
     </g>
    </g>
    <g id="xtick_6">
     <g id="line2d_6">
      <g>
       <use style="stroke:#000000;stroke-width:0.8;" x="560.0117" xlink:href="#m49f74dc831" y="378"/>
      </g>
     </g>
     <g id="text_6">
      <!-- 10 -->
      <g transform="translate(553.6492 392.598437)scale(0.1 -0.1)">
       <use xlink:href="#DejaVuSans-49"/>
       <use x="63.623047" xlink:href="#DejaVuSans-48"/>
      </g>
     </g>
    </g>
    <g id="xtick_7">
     <g id="line2d_7">
      <g>
       <use style="stroke:#000000;stroke-width:0.8;" x="647.900988" xlink:href="#m49f74dc831" y="378"/>
      </g>
     </g>
     <g id="text_7">
      <!-- 15 -->
      <g transform="translate(641.538488 392.598437)scale(0.1 -0.1)">
       <use xlink:href="#DejaVuSans-49"/>
       <use x="63.623047" xlink:href="#DejaVuSans-53"/>
      </g>
     </g>
    </g>
    <g id="text_8">
     <!-- tSNE-1 -->
     <defs>
      <path d="M 18.3125 70.21875 
L 18.3125 54.6875 
L 36.8125 54.6875 
L 36.8125 47.703125 
L 18.3125 47.703125 
L 18.3125 18.015625 
Q 18.3125 11.328125 20.140625 9.421875 
Q 21.96875 7.515625 27.59375 7.515625 
L 36.8125 7.515625 
L 36.8125 0 
L 27.59375 0 
Q 17.1875 0 13.234375 3.875 
Q 9.28125 7.765625 9.28125 18.015625 
L 9.28125 47.703125 
L 2.6875 47.703125 
L 2.6875 54.6875 
L 9.28125 54.6875 
L 9.28125 70.21875 
z
" id="DejaVuSans-116"/>
      <path d="M 53.515625 70.515625 
L 53.515625 60.890625 
Q 47.90625 63.578125 42.921875 64.890625 
Q 37.9375 66.21875 33.296875 66.21875 
Q 25.25 66.21875 20.875 63.09375 
Q 16.5 59.96875 16.5 54.203125 
Q 16.5 49.359375 19.40625 46.890625 
Q 22.3125 44.4375 30.421875 42.921875 
L 36.375 41.703125 
Q 47.40625 39.59375 52.65625 34.296875 
Q 57.90625 29 57.90625 20.125 
Q 57.90625 9.515625 50.796875 4.046875 
Q 43.703125 -1.421875 29.984375 -1.421875 
Q 24.8125 -1.421875 18.96875 -0.25 
Q 13.140625 0.921875 6.890625 3.21875 
L 6.890625 13.375 
Q 12.890625 10.015625 18.65625 8.296875 
Q 24.421875 6.59375 29.984375 6.59375 
Q 38.421875 6.59375 43.015625 9.90625 
Q 47.609375 13.234375 47.609375 19.390625 
Q 47.609375 24.75 44.3125 27.78125 
Q 41.015625 30.8125 33.5 32.328125 
L 27.484375 33.5 
Q 16.453125 35.6875 11.515625 40.375 
Q 6.59375 45.0625 6.59375 53.421875 
Q 6.59375 63.09375 13.40625 68.65625 
Q 20.21875 74.21875 32.171875 74.21875 
Q 37.3125 74.21875 42.625 73.28125 
Q 47.953125 72.359375 53.515625 70.515625 
z
" id="DejaVuSans-83"/>
      <path d="M 9.8125 72.90625 
L 23.09375 72.90625 
L 55.421875 11.921875 
L 55.421875 72.90625 
L 64.984375 72.90625 
L 64.984375 0 
L 51.703125 0 
L 19.390625 60.984375 
L 19.390625 0 
L 9.8125 0 
z
" id="DejaVuSans-78"/>
      <path d="M 9.8125 72.90625 
L 55.90625 72.90625 
L 55.90625 64.59375 
L 19.671875 64.59375 
L 19.671875 43.015625 
L 54.390625 43.015625 
L 54.390625 34.71875 
L 19.671875 34.71875 
L 19.671875 8.296875 
L 56.78125 8.296875 
L 56.78125 0 
L 9.8125 0 
z
" id="DejaVuSans-69"/>
      <path d="M 4.890625 31.390625 
L 31.203125 31.390625 
L 31.203125 23.390625 
L 4.890625 23.390625 
z
" id="DejaVuSans-45"/>
     </defs>
     <g transform="translate(351.980469 406.276563)scale(0.1 -0.1)">
      <use xlink:href="#DejaVuSans-116"/>
      <use x="39.208984" xlink:href="#DejaVuSans-83"/>
      <use x="102.685547" xlink:href="#DejaVuSans-78"/>
      <use x="177.490234" xlink:href="#DejaVuSans-69"/>
      <use x="240.673828" xlink:href="#DejaVuSans-45"/>
      <use x="276.757812" xlink:href="#DejaVuSans-49"/>
     </g>
    </g>
   </g>
   <g id="matplotlib.axis_2">
    <g id="ytick_1">
     <g id="line2d_8">
      <defs>
       <path d="M 0 0 
L -3.5 0 
" id="m4d2fad2c9c" style="stroke:#000000;stroke-width:0.8;"/>
      </defs>
      <g>
       <use style="stroke:#000000;stroke-width:0.8;" x="90" xlink:href="#m4d2fad2c9c" y="349.912979"/>
      </g>
     </g>
     <g id="text_9">
      <!-- −20 -->
      <defs>
       <path d="M 19.1875 8.296875 
L 53.609375 8.296875 
L 53.609375 0 
L 7.328125 0 
L 7.328125 8.296875 
Q 12.9375 14.109375 22.625 23.890625 
Q 32.328125 33.6875 34.8125 36.53125 
Q 39.546875 41.84375 41.421875 45.53125 
Q 43.3125 49.21875 43.3125 52.78125 
Q 43.3125 58.59375 39.234375 62.25 
Q 35.15625 65.921875 28.609375 65.921875 
Q 23.96875 65.921875 18.8125 64.3125 
Q 13.671875 62.703125 7.8125 59.421875 
L 7.8125 69.390625 
Q 13.765625 71.78125 18.9375 73 
Q 24.125 74.21875 28.421875 74.21875 
Q 39.75 74.21875 46.484375 68.546875 
Q 53.21875 62.890625 53.21875 53.421875 
Q 53.21875 48.921875 51.53125 44.890625 
Q 49.859375 40.875 45.40625 35.40625 
Q 44.1875 33.984375 37.640625 27.21875 
Q 31.109375 20.453125 19.1875 8.296875 
z
" id="DejaVuSans-50"/>
      </defs>
      <g transform="translate(61.895313 353.712198)scale(0.1 -0.1)">
       <use xlink:href="#DejaVuSans-8722"/>
       <use x="83.789062" xlink:href="#DejaVuSans-50"/>
       <use x="147.412109" xlink:href="#DejaVuSans-48"/>
      </g>
     </g>
    </g>
    <g id="ytick_2">
     <g id="line2d_9">
      <g>
       <use style="stroke:#000000;stroke-width:0.8;" x="90" xlink:href="#m4d2fad2c9c" y="278.40211"/>
      </g>
     </g>
     <g id="text_10">
      <!-- −10 -->
      <g transform="translate(61.895313 282.201328)scale(0.1 -0.1)">
       <use xlink:href="#DejaVuSans-8722"/>
       <use x="83.789062" xlink:href="#DejaVuSans-49"/>
       <use x="147.412109" xlink:href="#DejaVuSans-48"/>
      </g>
     </g>
    </g>
    <g id="ytick_3">
     <g id="line2d_10">
      <g>
       <use style="stroke:#000000;stroke-width:0.8;" x="90" xlink:href="#m4d2fad2c9c" y="206.89124"/>
      </g>
     </g>
     <g id="text_11">
      <!-- 0 -->
      <g transform="translate(76.6375 210.690459)scale(0.1 -0.1)">
       <use xlink:href="#DejaVuSans-48"/>
      </g>
     </g>
    </g>
    <g id="ytick_4">
     <g id="line2d_11">
      <g>
       <use style="stroke:#000000;stroke-width:0.8;" x="90" xlink:href="#m4d2fad2c9c" y="135.380371"/>
      </g>
     </g>
     <g id="text_12">
      <!-- 10 -->
      <g transform="translate(70.275 139.17959)scale(0.1 -0.1)">
       <use xlink:href="#DejaVuSans-49"/>
       <use x="63.623047" xlink:href="#DejaVuSans-48"/>
      </g>
     </g>
    </g>
    <g id="ytick_5">
     <g id="line2d_12">
      <g>
       <use style="stroke:#000000;stroke-width:0.8;" x="90" xlink:href="#m4d2fad2c9c" y="63.869502"/>
      </g>
     </g>
     <g id="text_13">
      <!-- 20 -->
      <g transform="translate(70.275 67.668721)scale(0.1 -0.1)">
       <use xlink:href="#DejaVuSans-50"/>
       <use x="63.623047" xlink:href="#DejaVuSans-48"/>
      </g>
     </g>
    </g>
    <g id="text_14">
     <!-- tSNE-2 -->
     <g transform="translate(55.815625 231.939531)rotate(-90)scale(0.1 -0.1)">
      <use xlink:href="#DejaVuSans-116"/>
      <use x="39.208984" xlink:href="#DejaVuSans-83"/>
      <use x="102.685547" xlink:href="#DejaVuSans-78"/>
      <use x="177.490234" xlink:href="#DejaVuSans-69"/>
      <use x="240.673828" xlink:href="#DejaVuSans-45"/>
      <use x="276.757812" xlink:href="#DejaVuSans-50"/>
     </g>
    </g>
   </g>
   <g id="patch_3">
    <path d="M 90 378 
L 90 51.84 
" style="fill:none;stroke:#000000;stroke-linecap:square;stroke-linejoin:miter;stroke-width:0.8;"/>
   </g>
   <g id="patch_4">
    <path d="M 648 378 
L 648 51.84 
" style="fill:none;stroke:#000000;stroke-linecap:square;stroke-linejoin:miter;stroke-width:0.8;"/>
   </g>
   <g id="patch_5">
    <path d="M 90 378 
L 648 378 
" style="fill:none;stroke:#000000;stroke-linecap:square;stroke-linejoin:miter;stroke-width:0.8;"/>
   </g>
   <g id="patch_6">
    <path d="M 90 51.84 
L 648 51.84 
" style="fill:none;stroke:#000000;stroke-linecap:square;stroke-linejoin:miter;stroke-width:0.8;"/>
   </g>
   <g id="legend_1">
    <g id="patch_7">
     <path d="M 97 89.19625 
L 174.875 89.19625 
Q 176.875 89.19625 176.875 87.19625 
L 176.875 58.84 
Q 176.875 56.84 174.875 56.84 
L 97 56.84 
Q 95 56.84 95 58.84 
L 95 87.19625 
Q 95 89.19625 97 89.19625 
z
" style="fill:#ffffff;opacity:0.8;stroke:#cccccc;stroke-linejoin:miter;"/>
    </g>
    <g id="PathCollection_3">
     <g>
      <use style="fill:#f8766d;stroke:#f8766d;" x="109" xlink:href="#m21a676ce11" y="65.813437"/>
     </g>
    </g>
    <g id="text_15">
     <!-- D001321 -->
     <defs>
      <path d="M 19.671875 64.796875 
L 19.671875 8.109375 
L 31.59375 8.109375 
Q 46.6875 8.109375 53.6875 14.9375 
Q 60.6875 21.78125 60.6875 36.53125 
Q 60.6875 51.171875 53.6875 57.984375 
Q 46.6875 64.796875 31.59375 64.796875 
z
M 9.8125 72.90625 
L 30.078125 72.90625 
Q 51.265625 72.90625 61.171875 64.09375 
Q 71.09375 55.28125 71.09375 36.53125 
Q 71.09375 17.671875 61.125 8.828125 
Q 51.171875 0 30.078125 0 
L 9.8125 0 
z
" id="DejaVuSans-68"/>
      <path d="M 40.578125 39.3125 
Q 47.65625 37.796875 51.625 33 
Q 55.609375 28.21875 55.609375 21.1875 
Q 55.609375 10.40625 48.1875 4.484375 
Q 40.765625 -1.421875 27.09375 -1.421875 
Q 22.515625 -1.421875 17.65625 -0.515625 
Q 12.796875 0.390625 7.625 2.203125 
L 7.625 11.71875 
Q 11.71875 9.328125 16.59375 8.109375 
Q 21.484375 6.890625 26.8125 6.890625 
Q 36.078125 6.890625 40.9375 10.546875 
Q 45.796875 14.203125 45.796875 21.1875 
Q 45.796875 27.640625 41.28125 31.265625 
Q 36.765625 34.90625 28.71875 34.90625 
L 20.21875 34.90625 
L 20.21875 43.015625 
L 29.109375 43.015625 
Q 36.375 43.015625 40.234375 45.921875 
Q 44.09375 48.828125 44.09375 54.296875 
Q 44.09375 59.90625 40.109375 62.90625 
Q 36.140625 65.921875 28.71875 65.921875 
Q 24.65625 65.921875 20.015625 65.03125 
Q 15.375 64.15625 9.8125 62.3125 
L 9.8125 71.09375 
Q 15.4375 72.65625 20.34375 73.4375 
Q 25.25 74.21875 29.59375 74.21875 
Q 40.828125 74.21875 47.359375 69.109375 
Q 53.90625 64.015625 53.90625 55.328125 
Q 53.90625 49.265625 50.4375 45.09375 
Q 46.96875 40.921875 40.578125 39.3125 
z
" id="DejaVuSans-51"/>
     </defs>
     <g transform="translate(127 68.438437)scale(0.1 -0.1)">
      <use xlink:href="#DejaVuSans-68"/>
      <use x="77.001953" xlink:href="#DejaVuSans-48"/>
      <use x="140.625" xlink:href="#DejaVuSans-48"/>
      <use x="204.248047" xlink:href="#DejaVuSans-49"/>
      <use x="267.871094" xlink:href="#DejaVuSans-51"/>
      <use x="331.494141" xlink:href="#DejaVuSans-50"/>
      <use x="395.117188" xlink:href="#DejaVuSans-49"/>
     </g>
    </g>
    <g id="PathCollection_4">
     <g>
      <use style="fill:#00bfc4;stroke:#00bfc4;" x="109" xlink:href="#m657bd1064a" y="80.491562"/>
     </g>
    </g>
    <g id="text_16">
     <!-- D006262 -->
     <defs>
      <path d="M 33.015625 40.375 
Q 26.375 40.375 22.484375 35.828125 
Q 18.609375 31.296875 18.609375 23.390625 
Q 18.609375 15.53125 22.484375 10.953125 
Q 26.375 6.390625 33.015625 6.390625 
Q 39.65625 6.390625 43.53125 10.953125 
Q 47.40625 15.53125 47.40625 23.390625 
Q 47.40625 31.296875 43.53125 35.828125 
Q 39.65625 40.375 33.015625 40.375 
z
M 52.59375 71.296875 
L 52.59375 62.3125 
Q 48.875 64.0625 45.09375 64.984375 
Q 41.3125 65.921875 37.59375 65.921875 
Q 27.828125 65.921875 22.671875 59.328125 
Q 17.53125 52.734375 16.796875 39.40625 
Q 19.671875 43.65625 24.015625 45.921875 
Q 28.375 48.1875 33.59375 48.1875 
Q 44.578125 48.1875 50.953125 41.515625 
Q 57.328125 34.859375 57.328125 23.390625 
Q 57.328125 12.15625 50.6875 5.359375 
Q 44.046875 -1.421875 33.015625 -1.421875 
Q 20.359375 -1.421875 13.671875 8.265625 
Q 6.984375 17.96875 6.984375 36.375 
Q 6.984375 53.65625 15.1875 63.9375 
Q 23.390625 74.21875 37.203125 74.21875 
Q 40.921875 74.21875 44.703125 73.484375 
Q 48.484375 72.75 52.59375 71.296875 
z
" id="DejaVuSans-54"/>
     </defs>
     <g transform="translate(127 83.116562)scale(0.1 -0.1)">
      <use xlink:href="#DejaVuSans-68"/>
      <use x="77.001953" xlink:href="#DejaVuSans-48"/>
      <use x="140.625" xlink:href="#DejaVuSans-48"/>
      <use x="204.248047" xlink:href="#DejaVuSans-54"/>
      <use x="267.871094" xlink:href="#DejaVuSans-50"/>
      <use x="331.494141" xlink:href="#DejaVuSans-54"/>
      <use x="395.117188" xlink:href="#DejaVuSans-50"/>
     </g>
    </g>
   </g>
  </g>
 </g>
 <defs>
  <clipPath id="pe27c957908">
   <rect height="326.16" width="558" x="90" y="51.84"/>
  </clipPath>
 </defs>
</svg>
