<?xml version="1.0" encoding="utf-8" standalone="no"?>
<!DOCTYPE svg PUBLIC "-//W3C//DTD SVG 1.1//EN"
  "http://www.w3.org/Graphics/SVG/1.1/DTD/svg11.dtd">
<!-- Created with matplotlib (https://matplotlib.org/) -->
<svg height="432pt" version="1.1" viewBox="0 0 720 432" width="720pt" xmlns="http://www.w3.org/2000/svg" xmlns:xlink="http://www.w3.org/1999/xlink">
 <defs>
  <style type="text/css">
*{stroke-linecap:butt;stroke-linejoin:round;}
  </style>
 </defs>
 <g id="figure_1">
  <g id="patch_1">
   <path d="M 0 432 
L 720 432 
L 720 0 
L 0 0 
z
" style="fill:#ffffff;"/>
  </g>
  <g id="axes_1">
   <g id="patch_2">
    <path d="M 90 378 
L 648 378 
L 648 51.84 
L 90 51.84 
z
" style="fill:#ffffff;"/>
   </g>
   <g id="PathCollection_1">
    <defs>
     <path d="M 0 3 
C 0.795609 3 1.55874 2.683901 2.12132 2.12132 
C 2.683901 1.55874 3 0.795609 3 0 
C 3 -0.795609 2.683901 -1.55874 2.12132 -2.12132 
C 1.55874 -2.683901 0.795609 -3 0 -3 
C -0.795609 -3 -1.55874 -2.683901 -2.12132 -2.12132 
C -2.683901 -1.55874 -3 -0.795609 -3 0 
C -3 0.795609 -2.683901 1.55874 -2.12132 2.12132 
C -1.55874 2.683901 -0.795609 3 0 3 
z
" id="m0cd8c13f75" style="stroke:#00bfc4;"/>
    </defs>
    <g clip-path="url(#p8680d1140b)">
     <use style="fill:#00bfc4;stroke:#00bfc4;" x="541.746051" xlink:href="#m0cd8c13f75" y="330.258611"/>
     <use style="fill:#00bfc4;stroke:#00bfc4;" x="517.916544" xlink:href="#m0cd8c13f75" y="214.793446"/>
     <use style="fill:#00bfc4;stroke:#00bfc4;" x="524.165733" xlink:href="#m0cd8c13f75" y="260.748571"/>
     <use style="fill:#00bfc4;stroke:#00bfc4;" x="492.482237" xlink:href="#m0cd8c13f75" y="304.649018"/>
     <use style="fill:#00bfc4;stroke:#00bfc4;" x="523.28109" xlink:href="#m0cd8c13f75" y="273.144515"/>
     <use style="fill:#00bfc4;stroke:#00bfc4;" x="505.094655" xlink:href="#m0cd8c13f75" y="235.037052"/>
     <use style="fill:#00bfc4;stroke:#00bfc4;" x="582.057421" xlink:href="#m0cd8c13f75" y="246.61577"/>
     <use style="fill:#00bfc4;stroke:#00bfc4;" x="521.622734" xlink:href="#m0cd8c13f75" y="280.582689"/>
     <use style="fill:#00bfc4;stroke:#00bfc4;" x="543.697818" xlink:href="#m0cd8c13f75" y="238.316003"/>
     <use style="fill:#00bfc4;stroke:#00bfc4;" x="521.191565" xlink:href="#m0cd8c13f75" y="280.852409"/>
     <use style="fill:#00bfc4;stroke:#00bfc4;" x="473.952061" xlink:href="#m0cd8c13f75" y="321.841257"/>
     <use style="fill:#00bfc4;stroke:#00bfc4;" x="487.57382" xlink:href="#m0cd8c13f75" y="272.414011"/>
     <use style="fill:#00bfc4;stroke:#00bfc4;" x="513.32146" xlink:href="#m0cd8c13f75" y="283.286139"/>
     <use style="fill:#00bfc4;stroke:#00bfc4;" x="563.913304" xlink:href="#m0cd8c13f75" y="297.137221"/>
     <use style="fill:#00bfc4;stroke:#00bfc4;" x="467.661238" xlink:href="#m0cd8c13f75" y="263.996451"/>
     <use style="fill:#00bfc4;stroke:#00bfc4;" x="463.870059" xlink:href="#m0cd8c13f75" y="249.992303"/>
     <use style="fill:#00bfc4;stroke:#00bfc4;" x="541.749083" xlink:href="#m0cd8c13f75" y="233.097658"/>
     <use style="fill:#00bfc4;stroke:#00bfc4;" x="517.323739" xlink:href="#m0cd8c13f75" y="329.75227"/>
     <use style="fill:#00bfc4;stroke:#00bfc4;" x="467.475486" xlink:href="#m0cd8c13f75" y="235.99479"/>
     <use style="fill:#00bfc4;stroke:#00bfc4;" x="387.494793" xlink:href="#m0cd8c13f75" y="103.427955"/>
     <use style="fill:#00bfc4;stroke:#00bfc4;" x="299.288937" xlink:href="#m0cd8c13f75" y="228.516158"/>
     <use style="fill:#00bfc4;stroke:#00bfc4;" x="380.583816" xlink:href="#m0cd8c13f75" y="294.710708"/>
     <use style="fill:#00bfc4;stroke:#00bfc4;" x="384.029154" xlink:href="#m0cd8c13f75" y="118.998901"/>
     <use style="fill:#00bfc4;stroke:#00bfc4;" x="443.367544" xlink:href="#m0cd8c13f75" y="275.600939"/>
     <use style="fill:#00bfc4;stroke:#00bfc4;" x="202.022607" xlink:href="#m0cd8c13f75" y="194.792432"/>
     <use style="fill:#00bfc4;stroke:#00bfc4;" x="191.240415" xlink:href="#m0cd8c13f75" y="178.619596"/>
     <use style="fill:#00bfc4;stroke:#00bfc4;" x="384.082244" xlink:href="#m0cd8c13f75" y="99.237948"/>
     <use style="fill:#00bfc4;stroke:#00bfc4;" x="306.260489" xlink:href="#m0cd8c13f75" y="174.325858"/>
     <use style="fill:#00bfc4;stroke:#00bfc4;" x="184.003883" xlink:href="#m0cd8c13f75" y="121.071658"/>
     <use style="fill:#00bfc4;stroke:#00bfc4;" x="140.706242" xlink:href="#m0cd8c13f75" y="257.103747"/>
     <use style="fill:#00bfc4;stroke:#00bfc4;" x="326.344852" xlink:href="#m0cd8c13f75" y="193.646314"/>
     <use style="fill:#00bfc4;stroke:#00bfc4;" x="235.141871" xlink:href="#m0cd8c13f75" y="188.213221"/>
     <use style="fill:#00bfc4;stroke:#00bfc4;" x="409.25268" xlink:href="#m0cd8c13f75" y="132.716456"/>
     <use style="fill:#00bfc4;stroke:#00bfc4;" x="460.179352" xlink:href="#m0cd8c13f75" y="300.136667"/>
     <use style="fill:#00bfc4;stroke:#00bfc4;" x="428.812135" xlink:href="#m0cd8c13f75" y="303.940092"/>
     <use style="fill:#00bfc4;stroke:#00bfc4;" x="305.015984" xlink:href="#m0cd8c13f75" y="226.649183"/>
     <use style="fill:#00bfc4;stroke:#00bfc4;" x="265.714866" xlink:href="#m0cd8c13f75" y="242.24524"/>
     <use style="fill:#00bfc4;stroke:#00bfc4;" x="572.332312" xlink:href="#m0cd8c13f75" y="171.707417"/>
     <use style="fill:#00bfc4;stroke:#00bfc4;" x="555.8826" xlink:href="#m0cd8c13f75" y="275.539024"/>
     <use style="fill:#00bfc4;stroke:#00bfc4;" x="374.708473" xlink:href="#m0cd8c13f75" y="269.647637"/>
     <use style="fill:#00bfc4;stroke:#00bfc4;" x="345.206031" xlink:href="#m0cd8c13f75" y="66.800611"/>
     <use style="fill:#00bfc4;stroke:#00bfc4;" x="321.585403" xlink:href="#m0cd8c13f75" y="127.534198"/>
     <use style="fill:#00bfc4;stroke:#00bfc4;" x="405.836088" xlink:href="#m0cd8c13f75" y="243.056881"/>
     <use style="fill:#00bfc4;stroke:#00bfc4;" x="395.040806" xlink:href="#m0cd8c13f75" y="274.939049"/>
     <use style="fill:#00bfc4;stroke:#00bfc4;" x="310.357388" xlink:href="#m0cd8c13f75" y="327.695011"/>
     <use style="fill:#00bfc4;stroke:#00bfc4;" x="290.093942" xlink:href="#m0cd8c13f75" y="144.673221"/>
     <use style="fill:#00bfc4;stroke:#00bfc4;" x="157.110341" xlink:href="#m0cd8c13f75" y="219.288182"/>
     <use style="fill:#00bfc4;stroke:#00bfc4;" x="379.334591" xlink:href="#m0cd8c13f75" y="239.919603"/>
     <use style="fill:#00bfc4;stroke:#00bfc4;" x="342.301848" xlink:href="#m0cd8c13f75" y="178.367537"/>
     <use style="fill:#00bfc4;stroke:#00bfc4;" x="403.248697" xlink:href="#m0cd8c13f75" y="214.600059"/>
     <use style="fill:#00bfc4;stroke:#00bfc4;" x="559.631587" xlink:href="#m0cd8c13f75" y="335.937743"/>
     <use style="fill:#00bfc4;stroke:#00bfc4;" x="346.035023" xlink:href="#m0cd8c13f75" y="243.671842"/>
     <use style="fill:#00bfc4;stroke:#00bfc4;" x="373.130197" xlink:href="#m0cd8c13f75" y="116.314968"/>
     <use style="fill:#00bfc4;stroke:#00bfc4;" x="430.172937" xlink:href="#m0cd8c13f75" y="346.46885"/>
     <use style="fill:#00bfc4;stroke:#00bfc4;" x="464.858724" xlink:href="#m0cd8c13f75" y="290.999359"/>
     <use style="fill:#00bfc4;stroke:#00bfc4;" x="548.648575" xlink:href="#m0cd8c13f75" y="255.48546"/>
     <use style="fill:#00bfc4;stroke:#00bfc4;" x="446.991184" xlink:href="#m0cd8c13f75" y="273.224097"/>
     <use style="fill:#00bfc4;stroke:#00bfc4;" x="499.374914" xlink:href="#m0cd8c13f75" y="284.405891"/>
     <use style="fill:#00bfc4;stroke:#00bfc4;" x="396.213195" xlink:href="#m0cd8c13f75" y="174.536817"/>
     <use style="fill:#00bfc4;stroke:#00bfc4;" x="474.054272" xlink:href="#m0cd8c13f75" y="225.378052"/>
     <use style="fill:#00bfc4;stroke:#00bfc4;" x="214.180504" xlink:href="#m0cd8c13f75" y="215.499501"/>
     <use style="fill:#00bfc4;stroke:#00bfc4;" x="277.748572" xlink:href="#m0cd8c13f75" y="184.260644"/>
     <use style="fill:#00bfc4;stroke:#00bfc4;" x="352.245784" xlink:href="#m0cd8c13f75" y="84.67639"/>
     <use style="fill:#00bfc4;stroke:#00bfc4;" x="314.282838" xlink:href="#m0cd8c13f75" y="115.911773"/>
     <use style="fill:#00bfc4;stroke:#00bfc4;" x="356.628085" xlink:href="#m0cd8c13f75" y="216.743889"/>
     <use style="fill:#00bfc4;stroke:#00bfc4;" x="224.666151" xlink:href="#m0cd8c13f75" y="152.986237"/>
     <use style="fill:#00bfc4;stroke:#00bfc4;" x="576.148975" xlink:href="#m0cd8c13f75" y="264.635408"/>
     <use style="fill:#00bfc4;stroke:#00bfc4;" x="407.308324" xlink:href="#m0cd8c13f75" y="276.455458"/>
     <use style="fill:#00bfc4;stroke:#00bfc4;" x="202.359897" xlink:href="#m0cd8c13f75" y="87.135218"/>
     <use style="fill:#00bfc4;stroke:#00bfc4;" x="151.32649" xlink:href="#m0cd8c13f75" y="147.642209"/>
     <use style="fill:#00bfc4;stroke:#00bfc4;" x="352.532535" xlink:href="#m0cd8c13f75" y="230.498534"/>
     <use style="fill:#00bfc4;stroke:#00bfc4;" x="150.311269" xlink:href="#m0cd8c13f75" y="230.399386"/>
     <use style="fill:#00bfc4;stroke:#00bfc4;" x="598.897647" xlink:href="#m0cd8c13f75" y="233.512467"/>
     <use style="fill:#00bfc4;stroke:#00bfc4;" x="207.483506" xlink:href="#m0cd8c13f75" y="264.603275"/>
     <use style="fill:#00bfc4;stroke:#00bfc4;" x="140.469293" xlink:href="#m0cd8c13f75" y="259.359019"/>
     <use style="fill:#00bfc4;stroke:#00bfc4;" x="196.711947" xlink:href="#m0cd8c13f75" y="281.11485"/>
     <use style="fill:#00bfc4;stroke:#00bfc4;" x="267.00158" xlink:href="#m0cd8c13f75" y="128.42008"/>
     <use style="fill:#00bfc4;stroke:#00bfc4;" x="491.322214" xlink:href="#m0cd8c13f75" y="151.841668"/>
     <use style="fill:#00bfc4;stroke:#00bfc4;" x="321.798996" xlink:href="#m0cd8c13f75" y="107.692535"/>
     <use style="fill:#00bfc4;stroke:#00bfc4;" x="129.858435" xlink:href="#m0cd8c13f75" y="164.483516"/>
     <use style="fill:#00bfc4;stroke:#00bfc4;" x="294.69171" xlink:href="#m0cd8c13f75" y="255.724445"/>
     <use style="fill:#00bfc4;stroke:#00bfc4;" x="199.715725" xlink:href="#m0cd8c13f75" y="79.831339"/>
     <use style="fill:#00bfc4;stroke:#00bfc4;" x="295.664966" xlink:href="#m0cd8c13f75" y="229.914075"/>
     <use style="fill:#00bfc4;stroke:#00bfc4;" x="134.392647" xlink:href="#m0cd8c13f75" y="219.643689"/>
     <use style="fill:#00bfc4;stroke:#00bfc4;" x="411.856733" xlink:href="#m0cd8c13f75" y="219.893957"/>
     <use style="fill:#00bfc4;stroke:#00bfc4;" x="329.557622" xlink:href="#m0cd8c13f75" y="264.900329"/>
     <use style="fill:#00bfc4;stroke:#00bfc4;" x="478.754826" xlink:href="#m0cd8c13f75" y="164.540785"/>
     <use style="fill:#00bfc4;stroke:#00bfc4;" x="231.449312" xlink:href="#m0cd8c13f75" y="219.16338"/>
     <use style="fill:#00bfc4;stroke:#00bfc4;" x="274.240341" xlink:href="#m0cd8c13f75" y="99.540008"/>
     <use style="fill:#00bfc4;stroke:#00bfc4;" x="461.873683" xlink:href="#m0cd8c13f75" y="194.688678"/>
     <use style="fill:#00bfc4;stroke:#00bfc4;" x="355.28562" xlink:href="#m0cd8c13f75" y="204.350955"/>
     <use style="fill:#00bfc4;stroke:#00bfc4;" x="181.147392" xlink:href="#m0cd8c13f75" y="115.409447"/>
     <use style="fill:#00bfc4;stroke:#00bfc4;" x="295.011306" xlink:href="#m0cd8c13f75" y="254.73731"/>
     <use style="fill:#00bfc4;stroke:#00bfc4;" x="165.277196" xlink:href="#m0cd8c13f75" y="162.664983"/>
     <use style="fill:#00bfc4;stroke:#00bfc4;" x="468.688004" xlink:href="#m0cd8c13f75" y="363.039389"/>
     <use style="fill:#00bfc4;stroke:#00bfc4;" x="160.860422" xlink:href="#m0cd8c13f75" y="146.053637"/>
     <use style="fill:#00bfc4;stroke:#00bfc4;" x="334.522313" xlink:href="#m0cd8c13f75" y="114.180061"/>
     <use style="fill:#00bfc4;stroke:#00bfc4;" x="356.777584" xlink:href="#m0cd8c13f75" y="244.716424"/>
     <use style="fill:#00bfc4;stroke:#00bfc4;" x="372.782706" xlink:href="#m0cd8c13f75" y="130.894771"/>
     <use style="fill:#00bfc4;stroke:#00bfc4;" x="263.661287" xlink:href="#m0cd8c13f75" y="200.924863"/>
     <use style="fill:#00bfc4;stroke:#00bfc4;" x="416.372983" xlink:href="#m0cd8c13f75" y="300.079842"/>
     <use style="fill:#00bfc4;stroke:#00bfc4;" x="419.527068" xlink:href="#m0cd8c13f75" y="158.899815"/>
     <use style="fill:#00bfc4;stroke:#00bfc4;" x="264.13482" xlink:href="#m0cd8c13f75" y="289.100067"/>
     <use style="fill:#00bfc4;stroke:#00bfc4;" x="521.917364" xlink:href="#m0cd8c13f75" y="189.521177"/>
     <use style="fill:#00bfc4;stroke:#00bfc4;" x="277.767172" xlink:href="#m0cd8c13f75" y="70.370214"/>
     <use style="fill:#00bfc4;stroke:#00bfc4;" x="209.986033" xlink:href="#m0cd8c13f75" y="183.218916"/>
     <use style="fill:#00bfc4;stroke:#00bfc4;" x="212.461948" xlink:href="#m0cd8c13f75" y="254.231141"/>
     <use style="fill:#00bfc4;stroke:#00bfc4;" x="394.699484" xlink:href="#m0cd8c13f75" y="176.626923"/>
     <use style="fill:#00bfc4;stroke:#00bfc4;" x="156.224182" xlink:href="#m0cd8c13f75" y="177.681158"/>
     <use style="fill:#00bfc4;stroke:#00bfc4;" x="232.301325" xlink:href="#m0cd8c13f75" y="218.537844"/>
     <use style="fill:#00bfc4;stroke:#00bfc4;" x="462.777678" xlink:href="#m0cd8c13f75" y="194.996218"/>
     <use style="fill:#00bfc4;stroke:#00bfc4;" x="579.765731" xlink:href="#m0cd8c13f75" y="167.967112"/>
     <use style="fill:#00bfc4;stroke:#00bfc4;" x="222.363372" xlink:href="#m0cd8c13f75" y="154.120325"/>
     <use style="fill:#00bfc4;stroke:#00bfc4;" x="361.09208" xlink:href="#m0cd8c13f75" y="257.01364"/>
     <use style="fill:#00bfc4;stroke:#00bfc4;" x="173.044327" xlink:href="#m0cd8c13f75" y="188.486441"/>
     <use style="fill:#00bfc4;stroke:#00bfc4;" x="386.890354" xlink:href="#m0cd8c13f75" y="325.841936"/>
     <use style="fill:#00bfc4;stroke:#00bfc4;" x="241.18803" xlink:href="#m0cd8c13f75" y="120.241733"/>
     <use style="fill:#00bfc4;stroke:#00bfc4;" x="587.970357" xlink:href="#m0cd8c13f75" y="300.230438"/>
     <use style="fill:#00bfc4;stroke:#00bfc4;" x="135.631322" xlink:href="#m0cd8c13f75" y="218.536972"/>
     <use style="fill:#00bfc4;stroke:#00bfc4;" x="304.377869" xlink:href="#m0cd8c13f75" y="148.842131"/>
     <use style="fill:#00bfc4;stroke:#00bfc4;" x="278.393793" xlink:href="#m0cd8c13f75" y="118.931258"/>
     <use style="fill:#00bfc4;stroke:#00bfc4;" x="304.957715" xlink:href="#m0cd8c13f75" y="166.617032"/>
     <use style="fill:#00bfc4;stroke:#00bfc4;" x="216.884842" xlink:href="#m0cd8c13f75" y="111.600591"/>
     <use style="fill:#00bfc4;stroke:#00bfc4;" x="183.820764" xlink:href="#m0cd8c13f75" y="121.842867"/>
     <use style="fill:#00bfc4;stroke:#00bfc4;" x="289.731327" xlink:href="#m0cd8c13f75" y="113.891916"/>
     <use style="fill:#00bfc4;stroke:#00bfc4;" x="246.700615" xlink:href="#m0cd8c13f75" y="228.014088"/>
     <use style="fill:#00bfc4;stroke:#00bfc4;" x="360.788105" xlink:href="#m0cd8c13f75" y="116.922045"/>
     <use style="fill:#00bfc4;stroke:#00bfc4;" x="203.938951" xlink:href="#m0cd8c13f75" y="159.754439"/>
     <use style="fill:#00bfc4;stroke:#00bfc4;" x="208.077097" xlink:href="#m0cd8c13f75" y="242.730382"/>
     <use style="fill:#00bfc4;stroke:#00bfc4;" x="201.781635" xlink:href="#m0cd8c13f75" y="183.466344"/>
     <use style="fill:#00bfc4;stroke:#00bfc4;" x="115.49214" xlink:href="#m0cd8c13f75" y="192.127927"/>
     <use style="fill:#00bfc4;stroke:#00bfc4;" x="354.484196" xlink:href="#m0cd8c13f75" y="203.440669"/>
     <use style="fill:#00bfc4;stroke:#00bfc4;" x="225.003031" xlink:href="#m0cd8c13f75" y="195.369408"/>
     <use style="fill:#00bfc4;stroke:#00bfc4;" x="207.216092" xlink:href="#m0cd8c13f75" y="148.465891"/>
     <use style="fill:#00bfc4;stroke:#00bfc4;" x="221.557507" xlink:href="#m0cd8c13f75" y="133.141232"/>
     <use style="fill:#00bfc4;stroke:#00bfc4;" x="318.040324" xlink:href="#m0cd8c13f75" y="256.325822"/>
     <use style="fill:#00bfc4;stroke:#00bfc4;" x="481.606462" xlink:href="#m0cd8c13f75" y="292.771653"/>
     <use style="fill:#00bfc4;stroke:#00bfc4;" x="522.074886" xlink:href="#m0cd8c13f75" y="214.078303"/>
     <use style="fill:#00bfc4;stroke:#00bfc4;" x="506.900902" xlink:href="#m0cd8c13f75" y="268.509139"/>
     <use style="fill:#00bfc4;stroke:#00bfc4;" x="542.464385" xlink:href="#m0cd8c13f75" y="301.377053"/>
     <use style="fill:#00bfc4;stroke:#00bfc4;" x="550.18791" xlink:href="#m0cd8c13f75" y="317.07529"/>
     <use style="fill:#00bfc4;stroke:#00bfc4;" x="518.973479" xlink:href="#m0cd8c13f75" y="312.98241"/>
     <use style="fill:#00bfc4;stroke:#00bfc4;" x="521.889566" xlink:href="#m0cd8c13f75" y="272.454556"/>
     <use style="fill:#00bfc4;stroke:#00bfc4;" x="513.273193" xlink:href="#m0cd8c13f75" y="267.184486"/>
     <use style="fill:#00bfc4;stroke:#00bfc4;" x="546.477195" xlink:href="#m0cd8c13f75" y="322.356119"/>
     <use style="fill:#00bfc4;stroke:#00bfc4;" x="499.730565" xlink:href="#m0cd8c13f75" y="274.900799"/>
     <use style="fill:#00bfc4;stroke:#00bfc4;" x="528.073996" xlink:href="#m0cd8c13f75" y="313.551013"/>
     <use style="fill:#00bfc4;stroke:#00bfc4;" x="519.043105" xlink:href="#m0cd8c13f75" y="333.394793"/>
     <use style="fill:#00bfc4;stroke:#00bfc4;" x="508.877572" xlink:href="#m0cd8c13f75" y="267.683848"/>
     <use style="fill:#00bfc4;stroke:#00bfc4;" x="499.182871" xlink:href="#m0cd8c13f75" y="274.238103"/>
     <use style="fill:#00bfc4;stroke:#00bfc4;" x="524.75562" xlink:href="#m0cd8c13f75" y="295.337026"/>
     <use style="fill:#00bfc4;stroke:#00bfc4;" x="498.111005" xlink:href="#m0cd8c13f75" y="292.49926"/>
     <use style="fill:#00bfc4;stroke:#00bfc4;" x="510.664819" xlink:href="#m0cd8c13f75" y="283.095171"/>
     <use style="fill:#00bfc4;stroke:#00bfc4;" x="483.736732" xlink:href="#m0cd8c13f75" y="251.524466"/>
     <use style="fill:#00bfc4;stroke:#00bfc4;" x="483.355791" xlink:href="#m0cd8c13f75" y="238.502177"/>
     <use style="fill:#00bfc4;stroke:#00bfc4;" x="506.006948" xlink:href="#m0cd8c13f75" y="279.316297"/>
     <use style="fill:#00bfc4;stroke:#00bfc4;" x="581.967405" xlink:href="#m0cd8c13f75" y="281.923821"/>
     <use style="fill:#00bfc4;stroke:#00bfc4;" x="543.41112" xlink:href="#m0cd8c13f75" y="331.17137"/>
     <use style="fill:#00bfc4;stroke:#00bfc4;" x="593.031987" xlink:href="#m0cd8c13f75" y="244.722248"/>
     <use style="fill:#00bfc4;stroke:#00bfc4;" x="317.999163" xlink:href="#m0cd8c13f75" y="287.811684"/>
     <use style="fill:#00bfc4;stroke:#00bfc4;" x="363.469978" xlink:href="#m0cd8c13f75" y="225.128766"/>
     <use style="fill:#00bfc4;stroke:#00bfc4;" x="405.073293" xlink:href="#m0cd8c13f75" y="235.994619"/>
     <use style="fill:#00bfc4;stroke:#00bfc4;" x="622.50786" xlink:href="#m0cd8c13f75" y="296.403239"/>
     <use style="fill:#00bfc4;stroke:#00bfc4;" x="603.339541" xlink:href="#m0cd8c13f75" y="325.940542"/>
     <use style="fill:#00bfc4;stroke:#00bfc4;" x="347.799607" xlink:href="#m0cd8c13f75" y="106.078627"/>
     <use style="fill:#00bfc4;stroke:#00bfc4;" x="174.467433" xlink:href="#m0cd8c13f75" y="269.414632"/>
     <use style="fill:#00bfc4;stroke:#00bfc4;" x="338.799502" xlink:href="#m0cd8c13f75" y="164.983071"/>
     <use style="fill:#00bfc4;stroke:#00bfc4;" x="164.554155" xlink:href="#m0cd8c13f75" y="207.992418"/>
     <use style="fill:#00bfc4;stroke:#00bfc4;" x="258.516822" xlink:href="#m0cd8c13f75" y="166.604048"/>
     <use style="fill:#00bfc4;stroke:#00bfc4;" x="199.928421" xlink:href="#m0cd8c13f75" y="76.024557"/>
     <use style="fill:#00bfc4;stroke:#00bfc4;" x="262.052407" xlink:href="#m0cd8c13f75" y="165.543377"/>
     <use style="fill:#00bfc4;stroke:#00bfc4;" x="193.217108" xlink:href="#m0cd8c13f75" y="206.059231"/>
     <use style="fill:#00bfc4;stroke:#00bfc4;" x="342.208661" xlink:href="#m0cd8c13f75" y="142.882968"/>
     <use style="fill:#00bfc4;stroke:#00bfc4;" x="258.415854" xlink:href="#m0cd8c13f75" y="167.344519"/>
     <use style="fill:#00bfc4;stroke:#00bfc4;" x="346.344493" xlink:href="#m0cd8c13f75" y="178.086497"/>
     <use style="fill:#00bfc4;stroke:#00bfc4;" x="179.610906" xlink:href="#m0cd8c13f75" y="274.474458"/>
     <use style="fill:#00bfc4;stroke:#00bfc4;" x="217.155812" xlink:href="#m0cd8c13f75" y="192.84386"/>
     <use style="fill:#00bfc4;stroke:#00bfc4;" x="240.958843" xlink:href="#m0cd8c13f75" y="154.35985"/>
     <use style="fill:#00bfc4;stroke:#00bfc4;" x="214.851095" xlink:href="#m0cd8c13f75" y="181.094662"/>
     <use style="fill:#00bfc4;stroke:#00bfc4;" x="408.837581" xlink:href="#m0cd8c13f75" y="206.754778"/>
     <use style="fill:#00bfc4;stroke:#00bfc4;" x="201.020106" xlink:href="#m0cd8c13f75" y="283.797048"/>
     <use style="fill:#00bfc4;stroke:#00bfc4;" x="216.185952" xlink:href="#m0cd8c13f75" y="118.571189"/>
     <use style="fill:#00bfc4;stroke:#00bfc4;" x="614.189626" xlink:href="#m0cd8c13f75" y="246.287062"/>
     <use style="fill:#00bfc4;stroke:#00bfc4;" x="320.384165" xlink:href="#m0cd8c13f75" y="152.904868"/>
     <use style="fill:#00bfc4;stroke:#00bfc4;" x="139.179353" xlink:href="#m0cd8c13f75" y="134.181058"/>
     <use style="fill:#00bfc4;stroke:#00bfc4;" x="320.212266" xlink:href="#m0cd8c13f75" y="333.423044"/>
     <use style="fill:#00bfc4;stroke:#00bfc4;" x="218.459748" xlink:href="#m0cd8c13f75" y="252.999569"/>
    </g>
   </g>
   <g id="PathCollection_2">
    <defs>
     <path d="M 0 3 
C 0.795609 3 1.55874 2.683901 2.12132 2.12132 
C 2.683901 1.55874 3 0.795609 3 0 
C 3 -0.795609 2.683901 -1.55874 2.12132 -2.12132 
C 1.55874 -2.683901 0.795609 -3 0 -3 
C -0.795609 -3 -1.55874 -2.683901 -2.12132 -2.12132 
C -2.683901 -1.55874 -3 -0.795609 -3 0 
C -3 0.795609 -2.683901 1.55874 -2.12132 2.12132 
C -1.55874 2.683901 -0.795609 3 0 3 
z
" id="m12a52438f3" style="stroke:#f8766d;"/>
    </defs>
    <g clip-path="url(#p8680d1140b)">
     <use style="fill:#f8766d;stroke:#f8766d;" x="528.208586" xlink:href="#m12a52438f3" y="255.642596"/>
     <use style="fill:#f8766d;stroke:#f8766d;" x="498.474156" xlink:href="#m12a52438f3" y="268.712267"/>
     <use style="fill:#f8766d;stroke:#f8766d;" x="482.367296" xlink:href="#m12a52438f3" y="279.589002"/>
     <use style="fill:#f8766d;stroke:#f8766d;" x="467.702462" xlink:href="#m12a52438f3" y="324.311527"/>
     <use style="fill:#f8766d;stroke:#f8766d;" x="177.73525" xlink:href="#m12a52438f3" y="221.271573"/>
     <use style="fill:#f8766d;stroke:#f8766d;" x="449.137884" xlink:href="#m12a52438f3" y="88.850899"/>
     <use style="fill:#f8766d;stroke:#f8766d;" x="421.898811" xlink:href="#m12a52438f3" y="119.206706"/>
     <use style="fill:#f8766d;stroke:#f8766d;" x="584.081412" xlink:href="#m12a52438f3" y="168.348562"/>
     <use style="fill:#f8766d;stroke:#f8766d;" x="289.848331" xlink:href="#m12a52438f3" y="318.546653"/>
     <use style="fill:#f8766d;stroke:#f8766d;" x="486.846094" xlink:href="#m12a52438f3" y="225.840939"/>
     <use style="fill:#f8766d;stroke:#f8766d;" x="557.308259" xlink:href="#m12a52438f3" y="268.934009"/>
     <use style="fill:#f8766d;stroke:#f8766d;" x="428.035874" xlink:href="#m12a52438f3" y="247.225619"/>
     <use style="fill:#f8766d;stroke:#f8766d;" x="304.950843" xlink:href="#m12a52438f3" y="188.779778"/>
     <use style="fill:#f8766d;stroke:#f8766d;" x="181.086188" xlink:href="#m12a52438f3" y="107.218558"/>
     <use style="fill:#f8766d;stroke:#f8766d;" x="296.059533" xlink:href="#m12a52438f3" y="212.167526"/>
     <use style="fill:#f8766d;stroke:#f8766d;" x="318.757017" xlink:href="#m12a52438f3" y="153.552668"/>
     <use style="fill:#f8766d;stroke:#f8766d;" x="453.297752" xlink:href="#m12a52438f3" y="126.78581"/>
     <use style="fill:#f8766d;stroke:#f8766d;" x="611.457091" xlink:href="#m12a52438f3" y="273.315377"/>
     <use style="fill:#f8766d;stroke:#f8766d;" x="430.71507" xlink:href="#m12a52438f3" y="346.883144"/>
     <use style="fill:#f8766d;stroke:#f8766d;" x="546.688785" xlink:href="#m12a52438f3" y="348.256896"/>
     <use style="fill:#f8766d;stroke:#f8766d;" x="160.217412" xlink:href="#m12a52438f3" y="167.074578"/>
     <use style="fill:#f8766d;stroke:#f8766d;" x="390.781368" xlink:href="#m12a52438f3" y="137.814212"/>
     <use style="fill:#f8766d;stroke:#f8766d;" x="407.869074" xlink:href="#m12a52438f3" y="178.530846"/>
     <use style="fill:#f8766d;stroke:#f8766d;" x="564.151392" xlink:href="#m12a52438f3" y="218.440946"/>
     <use style="fill:#f8766d;stroke:#f8766d;" x="323.258507" xlink:href="#m12a52438f3" y="99.059851"/>
     <use style="fill:#f8766d;stroke:#f8766d;" x="493.96454" xlink:href="#m12a52438f3" y="149.529694"/>
     <use style="fill:#f8766d;stroke:#f8766d;" x="442.763405" xlink:href="#m12a52438f3" y="93.435511"/>
     <use style="fill:#f8766d;stroke:#f8766d;" x="317.920274" xlink:href="#m12a52438f3" y="332.347434"/>
     <use style="fill:#f8766d;stroke:#f8766d;" x="416.804927" xlink:href="#m12a52438f3" y="180.252223"/>
     <use style="fill:#f8766d;stroke:#f8766d;" x="262.970706" xlink:href="#m12a52438f3" y="289.076552"/>
     <use style="fill:#f8766d;stroke:#f8766d;" x="392.803951" xlink:href="#m12a52438f3" y="101.70524"/>
     <use style="fill:#f8766d;stroke:#f8766d;" x="269.634332" xlink:href="#m12a52438f3" y="247.162356"/>
     <use style="fill:#f8766d;stroke:#f8766d;" x="568.668986" xlink:href="#m12a52438f3" y="149.848262"/>
     <use style="fill:#f8766d;stroke:#f8766d;" x="232.001965" xlink:href="#m12a52438f3" y="118.146105"/>
     <use style="fill:#f8766d;stroke:#f8766d;" x="438.845585" xlink:href="#m12a52438f3" y="172.486257"/>
     <use style="fill:#f8766d;stroke:#f8766d;" x="523.895379" xlink:href="#m12a52438f3" y="273.55789"/>
     <use style="fill:#f8766d;stroke:#f8766d;" x="545.594376" xlink:href="#m12a52438f3" y="286.693271"/>
     <use style="fill:#f8766d;stroke:#f8766d;" x="504.833362" xlink:href="#m12a52438f3" y="250.404152"/>
     <use style="fill:#f8766d;stroke:#f8766d;" x="493.337178" xlink:href="#m12a52438f3" y="262.499864"/>
     <use style="fill:#f8766d;stroke:#f8766d;" x="504.833886" xlink:href="#m12a52438f3" y="252.624386"/>
     <use style="fill:#f8766d;stroke:#f8766d;" x="406.942774" xlink:href="#m12a52438f3" y="206.832733"/>
     <use style="fill:#f8766d;stroke:#f8766d;" x="368.856591" xlink:href="#m12a52438f3" y="277.870494"/>
    </g>
   </g>
   <g id="matplotlib.axis_1">
    <g id="xtick_1">
     <g id="line2d_1">
      <defs>
       <path d="M 0 0 
L 0 3.5 
" id="m3f08b15855" style="stroke:#000000;stroke-width:0.8;"/>
      </defs>
      <g>
       <use style="stroke:#000000;stroke-width:0.8;" x="126.08556" xlink:href="#m3f08b15855" y="378"/>
      </g>
     </g>
     <g id="text_1">
      <!-- −10 -->
      <defs>
       <path d="M 10.59375 35.5 
L 73.1875 35.5 
L 73.1875 27.203125 
L 10.59375 27.203125 
z
" id="DejaVuSans-8722"/>
       <path d="M 12.40625 8.296875 
L 28.515625 8.296875 
L 28.515625 63.921875 
L 10.984375 60.40625 
L 10.984375 69.390625 
L 28.421875 72.90625 
L 38.28125 72.90625 
L 38.28125 8.296875 
L 54.390625 8.296875 
L 54.390625 0 
L 12.40625 0 
z
" id="DejaVuSans-49"/>
       <path d="M 31.78125 66.40625 
Q 24.171875 66.40625 20.328125 58.90625 
Q 16.5 51.421875 16.5 36.375 
Q 16.5 21.390625 20.328125 13.890625 
Q 24.171875 6.390625 31.78125 6.390625 
Q 39.453125 6.390625 43.28125 13.890625 
Q 47.125 21.390625 47.125 36.375 
Q 47.125 51.421875 43.28125 58.90625 
Q 39.453125 66.40625 31.78125 66.40625 
z
M 31.78125 74.21875 
Q 44.046875 74.21875 50.515625 64.515625 
Q 56.984375 54.828125 56.984375 36.375 
Q 56.984375 17.96875 50.515625 8.265625 
Q 44.046875 -1.421875 31.78125 -1.421875 
Q 19.53125 -1.421875 13.0625 8.265625 
Q 6.59375 17.96875 6.59375 36.375 
Q 6.59375 54.828125 13.0625 64.515625 
Q 19.53125 74.21875 31.78125 74.21875 
z
" id="DejaVuSans-48"/>
      </defs>
      <g transform="translate(115.533216 392.598437)scale(0.1 -0.1)">
       <use xlink:href="#DejaVuSans-8722"/>
       <use x="83.789062" xlink:href="#DejaVuSans-49"/>
       <use x="147.412109" xlink:href="#DejaVuSans-48"/>
      </g>
     </g>
    </g>
    <g id="xtick_2">
     <g id="line2d_2">
      <g>
       <use style="stroke:#000000;stroke-width:0.8;" x="245.59433" xlink:href="#m3f08b15855" y="378"/>
      </g>
     </g>
     <g id="text_2">
      <!-- −5 -->
      <defs>
       <path d="M 10.796875 72.90625 
L 49.515625 72.90625 
L 49.515625 64.59375 
L 19.828125 64.59375 
L 19.828125 46.734375 
Q 21.96875 47.46875 24.109375 47.828125 
Q 26.265625 48.1875 28.421875 48.1875 
Q 40.625 48.1875 47.75 41.5 
Q 54.890625 34.8125 54.890625 23.390625 
Q 54.890625 11.625 47.5625 5.09375 
Q 40.234375 -1.421875 26.90625 -1.421875 
Q 22.3125 -1.421875 17.546875 -0.640625 
Q 12.796875 0.140625 7.71875 1.703125 
L 7.71875 11.625 
Q 12.109375 9.234375 16.796875 8.0625 
Q 21.484375 6.890625 26.703125 6.890625 
Q 35.15625 6.890625 40.078125 11.328125 
Q 45.015625 15.765625 45.015625 23.390625 
Q 45.015625 31 40.078125 35.4375 
Q 35.15625 39.890625 26.703125 39.890625 
Q 22.75 39.890625 18.8125 39.015625 
Q 14.890625 38.140625 10.796875 36.28125 
z
" id="DejaVuSans-53"/>
      </defs>
      <g transform="translate(119.336517 392.598437)scale(0.1 -0.1)">
       <use xlink:href="#DejaVuSans-8722"/>
       <use x="83.789062" xlink:href="#DejaVuSans-53"/>
      </g>
     </g>
    </g>
    <g id="xtick_3">
     <g id="line2d_3">
      <g>
       <use style="stroke:#000000;stroke-width:0.8;" x="365.1031" xlink:href="#m3f08b15855" y="378"/>
      </g>
     </g>
     <g id="text_3">
      <!-- 0 -->
      <g transform="translate(361.92185 392.598437)scale(0.1 -0.1)">
       <use xlink:href="#DejaVuSans-48"/>
      </g>
     </g>
    </g>
    <g id="xtick_4">
     <g id="line2d_4">
      <g>
       <use style="stroke:#000000;stroke-width:0.8;" x="484.61187" xlink:href="#m3f08b15855" y="378"/>
      </g>
     </g>
     <g id="text_4">
      <!-- 5 -->
      <g transform="translate(481.43062 392.598437)scale(0.1 -0.1)">
       <use xlink:href="#DejaVuSans-53"/>
      </g>
     </g>
    </g>
    <g id="xtick_5">
     <g id="line2d_5">
      <g>
       <use style="stroke:#000000;stroke-width:0.8;" x="604.12064" xlink:href="#m3f08b15855" y="378"/>
      </g>
     </g>
     <g id="text_5">
      <!-- 10 -->
      <g transform="translate(597.75814 392.598437)scale(0.1 -0.1)">
       <use xlink:href="#DejaVuSans-49"/>
       <use x="63.623047" xlink:href="#DejaVuSans-48"/>
      </g>
     </g>
    </g>
    <g id="text_6">
     <!-- tSNE-1 -->
     <defs>
      <path d="M 18.3125 70.21875 
L 18.3125 54.6875 
L 36.8125 54.6875 
L 36.8125 47.703125 
L 18.3125 47.703125 
L 18.3125 18.015625 
Q 18.3125 11.328125 20.140625 9.421875 
Q 21.96875 7.515625 27.59375 7.515625 
L 36.8125 7.515625 
L 36.8125 0 
L 27.59375 0 
Q 17.1875 0 13.234375 3.875 
Q 9.28125 7.765625 9.28125 18.015625 
L 9.28125 47.703125 
L 2.6875 47.703125 
L 2.6875 54.6875 
L 9.28125 54.6875 
L 9.28125 70.21875 
z
" id="DejaVuSans-116"/>
      <path d="M 53.515625 70.515625 
L 53.515625 60.890625 
Q 47.90625 63.578125 42.921875 64.890625 
Q 37.9375 66.21875 33.296875 66.21875 
Q 25.25 66.21875 20.875 63.09375 
Q 16.5 59.96875 16.5 54.203125 
Q 16.5 49.359375 19.40625 46.890625 
Q 22.3125 44.4375 30.421875 42.921875 
L 36.375 41.703125 
Q 47.40625 39.59375 52.65625 34.296875 
Q 57.90625 29 57.90625 20.125 
Q 57.90625 9.515625 50.796875 4.046875 
Q 43.703125 -1.421875 29.984375 -1.421875 
Q 24.8125 -1.421875 18.96875 -0.25 
Q 13.140625 0.921875 6.890625 3.21875 
L 6.890625 13.375 
Q 12.890625 10.015625 18.65625 8.296875 
Q 24.421875 6.59375 29.984375 6.59375 
Q 38.421875 6.59375 43.015625 9.90625 
Q 47.609375 13.234375 47.609375 19.390625 
Q 47.609375 24.75 44.3125 27.78125 
Q 41.015625 30.8125 33.5 32.328125 
L 27.484375 33.5 
Q 16.453125 35.6875 11.515625 40.375 
Q 6.59375 45.0625 6.59375 53.421875 
Q 6.59375 63.09375 13.40625 68.65625 
Q 20.21875 74.21875 32.171875 74.21875 
Q 37.3125 74.21875 42.625 73.28125 
Q 47.953125 72.359375 53.515625 70.515625 
z
" id="DejaVuSans-83"/>
      <path d="M 9.8125 72.90625 
L 23.09375 72.90625 
L 55.421875 11.921875 
L 55.421875 72.90625 
L 64.984375 72.90625 
L 64.984375 0 
L 51.703125 0 
L 19.390625 60.984375 
L 19.390625 0 
L 9.8125 0 
z
" id="DejaVuSans-78"/>
      <path d="M 9.8125 72.90625 
L 55.90625 72.90625 
L 55.90625 64.59375 
L 19.671875 64.59375 
L 19.671875 43.015625 
L 54.390625 43.015625 
L 54.390625 34.71875 
L 19.671875 34.71875 
L 19.671875 8.296875 
L 56.78125 8.296875 
L 56.78125 0 
L 9.8125 0 
z
" id="DejaVuSans-69"/>
      <path d="M 4.890625 31.390625 
L 31.203125 31.390625 
L 31.203125 23.390625 
L 4.890625 23.390625 
z
" id="DejaVuSans-45"/>
     </defs>
     <g transform="translate(351.980469 406.276563)scale(0.1 -0.1)">
      <use xlink:href="#DejaVuSans-116"/>
      <use x="39.208984" xlink:href="#DejaVuSans-83"/>
      <use x="102.685547" xlink:href="#DejaVuSans-78"/>
      <use x="177.490234" xlink:href="#DejaVuSans-69"/>
      <use x="240.673828" xlink:href="#DejaVuSans-45"/>
      <use x="276.757812" xlink:href="#DejaVuSans-49"/>
     </g>
    </g>
   </g>
   <g id="matplotlib.axis_2">
    <g id="ytick_1">
     <g id="line2d_6">
      <defs>
       <path d="M 0 0 
L -3.5 0 
" id="mb6051b3ca6" style="stroke:#000000;stroke-width:0.8;"/>
      </defs>
      <g>
       <use style="stroke:#000000;stroke-width:0.8;" x="90" xlink:href="#mb6051b3ca6" y="369.47288"/>
      </g>
     </g>
     <g id="text_7">
      <!-- −10.0 -->
      <defs>
       <path d="M 10.6875 12.40625 
L 21 12.40625 
L 21 0 
L 10.6875 0 
z
" id="DejaVuSans-46"/>
      </defs>
      <g transform="translate(58.7125 373.272099)scale(0.1 -0.1)">
       <use xlink:href="#DejaVuSans-8722"/>
       <use x="83.789062" xlink:href="#DejaVuSans-49"/>
       <use x="147.412109" xlink:href="#DejaVuSans-48"/>
       <use x="211.035156" xlink:href="#DejaVuSans-46"/>
       <use x="242.822266" xlink:href="#DejaVuSans-48"/>
      </g>
     </g>
    </g>
    <g id="ytick_2">
     <g id="line2d_7">
      <g>
       <use style="stroke:#000000;stroke-width:0.8;" x="90" xlink:href="#mb6051b3ca6" y="332.737464"/>
      </g>
     </g>
     <g id="text_8">
      <!-- −7.5 -->
      <defs>
       <path d="M 8.203125 72.90625 
L 55.078125 72.90625 
L 55.078125 68.703125 
L 28.609375 0 
L 18.3125 0 
L 43.21875 64.59375 
L 8.203125 64.59375 
z
" id="DejaVuSans-55"/>
      </defs>
      <g transform="translate(58.717187 336.536683)scale(0.1 -0.1)">
       <use xlink:href="#DejaVuSans-8722"/>
       <use x="83.789062" xlink:href="#DejaVuSans-55"/>
       <use x="147.412109" xlink:href="#DejaVuSans-46"/>
       <use x="179.199219" xlink:href="#DejaVuSans-53"/>
      </g>
     </g>
    </g>
    <g id="ytick_3">
     <g id="line2d_8">
      <g>
       <use style="stroke:#000000;stroke-width:0.8;" x="90" xlink:href="#mb6051b3ca6" y="296.002048"/>
      </g>
     </g>
     <g id="text_9">
      <!-- −5.0 -->
      <g transform="translate(58.717187 299.801267)scale(0.1 -0.1)">
       <use xlink:href="#DejaVuSans-8722"/>
       <use x="83.789062" xlink:href="#DejaVuSans-53"/>
       <use x="147.412109" xlink:href="#DejaVuSans-46"/>
       <use x="179.199219" xlink:href="#DejaVuSans-48"/>
      </g>
     </g>
    </g>
    <g id="ytick_4">
     <g id="line2d_9">
      <g>
       <use style="stroke:#000000;stroke-width:0.8;" x="90" xlink:href="#mb6051b3ca6" y="259.266632"/>
      </g>
     </g>
     <g id="text_10">
      <!-- −2.5 -->
      <defs>
       <path d="M 19.1875 8.296875 
L 53.609375 8.296875 
L 53.609375 0 
L 7.328125 0 
L 7.328125 8.296875 
Q 12.9375 14.109375 22.625 23.890625 
Q 32.328125 33.6875 34.8125 36.53125 
Q 39.546875 41.84375 41.421875 45.53125 
Q 43.3125 49.21875 43.3125 52.78125 
Q 43.3125 58.59375 39.234375 62.25 
Q 35.15625 65.921875 28.609375 65.921875 
Q 23.96875 65.921875 18.8125 64.3125 
Q 13.671875 62.703125 7.8125 59.421875 
L 7.8125 69.390625 
Q 13.765625 71.78125 18.9375 73 
Q 24.125 74.21875 28.421875 74.21875 
Q 39.75 74.21875 46.484375 68.546875 
Q 53.21875 62.890625 53.21875 53.421875 
Q 53.21875 48.921875 51.53125 44.890625 
Q 49.859375 40.875 45.40625 35.40625 
Q 44.1875 33.984375 37.640625 27.21875 
Q 31.109375 20.453125 19.1875 8.296875 
z
" id="DejaVuSans-50"/>
      </defs>
      <g transform="translate(58.717187 263.06585)scale(0.1 -0.1)">
       <use xlink:href="#DejaVuSans-8722"/>
       <use x="83.789062" xlink:href="#DejaVuSans-50"/>
       <use x="147.412109" xlink:href="#DejaVuSans-46"/>
       <use x="179.199219" xlink:href="#DejaVuSans-53"/>
      </g>
     </g>
    </g>
    <g id="ytick_5">
     <g id="line2d_10">
      <g>
       <use style="stroke:#000000;stroke-width:0.8;" x="90" xlink:href="#mb6051b3ca6" y="222.531216"/>
      </g>
     </g>
     <g id="text_11">
      <!-- 0.0 -->
      <g transform="translate(67.096875 226.330434)scale(0.1 -0.1)">
       <use xlink:href="#DejaVuSans-48"/>
       <use x="63.623047" xlink:href="#DejaVuSans-46"/>
       <use x="95.410156" xlink:href="#DejaVuSans-48"/>
      </g>
     </g>
    </g>
    <g id="ytick_6">
     <g id="line2d_11">
      <g>
       <use style="stroke:#000000;stroke-width:0.8;" x="90" xlink:href="#mb6051b3ca6" y="185.7958"/>
      </g>
     </g>
     <g id="text_12">
      <!-- 2.5 -->
      <g transform="translate(67.096875 189.595018)scale(0.1 -0.1)">
       <use xlink:href="#DejaVuSans-50"/>
       <use x="63.623047" xlink:href="#DejaVuSans-46"/>
       <use x="95.410156" xlink:href="#DejaVuSans-53"/>
      </g>
     </g>
    </g>
    <g id="ytick_7">
     <g id="line2d_12">
      <g>
       <use style="stroke:#000000;stroke-width:0.8;" x="90" xlink:href="#mb6051b3ca6" y="149.060384"/>
      </g>
     </g>
     <g id="text_13">
      <!-- 5.0 -->
      <g transform="translate(67.096875 152.859602)scale(0.1 -0.1)">
       <use xlink:href="#DejaVuSans-53"/>
       <use x="63.623047" xlink:href="#DejaVuSans-46"/>
       <use x="95.410156" xlink:href="#DejaVuSans-48"/>
      </g>
     </g>
    </g>
    <g id="ytick_8">
     <g id="line2d_13">
      <g>
       <use style="stroke:#000000;stroke-width:0.8;" x="90" xlink:href="#mb6051b3ca6" y="112.324968"/>
      </g>
     </g>
     <g id="text_14">
      <!-- 7.5 -->
      <g transform="translate(67.096875 116.124186)scale(0.1 -0.1)">
       <use xlink:href="#DejaVuSans-55"/>
       <use x="63.623047" xlink:href="#DejaVuSans-46"/>
       <use x="95.410156" xlink:href="#DejaVuSans-53"/>
      </g>
     </g>
    </g>
    <g id="ytick_9">
     <g id="line2d_14">
      <g>
       <use style="stroke:#000000;stroke-width:0.8;" x="90" xlink:href="#mb6051b3ca6" y="75.589552"/>
      </g>
     </g>
     <g id="text_15">
      <!-- 10.0 -->
      <g transform="translate(60.734375 79.38877)scale(0.1 -0.1)">
       <use xlink:href="#DejaVuSans-49"/>
       <use x="63.623047" xlink:href="#DejaVuSans-48"/>
       <use x="127.246094" xlink:href="#DejaVuSans-46"/>
       <use x="159.033203" xlink:href="#DejaVuSans-48"/>
      </g>
     </g>
    </g>
    <g id="text_16">
     <!-- tSNE-2 -->
     <g transform="translate(52.632812 231.939531)rotate(-90)scale(0.1 -0.1)">
      <use xlink:href="#DejaVuSans-116"/>
      <use x="39.208984" xlink:href="#DejaVuSans-83"/>
      <use x="102.685547" xlink:href="#DejaVuSans-78"/>
      <use x="177.490234" xlink:href="#DejaVuSans-69"/>
      <use x="240.673828" xlink:href="#DejaVuSans-45"/>
      <use x="276.757812" xlink:href="#DejaVuSans-50"/>
     </g>
    </g>
   </g>
   <g id="patch_3">
    <path d="M 90 378 
L 90 51.84 
" style="fill:none;stroke:#000000;stroke-linecap:square;stroke-linejoin:miter;stroke-width:0.8;"/>
   </g>
   <g id="patch_4">
    <path d="M 648 378 
L 648 51.84 
" style="fill:none;stroke:#000000;stroke-linecap:square;stroke-linejoin:miter;stroke-width:0.8;"/>
   </g>
   <g id="patch_5">
    <path d="M 90 378 
L 648 378 
" style="fill:none;stroke:#000000;stroke-linecap:square;stroke-linejoin:miter;stroke-width:0.8;"/>
   </g>
   <g id="patch_6">
    <path d="M 90 51.84 
L 648 51.84 
" style="fill:none;stroke:#000000;stroke-linecap:square;stroke-linejoin:miter;stroke-width:0.8;"/>
   </g>
   <g id="legend_1">
    <g id="patch_7">
     <path d="M 563.125 89.19625 
L 641 89.19625 
Q 643 89.19625 643 87.19625 
L 643 58.84 
Q 643 56.84 641 56.84 
L 563.125 56.84 
Q 561.125 56.84 561.125 58.84 
L 561.125 87.19625 
Q 561.125 89.19625 563.125 89.19625 
z
" style="fill:#ffffff;opacity:0.8;stroke:#cccccc;stroke-linejoin:miter;"/>
    </g>
    <g id="PathCollection_3">
     <g>
      <use style="fill:#00bfc4;stroke:#00bfc4;" x="575.125" xlink:href="#m0cd8c13f75" y="65.813437"/>
     </g>
    </g>
    <g id="text_17">
     <!-- D006262 -->
     <defs>
      <path d="M 19.671875 64.796875 
L 19.671875 8.109375 
L 31.59375 8.109375 
Q 46.6875 8.109375 53.6875 14.9375 
Q 60.6875 21.78125 60.6875 36.53125 
Q 60.6875 51.171875 53.6875 57.984375 
Q 46.6875 64.796875 31.59375 64.796875 
z
M 9.8125 72.90625 
L 30.078125 72.90625 
Q 51.265625 72.90625 61.171875 64.09375 
Q 71.09375 55.28125 71.09375 36.53125 
Q 71.09375 17.671875 61.125 8.828125 
Q 51.171875 0 30.078125 0 
L 9.8125 0 
z
" id="DejaVuSans-68"/>
      <path d="M 33.015625 40.375 
Q 26.375 40.375 22.484375 35.828125 
Q 18.609375 31.296875 18.609375 23.390625 
Q 18.609375 15.53125 22.484375 10.953125 
Q 26.375 6.390625 33.015625 6.390625 
Q 39.65625 6.390625 43.53125 10.953125 
Q 47.40625 15.53125 47.40625 23.390625 
Q 47.40625 31.296875 43.53125 35.828125 
Q 39.65625 40.375 33.015625 40.375 
z
M 52.59375 71.296875 
L 52.59375 62.3125 
Q 48.875 64.0625 45.09375 64.984375 
Q 41.3125 65.921875 37.59375 65.921875 
Q 27.828125 65.921875 22.671875 59.328125 
Q 17.53125 52.734375 16.796875 39.40625 
Q 19.671875 43.65625 24.015625 45.921875 
Q 28.375 48.1875 33.59375 48.1875 
Q 44.578125 48.1875 50.953125 41.515625 
Q 57.328125 34.859375 57.328125 23.390625 
Q 57.328125 12.15625 50.6875 5.359375 
Q 44.046875 -1.421875 33.015625 -1.421875 
Q 20.359375 -1.421875 13.671875 8.265625 
Q 6.984375 17.96875 6.984375 36.375 
Q 6.984375 53.65625 15.1875 63.9375 
Q 23.390625 74.21875 37.203125 74.21875 
Q 40.921875 74.21875 44.703125 73.484375 
Q 48.484375 72.75 52.59375 71.296875 
z
" id="DejaVuSans-54"/>
     </defs>
     <g transform="translate(593.125 68.438437)scale(0.1 -0.1)">
      <use xlink:href="#DejaVuSans-68"/>
      <use x="77.001953" xlink:href="#DejaVuSans-48"/>
      <use x="140.625" xlink:href="#DejaVuSans-48"/>
      <use x="204.248047" xlink:href="#DejaVuSans-54"/>
      <use x="267.871094" xlink:href="#DejaVuSans-50"/>
      <use x="331.494141" xlink:href="#DejaVuSans-54"/>
      <use x="395.117188" xlink:href="#DejaVuSans-50"/>
     </g>
    </g>
    <g id="PathCollection_4">
     <g>
      <use style="fill:#f8766d;stroke:#f8766d;" x="575.125" xlink:href="#m12a52438f3" y="80.491562"/>
     </g>
    </g>
    <g id="text_18">
     <!-- D007410 -->
     <defs>
      <path d="M 37.796875 64.3125 
L 12.890625 25.390625 
L 37.796875 25.390625 
z
M 35.203125 72.90625 
L 47.609375 72.90625 
L 47.609375 25.390625 
L 58.015625 25.390625 
L 58.015625 17.1875 
L 47.609375 17.1875 
L 47.609375 0 
L 37.796875 0 
L 37.796875 17.1875 
L 4.890625 17.1875 
L 4.890625 26.703125 
z
" id="DejaVuSans-52"/>
     </defs>
     <g transform="translate(593.125 83.116562)scale(0.1 -0.1)">
      <use xlink:href="#DejaVuSans-68"/>
      <use x="77.001953" xlink:href="#DejaVuSans-48"/>
      <use x="140.625" xlink:href="#DejaVuSans-48"/>
      <use x="204.248047" xlink:href="#DejaVuSans-55"/>
      <use x="267.871094" xlink:href="#DejaVuSans-52"/>
      <use x="331.494141" xlink:href="#DejaVuSans-49"/>
      <use x="395.117188" xlink:href="#DejaVuSans-48"/>
     </g>
    </g>
   </g>
  </g>
 </g>
 <defs>
  <clipPath id="p8680d1140b">
   <rect height="326.16" width="558" x="90" y="51.84"/>
  </clipPath>
 </defs>
</svg>
