<?xml version="1.0" encoding="utf-8" standalone="no"?>
<!DOCTYPE svg PUBLIC "-//W3C//DTD SVG 1.1//EN"
  "http://www.w3.org/Graphics/SVG/1.1/DTD/svg11.dtd">
<!-- Created with matplotlib (https://matplotlib.org/) -->
<svg height="576pt" version="1.1" viewBox="0 0 576 576" width="576pt" xmlns="http://www.w3.org/2000/svg" xmlns:xlink="http://www.w3.org/1999/xlink">
 <defs>
  <style type="text/css">
*{stroke-linecap:butt;stroke-linejoin:round;}
  </style>
 </defs>
 <g id="figure_1">
  <g id="patch_1">
   <path d="M 0 576 
L 576 576 
L 576 0 
L 0 0 
z
" style="fill:#ffffff;"/>
  </g>
  <g id="axes_1">
   <g id="patch_2">
    <path d="M 72 512.64 
L 518.4 512.64 
L 518.4 69.12 
L 72 69.12 
z
" style="fill:#ffffff;"/>
   </g>
   <g id="matplotlib.axis_1">
    <g id="xtick_1">
     <g id="line2d_1">
      <path clip-path="url(#p4f2a7822ea)" d="M 72 512.64 
L 72 69.12 
" style="fill:none;stroke:#b0b0b0;stroke-linecap:square;stroke-width:0.8;"/>
     </g>
     <g id="line2d_2">
      <defs>
       <path d="M 0 0 
L 0 3.5 
" id="mc87715ac44" style="stroke:#000000;stroke-width:0.8;"/>
      </defs>
      <g>
       <use style="stroke:#000000;stroke-width:0.8;" x="72" xlink:href="#mc87715ac44" y="512.64"/>
      </g>
     </g>
     <g id="text_1">
      <!-- 0.0 -->
      <defs>
       <path d="M 31.78125 66.40625 
Q 24.171875 66.40625 20.328125 58.90625 
Q 16.5 51.421875 16.5 36.375 
Q 16.5 21.390625 20.328125 13.890625 
Q 24.171875 6.390625 31.78125 6.390625 
Q 39.453125 6.390625 43.28125 13.890625 
Q 47.125 21.390625 47.125 36.375 
Q 47.125 51.421875 43.28125 58.90625 
Q 39.453125 66.40625 31.78125 66.40625 
z
M 31.78125 74.21875 
Q 44.046875 74.21875 50.515625 64.515625 
Q 56.984375 54.828125 56.984375 36.375 
Q 56.984375 17.96875 50.515625 8.265625 
Q 44.046875 -1.421875 31.78125 -1.421875 
Q 19.53125 -1.421875 13.0625 8.265625 
Q 6.59375 17.96875 6.59375 36.375 
Q 6.59375 54.828125 13.0625 64.515625 
Q 19.53125 74.21875 31.78125 74.21875 
z
" id="DejaVuSans-48"/>
       <path d="M 10.6875 12.40625 
L 21 12.40625 
L 21 0 
L 10.6875 0 
z
" id="DejaVuSans-46"/>
      </defs>
      <g transform="translate(64.048438 527.238438)scale(0.1 -0.1)">
       <use xlink:href="#DejaVuSans-48"/>
       <use x="63.623047" xlink:href="#DejaVuSans-46"/>
       <use x="95.410156" xlink:href="#DejaVuSans-48"/>
      </g>
     </g>
    </g>
    <g id="xtick_2">
     <g id="line2d_3">
      <path clip-path="url(#p4f2a7822ea)" d="M 161.28 512.64 
L 161.28 69.12 
" style="fill:none;stroke:#b0b0b0;stroke-linecap:square;stroke-width:0.8;"/>
     </g>
     <g id="line2d_4">
      <g>
       <use style="stroke:#000000;stroke-width:0.8;" x="161.28" xlink:href="#mc87715ac44" y="512.64"/>
      </g>
     </g>
     <g id="text_2">
      <!-- 0.2 -->
      <defs>
       <path d="M 19.1875 8.296875 
L 53.609375 8.296875 
L 53.609375 0 
L 7.328125 0 
L 7.328125 8.296875 
Q 12.9375 14.109375 22.625 23.890625 
Q 32.328125 33.6875 34.8125 36.53125 
Q 39.546875 41.84375 41.421875 45.53125 
Q 43.3125 49.21875 43.3125 52.78125 
Q 43.3125 58.59375 39.234375 62.25 
Q 35.15625 65.921875 28.609375 65.921875 
Q 23.96875 65.921875 18.8125 64.3125 
Q 13.671875 62.703125 7.8125 59.421875 
L 7.8125 69.390625 
Q 13.765625 71.78125 18.9375 73 
Q 24.125 74.21875 28.421875 74.21875 
Q 39.75 74.21875 46.484375 68.546875 
Q 53.21875 62.890625 53.21875 53.421875 
Q 53.21875 48.921875 51.53125 44.890625 
Q 49.859375 40.875 45.40625 35.40625 
Q 44.1875 33.984375 37.640625 27.21875 
Q 31.109375 20.453125 19.1875 8.296875 
z
" id="DejaVuSans-50"/>
      </defs>
      <g transform="translate(153.328438 527.238438)scale(0.1 -0.1)">
       <use xlink:href="#DejaVuSans-48"/>
       <use x="63.623047" xlink:href="#DejaVuSans-46"/>
       <use x="95.410156" xlink:href="#DejaVuSans-50"/>
      </g>
     </g>
    </g>
    <g id="xtick_3">
     <g id="line2d_5">
      <path clip-path="url(#p4f2a7822ea)" d="M 250.56 512.64 
L 250.56 69.12 
" style="fill:none;stroke:#b0b0b0;stroke-linecap:square;stroke-width:0.8;"/>
     </g>
     <g id="line2d_6">
      <g>
       <use style="stroke:#000000;stroke-width:0.8;" x="250.56" xlink:href="#mc87715ac44" y="512.64"/>
      </g>
     </g>
     <g id="text_3">
      <!-- 0.4 -->
      <defs>
       <path d="M 37.796875 64.3125 
L 12.890625 25.390625 
L 37.796875 25.390625 
z
M 35.203125 72.90625 
L 47.609375 72.90625 
L 47.609375 25.390625 
L 58.015625 25.390625 
L 58.015625 17.1875 
L 47.609375 17.1875 
L 47.609375 0 
L 37.796875 0 
L 37.796875 17.1875 
L 4.890625 17.1875 
L 4.890625 26.703125 
z
" id="DejaVuSans-52"/>
      </defs>
      <g transform="translate(242.608438 527.238438)scale(0.1 -0.1)">
       <use xlink:href="#DejaVuSans-48"/>
       <use x="63.623047" xlink:href="#DejaVuSans-46"/>
       <use x="95.410156" xlink:href="#DejaVuSans-52"/>
      </g>
     </g>
    </g>
    <g id="xtick_4">
     <g id="line2d_7">
      <path clip-path="url(#p4f2a7822ea)" d="M 339.84 512.64 
L 339.84 69.12 
" style="fill:none;stroke:#b0b0b0;stroke-linecap:square;stroke-width:0.8;"/>
     </g>
     <g id="line2d_8">
      <g>
       <use style="stroke:#000000;stroke-width:0.8;" x="339.84" xlink:href="#mc87715ac44" y="512.64"/>
      </g>
     </g>
     <g id="text_4">
      <!-- 0.6 -->
      <defs>
       <path d="M 33.015625 40.375 
Q 26.375 40.375 22.484375 35.828125 
Q 18.609375 31.296875 18.609375 23.390625 
Q 18.609375 15.53125 22.484375 10.953125 
Q 26.375 6.390625 33.015625 6.390625 
Q 39.65625 6.390625 43.53125 10.953125 
Q 47.40625 15.53125 47.40625 23.390625 
Q 47.40625 31.296875 43.53125 35.828125 
Q 39.65625 40.375 33.015625 40.375 
z
M 52.59375 71.296875 
L 52.59375 62.3125 
Q 48.875 64.0625 45.09375 64.984375 
Q 41.3125 65.921875 37.59375 65.921875 
Q 27.828125 65.921875 22.671875 59.328125 
Q 17.53125 52.734375 16.796875 39.40625 
Q 19.671875 43.65625 24.015625 45.921875 
Q 28.375 48.1875 33.59375 48.1875 
Q 44.578125 48.1875 50.953125 41.515625 
Q 57.328125 34.859375 57.328125 23.390625 
Q 57.328125 12.15625 50.6875 5.359375 
Q 44.046875 -1.421875 33.015625 -1.421875 
Q 20.359375 -1.421875 13.671875 8.265625 
Q 6.984375 17.96875 6.984375 36.375 
Q 6.984375 53.65625 15.1875 63.9375 
Q 23.390625 74.21875 37.203125 74.21875 
Q 40.921875 74.21875 44.703125 73.484375 
Q 48.484375 72.75 52.59375 71.296875 
z
" id="DejaVuSans-54"/>
      </defs>
      <g transform="translate(331.888438 527.238438)scale(0.1 -0.1)">
       <use xlink:href="#DejaVuSans-48"/>
       <use x="63.623047" xlink:href="#DejaVuSans-46"/>
       <use x="95.410156" xlink:href="#DejaVuSans-54"/>
      </g>
     </g>
    </g>
    <g id="xtick_5">
     <g id="line2d_9">
      <path clip-path="url(#p4f2a7822ea)" d="M 429.12 512.64 
L 429.12 69.12 
" style="fill:none;stroke:#b0b0b0;stroke-linecap:square;stroke-width:0.8;"/>
     </g>
     <g id="line2d_10">
      <g>
       <use style="stroke:#000000;stroke-width:0.8;" x="429.12" xlink:href="#mc87715ac44" y="512.64"/>
      </g>
     </g>
     <g id="text_5">
      <!-- 0.8 -->
      <defs>
       <path d="M 31.78125 34.625 
Q 24.75 34.625 20.71875 30.859375 
Q 16.703125 27.09375 16.703125 20.515625 
Q 16.703125 13.921875 20.71875 10.15625 
Q 24.75 6.390625 31.78125 6.390625 
Q 38.8125 6.390625 42.859375 10.171875 
Q 46.921875 13.96875 46.921875 20.515625 
Q 46.921875 27.09375 42.890625 30.859375 
Q 38.875 34.625 31.78125 34.625 
z
M 21.921875 38.8125 
Q 15.578125 40.375 12.03125 44.71875 
Q 8.5 49.078125 8.5 55.328125 
Q 8.5 64.0625 14.71875 69.140625 
Q 20.953125 74.21875 31.78125 74.21875 
Q 42.671875 74.21875 48.875 69.140625 
Q 55.078125 64.0625 55.078125 55.328125 
Q 55.078125 49.078125 51.53125 44.71875 
Q 48 40.375 41.703125 38.8125 
Q 48.828125 37.15625 52.796875 32.3125 
Q 56.78125 27.484375 56.78125 20.515625 
Q 56.78125 9.90625 50.3125 4.234375 
Q 43.84375 -1.421875 31.78125 -1.421875 
Q 19.734375 -1.421875 13.25 4.234375 
Q 6.78125 9.90625 6.78125 20.515625 
Q 6.78125 27.484375 10.78125 32.3125 
Q 14.796875 37.15625 21.921875 38.8125 
z
M 18.3125 54.390625 
Q 18.3125 48.734375 21.84375 45.5625 
Q 25.390625 42.390625 31.78125 42.390625 
Q 38.140625 42.390625 41.71875 45.5625 
Q 45.3125 48.734375 45.3125 54.390625 
Q 45.3125 60.0625 41.71875 63.234375 
Q 38.140625 66.40625 31.78125 66.40625 
Q 25.390625 66.40625 21.84375 63.234375 
Q 18.3125 60.0625 18.3125 54.390625 
z
" id="DejaVuSans-56"/>
      </defs>
      <g transform="translate(421.168437 527.238438)scale(0.1 -0.1)">
       <use xlink:href="#DejaVuSans-48"/>
       <use x="63.623047" xlink:href="#DejaVuSans-46"/>
       <use x="95.410156" xlink:href="#DejaVuSans-56"/>
      </g>
     </g>
    </g>
    <g id="xtick_6">
     <g id="line2d_11">
      <path clip-path="url(#p4f2a7822ea)" d="M 518.4 512.64 
L 518.4 69.12 
" style="fill:none;stroke:#b0b0b0;stroke-linecap:square;stroke-width:0.8;"/>
     </g>
     <g id="line2d_12">
      <g>
       <use style="stroke:#000000;stroke-width:0.8;" x="518.4" xlink:href="#mc87715ac44" y="512.64"/>
      </g>
     </g>
     <g id="text_6">
      <!-- 1.0 -->
      <defs>
       <path d="M 12.40625 8.296875 
L 28.515625 8.296875 
L 28.515625 63.921875 
L 10.984375 60.40625 
L 10.984375 69.390625 
L 28.421875 72.90625 
L 38.28125 72.90625 
L 38.28125 8.296875 
L 54.390625 8.296875 
L 54.390625 0 
L 12.40625 0 
z
" id="DejaVuSans-49"/>
      </defs>
      <g transform="translate(510.448437 527.238438)scale(0.1 -0.1)">
       <use xlink:href="#DejaVuSans-49"/>
       <use x="63.623047" xlink:href="#DejaVuSans-46"/>
       <use x="95.410156" xlink:href="#DejaVuSans-48"/>
      </g>
     </g>
    </g>
    <g id="text_7">
     <!-- False Positive Rate -->
     <defs>
      <path d="M 9.8125 72.90625 
L 51.703125 72.90625 
L 51.703125 64.59375 
L 19.671875 64.59375 
L 19.671875 43.109375 
L 48.578125 43.109375 
L 48.578125 34.8125 
L 19.671875 34.8125 
L 19.671875 0 
L 9.8125 0 
z
" id="DejaVuSans-70"/>
      <path d="M 34.28125 27.484375 
Q 23.390625 27.484375 19.1875 25 
Q 14.984375 22.515625 14.984375 16.5 
Q 14.984375 11.71875 18.140625 8.90625 
Q 21.296875 6.109375 26.703125 6.109375 
Q 34.1875 6.109375 38.703125 11.40625 
Q 43.21875 16.703125 43.21875 25.484375 
L 43.21875 27.484375 
z
M 52.203125 31.203125 
L 52.203125 0 
L 43.21875 0 
L 43.21875 8.296875 
Q 40.140625 3.328125 35.546875 0.953125 
Q 30.953125 -1.421875 24.3125 -1.421875 
Q 15.921875 -1.421875 10.953125 3.296875 
Q 6 8.015625 6 15.921875 
Q 6 25.140625 12.171875 29.828125 
Q 18.359375 34.515625 30.609375 34.515625 
L 43.21875 34.515625 
L 43.21875 35.40625 
Q 43.21875 41.609375 39.140625 45 
Q 35.0625 48.390625 27.6875 48.390625 
Q 23 48.390625 18.546875 47.265625 
Q 14.109375 46.140625 10.015625 43.890625 
L 10.015625 52.203125 
Q 14.9375 54.109375 19.578125 55.046875 
Q 24.21875 56 28.609375 56 
Q 40.484375 56 46.34375 49.84375 
Q 52.203125 43.703125 52.203125 31.203125 
z
" id="DejaVuSans-97"/>
      <path d="M 9.421875 75.984375 
L 18.40625 75.984375 
L 18.40625 0 
L 9.421875 0 
z
" id="DejaVuSans-108"/>
      <path d="M 44.28125 53.078125 
L 44.28125 44.578125 
Q 40.484375 46.53125 36.375 47.5 
Q 32.28125 48.484375 27.875 48.484375 
Q 21.1875 48.484375 17.84375 46.4375 
Q 14.5 44.390625 14.5 40.28125 
Q 14.5 37.15625 16.890625 35.375 
Q 19.28125 33.59375 26.515625 31.984375 
L 29.59375 31.296875 
Q 39.15625 29.25 43.1875 25.515625 
Q 47.21875 21.78125 47.21875 15.09375 
Q 47.21875 7.46875 41.1875 3.015625 
Q 35.15625 -1.421875 24.609375 -1.421875 
Q 20.21875 -1.421875 15.453125 -0.5625 
Q 10.6875 0.296875 5.421875 2 
L 5.421875 11.28125 
Q 10.40625 8.6875 15.234375 7.390625 
Q 20.0625 6.109375 24.8125 6.109375 
Q 31.15625 6.109375 34.5625 8.28125 
Q 37.984375 10.453125 37.984375 14.40625 
Q 37.984375 18.0625 35.515625 20.015625 
Q 33.0625 21.96875 24.703125 23.78125 
L 21.578125 24.515625 
Q 13.234375 26.265625 9.515625 29.90625 
Q 5.8125 33.546875 5.8125 39.890625 
Q 5.8125 47.609375 11.28125 51.796875 
Q 16.75 56 26.8125 56 
Q 31.78125 56 36.171875 55.265625 
Q 40.578125 54.546875 44.28125 53.078125 
z
" id="DejaVuSans-115"/>
      <path d="M 56.203125 29.59375 
L 56.203125 25.203125 
L 14.890625 25.203125 
Q 15.484375 15.921875 20.484375 11.0625 
Q 25.484375 6.203125 34.421875 6.203125 
Q 39.59375 6.203125 44.453125 7.46875 
Q 49.3125 8.734375 54.109375 11.28125 
L 54.109375 2.78125 
Q 49.265625 0.734375 44.1875 -0.34375 
Q 39.109375 -1.421875 33.890625 -1.421875 
Q 20.796875 -1.421875 13.15625 6.1875 
Q 5.515625 13.8125 5.515625 26.8125 
Q 5.515625 40.234375 12.765625 48.109375 
Q 20.015625 56 32.328125 56 
Q 43.359375 56 49.78125 48.890625 
Q 56.203125 41.796875 56.203125 29.59375 
z
M 47.21875 32.234375 
Q 47.125 39.59375 43.09375 43.984375 
Q 39.0625 48.390625 32.421875 48.390625 
Q 24.90625 48.390625 20.390625 44.140625 
Q 15.875 39.890625 15.1875 32.171875 
z
" id="DejaVuSans-101"/>
      <path id="DejaVuSans-32"/>
      <path d="M 19.671875 64.796875 
L 19.671875 37.40625 
L 32.078125 37.40625 
Q 38.96875 37.40625 42.71875 40.96875 
Q 46.484375 44.53125 46.484375 51.125 
Q 46.484375 57.671875 42.71875 61.234375 
Q 38.96875 64.796875 32.078125 64.796875 
z
M 9.8125 72.90625 
L 32.078125 72.90625 
Q 44.34375 72.90625 50.609375 67.359375 
Q 56.890625 61.8125 56.890625 51.125 
Q 56.890625 40.328125 50.609375 34.8125 
Q 44.34375 29.296875 32.078125 29.296875 
L 19.671875 29.296875 
L 19.671875 0 
L 9.8125 0 
z
" id="DejaVuSans-80"/>
      <path d="M 30.609375 48.390625 
Q 23.390625 48.390625 19.1875 42.75 
Q 14.984375 37.109375 14.984375 27.296875 
Q 14.984375 17.484375 19.15625 11.84375 
Q 23.34375 6.203125 30.609375 6.203125 
Q 37.796875 6.203125 41.984375 11.859375 
Q 46.1875 17.53125 46.1875 27.296875 
Q 46.1875 37.015625 41.984375 42.703125 
Q 37.796875 48.390625 30.609375 48.390625 
z
M 30.609375 56 
Q 42.328125 56 49.015625 48.375 
Q 55.71875 40.765625 55.71875 27.296875 
Q 55.71875 13.875 49.015625 6.21875 
Q 42.328125 -1.421875 30.609375 -1.421875 
Q 18.84375 -1.421875 12.171875 6.21875 
Q 5.515625 13.875 5.515625 27.296875 
Q 5.515625 40.765625 12.171875 48.375 
Q 18.84375 56 30.609375 56 
z
" id="DejaVuSans-111"/>
      <path d="M 9.421875 54.6875 
L 18.40625 54.6875 
L 18.40625 0 
L 9.421875 0 
z
M 9.421875 75.984375 
L 18.40625 75.984375 
L 18.40625 64.59375 
L 9.421875 64.59375 
z
" id="DejaVuSans-105"/>
      <path d="M 18.3125 70.21875 
L 18.3125 54.6875 
L 36.8125 54.6875 
L 36.8125 47.703125 
L 18.3125 47.703125 
L 18.3125 18.015625 
Q 18.3125 11.328125 20.140625 9.421875 
Q 21.96875 7.515625 27.59375 7.515625 
L 36.8125 7.515625 
L 36.8125 0 
L 27.59375 0 
Q 17.1875 0 13.234375 3.875 
Q 9.28125 7.765625 9.28125 18.015625 
L 9.28125 47.703125 
L 2.6875 47.703125 
L 2.6875 54.6875 
L 9.28125 54.6875 
L 9.28125 70.21875 
z
" id="DejaVuSans-116"/>
      <path d="M 2.984375 54.6875 
L 12.5 54.6875 
L 29.59375 8.796875 
L 46.6875 54.6875 
L 56.203125 54.6875 
L 35.6875 0 
L 23.484375 0 
z
" id="DejaVuSans-118"/>
      <path d="M 44.390625 34.1875 
Q 47.5625 33.109375 50.5625 29.59375 
Q 53.5625 26.078125 56.59375 19.921875 
L 66.609375 0 
L 56 0 
L 46.6875 18.703125 
Q 43.0625 26.03125 39.671875 28.421875 
Q 36.28125 30.8125 30.421875 30.8125 
L 19.671875 30.8125 
L 19.671875 0 
L 9.8125 0 
L 9.8125 72.90625 
L 32.078125 72.90625 
Q 44.578125 72.90625 50.734375 67.671875 
Q 56.890625 62.453125 56.890625 51.90625 
Q 56.890625 45.015625 53.6875 40.46875 
Q 50.484375 35.9375 44.390625 34.1875 
z
M 19.671875 64.796875 
L 19.671875 38.921875 
L 32.078125 38.921875 
Q 39.203125 38.921875 42.84375 42.21875 
Q 46.484375 45.515625 46.484375 51.90625 
Q 46.484375 58.296875 42.84375 61.546875 
Q 39.203125 64.796875 32.078125 64.796875 
z
" id="DejaVuSans-82"/>
     </defs>
     <g transform="translate(247.994531 540.916563)scale(0.1 -0.1)">
      <use xlink:href="#DejaVuSans-70"/>
      <use x="57.378906" xlink:href="#DejaVuSans-97"/>
      <use x="118.658203" xlink:href="#DejaVuSans-108"/>
      <use x="146.441406" xlink:href="#DejaVuSans-115"/>
      <use x="198.541016" xlink:href="#DejaVuSans-101"/>
      <use x="260.064453" xlink:href="#DejaVuSans-32"/>
      <use x="291.851562" xlink:href="#DejaVuSans-80"/>
      <use x="352.107422" xlink:href="#DejaVuSans-111"/>
      <use x="413.289062" xlink:href="#DejaVuSans-115"/>
      <use x="465.388672" xlink:href="#DejaVuSans-105"/>
      <use x="493.171875" xlink:href="#DejaVuSans-116"/>
      <use x="532.380859" xlink:href="#DejaVuSans-105"/>
      <use x="560.164062" xlink:href="#DejaVuSans-118"/>
      <use x="619.34375" xlink:href="#DejaVuSans-101"/>
      <use x="680.867188" xlink:href="#DejaVuSans-32"/>
      <use x="712.654297" xlink:href="#DejaVuSans-82"/>
      <use x="782.105469" xlink:href="#DejaVuSans-97"/>
      <use x="843.384766" xlink:href="#DejaVuSans-116"/>
      <use x="882.59375" xlink:href="#DejaVuSans-101"/>
     </g>
    </g>
   </g>
   <g id="matplotlib.axis_2">
    <g id="ytick_1">
     <g id="line2d_13">
      <path clip-path="url(#p4f2a7822ea)" d="M 72 512.64 
L 518.4 512.64 
" style="fill:none;stroke:#b0b0b0;stroke-linecap:square;stroke-width:0.8;"/>
     </g>
     <g id="line2d_14">
      <defs>
       <path d="M 0 0 
L -3.5 0 
" id="m7d7c47292b" style="stroke:#000000;stroke-width:0.8;"/>
      </defs>
      <g>
       <use style="stroke:#000000;stroke-width:0.8;" x="72" xlink:href="#m7d7c47292b" y="512.64"/>
      </g>
     </g>
     <g id="text_8">
      <!-- 0.0 -->
      <g transform="translate(49.096875 516.439219)scale(0.1 -0.1)">
       <use xlink:href="#DejaVuSans-48"/>
       <use x="63.623047" xlink:href="#DejaVuSans-46"/>
       <use x="95.410156" xlink:href="#DejaVuSans-48"/>
      </g>
     </g>
    </g>
    <g id="ytick_2">
     <g id="line2d_15">
      <path clip-path="url(#p4f2a7822ea)" d="M 72 428.16 
L 518.4 428.16 
" style="fill:none;stroke:#b0b0b0;stroke-linecap:square;stroke-width:0.8;"/>
     </g>
     <g id="line2d_16">
      <g>
       <use style="stroke:#000000;stroke-width:0.8;" x="72" xlink:href="#m7d7c47292b" y="428.16"/>
      </g>
     </g>
     <g id="text_9">
      <!-- 0.2 -->
      <g transform="translate(49.096875 431.959219)scale(0.1 -0.1)">
       <use xlink:href="#DejaVuSans-48"/>
       <use x="63.623047" xlink:href="#DejaVuSans-46"/>
       <use x="95.410156" xlink:href="#DejaVuSans-50"/>
      </g>
     </g>
    </g>
    <g id="ytick_3">
     <g id="line2d_17">
      <path clip-path="url(#p4f2a7822ea)" d="M 72 343.68 
L 518.4 343.68 
" style="fill:none;stroke:#b0b0b0;stroke-linecap:square;stroke-width:0.8;"/>
     </g>
     <g id="line2d_18">
      <g>
       <use style="stroke:#000000;stroke-width:0.8;" x="72" xlink:href="#m7d7c47292b" y="343.68"/>
      </g>
     </g>
     <g id="text_10">
      <!-- 0.4 -->
      <g transform="translate(49.096875 347.479219)scale(0.1 -0.1)">
       <use xlink:href="#DejaVuSans-48"/>
       <use x="63.623047" xlink:href="#DejaVuSans-46"/>
       <use x="95.410156" xlink:href="#DejaVuSans-52"/>
      </g>
     </g>
    </g>
    <g id="ytick_4">
     <g id="line2d_19">
      <path clip-path="url(#p4f2a7822ea)" d="M 72 259.2 
L 518.4 259.2 
" style="fill:none;stroke:#b0b0b0;stroke-linecap:square;stroke-width:0.8;"/>
     </g>
     <g id="line2d_20">
      <g>
       <use style="stroke:#000000;stroke-width:0.8;" x="72" xlink:href="#m7d7c47292b" y="259.2"/>
      </g>
     </g>
     <g id="text_11">
      <!-- 0.6 -->
      <g transform="translate(49.096875 262.999219)scale(0.1 -0.1)">
       <use xlink:href="#DejaVuSans-48"/>
       <use x="63.623047" xlink:href="#DejaVuSans-46"/>
       <use x="95.410156" xlink:href="#DejaVuSans-54"/>
      </g>
     </g>
    </g>
    <g id="ytick_5">
     <g id="line2d_21">
      <path clip-path="url(#p4f2a7822ea)" d="M 72 174.72 
L 518.4 174.72 
" style="fill:none;stroke:#b0b0b0;stroke-linecap:square;stroke-width:0.8;"/>
     </g>
     <g id="line2d_22">
      <g>
       <use style="stroke:#000000;stroke-width:0.8;" x="72" xlink:href="#m7d7c47292b" y="174.72"/>
      </g>
     </g>
     <g id="text_12">
      <!-- 0.8 -->
      <g transform="translate(49.096875 178.519219)scale(0.1 -0.1)">
       <use xlink:href="#DejaVuSans-48"/>
       <use x="63.623047" xlink:href="#DejaVuSans-46"/>
       <use x="95.410156" xlink:href="#DejaVuSans-56"/>
      </g>
     </g>
    </g>
    <g id="ytick_6">
     <g id="line2d_23">
      <path clip-path="url(#p4f2a7822ea)" d="M 72 90.24 
L 518.4 90.24 
" style="fill:none;stroke:#b0b0b0;stroke-linecap:square;stroke-width:0.8;"/>
     </g>
     <g id="line2d_24">
      <g>
       <use style="stroke:#000000;stroke-width:0.8;" x="72" xlink:href="#m7d7c47292b" y="90.24"/>
      </g>
     </g>
     <g id="text_13">
      <!-- 1.0 -->
      <g transform="translate(49.096875 94.039219)scale(0.1 -0.1)">
       <use xlink:href="#DejaVuSans-49"/>
       <use x="63.623047" xlink:href="#DejaVuSans-46"/>
       <use x="95.410156" xlink:href="#DejaVuSans-48"/>
      </g>
     </g>
    </g>
    <g id="text_14">
     <!-- True Positive Rate -->
     <defs>
      <path d="M -0.296875 72.90625 
L 61.375 72.90625 
L 61.375 64.59375 
L 35.5 64.59375 
L 35.5 0 
L 25.59375 0 
L 25.59375 64.59375 
L -0.296875 64.59375 
z
" id="DejaVuSans-84"/>
      <path d="M 41.109375 46.296875 
Q 39.59375 47.171875 37.8125 47.578125 
Q 36.03125 48 33.890625 48 
Q 26.265625 48 22.1875 43.046875 
Q 18.109375 38.09375 18.109375 28.8125 
L 18.109375 0 
L 9.078125 0 
L 9.078125 54.6875 
L 18.109375 54.6875 
L 18.109375 46.1875 
Q 20.953125 51.171875 25.484375 53.578125 
Q 30.03125 56 36.53125 56 
Q 37.453125 56 38.578125 55.875 
Q 39.703125 55.765625 41.0625 55.515625 
z
" id="DejaVuSans-114"/>
      <path d="M 8.5 21.578125 
L 8.5 54.6875 
L 17.484375 54.6875 
L 17.484375 21.921875 
Q 17.484375 14.15625 20.5 10.265625 
Q 23.53125 6.390625 29.59375 6.390625 
Q 36.859375 6.390625 41.078125 11.03125 
Q 45.3125 15.671875 45.3125 23.6875 
L 45.3125 54.6875 
L 54.296875 54.6875 
L 54.296875 0 
L 45.3125 0 
L 45.3125 8.40625 
Q 42.046875 3.421875 37.71875 1 
Q 33.40625 -1.421875 27.6875 -1.421875 
Q 18.265625 -1.421875 13.375 4.4375 
Q 8.5 10.296875 8.5 21.578125 
z
M 31.109375 56 
z
" id="DejaVuSans-117"/>
     </defs>
     <g transform="translate(43.017187 336.426094)rotate(-90)scale(0.1 -0.1)">
      <use xlink:href="#DejaVuSans-84"/>
      <use x="60.865234" xlink:href="#DejaVuSans-114"/>
      <use x="101.978516" xlink:href="#DejaVuSans-117"/>
      <use x="165.357422" xlink:href="#DejaVuSans-101"/>
      <use x="226.880859" xlink:href="#DejaVuSans-32"/>
      <use x="258.667969" xlink:href="#DejaVuSans-80"/>
      <use x="318.923828" xlink:href="#DejaVuSans-111"/>
      <use x="380.105469" xlink:href="#DejaVuSans-115"/>
      <use x="432.205078" xlink:href="#DejaVuSans-105"/>
      <use x="459.988281" xlink:href="#DejaVuSans-116"/>
      <use x="499.197266" xlink:href="#DejaVuSans-105"/>
      <use x="526.980469" xlink:href="#DejaVuSans-118"/>
      <use x="586.160156" xlink:href="#DejaVuSans-101"/>
      <use x="647.683594" xlink:href="#DejaVuSans-32"/>
      <use x="679.470703" xlink:href="#DejaVuSans-82"/>
      <use x="748.921875" xlink:href="#DejaVuSans-97"/>
      <use x="810.201172" xlink:href="#DejaVuSans-116"/>
      <use x="849.410156" xlink:href="#DejaVuSans-101"/>
     </g>
    </g>
   </g>
   <g id="line2d_25">
    <path clip-path="url(#p4f2a7822ea)" d="M 72 512.64 
L 72 493.866667 
L 72.381538 493.866667 
L 72.381538 485.563077 
L 72.763077 485.563077 
L 72.763077 480.869744 
L 73.144615 480.869744 
L 73.144615 474.732308 
L 73.526154 474.732308 
L 73.526154 474.010256 
L 73.907692 474.010256 
L 73.907692 470.4 
L 74.289231 470.4 
L 74.289231 461.374359 
L 74.670769 461.374359 
L 74.670769 459.930256 
L 75.052308 459.930256 
L 75.052308 459.208205 
L 75.433846 459.208205 
L 75.433846 457.764103 
L 75.815385 457.764103 
L 75.815385 455.597949 
L 76.196923 455.597949 
L 76.196923 442.601026 
L 76.578462 442.601026 
L 76.578462 437.907692 
L 76.96 437.907692 
L 76.96 433.93641 
L 77.341538 433.93641 
L 77.341538 432.492308 
L 77.723077 432.492308 
L 77.723077 432.131282 
L 78.104615 432.131282 
L 78.104615 429.965128 
L 78.486154 429.965128 
L 78.486154 428.521026 
L 78.867692 428.521026 
L 78.867692 423.466667 
L 79.249231 423.466667 
L 79.249231 421.661538 
L 79.630769 421.661538 
L 79.630769 420.217436 
L 80.012308 420.217436 
L 80.012308 419.495385 
L 80.393846 419.495385 
L 80.393846 418.412308 
L 80.775385 418.412308 
L 80.775385 416.607179 
L 81.156923 416.607179 
L 81.156923 415.885128 
L 81.538462 415.885128 
L 81.538462 413.357949 
L 81.92 413.357949 
L 81.92 410.469744 
L 82.683077 410.469744 
L 82.683077 409.747692 
L 83.064615 409.747692 
L 83.064615 407.942564 
L 83.446154 407.942564 
L 83.446154 407.581538 
L 83.827692 407.581538 
L 83.827692 406.498462 
L 84.209231 406.498462 
L 84.209231 405.77641 
L 84.590769 405.77641 
L 84.590769 403.971282 
L 85.353846 403.971282 
L 85.353846 402.888205 
L 86.116923 402.888205 
L 86.116923 402.527179 
L 86.498462 402.527179 
L 86.498462 402.166154 
L 88.406154 402.166154 
L 88.406154 401.805128 
L 88.787692 401.805128 
L 88.787692 401.444103 
L 89.169231 401.444103 
L 89.169231 400.361026 
L 89.550769 400.361026 
L 89.550769 399.277949 
L 90.313846 399.277949 
L 90.313846 398.194872 
L 90.695385 398.194872 
L 90.695385 396.028718 
L 91.076923 396.028718 
L 91.076923 395.306667 
L 91.84 395.306667 
L 91.84 394.945641 
L 92.221538 394.945641 
L 92.221538 393.140513 
L 92.603077 393.140513 
L 92.603077 392.418462 
L 92.984615 392.418462 
L 92.984615 390.252308 
L 93.747692 390.252308 
L 93.747692 388.447179 
L 94.892308 388.447179 
L 94.892308 384.836923 
L 95.273846 384.836923 
L 95.273846 384.114872 
L 96.036923 384.114872 
L 96.036923 383.753846 
L 96.418462 383.753846 
L 96.418462 381.948718 
L 97.563077 381.948718 
L 97.563077 380.504615 
L 97.944615 380.504615 
L 97.944615 380.14359 
L 98.326154 380.14359 
L 98.326154 379.060513 
L 98.707692 379.060513 
L 98.707692 377.977436 
L 99.089231 377.977436 
L 99.089231 377.255385 
L 99.470769 377.255385 
L 99.470769 376.172308 
L 99.852308 376.172308 
L 99.852308 375.811282 
L 100.233846 375.811282 
L 100.233846 375.450256 
L 100.615385 375.450256 
L 100.615385 375.089231 
L 102.141538 375.089231 
L 102.141538 372.923077 
L 102.523077 372.923077 
L 102.523077 372.562051 
L 104.049231 372.562051 
L 104.049231 372.201026 
L 104.812308 372.201026 
L 104.812308 370.756923 
L 105.956923 370.756923 
L 105.956923 370.395897 
L 106.338462 370.395897 
L 106.338462 369.312821 
L 106.72 369.312821 
L 106.72 367.868718 
L 107.101538 367.868718 
L 107.101538 367.507692 
L 107.483077 367.507692 
L 107.483077 367.146667 
L 107.864615 367.146667 
L 107.864615 366.785641 
L 108.627692 366.785641 
L 108.627692 365.702564 
L 109.390769 365.702564 
L 109.390769 365.341538 
L 109.772308 365.341538 
L 109.772308 364.619487 
L 110.153846 364.619487 
L 110.153846 363.897436 
L 110.535385 363.897436 
L 110.535385 363.53641 
L 112.061538 363.53641 
L 112.061538 363.175385 
L 112.443077 363.175385 
L 112.443077 361.731282 
L 113.206154 361.731282 
L 113.206154 360.648205 
L 113.587692 360.648205 
L 113.587692 359.926154 
L 114.732308 359.926154 
L 114.732308 359.204103 
L 115.495385 359.204103 
L 115.495385 358.843077 
L 116.258462 358.843077 
L 116.258462 357.76 
L 117.021538 357.76 
L 117.021538 356.315897 
L 117.403077 356.315897 
L 117.403077 355.954872 
L 117.784615 355.954872 
L 117.784615 355.232821 
L 118.547692 355.232821 
L 118.547692 354.871795 
L 118.929231 354.871795 
L 118.929231 354.510769 
L 119.310769 354.510769 
L 119.310769 353.427692 
L 119.692308 353.427692 
L 119.692308 353.066667 
L 120.073846 353.066667 
L 120.073846 352.705641 
L 120.455385 352.705641 
L 120.455385 351.98359 
L 120.836923 351.98359 
L 120.836923 351.622564 
L 121.6 351.622564 
L 121.6 350.178462 
L 121.981538 350.178462 
L 121.981538 348.012308 
L 122.363077 348.012308 
L 122.363077 347.651282 
L 122.744615 347.651282 
L 122.744615 346.929231 
L 123.126154 346.929231 
L 123.126154 346.568205 
L 123.507692 346.568205 
L 123.507692 345.846154 
L 124.270769 345.846154 
L 124.270769 345.485128 
L 124.652308 345.485128 
L 124.652308 344.041026 
L 125.033846 344.041026 
L 125.033846 341.513846 
L 125.796923 341.513846 
L 125.796923 340.791795 
L 126.178462 340.791795 
L 126.178462 340.430769 
L 126.56 340.430769 
L 126.56 340.069744 
L 126.941538 340.069744 
L 126.941538 339.708718 
L 127.323077 339.708718 
L 127.323077 337.90359 
L 127.704615 337.90359 
L 127.704615 337.181538 
L 128.086154 337.181538 
L 128.086154 336.459487 
L 128.467692 336.459487 
L 128.467692 336.098462 
L 128.849231 336.098462 
L 128.849231 335.737436 
L 129.230769 335.737436 
L 129.230769 334.654359 
L 129.993846 334.654359 
L 129.993846 333.210256 
L 130.756923 333.210256 
L 130.756923 332.488205 
L 131.138462 332.488205 
L 131.138462 332.127179 
L 131.52 332.127179 
L 131.52 331.044103 
L 131.901538 331.044103 
L 131.901538 329.961026 
L 132.283077 329.961026 
L 132.283077 329.6 
L 132.664615 329.6 
L 132.664615 327.433846 
L 133.046154 327.433846 
L 133.046154 326.350769 
L 133.427692 326.350769 
L 133.427692 325.628718 
L 133.809231 325.628718 
L 133.809231 325.267692 
L 134.190769 325.267692 
L 134.190769 324.906667 
L 134.572308 324.906667 
L 134.572308 324.545641 
L 135.716923 324.545641 
L 135.716923 324.184615 
L 136.48 324.184615 
L 136.48 323.101538 
L 136.861538 323.101538 
L 136.861538 322.740513 
L 137.624615 322.740513 
L 137.624615 322.379487 
L 138.006154 322.379487 
L 138.006154 321.29641 
L 138.769231 321.29641 
L 138.769231 320.213333 
L 139.532308 320.213333 
L 139.532308 319.130256 
L 141.058462 319.130256 
L 141.058462 318.408205 
L 141.44 318.408205 
L 141.44 318.047179 
L 141.821538 318.047179 
L 141.821538 316.964103 
L 142.584615 316.964103 
L 142.584615 315.158974 
L 142.966154 315.158974 
L 142.966154 312.992821 
L 144.110769 312.992821 
L 144.110769 311.548718 
L 144.873846 311.548718 
L 144.873846 309.74359 
L 145.255385 309.74359 
L 145.255385 308.660513 
L 145.636923 308.660513 
L 145.636923 308.299487 
L 146.018462 308.299487 
L 146.018462 307.21641 
L 146.781538 307.21641 
L 146.781538 306.855385 
L 147.163077 306.855385 
L 147.163077 306.494359 
L 147.544615 306.494359 
L 147.544615 305.772308 
L 147.926154 305.772308 
L 147.926154 304.328205 
L 149.833846 304.328205 
L 149.833846 303.606154 
L 150.978462 303.606154 
L 150.978462 303.245128 
L 151.36 303.245128 
L 151.36 302.162051 
L 151.741538 302.162051 
L 151.741538 301.801026 
L 152.123077 301.801026 
L 152.123077 298.190769 
L 152.504615 298.190769 
L 152.504615 297.107692 
L 152.886154 297.107692 
L 152.886154 296.385641 
L 153.267692 296.385641 
L 153.267692 296.024615 
L 155.175385 296.024615 
L 155.175385 295.302564 
L 155.556923 295.302564 
L 155.556923 293.858462 
L 155.938462 293.858462 
L 155.938462 292.775385 
L 156.32 292.775385 
L 156.32 291.331282 
L 156.701538 291.331282 
L 156.701538 289.887179 
L 157.083077 289.887179 
L 157.083077 289.526154 
L 158.227692 289.526154 
L 158.227692 288.443077 
L 158.609231 288.443077 
L 158.609231 287.721026 
L 159.372308 287.721026 
L 159.372308 286.998974 
L 159.753846 286.998974 
L 159.753846 285.554872 
L 160.898462 285.554872 
L 160.898462 284.832821 
L 161.28 284.832821 
L 161.28 283.027692 
L 161.661538 283.027692 
L 161.661538 282.305641 
L 162.043077 282.305641 
L 162.043077 280.861538 
L 162.806154 280.861538 
L 162.806154 280.500513 
L 163.187692 280.500513 
L 163.187692 277.973333 
L 163.950769 277.973333 
L 163.950769 277.251282 
L 164.713846 277.251282 
L 164.713846 276.890256 
L 165.095385 276.890256 
L 165.095385 276.529231 
L 166.24 276.529231 
L 166.24 276.168205 
L 167.003077 276.168205 
L 167.003077 274.724103 
L 167.384615 274.724103 
L 167.384615 274.363077 
L 168.147692 274.363077 
L 168.147692 273.28 
L 170.055385 273.28 
L 170.055385 272.918974 
L 170.436923 272.918974 
L 170.436923 272.557949 
L 171.2 272.557949 
L 171.2 271.835897 
L 171.581538 271.835897 
L 171.581538 270.752821 
L 172.726154 270.752821 
L 172.726154 270.030769 
L 173.489231 270.030769 
L 173.489231 269.669744 
L 173.870769 269.669744 
L 173.870769 269.308718 
L 174.633846 269.308718 
L 174.633846 268.225641 
L 175.015385 268.225641 
L 175.015385 267.864615 
L 176.16 267.864615 
L 176.16 265.698462 
L 177.304615 265.698462 
L 177.304615 264.615385 
L 179.212308 264.615385 
L 179.212308 263.171282 
L 179.593846 263.171282 
L 179.593846 259.561026 
L 179.975385 259.561026 
L 179.975385 258.838974 
L 180.356923 258.838974 
L 180.356923 258.477949 
L 180.738462 258.477949 
L 180.738462 257.394872 
L 181.12 257.394872 
L 181.12 256.311795 
L 181.501538 256.311795 
L 181.501538 255.950769 
L 181.883077 255.950769 
L 181.883077 255.589744 
L 183.027692 255.589744 
L 183.027692 255.228718 
L 183.409231 255.228718 
L 183.409231 254.867692 
L 184.553846 254.867692 
L 184.553846 254.506667 
L 185.316923 254.506667 
L 185.316923 254.145641 
L 185.698462 254.145641 
L 185.698462 253.784615 
L 186.461538 253.784615 
L 186.461538 253.42359 
L 186.843077 253.42359 
L 186.843077 253.062564 
L 187.224615 253.062564 
L 187.224615 251.979487 
L 188.369231 251.979487 
L 188.369231 251.618462 
L 189.132308 251.618462 
L 189.132308 251.257436 
L 189.895385 251.257436 
L 189.895385 250.174359 
L 190.276923 250.174359 
L 190.276923 247.286154 
L 190.658462 247.286154 
L 190.658462 246.925128 
L 191.04 246.925128 
L 191.04 245.481026 
L 191.421538 245.481026 
L 191.421538 244.036923 
L 191.803077 244.036923 
L 191.803077 243.675897 
L 192.947692 243.675897 
L 192.947692 243.314872 
L 193.329231 243.314872 
L 193.329231 242.953846 
L 194.473846 242.953846 
L 194.473846 242.592821 
L 196 242.592821 
L 196 242.231795 
L 196.381538 242.231795 
L 196.381538 241.870769 
L 196.763077 241.870769 
L 196.763077 241.148718 
L 197.144615 241.148718 
L 197.144615 239.704615 
L 197.907692 239.704615 
L 197.907692 238.982564 
L 198.289231 238.982564 
L 198.289231 238.260513 
L 199.433846 238.260513 
L 199.433846 237.899487 
L 199.815385 237.899487 
L 199.815385 237.538462 
L 200.196923 237.538462 
L 200.196923 237.177436 
L 201.723077 237.177436 
L 201.723077 236.81641 
L 202.104615 236.81641 
L 202.104615 235.733333 
L 202.486154 235.733333 
L 202.486154 235.372308 
L 203.249231 235.372308 
L 203.249231 234.289231 
L 204.012308 234.289231 
L 204.012308 233.567179 
L 204.775385 233.567179 
L 204.775385 233.206154 
L 205.156923 233.206154 
L 205.156923 232.845128 
L 205.538462 232.845128 
L 205.538462 232.484103 
L 205.92 232.484103 
L 205.92 232.123077 
L 207.064615 232.123077 
L 207.064615 231.762051 
L 207.827692 231.762051 
L 207.827692 229.956923 
L 210.116923 229.956923 
L 210.116923 229.595897 
L 210.498462 229.595897 
L 210.498462 228.873846 
L 210.88 228.873846 
L 210.88 228.512821 
L 211.261538 228.512821 
L 211.261538 228.151795 
L 211.643077 228.151795 
L 211.643077 227.068718 
L 212.024615 227.068718 
L 212.024615 226.707692 
L 212.787692 226.707692 
L 212.787692 225.985641 
L 213.550769 225.985641 
L 213.550769 225.26359 
L 213.932308 225.26359 
L 213.932308 224.902564 
L 214.313846 224.902564 
L 214.313846 223.458462 
L 215.458462 223.458462 
L 215.458462 222.73641 
L 215.84 222.73641 
L 215.84 222.375385 
L 216.221538 222.375385 
L 216.221538 221.292308 
L 216.603077 221.292308 
L 216.603077 220.570256 
L 216.984615 220.570256 
L 216.984615 220.209231 
L 217.747692 220.209231 
L 217.747692 219.487179 
L 219.273846 219.487179 
L 219.273846 218.765128 
L 219.655385 218.765128 
L 219.655385 218.043077 
L 220.418462 218.043077 
L 220.418462 216.237949 
L 220.8 216.237949 
L 220.8 215.876923 
L 221.181538 215.876923 
L 221.181538 214.071795 
L 223.089231 214.071795 
L 223.089231 212.988718 
L 224.233846 212.988718 
L 224.233846 212.266667 
L 224.615385 212.266667 
L 224.615385 211.905641 
L 227.286154 211.905641 
L 227.286154 211.544615 
L 227.667692 211.544615 
L 227.667692 210.461538 
L 228.049231 210.461538 
L 228.049231 210.100513 
L 229.956923 210.100513 
L 229.956923 208.65641 
L 230.338462 208.65641 
L 230.338462 207.934359 
L 230.72 207.934359 
L 230.72 206.851282 
L 231.101538 206.851282 
L 231.101538 206.490256 
L 231.483077 206.490256 
L 231.483077 206.129231 
L 231.864615 206.129231 
L 231.864615 205.407179 
L 233.772308 205.407179 
L 233.772308 203.602051 
L 234.535385 203.602051 
L 234.535385 202.518974 
L 235.68 202.518974 
L 235.68 201.796923 
L 236.061538 201.796923 
L 236.061538 201.435897 
L 237.206154 201.435897 
L 237.206154 201.074872 
L 238.350769 201.074872 
L 238.350769 200.352821 
L 238.732308 200.352821 
L 238.732308 199.269744 
L 239.113846 199.269744 
L 239.113846 198.908718 
L 239.495385 198.908718 
L 239.495385 196.742564 
L 240.258462 196.742564 
L 240.258462 196.381538 
L 242.547692 196.381538 
L 242.547692 196.020513 
L 243.692308 196.020513 
L 243.692308 195.659487 
L 244.073846 195.659487 
L 244.073846 195.298462 
L 247.507692 195.298462 
L 247.507692 194.937436 
L 249.033846 194.937436 
L 249.033846 194.57641 
L 250.56 194.57641 
L 250.56 194.215385 
L 250.941538 194.215385 
L 250.941538 193.854359 
L 251.323077 193.854359 
L 251.323077 193.132308 
L 252.086154 193.132308 
L 252.086154 191.688205 
L 252.849231 191.688205 
L 252.849231 191.327179 
L 253.993846 191.327179 
L 253.993846 190.966154 
L 255.52 190.966154 
L 255.52 188.8 
L 255.901538 188.8 
L 255.901538 188.438974 
L 256.283077 188.438974 
L 256.283077 187.355897 
L 258.953846 187.355897 
L 258.953846 186.994872 
L 259.335385 186.994872 
L 259.335385 186.633846 
L 260.098462 186.633846 
L 260.098462 185.550769 
L 260.861538 185.550769 
L 260.861538 185.189744 
L 261.243077 185.189744 
L 261.243077 184.828718 
L 263.532308 184.828718 
L 263.532308 184.467692 
L 265.821538 184.467692 
L 265.821538 184.106667 
L 266.203077 184.106667 
L 266.203077 183.745641 
L 267.347692 183.745641 
L 267.347692 183.384615 
L 267.729231 183.384615 
L 267.729231 183.02359 
L 268.110769 183.02359 
L 268.110769 182.662564 
L 269.255385 182.662564 
L 269.255385 182.301538 
L 270.018462 182.301538 
L 270.018462 181.940513 
L 272.307692 181.940513 
L 272.307692 180.49641 
L 272.689231 180.49641 
L 272.689231 180.135385 
L 273.452308 180.135385 
L 273.452308 179.413333 
L 273.833846 179.413333 
L 273.833846 179.052308 
L 274.978462 179.052308 
L 274.978462 177.969231 
L 277.267692 177.969231 
L 277.267692 177.247179 
L 278.030769 177.247179 
L 278.030769 176.164103 
L 278.412308 176.164103 
L 278.412308 175.442051 
L 279.175385 175.442051 
L 279.175385 175.081026 
L 279.556923 175.081026 
L 279.556923 174.72 
L 279.938462 174.72 
L 279.938462 172.914872 
L 280.32 172.914872 
L 280.32 171.831795 
L 281.083077 171.831795 
L 281.083077 171.109744 
L 282.990769 171.109744 
L 282.990769 170.387692 
L 283.753846 170.387692 
L 283.753846 169.304615 
L 285.661538 169.304615 
L 285.661538 168.94359 
L 287.569231 168.94359 
L 287.569231 168.582564 
L 288.332308 168.582564 
L 288.332308 168.221538 
L 289.095385 168.221538 
L 289.095385 167.499487 
L 289.476923 167.499487 
L 289.476923 166.777436 
L 291.003077 166.777436 
L 291.003077 166.41641 
L 291.384615 166.41641 
L 291.384615 166.055385 
L 292.147692 166.055385 
L 292.147692 165.333333 
L 292.529231 165.333333 
L 292.529231 163.889231 
L 293.292308 163.889231 
L 293.292308 163.528205 
L 293.673846 163.528205 
L 293.673846 162.806154 
L 294.436923 162.806154 
L 294.436923 162.084103 
L 295.2 162.084103 
L 295.2 161.362051 
L 295.963077 161.362051 
L 295.963077 161.001026 
L 296.344615 161.001026 
L 296.344615 160.64 
L 297.107692 160.64 
L 297.107692 159.917949 
L 297.870769 159.917949 
L 297.870769 159.195897 
L 298.633846 159.195897 
L 298.633846 158.473846 
L 299.396923 158.473846 
L 299.396923 158.112821 
L 299.778462 158.112821 
L 299.778462 155.224615 
L 300.16 155.224615 
L 300.16 154.86359 
L 300.923077 154.86359 
L 300.923077 154.141538 
L 301.686154 154.141538 
L 301.686154 153.780513 
L 305.501538 153.780513 
L 305.501538 152.697436 
L 306.264615 152.697436 
L 306.264615 152.33641 
L 308.553846 152.33641 
L 308.553846 151.975385 
L 309.698462 151.975385 
L 309.698462 150.531282 
L 310.843077 150.531282 
L 310.843077 150.170256 
L 312.750769 150.170256 
L 312.750769 149.809231 
L 313.132308 149.809231 
L 313.132308 149.448205 
L 313.513846 149.448205 
L 313.513846 149.087179 
L 313.895385 149.087179 
L 313.895385 148.726154 
L 314.658462 148.726154 
L 314.658462 148.365128 
L 315.421538 148.365128 
L 315.421538 147.643077 
L 316.184615 147.643077 
L 316.184615 147.282051 
L 316.566154 147.282051 
L 316.566154 146.921026 
L 318.473846 146.921026 
L 318.473846 146.56 
L 319.236923 146.56 
L 319.236923 146.198974 
L 320 146.198974 
L 320 144.754872 
L 321.144615 144.754872 
L 321.144615 144.032821 
L 321.526154 144.032821 
L 321.526154 143.310769 
L 321.907692 143.310769 
L 321.907692 142.949744 
L 322.289231 142.949744 
L 322.289231 142.588718 
L 324.196923 142.588718 
L 324.196923 142.227692 
L 325.341538 142.227692 
L 325.341538 141.144615 
L 326.104615 141.144615 
L 326.104615 140.061538 
L 326.486154 140.061538 
L 326.486154 139.700513 
L 328.775385 139.700513 
L 328.775385 139.339487 
L 329.156923 139.339487 
L 329.156923 138.617436 
L 331.827692 138.617436 
L 331.827692 138.25641 
L 334.116923 138.25641 
L 334.116923 136.812308 
L 334.498462 136.812308 
L 334.498462 135.007179 
L 334.88 135.007179 
L 334.88 133.924103 
L 335.643077 133.924103 
L 335.643077 133.563077 
L 336.406154 133.563077 
L 336.406154 133.202051 
L 337.550769 133.202051 
L 337.550769 132.841026 
L 337.932308 132.841026 
L 337.932308 132.118974 
L 338.695385 132.118974 
L 338.695385 131.396923 
L 339.076923 131.396923 
L 339.076923 130.313846 
L 340.603077 130.313846 
L 340.603077 129.591795 
L 341.366154 129.591795 
L 341.366154 128.147692 
L 342.129231 128.147692 
L 342.129231 127.786667 
L 344.418462 127.786667 
L 344.418462 127.064615 
L 345.181538 127.064615 
L 345.181538 126.70359 
L 345.944615 126.70359 
L 345.944615 126.342564 
L 346.326154 126.342564 
L 346.326154 125.981538 
L 346.707692 125.981538 
L 346.707692 124.898462 
L 347.089231 124.898462 
L 347.089231 123.454359 
L 347.470769 123.454359 
L 347.470769 122.371282 
L 348.233846 122.371282 
L 348.233846 122.010256 
L 348.996923 122.010256 
L 348.996923 121.288205 
L 350.141538 121.288205 
L 350.141538 120.927179 
L 350.523077 120.927179 
L 350.523077 120.566154 
L 351.286154 120.566154 
L 351.286154 120.205128 
L 351.667692 120.205128 
L 351.667692 119.483077 
L 354.72 119.483077 
L 354.72 119.122051 
L 355.864615 119.122051 
L 355.864615 118.761026 
L 356.246154 118.761026 
L 356.246154 118.038974 
L 357.772308 118.038974 
L 357.772308 117.677949 
L 358.153846 117.677949 
L 358.153846 117.316923 
L 360.443077 117.316923 
L 360.443077 116.594872 
L 361.969231 116.594872 
L 361.969231 116.233846 
L 363.113846 116.233846 
L 363.113846 115.872821 
L 365.021538 115.872821 
L 365.021538 115.511795 
L 365.784615 115.511795 
L 365.784615 114.789744 
L 369.981538 114.789744 
L 369.981538 114.067692 
L 375.323077 114.067692 
L 375.323077 113.706667 
L 378.375385 113.706667 
L 378.375385 113.345641 
L 379.138462 113.345641 
L 379.138462 112.984615 
L 381.046154 112.984615 
L 381.046154 112.62359 
L 382.190769 112.62359 
L 382.190769 112.262564 
L 383.335385 112.262564 
L 383.335385 111.901538 
L 384.861538 111.901538 
L 384.861538 111.179487 
L 386.006154 111.179487 
L 386.006154 110.818462 
L 392.110769 110.818462 
L 392.110769 110.457436 
L 392.492308 110.457436 
L 392.492308 110.09641 
L 395.544615 110.09641 
L 395.544615 109.735385 
L 396.689231 109.735385 
L 396.689231 109.013333 
L 397.070769 109.013333 
L 397.070769 108.652308 
L 397.452308 108.652308 
L 397.452308 108.291282 
L 397.833846 108.291282 
L 397.833846 107.930256 
L 401.649231 107.930256 
L 401.649231 107.208205 
L 402.793846 107.208205 
L 402.793846 106.847179 
L 403.556923 106.847179 
L 403.556923 106.125128 
L 405.464615 106.125128 
L 405.464615 105.403077 
L 407.372308 105.403077 
L 407.372308 105.042051 
L 410.043077 105.042051 
L 410.043077 104.681026 
L 410.424615 104.681026 
L 410.424615 104.32 
L 413.095385 104.32 
L 413.095385 103.958974 
L 415.003077 103.958974 
L 415.003077 103.597949 
L 415.766154 103.597949 
L 415.766154 103.236923 
L 416.529231 103.236923 
L 416.529231 102.875897 
L 416.910769 102.875897 
L 416.910769 102.514872 
L 417.673846 102.514872 
L 417.673846 102.153846 
L 419.2 102.153846 
L 419.2 101.792821 
L 419.963077 101.792821 
L 419.963077 101.070769 
L 421.489231 101.070769 
L 421.489231 100.709744 
L 427.212308 100.709744 
L 427.212308 100.348718 
L 432.553846 100.348718 
L 432.553846 99.987692 
L 434.08 99.987692 
L 434.08 99.626667 
L 434.843077 99.626667 
L 434.843077 98.904615 
L 437.132308 98.904615 
L 437.132308 98.54359 
L 438.276923 98.54359 
L 438.276923 98.182564 
L 446.289231 98.182564 
L 446.289231 97.821538 
L 448.96 97.821538 
L 448.96 97.460513 
L 449.341538 97.460513 
L 449.341538 97.099487 
L 463.84 97.099487 
L 463.84 96.738462 
L 465.366154 96.738462 
L 465.366154 96.01641 
L 466.129231 96.01641 
L 466.129231 95.655385 
L 466.510769 95.655385 
L 466.510769 95.294359 
L 467.655385 95.294359 
L 467.655385 94.572308 
L 473.378462 94.572308 
L 473.378462 93.850256 
L 474.904615 93.850256 
L 474.904615 93.489231 
L 476.049231 93.489231 
L 476.049231 93.128205 
L 476.430769 93.128205 
L 476.430769 92.767179 
L 479.101538 92.767179 
L 479.101538 92.406154 
L 480.627692 92.406154 
L 480.627692 92.045128 
L 482.535385 92.045128 
L 482.535385 91.684103 
L 485.587692 91.684103 
L 485.587692 91.323077 
L 493.981538 91.323077 
L 493.981538 90.962051 
L 496.652308 90.962051 
L 496.652308 90.601026 
L 502.756923 90.601026 
L 502.756923 90.24 
L 518.4 90.24 
L 518.4 90.24 
" style="fill:none;stroke:#ff8c00;stroke-linecap:square;stroke-width:2;"/>
   </g>
   <g id="line2d_26">
    <path clip-path="url(#p4f2a7822ea)" d="M 72 512.64 
L 518.4 90.24 
" style="fill:none;stroke:#000080;stroke-dasharray:7.4,3.2;stroke-dashoffset:0;stroke-width:2;"/>
   </g>
   <g id="patch_3">
    <path d="M 72 512.64 
L 72 69.12 
" style="fill:none;stroke:#000000;stroke-linecap:square;stroke-linejoin:miter;stroke-width:0.8;"/>
   </g>
   <g id="patch_4">
    <path d="M 518.4 512.64 
L 518.4 69.12 
" style="fill:none;stroke:#000000;stroke-linecap:square;stroke-linejoin:miter;stroke-width:0.8;"/>
   </g>
   <g id="patch_5">
    <path d="M 72 512.64 
L 518.4 512.64 
" style="fill:none;stroke:#000000;stroke-linecap:square;stroke-linejoin:miter;stroke-width:0.8;"/>
   </g>
   <g id="patch_6">
    <path d="M 72 69.12 
L 518.4 69.12 
" style="fill:none;stroke:#000000;stroke-linecap:square;stroke-linejoin:miter;stroke-width:0.8;"/>
   </g>
   <g id="legend_1">
    <g id="patch_7">
     <path d="M 427.081875 509.64 
L 514.2 509.64 
Q 515.4 509.64 515.4 508.44 
L 515.4 500.233125 
Q 515.4 499.033125 514.2 499.033125 
L 427.081875 499.033125 
Q 425.881875 499.033125 425.881875 500.233125 
L 425.881875 508.44 
Q 425.881875 509.64 427.081875 509.64 
z
" style="fill:#ffffff;opacity:0.8;stroke:#cccccc;stroke-linejoin:miter;"/>
    </g>
    <g id="line2d_27">
     <path d="M 428.281875 503.892187 
L 440.281875 503.892187 
" style="fill:none;stroke:#ff8c00;stroke-linecap:square;stroke-width:2;"/>
    </g>
    <g id="line2d_28"/>
    <g id="text_15">
     <!-- D008171 (area =0.76) -->
     <defs>
      <path d="M 19.671875 64.796875 
L 19.671875 8.109375 
L 31.59375 8.109375 
Q 46.6875 8.109375 53.6875 14.9375 
Q 60.6875 21.78125 60.6875 36.53125 
Q 60.6875 51.171875 53.6875 57.984375 
Q 46.6875 64.796875 31.59375 64.796875 
z
M 9.8125 72.90625 
L 30.078125 72.90625 
Q 51.265625 72.90625 61.171875 64.09375 
Q 71.09375 55.28125 71.09375 36.53125 
Q 71.09375 17.671875 61.125 8.828125 
Q 51.171875 0 30.078125 0 
L 9.8125 0 
z
" id="DejaVuSans-68"/>
      <path d="M 8.203125 72.90625 
L 55.078125 72.90625 
L 55.078125 68.703125 
L 28.609375 0 
L 18.3125 0 
L 43.21875 64.59375 
L 8.203125 64.59375 
z
" id="DejaVuSans-55"/>
      <path d="M 31 75.875 
Q 24.46875 64.65625 21.28125 53.65625 
Q 18.109375 42.671875 18.109375 31.390625 
Q 18.109375 20.125 21.3125 9.0625 
Q 24.515625 -2 31 -13.1875 
L 23.1875 -13.1875 
Q 15.875 -1.703125 12.234375 9.375 
Q 8.59375 20.453125 8.59375 31.390625 
Q 8.59375 42.28125 12.203125 53.3125 
Q 15.828125 64.359375 23.1875 75.875 
z
" id="DejaVuSans-40"/>
      <path d="M 10.59375 45.40625 
L 73.1875 45.40625 
L 73.1875 37.203125 
L 10.59375 37.203125 
z
M 10.59375 25.484375 
L 73.1875 25.484375 
L 73.1875 17.1875 
L 10.59375 17.1875 
z
" id="DejaVuSans-61"/>
      <path d="M 8.015625 75.875 
L 15.828125 75.875 
Q 23.140625 64.359375 26.78125 53.3125 
Q 30.421875 42.28125 30.421875 31.390625 
Q 30.421875 20.453125 26.78125 9.375 
Q 23.140625 -1.703125 15.828125 -13.1875 
L 8.015625 -13.1875 
Q 14.5 -2 17.703125 9.0625 
Q 20.90625 20.125 20.90625 31.390625 
Q 20.90625 42.671875 17.703125 53.65625 
Q 14.5 64.65625 8.015625 75.875 
z
" id="DejaVuSans-41"/>
     </defs>
     <g transform="translate(445.081875 505.992188)scale(0.06 -0.06)">
      <use xlink:href="#DejaVuSans-68"/>
      <use x="77.001953" xlink:href="#DejaVuSans-48"/>
      <use x="140.625" xlink:href="#DejaVuSans-48"/>
      <use x="204.248047" xlink:href="#DejaVuSans-56"/>
      <use x="267.871094" xlink:href="#DejaVuSans-49"/>
      <use x="331.494141" xlink:href="#DejaVuSans-55"/>
      <use x="395.117188" xlink:href="#DejaVuSans-49"/>
      <use x="458.740234" xlink:href="#DejaVuSans-32"/>
      <use x="490.527344" xlink:href="#DejaVuSans-40"/>
      <use x="529.541016" xlink:href="#DejaVuSans-97"/>
      <use x="590.820312" xlink:href="#DejaVuSans-114"/>
      <use x="631.902344" xlink:href="#DejaVuSans-101"/>
      <use x="693.425781" xlink:href="#DejaVuSans-97"/>
      <use x="754.705078" xlink:href="#DejaVuSans-32"/>
      <use x="786.492188" xlink:href="#DejaVuSans-61"/>
      <use x="870.28125" xlink:href="#DejaVuSans-48"/>
      <use x="933.904297" xlink:href="#DejaVuSans-46"/>
      <use x="965.691406" xlink:href="#DejaVuSans-55"/>
      <use x="1029.314453" xlink:href="#DejaVuSans-54"/>
      <use x="1092.9375" xlink:href="#DejaVuSans-41"/>
     </g>
    </g>
   </g>
  </g>
 </g>
 <defs>
  <clipPath id="p4f2a7822ea">
   <rect height="443.52" width="446.4" x="72" y="69.12"/>
  </clipPath>
 </defs>
</svg>
