<?xml version="1.0" encoding="utf-8" standalone="no"?>
<!DOCTYPE svg PUBLIC "-//W3C//DTD SVG 1.1//EN"
  "http://www.w3.org/Graphics/SVG/1.1/DTD/svg11.dtd">
<!-- Created with matplotlib (https://matplotlib.org/) -->
<svg height="432pt" version="1.1" viewBox="0 0 720 432" width="720pt" xmlns="http://www.w3.org/2000/svg" xmlns:xlink="http://www.w3.org/1999/xlink">
 <defs>
  <style type="text/css">
*{stroke-linecap:butt;stroke-linejoin:round;}
  </style>
 </defs>
 <g id="figure_1">
  <g id="patch_1">
   <path d="M 0 432 
L 720 432 
L 720 0 
L 0 0 
z
" style="fill:#ffffff;"/>
  </g>
  <g id="axes_1">
   <g id="patch_2">
    <path d="M 90 378 
L 648 378 
L 648 51.84 
L 90 51.84 
z
" style="fill:#ffffff;"/>
   </g>
   <g id="PathCollection_1">
    <defs>
     <path d="M 0 3 
C 0.795609 3 1.55874 2.683901 2.12132 2.12132 
C 2.683901 1.55874 3 0.795609 3 0 
C 3 -0.795609 2.683901 -1.55874 2.12132 -2.12132 
C 1.55874 -2.683901 0.795609 -3 0 -3 
C -0.795609 -3 -1.55874 -2.683901 -2.12132 -2.12132 
C -2.683901 -1.55874 -3 -0.795609 -3 0 
C -3 0.795609 -2.683901 1.55874 -2.12132 2.12132 
C -1.55874 2.683901 -0.795609 3 0 3 
z
" id="md5c95248c2" style="stroke:#f8766d;"/>
    </defs>
    <g clip-path="url(#p346c676bfd)">
     <use style="fill:#f8766d;stroke:#f8766d;" x="477.194916" xlink:href="#md5c95248c2" y="276.191014"/>
     <use style="fill:#f8766d;stroke:#f8766d;" x="386.344818" xlink:href="#md5c95248c2" y="180.644259"/>
     <use style="fill:#f8766d;stroke:#f8766d;" x="430.810471" xlink:href="#md5c95248c2" y="156.053005"/>
     <use style="fill:#f8766d;stroke:#f8766d;" x="407.498809" xlink:href="#md5c95248c2" y="303.602535"/>
     <use style="fill:#f8766d;stroke:#f8766d;" x="232.908454" xlink:href="#md5c95248c2" y="204.41922"/>
     <use style="fill:#f8766d;stroke:#f8766d;" x="270.043821" xlink:href="#md5c95248c2" y="127.88699"/>
     <use style="fill:#f8766d;stroke:#f8766d;" x="166.716871" xlink:href="#md5c95248c2" y="286.068329"/>
     <use style="fill:#f8766d;stroke:#f8766d;" x="485.269275" xlink:href="#md5c95248c2" y="244.526192"/>
     <use style="fill:#f8766d;stroke:#f8766d;" x="165.507995" xlink:href="#md5c95248c2" y="199.09947"/>
     <use style="fill:#f8766d;stroke:#f8766d;" x="523.627961" xlink:href="#md5c95248c2" y="287.520386"/>
     <use style="fill:#f8766d;stroke:#f8766d;" x="524.589333" xlink:href="#md5c95248c2" y="260.684577"/>
     <use style="fill:#f8766d;stroke:#f8766d;" x="587.153917" xlink:href="#md5c95248c2" y="122.188515"/>
     <use style="fill:#f8766d;stroke:#f8766d;" x="228.558835" xlink:href="#md5c95248c2" y="214.58478"/>
     <use style="fill:#f8766d;stroke:#f8766d;" x="483.259811" xlink:href="#md5c95248c2" y="66.766489"/>
     <use style="fill:#f8766d;stroke:#f8766d;" x="310.355825" xlink:href="#md5c95248c2" y="260.512845"/>
     <use style="fill:#f8766d;stroke:#f8766d;" x="276.634389" xlink:href="#md5c95248c2" y="299.244563"/>
     <use style="fill:#f8766d;stroke:#f8766d;" x="438.517311" xlink:href="#md5c95248c2" y="135.006724"/>
     <use style="fill:#f8766d;stroke:#f8766d;" x="454.695989" xlink:href="#md5c95248c2" y="201.767548"/>
     <use style="fill:#f8766d;stroke:#f8766d;" x="506.261983" xlink:href="#md5c95248c2" y="179.213651"/>
     <use style="fill:#f8766d;stroke:#f8766d;" x="170.634825" xlink:href="#md5c95248c2" y="208.576893"/>
     <use style="fill:#f8766d;stroke:#f8766d;" x="470.73363" xlink:href="#md5c95248c2" y="155.594463"/>
     <use style="fill:#f8766d;stroke:#f8766d;" x="343.304894" xlink:href="#md5c95248c2" y="255.667585"/>
     <use style="fill:#f8766d;stroke:#f8766d;" x="603.847952" xlink:href="#md5c95248c2" y="189.572429"/>
     <use style="fill:#f8766d;stroke:#f8766d;" x="288.375274" xlink:href="#md5c95248c2" y="196.103491"/>
     <use style="fill:#f8766d;stroke:#f8766d;" x="496.502853" xlink:href="#md5c95248c2" y="139.021674"/>
     <use style="fill:#f8766d;stroke:#f8766d;" x="309.942031" xlink:href="#md5c95248c2" y="226.639472"/>
     <use style="fill:#f8766d;stroke:#f8766d;" x="519.269348" xlink:href="#md5c95248c2" y="300.35146"/>
     <use style="fill:#f8766d;stroke:#f8766d;" x="195.674928" xlink:href="#md5c95248c2" y="138.726273"/>
     <use style="fill:#f8766d;stroke:#f8766d;" x="293.049971" xlink:href="#md5c95248c2" y="269.839805"/>
     <use style="fill:#f8766d;stroke:#f8766d;" x="434.787432" xlink:href="#md5c95248c2" y="177.387953"/>
     <use style="fill:#f8766d;stroke:#f8766d;" x="453.942554" xlink:href="#md5c95248c2" y="164.143841"/>
     <use style="fill:#f8766d;stroke:#f8766d;" x="492.136624" xlink:href="#md5c95248c2" y="289.276529"/>
     <use style="fill:#f8766d;stroke:#f8766d;" x="190.6669" xlink:href="#md5c95248c2" y="189.7365"/>
     <use style="fill:#f8766d;stroke:#f8766d;" x="468.698933" xlink:href="#md5c95248c2" y="164.073372"/>
     <use style="fill:#f8766d;stroke:#f8766d;" x="394.999674" xlink:href="#md5c95248c2" y="148.838132"/>
     <use style="fill:#f8766d;stroke:#f8766d;" x="570.83106" xlink:href="#md5c95248c2" y="286.17924"/>
     <use style="fill:#f8766d;stroke:#f8766d;" x="374.961752" xlink:href="#md5c95248c2" y="219.907505"/>
     <use style="fill:#f8766d;stroke:#f8766d;" x="450.846319" xlink:href="#md5c95248c2" y="125.743058"/>
     <use style="fill:#f8766d;stroke:#f8766d;" x="359.781743" xlink:href="#md5c95248c2" y="118.748041"/>
     <use style="fill:#f8766d;stroke:#f8766d;" x="569.303111" xlink:href="#md5c95248c2" y="329.027829"/>
     <use style="fill:#f8766d;stroke:#f8766d;" x="569.229606" xlink:href="#md5c95248c2" y="153.336063"/>
     <use style="fill:#f8766d;stroke:#f8766d;" x="528.752566" xlink:href="#md5c95248c2" y="126.216125"/>
     <use style="fill:#f8766d;stroke:#f8766d;" x="449.041339" xlink:href="#md5c95248c2" y="145.781106"/>
     <use style="fill:#f8766d;stroke:#f8766d;" x="454.87753" xlink:href="#md5c95248c2" y="191.560126"/>
     <use style="fill:#f8766d;stroke:#f8766d;" x="279.93926" xlink:href="#md5c95248c2" y="334.405731"/>
     <use style="fill:#f8766d;stroke:#f8766d;" x="241.079505" xlink:href="#md5c95248c2" y="225.825026"/>
     <use style="fill:#f8766d;stroke:#f8766d;" x="168.235398" xlink:href="#md5c95248c2" y="256.466969"/>
     <use style="fill:#f8766d;stroke:#f8766d;" x="503.133148" xlink:href="#md5c95248c2" y="269.15421"/>
     <use style="fill:#f8766d;stroke:#f8766d;" x="517.053743" xlink:href="#md5c95248c2" y="96.881103"/>
     <use style="fill:#f8766d;stroke:#f8766d;" x="250.687344" xlink:href="#md5c95248c2" y="261.486954"/>
     <use style="fill:#f8766d;stroke:#f8766d;" x="248.246184" xlink:href="#md5c95248c2" y="136.022238"/>
     <use style="fill:#f8766d;stroke:#f8766d;" x="316.165175" xlink:href="#md5c95248c2" y="168.648509"/>
     <use style="fill:#f8766d;stroke:#f8766d;" x="549.078031" xlink:href="#md5c95248c2" y="156.922845"/>
     <use style="fill:#f8766d;stroke:#f8766d;" x="225.969617" xlink:href="#md5c95248c2" y="154.397811"/>
     <use style="fill:#f8766d;stroke:#f8766d;" x="258.886173" xlink:href="#md5c95248c2" y="160.616812"/>
     <use style="fill:#f8766d;stroke:#f8766d;" x="580.940965" xlink:href="#md5c95248c2" y="229.822527"/>
     <use style="fill:#f8766d;stroke:#f8766d;" x="583.307951" xlink:href="#md5c95248c2" y="161.926071"/>
     <use style="fill:#f8766d;stroke:#f8766d;" x="276.968824" xlink:href="#md5c95248c2" y="334.744113"/>
     <use style="fill:#f8766d;stroke:#f8766d;" x="250.739697" xlink:href="#md5c95248c2" y="204.856655"/>
     <use style="fill:#f8766d;stroke:#f8766d;" x="316.312948" xlink:href="#md5c95248c2" y="291.063699"/>
     <use style="fill:#f8766d;stroke:#f8766d;" x="281.014213" xlink:href="#md5c95248c2" y="284.70718"/>
     <use style="fill:#f8766d;stroke:#f8766d;" x="506.195485" xlink:href="#md5c95248c2" y="117.189421"/>
     <use style="fill:#f8766d;stroke:#f8766d;" x="567.307481" xlink:href="#md5c95248c2" y="320.826214"/>
     <use style="fill:#f8766d;stroke:#f8766d;" x="452.860375" xlink:href="#md5c95248c2" y="327.376176"/>
     <use style="fill:#f8766d;stroke:#f8766d;" x="486.289808" xlink:href="#md5c95248c2" y="261.024687"/>
     <use style="fill:#f8766d;stroke:#f8766d;" x="343.19298" xlink:href="#md5c95248c2" y="339.519721"/>
     <use style="fill:#f8766d;stroke:#f8766d;" x="187.049893" xlink:href="#md5c95248c2" y="294.845651"/>
     <use style="fill:#f8766d;stroke:#f8766d;" x="152.985388" xlink:href="#md5c95248c2" y="128.879337"/>
     <use style="fill:#f8766d;stroke:#f8766d;" x="398.41042" xlink:href="#md5c95248c2" y="273.457081"/>
     <use style="fill:#f8766d;stroke:#f8766d;" x="206.900122" xlink:href="#md5c95248c2" y="190.170197"/>
     <use style="fill:#f8766d;stroke:#f8766d;" x="296.687924" xlink:href="#md5c95248c2" y="134.467405"/>
     <use style="fill:#f8766d;stroke:#f8766d;" x="284.528918" xlink:href="#md5c95248c2" y="345.344458"/>
     <use style="fill:#f8766d;stroke:#f8766d;" x="561.095048" xlink:href="#md5c95248c2" y="234.626204"/>
     <use style="fill:#f8766d;stroke:#f8766d;" x="154.321909" xlink:href="#md5c95248c2" y="130.135396"/>
     <use style="fill:#f8766d;stroke:#f8766d;" x="554.038068" xlink:href="#md5c95248c2" y="178.214197"/>
     <use style="fill:#f8766d;stroke:#f8766d;" x="219.346619" xlink:href="#md5c95248c2" y="299.14208"/>
     <use style="fill:#f8766d;stroke:#f8766d;" x="388.513475" xlink:href="#md5c95248c2" y="206.657717"/>
     <use style="fill:#f8766d;stroke:#f8766d;" x="195.90217" xlink:href="#md5c95248c2" y="297.074829"/>
     <use style="fill:#f8766d;stroke:#f8766d;" x="406.191052" xlink:href="#md5c95248c2" y="220.255116"/>
     <use style="fill:#f8766d;stroke:#f8766d;" x="424.300286" xlink:href="#md5c95248c2" y="95.132278"/>
     <use style="fill:#f8766d;stroke:#f8766d;" x="322.832631" xlink:href="#md5c95248c2" y="270.382079"/>
     <use style="fill:#f8766d;stroke:#f8766d;" x="413.395765" xlink:href="#md5c95248c2" y="191.845088"/>
     <use style="fill:#f8766d;stroke:#f8766d;" x="580.936653" xlink:href="#md5c95248c2" y="302.925991"/>
     <use style="fill:#f8766d;stroke:#f8766d;" x="516.433794" xlink:href="#md5c95248c2" y="304.195401"/>
     <use style="fill:#f8766d;stroke:#f8766d;" x="458.578028" xlink:href="#md5c95248c2" y="94.072076"/>
     <use style="fill:#f8766d;stroke:#f8766d;" x="249.303579" xlink:href="#md5c95248c2" y="175.732833"/>
     <use style="fill:#f8766d;stroke:#f8766d;" x="439.262985" xlink:href="#md5c95248c2" y="208.507191"/>
     <use style="fill:#f8766d;stroke:#f8766d;" x="541.501626" xlink:href="#md5c95248c2" y="130.707881"/>
     <use style="fill:#f8766d;stroke:#f8766d;" x="552.539005" xlink:href="#md5c95248c2" y="249.709556"/>
     <use style="fill:#f8766d;stroke:#f8766d;" x="400.04714" xlink:href="#md5c95248c2" y="302.918606"/>
     <use style="fill:#f8766d;stroke:#f8766d;" x="529.364081" xlink:href="#md5c95248c2" y="144.711727"/>
     <use style="fill:#f8766d;stroke:#f8766d;" x="470.674729" xlink:href="#md5c95248c2" y="300.08251"/>
     <use style="fill:#f8766d;stroke:#f8766d;" x="358.509979" xlink:href="#md5c95248c2" y="80.865437"/>
     <use style="fill:#f8766d;stroke:#f8766d;" x="523.727229" xlink:href="#md5c95248c2" y="272.19184"/>
     <use style="fill:#f8766d;stroke:#f8766d;" x="447.223263" xlink:href="#md5c95248c2" y="257.746291"/>
     <use style="fill:#f8766d;stroke:#f8766d;" x="340.319839" xlink:href="#md5c95248c2" y="145.451722"/>
    </g>
   </g>
   <g id="PathCollection_2">
    <defs>
     <path d="M 0 3 
C 0.795609 3 1.55874 2.683901 2.12132 2.12132 
C 2.683901 1.55874 3 0.795609 3 0 
C 3 -0.795609 2.683901 -1.55874 2.12132 -2.12132 
C 1.55874 -2.683901 0.795609 -3 0 -3 
C -0.795609 -3 -1.55874 -2.683901 -2.12132 -2.12132 
C -2.683901 -1.55874 -3 -0.795609 -3 0 
C -3 0.795609 -2.683901 1.55874 -2.12132 2.12132 
C -1.55874 2.683901 -0.795609 3 0 3 
z
" id="md2a4cc04db" style="stroke:#00bfc4;"/>
    </defs>
    <g clip-path="url(#p346c676bfd)">
     <use style="fill:#00bfc4;stroke:#00bfc4;" x="362.79815" xlink:href="#md2a4cc04db" y="306.221881"/>
     <use style="fill:#00bfc4;stroke:#00bfc4;" x="292.030566" xlink:href="#md2a4cc04db" y="193.593286"/>
     <use style="fill:#00bfc4;stroke:#00bfc4;" x="342.025437" xlink:href="#md2a4cc04db" y="208.568038"/>
     <use style="fill:#00bfc4;stroke:#00bfc4;" x="510.932213" xlink:href="#md2a4cc04db" y="275.93299"/>
     <use style="fill:#00bfc4;stroke:#00bfc4;" x="295.117707" xlink:href="#md2a4cc04db" y="243.214835"/>
     <use style="fill:#00bfc4;stroke:#00bfc4;" x="619.968641" xlink:href="#md2a4cc04db" y="240.232523"/>
     <use style="fill:#00bfc4;stroke:#00bfc4;" x="308.419541" xlink:href="#md2a4cc04db" y="303.319978"/>
     <use style="fill:#00bfc4;stroke:#00bfc4;" x="600.249371" xlink:href="#md2a4cc04db" y="163.876557"/>
     <use style="fill:#00bfc4;stroke:#00bfc4;" x="326.70946" xlink:href="#md2a4cc04db" y="333.955553"/>
     <use style="fill:#00bfc4;stroke:#00bfc4;" x="301.387116" xlink:href="#md2a4cc04db" y="236.027698"/>
     <use style="fill:#00bfc4;stroke:#00bfc4;" x="270.008336" xlink:href="#md2a4cc04db" y="129.454394"/>
     <use style="fill:#00bfc4;stroke:#00bfc4;" x="382.938031" xlink:href="#md2a4cc04db" y="122.85207"/>
     <use style="fill:#00bfc4;stroke:#00bfc4;" x="564.37779" xlink:href="#md2a4cc04db" y="290.373071"/>
     <use style="fill:#00bfc4;stroke:#00bfc4;" x="241.152252" xlink:href="#md2a4cc04db" y="117.746764"/>
     <use style="fill:#00bfc4;stroke:#00bfc4;" x="255.766691" xlink:href="#md2a4cc04db" y="280.527533"/>
     <use style="fill:#00bfc4;stroke:#00bfc4;" x="495.285073" xlink:href="#md2a4cc04db" y="251.006465"/>
     <use style="fill:#00bfc4;stroke:#00bfc4;" x="402.209031" xlink:href="#md2a4cc04db" y="290.701731"/>
     <use style="fill:#00bfc4;stroke:#00bfc4;" x="399.942567" xlink:href="#md2a4cc04db" y="313.82003"/>
     <use style="fill:#00bfc4;stroke:#00bfc4;" x="380.13617" xlink:href="#md2a4cc04db" y="248.312818"/>
     <use style="fill:#00bfc4;stroke:#00bfc4;" x="252.083885" xlink:href="#md2a4cc04db" y="273.017662"/>
     <use style="fill:#00bfc4;stroke:#00bfc4;" x="153.37018" xlink:href="#md2a4cc04db" y="129.697291"/>
     <use style="fill:#00bfc4;stroke:#00bfc4;" x="325.363037" xlink:href="#md2a4cc04db" y="313.255459"/>
     <use style="fill:#00bfc4;stroke:#00bfc4;" x="549.132311" xlink:href="#md2a4cc04db" y="231.870634"/>
     <use style="fill:#00bfc4;stroke:#00bfc4;" x="366.40681" xlink:href="#md2a4cc04db" y="165.779409"/>
     <use style="fill:#00bfc4;stroke:#00bfc4;" x="547.884805" xlink:href="#md2a4cc04db" y="196.566667"/>
     <use style="fill:#00bfc4;stroke:#00bfc4;" x="401.854396" xlink:href="#md2a4cc04db" y="222.647606"/>
     <use style="fill:#00bfc4;stroke:#00bfc4;" x="589.78921" xlink:href="#md2a4cc04db" y="278.840671"/>
     <use style="fill:#00bfc4;stroke:#00bfc4;" x="283.934452" xlink:href="#md2a4cc04db" y="161.847101"/>
     <use style="fill:#00bfc4;stroke:#00bfc4;" x="431.709568" xlink:href="#md2a4cc04db" y="304.376576"/>
     <use style="fill:#00bfc4;stroke:#00bfc4;" x="357.545171" xlink:href="#md2a4cc04db" y="80.359048"/>
     <use style="fill:#00bfc4;stroke:#00bfc4;" x="343.902674" xlink:href="#md2a4cc04db" y="208.799654"/>
     <use style="fill:#00bfc4;stroke:#00bfc4;" x="309.402329" xlink:href="#md2a4cc04db" y="313.602211"/>
     <use style="fill:#00bfc4;stroke:#00bfc4;" x="282.323904" xlink:href="#md2a4cc04db" y="221.126147"/>
     <use style="fill:#00bfc4;stroke:#00bfc4;" x="379.643574" xlink:href="#md2a4cc04db" y="257.012281"/>
     <use style="fill:#00bfc4;stroke:#00bfc4;" x="417.16499" xlink:href="#md2a4cc04db" y="128.055029"/>
     <use style="fill:#00bfc4;stroke:#00bfc4;" x="569.839684" xlink:href="#md2a4cc04db" y="126.015161"/>
     <use style="fill:#00bfc4;stroke:#00bfc4;" x="342.529243" xlink:href="#md2a4cc04db" y="290.767984"/>
     <use style="fill:#00bfc4;stroke:#00bfc4;" x="409.884725" xlink:href="#md2a4cc04db" y="334.830285"/>
     <use style="fill:#00bfc4;stroke:#00bfc4;" x="487.634315" xlink:href="#md2a4cc04db" y="196.642265"/>
     <use style="fill:#00bfc4;stroke:#00bfc4;" x="254.492465" xlink:href="#md2a4cc04db" y="314.022282"/>
     <use style="fill:#00bfc4;stroke:#00bfc4;" x="403.46792" xlink:href="#md2a4cc04db" y="132.458235"/>
     <use style="fill:#00bfc4;stroke:#00bfc4;" x="371.303901" xlink:href="#md2a4cc04db" y="360.353923"/>
     <use style="fill:#00bfc4;stroke:#00bfc4;" x="416.87932" xlink:href="#md2a4cc04db" y="164.120805"/>
     <use style="fill:#00bfc4;stroke:#00bfc4;" x="545.100107" xlink:href="#md2a4cc04db" y="186.428315"/>
     <use style="fill:#00bfc4;stroke:#00bfc4;" x="486.068345" xlink:href="#md2a4cc04db" y="327.18795"/>
     <use style="fill:#00bfc4;stroke:#00bfc4;" x="292.836099" xlink:href="#md2a4cc04db" y="158.964792"/>
     <use style="fill:#00bfc4;stroke:#00bfc4;" x="457.095715" xlink:href="#md2a4cc04db" y="94.251847"/>
     <use style="fill:#00bfc4;stroke:#00bfc4;" x="605.573977" xlink:href="#md2a4cc04db" y="245.636729"/>
     <use style="fill:#00bfc4;stroke:#00bfc4;" x="118.031359" xlink:href="#md2a4cc04db" y="173.264911"/>
     <use style="fill:#00bfc4;stroke:#00bfc4;" x="359.607941" xlink:href="#md2a4cc04db" y="331.734363"/>
     <use style="fill:#00bfc4;stroke:#00bfc4;" x="489.010713" xlink:href="#md2a4cc04db" y="92.279411"/>
     <use style="fill:#00bfc4;stroke:#00bfc4;" x="348.515907" xlink:href="#md2a4cc04db" y="319.952948"/>
     <use style="fill:#00bfc4;stroke:#00bfc4;" x="432.351901" xlink:href="#md2a4cc04db" y="318.467532"/>
     <use style="fill:#00bfc4;stroke:#00bfc4;" x="279.655981" xlink:href="#md2a4cc04db" y="114.646327"/>
     <use style="fill:#00bfc4;stroke:#00bfc4;" x="361.29259" xlink:href="#md2a4cc04db" y="316.478051"/>
     <use style="fill:#00bfc4;stroke:#00bfc4;" x="211.995949" xlink:href="#md2a4cc04db" y="278.493327"/>
     <use style="fill:#00bfc4;stroke:#00bfc4;" x="419.183332" xlink:href="#md2a4cc04db" y="342.404004"/>
     <use style="fill:#00bfc4;stroke:#00bfc4;" x="349.534046" xlink:href="#md2a4cc04db" y="275.84566"/>
     <use style="fill:#00bfc4;stroke:#00bfc4;" x="468.377254" xlink:href="#md2a4cc04db" y="215.793812"/>
     <use style="fill:#00bfc4;stroke:#00bfc4;" x="360.731763" xlink:href="#md2a4cc04db" y="181.556719"/>
     <use style="fill:#00bfc4;stroke:#00bfc4;" x="546.920699" xlink:href="#md2a4cc04db" y="275.52836"/>
     <use style="fill:#00bfc4;stroke:#00bfc4;" x="228.899907" xlink:href="#md2a4cc04db" y="166.000219"/>
     <use style="fill:#00bfc4;stroke:#00bfc4;" x="436.237789" xlink:href="#md2a4cc04db" y="283.844259"/>
     <use style="fill:#00bfc4;stroke:#00bfc4;" x="369.893886" xlink:href="#md2a4cc04db" y="293.227012"/>
     <use style="fill:#00bfc4;stroke:#00bfc4;" x="170.732146" xlink:href="#md2a4cc04db" y="158.413955"/>
     <use style="fill:#00bfc4;stroke:#00bfc4;" x="253.184261" xlink:href="#md2a4cc04db" y="297.012347"/>
     <use style="fill:#00bfc4;stroke:#00bfc4;" x="503.220786" xlink:href="#md2a4cc04db" y="204.555548"/>
     <use style="fill:#00bfc4;stroke:#00bfc4;" x="387.426315" xlink:href="#md2a4cc04db" y="325.962286"/>
     <use style="fill:#00bfc4;stroke:#00bfc4;" x="191.100542" xlink:href="#md2a4cc04db" y="287.361289"/>
     <use style="fill:#00bfc4;stroke:#00bfc4;" x="385.384627" xlink:href="#md2a4cc04db" y="340.608228"/>
     <use style="fill:#00bfc4;stroke:#00bfc4;" x="495.80828" xlink:href="#md2a4cc04db" y="170.432615"/>
     <use style="fill:#00bfc4;stroke:#00bfc4;" x="356.92601" xlink:href="#md2a4cc04db" y="188.318497"/>
    </g>
   </g>
   <g id="matplotlib.axis_1">
    <g id="xtick_1">
     <g id="line2d_1">
      <defs>
       <path d="M 0 0 
L 0 3.5 
" id="mf32473050e" style="stroke:#000000;stroke-width:0.8;"/>
      </defs>
      <g>
       <use style="stroke:#000000;stroke-width:0.8;" x="164.36366" xlink:href="#mf32473050e" y="378"/>
      </g>
     </g>
     <g id="text_1">
      <!-- −10 -->
      <defs>
       <path d="M 10.59375 35.5 
L 73.1875 35.5 
L 73.1875 27.203125 
L 10.59375 27.203125 
z
" id="DejaVuSans-8722"/>
       <path d="M 12.40625 8.296875 
L 28.515625 8.296875 
L 28.515625 63.921875 
L 10.984375 60.40625 
L 10.984375 69.390625 
L 28.421875 72.90625 
L 38.28125 72.90625 
L 38.28125 8.296875 
L 54.390625 8.296875 
L 54.390625 0 
L 12.40625 0 
z
" id="DejaVuSans-49"/>
       <path d="M 31.78125 66.40625 
Q 24.171875 66.40625 20.328125 58.90625 
Q 16.5 51.421875 16.5 36.375 
Q 16.5 21.390625 20.328125 13.890625 
Q 24.171875 6.390625 31.78125 6.390625 
Q 39.453125 6.390625 43.28125 13.890625 
Q 47.125 21.390625 47.125 36.375 
Q 47.125 51.421875 43.28125 58.90625 
Q 39.453125 66.40625 31.78125 66.40625 
z
M 31.78125 74.21875 
Q 44.046875 74.21875 50.515625 64.515625 
Q 56.984375 54.828125 56.984375 36.375 
Q 56.984375 17.96875 50.515625 8.265625 
Q 44.046875 -1.421875 31.78125 -1.421875 
Q 19.53125 -1.421875 13.0625 8.265625 
Q 6.59375 17.96875 6.59375 36.375 
Q 6.59375 54.828125 13.0625 64.515625 
Q 19.53125 74.21875 31.78125 74.21875 
z
" id="DejaVuSans-48"/>
      </defs>
      <g transform="translate(153.811316 392.598437)scale(0.1 -0.1)">
       <use xlink:href="#DejaVuSans-8722"/>
       <use x="83.789062" xlink:href="#DejaVuSans-49"/>
       <use x="147.412109" xlink:href="#DejaVuSans-48"/>
      </g>
     </g>
    </g>
    <g id="xtick_2">
     <g id="line2d_2">
      <g>
       <use style="stroke:#000000;stroke-width:0.8;" x="269.028748" xlink:href="#mf32473050e" y="378"/>
      </g>
     </g>
     <g id="text_2">
      <!-- −5 -->
      <defs>
       <path d="M 10.796875 72.90625 
L 49.515625 72.90625 
L 49.515625 64.59375 
L 19.828125 64.59375 
L 19.828125 46.734375 
Q 21.96875 47.46875 24.109375 47.828125 
Q 26.265625 48.1875 28.421875 48.1875 
Q 40.625 48.1875 47.75 41.5 
Q 54.890625 34.8125 54.890625 23.390625 
Q 54.890625 11.625 47.5625 5.09375 
Q 40.234375 -1.421875 26.90625 -1.421875 
Q 22.3125 -1.421875 17.546875 -0.640625 
Q 12.796875 0.140625 7.71875 1.703125 
L 7.71875 11.625 
Q 12.109375 9.234375 16.796875 8.0625 
Q 21.484375 6.890625 26.703125 6.890625 
Q 35.15625 6.890625 40.078125 11.328125 
Q 45.015625 15.765625 45.015625 23.390625 
Q 45.015625 31 40.078125 35.4375 
Q 35.15625 39.890625 26.703125 39.890625 
Q 22.75 39.890625 18.8125 39.015625 
Q 14.890625 38.140625 10.796875 36.28125 
z
" id="DejaVuSans-53"/>
      </defs>
      <g transform="translate(261.657654 392.598437)scale(0.1 -0.1)">
       <use xlink:href="#DejaVuSans-8722"/>
       <use x="83.789062" xlink:href="#DejaVuSans-53"/>
      </g>
     </g>
    </g>
    <g id="xtick_3">
     <g id="line2d_3">
      <g>
       <use style="stroke:#000000;stroke-width:0.8;" x="373.693837" xlink:href="#mf32473050e" y="378"/>
      </g>
     </g>
     <g id="text_3">
      <!-- 0 -->
      <g transform="translate(370.512587 392.598437)scale(0.1 -0.1)">
       <use xlink:href="#DejaVuSans-48"/>
      </g>
     </g>
    </g>
    <g id="xtick_4">
     <g id="line2d_4">
      <g>
       <use style="stroke:#000000;stroke-width:0.8;" x="478.358925" xlink:href="#mf32473050e" y="378"/>
      </g>
     </g>
     <g id="text_4">
      <!-- 5 -->
      <g transform="translate(475.177675 392.598437)scale(0.1 -0.1)">
       <use xlink:href="#DejaVuSans-53"/>
      </g>
     </g>
    </g>
    <g id="xtick_5">
     <g id="line2d_5">
      <g>
       <use style="stroke:#000000;stroke-width:0.8;" x="583.024014" xlink:href="#mf32473050e" y="378"/>
      </g>
     </g>
     <g id="text_5">
      <!-- 10 -->
      <g transform="translate(576.661514 392.598437)scale(0.1 -0.1)">
       <use xlink:href="#DejaVuSans-49"/>
       <use x="63.623047" xlink:href="#DejaVuSans-48"/>
      </g>
     </g>
    </g>
    <g id="text_6">
     <!-- tSNE-1 -->
     <defs>
      <path d="M 18.3125 70.21875 
L 18.3125 54.6875 
L 36.8125 54.6875 
L 36.8125 47.703125 
L 18.3125 47.703125 
L 18.3125 18.015625 
Q 18.3125 11.328125 20.140625 9.421875 
Q 21.96875 7.515625 27.59375 7.515625 
L 36.8125 7.515625 
L 36.8125 0 
L 27.59375 0 
Q 17.1875 0 13.234375 3.875 
Q 9.28125 7.765625 9.28125 18.015625 
L 9.28125 47.703125 
L 2.6875 47.703125 
L 2.6875 54.6875 
L 9.28125 54.6875 
L 9.28125 70.21875 
z
" id="DejaVuSans-116"/>
      <path d="M 53.515625 70.515625 
L 53.515625 60.890625 
Q 47.90625 63.578125 42.921875 64.890625 
Q 37.9375 66.21875 33.296875 66.21875 
Q 25.25 66.21875 20.875 63.09375 
Q 16.5 59.96875 16.5 54.203125 
Q 16.5 49.359375 19.40625 46.890625 
Q 22.3125 44.4375 30.421875 42.921875 
L 36.375 41.703125 
Q 47.40625 39.59375 52.65625 34.296875 
Q 57.90625 29 57.90625 20.125 
Q 57.90625 9.515625 50.796875 4.046875 
Q 43.703125 -1.421875 29.984375 -1.421875 
Q 24.8125 -1.421875 18.96875 -0.25 
Q 13.140625 0.921875 6.890625 3.21875 
L 6.890625 13.375 
Q 12.890625 10.015625 18.65625 8.296875 
Q 24.421875 6.59375 29.984375 6.59375 
Q 38.421875 6.59375 43.015625 9.90625 
Q 47.609375 13.234375 47.609375 19.390625 
Q 47.609375 24.75 44.3125 27.78125 
Q 41.015625 30.8125 33.5 32.328125 
L 27.484375 33.5 
Q 16.453125 35.6875 11.515625 40.375 
Q 6.59375 45.0625 6.59375 53.421875 
Q 6.59375 63.09375 13.40625 68.65625 
Q 20.21875 74.21875 32.171875 74.21875 
Q 37.3125 74.21875 42.625 73.28125 
Q 47.953125 72.359375 53.515625 70.515625 
z
" id="DejaVuSans-83"/>
      <path d="M 9.8125 72.90625 
L 23.09375 72.90625 
L 55.421875 11.921875 
L 55.421875 72.90625 
L 64.984375 72.90625 
L 64.984375 0 
L 51.703125 0 
L 19.390625 60.984375 
L 19.390625 0 
L 9.8125 0 
z
" id="DejaVuSans-78"/>
      <path d="M 9.8125 72.90625 
L 55.90625 72.90625 
L 55.90625 64.59375 
L 19.671875 64.59375 
L 19.671875 43.015625 
L 54.390625 43.015625 
L 54.390625 34.71875 
L 19.671875 34.71875 
L 19.671875 8.296875 
L 56.78125 8.296875 
L 56.78125 0 
L 9.8125 0 
z
" id="DejaVuSans-69"/>
      <path d="M 4.890625 31.390625 
L 31.203125 31.390625 
L 31.203125 23.390625 
L 4.890625 23.390625 
z
" id="DejaVuSans-45"/>
     </defs>
     <g transform="translate(351.980469 406.276563)scale(0.1 -0.1)">
      <use xlink:href="#DejaVuSans-116"/>
      <use x="39.208984" xlink:href="#DejaVuSans-83"/>
      <use x="102.685547" xlink:href="#DejaVuSans-78"/>
      <use x="177.490234" xlink:href="#DejaVuSans-69"/>
      <use x="240.673828" xlink:href="#DejaVuSans-45"/>
      <use x="276.757812" xlink:href="#DejaVuSans-49"/>
     </g>
    </g>
   </g>
   <g id="matplotlib.axis_2">
    <g id="ytick_1">
     <g id="line2d_6">
      <defs>
       <path d="M 0 0 
L -3.5 0 
" id="m11c6aff382" style="stroke:#000000;stroke-width:0.8;"/>
      </defs>
      <g>
       <use style="stroke:#000000;stroke-width:0.8;" x="90" xlink:href="#m11c6aff382" y="324.788822"/>
      </g>
     </g>
     <g id="text_7">
      <!-- −10 -->
      <g transform="translate(61.895313 328.588041)scale(0.1 -0.1)">
       <use xlink:href="#DejaVuSans-8722"/>
       <use x="83.789062" xlink:href="#DejaVuSans-49"/>
       <use x="147.412109" xlink:href="#DejaVuSans-48"/>
      </g>
     </g>
    </g>
    <g id="ytick_2">
     <g id="line2d_7">
      <g>
       <use style="stroke:#000000;stroke-width:0.8;" x="90" xlink:href="#m11c6aff382" y="269.866607"/>
      </g>
     </g>
     <g id="text_8">
      <!-- −5 -->
      <g transform="translate(68.257812 273.665826)scale(0.1 -0.1)">
       <use xlink:href="#DejaVuSans-8722"/>
       <use x="83.789062" xlink:href="#DejaVuSans-53"/>
      </g>
     </g>
    </g>
    <g id="ytick_3">
     <g id="line2d_8">
      <g>
       <use style="stroke:#000000;stroke-width:0.8;" x="90" xlink:href="#m11c6aff382" y="214.944392"/>
      </g>
     </g>
     <g id="text_9">
      <!-- 0 -->
      <g transform="translate(76.6375 218.74361)scale(0.1 -0.1)">
       <use xlink:href="#DejaVuSans-48"/>
      </g>
     </g>
    </g>
    <g id="ytick_4">
     <g id="line2d_9">
      <g>
       <use style="stroke:#000000;stroke-width:0.8;" x="90" xlink:href="#m11c6aff382" y="160.022176"/>
      </g>
     </g>
     <g id="text_10">
      <!-- 5 -->
      <g transform="translate(76.6375 163.821395)scale(0.1 -0.1)">
       <use xlink:href="#DejaVuSans-53"/>
      </g>
     </g>
    </g>
    <g id="ytick_5">
     <g id="line2d_10">
      <g>
       <use style="stroke:#000000;stroke-width:0.8;" x="90" xlink:href="#m11c6aff382" y="105.099961"/>
      </g>
     </g>
     <g id="text_11">
      <!-- 10 -->
      <g transform="translate(70.275 108.89918)scale(0.1 -0.1)">
       <use xlink:href="#DejaVuSans-49"/>
       <use x="63.623047" xlink:href="#DejaVuSans-48"/>
      </g>
     </g>
    </g>
    <g id="text_12">
     <!-- tSNE-2 -->
     <defs>
      <path d="M 19.1875 8.296875 
L 53.609375 8.296875 
L 53.609375 0 
L 7.328125 0 
L 7.328125 8.296875 
Q 12.9375 14.109375 22.625 23.890625 
Q 32.328125 33.6875 34.8125 36.53125 
Q 39.546875 41.84375 41.421875 45.53125 
Q 43.3125 49.21875 43.3125 52.78125 
Q 43.3125 58.59375 39.234375 62.25 
Q 35.15625 65.921875 28.609375 65.921875 
Q 23.96875 65.921875 18.8125 64.3125 
Q 13.671875 62.703125 7.8125 59.421875 
L 7.8125 69.390625 
Q 13.765625 71.78125 18.9375 73 
Q 24.125 74.21875 28.421875 74.21875 
Q 39.75 74.21875 46.484375 68.546875 
Q 53.21875 62.890625 53.21875 53.421875 
Q 53.21875 48.921875 51.53125 44.890625 
Q 49.859375 40.875 45.40625 35.40625 
Q 44.1875 33.984375 37.640625 27.21875 
Q 31.109375 20.453125 19.1875 8.296875 
z
" id="DejaVuSans-50"/>
     </defs>
     <g transform="translate(55.815625 231.939531)rotate(-90)scale(0.1 -0.1)">
      <use xlink:href="#DejaVuSans-116"/>
      <use x="39.208984" xlink:href="#DejaVuSans-83"/>
      <use x="102.685547" xlink:href="#DejaVuSans-78"/>
      <use x="177.490234" xlink:href="#DejaVuSans-69"/>
      <use x="240.673828" xlink:href="#DejaVuSans-45"/>
      <use x="276.757812" xlink:href="#DejaVuSans-50"/>
     </g>
    </g>
   </g>
   <g id="patch_3">
    <path d="M 90 378 
L 90 51.84 
" style="fill:none;stroke:#000000;stroke-linecap:square;stroke-linejoin:miter;stroke-width:0.8;"/>
   </g>
   <g id="patch_4">
    <path d="M 648 378 
L 648 51.84 
" style="fill:none;stroke:#000000;stroke-linecap:square;stroke-linejoin:miter;stroke-width:0.8;"/>
   </g>
   <g id="patch_5">
    <path d="M 90 378 
L 648 378 
" style="fill:none;stroke:#000000;stroke-linecap:square;stroke-linejoin:miter;stroke-width:0.8;"/>
   </g>
   <g id="patch_6">
    <path d="M 90 51.84 
L 648 51.84 
" style="fill:none;stroke:#000000;stroke-linecap:square;stroke-linejoin:miter;stroke-width:0.8;"/>
   </g>
   <g id="legend_1">
    <g id="patch_7">
     <path d="M 563.125 89.19625 
L 641 89.19625 
Q 643 89.19625 643 87.19625 
L 643 58.84 
Q 643 56.84 641 56.84 
L 563.125 56.84 
Q 561.125 56.84 561.125 58.84 
L 561.125 87.19625 
Q 561.125 89.19625 563.125 89.19625 
z
" style="fill:#ffffff;opacity:0.8;stroke:#cccccc;stroke-linejoin:miter;"/>
    </g>
    <g id="PathCollection_3">
     <g>
      <use style="fill:#f8766d;stroke:#f8766d;" x="575.125" xlink:href="#md5c95248c2" y="65.813437"/>
     </g>
    </g>
    <g id="text_13">
     <!-- D001172 -->
     <defs>
      <path d="M 19.671875 64.796875 
L 19.671875 8.109375 
L 31.59375 8.109375 
Q 46.6875 8.109375 53.6875 14.9375 
Q 60.6875 21.78125 60.6875 36.53125 
Q 60.6875 51.171875 53.6875 57.984375 
Q 46.6875 64.796875 31.59375 64.796875 
z
M 9.8125 72.90625 
L 30.078125 72.90625 
Q 51.265625 72.90625 61.171875 64.09375 
Q 71.09375 55.28125 71.09375 36.53125 
Q 71.09375 17.671875 61.125 8.828125 
Q 51.171875 0 30.078125 0 
L 9.8125 0 
z
" id="DejaVuSans-68"/>
      <path d="M 8.203125 72.90625 
L 55.078125 72.90625 
L 55.078125 68.703125 
L 28.609375 0 
L 18.3125 0 
L 43.21875 64.59375 
L 8.203125 64.59375 
z
" id="DejaVuSans-55"/>
     </defs>
     <g transform="translate(593.125 68.438437)scale(0.1 -0.1)">
      <use xlink:href="#DejaVuSans-68"/>
      <use x="77.001953" xlink:href="#DejaVuSans-48"/>
      <use x="140.625" xlink:href="#DejaVuSans-48"/>
      <use x="204.248047" xlink:href="#DejaVuSans-49"/>
      <use x="267.871094" xlink:href="#DejaVuSans-49"/>
      <use x="331.494141" xlink:href="#DejaVuSans-55"/>
      <use x="395.117188" xlink:href="#DejaVuSans-50"/>
     </g>
    </g>
    <g id="PathCollection_4">
     <g>
      <use style="fill:#00bfc4;stroke:#00bfc4;" x="575.125" xlink:href="#md2a4cc04db" y="80.491562"/>
     </g>
    </g>
    <g id="text_14">
     <!-- D006262 -->
     <defs>
      <path d="M 33.015625 40.375 
Q 26.375 40.375 22.484375 35.828125 
Q 18.609375 31.296875 18.609375 23.390625 
Q 18.609375 15.53125 22.484375 10.953125 
Q 26.375 6.390625 33.015625 6.390625 
Q 39.65625 6.390625 43.53125 10.953125 
Q 47.40625 15.53125 47.40625 23.390625 
Q 47.40625 31.296875 43.53125 35.828125 
Q 39.65625 40.375 33.015625 40.375 
z
M 52.59375 71.296875 
L 52.59375 62.3125 
Q 48.875 64.0625 45.09375 64.984375 
Q 41.3125 65.921875 37.59375 65.921875 
Q 27.828125 65.921875 22.671875 59.328125 
Q 17.53125 52.734375 16.796875 39.40625 
Q 19.671875 43.65625 24.015625 45.921875 
Q 28.375 48.1875 33.59375 48.1875 
Q 44.578125 48.1875 50.953125 41.515625 
Q 57.328125 34.859375 57.328125 23.390625 
Q 57.328125 12.15625 50.6875 5.359375 
Q 44.046875 -1.421875 33.015625 -1.421875 
Q 20.359375 -1.421875 13.671875 8.265625 
Q 6.984375 17.96875 6.984375 36.375 
Q 6.984375 53.65625 15.1875 63.9375 
Q 23.390625 74.21875 37.203125 74.21875 
Q 40.921875 74.21875 44.703125 73.484375 
Q 48.484375 72.75 52.59375 71.296875 
z
" id="DejaVuSans-54"/>
     </defs>
     <g transform="translate(593.125 83.116562)scale(0.1 -0.1)">
      <use xlink:href="#DejaVuSans-68"/>
      <use x="77.001953" xlink:href="#DejaVuSans-48"/>
      <use x="140.625" xlink:href="#DejaVuSans-48"/>
      <use x="204.248047" xlink:href="#DejaVuSans-54"/>
      <use x="267.871094" xlink:href="#DejaVuSans-50"/>
      <use x="331.494141" xlink:href="#DejaVuSans-54"/>
      <use x="395.117188" xlink:href="#DejaVuSans-50"/>
     </g>
    </g>
   </g>
  </g>
 </g>
 <defs>
  <clipPath id="p346c676bfd">
   <rect height="326.16" width="558" x="90" y="51.84"/>
  </clipPath>
 </defs>
</svg>
