<?xml version="1.0" encoding="utf-8" standalone="no"?>
<!DOCTYPE svg PUBLIC "-//W3C//DTD SVG 1.1//EN"
  "http://www.w3.org/Graphics/SVG/1.1/DTD/svg11.dtd">
<!-- Created with matplotlib (https://matplotlib.org/) -->
<svg height="432pt" version="1.1" viewBox="0 0 720 432" width="720pt" xmlns="http://www.w3.org/2000/svg" xmlns:xlink="http://www.w3.org/1999/xlink">
 <defs>
  <style type="text/css">
*{stroke-linecap:butt;stroke-linejoin:round;}
  </style>
 </defs>
 <g id="figure_1">
  <g id="patch_1">
   <path d="M 0 432 
L 720 432 
L 720 0 
L 0 0 
z
" style="fill:#ffffff;"/>
  </g>
  <g id="axes_1">
   <g id="patch_2">
    <path d="M 90 378 
L 648 378 
L 648 51.84 
L 90 51.84 
z
" style="fill:#ffffff;"/>
   </g>
   <g id="PathCollection_1">
    <defs>
     <path d="M 0 3 
C 0.795609 3 1.55874 2.683901 2.12132 2.12132 
C 2.683901 1.55874 3 0.795609 3 0 
C 3 -0.795609 2.683901 -1.55874 2.12132 -2.12132 
C 1.55874 -2.683901 0.795609 -3 0 -3 
C -0.795609 -3 -1.55874 -2.683901 -2.12132 -2.12132 
C -2.683901 -1.55874 -3 -0.795609 -3 0 
C -3 0.795609 -2.683901 1.55874 -2.12132 2.12132 
C -1.55874 2.683901 -0.795609 3 0 3 
z
" id="m409f1a3d20" style="stroke:#00bfc4;"/>
    </defs>
    <g clip-path="url(#p70411b0bd2)">
     <use style="fill:#00bfc4;stroke:#00bfc4;" x="223.631266" xlink:href="#m409f1a3d20" y="362.51424"/>
     <use style="fill:#00bfc4;stroke:#00bfc4;" x="251.441883" xlink:href="#m409f1a3d20" y="363.051437"/>
     <use style="fill:#00bfc4;stroke:#00bfc4;" x="291.495707" xlink:href="#m409f1a3d20" y="304.696622"/>
     <use style="fill:#00bfc4;stroke:#00bfc4;" x="154.969208" xlink:href="#m409f1a3d20" y="306.12582"/>
     <use style="fill:#00bfc4;stroke:#00bfc4;" x="274.587249" xlink:href="#m409f1a3d20" y="270.906968"/>
     <use style="fill:#00bfc4;stroke:#00bfc4;" x="305.114719" xlink:href="#m409f1a3d20" y="347.936521"/>
     <use style="fill:#00bfc4;stroke:#00bfc4;" x="321.132367" xlink:href="#m409f1a3d20" y="362.341666"/>
     <use style="fill:#00bfc4;stroke:#00bfc4;" x="220.056426" xlink:href="#m409f1a3d20" y="342.277514"/>
     <use style="fill:#00bfc4;stroke:#00bfc4;" x="335.478744" xlink:href="#m409f1a3d20" y="320.46163"/>
     <use style="fill:#00bfc4;stroke:#00bfc4;" x="168.071939" xlink:href="#m409f1a3d20" y="302.284153"/>
     <use style="fill:#00bfc4;stroke:#00bfc4;" x="331.313986" xlink:href="#m409f1a3d20" y="325.378968"/>
     <use style="fill:#00bfc4;stroke:#00bfc4;" x="379.352976" xlink:href="#m409f1a3d20" y="292.810859"/>
     <use style="fill:#00bfc4;stroke:#00bfc4;" x="358.712786" xlink:href="#m409f1a3d20" y="344.417382"/>
     <use style="fill:#00bfc4;stroke:#00bfc4;" x="310.499921" xlink:href="#m409f1a3d20" y="288.466414"/>
     <use style="fill:#00bfc4;stroke:#00bfc4;" x="430.838611" xlink:href="#m409f1a3d20" y="311.494031"/>
     <use style="fill:#00bfc4;stroke:#00bfc4;" x="210.198844" xlink:href="#m409f1a3d20" y="319.97189"/>
     <use style="fill:#00bfc4;stroke:#00bfc4;" x="252.056362" xlink:href="#m409f1a3d20" y="354.423866"/>
     <use style="fill:#00bfc4;stroke:#00bfc4;" x="310.135443" xlink:href="#m409f1a3d20" y="332.185242"/>
     <use style="fill:#00bfc4;stroke:#00bfc4;" x="283.897982" xlink:href="#m409f1a3d20" y="285.617253"/>
     <use style="fill:#00bfc4;stroke:#00bfc4;" x="213.053269" xlink:href="#m409f1a3d20" y="297.490284"/>
     <use style="fill:#00bfc4;stroke:#00bfc4;" x="338.003047" xlink:href="#m409f1a3d20" y="225.892218"/>
     <use style="fill:#00bfc4;stroke:#00bfc4;" x="119.492941" xlink:href="#m409f1a3d20" y="179.666772"/>
     <use style="fill:#00bfc4;stroke:#00bfc4;" x="302.220731" xlink:href="#m409f1a3d20" y="202.106678"/>
     <use style="fill:#00bfc4;stroke:#00bfc4;" x="180.931448" xlink:href="#m409f1a3d20" y="208.604981"/>
     <use style="fill:#00bfc4;stroke:#00bfc4;" x="171.315158" xlink:href="#m409f1a3d20" y="201.007174"/>
     <use style="fill:#00bfc4;stroke:#00bfc4;" x="320.777343" xlink:href="#m409f1a3d20" y="126.377399"/>
     <use style="fill:#00bfc4;stroke:#00bfc4;" x="296.19301" xlink:href="#m409f1a3d20" y="216.21552"/>
     <use style="fill:#00bfc4;stroke:#00bfc4;" x="533.743816" xlink:href="#m409f1a3d20" y="108.619344"/>
     <use style="fill:#00bfc4;stroke:#00bfc4;" x="338.05678" xlink:href="#m409f1a3d20" y="238.519117"/>
     <use style="fill:#00bfc4;stroke:#00bfc4;" x="589.309912" xlink:href="#m409f1a3d20" y="237.029333"/>
     <use style="fill:#00bfc4;stroke:#00bfc4;" x="539.335858" xlink:href="#m409f1a3d20" y="116.25709"/>
     <use style="fill:#00bfc4;stroke:#00bfc4;" x="408.530376" xlink:href="#m409f1a3d20" y="214.689327"/>
     <use style="fill:#00bfc4;stroke:#00bfc4;" x="585.678671" xlink:href="#m409f1a3d20" y="184.594941"/>
     <use style="fill:#00bfc4;stroke:#00bfc4;" x="500.194375" xlink:href="#m409f1a3d20" y="130.523832"/>
     <use style="fill:#00bfc4;stroke:#00bfc4;" x="532.997338" xlink:href="#m409f1a3d20" y="261.324788"/>
     <use style="fill:#00bfc4;stroke:#00bfc4;" x="140.97456" xlink:href="#m409f1a3d20" y="167.403333"/>
     <use style="fill:#00bfc4;stroke:#00bfc4;" x="133.324205" xlink:href="#m409f1a3d20" y="164.7034"/>
     <use style="fill:#00bfc4;stroke:#00bfc4;" x="360.279595" xlink:href="#m409f1a3d20" y="221.138701"/>
     <use style="fill:#00bfc4;stroke:#00bfc4;" x="422.169466" xlink:href="#m409f1a3d20" y="133.259263"/>
     <use style="fill:#00bfc4;stroke:#00bfc4;" x="325.638958" xlink:href="#m409f1a3d20" y="162.992035"/>
     <use style="fill:#00bfc4;stroke:#00bfc4;" x="578.122327" xlink:href="#m409f1a3d20" y="106.764438"/>
     <use style="fill:#00bfc4;stroke:#00bfc4;" x="327.506616" xlink:href="#m409f1a3d20" y="187.175464"/>
     <use style="fill:#00bfc4;stroke:#00bfc4;" x="544.767914" xlink:href="#m409f1a3d20" y="87.67258"/>
     <use style="fill:#00bfc4;stroke:#00bfc4;" x="262.248081" xlink:href="#m409f1a3d20" y="169.109892"/>
     <use style="fill:#00bfc4;stroke:#00bfc4;" x="416.952538" xlink:href="#m409f1a3d20" y="109.14642"/>
     <use style="fill:#00bfc4;stroke:#00bfc4;" x="197.359075" xlink:href="#m409f1a3d20" y="189.315869"/>
     <use style="fill:#00bfc4;stroke:#00bfc4;" x="452.024149" xlink:href="#m409f1a3d20" y="94.41253"/>
    </g>
   </g>
   <g id="PathCollection_2">
    <defs>
     <path d="M 0 3 
C 0.795609 3 1.55874 2.683901 2.12132 2.12132 
C 2.683901 1.55874 3 0.795609 3 0 
C 3 -0.795609 2.683901 -1.55874 2.12132 -2.12132 
C 1.55874 -2.683901 0.795609 -3 0 -3 
C -0.795609 -3 -1.55874 -2.683901 -2.12132 -2.12132 
C -2.683901 -1.55874 -3 -0.795609 -3 0 
C -3 0.795609 -2.683901 1.55874 -2.12132 2.12132 
C -1.55874 2.683901 -0.795609 3 0 3 
z
" id="m0a0f3f73e9" style="stroke:#f8766d;"/>
    </defs>
    <g clip-path="url(#p70411b0bd2)">
     <use style="fill:#f8766d;stroke:#f8766d;" x="162.295393" xlink:href="#m0a0f3f73e9" y="289.419044"/>
     <use style="fill:#f8766d;stroke:#f8766d;" x="244.141027" xlink:href="#m0a0f3f73e9" y="288.730073"/>
     <use style="fill:#f8766d;stroke:#f8766d;" x="285.190367" xlink:href="#m0a0f3f73e9" y="320.689032"/>
     <use style="fill:#f8766d;stroke:#f8766d;" x="126.968944" xlink:href="#m0a0f3f73e9" y="264.415034"/>
     <use style="fill:#f8766d;stroke:#f8766d;" x="204.217163" xlink:href="#m0a0f3f73e9" y="269.225637"/>
     <use style="fill:#f8766d;stroke:#f8766d;" x="118.144103" xlink:href="#m0a0f3f73e9" y="228.502982"/>
     <use style="fill:#f8766d;stroke:#f8766d;" x="169.788925" xlink:href="#m0a0f3f73e9" y="290.496682"/>
     <use style="fill:#f8766d;stroke:#f8766d;" x="285.455755" xlink:href="#m0a0f3f73e9" y="334.085116"/>
     <use style="fill:#f8766d;stroke:#f8766d;" x="126.961463" xlink:href="#m0a0f3f73e9" y="263.789782"/>
     <use style="fill:#f8766d;stroke:#f8766d;" x="305.61929" xlink:href="#m0a0f3f73e9" y="319.297967"/>
     <use style="fill:#f8766d;stroke:#f8766d;" x="394.372741" xlink:href="#m0a0f3f73e9" y="334.668584"/>
     <use style="fill:#f8766d;stroke:#f8766d;" x="182.000331" xlink:href="#m0a0f3f73e9" y="337.54924"/>
     <use style="fill:#f8766d;stroke:#f8766d;" x="245.826087" xlink:href="#m0a0f3f73e9" y="313.696623"/>
     <use style="fill:#f8766d;stroke:#f8766d;" x="273.859458" xlink:href="#m0a0f3f73e9" y="284.965522"/>
     <use style="fill:#f8766d;stroke:#f8766d;" x="362.32554" xlink:href="#m0a0f3f73e9" y="326.991499"/>
     <use style="fill:#f8766d;stroke:#f8766d;" x="265.849184" xlink:href="#m0a0f3f73e9" y="329.441367"/>
     <use style="fill:#f8766d;stroke:#f8766d;" x="202.858381" xlink:href="#m0a0f3f73e9" y="342.809912"/>
     <use style="fill:#f8766d;stroke:#f8766d;" x="369.194275" xlink:href="#m0a0f3f73e9" y="319.446135"/>
     <use style="fill:#f8766d;stroke:#f8766d;" x="256.648804" xlink:href="#m0a0f3f73e9" y="326.019537"/>
     <use style="fill:#f8766d;stroke:#f8766d;" x="319.626116" xlink:href="#m0a0f3f73e9" y="274.532577"/>
     <use style="fill:#f8766d;stroke:#f8766d;" x="480.030514" xlink:href="#m0a0f3f73e9" y="79.59566"/>
     <use style="fill:#f8766d;stroke:#f8766d;" x="215.057038" xlink:href="#m0a0f3f73e9" y="216.041623"/>
     <use style="fill:#f8766d;stroke:#f8766d;" x="545.139297" xlink:href="#m0a0f3f73e9" y="231.159665"/>
     <use style="fill:#f8766d;stroke:#f8766d;" x="254.561028" xlink:href="#m0a0f3f73e9" y="123.066273"/>
     <use style="fill:#f8766d;stroke:#f8766d;" x="568.208537" xlink:href="#m0a0f3f73e9" y="158.301084"/>
     <use style="fill:#f8766d;stroke:#f8766d;" x="567.526118" xlink:href="#m0a0f3f73e9" y="96.014933"/>
     <use style="fill:#f8766d;stroke:#f8766d;" x="500.023585" xlink:href="#m0a0f3f73e9" y="214.827271"/>
     <use style="fill:#f8766d;stroke:#f8766d;" x="420.778499" xlink:href="#m0a0f3f73e9" y="176.097419"/>
     <use style="fill:#f8766d;stroke:#f8766d;" x="367.492381" xlink:href="#m0a0f3f73e9" y="113.527677"/>
     <use style="fill:#f8766d;stroke:#f8766d;" x="499.095497" xlink:href="#m0a0f3f73e9" y="184.31771"/>
     <use style="fill:#f8766d;stroke:#f8766d;" x="469.671619" xlink:href="#m0a0f3f73e9" y="135.403216"/>
     <use style="fill:#f8766d;stroke:#f8766d;" x="383.675157" xlink:href="#m0a0f3f73e9" y="183.707284"/>
     <use style="fill:#f8766d;stroke:#f8766d;" x="241.801526" xlink:href="#m0a0f3f73e9" y="139.063961"/>
     <use style="fill:#f8766d;stroke:#f8766d;" x="606.83281" xlink:href="#m0a0f3f73e9" y="146.574242"/>
     <use style="fill:#f8766d;stroke:#f8766d;" x="464.94849" xlink:href="#m0a0f3f73e9" y="175.33826"/>
     <use style="fill:#f8766d;stroke:#f8766d;" x="611.965586" xlink:href="#m0a0f3f73e9" y="198.556348"/>
     <use style="fill:#f8766d;stroke:#f8766d;" x="321.725298" xlink:href="#m0a0f3f73e9" y="204.629662"/>
     <use style="fill:#f8766d;stroke:#f8766d;" x="203.821497" xlink:href="#m0a0f3f73e9" y="200.603856"/>
     <use style="fill:#f8766d;stroke:#f8766d;" x="497.377709" xlink:href="#m0a0f3f73e9" y="220.872277"/>
     <use style="fill:#f8766d;stroke:#f8766d;" x="170.146891" xlink:href="#m0a0f3f73e9" y="170.289695"/>
     <use style="fill:#f8766d;stroke:#f8766d;" x="258.058176" xlink:href="#m0a0f3f73e9" y="189.947011"/>
     <use style="fill:#f8766d;stroke:#f8766d;" x="581.845946" xlink:href="#m0a0f3f73e9" y="116.155831"/>
     <use style="fill:#f8766d;stroke:#f8766d;" x="541.839529" xlink:href="#m0a0f3f73e9" y="231.167947"/>
     <use style="fill:#f8766d;stroke:#f8766d;" x="533.133962" xlink:href="#m0a0f3f73e9" y="158.131127"/>
     <use style="fill:#f8766d;stroke:#f8766d;" x="275.918032" xlink:href="#m0a0f3f73e9" y="218.683769"/>
     <use style="fill:#f8766d;stroke:#f8766d;" x="290.22468" xlink:href="#m0a0f3f73e9" y="140.377253"/>
     <use style="fill:#f8766d;stroke:#f8766d;" x="478.773973" xlink:href="#m0a0f3f73e9" y="242.273933"/>
     <use style="fill:#f8766d;stroke:#f8766d;" x="411.821139" xlink:href="#m0a0f3f73e9" y="142.728172"/>
     <use style="fill:#f8766d;stroke:#f8766d;" x="379.955464" xlink:href="#m0a0f3f73e9" y="202.826809"/>
     <use style="fill:#f8766d;stroke:#f8766d;" x="584.867659" xlink:href="#m0a0f3f73e9" y="228.603116"/>
     <use style="fill:#f8766d;stroke:#f8766d;" x="357.047185" xlink:href="#m0a0f3f73e9" y="197.816022"/>
     <use style="fill:#f8766d;stroke:#f8766d;" x="263.201565" xlink:href="#m0a0f3f73e9" y="183.902631"/>
     <use style="fill:#f8766d;stroke:#f8766d;" x="215.851694" xlink:href="#m0a0f3f73e9" y="183.719754"/>
     <use style="fill:#f8766d;stroke:#f8766d;" x="158.011344" xlink:href="#m0a0f3f73e9" y="170.984969"/>
     <use style="fill:#f8766d;stroke:#f8766d;" x="591.074675" xlink:href="#m0a0f3f73e9" y="242.739937"/>
     <use style="fill:#f8766d;stroke:#f8766d;" x="423.353209" xlink:href="#m0a0f3f73e9" y="109.325745"/>
     <use style="fill:#f8766d;stroke:#f8766d;" x="510.453293" xlink:href="#m0a0f3f73e9" y="106.475621"/>
     <use style="fill:#f8766d;stroke:#f8766d;" x="324.914677" xlink:href="#m0a0f3f73e9" y="124.313261"/>
     <use style="fill:#f8766d;stroke:#f8766d;" x="497.469627" xlink:href="#m0a0f3f73e9" y="99.915864"/>
     <use style="fill:#f8766d;stroke:#f8766d;" x="253.966639" xlink:href="#m0a0f3f73e9" y="130.968399"/>
     <use style="fill:#f8766d;stroke:#f8766d;" x="619.446413" xlink:href="#m0a0f3f73e9" y="226.022163"/>
     <use style="fill:#f8766d;stroke:#f8766d;" x="529.536012" xlink:href="#m0a0f3f73e9" y="174.980697"/>
     <use style="fill:#f8766d;stroke:#f8766d;" x="619.855897" xlink:href="#m0a0f3f73e9" y="248.775911"/>
     <use style="fill:#f8766d;stroke:#f8766d;" x="604.948433" xlink:href="#m0a0f3f73e9" y="144.448728"/>
     <use style="fill:#f8766d;stroke:#f8766d;" x="498.107089" xlink:href="#m0a0f3f73e9" y="91.64845"/>
     <use style="fill:#f8766d;stroke:#f8766d;" x="490.947813" xlink:href="#m0a0f3f73e9" y="125.12641"/>
     <use style="fill:#f8766d;stroke:#f8766d;" x="495.701606" xlink:href="#m0a0f3f73e9" y="144.667846"/>
     <use style="fill:#f8766d;stroke:#f8766d;" x="330.528447" xlink:href="#m0a0f3f73e9" y="119.114553"/>
     <use style="fill:#f8766d;stroke:#f8766d;" x="587.927931" xlink:href="#m0a0f3f73e9" y="244.421854"/>
     <use style="fill:#f8766d;stroke:#f8766d;" x="526.401958" xlink:href="#m0a0f3f73e9" y="93.107446"/>
     <use style="fill:#f8766d;stroke:#f8766d;" x="287.166767" xlink:href="#m0a0f3f73e9" y="194.395286"/>
     <use style="fill:#f8766d;stroke:#f8766d;" x="523.736847" xlink:href="#m0a0f3f73e9" y="129.620599"/>
     <use style="fill:#f8766d;stroke:#f8766d;" x="463.119697" xlink:href="#m0a0f3f73e9" y="208.685939"/>
     <use style="fill:#f8766d;stroke:#f8766d;" x="438.409048" xlink:href="#m0a0f3f73e9" y="128.673406"/>
     <use style="fill:#f8766d;stroke:#f8766d;" x="543.820144" xlink:href="#m0a0f3f73e9" y="175.219884"/>
     <use style="fill:#f8766d;stroke:#f8766d;" x="567.890838" xlink:href="#m0a0f3f73e9" y="210.973008"/>
     <use style="fill:#f8766d;stroke:#f8766d;" x="229.605244" xlink:href="#m0a0f3f73e9" y="147.446311"/>
     <use style="fill:#f8766d;stroke:#f8766d;" x="571.630754" xlink:href="#m0a0f3f73e9" y="133.585518"/>
     <use style="fill:#f8766d;stroke:#f8766d;" x="537.20912" xlink:href="#m0a0f3f73e9" y="144.050418"/>
     <use style="fill:#f8766d;stroke:#f8766d;" x="399.702816" xlink:href="#m0a0f3f73e9" y="218.026489"/>
     <use style="fill:#f8766d;stroke:#f8766d;" x="259.368439" xlink:href="#m0a0f3f73e9" y="203.355462"/>
     <use style="fill:#f8766d;stroke:#f8766d;" x="193.078944" xlink:href="#m0a0f3f73e9" y="213.178016"/>
     <use style="fill:#f8766d;stroke:#f8766d;" x="366.240185" xlink:href="#m0a0f3f73e9" y="223.467185"/>
     <use style="fill:#f8766d;stroke:#f8766d;" x="516.88005" xlink:href="#m0a0f3f73e9" y="198.05158"/>
     <use style="fill:#f8766d;stroke:#f8766d;" x="601.864991" xlink:href="#m0a0f3f73e9" y="167.569792"/>
     <use style="fill:#f8766d;stroke:#f8766d;" x="233.226778" xlink:href="#m0a0f3f73e9" y="193.512979"/>
     <use style="fill:#f8766d;stroke:#f8766d;" x="489.171139" xlink:href="#m0a0f3f73e9" y="69.454156"/>
     <use style="fill:#f8766d;stroke:#f8766d;" x="485.697375" xlink:href="#m0a0f3f73e9" y="114.393274"/>
     <use style="fill:#f8766d;stroke:#f8766d;" x="475.356543" xlink:href="#m0a0f3f73e9" y="193.067189"/>
     <use style="fill:#f8766d;stroke:#f8766d;" x="597.317521" xlink:href="#m0a0f3f73e9" y="206.23516"/>
     <use style="fill:#f8766d;stroke:#f8766d;" x="491.978878" xlink:href="#m0a0f3f73e9" y="171.203863"/>
     <use style="fill:#f8766d;stroke:#f8766d;" x="354.781981" xlink:href="#m0a0f3f73e9" y="164.633132"/>
     <use style="fill:#f8766d;stroke:#f8766d;" x="460.546986" xlink:href="#m0a0f3f73e9" y="164.520749"/>
     <use style="fill:#f8766d;stroke:#f8766d;" x="429.241929" xlink:href="#m0a0f3f73e9" y="239.921886"/>
     <use style="fill:#f8766d;stroke:#f8766d;" x="515.914395" xlink:href="#m0a0f3f73e9" y="195.471416"/>
     <use style="fill:#f8766d;stroke:#f8766d;" x="297.411458" xlink:href="#m0a0f3f73e9" y="177.984988"/>
    </g>
   </g>
   <g id="matplotlib.axis_1">
    <g id="xtick_1">
     <g id="line2d_1">
      <defs>
       <path d="M 0 0 
L 0 3.5 
" id="mc3f8ed9de5" style="stroke:#000000;stroke-width:0.8;"/>
      </defs>
      <g>
       <use style="stroke:#000000;stroke-width:0.8;" x="123.49561" xlink:href="#mc3f8ed9de5" y="378"/>
      </g>
     </g>
     <g id="text_1">
      <!-- −8 -->
      <defs>
       <path d="M 10.59375 35.5 
L 73.1875 35.5 
L 73.1875 27.203125 
L 10.59375 27.203125 
z
" id="DejaVuSans-8722"/>
       <path d="M 31.78125 34.625 
Q 24.75 34.625 20.71875 30.859375 
Q 16.703125 27.09375 16.703125 20.515625 
Q 16.703125 13.921875 20.71875 10.15625 
Q 24.75 6.390625 31.78125 6.390625 
Q 38.8125 6.390625 42.859375 10.171875 
Q 46.921875 13.96875 46.921875 20.515625 
Q 46.921875 27.09375 42.890625 30.859375 
Q 38.875 34.625 31.78125 34.625 
z
M 21.921875 38.8125 
Q 15.578125 40.375 12.03125 44.71875 
Q 8.5 49.078125 8.5 55.328125 
Q 8.5 64.0625 14.71875 69.140625 
Q 20.953125 74.21875 31.78125 74.21875 
Q 42.671875 74.21875 48.875 69.140625 
Q 55.078125 64.0625 55.078125 55.328125 
Q 55.078125 49.078125 51.53125 44.71875 
Q 48 40.375 41.703125 38.8125 
Q 48.828125 37.15625 52.796875 32.3125 
Q 56.78125 27.484375 56.78125 20.515625 
Q 56.78125 9.90625 50.3125 4.234375 
Q 43.84375 -1.421875 31.78125 -1.421875 
Q 19.734375 -1.421875 13.25 4.234375 
Q 6.78125 9.90625 6.78125 20.515625 
Q 6.78125 27.484375 10.78125 32.3125 
Q 14.796875 37.15625 21.921875 38.8125 
z
M 18.3125 54.390625 
Q 18.3125 48.734375 21.84375 45.5625 
Q 25.390625 42.390625 31.78125 42.390625 
Q 38.140625 42.390625 41.71875 45.5625 
Q 45.3125 48.734375 45.3125 54.390625 
Q 45.3125 60.0625 41.71875 63.234375 
Q 38.140625 66.40625 31.78125 66.40625 
Q 25.390625 66.40625 21.84375 63.234375 
Q 18.3125 60.0625 18.3125 54.390625 
z
" id="DejaVuSans-56"/>
      </defs>
      <g transform="translate(116.124516 392.598437)scale(0.1 -0.1)">
       <use xlink:href="#DejaVuSans-8722"/>
       <use x="83.789062" xlink:href="#DejaVuSans-56"/>
      </g>
     </g>
    </g>
    <g id="xtick_2">
     <g id="line2d_2">
      <g>
       <use style="stroke:#000000;stroke-width:0.8;" x="185.748692" xlink:href="#mc3f8ed9de5" y="378"/>
      </g>
     </g>
     <g id="text_2">
      <!-- −6 -->
      <defs>
       <path d="M 33.015625 40.375 
Q 26.375 40.375 22.484375 35.828125 
Q 18.609375 31.296875 18.609375 23.390625 
Q 18.609375 15.53125 22.484375 10.953125 
Q 26.375 6.390625 33.015625 6.390625 
Q 39.65625 6.390625 43.53125 10.953125 
Q 47.40625 15.53125 47.40625 23.390625 
Q 47.40625 31.296875 43.53125 35.828125 
Q 39.65625 40.375 33.015625 40.375 
z
M 52.59375 71.296875 
L 52.59375 62.3125 
Q 48.875 64.0625 45.09375 64.984375 
Q 41.3125 65.921875 37.59375 65.921875 
Q 27.828125 65.921875 22.671875 59.328125 
Q 17.53125 52.734375 16.796875 39.40625 
Q 19.671875 43.65625 24.015625 45.921875 
Q 28.375 48.1875 33.59375 48.1875 
Q 44.578125 48.1875 50.953125 41.515625 
Q 57.328125 34.859375 57.328125 23.390625 
Q 57.328125 12.15625 50.6875 5.359375 
Q 44.046875 -1.421875 33.015625 -1.421875 
Q 20.359375 -1.421875 13.671875 8.265625 
Q 6.984375 17.96875 6.984375 36.375 
Q 6.984375 53.65625 15.1875 63.9375 
Q 23.390625 74.21875 37.203125 74.21875 
Q 40.921875 74.21875 44.703125 73.484375 
Q 48.484375 72.75 52.59375 71.296875 
z
" id="DejaVuSans-54"/>
      </defs>
      <g transform="translate(178.377598 392.598437)scale(0.1 -0.1)">
       <use xlink:href="#DejaVuSans-8722"/>
       <use x="83.789062" xlink:href="#DejaVuSans-54"/>
      </g>
     </g>
    </g>
    <g id="xtick_3">
     <g id="line2d_3">
      <g>
       <use style="stroke:#000000;stroke-width:0.8;" x="248.001774" xlink:href="#mc3f8ed9de5" y="378"/>
      </g>
     </g>
     <g id="text_3">
      <!-- −4 -->
      <defs>
       <path d="M 37.796875 64.3125 
L 12.890625 25.390625 
L 37.796875 25.390625 
z
M 35.203125 72.90625 
L 47.609375 72.90625 
L 47.609375 25.390625 
L 58.015625 25.390625 
L 58.015625 17.1875 
L 47.609375 17.1875 
L 47.609375 0 
L 37.796875 0 
L 37.796875 17.1875 
L 4.890625 17.1875 
L 4.890625 26.703125 
z
" id="DejaVuSans-52"/>
      </defs>
      <g transform="translate(240.630681 392.598437)scale(0.1 -0.1)">
       <use xlink:href="#DejaVuSans-8722"/>
       <use x="83.789062" xlink:href="#DejaVuSans-52"/>
      </g>
     </g>
    </g>
    <g id="xtick_4">
     <g id="line2d_4">
      <g>
       <use style="stroke:#000000;stroke-width:0.8;" x="310.254856" xlink:href="#mc3f8ed9de5" y="378"/>
      </g>
     </g>
     <g id="text_4">
      <!-- −2 -->
      <defs>
       <path d="M 19.1875 8.296875 
L 53.609375 8.296875 
L 53.609375 0 
L 7.328125 0 
L 7.328125 8.296875 
Q 12.9375 14.109375 22.625 23.890625 
Q 32.328125 33.6875 34.8125 36.53125 
Q 39.546875 41.84375 41.421875 45.53125 
Q 43.3125 49.21875 43.3125 52.78125 
Q 43.3125 58.59375 39.234375 62.25 
Q 35.15625 65.921875 28.609375 65.921875 
Q 23.96875 65.921875 18.8125 64.3125 
Q 13.671875 62.703125 7.8125 59.421875 
L 7.8125 69.390625 
Q 13.765625 71.78125 18.9375 73 
Q 24.125 74.21875 28.421875 74.21875 
Q 39.75 74.21875 46.484375 68.546875 
Q 53.21875 62.890625 53.21875 53.421875 
Q 53.21875 48.921875 51.53125 44.890625 
Q 49.859375 40.875 45.40625 35.40625 
Q 44.1875 33.984375 37.640625 27.21875 
Q 31.109375 20.453125 19.1875 8.296875 
z
" id="DejaVuSans-50"/>
      </defs>
      <g transform="translate(302.883763 392.598437)scale(0.1 -0.1)">
       <use xlink:href="#DejaVuSans-8722"/>
       <use x="83.789062" xlink:href="#DejaVuSans-50"/>
      </g>
     </g>
    </g>
    <g id="xtick_5">
     <g id="line2d_5">
      <g>
       <use style="stroke:#000000;stroke-width:0.8;" x="372.507938" xlink:href="#mc3f8ed9de5" y="378"/>
      </g>
     </g>
     <g id="text_5">
      <!-- 0 -->
      <defs>
       <path d="M 31.78125 66.40625 
Q 24.171875 66.40625 20.328125 58.90625 
Q 16.5 51.421875 16.5 36.375 
Q 16.5 21.390625 20.328125 13.890625 
Q 24.171875 6.390625 31.78125 6.390625 
Q 39.453125 6.390625 43.28125 13.890625 
Q 47.125 21.390625 47.125 36.375 
Q 47.125 51.421875 43.28125 58.90625 
Q 39.453125 66.40625 31.78125 66.40625 
z
M 31.78125 74.21875 
Q 44.046875 74.21875 50.515625 64.515625 
Q 56.984375 54.828125 56.984375 36.375 
Q 56.984375 17.96875 50.515625 8.265625 
Q 44.046875 -1.421875 31.78125 -1.421875 
Q 19.53125 -1.421875 13.0625 8.265625 
Q 6.59375 17.96875 6.59375 36.375 
Q 6.59375 54.828125 13.0625 64.515625 
Q 19.53125 74.21875 31.78125 74.21875 
z
" id="DejaVuSans-48"/>
      </defs>
      <g transform="translate(369.326688 392.598437)scale(0.1 -0.1)">
       <use xlink:href="#DejaVuSans-48"/>
      </g>
     </g>
    </g>
    <g id="xtick_6">
     <g id="line2d_6">
      <g>
       <use style="stroke:#000000;stroke-width:0.8;" x="434.761021" xlink:href="#mc3f8ed9de5" y="378"/>
      </g>
     </g>
     <g id="text_6">
      <!-- 2 -->
      <g transform="translate(431.579771 392.598437)scale(0.1 -0.1)">
       <use xlink:href="#DejaVuSans-50"/>
      </g>
     </g>
    </g>
    <g id="xtick_7">
     <g id="line2d_7">
      <g>
       <use style="stroke:#000000;stroke-width:0.8;" x="497.014103" xlink:href="#mc3f8ed9de5" y="378"/>
      </g>
     </g>
     <g id="text_7">
      <!-- 4 -->
      <g transform="translate(493.832853 392.598437)scale(0.1 -0.1)">
       <use xlink:href="#DejaVuSans-52"/>
      </g>
     </g>
    </g>
    <g id="xtick_8">
     <g id="line2d_8">
      <g>
       <use style="stroke:#000000;stroke-width:0.8;" x="559.267185" xlink:href="#mc3f8ed9de5" y="378"/>
      </g>
     </g>
     <g id="text_8">
      <!-- 6 -->
      <g transform="translate(556.085935 392.598437)scale(0.1 -0.1)">
       <use xlink:href="#DejaVuSans-54"/>
      </g>
     </g>
    </g>
    <g id="xtick_9">
     <g id="line2d_9">
      <g>
       <use style="stroke:#000000;stroke-width:0.8;" x="621.520267" xlink:href="#mc3f8ed9de5" y="378"/>
      </g>
     </g>
     <g id="text_9">
      <!-- 8 -->
      <g transform="translate(618.339017 392.598437)scale(0.1 -0.1)">
       <use xlink:href="#DejaVuSans-56"/>
      </g>
     </g>
    </g>
    <g id="text_10">
     <!-- tSNE-1 -->
     <defs>
      <path d="M 18.3125 70.21875 
L 18.3125 54.6875 
L 36.8125 54.6875 
L 36.8125 47.703125 
L 18.3125 47.703125 
L 18.3125 18.015625 
Q 18.3125 11.328125 20.140625 9.421875 
Q 21.96875 7.515625 27.59375 7.515625 
L 36.8125 7.515625 
L 36.8125 0 
L 27.59375 0 
Q 17.1875 0 13.234375 3.875 
Q 9.28125 7.765625 9.28125 18.015625 
L 9.28125 47.703125 
L 2.6875 47.703125 
L 2.6875 54.6875 
L 9.28125 54.6875 
L 9.28125 70.21875 
z
" id="DejaVuSans-116"/>
      <path d="M 53.515625 70.515625 
L 53.515625 60.890625 
Q 47.90625 63.578125 42.921875 64.890625 
Q 37.9375 66.21875 33.296875 66.21875 
Q 25.25 66.21875 20.875 63.09375 
Q 16.5 59.96875 16.5 54.203125 
Q 16.5 49.359375 19.40625 46.890625 
Q 22.3125 44.4375 30.421875 42.921875 
L 36.375 41.703125 
Q 47.40625 39.59375 52.65625 34.296875 
Q 57.90625 29 57.90625 20.125 
Q 57.90625 9.515625 50.796875 4.046875 
Q 43.703125 -1.421875 29.984375 -1.421875 
Q 24.8125 -1.421875 18.96875 -0.25 
Q 13.140625 0.921875 6.890625 3.21875 
L 6.890625 13.375 
Q 12.890625 10.015625 18.65625 8.296875 
Q 24.421875 6.59375 29.984375 6.59375 
Q 38.421875 6.59375 43.015625 9.90625 
Q 47.609375 13.234375 47.609375 19.390625 
Q 47.609375 24.75 44.3125 27.78125 
Q 41.015625 30.8125 33.5 32.328125 
L 27.484375 33.5 
Q 16.453125 35.6875 11.515625 40.375 
Q 6.59375 45.0625 6.59375 53.421875 
Q 6.59375 63.09375 13.40625 68.65625 
Q 20.21875 74.21875 32.171875 74.21875 
Q 37.3125 74.21875 42.625 73.28125 
Q 47.953125 72.359375 53.515625 70.515625 
z
" id="DejaVuSans-83"/>
      <path d="M 9.8125 72.90625 
L 23.09375 72.90625 
L 55.421875 11.921875 
L 55.421875 72.90625 
L 64.984375 72.90625 
L 64.984375 0 
L 51.703125 0 
L 19.390625 60.984375 
L 19.390625 0 
L 9.8125 0 
z
" id="DejaVuSans-78"/>
      <path d="M 9.8125 72.90625 
L 55.90625 72.90625 
L 55.90625 64.59375 
L 19.671875 64.59375 
L 19.671875 43.015625 
L 54.390625 43.015625 
L 54.390625 34.71875 
L 19.671875 34.71875 
L 19.671875 8.296875 
L 56.78125 8.296875 
L 56.78125 0 
L 9.8125 0 
z
" id="DejaVuSans-69"/>
      <path d="M 4.890625 31.390625 
L 31.203125 31.390625 
L 31.203125 23.390625 
L 4.890625 23.390625 
z
" id="DejaVuSans-45"/>
      <path d="M 12.40625 8.296875 
L 28.515625 8.296875 
L 28.515625 63.921875 
L 10.984375 60.40625 
L 10.984375 69.390625 
L 28.421875 72.90625 
L 38.28125 72.90625 
L 38.28125 8.296875 
L 54.390625 8.296875 
L 54.390625 0 
L 12.40625 0 
z
" id="DejaVuSans-49"/>
     </defs>
     <g transform="translate(351.980469 406.276563)scale(0.1 -0.1)">
      <use xlink:href="#DejaVuSans-116"/>
      <use x="39.208984" xlink:href="#DejaVuSans-83"/>
      <use x="102.685547" xlink:href="#DejaVuSans-78"/>
      <use x="177.490234" xlink:href="#DejaVuSans-69"/>
      <use x="240.673828" xlink:href="#DejaVuSans-45"/>
      <use x="276.757812" xlink:href="#DejaVuSans-49"/>
     </g>
    </g>
   </g>
   <g id="matplotlib.axis_2">
    <g id="ytick_1">
     <g id="line2d_10">
      <defs>
       <path d="M 0 0 
L -3.5 0 
" id="m6f86f14f59" style="stroke:#000000;stroke-width:0.8;"/>
      </defs>
      <g>
       <use style="stroke:#000000;stroke-width:0.8;" x="90" xlink:href="#m6f86f14f59" y="353.993761"/>
      </g>
     </g>
     <g id="text_11">
      <!-- −10 -->
      <g transform="translate(61.895313 357.79298)scale(0.1 -0.1)">
       <use xlink:href="#DejaVuSans-8722"/>
       <use x="83.789062" xlink:href="#DejaVuSans-49"/>
       <use x="147.412109" xlink:href="#DejaVuSans-48"/>
      </g>
     </g>
    </g>
    <g id="ytick_2">
     <g id="line2d_11">
      <g>
       <use style="stroke:#000000;stroke-width:0.8;" x="90" xlink:href="#m6f86f14f59" y="287.072152"/>
      </g>
     </g>
     <g id="text_12">
      <!-- −5 -->
      <defs>
       <path d="M 10.796875 72.90625 
L 49.515625 72.90625 
L 49.515625 64.59375 
L 19.828125 64.59375 
L 19.828125 46.734375 
Q 21.96875 47.46875 24.109375 47.828125 
Q 26.265625 48.1875 28.421875 48.1875 
Q 40.625 48.1875 47.75 41.5 
Q 54.890625 34.8125 54.890625 23.390625 
Q 54.890625 11.625 47.5625 5.09375 
Q 40.234375 -1.421875 26.90625 -1.421875 
Q 22.3125 -1.421875 17.546875 -0.640625 
Q 12.796875 0.140625 7.71875 1.703125 
L 7.71875 11.625 
Q 12.109375 9.234375 16.796875 8.0625 
Q 21.484375 6.890625 26.703125 6.890625 
Q 35.15625 6.890625 40.078125 11.328125 
Q 45.015625 15.765625 45.015625 23.390625 
Q 45.015625 31 40.078125 35.4375 
Q 35.15625 39.890625 26.703125 39.890625 
Q 22.75 39.890625 18.8125 39.015625 
Q 14.890625 38.140625 10.796875 36.28125 
z
" id="DejaVuSans-53"/>
      </defs>
      <g transform="translate(68.257812 290.871371)scale(0.1 -0.1)">
       <use xlink:href="#DejaVuSans-8722"/>
       <use x="83.789062" xlink:href="#DejaVuSans-53"/>
      </g>
     </g>
    </g>
    <g id="ytick_3">
     <g id="line2d_12">
      <g>
       <use style="stroke:#000000;stroke-width:0.8;" x="90" xlink:href="#m6f86f14f59" y="220.150543"/>
      </g>
     </g>
     <g id="text_13">
      <!-- 0 -->
      <g transform="translate(76.6375 223.949762)scale(0.1 -0.1)">
       <use xlink:href="#DejaVuSans-48"/>
      </g>
     </g>
    </g>
    <g id="ytick_4">
     <g id="line2d_13">
      <g>
       <use style="stroke:#000000;stroke-width:0.8;" x="90" xlink:href="#m6f86f14f59" y="153.228934"/>
      </g>
     </g>
     <g id="text_14">
      <!-- 5 -->
      <g transform="translate(76.6375 157.028153)scale(0.1 -0.1)">
       <use xlink:href="#DejaVuSans-53"/>
      </g>
     </g>
    </g>
    <g id="ytick_5">
     <g id="line2d_14">
      <g>
       <use style="stroke:#000000;stroke-width:0.8;" x="90" xlink:href="#m6f86f14f59" y="86.307325"/>
      </g>
     </g>
     <g id="text_15">
      <!-- 10 -->
      <g transform="translate(70.275 90.106544)scale(0.1 -0.1)">
       <use xlink:href="#DejaVuSans-49"/>
       <use x="63.623047" xlink:href="#DejaVuSans-48"/>
      </g>
     </g>
    </g>
    <g id="text_16">
     <!-- tSNE-2 -->
     <g transform="translate(55.815625 231.939531)rotate(-90)scale(0.1 -0.1)">
      <use xlink:href="#DejaVuSans-116"/>
      <use x="39.208984" xlink:href="#DejaVuSans-83"/>
      <use x="102.685547" xlink:href="#DejaVuSans-78"/>
      <use x="177.490234" xlink:href="#DejaVuSans-69"/>
      <use x="240.673828" xlink:href="#DejaVuSans-45"/>
      <use x="276.757812" xlink:href="#DejaVuSans-50"/>
     </g>
    </g>
   </g>
   <g id="patch_3">
    <path d="M 90 378 
L 90 51.84 
" style="fill:none;stroke:#000000;stroke-linecap:square;stroke-linejoin:miter;stroke-width:0.8;"/>
   </g>
   <g id="patch_4">
    <path d="M 648 378 
L 648 51.84 
" style="fill:none;stroke:#000000;stroke-linecap:square;stroke-linejoin:miter;stroke-width:0.8;"/>
   </g>
   <g id="patch_5">
    <path d="M 90 378 
L 648 378 
" style="fill:none;stroke:#000000;stroke-linecap:square;stroke-linejoin:miter;stroke-width:0.8;"/>
   </g>
   <g id="patch_6">
    <path d="M 90 51.84 
L 648 51.84 
" style="fill:none;stroke:#000000;stroke-linecap:square;stroke-linejoin:miter;stroke-width:0.8;"/>
   </g>
   <g id="legend_1">
    <g id="patch_7">
     <path d="M 563.125 89.19625 
L 641 89.19625 
Q 643 89.19625 643 87.19625 
L 643 58.84 
Q 643 56.84 641 56.84 
L 563.125 56.84 
Q 561.125 56.84 561.125 58.84 
L 561.125 87.19625 
Q 561.125 89.19625 563.125 89.19625 
z
" style="fill:#ffffff;opacity:0.8;stroke:#cccccc;stroke-linejoin:miter;"/>
    </g>
    <g id="PathCollection_3">
     <g>
      <use style="fill:#00bfc4;stroke:#00bfc4;" x="575.125" xlink:href="#m409f1a3d20" y="65.813437"/>
     </g>
    </g>
    <g id="text_17">
     <!-- D006262 -->
     <defs>
      <path d="M 19.671875 64.796875 
L 19.671875 8.109375 
L 31.59375 8.109375 
Q 46.6875 8.109375 53.6875 14.9375 
Q 60.6875 21.78125 60.6875 36.53125 
Q 60.6875 51.171875 53.6875 57.984375 
Q 46.6875 64.796875 31.59375 64.796875 
z
M 9.8125 72.90625 
L 30.078125 72.90625 
Q 51.265625 72.90625 61.171875 64.09375 
Q 71.09375 55.28125 71.09375 36.53125 
Q 71.09375 17.671875 61.125 8.828125 
Q 51.171875 0 30.078125 0 
L 9.8125 0 
z
" id="DejaVuSans-68"/>
     </defs>
     <g transform="translate(593.125 68.438437)scale(0.1 -0.1)">
      <use xlink:href="#DejaVuSans-68"/>
      <use x="77.001953" xlink:href="#DejaVuSans-48"/>
      <use x="140.625" xlink:href="#DejaVuSans-48"/>
      <use x="204.248047" xlink:href="#DejaVuSans-54"/>
      <use x="267.871094" xlink:href="#DejaVuSans-50"/>
      <use x="331.494141" xlink:href="#DejaVuSans-54"/>
      <use x="395.117188" xlink:href="#DejaVuSans-50"/>
     </g>
    </g>
    <g id="PathCollection_4">
     <g>
      <use style="fill:#f8766d;stroke:#f8766d;" x="575.125" xlink:href="#m0a0f3f73e9" y="80.491562"/>
     </g>
    </g>
    <g id="text_18">
     <!-- D009765 -->
     <defs>
      <path d="M 10.984375 1.515625 
L 10.984375 10.5 
Q 14.703125 8.734375 18.5 7.8125 
Q 22.3125 6.890625 25.984375 6.890625 
Q 35.75 6.890625 40.890625 13.453125 
Q 46.046875 20.015625 46.78125 33.40625 
Q 43.953125 29.203125 39.59375 26.953125 
Q 35.25 24.703125 29.984375 24.703125 
Q 19.046875 24.703125 12.671875 31.3125 
Q 6.296875 37.9375 6.296875 49.421875 
Q 6.296875 60.640625 12.9375 67.421875 
Q 19.578125 74.21875 30.609375 74.21875 
Q 43.265625 74.21875 49.921875 64.515625 
Q 56.59375 54.828125 56.59375 36.375 
Q 56.59375 19.140625 48.40625 8.859375 
Q 40.234375 -1.421875 26.421875 -1.421875 
Q 22.703125 -1.421875 18.890625 -0.6875 
Q 15.09375 0.046875 10.984375 1.515625 
z
M 30.609375 32.421875 
Q 37.25 32.421875 41.125 36.953125 
Q 45.015625 41.5 45.015625 49.421875 
Q 45.015625 57.28125 41.125 61.84375 
Q 37.25 66.40625 30.609375 66.40625 
Q 23.96875 66.40625 20.09375 61.84375 
Q 16.21875 57.28125 16.21875 49.421875 
Q 16.21875 41.5 20.09375 36.953125 
Q 23.96875 32.421875 30.609375 32.421875 
z
" id="DejaVuSans-57"/>
      <path d="M 8.203125 72.90625 
L 55.078125 72.90625 
L 55.078125 68.703125 
L 28.609375 0 
L 18.3125 0 
L 43.21875 64.59375 
L 8.203125 64.59375 
z
" id="DejaVuSans-55"/>
     </defs>
     <g transform="translate(593.125 83.116562)scale(0.1 -0.1)">
      <use xlink:href="#DejaVuSans-68"/>
      <use x="77.001953" xlink:href="#DejaVuSans-48"/>
      <use x="140.625" xlink:href="#DejaVuSans-48"/>
      <use x="204.248047" xlink:href="#DejaVuSans-57"/>
      <use x="267.871094" xlink:href="#DejaVuSans-55"/>
      <use x="331.494141" xlink:href="#DejaVuSans-54"/>
      <use x="395.117188" xlink:href="#DejaVuSans-53"/>
     </g>
    </g>
   </g>
  </g>
 </g>
 <defs>
  <clipPath id="p70411b0bd2">
   <rect height="326.16" width="558" x="90" y="51.84"/>
  </clipPath>
 </defs>
</svg>
