<?xml version="1.0" encoding="utf-8" standalone="no"?>
<!DOCTYPE svg PUBLIC "-//W3C//DTD SVG 1.1//EN"
  "http://www.w3.org/Graphics/SVG/1.1/DTD/svg11.dtd">
<!-- Created with matplotlib (https://matplotlib.org/) -->
<svg height="432pt" version="1.1" viewBox="0 0 720 432" width="720pt" xmlns="http://www.w3.org/2000/svg" xmlns:xlink="http://www.w3.org/1999/xlink">
 <defs>
  <style type="text/css">
*{stroke-linecap:butt;stroke-linejoin:round;}
  </style>
 </defs>
 <g id="figure_1">
  <g id="patch_1">
   <path d="M 0 432 
L 720 432 
L 720 0 
L 0 0 
z
" style="fill:#ffffff;"/>
  </g>
  <g id="axes_1">
   <g id="patch_2">
    <path d="M 90 378 
L 648 378 
L 648 51.84 
L 90 51.84 
z
" style="fill:#ffffff;"/>
   </g>
   <g id="PathCollection_1">
    <defs>
     <path d="M 0 3 
C 0.795609 3 1.55874 2.683901 2.12132 2.12132 
C 2.683901 1.55874 3 0.795609 3 0 
C 3 -0.795609 2.683901 -1.55874 2.12132 -2.12132 
C 1.55874 -2.683901 0.795609 -3 0 -3 
C -0.795609 -3 -1.55874 -2.683901 -2.12132 -2.12132 
C -2.683901 -1.55874 -3 -0.795609 -3 0 
C -3 0.795609 -2.683901 1.55874 -2.12132 2.12132 
C -1.55874 2.683901 -0.795609 3 0 3 
z
" id="m9c1e689211" style="stroke:#f8766d;"/>
    </defs>
    <g clip-path="url(#pf5e81f47a1)">
     <use style="fill:#f8766d;stroke:#f8766d;" x="140.194372" xlink:href="#m9c1e689211" y="228.308218"/>
     <use style="fill:#f8766d;stroke:#f8766d;" x="178.040135" xlink:href="#m9c1e689211" y="185.437843"/>
     <use style="fill:#f8766d;stroke:#f8766d;" x="194.299793" xlink:href="#m9c1e689211" y="181.507295"/>
     <use style="fill:#f8766d;stroke:#f8766d;" x="117.915638" xlink:href="#m9c1e689211" y="186.935289"/>
     <use style="fill:#f8766d;stroke:#f8766d;" x="309.069716" xlink:href="#m9c1e689211" y="241.114795"/>
     <use style="fill:#f8766d;stroke:#f8766d;" x="364.283385" xlink:href="#m9c1e689211" y="238.363266"/>
     <use style="fill:#f8766d;stroke:#f8766d;" x="278.770635" xlink:href="#m9c1e689211" y="254.987877"/>
     <use style="fill:#f8766d;stroke:#f8766d;" x="606.321298" xlink:href="#m9c1e689211" y="226.911983"/>
     <use style="fill:#f8766d;stroke:#f8766d;" x="333.680583" xlink:href="#m9c1e689211" y="209.532328"/>
     <use style="fill:#f8766d;stroke:#f8766d;" x="341.542798" xlink:href="#m9c1e689211" y="298.834445"/>
     <use style="fill:#f8766d;stroke:#f8766d;" x="212.981891" xlink:href="#m9c1e689211" y="234.248646"/>
     <use style="fill:#f8766d;stroke:#f8766d;" x="210.330055" xlink:href="#m9c1e689211" y="229.687856"/>
     <use style="fill:#f8766d;stroke:#f8766d;" x="124.428589" xlink:href="#m9c1e689211" y="228.090432"/>
     <use style="fill:#f8766d;stroke:#f8766d;" x="171.350399" xlink:href="#m9c1e689211" y="188.228657"/>
     <use style="fill:#f8766d;stroke:#f8766d;" x="323.307661" xlink:href="#m9c1e689211" y="193.796775"/>
     <use style="fill:#f8766d;stroke:#f8766d;" x="557.984931" xlink:href="#m9c1e689211" y="145.881224"/>
     <use style="fill:#f8766d;stroke:#f8766d;" x="503.405417" xlink:href="#m9c1e689211" y="134.914633"/>
     <use style="fill:#f8766d;stroke:#f8766d;" x="524.856157" xlink:href="#m9c1e689211" y="154.405168"/>
    </g>
   </g>
   <g id="PathCollection_2">
    <defs>
     <path d="M 0 3 
C 0.795609 3 1.55874 2.683901 2.12132 2.12132 
C 2.683901 1.55874 3 0.795609 3 0 
C 3 -0.795609 2.683901 -1.55874 2.12132 -2.12132 
C 1.55874 -2.683901 0.795609 -3 0 -3 
C -0.795609 -3 -1.55874 -2.683901 -2.12132 -2.12132 
C -2.683901 -1.55874 -3 -0.795609 -3 0 
C -3 0.795609 -2.683901 1.55874 -2.12132 2.12132 
C -1.55874 2.683901 -0.795609 3 0 3 
z
" id="m6310c87294" style="stroke:#00bfc4;"/>
    </defs>
    <g clip-path="url(#pf5e81f47a1)">
     <use style="fill:#00bfc4;stroke:#00bfc4;" x="159.11971" xlink:href="#m6310c87294" y="246.617926"/>
     <use style="fill:#00bfc4;stroke:#00bfc4;" x="222.193503" xlink:href="#m6310c87294" y="183.556428"/>
     <use style="fill:#00bfc4;stroke:#00bfc4;" x="256.151635" xlink:href="#m6310c87294" y="210.453578"/>
     <use style="fill:#00bfc4;stroke:#00bfc4;" x="218.818669" xlink:href="#m6310c87294" y="213.941412"/>
     <use style="fill:#00bfc4;stroke:#00bfc4;" x="250.277445" xlink:href="#m6310c87294" y="222.274561"/>
     <use style="fill:#00bfc4;stroke:#00bfc4;" x="226.874291" xlink:href="#m6310c87294" y="192.315597"/>
     <use style="fill:#00bfc4;stroke:#00bfc4;" x="262.152511" xlink:href="#m6310c87294" y="189.151108"/>
     <use style="fill:#00bfc4;stroke:#00bfc4;" x="263.412326" xlink:href="#m6310c87294" y="224.94042"/>
     <use style="fill:#00bfc4;stroke:#00bfc4;" x="123.892954" xlink:href="#m6310c87294" y="190.768386"/>
     <use style="fill:#00bfc4;stroke:#00bfc4;" x="253.262917" xlink:href="#m6310c87294" y="228.297609"/>
     <use style="fill:#00bfc4;stroke:#00bfc4;" x="253.543734" xlink:href="#m6310c87294" y="249.80229"/>
     <use style="fill:#00bfc4;stroke:#00bfc4;" x="247.506099" xlink:href="#m6310c87294" y="230.558451"/>
     <use style="fill:#00bfc4;stroke:#00bfc4;" x="263.264977" xlink:href="#m6310c87294" y="225.218878"/>
     <use style="fill:#00bfc4;stroke:#00bfc4;" x="209.809489" xlink:href="#m6310c87294" y="265.464294"/>
     <use style="fill:#00bfc4;stroke:#00bfc4;" x="239.411843" xlink:href="#m6310c87294" y="243.298142"/>
     <use style="fill:#00bfc4;stroke:#00bfc4;" x="160.239781" xlink:href="#m6310c87294" y="164.959658"/>
     <use style="fill:#00bfc4;stroke:#00bfc4;" x="118.253624" xlink:href="#m6310c87294" y="186.270702"/>
     <use style="fill:#00bfc4;stroke:#00bfc4;" x="157.168613" xlink:href="#m6310c87294" y="221.104326"/>
     <use style="fill:#00bfc4;stroke:#00bfc4;" x="195.451775" xlink:href="#m6310c87294" y="164.79739"/>
     <use style="fill:#00bfc4;stroke:#00bfc4;" x="406.372781" xlink:href="#m6310c87294" y="275.719711"/>
     <use style="fill:#00bfc4;stroke:#00bfc4;" x="398.626005" xlink:href="#m6310c87294" y="187.760974"/>
     <use style="fill:#00bfc4;stroke:#00bfc4;" x="361.32669" xlink:href="#m6310c87294" y="190.540527"/>
     <use style="fill:#00bfc4;stroke:#00bfc4;" x="417.308041" xlink:href="#m6310c87294" y="274.599214"/>
     <use style="fill:#00bfc4;stroke:#00bfc4;" x="363.56454" xlink:href="#m6310c87294" y="224.607476"/>
     <use style="fill:#00bfc4;stroke:#00bfc4;" x="558.710645" xlink:href="#m6310c87294" y="167.652725"/>
     <use style="fill:#00bfc4;stroke:#00bfc4;" x="514.325144" xlink:href="#m6310c87294" y="153.749633"/>
     <use style="fill:#00bfc4;stroke:#00bfc4;" x="444.190154" xlink:href="#m6310c87294" y="307.986268"/>
     <use style="fill:#00bfc4;stroke:#00bfc4;" x="517.697369" xlink:href="#m6310c87294" y="229.615947"/>
     <use style="fill:#00bfc4;stroke:#00bfc4;" x="561.840722" xlink:href="#m6310c87294" y="206.518989"/>
     <use style="fill:#00bfc4;stroke:#00bfc4;" x="554.412965" xlink:href="#m6310c87294" y="91.229094"/>
     <use style="fill:#00bfc4;stroke:#00bfc4;" x="223.745213" xlink:href="#m6310c87294" y="142.364558"/>
     <use style="fill:#00bfc4;stroke:#00bfc4;" x="207.505913" xlink:href="#m6310c87294" y="329.775648"/>
     <use style="fill:#00bfc4;stroke:#00bfc4;" x="395.253777" xlink:href="#m6310c87294" y="264.274296"/>
     <use style="fill:#00bfc4;stroke:#00bfc4;" x="281.589583" xlink:href="#m6310c87294" y="156.086759"/>
     <use style="fill:#00bfc4;stroke:#00bfc4;" x="271.312031" xlink:href="#m6310c87294" y="173.692539"/>
     <use style="fill:#00bfc4;stroke:#00bfc4;" x="347.140541" xlink:href="#m6310c87294" y="323.050242"/>
     <use style="fill:#00bfc4;stroke:#00bfc4;" x="470.012633" xlink:href="#m6310c87294" y="130.883328"/>
     <use style="fill:#00bfc4;stroke:#00bfc4;" x="145.835464" xlink:href="#m6310c87294" y="296.930478"/>
     <use style="fill:#00bfc4;stroke:#00bfc4;" x="259.242896" xlink:href="#m6310c87294" y="266.030033"/>
     <use style="fill:#00bfc4;stroke:#00bfc4;" x="367.014408" xlink:href="#m6310c87294" y="164.276765"/>
     <use style="fill:#00bfc4;stroke:#00bfc4;" x="474.956091" xlink:href="#m6310c87294" y="104.760658"/>
     <use style="fill:#00bfc4;stroke:#00bfc4;" x="477.600309" xlink:href="#m6310c87294" y="297.949506"/>
     <use style="fill:#00bfc4;stroke:#00bfc4;" x="271.060128" xlink:href="#m6310c87294" y="149.891309"/>
     <use style="fill:#00bfc4;stroke:#00bfc4;" x="347.726544" xlink:href="#m6310c87294" y="174.855909"/>
     <use style="fill:#00bfc4;stroke:#00bfc4;" x="379.691913" xlink:href="#m6310c87294" y="354.74594"/>
     <use style="fill:#00bfc4;stroke:#00bfc4;" x="530.988691" xlink:href="#m6310c87294" y="281.091295"/>
     <use style="fill:#00bfc4;stroke:#00bfc4;" x="486.863085" xlink:href="#m6310c87294" y="167.343023"/>
     <use style="fill:#00bfc4;stroke:#00bfc4;" x="389.40462" xlink:href="#m6310c87294" y="202.82057"/>
     <use style="fill:#00bfc4;stroke:#00bfc4;" x="264.782748" xlink:href="#m6310c87294" y="329.487962"/>
     <use style="fill:#00bfc4;stroke:#00bfc4;" x="456.67673" xlink:href="#m6310c87294" y="221.667639"/>
     <use style="fill:#00bfc4;stroke:#00bfc4;" x="160.432528" xlink:href="#m6310c87294" y="261.120928"/>
     <use style="fill:#00bfc4;stroke:#00bfc4;" x="315.230644" xlink:href="#m6310c87294" y="260.808209"/>
     <use style="fill:#00bfc4;stroke:#00bfc4;" x="417.348691" xlink:href="#m6310c87294" y="310.990144"/>
     <use style="fill:#00bfc4;stroke:#00bfc4;" x="191.164673" xlink:href="#m6310c87294" y="148.920913"/>
     <use style="fill:#00bfc4;stroke:#00bfc4;" x="279.57501" xlink:href="#m6310c87294" y="210.497177"/>
     <use style="fill:#00bfc4;stroke:#00bfc4;" x="284.254135" xlink:href="#m6310c87294" y="238.305151"/>
     <use style="fill:#00bfc4;stroke:#00bfc4;" x="345.544608" xlink:href="#m6310c87294" y="227.895706"/>
     <use style="fill:#00bfc4;stroke:#00bfc4;" x="260.054623" xlink:href="#m6310c87294" y="230.41385"/>
     <use style="fill:#00bfc4;stroke:#00bfc4;" x="334.622973" xlink:href="#m6310c87294" y="234.564177"/>
     <use style="fill:#00bfc4;stroke:#00bfc4;" x="235.762656" xlink:href="#m6310c87294" y="166.961137"/>
     <use style="fill:#00bfc4;stroke:#00bfc4;" x="442.58208" xlink:href="#m6310c87294" y="168.571937"/>
     <use style="fill:#00bfc4;stroke:#00bfc4;" x="448.631798" xlink:href="#m6310c87294" y="264.676764"/>
     <use style="fill:#00bfc4;stroke:#00bfc4;" x="476.531696" xlink:href="#m6310c87294" y="94.887127"/>
     <use style="fill:#00bfc4;stroke:#00bfc4;" x="497.579287" xlink:href="#m6310c87294" y="295.897706"/>
     <use style="fill:#00bfc4;stroke:#00bfc4;" x="325.628676" xlink:href="#m6310c87294" y="318.460349"/>
     <use style="fill:#00bfc4;stroke:#00bfc4;" x="407.18365" xlink:href="#m6310c87294" y="76.11023"/>
     <use style="fill:#00bfc4;stroke:#00bfc4;" x="412.648392" xlink:href="#m6310c87294" y="220.007151"/>
     <use style="fill:#00bfc4;stroke:#00bfc4;" x="341.089227" xlink:href="#m6310c87294" y="170.479826"/>
     <use style="fill:#00bfc4;stroke:#00bfc4;" x="469.406676" xlink:href="#m6310c87294" y="68.327059"/>
     <use style="fill:#00bfc4;stroke:#00bfc4;" x="499.664235" xlink:href="#m6310c87294" y="201.408434"/>
     <use style="fill:#00bfc4;stroke:#00bfc4;" x="266.088179" xlink:href="#m6310c87294" y="315.854403"/>
     <use style="fill:#00bfc4;stroke:#00bfc4;" x="321.905057" xlink:href="#m6310c87294" y="357.05103"/>
     <use style="fill:#00bfc4;stroke:#00bfc4;" x="303.327875" xlink:href="#m6310c87294" y="173.324953"/>
     <use style="fill:#00bfc4;stroke:#00bfc4;" x="401.643174" xlink:href="#m6310c87294" y="151.314303"/>
     <use style="fill:#00bfc4;stroke:#00bfc4;" x="554.795945" xlink:href="#m6310c87294" y="93.117647"/>
     <use style="fill:#00bfc4;stroke:#00bfc4;" x="419.087201" xlink:href="#m6310c87294" y="137.080832"/>
     <use style="fill:#00bfc4;stroke:#00bfc4;" x="358.761249" xlink:href="#m6310c87294" y="251.140398"/>
     <use style="fill:#00bfc4;stroke:#00bfc4;" x="308.237667" xlink:href="#m6310c87294" y="217.454974"/>
     <use style="fill:#00bfc4;stroke:#00bfc4;" x="447.02233" xlink:href="#m6310c87294" y="278.941103"/>
     <use style="fill:#00bfc4;stroke:#00bfc4;" x="467.291158" xlink:href="#m6310c87294" y="337.246537"/>
     <use style="fill:#00bfc4;stroke:#00bfc4;" x="420.188795" xlink:href="#m6310c87294" y="237.90441"/>
     <use style="fill:#00bfc4;stroke:#00bfc4;" x="208.565276" xlink:href="#m6310c87294" y="100.451015"/>
     <use style="fill:#00bfc4;stroke:#00bfc4;" x="481.684015" xlink:href="#m6310c87294" y="175.458806"/>
     <use style="fill:#00bfc4;stroke:#00bfc4;" x="619.746376" xlink:href="#m6310c87294" y="153.3238"/>
     <use style="fill:#00bfc4;stroke:#00bfc4;" x="461.389735" xlink:href="#m6310c87294" y="208.587146"/>
     <use style="fill:#00bfc4;stroke:#00bfc4;" x="465.649862" xlink:href="#m6310c87294" y="335.508396"/>
     <use style="fill:#00bfc4;stroke:#00bfc4;" x="320.750307" xlink:href="#m6310c87294" y="212.781611"/>
     <use style="fill:#00bfc4;stroke:#00bfc4;" x="461.797773" xlink:href="#m6310c87294" y="178.634201"/>
     <use style="fill:#00bfc4;stroke:#00bfc4;" x="516.548149" xlink:href="#m6310c87294" y="323.50424"/>
     <use style="fill:#00bfc4;stroke:#00bfc4;" x="304.526095" xlink:href="#m6310c87294" y="139.175381"/>
     <use style="fill:#00bfc4;stroke:#00bfc4;" x="337.267544" xlink:href="#m6310c87294" y="298.198847"/>
     <use style="fill:#00bfc4;stroke:#00bfc4;" x="569.334958" xlink:href="#m6310c87294" y="199.669811"/>
     <use style="fill:#00bfc4;stroke:#00bfc4;" x="425.375482" xlink:href="#m6310c87294" y="222.893936"/>
     <use style="fill:#00bfc4;stroke:#00bfc4;" x="515.049989" xlink:href="#m6310c87294" y="177.841412"/>
     <use style="fill:#00bfc4;stroke:#00bfc4;" x="456.033373" xlink:href="#m6310c87294" y="293.308083"/>
     <use style="fill:#00bfc4;stroke:#00bfc4;" x="529.334795" xlink:href="#m6310c87294" y="201.746107"/>
     <use style="fill:#00bfc4;stroke:#00bfc4;" x="483.711605" xlink:href="#m6310c87294" y="265.823142"/>
     <use style="fill:#00bfc4;stroke:#00bfc4;" x="395.845459" xlink:href="#m6310c87294" y="185.877419"/>
     <use style="fill:#00bfc4;stroke:#00bfc4;" x="492.954928" xlink:href="#m6310c87294" y="284.728854"/>
     <use style="fill:#00bfc4;stroke:#00bfc4;" x="371.894634" xlink:href="#m6310c87294" y="340.489451"/>
     <use style="fill:#00bfc4;stroke:#00bfc4;" x="570.36777" xlink:href="#m6310c87294" y="251.850402"/>
     <use style="fill:#00bfc4;stroke:#00bfc4;" x="305.172349" xlink:href="#m6310c87294" y="257.162063"/>
     <use style="fill:#00bfc4;stroke:#00bfc4;" x="409.598315" xlink:href="#m6310c87294" y="323.335691"/>
     <use style="fill:#00bfc4;stroke:#00bfc4;" x="120.224773" xlink:href="#m6310c87294" y="255.864703"/>
     <use style="fill:#00bfc4;stroke:#00bfc4;" x="374.766652" xlink:href="#m6310c87294" y="121.563115"/>
     <use style="fill:#00bfc4;stroke:#00bfc4;" x="542.951797" xlink:href="#m6310c87294" y="160.098174"/>
     <use style="fill:#00bfc4;stroke:#00bfc4;" x="447.810715" xlink:href="#m6310c87294" y="138.367531"/>
     <use style="fill:#00bfc4;stroke:#00bfc4;" x="450.812713" xlink:href="#m6310c87294" y="273.633213"/>
     <use style="fill:#00bfc4;stroke:#00bfc4;" x="510.618341" xlink:href="#m6310c87294" y="195.836847"/>
     <use style="fill:#00bfc4;stroke:#00bfc4;" x="432.888775" xlink:href="#m6310c87294" y="194.773702"/>
     <use style="fill:#00bfc4;stroke:#00bfc4;" x="297.309315" xlink:href="#m6310c87294" y="143.295709"/>
     <use style="fill:#00bfc4;stroke:#00bfc4;" x="145.748934" xlink:href="#m6310c87294" y="294.923942"/>
     <use style="fill:#00bfc4;stroke:#00bfc4;" x="411.866425" xlink:href="#m6310c87294" y="79.365453"/>
     <use style="fill:#00bfc4;stroke:#00bfc4;" x="374.162581" xlink:href="#m6310c87294" y="169.48321"/>
     <use style="fill:#00bfc4;stroke:#00bfc4;" x="523.87298" xlink:href="#m6310c87294" y="198.551923"/>
     <use style="fill:#00bfc4;stroke:#00bfc4;" x="291.389839" xlink:href="#m6310c87294" y="188.390351"/>
     <use style="fill:#00bfc4;stroke:#00bfc4;" x="535.799497" xlink:href="#m6310c87294" y="273.290206"/>
     <use style="fill:#00bfc4;stroke:#00bfc4;" x="318.116843" xlink:href="#m6310c87294" y="296.168027"/>
     <use style="fill:#00bfc4;stroke:#00bfc4;" x="618.159311" xlink:href="#m6310c87294" y="153.782704"/>
     <use style="fill:#00bfc4;stroke:#00bfc4;" x="531.657517" xlink:href="#m6310c87294" y="284.182328"/>
     <use style="fill:#00bfc4;stroke:#00bfc4;" x="514.234994" xlink:href="#m6310c87294" y="319.928981"/>
     <use style="fill:#00bfc4;stroke:#00bfc4;" x="517.290695" xlink:href="#m6310c87294" y="243.309829"/>
     <use style="fill:#00bfc4;stroke:#00bfc4;" x="604.292392" xlink:href="#m6310c87294" y="224.87838"/>
     <use style="fill:#00bfc4;stroke:#00bfc4;" x="554.304315" xlink:href="#m6310c87294" y="204.831994"/>
     <use style="fill:#00bfc4;stroke:#00bfc4;" x="512.625609" xlink:href="#m6310c87294" y="317.602919"/>
     <use style="fill:#00bfc4;stroke:#00bfc4;" x="444.138356" xlink:href="#m6310c87294" y="171.941069"/>
     <use style="fill:#00bfc4;stroke:#00bfc4;" x="357.293041" xlink:href="#m6310c87294" y="302.394664"/>
     <use style="fill:#00bfc4;stroke:#00bfc4;" x="416.908642" xlink:href="#m6310c87294" y="108.370242"/>
     <use style="fill:#00bfc4;stroke:#00bfc4;" x="434.211232" xlink:href="#m6310c87294" y="119.333291"/>
     <use style="fill:#00bfc4;stroke:#00bfc4;" x="525.35686" xlink:href="#m6310c87294" y="201.403086"/>
     <use style="fill:#00bfc4;stroke:#00bfc4;" x="487.570475" xlink:href="#m6310c87294" y="156.846012"/>
     <use style="fill:#00bfc4;stroke:#00bfc4;" x="336.778279" xlink:href="#m6310c87294" y="279.657907"/>
     <use style="fill:#00bfc4;stroke:#00bfc4;" x="367.63212" xlink:href="#m6310c87294" y="149.939791"/>
     <use style="fill:#00bfc4;stroke:#00bfc4;" x="486.380165" xlink:href="#m6310c87294" y="135.068261"/>
     <use style="fill:#00bfc4;stroke:#00bfc4;" x="503.451996" xlink:href="#m6310c87294" y="106.859682"/>
     <use style="fill:#00bfc4;stroke:#00bfc4;" x="404.247684" xlink:href="#m6310c87294" y="240.60947"/>
     <use style="fill:#00bfc4;stroke:#00bfc4;" x="244.430594" xlink:href="#m6310c87294" y="221.698099"/>
     <use style="fill:#00bfc4;stroke:#00bfc4;" x="197.472818" xlink:href="#m6310c87294" y="221.985987"/>
     <use style="fill:#00bfc4;stroke:#00bfc4;" x="252.096667" xlink:href="#m6310c87294" y="215.655297"/>
     <use style="fill:#00bfc4;stroke:#00bfc4;" x="188.121573" xlink:href="#m6310c87294" y="236.718773"/>
     <use style="fill:#00bfc4;stroke:#00bfc4;" x="187.54795" xlink:href="#m6310c87294" y="256.249412"/>
     <use style="fill:#00bfc4;stroke:#00bfc4;" x="223.860422" xlink:href="#m6310c87294" y="245.390183"/>
     <use style="fill:#00bfc4;stroke:#00bfc4;" x="233.969398" xlink:href="#m6310c87294" y="211.705041"/>
     <use style="fill:#00bfc4;stroke:#00bfc4;" x="264.432985" xlink:href="#m6310c87294" y="217.724758"/>
     <use style="fill:#00bfc4;stroke:#00bfc4;" x="176.732031" xlink:href="#m6310c87294" y="248.789138"/>
     <use style="fill:#00bfc4;stroke:#00bfc4;" x="235.518686" xlink:href="#m6310c87294" y="198.519279"/>
     <use style="fill:#00bfc4;stroke:#00bfc4;" x="171.323836" xlink:href="#m6310c87294" y="215.688909"/>
     <use style="fill:#00bfc4;stroke:#00bfc4;" x="181.81632" xlink:href="#m6310c87294" y="248.461477"/>
     <use style="fill:#00bfc4;stroke:#00bfc4;" x="219.554033" xlink:href="#m6310c87294" y="178.226869"/>
     <use style="fill:#00bfc4;stroke:#00bfc4;" x="197.254789" xlink:href="#m6310c87294" y="204.25576"/>
     <use style="fill:#00bfc4;stroke:#00bfc4;" x="218.119623" xlink:href="#m6310c87294" y="233.222683"/>
     <use style="fill:#00bfc4;stroke:#00bfc4;" x="236.324043" xlink:href="#m6310c87294" y="219.905708"/>
     <use style="fill:#00bfc4;stroke:#00bfc4;" x="235.746659" xlink:href="#m6310c87294" y="198.707947"/>
     <use style="fill:#00bfc4;stroke:#00bfc4;" x="201.903572" xlink:href="#m6310c87294" y="202.958523"/>
     <use style="fill:#00bfc4;stroke:#00bfc4;" x="213.584345" xlink:href="#m6310c87294" y="162.613825"/>
     <use style="fill:#00bfc4;stroke:#00bfc4;" x="258.083009" xlink:href="#m6310c87294" y="219.578582"/>
     <use style="fill:#00bfc4;stroke:#00bfc4;" x="210.349437" xlink:href="#m6310c87294" y="172.283145"/>
     <use style="fill:#00bfc4;stroke:#00bfc4;" x="148.675604" xlink:href="#m6310c87294" y="233.172882"/>
     <use style="fill:#00bfc4;stroke:#00bfc4;" x="270.364697" xlink:href="#m6310c87294" y="190.206388"/>
     <use style="fill:#00bfc4;stroke:#00bfc4;" x="425.518981" xlink:href="#m6310c87294" y="203.411964"/>
     <use style="fill:#00bfc4;stroke:#00bfc4;" x="273.736528" xlink:href="#m6310c87294" y="308.092968"/>
     <use style="fill:#00bfc4;stroke:#00bfc4;" x="382.444204" xlink:href="#m6310c87294" y="295.806071"/>
     <use style="fill:#00bfc4;stroke:#00bfc4;" x="236.862087" xlink:href="#m6310c87294" y="273.194016"/>
     <use style="fill:#00bfc4;stroke:#00bfc4;" x="142.411759" xlink:href="#m6310c87294" y="140.315696"/>
     <use style="fill:#00bfc4;stroke:#00bfc4;" x="474.753788" xlink:href="#m6310c87294" y="256.772864"/>
     <use style="fill:#00bfc4;stroke:#00bfc4;" x="550.819185" xlink:href="#m6310c87294" y="114.401036"/>
     <use style="fill:#00bfc4;stroke:#00bfc4;" x="383.821793" xlink:href="#m6310c87294" y="320.279433"/>
     <use style="fill:#00bfc4;stroke:#00bfc4;" x="269.906747" xlink:href="#m6310c87294" y="115.51244"/>
     <use style="fill:#00bfc4;stroke:#00bfc4;" x="345.856408" xlink:href="#m6310c87294" y="108.008914"/>
     <use style="fill:#00bfc4;stroke:#00bfc4;" x="209.20513" xlink:href="#m6310c87294" y="99.70808"/>
     <use style="fill:#00bfc4;stroke:#00bfc4;" x="444.043475" xlink:href="#m6310c87294" y="285.302447"/>
     <use style="fill:#00bfc4;stroke:#00bfc4;" x="358.364263" xlink:href="#m6310c87294" y="142.130082"/>
     <use style="fill:#00bfc4;stroke:#00bfc4;" x="316.078698" xlink:href="#m6310c87294" y="359.384052"/>
     <use style="fill:#00bfc4;stroke:#00bfc4;" x="336.277524" xlink:href="#m6310c87294" y="112.683214"/>
     <use style="fill:#00bfc4;stroke:#00bfc4;" x="261.424851" xlink:href="#m6310c87294" y="336.877924"/>
     <use style="fill:#00bfc4;stroke:#00bfc4;" x="416.298595" xlink:href="#m6310c87294" y="131.892134"/>
     <use style="fill:#00bfc4;stroke:#00bfc4;" x="550.54334" xlink:href="#m6310c87294" y="137.946718"/>
     <use style="fill:#00bfc4;stroke:#00bfc4;" x="404.467103" xlink:href="#m6310c87294" y="74.263884"/>
     <use style="fill:#00bfc4;stroke:#00bfc4;" x="538.318705" xlink:href="#m6310c87294" y="150.097902"/>
     <use style="fill:#00bfc4;stroke:#00bfc4;" x="464.016182" xlink:href="#m6310c87294" y="215.000923"/>
     <use style="fill:#00bfc4;stroke:#00bfc4;" x="395.226174" xlink:href="#m6310c87294" y="158.031477"/>
     <use style="fill:#00bfc4;stroke:#00bfc4;" x="479.780014" xlink:href="#m6310c87294" y="103.087711"/>
     <use style="fill:#00bfc4;stroke:#00bfc4;" x="299.751278" xlink:href="#m6310c87294" y="361.512941"/>
     <use style="fill:#00bfc4;stroke:#00bfc4;" x="378.006641" xlink:href="#m6310c87294" y="337.116285"/>
     <use style="fill:#00bfc4;stroke:#00bfc4;" x="518.008839" xlink:href="#m6310c87294" y="220.241613"/>
     <use style="fill:#00bfc4;stroke:#00bfc4;" x="239.83744" xlink:href="#m6310c87294" y="305.687468"/>
     <use style="fill:#00bfc4;stroke:#00bfc4;" x="453.738301" xlink:href="#m6310c87294" y="142.275518"/>
    </g>
   </g>
   <g id="matplotlib.axis_1">
    <g id="xtick_1">
     <g id="line2d_1">
      <defs>
       <path d="M 0 0 
L 0 3.5 
" id="mb8aa202501" style="stroke:#000000;stroke-width:0.8;"/>
      </defs>
      <g>
       <use style="stroke:#000000;stroke-width:0.8;" x="110.846295" xlink:href="#mb8aa202501" y="378"/>
      </g>
     </g>
     <g id="text_1">
      <!-- −10 -->
      <defs>
       <path d="M 10.59375 35.5 
L 73.1875 35.5 
L 73.1875 27.203125 
L 10.59375 27.203125 
z
" id="DejaVuSans-8722"/>
       <path d="M 12.40625 8.296875 
L 28.515625 8.296875 
L 28.515625 63.921875 
L 10.984375 60.40625 
L 10.984375 69.390625 
L 28.421875 72.90625 
L 38.28125 72.90625 
L 38.28125 8.296875 
L 54.390625 8.296875 
L 54.390625 0 
L 12.40625 0 
z
" id="DejaVuSans-49"/>
       <path d="M 31.78125 66.40625 
Q 24.171875 66.40625 20.328125 58.90625 
Q 16.5 51.421875 16.5 36.375 
Q 16.5 21.390625 20.328125 13.890625 
Q 24.171875 6.390625 31.78125 6.390625 
Q 39.453125 6.390625 43.28125 13.890625 
Q 47.125 21.390625 47.125 36.375 
Q 47.125 51.421875 43.28125 58.90625 
Q 39.453125 66.40625 31.78125 66.40625 
z
M 31.78125 74.21875 
Q 44.046875 74.21875 50.515625 64.515625 
Q 56.984375 54.828125 56.984375 36.375 
Q 56.984375 17.96875 50.515625 8.265625 
Q 44.046875 -1.421875 31.78125 -1.421875 
Q 19.53125 -1.421875 13.0625 8.265625 
Q 6.59375 17.96875 6.59375 36.375 
Q 6.59375 54.828125 13.0625 64.515625 
Q 19.53125 74.21875 31.78125 74.21875 
z
" id="DejaVuSans-48"/>
      </defs>
      <g transform="translate(100.293951 392.598437)scale(0.1 -0.1)">
       <use xlink:href="#DejaVuSans-8722"/>
       <use x="83.789062" xlink:href="#DejaVuSans-49"/>
       <use x="147.412109" xlink:href="#DejaVuSans-48"/>
      </g>
     </g>
    </g>
    <g id="xtick_2">
     <g id="line2d_2">
      <g>
       <use style="stroke:#000000;stroke-width:0.8;" x="234.091706" xlink:href="#mb8aa202501" y="378"/>
      </g>
     </g>
     <g id="text_2">
      <!-- −5 -->
      <defs>
       <path d="M 10.796875 72.90625 
L 49.515625 72.90625 
L 49.515625 64.59375 
L 19.828125 64.59375 
L 19.828125 46.734375 
Q 21.96875 47.46875 24.109375 47.828125 
Q 26.265625 48.1875 28.421875 48.1875 
Q 40.625 48.1875 47.75 41.5 
Q 54.890625 34.8125 54.890625 23.390625 
Q 54.890625 11.625 47.5625 5.09375 
Q 40.234375 -1.421875 26.90625 -1.421875 
Q 22.3125 -1.421875 17.546875 -0.640625 
Q 12.796875 0.140625 7.71875 1.703125 
L 7.71875 11.625 
Q 12.109375 9.234375 16.796875 8.0625 
Q 21.484375 6.890625 26.703125 6.890625 
Q 35.15625 6.890625 40.078125 11.328125 
Q 45.015625 15.765625 45.015625 23.390625 
Q 45.015625 31 40.078125 35.4375 
Q 35.15625 39.890625 26.703125 39.890625 
Q 22.75 39.890625 18.8125 39.015625 
Q 14.890625 38.140625 10.796875 36.28125 
z
" id="DejaVuSans-53"/>
      </defs>
      <g transform="translate(226.720612 392.598437)scale(0.1 -0.1)">
       <use xlink:href="#DejaVuSans-8722"/>
       <use x="83.789062" xlink:href="#DejaVuSans-53"/>
      </g>
     </g>
    </g>
    <g id="xtick_3">
     <g id="line2d_3">
      <g>
       <use style="stroke:#000000;stroke-width:0.8;" x="357.337116" xlink:href="#mb8aa202501" y="378"/>
      </g>
     </g>
     <g id="text_3">
      <!-- 0 -->
      <g transform="translate(354.155866 392.598437)scale(0.1 -0.1)">
       <use xlink:href="#DejaVuSans-48"/>
      </g>
     </g>
    </g>
    <g id="xtick_4">
     <g id="line2d_4">
      <g>
       <use style="stroke:#000000;stroke-width:0.8;" x="480.582526" xlink:href="#mb8aa202501" y="378"/>
      </g>
     </g>
     <g id="text_4">
      <!-- 5 -->
      <g transform="translate(477.401276 392.598437)scale(0.1 -0.1)">
       <use xlink:href="#DejaVuSans-53"/>
      </g>
     </g>
    </g>
    <g id="xtick_5">
     <g id="line2d_5">
      <g>
       <use style="stroke:#000000;stroke-width:0.8;" x="603.827937" xlink:href="#mb8aa202501" y="378"/>
      </g>
     </g>
     <g id="text_5">
      <!-- 10 -->
      <g transform="translate(597.465437 392.598437)scale(0.1 -0.1)">
       <use xlink:href="#DejaVuSans-49"/>
       <use x="63.623047" xlink:href="#DejaVuSans-48"/>
      </g>
     </g>
    </g>
    <g id="text_6">
     <!-- tSNE-1 -->
     <defs>
      <path d="M 18.3125 70.21875 
L 18.3125 54.6875 
L 36.8125 54.6875 
L 36.8125 47.703125 
L 18.3125 47.703125 
L 18.3125 18.015625 
Q 18.3125 11.328125 20.140625 9.421875 
Q 21.96875 7.515625 27.59375 7.515625 
L 36.8125 7.515625 
L 36.8125 0 
L 27.59375 0 
Q 17.1875 0 13.234375 3.875 
Q 9.28125 7.765625 9.28125 18.015625 
L 9.28125 47.703125 
L 2.6875 47.703125 
L 2.6875 54.6875 
L 9.28125 54.6875 
L 9.28125 70.21875 
z
" id="DejaVuSans-116"/>
      <path d="M 53.515625 70.515625 
L 53.515625 60.890625 
Q 47.90625 63.578125 42.921875 64.890625 
Q 37.9375 66.21875 33.296875 66.21875 
Q 25.25 66.21875 20.875 63.09375 
Q 16.5 59.96875 16.5 54.203125 
Q 16.5 49.359375 19.40625 46.890625 
Q 22.3125 44.4375 30.421875 42.921875 
L 36.375 41.703125 
Q 47.40625 39.59375 52.65625 34.296875 
Q 57.90625 29 57.90625 20.125 
Q 57.90625 9.515625 50.796875 4.046875 
Q 43.703125 -1.421875 29.984375 -1.421875 
Q 24.8125 -1.421875 18.96875 -0.25 
Q 13.140625 0.921875 6.890625 3.21875 
L 6.890625 13.375 
Q 12.890625 10.015625 18.65625 8.296875 
Q 24.421875 6.59375 29.984375 6.59375 
Q 38.421875 6.59375 43.015625 9.90625 
Q 47.609375 13.234375 47.609375 19.390625 
Q 47.609375 24.75 44.3125 27.78125 
Q 41.015625 30.8125 33.5 32.328125 
L 27.484375 33.5 
Q 16.453125 35.6875 11.515625 40.375 
Q 6.59375 45.0625 6.59375 53.421875 
Q 6.59375 63.09375 13.40625 68.65625 
Q 20.21875 74.21875 32.171875 74.21875 
Q 37.3125 74.21875 42.625 73.28125 
Q 47.953125 72.359375 53.515625 70.515625 
z
" id="DejaVuSans-83"/>
      <path d="M 9.8125 72.90625 
L 23.09375 72.90625 
L 55.421875 11.921875 
L 55.421875 72.90625 
L 64.984375 72.90625 
L 64.984375 0 
L 51.703125 0 
L 19.390625 60.984375 
L 19.390625 0 
L 9.8125 0 
z
" id="DejaVuSans-78"/>
      <path d="M 9.8125 72.90625 
L 55.90625 72.90625 
L 55.90625 64.59375 
L 19.671875 64.59375 
L 19.671875 43.015625 
L 54.390625 43.015625 
L 54.390625 34.71875 
L 19.671875 34.71875 
L 19.671875 8.296875 
L 56.78125 8.296875 
L 56.78125 0 
L 9.8125 0 
z
" id="DejaVuSans-69"/>
      <path d="M 4.890625 31.390625 
L 31.203125 31.390625 
L 31.203125 23.390625 
L 4.890625 23.390625 
z
" id="DejaVuSans-45"/>
     </defs>
     <g transform="translate(351.980469 406.276563)scale(0.1 -0.1)">
      <use xlink:href="#DejaVuSans-116"/>
      <use x="39.208984" xlink:href="#DejaVuSans-83"/>
      <use x="102.685547" xlink:href="#DejaVuSans-78"/>
      <use x="177.490234" xlink:href="#DejaVuSans-69"/>
      <use x="240.673828" xlink:href="#DejaVuSans-45"/>
      <use x="276.757812" xlink:href="#DejaVuSans-49"/>
     </g>
    </g>
   </g>
   <g id="matplotlib.axis_2">
    <g id="ytick_1">
     <g id="line2d_6">
      <defs>
       <path d="M 0 0 
L -3.5 0 
" id="m8698b94cb0" style="stroke:#000000;stroke-width:0.8;"/>
      </defs>
      <g>
       <use style="stroke:#000000;stroke-width:0.8;" x="90" xlink:href="#m8698b94cb0" y="345.294854"/>
      </g>
     </g>
     <g id="text_7">
      <!-- −7.5 -->
      <defs>
       <path d="M 8.203125 72.90625 
L 55.078125 72.90625 
L 55.078125 68.703125 
L 28.609375 0 
L 18.3125 0 
L 43.21875 64.59375 
L 8.203125 64.59375 
z
" id="DejaVuSans-55"/>
       <path d="M 10.6875 12.40625 
L 21 12.40625 
L 21 0 
L 10.6875 0 
z
" id="DejaVuSans-46"/>
      </defs>
      <g transform="translate(58.717187 349.094073)scale(0.1 -0.1)">
       <use xlink:href="#DejaVuSans-8722"/>
       <use x="83.789062" xlink:href="#DejaVuSans-55"/>
       <use x="147.412109" xlink:href="#DejaVuSans-46"/>
       <use x="179.199219" xlink:href="#DejaVuSans-53"/>
      </g>
     </g>
    </g>
    <g id="ytick_2">
     <g id="line2d_7">
      <g>
       <use style="stroke:#000000;stroke-width:0.8;" x="90" xlink:href="#m8698b94cb0" y="303.550546"/>
      </g>
     </g>
     <g id="text_8">
      <!-- −5.0 -->
      <g transform="translate(58.717187 307.349764)scale(0.1 -0.1)">
       <use xlink:href="#DejaVuSans-8722"/>
       <use x="83.789062" xlink:href="#DejaVuSans-53"/>
       <use x="147.412109" xlink:href="#DejaVuSans-46"/>
       <use x="179.199219" xlink:href="#DejaVuSans-48"/>
      </g>
     </g>
    </g>
    <g id="ytick_3">
     <g id="line2d_8">
      <g>
       <use style="stroke:#000000;stroke-width:0.8;" x="90" xlink:href="#m8698b94cb0" y="261.806237"/>
      </g>
     </g>
     <g id="text_9">
      <!-- −2.5 -->
      <defs>
       <path d="M 19.1875 8.296875 
L 53.609375 8.296875 
L 53.609375 0 
L 7.328125 0 
L 7.328125 8.296875 
Q 12.9375 14.109375 22.625 23.890625 
Q 32.328125 33.6875 34.8125 36.53125 
Q 39.546875 41.84375 41.421875 45.53125 
Q 43.3125 49.21875 43.3125 52.78125 
Q 43.3125 58.59375 39.234375 62.25 
Q 35.15625 65.921875 28.609375 65.921875 
Q 23.96875 65.921875 18.8125 64.3125 
Q 13.671875 62.703125 7.8125 59.421875 
L 7.8125 69.390625 
Q 13.765625 71.78125 18.9375 73 
Q 24.125 74.21875 28.421875 74.21875 
Q 39.75 74.21875 46.484375 68.546875 
Q 53.21875 62.890625 53.21875 53.421875 
Q 53.21875 48.921875 51.53125 44.890625 
Q 49.859375 40.875 45.40625 35.40625 
Q 44.1875 33.984375 37.640625 27.21875 
Q 31.109375 20.453125 19.1875 8.296875 
z
" id="DejaVuSans-50"/>
      </defs>
      <g transform="translate(58.717187 265.605456)scale(0.1 -0.1)">
       <use xlink:href="#DejaVuSans-8722"/>
       <use x="83.789062" xlink:href="#DejaVuSans-50"/>
       <use x="147.412109" xlink:href="#DejaVuSans-46"/>
       <use x="179.199219" xlink:href="#DejaVuSans-53"/>
      </g>
     </g>
    </g>
    <g id="ytick_4">
     <g id="line2d_9">
      <g>
       <use style="stroke:#000000;stroke-width:0.8;" x="90" xlink:href="#m8698b94cb0" y="220.061929"/>
      </g>
     </g>
     <g id="text_10">
      <!-- 0.0 -->
      <g transform="translate(67.096875 223.861148)scale(0.1 -0.1)">
       <use xlink:href="#DejaVuSans-48"/>
       <use x="63.623047" xlink:href="#DejaVuSans-46"/>
       <use x="95.410156" xlink:href="#DejaVuSans-48"/>
      </g>
     </g>
    </g>
    <g id="ytick_5">
     <g id="line2d_10">
      <g>
       <use style="stroke:#000000;stroke-width:0.8;" x="90" xlink:href="#m8698b94cb0" y="178.317621"/>
      </g>
     </g>
     <g id="text_11">
      <!-- 2.5 -->
      <g transform="translate(67.096875 182.116839)scale(0.1 -0.1)">
       <use xlink:href="#DejaVuSans-50"/>
       <use x="63.623047" xlink:href="#DejaVuSans-46"/>
       <use x="95.410156" xlink:href="#DejaVuSans-53"/>
      </g>
     </g>
    </g>
    <g id="ytick_6">
     <g id="line2d_11">
      <g>
       <use style="stroke:#000000;stroke-width:0.8;" x="90" xlink:href="#m8698b94cb0" y="136.573312"/>
      </g>
     </g>
     <g id="text_12">
      <!-- 5.0 -->
      <g transform="translate(67.096875 140.372531)scale(0.1 -0.1)">
       <use xlink:href="#DejaVuSans-53"/>
       <use x="63.623047" xlink:href="#DejaVuSans-46"/>
       <use x="95.410156" xlink:href="#DejaVuSans-48"/>
      </g>
     </g>
    </g>
    <g id="ytick_7">
     <g id="line2d_12">
      <g>
       <use style="stroke:#000000;stroke-width:0.8;" x="90" xlink:href="#m8698b94cb0" y="94.829004"/>
      </g>
     </g>
     <g id="text_13">
      <!-- 7.5 -->
      <g transform="translate(67.096875 98.628223)scale(0.1 -0.1)">
       <use xlink:href="#DejaVuSans-55"/>
       <use x="63.623047" xlink:href="#DejaVuSans-46"/>
       <use x="95.410156" xlink:href="#DejaVuSans-53"/>
      </g>
     </g>
    </g>
    <g id="ytick_8">
     <g id="line2d_13">
      <g>
       <use style="stroke:#000000;stroke-width:0.8;" x="90" xlink:href="#m8698b94cb0" y="53.084696"/>
      </g>
     </g>
     <g id="text_14">
      <!-- 10.0 -->
      <g transform="translate(60.734375 56.883914)scale(0.1 -0.1)">
       <use xlink:href="#DejaVuSans-49"/>
       <use x="63.623047" xlink:href="#DejaVuSans-48"/>
       <use x="127.246094" xlink:href="#DejaVuSans-46"/>
       <use x="159.033203" xlink:href="#DejaVuSans-48"/>
      </g>
     </g>
    </g>
    <g id="text_15">
     <!-- tSNE-2 -->
     <g transform="translate(52.6375 231.939531)rotate(-90)scale(0.1 -0.1)">
      <use xlink:href="#DejaVuSans-116"/>
      <use x="39.208984" xlink:href="#DejaVuSans-83"/>
      <use x="102.685547" xlink:href="#DejaVuSans-78"/>
      <use x="177.490234" xlink:href="#DejaVuSans-69"/>
      <use x="240.673828" xlink:href="#DejaVuSans-45"/>
      <use x="276.757812" xlink:href="#DejaVuSans-50"/>
     </g>
    </g>
   </g>
   <g id="patch_3">
    <path d="M 90 378 
L 90 51.84 
" style="fill:none;stroke:#000000;stroke-linecap:square;stroke-linejoin:miter;stroke-width:0.8;"/>
   </g>
   <g id="patch_4">
    <path d="M 648 378 
L 648 51.84 
" style="fill:none;stroke:#000000;stroke-linecap:square;stroke-linejoin:miter;stroke-width:0.8;"/>
   </g>
   <g id="patch_5">
    <path d="M 90 378 
L 648 378 
" style="fill:none;stroke:#000000;stroke-linecap:square;stroke-linejoin:miter;stroke-width:0.8;"/>
   </g>
   <g id="patch_6">
    <path d="M 90 51.84 
L 648 51.84 
" style="fill:none;stroke:#000000;stroke-linecap:square;stroke-linejoin:miter;stroke-width:0.8;"/>
   </g>
   <g id="legend_1">
    <g id="patch_7">
     <path d="M 563.125 89.19625 
L 641 89.19625 
Q 643 89.19625 643 87.19625 
L 643 58.84 
Q 643 56.84 641 56.84 
L 563.125 56.84 
Q 561.125 56.84 561.125 58.84 
L 561.125 87.19625 
Q 561.125 89.19625 563.125 89.19625 
z
" style="fill:#ffffff;opacity:0.8;stroke:#cccccc;stroke-linejoin:miter;"/>
    </g>
    <g id="PathCollection_3">
     <g>
      <use style="fill:#f8766d;stroke:#f8766d;" x="575.125" xlink:href="#m9c1e689211" y="65.813437"/>
     </g>
    </g>
    <g id="text_16">
     <!-- D002446 -->
     <defs>
      <path d="M 19.671875 64.796875 
L 19.671875 8.109375 
L 31.59375 8.109375 
Q 46.6875 8.109375 53.6875 14.9375 
Q 60.6875 21.78125 60.6875 36.53125 
Q 60.6875 51.171875 53.6875 57.984375 
Q 46.6875 64.796875 31.59375 64.796875 
z
M 9.8125 72.90625 
L 30.078125 72.90625 
Q 51.265625 72.90625 61.171875 64.09375 
Q 71.09375 55.28125 71.09375 36.53125 
Q 71.09375 17.671875 61.125 8.828125 
Q 51.171875 0 30.078125 0 
L 9.8125 0 
z
" id="DejaVuSans-68"/>
      <path d="M 37.796875 64.3125 
L 12.890625 25.390625 
L 37.796875 25.390625 
z
M 35.203125 72.90625 
L 47.609375 72.90625 
L 47.609375 25.390625 
L 58.015625 25.390625 
L 58.015625 17.1875 
L 47.609375 17.1875 
L 47.609375 0 
L 37.796875 0 
L 37.796875 17.1875 
L 4.890625 17.1875 
L 4.890625 26.703125 
z
" id="DejaVuSans-52"/>
      <path d="M 33.015625 40.375 
Q 26.375 40.375 22.484375 35.828125 
Q 18.609375 31.296875 18.609375 23.390625 
Q 18.609375 15.53125 22.484375 10.953125 
Q 26.375 6.390625 33.015625 6.390625 
Q 39.65625 6.390625 43.53125 10.953125 
Q 47.40625 15.53125 47.40625 23.390625 
Q 47.40625 31.296875 43.53125 35.828125 
Q 39.65625 40.375 33.015625 40.375 
z
M 52.59375 71.296875 
L 52.59375 62.3125 
Q 48.875 64.0625 45.09375 64.984375 
Q 41.3125 65.921875 37.59375 65.921875 
Q 27.828125 65.921875 22.671875 59.328125 
Q 17.53125 52.734375 16.796875 39.40625 
Q 19.671875 43.65625 24.015625 45.921875 
Q 28.375 48.1875 33.59375 48.1875 
Q 44.578125 48.1875 50.953125 41.515625 
Q 57.328125 34.859375 57.328125 23.390625 
Q 57.328125 12.15625 50.6875 5.359375 
Q 44.046875 -1.421875 33.015625 -1.421875 
Q 20.359375 -1.421875 13.671875 8.265625 
Q 6.984375 17.96875 6.984375 36.375 
Q 6.984375 53.65625 15.1875 63.9375 
Q 23.390625 74.21875 37.203125 74.21875 
Q 40.921875 74.21875 44.703125 73.484375 
Q 48.484375 72.75 52.59375 71.296875 
z
" id="DejaVuSans-54"/>
     </defs>
     <g transform="translate(593.125 68.438437)scale(0.1 -0.1)">
      <use xlink:href="#DejaVuSans-68"/>
      <use x="77.001953" xlink:href="#DejaVuSans-48"/>
      <use x="140.625" xlink:href="#DejaVuSans-48"/>
      <use x="204.248047" xlink:href="#DejaVuSans-50"/>
      <use x="267.871094" xlink:href="#DejaVuSans-52"/>
      <use x="331.494141" xlink:href="#DejaVuSans-52"/>
      <use x="395.117188" xlink:href="#DejaVuSans-54"/>
     </g>
    </g>
    <g id="PathCollection_4">
     <g>
      <use style="fill:#00bfc4;stroke:#00bfc4;" x="575.125" xlink:href="#m6310c87294" y="80.491562"/>
     </g>
    </g>
    <g id="text_17">
     <!-- D006262 -->
     <g transform="translate(593.125 83.116562)scale(0.1 -0.1)">
      <use xlink:href="#DejaVuSans-68"/>
      <use x="77.001953" xlink:href="#DejaVuSans-48"/>
      <use x="140.625" xlink:href="#DejaVuSans-48"/>
      <use x="204.248047" xlink:href="#DejaVuSans-54"/>
      <use x="267.871094" xlink:href="#DejaVuSans-50"/>
      <use x="331.494141" xlink:href="#DejaVuSans-54"/>
      <use x="395.117188" xlink:href="#DejaVuSans-50"/>
     </g>
    </g>
   </g>
  </g>
 </g>
 <defs>
  <clipPath id="pf5e81f47a1">
   <rect height="326.16" width="558" x="90" y="51.84"/>
  </clipPath>
 </defs>
</svg>
