<?xml version="1.0" encoding="utf-8" standalone="no"?>
<!DOCTYPE svg PUBLIC "-//W3C//DTD SVG 1.1//EN"
  "http://www.w3.org/Graphics/SVG/1.1/DTD/svg11.dtd">
<!-- Created with matplotlib (https://matplotlib.org/) -->
<svg height="432pt" version="1.1" viewBox="0 0 720 432" width="720pt" xmlns="http://www.w3.org/2000/svg" xmlns:xlink="http://www.w3.org/1999/xlink">
 <defs>
  <style type="text/css">
*{stroke-linecap:butt;stroke-linejoin:round;}
  </style>
 </defs>
 <g id="figure_1">
  <g id="patch_1">
   <path d="M 0 432 
L 720 432 
L 720 0 
L 0 0 
z
" style="fill:#ffffff;"/>
  </g>
  <g id="axes_1">
   <g id="patch_2">
    <path d="M 90 384.48 
L 648 384.48 
L 648 51.84 
L 90 51.84 
z
" style="fill:#ffffff;"/>
   </g>
   <g id="PathCollection_1">
    <defs>
     <path d="M 0 3 
C 0.795609 3 1.55874 2.683901 2.12132 2.12132 
C 2.683901 1.55874 3 0.795609 3 0 
C 3 -0.795609 2.683901 -1.55874 2.12132 -2.12132 
C 1.55874 -2.683901 0.795609 -3 0 -3 
C -0.795609 -3 -1.55874 -2.683901 -2.12132 -2.12132 
C -2.683901 -1.55874 -3 -0.795609 -3 0 
C -3 0.795609 -2.683901 1.55874 -2.12132 2.12132 
C -1.55874 2.683901 -0.795609 3 0 3 
z
" id="m55508205fc" style="stroke:#f8766d;"/>
    </defs>
    <g clip-path="url(#pde45860b9e)">
     <use style="fill:#f8766d;stroke:#f8766d;" x="462.398653" xlink:href="#m55508205fc" y="245.711161"/>
     <use style="fill:#f8766d;stroke:#f8766d;" x="319.943147" xlink:href="#m55508205fc" y="293.361116"/>
     <use style="fill:#f8766d;stroke:#f8766d;" x="215.026446" xlink:href="#m55508205fc" y="211.299647"/>
     <use style="fill:#f8766d;stroke:#f8766d;" x="462.923187" xlink:href="#m55508205fc" y="257.801725"/>
     <use style="fill:#f8766d;stroke:#f8766d;" x="453.772929" xlink:href="#m55508205fc" y="252.138093"/>
     <use style="fill:#f8766d;stroke:#f8766d;" x="335.296697" xlink:href="#m55508205fc" y="231.954334"/>
     <use style="fill:#f8766d;stroke:#f8766d;" x="412.292966" xlink:href="#m55508205fc" y="250.837288"/>
     <use style="fill:#f8766d;stroke:#f8766d;" x="361.386623" xlink:href="#m55508205fc" y="204.099164"/>
     <use style="fill:#f8766d;stroke:#f8766d;" x="421.19649" xlink:href="#m55508205fc" y="243.608145"/>
     <use style="fill:#f8766d;stroke:#f8766d;" x="396.003203" xlink:href="#m55508205fc" y="261.347425"/>
     <use style="fill:#f8766d;stroke:#f8766d;" x="400.240527" xlink:href="#m55508205fc" y="254.656016"/>
     <use style="fill:#f8766d;stroke:#f8766d;" x="425.482556" xlink:href="#m55508205fc" y="227.120322"/>
     <use style="fill:#f8766d;stroke:#f8766d;" x="359.527885" xlink:href="#m55508205fc" y="204.007751"/>
     <use style="fill:#f8766d;stroke:#f8766d;" x="199.46897" xlink:href="#m55508205fc" y="331.823257"/>
     <use style="fill:#f8766d;stroke:#f8766d;" x="393.277359" xlink:href="#m55508205fc" y="238.546479"/>
     <use style="fill:#f8766d;stroke:#f8766d;" x="210.29359" xlink:href="#m55508205fc" y="208.350991"/>
     <use style="fill:#f8766d;stroke:#f8766d;" x="417.700021" xlink:href="#m55508205fc" y="226.423725"/>
     <use style="fill:#f8766d;stroke:#f8766d;" x="348.252563" xlink:href="#m55508205fc" y="244.994615"/>
     <use style="fill:#f8766d;stroke:#f8766d;" x="245.883459" xlink:href="#m55508205fc" y="219.339453"/>
     <use style="fill:#f8766d;stroke:#f8766d;" x="622.543168" xlink:href="#m55508205fc" y="67.015373"/>
     <use style="fill:#f8766d;stroke:#f8766d;" x="281.617581" xlink:href="#m55508205fc" y="226.41634"/>
     <use style="fill:#f8766d;stroke:#f8766d;" x="342.827501" xlink:href="#m55508205fc" y="249.67979"/>
     <use style="fill:#f8766d;stroke:#f8766d;" x="457.402079" xlink:href="#m55508205fc" y="248.359755"/>
     <use style="fill:#f8766d;stroke:#f8766d;" x="377.942889" xlink:href="#m55508205fc" y="234.430718"/>
     <use style="fill:#f8766d;stroke:#f8766d;" x="362.44035" xlink:href="#m55508205fc" y="252.288276"/>
     <use style="fill:#f8766d;stroke:#f8766d;" x="361.663414" xlink:href="#m55508205fc" y="222.400658"/>
     <use style="fill:#f8766d;stroke:#f8766d;" x="357.912212" xlink:href="#m55508205fc" y="241.449786"/>
     <use style="fill:#f8766d;stroke:#f8766d;" x="385.54525" xlink:href="#m55508205fc" y="268.059607"/>
    </g>
   </g>
   <g id="PathCollection_2">
    <defs>
     <path d="M 0 3 
C 0.795609 3 1.55874 2.683901 2.12132 2.12132 
C 2.683901 1.55874 3 0.795609 3 0 
C 3 -0.795609 2.683901 -1.55874 2.12132 -2.12132 
C 1.55874 -2.683901 0.795609 -3 0 -3 
C -0.795609 -3 -1.55874 -2.683901 -2.12132 -2.12132 
C -2.683901 -1.55874 -3 -0.795609 -3 0 
C -3 0.795609 -2.683901 1.55874 -2.12132 2.12132 
C -1.55874 2.683901 -0.795609 3 0 3 
z
" id="m48d7d4e3e4" style="stroke:#00bfc4;"/>
    </defs>
    <g clip-path="url(#pde45860b9e)">
     <use style="fill:#00bfc4;stroke:#00bfc4;" x="252.39611" xlink:href="#m48d7d4e3e4" y="231.263506"/>
     <use style="fill:#00bfc4;stroke:#00bfc4;" x="367.638939" xlink:href="#m48d7d4e3e4" y="253.783347"/>
     <use style="fill:#00bfc4;stroke:#00bfc4;" x="273.463827" xlink:href="#m48d7d4e3e4" y="249.695493"/>
     <use style="fill:#00bfc4;stroke:#00bfc4;" x="251.059554" xlink:href="#m48d7d4e3e4" y="240.51764"/>
     <use style="fill:#00bfc4;stroke:#00bfc4;" x="260.303134" xlink:href="#m48d7d4e3e4" y="252.472771"/>
     <use style="fill:#00bfc4;stroke:#00bfc4;" x="329.024277" xlink:href="#m48d7d4e3e4" y="238.621878"/>
     <use style="fill:#00bfc4;stroke:#00bfc4;" x="212.043512" xlink:href="#m48d7d4e3e4" y="247.7969"/>
     <use style="fill:#00bfc4;stroke:#00bfc4;" x="252.34175" xlink:href="#m48d7d4e3e4" y="250.344658"/>
     <use style="fill:#00bfc4;stroke:#00bfc4;" x="253.719779" xlink:href="#m48d7d4e3e4" y="251.630097"/>
     <use style="fill:#00bfc4;stroke:#00bfc4;" x="252.292725" xlink:href="#m48d7d4e3e4" y="250.273082"/>
     <use style="fill:#00bfc4;stroke:#00bfc4;" x="233.104678" xlink:href="#m48d7d4e3e4" y="255.250437"/>
     <use style="fill:#00bfc4;stroke:#00bfc4;" x="266.0586" xlink:href="#m48d7d4e3e4" y="247.468608"/>
     <use style="fill:#00bfc4;stroke:#00bfc4;" x="252.311709" xlink:href="#m48d7d4e3e4" y="250.270396"/>
     <use style="fill:#00bfc4;stroke:#00bfc4;" x="300.990308" xlink:href="#m48d7d4e3e4" y="227.183267"/>
     <use style="fill:#00bfc4;stroke:#00bfc4;" x="277.018433" xlink:href="#m48d7d4e3e4" y="242.749903"/>
     <use style="fill:#00bfc4;stroke:#00bfc4;" x="302.64461" xlink:href="#m48d7d4e3e4" y="248.563779"/>
     <use style="fill:#00bfc4;stroke:#00bfc4;" x="366.469926" xlink:href="#m48d7d4e3e4" y="253.740706"/>
     <use style="fill:#00bfc4;stroke:#00bfc4;" x="232.863011" xlink:href="#m48d7d4e3e4" y="226.48691"/>
     <use style="fill:#00bfc4;stroke:#00bfc4;" x="367.815301" xlink:href="#m48d7d4e3e4" y="250.966071"/>
     <use style="fill:#00bfc4;stroke:#00bfc4;" x="468.469428" xlink:href="#m48d7d4e3e4" y="281.573013"/>
     <use style="fill:#00bfc4;stroke:#00bfc4;" x="285.285716" xlink:href="#m48d7d4e3e4" y="316.315285"/>
     <use style="fill:#00bfc4;stroke:#00bfc4;" x="192.694337" xlink:href="#m48d7d4e3e4" y="222.620194"/>
     <use style="fill:#00bfc4;stroke:#00bfc4;" x="465.137299" xlink:href="#m48d7d4e3e4" y="281.279008"/>
     <use style="fill:#00bfc4;stroke:#00bfc4;" x="269.888177" xlink:href="#m48d7d4e3e4" y="203.738853"/>
     <use style="fill:#00bfc4;stroke:#00bfc4;" x="292.176721" xlink:href="#m48d7d4e3e4" y="350.194244"/>
     <use style="fill:#00bfc4;stroke:#00bfc4;" x="334.041186" xlink:href="#m48d7d4e3e4" y="330.423203"/>
     <use style="fill:#00bfc4;stroke:#00bfc4;" x="468.4333" xlink:href="#m48d7d4e3e4" y="293.717136"/>
     <use style="fill:#00bfc4;stroke:#00bfc4;" x="399.018428" xlink:href="#m48d7d4e3e4" y="317.181155"/>
     <use style="fill:#00bfc4;stroke:#00bfc4;" x="392.400114" xlink:href="#m48d7d4e3e4" y="282.593879"/>
     <use style="fill:#00bfc4;stroke:#00bfc4;" x="244.6785" xlink:href="#m48d7d4e3e4" y="328.553855"/>
     <use style="fill:#00bfc4;stroke:#00bfc4;" x="117.165907" xlink:href="#m48d7d4e3e4" y="261.863453"/>
     <use style="fill:#00bfc4;stroke:#00bfc4;" x="280.87964" xlink:href="#m48d7d4e3e4" y="334.159737"/>
     <use style="fill:#00bfc4;stroke:#00bfc4;" x="457.381343" xlink:href="#m48d7d4e3e4" y="276.092269"/>
     <use style="fill:#00bfc4;stroke:#00bfc4;" x="289.522669" xlink:href="#m48d7d4e3e4" y="263.427836"/>
     <use style="fill:#00bfc4;stroke:#00bfc4;" x="290.275016" xlink:href="#m48d7d4e3e4" y="269.942155"/>
     <use style="fill:#00bfc4;stroke:#00bfc4;" x="283.080366" xlink:href="#m48d7d4e3e4" y="310.290231"/>
     <use style="fill:#00bfc4;stroke:#00bfc4;" x="246.027642" xlink:href="#m48d7d4e3e4" y="326.060703"/>
     <use style="fill:#00bfc4;stroke:#00bfc4;" x="236.158668" xlink:href="#m48d7d4e3e4" y="305.331146"/>
     <use style="fill:#00bfc4;stroke:#00bfc4;" x="292.114453" xlink:href="#m48d7d4e3e4" y="216.167883"/>
     <use style="fill:#00bfc4;stroke:#00bfc4;" x="184.928667" xlink:href="#m48d7d4e3e4" y="279.660771"/>
     <use style="fill:#00bfc4;stroke:#00bfc4;" x="255.213381" xlink:href="#m48d7d4e3e4" y="325.897341"/>
     <use style="fill:#00bfc4;stroke:#00bfc4;" x="372.47466" xlink:href="#m48d7d4e3e4" y="359.67447"/>
     <use style="fill:#00bfc4;stroke:#00bfc4;" x="174.515973" xlink:href="#m48d7d4e3e4" y="268.569449"/>
     <use style="fill:#00bfc4;stroke:#00bfc4;" x="160.51849" xlink:href="#m48d7d4e3e4" y="278.846355"/>
     <use style="fill:#00bfc4;stroke:#00bfc4;" x="331.219848" xlink:href="#m48d7d4e3e4" y="362.280308"/>
     <use style="fill:#00bfc4;stroke:#00bfc4;" x="378.456678" xlink:href="#m48d7d4e3e4" y="327.252395"/>
     <use style="fill:#00bfc4;stroke:#00bfc4;" x="325.370189" xlink:href="#m48d7d4e3e4" y="326.67698"/>
     <use style="fill:#00bfc4;stroke:#00bfc4;" x="280.707209" xlink:href="#m48d7d4e3e4" y="279.833787"/>
     <use style="fill:#00bfc4;stroke:#00bfc4;" x="325.815376" xlink:href="#m48d7d4e3e4" y="303.489386"/>
     <use style="fill:#00bfc4;stroke:#00bfc4;" x="303.821608" xlink:href="#m48d7d4e3e4" y="285.328544"/>
     <use style="fill:#00bfc4;stroke:#00bfc4;" x="269.299715" xlink:href="#m48d7d4e3e4" y="219.385609"/>
     <use style="fill:#00bfc4;stroke:#00bfc4;" x="519.886156" xlink:href="#m48d7d4e3e4" y="318.437326"/>
     <use style="fill:#00bfc4;stroke:#00bfc4;" x="469.449299" xlink:href="#m48d7d4e3e4" y="303.872262"/>
     <use style="fill:#00bfc4;stroke:#00bfc4;" x="376.969268" xlink:href="#m48d7d4e3e4" y="246.905061"/>
     <use style="fill:#00bfc4;stroke:#00bfc4;" x="273.001273" xlink:href="#m48d7d4e3e4" y="257.68808"/>
     <use style="fill:#00bfc4;stroke:#00bfc4;" x="251.011016" xlink:href="#m48d7d4e3e4" y="259.70463"/>
     <use style="fill:#00bfc4;stroke:#00bfc4;" x="264.78516" xlink:href="#m48d7d4e3e4" y="267.882561"/>
     <use style="fill:#00bfc4;stroke:#00bfc4;" x="272.922307" xlink:href="#m48d7d4e3e4" y="233.194112"/>
     <use style="fill:#00bfc4;stroke:#00bfc4;" x="262.195092" xlink:href="#m48d7d4e3e4" y="269.019217"/>
     <use style="fill:#00bfc4;stroke:#00bfc4;" x="390.246837" xlink:href="#m48d7d4e3e4" y="258.325692"/>
     <use style="fill:#00bfc4;stroke:#00bfc4;" x="182.503527" xlink:href="#m48d7d4e3e4" y="320.02454"/>
     <use style="fill:#00bfc4;stroke:#00bfc4;" x="214.939912" xlink:href="#m48d7d4e3e4" y="310.70913"/>
     <use style="fill:#00bfc4;stroke:#00bfc4;" x="384.251572" xlink:href="#m48d7d4e3e4" y="299.140339"/>
     <use style="fill:#00bfc4;stroke:#00bfc4;" x="353.394598" xlink:href="#m48d7d4e3e4" y="336.601789"/>
     <use style="fill:#00bfc4;stroke:#00bfc4;" x="293.821441" xlink:href="#m48d7d4e3e4" y="306.305432"/>
     <use style="fill:#00bfc4;stroke:#00bfc4;" x="208.380328" xlink:href="#m48d7d4e3e4" y="354.689331"/>
     <use style="fill:#00bfc4;stroke:#00bfc4;" x="179.548785" xlink:href="#m48d7d4e3e4" y="242.5334"/>
     <use style="fill:#00bfc4;stroke:#00bfc4;" x="155.387611" xlink:href="#m48d7d4e3e4" y="279.587359"/>
     <use style="fill:#00bfc4;stroke:#00bfc4;" x="410.448382" xlink:href="#m48d7d4e3e4" y="278.54946"/>
     <use style="fill:#00bfc4;stroke:#00bfc4;" x="415.575967" xlink:href="#m48d7d4e3e4" y="307.213664"/>
     <use style="fill:#00bfc4;stroke:#00bfc4;" x="312.546604" xlink:href="#m48d7d4e3e4" y="300.254617"/>
     <use style="fill:#00bfc4;stroke:#00bfc4;" x="376.75523" xlink:href="#m48d7d4e3e4" y="347.88579"/>
     <use style="fill:#00bfc4;stroke:#00bfc4;" x="199.058214" xlink:href="#m48d7d4e3e4" y="269.31411"/>
     <use style="fill:#00bfc4;stroke:#00bfc4;" x="194.362807" xlink:href="#m48d7d4e3e4" y="284.921734"/>
     <use style="fill:#00bfc4;stroke:#00bfc4;" x="424.467465" xlink:href="#m48d7d4e3e4" y="262.894749"/>
     <use style="fill:#00bfc4;stroke:#00bfc4;" x="238.452151" xlink:href="#m48d7d4e3e4" y="292.026334"/>
     <use style="fill:#00bfc4;stroke:#00bfc4;" x="224.396745" xlink:href="#m48d7d4e3e4" y="267.760068"/>
     <use style="fill:#00bfc4;stroke:#00bfc4;" x="142.757464" xlink:href="#m48d7d4e3e4" y="236.311533"/>
     <use style="fill:#00bfc4;stroke:#00bfc4;" x="408.260371" xlink:href="#m48d7d4e3e4" y="342.442535"/>
     <use style="fill:#00bfc4;stroke:#00bfc4;" x="490.574352" xlink:href="#m48d7d4e3e4" y="328.757208"/>
     <use style="fill:#00bfc4;stroke:#00bfc4;" x="244.981465" xlink:href="#m48d7d4e3e4" y="279.857364"/>
     <use style="fill:#00bfc4;stroke:#00bfc4;" x="491.57908" xlink:href="#m48d7d4e3e4" y="263.191769"/>
     <use style="fill:#00bfc4;stroke:#00bfc4;" x="294.463098" xlink:href="#m48d7d4e3e4" y="318.58631"/>
     <use style="fill:#00bfc4;stroke:#00bfc4;" x="322.355702" xlink:href="#m48d7d4e3e4" y="328.470446"/>
     <use style="fill:#00bfc4;stroke:#00bfc4;" x="350.630235" xlink:href="#m48d7d4e3e4" y="278.592594"/>
     <use style="fill:#00bfc4;stroke:#00bfc4;" x="493.783973" xlink:href="#m48d7d4e3e4" y="328.39254"/>
     <use style="fill:#00bfc4;stroke:#00bfc4;" x="167.783465" xlink:href="#m48d7d4e3e4" y="228.469116"/>
     <use style="fill:#00bfc4;stroke:#00bfc4;" x="352.219581" xlink:href="#m48d7d4e3e4" y="323.996939"/>
     <use style="fill:#00bfc4;stroke:#00bfc4;" x="340.904021" xlink:href="#m48d7d4e3e4" y="347.225054"/>
     <use style="fill:#00bfc4;stroke:#00bfc4;" x="189.059004" xlink:href="#m48d7d4e3e4" y="298.679873"/>
     <use style="fill:#00bfc4;stroke:#00bfc4;" x="452.62685" xlink:href="#m48d7d4e3e4" y="315.807176"/>
     <use style="fill:#00bfc4;stroke:#00bfc4;" x="395.699742" xlink:href="#m48d7d4e3e4" y="286.162198"/>
     <use style="fill:#00bfc4;stroke:#00bfc4;" x="243.124732" xlink:href="#m48d7d4e3e4" y="281.719586"/>
     <use style="fill:#00bfc4;stroke:#00bfc4;" x="362.449013" xlink:href="#m48d7d4e3e4" y="258.758874"/>
     <use style="fill:#00bfc4;stroke:#00bfc4;" x="267.577865" xlink:href="#m48d7d4e3e4" y="299.88292"/>
     <use style="fill:#00bfc4;stroke:#00bfc4;" x="353.65815" xlink:href="#m48d7d4e3e4" y="318.690884"/>
     <use style="fill:#00bfc4;stroke:#00bfc4;" x="411.446492" xlink:href="#m48d7d4e3e4" y="338.864275"/>
     <use style="fill:#00bfc4;stroke:#00bfc4;" x="174.957974" xlink:href="#m48d7d4e3e4" y="290.064482"/>
     <use style="fill:#00bfc4;stroke:#00bfc4;" x="381.972031" xlink:href="#m48d7d4e3e4" y="306.422242"/>
     <use style="fill:#00bfc4;stroke:#00bfc4;" x="360.081136" xlink:href="#m48d7d4e3e4" y="337.374451"/>
     <use style="fill:#00bfc4;stroke:#00bfc4;" x="168.393048" xlink:href="#m48d7d4e3e4" y="307.547518"/>
     <use style="fill:#00bfc4;stroke:#00bfc4;" x="245.716118" xlink:href="#m48d7d4e3e4" y="273.828601"/>
     <use style="fill:#00bfc4;stroke:#00bfc4;" x="462.705767" xlink:href="#m48d7d4e3e4" y="300.300364"/>
     <use style="fill:#00bfc4;stroke:#00bfc4;" x="272.55821" xlink:href="#m48d7d4e3e4" y="310.028183"/>
     <use style="fill:#00bfc4;stroke:#00bfc4;" x="363.879227" xlink:href="#m48d7d4e3e4" y="301.166756"/>
     <use style="fill:#00bfc4;stroke:#00bfc4;" x="303.020205" xlink:href="#m48d7d4e3e4" y="342.738704"/>
     <use style="fill:#00bfc4;stroke:#00bfc4;" x="219.440688" xlink:href="#m48d7d4e3e4" y="335.368149"/>
     <use style="fill:#00bfc4;stroke:#00bfc4;" x="216.094672" xlink:href="#m48d7d4e3e4" y="305.523893"/>
     <use style="fill:#00bfc4;stroke:#00bfc4;" x="426.442693" xlink:href="#m48d7d4e3e4" y="311.914258"/>
     <use style="fill:#00bfc4;stroke:#00bfc4;" x="188.710138" xlink:href="#m48d7d4e3e4" y="300.365305"/>
     <use style="fill:#00bfc4;stroke:#00bfc4;" x="346.81937" xlink:href="#m48d7d4e3e4" y="277.931609"/>
     <use style="fill:#00bfc4;stroke:#00bfc4;" x="237.105188" xlink:href="#m48d7d4e3e4" y="304.936108"/>
     <use style="fill:#00bfc4;stroke:#00bfc4;" x="214.072497" xlink:href="#m48d7d4e3e4" y="352.163386"/>
     <use style="fill:#00bfc4;stroke:#00bfc4;" x="184.080532" xlink:href="#m48d7d4e3e4" y="288.848513"/>
     <use style="fill:#00bfc4;stroke:#00bfc4;" x="356.984031" xlink:href="#m48d7d4e3e4" y="319.096772"/>
     <use style="fill:#00bfc4;stroke:#00bfc4;" x="208.88369" xlink:href="#m48d7d4e3e4" y="259.39506"/>
     <use style="fill:#00bfc4;stroke:#00bfc4;" x="414.47745" xlink:href="#m48d7d4e3e4" y="287.804893"/>
     <use style="fill:#00bfc4;stroke:#00bfc4;" x="234.015828" xlink:href="#m48d7d4e3e4" y="264.478587"/>
     <use style="fill:#00bfc4;stroke:#00bfc4;" x="312.280527" xlink:href="#m48d7d4e3e4" y="329.608538"/>
     <use style="fill:#00bfc4;stroke:#00bfc4;" x="381.56473" xlink:href="#m48d7d4e3e4" y="328.254021"/>
     <use style="fill:#00bfc4;stroke:#00bfc4;" x="338.369112" xlink:href="#m48d7d4e3e4" y="347.491846"/>
     <use style="fill:#00bfc4;stroke:#00bfc4;" x="384.899725" xlink:href="#m48d7d4e3e4" y="323.930494"/>
     <use style="fill:#00bfc4;stroke:#00bfc4;" x="120.413108" xlink:href="#m48d7d4e3e4" y="307.575786"/>
     <use style="fill:#00bfc4;stroke:#00bfc4;" x="398.249727" xlink:href="#m48d7d4e3e4" y="282.855932"/>
     <use style="fill:#00bfc4;stroke:#00bfc4;" x="334.14771" xlink:href="#m48d7d4e3e4" y="343.613864"/>
     <use style="fill:#00bfc4;stroke:#00bfc4;" x="181.076496" xlink:href="#m48d7d4e3e4" y="314.848141"/>
     <use style="fill:#00bfc4;stroke:#00bfc4;" x="467.061337" xlink:href="#m48d7d4e3e4" y="310.64717"/>
     <use style="fill:#00bfc4;stroke:#00bfc4;" x="193.215811" xlink:href="#m48d7d4e3e4" y="345.085523"/>
     <use style="fill:#00bfc4;stroke:#00bfc4;" x="219.297795" xlink:href="#m48d7d4e3e4" y="337.557917"/>
     <use style="fill:#00bfc4;stroke:#00bfc4;" x="351.773085" xlink:href="#m48d7d4e3e4" y="324.239233"/>
     <use style="fill:#00bfc4;stroke:#00bfc4;" x="433.690726" xlink:href="#m48d7d4e3e4" y="329.510052"/>
     <use style="fill:#00bfc4;stroke:#00bfc4;" x="449.421695" xlink:href="#m48d7d4e3e4" y="316.264402"/>
     <use style="fill:#00bfc4;stroke:#00bfc4;" x="275.51944" xlink:href="#m48d7d4e3e4" y="340.055317"/>
     <use style="fill:#00bfc4;stroke:#00bfc4;" x="222.869109" xlink:href="#m48d7d4e3e4" y="348.979383"/>
     <use style="fill:#00bfc4;stroke:#00bfc4;" x="226.761318" xlink:href="#m48d7d4e3e4" y="347.831969"/>
     <use style="fill:#00bfc4;stroke:#00bfc4;" x="517.402412" xlink:href="#m48d7d4e3e4" y="319.279145"/>
     <use style="fill:#00bfc4;stroke:#00bfc4;" x="278.026369" xlink:href="#m48d7d4e3e4" y="253.83724"/>
     <use style="fill:#00bfc4;stroke:#00bfc4;" x="314.001436" xlink:href="#m48d7d4e3e4" y="246.505867"/>
     <use style="fill:#00bfc4;stroke:#00bfc4;" x="268.518421" xlink:href="#m48d7d4e3e4" y="251.193959"/>
     <use style="fill:#00bfc4;stroke:#00bfc4;" x="272.135083" xlink:href="#m48d7d4e3e4" y="234.792714"/>
     <use style="fill:#00bfc4;stroke:#00bfc4;" x="286.330361" xlink:href="#m48d7d4e3e4" y="234.296352"/>
     <use style="fill:#00bfc4;stroke:#00bfc4;" x="263.080074" xlink:href="#m48d7d4e3e4" y="239.511167"/>
     <use style="fill:#00bfc4;stroke:#00bfc4;" x="263.31266" xlink:href="#m48d7d4e3e4" y="251.368501"/>
     <use style="fill:#00bfc4;stroke:#00bfc4;" x="259.784554" xlink:href="#m48d7d4e3e4" y="254.091593"/>
     <use style="fill:#00bfc4;stroke:#00bfc4;" x="268.274924" xlink:href="#m48d7d4e3e4" y="224.615068"/>
     <use style="fill:#00bfc4;stroke:#00bfc4;" x="236.193017" xlink:href="#m48d7d4e3e4" y="244.84099"/>
     <use style="fill:#00bfc4;stroke:#00bfc4;" x="229.592763" xlink:href="#m48d7d4e3e4" y="234.909783"/>
     <use style="fill:#00bfc4;stroke:#00bfc4;" x="300.751999" xlink:href="#m48d7d4e3e4" y="237.544899"/>
     <use style="fill:#00bfc4;stroke:#00bfc4;" x="217.346104" xlink:href="#m48d7d4e3e4" y="238.004349"/>
     <use style="fill:#00bfc4;stroke:#00bfc4;" x="301.357661" xlink:href="#m48d7d4e3e4" y="256.078548"/>
     <use style="fill:#00bfc4;stroke:#00bfc4;" x="284.659078" xlink:href="#m48d7d4e3e4" y="247.201995"/>
     <use style="fill:#00bfc4;stroke:#00bfc4;" x="259.041145" xlink:href="#m48d7d4e3e4" y="245.278621"/>
     <use style="fill:#00bfc4;stroke:#00bfc4;" x="231.106569" xlink:href="#m48d7d4e3e4" y="242.908512"/>
     <use style="fill:#00bfc4;stroke:#00bfc4;" x="313.352864" xlink:href="#m48d7d4e3e4" y="257.708624"/>
     <use style="fill:#00bfc4;stroke:#00bfc4;" x="211.430016" xlink:href="#m48d7d4e3e4" y="236.100325"/>
     <use style="fill:#00bfc4;stroke:#00bfc4;" x="260.026772" xlink:href="#m48d7d4e3e4" y="249.309545"/>
     <use style="fill:#00bfc4;stroke:#00bfc4;" x="207.7488" xlink:href="#m48d7d4e3e4" y="236.229705"/>
     <use style="fill:#00bfc4;stroke:#00bfc4;" x="240.636912" xlink:href="#m48d7d4e3e4" y="230.560708"/>
     <use style="fill:#00bfc4;stroke:#00bfc4;" x="212.30122" xlink:href="#m48d7d4e3e4" y="249.8368"/>
     <use style="fill:#00bfc4;stroke:#00bfc4;" x="167.179219" xlink:href="#m48d7d4e3e4" y="251.787579"/>
     <use style="fill:#00bfc4;stroke:#00bfc4;" x="307.385474" xlink:href="#m48d7d4e3e4" y="300.316484"/>
     <use style="fill:#00bfc4;stroke:#00bfc4;" x="134.486992" xlink:href="#m48d7d4e3e4" y="274.406189"/>
     <use style="fill:#00bfc4;stroke:#00bfc4;" x="327.480355" xlink:href="#m48d7d4e3e4" y="220.381081"/>
     <use style="fill:#00bfc4;stroke:#00bfc4;" x="138.543868" xlink:href="#m48d7d4e3e4" y="264.603015"/>
     <use style="fill:#00bfc4;stroke:#00bfc4;" x="439.420922" xlink:href="#m48d7d4e3e4" y="343.864321"/>
     <use style="fill:#00bfc4;stroke:#00bfc4;" x="233.359923" xlink:href="#m48d7d4e3e4" y="291.669149"/>
     <use style="fill:#00bfc4;stroke:#00bfc4;" x="352.796677" xlink:href="#m48d7d4e3e4" y="263.554248"/>
     <use style="fill:#00bfc4;stroke:#00bfc4;" x="133.33367" xlink:href="#m48d7d4e3e4" y="329.936161"/>
     <use style="fill:#00bfc4;stroke:#00bfc4;" x="264.778672" xlink:href="#m48d7d4e3e4" y="359.158691"/>
     <use style="fill:#00bfc4;stroke:#00bfc4;" x="495.478437" xlink:href="#m48d7d4e3e4" y="267.914123"/>
     <use style="fill:#00bfc4;stroke:#00bfc4;" x="349.88666" xlink:href="#m48d7d4e3e4" y="359.432829"/>
     <use style="fill:#00bfc4;stroke:#00bfc4;" x="421.743542" xlink:href="#m48d7d4e3e4" y="328.788977"/>
     <use style="fill:#00bfc4;stroke:#00bfc4;" x="387.871969" xlink:href="#m48d7d4e3e4" y="351.455597"/>
     <use style="fill:#00bfc4;stroke:#00bfc4;" x="286.774724" xlink:href="#m48d7d4e3e4" y="355.897294"/>
     <use style="fill:#00bfc4;stroke:#00bfc4;" x="314.429918" xlink:href="#m48d7d4e3e4" y="289.997528"/>
     <use style="fill:#00bfc4;stroke:#00bfc4;" x="249.157319" xlink:href="#m48d7d4e3e4" y="288.769052"/>
     <use style="fill:#00bfc4;stroke:#00bfc4;" x="272.830556" xlink:href="#m48d7d4e3e4" y="340.213048"/>
     <use style="fill:#00bfc4;stroke:#00bfc4;" x="212.863262" xlink:href="#m48d7d4e3e4" y="354.121783"/>
     <use style="fill:#00bfc4;stroke:#00bfc4;" x="304.586319" xlink:href="#m48d7d4e3e4" y="342.464101"/>
     <use style="fill:#00bfc4;stroke:#00bfc4;" x="342.439344" xlink:href="#m48d7d4e3e4" y="276.528254"/>
     <use style="fill:#00bfc4;stroke:#00bfc4;" x="203.679172" xlink:href="#m48d7d4e3e4" y="288.262423"/>
     <use style="fill:#00bfc4;stroke:#00bfc4;" x="231.2309" xlink:href="#m48d7d4e3e4" y="341.839442"/>
     <use style="fill:#00bfc4;stroke:#00bfc4;" x="194.371626" xlink:href="#m48d7d4e3e4" y="253.358241"/>
     <use style="fill:#00bfc4;stroke:#00bfc4;" x="377.367192" xlink:href="#m48d7d4e3e4" y="335.0801"/>
     <use style="fill:#00bfc4;stroke:#00bfc4;" x="407.819422" xlink:href="#m48d7d4e3e4" y="309.299529"/>
     <use style="fill:#00bfc4;stroke:#00bfc4;" x="327.900742" xlink:href="#m48d7d4e3e4" y="367.467724"/>
     <use style="fill:#00bfc4;stroke:#00bfc4;" x="222.924127" xlink:href="#m48d7d4e3e4" y="325.59433"/>
    </g>
   </g>
   <g id="matplotlib.axis_1">
    <g id="xtick_1">
     <g id="line2d_1">
      <defs>
       <path d="M 0 0 
L 0 3.5 
" id="m149e1bac0d" style="stroke:#000000;stroke-width:0.8;"/>
      </defs>
      <g>
       <use style="stroke:#000000;stroke-width:0.8;" x="184.716069" xlink:href="#m149e1bac0d" y="384.48"/>
      </g>
     </g>
     <g id="text_1">
      <!-- −5 -->
      <defs>
       <path d="M 10.59375 35.5 
L 73.1875 35.5 
L 73.1875 27.203125 
L 10.59375 27.203125 
z
" id="DejaVuSans-8722"/>
       <path d="M 10.796875 72.90625 
L 49.515625 72.90625 
L 49.515625 64.59375 
L 19.828125 64.59375 
L 19.828125 46.734375 
Q 21.96875 47.46875 24.109375 47.828125 
Q 26.265625 48.1875 28.421875 48.1875 
Q 40.625 48.1875 47.75 41.5 
Q 54.890625 34.8125 54.890625 23.390625 
Q 54.890625 11.625 47.5625 5.09375 
Q 40.234375 -1.421875 26.90625 -1.421875 
Q 22.3125 -1.421875 17.546875 -0.640625 
Q 12.796875 0.140625 7.71875 1.703125 
L 7.71875 11.625 
Q 12.109375 9.234375 16.796875 8.0625 
Q 21.484375 6.890625 26.703125 6.890625 
Q 35.15625 6.890625 40.078125 11.328125 
Q 45.015625 15.765625 45.015625 23.390625 
Q 45.015625 31 40.078125 35.4375 
Q 35.15625 39.890625 26.703125 39.890625 
Q 22.75 39.890625 18.8125 39.015625 
Q 14.890625 38.140625 10.796875 36.28125 
z
" id="DejaVuSans-53"/>
      </defs>
      <g transform="translate(177.344975 399.078438)scale(0.1 -0.1)">
       <use xlink:href="#DejaVuSans-8722"/>
       <use x="83.789062" xlink:href="#DejaVuSans-53"/>
      </g>
     </g>
    </g>
    <g id="xtick_2">
     <g id="line2d_2">
      <g>
       <use style="stroke:#000000;stroke-width:0.8;" x="305.093337" xlink:href="#m149e1bac0d" y="384.48"/>
      </g>
     </g>
     <g id="text_2">
      <!-- 0 -->
      <defs>
       <path d="M 31.78125 66.40625 
Q 24.171875 66.40625 20.328125 58.90625 
Q 16.5 51.421875 16.5 36.375 
Q 16.5 21.390625 20.328125 13.890625 
Q 24.171875 6.390625 31.78125 6.390625 
Q 39.453125 6.390625 43.28125 13.890625 
Q 47.125 21.390625 47.125 36.375 
Q 47.125 51.421875 43.28125 58.90625 
Q 39.453125 66.40625 31.78125 66.40625 
z
M 31.78125 74.21875 
Q 44.046875 74.21875 50.515625 64.515625 
Q 56.984375 54.828125 56.984375 36.375 
Q 56.984375 17.96875 50.515625 8.265625 
Q 44.046875 -1.421875 31.78125 -1.421875 
Q 19.53125 -1.421875 13.0625 8.265625 
Q 6.59375 17.96875 6.59375 36.375 
Q 6.59375 54.828125 13.0625 64.515625 
Q 19.53125 74.21875 31.78125 74.21875 
z
" id="DejaVuSans-48"/>
      </defs>
      <g transform="translate(301.912087 399.078438)scale(0.1 -0.1)">
       <use xlink:href="#DejaVuSans-48"/>
      </g>
     </g>
    </g>
    <g id="xtick_3">
     <g id="line2d_3">
      <g>
       <use style="stroke:#000000;stroke-width:0.8;" x="425.470605" xlink:href="#m149e1bac0d" y="384.48"/>
      </g>
     </g>
     <g id="text_3">
      <!-- 5 -->
      <g transform="translate(422.289355 399.078438)scale(0.1 -0.1)">
       <use xlink:href="#DejaVuSans-53"/>
      </g>
     </g>
    </g>
    <g id="xtick_4">
     <g id="line2d_4">
      <g>
       <use style="stroke:#000000;stroke-width:0.8;" x="545.847874" xlink:href="#m149e1bac0d" y="384.48"/>
      </g>
     </g>
     <g id="text_4">
      <!-- 10 -->
      <defs>
       <path d="M 12.40625 8.296875 
L 28.515625 8.296875 
L 28.515625 63.921875 
L 10.984375 60.40625 
L 10.984375 69.390625 
L 28.421875 72.90625 
L 38.28125 72.90625 
L 38.28125 8.296875 
L 54.390625 8.296875 
L 54.390625 0 
L 12.40625 0 
z
" id="DejaVuSans-49"/>
      </defs>
      <g transform="translate(539.485374 399.078438)scale(0.1 -0.1)">
       <use xlink:href="#DejaVuSans-49"/>
       <use x="63.623047" xlink:href="#DejaVuSans-48"/>
      </g>
     </g>
    </g>
    <g id="text_5">
     <!-- tSNE-1 -->
     <defs>
      <path d="M 18.3125 70.21875 
L 18.3125 54.6875 
L 36.8125 54.6875 
L 36.8125 47.703125 
L 18.3125 47.703125 
L 18.3125 18.015625 
Q 18.3125 11.328125 20.140625 9.421875 
Q 21.96875 7.515625 27.59375 7.515625 
L 36.8125 7.515625 
L 36.8125 0 
L 27.59375 0 
Q 17.1875 0 13.234375 3.875 
Q 9.28125 7.765625 9.28125 18.015625 
L 9.28125 47.703125 
L 2.6875 47.703125 
L 2.6875 54.6875 
L 9.28125 54.6875 
L 9.28125 70.21875 
z
" id="DejaVuSans-116"/>
      <path d="M 53.515625 70.515625 
L 53.515625 60.890625 
Q 47.90625 63.578125 42.921875 64.890625 
Q 37.9375 66.21875 33.296875 66.21875 
Q 25.25 66.21875 20.875 63.09375 
Q 16.5 59.96875 16.5 54.203125 
Q 16.5 49.359375 19.40625 46.890625 
Q 22.3125 44.4375 30.421875 42.921875 
L 36.375 41.703125 
Q 47.40625 39.59375 52.65625 34.296875 
Q 57.90625 29 57.90625 20.125 
Q 57.90625 9.515625 50.796875 4.046875 
Q 43.703125 -1.421875 29.984375 -1.421875 
Q 24.8125 -1.421875 18.96875 -0.25 
Q 13.140625 0.921875 6.890625 3.21875 
L 6.890625 13.375 
Q 12.890625 10.015625 18.65625 8.296875 
Q 24.421875 6.59375 29.984375 6.59375 
Q 38.421875 6.59375 43.015625 9.90625 
Q 47.609375 13.234375 47.609375 19.390625 
Q 47.609375 24.75 44.3125 27.78125 
Q 41.015625 30.8125 33.5 32.328125 
L 27.484375 33.5 
Q 16.453125 35.6875 11.515625 40.375 
Q 6.59375 45.0625 6.59375 53.421875 
Q 6.59375 63.09375 13.40625 68.65625 
Q 20.21875 74.21875 32.171875 74.21875 
Q 37.3125 74.21875 42.625 73.28125 
Q 47.953125 72.359375 53.515625 70.515625 
z
" id="DejaVuSans-83"/>
      <path d="M 9.8125 72.90625 
L 23.09375 72.90625 
L 55.421875 11.921875 
L 55.421875 72.90625 
L 64.984375 72.90625 
L 64.984375 0 
L 51.703125 0 
L 19.390625 60.984375 
L 19.390625 0 
L 9.8125 0 
z
" id="DejaVuSans-78"/>
      <path d="M 9.8125 72.90625 
L 55.90625 72.90625 
L 55.90625 64.59375 
L 19.671875 64.59375 
L 19.671875 43.015625 
L 54.390625 43.015625 
L 54.390625 34.71875 
L 19.671875 34.71875 
L 19.671875 8.296875 
L 56.78125 8.296875 
L 56.78125 0 
L 9.8125 0 
z
" id="DejaVuSans-69"/>
      <path d="M 4.890625 31.390625 
L 31.203125 31.390625 
L 31.203125 23.390625 
L 4.890625 23.390625 
z
" id="DejaVuSans-45"/>
     </defs>
     <g transform="translate(351.980469 412.756563)scale(0.1 -0.1)">
      <use xlink:href="#DejaVuSans-116"/>
      <use x="39.208984" xlink:href="#DejaVuSans-83"/>
      <use x="102.685547" xlink:href="#DejaVuSans-78"/>
      <use x="177.490234" xlink:href="#DejaVuSans-69"/>
      <use x="240.673828" xlink:href="#DejaVuSans-45"/>
      <use x="276.757812" xlink:href="#DejaVuSans-49"/>
     </g>
    </g>
   </g>
   <g id="matplotlib.axis_2">
    <g id="ytick_1">
     <g id="line2d_5">
      <defs>
       <path d="M 0 0 
L -3.5 0 
" id="mf8b5d2ec8d" style="stroke:#000000;stroke-width:0.8;"/>
      </defs>
      <g>
       <use style="stroke:#000000;stroke-width:0.8;" x="90" xlink:href="#mf8b5d2ec8d" y="365.995558"/>
      </g>
     </g>
     <g id="text_6">
      <!-- −10 -->
      <g transform="translate(61.895313 369.794777)scale(0.1 -0.1)">
       <use xlink:href="#DejaVuSans-8722"/>
       <use x="83.789062" xlink:href="#DejaVuSans-49"/>
       <use x="147.412109" xlink:href="#DejaVuSans-48"/>
      </g>
     </g>
    </g>
    <g id="ytick_2">
     <g id="line2d_6">
      <g>
       <use style="stroke:#000000;stroke-width:0.8;" x="90" xlink:href="#mf8b5d2ec8d" y="323.358676"/>
      </g>
     </g>
     <g id="text_7">
      <!-- −5 -->
      <g transform="translate(68.257812 327.157895)scale(0.1 -0.1)">
       <use xlink:href="#DejaVuSans-8722"/>
       <use x="83.789062" xlink:href="#DejaVuSans-53"/>
      </g>
     </g>
    </g>
    <g id="ytick_3">
     <g id="line2d_7">
      <g>
       <use style="stroke:#000000;stroke-width:0.8;" x="90" xlink:href="#mf8b5d2ec8d" y="280.721794"/>
      </g>
     </g>
     <g id="text_8">
      <!-- 0 -->
      <g transform="translate(76.6375 284.521013)scale(0.1 -0.1)">
       <use xlink:href="#DejaVuSans-48"/>
      </g>
     </g>
    </g>
    <g id="ytick_4">
     <g id="line2d_8">
      <g>
       <use style="stroke:#000000;stroke-width:0.8;" x="90" xlink:href="#mf8b5d2ec8d" y="238.084912"/>
      </g>
     </g>
     <g id="text_9">
      <!-- 5 -->
      <g transform="translate(76.6375 241.884131)scale(0.1 -0.1)">
       <use xlink:href="#DejaVuSans-53"/>
      </g>
     </g>
    </g>
    <g id="ytick_5">
     <g id="line2d_9">
      <g>
       <use style="stroke:#000000;stroke-width:0.8;" x="90" xlink:href="#mf8b5d2ec8d" y="195.44803"/>
      </g>
     </g>
     <g id="text_10">
      <!-- 10 -->
      <g transform="translate(70.275 199.247249)scale(0.1 -0.1)">
       <use xlink:href="#DejaVuSans-49"/>
       <use x="63.623047" xlink:href="#DejaVuSans-48"/>
      </g>
     </g>
    </g>
    <g id="ytick_6">
     <g id="line2d_10">
      <g>
       <use style="stroke:#000000;stroke-width:0.8;" x="90" xlink:href="#mf8b5d2ec8d" y="152.811148"/>
      </g>
     </g>
     <g id="text_11">
      <!-- 15 -->
      <g transform="translate(70.275 156.610367)scale(0.1 -0.1)">
       <use xlink:href="#DejaVuSans-49"/>
       <use x="63.623047" xlink:href="#DejaVuSans-53"/>
      </g>
     </g>
    </g>
    <g id="ytick_7">
     <g id="line2d_11">
      <g>
       <use style="stroke:#000000;stroke-width:0.8;" x="90" xlink:href="#mf8b5d2ec8d" y="110.174266"/>
      </g>
     </g>
     <g id="text_12">
      <!-- 20 -->
      <defs>
       <path d="M 19.1875 8.296875 
L 53.609375 8.296875 
L 53.609375 0 
L 7.328125 0 
L 7.328125 8.296875 
Q 12.9375 14.109375 22.625 23.890625 
Q 32.328125 33.6875 34.8125 36.53125 
Q 39.546875 41.84375 41.421875 45.53125 
Q 43.3125 49.21875 43.3125 52.78125 
Q 43.3125 58.59375 39.234375 62.25 
Q 35.15625 65.921875 28.609375 65.921875 
Q 23.96875 65.921875 18.8125 64.3125 
Q 13.671875 62.703125 7.8125 59.421875 
L 7.8125 69.390625 
Q 13.765625 71.78125 18.9375 73 
Q 24.125 74.21875 28.421875 74.21875 
Q 39.75 74.21875 46.484375 68.546875 
Q 53.21875 62.890625 53.21875 53.421875 
Q 53.21875 48.921875 51.53125 44.890625 
Q 49.859375 40.875 45.40625 35.40625 
Q 44.1875 33.984375 37.640625 27.21875 
Q 31.109375 20.453125 19.1875 8.296875 
z
" id="DejaVuSans-50"/>
      </defs>
      <g transform="translate(70.275 113.973485)scale(0.1 -0.1)">
       <use xlink:href="#DejaVuSans-50"/>
       <use x="63.623047" xlink:href="#DejaVuSans-48"/>
      </g>
     </g>
    </g>
    <g id="ytick_8">
     <g id="line2d_12">
      <g>
       <use style="stroke:#000000;stroke-width:0.8;" x="90" xlink:href="#mf8b5d2ec8d" y="67.537384"/>
      </g>
     </g>
     <g id="text_13">
      <!-- 25 -->
      <g transform="translate(70.275 71.336603)scale(0.1 -0.1)">
       <use xlink:href="#DejaVuSans-50"/>
       <use x="63.623047" xlink:href="#DejaVuSans-53"/>
      </g>
     </g>
    </g>
    <g id="text_14">
     <!-- tSNE-2 -->
     <g transform="translate(55.815625 235.179531)rotate(-90)scale(0.1 -0.1)">
      <use xlink:href="#DejaVuSans-116"/>
      <use x="39.208984" xlink:href="#DejaVuSans-83"/>
      <use x="102.685547" xlink:href="#DejaVuSans-78"/>
      <use x="177.490234" xlink:href="#DejaVuSans-69"/>
      <use x="240.673828" xlink:href="#DejaVuSans-45"/>
      <use x="276.757812" xlink:href="#DejaVuSans-50"/>
     </g>
    </g>
   </g>
   <g id="patch_3">
    <path d="M 90 384.48 
L 90 51.84 
" style="fill:none;stroke:#000000;stroke-linecap:square;stroke-linejoin:miter;stroke-width:0.8;"/>
   </g>
   <g id="patch_4">
    <path d="M 648 384.48 
L 648 51.84 
" style="fill:none;stroke:#000000;stroke-linecap:square;stroke-linejoin:miter;stroke-width:0.8;"/>
   </g>
   <g id="patch_5">
    <path d="M 90 384.48 
L 648 384.48 
" style="fill:none;stroke:#000000;stroke-linecap:square;stroke-linejoin:miter;stroke-width:0.8;"/>
   </g>
   <g id="patch_6">
    <path d="M 90 51.84 
L 648 51.84 
" style="fill:none;stroke:#000000;stroke-linecap:square;stroke-linejoin:miter;stroke-width:0.8;"/>
   </g>
   <g id="legend_1">
    <g id="patch_7">
     <path d="M 97 89.19625 
L 174.875 89.19625 
Q 176.875 89.19625 176.875 87.19625 
L 176.875 58.84 
Q 176.875 56.84 174.875 56.84 
L 97 56.84 
Q 95 56.84 95 58.84 
L 95 87.19625 
Q 95 89.19625 97 89.19625 
z
" style="fill:#ffffff;opacity:0.8;stroke:#cccccc;stroke-linejoin:miter;"/>
    </g>
    <g id="PathCollection_3">
     <g>
      <use style="fill:#f8766d;stroke:#f8766d;" x="109" xlink:href="#m55508205fc" y="65.813437"/>
     </g>
    </g>
    <g id="text_15">
     <!-- D003015 -->
     <defs>
      <path d="M 19.671875 64.796875 
L 19.671875 8.109375 
L 31.59375 8.109375 
Q 46.6875 8.109375 53.6875 14.9375 
Q 60.6875 21.78125 60.6875 36.53125 
Q 60.6875 51.171875 53.6875 57.984375 
Q 46.6875 64.796875 31.59375 64.796875 
z
M 9.8125 72.90625 
L 30.078125 72.90625 
Q 51.265625 72.90625 61.171875 64.09375 
Q 71.09375 55.28125 71.09375 36.53125 
Q 71.09375 17.671875 61.125 8.828125 
Q 51.171875 0 30.078125 0 
L 9.8125 0 
z
" id="DejaVuSans-68"/>
      <path d="M 40.578125 39.3125 
Q 47.65625 37.796875 51.625 33 
Q 55.609375 28.21875 55.609375 21.1875 
Q 55.609375 10.40625 48.1875 4.484375 
Q 40.765625 -1.421875 27.09375 -1.421875 
Q 22.515625 -1.421875 17.65625 -0.515625 
Q 12.796875 0.390625 7.625 2.203125 
L 7.625 11.71875 
Q 11.71875 9.328125 16.59375 8.109375 
Q 21.484375 6.890625 26.8125 6.890625 
Q 36.078125 6.890625 40.9375 10.546875 
Q 45.796875 14.203125 45.796875 21.1875 
Q 45.796875 27.640625 41.28125 31.265625 
Q 36.765625 34.90625 28.71875 34.90625 
L 20.21875 34.90625 
L 20.21875 43.015625 
L 29.109375 43.015625 
Q 36.375 43.015625 40.234375 45.921875 
Q 44.09375 48.828125 44.09375 54.296875 
Q 44.09375 59.90625 40.109375 62.90625 
Q 36.140625 65.921875 28.71875 65.921875 
Q 24.65625 65.921875 20.015625 65.03125 
Q 15.375 64.15625 9.8125 62.3125 
L 9.8125 71.09375 
Q 15.4375 72.65625 20.34375 73.4375 
Q 25.25 74.21875 29.59375 74.21875 
Q 40.828125 74.21875 47.359375 69.109375 
Q 53.90625 64.015625 53.90625 55.328125 
Q 53.90625 49.265625 50.4375 45.09375 
Q 46.96875 40.921875 40.578125 39.3125 
z
" id="DejaVuSans-51"/>
     </defs>
     <g transform="translate(127 68.438437)scale(0.1 -0.1)">
      <use xlink:href="#DejaVuSans-68"/>
      <use x="77.001953" xlink:href="#DejaVuSans-48"/>
      <use x="140.625" xlink:href="#DejaVuSans-48"/>
      <use x="204.248047" xlink:href="#DejaVuSans-51"/>
      <use x="267.871094" xlink:href="#DejaVuSans-48"/>
      <use x="331.494141" xlink:href="#DejaVuSans-49"/>
      <use x="395.117188" xlink:href="#DejaVuSans-53"/>
     </g>
    </g>
    <g id="PathCollection_4">
     <g>
      <use style="fill:#00bfc4;stroke:#00bfc4;" x="109" xlink:href="#m48d7d4e3e4" y="80.491562"/>
     </g>
    </g>
    <g id="text_16">
     <!-- D006262 -->
     <defs>
      <path d="M 33.015625 40.375 
Q 26.375 40.375 22.484375 35.828125 
Q 18.609375 31.296875 18.609375 23.390625 
Q 18.609375 15.53125 22.484375 10.953125 
Q 26.375 6.390625 33.015625 6.390625 
Q 39.65625 6.390625 43.53125 10.953125 
Q 47.40625 15.53125 47.40625 23.390625 
Q 47.40625 31.296875 43.53125 35.828125 
Q 39.65625 40.375 33.015625 40.375 
z
M 52.59375 71.296875 
L 52.59375 62.3125 
Q 48.875 64.0625 45.09375 64.984375 
Q 41.3125 65.921875 37.59375 65.921875 
Q 27.828125 65.921875 22.671875 59.328125 
Q 17.53125 52.734375 16.796875 39.40625 
Q 19.671875 43.65625 24.015625 45.921875 
Q 28.375 48.1875 33.59375 48.1875 
Q 44.578125 48.1875 50.953125 41.515625 
Q 57.328125 34.859375 57.328125 23.390625 
Q 57.328125 12.15625 50.6875 5.359375 
Q 44.046875 -1.421875 33.015625 -1.421875 
Q 20.359375 -1.421875 13.671875 8.265625 
Q 6.984375 17.96875 6.984375 36.375 
Q 6.984375 53.65625 15.1875 63.9375 
Q 23.390625 74.21875 37.203125 74.21875 
Q 40.921875 74.21875 44.703125 73.484375 
Q 48.484375 72.75 52.59375 71.296875 
z
" id="DejaVuSans-54"/>
     </defs>
     <g transform="translate(127 83.116562)scale(0.1 -0.1)">
      <use xlink:href="#DejaVuSans-68"/>
      <use x="77.001953" xlink:href="#DejaVuSans-48"/>
      <use x="140.625" xlink:href="#DejaVuSans-48"/>
      <use x="204.248047" xlink:href="#DejaVuSans-54"/>
      <use x="267.871094" xlink:href="#DejaVuSans-50"/>
      <use x="331.494141" xlink:href="#DejaVuSans-54"/>
      <use x="395.117188" xlink:href="#DejaVuSans-50"/>
     </g>
    </g>
   </g>
  </g>
 </g>
 <defs>
  <clipPath id="pde45860b9e">
   <rect height="332.64" width="558" x="90" y="51.84"/>
  </clipPath>
 </defs>
</svg>
