<?xml version="1.0" encoding="utf-8" standalone="no"?>
<!DOCTYPE svg PUBLIC "-//W3C//DTD SVG 1.1//EN"
  "http://www.w3.org/Graphics/SVG/1.1/DTD/svg11.dtd">
<!-- Created with matplotlib (https://matplotlib.org/) -->
<svg height="432pt" version="1.1" viewBox="0 0 720 432" width="720pt" xmlns="http://www.w3.org/2000/svg" xmlns:xlink="http://www.w3.org/1999/xlink">
 <defs>
  <style type="text/css">
*{stroke-linecap:butt;stroke-linejoin:round;}
  </style>
 </defs>
 <g id="figure_1">
  <g id="patch_1">
   <path d="M 0 432 
L 720 432 
L 720 0 
L 0 0 
z
" style="fill:#ffffff;"/>
  </g>
  <g id="axes_1">
   <g id="patch_2">
    <path d="M 90 378 
L 648 378 
L 648 51.84 
L 90 51.84 
z
" style="fill:#ffffff;"/>
   </g>
   <g id="PathCollection_1">
    <defs>
     <path d="M 0 3 
C 0.795609 3 1.55874 2.683901 2.12132 2.12132 
C 2.683901 1.55874 3 0.795609 3 0 
C 3 -0.795609 2.683901 -1.55874 2.12132 -2.12132 
C 1.55874 -2.683901 0.795609 -3 0 -3 
C -0.795609 -3 -1.55874 -2.683901 -2.12132 -2.12132 
C -2.683901 -1.55874 -3 -0.795609 -3 0 
C -3 0.795609 -2.683901 1.55874 -2.12132 2.12132 
C -1.55874 2.683901 -0.795609 3 0 3 
z
" id="maf3b410618" style="stroke:#00bfc4;"/>
    </defs>
    <g clip-path="url(#pac29d628cc)">
     <use style="fill:#00bfc4;stroke:#00bfc4;" x="236.038818" xlink:href="#maf3b410618" y="145.170992"/>
     <use style="fill:#00bfc4;stroke:#00bfc4;" x="367.153693" xlink:href="#maf3b410618" y="298.097901"/>
     <use style="fill:#00bfc4;stroke:#00bfc4;" x="270.463364" xlink:href="#maf3b410618" y="140.941996"/>
     <use style="fill:#00bfc4;stroke:#00bfc4;" x="489.661847" xlink:href="#maf3b410618" y="92.592067"/>
     <use style="fill:#00bfc4;stroke:#00bfc4;" x="564.254343" xlink:href="#maf3b410618" y="281.146882"/>
     <use style="fill:#00bfc4;stroke:#00bfc4;" x="435.410206" xlink:href="#maf3b410618" y="119.348673"/>
     <use style="fill:#00bfc4;stroke:#00bfc4;" x="401.333478" xlink:href="#maf3b410618" y="238.47968"/>
     <use style="fill:#00bfc4;stroke:#00bfc4;" x="326.749725" xlink:href="#maf3b410618" y="220.206793"/>
     <use style="fill:#00bfc4;stroke:#00bfc4;" x="428.199147" xlink:href="#maf3b410618" y="300.175649"/>
     <use style="fill:#00bfc4;stroke:#00bfc4;" x="168.638435" xlink:href="#maf3b410618" y="206.014711"/>
     <use style="fill:#00bfc4;stroke:#00bfc4;" x="181.17374" xlink:href="#maf3b410618" y="244.486487"/>
     <use style="fill:#00bfc4;stroke:#00bfc4;" x="356.222573" xlink:href="#maf3b410618" y="339.652051"/>
     <use style="fill:#00bfc4;stroke:#00bfc4;" x="598.079062" xlink:href="#maf3b410618" y="236.664715"/>
     <use style="fill:#00bfc4;stroke:#00bfc4;" x="232.637043" xlink:href="#maf3b410618" y="187.845079"/>
     <use style="fill:#00bfc4;stroke:#00bfc4;" x="267.118269" xlink:href="#maf3b410618" y="166.975324"/>
     <use style="fill:#00bfc4;stroke:#00bfc4;" x="564.652655" xlink:href="#maf3b410618" y="282.538996"/>
     <use style="fill:#00bfc4;stroke:#00bfc4;" x="351.010841" xlink:href="#maf3b410618" y="211.827655"/>
     <use style="fill:#00bfc4;stroke:#00bfc4;" x="505.296187" xlink:href="#maf3b410618" y="74.495045"/>
     <use style="fill:#00bfc4;stroke:#00bfc4;" x="226.766901" xlink:href="#maf3b410618" y="229.697214"/>
     <use style="fill:#00bfc4;stroke:#00bfc4;" x="500.711584" xlink:href="#maf3b410618" y="323.289257"/>
     <use style="fill:#00bfc4;stroke:#00bfc4;" x="368.919743" xlink:href="#maf3b410618" y="245.063887"/>
     <use style="fill:#00bfc4;stroke:#00bfc4;" x="250.602228" xlink:href="#maf3b410618" y="220.646798"/>
     <use style="fill:#00bfc4;stroke:#00bfc4;" x="218.83019" xlink:href="#maf3b410618" y="204.370153"/>
     <use style="fill:#00bfc4;stroke:#00bfc4;" x="478.958825" xlink:href="#maf3b410618" y="304.422772"/>
     <use style="fill:#00bfc4;stroke:#00bfc4;" x="600.055569" xlink:href="#maf3b410618" y="188.940296"/>
     <use style="fill:#00bfc4;stroke:#00bfc4;" x="385.196832" xlink:href="#maf3b410618" y="167.369895"/>
     <use style="fill:#00bfc4;stroke:#00bfc4;" x="433.539268" xlink:href="#maf3b410618" y="171.748756"/>
     <use style="fill:#00bfc4;stroke:#00bfc4;" x="306.016898" xlink:href="#maf3b410618" y="232.885253"/>
     <use style="fill:#00bfc4;stroke:#00bfc4;" x="396.174576" xlink:href="#maf3b410618" y="143.980719"/>
     <use style="fill:#00bfc4;stroke:#00bfc4;" x="528.267006" xlink:href="#maf3b410618" y="104.325657"/>
     <use style="fill:#00bfc4;stroke:#00bfc4;" x="190.972773" xlink:href="#maf3b410618" y="330.355986"/>
     <use style="fill:#00bfc4;stroke:#00bfc4;" x="514.77598" xlink:href="#maf3b410618" y="174.631846"/>
     <use style="fill:#00bfc4;stroke:#00bfc4;" x="312.486244" xlink:href="#maf3b410618" y="214.414077"/>
     <use style="fill:#00bfc4;stroke:#00bfc4;" x="522.706259" xlink:href="#maf3b410618" y="189.339832"/>
     <use style="fill:#00bfc4;stroke:#00bfc4;" x="500.824847" xlink:href="#maf3b410618" y="103.335295"/>
     <use style="fill:#00bfc4;stroke:#00bfc4;" x="411.907443" xlink:href="#maf3b410618" y="133.458195"/>
     <use style="fill:#00bfc4;stroke:#00bfc4;" x="470.709511" xlink:href="#maf3b410618" y="162.190495"/>
     <use style="fill:#00bfc4;stroke:#00bfc4;" x="244.818606" xlink:href="#maf3b410618" y="195.811799"/>
     <use style="fill:#00bfc4;stroke:#00bfc4;" x="288.159136" xlink:href="#maf3b410618" y="167.759946"/>
     <use style="fill:#00bfc4;stroke:#00bfc4;" x="432.838572" xlink:href="#maf3b410618" y="92.86815"/>
     <use style="fill:#00bfc4;stroke:#00bfc4;" x="471.550286" xlink:href="#maf3b410618" y="214.112104"/>
     <use style="fill:#00bfc4;stroke:#00bfc4;" x="467.082471" xlink:href="#maf3b410618" y="265.265353"/>
     <use style="fill:#00bfc4;stroke:#00bfc4;" x="494.903139" xlink:href="#maf3b410618" y="236.164959"/>
     <use style="fill:#00bfc4;stroke:#00bfc4;" x="327.048312" xlink:href="#maf3b410618" y="204.778281"/>
     <use style="fill:#00bfc4;stroke:#00bfc4;" x="191.034122" xlink:href="#maf3b410618" y="208.522633"/>
     <use style="fill:#00bfc4;stroke:#00bfc4;" x="511.166282" xlink:href="#maf3b410618" y="136.526028"/>
     <use style="fill:#00bfc4;stroke:#00bfc4;" x="411.463683" xlink:href="#maf3b410618" y="237.722823"/>
     <use style="fill:#00bfc4;stroke:#00bfc4;" x="271.146265" xlink:href="#maf3b410618" y="184.913586"/>
     <use style="fill:#00bfc4;stroke:#00bfc4;" x="514.681916" xlink:href="#maf3b410618" y="258.900334"/>
     <use style="fill:#00bfc4;stroke:#00bfc4;" x="544.672602" xlink:href="#maf3b410618" y="253.602433"/>
     <use style="fill:#00bfc4;stroke:#00bfc4;" x="218.113844" xlink:href="#maf3b410618" y="216.264936"/>
     <use style="fill:#00bfc4;stroke:#00bfc4;" x="556.451906" xlink:href="#maf3b410618" y="179.477078"/>
     <use style="fill:#00bfc4;stroke:#00bfc4;" x="489.118104" xlink:href="#maf3b410618" y="184.745817"/>
     <use style="fill:#00bfc4;stroke:#00bfc4;" x="497.585511" xlink:href="#maf3b410618" y="209.905662"/>
     <use style="fill:#00bfc4;stroke:#00bfc4;" x="494.220683" xlink:href="#maf3b410618" y="313.148806"/>
     <use style="fill:#00bfc4;stroke:#00bfc4;" x="385.609424" xlink:href="#maf3b410618" y="111.116147"/>
     <use style="fill:#00bfc4;stroke:#00bfc4;" x="411.732775" xlink:href="#maf3b410618" y="189.61139"/>
     <use style="fill:#00bfc4;stroke:#00bfc4;" x="344.565303" xlink:href="#maf3b410618" y="192.617345"/>
     <use style="fill:#00bfc4;stroke:#00bfc4;" x="507.786033" xlink:href="#maf3b410618" y="237.711208"/>
     <use style="fill:#00bfc4;stroke:#00bfc4;" x="299.372583" xlink:href="#maf3b410618" y="218.069768"/>
     <use style="fill:#00bfc4;stroke:#00bfc4;" x="388.345938" xlink:href="#maf3b410618" y="217.932943"/>
     <use style="fill:#00bfc4;stroke:#00bfc4;" x="446.10142" xlink:href="#maf3b410618" y="66.795586"/>
     <use style="fill:#00bfc4;stroke:#00bfc4;" x="301.967355" xlink:href="#maf3b410618" y="344.728287"/>
     <use style="fill:#00bfc4;stroke:#00bfc4;" x="553.142503" xlink:href="#maf3b410618" y="236.213626"/>
     <use style="fill:#00bfc4;stroke:#00bfc4;" x="290.439154" xlink:href="#maf3b410618" y="198.298326"/>
     <use style="fill:#00bfc4;stroke:#00bfc4;" x="403.079797" xlink:href="#maf3b410618" y="188.162947"/>
     <use style="fill:#00bfc4;stroke:#00bfc4;" x="116.31935" xlink:href="#maf3b410618" y="225.803357"/>
     <use style="fill:#00bfc4;stroke:#00bfc4;" x="173.071882" xlink:href="#maf3b410618" y="233.88399"/>
     <use style="fill:#00bfc4;stroke:#00bfc4;" x="559.541055" xlink:href="#maf3b410618" y="178.763778"/>
     <use style="fill:#00bfc4;stroke:#00bfc4;" x="115.453166" xlink:href="#maf3b410618" y="264.839297"/>
     <use style="fill:#00bfc4;stroke:#00bfc4;" x="157.327288" xlink:href="#maf3b410618" y="229.845248"/>
     <use style="fill:#00bfc4;stroke:#00bfc4;" x="458.594164" xlink:href="#maf3b410618" y="232.948491"/>
     <use style="fill:#00bfc4;stroke:#00bfc4;" x="233.978634" xlink:href="#maf3b410618" y="339.218402"/>
     <use style="fill:#00bfc4;stroke:#00bfc4;" x="318.641792" xlink:href="#maf3b410618" y="91.07226"/>
     <use style="fill:#00bfc4;stroke:#00bfc4;" x="489.598648" xlink:href="#maf3b410618" y="156.048049"/>
     <use style="fill:#00bfc4;stroke:#00bfc4;" x="335.841885" xlink:href="#maf3b410618" y="191.255409"/>
     <use style="fill:#00bfc4;stroke:#00bfc4;" x="582.607002" xlink:href="#maf3b410618" y="220.161251"/>
     <use style="fill:#00bfc4;stroke:#00bfc4;" x="154.248302" xlink:href="#maf3b410618" y="273.710595"/>
     <use style="fill:#00bfc4;stroke:#00bfc4;" x="284.355308" xlink:href="#maf3b410618" y="201.659467"/>
     <use style="fill:#00bfc4;stroke:#00bfc4;" x="199.009439" xlink:href="#maf3b410618" y="302.531962"/>
     <use style="fill:#00bfc4;stroke:#00bfc4;" x="541.379636" xlink:href="#maf3b410618" y="217.356612"/>
     <use style="fill:#00bfc4;stroke:#00bfc4;" x="330.915083" xlink:href="#maf3b410618" y="177.56152"/>
     <use style="fill:#00bfc4;stroke:#00bfc4;" x="390.996625" xlink:href="#maf3b410618" y="258.642581"/>
     <use style="fill:#00bfc4;stroke:#00bfc4;" x="435.564109" xlink:href="#maf3b410618" y="219.890817"/>
     <use style="fill:#00bfc4;stroke:#00bfc4;" x="457.336394" xlink:href="#maf3b410618" y="278.347462"/>
     <use style="fill:#00bfc4;stroke:#00bfc4;" x="429.033871" xlink:href="#maf3b410618" y="260.74814"/>
     <use style="fill:#00bfc4;stroke:#00bfc4;" x="438.065762" xlink:href="#maf3b410618" y="344.055822"/>
     <use style="fill:#00bfc4;stroke:#00bfc4;" x="354.635302" xlink:href="#maf3b410618" y="363.044414"/>
     <use style="fill:#00bfc4;stroke:#00bfc4;" x="527.942668" xlink:href="#maf3b410618" y="158.405429"/>
     <use style="fill:#00bfc4;stroke:#00bfc4;" x="364.318508" xlink:href="#maf3b410618" y="330.817375"/>
     <use style="fill:#00bfc4;stroke:#00bfc4;" x="181.347622" xlink:href="#maf3b410618" y="196.764447"/>
     <use style="fill:#00bfc4;stroke:#00bfc4;" x="216.881681" xlink:href="#maf3b410618" y="226.607272"/>
     <use style="fill:#00bfc4;stroke:#00bfc4;" x="403.347711" xlink:href="#maf3b410618" y="351.710661"/>
     <use style="fill:#00bfc4;stroke:#00bfc4;" x="169.734195" xlink:href="#maf3b410618" y="320.594424"/>
     <use style="fill:#00bfc4;stroke:#00bfc4;" x="450.774775" xlink:href="#maf3b410618" y="149.780119"/>
     <use style="fill:#00bfc4;stroke:#00bfc4;" x="216.657202" xlink:href="#maf3b410618" y="277.06123"/>
     <use style="fill:#00bfc4;stroke:#00bfc4;" x="192.538104" xlink:href="#maf3b410618" y="217.950138"/>
     <use style="fill:#00bfc4;stroke:#00bfc4;" x="303.892205" xlink:href="#maf3b410618" y="184.45454"/>
     <use style="fill:#00bfc4;stroke:#00bfc4;" x="196.900357" xlink:href="#maf3b410618" y="175.930592"/>
     <use style="fill:#00bfc4;stroke:#00bfc4;" x="530.660439" xlink:href="#maf3b410618" y="253.987242"/>
     <use style="fill:#00bfc4;stroke:#00bfc4;" x="456.466859" xlink:href="#maf3b410618" y="180.986121"/>
     <use style="fill:#00bfc4;stroke:#00bfc4;" x="197.873532" xlink:href="#maf3b410618" y="245.842579"/>
     <use style="fill:#00bfc4;stroke:#00bfc4;" x="373.191985" xlink:href="#maf3b410618" y="244.634526"/>
     <use style="fill:#00bfc4;stroke:#00bfc4;" x="365.483774" xlink:href="#maf3b410618" y="203.136032"/>
     <use style="fill:#00bfc4;stroke:#00bfc4;" x="494.174803" xlink:href="#maf3b410618" y="313.286038"/>
     <use style="fill:#00bfc4;stroke:#00bfc4;" x="590.979743" xlink:href="#maf3b410618" y="194.946706"/>
     <use style="fill:#00bfc4;stroke:#00bfc4;" x="433.144187" xlink:href="#maf3b410618" y="172.424496"/>
     <use style="fill:#00bfc4;stroke:#00bfc4;" x="519.363839" xlink:href="#maf3b410618" y="228.031509"/>
     <use style="fill:#00bfc4;stroke:#00bfc4;" x="358.070285" xlink:href="#maf3b410618" y="155.912864"/>
     <use style="fill:#00bfc4;stroke:#00bfc4;" x="148.223939" xlink:href="#maf3b410618" y="216.001322"/>
     <use style="fill:#00bfc4;stroke:#00bfc4;" x="367.971519" xlink:href="#maf3b410618" y="136.230279"/>
     <use style="fill:#00bfc4;stroke:#00bfc4;" x="588.94284" xlink:href="#maf3b410618" y="146.746152"/>
     <use style="fill:#00bfc4;stroke:#00bfc4;" x="195.128192" xlink:href="#maf3b410618" y="185.653623"/>
     <use style="fill:#00bfc4;stroke:#00bfc4;" x="449.41068" xlink:href="#maf3b410618" y="197.169883"/>
    </g>
   </g>
   <g id="PathCollection_2">
    <defs>
     <path d="M 0 3 
C 0.795609 3 1.55874 2.683901 2.12132 2.12132 
C 2.683901 1.55874 3 0.795609 3 0 
C 3 -0.795609 2.683901 -1.55874 2.12132 -2.12132 
C 1.55874 -2.683901 0.795609 -3 0 -3 
C -0.795609 -3 -1.55874 -2.683901 -2.12132 -2.12132 
C -2.683901 -1.55874 -3 -0.795609 -3 0 
C -3 0.795609 -2.683901 1.55874 -2.12132 2.12132 
C -1.55874 2.683901 -0.795609 3 0 3 
z
" id="mb8cf8e1da6" style="stroke:#f8766d;"/>
    </defs>
    <g clip-path="url(#pac29d628cc)">
     <use style="fill:#f8766d;stroke:#f8766d;" x="255.552953" xlink:href="#mb8cf8e1da6" y="97.156223"/>
     <use style="fill:#f8766d;stroke:#f8766d;" x="531.043934" xlink:href="#mb8cf8e1da6" y="220.731138"/>
     <use style="fill:#f8766d;stroke:#f8766d;" x="212.116494" xlink:href="#mb8cf8e1da6" y="132.947639"/>
     <use style="fill:#f8766d;stroke:#f8766d;" x="277.962267" xlink:href="#mb8cf8e1da6" y="330.718677"/>
     <use style="fill:#f8766d;stroke:#f8766d;" x="537.624277" xlink:href="#mb8cf8e1da6" y="117.706233"/>
     <use style="fill:#f8766d;stroke:#f8766d;" x="419.425851" xlink:href="#mb8cf8e1da6" y="294.533537"/>
     <use style="fill:#f8766d;stroke:#f8766d;" x="373.742369" xlink:href="#mb8cf8e1da6" y="200.736573"/>
     <use style="fill:#f8766d;stroke:#f8766d;" x="394.661879" xlink:href="#mb8cf8e1da6" y="252.002006"/>
     <use style="fill:#f8766d;stroke:#f8766d;" x="442.271119" xlink:href="#mb8cf8e1da6" y="143.542787"/>
     <use style="fill:#f8766d;stroke:#f8766d;" x="282.764552" xlink:href="#mb8cf8e1da6" y="92.918194"/>
     <use style="fill:#f8766d;stroke:#f8766d;" x="144.475346" xlink:href="#mb8cf8e1da6" y="317.337467"/>
     <use style="fill:#f8766d;stroke:#f8766d;" x="508.84803" xlink:href="#mb8cf8e1da6" y="266.300921"/>
     <use style="fill:#f8766d;stroke:#f8766d;" x="243.183557" xlink:href="#mb8cf8e1da6" y="283.460364"/>
     <use style="fill:#f8766d;stroke:#f8766d;" x="330.56747" xlink:href="#mb8cf8e1da6" y="303.56523"/>
     <use style="fill:#f8766d;stroke:#f8766d;" x="426.190306" xlink:href="#mb8cf8e1da6" y="150.497609"/>
     <use style="fill:#f8766d;stroke:#f8766d;" x="325.859433" xlink:href="#mb8cf8e1da6" y="231.743572"/>
     <use style="fill:#f8766d;stroke:#f8766d;" x="322.780162" xlink:href="#mb8cf8e1da6" y="79.945036"/>
     <use style="fill:#f8766d;stroke:#f8766d;" x="327.255812" xlink:href="#mb8cf8e1da6" y="279.36999"/>
     <use style="fill:#f8766d;stroke:#f8766d;" x="162.302708" xlink:href="#mb8cf8e1da6" y="289.55952"/>
     <use style="fill:#f8766d;stroke:#f8766d;" x="596.354634" xlink:href="#mb8cf8e1da6" y="190.244294"/>
     <use style="fill:#f8766d;stroke:#f8766d;" x="206.188005" xlink:href="#mb8cf8e1da6" y="294.940626"/>
     <use style="fill:#f8766d;stroke:#f8766d;" x="181.017868" xlink:href="#mb8cf8e1da6" y="270.475327"/>
     <use style="fill:#f8766d;stroke:#f8766d;" x="304.944118" xlink:href="#mb8cf8e1da6" y="317.360303"/>
     <use style="fill:#f8766d;stroke:#f8766d;" x="235.690396" xlink:href="#mb8cf8e1da6" y="257.84361"/>
     <use style="fill:#f8766d;stroke:#f8766d;" x="527.750587" xlink:href="#mb8cf8e1da6" y="112.144402"/>
     <use style="fill:#f8766d;stroke:#f8766d;" x="416.819652" xlink:href="#mb8cf8e1da6" y="193.333501"/>
     <use style="fill:#f8766d;stroke:#f8766d;" x="247.964625" xlink:href="#mb8cf8e1da6" y="271.814786"/>
     <use style="fill:#f8766d;stroke:#f8766d;" x="147.305126" xlink:href="#mb8cf8e1da6" y="195.604109"/>
     <use style="fill:#f8766d;stroke:#f8766d;" x="486.057668" xlink:href="#mb8cf8e1da6" y="268.785049"/>
     <use style="fill:#f8766d;stroke:#f8766d;" x="137.920302" xlink:href="#mb8cf8e1da6" y="254.417322"/>
     <use style="fill:#f8766d;stroke:#f8766d;" x="562.962197" xlink:href="#mb8cf8e1da6" y="123.388633"/>
     <use style="fill:#f8766d;stroke:#f8766d;" x="228.172961" xlink:href="#mb8cf8e1da6" y="307.32566"/>
     <use style="fill:#f8766d;stroke:#f8766d;" x="183.995786" xlink:href="#mb8cf8e1da6" y="265.634892"/>
     <use style="fill:#f8766d;stroke:#f8766d;" x="312.662373" xlink:href="#mb8cf8e1da6" y="293.419794"/>
     <use style="fill:#f8766d;stroke:#f8766d;" x="429.763097" xlink:href="#mb8cf8e1da6" y="284.606261"/>
     <use style="fill:#f8766d;stroke:#f8766d;" x="191.087164" xlink:href="#mb8cf8e1da6" y="277.097559"/>
     <use style="fill:#f8766d;stroke:#f8766d;" x="298.736475" xlink:href="#mb8cf8e1da6" y="203.992"/>
     <use style="fill:#f8766d;stroke:#f8766d;" x="167.629686" xlink:href="#mb8cf8e1da6" y="289.723481"/>
     <use style="fill:#f8766d;stroke:#f8766d;" x="486.0016" xlink:href="#mb8cf8e1da6" y="116.163955"/>
     <use style="fill:#f8766d;stroke:#f8766d;" x="427.544404" xlink:href="#mb8cf8e1da6" y="255.046109"/>
     <use style="fill:#f8766d;stroke:#f8766d;" x="309.345513" xlink:href="#mb8cf8e1da6" y="142.723166"/>
     <use style="fill:#f8766d;stroke:#f8766d;" x="387.484767" xlink:href="#mb8cf8e1da6" y="85.434291"/>
     <use style="fill:#f8766d;stroke:#f8766d;" x="343.293206" xlink:href="#mb8cf8e1da6" y="254.489173"/>
     <use style="fill:#f8766d;stroke:#f8766d;" x="360.996443" xlink:href="#mb8cf8e1da6" y="114.224329"/>
     <use style="fill:#f8766d;stroke:#f8766d;" x="603.135491" xlink:href="#mb8cf8e1da6" y="250.069137"/>
     <use style="fill:#f8766d;stroke:#f8766d;" x="157.721519" xlink:href="#mb8cf8e1da6" y="330.440692"/>
     <use style="fill:#f8766d;stroke:#f8766d;" x="370.431459" xlink:href="#mb8cf8e1da6" y="271.529164"/>
     <use style="fill:#f8766d;stroke:#f8766d;" x="387.358383" xlink:href="#mb8cf8e1da6" y="84.991603"/>
     <use style="fill:#f8766d;stroke:#f8766d;" x="376.027846" xlink:href="#mb8cf8e1da6" y="142.147003"/>
     <use style="fill:#f8766d;stroke:#f8766d;" x="186.645967" xlink:href="#mb8cf8e1da6" y="284.623889"/>
     <use style="fill:#f8766d;stroke:#f8766d;" x="314.524437" xlink:href="#mb8cf8e1da6" y="83.193487"/>
     <use style="fill:#f8766d;stroke:#f8766d;" x="338.243974" xlink:href="#mb8cf8e1da6" y="131.501312"/>
     <use style="fill:#f8766d;stroke:#f8766d;" x="352.520214" xlink:href="#mb8cf8e1da6" y="220.8437"/>
     <use style="fill:#f8766d;stroke:#f8766d;" x="156.835277" xlink:href="#mb8cf8e1da6" y="320.139167"/>
     <use style="fill:#f8766d;stroke:#f8766d;" x="307.291824" xlink:href="#mb8cf8e1da6" y="111.588546"/>
     <use style="fill:#f8766d;stroke:#f8766d;" x="197.623834" xlink:href="#mb8cf8e1da6" y="306.544168"/>
     <use style="fill:#f8766d;stroke:#f8766d;" x="425.403929" xlink:href="#mb8cf8e1da6" y="156.944193"/>
     <use style="fill:#f8766d;stroke:#f8766d;" x="336.698326" xlink:href="#mb8cf8e1da6" y="257.633785"/>
     <use style="fill:#f8766d;stroke:#f8766d;" x="437.236049" xlink:href="#mb8cf8e1da6" y="251.658204"/>
     <use style="fill:#f8766d;stroke:#f8766d;" x="280.114601" xlink:href="#mb8cf8e1da6" y="92.047065"/>
     <use style="fill:#f8766d;stroke:#f8766d;" x="438.045657" xlink:href="#mb8cf8e1da6" y="84.376629"/>
     <use style="fill:#f8766d;stroke:#f8766d;" x="395.534427" xlink:href="#mb8cf8e1da6" y="172.116278"/>
     <use style="fill:#f8766d;stroke:#f8766d;" x="255.102051" xlink:href="#mb8cf8e1da6" y="241.006782"/>
     <use style="fill:#f8766d;stroke:#f8766d;" x="586.928107" xlink:href="#mb8cf8e1da6" y="161.1334"/>
     <use style="fill:#f8766d;stroke:#f8766d;" x="303.132861" xlink:href="#mb8cf8e1da6" y="160.454883"/>
     <use style="fill:#f8766d;stroke:#f8766d;" x="289.055676" xlink:href="#mb8cf8e1da6" y="287.969053"/>
     <use style="fill:#f8766d;stroke:#f8766d;" x="424.900472" xlink:href="#mb8cf8e1da6" y="222.664574"/>
     <use style="fill:#f8766d;stroke:#f8766d;" x="434.093731" xlink:href="#mb8cf8e1da6" y="211.270221"/>
     <use style="fill:#f8766d;stroke:#f8766d;" x="404.263531" xlink:href="#mb8cf8e1da6" y="283.211354"/>
     <use style="fill:#f8766d;stroke:#f8766d;" x="153.712301" xlink:href="#mb8cf8e1da6" y="271.707932"/>
     <use style="fill:#f8766d;stroke:#f8766d;" x="392.77541" xlink:href="#mb8cf8e1da6" y="125.394149"/>
     <use style="fill:#f8766d;stroke:#f8766d;" x="318.043284" xlink:href="#mb8cf8e1da6" y="199.076974"/>
     <use style="fill:#f8766d;stroke:#f8766d;" x="316.76484" xlink:href="#mb8cf8e1da6" y="172.069779"/>
     <use style="fill:#f8766d;stroke:#f8766d;" x="212.07722" xlink:href="#mb8cf8e1da6" y="276.949094"/>
     <use style="fill:#f8766d;stroke:#f8766d;" x="588.480209" xlink:href="#mb8cf8e1da6" y="150.770069"/>
     <use style="fill:#f8766d;stroke:#f8766d;" x="373.499802" xlink:href="#mb8cf8e1da6" y="220.228564"/>
     <use style="fill:#f8766d;stroke:#f8766d;" x="257.127011" xlink:href="#mb8cf8e1da6" y="232.210752"/>
     <use style="fill:#f8766d;stroke:#f8766d;" x="142.34754" xlink:href="#mb8cf8e1da6" y="188.766101"/>
     <use style="fill:#f8766d;stroke:#f8766d;" x="329.909326" xlink:href="#mb8cf8e1da6" y="277.100885"/>
     <use style="fill:#f8766d;stroke:#f8766d;" x="373.028033" xlink:href="#mb8cf8e1da6" y="169.391228"/>
     <use style="fill:#f8766d;stroke:#f8766d;" x="300.697284" xlink:href="#mb8cf8e1da6" y="342.292853"/>
     <use style="fill:#f8766d;stroke:#f8766d;" x="230.095425" xlink:href="#mb8cf8e1da6" y="100.997486"/>
     <use style="fill:#f8766d;stroke:#f8766d;" x="328.10189" xlink:href="#mb8cf8e1da6" y="152.779208"/>
     <use style="fill:#f8766d;stroke:#f8766d;" x="365.585747" xlink:href="#mb8cf8e1da6" y="148.778302"/>
     <use style="fill:#f8766d;stroke:#f8766d;" x="293.626273" xlink:href="#mb8cf8e1da6" y="254.685913"/>
     <use style="fill:#f8766d;stroke:#f8766d;" x="352.973822" xlink:href="#mb8cf8e1da6" y="183.715135"/>
     <use style="fill:#f8766d;stroke:#f8766d;" x="274.793125" xlink:href="#mb8cf8e1da6" y="74.261881"/>
     <use style="fill:#f8766d;stroke:#f8766d;" x="619.769376" xlink:href="#mb8cf8e1da6" y="177.386931"/>
     <use style="fill:#f8766d;stroke:#f8766d;" x="120.932904" xlink:href="#mb8cf8e1da6" y="278.878236"/>
     <use style="fill:#f8766d;stroke:#f8766d;" x="178.244307" xlink:href="#mb8cf8e1da6" y="216.444517"/>
     <use style="fill:#f8766d;stroke:#f8766d;" x="513.644836" xlink:href="#mb8cf8e1da6" y="177.951136"/>
     <use style="fill:#f8766d;stroke:#f8766d;" x="223.46069" xlink:href="#mb8cf8e1da6" y="254.663438"/>
     <use style="fill:#f8766d;stroke:#f8766d;" x="549.252425" xlink:href="#mb8cf8e1da6" y="215.629226"/>
     <use style="fill:#f8766d;stroke:#f8766d;" x="222.124871" xlink:href="#mb8cf8e1da6" y="246.927071"/>
     <use style="fill:#f8766d;stroke:#f8766d;" x="137.42359" xlink:href="#mb8cf8e1da6" y="256.087766"/>
     <use style="fill:#f8766d;stroke:#f8766d;" x="331.877093" xlink:href="#mb8cf8e1da6" y="71.911976"/>
     <use style="fill:#f8766d;stroke:#f8766d;" x="513.070848" xlink:href="#mb8cf8e1da6" y="280.077812"/>
    </g>
   </g>
   <g id="matplotlib.axis_1">
    <g id="xtick_1">
     <g id="line2d_1">
      <defs>
       <path d="M 0 0 
L 0 3.5 
" id="meab4787a6d" style="stroke:#000000;stroke-width:0.8;"/>
      </defs>
      <g>
       <use style="stroke:#000000;stroke-width:0.8;" x="109.315619" xlink:href="#meab4787a6d" y="378"/>
      </g>
     </g>
     <g id="text_1">
      <!-- −15 -->
      <defs>
       <path d="M 10.59375 35.5 
L 73.1875 35.5 
L 73.1875 27.203125 
L 10.59375 27.203125 
z
" id="DejaVuSans-8722"/>
       <path d="M 12.40625 8.296875 
L 28.515625 8.296875 
L 28.515625 63.921875 
L 10.984375 60.40625 
L 10.984375 69.390625 
L 28.421875 72.90625 
L 38.28125 72.90625 
L 38.28125 8.296875 
L 54.390625 8.296875 
L 54.390625 0 
L 12.40625 0 
z
" id="DejaVuSans-49"/>
       <path d="M 10.796875 72.90625 
L 49.515625 72.90625 
L 49.515625 64.59375 
L 19.828125 64.59375 
L 19.828125 46.734375 
Q 21.96875 47.46875 24.109375 47.828125 
Q 26.265625 48.1875 28.421875 48.1875 
Q 40.625 48.1875 47.75 41.5 
Q 54.890625 34.8125 54.890625 23.390625 
Q 54.890625 11.625 47.5625 5.09375 
Q 40.234375 -1.421875 26.90625 -1.421875 
Q 22.3125 -1.421875 17.546875 -0.640625 
Q 12.796875 0.140625 7.71875 1.703125 
L 7.71875 11.625 
Q 12.109375 9.234375 16.796875 8.0625 
Q 21.484375 6.890625 26.703125 6.890625 
Q 35.15625 6.890625 40.078125 11.328125 
Q 45.015625 15.765625 45.015625 23.390625 
Q 45.015625 31 40.078125 35.4375 
Q 35.15625 39.890625 26.703125 39.890625 
Q 22.75 39.890625 18.8125 39.015625 
Q 14.890625 38.140625 10.796875 36.28125 
z
" id="DejaVuSans-53"/>
      </defs>
      <g transform="translate(98.763275 392.598437)scale(0.1 -0.1)">
       <use xlink:href="#DejaVuSans-8722"/>
       <use x="83.789062" xlink:href="#DejaVuSans-49"/>
       <use x="147.412109" xlink:href="#DejaVuSans-53"/>
      </g>
     </g>
    </g>
    <g id="xtick_2">
     <g id="line2d_2">
      <g>
       <use style="stroke:#000000;stroke-width:0.8;" x="192.578029" xlink:href="#meab4787a6d" y="378"/>
      </g>
     </g>
     <g id="text_2">
      <!-- −10 -->
      <defs>
       <path d="M 31.78125 66.40625 
Q 24.171875 66.40625 20.328125 58.90625 
Q 16.5 51.421875 16.5 36.375 
Q 16.5 21.390625 20.328125 13.890625 
Q 24.171875 6.390625 31.78125 6.390625 
Q 39.453125 6.390625 43.28125 13.890625 
Q 47.125 21.390625 47.125 36.375 
Q 47.125 51.421875 43.28125 58.90625 
Q 39.453125 66.40625 31.78125 66.40625 
z
M 31.78125 74.21875 
Q 44.046875 74.21875 50.515625 64.515625 
Q 56.984375 54.828125 56.984375 36.375 
Q 56.984375 17.96875 50.515625 8.265625 
Q 44.046875 -1.421875 31.78125 -1.421875 
Q 19.53125 -1.421875 13.0625 8.265625 
Q 6.59375 17.96875 6.59375 36.375 
Q 6.59375 54.828125 13.0625 64.515625 
Q 19.53125 74.21875 31.78125 74.21875 
z
" id="DejaVuSans-48"/>
      </defs>
      <g transform="translate(182.025686 392.598437)scale(0.1 -0.1)">
       <use xlink:href="#DejaVuSans-8722"/>
       <use x="83.789062" xlink:href="#DejaVuSans-49"/>
       <use x="147.412109" xlink:href="#DejaVuSans-48"/>
      </g>
     </g>
    </g>
    <g id="xtick_3">
     <g id="line2d_3">
      <g>
       <use style="stroke:#000000;stroke-width:0.8;" x="275.84044" xlink:href="#meab4787a6d" y="378"/>
      </g>
     </g>
     <g id="text_3">
      <!-- −5 -->
      <g transform="translate(268.469346 392.598437)scale(0.1 -0.1)">
       <use xlink:href="#DejaVuSans-8722"/>
       <use x="83.789062" xlink:href="#DejaVuSans-53"/>
      </g>
     </g>
    </g>
    <g id="xtick_4">
     <g id="line2d_4">
      <g>
       <use style="stroke:#000000;stroke-width:0.8;" x="359.102851" xlink:href="#meab4787a6d" y="378"/>
      </g>
     </g>
     <g id="text_4">
      <!-- 0 -->
      <g transform="translate(355.921601 392.598437)scale(0.1 -0.1)">
       <use xlink:href="#DejaVuSans-48"/>
      </g>
     </g>
    </g>
    <g id="xtick_5">
     <g id="line2d_5">
      <g>
       <use style="stroke:#000000;stroke-width:0.8;" x="442.365261" xlink:href="#meab4787a6d" y="378"/>
      </g>
     </g>
     <g id="text_5">
      <!-- 5 -->
      <g transform="translate(439.184011 392.598437)scale(0.1 -0.1)">
       <use xlink:href="#DejaVuSans-53"/>
      </g>
     </g>
    </g>
    <g id="xtick_6">
     <g id="line2d_6">
      <g>
       <use style="stroke:#000000;stroke-width:0.8;" x="525.627672" xlink:href="#meab4787a6d" y="378"/>
      </g>
     </g>
     <g id="text_6">
      <!-- 10 -->
      <g transform="translate(519.265172 392.598437)scale(0.1 -0.1)">
       <use xlink:href="#DejaVuSans-49"/>
       <use x="63.623047" xlink:href="#DejaVuSans-48"/>
      </g>
     </g>
    </g>
    <g id="xtick_7">
     <g id="line2d_7">
      <g>
       <use style="stroke:#000000;stroke-width:0.8;" x="608.890083" xlink:href="#meab4787a6d" y="378"/>
      </g>
     </g>
     <g id="text_7">
      <!-- 15 -->
      <g transform="translate(602.527583 392.598437)scale(0.1 -0.1)">
       <use xlink:href="#DejaVuSans-49"/>
       <use x="63.623047" xlink:href="#DejaVuSans-53"/>
      </g>
     </g>
    </g>
    <g id="text_8">
     <!-- tSNE-1 -->
     <defs>
      <path d="M 18.3125 70.21875 
L 18.3125 54.6875 
L 36.8125 54.6875 
L 36.8125 47.703125 
L 18.3125 47.703125 
L 18.3125 18.015625 
Q 18.3125 11.328125 20.140625 9.421875 
Q 21.96875 7.515625 27.59375 7.515625 
L 36.8125 7.515625 
L 36.8125 0 
L 27.59375 0 
Q 17.1875 0 13.234375 3.875 
Q 9.28125 7.765625 9.28125 18.015625 
L 9.28125 47.703125 
L 2.6875 47.703125 
L 2.6875 54.6875 
L 9.28125 54.6875 
L 9.28125 70.21875 
z
" id="DejaVuSans-116"/>
      <path d="M 53.515625 70.515625 
L 53.515625 60.890625 
Q 47.90625 63.578125 42.921875 64.890625 
Q 37.9375 66.21875 33.296875 66.21875 
Q 25.25 66.21875 20.875 63.09375 
Q 16.5 59.96875 16.5 54.203125 
Q 16.5 49.359375 19.40625 46.890625 
Q 22.3125 44.4375 30.421875 42.921875 
L 36.375 41.703125 
Q 47.40625 39.59375 52.65625 34.296875 
Q 57.90625 29 57.90625 20.125 
Q 57.90625 9.515625 50.796875 4.046875 
Q 43.703125 -1.421875 29.984375 -1.421875 
Q 24.8125 -1.421875 18.96875 -0.25 
Q 13.140625 0.921875 6.890625 3.21875 
L 6.890625 13.375 
Q 12.890625 10.015625 18.65625 8.296875 
Q 24.421875 6.59375 29.984375 6.59375 
Q 38.421875 6.59375 43.015625 9.90625 
Q 47.609375 13.234375 47.609375 19.390625 
Q 47.609375 24.75 44.3125 27.78125 
Q 41.015625 30.8125 33.5 32.328125 
L 27.484375 33.5 
Q 16.453125 35.6875 11.515625 40.375 
Q 6.59375 45.0625 6.59375 53.421875 
Q 6.59375 63.09375 13.40625 68.65625 
Q 20.21875 74.21875 32.171875 74.21875 
Q 37.3125 74.21875 42.625 73.28125 
Q 47.953125 72.359375 53.515625 70.515625 
z
" id="DejaVuSans-83"/>
      <path d="M 9.8125 72.90625 
L 23.09375 72.90625 
L 55.421875 11.921875 
L 55.421875 72.90625 
L 64.984375 72.90625 
L 64.984375 0 
L 51.703125 0 
L 19.390625 60.984375 
L 19.390625 0 
L 9.8125 0 
z
" id="DejaVuSans-78"/>
      <path d="M 9.8125 72.90625 
L 55.90625 72.90625 
L 55.90625 64.59375 
L 19.671875 64.59375 
L 19.671875 43.015625 
L 54.390625 43.015625 
L 54.390625 34.71875 
L 19.671875 34.71875 
L 19.671875 8.296875 
L 56.78125 8.296875 
L 56.78125 0 
L 9.8125 0 
z
" id="DejaVuSans-69"/>
      <path d="M 4.890625 31.390625 
L 31.203125 31.390625 
L 31.203125 23.390625 
L 4.890625 23.390625 
z
" id="DejaVuSans-45"/>
     </defs>
     <g transform="translate(351.980469 406.276563)scale(0.1 -0.1)">
      <use xlink:href="#DejaVuSans-116"/>
      <use x="39.208984" xlink:href="#DejaVuSans-83"/>
      <use x="102.685547" xlink:href="#DejaVuSans-78"/>
      <use x="177.490234" xlink:href="#DejaVuSans-69"/>
      <use x="240.673828" xlink:href="#DejaVuSans-45"/>
      <use x="276.757812" xlink:href="#DejaVuSans-49"/>
     </g>
    </g>
   </g>
   <g id="matplotlib.axis_2">
    <g id="ytick_1">
     <g id="line2d_8">
      <defs>
       <path d="M 0 0 
L -3.5 0 
" id="mc46fb36032" style="stroke:#000000;stroke-width:0.8;"/>
      </defs>
      <g>
       <use style="stroke:#000000;stroke-width:0.8;" x="90" xlink:href="#mc46fb36032" y="353.567496"/>
      </g>
     </g>
     <g id="text_9">
      <!-- −10 -->
      <g transform="translate(61.895313 357.366715)scale(0.1 -0.1)">
       <use xlink:href="#DejaVuSans-8722"/>
       <use x="83.789062" xlink:href="#DejaVuSans-49"/>
       <use x="147.412109" xlink:href="#DejaVuSans-48"/>
      </g>
     </g>
    </g>
    <g id="ytick_2">
     <g id="line2d_9">
      <g>
       <use style="stroke:#000000;stroke-width:0.8;" x="90" xlink:href="#mc46fb36032" y="282.828026"/>
      </g>
     </g>
     <g id="text_10">
      <!-- −5 -->
      <g transform="translate(68.257812 286.627244)scale(0.1 -0.1)">
       <use xlink:href="#DejaVuSans-8722"/>
       <use x="83.789062" xlink:href="#DejaVuSans-53"/>
      </g>
     </g>
    </g>
    <g id="ytick_3">
     <g id="line2d_10">
      <g>
       <use style="stroke:#000000;stroke-width:0.8;" x="90" xlink:href="#mc46fb36032" y="212.088555"/>
      </g>
     </g>
     <g id="text_11">
      <!-- 0 -->
      <g transform="translate(76.6375 215.887774)scale(0.1 -0.1)">
       <use xlink:href="#DejaVuSans-48"/>
      </g>
     </g>
    </g>
    <g id="ytick_4">
     <g id="line2d_11">
      <g>
       <use style="stroke:#000000;stroke-width:0.8;" x="90" xlink:href="#mc46fb36032" y="141.349085"/>
      </g>
     </g>
     <g id="text_12">
      <!-- 5 -->
      <g transform="translate(76.6375 145.148303)scale(0.1 -0.1)">
       <use xlink:href="#DejaVuSans-53"/>
      </g>
     </g>
    </g>
    <g id="ytick_5">
     <g id="line2d_12">
      <g>
       <use style="stroke:#000000;stroke-width:0.8;" x="90" xlink:href="#mc46fb36032" y="70.609614"/>
      </g>
     </g>
     <g id="text_13">
      <!-- 10 -->
      <g transform="translate(70.275 74.408833)scale(0.1 -0.1)">
       <use xlink:href="#DejaVuSans-49"/>
       <use x="63.623047" xlink:href="#DejaVuSans-48"/>
      </g>
     </g>
    </g>
    <g id="text_14">
     <!-- tSNE-2 -->
     <defs>
      <path d="M 19.1875 8.296875 
L 53.609375 8.296875 
L 53.609375 0 
L 7.328125 0 
L 7.328125 8.296875 
Q 12.9375 14.109375 22.625 23.890625 
Q 32.328125 33.6875 34.8125 36.53125 
Q 39.546875 41.84375 41.421875 45.53125 
Q 43.3125 49.21875 43.3125 52.78125 
Q 43.3125 58.59375 39.234375 62.25 
Q 35.15625 65.921875 28.609375 65.921875 
Q 23.96875 65.921875 18.8125 64.3125 
Q 13.671875 62.703125 7.8125 59.421875 
L 7.8125 69.390625 
Q 13.765625 71.78125 18.9375 73 
Q 24.125 74.21875 28.421875 74.21875 
Q 39.75 74.21875 46.484375 68.546875 
Q 53.21875 62.890625 53.21875 53.421875 
Q 53.21875 48.921875 51.53125 44.890625 
Q 49.859375 40.875 45.40625 35.40625 
Q 44.1875 33.984375 37.640625 27.21875 
Q 31.109375 20.453125 19.1875 8.296875 
z
" id="DejaVuSans-50"/>
     </defs>
     <g transform="translate(55.815625 231.939531)rotate(-90)scale(0.1 -0.1)">
      <use xlink:href="#DejaVuSans-116"/>
      <use x="39.208984" xlink:href="#DejaVuSans-83"/>
      <use x="102.685547" xlink:href="#DejaVuSans-78"/>
      <use x="177.490234" xlink:href="#DejaVuSans-69"/>
      <use x="240.673828" xlink:href="#DejaVuSans-45"/>
      <use x="276.757812" xlink:href="#DejaVuSans-50"/>
     </g>
    </g>
   </g>
   <g id="patch_3">
    <path d="M 90 378 
L 90 51.84 
" style="fill:none;stroke:#000000;stroke-linecap:square;stroke-linejoin:miter;stroke-width:0.8;"/>
   </g>
   <g id="patch_4">
    <path d="M 648 378 
L 648 51.84 
" style="fill:none;stroke:#000000;stroke-linecap:square;stroke-linejoin:miter;stroke-width:0.8;"/>
   </g>
   <g id="patch_5">
    <path d="M 90 378 
L 648 378 
" style="fill:none;stroke:#000000;stroke-linecap:square;stroke-linejoin:miter;stroke-width:0.8;"/>
   </g>
   <g id="patch_6">
    <path d="M 90 51.84 
L 648 51.84 
" style="fill:none;stroke:#000000;stroke-linecap:square;stroke-linejoin:miter;stroke-width:0.8;"/>
   </g>
   <g id="legend_1">
    <g id="patch_7">
     <path d="M 563.125 89.19625 
L 641 89.19625 
Q 643 89.19625 643 87.19625 
L 643 58.84 
Q 643 56.84 641 56.84 
L 563.125 56.84 
Q 561.125 56.84 561.125 58.84 
L 561.125 87.19625 
Q 561.125 89.19625 563.125 89.19625 
z
" style="fill:#ffffff;opacity:0.8;stroke:#cccccc;stroke-linejoin:miter;"/>
    </g>
    <g id="PathCollection_3">
     <g>
      <use style="fill:#00bfc4;stroke:#00bfc4;" x="575.125" xlink:href="#maf3b410618" y="65.813437"/>
     </g>
    </g>
    <g id="text_15">
     <!-- D006262 -->
     <defs>
      <path d="M 19.671875 64.796875 
L 19.671875 8.109375 
L 31.59375 8.109375 
Q 46.6875 8.109375 53.6875 14.9375 
Q 60.6875 21.78125 60.6875 36.53125 
Q 60.6875 51.171875 53.6875 57.984375 
Q 46.6875 64.796875 31.59375 64.796875 
z
M 9.8125 72.90625 
L 30.078125 72.90625 
Q 51.265625 72.90625 61.171875 64.09375 
Q 71.09375 55.28125 71.09375 36.53125 
Q 71.09375 17.671875 61.125 8.828125 
Q 51.171875 0 30.078125 0 
L 9.8125 0 
z
" id="DejaVuSans-68"/>
      <path d="M 33.015625 40.375 
Q 26.375 40.375 22.484375 35.828125 
Q 18.609375 31.296875 18.609375 23.390625 
Q 18.609375 15.53125 22.484375 10.953125 
Q 26.375 6.390625 33.015625 6.390625 
Q 39.65625 6.390625 43.53125 10.953125 
Q 47.40625 15.53125 47.40625 23.390625 
Q 47.40625 31.296875 43.53125 35.828125 
Q 39.65625 40.375 33.015625 40.375 
z
M 52.59375 71.296875 
L 52.59375 62.3125 
Q 48.875 64.0625 45.09375 64.984375 
Q 41.3125 65.921875 37.59375 65.921875 
Q 27.828125 65.921875 22.671875 59.328125 
Q 17.53125 52.734375 16.796875 39.40625 
Q 19.671875 43.65625 24.015625 45.921875 
Q 28.375 48.1875 33.59375 48.1875 
Q 44.578125 48.1875 50.953125 41.515625 
Q 57.328125 34.859375 57.328125 23.390625 
Q 57.328125 12.15625 50.6875 5.359375 
Q 44.046875 -1.421875 33.015625 -1.421875 
Q 20.359375 -1.421875 13.671875 8.265625 
Q 6.984375 17.96875 6.984375 36.375 
Q 6.984375 53.65625 15.1875 63.9375 
Q 23.390625 74.21875 37.203125 74.21875 
Q 40.921875 74.21875 44.703125 73.484375 
Q 48.484375 72.75 52.59375 71.296875 
z
" id="DejaVuSans-54"/>
     </defs>
     <g transform="translate(593.125 68.438437)scale(0.1 -0.1)">
      <use xlink:href="#DejaVuSans-68"/>
      <use x="77.001953" xlink:href="#DejaVuSans-48"/>
      <use x="140.625" xlink:href="#DejaVuSans-48"/>
      <use x="204.248047" xlink:href="#DejaVuSans-54"/>
      <use x="267.871094" xlink:href="#DejaVuSans-50"/>
      <use x="331.494141" xlink:href="#DejaVuSans-54"/>
      <use x="395.117188" xlink:href="#DejaVuSans-50"/>
     </g>
    </g>
    <g id="PathCollection_4">
     <g>
      <use style="fill:#f8766d;stroke:#f8766d;" x="575.125" xlink:href="#mb8cf8e1da6" y="80.491562"/>
     </g>
    </g>
    <g id="text_16">
     <!-- D013167 -->
     <defs>
      <path d="M 40.578125 39.3125 
Q 47.65625 37.796875 51.625 33 
Q 55.609375 28.21875 55.609375 21.1875 
Q 55.609375 10.40625 48.1875 4.484375 
Q 40.765625 -1.421875 27.09375 -1.421875 
Q 22.515625 -1.421875 17.65625 -0.515625 
Q 12.796875 0.390625 7.625 2.203125 
L 7.625 11.71875 
Q 11.71875 9.328125 16.59375 8.109375 
Q 21.484375 6.890625 26.8125 6.890625 
Q 36.078125 6.890625 40.9375 10.546875 
Q 45.796875 14.203125 45.796875 21.1875 
Q 45.796875 27.640625 41.28125 31.265625 
Q 36.765625 34.90625 28.71875 34.90625 
L 20.21875 34.90625 
L 20.21875 43.015625 
L 29.109375 43.015625 
Q 36.375 43.015625 40.234375 45.921875 
Q 44.09375 48.828125 44.09375 54.296875 
Q 44.09375 59.90625 40.109375 62.90625 
Q 36.140625 65.921875 28.71875 65.921875 
Q 24.65625 65.921875 20.015625 65.03125 
Q 15.375 64.15625 9.8125 62.3125 
L 9.8125 71.09375 
Q 15.4375 72.65625 20.34375 73.4375 
Q 25.25 74.21875 29.59375 74.21875 
Q 40.828125 74.21875 47.359375 69.109375 
Q 53.90625 64.015625 53.90625 55.328125 
Q 53.90625 49.265625 50.4375 45.09375 
Q 46.96875 40.921875 40.578125 39.3125 
z
" id="DejaVuSans-51"/>
      <path d="M 8.203125 72.90625 
L 55.078125 72.90625 
L 55.078125 68.703125 
L 28.609375 0 
L 18.3125 0 
L 43.21875 64.59375 
L 8.203125 64.59375 
z
" id="DejaVuSans-55"/>
     </defs>
     <g transform="translate(593.125 83.116562)scale(0.1 -0.1)">
      <use xlink:href="#DejaVuSans-68"/>
      <use x="77.001953" xlink:href="#DejaVuSans-48"/>
      <use x="140.625" xlink:href="#DejaVuSans-49"/>
      <use x="204.248047" xlink:href="#DejaVuSans-51"/>
      <use x="267.871094" xlink:href="#DejaVuSans-49"/>
      <use x="331.494141" xlink:href="#DejaVuSans-54"/>
      <use x="395.117188" xlink:href="#DejaVuSans-55"/>
     </g>
    </g>
   </g>
  </g>
 </g>
 <defs>
  <clipPath id="pac29d628cc">
   <rect height="326.16" width="558" x="90" y="51.84"/>
  </clipPath>
 </defs>
</svg>
