<?xml version="1.0" encoding="utf-8" standalone="no"?>
<!DOCTYPE svg PUBLIC "-//W3C//DTD SVG 1.1//EN"
  "http://www.w3.org/Graphics/SVG/1.1/DTD/svg11.dtd">
<!-- Created with matplotlib (https://matplotlib.org/) -->
<svg height="576pt" version="1.1" viewBox="0 0 576 576" width="576pt" xmlns="http://www.w3.org/2000/svg" xmlns:xlink="http://www.w3.org/1999/xlink">
 <defs>
  <style type="text/css">
*{stroke-linecap:butt;stroke-linejoin:round;}
  </style>
 </defs>
 <g id="figure_1">
  <g id="patch_1">
   <path d="M 0 576 
L 576 576 
L 576 0 
L 0 0 
z
" style="fill:#ffffff;"/>
  </g>
  <g id="axes_1">
   <g id="patch_2">
    <path d="M 72 512.64 
L 518.4 512.64 
L 518.4 69.12 
L 72 69.12 
z
" style="fill:#ffffff;"/>
   </g>
   <g id="matplotlib.axis_1">
    <g id="xtick_1">
     <g id="line2d_1">
      <path clip-path="url(#p1fca6df06d)" d="M 72 512.64 
L 72 69.12 
" style="fill:none;stroke:#b0b0b0;stroke-linecap:square;stroke-width:0.8;"/>
     </g>
     <g id="line2d_2">
      <defs>
       <path d="M 0 0 
L 0 3.5 
" id="m055d55f2bb" style="stroke:#000000;stroke-width:0.8;"/>
      </defs>
      <g>
       <use style="stroke:#000000;stroke-width:0.8;" x="72" xlink:href="#m055d55f2bb" y="512.64"/>
      </g>
     </g>
     <g id="text_1">
      <!-- 0.0 -->
      <defs>
       <path d="M 31.78125 66.40625 
Q 24.171875 66.40625 20.328125 58.90625 
Q 16.5 51.421875 16.5 36.375 
Q 16.5 21.390625 20.328125 13.890625 
Q 24.171875 6.390625 31.78125 6.390625 
Q 39.453125 6.390625 43.28125 13.890625 
Q 47.125 21.390625 47.125 36.375 
Q 47.125 51.421875 43.28125 58.90625 
Q 39.453125 66.40625 31.78125 66.40625 
z
M 31.78125 74.21875 
Q 44.046875 74.21875 50.515625 64.515625 
Q 56.984375 54.828125 56.984375 36.375 
Q 56.984375 17.96875 50.515625 8.265625 
Q 44.046875 -1.421875 31.78125 -1.421875 
Q 19.53125 -1.421875 13.0625 8.265625 
Q 6.59375 17.96875 6.59375 36.375 
Q 6.59375 54.828125 13.0625 64.515625 
Q 19.53125 74.21875 31.78125 74.21875 
z
" id="DejaVuSans-48"/>
       <path d="M 10.6875 12.40625 
L 21 12.40625 
L 21 0 
L 10.6875 0 
z
" id="DejaVuSans-46"/>
      </defs>
      <g transform="translate(64.048438 527.238438)scale(0.1 -0.1)">
       <use xlink:href="#DejaVuSans-48"/>
       <use x="63.623047" xlink:href="#DejaVuSans-46"/>
       <use x="95.410156" xlink:href="#DejaVuSans-48"/>
      </g>
     </g>
    </g>
    <g id="xtick_2">
     <g id="line2d_3">
      <path clip-path="url(#p1fca6df06d)" d="M 161.28 512.64 
L 161.28 69.12 
" style="fill:none;stroke:#b0b0b0;stroke-linecap:square;stroke-width:0.8;"/>
     </g>
     <g id="line2d_4">
      <g>
       <use style="stroke:#000000;stroke-width:0.8;" x="161.28" xlink:href="#m055d55f2bb" y="512.64"/>
      </g>
     </g>
     <g id="text_2">
      <!-- 0.2 -->
      <defs>
       <path d="M 19.1875 8.296875 
L 53.609375 8.296875 
L 53.609375 0 
L 7.328125 0 
L 7.328125 8.296875 
Q 12.9375 14.109375 22.625 23.890625 
Q 32.328125 33.6875 34.8125 36.53125 
Q 39.546875 41.84375 41.421875 45.53125 
Q 43.3125 49.21875 43.3125 52.78125 
Q 43.3125 58.59375 39.234375 62.25 
Q 35.15625 65.921875 28.609375 65.921875 
Q 23.96875 65.921875 18.8125 64.3125 
Q 13.671875 62.703125 7.8125 59.421875 
L 7.8125 69.390625 
Q 13.765625 71.78125 18.9375 73 
Q 24.125 74.21875 28.421875 74.21875 
Q 39.75 74.21875 46.484375 68.546875 
Q 53.21875 62.890625 53.21875 53.421875 
Q 53.21875 48.921875 51.53125 44.890625 
Q 49.859375 40.875 45.40625 35.40625 
Q 44.1875 33.984375 37.640625 27.21875 
Q 31.109375 20.453125 19.1875 8.296875 
z
" id="DejaVuSans-50"/>
      </defs>
      <g transform="translate(153.328438 527.238438)scale(0.1 -0.1)">
       <use xlink:href="#DejaVuSans-48"/>
       <use x="63.623047" xlink:href="#DejaVuSans-46"/>
       <use x="95.410156" xlink:href="#DejaVuSans-50"/>
      </g>
     </g>
    </g>
    <g id="xtick_3">
     <g id="line2d_5">
      <path clip-path="url(#p1fca6df06d)" d="M 250.56 512.64 
L 250.56 69.12 
" style="fill:none;stroke:#b0b0b0;stroke-linecap:square;stroke-width:0.8;"/>
     </g>
     <g id="line2d_6">
      <g>
       <use style="stroke:#000000;stroke-width:0.8;" x="250.56" xlink:href="#m055d55f2bb" y="512.64"/>
      </g>
     </g>
     <g id="text_3">
      <!-- 0.4 -->
      <defs>
       <path d="M 37.796875 64.3125 
L 12.890625 25.390625 
L 37.796875 25.390625 
z
M 35.203125 72.90625 
L 47.609375 72.90625 
L 47.609375 25.390625 
L 58.015625 25.390625 
L 58.015625 17.1875 
L 47.609375 17.1875 
L 47.609375 0 
L 37.796875 0 
L 37.796875 17.1875 
L 4.890625 17.1875 
L 4.890625 26.703125 
z
" id="DejaVuSans-52"/>
      </defs>
      <g transform="translate(242.608438 527.238438)scale(0.1 -0.1)">
       <use xlink:href="#DejaVuSans-48"/>
       <use x="63.623047" xlink:href="#DejaVuSans-46"/>
       <use x="95.410156" xlink:href="#DejaVuSans-52"/>
      </g>
     </g>
    </g>
    <g id="xtick_4">
     <g id="line2d_7">
      <path clip-path="url(#p1fca6df06d)" d="M 339.84 512.64 
L 339.84 69.12 
" style="fill:none;stroke:#b0b0b0;stroke-linecap:square;stroke-width:0.8;"/>
     </g>
     <g id="line2d_8">
      <g>
       <use style="stroke:#000000;stroke-width:0.8;" x="339.84" xlink:href="#m055d55f2bb" y="512.64"/>
      </g>
     </g>
     <g id="text_4">
      <!-- 0.6 -->
      <defs>
       <path d="M 33.015625 40.375 
Q 26.375 40.375 22.484375 35.828125 
Q 18.609375 31.296875 18.609375 23.390625 
Q 18.609375 15.53125 22.484375 10.953125 
Q 26.375 6.390625 33.015625 6.390625 
Q 39.65625 6.390625 43.53125 10.953125 
Q 47.40625 15.53125 47.40625 23.390625 
Q 47.40625 31.296875 43.53125 35.828125 
Q 39.65625 40.375 33.015625 40.375 
z
M 52.59375 71.296875 
L 52.59375 62.3125 
Q 48.875 64.0625 45.09375 64.984375 
Q 41.3125 65.921875 37.59375 65.921875 
Q 27.828125 65.921875 22.671875 59.328125 
Q 17.53125 52.734375 16.796875 39.40625 
Q 19.671875 43.65625 24.015625 45.921875 
Q 28.375 48.1875 33.59375 48.1875 
Q 44.578125 48.1875 50.953125 41.515625 
Q 57.328125 34.859375 57.328125 23.390625 
Q 57.328125 12.15625 50.6875 5.359375 
Q 44.046875 -1.421875 33.015625 -1.421875 
Q 20.359375 -1.421875 13.671875 8.265625 
Q 6.984375 17.96875 6.984375 36.375 
Q 6.984375 53.65625 15.1875 63.9375 
Q 23.390625 74.21875 37.203125 74.21875 
Q 40.921875 74.21875 44.703125 73.484375 
Q 48.484375 72.75 52.59375 71.296875 
z
" id="DejaVuSans-54"/>
      </defs>
      <g transform="translate(331.888438 527.238438)scale(0.1 -0.1)">
       <use xlink:href="#DejaVuSans-48"/>
       <use x="63.623047" xlink:href="#DejaVuSans-46"/>
       <use x="95.410156" xlink:href="#DejaVuSans-54"/>
      </g>
     </g>
    </g>
    <g id="xtick_5">
     <g id="line2d_9">
      <path clip-path="url(#p1fca6df06d)" d="M 429.12 512.64 
L 429.12 69.12 
" style="fill:none;stroke:#b0b0b0;stroke-linecap:square;stroke-width:0.8;"/>
     </g>
     <g id="line2d_10">
      <g>
       <use style="stroke:#000000;stroke-width:0.8;" x="429.12" xlink:href="#m055d55f2bb" y="512.64"/>
      </g>
     </g>
     <g id="text_5">
      <!-- 0.8 -->
      <defs>
       <path d="M 31.78125 34.625 
Q 24.75 34.625 20.71875 30.859375 
Q 16.703125 27.09375 16.703125 20.515625 
Q 16.703125 13.921875 20.71875 10.15625 
Q 24.75 6.390625 31.78125 6.390625 
Q 38.8125 6.390625 42.859375 10.171875 
Q 46.921875 13.96875 46.921875 20.515625 
Q 46.921875 27.09375 42.890625 30.859375 
Q 38.875 34.625 31.78125 34.625 
z
M 21.921875 38.8125 
Q 15.578125 40.375 12.03125 44.71875 
Q 8.5 49.078125 8.5 55.328125 
Q 8.5 64.0625 14.71875 69.140625 
Q 20.953125 74.21875 31.78125 74.21875 
Q 42.671875 74.21875 48.875 69.140625 
Q 55.078125 64.0625 55.078125 55.328125 
Q 55.078125 49.078125 51.53125 44.71875 
Q 48 40.375 41.703125 38.8125 
Q 48.828125 37.15625 52.796875 32.3125 
Q 56.78125 27.484375 56.78125 20.515625 
Q 56.78125 9.90625 50.3125 4.234375 
Q 43.84375 -1.421875 31.78125 -1.421875 
Q 19.734375 -1.421875 13.25 4.234375 
Q 6.78125 9.90625 6.78125 20.515625 
Q 6.78125 27.484375 10.78125 32.3125 
Q 14.796875 37.15625 21.921875 38.8125 
z
M 18.3125 54.390625 
Q 18.3125 48.734375 21.84375 45.5625 
Q 25.390625 42.390625 31.78125 42.390625 
Q 38.140625 42.390625 41.71875 45.5625 
Q 45.3125 48.734375 45.3125 54.390625 
Q 45.3125 60.0625 41.71875 63.234375 
Q 38.140625 66.40625 31.78125 66.40625 
Q 25.390625 66.40625 21.84375 63.234375 
Q 18.3125 60.0625 18.3125 54.390625 
z
" id="DejaVuSans-56"/>
      </defs>
      <g transform="translate(421.168437 527.238438)scale(0.1 -0.1)">
       <use xlink:href="#DejaVuSans-48"/>
       <use x="63.623047" xlink:href="#DejaVuSans-46"/>
       <use x="95.410156" xlink:href="#DejaVuSans-56"/>
      </g>
     </g>
    </g>
    <g id="xtick_6">
     <g id="line2d_11">
      <path clip-path="url(#p1fca6df06d)" d="M 518.4 512.64 
L 518.4 69.12 
" style="fill:none;stroke:#b0b0b0;stroke-linecap:square;stroke-width:0.8;"/>
     </g>
     <g id="line2d_12">
      <g>
       <use style="stroke:#000000;stroke-width:0.8;" x="518.4" xlink:href="#m055d55f2bb" y="512.64"/>
      </g>
     </g>
     <g id="text_6">
      <!-- 1.0 -->
      <defs>
       <path d="M 12.40625 8.296875 
L 28.515625 8.296875 
L 28.515625 63.921875 
L 10.984375 60.40625 
L 10.984375 69.390625 
L 28.421875 72.90625 
L 38.28125 72.90625 
L 38.28125 8.296875 
L 54.390625 8.296875 
L 54.390625 0 
L 12.40625 0 
z
" id="DejaVuSans-49"/>
      </defs>
      <g transform="translate(510.448437 527.238438)scale(0.1 -0.1)">
       <use xlink:href="#DejaVuSans-49"/>
       <use x="63.623047" xlink:href="#DejaVuSans-46"/>
       <use x="95.410156" xlink:href="#DejaVuSans-48"/>
      </g>
     </g>
    </g>
    <g id="text_7">
     <!-- False Positive Rate -->
     <defs>
      <path d="M 9.8125 72.90625 
L 51.703125 72.90625 
L 51.703125 64.59375 
L 19.671875 64.59375 
L 19.671875 43.109375 
L 48.578125 43.109375 
L 48.578125 34.8125 
L 19.671875 34.8125 
L 19.671875 0 
L 9.8125 0 
z
" id="DejaVuSans-70"/>
      <path d="M 34.28125 27.484375 
Q 23.390625 27.484375 19.1875 25 
Q 14.984375 22.515625 14.984375 16.5 
Q 14.984375 11.71875 18.140625 8.90625 
Q 21.296875 6.109375 26.703125 6.109375 
Q 34.1875 6.109375 38.703125 11.40625 
Q 43.21875 16.703125 43.21875 25.484375 
L 43.21875 27.484375 
z
M 52.203125 31.203125 
L 52.203125 0 
L 43.21875 0 
L 43.21875 8.296875 
Q 40.140625 3.328125 35.546875 0.953125 
Q 30.953125 -1.421875 24.3125 -1.421875 
Q 15.921875 -1.421875 10.953125 3.296875 
Q 6 8.015625 6 15.921875 
Q 6 25.140625 12.171875 29.828125 
Q 18.359375 34.515625 30.609375 34.515625 
L 43.21875 34.515625 
L 43.21875 35.40625 
Q 43.21875 41.609375 39.140625 45 
Q 35.0625 48.390625 27.6875 48.390625 
Q 23 48.390625 18.546875 47.265625 
Q 14.109375 46.140625 10.015625 43.890625 
L 10.015625 52.203125 
Q 14.9375 54.109375 19.578125 55.046875 
Q 24.21875 56 28.609375 56 
Q 40.484375 56 46.34375 49.84375 
Q 52.203125 43.703125 52.203125 31.203125 
z
" id="DejaVuSans-97"/>
      <path d="M 9.421875 75.984375 
L 18.40625 75.984375 
L 18.40625 0 
L 9.421875 0 
z
" id="DejaVuSans-108"/>
      <path d="M 44.28125 53.078125 
L 44.28125 44.578125 
Q 40.484375 46.53125 36.375 47.5 
Q 32.28125 48.484375 27.875 48.484375 
Q 21.1875 48.484375 17.84375 46.4375 
Q 14.5 44.390625 14.5 40.28125 
Q 14.5 37.15625 16.890625 35.375 
Q 19.28125 33.59375 26.515625 31.984375 
L 29.59375 31.296875 
Q 39.15625 29.25 43.1875 25.515625 
Q 47.21875 21.78125 47.21875 15.09375 
Q 47.21875 7.46875 41.1875 3.015625 
Q 35.15625 -1.421875 24.609375 -1.421875 
Q 20.21875 -1.421875 15.453125 -0.5625 
Q 10.6875 0.296875 5.421875 2 
L 5.421875 11.28125 
Q 10.40625 8.6875 15.234375 7.390625 
Q 20.0625 6.109375 24.8125 6.109375 
Q 31.15625 6.109375 34.5625 8.28125 
Q 37.984375 10.453125 37.984375 14.40625 
Q 37.984375 18.0625 35.515625 20.015625 
Q 33.0625 21.96875 24.703125 23.78125 
L 21.578125 24.515625 
Q 13.234375 26.265625 9.515625 29.90625 
Q 5.8125 33.546875 5.8125 39.890625 
Q 5.8125 47.609375 11.28125 51.796875 
Q 16.75 56 26.8125 56 
Q 31.78125 56 36.171875 55.265625 
Q 40.578125 54.546875 44.28125 53.078125 
z
" id="DejaVuSans-115"/>
      <path d="M 56.203125 29.59375 
L 56.203125 25.203125 
L 14.890625 25.203125 
Q 15.484375 15.921875 20.484375 11.0625 
Q 25.484375 6.203125 34.421875 6.203125 
Q 39.59375 6.203125 44.453125 7.46875 
Q 49.3125 8.734375 54.109375 11.28125 
L 54.109375 2.78125 
Q 49.265625 0.734375 44.1875 -0.34375 
Q 39.109375 -1.421875 33.890625 -1.421875 
Q 20.796875 -1.421875 13.15625 6.1875 
Q 5.515625 13.8125 5.515625 26.8125 
Q 5.515625 40.234375 12.765625 48.109375 
Q 20.015625 56 32.328125 56 
Q 43.359375 56 49.78125 48.890625 
Q 56.203125 41.796875 56.203125 29.59375 
z
M 47.21875 32.234375 
Q 47.125 39.59375 43.09375 43.984375 
Q 39.0625 48.390625 32.421875 48.390625 
Q 24.90625 48.390625 20.390625 44.140625 
Q 15.875 39.890625 15.1875 32.171875 
z
" id="DejaVuSans-101"/>
      <path id="DejaVuSans-32"/>
      <path d="M 19.671875 64.796875 
L 19.671875 37.40625 
L 32.078125 37.40625 
Q 38.96875 37.40625 42.71875 40.96875 
Q 46.484375 44.53125 46.484375 51.125 
Q 46.484375 57.671875 42.71875 61.234375 
Q 38.96875 64.796875 32.078125 64.796875 
z
M 9.8125 72.90625 
L 32.078125 72.90625 
Q 44.34375 72.90625 50.609375 67.359375 
Q 56.890625 61.8125 56.890625 51.125 
Q 56.890625 40.328125 50.609375 34.8125 
Q 44.34375 29.296875 32.078125 29.296875 
L 19.671875 29.296875 
L 19.671875 0 
L 9.8125 0 
z
" id="DejaVuSans-80"/>
      <path d="M 30.609375 48.390625 
Q 23.390625 48.390625 19.1875 42.75 
Q 14.984375 37.109375 14.984375 27.296875 
Q 14.984375 17.484375 19.15625 11.84375 
Q 23.34375 6.203125 30.609375 6.203125 
Q 37.796875 6.203125 41.984375 11.859375 
Q 46.1875 17.53125 46.1875 27.296875 
Q 46.1875 37.015625 41.984375 42.703125 
Q 37.796875 48.390625 30.609375 48.390625 
z
M 30.609375 56 
Q 42.328125 56 49.015625 48.375 
Q 55.71875 40.765625 55.71875 27.296875 
Q 55.71875 13.875 49.015625 6.21875 
Q 42.328125 -1.421875 30.609375 -1.421875 
Q 18.84375 -1.421875 12.171875 6.21875 
Q 5.515625 13.875 5.515625 27.296875 
Q 5.515625 40.765625 12.171875 48.375 
Q 18.84375 56 30.609375 56 
z
" id="DejaVuSans-111"/>
      <path d="M 9.421875 54.6875 
L 18.40625 54.6875 
L 18.40625 0 
L 9.421875 0 
z
M 9.421875 75.984375 
L 18.40625 75.984375 
L 18.40625 64.59375 
L 9.421875 64.59375 
z
" id="DejaVuSans-105"/>
      <path d="M 18.3125 70.21875 
L 18.3125 54.6875 
L 36.8125 54.6875 
L 36.8125 47.703125 
L 18.3125 47.703125 
L 18.3125 18.015625 
Q 18.3125 11.328125 20.140625 9.421875 
Q 21.96875 7.515625 27.59375 7.515625 
L 36.8125 7.515625 
L 36.8125 0 
L 27.59375 0 
Q 17.1875 0 13.234375 3.875 
Q 9.28125 7.765625 9.28125 18.015625 
L 9.28125 47.703125 
L 2.6875 47.703125 
L 2.6875 54.6875 
L 9.28125 54.6875 
L 9.28125 70.21875 
z
" id="DejaVuSans-116"/>
      <path d="M 2.984375 54.6875 
L 12.5 54.6875 
L 29.59375 8.796875 
L 46.6875 54.6875 
L 56.203125 54.6875 
L 35.6875 0 
L 23.484375 0 
z
" id="DejaVuSans-118"/>
      <path d="M 44.390625 34.1875 
Q 47.5625 33.109375 50.5625 29.59375 
Q 53.5625 26.078125 56.59375 19.921875 
L 66.609375 0 
L 56 0 
L 46.6875 18.703125 
Q 43.0625 26.03125 39.671875 28.421875 
Q 36.28125 30.8125 30.421875 30.8125 
L 19.671875 30.8125 
L 19.671875 0 
L 9.8125 0 
L 9.8125 72.90625 
L 32.078125 72.90625 
Q 44.578125 72.90625 50.734375 67.671875 
Q 56.890625 62.453125 56.890625 51.90625 
Q 56.890625 45.015625 53.6875 40.46875 
Q 50.484375 35.9375 44.390625 34.1875 
z
M 19.671875 64.796875 
L 19.671875 38.921875 
L 32.078125 38.921875 
Q 39.203125 38.921875 42.84375 42.21875 
Q 46.484375 45.515625 46.484375 51.90625 
Q 46.484375 58.296875 42.84375 61.546875 
Q 39.203125 64.796875 32.078125 64.796875 
z
" id="DejaVuSans-82"/>
     </defs>
     <g transform="translate(247.994531 540.916563)scale(0.1 -0.1)">
      <use xlink:href="#DejaVuSans-70"/>
      <use x="57.378906" xlink:href="#DejaVuSans-97"/>
      <use x="118.658203" xlink:href="#DejaVuSans-108"/>
      <use x="146.441406" xlink:href="#DejaVuSans-115"/>
      <use x="198.541016" xlink:href="#DejaVuSans-101"/>
      <use x="260.064453" xlink:href="#DejaVuSans-32"/>
      <use x="291.851562" xlink:href="#DejaVuSans-80"/>
      <use x="352.107422" xlink:href="#DejaVuSans-111"/>
      <use x="413.289062" xlink:href="#DejaVuSans-115"/>
      <use x="465.388672" xlink:href="#DejaVuSans-105"/>
      <use x="493.171875" xlink:href="#DejaVuSans-116"/>
      <use x="532.380859" xlink:href="#DejaVuSans-105"/>
      <use x="560.164062" xlink:href="#DejaVuSans-118"/>
      <use x="619.34375" xlink:href="#DejaVuSans-101"/>
      <use x="680.867188" xlink:href="#DejaVuSans-32"/>
      <use x="712.654297" xlink:href="#DejaVuSans-82"/>
      <use x="782.105469" xlink:href="#DejaVuSans-97"/>
      <use x="843.384766" xlink:href="#DejaVuSans-116"/>
      <use x="882.59375" xlink:href="#DejaVuSans-101"/>
     </g>
    </g>
   </g>
   <g id="matplotlib.axis_2">
    <g id="ytick_1">
     <g id="line2d_13">
      <path clip-path="url(#p1fca6df06d)" d="M 72 512.64 
L 518.4 512.64 
" style="fill:none;stroke:#b0b0b0;stroke-linecap:square;stroke-width:0.8;"/>
     </g>
     <g id="line2d_14">
      <defs>
       <path d="M 0 0 
L -3.5 0 
" id="m8ab4cea4d6" style="stroke:#000000;stroke-width:0.8;"/>
      </defs>
      <g>
       <use style="stroke:#000000;stroke-width:0.8;" x="72" xlink:href="#m8ab4cea4d6" y="512.64"/>
      </g>
     </g>
     <g id="text_8">
      <!-- 0.0 -->
      <g transform="translate(49.096875 516.439219)scale(0.1 -0.1)">
       <use xlink:href="#DejaVuSans-48"/>
       <use x="63.623047" xlink:href="#DejaVuSans-46"/>
       <use x="95.410156" xlink:href="#DejaVuSans-48"/>
      </g>
     </g>
    </g>
    <g id="ytick_2">
     <g id="line2d_15">
      <path clip-path="url(#p1fca6df06d)" d="M 72 428.16 
L 518.4 428.16 
" style="fill:none;stroke:#b0b0b0;stroke-linecap:square;stroke-width:0.8;"/>
     </g>
     <g id="line2d_16">
      <g>
       <use style="stroke:#000000;stroke-width:0.8;" x="72" xlink:href="#m8ab4cea4d6" y="428.16"/>
      </g>
     </g>
     <g id="text_9">
      <!-- 0.2 -->
      <g transform="translate(49.096875 431.959219)scale(0.1 -0.1)">
       <use xlink:href="#DejaVuSans-48"/>
       <use x="63.623047" xlink:href="#DejaVuSans-46"/>
       <use x="95.410156" xlink:href="#DejaVuSans-50"/>
      </g>
     </g>
    </g>
    <g id="ytick_3">
     <g id="line2d_17">
      <path clip-path="url(#p1fca6df06d)" d="M 72 343.68 
L 518.4 343.68 
" style="fill:none;stroke:#b0b0b0;stroke-linecap:square;stroke-width:0.8;"/>
     </g>
     <g id="line2d_18">
      <g>
       <use style="stroke:#000000;stroke-width:0.8;" x="72" xlink:href="#m8ab4cea4d6" y="343.68"/>
      </g>
     </g>
     <g id="text_10">
      <!-- 0.4 -->
      <g transform="translate(49.096875 347.479219)scale(0.1 -0.1)">
       <use xlink:href="#DejaVuSans-48"/>
       <use x="63.623047" xlink:href="#DejaVuSans-46"/>
       <use x="95.410156" xlink:href="#DejaVuSans-52"/>
      </g>
     </g>
    </g>
    <g id="ytick_4">
     <g id="line2d_19">
      <path clip-path="url(#p1fca6df06d)" d="M 72 259.2 
L 518.4 259.2 
" style="fill:none;stroke:#b0b0b0;stroke-linecap:square;stroke-width:0.8;"/>
     </g>
     <g id="line2d_20">
      <g>
       <use style="stroke:#000000;stroke-width:0.8;" x="72" xlink:href="#m8ab4cea4d6" y="259.2"/>
      </g>
     </g>
     <g id="text_11">
      <!-- 0.6 -->
      <g transform="translate(49.096875 262.999219)scale(0.1 -0.1)">
       <use xlink:href="#DejaVuSans-48"/>
       <use x="63.623047" xlink:href="#DejaVuSans-46"/>
       <use x="95.410156" xlink:href="#DejaVuSans-54"/>
      </g>
     </g>
    </g>
    <g id="ytick_5">
     <g id="line2d_21">
      <path clip-path="url(#p1fca6df06d)" d="M 72 174.72 
L 518.4 174.72 
" style="fill:none;stroke:#b0b0b0;stroke-linecap:square;stroke-width:0.8;"/>
     </g>
     <g id="line2d_22">
      <g>
       <use style="stroke:#000000;stroke-width:0.8;" x="72" xlink:href="#m8ab4cea4d6" y="174.72"/>
      </g>
     </g>
     <g id="text_12">
      <!-- 0.8 -->
      <g transform="translate(49.096875 178.519219)scale(0.1 -0.1)">
       <use xlink:href="#DejaVuSans-48"/>
       <use x="63.623047" xlink:href="#DejaVuSans-46"/>
       <use x="95.410156" xlink:href="#DejaVuSans-56"/>
      </g>
     </g>
    </g>
    <g id="ytick_6">
     <g id="line2d_23">
      <path clip-path="url(#p1fca6df06d)" d="M 72 90.24 
L 518.4 90.24 
" style="fill:none;stroke:#b0b0b0;stroke-linecap:square;stroke-width:0.8;"/>
     </g>
     <g id="line2d_24">
      <g>
       <use style="stroke:#000000;stroke-width:0.8;" x="72" xlink:href="#m8ab4cea4d6" y="90.24"/>
      </g>
     </g>
     <g id="text_13">
      <!-- 1.0 -->
      <g transform="translate(49.096875 94.039219)scale(0.1 -0.1)">
       <use xlink:href="#DejaVuSans-49"/>
       <use x="63.623047" xlink:href="#DejaVuSans-46"/>
       <use x="95.410156" xlink:href="#DejaVuSans-48"/>
      </g>
     </g>
    </g>
    <g id="text_14">
     <!-- True Positive Rate -->
     <defs>
      <path d="M -0.296875 72.90625 
L 61.375 72.90625 
L 61.375 64.59375 
L 35.5 64.59375 
L 35.5 0 
L 25.59375 0 
L 25.59375 64.59375 
L -0.296875 64.59375 
z
" id="DejaVuSans-84"/>
      <path d="M 41.109375 46.296875 
Q 39.59375 47.171875 37.8125 47.578125 
Q 36.03125 48 33.890625 48 
Q 26.265625 48 22.1875 43.046875 
Q 18.109375 38.09375 18.109375 28.8125 
L 18.109375 0 
L 9.078125 0 
L 9.078125 54.6875 
L 18.109375 54.6875 
L 18.109375 46.1875 
Q 20.953125 51.171875 25.484375 53.578125 
Q 30.03125 56 36.53125 56 
Q 37.453125 56 38.578125 55.875 
Q 39.703125 55.765625 41.0625 55.515625 
z
" id="DejaVuSans-114"/>
      <path d="M 8.5 21.578125 
L 8.5 54.6875 
L 17.484375 54.6875 
L 17.484375 21.921875 
Q 17.484375 14.15625 20.5 10.265625 
Q 23.53125 6.390625 29.59375 6.390625 
Q 36.859375 6.390625 41.078125 11.03125 
Q 45.3125 15.671875 45.3125 23.6875 
L 45.3125 54.6875 
L 54.296875 54.6875 
L 54.296875 0 
L 45.3125 0 
L 45.3125 8.40625 
Q 42.046875 3.421875 37.71875 1 
Q 33.40625 -1.421875 27.6875 -1.421875 
Q 18.265625 -1.421875 13.375 4.4375 
Q 8.5 10.296875 8.5 21.578125 
z
M 31.109375 56 
z
" id="DejaVuSans-117"/>
     </defs>
     <g transform="translate(43.017187 336.426094)rotate(-90)scale(0.1 -0.1)">
      <use xlink:href="#DejaVuSans-84"/>
      <use x="60.865234" xlink:href="#DejaVuSans-114"/>
      <use x="101.978516" xlink:href="#DejaVuSans-117"/>
      <use x="165.357422" xlink:href="#DejaVuSans-101"/>
      <use x="226.880859" xlink:href="#DejaVuSans-32"/>
      <use x="258.667969" xlink:href="#DejaVuSans-80"/>
      <use x="318.923828" xlink:href="#DejaVuSans-111"/>
      <use x="380.105469" xlink:href="#DejaVuSans-115"/>
      <use x="432.205078" xlink:href="#DejaVuSans-105"/>
      <use x="459.988281" xlink:href="#DejaVuSans-116"/>
      <use x="499.197266" xlink:href="#DejaVuSans-105"/>
      <use x="526.980469" xlink:href="#DejaVuSans-118"/>
      <use x="586.160156" xlink:href="#DejaVuSans-101"/>
      <use x="647.683594" xlink:href="#DejaVuSans-32"/>
      <use x="679.470703" xlink:href="#DejaVuSans-82"/>
      <use x="748.921875" xlink:href="#DejaVuSans-97"/>
      <use x="810.201172" xlink:href="#DejaVuSans-116"/>
      <use x="849.410156" xlink:href="#DejaVuSans-101"/>
     </g>
    </g>
   </g>
   <g id="line2d_25">
    <path clip-path="url(#p1fca6df06d)" d="M 72 512.64 
L 72 461.374359 
L 72.381538 461.374359 
L 72.381538 460.652308 
L 72.763077 460.652308 
L 72.763077 428.882051 
L 73.144615 428.882051 
L 73.144615 408.664615 
L 73.907692 408.664615 
L 73.907692 405.415385 
L 74.289231 405.415385 
L 74.289231 401.444103 
L 74.670769 401.444103 
L 74.670769 400.722051 
L 75.433846 400.722051 
L 75.433846 393.862564 
L 75.815385 393.862564 
L 75.815385 389.530256 
L 76.196923 389.530256 
L 76.196923 388.447179 
L 76.578462 388.447179 
L 76.578462 378.338462 
L 76.96 378.338462 
L 76.96 375.089231 
L 77.341538 375.089231 
L 77.341538 372.923077 
L 77.723077 372.923077 
L 77.723077 370.756923 
L 78.486154 370.756923 
L 78.486154 367.868718 
L 78.867692 367.868718 
L 78.867692 364.980513 
L 79.630769 364.980513 
L 79.630769 363.175385 
L 80.012308 363.175385 
L 80.012308 362.453333 
L 80.393846 362.453333 
L 80.393846 359.926154 
L 80.775385 359.926154 
L 80.775385 358.843077 
L 81.156923 358.843077 
L 81.156923 355.954872 
L 81.538462 355.954872 
L 81.538462 354.510769 
L 81.92 354.510769 
L 81.92 354.149744 
L 82.301538 354.149744 
L 82.301538 353.427692 
L 82.683077 353.427692 
L 82.683077 349.817436 
L 83.446154 349.817436 
L 83.446154 345.846154 
L 84.209231 345.846154 
L 84.209231 345.485128 
L 84.590769 345.485128 
L 84.590769 338.264615 
L 84.972308 338.264615 
L 84.972308 337.181538 
L 85.353846 337.181538 
L 85.353846 336.459487 
L 85.735385 336.459487 
L 85.735385 335.37641 
L 86.116923 335.37641 
L 86.116923 334.654359 
L 86.498462 334.654359 
L 86.498462 333.932308 
L 86.88 333.932308 
L 86.88 332.488205 
L 88.024615 332.488205 
L 88.024615 331.766154 
L 88.406154 331.766154 
L 88.406154 329.238974 
L 89.169231 329.238974 
L 89.169231 327.794872 
L 89.550769 327.794872 
L 89.550769 326.711795 
L 89.932308 326.711795 
L 89.932308 325.628718 
L 90.695385 325.628718 
L 90.695385 321.29641 
L 91.076923 321.29641 
L 91.076923 318.769231 
L 92.221538 318.769231 
L 92.221538 316.964103 
L 92.603077 316.964103 
L 92.603077 316.603077 
L 93.747692 316.603077 
L 93.747692 310.465641 
L 94.129231 310.465641 
L 94.129231 308.299487 
L 94.510769 308.299487 
L 94.510769 306.494359 
L 94.892308 306.494359 
L 94.892308 304.689231 
L 95.273846 304.689231 
L 95.273846 303.967179 
L 95.655385 303.967179 
L 95.655385 303.245128 
L 96.036923 303.245128 
L 96.036923 302.523077 
L 96.418462 302.523077 
L 96.418462 301.44 
L 96.8 301.44 
L 96.8 301.078974 
L 97.563077 301.078974 
L 97.563077 300.717949 
L 97.944615 300.717949 
L 97.944615 299.995897 
L 98.326154 299.995897 
L 98.326154 299.634872 
L 98.707692 299.634872 
L 98.707692 298.551795 
L 99.089231 298.551795 
L 99.089231 297.829744 
L 99.470769 297.829744 
L 99.470769 297.468718 
L 99.852308 297.468718 
L 99.852308 291.331282 
L 100.233846 291.331282 
L 100.233846 285.554872 
L 100.615385 285.554872 
L 100.615385 284.471795 
L 100.996923 284.471795 
L 100.996923 284.110769 
L 101.76 284.110769 
L 101.76 281.944615 
L 102.141538 281.944615 
L 102.141538 281.222564 
L 102.523077 281.222564 
L 102.523077 279.417436 
L 103.286154 279.417436 
L 103.286154 278.334359 
L 103.667692 278.334359 
L 103.667692 273.641026 
L 104.049231 273.641026 
L 104.049231 272.557949 
L 104.812308 272.557949 
L 104.812308 272.196923 
L 105.193846 272.196923 
L 105.193846 270.391795 
L 105.956923 270.391795 
L 105.956923 268.586667 
L 106.72 268.586667 
L 106.72 268.225641 
L 107.101538 268.225641 
L 107.101538 267.50359 
L 107.483077 267.50359 
L 107.483077 267.142564 
L 107.864615 267.142564 
L 107.864615 266.781538 
L 108.246154 266.781538 
L 108.246154 266.420513 
L 108.627692 266.420513 
L 108.627692 266.059487 
L 109.390769 266.059487 
L 109.390769 265.698462 
L 109.772308 265.698462 
L 109.772308 265.337436 
L 110.153846 265.337436 
L 110.153846 264.615385 
L 110.535385 264.615385 
L 110.535385 262.449231 
L 110.916923 262.449231 
L 110.916923 261.005128 
L 111.298462 261.005128 
L 111.298462 260.283077 
L 111.68 260.283077 
L 111.68 259.561026 
L 112.061538 259.561026 
L 112.061538 258.838974 
L 112.443077 258.838974 
L 112.443077 258.116923 
L 112.824615 258.116923 
L 112.824615 257.755897 
L 113.206154 257.755897 
L 113.206154 255.950769 
L 113.587692 255.950769 
L 113.587692 255.228718 
L 114.350769 255.228718 
L 114.350769 254.867692 
L 114.732308 254.867692 
L 114.732308 254.145641 
L 115.113846 254.145641 
L 115.113846 252.701538 
L 115.876923 252.701538 
L 115.876923 250.174359 
L 116.258462 250.174359 
L 116.258462 249.091282 
L 116.64 249.091282 
L 116.64 248.369231 
L 117.021538 248.369231 
L 117.021538 246.925128 
L 117.784615 246.925128 
L 117.784615 244.036923 
L 118.166154 244.036923 
L 118.166154 243.314872 
L 118.547692 243.314872 
L 118.547692 240.065641 
L 118.929231 240.065641 
L 118.929231 239.704615 
L 119.310769 239.704615 
L 119.310769 238.621538 
L 119.692308 238.621538 
L 119.692308 237.177436 
L 120.073846 237.177436 
L 120.073846 235.733333 
L 121.218462 235.733333 
L 121.218462 234.289231 
L 121.981538 234.289231 
L 121.981538 233.928205 
L 122.363077 233.928205 
L 122.363077 233.567179 
L 123.126154 233.567179 
L 123.126154 232.484103 
L 123.889231 232.484103 
L 123.889231 231.762051 
L 124.270769 231.762051 
L 124.270769 231.04 
L 124.652308 231.04 
L 124.652308 230.678974 
L 125.033846 230.678974 
L 125.033846 227.068718 
L 125.415385 227.068718 
L 125.415385 226.707692 
L 125.796923 226.707692 
L 125.796923 225.624615 
L 126.178462 225.624615 
L 126.178462 224.541538 
L 126.56 224.541538 
L 126.56 222.014359 
L 127.323077 222.014359 
L 127.323077 221.292308 
L 128.086154 221.292308 
L 128.086154 220.570256 
L 128.467692 220.570256 
L 128.467692 219.848205 
L 129.612308 219.848205 
L 129.612308 218.765128 
L 130.756923 218.765128 
L 130.756923 218.404103 
L 131.138462 218.404103 
L 131.138462 217.682051 
L 131.52 217.682051 
L 131.52 216.598974 
L 132.664615 216.598974 
L 132.664615 214.793846 
L 133.427692 214.793846 
L 133.427692 214.071795 
L 133.809231 214.071795 
L 133.809231 213.710769 
L 135.335385 213.710769 
L 135.335385 213.349744 
L 135.716923 213.349744 
L 135.716923 212.988718 
L 136.098462 212.988718 
L 136.098462 212.266667 
L 136.861538 212.266667 
L 136.861538 209.378462 
L 137.624615 209.378462 
L 137.624615 209.017436 
L 138.387692 209.017436 
L 138.387692 207.212308 
L 138.769231 207.212308 
L 138.769231 205.768205 
L 139.913846 205.768205 
L 139.913846 205.046154 
L 140.295385 205.046154 
L 140.295385 204.685128 
L 140.676923 204.685128 
L 140.676923 203.963077 
L 141.058462 203.963077 
L 141.058462 203.602051 
L 141.44 203.602051 
L 141.44 203.241026 
L 141.821538 203.241026 
L 141.821538 202.88 
L 142.584615 202.88 
L 142.584615 201.435897 
L 142.966154 201.435897 
L 142.966154 201.074872 
L 143.347692 201.074872 
L 143.347692 199.630769 
L 143.729231 199.630769 
L 143.729231 199.269744 
L 144.110769 199.269744 
L 144.110769 198.186667 
L 144.492308 198.186667 
L 144.492308 197.825641 
L 145.636923 197.825641 
L 145.636923 196.742564 
L 146.781538 196.742564 
L 146.781538 195.659487 
L 147.163077 195.659487 
L 147.163077 194.215385 
L 147.544615 194.215385 
L 147.544615 193.493333 
L 147.926154 193.493333 
L 147.926154 192.410256 
L 148.307692 192.410256 
L 148.307692 191.688205 
L 149.452308 191.688205 
L 149.452308 190.966154 
L 150.215385 190.966154 
L 150.215385 187.716923 
L 150.596923 187.716923 
L 150.596923 187.355897 
L 150.978462 187.355897 
L 150.978462 186.994872 
L 151.741538 186.994872 
L 151.741538 186.633846 
L 152.123077 186.633846 
L 152.123077 185.550769 
L 152.504615 185.550769 
L 152.504615 185.189744 
L 153.649231 185.189744 
L 153.649231 184.828718 
L 154.030769 184.828718 
L 154.030769 183.384615 
L 154.793846 183.384615 
L 154.793846 183.02359 
L 155.556923 183.02359 
L 155.556923 182.301538 
L 156.32 182.301538 
L 156.32 181.940513 
L 157.464615 181.940513 
L 157.464615 180.857436 
L 157.846154 180.857436 
L 157.846154 179.052308 
L 158.609231 179.052308 
L 158.609231 178.330256 
L 158.990769 178.330256 
L 158.990769 177.608205 
L 160.135385 177.608205 
L 160.135385 177.247179 
L 160.516923 177.247179 
L 160.516923 176.525128 
L 160.898462 176.525128 
L 160.898462 176.164103 
L 162.424615 176.164103 
L 162.424615 175.442051 
L 162.806154 175.442051 
L 162.806154 175.081026 
L 163.187692 175.081026 
L 163.187692 174.358974 
L 163.569231 174.358974 
L 163.569231 173.275897 
L 164.713846 173.275897 
L 164.713846 167.860513 
L 165.095385 167.860513 
L 165.095385 167.138462 
L 165.476923 167.138462 
L 165.476923 166.41641 
L 167.384615 166.41641 
L 167.384615 166.055385 
L 168.147692 166.055385 
L 168.147692 165.333333 
L 168.910769 165.333333 
L 168.910769 164.972308 
L 169.673846 164.972308 
L 169.673846 164.250256 
L 170.055385 164.250256 
L 170.055385 163.528205 
L 170.818462 163.528205 
L 170.818462 162.806154 
L 171.2 162.806154 
L 171.2 162.084103 
L 171.963077 162.084103 
L 171.963077 161.723077 
L 172.726154 161.723077 
L 172.726154 160.64 
L 173.107692 160.64 
L 173.107692 160.278974 
L 175.396923 160.278974 
L 175.396923 159.917949 
L 176.16 159.917949 
L 176.16 159.195897 
L 176.541538 159.195897 
L 176.541538 158.834872 
L 177.304615 158.834872 
L 177.304615 158.473846 
L 177.686154 158.473846 
L 177.686154 157.751795 
L 178.067692 157.751795 
L 178.067692 157.390769 
L 179.593846 157.390769 
L 179.593846 156.307692 
L 180.738462 156.307692 
L 180.738462 155.224615 
L 182.646154 155.224615 
L 182.646154 154.86359 
L 184.172308 154.86359 
L 184.172308 152.697436 
L 184.553846 152.697436 
L 184.553846 152.33641 
L 185.698462 152.33641 
L 185.698462 151.614359 
L 186.461538 151.614359 
L 186.461538 151.253333 
L 187.224615 151.253333 
L 187.224615 150.892308 
L 187.606154 150.892308 
L 187.606154 149.087179 
L 187.987692 149.087179 
L 187.987692 148.726154 
L 188.369231 148.726154 
L 188.369231 148.004103 
L 188.750769 148.004103 
L 188.750769 147.643077 
L 189.132308 147.643077 
L 189.132308 147.282051 
L 189.895385 147.282051 
L 189.895385 146.921026 
L 191.04 146.921026 
L 191.04 146.56 
L 191.421538 146.56 
L 191.421538 146.198974 
L 191.803077 146.198974 
L 191.803077 145.837949 
L 192.184615 145.837949 
L 192.184615 145.476923 
L 192.566154 145.476923 
L 192.566154 144.754872 
L 192.947692 144.754872 
L 192.947692 144.393846 
L 193.710769 144.393846 
L 193.710769 144.032821 
L 195.618462 144.032821 
L 195.618462 143.310769 
L 196 143.310769 
L 196 142.949744 
L 196.763077 142.949744 
L 196.763077 141.866667 
L 197.526154 141.866667 
L 197.526154 141.505641 
L 199.433846 141.505641 
L 199.433846 141.144615 
L 200.96 141.144615 
L 200.96 140.422564 
L 202.486154 140.422564 
L 202.486154 140.061538 
L 202.867692 140.061538 
L 202.867692 139.339487 
L 204.393846 139.339487 
L 204.393846 137.534359 
L 204.775385 137.534359 
L 204.775385 137.173333 
L 205.92 137.173333 
L 205.92 136.812308 
L 207.064615 136.812308 
L 207.064615 136.451282 
L 207.446154 136.451282 
L 207.446154 136.090256 
L 208.209231 136.090256 
L 208.209231 135.368205 
L 210.116923 135.368205 
L 210.116923 135.007179 
L 210.498462 135.007179 
L 210.498462 134.646154 
L 211.643077 134.646154 
L 211.643077 133.924103 
L 212.024615 133.924103 
L 212.024615 133.202051 
L 214.695385 133.202051 
L 214.695385 132.841026 
L 215.458462 132.841026 
L 215.458462 132.48 
L 216.984615 132.48 
L 216.984615 132.118974 
L 217.366154 132.118974 
L 217.366154 131.757949 
L 218.129231 131.757949 
L 218.129231 131.396923 
L 219.655385 131.396923 
L 219.655385 131.035897 
L 220.418462 131.035897 
L 220.418462 130.674872 
L 223.089231 130.674872 
L 223.089231 129.591795 
L 224.615385 129.591795 
L 224.615385 129.230769 
L 225.76 129.230769 
L 225.76 128.869744 
L 227.286154 128.869744 
L 227.286154 128.508718 
L 228.430769 128.508718 
L 228.430769 128.147692 
L 228.812308 128.147692 
L 228.812308 127.425641 
L 229.193846 127.425641 
L 229.193846 127.064615 
L 229.575385 127.064615 
L 229.575385 125.981538 
L 231.483077 125.981538 
L 231.483077 125.259487 
L 231.864615 125.259487 
L 231.864615 124.898462 
L 233.009231 124.898462 
L 233.009231 124.537436 
L 234.535385 124.537436 
L 234.535385 123.454359 
L 235.298462 123.454359 
L 235.298462 123.093333 
L 236.824615 123.093333 
L 236.824615 122.732308 
L 238.732308 122.732308 
L 238.732308 122.371282 
L 239.495385 122.371282 
L 239.495385 122.010256 
L 240.64 122.010256 
L 240.64 121.649231 
L 241.403077 121.649231 
L 241.403077 121.288205 
L 241.784615 121.288205 
L 241.784615 120.927179 
L 242.166154 120.927179 
L 242.166154 120.566154 
L 242.547692 120.566154 
L 242.547692 119.844103 
L 244.073846 119.844103 
L 244.073846 119.483077 
L 245.218462 119.483077 
L 245.218462 119.122051 
L 247.507692 119.122051 
L 247.507692 118.761026 
L 247.889231 118.761026 
L 247.889231 118.4 
L 248.270769 118.4 
L 248.270769 118.038974 
L 248.652308 118.038974 
L 248.652308 117.677949 
L 249.796923 117.677949 
L 249.796923 116.955897 
L 250.178462 116.955897 
L 250.178462 116.233846 
L 251.323077 116.233846 
L 251.323077 115.872821 
L 252.849231 115.872821 
L 252.849231 115.511795 
L 253.230769 115.511795 
L 253.230769 115.150769 
L 253.612308 115.150769 
L 253.612308 114.789744 
L 254.756923 114.789744 
L 254.756923 114.428718 
L 255.52 114.428718 
L 255.52 114.067692 
L 257.809231 114.067692 
L 257.809231 113.706667 
L 259.335385 113.706667 
L 259.335385 113.345641 
L 260.48 113.345641 
L 260.48 112.984615 
L 260.861538 112.984615 
L 260.861538 112.262564 
L 262.006154 112.262564 
L 262.006154 111.901538 
L 262.387692 111.901538 
L 262.387692 111.540513 
L 262.769231 111.540513 
L 262.769231 111.179487 
L 265.44 111.179487 
L 265.44 110.818462 
L 265.821538 110.818462 
L 265.821538 110.457436 
L 266.966154 110.457436 
L 266.966154 110.09641 
L 267.729231 110.09641 
L 267.729231 109.735385 
L 268.110769 109.735385 
L 268.110769 109.013333 
L 271.163077 109.013333 
L 271.163077 108.652308 
L 271.544615 108.652308 
L 271.544615 108.291282 
L 274.215385 108.291282 
L 274.215385 107.930256 
L 274.596923 107.930256 
L 274.596923 107.569231 
L 274.978462 107.569231 
L 274.978462 107.208205 
L 276.504615 107.208205 
L 276.504615 106.847179 
L 276.886154 106.847179 
L 276.886154 106.486154 
L 278.412308 106.486154 
L 278.412308 106.125128 
L 283.372308 106.125128 
L 283.372308 105.764103 
L 290.24 105.764103 
L 290.24 105.042051 
L 291.384615 105.042051 
L 291.384615 104.681026 
L 292.529231 104.681026 
L 292.529231 104.32 
L 294.436923 104.32 
L 294.436923 103.958974 
L 297.870769 103.958974 
L 297.870769 103.597949 
L 298.633846 103.597949 
L 298.633846 103.236923 
L 299.015385 103.236923 
L 299.015385 102.514872 
L 301.304615 102.514872 
L 301.304615 102.153846 
L 302.830769 102.153846 
L 302.830769 101.792821 
L 304.738462 101.792821 
L 304.738462 101.431795 
L 306.646154 101.431795 
L 306.646154 100.709744 
L 308.553846 100.709744 
L 308.553846 100.348718 
L 309.316923 100.348718 
L 309.316923 99.987692 
L 316.184615 99.987692 
L 316.184615 99.626667 
L 318.855385 99.626667 
L 318.855385 99.265641 
L 319.618462 99.265641 
L 319.618462 98.904615 
L 320 98.904615 
L 320 98.54359 
L 320.763077 98.54359 
L 320.763077 98.182564 
L 322.670769 98.182564 
L 322.670769 97.821538 
L 327.249231 97.821538 
L 327.249231 97.460513 
L 352.430769 97.460513 
L 352.430769 97.099487 
L 355.864615 97.099487 
L 355.864615 96.738462 
L 366.547692 96.738462 
L 366.547692 96.377436 
L 367.692308 96.377436 
L 367.692308 96.01641 
L 376.086154 96.01641 
L 376.086154 95.294359 
L 391.729231 95.294359 
L 391.729231 94.933333 
L 394.018462 94.933333 
L 394.018462 94.572308 
L 397.070769 94.572308 
L 397.070769 94.211282 
L 403.556923 94.211282 
L 403.556923 93.850256 
L 406.609231 93.850256 
L 406.609231 93.489231 
L 425.304615 93.489231 
L 425.304615 93.128205 
L 437.895385 93.128205 
L 437.895385 92.767179 
L 458.498462 92.767179 
L 458.498462 92.406154 
L 462.313846 92.406154 
L 462.313846 92.045128 
L 472.615385 92.045128 
L 472.615385 91.684103 
L 476.049231 91.684103 
L 476.049231 90.962051 
L 482.535385 90.962051 
L 482.535385 90.601026 
L 513.821538 90.601026 
L 513.821538 90.24 
L 518.4 90.24 
L 518.4 90.24 
" style="fill:none;stroke:#ff8c00;stroke-linecap:square;stroke-width:2;"/>
   </g>
   <g id="line2d_26">
    <path clip-path="url(#p1fca6df06d)" d="M 72 512.64 
L 518.4 90.24 
" style="fill:none;stroke:#000080;stroke-dasharray:7.4,3.2;stroke-dashoffset:0;stroke-width:2;"/>
   </g>
   <g id="patch_3">
    <path d="M 72 512.64 
L 72 69.12 
" style="fill:none;stroke:#000000;stroke-linecap:square;stroke-linejoin:miter;stroke-width:0.8;"/>
   </g>
   <g id="patch_4">
    <path d="M 518.4 512.64 
L 518.4 69.12 
" style="fill:none;stroke:#000000;stroke-linecap:square;stroke-linejoin:miter;stroke-width:0.8;"/>
   </g>
   <g id="patch_5">
    <path d="M 72 512.64 
L 518.4 512.64 
" style="fill:none;stroke:#000000;stroke-linecap:square;stroke-linejoin:miter;stroke-width:0.8;"/>
   </g>
   <g id="patch_6">
    <path d="M 72 69.12 
L 518.4 69.12 
" style="fill:none;stroke:#000000;stroke-linecap:square;stroke-linejoin:miter;stroke-width:0.8;"/>
   </g>
   <g id="legend_1">
    <g id="patch_7">
     <path d="M 427.081875 509.64 
L 514.2 509.64 
Q 515.4 509.64 515.4 508.44 
L 515.4 500.233125 
Q 515.4 499.033125 514.2 499.033125 
L 427.081875 499.033125 
Q 425.881875 499.033125 425.881875 500.233125 
L 425.881875 508.44 
Q 425.881875 509.64 427.081875 509.64 
z
" style="fill:#ffffff;opacity:0.8;stroke:#cccccc;stroke-linejoin:miter;"/>
    </g>
    <g id="line2d_27">
     <path d="M 428.281875 503.892187 
L 440.281875 503.892187 
" style="fill:none;stroke:#ff8c00;stroke-linecap:square;stroke-width:2;"/>
    </g>
    <g id="line2d_28"/>
    <g id="text_15">
     <!-- D006262 (area =0.89) -->
     <defs>
      <path d="M 19.671875 64.796875 
L 19.671875 8.109375 
L 31.59375 8.109375 
Q 46.6875 8.109375 53.6875 14.9375 
Q 60.6875 21.78125 60.6875 36.53125 
Q 60.6875 51.171875 53.6875 57.984375 
Q 46.6875 64.796875 31.59375 64.796875 
z
M 9.8125 72.90625 
L 30.078125 72.90625 
Q 51.265625 72.90625 61.171875 64.09375 
Q 71.09375 55.28125 71.09375 36.53125 
Q 71.09375 17.671875 61.125 8.828125 
Q 51.171875 0 30.078125 0 
L 9.8125 0 
z
" id="DejaVuSans-68"/>
      <path d="M 31 75.875 
Q 24.46875 64.65625 21.28125 53.65625 
Q 18.109375 42.671875 18.109375 31.390625 
Q 18.109375 20.125 21.3125 9.0625 
Q 24.515625 -2 31 -13.1875 
L 23.1875 -13.1875 
Q 15.875 -1.703125 12.234375 9.375 
Q 8.59375 20.453125 8.59375 31.390625 
Q 8.59375 42.28125 12.203125 53.3125 
Q 15.828125 64.359375 23.1875 75.875 
z
" id="DejaVuSans-40"/>
      <path d="M 10.59375 45.40625 
L 73.1875 45.40625 
L 73.1875 37.203125 
L 10.59375 37.203125 
z
M 10.59375 25.484375 
L 73.1875 25.484375 
L 73.1875 17.1875 
L 10.59375 17.1875 
z
" id="DejaVuSans-61"/>
      <path d="M 10.984375 1.515625 
L 10.984375 10.5 
Q 14.703125 8.734375 18.5 7.8125 
Q 22.3125 6.890625 25.984375 6.890625 
Q 35.75 6.890625 40.890625 13.453125 
Q 46.046875 20.015625 46.78125 33.40625 
Q 43.953125 29.203125 39.59375 26.953125 
Q 35.25 24.703125 29.984375 24.703125 
Q 19.046875 24.703125 12.671875 31.3125 
Q 6.296875 37.9375 6.296875 49.421875 
Q 6.296875 60.640625 12.9375 67.421875 
Q 19.578125 74.21875 30.609375 74.21875 
Q 43.265625 74.21875 49.921875 64.515625 
Q 56.59375 54.828125 56.59375 36.375 
Q 56.59375 19.140625 48.40625 8.859375 
Q 40.234375 -1.421875 26.421875 -1.421875 
Q 22.703125 -1.421875 18.890625 -0.6875 
Q 15.09375 0.046875 10.984375 1.515625 
z
M 30.609375 32.421875 
Q 37.25 32.421875 41.125 36.953125 
Q 45.015625 41.5 45.015625 49.421875 
Q 45.015625 57.28125 41.125 61.84375 
Q 37.25 66.40625 30.609375 66.40625 
Q 23.96875 66.40625 20.09375 61.84375 
Q 16.21875 57.28125 16.21875 49.421875 
Q 16.21875 41.5 20.09375 36.953125 
Q 23.96875 32.421875 30.609375 32.421875 
z
" id="DejaVuSans-57"/>
      <path d="M 8.015625 75.875 
L 15.828125 75.875 
Q 23.140625 64.359375 26.78125 53.3125 
Q 30.421875 42.28125 30.421875 31.390625 
Q 30.421875 20.453125 26.78125 9.375 
Q 23.140625 -1.703125 15.828125 -13.1875 
L 8.015625 -13.1875 
Q 14.5 -2 17.703125 9.0625 
Q 20.90625 20.125 20.90625 31.390625 
Q 20.90625 42.671875 17.703125 53.65625 
Q 14.5 64.65625 8.015625 75.875 
z
" id="DejaVuSans-41"/>
     </defs>
     <g transform="translate(445.081875 505.992188)scale(0.06 -0.06)">
      <use xlink:href="#DejaVuSans-68"/>
      <use x="77.001953" xlink:href="#DejaVuSans-48"/>
      <use x="140.625" xlink:href="#DejaVuSans-48"/>
      <use x="204.248047" xlink:href="#DejaVuSans-54"/>
      <use x="267.871094" xlink:href="#DejaVuSans-50"/>
      <use x="331.494141" xlink:href="#DejaVuSans-54"/>
      <use x="395.117188" xlink:href="#DejaVuSans-50"/>
      <use x="458.740234" xlink:href="#DejaVuSans-32"/>
      <use x="490.527344" xlink:href="#DejaVuSans-40"/>
      <use x="529.541016" xlink:href="#DejaVuSans-97"/>
      <use x="590.820312" xlink:href="#DejaVuSans-114"/>
      <use x="631.902344" xlink:href="#DejaVuSans-101"/>
      <use x="693.425781" xlink:href="#DejaVuSans-97"/>
      <use x="754.705078" xlink:href="#DejaVuSans-32"/>
      <use x="786.492188" xlink:href="#DejaVuSans-61"/>
      <use x="870.28125" xlink:href="#DejaVuSans-48"/>
      <use x="933.904297" xlink:href="#DejaVuSans-46"/>
      <use x="965.691406" xlink:href="#DejaVuSans-56"/>
      <use x="1029.314453" xlink:href="#DejaVuSans-57"/>
      <use x="1092.9375" xlink:href="#DejaVuSans-41"/>
     </g>
    </g>
   </g>
  </g>
 </g>
 <defs>
  <clipPath id="p1fca6df06d">
   <rect height="443.52" width="446.4" x="72" y="69.12"/>
  </clipPath>
 </defs>
</svg>
