<?xml version="1.0" encoding="utf-8" standalone="no"?>
<!DOCTYPE svg PUBLIC "-//W3C//DTD SVG 1.1//EN"
  "http://www.w3.org/Graphics/SVG/1.1/DTD/svg11.dtd">
<!-- Created with matplotlib (https://matplotlib.org/) -->
<svg height="576pt" version="1.1" viewBox="0 0 576 576" width="576pt" xmlns="http://www.w3.org/2000/svg" xmlns:xlink="http://www.w3.org/1999/xlink">
 <defs>
  <style type="text/css">
*{stroke-linecap:butt;stroke-linejoin:round;}
  </style>
 </defs>
 <g id="figure_1">
  <g id="patch_1">
   <path d="M 0 576 
L 576 576 
L 576 0 
L 0 0 
z
" style="fill:#ffffff;"/>
  </g>
  <g id="axes_1">
   <g id="patch_2">
    <path d="M 72 512.64 
L 518.4 512.64 
L 518.4 69.12 
L 72 69.12 
z
" style="fill:#ffffff;"/>
   </g>
   <g id="matplotlib.axis_1">
    <g id="xtick_1">
     <g id="line2d_1">
      <path clip-path="url(#pc6d23894ce)" d="M 72 512.64 
L 72 69.12 
" style="fill:none;stroke:#b0b0b0;stroke-linecap:square;stroke-width:0.8;"/>
     </g>
     <g id="line2d_2">
      <defs>
       <path d="M 0 0 
L 0 3.5 
" id="m0c1913df75" style="stroke:#000000;stroke-width:0.8;"/>
      </defs>
      <g>
       <use style="stroke:#000000;stroke-width:0.8;" x="72" xlink:href="#m0c1913df75" y="512.64"/>
      </g>
     </g>
     <g id="text_1">
      <!-- 0.0 -->
      <defs>
       <path d="M 31.78125 66.40625 
Q 24.171875 66.40625 20.328125 58.90625 
Q 16.5 51.421875 16.5 36.375 
Q 16.5 21.390625 20.328125 13.890625 
Q 24.171875 6.390625 31.78125 6.390625 
Q 39.453125 6.390625 43.28125 13.890625 
Q 47.125 21.390625 47.125 36.375 
Q 47.125 51.421875 43.28125 58.90625 
Q 39.453125 66.40625 31.78125 66.40625 
z
M 31.78125 74.21875 
Q 44.046875 74.21875 50.515625 64.515625 
Q 56.984375 54.828125 56.984375 36.375 
Q 56.984375 17.96875 50.515625 8.265625 
Q 44.046875 -1.421875 31.78125 -1.421875 
Q 19.53125 -1.421875 13.0625 8.265625 
Q 6.59375 17.96875 6.59375 36.375 
Q 6.59375 54.828125 13.0625 64.515625 
Q 19.53125 74.21875 31.78125 74.21875 
z
" id="DejaVuSans-48"/>
       <path d="M 10.6875 12.40625 
L 21 12.40625 
L 21 0 
L 10.6875 0 
z
" id="DejaVuSans-46"/>
      </defs>
      <g transform="translate(64.048438 527.238438)scale(0.1 -0.1)">
       <use xlink:href="#DejaVuSans-48"/>
       <use x="63.623047" xlink:href="#DejaVuSans-46"/>
       <use x="95.410156" xlink:href="#DejaVuSans-48"/>
      </g>
     </g>
    </g>
    <g id="xtick_2">
     <g id="line2d_3">
      <path clip-path="url(#pc6d23894ce)" d="M 161.28 512.64 
L 161.28 69.12 
" style="fill:none;stroke:#b0b0b0;stroke-linecap:square;stroke-width:0.8;"/>
     </g>
     <g id="line2d_4">
      <g>
       <use style="stroke:#000000;stroke-width:0.8;" x="161.28" xlink:href="#m0c1913df75" y="512.64"/>
      </g>
     </g>
     <g id="text_2">
      <!-- 0.2 -->
      <defs>
       <path d="M 19.1875 8.296875 
L 53.609375 8.296875 
L 53.609375 0 
L 7.328125 0 
L 7.328125 8.296875 
Q 12.9375 14.109375 22.625 23.890625 
Q 32.328125 33.6875 34.8125 36.53125 
Q 39.546875 41.84375 41.421875 45.53125 
Q 43.3125 49.21875 43.3125 52.78125 
Q 43.3125 58.59375 39.234375 62.25 
Q 35.15625 65.921875 28.609375 65.921875 
Q 23.96875 65.921875 18.8125 64.3125 
Q 13.671875 62.703125 7.8125 59.421875 
L 7.8125 69.390625 
Q 13.765625 71.78125 18.9375 73 
Q 24.125 74.21875 28.421875 74.21875 
Q 39.75 74.21875 46.484375 68.546875 
Q 53.21875 62.890625 53.21875 53.421875 
Q 53.21875 48.921875 51.53125 44.890625 
Q 49.859375 40.875 45.40625 35.40625 
Q 44.1875 33.984375 37.640625 27.21875 
Q 31.109375 20.453125 19.1875 8.296875 
z
" id="DejaVuSans-50"/>
      </defs>
      <g transform="translate(153.328438 527.238438)scale(0.1 -0.1)">
       <use xlink:href="#DejaVuSans-48"/>
       <use x="63.623047" xlink:href="#DejaVuSans-46"/>
       <use x="95.410156" xlink:href="#DejaVuSans-50"/>
      </g>
     </g>
    </g>
    <g id="xtick_3">
     <g id="line2d_5">
      <path clip-path="url(#pc6d23894ce)" d="M 250.56 512.64 
L 250.56 69.12 
" style="fill:none;stroke:#b0b0b0;stroke-linecap:square;stroke-width:0.8;"/>
     </g>
     <g id="line2d_6">
      <g>
       <use style="stroke:#000000;stroke-width:0.8;" x="250.56" xlink:href="#m0c1913df75" y="512.64"/>
      </g>
     </g>
     <g id="text_3">
      <!-- 0.4 -->
      <defs>
       <path d="M 37.796875 64.3125 
L 12.890625 25.390625 
L 37.796875 25.390625 
z
M 35.203125 72.90625 
L 47.609375 72.90625 
L 47.609375 25.390625 
L 58.015625 25.390625 
L 58.015625 17.1875 
L 47.609375 17.1875 
L 47.609375 0 
L 37.796875 0 
L 37.796875 17.1875 
L 4.890625 17.1875 
L 4.890625 26.703125 
z
" id="DejaVuSans-52"/>
      </defs>
      <g transform="translate(242.608438 527.238438)scale(0.1 -0.1)">
       <use xlink:href="#DejaVuSans-48"/>
       <use x="63.623047" xlink:href="#DejaVuSans-46"/>
       <use x="95.410156" xlink:href="#DejaVuSans-52"/>
      </g>
     </g>
    </g>
    <g id="xtick_4">
     <g id="line2d_7">
      <path clip-path="url(#pc6d23894ce)" d="M 339.84 512.64 
L 339.84 69.12 
" style="fill:none;stroke:#b0b0b0;stroke-linecap:square;stroke-width:0.8;"/>
     </g>
     <g id="line2d_8">
      <g>
       <use style="stroke:#000000;stroke-width:0.8;" x="339.84" xlink:href="#m0c1913df75" y="512.64"/>
      </g>
     </g>
     <g id="text_4">
      <!-- 0.6 -->
      <defs>
       <path d="M 33.015625 40.375 
Q 26.375 40.375 22.484375 35.828125 
Q 18.609375 31.296875 18.609375 23.390625 
Q 18.609375 15.53125 22.484375 10.953125 
Q 26.375 6.390625 33.015625 6.390625 
Q 39.65625 6.390625 43.53125 10.953125 
Q 47.40625 15.53125 47.40625 23.390625 
Q 47.40625 31.296875 43.53125 35.828125 
Q 39.65625 40.375 33.015625 40.375 
z
M 52.59375 71.296875 
L 52.59375 62.3125 
Q 48.875 64.0625 45.09375 64.984375 
Q 41.3125 65.921875 37.59375 65.921875 
Q 27.828125 65.921875 22.671875 59.328125 
Q 17.53125 52.734375 16.796875 39.40625 
Q 19.671875 43.65625 24.015625 45.921875 
Q 28.375 48.1875 33.59375 48.1875 
Q 44.578125 48.1875 50.953125 41.515625 
Q 57.328125 34.859375 57.328125 23.390625 
Q 57.328125 12.15625 50.6875 5.359375 
Q 44.046875 -1.421875 33.015625 -1.421875 
Q 20.359375 -1.421875 13.671875 8.265625 
Q 6.984375 17.96875 6.984375 36.375 
Q 6.984375 53.65625 15.1875 63.9375 
Q 23.390625 74.21875 37.203125 74.21875 
Q 40.921875 74.21875 44.703125 73.484375 
Q 48.484375 72.75 52.59375 71.296875 
z
" id="DejaVuSans-54"/>
      </defs>
      <g transform="translate(331.888438 527.238438)scale(0.1 -0.1)">
       <use xlink:href="#DejaVuSans-48"/>
       <use x="63.623047" xlink:href="#DejaVuSans-46"/>
       <use x="95.410156" xlink:href="#DejaVuSans-54"/>
      </g>
     </g>
    </g>
    <g id="xtick_5">
     <g id="line2d_9">
      <path clip-path="url(#pc6d23894ce)" d="M 429.12 512.64 
L 429.12 69.12 
" style="fill:none;stroke:#b0b0b0;stroke-linecap:square;stroke-width:0.8;"/>
     </g>
     <g id="line2d_10">
      <g>
       <use style="stroke:#000000;stroke-width:0.8;" x="429.12" xlink:href="#m0c1913df75" y="512.64"/>
      </g>
     </g>
     <g id="text_5">
      <!-- 0.8 -->
      <defs>
       <path d="M 31.78125 34.625 
Q 24.75 34.625 20.71875 30.859375 
Q 16.703125 27.09375 16.703125 20.515625 
Q 16.703125 13.921875 20.71875 10.15625 
Q 24.75 6.390625 31.78125 6.390625 
Q 38.8125 6.390625 42.859375 10.171875 
Q 46.921875 13.96875 46.921875 20.515625 
Q 46.921875 27.09375 42.890625 30.859375 
Q 38.875 34.625 31.78125 34.625 
z
M 21.921875 38.8125 
Q 15.578125 40.375 12.03125 44.71875 
Q 8.5 49.078125 8.5 55.328125 
Q 8.5 64.0625 14.71875 69.140625 
Q 20.953125 74.21875 31.78125 74.21875 
Q 42.671875 74.21875 48.875 69.140625 
Q 55.078125 64.0625 55.078125 55.328125 
Q 55.078125 49.078125 51.53125 44.71875 
Q 48 40.375 41.703125 38.8125 
Q 48.828125 37.15625 52.796875 32.3125 
Q 56.78125 27.484375 56.78125 20.515625 
Q 56.78125 9.90625 50.3125 4.234375 
Q 43.84375 -1.421875 31.78125 -1.421875 
Q 19.734375 -1.421875 13.25 4.234375 
Q 6.78125 9.90625 6.78125 20.515625 
Q 6.78125 27.484375 10.78125 32.3125 
Q 14.796875 37.15625 21.921875 38.8125 
z
M 18.3125 54.390625 
Q 18.3125 48.734375 21.84375 45.5625 
Q 25.390625 42.390625 31.78125 42.390625 
Q 38.140625 42.390625 41.71875 45.5625 
Q 45.3125 48.734375 45.3125 54.390625 
Q 45.3125 60.0625 41.71875 63.234375 
Q 38.140625 66.40625 31.78125 66.40625 
Q 25.390625 66.40625 21.84375 63.234375 
Q 18.3125 60.0625 18.3125 54.390625 
z
" id="DejaVuSans-56"/>
      </defs>
      <g transform="translate(421.168437 527.238438)scale(0.1 -0.1)">
       <use xlink:href="#DejaVuSans-48"/>
       <use x="63.623047" xlink:href="#DejaVuSans-46"/>
       <use x="95.410156" xlink:href="#DejaVuSans-56"/>
      </g>
     </g>
    </g>
    <g id="xtick_6">
     <g id="line2d_11">
      <path clip-path="url(#pc6d23894ce)" d="M 518.4 512.64 
L 518.4 69.12 
" style="fill:none;stroke:#b0b0b0;stroke-linecap:square;stroke-width:0.8;"/>
     </g>
     <g id="line2d_12">
      <g>
       <use style="stroke:#000000;stroke-width:0.8;" x="518.4" xlink:href="#m0c1913df75" y="512.64"/>
      </g>
     </g>
     <g id="text_6">
      <!-- 1.0 -->
      <defs>
       <path d="M 12.40625 8.296875 
L 28.515625 8.296875 
L 28.515625 63.921875 
L 10.984375 60.40625 
L 10.984375 69.390625 
L 28.421875 72.90625 
L 38.28125 72.90625 
L 38.28125 8.296875 
L 54.390625 8.296875 
L 54.390625 0 
L 12.40625 0 
z
" id="DejaVuSans-49"/>
      </defs>
      <g transform="translate(510.448437 527.238438)scale(0.1 -0.1)">
       <use xlink:href="#DejaVuSans-49"/>
       <use x="63.623047" xlink:href="#DejaVuSans-46"/>
       <use x="95.410156" xlink:href="#DejaVuSans-48"/>
      </g>
     </g>
    </g>
    <g id="text_7">
     <!-- False Positive Rate -->
     <defs>
      <path d="M 9.8125 72.90625 
L 51.703125 72.90625 
L 51.703125 64.59375 
L 19.671875 64.59375 
L 19.671875 43.109375 
L 48.578125 43.109375 
L 48.578125 34.8125 
L 19.671875 34.8125 
L 19.671875 0 
L 9.8125 0 
z
" id="DejaVuSans-70"/>
      <path d="M 34.28125 27.484375 
Q 23.390625 27.484375 19.1875 25 
Q 14.984375 22.515625 14.984375 16.5 
Q 14.984375 11.71875 18.140625 8.90625 
Q 21.296875 6.109375 26.703125 6.109375 
Q 34.1875 6.109375 38.703125 11.40625 
Q 43.21875 16.703125 43.21875 25.484375 
L 43.21875 27.484375 
z
M 52.203125 31.203125 
L 52.203125 0 
L 43.21875 0 
L 43.21875 8.296875 
Q 40.140625 3.328125 35.546875 0.953125 
Q 30.953125 -1.421875 24.3125 -1.421875 
Q 15.921875 -1.421875 10.953125 3.296875 
Q 6 8.015625 6 15.921875 
Q 6 25.140625 12.171875 29.828125 
Q 18.359375 34.515625 30.609375 34.515625 
L 43.21875 34.515625 
L 43.21875 35.40625 
Q 43.21875 41.609375 39.140625 45 
Q 35.0625 48.390625 27.6875 48.390625 
Q 23 48.390625 18.546875 47.265625 
Q 14.109375 46.140625 10.015625 43.890625 
L 10.015625 52.203125 
Q 14.9375 54.109375 19.578125 55.046875 
Q 24.21875 56 28.609375 56 
Q 40.484375 56 46.34375 49.84375 
Q 52.203125 43.703125 52.203125 31.203125 
z
" id="DejaVuSans-97"/>
      <path d="M 9.421875 75.984375 
L 18.40625 75.984375 
L 18.40625 0 
L 9.421875 0 
z
" id="DejaVuSans-108"/>
      <path d="M 44.28125 53.078125 
L 44.28125 44.578125 
Q 40.484375 46.53125 36.375 47.5 
Q 32.28125 48.484375 27.875 48.484375 
Q 21.1875 48.484375 17.84375 46.4375 
Q 14.5 44.390625 14.5 40.28125 
Q 14.5 37.15625 16.890625 35.375 
Q 19.28125 33.59375 26.515625 31.984375 
L 29.59375 31.296875 
Q 39.15625 29.25 43.1875 25.515625 
Q 47.21875 21.78125 47.21875 15.09375 
Q 47.21875 7.46875 41.1875 3.015625 
Q 35.15625 -1.421875 24.609375 -1.421875 
Q 20.21875 -1.421875 15.453125 -0.5625 
Q 10.6875 0.296875 5.421875 2 
L 5.421875 11.28125 
Q 10.40625 8.6875 15.234375 7.390625 
Q 20.0625 6.109375 24.8125 6.109375 
Q 31.15625 6.109375 34.5625 8.28125 
Q 37.984375 10.453125 37.984375 14.40625 
Q 37.984375 18.0625 35.515625 20.015625 
Q 33.0625 21.96875 24.703125 23.78125 
L 21.578125 24.515625 
Q 13.234375 26.265625 9.515625 29.90625 
Q 5.8125 33.546875 5.8125 39.890625 
Q 5.8125 47.609375 11.28125 51.796875 
Q 16.75 56 26.8125 56 
Q 31.78125 56 36.171875 55.265625 
Q 40.578125 54.546875 44.28125 53.078125 
z
" id="DejaVuSans-115"/>
      <path d="M 56.203125 29.59375 
L 56.203125 25.203125 
L 14.890625 25.203125 
Q 15.484375 15.921875 20.484375 11.0625 
Q 25.484375 6.203125 34.421875 6.203125 
Q 39.59375 6.203125 44.453125 7.46875 
Q 49.3125 8.734375 54.109375 11.28125 
L 54.109375 2.78125 
Q 49.265625 0.734375 44.1875 -0.34375 
Q 39.109375 -1.421875 33.890625 -1.421875 
Q 20.796875 -1.421875 13.15625 6.1875 
Q 5.515625 13.8125 5.515625 26.8125 
Q 5.515625 40.234375 12.765625 48.109375 
Q 20.015625 56 32.328125 56 
Q 43.359375 56 49.78125 48.890625 
Q 56.203125 41.796875 56.203125 29.59375 
z
M 47.21875 32.234375 
Q 47.125 39.59375 43.09375 43.984375 
Q 39.0625 48.390625 32.421875 48.390625 
Q 24.90625 48.390625 20.390625 44.140625 
Q 15.875 39.890625 15.1875 32.171875 
z
" id="DejaVuSans-101"/>
      <path id="DejaVuSans-32"/>
      <path d="M 19.671875 64.796875 
L 19.671875 37.40625 
L 32.078125 37.40625 
Q 38.96875 37.40625 42.71875 40.96875 
Q 46.484375 44.53125 46.484375 51.125 
Q 46.484375 57.671875 42.71875 61.234375 
Q 38.96875 64.796875 32.078125 64.796875 
z
M 9.8125 72.90625 
L 32.078125 72.90625 
Q 44.34375 72.90625 50.609375 67.359375 
Q 56.890625 61.8125 56.890625 51.125 
Q 56.890625 40.328125 50.609375 34.8125 
Q 44.34375 29.296875 32.078125 29.296875 
L 19.671875 29.296875 
L 19.671875 0 
L 9.8125 0 
z
" id="DejaVuSans-80"/>
      <path d="M 30.609375 48.390625 
Q 23.390625 48.390625 19.1875 42.75 
Q 14.984375 37.109375 14.984375 27.296875 
Q 14.984375 17.484375 19.15625 11.84375 
Q 23.34375 6.203125 30.609375 6.203125 
Q 37.796875 6.203125 41.984375 11.859375 
Q 46.1875 17.53125 46.1875 27.296875 
Q 46.1875 37.015625 41.984375 42.703125 
Q 37.796875 48.390625 30.609375 48.390625 
z
M 30.609375 56 
Q 42.328125 56 49.015625 48.375 
Q 55.71875 40.765625 55.71875 27.296875 
Q 55.71875 13.875 49.015625 6.21875 
Q 42.328125 -1.421875 30.609375 -1.421875 
Q 18.84375 -1.421875 12.171875 6.21875 
Q 5.515625 13.875 5.515625 27.296875 
Q 5.515625 40.765625 12.171875 48.375 
Q 18.84375 56 30.609375 56 
z
" id="DejaVuSans-111"/>
      <path d="M 9.421875 54.6875 
L 18.40625 54.6875 
L 18.40625 0 
L 9.421875 0 
z
M 9.421875 75.984375 
L 18.40625 75.984375 
L 18.40625 64.59375 
L 9.421875 64.59375 
z
" id="DejaVuSans-105"/>
      <path d="M 18.3125 70.21875 
L 18.3125 54.6875 
L 36.8125 54.6875 
L 36.8125 47.703125 
L 18.3125 47.703125 
L 18.3125 18.015625 
Q 18.3125 11.328125 20.140625 9.421875 
Q 21.96875 7.515625 27.59375 7.515625 
L 36.8125 7.515625 
L 36.8125 0 
L 27.59375 0 
Q 17.1875 0 13.234375 3.875 
Q 9.28125 7.765625 9.28125 18.015625 
L 9.28125 47.703125 
L 2.6875 47.703125 
L 2.6875 54.6875 
L 9.28125 54.6875 
L 9.28125 70.21875 
z
" id="DejaVuSans-116"/>
      <path d="M 2.984375 54.6875 
L 12.5 54.6875 
L 29.59375 8.796875 
L 46.6875 54.6875 
L 56.203125 54.6875 
L 35.6875 0 
L 23.484375 0 
z
" id="DejaVuSans-118"/>
      <path d="M 44.390625 34.1875 
Q 47.5625 33.109375 50.5625 29.59375 
Q 53.5625 26.078125 56.59375 19.921875 
L 66.609375 0 
L 56 0 
L 46.6875 18.703125 
Q 43.0625 26.03125 39.671875 28.421875 
Q 36.28125 30.8125 30.421875 30.8125 
L 19.671875 30.8125 
L 19.671875 0 
L 9.8125 0 
L 9.8125 72.90625 
L 32.078125 72.90625 
Q 44.578125 72.90625 50.734375 67.671875 
Q 56.890625 62.453125 56.890625 51.90625 
Q 56.890625 45.015625 53.6875 40.46875 
Q 50.484375 35.9375 44.390625 34.1875 
z
M 19.671875 64.796875 
L 19.671875 38.921875 
L 32.078125 38.921875 
Q 39.203125 38.921875 42.84375 42.21875 
Q 46.484375 45.515625 46.484375 51.90625 
Q 46.484375 58.296875 42.84375 61.546875 
Q 39.203125 64.796875 32.078125 64.796875 
z
" id="DejaVuSans-82"/>
     </defs>
     <g transform="translate(247.994531 540.916563)scale(0.1 -0.1)">
      <use xlink:href="#DejaVuSans-70"/>
      <use x="57.378906" xlink:href="#DejaVuSans-97"/>
      <use x="118.658203" xlink:href="#DejaVuSans-108"/>
      <use x="146.441406" xlink:href="#DejaVuSans-115"/>
      <use x="198.541016" xlink:href="#DejaVuSans-101"/>
      <use x="260.064453" xlink:href="#DejaVuSans-32"/>
      <use x="291.851562" xlink:href="#DejaVuSans-80"/>
      <use x="352.107422" xlink:href="#DejaVuSans-111"/>
      <use x="413.289062" xlink:href="#DejaVuSans-115"/>
      <use x="465.388672" xlink:href="#DejaVuSans-105"/>
      <use x="493.171875" xlink:href="#DejaVuSans-116"/>
      <use x="532.380859" xlink:href="#DejaVuSans-105"/>
      <use x="560.164062" xlink:href="#DejaVuSans-118"/>
      <use x="619.34375" xlink:href="#DejaVuSans-101"/>
      <use x="680.867188" xlink:href="#DejaVuSans-32"/>
      <use x="712.654297" xlink:href="#DejaVuSans-82"/>
      <use x="782.105469" xlink:href="#DejaVuSans-97"/>
      <use x="843.384766" xlink:href="#DejaVuSans-116"/>
      <use x="882.59375" xlink:href="#DejaVuSans-101"/>
     </g>
    </g>
   </g>
   <g id="matplotlib.axis_2">
    <g id="ytick_1">
     <g id="line2d_13">
      <path clip-path="url(#pc6d23894ce)" d="M 72 512.64 
L 518.4 512.64 
" style="fill:none;stroke:#b0b0b0;stroke-linecap:square;stroke-width:0.8;"/>
     </g>
     <g id="line2d_14">
      <defs>
       <path d="M 0 0 
L -3.5 0 
" id="m5dd3993001" style="stroke:#000000;stroke-width:0.8;"/>
      </defs>
      <g>
       <use style="stroke:#000000;stroke-width:0.8;" x="72" xlink:href="#m5dd3993001" y="512.64"/>
      </g>
     </g>
     <g id="text_8">
      <!-- 0.0 -->
      <g transform="translate(49.096875 516.439219)scale(0.1 -0.1)">
       <use xlink:href="#DejaVuSans-48"/>
       <use x="63.623047" xlink:href="#DejaVuSans-46"/>
       <use x="95.410156" xlink:href="#DejaVuSans-48"/>
      </g>
     </g>
    </g>
    <g id="ytick_2">
     <g id="line2d_15">
      <path clip-path="url(#pc6d23894ce)" d="M 72 428.16 
L 518.4 428.16 
" style="fill:none;stroke:#b0b0b0;stroke-linecap:square;stroke-width:0.8;"/>
     </g>
     <g id="line2d_16">
      <g>
       <use style="stroke:#000000;stroke-width:0.8;" x="72" xlink:href="#m5dd3993001" y="428.16"/>
      </g>
     </g>
     <g id="text_9">
      <!-- 0.2 -->
      <g transform="translate(49.096875 431.959219)scale(0.1 -0.1)">
       <use xlink:href="#DejaVuSans-48"/>
       <use x="63.623047" xlink:href="#DejaVuSans-46"/>
       <use x="95.410156" xlink:href="#DejaVuSans-50"/>
      </g>
     </g>
    </g>
    <g id="ytick_3">
     <g id="line2d_17">
      <path clip-path="url(#pc6d23894ce)" d="M 72 343.68 
L 518.4 343.68 
" style="fill:none;stroke:#b0b0b0;stroke-linecap:square;stroke-width:0.8;"/>
     </g>
     <g id="line2d_18">
      <g>
       <use style="stroke:#000000;stroke-width:0.8;" x="72" xlink:href="#m5dd3993001" y="343.68"/>
      </g>
     </g>
     <g id="text_10">
      <!-- 0.4 -->
      <g transform="translate(49.096875 347.479219)scale(0.1 -0.1)">
       <use xlink:href="#DejaVuSans-48"/>
       <use x="63.623047" xlink:href="#DejaVuSans-46"/>
       <use x="95.410156" xlink:href="#DejaVuSans-52"/>
      </g>
     </g>
    </g>
    <g id="ytick_4">
     <g id="line2d_19">
      <path clip-path="url(#pc6d23894ce)" d="M 72 259.2 
L 518.4 259.2 
" style="fill:none;stroke:#b0b0b0;stroke-linecap:square;stroke-width:0.8;"/>
     </g>
     <g id="line2d_20">
      <g>
       <use style="stroke:#000000;stroke-width:0.8;" x="72" xlink:href="#m5dd3993001" y="259.2"/>
      </g>
     </g>
     <g id="text_11">
      <!-- 0.6 -->
      <g transform="translate(49.096875 262.999219)scale(0.1 -0.1)">
       <use xlink:href="#DejaVuSans-48"/>
       <use x="63.623047" xlink:href="#DejaVuSans-46"/>
       <use x="95.410156" xlink:href="#DejaVuSans-54"/>
      </g>
     </g>
    </g>
    <g id="ytick_5">
     <g id="line2d_21">
      <path clip-path="url(#pc6d23894ce)" d="M 72 174.72 
L 518.4 174.72 
" style="fill:none;stroke:#b0b0b0;stroke-linecap:square;stroke-width:0.8;"/>
     </g>
     <g id="line2d_22">
      <g>
       <use style="stroke:#000000;stroke-width:0.8;" x="72" xlink:href="#m5dd3993001" y="174.72"/>
      </g>
     </g>
     <g id="text_12">
      <!-- 0.8 -->
      <g transform="translate(49.096875 178.519219)scale(0.1 -0.1)">
       <use xlink:href="#DejaVuSans-48"/>
       <use x="63.623047" xlink:href="#DejaVuSans-46"/>
       <use x="95.410156" xlink:href="#DejaVuSans-56"/>
      </g>
     </g>
    </g>
    <g id="ytick_6">
     <g id="line2d_23">
      <path clip-path="url(#pc6d23894ce)" d="M 72 90.24 
L 518.4 90.24 
" style="fill:none;stroke:#b0b0b0;stroke-linecap:square;stroke-width:0.8;"/>
     </g>
     <g id="line2d_24">
      <g>
       <use style="stroke:#000000;stroke-width:0.8;" x="72" xlink:href="#m5dd3993001" y="90.24"/>
      </g>
     </g>
     <g id="text_13">
      <!-- 1.0 -->
      <g transform="translate(49.096875 94.039219)scale(0.1 -0.1)">
       <use xlink:href="#DejaVuSans-49"/>
       <use x="63.623047" xlink:href="#DejaVuSans-46"/>
       <use x="95.410156" xlink:href="#DejaVuSans-48"/>
      </g>
     </g>
    </g>
    <g id="text_14">
     <!-- True Positive Rate -->
     <defs>
      <path d="M -0.296875 72.90625 
L 61.375 72.90625 
L 61.375 64.59375 
L 35.5 64.59375 
L 35.5 0 
L 25.59375 0 
L 25.59375 64.59375 
L -0.296875 64.59375 
z
" id="DejaVuSans-84"/>
      <path d="M 41.109375 46.296875 
Q 39.59375 47.171875 37.8125 47.578125 
Q 36.03125 48 33.890625 48 
Q 26.265625 48 22.1875 43.046875 
Q 18.109375 38.09375 18.109375 28.8125 
L 18.109375 0 
L 9.078125 0 
L 9.078125 54.6875 
L 18.109375 54.6875 
L 18.109375 46.1875 
Q 20.953125 51.171875 25.484375 53.578125 
Q 30.03125 56 36.53125 56 
Q 37.453125 56 38.578125 55.875 
Q 39.703125 55.765625 41.0625 55.515625 
z
" id="DejaVuSans-114"/>
      <path d="M 8.5 21.578125 
L 8.5 54.6875 
L 17.484375 54.6875 
L 17.484375 21.921875 
Q 17.484375 14.15625 20.5 10.265625 
Q 23.53125 6.390625 29.59375 6.390625 
Q 36.859375 6.390625 41.078125 11.03125 
Q 45.3125 15.671875 45.3125 23.6875 
L 45.3125 54.6875 
L 54.296875 54.6875 
L 54.296875 0 
L 45.3125 0 
L 45.3125 8.40625 
Q 42.046875 3.421875 37.71875 1 
Q 33.40625 -1.421875 27.6875 -1.421875 
Q 18.265625 -1.421875 13.375 4.4375 
Q 8.5 10.296875 8.5 21.578125 
z
M 31.109375 56 
z
" id="DejaVuSans-117"/>
     </defs>
     <g transform="translate(43.017187 336.426094)rotate(-90)scale(0.1 -0.1)">
      <use xlink:href="#DejaVuSans-84"/>
      <use x="60.865234" xlink:href="#DejaVuSans-114"/>
      <use x="101.978516" xlink:href="#DejaVuSans-117"/>
      <use x="165.357422" xlink:href="#DejaVuSans-101"/>
      <use x="226.880859" xlink:href="#DejaVuSans-32"/>
      <use x="258.667969" xlink:href="#DejaVuSans-80"/>
      <use x="318.923828" xlink:href="#DejaVuSans-111"/>
      <use x="380.105469" xlink:href="#DejaVuSans-115"/>
      <use x="432.205078" xlink:href="#DejaVuSans-105"/>
      <use x="459.988281" xlink:href="#DejaVuSans-116"/>
      <use x="499.197266" xlink:href="#DejaVuSans-105"/>
      <use x="526.980469" xlink:href="#DejaVuSans-118"/>
      <use x="586.160156" xlink:href="#DejaVuSans-101"/>
      <use x="647.683594" xlink:href="#DejaVuSans-32"/>
      <use x="679.470703" xlink:href="#DejaVuSans-82"/>
      <use x="748.921875" xlink:href="#DejaVuSans-97"/>
      <use x="810.201172" xlink:href="#DejaVuSans-116"/>
      <use x="849.410156" xlink:href="#DejaVuSans-101"/>
     </g>
    </g>
   </g>
   <g id="line2d_25">
    <path clip-path="url(#pc6d23894ce)" d="M 72 512.64 
L 72 506.86359 
L 72.609004 506.86359 
L 72.609004 489.534359 
L 73.218008 489.534359 
L 73.218008 488.090256 
L 73.827012 488.090256 
L 73.827012 484.48 
L 74.436016 484.48 
L 74.436016 483.757949 
L 75.04502 483.757949 
L 75.04502 475.454359 
L 75.654025 475.454359 
L 75.654025 463.179487 
L 76.263029 463.179487 
L 76.263029 462.09641 
L 76.872033 462.09641 
L 76.872033 461.374359 
L 77.481037 461.374359 
L 77.481037 454.875897 
L 78.090041 454.875897 
L 78.090041 450.182564 
L 78.699045 450.182564 
L 78.699045 431.048205 
L 79.308049 431.048205 
L 79.308049 430.687179 
L 79.917053 430.687179 
L 79.917053 425.271795 
L 80.526057 425.271795 
L 80.526057 415.885128 
L 81.135061 415.885128 
L 81.135061 407.942564 
L 81.744065 407.942564 
L 81.744065 407.220513 
L 82.35307 407.220513 
L 82.35307 402.527179 
L 82.962074 402.527179 
L 82.962074 401.083077 
L 83.571078 401.083077 
L 83.571078 398.194872 
L 84.180082 398.194872 
L 84.180082 395.667692 
L 84.789086 395.667692 
L 84.789086 393.862564 
L 85.39809 393.862564 
L 85.39809 389.530256 
L 86.007094 389.530256 
L 86.007094 384.836923 
L 86.616098 384.836923 
L 86.616098 381.587692 
L 87.225102 381.587692 
L 87.225102 380.14359 
L 87.834106 380.14359 
L 87.834106 376.172308 
L 88.443111 376.172308 
L 88.443111 365.341538 
L 89.052115 365.341538 
L 89.052115 364.980513 
L 89.661119 364.980513 
L 89.661119 354.871795 
L 90.270123 354.871795 
L 90.270123 347.290256 
L 90.879127 347.290256 
L 90.879127 341.152821 
L 91.488131 341.152821 
L 91.488131 339.347692 
L 92.097135 339.347692 
L 92.097135 338.625641 
L 92.706139 338.625641 
L 92.706139 334.293333 
L 93.924147 334.293333 
L 93.924147 332.127179 
L 94.533151 332.127179 
L 94.533151 331.044103 
L 95.142156 331.044103 
L 95.142156 330.322051 
L 95.75116 330.322051 
L 95.75116 324.184615 
L 96.360164 324.184615 
L 96.360164 322.379487 
L 96.969168 322.379487 
L 96.969168 305.772308 
L 97.578172 305.772308 
L 97.578172 297.829744 
L 98.187176 297.829744 
L 98.187176 296.385641 
L 98.79618 296.385641 
L 98.79618 294.941538 
L 99.405184 294.941538 
L 99.405184 290.248205 
L 100.014188 290.248205 
L 100.014188 285.554872 
L 101.232196 285.554872 
L 101.232196 283.749744 
L 101.841201 283.749744 
L 101.841201 281.944615 
L 102.450205 281.944615 
L 102.450205 279.05641 
L 103.668213 279.05641 
L 103.668213 278.334359 
L 104.277217 278.334359 
L 104.277217 277.251282 
L 104.886221 277.251282 
L 104.886221 276.890256 
L 105.495225 276.890256 
L 105.495225 270.752821 
L 106.104229 270.752821 
L 106.104229 265.698462 
L 106.713233 265.698462 
L 106.713233 259.922051 
L 107.322237 259.922051 
L 107.322237 255.228718 
L 107.931241 255.228718 
L 107.931241 251.979487 
L 109.758254 251.979487 
L 109.758254 245.842051 
L 110.367258 245.842051 
L 110.367258 244.758974 
L 110.976262 244.758974 
L 110.976262 233.567179 
L 112.19427 233.567179 
L 112.19427 231.762051 
L 112.803274 231.762051 
L 112.803274 230.317949 
L 113.412278 230.317949 
L 113.412278 228.873846 
L 114.630286 228.873846 
L 114.630286 228.512821 
L 115.239291 228.512821 
L 115.239291 226.707692 
L 115.848295 226.707692 
L 115.848295 224.180513 
L 116.457299 224.180513 
L 116.457299 220.570256 
L 117.675307 220.570256 
L 117.675307 220.209231 
L 118.284311 220.209231 
L 118.284311 218.765128 
L 118.893315 218.765128 
L 118.893315 217.321026 
L 121.329332 217.321026 
L 121.329332 216.96 
L 121.938336 216.96 
L 121.938336 215.515897 
L 122.54734 215.515897 
L 122.54734 214.432821 
L 123.156344 214.432821 
L 123.156344 212.988718 
L 123.765348 212.988718 
L 123.765348 212.266667 
L 124.374352 212.266667 
L 124.374352 210.822564 
L 124.983356 210.822564 
L 124.983356 210.100513 
L 125.59236 210.100513 
L 125.59236 209.739487 
L 126.201364 209.739487 
L 126.201364 208.65641 
L 126.810368 208.65641 
L 126.810368 205.768205 
L 128.028377 205.768205 
L 128.028377 205.046154 
L 128.637381 205.046154 
L 128.637381 204.685128 
L 129.246385 204.685128 
L 129.246385 204.324103 
L 129.855389 204.324103 
L 129.855389 203.963077 
L 131.073397 203.963077 
L 131.073397 202.157949 
L 131.682401 202.157949 
L 131.682401 201.435897 
L 132.900409 201.435897 
L 132.900409 200.713846 
L 133.509413 200.713846 
L 133.509413 199.630769 
L 134.727422 199.630769 
L 134.727422 199.269744 
L 135.94543 199.269744 
L 135.94543 198.908718 
L 136.554434 198.908718 
L 136.554434 197.825641 
L 137.163438 197.825641 
L 137.163438 197.464615 
L 138.381446 197.464615 
L 138.381446 197.10359 
L 139.599454 197.10359 
L 139.599454 196.381538 
L 141.426467 196.381538 
L 141.426467 196.020513 
L 142.035471 196.020513 
L 142.035471 195.659487 
L 143.253479 195.659487 
L 143.253479 194.57641 
L 144.471487 194.57641 
L 144.471487 193.854359 
L 145.080491 193.854359 
L 145.080491 193.132308 
L 146.298499 193.132308 
L 146.298499 192.049231 
L 147.516508 192.049231 
L 147.516508 191.688205 
L 148.125512 191.688205 
L 148.125512 190.244103 
L 148.734516 190.244103 
L 148.734516 188.438974 
L 149.34352 188.438974 
L 149.34352 187.355897 
L 150.561528 187.355897 
L 150.561528 185.189744 
L 151.779536 185.189744 
L 151.779536 184.828718 
L 152.38854 184.828718 
L 152.38854 184.106667 
L 152.997544 184.106667 
L 152.997544 180.857436 
L 153.606548 180.857436 
L 153.606548 180.49641 
L 154.215553 180.49641 
L 154.215553 180.135385 
L 156.042565 180.135385 
L 156.042565 179.774359 
L 156.651569 179.774359 
L 156.651569 179.413333 
L 158.478581 179.413333 
L 158.478581 179.052308 
L 159.696589 179.052308 
L 159.696589 178.330256 
L 160.305593 178.330256 
L 160.305593 176.886154 
L 162.132606 176.886154 
L 162.132606 176.164103 
L 162.74161 176.164103 
L 162.74161 175.442051 
L 163.350614 175.442051 
L 163.350614 175.081026 
L 164.568622 175.081026 
L 164.568622 174.72 
L 165.177626 174.72 
L 165.177626 174.358974 
L 165.78663 174.358974 
L 165.78663 173.636923 
L 167.004638 173.636923 
L 167.004638 173.275897 
L 167.613643 173.275897 
L 167.613643 172.914872 
L 168.831651 172.914872 
L 168.831651 172.553846 
L 169.440655 172.553846 
L 169.440655 171.831795 
L 170.049659 171.831795 
L 170.049659 171.109744 
L 171.267667 171.109744 
L 171.267667 170.026667 
L 173.094679 170.026667 
L 173.094679 169.665641 
L 174.312688 169.665641 
L 174.312688 168.94359 
L 175.530696 168.94359 
L 175.530696 168.221538 
L 176.1397 168.221538 
L 176.1397 166.777436 
L 176.748704 166.777436 
L 176.748704 166.41641 
L 177.357708 166.41641 
L 177.357708 164.972308 
L 177.966712 164.972308 
L 177.966712 162.806154 
L 178.575716 162.806154 
L 178.575716 161.723077 
L 180.402729 161.723077 
L 180.402729 161.001026 
L 182.229741 161.001026 
L 182.229741 160.64 
L 183.447749 160.64 
L 183.447749 159.917949 
L 184.056753 159.917949 
L 184.056753 159.556923 
L 185.274761 159.556923 
L 185.274761 159.195897 
L 185.883765 159.195897 
L 185.883765 158.834872 
L 186.492769 158.834872 
L 186.492769 158.473846 
L 187.101774 158.473846 
L 187.101774 156.668718 
L 187.710778 156.668718 
L 187.710778 155.946667 
L 188.319782 155.946667 
L 188.319782 153.780513 
L 189.53779 153.780513 
L 189.53779 153.419487 
L 190.755798 153.419487 
L 190.755798 153.058462 
L 191.973806 153.058462 
L 191.973806 152.33641 
L 192.58281 152.33641 
L 192.58281 151.975385 
L 193.191814 151.975385 
L 193.191814 149.809231 
L 195.627831 149.809231 
L 195.627831 148.365128 
L 196.236835 148.365128 
L 196.236835 148.004103 
L 197.454843 148.004103 
L 197.454843 147.282051 
L 198.063847 147.282051 
L 198.063847 146.198974 
L 198.672851 146.198974 
L 198.672851 145.476923 
L 199.281855 145.476923 
L 199.281855 144.754872 
L 199.890859 144.754872 
L 199.890859 143.671795 
L 200.499864 143.671795 
L 200.499864 143.310769 
L 201.108868 143.310769 
L 201.108868 142.949744 
L 202.93588 142.949744 
L 202.93588 142.588718 
L 204.153888 142.588718 
L 204.153888 142.227692 
L 204.762892 142.227692 
L 204.762892 141.505641 
L 205.9809 141.505641 
L 205.9809 140.78359 
L 207.807913 140.78359 
L 207.807913 140.422564 
L 208.416917 140.422564 
L 208.416917 140.061538 
L 209.634925 140.061538 
L 209.634925 139.339487 
L 212.679945 139.339487 
L 212.679945 138.978462 
L 213.28895 138.978462 
L 213.28895 138.617436 
L 213.897954 138.617436 
L 213.897954 138.25641 
L 214.506958 138.25641 
L 214.506958 135.729231 
L 215.115962 135.729231 
L 215.115962 135.368205 
L 216.33397 135.368205 
L 216.33397 135.007179 
L 219.37899 135.007179 
L 219.37899 134.285128 
L 221.815007 134.285128 
L 221.815007 133.924103 
L 224.251023 133.924103 
L 224.251023 133.202051 
L 227.296044 133.202051 
L 227.296044 132.841026 
L 227.905048 132.841026 
L 227.905048 132.118974 
L 228.514052 132.118974 
L 228.514052 131.757949 
L 229.73206 131.757949 
L 229.73206 131.396923 
L 230.341064 131.396923 
L 230.341064 131.035897 
L 232.77708 131.035897 
L 232.77708 130.313846 
L 233.995089 130.313846 
L 233.995089 129.952821 
L 234.604093 129.952821 
L 234.604093 129.591795 
L 238.258117 129.591795 
L 238.258117 129.230769 
L 238.867121 129.230769 
L 238.867121 128.508718 
L 239.476126 128.508718 
L 239.476126 128.147692 
L 240.694134 128.147692 
L 240.694134 127.786667 
L 243.13015 127.786667 
L 243.13015 127.425641 
L 245.566166 127.425641 
L 245.566166 126.70359 
L 247.393179 126.70359 
L 247.393179 125.620513 
L 249.220191 125.620513 
L 249.220191 125.259487 
L 249.829195 125.259487 
L 249.829195 124.898462 
L 251.047203 124.898462 
L 251.047203 124.537436 
L 253.48322 124.537436 
L 253.48322 124.17641 
L 254.092224 124.17641 
L 254.092224 123.815385 
L 263.227285 123.815385 
L 263.227285 123.454359 
L 264.445293 123.454359 
L 264.445293 123.093333 
L 266.88131 123.093333 
L 266.88131 122.371282 
L 268.099318 122.371282 
L 268.099318 122.010256 
L 269.317326 122.010256 
L 269.317326 121.649231 
L 272.362347 121.649231 
L 272.362347 121.288205 
L 272.971351 121.288205 
L 272.971351 120.927179 
L 274.189359 120.927179 
L 274.189359 120.566154 
L 276.016371 120.566154 
L 276.016371 119.844103 
L 277.843383 119.844103 
L 277.843383 119.483077 
L 279.670396 119.483077 
L 279.670396 119.122051 
L 285.760437 119.122051 
L 285.760437 118.761026 
L 288.196453 118.761026 
L 288.196453 118.4 
L 290.023465 118.4 
L 290.023465 118.038974 
L 295.504502 118.038974 
L 295.504502 117.677949 
L 296.72251 117.677949 
L 296.72251 116.955897 
L 297.331514 116.955897 
L 297.331514 116.594872 
L 299.767531 116.594872 
L 299.767531 116.233846 
L 302.203547 116.233846 
L 302.203547 114.789744 
L 307.684584 114.789744 
L 307.684584 114.428718 
L 311.947613 114.428718 
L 311.947613 114.067692 
L 318.646658 114.067692 
L 318.646658 113.706667 
L 322.909686 113.706667 
L 322.909686 112.62359 
L 325.954707 112.62359 
L 325.954707 111.901538 
L 328.390723 111.901538 
L 328.390723 111.540513 
L 329.608731 111.540513 
L 329.608731 111.179487 
L 331.435744 111.179487 
L 331.435744 110.818462 
L 333.262756 110.818462 
L 333.262756 110.457436 
L 334.480764 110.457436 
L 334.480764 110.09641 
L 338.134789 110.09641 
L 338.134789 109.735385 
L 343.006821 109.735385 
L 343.006821 109.374359 
L 344.833834 109.374359 
L 344.833834 109.013333 
L 346.660846 109.013333 
L 346.660846 108.652308 
L 352.141883 108.652308 
L 352.141883 108.291282 
L 353.968895 108.291282 
L 353.968895 107.930256 
L 359.449932 107.930256 
L 359.449932 106.847179 
L 365.539973 106.847179 
L 365.539973 106.486154 
L 367.366985 106.486154 
L 367.366985 106.125128 
L 380.765075 106.125128 
L 380.765075 105.403077 
L 381.374079 105.403077 
L 381.374079 105.042051 
L 381.983083 105.042051 
L 381.983083 104.681026 
L 385.637108 104.681026 
L 385.637108 104.32 
L 397.81719 104.32 
L 397.81719 103.958974 
L 400.253206 103.958974 
L 400.253206 103.597949 
L 409.997271 103.597949 
L 409.997271 103.236923 
L 413.042292 103.236923 
L 413.042292 102.514872 
L 413.651296 102.514872 
L 413.651296 102.153846 
L 417.914325 102.153846 
L 417.914325 101.792821 
L 419.741337 101.792821 
L 419.741337 101.431795 
L 420.959345 101.431795 
L 420.959345 101.070769 
L 428.876398 101.070769 
L 428.876398 100.709744 
L 430.703411 100.709744 
L 430.703411 100.348718 
L 436.184447 100.348718 
L 436.184447 99.987692 
L 436.793452 99.987692 
L 436.793452 99.626667 
L 439.838472 99.626667 
L 439.838472 99.265641 
L 443.492497 99.265641 
L 443.492497 98.904615 
L 444.710505 98.904615 
L 444.710505 98.54359 
L 446.537517 98.54359 
L 446.537517 98.182564 
L 447.755525 98.182564 
L 447.755525 97.821538 
L 448.364529 97.821538 
L 448.364529 97.460513 
L 448.973533 97.460513 
L 448.973533 96.738462 
L 450.800546 96.738462 
L 450.800546 96.377436 
L 456.890587 96.377436 
L 456.890587 96.01641 
L 459.935607 96.01641 
L 459.935607 95.655385 
L 460.544611 95.655385 
L 460.544611 95.294359 
L 464.80764 95.294359 
L 464.80764 94.933333 
L 471.506685 94.933333 
L 471.506685 94.572308 
L 473.942701 94.572308 
L 473.942701 94.211282 
L 482.468759 94.211282 
L 482.468759 93.850256 
L 492.212824 93.850256 
L 492.212824 93.489231 
L 492.821828 93.489231 
L 492.821828 93.128205 
L 493.430832 93.128205 
L 493.430832 92.406154 
L 494.039836 92.406154 
L 494.039836 92.045128 
L 503.783902 92.045128 
L 503.783902 91.684103 
L 505.00191 91.684103 
L 505.00191 91.323077 
L 511.091951 91.323077 
L 511.091951 90.962051 
L 515.35498 90.962051 
L 515.35498 90.601026 
L 517.790996 90.601026 
L 517.790996 90.24 
L 518.4 90.24 
L 518.4 90.24 
" style="fill:none;stroke:#ff8c00;stroke-linecap:square;stroke-width:2;"/>
   </g>
   <g id="line2d_26">
    <path clip-path="url(#pc6d23894ce)" d="M 72 512.64 
L 518.4 90.24 
" style="fill:none;stroke:#000080;stroke-dasharray:7.4,3.2;stroke-dashoffset:0;stroke-width:2;"/>
   </g>
   <g id="patch_3">
    <path d="M 72 512.64 
L 72 69.12 
" style="fill:none;stroke:#000000;stroke-linecap:square;stroke-linejoin:miter;stroke-width:0.8;"/>
   </g>
   <g id="patch_4">
    <path d="M 518.4 512.64 
L 518.4 69.12 
" style="fill:none;stroke:#000000;stroke-linecap:square;stroke-linejoin:miter;stroke-width:0.8;"/>
   </g>
   <g id="patch_5">
    <path d="M 72 512.64 
L 518.4 512.64 
" style="fill:none;stroke:#000000;stroke-linecap:square;stroke-linejoin:miter;stroke-width:0.8;"/>
   </g>
   <g id="patch_6">
    <path d="M 72 69.12 
L 518.4 69.12 
" style="fill:none;stroke:#000000;stroke-linecap:square;stroke-linejoin:miter;stroke-width:0.8;"/>
   </g>
   <g id="legend_1">
    <g id="patch_7">
     <path d="M 427.081875 509.64 
L 514.2 509.64 
Q 515.4 509.64 515.4 508.44 
L 515.4 500.233125 
Q 515.4 499.033125 514.2 499.033125 
L 427.081875 499.033125 
Q 425.881875 499.033125 425.881875 500.233125 
L 425.881875 508.44 
Q 425.881875 509.64 427.081875 509.64 
z
" style="fill:#ffffff;opacity:0.8;stroke:#cccccc;stroke-linejoin:miter;"/>
    </g>
    <g id="line2d_27">
     <path d="M 428.281875 503.892187 
L 440.281875 503.892187 
" style="fill:none;stroke:#ff8c00;stroke-linecap:square;stroke-width:2;"/>
    </g>
    <g id="line2d_28"/>
    <g id="text_15">
     <!-- D006262 (area =0.87) -->
     <defs>
      <path d="M 19.671875 64.796875 
L 19.671875 8.109375 
L 31.59375 8.109375 
Q 46.6875 8.109375 53.6875 14.9375 
Q 60.6875 21.78125 60.6875 36.53125 
Q 60.6875 51.171875 53.6875 57.984375 
Q 46.6875 64.796875 31.59375 64.796875 
z
M 9.8125 72.90625 
L 30.078125 72.90625 
Q 51.265625 72.90625 61.171875 64.09375 
Q 71.09375 55.28125 71.09375 36.53125 
Q 71.09375 17.671875 61.125 8.828125 
Q 51.171875 0 30.078125 0 
L 9.8125 0 
z
" id="DejaVuSans-68"/>
      <path d="M 31 75.875 
Q 24.46875 64.65625 21.28125 53.65625 
Q 18.109375 42.671875 18.109375 31.390625 
Q 18.109375 20.125 21.3125 9.0625 
Q 24.515625 -2 31 -13.1875 
L 23.1875 -13.1875 
Q 15.875 -1.703125 12.234375 9.375 
Q 8.59375 20.453125 8.59375 31.390625 
Q 8.59375 42.28125 12.203125 53.3125 
Q 15.828125 64.359375 23.1875 75.875 
z
" id="DejaVuSans-40"/>
      <path d="M 10.59375 45.40625 
L 73.1875 45.40625 
L 73.1875 37.203125 
L 10.59375 37.203125 
z
M 10.59375 25.484375 
L 73.1875 25.484375 
L 73.1875 17.1875 
L 10.59375 17.1875 
z
" id="DejaVuSans-61"/>
      <path d="M 8.203125 72.90625 
L 55.078125 72.90625 
L 55.078125 68.703125 
L 28.609375 0 
L 18.3125 0 
L 43.21875 64.59375 
L 8.203125 64.59375 
z
" id="DejaVuSans-55"/>
      <path d="M 8.015625 75.875 
L 15.828125 75.875 
Q 23.140625 64.359375 26.78125 53.3125 
Q 30.421875 42.28125 30.421875 31.390625 
Q 30.421875 20.453125 26.78125 9.375 
Q 23.140625 -1.703125 15.828125 -13.1875 
L 8.015625 -13.1875 
Q 14.5 -2 17.703125 9.0625 
Q 20.90625 20.125 20.90625 31.390625 
Q 20.90625 42.671875 17.703125 53.65625 
Q 14.5 64.65625 8.015625 75.875 
z
" id="DejaVuSans-41"/>
     </defs>
     <g transform="translate(445.081875 505.992188)scale(0.06 -0.06)">
      <use xlink:href="#DejaVuSans-68"/>
      <use x="77.001953" xlink:href="#DejaVuSans-48"/>
      <use x="140.625" xlink:href="#DejaVuSans-48"/>
      <use x="204.248047" xlink:href="#DejaVuSans-54"/>
      <use x="267.871094" xlink:href="#DejaVuSans-50"/>
      <use x="331.494141" xlink:href="#DejaVuSans-54"/>
      <use x="395.117188" xlink:href="#DejaVuSans-50"/>
      <use x="458.740234" xlink:href="#DejaVuSans-32"/>
      <use x="490.527344" xlink:href="#DejaVuSans-40"/>
      <use x="529.541016" xlink:href="#DejaVuSans-97"/>
      <use x="590.820312" xlink:href="#DejaVuSans-114"/>
      <use x="631.902344" xlink:href="#DejaVuSans-101"/>
      <use x="693.425781" xlink:href="#DejaVuSans-97"/>
      <use x="754.705078" xlink:href="#DejaVuSans-32"/>
      <use x="786.492188" xlink:href="#DejaVuSans-61"/>
      <use x="870.28125" xlink:href="#DejaVuSans-48"/>
      <use x="933.904297" xlink:href="#DejaVuSans-46"/>
      <use x="965.691406" xlink:href="#DejaVuSans-56"/>
      <use x="1029.314453" xlink:href="#DejaVuSans-55"/>
      <use x="1092.9375" xlink:href="#DejaVuSans-41"/>
     </g>
    </g>
   </g>
  </g>
 </g>
 <defs>
  <clipPath id="pc6d23894ce">
   <rect height="443.52" width="446.4" x="72" y="69.12"/>
  </clipPath>
 </defs>
</svg>
