<?xml version="1.0" encoding="utf-8" standalone="no"?>
<!DOCTYPE svg PUBLIC "-//W3C//DTD SVG 1.1//EN"
  "http://www.w3.org/Graphics/SVG/1.1/DTD/svg11.dtd">
<!-- Created with matplotlib (https://matplotlib.org/) -->
<svg height="432pt" version="1.1" viewBox="0 0 720 432" width="720pt" xmlns="http://www.w3.org/2000/svg" xmlns:xlink="http://www.w3.org/1999/xlink">
 <defs>
  <style type="text/css">
*{stroke-linecap:butt;stroke-linejoin:round;}
  </style>
 </defs>
 <g id="figure_1">
  <g id="patch_1">
   <path d="M 0 432 
L 720 432 
L 720 0 
L 0 0 
z
" style="fill:#ffffff;"/>
  </g>
  <g id="axes_1">
   <g id="patch_2">
    <path d="M 90 378 
L 648 378 
L 648 51.84 
L 90 51.84 
z
" style="fill:#ffffff;"/>
   </g>
   <g id="PathCollection_1">
    <defs>
     <path d="M 0 3 
C 0.795609 3 1.55874 2.683901 2.12132 2.12132 
C 2.683901 1.55874 3 0.795609 3 0 
C 3 -0.795609 2.683901 -1.55874 2.12132 -2.12132 
C 1.55874 -2.683901 0.795609 -3 0 -3 
C -0.795609 -3 -1.55874 -2.683901 -2.12132 -2.12132 
C -2.683901 -1.55874 -3 -0.795609 -3 0 
C -3 0.795609 -2.683901 1.55874 -2.12132 2.12132 
C -1.55874 2.683901 -0.795609 3 0 3 
z
" id="m3870854f27" style="stroke:#f8766d;"/>
    </defs>
    <g clip-path="url(#pc61fa026aa)">
     <use style="fill:#f8766d;stroke:#f8766d;" x="253.140252" xlink:href="#m3870854f27" y="176.823531"/>
     <use style="fill:#f8766d;stroke:#f8766d;" x="275.207388" xlink:href="#m3870854f27" y="93.162706"/>
     <use style="fill:#f8766d;stroke:#f8766d;" x="299.90786" xlink:href="#m3870854f27" y="149.664877"/>
     <use style="fill:#f8766d;stroke:#f8766d;" x="217.795573" xlink:href="#m3870854f27" y="169.686266"/>
     <use style="fill:#f8766d;stroke:#f8766d;" x="244.16638" xlink:href="#m3870854f27" y="114.039259"/>
     <use style="fill:#f8766d;stroke:#f8766d;" x="177.624716" xlink:href="#m3870854f27" y="90.803452"/>
     <use style="fill:#f8766d;stroke:#f8766d;" x="147.976184" xlink:href="#m3870854f27" y="120.894837"/>
     <use style="fill:#f8766d;stroke:#f8766d;" x="182.803748" xlink:href="#m3870854f27" y="117.550858"/>
     <use style="fill:#f8766d;stroke:#f8766d;" x="252.790408" xlink:href="#m3870854f27" y="148.534584"/>
     <use style="fill:#f8766d;stroke:#f8766d;" x="170.238699" xlink:href="#m3870854f27" y="108.762853"/>
     <use style="fill:#f8766d;stroke:#f8766d;" x="144.988358" xlink:href="#m3870854f27" y="91.164927"/>
     <use style="fill:#f8766d;stroke:#f8766d;" x="132.846815" xlink:href="#m3870854f27" y="134.219587"/>
     <use style="fill:#f8766d;stroke:#f8766d;" x="223.999951" xlink:href="#m3870854f27" y="148.066555"/>
     <use style="fill:#f8766d;stroke:#f8766d;" x="225.497978" xlink:href="#m3870854f27" y="116.854713"/>
     <use style="fill:#f8766d;stroke:#f8766d;" x="154.562133" xlink:href="#m3870854f27" y="112.34249"/>
     <use style="fill:#f8766d;stroke:#f8766d;" x="227.237148" xlink:href="#m3870854f27" y="113.89534"/>
     <use style="fill:#f8766d;stroke:#f8766d;" x="244.580158" xlink:href="#m3870854f27" y="123.787987"/>
     <use style="fill:#f8766d;stroke:#f8766d;" x="222.968948" xlink:href="#m3870854f27" y="108.921835"/>
     <use style="fill:#f8766d;stroke:#f8766d;" x="206.02829" xlink:href="#m3870854f27" y="134.354014"/>
     <use style="fill:#f8766d;stroke:#f8766d;" x="204.160513" xlink:href="#m3870854f27" y="93.2931"/>
     <use style="fill:#f8766d;stroke:#f8766d;" x="203.660178" xlink:href="#m3870854f27" y="160.776618"/>
     <use style="fill:#f8766d;stroke:#f8766d;" x="133.327475" xlink:href="#m3870854f27" y="106.271153"/>
     <use style="fill:#f8766d;stroke:#f8766d;" x="191.475201" xlink:href="#m3870854f27" y="157.021444"/>
     <use style="fill:#f8766d;stroke:#f8766d;" x="269.723791" xlink:href="#m3870854f27" y="200.388961"/>
     <use style="fill:#f8766d;stroke:#f8766d;" x="198.650699" xlink:href="#m3870854f27" y="190.863697"/>
     <use style="fill:#f8766d;stroke:#f8766d;" x="211.119045" xlink:href="#m3870854f27" y="84.584597"/>
     <use style="fill:#f8766d;stroke:#f8766d;" x="237.212827" xlink:href="#m3870854f27" y="154.672159"/>
     <use style="fill:#f8766d;stroke:#f8766d;" x="331.670307" xlink:href="#m3870854f27" y="195.94693"/>
     <use style="fill:#f8766d;stroke:#f8766d;" x="269.340381" xlink:href="#m3870854f27" y="175.160577"/>
     <use style="fill:#f8766d;stroke:#f8766d;" x="264.995973" xlink:href="#m3870854f27" y="175.840276"/>
     <use style="fill:#f8766d;stroke:#f8766d;" x="212.006504" xlink:href="#m3870854f27" y="147.621389"/>
     <use style="fill:#f8766d;stroke:#f8766d;" x="221.77607" xlink:href="#m3870854f27" y="99.551427"/>
     <use style="fill:#f8766d;stroke:#f8766d;" x="279.209624" xlink:href="#m3870854f27" y="92.579164"/>
     <use style="fill:#f8766d;stroke:#f8766d;" x="235.416608" xlink:href="#m3870854f27" y="92.151736"/>
     <use style="fill:#f8766d;stroke:#f8766d;" x="232.886297" xlink:href="#m3870854f27" y="111.627802"/>
     <use style="fill:#f8766d;stroke:#f8766d;" x="278.117141" xlink:href="#m3870854f27" y="70.602739"/>
     <use style="fill:#f8766d;stroke:#f8766d;" x="183.728183" xlink:href="#m3870854f27" y="104.983054"/>
     <use style="fill:#f8766d;stroke:#f8766d;" x="200.026806" xlink:href="#m3870854f27" y="127.173656"/>
     <use style="fill:#f8766d;stroke:#f8766d;" x="244.305705" xlink:href="#m3870854f27" y="152.45871"/>
     <use style="fill:#f8766d;stroke:#f8766d;" x="271.531733" xlink:href="#m3870854f27" y="123.94683"/>
     <use style="fill:#f8766d;stroke:#f8766d;" x="195.941013" xlink:href="#m3870854f27" y="122.096364"/>
     <use style="fill:#f8766d;stroke:#f8766d;" x="245.582849" xlink:href="#m3870854f27" y="107.776506"/>
     <use style="fill:#f8766d;stroke:#f8766d;" x="234.221501" xlink:href="#m3870854f27" y="189.426619"/>
     <use style="fill:#f8766d;stroke:#f8766d;" x="227.740691" xlink:href="#m3870854f27" y="132.434334"/>
     <use style="fill:#f8766d;stroke:#f8766d;" x="184.261611" xlink:href="#m3870854f27" y="134.856545"/>
     <use style="fill:#f8766d;stroke:#f8766d;" x="247.159059" xlink:href="#m3870854f27" y="180.427849"/>
     <use style="fill:#f8766d;stroke:#f8766d;" x="207.959927" xlink:href="#m3870854f27" y="109.273124"/>
     <use style="fill:#f8766d;stroke:#f8766d;" x="141.05517" xlink:href="#m3870854f27" y="136.282262"/>
     <use style="fill:#f8766d;stroke:#f8766d;" x="298.052359" xlink:href="#m3870854f27" y="144.914841"/>
     <use style="fill:#f8766d;stroke:#f8766d;" x="264.471306" xlink:href="#m3870854f27" y="119.892557"/>
     <use style="fill:#f8766d;stroke:#f8766d;" x="223.602214" xlink:href="#m3870854f27" y="79.115335"/>
     <use style="fill:#f8766d;stroke:#f8766d;" x="175.177348" xlink:href="#m3870854f27" y="74.674931"/>
     <use style="fill:#f8766d;stroke:#f8766d;" x="204.619393" xlink:href="#m3870854f27" y="111.040672"/>
     <use style="fill:#f8766d;stroke:#f8766d;" x="229.67037" xlink:href="#m3870854f27" y="78.158006"/>
     <use style="fill:#f8766d;stroke:#f8766d;" x="185.481112" xlink:href="#m3870854f27" y="136.112714"/>
     <use style="fill:#f8766d;stroke:#f8766d;" x="249.993019" xlink:href="#m3870854f27" y="77.743007"/>
     <use style="fill:#f8766d;stroke:#f8766d;" x="200.16083" xlink:href="#m3870854f27" y="100.536516"/>
     <use style="fill:#f8766d;stroke:#f8766d;" x="158.219337" xlink:href="#m3870854f27" y="148.578342"/>
     <use style="fill:#f8766d;stroke:#f8766d;" x="156.57712" xlink:href="#m3870854f27" y="97.56626"/>
     <use style="fill:#f8766d;stroke:#f8766d;" x="149.010165" xlink:href="#m3870854f27" y="90.283339"/>
     <use style="fill:#f8766d;stroke:#f8766d;" x="182.944167" xlink:href="#m3870854f27" y="153.485479"/>
     <use style="fill:#f8766d;stroke:#f8766d;" x="115.481078" xlink:href="#m3870854f27" y="104.340917"/>
     <use style="fill:#f8766d;stroke:#f8766d;" x="273.273501" xlink:href="#m3870854f27" y="113.357285"/>
     <use style="fill:#f8766d;stroke:#f8766d;" x="246.427071" xlink:href="#m3870854f27" y="194.601146"/>
     <use style="fill:#f8766d;stroke:#f8766d;" x="240.782275" xlink:href="#m3870854f27" y="66.769072"/>
     <use style="fill:#f8766d;stroke:#f8766d;" x="309.714533" xlink:href="#m3870854f27" y="257.820995"/>
     <use style="fill:#f8766d;stroke:#f8766d;" x="352.185202" xlink:href="#m3870854f27" y="288.138075"/>
     <use style="fill:#f8766d;stroke:#f8766d;" x="303.021444" xlink:href="#m3870854f27" y="295.644213"/>
     <use style="fill:#f8766d;stroke:#f8766d;" x="552.202229" xlink:href="#m3870854f27" y="281.665674"/>
     <use style="fill:#f8766d;stroke:#f8766d;" x="415.040858" xlink:href="#m3870854f27" y="348.353037"/>
     <use style="fill:#f8766d;stroke:#f8766d;" x="502.599005" xlink:href="#m3870854f27" y="350.328385"/>
     <use style="fill:#f8766d;stroke:#f8766d;" x="408.307407" xlink:href="#m3870854f27" y="320.239471"/>
     <use style="fill:#f8766d;stroke:#f8766d;" x="473.216114" xlink:href="#m3870854f27" y="260.451401"/>
     <use style="fill:#f8766d;stroke:#f8766d;" x="337.768386" xlink:href="#m3870854f27" y="297.20981"/>
     <use style="fill:#f8766d;stroke:#f8766d;" x="537.837774" xlink:href="#m3870854f27" y="242.407922"/>
     <use style="fill:#f8766d;stroke:#f8766d;" x="500.846347" xlink:href="#m3870854f27" y="322.934093"/>
     <use style="fill:#f8766d;stroke:#f8766d;" x="337.402654" xlink:href="#m3870854f27" y="297.43539"/>
     <use style="fill:#f8766d;stroke:#f8766d;" x="568.105156" xlink:href="#m3870854f27" y="337.166586"/>
     <use style="fill:#f8766d;stroke:#f8766d;" x="520.222947" xlink:href="#m3870854f27" y="242.663111"/>
     <use style="fill:#f8766d;stroke:#f8766d;" x="522.860002" xlink:href="#m3870854f27" y="272.388358"/>
     <use style="fill:#f8766d;stroke:#f8766d;" x="357.984731" xlink:href="#m3870854f27" y="236.581689"/>
     <use style="fill:#f8766d;stroke:#f8766d;" x="396.226502" xlink:href="#m3870854f27" y="304.546856"/>
     <use style="fill:#f8766d;stroke:#f8766d;" x="473.220051" xlink:href="#m3870854f27" y="278.130945"/>
     <use style="fill:#f8766d;stroke:#f8766d;" x="346.71286" xlink:href="#m3870854f27" y="316.040387"/>
     <use style="fill:#f8766d;stroke:#f8766d;" x="486.520432" xlink:href="#m3870854f27" y="279.12564"/>
     <use style="fill:#f8766d;stroke:#f8766d;" x="586.97889" xlink:href="#m3870854f27" y="336.134074"/>
     <use style="fill:#f8766d;stroke:#f8766d;" x="453.918447" xlink:href="#m3870854f27" y="261.722662"/>
     <use style="fill:#f8766d;stroke:#f8766d;" x="622.518922" xlink:href="#m3870854f27" y="302.722937"/>
     <use style="fill:#f8766d;stroke:#f8766d;" x="299.823495" xlink:href="#m3870854f27" y="312.666767"/>
     <use style="fill:#f8766d;stroke:#f8766d;" x="433.789151" xlink:href="#m3870854f27" y="289.081674"/>
     <use style="fill:#f8766d;stroke:#f8766d;" x="578.251919" xlink:href="#m3870854f27" y="263.595798"/>
     <use style="fill:#f8766d;stroke:#f8766d;" x="331.01096" xlink:href="#m3870854f27" y="197.065772"/>
     <use style="fill:#f8766d;stroke:#f8766d;" x="462.834385" xlink:href="#m3870854f27" y="248.172796"/>
     <use style="fill:#f8766d;stroke:#f8766d;" x="426.027692" xlink:href="#m3870854f27" y="277.796302"/>
     <use style="fill:#f8766d;stroke:#f8766d;" x="524.126803" xlink:href="#m3870854f27" y="237.625328"/>
     <use style="fill:#f8766d;stroke:#f8766d;" x="325.969012" xlink:href="#m3870854f27" y="327.807835"/>
     <use style="fill:#f8766d;stroke:#f8766d;" x="455.011466" xlink:href="#m3870854f27" y="297.602371"/>
     <use style="fill:#f8766d;stroke:#f8766d;" x="553.373869" xlink:href="#m3870854f27" y="303.221182"/>
     <use style="fill:#f8766d;stroke:#f8766d;" x="493.330327" xlink:href="#m3870854f27" y="233.490638"/>
     <use style="fill:#f8766d;stroke:#f8766d;" x="517.298586" xlink:href="#m3870854f27" y="294.134245"/>
     <use style="fill:#f8766d;stroke:#f8766d;" x="395.200332" xlink:href="#m3870854f27" y="304.78578"/>
     <use style="fill:#f8766d;stroke:#f8766d;" x="352.318417" xlink:href="#m3870854f27" y="256.966306"/>
     <use style="fill:#f8766d;stroke:#f8766d;" x="283.379183" xlink:href="#m3870854f27" y="288.85163"/>
     <use style="fill:#f8766d;stroke:#f8766d;" x="394.217931" xlink:href="#m3870854f27" y="272.301326"/>
     <use style="fill:#f8766d;stroke:#f8766d;" x="442.253502" xlink:href="#m3870854f27" y="328.997727"/>
     <use style="fill:#f8766d;stroke:#f8766d;" x="604.507431" xlink:href="#m3870854f27" y="318.757238"/>
     <use style="fill:#f8766d;stroke:#f8766d;" x="378.96812" xlink:href="#m3870854f27" y="324.937471"/>
     <use style="fill:#f8766d;stroke:#f8766d;" x="528.16638" xlink:href="#m3870854f27" y="299.865294"/>
     <use style="fill:#f8766d;stroke:#f8766d;" x="350.56241" xlink:href="#m3870854f27" y="227.312542"/>
     <use style="fill:#f8766d;stroke:#f8766d;" x="599.618028" xlink:href="#m3870854f27" y="324.121569"/>
     <use style="fill:#f8766d;stroke:#f8766d;" x="567.729886" xlink:href="#m3870854f27" y="336.709935"/>
     <use style="fill:#f8766d;stroke:#f8766d;" x="471.966801" xlink:href="#m3870854f27" y="288.505625"/>
     <use style="fill:#f8766d;stroke:#f8766d;" x="390.001674" xlink:href="#m3870854f27" y="240.054329"/>
     <use style="fill:#f8766d;stroke:#f8766d;" x="330.120551" xlink:href="#m3870854f27" y="263.17264"/>
     <use style="fill:#f8766d;stroke:#f8766d;" x="575.210971" xlink:href="#m3870854f27" y="307.371904"/>
     <use style="fill:#f8766d;stroke:#f8766d;" x="568.041681" xlink:href="#m3870854f27" y="272.352126"/>
     <use style="fill:#f8766d;stroke:#f8766d;" x="587.988747" xlink:href="#m3870854f27" y="329.28259"/>
     <use style="fill:#f8766d;stroke:#f8766d;" x="436.517502" xlink:href="#m3870854f27" y="259.726453"/>
     <use style="fill:#f8766d;stroke:#f8766d;" x="551.07619" xlink:href="#m3870854f27" y="245.859373"/>
     <use style="fill:#f8766d;stroke:#f8766d;" x="488.061134" xlink:href="#m3870854f27" y="297.285068"/>
     <use style="fill:#f8766d;stroke:#f8766d;" x="485.64791" xlink:href="#m3870854f27" y="326.480393"/>
     <use style="fill:#f8766d;stroke:#f8766d;" x="494.624272" xlink:href="#m3870854f27" y="327.260928"/>
     <use style="fill:#f8766d;stroke:#f8766d;" x="537.555812" xlink:href="#m3870854f27" y="242.352171"/>
     <use style="fill:#f8766d;stroke:#f8766d;" x="484.284281" xlink:href="#m3870854f27" y="305.491029"/>
     <use style="fill:#f8766d;stroke:#f8766d;" x="467.578859" xlink:href="#m3870854f27" y="354.15886"/>
     <use style="fill:#f8766d;stroke:#f8766d;" x="371.391465" xlink:href="#m3870854f27" y="285.872284"/>
     <use style="fill:#f8766d;stroke:#f8766d;" x="477.840157" xlink:href="#m3870854f27" y="306.126392"/>
     <use style="fill:#f8766d;stroke:#f8766d;" x="545.67013" xlink:href="#m3870854f27" y="244.785824"/>
    </g>
   </g>
   <g id="PathCollection_2">
    <defs>
     <path d="M 0 3 
C 0.795609 3 1.55874 2.683901 2.12132 2.12132 
C 2.683901 1.55874 3 0.795609 3 0 
C 3 -0.795609 2.683901 -1.55874 2.12132 -2.12132 
C 1.55874 -2.683901 0.795609 -3 0 -3 
C -0.795609 -3 -1.55874 -2.683901 -2.12132 -2.12132 
C -2.683901 -1.55874 -3 -0.795609 -3 0 
C -3 0.795609 -2.683901 1.55874 -2.12132 2.12132 
C -1.55874 2.683901 -0.795609 3 0 3 
z
" id="m4f0b0300e6" style="stroke:#00bfc4;"/>
    </defs>
    <g clip-path="url(#pc61fa026aa)">
     <use style="fill:#00bfc4;stroke:#00bfc4;" x="426.490858" xlink:href="#m4f0b0300e6" y="314.770123"/>
     <use style="fill:#00bfc4;stroke:#00bfc4;" x="271.916288" xlink:href="#m4f0b0300e6" y="278.696771"/>
     <use style="fill:#00bfc4;stroke:#00bfc4;" x="463.204843" xlink:href="#m4f0b0300e6" y="326.64941"/>
     <use style="fill:#00bfc4;stroke:#00bfc4;" x="600.032087" xlink:href="#m4f0b0300e6" y="286.539265"/>
     <use style="fill:#00bfc4;stroke:#00bfc4;" x="451.74124" xlink:href="#m4f0b0300e6" y="308.091082"/>
     <use style="fill:#00bfc4;stroke:#00bfc4;" x="378.957972" xlink:href="#m4f0b0300e6" y="245.491807"/>
     <use style="fill:#00bfc4;stroke:#00bfc4;" x="501.147027" xlink:href="#m4f0b0300e6" y="308.641986"/>
     <use style="fill:#00bfc4;stroke:#00bfc4;" x="437.053846" xlink:href="#m4f0b0300e6" y="303.972322"/>
     <use style="fill:#00bfc4;stroke:#00bfc4;" x="464.634124" xlink:href="#m4f0b0300e6" y="319.099288"/>
     <use style="fill:#00bfc4;stroke:#00bfc4;" x="609.081247" xlink:href="#m4f0b0300e6" y="332.151343"/>
     <use style="fill:#00bfc4;stroke:#00bfc4;" x="304.924227" xlink:href="#m4f0b0300e6" y="296.824726"/>
     <use style="fill:#00bfc4;stroke:#00bfc4;" x="343.489799" xlink:href="#m4f0b0300e6" y="306.610348"/>
     <use style="fill:#00bfc4;stroke:#00bfc4;" x="575.664424" xlink:href="#m4f0b0300e6" y="293.803175"/>
     <use style="fill:#00bfc4;stroke:#00bfc4;" x="505.891084" xlink:href="#m4f0b0300e6" y="284.872449"/>
     <use style="fill:#00bfc4;stroke:#00bfc4;" x="543.283374" xlink:href="#m4f0b0300e6" y="291.792917"/>
     <use style="fill:#00bfc4;stroke:#00bfc4;" x="325.174179" xlink:href="#m4f0b0300e6" y="276.199839"/>
     <use style="fill:#00bfc4;stroke:#00bfc4;" x="599.32467" xlink:href="#m4f0b0300e6" y="302.008304"/>
     <use style="fill:#00bfc4;stroke:#00bfc4;" x="305.263665" xlink:href="#m4f0b0300e6" y="320.812377"/>
     <use style="fill:#00bfc4;stroke:#00bfc4;" x="583.696289" xlink:href="#m4f0b0300e6" y="309.474583"/>
     <use style="fill:#00bfc4;stroke:#00bfc4;" x="436.762165" xlink:href="#m4f0b0300e6" y="295.24237"/>
     <use style="fill:#00bfc4;stroke:#00bfc4;" x="506.980823" xlink:href="#m4f0b0300e6" y="350.715493"/>
     <use style="fill:#00bfc4;stroke:#00bfc4;" x="470.308471" xlink:href="#m4f0b0300e6" y="273.219919"/>
     <use style="fill:#00bfc4;stroke:#00bfc4;" x="497.400579" xlink:href="#m4f0b0300e6" y="339.040408"/>
     <use style="fill:#00bfc4;stroke:#00bfc4;" x="376.183574" xlink:href="#m4f0b0300e6" y="285.010615"/>
     <use style="fill:#00bfc4;stroke:#00bfc4;" x="513.243666" xlink:href="#m4f0b0300e6" y="360.264715"/>
     <use style="fill:#00bfc4;stroke:#00bfc4;" x="500.516095" xlink:href="#m4f0b0300e6" y="266.407637"/>
     <use style="fill:#00bfc4;stroke:#00bfc4;" x="369.803453" xlink:href="#m4f0b0300e6" y="245.473849"/>
     <use style="fill:#00bfc4;stroke:#00bfc4;" x="415.726751" xlink:href="#m4f0b0300e6" y="302.322738"/>
     <use style="fill:#00bfc4;stroke:#00bfc4;" x="417.950184" xlink:href="#m4f0b0300e6" y="234.516824"/>
     <use style="fill:#00bfc4;stroke:#00bfc4;" x="301.284275" xlink:href="#m4f0b0300e6" y="93.887557"/>
     <use style="fill:#00bfc4;stroke:#00bfc4;" x="461.738491" xlink:href="#m4f0b0300e6" y="211.993639"/>
     <use style="fill:#00bfc4;stroke:#00bfc4;" x="414.011189" xlink:href="#m4f0b0300e6" y="347.451865"/>
     <use style="fill:#00bfc4;stroke:#00bfc4;" x="511.023796" xlink:href="#m4f0b0300e6" y="340.820331"/>
     <use style="fill:#00bfc4;stroke:#00bfc4;" x="285.90991" xlink:href="#m4f0b0300e6" y="301.381363"/>
     <use style="fill:#00bfc4;stroke:#00bfc4;" x="421.507752" xlink:href="#m4f0b0300e6" y="308.494424"/>
     <use style="fill:#00bfc4;stroke:#00bfc4;" x="462.192298" xlink:href="#m4f0b0300e6" y="212.72417"/>
     <use style="fill:#00bfc4;stroke:#00bfc4;" x="556.511603" xlink:href="#m4f0b0300e6" y="301.453962"/>
     <use style="fill:#00bfc4;stroke:#00bfc4;" x="476.466424" xlink:href="#m4f0b0300e6" y="272.627417"/>
     <use style="fill:#00bfc4;stroke:#00bfc4;" x="326.982239" xlink:href="#m4f0b0300e6" y="302.570611"/>
     <use style="fill:#00bfc4;stroke:#00bfc4;" x="494.570577" xlink:href="#m4f0b0300e6" y="278.993764"/>
     <use style="fill:#00bfc4;stroke:#00bfc4;" x="604.465141" xlink:href="#m4f0b0300e6" y="306.172809"/>
     <use style="fill:#00bfc4;stroke:#00bfc4;" x="323.054298" xlink:href="#m4f0b0300e6" y="319.253027"/>
     <use style="fill:#00bfc4;stroke:#00bfc4;" x="412.162151" xlink:href="#m4f0b0300e6" y="293.042618"/>
     <use style="fill:#00bfc4;stroke:#00bfc4;" x="525.127786" xlink:href="#m4f0b0300e6" y="282.430222"/>
     <use style="fill:#00bfc4;stroke:#00bfc4;" x="503.691744" xlink:href="#m4f0b0300e6" y="299.33678"/>
     <use style="fill:#00bfc4;stroke:#00bfc4;" x="528.497694" xlink:href="#m4f0b0300e6" y="229.517271"/>
     <use style="fill:#00bfc4;stroke:#00bfc4;" x="613.295127" xlink:href="#m4f0b0300e6" y="291.876184"/>
     <use style="fill:#00bfc4;stroke:#00bfc4;" x="568.574379" xlink:href="#m4f0b0300e6" y="292.753742"/>
     <use style="fill:#00bfc4;stroke:#00bfc4;" x="614.82985" xlink:href="#m4f0b0300e6" y="313.101448"/>
     <use style="fill:#00bfc4;stroke:#00bfc4;" x="439.171525" xlink:href="#m4f0b0300e6" y="276.192716"/>
    </g>
   </g>
   <g id="matplotlib.axis_1">
    <g id="xtick_1">
     <g id="line2d_1">
      <defs>
       <path d="M 0 0 
L 0 3.5 
" id="mba41d58482" style="stroke:#000000;stroke-width:0.8;"/>
      </defs>
      <g>
       <use style="stroke:#000000;stroke-width:0.8;" x="128.538192" xlink:href="#mba41d58482" y="378"/>
      </g>
     </g>
     <g id="text_1">
      <!-- −10 -->
      <defs>
       <path d="M 10.59375 35.5 
L 73.1875 35.5 
L 73.1875 27.203125 
L 10.59375 27.203125 
z
" id="DejaVuSans-8722"/>
       <path d="M 12.40625 8.296875 
L 28.515625 8.296875 
L 28.515625 63.921875 
L 10.984375 60.40625 
L 10.984375 69.390625 
L 28.421875 72.90625 
L 38.28125 72.90625 
L 38.28125 8.296875 
L 54.390625 8.296875 
L 54.390625 0 
L 12.40625 0 
z
" id="DejaVuSans-49"/>
       <path d="M 31.78125 66.40625 
Q 24.171875 66.40625 20.328125 58.90625 
Q 16.5 51.421875 16.5 36.375 
Q 16.5 21.390625 20.328125 13.890625 
Q 24.171875 6.390625 31.78125 6.390625 
Q 39.453125 6.390625 43.28125 13.890625 
Q 47.125 21.390625 47.125 36.375 
Q 47.125 51.421875 43.28125 58.90625 
Q 39.453125 66.40625 31.78125 66.40625 
z
M 31.78125 74.21875 
Q 44.046875 74.21875 50.515625 64.515625 
Q 56.984375 54.828125 56.984375 36.375 
Q 56.984375 17.96875 50.515625 8.265625 
Q 44.046875 -1.421875 31.78125 -1.421875 
Q 19.53125 -1.421875 13.0625 8.265625 
Q 6.59375 17.96875 6.59375 36.375 
Q 6.59375 54.828125 13.0625 64.515625 
Q 19.53125 74.21875 31.78125 74.21875 
z
" id="DejaVuSans-48"/>
      </defs>
      <g transform="translate(117.985848 392.598437)scale(0.1 -0.1)">
       <use xlink:href="#DejaVuSans-8722"/>
       <use x="83.789062" xlink:href="#DejaVuSans-49"/>
       <use x="147.412109" xlink:href="#DejaVuSans-48"/>
      </g>
     </g>
    </g>
    <g id="xtick_2">
     <g id="line2d_2">
      <g>
       <use style="stroke:#000000;stroke-width:0.8;" x="237.758493" xlink:href="#mba41d58482" y="378"/>
      </g>
     </g>
     <g id="text_2">
      <!-- −5 -->
      <defs>
       <path d="M 10.796875 72.90625 
L 49.515625 72.90625 
L 49.515625 64.59375 
L 19.828125 64.59375 
L 19.828125 46.734375 
Q 21.96875 47.46875 24.109375 47.828125 
Q 26.265625 48.1875 28.421875 48.1875 
Q 40.625 48.1875 47.75 41.5 
Q 54.890625 34.8125 54.890625 23.390625 
Q 54.890625 11.625 47.5625 5.09375 
Q 40.234375 -1.421875 26.90625 -1.421875 
Q 22.3125 -1.421875 17.546875 -0.640625 
Q 12.796875 0.140625 7.71875 1.703125 
L 7.71875 11.625 
Q 12.109375 9.234375 16.796875 8.0625 
Q 21.484375 6.890625 26.703125 6.890625 
Q 35.15625 6.890625 40.078125 11.328125 
Q 45.015625 15.765625 45.015625 23.390625 
Q 45.015625 31 40.078125 35.4375 
Q 35.15625 39.890625 26.703125 39.890625 
Q 22.75 39.890625 18.8125 39.015625 
Q 14.890625 38.140625 10.796875 36.28125 
z
" id="DejaVuSans-53"/>
      </defs>
      <g transform="translate(230.387399 392.598437)scale(0.1 -0.1)">
       <use xlink:href="#DejaVuSans-8722"/>
       <use x="83.789062" xlink:href="#DejaVuSans-53"/>
      </g>
     </g>
    </g>
    <g id="xtick_3">
     <g id="line2d_3">
      <g>
       <use style="stroke:#000000;stroke-width:0.8;" x="346.978794" xlink:href="#mba41d58482" y="378"/>
      </g>
     </g>
     <g id="text_3">
      <!-- 0 -->
      <g transform="translate(343.797544 392.598437)scale(0.1 -0.1)">
       <use xlink:href="#DejaVuSans-48"/>
      </g>
     </g>
    </g>
    <g id="xtick_4">
     <g id="line2d_4">
      <g>
       <use style="stroke:#000000;stroke-width:0.8;" x="456.199095" xlink:href="#mba41d58482" y="378"/>
      </g>
     </g>
     <g id="text_4">
      <!-- 5 -->
      <g transform="translate(453.017845 392.598437)scale(0.1 -0.1)">
       <use xlink:href="#DejaVuSans-53"/>
      </g>
     </g>
    </g>
    <g id="xtick_5">
     <g id="line2d_5">
      <g>
       <use style="stroke:#000000;stroke-width:0.8;" x="565.419396" xlink:href="#mba41d58482" y="378"/>
      </g>
     </g>
     <g id="text_5">
      <!-- 10 -->
      <g transform="translate(559.056896 392.598437)scale(0.1 -0.1)">
       <use xlink:href="#DejaVuSans-49"/>
       <use x="63.623047" xlink:href="#DejaVuSans-48"/>
      </g>
     </g>
    </g>
    <g id="text_6">
     <!-- tSNE-1 -->
     <defs>
      <path d="M 18.3125 70.21875 
L 18.3125 54.6875 
L 36.8125 54.6875 
L 36.8125 47.703125 
L 18.3125 47.703125 
L 18.3125 18.015625 
Q 18.3125 11.328125 20.140625 9.421875 
Q 21.96875 7.515625 27.59375 7.515625 
L 36.8125 7.515625 
L 36.8125 0 
L 27.59375 0 
Q 17.1875 0 13.234375 3.875 
Q 9.28125 7.765625 9.28125 18.015625 
L 9.28125 47.703125 
L 2.6875 47.703125 
L 2.6875 54.6875 
L 9.28125 54.6875 
L 9.28125 70.21875 
z
" id="DejaVuSans-116"/>
      <path d="M 53.515625 70.515625 
L 53.515625 60.890625 
Q 47.90625 63.578125 42.921875 64.890625 
Q 37.9375 66.21875 33.296875 66.21875 
Q 25.25 66.21875 20.875 63.09375 
Q 16.5 59.96875 16.5 54.203125 
Q 16.5 49.359375 19.40625 46.890625 
Q 22.3125 44.4375 30.421875 42.921875 
L 36.375 41.703125 
Q 47.40625 39.59375 52.65625 34.296875 
Q 57.90625 29 57.90625 20.125 
Q 57.90625 9.515625 50.796875 4.046875 
Q 43.703125 -1.421875 29.984375 -1.421875 
Q 24.8125 -1.421875 18.96875 -0.25 
Q 13.140625 0.921875 6.890625 3.21875 
L 6.890625 13.375 
Q 12.890625 10.015625 18.65625 8.296875 
Q 24.421875 6.59375 29.984375 6.59375 
Q 38.421875 6.59375 43.015625 9.90625 
Q 47.609375 13.234375 47.609375 19.390625 
Q 47.609375 24.75 44.3125 27.78125 
Q 41.015625 30.8125 33.5 32.328125 
L 27.484375 33.5 
Q 16.453125 35.6875 11.515625 40.375 
Q 6.59375 45.0625 6.59375 53.421875 
Q 6.59375 63.09375 13.40625 68.65625 
Q 20.21875 74.21875 32.171875 74.21875 
Q 37.3125 74.21875 42.625 73.28125 
Q 47.953125 72.359375 53.515625 70.515625 
z
" id="DejaVuSans-83"/>
      <path d="M 9.8125 72.90625 
L 23.09375 72.90625 
L 55.421875 11.921875 
L 55.421875 72.90625 
L 64.984375 72.90625 
L 64.984375 0 
L 51.703125 0 
L 19.390625 60.984375 
L 19.390625 0 
L 9.8125 0 
z
" id="DejaVuSans-78"/>
      <path d="M 9.8125 72.90625 
L 55.90625 72.90625 
L 55.90625 64.59375 
L 19.671875 64.59375 
L 19.671875 43.015625 
L 54.390625 43.015625 
L 54.390625 34.71875 
L 19.671875 34.71875 
L 19.671875 8.296875 
L 56.78125 8.296875 
L 56.78125 0 
L 9.8125 0 
z
" id="DejaVuSans-69"/>
      <path d="M 4.890625 31.390625 
L 31.203125 31.390625 
L 31.203125 23.390625 
L 4.890625 23.390625 
z
" id="DejaVuSans-45"/>
     </defs>
     <g transform="translate(351.980469 406.276563)scale(0.1 -0.1)">
      <use xlink:href="#DejaVuSans-116"/>
      <use x="39.208984" xlink:href="#DejaVuSans-83"/>
      <use x="102.685547" xlink:href="#DejaVuSans-78"/>
      <use x="177.490234" xlink:href="#DejaVuSans-69"/>
      <use x="240.673828" xlink:href="#DejaVuSans-45"/>
      <use x="276.757812" xlink:href="#DejaVuSans-49"/>
     </g>
    </g>
   </g>
   <g id="matplotlib.axis_2">
    <g id="ytick_1">
     <g id="line2d_6">
      <defs>
       <path d="M 0 0 
L -3.5 0 
" id="mfb0eaae859" style="stroke:#000000;stroke-width:0.8;"/>
      </defs>
      <g>
       <use style="stroke:#000000;stroke-width:0.8;" x="90" xlink:href="#mfb0eaae859" y="329.509546"/>
      </g>
     </g>
     <g id="text_7">
      <!-- −10 -->
      <g transform="translate(61.895313 333.308765)scale(0.1 -0.1)">
       <use xlink:href="#DejaVuSans-8722"/>
       <use x="83.789062" xlink:href="#DejaVuSans-49"/>
       <use x="147.412109" xlink:href="#DejaVuSans-48"/>
      </g>
     </g>
    </g>
    <g id="ytick_2">
     <g id="line2d_7">
      <g>
       <use style="stroke:#000000;stroke-width:0.8;" x="90" xlink:href="#mfb0eaae859" y="273.182843"/>
      </g>
     </g>
     <g id="text_8">
      <!-- −5 -->
      <g transform="translate(68.257812 276.982062)scale(0.1 -0.1)">
       <use xlink:href="#DejaVuSans-8722"/>
       <use x="83.789062" xlink:href="#DejaVuSans-53"/>
      </g>
     </g>
    </g>
    <g id="ytick_3">
     <g id="line2d_8">
      <g>
       <use style="stroke:#000000;stroke-width:0.8;" x="90" xlink:href="#mfb0eaae859" y="216.85614"/>
      </g>
     </g>
     <g id="text_9">
      <!-- 0 -->
      <g transform="translate(76.6375 220.655359)scale(0.1 -0.1)">
       <use xlink:href="#DejaVuSans-48"/>
      </g>
     </g>
    </g>
    <g id="ytick_4">
     <g id="line2d_9">
      <g>
       <use style="stroke:#000000;stroke-width:0.8;" x="90" xlink:href="#mfb0eaae859" y="160.529438"/>
      </g>
     </g>
     <g id="text_10">
      <!-- 5 -->
      <g transform="translate(76.6375 164.328656)scale(0.1 -0.1)">
       <use xlink:href="#DejaVuSans-53"/>
      </g>
     </g>
    </g>
    <g id="ytick_5">
     <g id="line2d_10">
      <g>
       <use style="stroke:#000000;stroke-width:0.8;" x="90" xlink:href="#mfb0eaae859" y="104.202735"/>
      </g>
     </g>
     <g id="text_11">
      <!-- 10 -->
      <g transform="translate(70.275 108.001954)scale(0.1 -0.1)">
       <use xlink:href="#DejaVuSans-49"/>
       <use x="63.623047" xlink:href="#DejaVuSans-48"/>
      </g>
     </g>
    </g>
    <g id="text_12">
     <!-- tSNE-2 -->
     <defs>
      <path d="M 19.1875 8.296875 
L 53.609375 8.296875 
L 53.609375 0 
L 7.328125 0 
L 7.328125 8.296875 
Q 12.9375 14.109375 22.625 23.890625 
Q 32.328125 33.6875 34.8125 36.53125 
Q 39.546875 41.84375 41.421875 45.53125 
Q 43.3125 49.21875 43.3125 52.78125 
Q 43.3125 58.59375 39.234375 62.25 
Q 35.15625 65.921875 28.609375 65.921875 
Q 23.96875 65.921875 18.8125 64.3125 
Q 13.671875 62.703125 7.8125 59.421875 
L 7.8125 69.390625 
Q 13.765625 71.78125 18.9375 73 
Q 24.125 74.21875 28.421875 74.21875 
Q 39.75 74.21875 46.484375 68.546875 
Q 53.21875 62.890625 53.21875 53.421875 
Q 53.21875 48.921875 51.53125 44.890625 
Q 49.859375 40.875 45.40625 35.40625 
Q 44.1875 33.984375 37.640625 27.21875 
Q 31.109375 20.453125 19.1875 8.296875 
z
" id="DejaVuSans-50"/>
     </defs>
     <g transform="translate(55.815625 231.939531)rotate(-90)scale(0.1 -0.1)">
      <use xlink:href="#DejaVuSans-116"/>
      <use x="39.208984" xlink:href="#DejaVuSans-83"/>
      <use x="102.685547" xlink:href="#DejaVuSans-78"/>
      <use x="177.490234" xlink:href="#DejaVuSans-69"/>
      <use x="240.673828" xlink:href="#DejaVuSans-45"/>
      <use x="276.757812" xlink:href="#DejaVuSans-50"/>
     </g>
    </g>
   </g>
   <g id="patch_3">
    <path d="M 90 378 
L 90 51.84 
" style="fill:none;stroke:#000000;stroke-linecap:square;stroke-linejoin:miter;stroke-width:0.8;"/>
   </g>
   <g id="patch_4">
    <path d="M 648 378 
L 648 51.84 
" style="fill:none;stroke:#000000;stroke-linecap:square;stroke-linejoin:miter;stroke-width:0.8;"/>
   </g>
   <g id="patch_5">
    <path d="M 90 378 
L 648 378 
" style="fill:none;stroke:#000000;stroke-linecap:square;stroke-linejoin:miter;stroke-width:0.8;"/>
   </g>
   <g id="patch_6">
    <path d="M 90 51.84 
L 648 51.84 
" style="fill:none;stroke:#000000;stroke-linecap:square;stroke-linejoin:miter;stroke-width:0.8;"/>
   </g>
   <g id="legend_1">
    <g id="patch_7">
     <path d="M 563.125 89.19625 
L 641 89.19625 
Q 643 89.19625 643 87.19625 
L 643 58.84 
Q 643 56.84 641 56.84 
L 563.125 56.84 
Q 561.125 56.84 561.125 58.84 
L 561.125 87.19625 
Q 561.125 89.19625 563.125 89.19625 
z
" style="fill:#ffffff;opacity:0.8;stroke:#cccccc;stroke-linejoin:miter;"/>
    </g>
    <g id="PathCollection_3">
     <g>
      <use style="fill:#f8766d;stroke:#f8766d;" x="575.125" xlink:href="#m3870854f27" y="65.813437"/>
     </g>
    </g>
    <g id="text_13">
     <!-- D003924 -->
     <defs>
      <path d="M 19.671875 64.796875 
L 19.671875 8.109375 
L 31.59375 8.109375 
Q 46.6875 8.109375 53.6875 14.9375 
Q 60.6875 21.78125 60.6875 36.53125 
Q 60.6875 51.171875 53.6875 57.984375 
Q 46.6875 64.796875 31.59375 64.796875 
z
M 9.8125 72.90625 
L 30.078125 72.90625 
Q 51.265625 72.90625 61.171875 64.09375 
Q 71.09375 55.28125 71.09375 36.53125 
Q 71.09375 17.671875 61.125 8.828125 
Q 51.171875 0 30.078125 0 
L 9.8125 0 
z
" id="DejaVuSans-68"/>
      <path d="M 40.578125 39.3125 
Q 47.65625 37.796875 51.625 33 
Q 55.609375 28.21875 55.609375 21.1875 
Q 55.609375 10.40625 48.1875 4.484375 
Q 40.765625 -1.421875 27.09375 -1.421875 
Q 22.515625 -1.421875 17.65625 -0.515625 
Q 12.796875 0.390625 7.625 2.203125 
L 7.625 11.71875 
Q 11.71875 9.328125 16.59375 8.109375 
Q 21.484375 6.890625 26.8125 6.890625 
Q 36.078125 6.890625 40.9375 10.546875 
Q 45.796875 14.203125 45.796875 21.1875 
Q 45.796875 27.640625 41.28125 31.265625 
Q 36.765625 34.90625 28.71875 34.90625 
L 20.21875 34.90625 
L 20.21875 43.015625 
L 29.109375 43.015625 
Q 36.375 43.015625 40.234375 45.921875 
Q 44.09375 48.828125 44.09375 54.296875 
Q 44.09375 59.90625 40.109375 62.90625 
Q 36.140625 65.921875 28.71875 65.921875 
Q 24.65625 65.921875 20.015625 65.03125 
Q 15.375 64.15625 9.8125 62.3125 
L 9.8125 71.09375 
Q 15.4375 72.65625 20.34375 73.4375 
Q 25.25 74.21875 29.59375 74.21875 
Q 40.828125 74.21875 47.359375 69.109375 
Q 53.90625 64.015625 53.90625 55.328125 
Q 53.90625 49.265625 50.4375 45.09375 
Q 46.96875 40.921875 40.578125 39.3125 
z
" id="DejaVuSans-51"/>
      <path d="M 10.984375 1.515625 
L 10.984375 10.5 
Q 14.703125 8.734375 18.5 7.8125 
Q 22.3125 6.890625 25.984375 6.890625 
Q 35.75 6.890625 40.890625 13.453125 
Q 46.046875 20.015625 46.78125 33.40625 
Q 43.953125 29.203125 39.59375 26.953125 
Q 35.25 24.703125 29.984375 24.703125 
Q 19.046875 24.703125 12.671875 31.3125 
Q 6.296875 37.9375 6.296875 49.421875 
Q 6.296875 60.640625 12.9375 67.421875 
Q 19.578125 74.21875 30.609375 74.21875 
Q 43.265625 74.21875 49.921875 64.515625 
Q 56.59375 54.828125 56.59375 36.375 
Q 56.59375 19.140625 48.40625 8.859375 
Q 40.234375 -1.421875 26.421875 -1.421875 
Q 22.703125 -1.421875 18.890625 -0.6875 
Q 15.09375 0.046875 10.984375 1.515625 
z
M 30.609375 32.421875 
Q 37.25 32.421875 41.125 36.953125 
Q 45.015625 41.5 45.015625 49.421875 
Q 45.015625 57.28125 41.125 61.84375 
Q 37.25 66.40625 30.609375 66.40625 
Q 23.96875 66.40625 20.09375 61.84375 
Q 16.21875 57.28125 16.21875 49.421875 
Q 16.21875 41.5 20.09375 36.953125 
Q 23.96875 32.421875 30.609375 32.421875 
z
" id="DejaVuSans-57"/>
      <path d="M 37.796875 64.3125 
L 12.890625 25.390625 
L 37.796875 25.390625 
z
M 35.203125 72.90625 
L 47.609375 72.90625 
L 47.609375 25.390625 
L 58.015625 25.390625 
L 58.015625 17.1875 
L 47.609375 17.1875 
L 47.609375 0 
L 37.796875 0 
L 37.796875 17.1875 
L 4.890625 17.1875 
L 4.890625 26.703125 
z
" id="DejaVuSans-52"/>
     </defs>
     <g transform="translate(593.125 68.438437)scale(0.1 -0.1)">
      <use xlink:href="#DejaVuSans-68"/>
      <use x="77.001953" xlink:href="#DejaVuSans-48"/>
      <use x="140.625" xlink:href="#DejaVuSans-48"/>
      <use x="204.248047" xlink:href="#DejaVuSans-51"/>
      <use x="267.871094" xlink:href="#DejaVuSans-57"/>
      <use x="331.494141" xlink:href="#DejaVuSans-50"/>
      <use x="395.117188" xlink:href="#DejaVuSans-52"/>
     </g>
    </g>
    <g id="PathCollection_4">
     <g>
      <use style="fill:#00bfc4;stroke:#00bfc4;" x="575.125" xlink:href="#m4f0b0300e6" y="80.491562"/>
     </g>
    </g>
    <g id="text_14">
     <!-- D006262 -->
     <defs>
      <path d="M 33.015625 40.375 
Q 26.375 40.375 22.484375 35.828125 
Q 18.609375 31.296875 18.609375 23.390625 
Q 18.609375 15.53125 22.484375 10.953125 
Q 26.375 6.390625 33.015625 6.390625 
Q 39.65625 6.390625 43.53125 10.953125 
Q 47.40625 15.53125 47.40625 23.390625 
Q 47.40625 31.296875 43.53125 35.828125 
Q 39.65625 40.375 33.015625 40.375 
z
M 52.59375 71.296875 
L 52.59375 62.3125 
Q 48.875 64.0625 45.09375 64.984375 
Q 41.3125 65.921875 37.59375 65.921875 
Q 27.828125 65.921875 22.671875 59.328125 
Q 17.53125 52.734375 16.796875 39.40625 
Q 19.671875 43.65625 24.015625 45.921875 
Q 28.375 48.1875 33.59375 48.1875 
Q 44.578125 48.1875 50.953125 41.515625 
Q 57.328125 34.859375 57.328125 23.390625 
Q 57.328125 12.15625 50.6875 5.359375 
Q 44.046875 -1.421875 33.015625 -1.421875 
Q 20.359375 -1.421875 13.671875 8.265625 
Q 6.984375 17.96875 6.984375 36.375 
Q 6.984375 53.65625 15.1875 63.9375 
Q 23.390625 74.21875 37.203125 74.21875 
Q 40.921875 74.21875 44.703125 73.484375 
Q 48.484375 72.75 52.59375 71.296875 
z
" id="DejaVuSans-54"/>
     </defs>
     <g transform="translate(593.125 83.116562)scale(0.1 -0.1)">
      <use xlink:href="#DejaVuSans-68"/>
      <use x="77.001953" xlink:href="#DejaVuSans-48"/>
      <use x="140.625" xlink:href="#DejaVuSans-48"/>
      <use x="204.248047" xlink:href="#DejaVuSans-54"/>
      <use x="267.871094" xlink:href="#DejaVuSans-50"/>
      <use x="331.494141" xlink:href="#DejaVuSans-54"/>
      <use x="395.117188" xlink:href="#DejaVuSans-50"/>
     </g>
    </g>
   </g>
  </g>
 </g>
 <defs>
  <clipPath id="pc61fa026aa">
   <rect height="326.16" width="558" x="90" y="51.84"/>
  </clipPath>
 </defs>
</svg>
