<?xml version="1.0" encoding="utf-8" standalone="no"?>
<!DOCTYPE svg PUBLIC "-//W3C//DTD SVG 1.1//EN"
  "http://www.w3.org/Graphics/SVG/1.1/DTD/svg11.dtd">
<!-- Created with matplotlib (https://matplotlib.org/) -->
<svg height="576pt" version="1.1" viewBox="0 0 576 576" width="576pt" xmlns="http://www.w3.org/2000/svg" xmlns:xlink="http://www.w3.org/1999/xlink">
 <defs>
  <style type="text/css">
*{stroke-linecap:butt;stroke-linejoin:round;}
  </style>
 </defs>
 <g id="figure_1">
  <g id="patch_1">
   <path d="M 0 576 
L 576 576 
L 576 0 
L 0 0 
z
" style="fill:#ffffff;"/>
  </g>
  <g id="axes_1">
   <g id="patch_2">
    <path d="M 72 512.64 
L 518.4 512.64 
L 518.4 69.12 
L 72 69.12 
z
" style="fill:#ffffff;"/>
   </g>
   <g id="matplotlib.axis_1">
    <g id="xtick_1">
     <g id="line2d_1">
      <path clip-path="url(#p8544042af0)" d="M 72 512.64 
L 72 69.12 
" style="fill:none;stroke:#b0b0b0;stroke-linecap:square;stroke-width:0.8;"/>
     </g>
     <g id="line2d_2">
      <defs>
       <path d="M 0 0 
L 0 3.5 
" id="m20b591ff18" style="stroke:#000000;stroke-width:0.8;"/>
      </defs>
      <g>
       <use style="stroke:#000000;stroke-width:0.8;" x="72" xlink:href="#m20b591ff18" y="512.64"/>
      </g>
     </g>
     <g id="text_1">
      <!-- 0.0 -->
      <defs>
       <path d="M 31.78125 66.40625 
Q 24.171875 66.40625 20.328125 58.90625 
Q 16.5 51.421875 16.5 36.375 
Q 16.5 21.390625 20.328125 13.890625 
Q 24.171875 6.390625 31.78125 6.390625 
Q 39.453125 6.390625 43.28125 13.890625 
Q 47.125 21.390625 47.125 36.375 
Q 47.125 51.421875 43.28125 58.90625 
Q 39.453125 66.40625 31.78125 66.40625 
z
M 31.78125 74.21875 
Q 44.046875 74.21875 50.515625 64.515625 
Q 56.984375 54.828125 56.984375 36.375 
Q 56.984375 17.96875 50.515625 8.265625 
Q 44.046875 -1.421875 31.78125 -1.421875 
Q 19.53125 -1.421875 13.0625 8.265625 
Q 6.59375 17.96875 6.59375 36.375 
Q 6.59375 54.828125 13.0625 64.515625 
Q 19.53125 74.21875 31.78125 74.21875 
z
" id="DejaVuSans-48"/>
       <path d="M 10.6875 12.40625 
L 21 12.40625 
L 21 0 
L 10.6875 0 
z
" id="DejaVuSans-46"/>
      </defs>
      <g transform="translate(64.048438 527.238438)scale(0.1 -0.1)">
       <use xlink:href="#DejaVuSans-48"/>
       <use x="63.623047" xlink:href="#DejaVuSans-46"/>
       <use x="95.410156" xlink:href="#DejaVuSans-48"/>
      </g>
     </g>
    </g>
    <g id="xtick_2">
     <g id="line2d_3">
      <path clip-path="url(#p8544042af0)" d="M 161.28 512.64 
L 161.28 69.12 
" style="fill:none;stroke:#b0b0b0;stroke-linecap:square;stroke-width:0.8;"/>
     </g>
     <g id="line2d_4">
      <g>
       <use style="stroke:#000000;stroke-width:0.8;" x="161.28" xlink:href="#m20b591ff18" y="512.64"/>
      </g>
     </g>
     <g id="text_2">
      <!-- 0.2 -->
      <defs>
       <path d="M 19.1875 8.296875 
L 53.609375 8.296875 
L 53.609375 0 
L 7.328125 0 
L 7.328125 8.296875 
Q 12.9375 14.109375 22.625 23.890625 
Q 32.328125 33.6875 34.8125 36.53125 
Q 39.546875 41.84375 41.421875 45.53125 
Q 43.3125 49.21875 43.3125 52.78125 
Q 43.3125 58.59375 39.234375 62.25 
Q 35.15625 65.921875 28.609375 65.921875 
Q 23.96875 65.921875 18.8125 64.3125 
Q 13.671875 62.703125 7.8125 59.421875 
L 7.8125 69.390625 
Q 13.765625 71.78125 18.9375 73 
Q 24.125 74.21875 28.421875 74.21875 
Q 39.75 74.21875 46.484375 68.546875 
Q 53.21875 62.890625 53.21875 53.421875 
Q 53.21875 48.921875 51.53125 44.890625 
Q 49.859375 40.875 45.40625 35.40625 
Q 44.1875 33.984375 37.640625 27.21875 
Q 31.109375 20.453125 19.1875 8.296875 
z
" id="DejaVuSans-50"/>
      </defs>
      <g transform="translate(153.328438 527.238438)scale(0.1 -0.1)">
       <use xlink:href="#DejaVuSans-48"/>
       <use x="63.623047" xlink:href="#DejaVuSans-46"/>
       <use x="95.410156" xlink:href="#DejaVuSans-50"/>
      </g>
     </g>
    </g>
    <g id="xtick_3">
     <g id="line2d_5">
      <path clip-path="url(#p8544042af0)" d="M 250.56 512.64 
L 250.56 69.12 
" style="fill:none;stroke:#b0b0b0;stroke-linecap:square;stroke-width:0.8;"/>
     </g>
     <g id="line2d_6">
      <g>
       <use style="stroke:#000000;stroke-width:0.8;" x="250.56" xlink:href="#m20b591ff18" y="512.64"/>
      </g>
     </g>
     <g id="text_3">
      <!-- 0.4 -->
      <defs>
       <path d="M 37.796875 64.3125 
L 12.890625 25.390625 
L 37.796875 25.390625 
z
M 35.203125 72.90625 
L 47.609375 72.90625 
L 47.609375 25.390625 
L 58.015625 25.390625 
L 58.015625 17.1875 
L 47.609375 17.1875 
L 47.609375 0 
L 37.796875 0 
L 37.796875 17.1875 
L 4.890625 17.1875 
L 4.890625 26.703125 
z
" id="DejaVuSans-52"/>
      </defs>
      <g transform="translate(242.608438 527.238438)scale(0.1 -0.1)">
       <use xlink:href="#DejaVuSans-48"/>
       <use x="63.623047" xlink:href="#DejaVuSans-46"/>
       <use x="95.410156" xlink:href="#DejaVuSans-52"/>
      </g>
     </g>
    </g>
    <g id="xtick_4">
     <g id="line2d_7">
      <path clip-path="url(#p8544042af0)" d="M 339.84 512.64 
L 339.84 69.12 
" style="fill:none;stroke:#b0b0b0;stroke-linecap:square;stroke-width:0.8;"/>
     </g>
     <g id="line2d_8">
      <g>
       <use style="stroke:#000000;stroke-width:0.8;" x="339.84" xlink:href="#m20b591ff18" y="512.64"/>
      </g>
     </g>
     <g id="text_4">
      <!-- 0.6 -->
      <defs>
       <path d="M 33.015625 40.375 
Q 26.375 40.375 22.484375 35.828125 
Q 18.609375 31.296875 18.609375 23.390625 
Q 18.609375 15.53125 22.484375 10.953125 
Q 26.375 6.390625 33.015625 6.390625 
Q 39.65625 6.390625 43.53125 10.953125 
Q 47.40625 15.53125 47.40625 23.390625 
Q 47.40625 31.296875 43.53125 35.828125 
Q 39.65625 40.375 33.015625 40.375 
z
M 52.59375 71.296875 
L 52.59375 62.3125 
Q 48.875 64.0625 45.09375 64.984375 
Q 41.3125 65.921875 37.59375 65.921875 
Q 27.828125 65.921875 22.671875 59.328125 
Q 17.53125 52.734375 16.796875 39.40625 
Q 19.671875 43.65625 24.015625 45.921875 
Q 28.375 48.1875 33.59375 48.1875 
Q 44.578125 48.1875 50.953125 41.515625 
Q 57.328125 34.859375 57.328125 23.390625 
Q 57.328125 12.15625 50.6875 5.359375 
Q 44.046875 -1.421875 33.015625 -1.421875 
Q 20.359375 -1.421875 13.671875 8.265625 
Q 6.984375 17.96875 6.984375 36.375 
Q 6.984375 53.65625 15.1875 63.9375 
Q 23.390625 74.21875 37.203125 74.21875 
Q 40.921875 74.21875 44.703125 73.484375 
Q 48.484375 72.75 52.59375 71.296875 
z
" id="DejaVuSans-54"/>
      </defs>
      <g transform="translate(331.888438 527.238438)scale(0.1 -0.1)">
       <use xlink:href="#DejaVuSans-48"/>
       <use x="63.623047" xlink:href="#DejaVuSans-46"/>
       <use x="95.410156" xlink:href="#DejaVuSans-54"/>
      </g>
     </g>
    </g>
    <g id="xtick_5">
     <g id="line2d_9">
      <path clip-path="url(#p8544042af0)" d="M 429.12 512.64 
L 429.12 69.12 
" style="fill:none;stroke:#b0b0b0;stroke-linecap:square;stroke-width:0.8;"/>
     </g>
     <g id="line2d_10">
      <g>
       <use style="stroke:#000000;stroke-width:0.8;" x="429.12" xlink:href="#m20b591ff18" y="512.64"/>
      </g>
     </g>
     <g id="text_5">
      <!-- 0.8 -->
      <defs>
       <path d="M 31.78125 34.625 
Q 24.75 34.625 20.71875 30.859375 
Q 16.703125 27.09375 16.703125 20.515625 
Q 16.703125 13.921875 20.71875 10.15625 
Q 24.75 6.390625 31.78125 6.390625 
Q 38.8125 6.390625 42.859375 10.171875 
Q 46.921875 13.96875 46.921875 20.515625 
Q 46.921875 27.09375 42.890625 30.859375 
Q 38.875 34.625 31.78125 34.625 
z
M 21.921875 38.8125 
Q 15.578125 40.375 12.03125 44.71875 
Q 8.5 49.078125 8.5 55.328125 
Q 8.5 64.0625 14.71875 69.140625 
Q 20.953125 74.21875 31.78125 74.21875 
Q 42.671875 74.21875 48.875 69.140625 
Q 55.078125 64.0625 55.078125 55.328125 
Q 55.078125 49.078125 51.53125 44.71875 
Q 48 40.375 41.703125 38.8125 
Q 48.828125 37.15625 52.796875 32.3125 
Q 56.78125 27.484375 56.78125 20.515625 
Q 56.78125 9.90625 50.3125 4.234375 
Q 43.84375 -1.421875 31.78125 -1.421875 
Q 19.734375 -1.421875 13.25 4.234375 
Q 6.78125 9.90625 6.78125 20.515625 
Q 6.78125 27.484375 10.78125 32.3125 
Q 14.796875 37.15625 21.921875 38.8125 
z
M 18.3125 54.390625 
Q 18.3125 48.734375 21.84375 45.5625 
Q 25.390625 42.390625 31.78125 42.390625 
Q 38.140625 42.390625 41.71875 45.5625 
Q 45.3125 48.734375 45.3125 54.390625 
Q 45.3125 60.0625 41.71875 63.234375 
Q 38.140625 66.40625 31.78125 66.40625 
Q 25.390625 66.40625 21.84375 63.234375 
Q 18.3125 60.0625 18.3125 54.390625 
z
" id="DejaVuSans-56"/>
      </defs>
      <g transform="translate(421.168437 527.238438)scale(0.1 -0.1)">
       <use xlink:href="#DejaVuSans-48"/>
       <use x="63.623047" xlink:href="#DejaVuSans-46"/>
       <use x="95.410156" xlink:href="#DejaVuSans-56"/>
      </g>
     </g>
    </g>
    <g id="xtick_6">
     <g id="line2d_11">
      <path clip-path="url(#p8544042af0)" d="M 518.4 512.64 
L 518.4 69.12 
" style="fill:none;stroke:#b0b0b0;stroke-linecap:square;stroke-width:0.8;"/>
     </g>
     <g id="line2d_12">
      <g>
       <use style="stroke:#000000;stroke-width:0.8;" x="518.4" xlink:href="#m20b591ff18" y="512.64"/>
      </g>
     </g>
     <g id="text_6">
      <!-- 1.0 -->
      <defs>
       <path d="M 12.40625 8.296875 
L 28.515625 8.296875 
L 28.515625 63.921875 
L 10.984375 60.40625 
L 10.984375 69.390625 
L 28.421875 72.90625 
L 38.28125 72.90625 
L 38.28125 8.296875 
L 54.390625 8.296875 
L 54.390625 0 
L 12.40625 0 
z
" id="DejaVuSans-49"/>
      </defs>
      <g transform="translate(510.448437 527.238438)scale(0.1 -0.1)">
       <use xlink:href="#DejaVuSans-49"/>
       <use x="63.623047" xlink:href="#DejaVuSans-46"/>
       <use x="95.410156" xlink:href="#DejaVuSans-48"/>
      </g>
     </g>
    </g>
    <g id="text_7">
     <!-- False Positive Rate -->
     <defs>
      <path d="M 9.8125 72.90625 
L 51.703125 72.90625 
L 51.703125 64.59375 
L 19.671875 64.59375 
L 19.671875 43.109375 
L 48.578125 43.109375 
L 48.578125 34.8125 
L 19.671875 34.8125 
L 19.671875 0 
L 9.8125 0 
z
" id="DejaVuSans-70"/>
      <path d="M 34.28125 27.484375 
Q 23.390625 27.484375 19.1875 25 
Q 14.984375 22.515625 14.984375 16.5 
Q 14.984375 11.71875 18.140625 8.90625 
Q 21.296875 6.109375 26.703125 6.109375 
Q 34.1875 6.109375 38.703125 11.40625 
Q 43.21875 16.703125 43.21875 25.484375 
L 43.21875 27.484375 
z
M 52.203125 31.203125 
L 52.203125 0 
L 43.21875 0 
L 43.21875 8.296875 
Q 40.140625 3.328125 35.546875 0.953125 
Q 30.953125 -1.421875 24.3125 -1.421875 
Q 15.921875 -1.421875 10.953125 3.296875 
Q 6 8.015625 6 15.921875 
Q 6 25.140625 12.171875 29.828125 
Q 18.359375 34.515625 30.609375 34.515625 
L 43.21875 34.515625 
L 43.21875 35.40625 
Q 43.21875 41.609375 39.140625 45 
Q 35.0625 48.390625 27.6875 48.390625 
Q 23 48.390625 18.546875 47.265625 
Q 14.109375 46.140625 10.015625 43.890625 
L 10.015625 52.203125 
Q 14.9375 54.109375 19.578125 55.046875 
Q 24.21875 56 28.609375 56 
Q 40.484375 56 46.34375 49.84375 
Q 52.203125 43.703125 52.203125 31.203125 
z
" id="DejaVuSans-97"/>
      <path d="M 9.421875 75.984375 
L 18.40625 75.984375 
L 18.40625 0 
L 9.421875 0 
z
" id="DejaVuSans-108"/>
      <path d="M 44.28125 53.078125 
L 44.28125 44.578125 
Q 40.484375 46.53125 36.375 47.5 
Q 32.28125 48.484375 27.875 48.484375 
Q 21.1875 48.484375 17.84375 46.4375 
Q 14.5 44.390625 14.5 40.28125 
Q 14.5 37.15625 16.890625 35.375 
Q 19.28125 33.59375 26.515625 31.984375 
L 29.59375 31.296875 
Q 39.15625 29.25 43.1875 25.515625 
Q 47.21875 21.78125 47.21875 15.09375 
Q 47.21875 7.46875 41.1875 3.015625 
Q 35.15625 -1.421875 24.609375 -1.421875 
Q 20.21875 -1.421875 15.453125 -0.5625 
Q 10.6875 0.296875 5.421875 2 
L 5.421875 11.28125 
Q 10.40625 8.6875 15.234375 7.390625 
Q 20.0625 6.109375 24.8125 6.109375 
Q 31.15625 6.109375 34.5625 8.28125 
Q 37.984375 10.453125 37.984375 14.40625 
Q 37.984375 18.0625 35.515625 20.015625 
Q 33.0625 21.96875 24.703125 23.78125 
L 21.578125 24.515625 
Q 13.234375 26.265625 9.515625 29.90625 
Q 5.8125 33.546875 5.8125 39.890625 
Q 5.8125 47.609375 11.28125 51.796875 
Q 16.75 56 26.8125 56 
Q 31.78125 56 36.171875 55.265625 
Q 40.578125 54.546875 44.28125 53.078125 
z
" id="DejaVuSans-115"/>
      <path d="M 56.203125 29.59375 
L 56.203125 25.203125 
L 14.890625 25.203125 
Q 15.484375 15.921875 20.484375 11.0625 
Q 25.484375 6.203125 34.421875 6.203125 
Q 39.59375 6.203125 44.453125 7.46875 
Q 49.3125 8.734375 54.109375 11.28125 
L 54.109375 2.78125 
Q 49.265625 0.734375 44.1875 -0.34375 
Q 39.109375 -1.421875 33.890625 -1.421875 
Q 20.796875 -1.421875 13.15625 6.1875 
Q 5.515625 13.8125 5.515625 26.8125 
Q 5.515625 40.234375 12.765625 48.109375 
Q 20.015625 56 32.328125 56 
Q 43.359375 56 49.78125 48.890625 
Q 56.203125 41.796875 56.203125 29.59375 
z
M 47.21875 32.234375 
Q 47.125 39.59375 43.09375 43.984375 
Q 39.0625 48.390625 32.421875 48.390625 
Q 24.90625 48.390625 20.390625 44.140625 
Q 15.875 39.890625 15.1875 32.171875 
z
" id="DejaVuSans-101"/>
      <path id="DejaVuSans-32"/>
      <path d="M 19.671875 64.796875 
L 19.671875 37.40625 
L 32.078125 37.40625 
Q 38.96875 37.40625 42.71875 40.96875 
Q 46.484375 44.53125 46.484375 51.125 
Q 46.484375 57.671875 42.71875 61.234375 
Q 38.96875 64.796875 32.078125 64.796875 
z
M 9.8125 72.90625 
L 32.078125 72.90625 
Q 44.34375 72.90625 50.609375 67.359375 
Q 56.890625 61.8125 56.890625 51.125 
Q 56.890625 40.328125 50.609375 34.8125 
Q 44.34375 29.296875 32.078125 29.296875 
L 19.671875 29.296875 
L 19.671875 0 
L 9.8125 0 
z
" id="DejaVuSans-80"/>
      <path d="M 30.609375 48.390625 
Q 23.390625 48.390625 19.1875 42.75 
Q 14.984375 37.109375 14.984375 27.296875 
Q 14.984375 17.484375 19.15625 11.84375 
Q 23.34375 6.203125 30.609375 6.203125 
Q 37.796875 6.203125 41.984375 11.859375 
Q 46.1875 17.53125 46.1875 27.296875 
Q 46.1875 37.015625 41.984375 42.703125 
Q 37.796875 48.390625 30.609375 48.390625 
z
M 30.609375 56 
Q 42.328125 56 49.015625 48.375 
Q 55.71875 40.765625 55.71875 27.296875 
Q 55.71875 13.875 49.015625 6.21875 
Q 42.328125 -1.421875 30.609375 -1.421875 
Q 18.84375 -1.421875 12.171875 6.21875 
Q 5.515625 13.875 5.515625 27.296875 
Q 5.515625 40.765625 12.171875 48.375 
Q 18.84375 56 30.609375 56 
z
" id="DejaVuSans-111"/>
      <path d="M 9.421875 54.6875 
L 18.40625 54.6875 
L 18.40625 0 
L 9.421875 0 
z
M 9.421875 75.984375 
L 18.40625 75.984375 
L 18.40625 64.59375 
L 9.421875 64.59375 
z
" id="DejaVuSans-105"/>
      <path d="M 18.3125 70.21875 
L 18.3125 54.6875 
L 36.8125 54.6875 
L 36.8125 47.703125 
L 18.3125 47.703125 
L 18.3125 18.015625 
Q 18.3125 11.328125 20.140625 9.421875 
Q 21.96875 7.515625 27.59375 7.515625 
L 36.8125 7.515625 
L 36.8125 0 
L 27.59375 0 
Q 17.1875 0 13.234375 3.875 
Q 9.28125 7.765625 9.28125 18.015625 
L 9.28125 47.703125 
L 2.6875 47.703125 
L 2.6875 54.6875 
L 9.28125 54.6875 
L 9.28125 70.21875 
z
" id="DejaVuSans-116"/>
      <path d="M 2.984375 54.6875 
L 12.5 54.6875 
L 29.59375 8.796875 
L 46.6875 54.6875 
L 56.203125 54.6875 
L 35.6875 0 
L 23.484375 0 
z
" id="DejaVuSans-118"/>
      <path d="M 44.390625 34.1875 
Q 47.5625 33.109375 50.5625 29.59375 
Q 53.5625 26.078125 56.59375 19.921875 
L 66.609375 0 
L 56 0 
L 46.6875 18.703125 
Q 43.0625 26.03125 39.671875 28.421875 
Q 36.28125 30.8125 30.421875 30.8125 
L 19.671875 30.8125 
L 19.671875 0 
L 9.8125 0 
L 9.8125 72.90625 
L 32.078125 72.90625 
Q 44.578125 72.90625 50.734375 67.671875 
Q 56.890625 62.453125 56.890625 51.90625 
Q 56.890625 45.015625 53.6875 40.46875 
Q 50.484375 35.9375 44.390625 34.1875 
z
M 19.671875 64.796875 
L 19.671875 38.921875 
L 32.078125 38.921875 
Q 39.203125 38.921875 42.84375 42.21875 
Q 46.484375 45.515625 46.484375 51.90625 
Q 46.484375 58.296875 42.84375 61.546875 
Q 39.203125 64.796875 32.078125 64.796875 
z
" id="DejaVuSans-82"/>
     </defs>
     <g transform="translate(247.994531 540.916563)scale(0.1 -0.1)">
      <use xlink:href="#DejaVuSans-70"/>
      <use x="57.378906" xlink:href="#DejaVuSans-97"/>
      <use x="118.658203" xlink:href="#DejaVuSans-108"/>
      <use x="146.441406" xlink:href="#DejaVuSans-115"/>
      <use x="198.541016" xlink:href="#DejaVuSans-101"/>
      <use x="260.064453" xlink:href="#DejaVuSans-32"/>
      <use x="291.851562" xlink:href="#DejaVuSans-80"/>
      <use x="352.107422" xlink:href="#DejaVuSans-111"/>
      <use x="413.289062" xlink:href="#DejaVuSans-115"/>
      <use x="465.388672" xlink:href="#DejaVuSans-105"/>
      <use x="493.171875" xlink:href="#DejaVuSans-116"/>
      <use x="532.380859" xlink:href="#DejaVuSans-105"/>
      <use x="560.164062" xlink:href="#DejaVuSans-118"/>
      <use x="619.34375" xlink:href="#DejaVuSans-101"/>
      <use x="680.867188" xlink:href="#DejaVuSans-32"/>
      <use x="712.654297" xlink:href="#DejaVuSans-82"/>
      <use x="782.105469" xlink:href="#DejaVuSans-97"/>
      <use x="843.384766" xlink:href="#DejaVuSans-116"/>
      <use x="882.59375" xlink:href="#DejaVuSans-101"/>
     </g>
    </g>
   </g>
   <g id="matplotlib.axis_2">
    <g id="ytick_1">
     <g id="line2d_13">
      <path clip-path="url(#p8544042af0)" d="M 72 512.64 
L 518.4 512.64 
" style="fill:none;stroke:#b0b0b0;stroke-linecap:square;stroke-width:0.8;"/>
     </g>
     <g id="line2d_14">
      <defs>
       <path d="M 0 0 
L -3.5 0 
" id="md8b6a56aa6" style="stroke:#000000;stroke-width:0.8;"/>
      </defs>
      <g>
       <use style="stroke:#000000;stroke-width:0.8;" x="72" xlink:href="#md8b6a56aa6" y="512.64"/>
      </g>
     </g>
     <g id="text_8">
      <!-- 0.0 -->
      <g transform="translate(49.096875 516.439219)scale(0.1 -0.1)">
       <use xlink:href="#DejaVuSans-48"/>
       <use x="63.623047" xlink:href="#DejaVuSans-46"/>
       <use x="95.410156" xlink:href="#DejaVuSans-48"/>
      </g>
     </g>
    </g>
    <g id="ytick_2">
     <g id="line2d_15">
      <path clip-path="url(#p8544042af0)" d="M 72 428.16 
L 518.4 428.16 
" style="fill:none;stroke:#b0b0b0;stroke-linecap:square;stroke-width:0.8;"/>
     </g>
     <g id="line2d_16">
      <g>
       <use style="stroke:#000000;stroke-width:0.8;" x="72" xlink:href="#md8b6a56aa6" y="428.16"/>
      </g>
     </g>
     <g id="text_9">
      <!-- 0.2 -->
      <g transform="translate(49.096875 431.959219)scale(0.1 -0.1)">
       <use xlink:href="#DejaVuSans-48"/>
       <use x="63.623047" xlink:href="#DejaVuSans-46"/>
       <use x="95.410156" xlink:href="#DejaVuSans-50"/>
      </g>
     </g>
    </g>
    <g id="ytick_3">
     <g id="line2d_17">
      <path clip-path="url(#p8544042af0)" d="M 72 343.68 
L 518.4 343.68 
" style="fill:none;stroke:#b0b0b0;stroke-linecap:square;stroke-width:0.8;"/>
     </g>
     <g id="line2d_18">
      <g>
       <use style="stroke:#000000;stroke-width:0.8;" x="72" xlink:href="#md8b6a56aa6" y="343.68"/>
      </g>
     </g>
     <g id="text_10">
      <!-- 0.4 -->
      <g transform="translate(49.096875 347.479219)scale(0.1 -0.1)">
       <use xlink:href="#DejaVuSans-48"/>
       <use x="63.623047" xlink:href="#DejaVuSans-46"/>
       <use x="95.410156" xlink:href="#DejaVuSans-52"/>
      </g>
     </g>
    </g>
    <g id="ytick_4">
     <g id="line2d_19">
      <path clip-path="url(#p8544042af0)" d="M 72 259.2 
L 518.4 259.2 
" style="fill:none;stroke:#b0b0b0;stroke-linecap:square;stroke-width:0.8;"/>
     </g>
     <g id="line2d_20">
      <g>
       <use style="stroke:#000000;stroke-width:0.8;" x="72" xlink:href="#md8b6a56aa6" y="259.2"/>
      </g>
     </g>
     <g id="text_11">
      <!-- 0.6 -->
      <g transform="translate(49.096875 262.999219)scale(0.1 -0.1)">
       <use xlink:href="#DejaVuSans-48"/>
       <use x="63.623047" xlink:href="#DejaVuSans-46"/>
       <use x="95.410156" xlink:href="#DejaVuSans-54"/>
      </g>
     </g>
    </g>
    <g id="ytick_5">
     <g id="line2d_21">
      <path clip-path="url(#p8544042af0)" d="M 72 174.72 
L 518.4 174.72 
" style="fill:none;stroke:#b0b0b0;stroke-linecap:square;stroke-width:0.8;"/>
     </g>
     <g id="line2d_22">
      <g>
       <use style="stroke:#000000;stroke-width:0.8;" x="72" xlink:href="#md8b6a56aa6" y="174.72"/>
      </g>
     </g>
     <g id="text_12">
      <!-- 0.8 -->
      <g transform="translate(49.096875 178.519219)scale(0.1 -0.1)">
       <use xlink:href="#DejaVuSans-48"/>
       <use x="63.623047" xlink:href="#DejaVuSans-46"/>
       <use x="95.410156" xlink:href="#DejaVuSans-56"/>
      </g>
     </g>
    </g>
    <g id="ytick_6">
     <g id="line2d_23">
      <path clip-path="url(#p8544042af0)" d="M 72 90.24 
L 518.4 90.24 
" style="fill:none;stroke:#b0b0b0;stroke-linecap:square;stroke-width:0.8;"/>
     </g>
     <g id="line2d_24">
      <g>
       <use style="stroke:#000000;stroke-width:0.8;" x="72" xlink:href="#md8b6a56aa6" y="90.24"/>
      </g>
     </g>
     <g id="text_13">
      <!-- 1.0 -->
      <g transform="translate(49.096875 94.039219)scale(0.1 -0.1)">
       <use xlink:href="#DejaVuSans-49"/>
       <use x="63.623047" xlink:href="#DejaVuSans-46"/>
       <use x="95.410156" xlink:href="#DejaVuSans-48"/>
      </g>
     </g>
    </g>
    <g id="text_14">
     <!-- True Positive Rate -->
     <defs>
      <path d="M -0.296875 72.90625 
L 61.375 72.90625 
L 61.375 64.59375 
L 35.5 64.59375 
L 35.5 0 
L 25.59375 0 
L 25.59375 64.59375 
L -0.296875 64.59375 
z
" id="DejaVuSans-84"/>
      <path d="M 41.109375 46.296875 
Q 39.59375 47.171875 37.8125 47.578125 
Q 36.03125 48 33.890625 48 
Q 26.265625 48 22.1875 43.046875 
Q 18.109375 38.09375 18.109375 28.8125 
L 18.109375 0 
L 9.078125 0 
L 9.078125 54.6875 
L 18.109375 54.6875 
L 18.109375 46.1875 
Q 20.953125 51.171875 25.484375 53.578125 
Q 30.03125 56 36.53125 56 
Q 37.453125 56 38.578125 55.875 
Q 39.703125 55.765625 41.0625 55.515625 
z
" id="DejaVuSans-114"/>
      <path d="M 8.5 21.578125 
L 8.5 54.6875 
L 17.484375 54.6875 
L 17.484375 21.921875 
Q 17.484375 14.15625 20.5 10.265625 
Q 23.53125 6.390625 29.59375 6.390625 
Q 36.859375 6.390625 41.078125 11.03125 
Q 45.3125 15.671875 45.3125 23.6875 
L 45.3125 54.6875 
L 54.296875 54.6875 
L 54.296875 0 
L 45.3125 0 
L 45.3125 8.40625 
Q 42.046875 3.421875 37.71875 1 
Q 33.40625 -1.421875 27.6875 -1.421875 
Q 18.265625 -1.421875 13.375 4.4375 
Q 8.5 10.296875 8.5 21.578125 
z
M 31.109375 56 
z
" id="DejaVuSans-117"/>
     </defs>
     <g transform="translate(43.017187 336.426094)rotate(-90)scale(0.1 -0.1)">
      <use xlink:href="#DejaVuSans-84"/>
      <use x="60.865234" xlink:href="#DejaVuSans-114"/>
      <use x="101.978516" xlink:href="#DejaVuSans-117"/>
      <use x="165.357422" xlink:href="#DejaVuSans-101"/>
      <use x="226.880859" xlink:href="#DejaVuSans-32"/>
      <use x="258.667969" xlink:href="#DejaVuSans-80"/>
      <use x="318.923828" xlink:href="#DejaVuSans-111"/>
      <use x="380.105469" xlink:href="#DejaVuSans-115"/>
      <use x="432.205078" xlink:href="#DejaVuSans-105"/>
      <use x="459.988281" xlink:href="#DejaVuSans-116"/>
      <use x="499.197266" xlink:href="#DejaVuSans-105"/>
      <use x="526.980469" xlink:href="#DejaVuSans-118"/>
      <use x="586.160156" xlink:href="#DejaVuSans-101"/>
      <use x="647.683594" xlink:href="#DejaVuSans-32"/>
      <use x="679.470703" xlink:href="#DejaVuSans-82"/>
      <use x="748.921875" xlink:href="#DejaVuSans-97"/>
      <use x="810.201172" xlink:href="#DejaVuSans-116"/>
      <use x="849.410156" xlink:href="#DejaVuSans-101"/>
     </g>
    </g>
   </g>
   <g id="line2d_25">
    <path clip-path="url(#p8544042af0)" d="M 72 512.64 
L 72 490.877002 
L 72.348478 490.877002 
L 72.348478 489.22829 
L 72.696956 489.22829 
L 72.696956 474.060141 
L 73.045433 474.060141 
L 73.045433 456.254052 
L 73.393911 456.254052 
L 73.393911 452.626885 
L 73.742389 452.626885 
L 73.742389 443.394098 
L 74.090867 443.394098 
L 74.090867 442.404871 
L 74.439344 442.404871 
L 74.439344 440.096674 
L 74.787822 440.096674 
L 74.787822 438.777705 
L 75.1363 438.777705 
L 75.1363 432.182857 
L 75.484778 432.182857 
L 75.484778 430.204403 
L 75.833255 430.204403 
L 75.833255 427.566464 
L 76.181733 427.566464 
L 76.181733 426.906979 
L 76.530211 426.906979 
L 76.530211 422.95007 
L 77.227166 422.95007 
L 77.227166 421.301358 
L 77.575644 421.301358 
L 77.575644 417.34445 
L 77.924122 417.34445 
L 77.924122 416.02548 
L 78.2726 416.02548 
L 78.2726 415.695738 
L 78.969555 415.695738 
L 78.969555 415.036253 
L 79.318033 415.036253 
L 79.318033 414.047026 
L 79.666511 414.047026 
L 79.666511 412.728056 
L 80.014988 412.728056 
L 80.014988 410.419859 
L 80.363466 410.419859 
L 80.363466 409.10089 
L 80.711944 409.10089 
L 80.711944 403.165527 
L 81.060422 403.165527 
L 81.060422 401.187073 
L 81.757377 401.187073 
L 81.757377 399.868103 
L 82.105855 399.868103 
L 82.105855 397.559906 
L 82.454333 397.559906 
L 82.454333 396.900422 
L 82.80281 396.900422 
L 82.80281 396.570679 
L 83.151288 396.570679 
L 83.151288 395.581452 
L 84.196721 395.581452 
L 84.196721 394.592225 
L 85.242155 394.592225 
L 85.242155 393.602998 
L 85.590632 393.602998 
L 85.590632 391.294801 
L 85.93911 391.294801 
L 85.93911 390.965059 
L 86.287588 390.965059 
L 86.287588 388.986604 
L 86.636066 388.986604 
L 86.636066 388.327119 
L 86.984543 388.327119 
L 86.984543 383.380984 
L 88.029977 383.380984 
L 88.029977 383.051241 
L 88.726932 383.051241 
L 88.726932 382.391756 
L 89.423888 382.391756 
L 89.423888 382.062014 
L 90.120843 382.062014 
L 90.120843 380.08356 
L 90.817799 380.08356 
L 90.817799 378.434848 
L 91.166276 378.434848 
L 91.166276 378.105105 
L 91.514754 378.105105 
L 91.514754 377.775363 
L 92.560187 377.775363 
L 92.560187 373.818454 
L 92.908665 373.818454 
L 92.908665 370.850773 
L 93.257143 370.850773 
L 93.257143 365.574895 
L 93.605621 365.574895 
L 93.605621 363.926183 
L 93.954098 363.926183 
L 93.954098 362.936956 
L 94.302576 362.936956 
L 94.302576 360.628759 
L 94.651054 360.628759 
L 94.651054 359.969274 
L 95.348009 359.969274 
L 95.348009 358.320562 
L 96.044965 358.320562 
L 96.044965 357.331335 
L 96.393443 357.331335 
L 96.393443 357.001593 
L 96.74192 357.001593 
L 96.74192 354.363653 
L 97.787354 354.363653 
L 97.787354 353.044684 
L 98.484309 353.044684 
L 98.484309 352.385199 
L 98.832787 352.385199 
L 98.832787 352.055457 
L 99.181265 352.055457 
L 99.181265 351.06623 
L 99.529742 351.06623 
L 99.529742 349.74726 
L 99.87822 349.74726 
L 99.87822 349.087775 
L 100.226698 349.087775 
L 100.226698 348.758033 
L 100.575176 348.758033 
L 100.575176 347.768806 
L 100.923653 347.768806 
L 100.923653 344.141639 
L 101.272131 344.141639 
L 101.272131 343.811897 
L 101.969087 343.811897 
L 101.969087 343.152412 
L 102.317564 343.152412 
L 102.317564 341.173958 
L 103.01452 341.173958 
L 103.01452 340.514473 
L 103.711475 340.514473 
L 103.711475 339.854988 
L 104.408431 339.854988 
L 104.408431 339.525246 
L 104.756909 339.525246 
L 104.756909 338.536019 
L 105.453864 338.536019 
L 105.453864 337.546792 
L 106.15082 337.546792 
L 106.15082 335.238595 
L 106.499297 335.238595 
L 106.499297 333.589883 
L 106.847775 333.589883 
L 106.847775 331.611429 
L 107.196253 331.611429 
L 107.196253 330.951944 
L 107.544731 330.951944 
L 107.544731 330.622201 
L 108.590164 330.622201 
L 108.590164 329.632974 
L 108.938642 329.632974 
L 108.938642 328.973489 
L 109.287119 328.973489 
L 109.287119 328.643747 
L 109.635597 328.643747 
L 109.635597 327.65452 
L 109.984075 327.65452 
L 109.984075 326.665293 
L 110.332553 326.665293 
L 110.332553 324.686838 
L 110.68103 324.686838 
L 110.68103 324.027354 
L 111.029508 324.027354 
L 111.029508 323.697611 
L 111.377986 323.697611 
L 111.377986 321.719157 
L 112.423419 321.719157 
L 112.423419 321.389415 
L 112.771897 321.389415 
L 112.771897 320.400187 
L 113.120375 320.400187 
L 113.120375 319.740703 
L 113.468852 319.740703 
L 113.468852 318.421733 
L 114.165808 318.421733 
L 114.165808 318.091991 
L 114.514286 318.091991 
L 114.514286 317.762248 
L 114.862763 317.762248 
L 114.862763 316.773021 
L 115.211241 316.773021 
L 115.211241 316.113536 
L 115.908197 316.113536 
L 115.908197 315.783794 
L 116.256674 315.783794 
L 116.256674 315.124309 
L 116.95363 315.124309 
L 116.95363 314.794567 
L 117.650585 314.794567 
L 117.650585 313.475597 
L 117.999063 313.475597 
L 117.999063 312.48637 
L 119.044496 312.48637 
L 119.044496 311.497143 
L 119.392974 311.497143 
L 119.392974 311.1674 
L 119.741452 311.1674 
L 119.741452 307.540234 
L 120.786885 307.540234 
L 120.786885 306.551007 
L 121.135363 306.551007 
L 121.135363 304.24281 
L 121.483841 304.24281 
L 121.483841 302.594098 
L 121.832319 302.594098 
L 121.832319 301.275129 
L 122.180796 301.275129 
L 122.180796 300.945386 
L 122.529274 300.945386 
L 122.529274 300.615644 
L 122.877752 300.615644 
L 122.877752 298.966932 
L 123.22623 298.966932 
L 123.22623 297.977705 
L 124.620141 297.977705 
L 124.620141 296.328993 
L 124.968618 296.328993 
L 124.968618 295.339766 
L 125.317096 295.339766 
L 125.317096 293.031569 
L 125.665574 293.031569 
L 125.665574 292.701827 
L 126.711007 292.701827 
L 126.711007 291.7126 
L 127.059485 291.7126 
L 127.059485 291.053115 
L 127.407963 291.053115 
L 127.407963 290.723372 
L 128.104918 290.723372 
L 128.104918 289.404403 
L 128.453396 289.404403 
L 128.453396 289.07466 
L 128.801874 289.07466 
L 128.801874 288.744918 
L 129.150351 288.744918 
L 129.150351 287.425948 
L 129.498829 287.425948 
L 129.498829 286.436721 
L 129.847307 286.436721 
L 129.847307 285.777237 
L 130.195785 285.777237 
L 130.195785 285.447494 
L 130.544262 285.447494 
L 130.544262 284.788009 
L 131.241218 284.788009 
L 131.241218 284.458267 
L 131.589696 284.458267 
L 131.589696 284.128525 
L 131.938173 284.128525 
L 131.938173 283.798782 
L 132.286651 283.798782 
L 132.286651 283.46904 
L 133.332084 283.46904 
L 133.332084 283.139297 
L 133.680562 283.139297 
L 133.680562 282.479813 
L 134.377518 282.479813 
L 134.377518 281.820328 
L 135.074473 281.820328 
L 135.074473 280.831101 
L 135.422951 280.831101 
L 135.422951 280.501358 
L 135.771429 280.501358 
L 135.771429 279.512131 
L 136.468384 279.512131 
L 136.468384 278.852646 
L 136.816862 278.852646 
L 136.816862 277.863419 
L 137.16534 277.863419 
L 137.16534 276.54445 
L 138.210773 276.54445 
L 138.210773 274.895738 
L 139.256206 274.895738 
L 139.256206 274.565995 
L 139.604684 274.565995 
L 139.604684 273.906511 
L 139.953162 273.906511 
L 139.953162 272.917283 
L 140.301639 272.917283 
L 140.301639 271.928056 
L 140.650117 271.928056 
L 140.650117 271.268571 
L 140.998595 271.268571 
L 140.998595 269.949602 
L 141.347073 269.949602 
L 141.347073 269.619859 
L 141.69555 269.619859 
L 141.69555 268.960375 
L 142.044028 268.960375 
L 142.044028 268.630632 
L 142.740984 268.630632 
L 142.740984 267.641405 
L 143.089461 267.641405 
L 143.089461 267.311663 
L 143.437939 267.311663 
L 143.437939 266.652178 
L 144.483372 266.652178 
L 144.483372 264.343981 
L 144.83185 264.343981 
L 144.83185 264.014239 
L 145.180328 264.014239 
L 145.180328 263.684496 
L 145.528806 263.684496 
L 145.528806 263.354754 
L 146.225761 263.354754 
L 146.225761 262.035785 
L 146.574239 262.035785 
L 146.574239 261.3763 
L 147.619672 261.3763 
L 147.619672 260.716815 
L 148.316628 260.716815 
L 148.316628 260.387073 
L 148.665105 260.387073 
L 148.665105 260.05733 
L 149.013583 260.05733 
L 149.013583 259.727588 
L 149.362061 259.727588 
L 149.362061 259.397845 
L 150.407494 259.397845 
L 150.407494 259.068103 
L 151.801405 259.068103 
L 151.801405 258.078876 
L 152.149883 258.078876 
L 152.149883 257.749133 
L 153.195316 257.749133 
L 153.195316 257.089649 
L 153.543794 257.089649 
L 153.543794 256.759906 
L 154.589227 256.759906 
L 154.589227 256.100422 
L 154.937705 256.100422 
L 154.937705 254.45171 
L 155.286183 254.45171 
L 155.286183 253.792225 
L 155.63466 253.792225 
L 155.63466 253.462482 
L 155.983138 253.462482 
L 155.983138 252.473255 
L 156.331616 252.473255 
L 156.331616 251.81377 
L 156.680094 251.81377 
L 156.680094 251.484028 
L 158.074005 251.484028 
L 158.074005 250.165059 
L 158.422482 250.165059 
L 158.422482 249.835316 
L 158.77096 249.835316 
L 158.77096 248.516347 
L 159.119438 248.516347 
L 159.119438 247.856862 
L 159.816393 247.856862 
L 159.816393 247.197377 
L 160.164871 247.197377 
L 160.164871 246.867635 
L 161.210304 246.867635 
L 161.210304 246.537892 
L 161.90726 246.537892 
L 161.90726 245.548665 
L 162.255738 245.548665 
L 162.255738 244.88918 
L 162.604215 244.88918 
L 162.604215 244.229696 
L 163.301171 244.229696 
L 163.301171 243.570211 
L 163.649649 243.570211 
L 163.649649 243.240468 
L 163.998126 243.240468 
L 163.998126 242.910726 
L 164.695082 242.910726 
L 164.695082 242.580984 
L 165.04356 242.580984 
L 165.04356 241.921499 
L 165.392037 241.921499 
L 165.392037 241.591756 
L 167.134426 241.591756 
L 167.134426 241.262014 
L 167.831382 241.262014 
L 167.831382 240.932272 
L 168.179859 240.932272 
L 168.179859 240.272787 
L 171.664637 240.272787 
L 171.664637 239.613302 
L 172.71007 239.613302 
L 172.71007 239.28356 
L 175.497892 239.28356 
L 175.497892 238.294333 
L 176.194848 238.294333 
L 176.194848 237.305105 
L 176.543326 237.305105 
L 176.543326 236.645621 
L 177.240281 236.645621 
L 177.240281 235.986136 
L 177.588759 235.986136 
L 177.588759 235.326651 
L 179.331148 235.326651 
L 179.331148 234.337424 
L 179.679625 234.337424 
L 179.679625 233.677939 
L 180.028103 233.677939 
L 180.028103 232.688712 
L 180.376581 232.688712 
L 180.376581 232.35897 
L 181.073536 232.35897 
L 181.073536 231.04 
L 181.770492 231.04 
L 181.770492 230.710258 
L 183.164403 230.710258 
L 183.164403 230.380515 
L 183.512881 230.380515 
L 183.512881 230.050773 
L 184.558314 230.050773 
L 184.558314 229.72103 
L 185.603747 229.72103 
L 185.603747 228.731803 
L 186.300703 228.731803 
L 186.300703 228.402061 
L 186.64918 228.402061 
L 186.64918 227.742576 
L 187.694614 227.742576 
L 187.694614 226.423607 
L 190.482436 226.423607 
L 190.482436 226.093864 
L 190.830913 226.093864 
L 190.830913 225.764122 
L 191.179391 225.764122 
L 191.179391 225.104637 
L 191.527869 225.104637 
L 191.527869 224.774895 
L 192.224824 224.774895 
L 192.224824 224.445152 
L 192.573302 224.445152 
L 192.573302 224.11541 
L 192.92178 224.11541 
L 192.92178 223.785667 
L 193.618735 223.785667 
L 193.618735 222.79644 
L 193.967213 222.79644 
L 193.967213 222.136956 
L 194.315691 222.136956 
L 194.315691 221.807213 
L 195.361124 221.807213 
L 195.361124 221.477471 
L 196.05808 221.477471 
L 196.05808 221.147728 
L 197.800468 221.147728 
L 197.800468 220.488244 
L 198.148946 220.488244 
L 198.148946 219.828759 
L 198.497424 219.828759 
L 198.497424 219.499016 
L 199.542857 219.499016 
L 199.542857 216.531335 
L 200.936768 216.531335 
L 200.936768 216.201593 
L 202.330679 216.201593 
L 202.330679 215.87185 
L 203.027635 215.87185 
L 203.027635 215.542108 
L 203.72459 215.542108 
L 203.72459 214.882623 
L 204.073068 214.882623 
L 204.073068 214.223138 
L 204.770023 214.223138 
L 204.770023 213.233911 
L 205.118501 213.233911 
L 205.118501 211.585199 
L 205.466979 211.585199 
L 205.466979 211.255457 
L 206.163934 211.255457 
L 206.163934 210.925714 
L 206.512412 210.925714 
L 206.512412 210.26623 
L 207.209368 210.26623 
L 207.209368 209.277002 
L 207.557845 209.277002 
L 207.557845 208.287775 
L 208.603279 208.287775 
L 208.603279 207.298548 
L 209.648712 207.298548 
L 209.648712 206.639063 
L 210.694145 206.639063 
L 210.694145 206.309321 
L 211.391101 206.309321 
L 211.391101 205.979578 
L 212.436534 205.979578 
L 212.436534 205.649836 
L 213.133489 205.649836 
L 213.133489 205.320094 
L 213.481967 205.320094 
L 213.481967 204.660609 
L 214.5274 204.660609 
L 214.5274 204.330867 
L 214.875878 204.330867 
L 214.875878 203.341639 
L 215.224356 203.341639 
L 215.224356 202.682155 
L 215.572834 202.682155 
L 215.572834 202.352412 
L 217.315222 202.352412 
L 217.315222 202.02267 
L 217.6637 202.02267 
L 217.6637 201.692927 
L 218.360656 201.692927 
L 218.360656 199.384731 
L 218.709133 199.384731 
L 218.709133 199.054988 
L 220.103044 199.054988 
L 220.103044 198.725246 
L 220.8 198.725246 
L 220.8 198.065761 
L 222.890867 198.065761 
L 222.890867 196.746792 
L 223.239344 196.746792 
L 223.239344 195.757564 
L 224.284778 195.757564 
L 224.284778 195.09808 
L 224.633255 195.09808 
L 224.633255 194.768337 
L 225.330211 194.768337 
L 225.330211 194.438595 
L 226.027166 194.438595 
L 226.027166 193.77911 
L 226.375644 193.77911 
L 226.375644 193.449368 
L 227.0726 193.449368 
L 227.0726 192.789883 
L 228.118033 192.789883 
L 228.118033 192.130398 
L 228.466511 192.130398 
L 228.466511 191.800656 
L 228.814988 191.800656 
L 228.814988 191.470913 
L 230.208899 191.470913 
L 230.208899 191.141171 
L 230.557377 191.141171 
L 230.557377 190.811429 
L 231.60281 190.811429 
L 231.60281 189.822201 
L 232.648244 189.822201 
L 232.648244 189.492459 
L 232.996721 189.492459 
L 232.996721 189.162717 
L 234.390632 189.162717 
L 234.390632 188.503232 
L 234.73911 188.503232 
L 234.73911 187.843747 
L 235.087588 187.843747 
L 235.087588 187.514005 
L 235.436066 187.514005 
L 235.436066 187.184262 
L 235.784543 187.184262 
L 235.784543 186.85452 
L 236.133021 186.85452 
L 236.133021 186.524778 
L 236.481499 186.524778 
L 236.481499 186.195035 
L 237.178454 186.195035 
L 237.178454 185.865293 
L 239.269321 185.865293 
L 239.269321 185.53555 
L 239.617799 185.53555 
L 239.617799 185.205808 
L 240.314754 185.205808 
L 240.314754 184.876066 
L 240.663232 184.876066 
L 240.663232 183.886838 
L 242.754098 183.886838 
L 242.754098 183.227354 
L 243.799532 183.227354 
L 243.799532 182.567869 
L 245.193443 182.567869 
L 245.193443 181.578642 
L 245.890398 181.578642 
L 245.890398 180.919157 
L 246.935831 180.919157 
L 246.935831 179.270445 
L 249.375176 179.270445 
L 249.375176 178.281218 
L 250.072131 178.281218 
L 250.072131 177.951475 
L 250.769087 177.951475 
L 250.769087 177.291991 
L 251.117564 177.291991 
L 251.117564 176.962248 
L 251.81452 176.962248 
L 251.81452 176.632506 
L 252.511475 176.632506 
L 252.511475 176.302763 
L 252.859953 176.302763 
L 252.859953 175.973021 
L 253.556909 175.973021 
L 253.556909 175.313536 
L 253.905386 175.313536 
L 253.905386 173.994567 
L 254.602342 173.994567 
L 254.602342 173.664824 
L 254.95082 173.664824 
L 254.95082 173.335082 
L 255.647775 173.335082 
L 255.647775 172.345855 
L 255.996253 172.345855 
L 255.996253 171.026885 
L 256.344731 171.026885 
L 256.344731 170.697143 
L 257.041686 170.697143 
L 257.041686 170.3674 
L 257.738642 170.3674 
L 257.738642 170.037658 
L 258.087119 170.037658 
L 258.087119 169.707916 
L 258.435597 169.707916 
L 258.435597 169.378173 
L 259.48103 169.378173 
L 259.48103 168.059204 
L 260.177986 168.059204 
L 260.177986 167.069977 
L 260.874941 167.069977 
L 260.874941 166.740234 
L 265.056674 166.740234 
L 265.056674 166.080749 
L 265.75363 166.080749 
L 265.75363 165.751007 
L 266.450585 165.751007 
L 266.450585 165.091522 
L 269.238407 165.091522 
L 269.238407 164.432037 
L 269.586885 164.432037 
L 269.586885 164.102295 
L 270.980796 164.102295 
L 270.980796 163.772553 
L 271.329274 163.772553 
L 271.329274 163.44281 
L 272.02623 163.44281 
L 272.02623 162.783326 
L 273.071663 162.783326 
L 273.071663 162.453583 
L 274.814052 162.453583 
L 274.814052 162.123841 
L 275.162529 162.123841 
L 275.162529 161.794098 
L 275.859485 161.794098 
L 275.859485 161.464356 
L 276.55644 161.464356 
L 276.55644 160.804871 
L 276.904918 160.804871 
L 276.904918 160.475129 
L 277.601874 160.475129 
L 277.601874 160.145386 
L 277.950351 160.145386 
L 277.950351 159.485902 
L 278.647307 159.485902 
L 278.647307 158.826417 
L 279.344262 158.826417 
L 279.344262 158.496674 
L 279.69274 158.496674 
L 279.69274 157.83719 
L 280.041218 157.83719 
L 280.041218 157.507447 
L 280.738173 157.507447 
L 280.738173 156.847963 
L 281.086651 156.847963 
L 281.086651 156.188478 
L 281.435129 156.188478 
L 281.435129 155.528993 
L 282.82904 155.528993 
L 282.82904 155.199251 
L 283.177518 155.199251 
L 283.177518 154.869508 
L 285.268384 154.869508 
L 285.268384 154.539766 
L 285.616862 154.539766 
L 285.616862 154.210023 
L 286.662295 154.210023 
L 286.662295 153.550539 
L 287.010773 153.550539 
L 287.010773 152.891054 
L 287.359251 152.891054 
L 287.359251 152.561311 
L 289.450117 152.561311 
L 289.450117 151.901827 
L 290.49555 151.901827 
L 290.49555 151.242342 
L 292.586417 151.242342 
L 292.586417 149.923372 
L 293.980328 149.923372 
L 293.980328 149.59363 
L 295.374239 149.59363 
L 295.374239 148.934145 
L 296.071194 148.934145 
L 296.071194 148.27466 
L 296.419672 148.27466 
L 296.419672 147.944918 
L 297.116628 147.944918 
L 297.116628 147.285433 
L 297.813583 147.285433 
L 297.813583 146.955691 
L 298.162061 146.955691 
L 298.162061 146.625948 
L 298.510539 146.625948 
L 298.510539 146.296206 
L 302.692272 146.296206 
L 302.692272 145.636721 
L 303.389227 145.636721 
L 303.389227 144.977237 
L 304.43466 144.977237 
L 304.43466 144.647494 
L 305.480094 144.647494 
L 305.480094 143.988009 
L 310.010304 143.988009 
L 310.010304 143.658267 
L 311.752693 143.658267 
L 311.752693 143.328525 
L 313.146604 143.328525 
L 313.146604 142.998782 
L 313.495082 142.998782 
L 313.495082 142.66904 
L 315.237471 142.66904 
L 315.237471 142.339297 
L 316.631382 142.339297 
L 316.631382 142.009555 
L 316.979859 142.009555 
L 316.979859 141.679813 
L 317.676815 141.679813 
L 317.676815 141.35007 
L 318.025293 141.35007 
L 318.025293 140.690585 
L 319.767681 140.690585 
L 319.767681 140.360843 
L 321.161593 140.360843 
L 321.161593 140.031101 
L 324.64637 140.031101 
L 324.64637 139.701358 
L 325.343326 139.701358 
L 325.343326 138.382389 
L 327.085714 138.382389 
L 327.085714 138.052646 
L 328.479625 138.052646 
L 328.479625 137.722904 
L 328.828103 137.722904 
L 328.828103 137.393162 
L 330.570492 137.393162 
L 330.570492 136.733677 
L 334.055269 136.733677 
L 334.055269 136.403934 
L 334.403747 136.403934 
L 334.403747 135.74445 
L 334.752225 135.74445 
L 334.752225 134.755222 
L 335.44918 134.755222 
L 335.44918 134.42548 
L 335.797658 134.42548 
L 335.797658 133.765995 
L 337.191569 133.765995 
L 337.191569 133.436253 
L 337.540047 133.436253 
L 337.540047 133.106511 
L 338.58548 133.106511 
L 338.58548 132.776768 
L 339.630913 132.776768 
L 339.630913 132.117283 
L 339.979391 132.117283 
L 339.979391 131.787541 
L 340.676347 131.787541 
L 340.676347 131.128056 
L 341.373302 131.128056 
L 341.373302 130.798314 
L 341.72178 130.798314 
L 341.72178 130.138829 
L 343.115691 130.138829 
L 343.115691 129.809087 
L 343.812646 129.809087 
L 343.812646 129.479344 
L 344.509602 129.479344 
L 344.509602 128.819859 
L 344.85808 128.819859 
L 344.85808 128.490117 
L 345.206557 128.490117 
L 345.206557 128.160375 
L 347.645902 128.160375 
L 347.645902 127.830632 
L 347.994379 127.830632 
L 347.994379 127.50089 
L 348.342857 127.50089 
L 348.342857 127.171148 
L 349.039813 127.171148 
L 349.039813 126.511663 
L 349.736768 126.511663 
L 349.736768 126.18192 
L 351.479157 126.18192 
L 351.479157 125.852178 
L 351.827635 125.852178 
L 351.827635 125.192693 
L 352.52459 125.192693 
L 352.52459 124.533208 
L 355.66089 124.533208 
L 355.66089 124.203466 
L 358.448712 124.203466 
L 358.448712 123.873724 
L 360.191101 123.873724 
L 360.191101 123.214239 
L 360.539578 123.214239 
L 360.539578 122.884496 
L 361.236534 122.884496 
L 361.236534 122.225012 
L 361.585012 122.225012 
L 361.585012 121.565527 
L 364.372834 121.565527 
L 364.372834 121.235785 
L 365.069789 121.235785 
L 365.069789 120.906042 
L 366.115222 120.906042 
L 366.115222 120.246557 
L 366.812178 120.246557 
L 366.812178 119.916815 
L 367.160656 119.916815 
L 367.160656 118.597845 
L 372.7363 118.597845 
L 372.7363 117.938361 
L 376.221077 117.938361 
L 376.221077 117.608618 
L 376.569555 117.608618 
L 376.569555 117.278876 
L 376.918033 117.278876 
L 376.918033 116.949133 
L 377.266511 116.949133 
L 377.266511 116.619391 
L 378.660422 116.619391 
L 378.660422 115.959906 
L 381.448244 115.959906 
L 381.448244 115.630164 
L 383.190632 115.630164 
L 383.190632 114.640937 
L 383.53911 114.640937 
L 383.53911 113.981452 
L 383.887588 113.981452 
L 383.887588 113.65171 
L 384.584543 113.65171 
L 384.584543 113.321967 
L 384.933021 113.321967 
L 384.933021 112.992225 
L 386.67541 112.992225 
L 386.67541 112.002998 
L 387.023888 112.002998 
L 387.023888 111.673255 
L 388.417799 111.673255 
L 388.417799 111.01377 
L 391.205621 111.01377 
L 391.205621 110.024543 
L 391.902576 110.024543 
L 391.902576 109.694801 
L 392.948009 109.694801 
L 392.948009 108.705574 
L 395.387354 108.705574 
L 395.387354 108.375831 
L 397.47822 108.375831 
L 397.47822 107.056862 
L 401.311475 107.056862 
L 401.311475 106.727119 
L 403.75082 106.727119 
L 403.75082 106.397377 
L 405.841686 106.397377 
L 405.841686 105.737892 
L 406.190164 105.737892 
L 406.190164 105.40815 
L 411.765808 105.40815 
L 411.765808 105.078407 
L 412.811241 105.078407 
L 412.811241 104.418923 
L 413.159719 104.418923 
L 413.159719 104.08918 
L 414.205152 104.08918 
L 414.205152 103.759438 
L 414.902108 103.759438 
L 414.902108 103.429696 
L 416.296019 103.429696 
L 416.296019 103.099953 
L 418.038407 103.099953 
L 418.038407 102.770211 
L 418.735363 102.770211 
L 418.735363 102.440468 
L 420.129274 102.440468 
L 420.129274 102.110726 
L 423.614052 102.110726 
L 423.614052 101.780984 
L 427.447307 101.780984 
L 427.447307 101.451241 
L 432.325995 101.451241 
L 432.325995 101.121499 
L 433.022951 101.121499 
L 433.022951 100.791756 
L 437.204684 100.791756 
L 437.204684 100.462014 
L 438.598595 100.462014 
L 438.598595 100.132272 
L 440.340984 100.132272 
L 440.340984 99.802529 
L 445.219672 99.802529 
L 445.219672 99.472787 
L 445.56815 99.472787 
L 445.56815 98.813302 
L 448.007494 98.813302 
L 448.007494 98.48356 
L 449.052927 98.48356 
L 449.052927 97.824075 
L 449.749883 97.824075 
L 449.749883 97.494333 
L 455.325527 97.494333 
L 455.325527 97.16459 
L 455.674005 97.16459 
L 455.674005 96.834848 
L 456.022482 96.834848 
L 456.022482 96.505105 
L 459.855738 96.505105 
L 459.855738 96.175363 
L 465.082904 96.175363 
L 465.082904 95.845621 
L 468.916159 95.845621 
L 468.916159 95.515878 
L 469.613115 95.515878 
L 469.613115 95.186136 
L 471.355504 95.186136 
L 471.355504 94.856393 
L 471.703981 94.856393 
L 471.703981 94.526651 
L 472.749415 94.526651 
L 472.749415 94.196909 
L 473.097892 94.196909 
L 473.097892 93.867166 
L 473.44637 93.867166 
L 473.44637 93.537424 
L 475.885714 93.537424 
L 475.885714 93.207681 
L 476.58267 93.207681 
L 476.58267 92.877939 
L 483.203747 92.877939 
L 483.203747 92.548197 
L 484.946136 92.548197 
L 484.946136 92.218454 
L 487.733958 92.218454 
L 487.733958 91.55897 
L 490.52178 91.55897 
L 490.52178 91.229227 
L 492.961124 91.229227 
L 492.961124 90.899485 
L 495.051991 90.899485 
L 495.051991 90.569742 
L 513.172834 90.569742 
L 513.172834 90.24 
L 518.4 90.24 
L 518.4 90.24 
" style="fill:none;stroke:#ff8c00;stroke-linecap:square;stroke-width:2;"/>
   </g>
   <g id="line2d_26">
    <path clip-path="url(#p8544042af0)" d="M 72 512.64 
L 518.4 90.24 
" style="fill:none;stroke:#000080;stroke-dasharray:7.4,3.2;stroke-dashoffset:0;stroke-width:2;"/>
   </g>
   <g id="patch_3">
    <path d="M 72 512.64 
L 72 69.12 
" style="fill:none;stroke:#000000;stroke-linecap:square;stroke-linejoin:miter;stroke-width:0.8;"/>
   </g>
   <g id="patch_4">
    <path d="M 518.4 512.64 
L 518.4 69.12 
" style="fill:none;stroke:#000000;stroke-linecap:square;stroke-linejoin:miter;stroke-width:0.8;"/>
   </g>
   <g id="patch_5">
    <path d="M 72 512.64 
L 518.4 512.64 
" style="fill:none;stroke:#000000;stroke-linecap:square;stroke-linejoin:miter;stroke-width:0.8;"/>
   </g>
   <g id="patch_6">
    <path d="M 72 69.12 
L 518.4 69.12 
" style="fill:none;stroke:#000000;stroke-linecap:square;stroke-linejoin:miter;stroke-width:0.8;"/>
   </g>
   <g id="legend_1">
    <g id="patch_7">
     <path d="M 427.081875 509.64 
L 514.2 509.64 
Q 515.4 509.64 515.4 508.44 
L 515.4 500.233125 
Q 515.4 499.033125 514.2 499.033125 
L 427.081875 499.033125 
Q 425.881875 499.033125 425.881875 500.233125 
L 425.881875 508.44 
Q 425.881875 509.64 427.081875 509.64 
z
" style="fill:#ffffff;opacity:0.8;stroke:#cccccc;stroke-linejoin:miter;"/>
    </g>
    <g id="line2d_27">
     <path d="M 428.281875 503.892187 
L 440.281875 503.892187 
" style="fill:none;stroke:#ff8c00;stroke-linecap:square;stroke-width:2;"/>
    </g>
    <g id="line2d_28"/>
    <g id="text_15">
     <!-- D043183 (area =0.79) -->
     <defs>
      <path d="M 19.671875 64.796875 
L 19.671875 8.109375 
L 31.59375 8.109375 
Q 46.6875 8.109375 53.6875 14.9375 
Q 60.6875 21.78125 60.6875 36.53125 
Q 60.6875 51.171875 53.6875 57.984375 
Q 46.6875 64.796875 31.59375 64.796875 
z
M 9.8125 72.90625 
L 30.078125 72.90625 
Q 51.265625 72.90625 61.171875 64.09375 
Q 71.09375 55.28125 71.09375 36.53125 
Q 71.09375 17.671875 61.125 8.828125 
Q 51.171875 0 30.078125 0 
L 9.8125 0 
z
" id="DejaVuSans-68"/>
      <path d="M 40.578125 39.3125 
Q 47.65625 37.796875 51.625 33 
Q 55.609375 28.21875 55.609375 21.1875 
Q 55.609375 10.40625 48.1875 4.484375 
Q 40.765625 -1.421875 27.09375 -1.421875 
Q 22.515625 -1.421875 17.65625 -0.515625 
Q 12.796875 0.390625 7.625 2.203125 
L 7.625 11.71875 
Q 11.71875 9.328125 16.59375 8.109375 
Q 21.484375 6.890625 26.8125 6.890625 
Q 36.078125 6.890625 40.9375 10.546875 
Q 45.796875 14.203125 45.796875 21.1875 
Q 45.796875 27.640625 41.28125 31.265625 
Q 36.765625 34.90625 28.71875 34.90625 
L 20.21875 34.90625 
L 20.21875 43.015625 
L 29.109375 43.015625 
Q 36.375 43.015625 40.234375 45.921875 
Q 44.09375 48.828125 44.09375 54.296875 
Q 44.09375 59.90625 40.109375 62.90625 
Q 36.140625 65.921875 28.71875 65.921875 
Q 24.65625 65.921875 20.015625 65.03125 
Q 15.375 64.15625 9.8125 62.3125 
L 9.8125 71.09375 
Q 15.4375 72.65625 20.34375 73.4375 
Q 25.25 74.21875 29.59375 74.21875 
Q 40.828125 74.21875 47.359375 69.109375 
Q 53.90625 64.015625 53.90625 55.328125 
Q 53.90625 49.265625 50.4375 45.09375 
Q 46.96875 40.921875 40.578125 39.3125 
z
" id="DejaVuSans-51"/>
      <path d="M 31 75.875 
Q 24.46875 64.65625 21.28125 53.65625 
Q 18.109375 42.671875 18.109375 31.390625 
Q 18.109375 20.125 21.3125 9.0625 
Q 24.515625 -2 31 -13.1875 
L 23.1875 -13.1875 
Q 15.875 -1.703125 12.234375 9.375 
Q 8.59375 20.453125 8.59375 31.390625 
Q 8.59375 42.28125 12.203125 53.3125 
Q 15.828125 64.359375 23.1875 75.875 
z
" id="DejaVuSans-40"/>
      <path d="M 10.59375 45.40625 
L 73.1875 45.40625 
L 73.1875 37.203125 
L 10.59375 37.203125 
z
M 10.59375 25.484375 
L 73.1875 25.484375 
L 73.1875 17.1875 
L 10.59375 17.1875 
z
" id="DejaVuSans-61"/>
      <path d="M 8.203125 72.90625 
L 55.078125 72.90625 
L 55.078125 68.703125 
L 28.609375 0 
L 18.3125 0 
L 43.21875 64.59375 
L 8.203125 64.59375 
z
" id="DejaVuSans-55"/>
      <path d="M 10.984375 1.515625 
L 10.984375 10.5 
Q 14.703125 8.734375 18.5 7.8125 
Q 22.3125 6.890625 25.984375 6.890625 
Q 35.75 6.890625 40.890625 13.453125 
Q 46.046875 20.015625 46.78125 33.40625 
Q 43.953125 29.203125 39.59375 26.953125 
Q 35.25 24.703125 29.984375 24.703125 
Q 19.046875 24.703125 12.671875 31.3125 
Q 6.296875 37.9375 6.296875 49.421875 
Q 6.296875 60.640625 12.9375 67.421875 
Q 19.578125 74.21875 30.609375 74.21875 
Q 43.265625 74.21875 49.921875 64.515625 
Q 56.59375 54.828125 56.59375 36.375 
Q 56.59375 19.140625 48.40625 8.859375 
Q 40.234375 -1.421875 26.421875 -1.421875 
Q 22.703125 -1.421875 18.890625 -0.6875 
Q 15.09375 0.046875 10.984375 1.515625 
z
M 30.609375 32.421875 
Q 37.25 32.421875 41.125 36.953125 
Q 45.015625 41.5 45.015625 49.421875 
Q 45.015625 57.28125 41.125 61.84375 
Q 37.25 66.40625 30.609375 66.40625 
Q 23.96875 66.40625 20.09375 61.84375 
Q 16.21875 57.28125 16.21875 49.421875 
Q 16.21875 41.5 20.09375 36.953125 
Q 23.96875 32.421875 30.609375 32.421875 
z
" id="DejaVuSans-57"/>
      <path d="M 8.015625 75.875 
L 15.828125 75.875 
Q 23.140625 64.359375 26.78125 53.3125 
Q 30.421875 42.28125 30.421875 31.390625 
Q 30.421875 20.453125 26.78125 9.375 
Q 23.140625 -1.703125 15.828125 -13.1875 
L 8.015625 -13.1875 
Q 14.5 -2 17.703125 9.0625 
Q 20.90625 20.125 20.90625 31.390625 
Q 20.90625 42.671875 17.703125 53.65625 
Q 14.5 64.65625 8.015625 75.875 
z
" id="DejaVuSans-41"/>
     </defs>
     <g transform="translate(445.081875 505.992188)scale(0.06 -0.06)">
      <use xlink:href="#DejaVuSans-68"/>
      <use x="77.001953" xlink:href="#DejaVuSans-48"/>
      <use x="140.625" xlink:href="#DejaVuSans-52"/>
      <use x="204.248047" xlink:href="#DejaVuSans-51"/>
      <use x="267.871094" xlink:href="#DejaVuSans-49"/>
      <use x="331.494141" xlink:href="#DejaVuSans-56"/>
      <use x="395.117188" xlink:href="#DejaVuSans-51"/>
      <use x="458.740234" xlink:href="#DejaVuSans-32"/>
      <use x="490.527344" xlink:href="#DejaVuSans-40"/>
      <use x="529.541016" xlink:href="#DejaVuSans-97"/>
      <use x="590.820312" xlink:href="#DejaVuSans-114"/>
      <use x="631.902344" xlink:href="#DejaVuSans-101"/>
      <use x="693.425781" xlink:href="#DejaVuSans-97"/>
      <use x="754.705078" xlink:href="#DejaVuSans-32"/>
      <use x="786.492188" xlink:href="#DejaVuSans-61"/>
      <use x="870.28125" xlink:href="#DejaVuSans-48"/>
      <use x="933.904297" xlink:href="#DejaVuSans-46"/>
      <use x="965.691406" xlink:href="#DejaVuSans-55"/>
      <use x="1029.314453" xlink:href="#DejaVuSans-57"/>
      <use x="1092.9375" xlink:href="#DejaVuSans-41"/>
     </g>
    </g>
   </g>
  </g>
 </g>
 <defs>
  <clipPath id="p8544042af0">
   <rect height="443.52" width="446.4" x="72" y="69.12"/>
  </clipPath>
 </defs>
</svg>
